%TF.GenerationSoftware,KiCad,Pcbnew,(5.1.9)-1*%
%TF.CreationDate,2021-11-03T00:36:12-04:00*%
%TF.ProjectId,main,6d61696e-2e6b-4696-9361-645f70636258,rev?*%
%TF.SameCoordinates,Original*%
%TF.FileFunction,Legend,Top*%
%TF.FilePolarity,Positive*%
%FSLAX46Y46*%
G04 Gerber Fmt 4.6, Leading zero omitted, Abs format (unit mm)*
G04 Created by KiCad (PCBNEW (5.1.9)-1) date 2021-11-03 00:36:12*
%MOMM*%
%LPD*%
G01*
G04 APERTURE LIST*
%ADD10C,0.200000*%
%ADD11C,0.120000*%
%ADD12C,0.150000*%
G04 APERTURE END LIST*
D10*
X111577380Y-63396428D02*
X110577380Y-63396428D01*
X110577380Y-63158333D01*
X110625000Y-63015476D01*
X110720238Y-62920238D01*
X110815476Y-62872619D01*
X111005952Y-62825000D01*
X111148809Y-62825000D01*
X111339285Y-62872619D01*
X111434523Y-62920238D01*
X111529761Y-63015476D01*
X111577380Y-63158333D01*
X111577380Y-63396428D01*
X110577380Y-62539285D02*
X110577380Y-61967857D01*
X111577380Y-62253571D02*
X110577380Y-62253571D01*
X111053571Y-61634523D02*
X111053571Y-61301190D01*
X111577380Y-61158333D02*
X111577380Y-61634523D01*
X110577380Y-61634523D01*
X110577380Y-61158333D01*
X110529761Y-60015476D02*
X111815476Y-60872619D01*
X111577380Y-59682142D02*
X110577380Y-59682142D01*
X110577380Y-59444047D01*
X110625000Y-59301190D01*
X110720238Y-59205952D01*
X110815476Y-59158333D01*
X111005952Y-59110714D01*
X111148809Y-59110714D01*
X111339285Y-59158333D01*
X111434523Y-59205952D01*
X111529761Y-59301190D01*
X111577380Y-59444047D01*
X111577380Y-59682142D01*
X111482142Y-58110714D02*
X111529761Y-58158333D01*
X111577380Y-58301190D01*
X111577380Y-58396428D01*
X111529761Y-58539285D01*
X111434523Y-58634523D01*
X111339285Y-58682142D01*
X111148809Y-58729761D01*
X111005952Y-58729761D01*
X110815476Y-58682142D01*
X110720238Y-58634523D01*
X110625000Y-58539285D01*
X110577380Y-58396428D01*
X110577380Y-58301190D01*
X110625000Y-58158333D01*
X110672619Y-58110714D01*
X111053571Y-57682142D02*
X111053571Y-57348809D01*
X111577380Y-57205952D02*
X111577380Y-57682142D01*
X110577380Y-57682142D01*
X110577380Y-57205952D01*
X108370714Y-111926190D02*
X109037380Y-111926190D01*
X107989761Y-112164285D02*
X108704047Y-112402380D01*
X108704047Y-111783333D01*
X108656428Y-111402380D02*
X108656428Y-110640476D01*
X108513571Y-109830952D02*
X108561190Y-109688095D01*
X108608809Y-109640476D01*
X108704047Y-109592857D01*
X108846904Y-109592857D01*
X108942142Y-109640476D01*
X108989761Y-109688095D01*
X109037380Y-109783333D01*
X109037380Y-110164285D01*
X108037380Y-110164285D01*
X108037380Y-109830952D01*
X108085000Y-109735714D01*
X108132619Y-109688095D01*
X108227857Y-109640476D01*
X108323095Y-109640476D01*
X108418333Y-109688095D01*
X108465952Y-109735714D01*
X108513571Y-109830952D01*
X108513571Y-110164285D01*
X109037380Y-109164285D02*
X108037380Y-109164285D01*
X108037380Y-108830952D02*
X108037380Y-108259523D01*
X109037380Y-108545238D02*
X108037380Y-108545238D01*
X109037380Y-107164285D02*
X108037380Y-107164285D01*
X108751666Y-106830952D01*
X108037380Y-106497619D01*
X109037380Y-106497619D01*
X108037380Y-105830952D02*
X108037380Y-105640476D01*
X108085000Y-105545238D01*
X108180238Y-105450000D01*
X108370714Y-105402380D01*
X108704047Y-105402380D01*
X108894523Y-105450000D01*
X108989761Y-105545238D01*
X109037380Y-105640476D01*
X109037380Y-105830952D01*
X108989761Y-105926190D01*
X108894523Y-106021428D01*
X108704047Y-106069047D01*
X108370714Y-106069047D01*
X108180238Y-106021428D01*
X108085000Y-105926190D01*
X108037380Y-105830952D01*
X109037380Y-104973809D02*
X108037380Y-104973809D01*
X108037380Y-104735714D01*
X108085000Y-104592857D01*
X108180238Y-104497619D01*
X108275476Y-104450000D01*
X108465952Y-104402380D01*
X108608809Y-104402380D01*
X108799285Y-104450000D01*
X108894523Y-104497619D01*
X108989761Y-104592857D01*
X109037380Y-104735714D01*
X109037380Y-104973809D01*
X108513571Y-103973809D02*
X108513571Y-103640476D01*
X109037380Y-103497619D02*
X109037380Y-103973809D01*
X108037380Y-103973809D01*
X108037380Y-103497619D01*
X52498285Y-21137619D02*
X52831619Y-21613809D01*
X53069714Y-21137619D02*
X53069714Y-22137619D01*
X52688761Y-22137619D01*
X52593523Y-22090000D01*
X52545904Y-22042380D01*
X52498285Y-21947142D01*
X52498285Y-21804285D01*
X52545904Y-21709047D01*
X52593523Y-21661428D01*
X52688761Y-21613809D01*
X53069714Y-21613809D01*
X52117333Y-21185238D02*
X51974476Y-21137619D01*
X51736380Y-21137619D01*
X51641142Y-21185238D01*
X51593523Y-21232857D01*
X51545904Y-21328095D01*
X51545904Y-21423333D01*
X51593523Y-21518571D01*
X51641142Y-21566190D01*
X51736380Y-21613809D01*
X51926857Y-21661428D01*
X52022095Y-21709047D01*
X52069714Y-21756666D01*
X52117333Y-21851904D01*
X52117333Y-21947142D01*
X52069714Y-22042380D01*
X52022095Y-22090000D01*
X51926857Y-22137619D01*
X51688761Y-22137619D01*
X51545904Y-22090000D01*
X51117333Y-21518571D02*
X50355428Y-21518571D01*
X49926857Y-22042380D02*
X49879238Y-22090000D01*
X49784000Y-22137619D01*
X49545904Y-22137619D01*
X49450666Y-22090000D01*
X49403047Y-22042380D01*
X49355428Y-21947142D01*
X49355428Y-21851904D01*
X49403047Y-21709047D01*
X49974476Y-21137619D01*
X49355428Y-21137619D01*
X49022095Y-22137619D02*
X48403047Y-22137619D01*
X48736380Y-21756666D01*
X48593523Y-21756666D01*
X48498285Y-21709047D01*
X48450666Y-21661428D01*
X48403047Y-21566190D01*
X48403047Y-21328095D01*
X48450666Y-21232857D01*
X48498285Y-21185238D01*
X48593523Y-21137619D01*
X48879238Y-21137619D01*
X48974476Y-21185238D01*
X49022095Y-21232857D01*
X48022095Y-22042380D02*
X47974476Y-22090000D01*
X47879238Y-22137619D01*
X47641142Y-22137619D01*
X47545904Y-22090000D01*
X47498285Y-22042380D01*
X47450666Y-21947142D01*
X47450666Y-21851904D01*
X47498285Y-21709047D01*
X48069714Y-21137619D01*
X47450666Y-21137619D01*
X46450666Y-21232857D02*
X46498285Y-21185238D01*
X46641142Y-21137619D01*
X46736380Y-21137619D01*
X46879238Y-21185238D01*
X46974476Y-21280476D01*
X47022095Y-21375714D01*
X47069714Y-21566190D01*
X47069714Y-21709047D01*
X47022095Y-21899523D01*
X46974476Y-21994761D01*
X46879238Y-22090000D01*
X46736380Y-22137619D01*
X46641142Y-22137619D01*
X46498285Y-22090000D01*
X46450666Y-22042380D01*
X87114761Y-118276666D02*
X87590952Y-118276666D01*
X87019523Y-118562380D02*
X87352857Y-117562380D01*
X87686190Y-118562380D01*
X87876666Y-117562380D02*
X88448095Y-117562380D01*
X88162380Y-118562380D02*
X88162380Y-117562380D01*
X88733809Y-118276666D02*
X89210000Y-118276666D01*
X88638571Y-118562380D02*
X88971904Y-117562380D01*
X89305238Y-118562380D01*
X90210000Y-118562380D02*
X89876666Y-118086190D01*
X89638571Y-118562380D02*
X89638571Y-117562380D01*
X90019523Y-117562380D01*
X90114761Y-117610000D01*
X90162380Y-117657619D01*
X90210000Y-117752857D01*
X90210000Y-117895714D01*
X90162380Y-117990952D01*
X90114761Y-118038571D01*
X90019523Y-118086190D01*
X89638571Y-118086190D01*
X90638571Y-118562380D02*
X90638571Y-117562380D01*
X92162380Y-117562380D02*
X92162380Y-118276666D01*
X92114761Y-118419523D01*
X92019523Y-118514761D01*
X91876666Y-118562380D01*
X91781428Y-118562380D01*
X92829047Y-117562380D02*
X93019523Y-117562380D01*
X93114761Y-117610000D01*
X93210000Y-117705238D01*
X93257619Y-117895714D01*
X93257619Y-118229047D01*
X93210000Y-118419523D01*
X93114761Y-118514761D01*
X93019523Y-118562380D01*
X92829047Y-118562380D01*
X92733809Y-118514761D01*
X92638571Y-118419523D01*
X92590952Y-118229047D01*
X92590952Y-117895714D01*
X92638571Y-117705238D01*
X92733809Y-117610000D01*
X92829047Y-117562380D01*
X93876666Y-118086190D02*
X93876666Y-118562380D01*
X93543333Y-117562380D02*
X93876666Y-118086190D01*
X94210000Y-117562380D01*
X94495714Y-118514761D02*
X94638571Y-118562380D01*
X94876666Y-118562380D01*
X94971904Y-118514761D01*
X95019523Y-118467142D01*
X95067142Y-118371904D01*
X95067142Y-118276666D01*
X95019523Y-118181428D01*
X94971904Y-118133809D01*
X94876666Y-118086190D01*
X94686190Y-118038571D01*
X94590952Y-117990952D01*
X94543333Y-117943333D01*
X94495714Y-117848095D01*
X94495714Y-117752857D01*
X94543333Y-117657619D01*
X94590952Y-117610000D01*
X94686190Y-117562380D01*
X94924285Y-117562380D01*
X95067142Y-117610000D01*
X95352857Y-117562380D02*
X95924285Y-117562380D01*
X95638571Y-118562380D02*
X95638571Y-117562380D01*
X96257619Y-118562380D02*
X96257619Y-117562380D01*
X97305238Y-118467142D02*
X97257619Y-118514761D01*
X97114761Y-118562380D01*
X97019523Y-118562380D01*
X96876666Y-118514761D01*
X96781428Y-118419523D01*
X96733809Y-118324285D01*
X96686190Y-118133809D01*
X96686190Y-117990952D01*
X96733809Y-117800476D01*
X96781428Y-117705238D01*
X96876666Y-117610000D01*
X97019523Y-117562380D01*
X97114761Y-117562380D01*
X97257619Y-117610000D01*
X97305238Y-117657619D01*
X97733809Y-118562380D02*
X97733809Y-117562380D01*
X98305238Y-118562380D02*
X97876666Y-117990952D01*
X98305238Y-117562380D02*
X97733809Y-118133809D01*
X117562380Y-57084761D02*
X118562380Y-56846666D01*
X117848095Y-56656190D01*
X118562380Y-56465714D01*
X117562380Y-56227619D01*
X118467142Y-55275238D02*
X118514761Y-55322857D01*
X118562380Y-55465714D01*
X118562380Y-55560952D01*
X118514761Y-55703809D01*
X118419523Y-55799047D01*
X118324285Y-55846666D01*
X118133809Y-55894285D01*
X117990952Y-55894285D01*
X117800476Y-55846666D01*
X117705238Y-55799047D01*
X117610000Y-55703809D01*
X117562380Y-55560952D01*
X117562380Y-55465714D01*
X117610000Y-55322857D01*
X117657619Y-55275238D01*
X117990952Y-54703809D02*
X117943333Y-54799047D01*
X117895714Y-54846666D01*
X117800476Y-54894285D01*
X117752857Y-54894285D01*
X117657619Y-54846666D01*
X117610000Y-54799047D01*
X117562380Y-54703809D01*
X117562380Y-54513333D01*
X117610000Y-54418095D01*
X117657619Y-54370476D01*
X117752857Y-54322857D01*
X117800476Y-54322857D01*
X117895714Y-54370476D01*
X117943333Y-54418095D01*
X117990952Y-54513333D01*
X117990952Y-54703809D01*
X118038571Y-54799047D01*
X118086190Y-54846666D01*
X118181428Y-54894285D01*
X118371904Y-54894285D01*
X118467142Y-54846666D01*
X118514761Y-54799047D01*
X118562380Y-54703809D01*
X118562380Y-54513333D01*
X118514761Y-54418095D01*
X118467142Y-54370476D01*
X118371904Y-54322857D01*
X118181428Y-54322857D01*
X118086190Y-54370476D01*
X118038571Y-54418095D01*
X117990952Y-54513333D01*
X117562380Y-53703809D02*
X117562380Y-53608571D01*
X117610000Y-53513333D01*
X117657619Y-53465714D01*
X117752857Y-53418095D01*
X117943333Y-53370476D01*
X118181428Y-53370476D01*
X118371904Y-53418095D01*
X118467142Y-53465714D01*
X118514761Y-53513333D01*
X118562380Y-53608571D01*
X118562380Y-53703809D01*
X118514761Y-53799047D01*
X118467142Y-53846666D01*
X118371904Y-53894285D01*
X118181428Y-53941904D01*
X117943333Y-53941904D01*
X117752857Y-53894285D01*
X117657619Y-53846666D01*
X117610000Y-53799047D01*
X117562380Y-53703809D01*
X117562380Y-52322857D02*
X117562380Y-51751428D01*
X118562380Y-52037142D02*
X117562380Y-52037142D01*
X118562380Y-50846666D02*
X118086190Y-51180000D01*
X118562380Y-51418095D02*
X117562380Y-51418095D01*
X117562380Y-51037142D01*
X117610000Y-50941904D01*
X117657619Y-50894285D01*
X117752857Y-50846666D01*
X117895714Y-50846666D01*
X117990952Y-50894285D01*
X118038571Y-50941904D01*
X118086190Y-51037142D01*
X118086190Y-51418095D01*
X118514761Y-50465714D02*
X118562380Y-50322857D01*
X118562380Y-50084761D01*
X118514761Y-49989523D01*
X118467142Y-49941904D01*
X118371904Y-49894285D01*
X118276666Y-49894285D01*
X118181428Y-49941904D01*
X118133809Y-49989523D01*
X118086190Y-50084761D01*
X118038571Y-50275238D01*
X117990952Y-50370476D01*
X117943333Y-50418095D01*
X117848095Y-50465714D01*
X117752857Y-50465714D01*
X117657619Y-50418095D01*
X117610000Y-50370476D01*
X117562380Y-50275238D01*
X117562380Y-50037142D01*
X117610000Y-49894285D01*
X118181428Y-49465714D02*
X118181428Y-48703809D01*
X117990952Y-48084761D02*
X117943333Y-48180000D01*
X117895714Y-48227619D01*
X117800476Y-48275238D01*
X117752857Y-48275238D01*
X117657619Y-48227619D01*
X117610000Y-48180000D01*
X117562380Y-48084761D01*
X117562380Y-47894285D01*
X117610000Y-47799047D01*
X117657619Y-47751428D01*
X117752857Y-47703809D01*
X117800476Y-47703809D01*
X117895714Y-47751428D01*
X117943333Y-47799047D01*
X117990952Y-47894285D01*
X117990952Y-48084761D01*
X118038571Y-48180000D01*
X118086190Y-48227619D01*
X118181428Y-48275238D01*
X118371904Y-48275238D01*
X118467142Y-48227619D01*
X118514761Y-48180000D01*
X118562380Y-48084761D01*
X118562380Y-47894285D01*
X118514761Y-47799047D01*
X118467142Y-47751428D01*
X118371904Y-47703809D01*
X118181428Y-47703809D01*
X118086190Y-47751428D01*
X118038571Y-47799047D01*
X117990952Y-47894285D01*
X117562380Y-47084761D02*
X117562380Y-46989523D01*
X117610000Y-46894285D01*
X117657619Y-46846666D01*
X117752857Y-46799047D01*
X117943333Y-46751428D01*
X118181428Y-46751428D01*
X118371904Y-46799047D01*
X118467142Y-46846666D01*
X118514761Y-46894285D01*
X118562380Y-46989523D01*
X118562380Y-47084761D01*
X118514761Y-47180000D01*
X118467142Y-47227619D01*
X118371904Y-47275238D01*
X118181428Y-47322857D01*
X117943333Y-47322857D01*
X117752857Y-47275238D01*
X117657619Y-47227619D01*
X117610000Y-47180000D01*
X117562380Y-47084761D01*
X118562380Y-44989523D02*
X118086190Y-45322857D01*
X118562380Y-45560952D02*
X117562380Y-45560952D01*
X117562380Y-45180000D01*
X117610000Y-45084761D01*
X117657619Y-45037142D01*
X117752857Y-44989523D01*
X117895714Y-44989523D01*
X117990952Y-45037142D01*
X118038571Y-45084761D01*
X118086190Y-45180000D01*
X118086190Y-45560952D01*
X118514761Y-44608571D02*
X118562380Y-44465714D01*
X118562380Y-44227619D01*
X118514761Y-44132380D01*
X118467142Y-44084761D01*
X118371904Y-44037142D01*
X118276666Y-44037142D01*
X118181428Y-44084761D01*
X118133809Y-44132380D01*
X118086190Y-44227619D01*
X118038571Y-44418095D01*
X117990952Y-44513333D01*
X117943333Y-44560952D01*
X117848095Y-44608571D01*
X117752857Y-44608571D01*
X117657619Y-44560952D01*
X117610000Y-44513333D01*
X117562380Y-44418095D01*
X117562380Y-44180000D01*
X117610000Y-44037142D01*
X118181428Y-43608571D02*
X118181428Y-42846666D01*
X117657619Y-42418095D02*
X117610000Y-42370476D01*
X117562380Y-42275238D01*
X117562380Y-42037142D01*
X117610000Y-41941904D01*
X117657619Y-41894285D01*
X117752857Y-41846666D01*
X117848095Y-41846666D01*
X117990952Y-41894285D01*
X118562380Y-42465714D01*
X118562380Y-41846666D01*
X117562380Y-41513333D02*
X117562380Y-40894285D01*
X117943333Y-41227619D01*
X117943333Y-41084761D01*
X117990952Y-40989523D01*
X118038571Y-40941904D01*
X118133809Y-40894285D01*
X118371904Y-40894285D01*
X118467142Y-40941904D01*
X118514761Y-40989523D01*
X118562380Y-41084761D01*
X118562380Y-41370476D01*
X118514761Y-41465714D01*
X118467142Y-41513333D01*
X117657619Y-40513333D02*
X117610000Y-40465714D01*
X117562380Y-40370476D01*
X117562380Y-40132380D01*
X117610000Y-40037142D01*
X117657619Y-39989523D01*
X117752857Y-39941904D01*
X117848095Y-39941904D01*
X117990952Y-39989523D01*
X118562380Y-40560952D01*
X118562380Y-39941904D01*
X118467142Y-38941904D02*
X118514761Y-38989523D01*
X118562380Y-39132380D01*
X118562380Y-39227619D01*
X118514761Y-39370476D01*
X118419523Y-39465714D01*
X118324285Y-39513333D01*
X118133809Y-39560952D01*
X117990952Y-39560952D01*
X117800476Y-39513333D01*
X117705238Y-39465714D01*
X117610000Y-39370476D01*
X117562380Y-39227619D01*
X117562380Y-39132380D01*
X117610000Y-38989523D01*
X117657619Y-38941904D01*
X118562380Y-36941904D02*
X118562380Y-36989523D01*
X118514761Y-37084761D01*
X118371904Y-37227619D01*
X118086190Y-37465714D01*
X117943333Y-37560952D01*
X117800476Y-37608571D01*
X117705238Y-37608571D01*
X117610000Y-37560952D01*
X117562380Y-37465714D01*
X117562380Y-37418095D01*
X117610000Y-37322857D01*
X117705238Y-37275238D01*
X117752857Y-37275238D01*
X117848095Y-37322857D01*
X117895714Y-37370476D01*
X118086190Y-37656190D01*
X118133809Y-37703809D01*
X118229047Y-37751428D01*
X118371904Y-37751428D01*
X118467142Y-37703809D01*
X118514761Y-37656190D01*
X118562380Y-37560952D01*
X118562380Y-37418095D01*
X118514761Y-37322857D01*
X118467142Y-37275238D01*
X118276666Y-37132380D01*
X118133809Y-37084761D01*
X118038571Y-37084761D01*
X117562380Y-35465714D02*
X118276666Y-35465714D01*
X118419523Y-35513333D01*
X118514761Y-35608571D01*
X118562380Y-35751428D01*
X118562380Y-35846666D01*
X117562380Y-34799047D02*
X117562380Y-34608571D01*
X117610000Y-34513333D01*
X117705238Y-34418095D01*
X117895714Y-34370476D01*
X118229047Y-34370476D01*
X118419523Y-34418095D01*
X118514761Y-34513333D01*
X118562380Y-34608571D01*
X118562380Y-34799047D01*
X118514761Y-34894285D01*
X118419523Y-34989523D01*
X118229047Y-35037142D01*
X117895714Y-35037142D01*
X117705238Y-34989523D01*
X117610000Y-34894285D01*
X117562380Y-34799047D01*
X118086190Y-33751428D02*
X118562380Y-33751428D01*
X117562380Y-34084761D02*
X118086190Y-33751428D01*
X117562380Y-33418095D01*
X118514761Y-33132380D02*
X118562380Y-32989523D01*
X118562380Y-32751428D01*
X118514761Y-32656190D01*
X118467142Y-32608571D01*
X118371904Y-32560952D01*
X118276666Y-32560952D01*
X118181428Y-32608571D01*
X118133809Y-32656190D01*
X118086190Y-32751428D01*
X118038571Y-32941904D01*
X117990952Y-33037142D01*
X117943333Y-33084761D01*
X117848095Y-33132380D01*
X117752857Y-33132380D01*
X117657619Y-33084761D01*
X117610000Y-33037142D01*
X117562380Y-32941904D01*
X117562380Y-32703809D01*
X117610000Y-32560952D01*
X117562380Y-32275238D02*
X117562380Y-31703809D01*
X118562380Y-31989523D02*
X117562380Y-31989523D01*
X118562380Y-31370476D02*
X117562380Y-31370476D01*
X118467142Y-30322857D02*
X118514761Y-30370476D01*
X118562380Y-30513333D01*
X118562380Y-30608571D01*
X118514761Y-30751428D01*
X118419523Y-30846666D01*
X118324285Y-30894285D01*
X118133809Y-30941904D01*
X117990952Y-30941904D01*
X117800476Y-30894285D01*
X117705238Y-30846666D01*
X117610000Y-30751428D01*
X117562380Y-30608571D01*
X117562380Y-30513333D01*
X117610000Y-30370476D01*
X117657619Y-30322857D01*
X118562380Y-29894285D02*
X117562380Y-29894285D01*
X118562380Y-29322857D02*
X117990952Y-29751428D01*
X117562380Y-29322857D02*
X118133809Y-29894285D01*
D11*
%TO.C,U10*%
X40700000Y-112505000D02*
X40700000Y-110855000D01*
X30420000Y-112505000D02*
X40700000Y-112505000D01*
X30420000Y-107205000D02*
X30420000Y-112505000D01*
X40700000Y-107205000D02*
X30420000Y-107205000D01*
X40700000Y-108855000D02*
X40700000Y-107205000D01*
X40700000Y-110855000D02*
G75*
G02*
X40700000Y-108855000I0J1000000D01*
G01*
%TO.C,U9*%
X40700000Y-96630000D02*
X40700000Y-94980000D01*
X30420000Y-96630000D02*
X40700000Y-96630000D01*
X30420000Y-91330000D02*
X30420000Y-96630000D01*
X40700000Y-91330000D02*
X30420000Y-91330000D01*
X40700000Y-92980000D02*
X40700000Y-91330000D01*
X40700000Y-94980000D02*
G75*
G02*
X40700000Y-92980000I0J1000000D01*
G01*
%TO.C,U4*%
X111820000Y-69730000D02*
X101540000Y-69730000D01*
X111820000Y-95370000D02*
X111820000Y-69730000D01*
X101540000Y-95370000D02*
X111820000Y-95370000D01*
X101540000Y-69730000D02*
X101540000Y-95370000D01*
X109330000Y-69790000D02*
X107680000Y-69790000D01*
X109330000Y-95310000D02*
X109330000Y-69790000D01*
X104030000Y-95310000D02*
X109330000Y-95310000D01*
X104030000Y-69790000D02*
X104030000Y-95310000D01*
X105680000Y-69790000D02*
X104030000Y-69790000D01*
X107680000Y-69790000D02*
G75*
G02*
X105680000Y-69790000I-1000000J0D01*
G01*
%TO.C,JP2*%
X104080000Y-105350000D02*
X105410000Y-105350000D01*
X104080000Y-106680000D02*
X104080000Y-105350000D01*
X104080000Y-107950000D02*
X106740000Y-107950000D01*
X106740000Y-107950000D02*
X106740000Y-110550000D01*
X104080000Y-107950000D02*
X104080000Y-110550000D01*
X104080000Y-110550000D02*
X106740000Y-110550000D01*
%TO.C,J2*%
X54600000Y-108020000D02*
X85400000Y-108020000D01*
X54600000Y-120020000D02*
X54600000Y-108020000D01*
X85400000Y-120020000D02*
X85400000Y-108020000D01*
X54600000Y-120020000D02*
X85400000Y-120020000D01*
%TO.C,D2*%
X96270000Y-104290000D02*
X96270000Y-106530000D01*
X96510000Y-104290000D02*
X96510000Y-106530000D01*
X96390000Y-104290000D02*
X96390000Y-106530000D01*
X100560000Y-105410000D02*
X99910000Y-105410000D01*
X95020000Y-105410000D02*
X95670000Y-105410000D01*
X99910000Y-104290000D02*
X95670000Y-104290000D01*
X99910000Y-106530000D02*
X99910000Y-104290000D01*
X95670000Y-106530000D02*
X99910000Y-106530000D01*
X95670000Y-104290000D02*
X95670000Y-106530000D01*
%TO.C,D1*%
X96270000Y-109370000D02*
X96270000Y-111610000D01*
X96510000Y-109370000D02*
X96510000Y-111610000D01*
X96390000Y-109370000D02*
X96390000Y-111610000D01*
X100560000Y-110490000D02*
X99910000Y-110490000D01*
X95020000Y-110490000D02*
X95670000Y-110490000D01*
X99910000Y-109370000D02*
X95670000Y-109370000D01*
X99910000Y-111610000D02*
X99910000Y-109370000D01*
X95670000Y-111610000D02*
X99910000Y-111610000D01*
X95670000Y-109370000D02*
X95670000Y-111610000D01*
%TO.C,JP1*%
X109280000Y-61655000D02*
X109280000Y-58995000D01*
X106680000Y-61655000D02*
X109280000Y-61655000D01*
X106680000Y-58995000D02*
X109280000Y-58995000D01*
X106680000Y-61655000D02*
X106680000Y-58995000D01*
X105410000Y-61655000D02*
X104080000Y-61655000D01*
X104080000Y-61655000D02*
X104080000Y-60325000D01*
%TO.C,U8*%
X48530000Y-34230000D02*
X46880000Y-34230000D01*
X46880000Y-34230000D02*
X46880000Y-59750000D01*
X46880000Y-59750000D02*
X52180000Y-59750000D01*
X52180000Y-59750000D02*
X52180000Y-34230000D01*
X52180000Y-34230000D02*
X50530000Y-34230000D01*
X44390000Y-34170000D02*
X44390000Y-59810000D01*
X44390000Y-59810000D02*
X54670000Y-59810000D01*
X54670000Y-59810000D02*
X54670000Y-34170000D01*
X54670000Y-34170000D02*
X44390000Y-34170000D01*
X50530000Y-34230000D02*
G75*
G02*
X48530000Y-34230000I-1000000J0D01*
G01*
%TO.C,U7*%
X105680000Y-30420000D02*
X104030000Y-30420000D01*
X104030000Y-30420000D02*
X104030000Y-50860000D01*
X104030000Y-50860000D02*
X109330000Y-50860000D01*
X109330000Y-50860000D02*
X109330000Y-30420000D01*
X109330000Y-30420000D02*
X107680000Y-30420000D01*
X101540000Y-30360000D02*
X101540000Y-50920000D01*
X101540000Y-50920000D02*
X111820000Y-50920000D01*
X111820000Y-50920000D02*
X111820000Y-30360000D01*
X111820000Y-30360000D02*
X101540000Y-30360000D01*
X107680000Y-30420000D02*
G75*
G02*
X105680000Y-30420000I-1000000J0D01*
G01*
%TO.C,U6*%
X89170000Y-52010000D02*
X87520000Y-52010000D01*
X87520000Y-52010000D02*
X87520000Y-69910000D01*
X87520000Y-69910000D02*
X92820000Y-69910000D01*
X92820000Y-69910000D02*
X92820000Y-52010000D01*
X92820000Y-52010000D02*
X91170000Y-52010000D01*
X85030000Y-51950000D02*
X85030000Y-69970000D01*
X85030000Y-69970000D02*
X95310000Y-69970000D01*
X95310000Y-69970000D02*
X95310000Y-51950000D01*
X95310000Y-51950000D02*
X85030000Y-51950000D01*
X91170000Y-52010000D02*
G75*
G02*
X89170000Y-52010000I-1000000J0D01*
G01*
%TO.C,U3*%
X89170000Y-73600000D02*
X87520000Y-73600000D01*
X87520000Y-73600000D02*
X87520000Y-99120000D01*
X87520000Y-99120000D02*
X92820000Y-99120000D01*
X92820000Y-99120000D02*
X92820000Y-73600000D01*
X92820000Y-73600000D02*
X91170000Y-73600000D01*
X85030000Y-73540000D02*
X85030000Y-99180000D01*
X85030000Y-99180000D02*
X95310000Y-99180000D01*
X95310000Y-99180000D02*
X95310000Y-73540000D01*
X95310000Y-73540000D02*
X85030000Y-73540000D01*
X91170000Y-73600000D02*
G75*
G02*
X89170000Y-73600000I-1000000J0D01*
G01*
%TO.C,J5*%
X85400000Y-19980000D02*
X54600000Y-19980000D01*
X54600000Y-19980000D02*
X54600000Y-31980000D01*
X85400000Y-19980000D02*
X85400000Y-31980000D01*
X85400000Y-31980000D02*
X54600000Y-31980000D01*
%TO.C,Y1*%
X56540000Y-76940000D02*
X56540000Y-63540000D01*
X56540000Y-63540000D02*
X45240000Y-63540000D01*
X45240000Y-63540000D02*
X45240000Y-76940000D01*
X45240000Y-76940000D02*
X56540000Y-76940000D01*
X53340000Y-76940000D02*
X53340000Y-77790000D01*
X53340000Y-77790000D02*
X53340000Y-77790000D01*
X48440000Y-76940000D02*
X48440000Y-77790000D01*
X48440000Y-77790000D02*
X48440000Y-77790000D01*
X56890000Y-76940000D02*
X56890000Y-77060000D01*
X56890000Y-77060000D02*
X44890000Y-77060000D01*
X44890000Y-77060000D02*
X44890000Y-76940000D01*
X44890000Y-76940000D02*
X56890000Y-76940000D01*
%TO.C,U5*%
X95310000Y-40910000D02*
X95310000Y-39260000D01*
X95310000Y-39260000D02*
X59630000Y-39260000D01*
X59630000Y-39260000D02*
X59630000Y-44560000D01*
X59630000Y-44560000D02*
X95310000Y-44560000D01*
X95310000Y-44560000D02*
X95310000Y-42910000D01*
X95370000Y-36770000D02*
X59570000Y-36770000D01*
X59570000Y-36770000D02*
X59570000Y-47050000D01*
X59570000Y-47050000D02*
X95370000Y-47050000D01*
X95370000Y-47050000D02*
X95370000Y-36770000D01*
X95310000Y-42910000D02*
G75*
G02*
X95310000Y-40910000I0J1000000D01*
G01*
%TO.C,U2*%
X49800000Y-81220000D02*
X48150000Y-81220000D01*
X48150000Y-81220000D02*
X48150000Y-104200000D01*
X48150000Y-104200000D02*
X53450000Y-104200000D01*
X53450000Y-104200000D02*
X53450000Y-81220000D01*
X53450000Y-81220000D02*
X51800000Y-81220000D01*
X45660000Y-81160000D02*
X45660000Y-104260000D01*
X45660000Y-104260000D02*
X55940000Y-104260000D01*
X55940000Y-104260000D02*
X55940000Y-81160000D01*
X55940000Y-81160000D02*
X45660000Y-81160000D01*
X51800000Y-81220000D02*
G75*
G02*
X49800000Y-81220000I-1000000J0D01*
G01*
%TO.C,U1*%
X72120000Y-102930000D02*
X77580000Y-102930000D01*
X77580000Y-102930000D02*
X77580000Y-52010000D01*
X77580000Y-52010000D02*
X64660000Y-52010000D01*
X64660000Y-52010000D02*
X64660000Y-102930000D01*
X64660000Y-102930000D02*
X70120000Y-102930000D01*
X80070000Y-102990000D02*
X80070000Y-51950000D01*
X80070000Y-51950000D02*
X62170000Y-51950000D01*
X62170000Y-51950000D02*
X62170000Y-102990000D01*
X62170000Y-102990000D02*
X80070000Y-102990000D01*
X70120000Y-102930000D02*
G75*
G02*
X72120000Y-102930000I1000000J0D01*
G01*
%TO.C,U22*%
X40700000Y-55760000D02*
X30420000Y-55760000D01*
X40700000Y-86480000D02*
X40700000Y-55760000D01*
X30420000Y-86480000D02*
X40700000Y-86480000D01*
X30420000Y-55760000D02*
X30420000Y-86480000D01*
X38210000Y-55820000D02*
X36560000Y-55820000D01*
X38210000Y-86420000D02*
X38210000Y-55820000D01*
X32910000Y-86420000D02*
X38210000Y-86420000D01*
X32910000Y-55820000D02*
X32910000Y-86420000D01*
X34560000Y-55820000D02*
X32910000Y-55820000D01*
X36560000Y-55820000D02*
G75*
G02*
X34560000Y-55820000I-1000000J0D01*
G01*
%TO.C,C1*%
X38140000Y-43015000D02*
G75*
G03*
X38140000Y-43015000I-4120000J0D01*
G01*
X34020000Y-38935000D02*
X34020000Y-47095000D01*
X34060000Y-38935000D02*
X34060000Y-47095000D01*
X34100000Y-38935000D02*
X34100000Y-47095000D01*
X34140000Y-38936000D02*
X34140000Y-47094000D01*
X34180000Y-38938000D02*
X34180000Y-47092000D01*
X34220000Y-38939000D02*
X34220000Y-47091000D01*
X34260000Y-38941000D02*
X34260000Y-47089000D01*
X34300000Y-38944000D02*
X34300000Y-47086000D01*
X34340000Y-38947000D02*
X34340000Y-47083000D01*
X34380000Y-38950000D02*
X34380000Y-47080000D01*
X34420000Y-38954000D02*
X34420000Y-47076000D01*
X34460000Y-38958000D02*
X34460000Y-47072000D01*
X34500000Y-38963000D02*
X34500000Y-47067000D01*
X34540000Y-38967000D02*
X34540000Y-47063000D01*
X34580000Y-38973000D02*
X34580000Y-47057000D01*
X34620000Y-38978000D02*
X34620000Y-47052000D01*
X34660000Y-38985000D02*
X34660000Y-47045000D01*
X34700000Y-38991000D02*
X34700000Y-47039000D01*
X34741000Y-38998000D02*
X34741000Y-41975000D01*
X34741000Y-44055000D02*
X34741000Y-47032000D01*
X34781000Y-39005000D02*
X34781000Y-41975000D01*
X34781000Y-44055000D02*
X34781000Y-47025000D01*
X34821000Y-39013000D02*
X34821000Y-41975000D01*
X34821000Y-44055000D02*
X34821000Y-47017000D01*
X34861000Y-39021000D02*
X34861000Y-41975000D01*
X34861000Y-44055000D02*
X34861000Y-47009000D01*
X34901000Y-39030000D02*
X34901000Y-41975000D01*
X34901000Y-44055000D02*
X34901000Y-47000000D01*
X34941000Y-39039000D02*
X34941000Y-41975000D01*
X34941000Y-44055000D02*
X34941000Y-46991000D01*
X34981000Y-39048000D02*
X34981000Y-41975000D01*
X34981000Y-44055000D02*
X34981000Y-46982000D01*
X35021000Y-39058000D02*
X35021000Y-41975000D01*
X35021000Y-44055000D02*
X35021000Y-46972000D01*
X35061000Y-39068000D02*
X35061000Y-41975000D01*
X35061000Y-44055000D02*
X35061000Y-46962000D01*
X35101000Y-39079000D02*
X35101000Y-41975000D01*
X35101000Y-44055000D02*
X35101000Y-46951000D01*
X35141000Y-39090000D02*
X35141000Y-41975000D01*
X35141000Y-44055000D02*
X35141000Y-46940000D01*
X35181000Y-39101000D02*
X35181000Y-41975000D01*
X35181000Y-44055000D02*
X35181000Y-46929000D01*
X35221000Y-39113000D02*
X35221000Y-41975000D01*
X35221000Y-44055000D02*
X35221000Y-46917000D01*
X35261000Y-39126000D02*
X35261000Y-41975000D01*
X35261000Y-44055000D02*
X35261000Y-46904000D01*
X35301000Y-39138000D02*
X35301000Y-41975000D01*
X35301000Y-44055000D02*
X35301000Y-46892000D01*
X35341000Y-39152000D02*
X35341000Y-41975000D01*
X35341000Y-44055000D02*
X35341000Y-46878000D01*
X35381000Y-39165000D02*
X35381000Y-41975000D01*
X35381000Y-44055000D02*
X35381000Y-46865000D01*
X35421000Y-39180000D02*
X35421000Y-41975000D01*
X35421000Y-44055000D02*
X35421000Y-46850000D01*
X35461000Y-39194000D02*
X35461000Y-41975000D01*
X35461000Y-44055000D02*
X35461000Y-46836000D01*
X35501000Y-39210000D02*
X35501000Y-41975000D01*
X35501000Y-44055000D02*
X35501000Y-46820000D01*
X35541000Y-39225000D02*
X35541000Y-41975000D01*
X35541000Y-44055000D02*
X35541000Y-46805000D01*
X35581000Y-39241000D02*
X35581000Y-41975000D01*
X35581000Y-44055000D02*
X35581000Y-46789000D01*
X35621000Y-39258000D02*
X35621000Y-41975000D01*
X35621000Y-44055000D02*
X35621000Y-46772000D01*
X35661000Y-39275000D02*
X35661000Y-41975000D01*
X35661000Y-44055000D02*
X35661000Y-46755000D01*
X35701000Y-39293000D02*
X35701000Y-41975000D01*
X35701000Y-44055000D02*
X35701000Y-46737000D01*
X35741000Y-39311000D02*
X35741000Y-41975000D01*
X35741000Y-44055000D02*
X35741000Y-46719000D01*
X35781000Y-39329000D02*
X35781000Y-41975000D01*
X35781000Y-44055000D02*
X35781000Y-46701000D01*
X35821000Y-39349000D02*
X35821000Y-41975000D01*
X35821000Y-44055000D02*
X35821000Y-46681000D01*
X35861000Y-39368000D02*
X35861000Y-41975000D01*
X35861000Y-44055000D02*
X35861000Y-46662000D01*
X35901000Y-39388000D02*
X35901000Y-41975000D01*
X35901000Y-44055000D02*
X35901000Y-46642000D01*
X35941000Y-39409000D02*
X35941000Y-41975000D01*
X35941000Y-44055000D02*
X35941000Y-46621000D01*
X35981000Y-39431000D02*
X35981000Y-41975000D01*
X35981000Y-44055000D02*
X35981000Y-46599000D01*
X36021000Y-39453000D02*
X36021000Y-41975000D01*
X36021000Y-44055000D02*
X36021000Y-46577000D01*
X36061000Y-39475000D02*
X36061000Y-41975000D01*
X36061000Y-44055000D02*
X36061000Y-46555000D01*
X36101000Y-39498000D02*
X36101000Y-41975000D01*
X36101000Y-44055000D02*
X36101000Y-46532000D01*
X36141000Y-39522000D02*
X36141000Y-41975000D01*
X36141000Y-44055000D02*
X36141000Y-46508000D01*
X36181000Y-39546000D02*
X36181000Y-41975000D01*
X36181000Y-44055000D02*
X36181000Y-46484000D01*
X36221000Y-39571000D02*
X36221000Y-41975000D01*
X36221000Y-44055000D02*
X36221000Y-46459000D01*
X36261000Y-39597000D02*
X36261000Y-41975000D01*
X36261000Y-44055000D02*
X36261000Y-46433000D01*
X36301000Y-39623000D02*
X36301000Y-41975000D01*
X36301000Y-44055000D02*
X36301000Y-46407000D01*
X36341000Y-39650000D02*
X36341000Y-41975000D01*
X36341000Y-44055000D02*
X36341000Y-46380000D01*
X36381000Y-39677000D02*
X36381000Y-41975000D01*
X36381000Y-44055000D02*
X36381000Y-46353000D01*
X36421000Y-39706000D02*
X36421000Y-41975000D01*
X36421000Y-44055000D02*
X36421000Y-46324000D01*
X36461000Y-39735000D02*
X36461000Y-41975000D01*
X36461000Y-44055000D02*
X36461000Y-46295000D01*
X36501000Y-39765000D02*
X36501000Y-41975000D01*
X36501000Y-44055000D02*
X36501000Y-46265000D01*
X36541000Y-39795000D02*
X36541000Y-41975000D01*
X36541000Y-44055000D02*
X36541000Y-46235000D01*
X36581000Y-39826000D02*
X36581000Y-41975000D01*
X36581000Y-44055000D02*
X36581000Y-46204000D01*
X36621000Y-39859000D02*
X36621000Y-41975000D01*
X36621000Y-44055000D02*
X36621000Y-46171000D01*
X36661000Y-39891000D02*
X36661000Y-41975000D01*
X36661000Y-44055000D02*
X36661000Y-46139000D01*
X36701000Y-39925000D02*
X36701000Y-41975000D01*
X36701000Y-44055000D02*
X36701000Y-46105000D01*
X36741000Y-39960000D02*
X36741000Y-41975000D01*
X36741000Y-44055000D02*
X36741000Y-46070000D01*
X36781000Y-39996000D02*
X36781000Y-41975000D01*
X36781000Y-44055000D02*
X36781000Y-46034000D01*
X36821000Y-40032000D02*
X36821000Y-45998000D01*
X36861000Y-40070000D02*
X36861000Y-45960000D01*
X36901000Y-40108000D02*
X36901000Y-45922000D01*
X36941000Y-40148000D02*
X36941000Y-45882000D01*
X36981000Y-40189000D02*
X36981000Y-45841000D01*
X37021000Y-40231000D02*
X37021000Y-45799000D01*
X37061000Y-40274000D02*
X37061000Y-45756000D01*
X37101000Y-40318000D02*
X37101000Y-45712000D01*
X37141000Y-40364000D02*
X37141000Y-45666000D01*
X37181000Y-40411000D02*
X37181000Y-45619000D01*
X37221000Y-40459000D02*
X37221000Y-45571000D01*
X37261000Y-40510000D02*
X37261000Y-45520000D01*
X37301000Y-40561000D02*
X37301000Y-45469000D01*
X37341000Y-40615000D02*
X37341000Y-45415000D01*
X37381000Y-40670000D02*
X37381000Y-45360000D01*
X37421000Y-40728000D02*
X37421000Y-45302000D01*
X37461000Y-40787000D02*
X37461000Y-45243000D01*
X37501000Y-40849000D02*
X37501000Y-45181000D01*
X37541000Y-40913000D02*
X37541000Y-45117000D01*
X37581000Y-40981000D02*
X37581000Y-45049000D01*
X37621000Y-41051000D02*
X37621000Y-44979000D01*
X37661000Y-41125000D02*
X37661000Y-44905000D01*
X37701000Y-41202000D02*
X37701000Y-44828000D01*
X37741000Y-41284000D02*
X37741000Y-44746000D01*
X37781000Y-41370000D02*
X37781000Y-44660000D01*
X37821000Y-41463000D02*
X37821000Y-44567000D01*
X37861000Y-41562000D02*
X37861000Y-44468000D01*
X37901000Y-41669000D02*
X37901000Y-44361000D01*
X37941000Y-41786000D02*
X37941000Y-44244000D01*
X37981000Y-41917000D02*
X37981000Y-44113000D01*
X38021000Y-42067000D02*
X38021000Y-43963000D01*
X38061000Y-42247000D02*
X38061000Y-43783000D01*
X38101000Y-42482000D02*
X38101000Y-43548000D01*
X29610302Y-40700000D02*
X30410302Y-40700000D01*
X30010302Y-40300000D02*
X30010302Y-41100000D01*
%TO.C,C4*%
X38140000Y-33715000D02*
G75*
G03*
X38140000Y-33715000I-4120000J0D01*
G01*
X34020000Y-29635000D02*
X34020000Y-37795000D01*
X34060000Y-29635000D02*
X34060000Y-37795000D01*
X34100000Y-29635000D02*
X34100000Y-37795000D01*
X34140000Y-29636000D02*
X34140000Y-37794000D01*
X34180000Y-29638000D02*
X34180000Y-37792000D01*
X34220000Y-29639000D02*
X34220000Y-37791000D01*
X34260000Y-29641000D02*
X34260000Y-37789000D01*
X34300000Y-29644000D02*
X34300000Y-37786000D01*
X34340000Y-29647000D02*
X34340000Y-37783000D01*
X34380000Y-29650000D02*
X34380000Y-37780000D01*
X34420000Y-29654000D02*
X34420000Y-37776000D01*
X34460000Y-29658000D02*
X34460000Y-37772000D01*
X34500000Y-29663000D02*
X34500000Y-37767000D01*
X34540000Y-29667000D02*
X34540000Y-37763000D01*
X34580000Y-29673000D02*
X34580000Y-37757000D01*
X34620000Y-29678000D02*
X34620000Y-37752000D01*
X34660000Y-29685000D02*
X34660000Y-37745000D01*
X34700000Y-29691000D02*
X34700000Y-37739000D01*
X34741000Y-29698000D02*
X34741000Y-32675000D01*
X34741000Y-34755000D02*
X34741000Y-37732000D01*
X34781000Y-29705000D02*
X34781000Y-32675000D01*
X34781000Y-34755000D02*
X34781000Y-37725000D01*
X34821000Y-29713000D02*
X34821000Y-32675000D01*
X34821000Y-34755000D02*
X34821000Y-37717000D01*
X34861000Y-29721000D02*
X34861000Y-32675000D01*
X34861000Y-34755000D02*
X34861000Y-37709000D01*
X34901000Y-29730000D02*
X34901000Y-32675000D01*
X34901000Y-34755000D02*
X34901000Y-37700000D01*
X34941000Y-29739000D02*
X34941000Y-32675000D01*
X34941000Y-34755000D02*
X34941000Y-37691000D01*
X34981000Y-29748000D02*
X34981000Y-32675000D01*
X34981000Y-34755000D02*
X34981000Y-37682000D01*
X35021000Y-29758000D02*
X35021000Y-32675000D01*
X35021000Y-34755000D02*
X35021000Y-37672000D01*
X35061000Y-29768000D02*
X35061000Y-32675000D01*
X35061000Y-34755000D02*
X35061000Y-37662000D01*
X35101000Y-29779000D02*
X35101000Y-32675000D01*
X35101000Y-34755000D02*
X35101000Y-37651000D01*
X35141000Y-29790000D02*
X35141000Y-32675000D01*
X35141000Y-34755000D02*
X35141000Y-37640000D01*
X35181000Y-29801000D02*
X35181000Y-32675000D01*
X35181000Y-34755000D02*
X35181000Y-37629000D01*
X35221000Y-29813000D02*
X35221000Y-32675000D01*
X35221000Y-34755000D02*
X35221000Y-37617000D01*
X35261000Y-29826000D02*
X35261000Y-32675000D01*
X35261000Y-34755000D02*
X35261000Y-37604000D01*
X35301000Y-29838000D02*
X35301000Y-32675000D01*
X35301000Y-34755000D02*
X35301000Y-37592000D01*
X35341000Y-29852000D02*
X35341000Y-32675000D01*
X35341000Y-34755000D02*
X35341000Y-37578000D01*
X35381000Y-29865000D02*
X35381000Y-32675000D01*
X35381000Y-34755000D02*
X35381000Y-37565000D01*
X35421000Y-29880000D02*
X35421000Y-32675000D01*
X35421000Y-34755000D02*
X35421000Y-37550000D01*
X35461000Y-29894000D02*
X35461000Y-32675000D01*
X35461000Y-34755000D02*
X35461000Y-37536000D01*
X35501000Y-29910000D02*
X35501000Y-32675000D01*
X35501000Y-34755000D02*
X35501000Y-37520000D01*
X35541000Y-29925000D02*
X35541000Y-32675000D01*
X35541000Y-34755000D02*
X35541000Y-37505000D01*
X35581000Y-29941000D02*
X35581000Y-32675000D01*
X35581000Y-34755000D02*
X35581000Y-37489000D01*
X35621000Y-29958000D02*
X35621000Y-32675000D01*
X35621000Y-34755000D02*
X35621000Y-37472000D01*
X35661000Y-29975000D02*
X35661000Y-32675000D01*
X35661000Y-34755000D02*
X35661000Y-37455000D01*
X35701000Y-29993000D02*
X35701000Y-32675000D01*
X35701000Y-34755000D02*
X35701000Y-37437000D01*
X35741000Y-30011000D02*
X35741000Y-32675000D01*
X35741000Y-34755000D02*
X35741000Y-37419000D01*
X35781000Y-30029000D02*
X35781000Y-32675000D01*
X35781000Y-34755000D02*
X35781000Y-37401000D01*
X35821000Y-30049000D02*
X35821000Y-32675000D01*
X35821000Y-34755000D02*
X35821000Y-37381000D01*
X35861000Y-30068000D02*
X35861000Y-32675000D01*
X35861000Y-34755000D02*
X35861000Y-37362000D01*
X35901000Y-30088000D02*
X35901000Y-32675000D01*
X35901000Y-34755000D02*
X35901000Y-37342000D01*
X35941000Y-30109000D02*
X35941000Y-32675000D01*
X35941000Y-34755000D02*
X35941000Y-37321000D01*
X35981000Y-30131000D02*
X35981000Y-32675000D01*
X35981000Y-34755000D02*
X35981000Y-37299000D01*
X36021000Y-30153000D02*
X36021000Y-32675000D01*
X36021000Y-34755000D02*
X36021000Y-37277000D01*
X36061000Y-30175000D02*
X36061000Y-32675000D01*
X36061000Y-34755000D02*
X36061000Y-37255000D01*
X36101000Y-30198000D02*
X36101000Y-32675000D01*
X36101000Y-34755000D02*
X36101000Y-37232000D01*
X36141000Y-30222000D02*
X36141000Y-32675000D01*
X36141000Y-34755000D02*
X36141000Y-37208000D01*
X36181000Y-30246000D02*
X36181000Y-32675000D01*
X36181000Y-34755000D02*
X36181000Y-37184000D01*
X36221000Y-30271000D02*
X36221000Y-32675000D01*
X36221000Y-34755000D02*
X36221000Y-37159000D01*
X36261000Y-30297000D02*
X36261000Y-32675000D01*
X36261000Y-34755000D02*
X36261000Y-37133000D01*
X36301000Y-30323000D02*
X36301000Y-32675000D01*
X36301000Y-34755000D02*
X36301000Y-37107000D01*
X36341000Y-30350000D02*
X36341000Y-32675000D01*
X36341000Y-34755000D02*
X36341000Y-37080000D01*
X36381000Y-30377000D02*
X36381000Y-32675000D01*
X36381000Y-34755000D02*
X36381000Y-37053000D01*
X36421000Y-30406000D02*
X36421000Y-32675000D01*
X36421000Y-34755000D02*
X36421000Y-37024000D01*
X36461000Y-30435000D02*
X36461000Y-32675000D01*
X36461000Y-34755000D02*
X36461000Y-36995000D01*
X36501000Y-30465000D02*
X36501000Y-32675000D01*
X36501000Y-34755000D02*
X36501000Y-36965000D01*
X36541000Y-30495000D02*
X36541000Y-32675000D01*
X36541000Y-34755000D02*
X36541000Y-36935000D01*
X36581000Y-30526000D02*
X36581000Y-32675000D01*
X36581000Y-34755000D02*
X36581000Y-36904000D01*
X36621000Y-30559000D02*
X36621000Y-32675000D01*
X36621000Y-34755000D02*
X36621000Y-36871000D01*
X36661000Y-30591000D02*
X36661000Y-32675000D01*
X36661000Y-34755000D02*
X36661000Y-36839000D01*
X36701000Y-30625000D02*
X36701000Y-32675000D01*
X36701000Y-34755000D02*
X36701000Y-36805000D01*
X36741000Y-30660000D02*
X36741000Y-32675000D01*
X36741000Y-34755000D02*
X36741000Y-36770000D01*
X36781000Y-30696000D02*
X36781000Y-32675000D01*
X36781000Y-34755000D02*
X36781000Y-36734000D01*
X36821000Y-30732000D02*
X36821000Y-36698000D01*
X36861000Y-30770000D02*
X36861000Y-36660000D01*
X36901000Y-30808000D02*
X36901000Y-36622000D01*
X36941000Y-30848000D02*
X36941000Y-36582000D01*
X36981000Y-30889000D02*
X36981000Y-36541000D01*
X37021000Y-30931000D02*
X37021000Y-36499000D01*
X37061000Y-30974000D02*
X37061000Y-36456000D01*
X37101000Y-31018000D02*
X37101000Y-36412000D01*
X37141000Y-31064000D02*
X37141000Y-36366000D01*
X37181000Y-31111000D02*
X37181000Y-36319000D01*
X37221000Y-31159000D02*
X37221000Y-36271000D01*
X37261000Y-31210000D02*
X37261000Y-36220000D01*
X37301000Y-31261000D02*
X37301000Y-36169000D01*
X37341000Y-31315000D02*
X37341000Y-36115000D01*
X37381000Y-31370000D02*
X37381000Y-36060000D01*
X37421000Y-31428000D02*
X37421000Y-36002000D01*
X37461000Y-31487000D02*
X37461000Y-35943000D01*
X37501000Y-31549000D02*
X37501000Y-35881000D01*
X37541000Y-31613000D02*
X37541000Y-35817000D01*
X37581000Y-31681000D02*
X37581000Y-35749000D01*
X37621000Y-31751000D02*
X37621000Y-35679000D01*
X37661000Y-31825000D02*
X37661000Y-35605000D01*
X37701000Y-31902000D02*
X37701000Y-35528000D01*
X37741000Y-31984000D02*
X37741000Y-35446000D01*
X37781000Y-32070000D02*
X37781000Y-35360000D01*
X37821000Y-32163000D02*
X37821000Y-35267000D01*
X37861000Y-32262000D02*
X37861000Y-35168000D01*
X37901000Y-32369000D02*
X37901000Y-35061000D01*
X37941000Y-32486000D02*
X37941000Y-34944000D01*
X37981000Y-32617000D02*
X37981000Y-34813000D01*
X38021000Y-32767000D02*
X38021000Y-34663000D01*
X38061000Y-32947000D02*
X38061000Y-34483000D01*
X38101000Y-33182000D02*
X38101000Y-34248000D01*
X29610302Y-31400000D02*
X30410302Y-31400000D01*
X30010302Y-31000000D02*
X30010302Y-31800000D01*
%TO.C,J4*%
X21210000Y-29270000D02*
X22540000Y-29270000D01*
X21210000Y-30600000D02*
X21210000Y-29270000D01*
X23810000Y-29270000D02*
X26410000Y-29270000D01*
X23810000Y-31870000D02*
X23810000Y-29270000D01*
X21210000Y-31870000D02*
X23810000Y-31870000D01*
X26410000Y-29270000D02*
X26410000Y-39550000D01*
X21210000Y-31870000D02*
X21210000Y-39550000D01*
X21210000Y-39550000D02*
X26410000Y-39550000D01*
%TO.C,J1*%
X21210000Y-110730000D02*
X26410000Y-110730000D01*
X21210000Y-103050000D02*
X21210000Y-110730000D01*
X26410000Y-100450000D02*
X26410000Y-110730000D01*
X21210000Y-103050000D02*
X23810000Y-103050000D01*
X23810000Y-103050000D02*
X23810000Y-100450000D01*
X23810000Y-100450000D02*
X26410000Y-100450000D01*
X21210000Y-101780000D02*
X21210000Y-100450000D01*
X21210000Y-100450000D02*
X22540000Y-100450000D01*
%TO.C,J3*%
X21210000Y-44540000D02*
X22540000Y-44540000D01*
X21210000Y-45870000D02*
X21210000Y-44540000D01*
X23810000Y-44540000D02*
X26410000Y-44540000D01*
X23810000Y-47140000D02*
X23810000Y-44540000D01*
X21210000Y-47140000D02*
X23810000Y-47140000D01*
X26410000Y-44540000D02*
X26410000Y-95460000D01*
X21210000Y-47140000D02*
X21210000Y-95460000D01*
X21210000Y-95460000D02*
X26410000Y-95460000D01*
%TO.C,U10*%
D12*
X41152380Y-111093095D02*
X41961904Y-111093095D01*
X42057142Y-111045476D01*
X42104761Y-110997857D01*
X42152380Y-110902619D01*
X42152380Y-110712142D01*
X42104761Y-110616904D01*
X42057142Y-110569285D01*
X41961904Y-110521666D01*
X41152380Y-110521666D01*
X42152380Y-109521666D02*
X42152380Y-110093095D01*
X42152380Y-109807380D02*
X41152380Y-109807380D01*
X41295238Y-109902619D01*
X41390476Y-109997857D01*
X41438095Y-110093095D01*
X41152380Y-108902619D02*
X41152380Y-108807380D01*
X41200000Y-108712142D01*
X41247619Y-108664523D01*
X41342857Y-108616904D01*
X41533333Y-108569285D01*
X41771428Y-108569285D01*
X41961904Y-108616904D01*
X42057142Y-108664523D01*
X42104761Y-108712142D01*
X42152380Y-108807380D01*
X42152380Y-108902619D01*
X42104761Y-108997857D01*
X42057142Y-109045476D01*
X41961904Y-109093095D01*
X41771428Y-109140714D01*
X41533333Y-109140714D01*
X41342857Y-109093095D01*
X41247619Y-109045476D01*
X41200000Y-108997857D01*
X41152380Y-108902619D01*
%TO.C,U9*%
X41152380Y-94741904D02*
X41961904Y-94741904D01*
X42057142Y-94694285D01*
X42104761Y-94646666D01*
X42152380Y-94551428D01*
X42152380Y-94360952D01*
X42104761Y-94265714D01*
X42057142Y-94218095D01*
X41961904Y-94170476D01*
X41152380Y-94170476D01*
X42152380Y-93646666D02*
X42152380Y-93456190D01*
X42104761Y-93360952D01*
X42057142Y-93313333D01*
X41914285Y-93218095D01*
X41723809Y-93170476D01*
X41342857Y-93170476D01*
X41247619Y-93218095D01*
X41200000Y-93265714D01*
X41152380Y-93360952D01*
X41152380Y-93551428D01*
X41200000Y-93646666D01*
X41247619Y-93694285D01*
X41342857Y-93741904D01*
X41580952Y-93741904D01*
X41676190Y-93694285D01*
X41723809Y-93646666D01*
X41771428Y-93551428D01*
X41771428Y-93360952D01*
X41723809Y-93265714D01*
X41676190Y-93218095D01*
X41580952Y-93170476D01*
%TO.C,U4*%
X105918095Y-68242380D02*
X105918095Y-69051904D01*
X105965714Y-69147142D01*
X106013333Y-69194761D01*
X106108571Y-69242380D01*
X106299047Y-69242380D01*
X106394285Y-69194761D01*
X106441904Y-69147142D01*
X106489523Y-69051904D01*
X106489523Y-68242380D01*
X107394285Y-68575714D02*
X107394285Y-69242380D01*
X107156190Y-68194761D02*
X106918095Y-68909047D01*
X107537142Y-68909047D01*
%TO.C,JP2*%
X104576666Y-103802380D02*
X104576666Y-104516666D01*
X104529047Y-104659523D01*
X104433809Y-104754761D01*
X104290952Y-104802380D01*
X104195714Y-104802380D01*
X105052857Y-104802380D02*
X105052857Y-103802380D01*
X105433809Y-103802380D01*
X105529047Y-103850000D01*
X105576666Y-103897619D01*
X105624285Y-103992857D01*
X105624285Y-104135714D01*
X105576666Y-104230952D01*
X105529047Y-104278571D01*
X105433809Y-104326190D01*
X105052857Y-104326190D01*
X106005238Y-103897619D02*
X106052857Y-103850000D01*
X106148095Y-103802380D01*
X106386190Y-103802380D01*
X106481428Y-103850000D01*
X106529047Y-103897619D01*
X106576666Y-103992857D01*
X106576666Y-104088095D01*
X106529047Y-104230952D01*
X105957619Y-104802380D01*
X106576666Y-104802380D01*
%TO.C,J2*%
X65706666Y-116302380D02*
X65706666Y-117016666D01*
X65659047Y-117159523D01*
X65563809Y-117254761D01*
X65420952Y-117302380D01*
X65325714Y-117302380D01*
X66135238Y-116397619D02*
X66182857Y-116350000D01*
X66278095Y-116302380D01*
X66516190Y-116302380D01*
X66611428Y-116350000D01*
X66659047Y-116397619D01*
X66706666Y-116492857D01*
X66706666Y-116588095D01*
X66659047Y-116730952D01*
X66087619Y-117302380D01*
X66706666Y-117302380D01*
%TO.C,D2*%
X97051904Y-103742380D02*
X97051904Y-102742380D01*
X97290000Y-102742380D01*
X97432857Y-102790000D01*
X97528095Y-102885238D01*
X97575714Y-102980476D01*
X97623333Y-103170952D01*
X97623333Y-103313809D01*
X97575714Y-103504285D01*
X97528095Y-103599523D01*
X97432857Y-103694761D01*
X97290000Y-103742380D01*
X97051904Y-103742380D01*
X98004285Y-102837619D02*
X98051904Y-102790000D01*
X98147142Y-102742380D01*
X98385238Y-102742380D01*
X98480476Y-102790000D01*
X98528095Y-102837619D01*
X98575714Y-102932857D01*
X98575714Y-103028095D01*
X98528095Y-103170952D01*
X97956666Y-103742380D01*
X98575714Y-103742380D01*
X93718095Y-104062380D02*
X93718095Y-103062380D01*
X94289523Y-104062380D02*
X93860952Y-103490952D01*
X94289523Y-103062380D02*
X93718095Y-103633809D01*
%TO.C,D1*%
X97051904Y-108822380D02*
X97051904Y-107822380D01*
X97290000Y-107822380D01*
X97432857Y-107870000D01*
X97528095Y-107965238D01*
X97575714Y-108060476D01*
X97623333Y-108250952D01*
X97623333Y-108393809D01*
X97575714Y-108584285D01*
X97528095Y-108679523D01*
X97432857Y-108774761D01*
X97290000Y-108822380D01*
X97051904Y-108822380D01*
X98575714Y-108822380D02*
X98004285Y-108822380D01*
X98290000Y-108822380D02*
X98290000Y-107822380D01*
X98194761Y-107965238D01*
X98099523Y-108060476D01*
X98004285Y-108108095D01*
X93718095Y-109142380D02*
X93718095Y-108142380D01*
X94289523Y-109142380D02*
X93860952Y-108570952D01*
X94289523Y-108142380D02*
X93718095Y-108713809D01*
%TO.C,JP1*%
X102532380Y-61158333D02*
X103246666Y-61158333D01*
X103389523Y-61205952D01*
X103484761Y-61301190D01*
X103532380Y-61444047D01*
X103532380Y-61539285D01*
X103532380Y-60682142D02*
X102532380Y-60682142D01*
X102532380Y-60301190D01*
X102580000Y-60205952D01*
X102627619Y-60158333D01*
X102722857Y-60110714D01*
X102865714Y-60110714D01*
X102960952Y-60158333D01*
X103008571Y-60205952D01*
X103056190Y-60301190D01*
X103056190Y-60682142D01*
X103532380Y-59158333D02*
X103532380Y-59729761D01*
X103532380Y-59444047D02*
X102532380Y-59444047D01*
X102675238Y-59539285D01*
X102770476Y-59634523D01*
X102818095Y-59729761D01*
%TO.C,U8*%
X48768095Y-32682380D02*
X48768095Y-33491904D01*
X48815714Y-33587142D01*
X48863333Y-33634761D01*
X48958571Y-33682380D01*
X49149047Y-33682380D01*
X49244285Y-33634761D01*
X49291904Y-33587142D01*
X49339523Y-33491904D01*
X49339523Y-32682380D01*
X49958571Y-33110952D02*
X49863333Y-33063333D01*
X49815714Y-33015714D01*
X49768095Y-32920476D01*
X49768095Y-32872857D01*
X49815714Y-32777619D01*
X49863333Y-32730000D01*
X49958571Y-32682380D01*
X50149047Y-32682380D01*
X50244285Y-32730000D01*
X50291904Y-32777619D01*
X50339523Y-32872857D01*
X50339523Y-32920476D01*
X50291904Y-33015714D01*
X50244285Y-33063333D01*
X50149047Y-33110952D01*
X49958571Y-33110952D01*
X49863333Y-33158571D01*
X49815714Y-33206190D01*
X49768095Y-33301428D01*
X49768095Y-33491904D01*
X49815714Y-33587142D01*
X49863333Y-33634761D01*
X49958571Y-33682380D01*
X50149047Y-33682380D01*
X50244285Y-33634761D01*
X50291904Y-33587142D01*
X50339523Y-33491904D01*
X50339523Y-33301428D01*
X50291904Y-33206190D01*
X50244285Y-33158571D01*
X50149047Y-33110952D01*
%TO.C,U7*%
X105918095Y-28872380D02*
X105918095Y-29681904D01*
X105965714Y-29777142D01*
X106013333Y-29824761D01*
X106108571Y-29872380D01*
X106299047Y-29872380D01*
X106394285Y-29824761D01*
X106441904Y-29777142D01*
X106489523Y-29681904D01*
X106489523Y-28872380D01*
X106870476Y-28872380D02*
X107537142Y-28872380D01*
X107108571Y-29872380D01*
%TO.C,U6*%
X89408095Y-50462380D02*
X89408095Y-51271904D01*
X89455714Y-51367142D01*
X89503333Y-51414761D01*
X89598571Y-51462380D01*
X89789047Y-51462380D01*
X89884285Y-51414761D01*
X89931904Y-51367142D01*
X89979523Y-51271904D01*
X89979523Y-50462380D01*
X90884285Y-50462380D02*
X90693809Y-50462380D01*
X90598571Y-50510000D01*
X90550952Y-50557619D01*
X90455714Y-50700476D01*
X90408095Y-50890952D01*
X90408095Y-51271904D01*
X90455714Y-51367142D01*
X90503333Y-51414761D01*
X90598571Y-51462380D01*
X90789047Y-51462380D01*
X90884285Y-51414761D01*
X90931904Y-51367142D01*
X90979523Y-51271904D01*
X90979523Y-51033809D01*
X90931904Y-50938571D01*
X90884285Y-50890952D01*
X90789047Y-50843333D01*
X90598571Y-50843333D01*
X90503333Y-50890952D01*
X90455714Y-50938571D01*
X90408095Y-51033809D01*
%TO.C,U3*%
X89408095Y-72052380D02*
X89408095Y-72861904D01*
X89455714Y-72957142D01*
X89503333Y-73004761D01*
X89598571Y-73052380D01*
X89789047Y-73052380D01*
X89884285Y-73004761D01*
X89931904Y-72957142D01*
X89979523Y-72861904D01*
X89979523Y-72052380D01*
X90360476Y-72052380D02*
X90979523Y-72052380D01*
X90646190Y-72433333D01*
X90789047Y-72433333D01*
X90884285Y-72480952D01*
X90931904Y-72528571D01*
X90979523Y-72623809D01*
X90979523Y-72861904D01*
X90931904Y-72957142D01*
X90884285Y-73004761D01*
X90789047Y-73052380D01*
X90503333Y-73052380D01*
X90408095Y-73004761D01*
X90360476Y-72957142D01*
%TO.C,J5*%
X68916666Y-22702380D02*
X68916666Y-23416666D01*
X68869047Y-23559523D01*
X68773809Y-23654761D01*
X68630952Y-23702380D01*
X68535714Y-23702380D01*
X69869047Y-22702380D02*
X69392857Y-22702380D01*
X69345238Y-23178571D01*
X69392857Y-23130952D01*
X69488095Y-23083333D01*
X69726190Y-23083333D01*
X69821428Y-23130952D01*
X69869047Y-23178571D01*
X69916666Y-23273809D01*
X69916666Y-23511904D01*
X69869047Y-23607142D01*
X69821428Y-23654761D01*
X69726190Y-23702380D01*
X69488095Y-23702380D01*
X69392857Y-23654761D01*
X69345238Y-23607142D01*
%TO.C,Y1*%
X57691190Y-75903690D02*
X58167380Y-75903690D01*
X57167380Y-76237023D02*
X57691190Y-75903690D01*
X57167380Y-75570357D01*
X58167380Y-74713214D02*
X58167380Y-75284642D01*
X58167380Y-74998928D02*
X57167380Y-74998928D01*
X57310238Y-75094166D01*
X57405476Y-75189404D01*
X57453095Y-75284642D01*
%TO.C,U5*%
X95762380Y-42671904D02*
X96571904Y-42671904D01*
X96667142Y-42624285D01*
X96714761Y-42576666D01*
X96762380Y-42481428D01*
X96762380Y-42290952D01*
X96714761Y-42195714D01*
X96667142Y-42148095D01*
X96571904Y-42100476D01*
X95762380Y-42100476D01*
X95762380Y-41148095D02*
X95762380Y-41624285D01*
X96238571Y-41671904D01*
X96190952Y-41624285D01*
X96143333Y-41529047D01*
X96143333Y-41290952D01*
X96190952Y-41195714D01*
X96238571Y-41148095D01*
X96333809Y-41100476D01*
X96571904Y-41100476D01*
X96667142Y-41148095D01*
X96714761Y-41195714D01*
X96762380Y-41290952D01*
X96762380Y-41529047D01*
X96714761Y-41624285D01*
X96667142Y-41671904D01*
%TO.C,U2*%
X50038095Y-79672380D02*
X50038095Y-80481904D01*
X50085714Y-80577142D01*
X50133333Y-80624761D01*
X50228571Y-80672380D01*
X50419047Y-80672380D01*
X50514285Y-80624761D01*
X50561904Y-80577142D01*
X50609523Y-80481904D01*
X50609523Y-79672380D01*
X51038095Y-79767619D02*
X51085714Y-79720000D01*
X51180952Y-79672380D01*
X51419047Y-79672380D01*
X51514285Y-79720000D01*
X51561904Y-79767619D01*
X51609523Y-79862857D01*
X51609523Y-79958095D01*
X51561904Y-80100952D01*
X50990476Y-80672380D01*
X51609523Y-80672380D01*
%TO.C,U1*%
X70358095Y-103382380D02*
X70358095Y-104191904D01*
X70405714Y-104287142D01*
X70453333Y-104334761D01*
X70548571Y-104382380D01*
X70739047Y-104382380D01*
X70834285Y-104334761D01*
X70881904Y-104287142D01*
X70929523Y-104191904D01*
X70929523Y-103382380D01*
X71929523Y-104382380D02*
X71358095Y-104382380D01*
X71643809Y-104382380D02*
X71643809Y-103382380D01*
X71548571Y-103525238D01*
X71453333Y-103620476D01*
X71358095Y-103668095D01*
%TO.C,U22*%
X34321904Y-54272380D02*
X34321904Y-55081904D01*
X34369523Y-55177142D01*
X34417142Y-55224761D01*
X34512380Y-55272380D01*
X34702857Y-55272380D01*
X34798095Y-55224761D01*
X34845714Y-55177142D01*
X34893333Y-55081904D01*
X34893333Y-54272380D01*
X35321904Y-54367619D02*
X35369523Y-54320000D01*
X35464761Y-54272380D01*
X35702857Y-54272380D01*
X35798095Y-54320000D01*
X35845714Y-54367619D01*
X35893333Y-54462857D01*
X35893333Y-54558095D01*
X35845714Y-54700952D01*
X35274285Y-55272380D01*
X35893333Y-55272380D01*
X36274285Y-54367619D02*
X36321904Y-54320000D01*
X36417142Y-54272380D01*
X36655238Y-54272380D01*
X36750476Y-54320000D01*
X36798095Y-54367619D01*
X36845714Y-54462857D01*
X36845714Y-54558095D01*
X36798095Y-54700952D01*
X36226666Y-55272380D01*
X36845714Y-55272380D01*
%TO.C,C1*%
X39359142Y-43181666D02*
X39406761Y-43229285D01*
X39454380Y-43372142D01*
X39454380Y-43467380D01*
X39406761Y-43610238D01*
X39311523Y-43705476D01*
X39216285Y-43753095D01*
X39025809Y-43800714D01*
X38882952Y-43800714D01*
X38692476Y-43753095D01*
X38597238Y-43705476D01*
X38502000Y-43610238D01*
X38454380Y-43467380D01*
X38454380Y-43372142D01*
X38502000Y-43229285D01*
X38549619Y-43181666D01*
X39454380Y-42229285D02*
X39454380Y-42800714D01*
X39454380Y-42515000D02*
X38454380Y-42515000D01*
X38597238Y-42610238D01*
X38692476Y-42705476D01*
X38740095Y-42800714D01*
%TO.C,C4*%
X39359142Y-33754666D02*
X39406761Y-33802285D01*
X39454380Y-33945142D01*
X39454380Y-34040380D01*
X39406761Y-34183238D01*
X39311523Y-34278476D01*
X39216285Y-34326095D01*
X39025809Y-34373714D01*
X38882952Y-34373714D01*
X38692476Y-34326095D01*
X38597238Y-34278476D01*
X38502000Y-34183238D01*
X38454380Y-34040380D01*
X38454380Y-33945142D01*
X38502000Y-33802285D01*
X38549619Y-33754666D01*
X38787714Y-32897523D02*
X39454380Y-32897523D01*
X38406761Y-33135619D02*
X39121047Y-33373714D01*
X39121047Y-32754666D01*
%TO.C,J4*%
X23476666Y-27722380D02*
X23476666Y-28436666D01*
X23429047Y-28579523D01*
X23333809Y-28674761D01*
X23190952Y-28722380D01*
X23095714Y-28722380D01*
X24381428Y-28055714D02*
X24381428Y-28722380D01*
X24143333Y-27674761D02*
X23905238Y-28389047D01*
X24524285Y-28389047D01*
%TO.C,J1*%
X23476666Y-98902380D02*
X23476666Y-99616666D01*
X23429047Y-99759523D01*
X23333809Y-99854761D01*
X23190952Y-99902380D01*
X23095714Y-99902380D01*
X24476666Y-99902380D02*
X23905238Y-99902380D01*
X24190952Y-99902380D02*
X24190952Y-98902380D01*
X24095714Y-99045238D01*
X24000476Y-99140476D01*
X23905238Y-99188095D01*
%TO.C,J3*%
X23476666Y-42992380D02*
X23476666Y-43706666D01*
X23429047Y-43849523D01*
X23333809Y-43944761D01*
X23190952Y-43992380D01*
X23095714Y-43992380D01*
X23857619Y-42992380D02*
X24476666Y-42992380D01*
X24143333Y-43373333D01*
X24286190Y-43373333D01*
X24381428Y-43420952D01*
X24429047Y-43468571D01*
X24476666Y-43563809D01*
X24476666Y-43801904D01*
X24429047Y-43897142D01*
X24381428Y-43944761D01*
X24286190Y-43992380D01*
X24000476Y-43992380D01*
X23905238Y-43944761D01*
X23857619Y-43897142D01*
%TD*%
M02*
