M48
; DRILL file {KiCad (5.1.9)-1} date 11/03/21 00:36:09
; FORMAT={-:-/ absolute / inch / decimal}
; #@! TF.CreationDate,2021-11-03T00:36:09-04:00
; #@! TF.GenerationSoftware,Kicad,Pcbnew,(5.1.9)-1
; #@! TF.FileFunction,Plated,1,2,PTH
FMAT,2
INCH
T1C0.0118
T2C0.0197
T3C0.0315
T4C0.0394
T5C0.1457
%
G90
G05
T1
X1.7278Y-2.3503
X3.6245Y-1.9925
T2
X1.5841Y-4.0176
X1.8273Y-2.7381
T3
X1.25Y-2.25
X1.25Y-2.35
X1.25Y-2.45
X1.25Y-2.55
X1.25Y-2.65
X1.25Y-2.75
X1.25Y-2.85
X1.25Y-2.95
X1.25Y-3.05
X1.25Y-3.15
X1.25Y-3.25
X1.25Y-3.35
X1.25Y-3.55
X1.25Y-3.85
X1.25Y-4.175
X1.25Y-4.475
X1.2705Y-1.3274
X1.2705Y-1.6935
X1.35Y-3.55
X1.35Y-3.85
X1.35Y-4.175
X1.35Y-4.475
X1.4083Y-1.3274
X1.4083Y-1.6935
X1.45Y-3.55
X1.45Y-3.85
X1.45Y-4.175
X1.45Y-4.475
X1.55Y-2.25
X1.55Y-2.35
X1.55Y-2.45
X1.55Y-2.55
X1.55Y-2.65
X1.55Y-2.75
X1.55Y-2.85
X1.55Y-2.95
X1.55Y-3.05
X1.55Y-3.15
X1.55Y-3.25
X1.55Y-3.35
X1.55Y-3.55
X1.55Y-3.85
X1.55Y-4.175
X1.55Y-4.475
X1.8Y-1.4
X1.8Y-1.5
X1.8Y-1.6
X1.8Y-1.7
X1.8Y-1.8
X1.8Y-1.9
X1.8Y-2.0
X1.8Y-2.1
X1.8Y-2.2
X1.8Y-2.3
X1.85Y-3.25
X1.85Y-3.35
X1.85Y-3.45
X1.85Y-3.55
X1.85Y-3.65
X1.85Y-3.75
X1.85Y-3.85
X1.85Y-3.95
X1.85Y-4.05
X1.9071Y-3.1
X2.1Y-1.4
X2.1Y-1.5
X2.1Y-1.6
X2.1Y-1.7
X2.1Y-1.8
X2.1Y-1.9
X2.1Y-2.0
X2.1Y-2.1
X2.1Y-2.2
X2.1Y-2.3
X2.1Y-3.1
X2.15Y-3.25
X2.15Y-3.35
X2.15Y-3.45
X2.15Y-3.55
X2.15Y-3.65
X2.15Y-3.75
X2.15Y-3.85
X2.15Y-3.95
X2.15Y-4.05
X2.4Y-1.5
X2.4Y-1.8
X2.5Y-1.5
X2.5Y-1.8
X2.5Y-2.1
X2.5Y-2.2
X2.5Y-2.3
X2.5Y-2.4
X2.5Y-2.5
X2.5Y-2.6
X2.5Y-2.7
X2.5Y-2.8
X2.5Y-2.9
X2.5Y-3.0
X2.5Y-3.1
X2.5Y-3.2
X2.5Y-3.3
X2.5Y-3.4
X2.5Y-3.5
X2.5Y-3.6
X2.5Y-3.7
X2.5Y-3.8
X2.5Y-3.9
X2.5Y-4.0
X2.6Y-1.5
X2.6Y-1.8
X2.7Y-1.5
X2.7Y-1.8
X2.8Y-1.5
X2.8Y-1.8
X2.9Y-1.5
X2.9Y-1.8
X3.0Y-1.5
X3.0Y-1.8
X3.1Y-1.5
X3.1Y-1.8
X3.1Y-2.1
X3.1Y-2.2
X3.1Y-2.3
X3.1Y-2.4
X3.1Y-2.5
X3.1Y-2.6
X3.1Y-2.7
X3.1Y-2.8
X3.1Y-2.9
X3.1Y-3.0
X3.1Y-3.1
X3.1Y-3.2
X3.1Y-3.3
X3.1Y-3.4
X3.1Y-3.5
X3.1Y-3.6
X3.1Y-3.7
X3.1Y-3.8
X3.1Y-3.9
X3.1Y-4.0
X3.2Y-1.5
X3.2Y-1.8
X3.3Y-1.5
X3.3Y-1.8
X3.4Y-1.5
X3.4Y-1.8
X3.4Y-2.1
X3.4Y-2.2
X3.4Y-2.3
X3.4Y-2.4
X3.4Y-2.5
X3.4Y-2.6
X3.4Y-2.7
X3.4Y-2.95
X3.4Y-3.05
X3.4Y-3.15
X3.4Y-3.25
X3.4Y-3.35
X3.4Y-3.45
X3.4Y-3.55
X3.4Y-3.65
X3.4Y-3.75
X3.4Y-3.85
X3.5Y-1.5
X3.5Y-1.8
X3.6Y-1.5
X3.6Y-1.8
X3.7Y-1.5
X3.7Y-1.8
X3.7Y-2.1
X3.7Y-2.2
X3.7Y-2.3
X3.7Y-2.4
X3.7Y-2.5
X3.7Y-2.6
X3.7Y-2.7
X3.7Y-2.95
X3.7Y-3.05
X3.7Y-3.15
X3.7Y-3.25
X3.7Y-3.35
X3.7Y-3.45
X3.7Y-3.55
X3.7Y-3.65
X3.7Y-3.75
X3.7Y-3.85
X3.7Y-4.15
X3.7Y-4.35
X4.0Y-4.15
X4.0Y-4.35
X4.05Y-1.25
X4.05Y-1.35
X4.05Y-1.45
X4.05Y-1.55
X4.05Y-1.65
X4.05Y-1.75
X4.05Y-1.85
X4.05Y-1.95
X4.05Y-2.8
X4.05Y-2.9
X4.05Y-3.0
X4.05Y-3.1
X4.05Y-3.2
X4.05Y-3.3
X4.05Y-3.4
X4.05Y-3.5
X4.05Y-3.6
X4.05Y-3.7
X4.35Y-1.25
X4.35Y-1.35
X4.35Y-1.45
X4.35Y-1.55
X4.35Y-1.65
X4.35Y-1.75
X4.35Y-1.85
X4.35Y-1.95
X4.35Y-2.8
X4.35Y-2.9
X4.35Y-3.0
X4.35Y-3.1
X4.35Y-3.2
X4.35Y-3.3
X4.35Y-3.4
X4.35Y-3.5
X4.35Y-3.6
X4.35Y-3.7
T4
X0.8874Y-1.2047
X0.8874Y-1.3047
X0.8874Y-1.4047
X0.8874Y-1.5047
X0.8874Y-1.8059
X0.8874Y-1.9059
X0.8874Y-2.0059
X0.8874Y-2.1059
X0.8874Y-2.2059
X0.8874Y-2.3059
X0.8874Y-2.4059
X0.8874Y-2.5059
X0.8874Y-2.6059
X0.8874Y-2.7059
X0.8874Y-2.8059
X0.8874Y-2.9059
X0.8874Y-3.0059
X0.8874Y-3.1059
X0.8874Y-3.2059
X0.8874Y-3.3059
X0.8874Y-3.4059
X0.8874Y-3.5059
X0.8874Y-3.6059
X0.8874Y-3.7059
X0.8874Y-4.0071
X0.8874Y-4.1071
X0.8874Y-4.2071
X0.8874Y-4.3071
X0.9874Y-1.2047
X0.9874Y-1.3047
X0.9874Y-1.4047
X0.9874Y-1.5047
X0.9874Y-1.8059
X0.9874Y-1.9059
X0.9874Y-2.0059
X0.9874Y-2.1059
X0.9874Y-2.2059
X0.9874Y-2.3059
X0.9874Y-2.4059
X0.9874Y-2.5059
X0.9874Y-2.6059
X0.9874Y-2.7059
X0.9874Y-2.8059
X0.9874Y-2.9059
X0.9874Y-3.0059
X0.9874Y-3.1059
X0.9874Y-3.2059
X0.9874Y-3.3059
X0.9874Y-3.4059
X0.9874Y-3.5059
X0.9874Y-3.6059
X0.9874Y-3.7059
X0.9874Y-4.0071
X0.9874Y-4.1071
X0.9874Y-4.2071
X0.9874Y-4.3071
X2.5378Y-1.2173
X2.5378Y-4.2945
X2.5923Y-1.1055
X2.5923Y-4.4063
X2.6469Y-1.2173
X2.6469Y-4.2945
X2.7014Y-1.1055
X2.7014Y-4.4063
X2.7559Y-1.2173
X2.7559Y-4.2945
X2.8104Y-1.1055
X2.8104Y-4.4063
X2.865Y-1.2173
X2.865Y-4.2945
X2.9195Y-1.1055
X2.9195Y-4.4063
X2.974Y-1.2173
X2.974Y-4.2945
X4.15Y-2.375
X4.15Y-4.2
X4.15Y-4.3
X4.25Y-2.375
T5
X2.264Y-1.1614
X2.264Y-4.3504
X3.2478Y-1.1614
X3.2478Y-4.3504
T0
M30
