%TF.GenerationSoftware,KiCad,Pcbnew,(5.1.9)-1*%
%TF.CreationDate,2021-11-03T00:36:12-04:00*%
%TF.ProjectId,main,6d61696e-2e6b-4696-9361-645f70636258,rev?*%
%TF.SameCoordinates,Original*%
%TF.FileFunction,Copper,L1,Top*%
%TF.FilePolarity,Positive*%
%FSLAX46Y46*%
G04 Gerber Fmt 4.6, Leading zero omitted, Abs format (unit mm)*
G04 Created by KiCad (PCBNEW (5.1.9)-1) date 2021-11-03 00:36:12*
%MOMM*%
%LPD*%
G01*
G04 APERTURE LIST*
%TA.AperFunction,ComponentPad*%
%ADD10O,1.600000X1.600000*%
%TD*%
%TA.AperFunction,ComponentPad*%
%ADD11R,1.600000X1.600000*%
%TD*%
%TA.AperFunction,ComponentPad*%
%ADD12O,1.700000X1.700000*%
%TD*%
%TA.AperFunction,ComponentPad*%
%ADD13R,1.700000X1.700000*%
%TD*%
%TA.AperFunction,ComponentPad*%
%ADD14C,1.800000*%
%TD*%
%TA.AperFunction,ComponentPad*%
%ADD15C,6.000000*%
%TD*%
%TA.AperFunction,ComponentPad*%
%ADD16C,1.500000*%
%TD*%
%TA.AperFunction,ComponentPad*%
%ADD17C,1.600000*%
%TD*%
%TA.AperFunction,ViaPad*%
%ADD18C,0.800000*%
%TD*%
%TA.AperFunction,ViaPad*%
%ADD19C,0.600000*%
%TD*%
%TA.AperFunction,Conductor*%
%ADD20C,0.700000*%
%TD*%
%TA.AperFunction,Conductor*%
%ADD21C,0.200000*%
%TD*%
G04 APERTURE END LIST*
D10*
%TO.P,U10,8*%
%TO.N,+5V*%
X39370000Y-113665000D03*
%TO.P,U10,4*%
X31750000Y-106045000D03*
%TO.P,U10,7*%
%TO.N,Net-(C13-Pad1)*%
X36830000Y-113665000D03*
%TO.P,U10,3*%
%TO.N,Net-(U10-Pad3)*%
X34290000Y-106045000D03*
%TO.P,U10,6*%
%TO.N,Net-(C13-Pad1)*%
X34290000Y-113665000D03*
%TO.P,U10,2*%
%TO.N,~PADTRG~*%
X36830000Y-106045000D03*
%TO.P,U10,5*%
%TO.N,Net-(C12-Pad1)*%
X31750000Y-113665000D03*
D11*
%TO.P,U10,1*%
%TO.N,GND*%
X39370000Y-106045000D03*
%TD*%
D10*
%TO.P,U9,8*%
%TO.N,+5V*%
X39370000Y-97790000D03*
%TO.P,U9,4*%
X31750000Y-90170000D03*
%TO.P,U9,7*%
%TO.N,Net-(C11-Pad1)*%
X36830000Y-97790000D03*
%TO.P,U9,3*%
%TO.N,Net-(U4-Pad13)*%
X34290000Y-90170000D03*
%TO.P,U9,6*%
%TO.N,Net-(C11-Pad1)*%
X34290000Y-97790000D03*
%TO.P,U9,2*%
%TO.N,~PADTRG~*%
X36830000Y-90170000D03*
%TO.P,U9,5*%
%TO.N,Net-(C10-Pad1)*%
X31750000Y-97790000D03*
D11*
%TO.P,U9,1*%
%TO.N,GND*%
X39370000Y-90170000D03*
%TD*%
D10*
%TO.P,U4,20*%
%TO.N,+5V*%
X110490000Y-71120000D03*
%TO.P,U4,10*%
%TO.N,GND*%
X102870000Y-93980000D03*
%TO.P,U4,19*%
%TO.N,JSTK*%
X110490000Y-73660000D03*
%TO.P,U4,9*%
%TO.N,F_D4*%
X102870000Y-91440000D03*
%TO.P,U4,18*%
%TO.N,F_D0*%
X110490000Y-76200000D03*
%TO.P,U4,8*%
%TO.N,Net-(D1-Pad1)*%
X102870000Y-88900000D03*
%TO.P,U4,17*%
%TO.N,GND*%
X110490000Y-78740000D03*
%TO.P,U4,7*%
%TO.N,F_D5*%
X102870000Y-86360000D03*
%TO.P,U4,16*%
%TO.N,F_D1*%
X110490000Y-81280000D03*
%TO.P,U4,6*%
%TO.N,Net-(D2-Pad1)*%
X102870000Y-83820000D03*
%TO.P,U4,15*%
%TO.N,Net-(U10-Pad3)*%
X110490000Y-83820000D03*
%TO.P,U4,5*%
%TO.N,F_D6*%
X102870000Y-81280000D03*
%TO.P,U4,14*%
%TO.N,F_D2*%
X110490000Y-86360000D03*
%TO.P,U4,4*%
%TO.N,Net-(J2-Pad2)*%
X102870000Y-78740000D03*
%TO.P,U4,13*%
%TO.N,Net-(U4-Pad13)*%
X110490000Y-88900000D03*
%TO.P,U4,3*%
%TO.N,F_D7*%
X102870000Y-76200000D03*
%TO.P,U4,12*%
%TO.N,F_D3*%
X110490000Y-91440000D03*
%TO.P,U4,2*%
%TO.N,Net-(J2-Pad1)*%
X102870000Y-73660000D03*
%TO.P,U4,11*%
%TO.N,Net-(J2-Pad6)*%
X110490000Y-93980000D03*
D11*
%TO.P,U4,1*%
%TO.N,JSTK*%
X102870000Y-71120000D03*
%TD*%
D12*
%TO.P,JP2,2*%
%TO.N,Net-(D1-Pad2)*%
X105410000Y-109220000D03*
D13*
%TO.P,JP2,1*%
%TO.N,Net-(J2-Pad6)*%
X105410000Y-106680000D03*
%TD*%
D14*
%TO.P,J2,7*%
%TO.N,+5V*%
X68615000Y-111920000D03*
%TO.P,J2,5*%
%TO.N,Net-(C11-Pad1)*%
X75540000Y-109080000D03*
%TO.P,J2,9*%
%TO.N,Net-(C13-Pad1)*%
X74155000Y-111920000D03*
%TO.P,J2,2*%
%TO.N,Net-(J2-Pad2)*%
X67230000Y-109080000D03*
%TO.P,J2,4*%
%TO.N,Net-(D1-Pad1)*%
X72770000Y-109080000D03*
%TO.P,J2,1*%
%TO.N,Net-(J2-Pad1)*%
X64460000Y-109080000D03*
%TO.P,J2,8*%
%TO.N,GND*%
X71385000Y-111920000D03*
%TO.P,J2,6*%
%TO.N,Net-(J2-Pad6)*%
X65845000Y-111920000D03*
%TO.P,J2,3*%
%TO.N,Net-(D2-Pad1)*%
X70000000Y-109080000D03*
D15*
%TO.P,J2,0*%
%TO.N,GND*%
X57505000Y-110500000D03*
X82495000Y-110500000D03*
%TD*%
D10*
%TO.P,D2,2*%
%TO.N,Net-(D1-Pad2)*%
X101600000Y-105410000D03*
D11*
%TO.P,D2,1*%
%TO.N,Net-(D2-Pad1)*%
X93980000Y-105410000D03*
%TD*%
D10*
%TO.P,D1,2*%
%TO.N,Net-(D1-Pad2)*%
X101600000Y-110490000D03*
D11*
%TO.P,D1,1*%
%TO.N,Net-(D1-Pad1)*%
X93980000Y-110490000D03*
%TD*%
D12*
%TO.P,JP1,2*%
%TO.N,+5V*%
X107950000Y-60325000D03*
D13*
%TO.P,JP1,1*%
%TO.N,Net-(JP1-Pad1)*%
X105410000Y-60325000D03*
%TD*%
D10*
%TO.P,U8,20*%
%TO.N,+5V*%
X53340000Y-35560000D03*
%TO.P,U8,10*%
%TO.N,GND*%
X45720000Y-58420000D03*
%TO.P,U8,19*%
%TO.N,~E8-in~*%
X53340000Y-38100000D03*
%TO.P,U8,9*%
%TO.N,F_D4*%
X45720000Y-55880000D03*
%TO.P,U8,18*%
%TO.N,F_D0*%
X53340000Y-40640000D03*
%TO.P,U8,8*%
%TO.N,RXD*%
X45720000Y-53340000D03*
%TO.P,U8,17*%
%TO.N,CTS*%
X53340000Y-43180000D03*
%TO.P,U8,7*%
%TO.N,F_D5*%
X45720000Y-50800000D03*
%TO.P,U8,16*%
%TO.N,F_D1*%
X53340000Y-45720000D03*
%TO.P,U8,6*%
%TO.N,RXD*%
X45720000Y-48260000D03*
%TO.P,U8,15*%
%TO.N,DSR*%
X53340000Y-48260000D03*
%TO.P,U8,5*%
%TO.N,F_D6*%
X45720000Y-45720000D03*
%TO.P,U8,14*%
%TO.N,F_D2*%
X53340000Y-50800000D03*
%TO.P,U8,4*%
%TO.N,RXD*%
X45720000Y-43180000D03*
%TO.P,U8,13*%
%TO.N,DCD*%
X53340000Y-53340000D03*
%TO.P,U8,3*%
%TO.N,F_D7*%
X45720000Y-40640000D03*
%TO.P,U8,12*%
%TO.N,F_D3*%
X53340000Y-55880000D03*
%TO.P,U8,2*%
%TO.N,RXD*%
X45720000Y-38100000D03*
%TO.P,U8,11*%
%TO.N,RI*%
X53340000Y-58420000D03*
D11*
%TO.P,U8,1*%
%TO.N,~E8-in~*%
X45720000Y-35560000D03*
%TD*%
D10*
%TO.P,U7,16*%
%TO.N,+5V*%
X110490000Y-31750000D03*
%TO.P,U7,8*%
%TO.N,GND*%
X102870000Y-49530000D03*
%TO.P,U7,15*%
%TO.N,N/C*%
X110490000Y-34290000D03*
%TO.P,U7,7*%
%TO.N,RTS*%
X102870000Y-46990000D03*
%TO.P,U7,14*%
%TO.N,N/C*%
X110490000Y-36830000D03*
%TO.P,U7,6*%
X102870000Y-44450000D03*
%TO.P,U7,13*%
%TO.N,F_D2*%
X110490000Y-39370000D03*
%TO.P,U7,5*%
%TO.N,F_D1*%
X102870000Y-41910000D03*
%TO.P,U7,12*%
%TO.N,F_D2*%
X110490000Y-41910000D03*
%TO.P,U7,4*%
%TO.N,F_D0*%
X102870000Y-39370000D03*
%TO.P,U7,11*%
%TO.N,N/C*%
X110490000Y-44450000D03*
%TO.P,U7,3*%
X102870000Y-36830000D03*
%TO.P,U7,10*%
%TO.N,Net-(U6-Pad2)*%
X110490000Y-46990000D03*
%TO.P,U7,2*%
%TO.N,DTR*%
X102870000Y-34290000D03*
%TO.P,U7,9*%
%TO.N,EA-out*%
X110490000Y-49530000D03*
D11*
%TO.P,U7,1*%
%TO.N,Net-(R3-Pad1)*%
X102870000Y-31750000D03*
%TD*%
D10*
%TO.P,U6,14*%
%TO.N,+5V*%
X93980000Y-53340000D03*
%TO.P,U6,7*%
%TO.N,GND*%
X86360000Y-68580000D03*
%TO.P,U6,13*%
%TO.N,Net-(U6-Pad12)*%
X93980000Y-55880000D03*
%TO.P,U6,6*%
%TO.N,TXD*%
X86360000Y-66040000D03*
%TO.P,U6,12*%
%TO.N,Net-(U6-Pad12)*%
X93980000Y-58420000D03*
%TO.P,U6,5*%
%TO.N,Net-(U6-Pad3)*%
X86360000Y-63500000D03*
%TO.P,U6,11*%
%TO.N,Net-(U3-Pad1)*%
X93980000Y-60960000D03*
%TO.P,U6,4*%
%TO.N,Net-(U6-Pad3)*%
X86360000Y-60960000D03*
%TO.P,U6,10*%
%TO.N,~EA-in~*%
X93980000Y-63500000D03*
%TO.P,U6,3*%
%TO.N,Net-(U6-Pad3)*%
X86360000Y-58420000D03*
%TO.P,U6,9*%
%TO.N,~EB-in~*%
X93980000Y-66040000D03*
%TO.P,U6,2*%
%TO.N,Net-(U6-Pad2)*%
X86360000Y-55880000D03*
%TO.P,U6,8*%
%TO.N,Net-(U6-Pad12)*%
X93980000Y-68580000D03*
D11*
%TO.P,U6,1*%
%TO.N,Net-(U1-Pad25)*%
X86360000Y-53340000D03*
%TD*%
D10*
%TO.P,U3,20*%
%TO.N,+5V*%
X93980000Y-74930000D03*
%TO.P,U3,10*%
%TO.N,GND*%
X86360000Y-97790000D03*
%TO.P,U3,19*%
X93980000Y-77470000D03*
%TO.P,U3,9*%
%TO.N,F_D7*%
X86360000Y-95250000D03*
%TO.P,U3,18*%
%TO.N,D0*%
X93980000Y-80010000D03*
%TO.P,U3,8*%
%TO.N,F_D6*%
X86360000Y-92710000D03*
%TO.P,U3,17*%
%TO.N,D1*%
X93980000Y-82550000D03*
%TO.P,U3,7*%
%TO.N,F_D5*%
X86360000Y-90170000D03*
%TO.P,U3,16*%
%TO.N,D2*%
X93980000Y-85090000D03*
%TO.P,U3,6*%
%TO.N,F_D4*%
X86360000Y-87630000D03*
%TO.P,U3,15*%
%TO.N,D3*%
X93980000Y-87630000D03*
%TO.P,U3,5*%
%TO.N,F_D3*%
X86360000Y-85090000D03*
%TO.P,U3,14*%
%TO.N,D4*%
X93980000Y-90170000D03*
%TO.P,U3,4*%
%TO.N,F_D2*%
X86360000Y-82550000D03*
%TO.P,U3,13*%
%TO.N,D5*%
X93980000Y-92710000D03*
%TO.P,U3,3*%
%TO.N,F_D1*%
X86360000Y-80010000D03*
%TO.P,U3,12*%
%TO.N,D6*%
X93980000Y-95250000D03*
%TO.P,U3,2*%
%TO.N,F_D0*%
X86360000Y-77470000D03*
%TO.P,U3,11*%
%TO.N,D7*%
X93980000Y-97790000D03*
D11*
%TO.P,U3,1*%
%TO.N,Net-(U3-Pad1)*%
X86360000Y-74930000D03*
%TD*%
D14*
%TO.P,J5,7*%
%TO.N,RTS-H*%
X71385000Y-28080000D03*
%TO.P,J5,5*%
%TO.N,GND*%
X64460000Y-30920000D03*
%TO.P,J5,9*%
%TO.N,RI-H*%
X65845000Y-28080000D03*
%TO.P,J5,2*%
%TO.N,RXD-H*%
X72770000Y-30920000D03*
%TO.P,J5,4*%
%TO.N,DTR-H*%
X67230000Y-30920000D03*
%TO.P,J5,1*%
%TO.N,DCD-H*%
X75540000Y-30920000D03*
%TO.P,J5,8*%
%TO.N,CTS-H*%
X68615000Y-28080000D03*
%TO.P,J5,6*%
%TO.N,DSR-H*%
X74155000Y-28080000D03*
%TO.P,J5,3*%
%TO.N,TXD-H*%
X70000000Y-30920000D03*
D15*
%TO.P,J5,0*%
%TO.N,GND*%
X82495000Y-29500000D03*
X57505000Y-29500000D03*
%TD*%
D16*
%TO.P,Y1,2*%
%TO.N,Net-(U2-Pad1)*%
X48440000Y-78740000D03*
%TO.P,Y1,1*%
%TO.N,Net-(U2-Pad18)*%
X53340000Y-78740000D03*
%TD*%
D10*
%TO.P,U5,28*%
%TO.N,Net-(C6-Pad1)*%
X93980000Y-45720000D03*
%TO.P,U5,14*%
%TO.N,Net-(C8-Pad1)*%
X60960000Y-38100000D03*
%TO.P,U5,27*%
%TO.N,Net-(C6-Pad2)*%
X91440000Y-45720000D03*
%TO.P,U5,13*%
%TO.N,GND*%
X63500000Y-38100000D03*
%TO.P,U5,26*%
X88900000Y-45720000D03*
%TO.P,U5,12*%
%TO.N,RI-H*%
X66040000Y-38100000D03*
%TO.P,U5,25*%
%TO.N,RTS*%
X86360000Y-45720000D03*
%TO.P,U5,11*%
%TO.N,DCD-H*%
X68580000Y-38100000D03*
%TO.P,U5,24*%
%TO.N,DTR*%
X83820000Y-45720000D03*
%TO.P,U5,10*%
%TO.N,RXD-H*%
X71120000Y-38100000D03*
%TO.P,U5,23*%
%TO.N,CTS*%
X81280000Y-45720000D03*
%TO.P,U5,9*%
%TO.N,TXD-H*%
X73660000Y-38100000D03*
%TO.P,U5,22*%
%TO.N,DSR*%
X78740000Y-45720000D03*
%TO.P,U5,8*%
%TO.N,RI*%
X76200000Y-38100000D03*
%TO.P,U5,21*%
%TO.N,Net-(JP1-Pad1)*%
X76200000Y-45720000D03*
%TO.P,U5,7*%
%TO.N,DCD*%
X78740000Y-38100000D03*
%TO.P,U5,20*%
%TO.N,RTS-H*%
X73660000Y-45720000D03*
%TO.P,U5,6*%
%TO.N,RXD*%
X81280000Y-38100000D03*
%TO.P,U5,19*%
%TO.N,CTS-H*%
X71120000Y-45720000D03*
%TO.P,U5,5*%
%TO.N,TXD*%
X83820000Y-38100000D03*
%TO.P,U5,18*%
%TO.N,DTR-H*%
X68580000Y-45720000D03*
%TO.P,U5,4*%
%TO.N,N/C*%
X86360000Y-38100000D03*
%TO.P,U5,17*%
%TO.N,DSR-H*%
X66040000Y-45720000D03*
%TO.P,U5,3*%
%TO.N,GND*%
X88900000Y-38100000D03*
%TO.P,U5,16*%
%TO.N,+5V*%
X63500000Y-45720000D03*
%TO.P,U5,2*%
%TO.N,Net-(C5-Pad2)*%
X91440000Y-38100000D03*
%TO.P,U5,15*%
%TO.N,Net-(C9-Pad1)*%
X60960000Y-45720000D03*
D11*
%TO.P,U5,1*%
%TO.N,Net-(C5-Pad1)*%
X93980000Y-38100000D03*
%TD*%
D10*
%TO.P,U2,18*%
%TO.N,Net-(U2-Pad18)*%
X54610000Y-82550000D03*
%TO.P,U2,9*%
%TO.N,N/C*%
X46990000Y-102870000D03*
%TO.P,U2,17*%
%TO.N,FT*%
X54610000Y-85090000D03*
%TO.P,U2,8*%
%TO.N,BRG*%
X46990000Y-100330000D03*
%TO.P,U2,16*%
%TO.N,D4*%
X54610000Y-87630000D03*
%TO.P,U2,7*%
%TO.N,D3*%
X46990000Y-97790000D03*
%TO.P,U2,15*%
%TO.N,D5*%
X54610000Y-90170000D03*
%TO.P,U2,6*%
%TO.N,D2*%
X46990000Y-95250000D03*
%TO.P,U2,14*%
%TO.N,D6*%
X54610000Y-92710000D03*
%TO.P,U2,5*%
%TO.N,D1*%
X46990000Y-92710000D03*
%TO.P,U2,13*%
%TO.N,D7*%
X54610000Y-95250000D03*
%TO.P,U2,4*%
%TO.N,D0*%
X46990000Y-90170000D03*
%TO.P,U2,12*%
%TO.N,BRG*%
X54610000Y-97790000D03*
%TO.P,U2,3*%
%TO.N,FR*%
X46990000Y-87630000D03*
%TO.P,U2,11*%
%TO.N,GND*%
X54610000Y-100330000D03*
%TO.P,U2,2*%
%TO.N,+5V*%
X46990000Y-85090000D03*
%TO.P,U2,10*%
%TO.N,N/C*%
X54610000Y-102870000D03*
D11*
%TO.P,U2,1*%
%TO.N,Net-(U2-Pad1)*%
X46990000Y-82550000D03*
%TD*%
D10*
%TO.P,U1,40*%
%TO.N,FT*%
X63500000Y-101600000D03*
%TO.P,U1,20*%
%TO.N,RXD*%
X78740000Y-53340000D03*
%TO.P,U1,39*%
%TO.N,D7*%
X63500000Y-99060000D03*
%TO.P,U1,19*%
X78740000Y-55880000D03*
%TO.P,U1,38*%
%TO.N,D6*%
X63500000Y-96520000D03*
%TO.P,U1,18*%
%TO.N,~EB-in~*%
X78740000Y-58420000D03*
%TO.P,U1,37*%
%TO.N,D5*%
X63500000Y-93980000D03*
%TO.P,U1,17*%
%TO.N,FR*%
X78740000Y-60960000D03*
%TO.P,U1,36*%
%TO.N,D4*%
X63500000Y-91440000D03*
%TO.P,U1,16*%
%TO.N,~EA-in~*%
X78740000Y-63500000D03*
%TO.P,U1,35*%
%TO.N,D3*%
X63500000Y-88900000D03*
%TO.P,U1,15*%
%TO.N,D5*%
X78740000Y-66040000D03*
%TO.P,U1,34*%
%TO.N,EA-out*%
X63500000Y-86360000D03*
%TO.P,U1,14*%
%TO.N,D4*%
X78740000Y-68580000D03*
%TO.P,U1,33*%
%TO.N,D7*%
X63500000Y-83820000D03*
%TO.P,U1,13*%
%TO.N,D3*%
X78740000Y-71120000D03*
%TO.P,U1,32*%
%TO.N,D6*%
X63500000Y-81280000D03*
%TO.P,U1,12*%
%TO.N,D0*%
X78740000Y-73660000D03*
%TO.P,U1,31*%
%TO.N,D5*%
X63500000Y-78740000D03*
%TO.P,U1,11*%
%TO.N,D1*%
X78740000Y-76200000D03*
%TO.P,U1,30*%
%TO.N,D4*%
X63500000Y-76200000D03*
%TO.P,U1,10*%
%TO.N,D2*%
X78740000Y-78740000D03*
%TO.P,U1,29*%
%TO.N,D3*%
X63500000Y-73660000D03*
%TO.P,U1,9*%
X78740000Y-81280000D03*
%TO.P,U1,28*%
%TO.N,D2*%
X63500000Y-71120000D03*
%TO.P,U1,8*%
%TO.N,D4*%
X78740000Y-83820000D03*
%TO.P,U1,27*%
%TO.N,D1*%
X63500000Y-68580000D03*
%TO.P,U1,7*%
%TO.N,D5*%
X78740000Y-86360000D03*
%TO.P,U1,26*%
%TO.N,D0*%
X63500000Y-66040000D03*
%TO.P,U1,6*%
%TO.N,D6*%
X78740000Y-88900000D03*
%TO.P,U1,25*%
%TO.N,Net-(U1-Pad25)*%
X63500000Y-63500000D03*
%TO.P,U1,5*%
%TO.N,D7*%
X78740000Y-91440000D03*
%TO.P,U1,24*%
%TO.N,N/C*%
X63500000Y-60960000D03*
%TO.P,U1,4*%
%TO.N,~EB-in~*%
X78740000Y-93980000D03*
%TO.P,U1,23*%
%TO.N,~EB-out~*%
X63500000Y-58420000D03*
%TO.P,U1,3*%
%TO.N,GND*%
X78740000Y-96520000D03*
%TO.P,U1,22*%
%TO.N,D6*%
X63500000Y-55880000D03*
%TO.P,U1,2*%
%TO.N,-12V*%
X78740000Y-99060000D03*
%TO.P,U1,21*%
%TO.N,E8-out*%
X63500000Y-53340000D03*
D11*
%TO.P,U1,1*%
%TO.N,+5V*%
X78740000Y-101600000D03*
%TD*%
D10*
%TO.P,U22,24*%
%TO.N,+5V*%
X39370000Y-57150000D03*
%TO.P,U22,12*%
%TO.N,GND*%
X31750000Y-85090000D03*
%TO.P,U22,23*%
%TO.N,JSTK*%
X39370000Y-59690000D03*
%TO.P,U22,11*%
%TO.N,GND*%
X31750000Y-82550000D03*
%TO.P,U22,22*%
%TO.N,~PADTRG~*%
X39370000Y-62230000D03*
%TO.P,U22,10*%
%TO.N,F_A7*%
X31750000Y-80010000D03*
%TO.P,U22,21*%
%TO.N,N/C*%
X39370000Y-64770000D03*
%TO.P,U22,9*%
%TO.N,F_A6*%
X31750000Y-77470000D03*
%TO.P,U22,20*%
%TO.N,~EB-out~*%
X39370000Y-67310000D03*
%TO.P,U22,8*%
%TO.N,F_A5*%
X31750000Y-74930000D03*
%TO.P,U22,19*%
%TO.N,~EB-in~*%
X39370000Y-69850000D03*
%TO.P,U22,7*%
%TO.N,F_A4*%
X31750000Y-72390000D03*
%TO.P,U22,18*%
%TO.N,~EA-in~*%
X39370000Y-72390000D03*
%TO.P,U22,6*%
%TO.N,F_A3*%
X31750000Y-69850000D03*
%TO.P,U22,17*%
%TO.N,EA-out*%
X39370000Y-74930000D03*
%TO.P,U22,5*%
%TO.N,F_A2*%
X31750000Y-67310000D03*
%TO.P,U22,16*%
%TO.N,BRG*%
X39370000Y-77470000D03*
%TO.P,U22,4*%
%TO.N,F_A1*%
X31750000Y-64770000D03*
%TO.P,U22,15*%
%TO.N,~E8-in~*%
X39370000Y-80010000D03*
%TO.P,U22,3*%
%TO.N,F_A0*%
X31750000Y-62230000D03*
%TO.P,U22,14*%
%TO.N,E8-out*%
X39370000Y-82550000D03*
%TO.P,U22,2*%
%TO.N,~F_IN~*%
X31750000Y-59690000D03*
%TO.P,U22,13*%
%TO.N,GND*%
X39370000Y-85090000D03*
D11*
%TO.P,U22,1*%
%TO.N,~F_OUT~*%
X31750000Y-57150000D03*
%TD*%
D17*
%TO.P,C1,2*%
%TO.N,GND*%
X35770000Y-43015000D03*
D11*
%TO.P,C1,1*%
%TO.N,+5V*%
X32270000Y-43015000D03*
%TD*%
D17*
%TO.P,C4,2*%
%TO.N,GND*%
X35770000Y-33715000D03*
D11*
%TO.P,C4,1*%
%TO.N,+5V*%
X32270000Y-33715000D03*
%TD*%
D13*
%TO.P,J4,1*%
%TO.N,+5V*%
X22540000Y-30600000D03*
D12*
%TO.P,J4,2*%
%TO.N,GND*%
X25080000Y-30600000D03*
%TO.P,J4,3*%
%TO.N,+5V*%
X22540000Y-33140000D03*
%TO.P,J4,4*%
%TO.N,GND*%
X25080000Y-33140000D03*
%TO.P,J4,5*%
%TO.N,N/C*%
X22540000Y-35680000D03*
%TO.P,J4,6*%
%TO.N,GND*%
X25080000Y-35680000D03*
%TO.P,J4,7*%
%TO.N,N/C*%
X22540000Y-38220000D03*
%TO.P,J4,8*%
%TO.N,GND*%
X25080000Y-38220000D03*
%TD*%
%TO.P,J1,8*%
%TO.N,Net-(J1-Pad8)*%
X25080000Y-109400000D03*
%TO.P,J1,7*%
%TO.N,N/C*%
X22540000Y-109400000D03*
%TO.P,J1,6*%
X25080000Y-106860000D03*
%TO.P,J1,5*%
X22540000Y-106860000D03*
%TO.P,J1,4*%
X25080000Y-104320000D03*
%TO.P,J1,3*%
X22540000Y-104320000D03*
%TO.P,J1,2*%
X25080000Y-101780000D03*
D13*
%TO.P,J1,1*%
X22540000Y-101780000D03*
%TD*%
D12*
%TO.P,J3,40*%
%TO.N,+5V*%
X25080000Y-94130000D03*
%TO.P,J3,39*%
%TO.N,F_A2*%
X22540000Y-94130000D03*
%TO.P,J3,38*%
%TO.N,GND*%
X25080000Y-91590000D03*
%TO.P,J3,37*%
%TO.N,F_A6*%
X22540000Y-91590000D03*
%TO.P,J3,36*%
%TO.N,F_A5*%
X25080000Y-89050000D03*
%TO.P,J3,35*%
%TO.N,F_A7*%
X22540000Y-89050000D03*
%TO.P,J3,34*%
%TO.N,N/C*%
X25080000Y-86510000D03*
%TO.P,J3,33*%
%TO.N,F_A3*%
X22540000Y-86510000D03*
%TO.P,J3,32*%
%TO.N,F_A4*%
X25080000Y-83970000D03*
%TO.P,J3,31*%
%TO.N,F_D2*%
X22540000Y-83970000D03*
%TO.P,J3,30*%
%TO.N,GND*%
X25080000Y-81430000D03*
%TO.P,J3,29*%
%TO.N,F_D0*%
X22540000Y-81430000D03*
%TO.P,J3,28*%
%TO.N,F_A1*%
X25080000Y-78890000D03*
%TO.P,J3,27*%
%TO.N,F_D5*%
X22540000Y-78890000D03*
%TO.P,J3,26*%
%TO.N,F_A0*%
X25080000Y-76350000D03*
%TO.P,J3,25*%
%TO.N,F_D3*%
X22540000Y-76350000D03*
%TO.P,J3,24*%
%TO.N,N/C*%
X25080000Y-73810000D03*
%TO.P,J3,23*%
%TO.N,F_D6*%
X22540000Y-73810000D03*
%TO.P,J3,22*%
%TO.N,N/C*%
X25080000Y-71270000D03*
%TO.P,J3,21*%
%TO.N,F_D1*%
X22540000Y-71270000D03*
%TO.P,J3,20*%
%TO.N,~F_IN~*%
X25080000Y-68730000D03*
%TO.P,J3,19*%
%TO.N,F_D7*%
X22540000Y-68730000D03*
%TO.P,J3,18*%
%TO.N,N/C*%
X25080000Y-66190000D03*
%TO.P,J3,17*%
%TO.N,F_D4*%
X22540000Y-66190000D03*
%TO.P,J3,16*%
%TO.N,N/C*%
X25080000Y-63650000D03*
%TO.P,J3,15*%
X22540000Y-63650000D03*
%TO.P,J3,14*%
X25080000Y-61110000D03*
%TO.P,J3,13*%
X22540000Y-61110000D03*
%TO.P,J3,12*%
X25080000Y-58570000D03*
%TO.P,J3,11*%
%TO.N,~F_OUT~*%
X22540000Y-58570000D03*
%TO.P,J3,10*%
%TO.N,N/C*%
X25080000Y-56030000D03*
%TO.P,J3,9*%
X22540000Y-56030000D03*
%TO.P,J3,8*%
X25080000Y-53490000D03*
%TO.P,J3,7*%
%TO.N,GND*%
X22540000Y-53490000D03*
%TO.P,J3,6*%
%TO.N,N/C*%
X25080000Y-50950000D03*
%TO.P,J3,5*%
X22540000Y-50950000D03*
%TO.P,J3,4*%
X25080000Y-48410000D03*
%TO.P,J3,3*%
X22540000Y-48410000D03*
%TO.P,J3,2*%
X25080000Y-45870000D03*
D13*
%TO.P,J3,1*%
X22540000Y-45870000D03*
%TD*%
D18*
%TO.N,GND*%
X40236900Y-102048300D03*
X46414400Y-69548600D03*
D19*
%TO.N,Net-(JP1-Pad1)*%
X92062200Y-50608500D03*
%TO.N,JSTK*%
X43886900Y-59697500D03*
%TD*%
D20*
%TO.N,+5V*%
X108779000Y-59457400D02*
X107765300Y-59860400D01*
X108779000Y-59457400D02*
X108422500Y-60488400D01*
X38885600Y-56184700D02*
X38920300Y-57165900D01*
X38885600Y-56184700D02*
X39651500Y-56798900D01*
X54286100Y-36080900D02*
X53701600Y-35292000D01*
X54286100Y-36080900D02*
X53307000Y-36008800D01*
X109434100Y-31523200D02*
X110220800Y-32110500D01*
X109434100Y-31523200D02*
X110392600Y-31310700D01*
X111106500Y-32636700D02*
X110932900Y-31670400D01*
X111106500Y-32636700D02*
X110261100Y-32137400D01*
X25666200Y-95177100D02*
X25578400Y-94089800D01*
X25666200Y-95177100D02*
X24785200Y-94533800D01*
X31222500Y-105102600D02*
X31301400Y-106081200D01*
X31222500Y-105102600D02*
X32015400Y-105681600D01*
X52329000Y-35180100D02*
X53020600Y-35876900D01*
X52329000Y-35180100D02*
X53308400Y-35111100D01*
X94995900Y-53706500D02*
X94295200Y-53018800D01*
X94995900Y-53706500D02*
X94017600Y-53788400D01*
X109331800Y-58878800D02*
X107950000Y-60325000D01*
X39370000Y-57150000D02*
X32757200Y-43972000D01*
X32720000Y-43815000D02*
X32720380Y-43831280D01*
X32720380Y-43831280D02*
X32721510Y-43847520D01*
X32721510Y-43847520D02*
X32723400Y-43863690D01*
X32723400Y-43863690D02*
X32726040Y-43879750D01*
X32726040Y-43879750D02*
X32729420Y-43895670D01*
X32729420Y-43895670D02*
X32733540Y-43911420D01*
X32733540Y-43911420D02*
X32738390Y-43926970D01*
X32738390Y-43926970D02*
X32743960Y-43942260D01*
X32743960Y-43942260D02*
X32750230Y-43957290D01*
X32750230Y-43957290D02*
X32757190Y-43972000D01*
X32720000Y-43815000D02*
X32720000Y-43465000D01*
X32720000Y-43465000D02*
X32270000Y-43015000D01*
X53340000Y-35560000D02*
X60260700Y-39370200D01*
X60260700Y-39370200D02*
X60309640Y-39395940D01*
X60309640Y-39395940D02*
X60359540Y-39419800D01*
X60359540Y-39419800D02*
X60410300Y-39441740D01*
X60410300Y-39441740D02*
X60461860Y-39461720D01*
X60461860Y-39461720D02*
X60514150Y-39479730D01*
X60514150Y-39479730D02*
X60567090Y-39495730D01*
X60567090Y-39495730D02*
X60620600Y-39509690D01*
X60620600Y-39509690D02*
X60674600Y-39521610D01*
X60674600Y-39521600D02*
X65557700Y-40502100D01*
X65557700Y-40502100D02*
X65637280Y-40516720D01*
X65637280Y-40516720D02*
X65717290Y-40528690D01*
X65717290Y-40528690D02*
X65797660Y-40538030D01*
X65797660Y-40538030D02*
X65878290Y-40544700D01*
X65878290Y-40544700D02*
X65959100Y-40548700D01*
X65959100Y-40548700D02*
X66040000Y-40550040D01*
X66040000Y-40550000D02*
X86360000Y-40550000D01*
X86360000Y-40550000D02*
X86418650Y-40549300D01*
X86418650Y-40549300D02*
X86477270Y-40547190D01*
X86477270Y-40547190D02*
X86535830Y-40543680D01*
X86535830Y-40543680D02*
X86594280Y-40538770D01*
X86594280Y-40538770D02*
X86652600Y-40532470D01*
X86652600Y-40532500D02*
X94857600Y-39545300D01*
X94857600Y-39545300D02*
X94890950Y-39540410D01*
X94890950Y-39540410D02*
X94923990Y-39533800D01*
X94923990Y-39533800D02*
X94956650Y-39525480D01*
X94956650Y-39525480D02*
X94988840Y-39515480D01*
X94988840Y-39515480D02*
X95020460Y-39503830D01*
X95020460Y-39503830D02*
X95051440Y-39490560D01*
X95051440Y-39490560D02*
X95081680Y-39475690D01*
X95081680Y-39475690D02*
X95111120Y-39459280D01*
X95111120Y-39459280D02*
X95139660Y-39441360D01*
X95139660Y-39441360D02*
X95167240Y-39421990D01*
X95167240Y-39421990D02*
X95193780Y-39401220D01*
X95193780Y-39401220D02*
X95219200Y-39379100D01*
X95219200Y-39379100D02*
X95243450Y-39355690D01*
X95243450Y-39355690D02*
X95266450Y-39331050D01*
X95266450Y-39331050D02*
X95288140Y-39305260D01*
X95288140Y-39305260D02*
X95308460Y-39278370D01*
X95308500Y-39278400D02*
X101541500Y-30571600D01*
X102070000Y-30300000D02*
X102035730Y-30300900D01*
X102035730Y-30300900D02*
X102001560Y-30303610D01*
X102001560Y-30303610D02*
X101967570Y-30308120D01*
X101967570Y-30308120D02*
X101933880Y-30314410D01*
X101933880Y-30314410D02*
X101900560Y-30322470D01*
X101900560Y-30322470D02*
X101867710Y-30332280D01*
X101867710Y-30332280D02*
X101835420Y-30343800D01*
X101835420Y-30343800D02*
X101803790Y-30357010D01*
X101803790Y-30357010D02*
X101772900Y-30371870D01*
X101772900Y-30371870D02*
X101742830Y-30388340D01*
X101742830Y-30388340D02*
X101713680Y-30406370D01*
X101713680Y-30406370D02*
X101685510Y-30425910D01*
X101685510Y-30425910D02*
X101658410Y-30446910D01*
X101658410Y-30446910D02*
X101632460Y-30469310D01*
X101632460Y-30469310D02*
X101607730Y-30493050D01*
X101607730Y-30493050D02*
X101584280Y-30518050D01*
X101584280Y-30518050D02*
X101562180Y-30544260D01*
X101562180Y-30544260D02*
X101541500Y-30571600D01*
X102070000Y-30300000D02*
X103670000Y-30300000D01*
X103806500Y-30314500D02*
X103787230Y-30310670D01*
X103787230Y-30310670D02*
X103767860Y-30307410D01*
X103767860Y-30307410D02*
X103748390Y-30304750D01*
X103748390Y-30304750D02*
X103728860Y-30302680D01*
X103728860Y-30302680D02*
X103709270Y-30301190D01*
X103709270Y-30301190D02*
X103689640Y-30300300D01*
X103689640Y-30300300D02*
X103670000Y-30300010D01*
X103806500Y-30314500D02*
X110490000Y-31750000D01*
X110490000Y-31750000D02*
X111680500Y-33462200D01*
X111938200Y-34218600D02*
X111933310Y-34151320D01*
X111933310Y-34151320D02*
X111925300Y-34084340D01*
X111925300Y-34084340D02*
X111914180Y-34017810D01*
X111914180Y-34017810D02*
X111899980Y-33951860D01*
X111899980Y-33951860D02*
X111882730Y-33886650D01*
X111882730Y-33886650D02*
X111862460Y-33822310D01*
X111862460Y-33822310D02*
X111839220Y-33758980D01*
X111839220Y-33758980D02*
X111813060Y-33696800D01*
X111813060Y-33696800D02*
X111784040Y-33635910D01*
X111784040Y-33635910D02*
X111752220Y-33576430D01*
X111752220Y-33576430D02*
X111717670Y-33518500D01*
X111717670Y-33518500D02*
X111680450Y-33462230D01*
X111938200Y-34218600D02*
X112437600Y-44354000D01*
X112440000Y-44450000D02*
X112439850Y-44425990D01*
X112439850Y-44425990D02*
X112439410Y-44401980D01*
X112439410Y-44401980D02*
X112438670Y-44377990D01*
X112438670Y-44377990D02*
X112437640Y-44354000D01*
X112440000Y-44450000D02*
X112440000Y-49530000D01*
X112333700Y-50165100D02*
X112358440Y-50088120D01*
X112358440Y-50088120D02*
X112379970Y-50010180D01*
X112379970Y-50010180D02*
X112398260Y-49931420D01*
X112398260Y-49931420D02*
X112413260Y-49851970D01*
X112413260Y-49851970D02*
X112424950Y-49771960D01*
X112424950Y-49771960D02*
X112433320Y-49691540D01*
X112433320Y-49691540D02*
X112438340Y-49610840D01*
X112438340Y-49610840D02*
X112440020Y-49530000D01*
X112333700Y-50165100D02*
X109331800Y-58878800D01*
X25080000Y-94130000D02*
X31750000Y-106045000D01*
X53340000Y-35560000D02*
X47100400Y-33215400D01*
X47100400Y-33215400D02*
X47045790Y-33195970D01*
X47045790Y-33195970D02*
X46990530Y-33178460D01*
X46990530Y-33178460D02*
X46934690Y-33162910D01*
X46934690Y-33162910D02*
X46878340Y-33149330D01*
X46878340Y-33149330D02*
X46821540Y-33137740D01*
X46821540Y-33137740D02*
X46764370Y-33128150D01*
X46764370Y-33128150D02*
X46706910Y-33120570D01*
X46706910Y-33120570D02*
X46649210Y-33115020D01*
X46649200Y-33115100D02*
X35883500Y-32269500D01*
X35883500Y-32269500D02*
X35819840Y-32265910D01*
X35819840Y-32265910D02*
X35756080Y-32265120D01*
X35756080Y-32265120D02*
X35692350Y-32267130D01*
X35692350Y-32267130D02*
X35628770Y-32271950D01*
X35628770Y-32271950D02*
X35565460Y-32279550D01*
X35565460Y-32279550D02*
X35502550Y-32289930D01*
X35502550Y-32289930D02*
X35440150Y-32303070D01*
X35440150Y-32303070D02*
X35378390Y-32318930D01*
X35378390Y-32318930D02*
X35317390Y-32337500D01*
X35317390Y-32337500D02*
X35257270Y-32358730D01*
X35257270Y-32358730D02*
X35198140Y-32382590D01*
X35198100Y-32382500D02*
X33208000Y-33236600D01*
X33070000Y-33265000D02*
X33084180Y-33264710D01*
X33084180Y-33264710D02*
X33098340Y-33263850D01*
X33098340Y-33263850D02*
X33112460Y-33262420D01*
X33112460Y-33262420D02*
X33126500Y-33260410D01*
X33126500Y-33260410D02*
X33140450Y-33257840D01*
X33140450Y-33257840D02*
X33154290Y-33254700D01*
X33154290Y-33254700D02*
X33167980Y-33251010D01*
X33167980Y-33251010D02*
X33181520Y-33246760D01*
X33181520Y-33246760D02*
X33194870Y-33241970D01*
X33194870Y-33241970D02*
X33208020Y-33236640D01*
X33070000Y-33265000D02*
X32720000Y-33265000D01*
X32720000Y-33265000D02*
X32270000Y-33715000D01*
X93980000Y-53340000D02*
X109331800Y-58878800D01*
%TO.N,GND*%
X88013300Y-38716500D02*
X88979600Y-38542900D01*
X88013300Y-38716500D02*
X88512600Y-37871100D01*
X64386700Y-38716500D02*
X63887400Y-37871100D01*
X64386700Y-38716500D02*
X63420400Y-38542900D01*
X87420300Y-97995500D02*
X86621900Y-97424100D01*
X87420300Y-97995500D02*
X86466300Y-98227300D01*
X101952300Y-94549400D02*
X102926400Y-94426500D01*
X101952300Y-94549400D02*
X102495000Y-93731300D01*
X61344300Y-110571900D02*
X59369300Y-108616700D01*
X61344300Y-110571900D02*
X59297500Y-112451700D01*
X70291000Y-111181400D02*
X70915300Y-112206200D01*
X70291000Y-111181400D02*
X71474900Y-111377400D01*
X86300300Y-111014900D02*
X84564500Y-108844700D01*
X86300300Y-111014900D02*
X84050100Y-112645700D01*
X111106500Y-79626700D02*
X110932900Y-78660400D01*
X111106500Y-79626700D02*
X110261100Y-79127400D01*
X35222800Y-34646100D02*
X36027700Y-34083900D01*
X35222800Y-34646100D02*
X35322300Y-33669300D01*
X26280000Y-38229300D02*
X25291800Y-37767100D01*
X26280000Y-38229300D02*
X25284800Y-38676100D01*
X63166700Y-30655900D02*
X64135500Y-31364000D01*
X63166700Y-30655900D02*
X64335500Y-30384200D01*
X61267400Y-30268200D02*
X59680500Y-27986800D01*
X61267400Y-30268200D02*
X58913100Y-31745000D01*
X84788700Y-32579700D02*
X85125500Y-29821100D01*
X84788700Y-32579700D02*
X82049300Y-32112300D01*
X88254900Y-37233800D02*
X88459900Y-38193900D01*
X88254900Y-37233800D02*
X89116100Y-37705300D01*
X35237300Y-42075500D02*
X35321600Y-43053700D01*
X35237300Y-42075500D02*
X36033400Y-42650100D01*
X45787300Y-59497900D02*
X46140000Y-58581600D01*
X45787300Y-59497900D02*
X45323400Y-58632600D01*
X26263400Y-81628700D02*
X25360800Y-81016300D01*
X26263400Y-81628700D02*
X25210200Y-81912700D01*
X30684900Y-82371200D02*
X31497400Y-82922400D01*
X30684900Y-82371200D02*
X31632800Y-82115600D01*
X25939400Y-90752500D02*
X24912000Y-91119100D01*
X25939400Y-90752500D02*
X25546400Y-91770100D01*
X30976500Y-85843800D02*
X31901200Y-85513900D01*
X30976500Y-85843800D02*
X31330200Y-84927900D01*
X39370000Y-106045000D02*
X39820000Y-105595000D01*
X88900000Y-38100000D02*
X87187800Y-39290500D01*
X86360000Y-39550000D02*
X86427750Y-39548420D01*
X86427750Y-39548420D02*
X86495340Y-39543670D01*
X86495340Y-39543670D02*
X86562640Y-39535770D01*
X86562640Y-39535770D02*
X86629500Y-39524730D01*
X86629500Y-39524730D02*
X86695770Y-39510590D01*
X86695770Y-39510590D02*
X86761310Y-39493360D01*
X86761310Y-39493360D02*
X86825970Y-39473090D01*
X86825970Y-39473090D02*
X86889610Y-39449820D01*
X86889610Y-39449820D02*
X86952100Y-39423600D01*
X86952100Y-39423600D02*
X87013290Y-39394490D01*
X87013290Y-39394490D02*
X87073060Y-39362560D01*
X87073060Y-39362560D02*
X87131270Y-39327860D01*
X87131270Y-39327860D02*
X87187790Y-39290490D01*
X86360000Y-39550000D02*
X66040000Y-39550000D01*
X65212200Y-39290500D02*
X65268720Y-39327880D01*
X65268720Y-39327880D02*
X65326930Y-39362570D01*
X65326930Y-39362570D02*
X65386700Y-39394510D01*
X65386700Y-39394510D02*
X65447890Y-39423610D01*
X65447890Y-39423610D02*
X65510380Y-39449830D01*
X65510380Y-39449830D02*
X65574030Y-39473100D01*
X65574030Y-39473100D02*
X65638690Y-39493370D01*
X65638690Y-39493370D02*
X65704220Y-39510600D01*
X65704220Y-39510600D02*
X65770490Y-39524750D01*
X65770490Y-39524750D02*
X65837350Y-39535780D01*
X65837350Y-39535780D02*
X65904660Y-39543680D01*
X65904660Y-39543680D02*
X65972250Y-39548430D01*
X65972250Y-39548430D02*
X66040000Y-39550010D01*
X65212200Y-39290500D02*
X63500000Y-38100000D01*
X86360000Y-97790000D02*
X93704100Y-99213500D01*
X93704100Y-99213500D02*
X93775280Y-99225470D01*
X93775280Y-99225470D02*
X93846970Y-99233880D01*
X93846970Y-99233880D02*
X93918990Y-99238710D01*
X93918990Y-99238710D02*
X93991160Y-99239950D01*
X93991160Y-99239950D02*
X94063310Y-99237600D01*
X94063310Y-99237600D02*
X94135250Y-99231660D01*
X94135250Y-99231660D02*
X94206800Y-99222140D01*
X94206800Y-99222140D02*
X94277790Y-99209080D01*
X94277790Y-99209080D02*
X94348040Y-99192500D01*
X94348040Y-99192500D02*
X94417380Y-99172450D01*
X94417380Y-99172450D02*
X94485640Y-99148970D01*
X94485640Y-99148970D02*
X94552640Y-99122120D01*
X94552640Y-99122120D02*
X94618220Y-99091980D01*
X94618220Y-99091980D02*
X94682230Y-99058600D01*
X94682230Y-99058600D02*
X94744490Y-99022080D01*
X94744500Y-99022100D02*
X102870000Y-93980000D01*
X57505000Y-110500000D02*
X64431000Y-110629700D01*
X64431000Y-110629700D02*
X64484810Y-110629770D01*
X64484810Y-110629770D02*
X64538580Y-110627980D01*
X64538580Y-110627980D02*
X64592260Y-110624320D01*
X64592260Y-110624320D02*
X64645780Y-110618800D01*
X64645780Y-110618800D02*
X64699080Y-110611420D01*
X64699080Y-110611420D02*
X64752090Y-110602200D01*
X64752090Y-110602200D02*
X64804750Y-110591140D01*
X64804750Y-110591140D02*
X64856990Y-110578270D01*
X64857000Y-110578300D02*
X65448000Y-110421700D01*
X66242000Y-110421700D02*
X66171030Y-110404670D01*
X66171030Y-110404670D02*
X66099330Y-110391000D01*
X66099330Y-110391000D02*
X66027070Y-110380730D01*
X66027070Y-110380730D02*
X65954400Y-110373860D01*
X65954400Y-110373860D02*
X65881490Y-110370430D01*
X65881490Y-110370430D02*
X65808510Y-110370430D01*
X65808510Y-110370430D02*
X65735600Y-110373860D01*
X65735600Y-110373860D02*
X65662930Y-110380730D01*
X65662930Y-110380730D02*
X65590670Y-110391000D01*
X65590670Y-110391000D02*
X65518970Y-110404670D01*
X65518970Y-110404670D02*
X65448000Y-110421700D01*
X66242000Y-110421700D02*
X66833000Y-110578300D01*
X66833000Y-110578300D02*
X66903970Y-110595330D01*
X66903970Y-110595330D02*
X66975670Y-110609000D01*
X66975670Y-110609000D02*
X67047930Y-110619270D01*
X67047930Y-110619270D02*
X67120600Y-110626140D01*
X67120600Y-110626140D02*
X67193510Y-110629570D01*
X67193510Y-110629570D02*
X67266490Y-110629570D01*
X67266490Y-110629570D02*
X67339400Y-110626140D01*
X67339400Y-110626140D02*
X67412070Y-110619270D01*
X67412070Y-110619270D02*
X67484330Y-110609000D01*
X67484330Y-110609000D02*
X67556030Y-110595330D01*
X67556030Y-110595330D02*
X67627000Y-110578300D01*
X67627000Y-110578300D02*
X68218000Y-110421700D01*
X69482300Y-110635400D02*
X69412630Y-110591020D01*
X69412630Y-110591020D02*
X69340690Y-110550410D01*
X69340690Y-110550410D02*
X69266680Y-110513690D01*
X69266680Y-110513690D02*
X69190830Y-110480960D01*
X69190830Y-110480960D02*
X69113340Y-110452330D01*
X69113340Y-110452330D02*
X69034440Y-110427860D01*
X69034440Y-110427860D02*
X68954340Y-110407630D01*
X68954340Y-110407630D02*
X68873280Y-110391700D01*
X68873280Y-110391700D02*
X68791490Y-110380110D01*
X68791490Y-110380110D02*
X68709200Y-110372900D01*
X68709200Y-110372900D02*
X68626630Y-110370070D01*
X68626630Y-110370070D02*
X68544040Y-110371660D01*
X68544040Y-110371660D02*
X68461650Y-110377640D01*
X68461650Y-110377640D02*
X68379690Y-110388000D01*
X68379690Y-110388000D02*
X68298400Y-110402710D01*
X68298400Y-110402710D02*
X68218010Y-110421730D01*
X69482300Y-110635400D02*
X71385000Y-111920000D01*
X82495000Y-110500000D02*
X93092800Y-111934100D01*
X93092800Y-111934100D02*
X93107270Y-111935890D01*
X93107270Y-111935890D02*
X93121770Y-111937360D01*
X93121770Y-111937360D02*
X93136300Y-111938510D01*
X93136300Y-111938510D02*
X93150860Y-111939320D01*
X93150860Y-111939320D02*
X93165420Y-111939810D01*
X93165420Y-111939810D02*
X93180000Y-111939980D01*
X93180000Y-111940000D02*
X101600000Y-111940000D01*
X101600000Y-111940000D02*
X101656050Y-111938920D01*
X101656050Y-111938920D02*
X101712020Y-111935670D01*
X101712020Y-111935670D02*
X101767820Y-111930260D01*
X101767820Y-111930260D02*
X101823360Y-111922690D01*
X101823360Y-111922690D02*
X101878580Y-111912990D01*
X101878580Y-111912990D02*
X101933380Y-111901160D01*
X101933380Y-111901160D02*
X101987680Y-111887210D01*
X101987680Y-111887210D02*
X102041400Y-111871180D01*
X102041400Y-111871200D02*
X105866600Y-110648800D01*
X105866600Y-110648800D02*
X105940780Y-110622930D01*
X105940780Y-110622930D02*
X106013510Y-110593220D01*
X106013510Y-110593220D02*
X106084580Y-110559740D01*
X106084580Y-110559740D02*
X106153800Y-110522580D01*
X106153800Y-110522580D02*
X106220970Y-110481850D01*
X106220970Y-110481850D02*
X106285930Y-110437660D01*
X106285930Y-110437660D02*
X106348480Y-110390130D01*
X106348480Y-110390130D02*
X106408460Y-110339390D01*
X106408460Y-110339390D02*
X106465700Y-110285580D01*
X106465700Y-110285580D02*
X106520040Y-110228850D01*
X106520040Y-110228850D02*
X106571340Y-110169340D01*
X106571340Y-110169340D02*
X106619450Y-110107240D01*
X106619450Y-110107240D02*
X106664240Y-110042700D01*
X106664240Y-110042700D02*
X106705600Y-109975900D01*
X106705600Y-109975900D02*
X106743390Y-109907030D01*
X106743390Y-109907030D02*
X106777540Y-109836280D01*
X106777540Y-109836280D02*
X106807930Y-109763830D01*
X106807930Y-109763830D02*
X106834480Y-109689890D01*
X106834500Y-109689900D02*
X111867000Y-94434200D01*
X111867000Y-94434200D02*
X111877540Y-94400890D01*
X111877540Y-94400890D02*
X111887280Y-94367340D01*
X111887280Y-94367340D02*
X111896210Y-94333560D01*
X111896210Y-94333560D02*
X111904320Y-94299570D01*
X111904320Y-94299570D02*
X111911610Y-94265400D01*
X111911600Y-94265400D02*
X112892100Y-89382300D01*
X112892100Y-89382300D02*
X112909930Y-89282910D01*
X112909930Y-89282910D02*
X112923660Y-89182860D01*
X112923660Y-89182860D02*
X112933250Y-89082340D01*
X112933250Y-89082340D02*
X112938680Y-88981500D01*
X112938680Y-88981500D02*
X112939960Y-88880530D01*
X112939960Y-88880530D02*
X112937080Y-88779590D01*
X112937080Y-88779590D02*
X112930040Y-88678850D01*
X112930040Y-88678850D02*
X112918850Y-88578490D01*
X112918800Y-88578500D02*
X111927500Y-81089700D01*
X111927500Y-81089700D02*
X111917920Y-81027700D01*
X111917920Y-81027700D02*
X111905670Y-80966170D01*
X111905670Y-80966170D02*
X111890770Y-80905220D01*
X111890770Y-80905220D02*
X111873250Y-80844980D01*
X111873250Y-80844980D02*
X111853140Y-80785550D01*
X111853140Y-80785550D02*
X111830470Y-80727050D01*
X111830470Y-80727050D02*
X111805300Y-80669580D01*
X111805300Y-80669580D02*
X111777660Y-80613260D01*
X111777660Y-80613260D02*
X111747620Y-80558180D01*
X111747620Y-80558180D02*
X111715220Y-80504460D01*
X111715220Y-80504460D02*
X111680520Y-80452180D01*
X111680500Y-80452200D02*
X110490000Y-78740000D01*
X35770000Y-33715000D02*
X33086000Y-38282000D01*
X25080000Y-38220000D02*
X33086000Y-38282000D01*
X64460000Y-30920000D02*
X57505000Y-29500000D01*
X82495000Y-29500000D02*
X88900000Y-38100000D01*
X33086000Y-38282000D02*
X35770000Y-43015000D01*
X46414400Y-69548600D02*
X45720000Y-58420000D01*
X25080000Y-81430000D02*
X31750000Y-82550000D01*
X25080000Y-91590000D02*
X31750000Y-85090000D01*
X39370000Y-90170000D02*
X39820000Y-90620000D01*
X39820000Y-90620000D02*
X39820000Y-90970000D01*
X39820000Y-90970000D02*
X39820110Y-90978670D01*
X39820110Y-90978670D02*
X39820430Y-90987330D01*
X39820430Y-90987330D02*
X39820970Y-90995970D01*
X39820970Y-90995970D02*
X39821720Y-91004610D01*
X39821720Y-91004610D02*
X39822680Y-91013220D01*
X39822680Y-91013220D02*
X39823860Y-91021810D01*
X39823900Y-91021800D02*
X40804000Y-97575500D01*
X40805900Y-97991400D02*
X40812220Y-97939620D01*
X40812220Y-97939620D02*
X40816660Y-97887640D01*
X40816660Y-97887640D02*
X40819240Y-97835540D01*
X40819240Y-97835540D02*
X40819940Y-97783380D01*
X40819940Y-97783380D02*
X40818760Y-97731230D01*
X40818760Y-97731230D02*
X40815710Y-97679150D01*
X40815710Y-97679150D02*
X40810790Y-97627220D01*
X40810790Y-97627220D02*
X40804000Y-97575500D01*
X40805900Y-97991400D02*
X40236900Y-102048300D01*
X39370000Y-106045000D02*
X39820000Y-105595000D01*
X39820000Y-105595000D02*
X39820000Y-105245000D01*
X39823000Y-105199400D02*
X39821930Y-105208480D01*
X39821930Y-105208480D02*
X39821090Y-105217590D01*
X39821090Y-105217590D02*
X39820490Y-105226720D01*
X39820490Y-105226720D02*
X39820140Y-105235860D01*
X39820140Y-105235860D02*
X39820020Y-105245000D01*
X39823000Y-105199400D02*
X40236900Y-102048300D01*
D21*
%TO.N,F_D2*%
X54379700Y-50825800D02*
X53823800Y-50294100D01*
X54379700Y-50825800D02*
X53798200Y-51329300D01*
X110981300Y-42826600D02*
X111168900Y-42080600D01*
X110981300Y-42826600D02*
X110256300Y-42569800D01*
X87387000Y-82713800D02*
X86906800Y-82113000D01*
X87387000Y-82713800D02*
X86743800Y-83135400D01*
X109563600Y-85887400D02*
X109835000Y-86607100D01*
X109563600Y-85887400D02*
X110305600Y-85684700D01*
X53340000Y-50800000D02*
X87182300Y-51640300D01*
X87182300Y-51640300D02*
X87191100Y-51640500D01*
X87191100Y-51640500D02*
X92020700Y-51807800D01*
X92020700Y-51807800D02*
X92041820Y-51808340D01*
X92041820Y-51808340D02*
X92062950Y-51808520D01*
X92062950Y-51808520D02*
X92084070Y-51808320D01*
X92084070Y-51808320D02*
X92105190Y-51807750D01*
X92105190Y-51807750D02*
X92126300Y-51806800D01*
X92126300Y-51806800D02*
X102960800Y-51227600D01*
X102960800Y-51227600D02*
X102965980Y-51227320D01*
X102965980Y-51227320D02*
X102971150Y-51227010D01*
X102971150Y-51227010D02*
X102976330Y-51226700D01*
X102976330Y-51226700D02*
X102981500Y-51226370D01*
X102981500Y-51226300D02*
X110568700Y-50727400D01*
X110568700Y-50727400D02*
X110637850Y-50720840D01*
X110637850Y-50720840D02*
X110706500Y-50710290D01*
X110706500Y-50710290D02*
X110774430Y-50695790D01*
X110774430Y-50695790D02*
X110841400Y-50677380D01*
X110841400Y-50677380D02*
X110907200Y-50655120D01*
X110907200Y-50655120D02*
X110971600Y-50629100D01*
X110971600Y-50629100D02*
X111034380Y-50599400D01*
X111034380Y-50599400D02*
X111095350Y-50566110D01*
X111095350Y-50566110D02*
X111154280Y-50529350D01*
X111154280Y-50529350D02*
X111210990Y-50489240D01*
X111210990Y-50489240D02*
X111265280Y-50445920D01*
X111265280Y-50445920D02*
X111316980Y-50399520D01*
X111316980Y-50399520D02*
X111365900Y-50350220D01*
X111365900Y-50350220D02*
X111411890Y-50298170D01*
X111411890Y-50298170D02*
X111454790Y-50243540D01*
X111454790Y-50243540D02*
X111494460Y-50186520D01*
X111494460Y-50186520D02*
X111530760Y-50127310D01*
X111530760Y-50127310D02*
X111563580Y-50066090D01*
X111563580Y-50066090D02*
X111592800Y-50003080D01*
X111592800Y-50003080D02*
X111618320Y-49938480D01*
X111618320Y-49938480D02*
X111640060Y-49872510D01*
X111640060Y-49872510D02*
X111657950Y-49805400D01*
X111657950Y-49805400D02*
X111671930Y-49737360D01*
X111671930Y-49737360D02*
X111681950Y-49668630D01*
X111681950Y-49668630D02*
X111687970Y-49599430D01*
X111687970Y-49599430D02*
X111689980Y-49530000D01*
X111690000Y-49530000D02*
X111690000Y-44450000D01*
X111690000Y-44450000D02*
X111688800Y-44396340D01*
X111688800Y-44396340D02*
X111685200Y-44342790D01*
X111685200Y-44342790D02*
X111679210Y-44289450D01*
X111679210Y-44289450D02*
X111670840Y-44236430D01*
X111670840Y-44236430D02*
X111660110Y-44183840D01*
X111660110Y-44183840D02*
X111647040Y-44131780D01*
X111647040Y-44131780D02*
X111631650Y-44080360D01*
X111631650Y-44080360D02*
X111613980Y-44029680D01*
X111613980Y-44029680D02*
X111594060Y-43979840D01*
X111594060Y-43979840D02*
X111571930Y-43930940D01*
X111571930Y-43930940D02*
X111547640Y-43883080D01*
X111547600Y-43883100D02*
X110490000Y-41910000D01*
X86360000Y-82550000D02*
X93791000Y-83735000D01*
X93791000Y-83735000D02*
X93833590Y-83741010D01*
X93833590Y-83741010D02*
X93876370Y-83745490D01*
X93876370Y-83745490D02*
X93919280Y-83748440D01*
X93919280Y-83748440D02*
X93962270Y-83749850D01*
X93962270Y-83749850D02*
X94005280Y-83749710D01*
X94005280Y-83749710D02*
X94048260Y-83748030D01*
X94048260Y-83748030D02*
X94091150Y-83744820D01*
X94091150Y-83744820D02*
X94133900Y-83740070D01*
X94133900Y-83740100D02*
X102716100Y-82629900D01*
X103415300Y-82751000D02*
X103365370Y-82726970D01*
X103365370Y-82726970D02*
X103314390Y-82705270D01*
X103314390Y-82705270D02*
X103262460Y-82685940D01*
X103262460Y-82685940D02*
X103209690Y-82669030D01*
X103209690Y-82669030D02*
X103156200Y-82654580D01*
X103156200Y-82654580D02*
X103102100Y-82642610D01*
X103102100Y-82642610D02*
X103047500Y-82633150D01*
X103047500Y-82633150D02*
X102992530Y-82626220D01*
X102992530Y-82626220D02*
X102937290Y-82621840D01*
X102937290Y-82621840D02*
X102881910Y-82620010D01*
X102881910Y-82620010D02*
X102826510Y-82620740D01*
X102826510Y-82620740D02*
X102771200Y-82624030D01*
X102771200Y-82624030D02*
X102716100Y-82629860D01*
X103415300Y-82751000D02*
X110490000Y-86360000D01*
%TO.N,F_D0*%
X101876200Y-39676600D02*
X102572400Y-40003600D01*
X101876200Y-39676600D02*
X102267200Y-39014200D01*
X23076400Y-80481100D02*
X22320200Y-80712900D01*
X23076400Y-80481100D02*
X23267800Y-81248500D01*
X52848700Y-41556600D02*
X53573700Y-41299800D01*
X52848700Y-41556600D02*
X52661100Y-40810600D01*
X87286400Y-77942600D02*
X87015000Y-77222900D01*
X87286400Y-77942600D02*
X86544400Y-78145300D01*
X109465300Y-76377800D02*
X110114300Y-76790600D01*
X109465300Y-76377800D02*
X109937300Y-75770400D01*
X54708000Y-45501800D02*
X60771000Y-44535000D01*
X60920600Y-44520600D02*
X60890550Y-44521960D01*
X60890550Y-44521960D02*
X60860550Y-44524080D01*
X60860550Y-44524080D02*
X60830610Y-44526950D01*
X60830610Y-44526950D02*
X60800750Y-44530570D01*
X60800750Y-44530570D02*
X60770990Y-44534930D01*
X60920600Y-44520600D02*
X76144200Y-44020900D01*
X76534600Y-44053300D02*
X76479440Y-44043170D01*
X76479440Y-44043170D02*
X76423970Y-44034860D01*
X76423970Y-44034860D02*
X76368260Y-44028390D01*
X76368260Y-44028390D02*
X76312370Y-44023760D01*
X76312370Y-44023760D02*
X76256360Y-44020980D01*
X76256360Y-44020980D02*
X76200280Y-44020050D01*
X76200280Y-44020050D02*
X76144200Y-44020960D01*
X76534600Y-44053300D02*
X78976200Y-44543500D01*
X79873900Y-45327100D02*
X79850730Y-45265710D01*
X79850730Y-45265710D02*
X79824230Y-45205670D01*
X79824230Y-45205670D02*
X79794500Y-45147170D01*
X79794500Y-45147170D02*
X79761610Y-45090390D01*
X79761610Y-45090390D02*
X79725670Y-45035480D01*
X79725670Y-45035480D02*
X79686770Y-44982630D01*
X79686770Y-44982630D02*
X79645050Y-44931980D01*
X79645050Y-44931980D02*
X79600620Y-44883680D01*
X79600620Y-44883680D02*
X79553620Y-44837890D01*
X79553620Y-44837890D02*
X79504190Y-44794730D01*
X79504190Y-44794730D02*
X79452470Y-44754340D01*
X79452470Y-44754340D02*
X79398620Y-44716840D01*
X79398620Y-44716840D02*
X79342800Y-44682340D01*
X79342800Y-44682340D02*
X79285170Y-44650940D01*
X79285170Y-44650940D02*
X79225920Y-44622740D01*
X79225920Y-44622740D02*
X79165210Y-44597820D01*
X79165210Y-44597820D02*
X79103240Y-44576250D01*
X79103240Y-44576250D02*
X79040170Y-44558110D01*
X79040170Y-44558110D02*
X78976210Y-44543440D01*
X79873900Y-45327100D02*
X80146100Y-46112900D01*
X80146100Y-46112900D02*
X80169980Y-46176010D01*
X80169980Y-46176010D02*
X80197360Y-46237690D01*
X80197360Y-46237690D02*
X80228170Y-46297720D01*
X80228170Y-46297720D02*
X80262310Y-46355930D01*
X80262310Y-46355930D02*
X80299660Y-46412130D01*
X80299660Y-46412130D02*
X80340120Y-46466140D01*
X80340120Y-46466140D02*
X80383540Y-46517790D01*
X80383540Y-46517790D02*
X80429800Y-46566910D01*
X80429800Y-46566910D02*
X80478750Y-46613360D01*
X80478750Y-46613360D02*
X80530230Y-46656990D01*
X80530230Y-46656990D02*
X80584080Y-46697650D01*
X80584080Y-46697650D02*
X80640130Y-46735220D01*
X80640130Y-46735220D02*
X80698210Y-46769580D01*
X80698210Y-46769580D02*
X80758130Y-46800620D01*
X80758130Y-46800620D02*
X80819690Y-46828250D01*
X80819690Y-46828250D02*
X80882710Y-46852370D01*
X80882710Y-46852370D02*
X80946990Y-46872910D01*
X80946990Y-46872910D02*
X81012320Y-46889810D01*
X81012320Y-46889810D02*
X81078490Y-46903000D01*
X81078490Y-46903000D02*
X81145310Y-46912460D01*
X81145310Y-46912460D02*
X81212550Y-46918140D01*
X81212550Y-46918140D02*
X81280000Y-46920040D01*
X81280000Y-46920000D02*
X83820000Y-46920000D01*
X83820000Y-46920000D02*
X83887450Y-46918100D01*
X83887450Y-46918100D02*
X83954690Y-46912420D01*
X83954690Y-46912420D02*
X84021500Y-46902960D01*
X84021500Y-46902960D02*
X84087670Y-46889770D01*
X84087670Y-46889770D02*
X84153000Y-46872870D01*
X84153000Y-46872870D02*
X84217270Y-46852330D01*
X84217270Y-46852330D02*
X84280290Y-46828210D01*
X84280290Y-46828210D02*
X84341860Y-46800590D01*
X84341860Y-46800590D02*
X84401770Y-46769540D01*
X84401770Y-46769540D02*
X84459840Y-46735190D01*
X84459840Y-46735190D02*
X84515890Y-46697620D01*
X84515890Y-46697620D02*
X84569740Y-46656950D01*
X84569740Y-46656950D02*
X84621220Y-46613330D01*
X84621220Y-46613330D02*
X84670170Y-46566880D01*
X84670170Y-46566880D02*
X84716430Y-46517760D01*
X84716430Y-46517760D02*
X84759850Y-46466110D01*
X84759850Y-46466110D02*
X84800300Y-46412100D01*
X84800300Y-46412100D02*
X84837660Y-46355910D01*
X84837660Y-46355910D02*
X84871790Y-46297700D01*
X84871790Y-46297700D02*
X84902600Y-46237670D01*
X84902600Y-46237670D02*
X84929980Y-46176000D01*
X84929980Y-46176000D02*
X84953860Y-46112890D01*
X84953900Y-46112900D02*
X85226100Y-45327100D01*
X86006200Y-44573300D02*
X85946950Y-44593280D01*
X85946950Y-44593280D02*
X85888830Y-44616330D01*
X85888830Y-44616330D02*
X85831980Y-44642370D01*
X85831980Y-44642370D02*
X85776570Y-44671330D01*
X85776570Y-44671330D02*
X85722740Y-44703140D01*
X85722740Y-44703140D02*
X85670640Y-44737720D01*
X85670640Y-44737720D02*
X85620410Y-44774960D01*
X85620410Y-44774960D02*
X85572200Y-44814760D01*
X85572200Y-44814760D02*
X85526110Y-44857020D01*
X85526110Y-44857020D02*
X85482300Y-44901630D01*
X85482300Y-44901630D02*
X85440860Y-44948450D01*
X85440860Y-44948450D02*
X85401920Y-44997380D01*
X85401920Y-44997380D02*
X85365590Y-45048260D01*
X85365590Y-45048260D02*
X85331950Y-45100970D01*
X85331950Y-45100970D02*
X85301100Y-45155350D01*
X85301100Y-45155350D02*
X85273130Y-45211270D01*
X85273130Y-45211270D02*
X85248110Y-45268570D01*
X85248110Y-45268570D02*
X85226100Y-45327100D01*
X86006200Y-44573300D02*
X102870000Y-39370000D01*
X22540000Y-81430000D02*
X23628200Y-79505200D01*
X23628200Y-79505200D02*
X23650460Y-79464060D01*
X23650460Y-79464060D02*
X23671160Y-79422110D01*
X23671160Y-79422110D02*
X23690270Y-79379410D01*
X23690270Y-79379410D02*
X23707780Y-79336030D01*
X23707780Y-79336030D02*
X23723650Y-79292030D01*
X23723650Y-79292030D02*
X23737860Y-79247460D01*
X23737860Y-79247460D02*
X23750400Y-79202400D01*
X23750400Y-79202400D02*
X23761240Y-79156890D01*
X23761240Y-79156890D02*
X23770370Y-79111010D01*
X23770300Y-79111000D02*
X23849700Y-78669000D01*
X24859000Y-77659700D02*
X24791410Y-77673780D01*
X24791410Y-77673780D02*
X24724700Y-77691570D01*
X24724700Y-77691570D02*
X24659070Y-77713010D01*
X24659070Y-77713010D02*
X24594720Y-77738050D01*
X24594720Y-77738050D02*
X24531860Y-77766600D01*
X24531860Y-77766600D02*
X24470670Y-77798580D01*
X24470670Y-77798580D02*
X24411340Y-77833890D01*
X24411340Y-77833890D02*
X24354040Y-77872420D01*
X24354040Y-77872420D02*
X24298970Y-77914060D01*
X24298970Y-77914060D02*
X24246270Y-77958670D01*
X24246270Y-77958670D02*
X24196120Y-78006120D01*
X24196120Y-78006120D02*
X24148670Y-78056270D01*
X24148670Y-78056270D02*
X24104060Y-78108970D01*
X24104060Y-78108970D02*
X24062420Y-78164040D01*
X24062420Y-78164040D02*
X24023890Y-78221340D01*
X24023890Y-78221340D02*
X23988580Y-78280670D01*
X23988580Y-78280670D02*
X23956600Y-78341860D01*
X23956600Y-78341860D02*
X23928050Y-78404720D01*
X23928050Y-78404720D02*
X23903010Y-78469070D01*
X23903010Y-78469070D02*
X23881570Y-78534700D01*
X23881570Y-78534700D02*
X23863780Y-78601410D01*
X23863780Y-78601410D02*
X23849700Y-78669000D01*
X24859000Y-77659700D02*
X25301000Y-77580300D01*
X25301000Y-77580300D02*
X25366850Y-77566630D01*
X25366850Y-77566630D02*
X25431870Y-77549440D01*
X25431870Y-77549440D02*
X25495870Y-77528780D01*
X25495870Y-77528780D02*
X25558670Y-77504710D01*
X25558670Y-77504710D02*
X25620080Y-77477290D01*
X25620080Y-77477290D02*
X25679930Y-77446610D01*
X25679930Y-77446610D02*
X25738040Y-77412760D01*
X25738040Y-77412760D02*
X25794250Y-77375830D01*
X25794250Y-77375830D02*
X25848390Y-77335930D01*
X25848390Y-77335930D02*
X25900300Y-77293180D01*
X25900300Y-77293180D02*
X25949840Y-77247690D01*
X25949840Y-77247690D02*
X25996860Y-77199610D01*
X25996860Y-77199610D02*
X26041230Y-77149070D01*
X26041230Y-77149070D02*
X26082820Y-77096210D01*
X26082820Y-77096210D02*
X26121500Y-77041200D01*
X26121500Y-77041200D02*
X26157170Y-76984180D01*
X26157200Y-76984200D02*
X30715900Y-69241200D01*
X31357100Y-68716100D02*
X31300510Y-68737320D01*
X31300510Y-68737320D02*
X31245060Y-68761360D01*
X31245060Y-68761360D02*
X31190890Y-68788160D01*
X31190890Y-68788160D02*
X31138140Y-68817660D01*
X31138140Y-68817660D02*
X31086940Y-68849770D01*
X31086940Y-68849770D02*
X31037420Y-68884430D01*
X31037420Y-68884430D02*
X30989710Y-68921530D01*
X30989710Y-68921530D02*
X30943930Y-68960980D01*
X30943930Y-68960980D02*
X30900200Y-69002690D01*
X30900200Y-69002690D02*
X30858610Y-69046550D01*
X30858610Y-69046550D02*
X30819290Y-69092450D01*
X30819290Y-69092450D02*
X30782330Y-69140270D01*
X30782330Y-69140270D02*
X30747830Y-69189890D01*
X30747830Y-69189890D02*
X30715860Y-69241180D01*
X31357100Y-68716100D02*
X32142900Y-68443900D01*
X32142900Y-68443900D02*
X32196000Y-68424080D01*
X32196000Y-68424080D02*
X32248110Y-68401780D01*
X32248110Y-68401780D02*
X32299110Y-68377040D01*
X32299110Y-68377040D02*
X32348880Y-68349920D01*
X32348880Y-68349920D02*
X32397320Y-68320490D01*
X32397320Y-68320490D02*
X32444310Y-68288790D01*
X32444310Y-68288790D02*
X32489750Y-68254920D01*
X32489750Y-68254920D02*
X32533540Y-68218930D01*
X32533540Y-68218930D02*
X32575590Y-68180920D01*
X32575590Y-68180920D02*
X32615790Y-68140960D01*
X32615790Y-68140960D02*
X32654060Y-68099160D01*
X32654000Y-68099100D02*
X38466000Y-61440900D01*
X38977100Y-61096100D02*
X38924000Y-61115920D01*
X38924000Y-61115920D02*
X38871890Y-61138220D01*
X38871890Y-61138220D02*
X38820890Y-61162960D01*
X38820890Y-61162960D02*
X38771120Y-61190080D01*
X38771120Y-61190080D02*
X38722680Y-61219510D01*
X38722680Y-61219510D02*
X38675690Y-61251210D01*
X38675690Y-61251210D02*
X38630250Y-61285080D01*
X38630250Y-61285080D02*
X38586460Y-61321070D01*
X38586460Y-61321070D02*
X38544410Y-61359080D01*
X38544410Y-61359080D02*
X38504210Y-61399040D01*
X38504210Y-61399040D02*
X38465940Y-61440840D01*
X38977100Y-61096100D02*
X39762900Y-60823900D01*
X39762900Y-60823900D02*
X39824290Y-60800730D01*
X39824290Y-60800730D02*
X39884330Y-60774230D01*
X39884330Y-60774230D02*
X39942830Y-60744500D01*
X39942830Y-60744500D02*
X39999610Y-60711610D01*
X39999610Y-60711610D02*
X40054520Y-60675670D01*
X40054520Y-60675670D02*
X40107370Y-60636770D01*
X40107370Y-60636770D02*
X40158020Y-60595050D01*
X40158020Y-60595050D02*
X40206320Y-60550620D01*
X40206320Y-60550620D02*
X40252110Y-60503620D01*
X40252110Y-60503620D02*
X40295270Y-60454190D01*
X40295270Y-60454190D02*
X40335660Y-60402470D01*
X40335660Y-60402470D02*
X40373160Y-60348620D01*
X40373160Y-60348620D02*
X40407660Y-60292800D01*
X40407660Y-60292800D02*
X40439060Y-60235170D01*
X40439060Y-60235170D02*
X40467260Y-60175920D01*
X40467260Y-60175920D02*
X40492180Y-60115210D01*
X40492180Y-60115210D02*
X40513750Y-60053240D01*
X40513750Y-60053240D02*
X40531890Y-59990170D01*
X40531890Y-59990170D02*
X40546560Y-59926210D01*
X40546500Y-59926200D02*
X41036700Y-57484600D01*
X41036700Y-57484600D02*
X41042430Y-57454680D01*
X41042430Y-57454680D02*
X41047620Y-57424650D01*
X41047620Y-57424650D02*
X41052270Y-57394540D01*
X41052270Y-57394540D02*
X41056390Y-57364350D01*
X41056390Y-57364350D02*
X41059960Y-57334100D01*
X41060000Y-57334100D02*
X41544700Y-52885100D01*
X41575500Y-52659500D02*
X41566660Y-52715740D01*
X41566660Y-52715740D02*
X41558580Y-52772090D01*
X41558580Y-52772090D02*
X41551260Y-52828550D01*
X41551260Y-52828550D02*
X41544710Y-52885100D01*
X41575500Y-52659500D02*
X44525300Y-34695200D01*
X44920000Y-34360000D02*
X44897480Y-34360630D01*
X44897480Y-34360630D02*
X44875040Y-34362540D01*
X44875040Y-34362540D02*
X44852730Y-34365700D01*
X44852730Y-34365700D02*
X44830640Y-34370110D01*
X44830640Y-34370110D02*
X44808840Y-34375760D01*
X44808840Y-34375760D02*
X44787380Y-34382620D01*
X44787380Y-34382620D02*
X44766350Y-34390690D01*
X44766350Y-34390690D02*
X44745800Y-34399920D01*
X44745800Y-34399920D02*
X44725810Y-34410300D01*
X44725810Y-34410300D02*
X44706430Y-34421790D01*
X44706430Y-34421790D02*
X44687730Y-34434340D01*
X44687730Y-34434340D02*
X44669770Y-34447940D01*
X44669770Y-34447940D02*
X44652600Y-34462520D01*
X44652600Y-34462520D02*
X44636280Y-34478040D01*
X44636280Y-34478040D02*
X44620850Y-34494460D01*
X44620850Y-34494460D02*
X44606380Y-34511720D01*
X44606380Y-34511720D02*
X44592900Y-34529770D01*
X44592900Y-34529770D02*
X44580460Y-34548550D01*
X44580460Y-34548550D02*
X44569090Y-34568000D01*
X44569090Y-34568000D02*
X44558840Y-34588060D01*
X44558840Y-34588060D02*
X44549740Y-34608660D01*
X44549740Y-34608660D02*
X44541800Y-34629740D01*
X44541800Y-34629740D02*
X44535070Y-34651240D01*
X44535070Y-34651240D02*
X44529560Y-34673080D01*
X44529560Y-34673080D02*
X44525280Y-34695200D01*
X44920000Y-34360000D02*
X46520000Y-34360000D01*
X46883200Y-34592400D02*
X46873580Y-34572970D01*
X46873580Y-34572970D02*
X46862930Y-34554080D01*
X46862930Y-34554080D02*
X46851270Y-34535800D01*
X46851270Y-34535800D02*
X46838630Y-34518180D01*
X46838630Y-34518180D02*
X46825060Y-34501270D01*
X46825060Y-34501270D02*
X46810600Y-34485120D01*
X46810600Y-34485120D02*
X46795270Y-34469780D01*
X46795270Y-34469780D02*
X46779140Y-34455290D01*
X46779140Y-34455290D02*
X46762250Y-34441700D01*
X46762250Y-34441700D02*
X46744650Y-34429040D01*
X46744650Y-34429040D02*
X46726380Y-34417350D01*
X46726380Y-34417350D02*
X46707510Y-34406670D01*
X46707510Y-34406670D02*
X46688090Y-34397030D01*
X46688090Y-34397030D02*
X46668180Y-34388450D01*
X46668180Y-34388450D02*
X46647830Y-34380970D01*
X46647830Y-34380970D02*
X46627100Y-34374600D01*
X46627100Y-34374600D02*
X46606060Y-34369360D01*
X46606060Y-34369360D02*
X46584770Y-34365270D01*
X46584770Y-34365270D02*
X46563290Y-34362340D01*
X46563290Y-34362340D02*
X46541670Y-34360580D01*
X46541670Y-34360580D02*
X46520000Y-34360000D01*
X46883200Y-34592400D02*
X52250400Y-46222800D01*
X52250400Y-46222800D02*
X52282570Y-46287350D01*
X52282570Y-46287350D02*
X52318570Y-46349850D01*
X52318570Y-46349850D02*
X52358250Y-46410070D01*
X52358250Y-46410070D02*
X52401480Y-46467800D01*
X52401480Y-46467800D02*
X52448100Y-46522830D01*
X52448100Y-46522830D02*
X52497940Y-46574960D01*
X52497940Y-46574960D02*
X52550820Y-46624010D01*
X52550820Y-46624010D02*
X52606550Y-46669780D01*
X52606550Y-46669780D02*
X52664930Y-46712130D01*
X52664930Y-46712130D02*
X52725750Y-46750890D01*
X52725750Y-46750890D02*
X52788790Y-46785930D01*
X52788790Y-46785930D02*
X52853820Y-46817120D01*
X52853820Y-46817120D02*
X52920610Y-46844340D01*
X52920610Y-46844340D02*
X52988910Y-46867510D01*
X52988910Y-46867510D02*
X53058480Y-46886530D01*
X53058480Y-46886530D02*
X53129070Y-46901330D01*
X53129070Y-46901330D02*
X53200410Y-46911870D01*
X53200410Y-46911870D02*
X53272270Y-46918100D01*
X53272270Y-46918100D02*
X53344360Y-46920010D01*
X53344360Y-46920010D02*
X53416450Y-46917580D01*
X53416450Y-46917580D02*
X53488250Y-46910820D01*
X53488250Y-46910820D02*
X53559520Y-46899770D01*
X53559520Y-46899770D02*
X53630000Y-46884450D01*
X53630000Y-46884450D02*
X53699430Y-46864920D01*
X53699430Y-46864920D02*
X53767560Y-46841260D01*
X53767560Y-46841260D02*
X53834140Y-46813550D01*
X53834140Y-46813550D02*
X53898950Y-46781890D01*
X53898950Y-46781890D02*
X53961730Y-46746400D01*
X53961730Y-46746400D02*
X54022270Y-46707190D01*
X54022270Y-46707190D02*
X54080340Y-46664420D01*
X54080340Y-46664420D02*
X54135740Y-46618240D01*
X54135740Y-46618240D02*
X54188260Y-46568820D01*
X54188260Y-46568820D02*
X54237720Y-46516330D01*
X54237720Y-46516330D02*
X54283940Y-46460960D01*
X54283940Y-46460960D02*
X54326740Y-46402910D01*
X54326740Y-46402910D02*
X54365990Y-46342400D01*
X54365990Y-46342400D02*
X54401530Y-46279640D01*
X54401530Y-46279640D02*
X54433230Y-46214860D01*
X54433230Y-46214860D02*
X54460980Y-46148290D01*
X54461000Y-46148300D02*
X54708000Y-45501800D01*
X54708000Y-45501800D02*
X54272100Y-44964200D01*
X54272100Y-44964200D02*
X54236100Y-44921850D01*
X54236100Y-44921850D02*
X54198180Y-44881200D01*
X54198180Y-44881200D02*
X54158410Y-44842360D01*
X54158410Y-44842360D02*
X54116890Y-44805400D01*
X54116890Y-44805400D02*
X54073700Y-44770410D01*
X54073700Y-44770410D02*
X54028940Y-44737450D01*
X54028940Y-44737450D02*
X53982700Y-44706600D01*
X53982700Y-44706600D02*
X53935080Y-44677920D01*
X53935080Y-44677920D02*
X53886180Y-44651480D01*
X53886180Y-44651480D02*
X53836110Y-44627340D01*
X53836110Y-44627340D02*
X53784980Y-44605530D01*
X53784980Y-44605530D02*
X53732890Y-44586120D01*
X53732900Y-44586100D02*
X52947100Y-44313900D01*
X52282400Y-42613100D02*
X52250500Y-42677140D01*
X52250500Y-42677140D02*
X52222460Y-42742960D01*
X52222460Y-42742960D02*
X52198400Y-42810340D01*
X52198400Y-42810340D02*
X52178400Y-42879030D01*
X52178400Y-42879030D02*
X52162530Y-42948790D01*
X52162530Y-42948790D02*
X52150840Y-43019370D01*
X52150840Y-43019370D02*
X52143390Y-43090520D01*
X52143390Y-43090520D02*
X52140180Y-43162000D01*
X52140180Y-43162000D02*
X52141240Y-43233530D01*
X52141240Y-43233530D02*
X52146560Y-43304880D01*
X52146560Y-43304880D02*
X52156120Y-43375780D01*
X52156120Y-43375780D02*
X52169890Y-43445980D01*
X52169890Y-43445980D02*
X52187830Y-43515240D01*
X52187830Y-43515240D02*
X52209850Y-43583310D01*
X52209850Y-43583310D02*
X52235900Y-43649950D01*
X52235900Y-43649950D02*
X52265870Y-43714910D01*
X52265870Y-43714910D02*
X52299650Y-43777970D01*
X52299650Y-43777970D02*
X52337140Y-43838910D01*
X52337140Y-43838910D02*
X52378190Y-43897510D01*
X52378190Y-43897510D02*
X52422660Y-43953550D01*
X52422660Y-43953550D02*
X52470390Y-44006840D01*
X52470390Y-44006840D02*
X52521210Y-44057200D01*
X52521210Y-44057200D02*
X52574940Y-44104440D01*
X52574940Y-44104440D02*
X52631400Y-44148390D01*
X52631400Y-44148390D02*
X52690370Y-44188900D01*
X52690370Y-44188900D02*
X52751650Y-44225820D01*
X52751650Y-44225820D02*
X52815020Y-44259020D01*
X52815020Y-44259020D02*
X52880260Y-44288390D01*
X52880260Y-44288390D02*
X52947130Y-44313820D01*
X52282400Y-42613100D02*
X53340000Y-40640000D01*
X86360000Y-77470000D02*
X93434700Y-81079000D01*
X93434700Y-81079000D02*
X93491010Y-81105900D01*
X93491010Y-81105900D02*
X93548640Y-81129840D01*
X93548640Y-81129840D02*
X93607430Y-81150750D01*
X93607430Y-81150750D02*
X93667240Y-81168570D01*
X93667240Y-81168570D02*
X93727890Y-81183270D01*
X93727890Y-81183270D02*
X93789220Y-81194780D01*
X93789220Y-81194780D02*
X93851070Y-81203100D01*
X93851070Y-81203100D02*
X93913260Y-81208190D01*
X93913260Y-81208190D02*
X93975640Y-81210040D01*
X93975640Y-81210040D02*
X94038030Y-81208640D01*
X94038030Y-81208640D02*
X94100260Y-81204010D01*
X94100260Y-81204010D02*
X94162160Y-81196140D01*
X94162160Y-81196140D02*
X94223580Y-81185070D01*
X94223580Y-81185070D02*
X94284330Y-81170820D01*
X94284330Y-81170820D02*
X94344260Y-81153430D01*
X94344260Y-81153430D02*
X94403210Y-81132950D01*
X94403210Y-81132950D02*
X94461010Y-81109430D01*
X94461000Y-81109400D02*
X102389000Y-77640600D01*
X102664900Y-77557700D02*
X102624380Y-77565450D01*
X102624380Y-77565450D02*
X102584160Y-77574580D01*
X102584160Y-77574580D02*
X102544270Y-77585100D01*
X102544270Y-77585100D02*
X102504760Y-77596980D01*
X102504760Y-77596980D02*
X102465690Y-77610210D01*
X102465690Y-77610210D02*
X102427100Y-77624770D01*
X102427100Y-77624770D02*
X102389020Y-77640650D01*
X102664900Y-77557700D02*
X110490000Y-76200000D01*
%TO.N,F_D5*%
X45023900Y-51572700D02*
X45789200Y-51496600D01*
X45023900Y-51572700D02*
X45020000Y-50803600D01*
X85504600Y-89578500D02*
X85678100Y-90327800D01*
X85504600Y-89578500D02*
X86266900Y-89476200D01*
X87387000Y-90333800D02*
X86906800Y-89733000D01*
X87387000Y-90333800D02*
X86743800Y-90755400D01*
X103361300Y-87276600D02*
X103548900Y-86530600D01*
X103361300Y-87276600D02*
X102636300Y-87019800D01*
X45720000Y-50800000D02*
X44456900Y-52202200D01*
X44456900Y-52202200D02*
X44403700Y-52264190D01*
X44403700Y-52264190D02*
X44353540Y-52328670D01*
X44353540Y-52328670D02*
X44306530Y-52395480D01*
X44306530Y-52395480D02*
X44262790Y-52464470D01*
X44262790Y-52464470D02*
X44222410Y-52535490D01*
X44222410Y-52535490D02*
X44185490Y-52608360D01*
X44185490Y-52608360D02*
X44152120Y-52682920D01*
X44152120Y-52682920D02*
X44122360Y-52759000D01*
X44122360Y-52759000D02*
X44096300Y-52836420D01*
X44096300Y-52836420D02*
X44073980Y-52915000D01*
X44073980Y-52915000D02*
X44055460Y-52994560D01*
X44055460Y-52994560D02*
X44040790Y-53074930D01*
X44040790Y-53074930D02*
X44029990Y-53155900D01*
X44030000Y-53155900D02*
X43545300Y-57604900D01*
X43502100Y-57901900D02*
X43512430Y-57842760D01*
X43512430Y-57842760D02*
X43521900Y-57783470D01*
X43521900Y-57783470D02*
X43530540Y-57724060D01*
X43530540Y-57724060D02*
X43538320Y-57664530D01*
X43538320Y-57664530D02*
X43545250Y-57604890D01*
X43502100Y-57901900D02*
X43198200Y-59572200D01*
X43198200Y-59572200D02*
X43193530Y-59601320D01*
X43193530Y-59601320D02*
X43190100Y-59630610D01*
X43190100Y-59630610D02*
X43187900Y-59660010D01*
X43187900Y-59660010D02*
X43186940Y-59689490D01*
X43186940Y-59689490D02*
X43187220Y-59718980D01*
X43187220Y-59718980D02*
X43188750Y-59748430D01*
X43188750Y-59748430D02*
X43191510Y-59777790D01*
X43191510Y-59777790D02*
X43195510Y-59807000D01*
X43195510Y-59807000D02*
X43200740Y-59836030D01*
X43200740Y-59836030D02*
X43207180Y-59864800D01*
X43207200Y-59864800D02*
X45637600Y-69739800D01*
X45637600Y-69739800D02*
X45649260Y-69782120D01*
X45649260Y-69782120D02*
X45663220Y-69823740D01*
X45663220Y-69823740D02*
X45679440Y-69864530D01*
X45679440Y-69864530D02*
X45697880Y-69904370D01*
X45697880Y-69904370D02*
X45718470Y-69943140D01*
X45718470Y-69943140D02*
X45741160Y-69980720D01*
X45741160Y-69980720D02*
X45765880Y-70017000D01*
X45765880Y-70017000D02*
X45792550Y-70051870D01*
X45792550Y-70051870D02*
X45821090Y-70085220D01*
X45821090Y-70085220D02*
X45851420Y-70116960D01*
X45851420Y-70116960D02*
X45883450Y-70146990D01*
X45883450Y-70146990D02*
X45917070Y-70175210D01*
X45917070Y-70175210D02*
X45952190Y-70201550D01*
X45952190Y-70201550D02*
X45988700Y-70225920D01*
X45988700Y-70225920D02*
X46026500Y-70248250D01*
X46026500Y-70248250D02*
X46065460Y-70268470D01*
X46065460Y-70268470D02*
X46105480Y-70286530D01*
X46105480Y-70286530D02*
X46146420Y-70302370D01*
X46146420Y-70302370D02*
X46188170Y-70315930D01*
X46188170Y-70315930D02*
X46230600Y-70327180D01*
X46230600Y-70327180D02*
X46273590Y-70336090D01*
X46273590Y-70336090D02*
X46317000Y-70342630D01*
X46317000Y-70342600D02*
X63646100Y-72468900D01*
X64290700Y-72757400D02*
X64244810Y-72719170D01*
X64244810Y-72719170D02*
X64197070Y-72683280D01*
X64197070Y-72683280D02*
X64147610Y-72649800D01*
X64147610Y-72649800D02*
X64096540Y-72618830D01*
X64096540Y-72618830D02*
X64043990Y-72590440D01*
X64043990Y-72590440D02*
X63990090Y-72564690D01*
X63990090Y-72564690D02*
X63934990Y-72541660D01*
X63934990Y-72541660D02*
X63878800Y-72521400D01*
X63878800Y-72521400D02*
X63821670Y-72503960D01*
X63821670Y-72503960D02*
X63763750Y-72489390D01*
X63763750Y-72489390D02*
X63705180Y-72477720D01*
X63705180Y-72477720D02*
X63646090Y-72468970D01*
X64290700Y-72757400D02*
X77949300Y-84722600D01*
X77949300Y-84722600D02*
X77988710Y-84755660D01*
X77988710Y-84755660D02*
X78029500Y-84787000D01*
X78029500Y-84787000D02*
X78071600Y-84816560D01*
X78071600Y-84816560D02*
X78114930Y-84844290D01*
X78114930Y-84844290D02*
X78159400Y-84870140D01*
X78159400Y-84870140D02*
X78204950Y-84894060D01*
X78204950Y-84894060D02*
X78251470Y-84916010D01*
X78251470Y-84916010D02*
X78298890Y-84935940D01*
X78298890Y-84935940D02*
X78347130Y-84953820D01*
X78347100Y-84953900D02*
X79132900Y-85226100D01*
X79422500Y-85373000D02*
X79388630Y-85350420D01*
X79388630Y-85350420D02*
X79354000Y-85328990D01*
X79354000Y-85328990D02*
X79318680Y-85308760D01*
X79318680Y-85308760D02*
X79282680Y-85289730D01*
X79282680Y-85289730D02*
X79246060Y-85271940D01*
X79246060Y-85271940D02*
X79208860Y-85255400D01*
X79208860Y-85255400D02*
X79171120Y-85240130D01*
X79171120Y-85240130D02*
X79132880Y-85226150D01*
X79422500Y-85373000D02*
X86360000Y-90170000D01*
X86360000Y-90170000D02*
X93791000Y-91355000D01*
X93791000Y-91355000D02*
X93795820Y-91355760D01*
X93795820Y-91355760D02*
X93800640Y-91356500D01*
X93800640Y-91356500D02*
X93805470Y-91357220D01*
X93805470Y-91357220D02*
X93810300Y-91357920D01*
X93810300Y-91357900D02*
X102700300Y-92627900D01*
X102700300Y-92627900D02*
X102770710Y-92635850D01*
X102770710Y-92635850D02*
X102841470Y-92639620D01*
X102841470Y-92639620D02*
X102912320Y-92639210D01*
X102912320Y-92639210D02*
X102983030Y-92634620D01*
X102983030Y-92634620D02*
X103053350Y-92625870D01*
X103053350Y-92625870D02*
X103123020Y-92612980D01*
X103123020Y-92612980D02*
X103191810Y-92596000D01*
X103191810Y-92596000D02*
X103259490Y-92574990D01*
X103259490Y-92574990D02*
X103325800Y-92550020D01*
X103325800Y-92550020D02*
X103390520Y-92521190D01*
X103390520Y-92521190D02*
X103453430Y-92488580D01*
X103453430Y-92488580D02*
X103514300Y-92452310D01*
X103514300Y-92452310D02*
X103572930Y-92412520D01*
X103572930Y-92412520D02*
X103629110Y-92369330D01*
X103629110Y-92369330D02*
X103682640Y-92322910D01*
X103682640Y-92322910D02*
X103733330Y-92273400D01*
X103733330Y-92273400D02*
X103781020Y-92220990D01*
X103781020Y-92220990D02*
X103825530Y-92165860D01*
X103825530Y-92165860D02*
X103866710Y-92108190D01*
X103866710Y-92108190D02*
X103904410Y-92048200D01*
X103904410Y-92048200D02*
X103938500Y-91986080D01*
X103938500Y-91986080D02*
X103968870Y-91922060D01*
X103968870Y-91922060D02*
X103995410Y-91856360D01*
X103995410Y-91856360D02*
X104018020Y-91789210D01*
X104018020Y-91789210D02*
X104036630Y-91720840D01*
X104036630Y-91720840D02*
X104051180Y-91651490D01*
X104051180Y-91651490D02*
X104061600Y-91581410D01*
X104061600Y-91581410D02*
X104067870Y-91510830D01*
X104067870Y-91510830D02*
X104069960Y-91440000D01*
X104070000Y-91440000D02*
X104070000Y-88900000D01*
X104070000Y-88900000D02*
X104068800Y-88846340D01*
X104068800Y-88846340D02*
X104065200Y-88792790D01*
X104065200Y-88792790D02*
X104059210Y-88739450D01*
X104059210Y-88739450D02*
X104050840Y-88686430D01*
X104050840Y-88686430D02*
X104040110Y-88633840D01*
X104040110Y-88633840D02*
X104027040Y-88581780D01*
X104027040Y-88581780D02*
X104011650Y-88530360D01*
X104011650Y-88530360D02*
X103993980Y-88479680D01*
X103993980Y-88479680D02*
X103974060Y-88429840D01*
X103974060Y-88429840D02*
X103951930Y-88380940D01*
X103951930Y-88380940D02*
X103927640Y-88333080D01*
X103927600Y-88333100D02*
X102870000Y-86360000D01*
%TO.N,F_D3*%
X54011400Y-56674200D02*
X54039500Y-55905600D01*
X54011400Y-56674200D02*
X53248900Y-56574000D01*
X85504600Y-84498500D02*
X85678100Y-85247800D01*
X85504600Y-84498500D02*
X86266900Y-84396200D01*
X87387000Y-85253800D02*
X86906800Y-84653000D01*
X87387000Y-85253800D02*
X86743800Y-85675400D01*
X110981300Y-90523400D02*
X110256300Y-90780200D01*
X110981300Y-90523400D02*
X111168900Y-91269400D01*
X53340000Y-55880000D02*
X62583600Y-66814700D01*
X62583600Y-66814700D02*
X62619070Y-66854810D01*
X62619070Y-66854810D02*
X62656290Y-66893290D01*
X62656290Y-66893290D02*
X62695190Y-66930070D01*
X62695190Y-66930070D02*
X62735690Y-66965090D01*
X62735690Y-66965090D02*
X62777720Y-66998260D01*
X62777720Y-66998260D02*
X62821180Y-67029520D01*
X62821180Y-67029520D02*
X62865990Y-67058810D01*
X62865990Y-67058810D02*
X62912070Y-67086080D01*
X62912070Y-67086080D02*
X62959310Y-67111260D01*
X62959310Y-67111260D02*
X63007630Y-67134310D01*
X63007630Y-67134310D02*
X63056940Y-67155190D01*
X63056940Y-67155190D02*
X63107120Y-67173840D01*
X63107100Y-67173900D02*
X63892900Y-67446100D01*
X64290700Y-67677400D02*
X64251290Y-67644340D01*
X64251290Y-67644340D02*
X64210500Y-67613000D01*
X64210500Y-67613000D02*
X64168400Y-67583440D01*
X64168400Y-67583440D02*
X64125070Y-67555710D01*
X64125070Y-67555710D02*
X64080600Y-67529860D01*
X64080600Y-67529860D02*
X64035050Y-67505940D01*
X64035050Y-67505940D02*
X63988530Y-67483990D01*
X63988530Y-67483990D02*
X63941110Y-67464060D01*
X63941110Y-67464060D02*
X63892870Y-67446180D01*
X64290700Y-67677400D02*
X77949300Y-79642600D01*
X77949300Y-79642600D02*
X77988710Y-79675660D01*
X77988710Y-79675660D02*
X78029500Y-79707000D01*
X78029500Y-79707000D02*
X78071600Y-79736560D01*
X78071600Y-79736560D02*
X78114930Y-79764290D01*
X78114930Y-79764290D02*
X78159400Y-79790140D01*
X78159400Y-79790140D02*
X78204950Y-79814060D01*
X78204950Y-79814060D02*
X78251470Y-79836010D01*
X78251470Y-79836010D02*
X78298890Y-79855940D01*
X78298890Y-79855940D02*
X78347130Y-79873820D01*
X78347100Y-79873900D02*
X79132900Y-80146100D01*
X79422500Y-80293000D02*
X79388630Y-80270420D01*
X79388630Y-80270420D02*
X79354000Y-80248990D01*
X79354000Y-80248990D02*
X79318680Y-80228760D01*
X79318680Y-80228760D02*
X79282680Y-80209730D01*
X79282680Y-80209730D02*
X79246060Y-80191940D01*
X79246060Y-80191940D02*
X79208860Y-80175400D01*
X79208860Y-80175400D02*
X79171120Y-80160130D01*
X79171120Y-80160130D02*
X79132880Y-80146150D01*
X79422500Y-80293000D02*
X86360000Y-85090000D01*
X86360000Y-85090000D02*
X93791000Y-86275000D01*
X93791000Y-86275000D02*
X93833590Y-86281010D01*
X93833590Y-86281010D02*
X93876370Y-86285490D01*
X93876370Y-86285490D02*
X93919280Y-86288440D01*
X93919280Y-86288440D02*
X93962270Y-86289850D01*
X93962270Y-86289850D02*
X94005280Y-86289710D01*
X94005280Y-86289710D02*
X94048260Y-86288030D01*
X94048260Y-86288030D02*
X94091150Y-86284820D01*
X94091150Y-86284820D02*
X94133900Y-86280070D01*
X94133900Y-86280100D02*
X102716100Y-85169900D01*
X103249500Y-85221600D02*
X103197860Y-85205670D01*
X103197860Y-85205670D02*
X103145560Y-85192080D01*
X103145560Y-85192080D02*
X103092690Y-85180860D01*
X103092690Y-85180860D02*
X103039380Y-85172020D01*
X103039380Y-85172020D02*
X102985720Y-85165600D01*
X102985720Y-85165600D02*
X102931830Y-85161600D01*
X102931830Y-85161600D02*
X102877810Y-85160040D01*
X102877810Y-85160040D02*
X102823780Y-85160900D01*
X102823780Y-85160900D02*
X102769840Y-85164200D01*
X102769840Y-85164200D02*
X102716100Y-85169920D01*
X103249500Y-85221600D02*
X110869500Y-87761600D01*
X111547600Y-89466900D02*
X111578700Y-89404600D01*
X111578700Y-89404600D02*
X111606140Y-89340600D01*
X111606140Y-89340600D02*
X111629810Y-89275120D01*
X111629810Y-89275120D02*
X111649650Y-89208380D01*
X111649650Y-89208380D02*
X111665590Y-89140600D01*
X111665590Y-89140600D02*
X111677560Y-89072000D01*
X111677560Y-89072000D02*
X111685540Y-89002830D01*
X111685540Y-89002830D02*
X111689490Y-88933310D01*
X111689490Y-88933310D02*
X111689410Y-88863680D01*
X111689410Y-88863680D02*
X111685280Y-88794170D01*
X111685280Y-88794170D02*
X111677130Y-88725020D01*
X111677130Y-88725020D02*
X111664980Y-88656460D01*
X111664980Y-88656460D02*
X111648880Y-88588720D01*
X111648880Y-88588720D02*
X111628870Y-88522020D01*
X111628870Y-88522020D02*
X111605030Y-88456600D01*
X111605030Y-88456600D02*
X111577430Y-88392670D01*
X111577430Y-88392670D02*
X111546180Y-88330450D01*
X111546180Y-88330450D02*
X111511360Y-88270150D01*
X111511360Y-88270150D02*
X111473110Y-88211970D01*
X111473110Y-88211970D02*
X111431550Y-88156100D01*
X111431550Y-88156100D02*
X111386810Y-88102740D01*
X111386810Y-88102740D02*
X111339060Y-88052070D01*
X111339060Y-88052070D02*
X111288450Y-88004250D01*
X111288450Y-88004250D02*
X111235150Y-87959440D01*
X111235150Y-87959440D02*
X111179340Y-87917800D01*
X111179340Y-87917800D02*
X111121210Y-87879470D01*
X111121210Y-87879470D02*
X111060950Y-87844580D01*
X111060950Y-87844580D02*
X110998770Y-87813240D01*
X110998770Y-87813240D02*
X110934880Y-87785560D01*
X110934880Y-87785560D02*
X110869490Y-87761630D01*
X111547600Y-89466900D02*
X110490000Y-91440000D01*
%TO.N,F_D6*%
X45228700Y-46636600D02*
X45953700Y-46379800D01*
X45228700Y-46636600D02*
X45041100Y-45890600D01*
X85504600Y-92118500D02*
X85678100Y-92867800D01*
X85504600Y-92118500D02*
X86266900Y-92016200D01*
X45720000Y-45720000D02*
X44662400Y-47693100D01*
X44662400Y-47693100D02*
X44642290Y-47732330D01*
X44642290Y-47732330D02*
X44623640Y-47772270D01*
X44623640Y-47772270D02*
X44606460Y-47812870D01*
X44606460Y-47812870D02*
X44590790Y-47854080D01*
X44590790Y-47854080D02*
X44576640Y-47895830D01*
X44576640Y-47895830D02*
X44564030Y-47938070D01*
X44564030Y-47938070D02*
X44552990Y-47980750D01*
X44552990Y-47980750D02*
X44543520Y-48023800D01*
X44543500Y-48023800D02*
X43563000Y-52906900D01*
X43563000Y-52906900D02*
X43555580Y-52945630D01*
X43555580Y-52945630D02*
X43548860Y-52984490D01*
X43548860Y-52984490D02*
X43542840Y-53023460D01*
X43542840Y-53023460D02*
X43537520Y-53062540D01*
X43537520Y-53062540D02*
X43532890Y-53101700D01*
X43532900Y-53101700D02*
X43048200Y-57550700D01*
X43010200Y-57812400D02*
X43019300Y-57760290D01*
X43019300Y-57760290D02*
X43027650Y-57708050D01*
X43027650Y-57708050D02*
X43035260Y-57655700D01*
X43035260Y-57655700D02*
X43042110Y-57603250D01*
X43042110Y-57603250D02*
X43048220Y-57550700D01*
X43010200Y-57812400D02*
X42706300Y-59482700D01*
X42706300Y-59482700D02*
X42698300Y-59532620D01*
X42698300Y-59532620D02*
X42692410Y-59582820D01*
X42692410Y-59582820D02*
X42688640Y-59633240D01*
X42688640Y-59633240D02*
X42687000Y-59683760D01*
X42687000Y-59683760D02*
X42687480Y-59734310D01*
X42687480Y-59734310D02*
X42690100Y-59784800D01*
X42690100Y-59784800D02*
X42694840Y-59835130D01*
X42694840Y-59835130D02*
X42701690Y-59885220D01*
X42701690Y-59885220D02*
X42710650Y-59934970D01*
X42710650Y-59934970D02*
X42721700Y-59984300D01*
X42721700Y-59984300D02*
X45152100Y-69859300D01*
X45152100Y-69859300D02*
X45170170Y-69925190D01*
X45170170Y-69925190D02*
X45191670Y-69990050D01*
X45191670Y-69990050D02*
X45216560Y-70053680D01*
X45216560Y-70053680D02*
X45244750Y-70115920D01*
X45244750Y-70115920D02*
X45276170Y-70176590D01*
X45276170Y-70176590D02*
X45310740Y-70235520D01*
X45310740Y-70235520D02*
X45348350Y-70292560D01*
X45348350Y-70292560D02*
X45388910Y-70347540D01*
X45388910Y-70347540D02*
X45432310Y-70400320D01*
X45432310Y-70400320D02*
X45478410Y-70450740D01*
X45478410Y-70450740D02*
X45527100Y-70498680D01*
X45527100Y-70498680D02*
X45578250Y-70543980D01*
X45578250Y-70543980D02*
X45631700Y-70586540D01*
X45631700Y-70586540D02*
X45687320Y-70626230D01*
X45687320Y-70626230D02*
X45744940Y-70662940D01*
X45744940Y-70662940D02*
X45804410Y-70696580D01*
X45804400Y-70696600D02*
X62936900Y-79799700D01*
X62936900Y-79799700D02*
X62964440Y-79813880D01*
X62964440Y-79813880D02*
X62992330Y-79827350D01*
X62992330Y-79827350D02*
X63020570Y-79840090D01*
X63020570Y-79840090D02*
X63049120Y-79852090D01*
X63049120Y-79852090D02*
X63077970Y-79863360D01*
X63077970Y-79863360D02*
X63107110Y-79873880D01*
X63107100Y-79873900D02*
X63892900Y-80146100D01*
X64045300Y-80211000D02*
X64020550Y-80198730D01*
X64020550Y-80198730D02*
X63995520Y-80187030D01*
X63995520Y-80187030D02*
X63970220Y-80175910D01*
X63970220Y-80175910D02*
X63944680Y-80165380D01*
X63944680Y-80165380D02*
X63918900Y-80155440D01*
X63918900Y-80155440D02*
X63892900Y-80146090D01*
X64045300Y-80211000D02*
X78194700Y-87429000D01*
X78194700Y-87429000D02*
X78219450Y-87441270D01*
X78219450Y-87441270D02*
X78244480Y-87452970D01*
X78244480Y-87452970D02*
X78269780Y-87464090D01*
X78269780Y-87464090D02*
X78295320Y-87474620D01*
X78295320Y-87474620D02*
X78321100Y-87484560D01*
X78321100Y-87484560D02*
X78347100Y-87493910D01*
X78347100Y-87493900D02*
X79132900Y-87766100D01*
X79422500Y-87913000D02*
X79388630Y-87890420D01*
X79388630Y-87890420D02*
X79354000Y-87868990D01*
X79354000Y-87868990D02*
X79318680Y-87848760D01*
X79318680Y-87848760D02*
X79282680Y-87829730D01*
X79282680Y-87829730D02*
X79246060Y-87811940D01*
X79246060Y-87811940D02*
X79208860Y-87795400D01*
X79208860Y-87795400D02*
X79171120Y-87780130D01*
X79171120Y-87780130D02*
X79132880Y-87766150D01*
X79422500Y-87913000D02*
X86360000Y-92710000D01*
%TO.N,F_D1*%
X103361300Y-40993400D02*
X102636300Y-41250200D01*
X103361300Y-40993400D02*
X103548900Y-41739400D01*
X23076400Y-70321100D02*
X22320200Y-70552900D01*
X23076400Y-70321100D02*
X23267800Y-71088500D01*
X52643900Y-44947300D02*
X52640000Y-45716400D01*
X52643900Y-44947300D02*
X53409200Y-45023400D01*
X102870000Y-41910000D02*
X103927600Y-39936900D01*
X103927600Y-39936900D02*
X103951890Y-39889040D01*
X103951890Y-39889040D02*
X103974020Y-39840140D01*
X103974020Y-39840140D02*
X103993940Y-39790300D01*
X103993940Y-39790300D02*
X104011610Y-39739620D01*
X104011610Y-39739620D02*
X104027000Y-39688200D01*
X104027000Y-39688200D02*
X104040070Y-39636150D01*
X104040070Y-39636150D02*
X104050800Y-39583560D01*
X104050800Y-39583560D02*
X104059170Y-39530550D01*
X104059170Y-39530550D02*
X104065160Y-39477210D01*
X104065160Y-39477210D02*
X104068760Y-39423660D01*
X104068760Y-39423660D02*
X104069960Y-39370000D01*
X104070000Y-39370000D02*
X104070000Y-34290000D01*
X104070000Y-34290000D02*
X104067780Y-34217070D01*
X104067780Y-34217070D02*
X104061130Y-34144410D01*
X104061130Y-34144410D02*
X104050080Y-34072280D01*
X104050080Y-34072280D02*
X104034670Y-34000960D01*
X104034670Y-34000960D02*
X104014950Y-33930710D01*
X104014950Y-33930710D02*
X103991000Y-33861790D01*
X103991000Y-33861790D02*
X103962900Y-33794450D01*
X103962900Y-33794450D02*
X103930760Y-33728940D01*
X103930760Y-33728940D02*
X103894700Y-33665510D01*
X103894700Y-33665510D02*
X103854850Y-33604390D01*
X103854850Y-33604390D02*
X103811360Y-33545800D01*
X103811360Y-33545800D02*
X103764390Y-33489960D01*
X103764390Y-33489960D02*
X103714120Y-33437080D01*
X103714120Y-33437080D02*
X103660720Y-33387360D01*
X103660720Y-33387360D02*
X103604400Y-33340970D01*
X103604400Y-33340970D02*
X103545360Y-33298090D01*
X103545360Y-33298090D02*
X103483830Y-33258880D01*
X103483830Y-33258880D02*
X103420020Y-33223480D01*
X103420020Y-33223480D02*
X103354190Y-33192020D01*
X103354190Y-33192020D02*
X103286560Y-33164620D01*
X103286560Y-33164620D02*
X103217390Y-33141380D01*
X103217390Y-33141380D02*
X103146940Y-33122390D01*
X103146940Y-33122390D02*
X103075470Y-33107720D01*
X103075470Y-33107720D02*
X103003230Y-33097420D01*
X103003230Y-33097420D02*
X102930510Y-33091530D01*
X102930510Y-33091530D02*
X102857550Y-33090060D01*
X102857550Y-33090060D02*
X102784650Y-33093040D01*
X102784650Y-33093040D02*
X102712060Y-33100440D01*
X102712060Y-33100440D02*
X102640050Y-33112240D01*
X102640050Y-33112240D02*
X102568900Y-33128390D01*
X102568900Y-33128390D02*
X102498860Y-33148840D01*
X102498860Y-33148840D02*
X102430190Y-33173500D01*
X102430190Y-33173500D02*
X102363140Y-33202300D01*
X102363140Y-33202300D02*
X102297970Y-33235110D01*
X102297970Y-33235110D02*
X102234920Y-33271830D01*
X102234920Y-33271830D02*
X102174210Y-33312310D01*
X102174210Y-33312310D02*
X102116080Y-33356410D01*
X102116080Y-33356410D02*
X102060730Y-33403950D01*
X102060730Y-33403950D02*
X102008370Y-33454770D01*
X102008400Y-33454800D02*
X95785200Y-39874400D01*
X94947200Y-40290000D02*
X95014610Y-40280220D01*
X95014610Y-40280220D02*
X95081470Y-40267180D01*
X95081470Y-40267180D02*
X95147610Y-40250890D01*
X95147610Y-40250890D02*
X95212890Y-40231410D01*
X95212890Y-40231410D02*
X95277140Y-40208780D01*
X95277140Y-40208780D02*
X95340210Y-40183050D01*
X95340210Y-40183050D02*
X95401960Y-40154280D01*
X95401960Y-40154280D02*
X95462230Y-40122550D01*
X95462230Y-40122550D02*
X95520890Y-40087920D01*
X95520890Y-40087920D02*
X95577790Y-40050470D01*
X95577790Y-40050470D02*
X95632810Y-40010300D01*
X95632810Y-40010300D02*
X95685800Y-39967510D01*
X95685800Y-39967510D02*
X95736660Y-39922190D01*
X95736660Y-39922190D02*
X95785240Y-39874440D01*
X94947200Y-40290000D02*
X86742200Y-41277100D01*
X86360000Y-41300000D02*
X86436620Y-41299080D01*
X86436620Y-41299080D02*
X86513190Y-41296330D01*
X86513190Y-41296330D02*
X86589670Y-41291750D01*
X86589670Y-41291750D02*
X86666020Y-41285330D01*
X86666020Y-41285330D02*
X86742200Y-41277090D01*
X86360000Y-41300000D02*
X66040000Y-41300000D01*
X65564200Y-41264400D02*
X65643050Y-41275250D01*
X65643050Y-41275250D02*
X65722140Y-41284150D01*
X65722140Y-41284150D02*
X65801440Y-41291070D01*
X65801440Y-41291070D02*
X65880880Y-41296010D01*
X65880880Y-41296010D02*
X65960410Y-41298980D01*
X65960410Y-41298980D02*
X66040000Y-41299970D01*
X65564200Y-41264400D02*
X53518400Y-39453300D01*
X53518400Y-39453300D02*
X53467500Y-39446760D01*
X53467500Y-39446760D02*
X53416370Y-39442400D01*
X53416370Y-39442400D02*
X53365100Y-39440230D01*
X53365100Y-39440230D02*
X53313780Y-39440250D01*
X53313780Y-39440250D02*
X53262510Y-39442470D01*
X53262510Y-39442470D02*
X53211390Y-39446880D01*
X53211390Y-39446880D02*
X53160490Y-39453470D01*
X53160490Y-39453470D02*
X53109930Y-39462230D01*
X53109930Y-39462230D02*
X53059790Y-39473140D01*
X53059800Y-39473200D02*
X52386300Y-39634900D01*
X22540000Y-71270000D02*
X23628200Y-69345200D01*
X23628200Y-69345200D02*
X23650460Y-69304060D01*
X23650460Y-69304060D02*
X23671160Y-69262110D01*
X23671160Y-69262110D02*
X23690270Y-69219410D01*
X23690270Y-69219410D02*
X23707780Y-69176030D01*
X23707780Y-69176030D02*
X23723650Y-69132030D01*
X23723650Y-69132030D02*
X23737860Y-69087460D01*
X23737860Y-69087460D02*
X23750400Y-69042400D01*
X23750400Y-69042400D02*
X23761240Y-68996890D01*
X23761240Y-68996890D02*
X23770370Y-68951010D01*
X23770300Y-68951000D02*
X23849700Y-68509000D01*
X24859000Y-67499700D02*
X24791410Y-67513780D01*
X24791410Y-67513780D02*
X24724700Y-67531570D01*
X24724700Y-67531570D02*
X24659070Y-67553010D01*
X24659070Y-67553010D02*
X24594720Y-67578050D01*
X24594720Y-67578050D02*
X24531860Y-67606600D01*
X24531860Y-67606600D02*
X24470670Y-67638580D01*
X24470670Y-67638580D02*
X24411340Y-67673890D01*
X24411340Y-67673890D02*
X24354040Y-67712420D01*
X24354040Y-67712420D02*
X24298970Y-67754060D01*
X24298970Y-67754060D02*
X24246270Y-67798670D01*
X24246270Y-67798670D02*
X24196120Y-67846120D01*
X24196120Y-67846120D02*
X24148670Y-67896270D01*
X24148670Y-67896270D02*
X24104060Y-67948970D01*
X24104060Y-67948970D02*
X24062420Y-68004040D01*
X24062420Y-68004040D02*
X24023890Y-68061340D01*
X24023890Y-68061340D02*
X23988580Y-68120670D01*
X23988580Y-68120670D02*
X23956600Y-68181860D01*
X23956600Y-68181860D02*
X23928050Y-68244720D01*
X23928050Y-68244720D02*
X23903010Y-68309070D01*
X23903010Y-68309070D02*
X23881570Y-68374700D01*
X23881570Y-68374700D02*
X23863780Y-68441410D01*
X23863780Y-68441410D02*
X23849700Y-68509000D01*
X24859000Y-67499700D02*
X25301000Y-67420300D01*
X25301000Y-67420300D02*
X25366850Y-67406630D01*
X25366850Y-67406630D02*
X25431870Y-67389440D01*
X25431870Y-67389440D02*
X25495870Y-67368780D01*
X25495870Y-67368780D02*
X25558670Y-67344710D01*
X25558670Y-67344710D02*
X25620080Y-67317290D01*
X25620080Y-67317290D02*
X25679930Y-67286610D01*
X25679930Y-67286610D02*
X25738040Y-67252760D01*
X25738040Y-67252760D02*
X25794250Y-67215830D01*
X25794250Y-67215830D02*
X25848390Y-67175930D01*
X25848390Y-67175930D02*
X25900300Y-67133180D01*
X25900300Y-67133180D02*
X25949840Y-67087690D01*
X25949840Y-67087690D02*
X25996860Y-67039610D01*
X25996860Y-67039610D02*
X26041230Y-66989070D01*
X26041230Y-66989070D02*
X26082820Y-66936210D01*
X26082820Y-66936210D02*
X26121500Y-66881200D01*
X26121500Y-66881200D02*
X26157170Y-66824180D01*
X26157200Y-66824200D02*
X30715900Y-59081200D01*
X31728000Y-58490200D02*
X31663630Y-58493110D01*
X31663630Y-58493110D02*
X31599510Y-58499470D01*
X31599510Y-58499470D02*
X31535820Y-58509270D01*
X31535820Y-58509270D02*
X31472750Y-58522470D01*
X31472750Y-58522470D02*
X31410480Y-58539030D01*
X31410480Y-58539030D02*
X31349180Y-58558920D01*
X31349180Y-58558920D02*
X31289050Y-58582060D01*
X31289050Y-58582060D02*
X31230240Y-58608400D01*
X31230240Y-58608400D02*
X31172930Y-58637860D01*
X31172930Y-58637860D02*
X31117290Y-58670350D01*
X31117290Y-58670350D02*
X31063470Y-58705790D01*
X31063470Y-58705790D02*
X31011620Y-58744060D01*
X31011620Y-58744060D02*
X30961910Y-58785060D01*
X30961910Y-58785060D02*
X30914470Y-58828660D01*
X30914470Y-58828660D02*
X30869440Y-58874760D01*
X30869440Y-58874760D02*
X30826950Y-58923200D01*
X30826950Y-58923200D02*
X30787120Y-58973850D01*
X30787120Y-58973850D02*
X30750070Y-59026570D01*
X30750070Y-59026570D02*
X30715900Y-59081200D01*
X31728000Y-58490200D02*
X39392000Y-58349800D01*
X39392000Y-58349800D02*
X39461220Y-58346530D01*
X39461220Y-58346530D02*
X39530140Y-58339270D01*
X39530140Y-58339270D02*
X39598520Y-58328040D01*
X39598520Y-58328040D02*
X39666140Y-58312890D01*
X39666140Y-58312890D02*
X39732770Y-58293850D01*
X39732770Y-58293850D02*
X39798200Y-58271000D01*
X39798200Y-58271000D02*
X39862190Y-58244420D01*
X39862190Y-58244420D02*
X39924550Y-58214180D01*
X39924550Y-58214180D02*
X39985050Y-58180400D01*
X39985050Y-58180400D02*
X40043500Y-58143170D01*
X40043500Y-58143170D02*
X40099710Y-58102640D01*
X40099710Y-58102640D02*
X40153490Y-58058930D01*
X40153490Y-58058930D02*
X40204650Y-58012190D01*
X40204650Y-58012190D02*
X40253020Y-57962570D01*
X40253020Y-57962570D02*
X40298460Y-57910240D01*
X40298460Y-57910240D02*
X40340790Y-57855380D01*
X40340790Y-57855380D02*
X40379890Y-57798170D01*
X40379890Y-57798170D02*
X40415620Y-57738790D01*
X40415620Y-57738790D02*
X40447870Y-57677450D01*
X40447870Y-57677450D02*
X40476520Y-57614350D01*
X40476520Y-57614350D02*
X40501480Y-57549710D01*
X40501480Y-57549710D02*
X40522660Y-57483720D01*
X40522660Y-57483720D02*
X40540000Y-57416630D01*
X40540000Y-57416630D02*
X40553450Y-57348650D01*
X40553450Y-57348650D02*
X40562940Y-57280000D01*
X40562900Y-57280000D02*
X41047600Y-52831000D01*
X41082100Y-52578400D02*
X41072200Y-52641370D01*
X41072200Y-52641370D02*
X41063150Y-52704470D01*
X41063150Y-52704470D02*
X41054960Y-52767680D01*
X41054960Y-52767680D02*
X41047630Y-52831000D01*
X41082100Y-52578400D02*
X44031900Y-34614200D01*
X44920000Y-33860000D02*
X44869340Y-33861430D01*
X44869340Y-33861430D02*
X44818830Y-33865700D01*
X44818830Y-33865700D02*
X44768650Y-33872820D01*
X44768650Y-33872820D02*
X44718950Y-33882740D01*
X44718950Y-33882740D02*
X44669880Y-33895450D01*
X44669880Y-33895450D02*
X44621610Y-33910900D01*
X44621610Y-33910900D02*
X44574290Y-33929050D01*
X44574290Y-33929050D02*
X44528060Y-33949830D01*
X44528060Y-33949830D02*
X44483070Y-33973180D01*
X44483070Y-33973180D02*
X44439470Y-33999020D01*
X44439470Y-33999020D02*
X44397400Y-34027280D01*
X44397400Y-34027280D02*
X44356980Y-34057860D01*
X44356980Y-34057860D02*
X44318340Y-34090670D01*
X44318340Y-34090670D02*
X44281620Y-34125600D01*
X44281620Y-34125600D02*
X44246920Y-34162540D01*
X44246920Y-34162540D02*
X44214350Y-34201380D01*
X44214350Y-34201380D02*
X44184020Y-34241980D01*
X44184020Y-34241980D02*
X44156030Y-34284240D01*
X44156030Y-34284240D02*
X44130460Y-34328000D01*
X44130460Y-34328000D02*
X44107390Y-34373130D01*
X44107390Y-34373130D02*
X44086900Y-34419490D01*
X44086900Y-34419490D02*
X44069060Y-34466920D01*
X44069060Y-34466920D02*
X44053910Y-34515290D01*
X44053910Y-34515290D02*
X44041500Y-34564430D01*
X44041500Y-34564430D02*
X44031890Y-34614200D01*
X44920000Y-33860000D02*
X46520000Y-33860000D01*
X47172900Y-34140500D02*
X47140650Y-34108190D01*
X47140650Y-34108190D02*
X47106800Y-34077560D01*
X47106800Y-34077560D02*
X47071440Y-34048680D01*
X47071440Y-34048680D02*
X47034660Y-34021640D01*
X47034660Y-34021640D02*
X46996560Y-33996490D01*
X46996560Y-33996490D02*
X46957230Y-33973310D01*
X46957230Y-33973310D02*
X46916780Y-33952150D01*
X46916780Y-33952150D02*
X46875310Y-33933070D01*
X46875310Y-33933070D02*
X46832920Y-33916120D01*
X46832920Y-33916120D02*
X46789730Y-33901340D01*
X46789730Y-33901340D02*
X46745840Y-33888760D01*
X46745840Y-33888760D02*
X46701380Y-33878430D01*
X46701380Y-33878430D02*
X46656440Y-33870370D01*
X46656440Y-33870370D02*
X46611160Y-33864600D01*
X46611160Y-33864600D02*
X46565640Y-33861130D01*
X46565640Y-33861130D02*
X46520000Y-33859970D01*
X47172900Y-34140500D02*
X52386300Y-39634900D01*
X53340000Y-45720000D02*
X52076900Y-44317800D01*
X51673300Y-42845400D02*
X51657480Y-42937170D01*
X51657480Y-42937170D02*
X51646710Y-43029670D01*
X51646710Y-43029670D02*
X51641010Y-43122620D01*
X51641010Y-43122620D02*
X51640420Y-43215740D01*
X51640420Y-43215740D02*
X51644930Y-43308750D01*
X51644930Y-43308750D02*
X51654520Y-43401380D01*
X51654520Y-43401380D02*
X51669170Y-43493350D01*
X51669170Y-43493350D02*
X51688840Y-43584370D01*
X51688840Y-43584370D02*
X51713460Y-43674180D01*
X51713460Y-43674180D02*
X51742960Y-43762510D01*
X51742960Y-43762510D02*
X51777260Y-43849090D01*
X51777260Y-43849090D02*
X51816240Y-43933660D01*
X51816240Y-43933660D02*
X51859800Y-44015970D01*
X51859800Y-44015970D02*
X51907790Y-44095770D01*
X51907790Y-44095770D02*
X51960090Y-44172820D01*
X51960090Y-44172820D02*
X52016530Y-44246900D01*
X52016530Y-44246900D02*
X52076940Y-44317770D01*
X51673300Y-42845400D02*
X52163500Y-40403800D01*
X52189500Y-40299000D02*
X52183550Y-40319770D01*
X52183550Y-40319770D02*
X52177970Y-40340640D01*
X52177970Y-40340640D02*
X52172770Y-40361600D01*
X52172770Y-40361600D02*
X52167950Y-40382660D01*
X52167950Y-40382660D02*
X52163500Y-40403800D01*
X52189500Y-40299000D02*
X52386300Y-39634900D01*
%TO.N,F_D7*%
X85504600Y-94658500D02*
X85678100Y-95407800D01*
X85504600Y-94658500D02*
X86266900Y-94556200D01*
X45228700Y-41556600D02*
X45953700Y-41299800D01*
X45228700Y-41556600D02*
X45041100Y-40810600D01*
X22003600Y-69678900D02*
X22759800Y-69447100D01*
X22003600Y-69678900D02*
X21812200Y-68911500D01*
X38715500Y-76248500D02*
X39408300Y-76270600D01*
X39542900Y-76282500D02*
X39516100Y-76278910D01*
X39516100Y-76278910D02*
X39489230Y-76275920D01*
X39489230Y-76275920D02*
X39462290Y-76273530D01*
X39462290Y-76273530D02*
X39435310Y-76271760D01*
X39435310Y-76271760D02*
X39408300Y-76270590D01*
X39542900Y-76282500D02*
X48605700Y-77602000D01*
X49328700Y-78010100D02*
X49291700Y-77967240D01*
X49291700Y-77967240D02*
X49252630Y-77926260D01*
X49252630Y-77926260D02*
X49211590Y-77887250D01*
X49211590Y-77887250D02*
X49168680Y-77850300D01*
X49168680Y-77850300D02*
X49124010Y-77815510D01*
X49124010Y-77815510D02*
X49077680Y-77782970D01*
X49077680Y-77782970D02*
X49029800Y-77752740D01*
X49029800Y-77752740D02*
X48980490Y-77724910D01*
X48980490Y-77724910D02*
X48929870Y-77699530D01*
X48929870Y-77699530D02*
X48878070Y-77676680D01*
X48878070Y-77676680D02*
X48825200Y-77656410D01*
X48825200Y-77656410D02*
X48771400Y-77638770D01*
X48771400Y-77638770D02*
X48716790Y-77623790D01*
X48716790Y-77623790D02*
X48661520Y-77611520D01*
X48661520Y-77611520D02*
X48605700Y-77601980D01*
X49328700Y-78010100D02*
X53682700Y-83311600D01*
X53682700Y-83311600D02*
X53718540Y-83353260D01*
X53718540Y-83353260D02*
X53756260Y-83393230D01*
X53756260Y-83393230D02*
X53795760Y-83431440D01*
X53795760Y-83431440D02*
X53836980Y-83467800D01*
X53836980Y-83467800D02*
X53879810Y-83502230D01*
X53879810Y-83502230D02*
X53924180Y-83534670D01*
X53924180Y-83534670D02*
X53969980Y-83565030D01*
X53969980Y-83565030D02*
X54017130Y-83593270D01*
X54017130Y-83593270D02*
X54065520Y-83619330D01*
X54065520Y-83619330D02*
X54115050Y-83643140D01*
X54115050Y-83643140D02*
X54165620Y-83664650D01*
X54165620Y-83664650D02*
X54217120Y-83683830D01*
X54217100Y-83683900D02*
X55002900Y-83956100D01*
X55091000Y-83990600D02*
X55073600Y-83983150D01*
X55073600Y-83983150D02*
X55056090Y-83975980D01*
X55056090Y-83975980D02*
X55038460Y-83969080D01*
X55038460Y-83969080D02*
X55020730Y-83962460D01*
X55020730Y-83962460D02*
X55002890Y-83956120D01*
X55091000Y-83990600D02*
X63019000Y-87459400D01*
X63019000Y-87459400D02*
X63057070Y-87475280D01*
X63057070Y-87475280D02*
X63095670Y-87489850D01*
X63095670Y-87489850D02*
X63134740Y-87503080D01*
X63134740Y-87503080D02*
X63174250Y-87514960D01*
X63174250Y-87514960D02*
X63214140Y-87525470D01*
X63214140Y-87525470D02*
X63254370Y-87534610D01*
X63254370Y-87534610D02*
X63294890Y-87542360D01*
X63294900Y-87542300D02*
X78945100Y-90257700D01*
X79422500Y-90453000D02*
X79379110Y-90424370D01*
X79379110Y-90424370D02*
X79334530Y-90397640D01*
X79334530Y-90397640D02*
X79288830Y-90372870D01*
X79288830Y-90372870D02*
X79242100Y-90350100D01*
X79242100Y-90350100D02*
X79194420Y-90329380D01*
X79194420Y-90329380D02*
X79145900Y-90310740D01*
X79145900Y-90310740D02*
X79096610Y-90294220D01*
X79096610Y-90294220D02*
X79046650Y-90279850D01*
X79046650Y-90279850D02*
X78996120Y-90267660D01*
X78996120Y-90267660D02*
X78945110Y-90257670D01*
X79422500Y-90453000D02*
X86360000Y-95250000D01*
X45720000Y-40640000D02*
X44662400Y-42613100D01*
X44662400Y-42613100D02*
X44642290Y-42652330D01*
X44642290Y-42652330D02*
X44623640Y-42692270D01*
X44623640Y-42692270D02*
X44606460Y-42732870D01*
X44606460Y-42732870D02*
X44590790Y-42774080D01*
X44590790Y-42774080D02*
X44576640Y-42815830D01*
X44576640Y-42815830D02*
X44564030Y-42858070D01*
X44564030Y-42858070D02*
X44552990Y-42900750D01*
X44552990Y-42900750D02*
X44543520Y-42943800D01*
X44543500Y-42943800D02*
X42582600Y-52710100D01*
X42582600Y-52710100D02*
X42571820Y-52766430D01*
X42571820Y-52766430D02*
X42562040Y-52822940D01*
X42562040Y-52822940D02*
X42553280Y-52879620D01*
X42553280Y-52879620D02*
X42545540Y-52936450D01*
X42545540Y-52936450D02*
X42538820Y-52993400D01*
X42538800Y-52993400D02*
X42054100Y-57442400D01*
X42026400Y-57633400D02*
X42033040Y-57595370D01*
X42033040Y-57595370D02*
X42039140Y-57557240D01*
X42039140Y-57557240D02*
X42044690Y-57519040D01*
X42044690Y-57519040D02*
X42049690Y-57480750D01*
X42049690Y-57480750D02*
X42054150Y-57442400D01*
X42026400Y-57633400D02*
X41722400Y-59303600D01*
X41722400Y-59303600D02*
X41715430Y-59344040D01*
X41715430Y-59344040D02*
X41709210Y-59384600D01*
X41709210Y-59384600D02*
X41703760Y-59425280D01*
X41703760Y-59425280D02*
X41699060Y-59466050D01*
X41699060Y-59466050D02*
X41695120Y-59506890D01*
X41695200Y-59506900D02*
X40565500Y-72494000D01*
X39762900Y-73523900D02*
X39824400Y-73500680D01*
X39824400Y-73500680D02*
X39884530Y-73474140D01*
X39884530Y-73474140D02*
X39943130Y-73444340D01*
X39943130Y-73444340D02*
X40000000Y-73411370D01*
X40000000Y-73411370D02*
X40054980Y-73375340D01*
X40054980Y-73375340D02*
X40107910Y-73336360D01*
X40107910Y-73336360D02*
X40158620Y-73294530D01*
X40158620Y-73294530D02*
X40206970Y-73249990D01*
X40206970Y-73249990D02*
X40252800Y-73202870D01*
X40252800Y-73202870D02*
X40295990Y-73153310D01*
X40295990Y-73153310D02*
X40336390Y-73101470D01*
X40336390Y-73101470D02*
X40373900Y-73047480D01*
X40373900Y-73047480D02*
X40408400Y-72991530D01*
X40408400Y-72991530D02*
X40439780Y-72933760D01*
X40439780Y-72933760D02*
X40467950Y-72874370D01*
X40467950Y-72874370D02*
X40492820Y-72813520D01*
X40492820Y-72813520D02*
X40514330Y-72751410D01*
X40514330Y-72751410D02*
X40532400Y-72688200D01*
X40532400Y-72688200D02*
X40546980Y-72624110D01*
X40546980Y-72624110D02*
X40558040Y-72559310D01*
X40558040Y-72559310D02*
X40565530Y-72494000D01*
X39762900Y-73523900D02*
X38977100Y-73796100D01*
X38977100Y-73796100D02*
X38910210Y-73821530D01*
X38910210Y-73821530D02*
X38844960Y-73850910D01*
X38844960Y-73850910D02*
X38781580Y-73884120D01*
X38781580Y-73884120D02*
X38720280Y-73921060D01*
X38720280Y-73921060D02*
X38661300Y-73961580D01*
X38661300Y-73961580D02*
X38604840Y-74005540D01*
X38604840Y-74005540D02*
X38551100Y-74052790D01*
X38551100Y-74052790D02*
X38500270Y-74103160D01*
X38500270Y-74103160D02*
X38452530Y-74156470D01*
X38452530Y-74156470D02*
X38408060Y-74212530D01*
X38408060Y-74212530D02*
X38367000Y-74271140D01*
X38367000Y-74271140D02*
X38329510Y-74332100D01*
X38329510Y-74332100D02*
X38295730Y-74395180D01*
X38295730Y-74395180D02*
X38265760Y-74460160D01*
X38265760Y-74460160D02*
X38239720Y-74526810D01*
X38239720Y-74526810D02*
X38217700Y-74594900D01*
X38217700Y-74594900D02*
X38199770Y-74664180D01*
X38199770Y-74664180D02*
X38186010Y-74734400D01*
X38186010Y-74734400D02*
X38176450Y-74805320D01*
X38176450Y-74805320D02*
X38171140Y-74876680D01*
X38171140Y-74876680D02*
X38170100Y-74948230D01*
X38170100Y-74948230D02*
X38173320Y-75019720D01*
X38173320Y-75019720D02*
X38180790Y-75090890D01*
X38180790Y-75090890D02*
X38192500Y-75161480D01*
X38192500Y-75161480D02*
X38208390Y-75231260D01*
X38208390Y-75231260D02*
X38228410Y-75299960D01*
X38228410Y-75299960D02*
X38252490Y-75367340D01*
X38252490Y-75367340D02*
X38280540Y-75433170D01*
X38280540Y-75433170D02*
X38312470Y-75497220D01*
X38312500Y-75497200D02*
X38715500Y-76248500D01*
X22540000Y-68730000D02*
X21451800Y-70654800D01*
X21451800Y-70654800D02*
X21424220Y-70706360D01*
X21424220Y-70706360D02*
X21399090Y-70759150D01*
X21399090Y-70759150D02*
X21376450Y-70813050D01*
X21376450Y-70813050D02*
X21356360Y-70867960D01*
X21356360Y-70867960D02*
X21338850Y-70923750D01*
X21338850Y-70923750D02*
X21323970Y-70980290D01*
X21323970Y-70980290D02*
X21311760Y-71037470D01*
X21311760Y-71037470D02*
X21302230Y-71095150D01*
X21302230Y-71095150D02*
X21295410Y-71153220D01*
X21295410Y-71153220D02*
X21291310Y-71211550D01*
X21291310Y-71211550D02*
X21289940Y-71270000D01*
X21290000Y-71270000D02*
X21290000Y-81430000D01*
X21290000Y-81430000D02*
X21292070Y-81501960D01*
X21292070Y-81501960D02*
X21298290Y-81573680D01*
X21298290Y-81573680D02*
X21308620Y-81644930D01*
X21308620Y-81644930D02*
X21323030Y-81715460D01*
X21323030Y-81715460D02*
X21341480Y-81785040D01*
X21341480Y-81785040D02*
X21363910Y-81853450D01*
X21363910Y-81853450D02*
X21390240Y-81920450D01*
X21390240Y-81920450D02*
X21420380Y-81985830D01*
X21420380Y-81985830D02*
X21454230Y-82049360D01*
X21454230Y-82049360D02*
X21491690Y-82110840D01*
X21491690Y-82110840D02*
X21532620Y-82170060D01*
X21532620Y-82170060D02*
X21576900Y-82226830D01*
X21576900Y-82226830D02*
X21624370Y-82280950D01*
X21624370Y-82280950D02*
X21674870Y-82332250D01*
X21674870Y-82332250D02*
X21728250Y-82380560D01*
X21728250Y-82380560D02*
X21784310Y-82425710D01*
X21784310Y-82425710D02*
X21842890Y-82467560D01*
X21842890Y-82467560D02*
X21903770Y-82505970D01*
X21903770Y-82505970D02*
X21966770Y-82540810D01*
X21966770Y-82540810D02*
X22031670Y-82571970D01*
X22031670Y-82571970D02*
X22098250Y-82599340D01*
X22098250Y-82599340D02*
X22166300Y-82622830D01*
X22166300Y-82622830D02*
X22235590Y-82642370D01*
X22235590Y-82642370D02*
X22305890Y-82657880D01*
X22305890Y-82657880D02*
X22376960Y-82669320D01*
X22376960Y-82669320D02*
X22448580Y-82676650D01*
X22448580Y-82676650D02*
X22520500Y-82679850D01*
X22520500Y-82679800D02*
X25099500Y-82720200D01*
X25276300Y-82735500D02*
X25247010Y-82731200D01*
X25247010Y-82731200D02*
X25217630Y-82727590D01*
X25217630Y-82727590D02*
X25188170Y-82724680D01*
X25188170Y-82724680D02*
X25158650Y-82722470D01*
X25158650Y-82722470D02*
X25129090Y-82720950D01*
X25129090Y-82720950D02*
X25099500Y-82720140D01*
X25276300Y-82735500D02*
X31561500Y-83735100D01*
X31561500Y-83735100D02*
X31613320Y-83742190D01*
X31613320Y-83742190D02*
X31665410Y-83747010D01*
X31665410Y-83747010D02*
X31717650Y-83749560D01*
X31717650Y-83749560D02*
X31769960Y-83749830D01*
X31769960Y-83749830D02*
X31822220Y-83747820D01*
X31822220Y-83747820D02*
X31874360Y-83743540D01*
X31874360Y-83743540D02*
X31926250Y-83736980D01*
X31926250Y-83736980D02*
X31977810Y-83728180D01*
X31977810Y-83728180D02*
X32028940Y-83717130D01*
X32028940Y-83717130D02*
X32079530Y-83703860D01*
X32079530Y-83703860D02*
X32129500Y-83688410D01*
X32129500Y-83688400D02*
X39749500Y-81148400D01*
X39749500Y-81148400D02*
X39817790Y-81123310D01*
X39817790Y-81123310D02*
X39884440Y-81094120D01*
X39884440Y-81094120D02*
X39949200Y-81060950D01*
X39949200Y-81060950D02*
X40011820Y-81023920D01*
X40011820Y-81023920D02*
X40072090Y-80983160D01*
X40072090Y-80983160D02*
X40129780Y-80938820D01*
X40129780Y-80938820D02*
X40184670Y-80891070D01*
X40184670Y-80891070D02*
X40236570Y-80840080D01*
X40236570Y-80840080D02*
X40285280Y-80786040D01*
X40285280Y-80786040D02*
X40330630Y-80729140D01*
X40330630Y-80729140D02*
X40372450Y-80669600D01*
X40372450Y-80669600D02*
X40410580Y-80607640D01*
X40410580Y-80607640D02*
X40444880Y-80543480D01*
X40444880Y-80543480D02*
X40475240Y-80477360D01*
X40475240Y-80477360D02*
X40501530Y-80409520D01*
X40501530Y-80409520D02*
X40523660Y-80340210D01*
X40523660Y-80340210D02*
X40541550Y-80269680D01*
X40541550Y-80269680D02*
X40555140Y-80198210D01*
X40555140Y-80198210D02*
X40564370Y-80126040D01*
X40564370Y-80126040D02*
X40569200Y-80053440D01*
X40569200Y-80053440D02*
X40569630Y-79980690D01*
X40569630Y-79980690D02*
X40565650Y-79908040D01*
X40565650Y-79908040D02*
X40557270Y-79835770D01*
X40557270Y-79835770D02*
X40544530Y-79764130D01*
X40544530Y-79764130D02*
X40527470Y-79693400D01*
X40527470Y-79693400D02*
X40506160Y-79623840D01*
X40506160Y-79623840D02*
X40480670Y-79555690D01*
X40480670Y-79555690D02*
X40451090Y-79489220D01*
X40451090Y-79489220D02*
X40417550Y-79424660D01*
X40417550Y-79424660D02*
X40380150Y-79362250D01*
X40380150Y-79362250D02*
X40339030Y-79302220D01*
X40339030Y-79302220D02*
X40294360Y-79244800D01*
X40294360Y-79244800D02*
X40246290Y-79190180D01*
X40246290Y-79190180D02*
X40194990Y-79138590D01*
X40194990Y-79138590D02*
X40140660Y-79090190D01*
X40140660Y-79090190D02*
X40083500Y-79045180D01*
X40083500Y-79045180D02*
X40023720Y-79003710D01*
X40023720Y-79003710D02*
X39961540Y-78965940D01*
X39961540Y-78965940D02*
X39897170Y-78932010D01*
X39897170Y-78932010D02*
X39830880Y-78902040D01*
X39830880Y-78902040D02*
X39762880Y-78876150D01*
X39762900Y-78876100D02*
X38977100Y-78603900D01*
X38350200Y-76837600D02*
X38314260Y-76899620D01*
X38314260Y-76899620D02*
X38282090Y-76963670D01*
X38282090Y-76963670D02*
X38253800Y-77029530D01*
X38253800Y-77029530D02*
X38229490Y-77096970D01*
X38229490Y-77096970D02*
X38209250Y-77165730D01*
X38209250Y-77165730D02*
X38193150Y-77235580D01*
X38193150Y-77235580D02*
X38181260Y-77306270D01*
X38181260Y-77306270D02*
X38173600Y-77377540D01*
X38173600Y-77377540D02*
X38170210Y-77449140D01*
X38170210Y-77449140D02*
X38171110Y-77520810D01*
X38171110Y-77520810D02*
X38176280Y-77592310D01*
X38176280Y-77592310D02*
X38185710Y-77663360D01*
X38185710Y-77663360D02*
X38199370Y-77733730D01*
X38199370Y-77733730D02*
X38217210Y-77803160D01*
X38217210Y-77803160D02*
X38239160Y-77871390D01*
X38239160Y-77871390D02*
X38265140Y-77938200D01*
X38265140Y-77938200D02*
X38295070Y-78003330D01*
X38295070Y-78003330D02*
X38328830Y-78066560D01*
X38328830Y-78066560D02*
X38366310Y-78127670D01*
X38366310Y-78127670D02*
X38407370Y-78186420D01*
X38407370Y-78186420D02*
X38451860Y-78242620D01*
X38451860Y-78242620D02*
X38499630Y-78296060D01*
X38499630Y-78296060D02*
X38550510Y-78346560D01*
X38550510Y-78346560D02*
X38604310Y-78393920D01*
X38604310Y-78393920D02*
X38660840Y-78437990D01*
X38660840Y-78437990D02*
X38719900Y-78478610D01*
X38719900Y-78478610D02*
X38781290Y-78515630D01*
X38781290Y-78515630D02*
X38844770Y-78548910D01*
X38844770Y-78548910D02*
X38910130Y-78578350D01*
X38910130Y-78578350D02*
X38977120Y-78603830D01*
X38350200Y-76837600D02*
X38715500Y-76248500D01*
%TO.N,F_D4*%
X87384700Y-87807800D02*
X86912700Y-87200400D01*
X87384700Y-87807800D02*
X86735700Y-88220600D01*
X101869300Y-91156700D02*
X102275700Y-91809800D01*
X101869300Y-91156700D02*
X102557700Y-90813600D01*
X46531800Y-56530100D02*
X46411400Y-55770400D01*
X46531800Y-56530100D02*
X45764200Y-56578600D01*
X85504600Y-87038500D02*
X85678100Y-87787800D01*
X85504600Y-87038500D02*
X86266900Y-86936200D01*
X86360000Y-87630000D02*
X94185100Y-88987700D01*
X94306900Y-89015400D02*
X94282780Y-89008840D01*
X94282780Y-89008840D02*
X94258530Y-89002790D01*
X94258530Y-89002790D02*
X94234160Y-88997240D01*
X94234160Y-88997240D02*
X94209680Y-88992200D01*
X94209680Y-88992200D02*
X94185100Y-88987670D01*
X94306900Y-89015400D02*
X102870000Y-91440000D01*
X45720000Y-55880000D02*
X62749900Y-69516700D01*
X62749900Y-69516700D02*
X62785990Y-69544490D01*
X62785990Y-69544490D02*
X62823110Y-69570900D01*
X62823110Y-69570900D02*
X62861210Y-69595880D01*
X62861210Y-69595880D02*
X62900230Y-69619390D01*
X62900230Y-69619390D02*
X62940110Y-69641400D01*
X62940110Y-69641400D02*
X62980790Y-69661890D01*
X62980790Y-69661890D02*
X63022230Y-69680810D01*
X63022230Y-69680810D02*
X63064350Y-69698150D01*
X63064350Y-69698150D02*
X63107110Y-69713880D01*
X63107100Y-69713900D02*
X63892900Y-69986100D01*
X64290700Y-70217400D02*
X64251290Y-70184340D01*
X64251290Y-70184340D02*
X64210500Y-70153000D01*
X64210500Y-70153000D02*
X64168400Y-70123440D01*
X64168400Y-70123440D02*
X64125070Y-70095710D01*
X64125070Y-70095710D02*
X64080600Y-70069860D01*
X64080600Y-70069860D02*
X64035050Y-70045940D01*
X64035050Y-70045940D02*
X63988530Y-70023990D01*
X63988530Y-70023990D02*
X63941110Y-70004060D01*
X63941110Y-70004060D02*
X63892870Y-69986180D01*
X64290700Y-70217400D02*
X77949300Y-82182600D01*
X77949300Y-82182600D02*
X77988710Y-82215660D01*
X77988710Y-82215660D02*
X78029500Y-82247000D01*
X78029500Y-82247000D02*
X78071600Y-82276560D01*
X78071600Y-82276560D02*
X78114930Y-82304290D01*
X78114930Y-82304290D02*
X78159400Y-82330140D01*
X78159400Y-82330140D02*
X78204950Y-82354060D01*
X78204950Y-82354060D02*
X78251470Y-82376010D01*
X78251470Y-82376010D02*
X78298890Y-82395940D01*
X78298890Y-82395940D02*
X78347130Y-82413820D01*
X78347100Y-82413900D02*
X79132900Y-82686100D01*
X79422500Y-82833000D02*
X79388630Y-82810420D01*
X79388630Y-82810420D02*
X79354000Y-82788990D01*
X79354000Y-82788990D02*
X79318680Y-82768760D01*
X79318680Y-82768760D02*
X79282680Y-82749730D01*
X79282680Y-82749730D02*
X79246060Y-82731940D01*
X79246060Y-82731940D02*
X79208860Y-82715400D01*
X79208860Y-82715400D02*
X79171120Y-82700130D01*
X79171120Y-82700130D02*
X79132880Y-82686150D01*
X79422500Y-82833000D02*
X86360000Y-87630000D01*
%TO.N,Net-(JP1-Pad1)*%
X77116600Y-46211300D02*
X76859800Y-45486300D01*
X77116600Y-46211300D02*
X76370600Y-46398900D01*
X91599200Y-50481800D02*
X91933800Y-50761900D01*
X91599200Y-50481800D02*
X92029800Y-50411100D01*
X76200000Y-45720000D02*
X78173100Y-46777600D01*
X78173100Y-46777600D02*
X78207390Y-46795280D01*
X78207390Y-46795280D02*
X78242230Y-46811840D01*
X78242230Y-46811840D02*
X78277590Y-46827280D01*
X78277590Y-46827280D02*
X78313420Y-46841570D01*
X78313420Y-46841570D02*
X78349700Y-46854700D01*
X78349700Y-46854700D02*
X78386370Y-46866670D01*
X78386370Y-46866670D02*
X78423420Y-46877440D01*
X78423400Y-46877500D02*
X92062200Y-50608500D01*
%TO.N,D0*%
X64430200Y-66505100D02*
X64152900Y-65787700D01*
X64430200Y-66505100D02*
X63689900Y-66713700D01*
X77809800Y-73194900D02*
X78087100Y-73912300D01*
X77809800Y-73194900D02*
X78550100Y-72986300D01*
X79716700Y-74017400D02*
X79360400Y-73335700D01*
X79716700Y-74017400D02*
X79004600Y-74308100D01*
X93053600Y-79537400D02*
X93325000Y-80257100D01*
X93053600Y-79537400D02*
X93795600Y-79334700D01*
X63500000Y-66040000D02*
X78740000Y-73660000D01*
X78740000Y-73660000D02*
X85422500Y-76105600D01*
X85422500Y-76105600D02*
X85433290Y-76109380D01*
X85433290Y-76109380D02*
X85444190Y-76112840D01*
X85444190Y-76112840D02*
X85455180Y-76116000D01*
X85455180Y-76116000D02*
X85466260Y-76118840D01*
X85466260Y-76118840D02*
X85477410Y-76121360D01*
X85477410Y-76121360D02*
X85488630Y-76123560D01*
X85488630Y-76123560D02*
X85499910Y-76125440D01*
X85499900Y-76125500D02*
X86540400Y-76283600D01*
X86905300Y-76401000D02*
X86862010Y-76380000D01*
X86862010Y-76380000D02*
X86817910Y-76360750D01*
X86817910Y-76360750D02*
X86773070Y-76343290D01*
X86773070Y-76343290D02*
X86727570Y-76327630D01*
X86727570Y-76327630D02*
X86681480Y-76313810D01*
X86681480Y-76313810D02*
X86634870Y-76301860D01*
X86634870Y-76301860D02*
X86587820Y-76291780D01*
X86587820Y-76291780D02*
X86540400Y-76283590D01*
X86905300Y-76401000D02*
X93980000Y-80010000D01*
%TO.N,D1*%
X79726400Y-76529400D02*
X79350900Y-75858200D01*
X79726400Y-76529400D02*
X79022900Y-76840200D01*
X93053600Y-82077400D02*
X93325000Y-82797100D01*
X93053600Y-82077400D02*
X93795600Y-81874700D01*
X78740000Y-76200000D02*
X86740100Y-78871800D01*
X86905300Y-78941000D02*
X86878520Y-78927760D01*
X86878520Y-78927760D02*
X86851410Y-78915180D01*
X86851410Y-78915180D02*
X86824000Y-78903290D01*
X86824000Y-78903290D02*
X86796310Y-78892080D01*
X86796310Y-78892080D02*
X86768340Y-78881560D01*
X86768340Y-78881560D02*
X86740120Y-78871750D01*
X86905300Y-78941000D02*
X93980000Y-82550000D01*
%TO.N,D2*%
X79595400Y-79331500D02*
X79421900Y-78582200D01*
X79595400Y-79331500D02*
X78833100Y-79433800D01*
X92955300Y-84912200D02*
X93427300Y-85519600D01*
X92955300Y-84912200D02*
X93604300Y-84499400D01*
X78740000Y-78740000D02*
X85677500Y-83537000D01*
X85677500Y-83537000D02*
X85720890Y-83565630D01*
X85720890Y-83565630D02*
X85765470Y-83592360D01*
X85765470Y-83592360D02*
X85811170Y-83617130D01*
X85811170Y-83617130D02*
X85857900Y-83639900D01*
X85857900Y-83639900D02*
X85905580Y-83660620D01*
X85905580Y-83660620D02*
X85954100Y-83679260D01*
X85954100Y-83679260D02*
X86003390Y-83695780D01*
X86003390Y-83695780D02*
X86053350Y-83710150D01*
X86053350Y-83710150D02*
X86103880Y-83722340D01*
X86103880Y-83722340D02*
X86154890Y-83732330D01*
X86154900Y-83732300D02*
X93980000Y-85090000D01*
%TO.N,D3*%
X79595400Y-81871500D02*
X79421900Y-81122200D01*
X79595400Y-81871500D02*
X78833100Y-81973800D01*
X92955300Y-87452200D02*
X93427300Y-88059600D01*
X92955300Y-87452200D02*
X93604300Y-87039400D01*
X78740000Y-81280000D02*
X85677500Y-86077000D01*
X85677500Y-86077000D02*
X85720890Y-86105630D01*
X85720890Y-86105630D02*
X85765470Y-86132360D01*
X85765470Y-86132360D02*
X85811170Y-86157130D01*
X85811170Y-86157130D02*
X85857900Y-86179900D01*
X85857900Y-86179900D02*
X85905580Y-86200620D01*
X85905580Y-86200620D02*
X85954100Y-86219260D01*
X85954100Y-86219260D02*
X86003390Y-86235780D01*
X86003390Y-86235780D02*
X86053350Y-86250150D01*
X86053350Y-86250150D02*
X86103880Y-86262340D01*
X86103880Y-86262340D02*
X86154890Y-86272330D01*
X86154900Y-86272300D02*
X93980000Y-87630000D01*
%TO.N,FT*%
X62931700Y-100729000D02*
X62808900Y-101488300D01*
X62931700Y-100729000D02*
X63676100Y-100922500D01*
X54118700Y-86006600D02*
X54843700Y-85749800D01*
X54118700Y-86006600D02*
X53931100Y-85260600D01*
X63500000Y-101600000D02*
X55615000Y-89514300D01*
X55615000Y-89514300D02*
X55580480Y-89464210D01*
X55580480Y-89464210D02*
X55543460Y-89415930D01*
X55543460Y-89415930D02*
X55504040Y-89369590D01*
X55504040Y-89369590D02*
X55462320Y-89325300D01*
X55462320Y-89325300D02*
X55418420Y-89283190D01*
X55418420Y-89283190D02*
X55372430Y-89243360D01*
X55372430Y-89243360D02*
X55324490Y-89205910D01*
X55324490Y-89205910D02*
X55274710Y-89170930D01*
X55274710Y-89170930D02*
X55223220Y-89138530D01*
X55223220Y-89138530D02*
X55170150Y-89108780D01*
X55170150Y-89108780D02*
X55115650Y-89081750D01*
X55115650Y-89081750D02*
X55059840Y-89057520D01*
X55059840Y-89057520D02*
X55002880Y-89036150D01*
X55002900Y-89036100D02*
X54217100Y-88763900D01*
X53552400Y-87063100D02*
X53520500Y-87127140D01*
X53520500Y-87127140D02*
X53492460Y-87192960D01*
X53492460Y-87192960D02*
X53468400Y-87260340D01*
X53468400Y-87260340D02*
X53448400Y-87329030D01*
X53448400Y-87329030D02*
X53432530Y-87398790D01*
X53432530Y-87398790D02*
X53420840Y-87469370D01*
X53420840Y-87469370D02*
X53413390Y-87540520D01*
X53413390Y-87540520D02*
X53410180Y-87612000D01*
X53410180Y-87612000D02*
X53411240Y-87683530D01*
X53411240Y-87683530D02*
X53416560Y-87754880D01*
X53416560Y-87754880D02*
X53426120Y-87825780D01*
X53426120Y-87825780D02*
X53439890Y-87895980D01*
X53439890Y-87895980D02*
X53457830Y-87965240D01*
X53457830Y-87965240D02*
X53479850Y-88033310D01*
X53479850Y-88033310D02*
X53505900Y-88099950D01*
X53505900Y-88099950D02*
X53535870Y-88164910D01*
X53535870Y-88164910D02*
X53569650Y-88227970D01*
X53569650Y-88227970D02*
X53607140Y-88288910D01*
X53607140Y-88288910D02*
X53648190Y-88347510D01*
X53648190Y-88347510D02*
X53692660Y-88403550D01*
X53692660Y-88403550D02*
X53740390Y-88456840D01*
X53740390Y-88456840D02*
X53791210Y-88507200D01*
X53791210Y-88507200D02*
X53844940Y-88554440D01*
X53844940Y-88554440D02*
X53901400Y-88598390D01*
X53901400Y-88598390D02*
X53960370Y-88638900D01*
X53960370Y-88638900D02*
X54021650Y-88675820D01*
X54021650Y-88675820D02*
X54085020Y-88709020D01*
X54085020Y-88709020D02*
X54150260Y-88738390D01*
X54150260Y-88738390D02*
X54217130Y-88763820D01*
X53552400Y-87063100D02*
X54610000Y-85090000D01*
%TO.N,RXD*%
X77703200Y-53421900D02*
X78311100Y-53893200D01*
X77703200Y-53421900D02*
X78229500Y-52861000D01*
X46747000Y-53503800D02*
X46266800Y-52903000D01*
X46747000Y-53503800D02*
X46103800Y-53925400D01*
X46211300Y-39016600D02*
X46398900Y-38270600D01*
X46211300Y-39016600D02*
X45486300Y-38759800D01*
X46211300Y-42263400D02*
X45486300Y-42520200D01*
X46211300Y-42263400D02*
X46398900Y-43009400D01*
X78740000Y-53340000D02*
X63594500Y-54536300D01*
X63500000Y-54540000D02*
X63518920Y-54539850D01*
X63518920Y-54539850D02*
X63537830Y-54539400D01*
X63537830Y-54539400D02*
X63556740Y-54538660D01*
X63556740Y-54538660D02*
X63575630Y-54537610D01*
X63575630Y-54537610D02*
X63594500Y-54536270D01*
X63500000Y-54540000D02*
X53340000Y-54540000D01*
X53151000Y-54525000D02*
X53182300Y-54529570D01*
X53182300Y-54529570D02*
X53213710Y-54533310D01*
X53213710Y-54533310D02*
X53245200Y-54536230D01*
X53245200Y-54536230D02*
X53276770Y-54538310D01*
X53276770Y-54538310D02*
X53308370Y-54539560D01*
X53308370Y-54539560D02*
X53340000Y-54539980D01*
X53151000Y-54525000D02*
X45720000Y-53340000D01*
X45720000Y-38100000D02*
X46777600Y-40073100D01*
X46777600Y-41206900D02*
X46807000Y-41148260D01*
X46807000Y-41148260D02*
X46833150Y-41088100D01*
X46833150Y-41088100D02*
X46855970Y-41026600D01*
X46855970Y-41026600D02*
X46875400Y-40963950D01*
X46875400Y-40963950D02*
X46891380Y-40900330D01*
X46891380Y-40900330D02*
X46903850Y-40835930D01*
X46903850Y-40835930D02*
X46912790Y-40770950D01*
X46912790Y-40770950D02*
X46918160Y-40705570D01*
X46918160Y-40705570D02*
X46919960Y-40640000D01*
X46919960Y-40640000D02*
X46918160Y-40574430D01*
X46918160Y-40574430D02*
X46912790Y-40509050D01*
X46912790Y-40509050D02*
X46903850Y-40444070D01*
X46903850Y-40444070D02*
X46891380Y-40379670D01*
X46891380Y-40379670D02*
X46875400Y-40316050D01*
X46875400Y-40316050D02*
X46855970Y-40253400D01*
X46855970Y-40253400D02*
X46833150Y-40191900D01*
X46833150Y-40191900D02*
X46807000Y-40131740D01*
X46807000Y-40131740D02*
X46777600Y-40073100D01*
X46777600Y-41206900D02*
X45720000Y-43180000D01*
%TO.N,D7*%
X79595400Y-92031500D02*
X79421900Y-91282200D01*
X79595400Y-92031500D02*
X78833100Y-92133800D01*
X92955300Y-97612200D02*
X93427300Y-98219600D01*
X92955300Y-97612200D02*
X93604300Y-97199400D01*
X78740000Y-91440000D02*
X85677500Y-96237000D01*
X85677500Y-96237000D02*
X85720890Y-96265630D01*
X85720890Y-96265630D02*
X85765470Y-96292360D01*
X85765470Y-96292360D02*
X85811170Y-96317130D01*
X85811170Y-96317130D02*
X85857900Y-96339900D01*
X85857900Y-96339900D02*
X85905580Y-96360620D01*
X85905580Y-96360620D02*
X85954100Y-96379260D01*
X85954100Y-96379260D02*
X86003390Y-96395780D01*
X86003390Y-96395780D02*
X86053350Y-96410150D01*
X86053350Y-96410150D02*
X86103880Y-96422340D01*
X86103880Y-96422340D02*
X86154890Y-96432330D01*
X86154900Y-96432300D02*
X93980000Y-97790000D01*
%TO.N,D6*%
X79595400Y-89491500D02*
X79421900Y-88742200D01*
X79595400Y-89491500D02*
X78833100Y-89593800D01*
X92955300Y-95072200D02*
X93427300Y-95679600D01*
X92955300Y-95072200D02*
X93604300Y-94659400D01*
X64430200Y-81745100D02*
X64152900Y-81027700D01*
X64430200Y-81745100D02*
X63689900Y-81953700D01*
X77809800Y-88434900D02*
X78087100Y-89152300D01*
X77809800Y-88434900D02*
X78550100Y-88226300D01*
X78740000Y-88900000D02*
X85677500Y-93697000D01*
X85677500Y-93697000D02*
X85720890Y-93725630D01*
X85720890Y-93725630D02*
X85765470Y-93752360D01*
X85765470Y-93752360D02*
X85811170Y-93777130D01*
X85811170Y-93777130D02*
X85857900Y-93799900D01*
X85857900Y-93799900D02*
X85905580Y-93820620D01*
X85905580Y-93820620D02*
X85954100Y-93839260D01*
X85954100Y-93839260D02*
X86003390Y-93855780D01*
X86003390Y-93855780D02*
X86053350Y-93870150D01*
X86053350Y-93870150D02*
X86103880Y-93882340D01*
X86103880Y-93882340D02*
X86154890Y-93892330D01*
X86154900Y-93892300D02*
X93980000Y-95250000D01*
X63500000Y-81280000D02*
X78740000Y-88900000D01*
%TO.N,~EB-in~*%
X79764700Y-58597800D02*
X79292700Y-57990400D01*
X79764700Y-58597800D02*
X79115700Y-59010600D01*
X94471300Y-65123400D02*
X93746300Y-65380200D01*
X94471300Y-65123400D02*
X94658900Y-65869400D01*
X78740000Y-58420000D02*
X86565100Y-59777700D01*
X86739500Y-59821600D02*
X86710920Y-59812470D01*
X86710920Y-59812470D02*
X86682130Y-59804050D01*
X86682130Y-59804050D02*
X86653130Y-59796360D01*
X86653130Y-59796360D02*
X86623950Y-59789400D01*
X86623950Y-59789400D02*
X86594600Y-59783170D01*
X86594600Y-59783170D02*
X86565110Y-59777670D01*
X86739500Y-59821600D02*
X94359500Y-62361600D01*
X95037600Y-64066900D02*
X95068700Y-64004600D01*
X95068700Y-64004600D02*
X95096140Y-63940600D01*
X95096140Y-63940600D02*
X95119810Y-63875120D01*
X95119810Y-63875120D02*
X95139650Y-63808380D01*
X95139650Y-63808380D02*
X95155590Y-63740600D01*
X95155590Y-63740600D02*
X95167560Y-63672000D01*
X95167560Y-63672000D02*
X95175540Y-63602830D01*
X95175540Y-63602830D02*
X95179490Y-63533310D01*
X95179490Y-63533310D02*
X95179410Y-63463680D01*
X95179410Y-63463680D02*
X95175280Y-63394170D01*
X95175280Y-63394170D02*
X95167130Y-63325020D01*
X95167130Y-63325020D02*
X95154980Y-63256460D01*
X95154980Y-63256460D02*
X95138880Y-63188720D01*
X95138880Y-63188720D02*
X95118870Y-63122020D01*
X95118870Y-63122020D02*
X95095030Y-63056600D01*
X95095030Y-63056600D02*
X95067430Y-62992670D01*
X95067430Y-62992670D02*
X95036180Y-62930450D01*
X95036180Y-62930450D02*
X95001360Y-62870150D01*
X95001360Y-62870150D02*
X94963110Y-62811970D01*
X94963110Y-62811970D02*
X94921550Y-62756100D01*
X94921550Y-62756100D02*
X94876810Y-62702740D01*
X94876810Y-62702740D02*
X94829060Y-62652070D01*
X94829060Y-62652070D02*
X94778450Y-62604250D01*
X94778450Y-62604250D02*
X94725150Y-62559440D01*
X94725150Y-62559440D02*
X94669340Y-62517800D01*
X94669340Y-62517800D02*
X94611210Y-62479470D01*
X94611210Y-62479470D02*
X94550950Y-62444580D01*
X94550950Y-62444580D02*
X94488770Y-62413240D01*
X94488770Y-62413240D02*
X94424880Y-62385560D01*
X94424880Y-62385560D02*
X94359490Y-62361630D01*
X95037600Y-64066900D02*
X93980000Y-66040000D01*
%TO.N,D5*%
X64430200Y-79205100D02*
X64152900Y-78487700D01*
X64430200Y-79205100D02*
X63689900Y-79413700D01*
X77809800Y-85894900D02*
X78087100Y-86612300D01*
X77809800Y-85894900D02*
X78550100Y-85686300D01*
X79595400Y-86951500D02*
X79421900Y-86202200D01*
X79595400Y-86951500D02*
X78833100Y-87053800D01*
X92955300Y-92532200D02*
X93427300Y-93139600D01*
X92955300Y-92532200D02*
X93604300Y-92119400D01*
X63500000Y-78740000D02*
X78740000Y-86360000D01*
X78740000Y-86360000D02*
X85677500Y-91157000D01*
X85677500Y-91157000D02*
X85720890Y-91185630D01*
X85720890Y-91185630D02*
X85765470Y-91212360D01*
X85765470Y-91212360D02*
X85811170Y-91237130D01*
X85811170Y-91237130D02*
X85857900Y-91259900D01*
X85857900Y-91259900D02*
X85905580Y-91280620D01*
X85905580Y-91280620D02*
X85954100Y-91299260D01*
X85954100Y-91299260D02*
X86003390Y-91315780D01*
X86003390Y-91315780D02*
X86053350Y-91330150D01*
X86053350Y-91330150D02*
X86103880Y-91342340D01*
X86103880Y-91342340D02*
X86154890Y-91352330D01*
X86154900Y-91352300D02*
X93980000Y-92710000D01*
%TO.N,D4*%
X55565900Y-88039700D02*
X55247000Y-87339800D01*
X55565900Y-88039700D02*
X54839200Y-88291400D01*
X62544100Y-91030300D02*
X62863000Y-91730200D01*
X62544100Y-91030300D02*
X63270800Y-90778600D01*
X79595400Y-84411500D02*
X79421900Y-83662200D01*
X79595400Y-84411500D02*
X78833100Y-84513800D01*
X92955300Y-89992200D02*
X93427300Y-90599600D01*
X92955300Y-89992200D02*
X93604300Y-89579400D01*
X54610000Y-87630000D02*
X63500000Y-91440000D01*
X78740000Y-83820000D02*
X85677500Y-88617000D01*
X85677500Y-88617000D02*
X85720890Y-88645630D01*
X85720890Y-88645630D02*
X85765470Y-88672360D01*
X85765470Y-88672360D02*
X85811170Y-88697130D01*
X85811170Y-88697130D02*
X85857900Y-88719900D01*
X85857900Y-88719900D02*
X85905580Y-88740620D01*
X85905580Y-88740620D02*
X85954100Y-88759260D01*
X85954100Y-88759260D02*
X86003390Y-88775780D01*
X86003390Y-88775780D02*
X86053350Y-88790150D01*
X86053350Y-88790150D02*
X86103880Y-88802340D01*
X86103880Y-88802340D02*
X86154890Y-88812330D01*
X86154900Y-88812300D02*
X93980000Y-90170000D01*
%TO.N,~EA-in~*%
X79767000Y-63336200D02*
X79123800Y-62914600D01*
X79767000Y-63336200D02*
X79286800Y-63937000D01*
X92953000Y-63336200D02*
X93433200Y-63937000D01*
X92953000Y-63336200D02*
X93596200Y-62914600D01*
X78740000Y-63500000D02*
X86171000Y-62315000D01*
X86549000Y-62315000D02*
X86502010Y-62308460D01*
X86502010Y-62308460D02*
X86454800Y-62303770D01*
X86454800Y-62303770D02*
X86407440Y-62300960D01*
X86407440Y-62300960D02*
X86360000Y-62300020D01*
X86360000Y-62300020D02*
X86312560Y-62300960D01*
X86312560Y-62300960D02*
X86265200Y-62303770D01*
X86265200Y-62303770D02*
X86217990Y-62308460D01*
X86217990Y-62308460D02*
X86171000Y-62315000D01*
X86549000Y-62315000D02*
X93980000Y-63500000D01*
%TO.N,EA-out*%
X40232800Y-74349300D02*
X39471800Y-74237400D01*
X40232800Y-74349300D02*
X40050000Y-75096400D01*
X109463000Y-49693800D02*
X110106200Y-50115400D01*
X109463000Y-49693800D02*
X109943200Y-49093000D01*
X62727900Y-85663200D02*
X62803300Y-86428600D01*
X62727900Y-85663200D02*
X63497100Y-85660000D01*
X39370000Y-74930000D02*
X43071800Y-72438600D01*
X43071800Y-72438600D02*
X42191000Y-59815800D01*
X42214400Y-59393200D02*
X42204610Y-59453020D01*
X42204610Y-59453020D02*
X42196970Y-59513150D01*
X42196970Y-59513150D02*
X42191470Y-59573520D01*
X42191470Y-59573520D02*
X42188130Y-59634050D01*
X42188130Y-59634050D02*
X42186950Y-59694650D01*
X42186950Y-59694650D02*
X42187920Y-59755260D01*
X42187920Y-59755260D02*
X42191060Y-59815800D01*
X42214400Y-59393200D02*
X42518300Y-57722900D01*
X42518300Y-57722900D02*
X42526170Y-57677840D01*
X42526170Y-57677840D02*
X42533390Y-57632670D01*
X42533390Y-57632670D02*
X42539970Y-57587400D01*
X42539970Y-57587400D02*
X42545900Y-57542040D01*
X42545900Y-57542040D02*
X42551180Y-57496600D01*
X42551200Y-57496600D02*
X43035900Y-53047600D01*
X43072800Y-52808500D02*
X43063700Y-52856040D01*
X43063700Y-52856040D02*
X43055450Y-52903730D01*
X43055450Y-52903730D02*
X43048060Y-52951570D01*
X43048060Y-52951570D02*
X43041520Y-52999530D01*
X43041520Y-52999530D02*
X43035850Y-53047590D01*
X43072800Y-52808500D02*
X44543500Y-45483800D01*
X46422300Y-44747000D02*
X46362140Y-44706290D01*
X46362140Y-44706290D02*
X46299630Y-44669300D01*
X46299630Y-44669300D02*
X46235000Y-44636150D01*
X46235000Y-44636150D02*
X46168480Y-44606980D01*
X46168480Y-44606980D02*
X46100310Y-44581880D01*
X46100310Y-44581880D02*
X46030750Y-44560950D01*
X46030750Y-44560950D02*
X45960060Y-44544280D01*
X45960060Y-44544280D02*
X45888480Y-44531910D01*
X45888480Y-44531910D02*
X45816290Y-44523890D01*
X45816290Y-44523890D02*
X45743740Y-44520250D01*
X45743740Y-44520250D02*
X45671110Y-44521020D01*
X45671110Y-44521020D02*
X45598650Y-44526170D01*
X45598650Y-44526170D02*
X45526640Y-44535700D01*
X45526640Y-44535700D02*
X45455340Y-44549570D01*
X45455340Y-44549570D02*
X45385010Y-44567730D01*
X45385010Y-44567730D02*
X45315910Y-44590100D01*
X45315910Y-44590100D02*
X45248280Y-44616620D01*
X45248280Y-44616620D02*
X45182390Y-44647190D01*
X45182390Y-44647190D02*
X45118460Y-44681680D01*
X45118460Y-44681680D02*
X45056740Y-44719980D01*
X45056740Y-44719980D02*
X44997450Y-44761940D01*
X44997450Y-44761940D02*
X44940810Y-44807410D01*
X44940810Y-44807410D02*
X44887020Y-44856230D01*
X44887020Y-44856230D02*
X44836290Y-44908210D01*
X44836290Y-44908210D02*
X44788790Y-44963170D01*
X44788790Y-44963170D02*
X44744700Y-45020890D01*
X44744700Y-45020890D02*
X44704190Y-45081190D01*
X44704190Y-45081190D02*
X44667400Y-45143820D01*
X44667400Y-45143820D02*
X44634470Y-45208560D01*
X44634470Y-45208560D02*
X44605510Y-45275180D01*
X44605510Y-45275180D02*
X44580640Y-45343420D01*
X44580640Y-45343420D02*
X44559940Y-45413050D01*
X44559940Y-45413050D02*
X44543500Y-45483800D01*
X46422300Y-44747000D02*
X52637700Y-49233000D01*
X52637700Y-49233000D02*
X52685320Y-49265660D01*
X52685320Y-49265660D02*
X52734460Y-49295990D01*
X52734460Y-49295990D02*
X52785000Y-49323920D01*
X52785000Y-49323920D02*
X52836820Y-49349390D01*
X52836820Y-49349390D02*
X52889820Y-49372330D01*
X52889820Y-49372330D02*
X52943850Y-49392700D01*
X52943850Y-49392700D02*
X52998800Y-49410450D01*
X52998800Y-49410450D02*
X53054540Y-49425530D01*
X53054540Y-49425530D02*
X53110940Y-49437920D01*
X53110940Y-49437920D02*
X53167870Y-49447570D01*
X53167870Y-49447570D02*
X53225200Y-49454480D01*
X53225200Y-49454480D02*
X53282800Y-49458620D01*
X53282800Y-49458600D02*
X92028800Y-51307700D01*
X92028800Y-51307700D02*
X92042960Y-51308230D01*
X92042960Y-51308230D02*
X92057120Y-51308480D01*
X92057120Y-51308480D02*
X92071290Y-51308440D01*
X92071290Y-51308440D02*
X92085450Y-51308110D01*
X92085450Y-51308110D02*
X92099600Y-51307500D01*
X92099600Y-51307500D02*
X102934100Y-50728300D01*
X102934100Y-50728300D02*
X102959180Y-50726690D01*
X102959180Y-50726690D02*
X102984220Y-50724560D01*
X102984220Y-50724560D02*
X103009220Y-50721910D01*
X103009220Y-50721910D02*
X103034150Y-50718730D01*
X103034150Y-50718730D02*
X103059010Y-50715040D01*
X103059000Y-50715000D02*
X110490000Y-49530000D01*
X63500000Y-86360000D02*
X54110500Y-77886300D01*
X54110500Y-77886300D02*
X54080220Y-77859920D01*
X54080220Y-77859920D02*
X54049040Y-77834610D01*
X54049040Y-77834610D02*
X54016990Y-77810400D01*
X54016990Y-77810400D02*
X53984120Y-77787330D01*
X53984120Y-77787330D02*
X53950460Y-77765420D01*
X53950460Y-77765420D02*
X53916060Y-77744700D01*
X53916060Y-77744700D02*
X53880960Y-77725190D01*
X53880960Y-77725190D02*
X53845190Y-77706920D01*
X53845200Y-77706900D02*
X43071800Y-72438600D01*
%TO.N,Net-(U1-Pad25)*%
X64459300Y-63098300D02*
X63734600Y-62840500D01*
X64459300Y-63098300D02*
X64134600Y-63795500D01*
X63500000Y-63500000D02*
X78276500Y-57313100D01*
X78347100Y-57286100D02*
X78329290Y-57292430D01*
X78329290Y-57292430D02*
X78311580Y-57299040D01*
X78311580Y-57299040D02*
X78293980Y-57305920D01*
X78293980Y-57305920D02*
X78276490Y-57313080D01*
X78347100Y-57286100D02*
X79132900Y-57013900D01*
X79132900Y-57013900D02*
X79155950Y-57005650D01*
X79155950Y-57005650D02*
X79178820Y-56996930D01*
X79178820Y-56996930D02*
X79201510Y-56987750D01*
X79201510Y-56987750D02*
X79224010Y-56978110D01*
X79224010Y-56978110D02*
X79246300Y-56968010D01*
X79246300Y-56968000D02*
X85517800Y-54049300D01*
X85560000Y-54040000D02*
X85555650Y-54040090D01*
X85555650Y-54040090D02*
X85551300Y-54040380D01*
X85551300Y-54040380D02*
X85546970Y-54040850D01*
X85546970Y-54040850D02*
X85542670Y-54041510D01*
X85542670Y-54041510D02*
X85538400Y-54042360D01*
X85538400Y-54042360D02*
X85534170Y-54043390D01*
X85534170Y-54043390D02*
X85529990Y-54044610D01*
X85529990Y-54044610D02*
X85525860Y-54046010D01*
X85525860Y-54046010D02*
X85521800Y-54047580D01*
X85521800Y-54047580D02*
X85517820Y-54049330D01*
X85560000Y-54040000D02*
X85660000Y-54040000D01*
X85660000Y-54040000D02*
X86360000Y-53340000D01*
%TO.N,Net-(U2-Pad18)*%
X54281100Y-81563400D02*
X53969900Y-82266700D01*
X54281100Y-81563400D02*
X54952100Y-81939300D01*
X53653100Y-79679200D02*
X53940100Y-78989800D01*
X53653100Y-79679200D02*
X53009900Y-79300000D01*
X54610000Y-82550000D02*
X53340000Y-78740000D01*
%TO.N,BRG*%
X40066100Y-78242700D02*
X40070000Y-77473600D01*
X40066100Y-78242700D02*
X39300800Y-78166600D01*
X46498700Y-99413400D02*
X46311100Y-100159400D01*
X46498700Y-99413400D02*
X47223700Y-99670200D01*
X39370000Y-77470000D02*
X40633100Y-78872200D01*
X41015300Y-79582200D02*
X40995120Y-79511000D01*
X40995120Y-79511000D02*
X40971870Y-79440750D01*
X40971870Y-79440750D02*
X40945570Y-79371570D01*
X40945570Y-79371570D02*
X40916300Y-79303610D01*
X40916300Y-79303610D02*
X40884090Y-79236980D01*
X40884090Y-79236980D02*
X40849010Y-79171820D01*
X40849010Y-79171820D02*
X40811130Y-79108250D01*
X40811130Y-79108250D02*
X40770520Y-79046380D01*
X40770520Y-79046380D02*
X40727260Y-78986340D01*
X40727260Y-78986340D02*
X40681420Y-78928250D01*
X40681420Y-78928250D02*
X40633100Y-78872200D01*
X41015300Y-79582200D02*
X45828600Y-98092000D01*
X45828600Y-98092000D02*
X45839520Y-98131250D01*
X45839520Y-98131250D02*
X45851770Y-98170100D01*
X45851770Y-98170100D02*
X45865320Y-98208520D01*
X45865320Y-98208520D02*
X45880180Y-98246460D01*
X45880180Y-98246460D02*
X45896310Y-98283860D01*
X45896310Y-98283860D02*
X45913710Y-98320700D01*
X45913710Y-98320700D02*
X45932340Y-98356930D01*
X45932400Y-98356900D02*
X46990000Y-100330000D01*
%TO.N,Net-(U2-Pad1)*%
X48199700Y-79700400D02*
X48812000Y-79273000D01*
X48199700Y-79700400D02*
X47860800Y-79035000D01*
X46990000Y-82550000D02*
X47690000Y-81850000D01*
X47690000Y-81850000D02*
X47690000Y-81750000D01*
X47693000Y-81725700D02*
X47692210Y-81729120D01*
X47692210Y-81729120D02*
X47691540Y-81732560D01*
X47691540Y-81732560D02*
X47690980Y-81736020D01*
X47690980Y-81736020D02*
X47690560Y-81739500D01*
X47690560Y-81739500D02*
X47690250Y-81742990D01*
X47690250Y-81742990D02*
X47690060Y-81746490D01*
X47690060Y-81746490D02*
X47690000Y-81750000D01*
X47693000Y-81725700D02*
X48440000Y-78740000D01*
%TO.N,RTS*%
X87276600Y-46211300D02*
X87019800Y-45486300D01*
X87276600Y-46211300D02*
X86530600Y-46398900D01*
X101830000Y-46984800D02*
X102396200Y-47505300D01*
X101830000Y-46984800D02*
X102401400Y-46469900D01*
X86360000Y-45720000D02*
X88333100Y-46777600D01*
X88333100Y-46777600D02*
X88380470Y-46801660D01*
X88380470Y-46801660D02*
X88428850Y-46823590D01*
X88428850Y-46823590D02*
X88478160Y-46843360D01*
X88478160Y-46843360D02*
X88528300Y-46860940D01*
X88528300Y-46860940D02*
X88579170Y-46876270D01*
X88579170Y-46876270D02*
X88630660Y-46889340D01*
X88630660Y-46889340D02*
X88682680Y-46900110D01*
X88682680Y-46900110D02*
X88735130Y-46908580D01*
X88735130Y-46908580D02*
X88787900Y-46914710D01*
X88787900Y-46914710D02*
X88840890Y-46918500D01*
X88840890Y-46918500D02*
X88894000Y-46919940D01*
X88894000Y-46920000D02*
X102870000Y-46990000D01*
%TO.N,DCD-H*%
X69303900Y-37353300D02*
X68536300Y-37401400D01*
X69303900Y-37353300D02*
X69279700Y-38122000D01*
X74746500Y-31738500D02*
X75560400Y-31717800D01*
X74746500Y-31738500D02*
X74742000Y-30924400D01*
X68580000Y-38100000D02*
X75540000Y-30920000D01*
%TO.N,DTR*%
X84592700Y-45023900D02*
X83823600Y-45020000D01*
X84592700Y-45023900D02*
X84516600Y-45789200D01*
X102090500Y-34978400D02*
X102859600Y-34989900D01*
X102090500Y-34978400D02*
X102174200Y-34213900D01*
X83820000Y-45720000D02*
X85222200Y-44456900D01*
X85789700Y-44118500D02*
X85720660Y-44144790D01*
X85720660Y-44144790D02*
X85652820Y-44174060D01*
X85652820Y-44174060D02*
X85586320Y-44206240D01*
X85586320Y-44206240D02*
X85521280Y-44241290D01*
X85521280Y-44241290D02*
X85457830Y-44279120D01*
X85457830Y-44279120D02*
X85396080Y-44319680D01*
X85396080Y-44319680D02*
X85336140Y-44362880D01*
X85336140Y-44362880D02*
X85278150Y-44408650D01*
X85278150Y-44408650D02*
X85222190Y-44456890D01*
X85789700Y-44118500D02*
X95417400Y-40689900D01*
X95417400Y-40689900D02*
X95492640Y-40661300D01*
X95492640Y-40661300D02*
X95566600Y-40629530D01*
X95566600Y-40629530D02*
X95639160Y-40594660D01*
X95639160Y-40594660D02*
X95710160Y-40556750D01*
X95710160Y-40556750D02*
X95779500Y-40515860D01*
X95779500Y-40515860D02*
X95847050Y-40472080D01*
X95847050Y-40472080D02*
X95912680Y-40425470D01*
X95912680Y-40425470D02*
X95976280Y-40376120D01*
X95976280Y-40376120D02*
X96037730Y-40324130D01*
X96037700Y-40324100D02*
X102870000Y-34290000D01*
%TO.N,CTS*%
X80507300Y-45023900D02*
X80583400Y-45789200D01*
X80507300Y-45023900D02*
X81276400Y-45020000D01*
X54379900Y-43195500D02*
X53818800Y-42669300D01*
X54379900Y-43195500D02*
X53803400Y-43704700D01*
X81280000Y-45720000D02*
X79877800Y-44456900D01*
X79877800Y-44456900D02*
X79820360Y-44407430D01*
X79820360Y-44407430D02*
X79760770Y-44360580D01*
X79760770Y-44360580D02*
X79699150Y-44316420D01*
X79699150Y-44316420D02*
X79635630Y-44275060D01*
X79635630Y-44275060D02*
X79570320Y-44236570D01*
X79570320Y-44236570D02*
X79503370Y-44201030D01*
X79503370Y-44201030D02*
X79434890Y-44168510D01*
X79434890Y-44168510D02*
X79365040Y-44139070D01*
X79365040Y-44139070D02*
X79293940Y-44112780D01*
X79293940Y-44112780D02*
X79221740Y-44089680D01*
X79221740Y-44089680D02*
X79148580Y-44069830D01*
X79148580Y-44069830D02*
X79074610Y-44053250D01*
X79074600Y-44053300D02*
X76633100Y-43563000D01*
X76633100Y-43563000D02*
X76567020Y-43550780D01*
X76567020Y-43550780D02*
X76500590Y-43540580D01*
X76500590Y-43540580D02*
X76433880Y-43532420D01*
X76433880Y-43532420D02*
X76366960Y-43526290D01*
X76366960Y-43526290D02*
X76299870Y-43522220D01*
X76299870Y-43522220D02*
X76232700Y-43520190D01*
X76232700Y-43520200D02*
X53340000Y-43180000D01*
%TO.N,DSR*%
X77823400Y-45228700D02*
X78080200Y-45953700D01*
X77823400Y-45228700D02*
X78569400Y-45041100D01*
X54377800Y-48191700D02*
X53776200Y-47712500D01*
X54377800Y-48191700D02*
X53844200Y-48745700D01*
X78740000Y-45720000D02*
X76766900Y-44662400D01*
X76766900Y-44662400D02*
X76702860Y-44630500D01*
X76702860Y-44630500D02*
X76637040Y-44602460D01*
X76637040Y-44602460D02*
X76569660Y-44578400D01*
X76569660Y-44578400D02*
X76500970Y-44558400D01*
X76500970Y-44558400D02*
X76431210Y-44542530D01*
X76431210Y-44542530D02*
X76360630Y-44530840D01*
X76360630Y-44530840D02*
X76289480Y-44523390D01*
X76289480Y-44523390D02*
X76218000Y-44520180D01*
X76218000Y-44520180D02*
X76146470Y-44521240D01*
X76146470Y-44521240D02*
X76075120Y-44526560D01*
X76075120Y-44526560D02*
X76004220Y-44536120D01*
X76004220Y-44536120D02*
X75934020Y-44549890D01*
X75934020Y-44549890D02*
X75864760Y-44567830D01*
X75864760Y-44567830D02*
X75796690Y-44589850D01*
X75796690Y-44589850D02*
X75730050Y-44615900D01*
X75730050Y-44615900D02*
X75665090Y-44645870D01*
X75665090Y-44645870D02*
X75602030Y-44679650D01*
X75602030Y-44679650D02*
X75541090Y-44717140D01*
X75541090Y-44717140D02*
X75482490Y-44758190D01*
X75482490Y-44758190D02*
X75426450Y-44802660D01*
X75426450Y-44802660D02*
X75373160Y-44850390D01*
X75373160Y-44850390D02*
X75322800Y-44901210D01*
X75322800Y-44901210D02*
X75275560Y-44954940D01*
X75275560Y-44954940D02*
X75231610Y-45011400D01*
X75231610Y-45011400D02*
X75191100Y-45070370D01*
X75191100Y-45070370D02*
X75154180Y-45131650D01*
X75154180Y-45131650D02*
X75120980Y-45195020D01*
X75120980Y-45195020D02*
X75091610Y-45260260D01*
X75091610Y-45260260D02*
X75066180Y-45327130D01*
X75066100Y-45327100D02*
X74793900Y-46112900D01*
X73738800Y-46917400D02*
X73805440Y-46911140D01*
X73805440Y-46911140D02*
X73871630Y-46901180D01*
X73871630Y-46901180D02*
X73937160Y-46887540D01*
X73937160Y-46887540D02*
X74001830Y-46870270D01*
X74001830Y-46870270D02*
X74065440Y-46849420D01*
X74065440Y-46849420D02*
X74127780Y-46825060D01*
X74127780Y-46825060D02*
X74188670Y-46797260D01*
X74188670Y-46797260D02*
X74247910Y-46766110D01*
X74247910Y-46766110D02*
X74305330Y-46731700D01*
X74305330Y-46731700D02*
X74360730Y-46694140D01*
X74360730Y-46694140D02*
X74413960Y-46653550D01*
X74413960Y-46653550D02*
X74464840Y-46610060D01*
X74464840Y-46610060D02*
X74513210Y-46563800D01*
X74513210Y-46563800D02*
X74558940Y-46514920D01*
X74558940Y-46514920D02*
X74601860Y-46463560D01*
X74601860Y-46463560D02*
X74641850Y-46409880D01*
X74641850Y-46409880D02*
X74678790Y-46354060D01*
X74678790Y-46354060D02*
X74712560Y-46296270D01*
X74712560Y-46296270D02*
X74743060Y-46236690D01*
X74743060Y-46236690D02*
X74770180Y-46175490D01*
X74770180Y-46175490D02*
X74793850Y-46112880D01*
X73738800Y-46917400D02*
X53340000Y-48260000D01*
%TO.N,Net-(U3-Pad1)*%
X94676100Y-61732700D02*
X94680000Y-60963600D01*
X94676100Y-61732700D02*
X93910800Y-61656600D01*
X93980000Y-60960000D02*
X95243100Y-62362200D01*
X95671700Y-63667300D02*
X95678110Y-63579160D01*
X95678110Y-63579160D02*
X95679930Y-63490810D01*
X95679930Y-63490810D02*
X95677150Y-63402490D01*
X95677150Y-63402490D02*
X95669790Y-63314420D01*
X95669790Y-63314420D02*
X95657870Y-63226860D01*
X95657870Y-63226860D02*
X95641410Y-63140040D01*
X95641410Y-63140040D02*
X95620450Y-63054190D01*
X95620450Y-63054190D02*
X95595070Y-62969540D01*
X95595070Y-62969540D02*
X95565320Y-62886330D01*
X95565320Y-62886330D02*
X95531290Y-62804780D01*
X95531290Y-62804780D02*
X95493070Y-62725100D01*
X95493070Y-62725100D02*
X95450750Y-62647520D01*
X95450750Y-62647520D02*
X95404470Y-62572240D01*
X95404470Y-62572240D02*
X95354330Y-62499470D01*
X95354330Y-62499470D02*
X95300480Y-62429410D01*
X95300480Y-62429410D02*
X95243060Y-62362230D01*
X95671700Y-63667300D02*
X95174200Y-68698100D01*
X94615000Y-69598200D02*
X94668830Y-69562580D01*
X94668830Y-69562580D02*
X94720670Y-69524120D01*
X94720670Y-69524120D02*
X94770370Y-69482920D01*
X94770370Y-69482920D02*
X94817780Y-69439120D01*
X94817780Y-69439120D02*
X94862770Y-69392820D01*
X94862770Y-69392820D02*
X94905200Y-69344180D01*
X94905200Y-69344180D02*
X94944950Y-69293320D01*
X94944950Y-69293320D02*
X94981910Y-69240400D01*
X94981910Y-69240400D02*
X95015980Y-69185570D01*
X95015980Y-69185570D02*
X95047040Y-69128980D01*
X95047040Y-69128980D02*
X95075020Y-69070810D01*
X95075020Y-69070810D02*
X95099830Y-69011210D01*
X95099830Y-69011210D02*
X95121390Y-68950370D01*
X95121390Y-68950370D02*
X95139660Y-68888460D01*
X95139660Y-68888460D02*
X95154570Y-68825660D01*
X95154570Y-68825660D02*
X95166080Y-68762140D01*
X95166080Y-68762140D02*
X95174160Y-68698100D01*
X94615000Y-69598200D02*
X87212900Y-74214800D01*
X87160000Y-74230000D02*
X87164650Y-74229890D01*
X87164650Y-74229890D02*
X87169280Y-74229570D01*
X87169280Y-74229570D02*
X87173900Y-74229030D01*
X87173900Y-74229030D02*
X87178480Y-74228280D01*
X87178480Y-74228280D02*
X87183030Y-74227310D01*
X87183030Y-74227310D02*
X87187530Y-74226140D01*
X87187530Y-74226140D02*
X87191960Y-74224750D01*
X87191960Y-74224750D02*
X87196330Y-74223170D01*
X87196330Y-74223170D02*
X87200620Y-74221380D01*
X87200620Y-74221380D02*
X87204820Y-74219390D01*
X87204820Y-74219390D02*
X87208930Y-74217210D01*
X87208930Y-74217210D02*
X87212930Y-74214840D01*
X87160000Y-74230000D02*
X87060000Y-74230000D01*
X87060000Y-74230000D02*
X86360000Y-74930000D01*
%TO.N,~E8-in~*%
X38673900Y-79237300D02*
X38670000Y-80006400D01*
X38673900Y-79237300D02*
X39439200Y-79313400D01*
X39370000Y-80010000D02*
X38106900Y-78607800D01*
X37670000Y-77470000D02*
X37672330Y-77559000D01*
X37672330Y-77559000D02*
X37679320Y-77647750D01*
X37679320Y-77647750D02*
X37690940Y-77736020D01*
X37690940Y-77736020D02*
X37707170Y-77823550D01*
X37707170Y-77823550D02*
X37727960Y-77910120D01*
X37727960Y-77910120D02*
X37753250Y-77995480D01*
X37753250Y-77995480D02*
X37782980Y-78079400D01*
X37782980Y-78079400D02*
X37817060Y-78161650D01*
X37817060Y-78161650D02*
X37855400Y-78242000D01*
X37855400Y-78242000D02*
X37897890Y-78320230D01*
X37897890Y-78320230D02*
X37944420Y-78396130D01*
X37944420Y-78396130D02*
X37994860Y-78469490D01*
X37994860Y-78469490D02*
X38049070Y-78540110D01*
X38049070Y-78540110D02*
X38106900Y-78607800D01*
X37670000Y-77470000D02*
X37670000Y-74930000D01*
X37673700Y-74818500D02*
X37672100Y-74846350D01*
X37672100Y-74846350D02*
X37670950Y-74874220D01*
X37670950Y-74874220D02*
X37670270Y-74902110D01*
X37670270Y-74902110D02*
X37670040Y-74930000D01*
X37673700Y-74818500D02*
X38172600Y-67231300D01*
X38977100Y-66176100D02*
X38914480Y-66199770D01*
X38914480Y-66199770D02*
X38853280Y-66226900D01*
X38853280Y-66226900D02*
X38793690Y-66257400D01*
X38793690Y-66257400D02*
X38735890Y-66291170D01*
X38735890Y-66291170D02*
X38680070Y-66328120D01*
X38680070Y-66328120D02*
X38626390Y-66368120D01*
X38626390Y-66368120D02*
X38575030Y-66411050D01*
X38575030Y-66411050D02*
X38526130Y-66456780D01*
X38526130Y-66456780D02*
X38479870Y-66505160D01*
X38479870Y-66505160D02*
X38436380Y-66556050D01*
X38436380Y-66556050D02*
X38395790Y-66609280D01*
X38395790Y-66609280D02*
X38358230Y-66664690D01*
X38358230Y-66664690D02*
X38323820Y-66722120D01*
X38323820Y-66722120D02*
X38292670Y-66781370D01*
X38292670Y-66781370D02*
X38264860Y-66842270D01*
X38264860Y-66842270D02*
X38240500Y-66904620D01*
X38240500Y-66904620D02*
X38219650Y-66968230D01*
X38219650Y-66968230D02*
X38202390Y-67032910D01*
X38202390Y-67032910D02*
X38188750Y-67098450D01*
X38188750Y-67098450D02*
X38178790Y-67164650D01*
X38178790Y-67164650D02*
X38172540Y-67231300D01*
X38977100Y-66176100D02*
X39762900Y-65903900D01*
X39762900Y-65903900D02*
X39825820Y-65880100D01*
X39825820Y-65880100D02*
X39887310Y-65852820D01*
X39887310Y-65852820D02*
X39947180Y-65822130D01*
X39947180Y-65822130D02*
X40005230Y-65788130D01*
X40005230Y-65788130D02*
X40061280Y-65750930D01*
X40061280Y-65750930D02*
X40115160Y-65710660D01*
X40115160Y-65710660D02*
X40166700Y-65667420D01*
X40166700Y-65667420D02*
X40215740Y-65621370D01*
X40215740Y-65621370D02*
X40262120Y-65572640D01*
X40262120Y-65572640D02*
X40305690Y-65521390D01*
X40305690Y-65521390D02*
X40346330Y-65467770D01*
X40346330Y-65467770D02*
X40383890Y-65411970D01*
X40383890Y-65411970D02*
X40418270Y-65354140D01*
X40418270Y-65354140D02*
X40449360Y-65294490D01*
X40449360Y-65294490D02*
X40477050Y-65233180D01*
X40477050Y-65233180D02*
X40501270Y-65170420D01*
X40501270Y-65170420D02*
X40521930Y-65106400D01*
X40521930Y-65106400D02*
X40538970Y-65041320D01*
X40538970Y-65041320D02*
X40552340Y-64975390D01*
X40552340Y-64975390D02*
X40561990Y-64908810D01*
X40561900Y-64908800D02*
X41205000Y-59385300D01*
X41230500Y-59214100D02*
X41223090Y-59256740D01*
X41223090Y-59256740D02*
X41216370Y-59299490D01*
X41216370Y-59299490D02*
X41210330Y-59342350D01*
X41210330Y-59342350D02*
X41204990Y-59385300D01*
X41230500Y-59214100D02*
X41534500Y-57543900D01*
X41534500Y-57543900D02*
X41539910Y-57512920D01*
X41539910Y-57512920D02*
X41544880Y-57481860D01*
X41544880Y-57481860D02*
X41549400Y-57450730D01*
X41549400Y-57450730D02*
X41553480Y-57419540D01*
X41553480Y-57419540D02*
X41557110Y-57388300D01*
X41557100Y-57388300D02*
X42041800Y-52939300D01*
X42070100Y-52733000D02*
X42061920Y-52784420D01*
X42061920Y-52784420D02*
X42054460Y-52835950D01*
X42054460Y-52835950D02*
X42047730Y-52887570D01*
X42047730Y-52887570D02*
X42041730Y-52939290D01*
X42070100Y-52733000D02*
X44536300Y-37903100D01*
X44579100Y-37728000D02*
X44570140Y-37756700D01*
X44570140Y-37756700D02*
X44561900Y-37785620D01*
X44561900Y-37785620D02*
X44554380Y-37814740D01*
X44554380Y-37814740D02*
X44547600Y-37844040D01*
X44547600Y-37844040D02*
X44541560Y-37873490D01*
X44541560Y-37873490D02*
X44536250Y-37903090D01*
X44579100Y-37728000D02*
X45015100Y-36391000D01*
X45015100Y-36391000D02*
X45016250Y-36387230D01*
X45016250Y-36387230D02*
X45017240Y-36383420D01*
X45017240Y-36383420D02*
X45018090Y-36379570D01*
X45018090Y-36379570D02*
X45018790Y-36375690D01*
X45018790Y-36375690D02*
X45019330Y-36371790D01*
X45019330Y-36371790D02*
X45019710Y-36367870D01*
X45019710Y-36367870D02*
X45019950Y-36363940D01*
X45019950Y-36363940D02*
X45020030Y-36360000D01*
X45020000Y-36360000D02*
X45020000Y-36260000D01*
X45020000Y-36260000D02*
X45720000Y-35560000D01*
%TO.N,Net-(C11-Pad1)*%
X74673500Y-108339200D02*
X74745100Y-109150200D01*
X74673500Y-108339200D02*
X75485700Y-108283800D01*
X34138800Y-98819000D02*
X34733700Y-98331500D01*
X34138800Y-98819000D02*
X33709300Y-98180900D01*
X75540000Y-109080000D02*
X73939700Y-107711800D01*
X73939700Y-107711800D02*
X73870640Y-107655650D01*
X73870640Y-107655650D02*
X73798890Y-107602990D01*
X73798890Y-107602990D02*
X73724620Y-107553940D01*
X73724620Y-107553940D02*
X73648020Y-107508620D01*
X73648020Y-107508620D02*
X73569270Y-107467140D01*
X73569270Y-107467140D02*
X73488570Y-107429600D01*
X73488570Y-107429600D02*
X73406110Y-107396100D01*
X73406110Y-107396100D02*
X73322100Y-107366710D01*
X73322100Y-107366710D02*
X73236740Y-107341520D01*
X73236740Y-107341520D02*
X73150230Y-107320570D01*
X73150230Y-107320570D02*
X73062800Y-107303930D01*
X73062800Y-107303930D02*
X72974650Y-107291620D01*
X72974650Y-107291620D02*
X72886000Y-107283690D01*
X72886000Y-107283700D02*
X58322300Y-106343500D01*
X58322300Y-106343500D02*
X58313230Y-106342980D01*
X58313230Y-106342980D02*
X58304160Y-106342600D01*
X58304160Y-106342600D02*
X58295080Y-106342360D01*
X58295080Y-106342360D02*
X58286000Y-106342260D01*
X58286000Y-106342300D02*
X56663800Y-106335800D01*
X56663800Y-106335800D02*
X56653050Y-106335850D01*
X56653050Y-106335850D02*
X56642300Y-106336100D01*
X56642300Y-106336100D02*
X56631550Y-106336540D01*
X56631550Y-106336540D02*
X56620820Y-106337170D01*
X56620820Y-106337170D02*
X56610100Y-106337990D01*
X56610100Y-106338000D02*
X40246900Y-107741700D01*
X40170000Y-107745000D02*
X40185400Y-107744870D01*
X40185400Y-107744870D02*
X40200790Y-107744470D01*
X40200790Y-107744470D02*
X40216180Y-107743810D01*
X40216180Y-107743810D02*
X40231550Y-107742890D01*
X40231550Y-107742890D02*
X40246900Y-107741710D01*
X40170000Y-107745000D02*
X36830000Y-107745000D01*
X36495400Y-107711700D02*
X36550610Y-107721840D01*
X36550610Y-107721840D02*
X36606120Y-107730150D01*
X36606120Y-107730150D02*
X36661880Y-107736620D01*
X36661880Y-107736620D02*
X36717820Y-107741250D01*
X36717820Y-107741250D02*
X36773880Y-107744030D01*
X36773880Y-107744030D02*
X36830000Y-107744950D01*
X36495400Y-107711700D02*
X34053800Y-107221500D01*
X33102700Y-105870600D02*
X33094540Y-105940200D01*
X33094540Y-105940200D02*
X33090470Y-106010160D01*
X33090470Y-106010160D02*
X33090480Y-106080240D01*
X33090480Y-106080240D02*
X33094580Y-106150190D01*
X33094580Y-106150190D02*
X33102760Y-106219790D01*
X33102760Y-106219790D02*
X33114990Y-106288800D01*
X33114990Y-106288800D02*
X33131220Y-106356970D01*
X33131220Y-106356970D02*
X33151400Y-106424070D01*
X33151400Y-106424070D02*
X33175470Y-106489890D01*
X33175470Y-106489890D02*
X33203340Y-106554190D01*
X33203340Y-106554190D02*
X33234920Y-106616750D01*
X33234920Y-106616750D02*
X33270090Y-106677360D01*
X33270090Y-106677360D02*
X33308740Y-106735810D01*
X33308740Y-106735810D02*
X33350740Y-106791910D01*
X33350740Y-106791910D02*
X33395940Y-106845470D01*
X33395940Y-106845470D02*
X33444180Y-106896290D01*
X33444180Y-106896290D02*
X33495320Y-106944210D01*
X33495320Y-106944210D02*
X33549160Y-106989060D01*
X33549160Y-106989060D02*
X33605530Y-107030700D01*
X33605530Y-107030700D02*
X33664230Y-107068970D01*
X33664230Y-107068970D02*
X33725070Y-107103750D01*
X33725070Y-107103750D02*
X33787830Y-107134920D01*
X33787830Y-107134920D02*
X33852310Y-107162370D01*
X33852310Y-107162370D02*
X33918280Y-107186020D01*
X33918280Y-107186020D02*
X33985510Y-107205770D01*
X33985510Y-107205770D02*
X34053790Y-107221560D01*
X33102700Y-105870600D02*
X34290000Y-97790000D01*
%TO.N,Net-(C13-Pad1)*%
X74121100Y-110780500D02*
X73568800Y-111378500D01*
X74121100Y-110780500D02*
X74708000Y-111344700D01*
X37746600Y-113173700D02*
X37000600Y-112986100D01*
X37746600Y-113173700D02*
X37489800Y-113898700D01*
X74155000Y-111920000D02*
X74069400Y-109041400D01*
X74069400Y-109041400D02*
X74065110Y-108967710D01*
X74065110Y-108967710D02*
X74056650Y-108894370D01*
X74056650Y-108894370D02*
X74044040Y-108821640D01*
X74044040Y-108821640D02*
X74027320Y-108749740D01*
X74027320Y-108749740D02*
X74006550Y-108678910D01*
X74006550Y-108678910D02*
X73981790Y-108609360D01*
X73981790Y-108609360D02*
X73953120Y-108541340D01*
X73953120Y-108541340D02*
X73920640Y-108475050D01*
X73920640Y-108475050D02*
X73884450Y-108410720D01*
X73884450Y-108410720D02*
X73844660Y-108348540D01*
X73844660Y-108348540D02*
X73801410Y-108288720D01*
X73801410Y-108288720D02*
X73754830Y-108231450D01*
X73754830Y-108231450D02*
X73705080Y-108176920D01*
X73705080Y-108176920D02*
X73652310Y-108125300D01*
X73652310Y-108125300D02*
X73596700Y-108076750D01*
X73596700Y-108076750D02*
X73538420Y-108031450D01*
X73538420Y-108031450D02*
X73477660Y-107989520D01*
X73477660Y-107989520D02*
X73414620Y-107951110D01*
X73414620Y-107951110D02*
X73349510Y-107916340D01*
X73349510Y-107916340D02*
X73282520Y-107885320D01*
X73282520Y-107885320D02*
X73213880Y-107858160D01*
X73213880Y-107858160D02*
X73143820Y-107834930D01*
X73143820Y-107834930D02*
X73072540Y-107815720D01*
X73072540Y-107815720D02*
X73000290Y-107800590D01*
X73000290Y-107800590D02*
X72927300Y-107789580D01*
X72927300Y-107789580D02*
X72853800Y-107782730D01*
X72853800Y-107782700D02*
X58290100Y-106842500D01*
X58290100Y-106842500D02*
X58284000Y-106842300D01*
X58284000Y-106842300D02*
X56661800Y-106835800D01*
X56661800Y-106835800D02*
X56657840Y-106835860D01*
X56657840Y-106835860D02*
X56653880Y-106836080D01*
X56653880Y-106836080D02*
X56649940Y-106836450D01*
X56649940Y-106836450D02*
X56646010Y-106836980D01*
X56646010Y-106836980D02*
X56642110Y-106837670D01*
X56642110Y-106837670D02*
X56638240Y-106838500D01*
X56638240Y-106838500D02*
X56634400Y-106839490D01*
X56634400Y-106839490D02*
X56630610Y-106840630D01*
X56630600Y-106840600D02*
X39001900Y-112522900D01*
X39001900Y-112522900D02*
X38967760Y-112534470D01*
X38967760Y-112534470D02*
X38933980Y-112547070D01*
X38933980Y-112547070D02*
X38900590Y-112560670D01*
X38900590Y-112560670D02*
X38867630Y-112575270D01*
X38867630Y-112575270D02*
X38835130Y-112590850D01*
X38835130Y-112590850D02*
X38803100Y-112607400D01*
X38803100Y-112607400D02*
X36830000Y-113665000D01*
%TO.N,Net-(D2-Pad1)*%
X70877000Y-109808300D02*
X70793800Y-108998500D01*
X70877000Y-109808300D02*
X70065600Y-109875300D01*
X70000000Y-109080000D02*
X72215500Y-110919900D01*
X72605200Y-111471600D02*
X72582390Y-111413830D01*
X72582390Y-111413830D02*
X72556850Y-111357210D01*
X72556850Y-111357210D02*
X72528630Y-111301880D01*
X72528630Y-111301880D02*
X72497800Y-111247960D01*
X72497800Y-111247960D02*
X72464430Y-111195570D01*
X72464430Y-111195570D02*
X72428590Y-111144840D01*
X72428590Y-111144840D02*
X72390370Y-111095880D01*
X72390370Y-111095880D02*
X72349860Y-111048800D01*
X72349860Y-111048800D02*
X72307150Y-111003710D01*
X72307150Y-111003710D02*
X72262330Y-110960700D01*
X72262330Y-110960700D02*
X72215500Y-110919890D01*
X72605200Y-111471600D02*
X72934800Y-112368400D01*
X72934800Y-112368400D02*
X72963840Y-112440660D01*
X72963840Y-112440660D02*
X72997150Y-112511040D01*
X72997150Y-112511040D02*
X73034620Y-112579310D01*
X73034620Y-112579310D02*
X73076100Y-112645210D01*
X73076100Y-112645210D02*
X73121460Y-112708510D01*
X73121460Y-112708510D02*
X73170530Y-112768980D01*
X73170530Y-112768980D02*
X73223130Y-112826400D01*
X73223130Y-112826400D02*
X73279070Y-112880570D01*
X73279070Y-112880570D02*
X73338160Y-112931300D01*
X73338160Y-112931300D02*
X73400180Y-112978390D01*
X73400180Y-112978390D02*
X73464900Y-113021690D01*
X73464900Y-113021690D02*
X73532100Y-113061030D01*
X73532100Y-113061030D02*
X73601540Y-113096280D01*
X73601540Y-113096280D02*
X73672970Y-113127310D01*
X73672970Y-113127310D02*
X73746120Y-113154000D01*
X73746120Y-113154000D02*
X73820740Y-113176270D01*
X73820740Y-113176270D02*
X73896560Y-113194030D01*
X73896560Y-113194030D02*
X73973310Y-113207220D01*
X73973310Y-113207220D02*
X74050710Y-113215790D01*
X74050710Y-113215790D02*
X74128480Y-113219710D01*
X74128480Y-113219710D02*
X74206350Y-113218970D01*
X74206350Y-113218970D02*
X74284030Y-113213560D01*
X74284030Y-113213560D02*
X74361260Y-113203510D01*
X74361260Y-113203510D02*
X74437740Y-113188860D01*
X74437740Y-113188860D02*
X74513200Y-113169660D01*
X74513200Y-113169660D02*
X74587390Y-113145970D01*
X74587390Y-113145970D02*
X74660020Y-113117880D01*
X74660020Y-113117880D02*
X74730830Y-113085490D01*
X74730830Y-113085490D02*
X74799590Y-113048920D01*
X74799590Y-113048920D02*
X74866020Y-113008300D01*
X74866020Y-113008300D02*
X74929910Y-112963770D01*
X74929910Y-112963770D02*
X74991020Y-112915500D01*
X74991020Y-112915500D02*
X75049120Y-112863660D01*
X75049120Y-112863660D02*
X75104020Y-112808430D01*
X75104020Y-112808430D02*
X75155510Y-112750010D01*
X75155500Y-112750000D02*
X79073100Y-108027500D01*
X79115200Y-107981800D02*
X79106410Y-107990590D01*
X79106410Y-107990590D02*
X79097800Y-107999560D01*
X79097800Y-107999560D02*
X79089380Y-108008700D01*
X79089380Y-108008700D02*
X79081140Y-108018020D01*
X79081140Y-108018020D02*
X79073110Y-108027510D01*
X79115200Y-107981800D02*
X79129500Y-107967800D01*
X79129500Y-107967800D02*
X79130500Y-107966800D01*
X79130500Y-107966800D02*
X79851000Y-107264700D01*
X79851000Y-107264700D02*
X79851100Y-107264700D01*
X79851100Y-107264700D02*
X79967400Y-107151400D01*
X80131100Y-107038000D02*
X80108690Y-107049100D01*
X80108690Y-107049100D02*
X80086770Y-107061130D01*
X80086770Y-107061130D02*
X80065360Y-107074050D01*
X80065360Y-107074050D02*
X80044510Y-107087860D01*
X80044510Y-107087860D02*
X80024250Y-107102520D01*
X80024250Y-107102520D02*
X80004620Y-107118020D01*
X80004620Y-107118020D02*
X79985660Y-107134310D01*
X79985660Y-107134310D02*
X79967390Y-107151390D01*
X80131100Y-107038000D02*
X80149200Y-107029500D01*
X80149200Y-107029500D02*
X80151300Y-107028500D01*
X80151300Y-107028500D02*
X81210700Y-106535900D01*
X81401200Y-106483200D02*
X81376580Y-106486300D01*
X81376580Y-106486300D02*
X81352100Y-106490420D01*
X81352100Y-106490420D02*
X81327820Y-106495540D01*
X81327820Y-106495540D02*
X81303770Y-106501660D01*
X81303770Y-106501660D02*
X81279990Y-106508770D01*
X81279990Y-106508770D02*
X81256530Y-106516860D01*
X81256530Y-106516860D02*
X81233420Y-106525910D01*
X81233420Y-106525910D02*
X81210700Y-106535910D01*
X81401200Y-106483200D02*
X81421200Y-106481100D01*
X81421200Y-106481100D02*
X81425300Y-106480700D01*
X81425300Y-106480700D02*
X82588100Y-106366700D01*
X82632200Y-106364000D02*
X82623370Y-106364280D01*
X82623370Y-106364280D02*
X82614540Y-106364690D01*
X82614540Y-106364690D02*
X82605710Y-106365230D01*
X82605710Y-106365230D02*
X82596900Y-106365890D01*
X82596900Y-106365890D02*
X82588100Y-106366690D01*
X82632200Y-106364000D02*
X93177600Y-106110000D01*
X93177600Y-106110000D02*
X93180000Y-106110000D01*
X93180000Y-106110000D02*
X93280000Y-106110000D01*
X93280000Y-106110000D02*
X93980000Y-105410000D01*
%TO.N,Net-(J2-Pad6)*%
X66851700Y-112455000D02*
X66605700Y-111679000D01*
X66851700Y-112455000D02*
X66070900Y-112685400D01*
X65845000Y-111920000D02*
X68004900Y-113067900D01*
X68004900Y-113067900D02*
X68056260Y-113093760D01*
X68056260Y-113093760D02*
X68108720Y-113117320D01*
X68108720Y-113117320D02*
X68162170Y-113138540D01*
X68162170Y-113138540D02*
X68216510Y-113157380D01*
X68216510Y-113157380D02*
X68271620Y-113173790D01*
X68271620Y-113173790D02*
X68327410Y-113187750D01*
X68327410Y-113187750D02*
X68383760Y-113199230D01*
X68383760Y-113199230D02*
X68440560Y-113208200D01*
X68440560Y-113208200D02*
X68497700Y-113214660D01*
X68497700Y-113214700D02*
X73992500Y-113712700D01*
X73992500Y-113712700D02*
X74089170Y-113718850D01*
X74089170Y-113718850D02*
X74186030Y-113719780D01*
X74186030Y-113719780D02*
X74282790Y-113715510D01*
X74282790Y-113715510D02*
X74379190Y-113706030D01*
X74379190Y-113706030D02*
X74474940Y-113691390D01*
X74474940Y-113691390D02*
X74569760Y-113671610D01*
X74569760Y-113671610D02*
X74663390Y-113646770D01*
X74663390Y-113646770D02*
X74755540Y-113616920D01*
X74755540Y-113616920D02*
X74845950Y-113582160D01*
X74845950Y-113582160D02*
X74934360Y-113542590D01*
X74934360Y-113542590D02*
X75020510Y-113498310D01*
X75020510Y-113498310D02*
X75104160Y-113449470D01*
X75104160Y-113449470D02*
X75185060Y-113396200D01*
X75185060Y-113396200D02*
X75262970Y-113338650D01*
X75262970Y-113338650D02*
X75337680Y-113277000D01*
X75337680Y-113277000D02*
X75408960Y-113211420D01*
X75408960Y-113211420D02*
X75476610Y-113142090D01*
X75476610Y-113142090D02*
X75540440Y-113069230D01*
X75540400Y-113069200D02*
X79458000Y-108346700D01*
X79465000Y-108339100D02*
X79463540Y-108340560D01*
X79463540Y-108340560D02*
X79462110Y-108342050D01*
X79462110Y-108342050D02*
X79460700Y-108343570D01*
X79460700Y-108343570D02*
X79459340Y-108345120D01*
X79459340Y-108345120D02*
X79458000Y-108346700D01*
X79465000Y-108339100D02*
X79479300Y-108325100D01*
X79479300Y-108325100D02*
X79479500Y-108324900D01*
X79479500Y-108324900D02*
X80316300Y-107509500D01*
X80343700Y-107490500D02*
X80339950Y-107492360D01*
X80339950Y-107492360D02*
X80336270Y-107494370D01*
X80336270Y-107494370D02*
X80332690Y-107496530D01*
X80332690Y-107496530D02*
X80329200Y-107498840D01*
X80329200Y-107498840D02*
X80325800Y-107501300D01*
X80325800Y-107501300D02*
X80322520Y-107503890D01*
X80322520Y-107503890D02*
X80319340Y-107506620D01*
X80319340Y-107506620D02*
X80316280Y-107509480D01*
X80343700Y-107490500D02*
X80361800Y-107482000D01*
X80361800Y-107482000D02*
X80362100Y-107481900D01*
X80362100Y-107481900D02*
X81421500Y-106989300D01*
X81453400Y-106980400D02*
X81449270Y-106980920D01*
X81449270Y-106980920D02*
X81445170Y-106981610D01*
X81445170Y-106981610D02*
X81441100Y-106982470D01*
X81441100Y-106982470D02*
X81437070Y-106983500D01*
X81437070Y-106983500D02*
X81433080Y-106984690D01*
X81433080Y-106984690D02*
X81429150Y-106986050D01*
X81429150Y-106986050D02*
X81425280Y-106987560D01*
X81425280Y-106987560D02*
X81421470Y-106989240D01*
X81453400Y-106980400D02*
X81473400Y-106978300D01*
X81473400Y-106978300D02*
X81474100Y-106978300D01*
X81474100Y-106978300D02*
X82636900Y-106864300D01*
X82636900Y-106864300D02*
X82646700Y-106863800D01*
X82646700Y-106863800D02*
X104560000Y-106863800D01*
X104560000Y-106863800D02*
X104660000Y-106863800D01*
X104660000Y-106863800D02*
X105410000Y-106680000D01*
%TO.N,~F_IN~*%
X25831000Y-67940000D02*
X25041200Y-67981000D01*
X25831000Y-67940000D02*
X25830000Y-68731000D01*
X31154800Y-60542900D02*
X31905000Y-60372700D01*
X31154800Y-60542900D02*
X31055800Y-59780100D01*
X25080000Y-68730000D02*
X26348400Y-67395700D01*
X26348400Y-67395700D02*
X26378290Y-67363450D01*
X26378290Y-67363450D02*
X26407370Y-67330460D01*
X26407370Y-67330460D02*
X26435600Y-67296750D01*
X26435600Y-67296750D02*
X26462980Y-67262340D01*
X26462980Y-67262340D02*
X26489490Y-67227250D01*
X26489490Y-67227250D02*
X26515110Y-67191510D01*
X26515100Y-67191500D02*
X31750000Y-59690000D01*
%TO.N,JSTK*%
X43934000Y-59219800D02*
X43714200Y-59596800D01*
X43934000Y-59219800D02*
X44076000Y-59632400D01*
X109486000Y-73388600D02*
X109900100Y-74036800D01*
X109486000Y-73388600D02*
X110170300Y-73037200D01*
X43886900Y-59697500D02*
X44525800Y-53222200D01*
X45720000Y-52140000D02*
X45652080Y-52141920D01*
X45652080Y-52141920D02*
X45584370Y-52147690D01*
X45584370Y-52147690D02*
X45517100Y-52157280D01*
X45517100Y-52157280D02*
X45450480Y-52170660D01*
X45450480Y-52170660D02*
X45384720Y-52187790D01*
X45384720Y-52187790D02*
X45320040Y-52208610D01*
X45320040Y-52208610D02*
X45256640Y-52233070D01*
X45256640Y-52233070D02*
X45194730Y-52261070D01*
X45194730Y-52261070D02*
X45134500Y-52292530D01*
X45134500Y-52292530D02*
X45076150Y-52327350D01*
X45076150Y-52327350D02*
X45019860Y-52365420D01*
X45019860Y-52365420D02*
X44965820Y-52406610D01*
X44965820Y-52406610D02*
X44914200Y-52450800D01*
X44914200Y-52450800D02*
X44865160Y-52497830D01*
X44865160Y-52497830D02*
X44818860Y-52547570D01*
X44818860Y-52547570D02*
X44775450Y-52599850D01*
X44775450Y-52599850D02*
X44735070Y-52654500D01*
X44735070Y-52654500D02*
X44697850Y-52711350D01*
X44697850Y-52711350D02*
X44663900Y-52770220D01*
X44663900Y-52770220D02*
X44633340Y-52830910D01*
X44633340Y-52830910D02*
X44606270Y-52893230D01*
X44606270Y-52893230D02*
X44582770Y-52956990D01*
X44582770Y-52956990D02*
X44562910Y-53021970D01*
X44562910Y-53021970D02*
X44546760Y-53087980D01*
X44546760Y-53087980D02*
X44534380Y-53154790D01*
X44534380Y-53154790D02*
X44525800Y-53222200D01*
X45720000Y-52140000D02*
X87160000Y-52140000D01*
X87470900Y-52288300D02*
X87457300Y-52272370D01*
X87457300Y-52272370D02*
X87442880Y-52257180D01*
X87442880Y-52257180D02*
X87427690Y-52242760D01*
X87427690Y-52242760D02*
X87411770Y-52229150D01*
X87411770Y-52229150D02*
X87395150Y-52216400D01*
X87395150Y-52216400D02*
X87377890Y-52204540D01*
X87377890Y-52204540D02*
X87360030Y-52193590D01*
X87360030Y-52193590D02*
X87341630Y-52183600D01*
X87341630Y-52183600D02*
X87322720Y-52174580D01*
X87322720Y-52174580D02*
X87303370Y-52166560D01*
X87303370Y-52166560D02*
X87283630Y-52159570D01*
X87283630Y-52159570D02*
X87263550Y-52153620D01*
X87263550Y-52153620D02*
X87243180Y-52148730D01*
X87243180Y-52148730D02*
X87222580Y-52144910D01*
X87222580Y-52144910D02*
X87201820Y-52142180D01*
X87201820Y-52142180D02*
X87180940Y-52140530D01*
X87180940Y-52140530D02*
X87160000Y-52139990D01*
X87470900Y-52288300D02*
X93047400Y-59175200D01*
X93047400Y-59175200D02*
X93083420Y-59217630D01*
X93083420Y-59217630D02*
X93121360Y-59258340D01*
X93121360Y-59258340D02*
X93161150Y-59297250D01*
X93161150Y-59297250D02*
X93202710Y-59334270D01*
X93202710Y-59334270D02*
X93245930Y-59369320D01*
X93245930Y-59369320D02*
X93290740Y-59402340D01*
X93290740Y-59402340D02*
X93337020Y-59433240D01*
X93337020Y-59433240D02*
X93384690Y-59461960D01*
X93384690Y-59461960D02*
X93433640Y-59488440D01*
X93433640Y-59488440D02*
X93483760Y-59512620D01*
X93483760Y-59512620D02*
X93534960Y-59534450D01*
X93534960Y-59534450D02*
X93587100Y-59553890D01*
X93587100Y-59553900D02*
X94372900Y-59826100D01*
X94954100Y-60259100D02*
X94919950Y-60213930D01*
X94919950Y-60213930D02*
X94883710Y-60170410D01*
X94883710Y-60170410D02*
X94845450Y-60128660D01*
X94845450Y-60128660D02*
X94805270Y-60088760D01*
X94805270Y-60088760D02*
X94763240Y-60050790D01*
X94763240Y-60050790D02*
X94719480Y-60014850D01*
X94719480Y-60014850D02*
X94674070Y-59981020D01*
X94674070Y-59981020D02*
X94627110Y-59949370D01*
X94627110Y-59949370D02*
X94578710Y-59919960D01*
X94578710Y-59919960D02*
X94528980Y-59892880D01*
X94528980Y-59892880D02*
X94478020Y-59868170D01*
X94478020Y-59868170D02*
X94425960Y-59845890D01*
X94425960Y-59845890D02*
X94372900Y-59826090D01*
X94954100Y-60259100D02*
X102151200Y-70261600D01*
X102170000Y-70320000D02*
X102169890Y-70315210D01*
X102169890Y-70315210D02*
X102169540Y-70310420D01*
X102169540Y-70310420D02*
X102168970Y-70305660D01*
X102168970Y-70305660D02*
X102168170Y-70300930D01*
X102168170Y-70300930D02*
X102167140Y-70296250D01*
X102167140Y-70296250D02*
X102165890Y-70291620D01*
X102165890Y-70291620D02*
X102164420Y-70287050D01*
X102164420Y-70287050D02*
X102162730Y-70282570D01*
X102162730Y-70282570D02*
X102160830Y-70278160D01*
X102160830Y-70278160D02*
X102158720Y-70273860D01*
X102158720Y-70273860D02*
X102156400Y-70269660D01*
X102156400Y-70269660D02*
X102153890Y-70265570D01*
X102153890Y-70265570D02*
X102151180Y-70261610D01*
X102170000Y-70320000D02*
X102170000Y-70420000D01*
X102170000Y-70420000D02*
X102870000Y-71120000D01*
X102870000Y-71120000D02*
X103570000Y-71820000D01*
X103570000Y-71820000D02*
X103670000Y-71820000D01*
X103696100Y-71823500D02*
X103692440Y-71822580D01*
X103692440Y-71822580D02*
X103688750Y-71821810D01*
X103688750Y-71821810D02*
X103685030Y-71821170D01*
X103685030Y-71821170D02*
X103681290Y-71820670D01*
X103681290Y-71820670D02*
X103677540Y-71820320D01*
X103677540Y-71820320D02*
X103673770Y-71820100D01*
X103673770Y-71820100D02*
X103670000Y-71820030D01*
X103696100Y-71823500D02*
X110490000Y-73660000D01*
%TO.N,Net-(U10-Pad3)*%
X110981300Y-84736600D02*
X111168900Y-83990600D01*
X110981300Y-84736600D02*
X110256300Y-84479800D01*
X35206600Y-106536300D02*
X34949800Y-105811300D01*
X35206600Y-106536300D02*
X34460600Y-106723900D01*
X110490000Y-83820000D02*
X111547600Y-85793100D01*
X111666500Y-86123800D02*
X111657030Y-86080740D01*
X111657030Y-86080740D02*
X111645980Y-86038070D01*
X111645980Y-86038070D02*
X111633380Y-85995820D01*
X111633380Y-85995820D02*
X111619230Y-85954070D01*
X111619230Y-85954070D02*
X111603560Y-85912860D01*
X111603560Y-85912860D02*
X111586380Y-85872260D01*
X111586380Y-85872260D02*
X111567730Y-85832320D01*
X111567730Y-85832320D02*
X111547620Y-85793090D01*
X111666500Y-86123800D02*
X112156700Y-88565400D01*
X112156700Y-89234600D02*
X112169810Y-89160920D01*
X112169810Y-89160920D02*
X112179670Y-89086730D01*
X112179670Y-89086730D02*
X112186250Y-89012180D01*
X112186250Y-89012180D02*
X112189540Y-88937420D01*
X112189540Y-88937420D02*
X112189540Y-88862580D01*
X112189540Y-88862580D02*
X112186250Y-88787820D01*
X112186250Y-88787820D02*
X112179670Y-88713270D01*
X112179670Y-88713270D02*
X112169810Y-88639080D01*
X112169810Y-88639080D02*
X112156700Y-88565400D01*
X112156700Y-89234600D02*
X111666500Y-91676200D01*
X110882900Y-92573900D02*
X110944290Y-92550730D01*
X110944290Y-92550730D02*
X111004330Y-92524230D01*
X111004330Y-92524230D02*
X111062830Y-92494500D01*
X111062830Y-92494500D02*
X111119610Y-92461610D01*
X111119610Y-92461610D02*
X111174520Y-92425670D01*
X111174520Y-92425670D02*
X111227370Y-92386770D01*
X111227370Y-92386770D02*
X111278020Y-92345050D01*
X111278020Y-92345050D02*
X111326320Y-92300620D01*
X111326320Y-92300620D02*
X111372110Y-92253620D01*
X111372110Y-92253620D02*
X111415270Y-92204190D01*
X111415270Y-92204190D02*
X111455660Y-92152470D01*
X111455660Y-92152470D02*
X111493160Y-92098620D01*
X111493160Y-92098620D02*
X111527660Y-92042800D01*
X111527660Y-92042800D02*
X111559060Y-91985170D01*
X111559060Y-91985170D02*
X111587260Y-91925920D01*
X111587260Y-91925920D02*
X111612180Y-91865210D01*
X111612180Y-91865210D02*
X111633750Y-91803240D01*
X111633750Y-91803240D02*
X111651890Y-91740170D01*
X111651890Y-91740170D02*
X111666560Y-91676210D01*
X110882900Y-92573900D02*
X110097100Y-92846100D01*
X110097100Y-92846100D02*
X110068770Y-92856320D01*
X110068770Y-92856320D02*
X110040710Y-92867240D01*
X110040710Y-92867240D02*
X110012930Y-92878860D01*
X110012930Y-92878860D02*
X109985450Y-92891180D01*
X109985450Y-92891180D02*
X109958290Y-92904180D01*
X109958300Y-92904200D02*
X95176400Y-100210500D01*
X94401400Y-100456900D02*
X94501870Y-100439070D01*
X94501870Y-100439070D02*
X94601590Y-100417460D01*
X94601590Y-100417460D02*
X94700420Y-100392100D01*
X94700420Y-100392100D02*
X94798220Y-100363020D01*
X94798220Y-100363020D02*
X94894860Y-100330270D01*
X94894860Y-100330270D02*
X94990180Y-100293890D01*
X94990180Y-100293890D02*
X95084070Y-100253930D01*
X95084070Y-100253930D02*
X95176380Y-100210460D01*
X94401400Y-100456900D02*
X79602400Y-102795100D01*
X79584900Y-102797500D02*
X79589290Y-102796980D01*
X79589290Y-102796980D02*
X79593670Y-102796410D01*
X79593670Y-102796410D02*
X79598040Y-102795800D01*
X79598040Y-102795800D02*
X79602400Y-102795130D01*
X79584900Y-102797500D02*
X40214900Y-107242500D01*
X40170000Y-107245000D02*
X40179000Y-107244900D01*
X40179000Y-107244900D02*
X40187990Y-107244600D01*
X40187990Y-107244600D02*
X40196970Y-107244090D01*
X40196970Y-107244090D02*
X40205940Y-107243380D01*
X40205940Y-107243380D02*
X40214900Y-107242470D01*
X40170000Y-107245000D02*
X36830000Y-107245000D01*
X36263100Y-107102600D02*
X36310960Y-107126890D01*
X36310960Y-107126890D02*
X36359860Y-107149020D01*
X36359860Y-107149020D02*
X36409700Y-107168940D01*
X36409700Y-107168940D02*
X36460380Y-107186610D01*
X36460380Y-107186610D02*
X36511800Y-107202000D01*
X36511800Y-107202000D02*
X36563850Y-107215070D01*
X36563850Y-107215070D02*
X36616440Y-107225800D01*
X36616440Y-107225800D02*
X36669450Y-107234170D01*
X36669450Y-107234170D02*
X36722790Y-107240160D01*
X36722790Y-107240160D02*
X36776340Y-107243760D01*
X36776340Y-107243760D02*
X36830000Y-107244960D01*
X36263100Y-107102600D02*
X34290000Y-106045000D01*
%TO.N,Net-(U4-Pad13)*%
X109707700Y-89585300D02*
X110476700Y-89599900D01*
X109707700Y-89585300D02*
X109794500Y-88821100D01*
X35206600Y-89678700D02*
X34460600Y-89491100D01*
X35206600Y-89678700D02*
X34949800Y-90403700D01*
X110490000Y-88900000D02*
X103660700Y-94882600D01*
X103454200Y-95028200D02*
X103485520Y-95010120D01*
X103485520Y-95010120D02*
X103516280Y-94991110D01*
X103516280Y-94991110D02*
X103546450Y-94971170D01*
X103546450Y-94971170D02*
X103576010Y-94950340D01*
X103576010Y-94950340D02*
X103604930Y-94928630D01*
X103604930Y-94928630D02*
X103633180Y-94906050D01*
X103633180Y-94906050D02*
X103660730Y-94882640D01*
X103454200Y-95028200D02*
X95051000Y-99711700D01*
X93691300Y-99971000D02*
X93798990Y-99982570D01*
X93798990Y-99982570D02*
X93907110Y-99988820D01*
X93907110Y-99988820D02*
X94015420Y-99989740D01*
X94015420Y-99989740D02*
X94123630Y-99985330D01*
X94123630Y-99985330D02*
X94231500Y-99975600D01*
X94231500Y-99975600D02*
X94338760Y-99960580D01*
X94338760Y-99960580D02*
X94445150Y-99940290D01*
X94445150Y-99940290D02*
X94550410Y-99914790D01*
X94550410Y-99914790D02*
X94654290Y-99884140D01*
X94654290Y-99884140D02*
X94756540Y-99848420D01*
X94756540Y-99848420D02*
X94856900Y-99807710D01*
X94856900Y-99807710D02*
X94955140Y-99762110D01*
X94955140Y-99762110D02*
X95051020Y-99711730D01*
X93691300Y-99971000D02*
X86202500Y-98979600D01*
X86179800Y-98976400D02*
X86185470Y-98977250D01*
X86185470Y-98977250D02*
X86191140Y-98978070D01*
X86191140Y-98978070D02*
X86196820Y-98978860D01*
X86196820Y-98978860D02*
X86202500Y-98979630D01*
X86179800Y-98976400D02*
X78920200Y-97873600D01*
X78920200Y-97873600D02*
X78869160Y-97866960D01*
X78869160Y-97866960D02*
X78817870Y-97862520D01*
X78817870Y-97862520D02*
X78766450Y-97860280D01*
X78766450Y-97860280D02*
X78714970Y-97860250D01*
X78714970Y-97860250D02*
X78663550Y-97862430D01*
X78663550Y-97862430D02*
X78612260Y-97866810D01*
X78612260Y-97866810D02*
X78561210Y-97873390D01*
X78561210Y-97873390D02*
X78510480Y-97882150D01*
X78510480Y-97882150D02*
X78460180Y-97893070D01*
X78460180Y-97893070D02*
X78410390Y-97906150D01*
X78410390Y-97906150D02*
X78361210Y-97921340D01*
X78361200Y-97921300D02*
X63878800Y-102738700D01*
X63019000Y-102699400D02*
X63073320Y-102721600D01*
X63073320Y-102721600D02*
X63128660Y-102741120D01*
X63128660Y-102741120D02*
X63184890Y-102757910D01*
X63184890Y-102757910D02*
X63241870Y-102771930D01*
X63241870Y-102771930D02*
X63299460Y-102783140D01*
X63299460Y-102783140D02*
X63357540Y-102791530D01*
X63357540Y-102791530D02*
X63415960Y-102797070D01*
X63415960Y-102797070D02*
X63474580Y-102799750D01*
X63474580Y-102799750D02*
X63533260Y-102799560D01*
X63533260Y-102799560D02*
X63591860Y-102796500D01*
X63591860Y-102796500D02*
X63650240Y-102790580D01*
X63650240Y-102790580D02*
X63708260Y-102781810D01*
X63708260Y-102781810D02*
X63765780Y-102770210D01*
X63765780Y-102770210D02*
X63822670Y-102755820D01*
X63822670Y-102755820D02*
X63878790Y-102738670D01*
X63019000Y-102699400D02*
X55091000Y-99230600D01*
X55091000Y-99230600D02*
X55032820Y-99206940D01*
X55032820Y-99206940D02*
X54973470Y-99186350D01*
X54973470Y-99186350D02*
X54913130Y-99168900D01*
X54913130Y-99168900D02*
X54851960Y-99154630D01*
X54851960Y-99154630D02*
X54790130Y-99143580D01*
X54790130Y-99143580D02*
X54727810Y-99135780D01*
X54727810Y-99135780D02*
X54665160Y-99131250D01*
X54665160Y-99131250D02*
X54602360Y-99130010D01*
X54602360Y-99130010D02*
X54539580Y-99132050D01*
X54539580Y-99132050D02*
X54476990Y-99137380D01*
X54476990Y-99137380D02*
X54414770Y-99145970D01*
X54414770Y-99145970D02*
X54353090Y-99157810D01*
X54353090Y-99157810D02*
X54292100Y-99172860D01*
X54292100Y-99172860D02*
X54231990Y-99191070D01*
X54232000Y-99191100D02*
X47368000Y-101468900D01*
X45900400Y-100832800D02*
X45931580Y-100895490D01*
X45931580Y-100895490D02*
X45966360Y-100956260D01*
X45966360Y-100956260D02*
X46004630Y-101014900D01*
X46004630Y-101014900D02*
X46046250Y-101071200D01*
X46046250Y-101071200D02*
X46091090Y-101124980D01*
X46091090Y-101124980D02*
X46138990Y-101176060D01*
X46138990Y-101176060D02*
X46189780Y-101224250D01*
X46189780Y-101224250D02*
X46243300Y-101269400D01*
X46243300Y-101269400D02*
X46299360Y-101311350D01*
X46299360Y-101311350D02*
X46357770Y-101349960D01*
X46357770Y-101349960D02*
X46418340Y-101385100D01*
X46418340Y-101385100D02*
X46480850Y-101416650D01*
X46480850Y-101416650D02*
X46545090Y-101444490D01*
X46545090Y-101444490D02*
X46610850Y-101468540D01*
X46610850Y-101468540D02*
X46677900Y-101488720D01*
X46677900Y-101488720D02*
X46746010Y-101504950D01*
X46746010Y-101504950D02*
X46814950Y-101517180D01*
X46814950Y-101517180D02*
X46884490Y-101525370D01*
X46884490Y-101525370D02*
X46954390Y-101529490D01*
X46954390Y-101529490D02*
X47024410Y-101529520D01*
X47024410Y-101529520D02*
X47094310Y-101525470D01*
X47094310Y-101525470D02*
X47163860Y-101517350D01*
X47163860Y-101517350D02*
X47232810Y-101505190D01*
X47232810Y-101505190D02*
X47300940Y-101489030D01*
X47300940Y-101489030D02*
X47368010Y-101468920D01*
X45900400Y-100832800D02*
X40533200Y-89202400D01*
X40533200Y-89202400D02*
X40523580Y-89182970D01*
X40523580Y-89182970D02*
X40512930Y-89164080D01*
X40512930Y-89164080D02*
X40501270Y-89145800D01*
X40501270Y-89145800D02*
X40488630Y-89128180D01*
X40488630Y-89128180D02*
X40475060Y-89111270D01*
X40475060Y-89111270D02*
X40460600Y-89095120D01*
X40460600Y-89095120D02*
X40445270Y-89079780D01*
X40445270Y-89079780D02*
X40429140Y-89065290D01*
X40429140Y-89065290D02*
X40412250Y-89051700D01*
X40412250Y-89051700D02*
X40394650Y-89039040D01*
X40394650Y-89039040D02*
X40376380Y-89027350D01*
X40376380Y-89027350D02*
X40357510Y-89016670D01*
X40357510Y-89016670D02*
X40338090Y-89007030D01*
X40338090Y-89007030D02*
X40318180Y-88998450D01*
X40318180Y-88998450D02*
X40297830Y-88990970D01*
X40297830Y-88990970D02*
X40277100Y-88984600D01*
X40277100Y-88984600D02*
X40256060Y-88979360D01*
X40256060Y-88979360D02*
X40234770Y-88975270D01*
X40234770Y-88975270D02*
X40213290Y-88972340D01*
X40213290Y-88972340D02*
X40191670Y-88970580D01*
X40191670Y-88970580D02*
X40170000Y-88970000D01*
X40170000Y-88970000D02*
X36830000Y-88970000D01*
X36830000Y-88970000D02*
X36776340Y-88971200D01*
X36776340Y-88971200D02*
X36722790Y-88974800D01*
X36722790Y-88974800D02*
X36669450Y-88980790D01*
X36669450Y-88980790D02*
X36616430Y-88989160D01*
X36616430Y-88989160D02*
X36563840Y-88999890D01*
X36563840Y-88999890D02*
X36511780Y-89012960D01*
X36511780Y-89012960D02*
X36460360Y-89028350D01*
X36460360Y-89028350D02*
X36409680Y-89046020D01*
X36409680Y-89046020D02*
X36359840Y-89065940D01*
X36359840Y-89065940D02*
X36310940Y-89088070D01*
X36310940Y-89088070D02*
X36263080Y-89112360D01*
X36263100Y-89112400D02*
X34290000Y-90170000D01*
%TO.N,~PADTRG~*%
X36993800Y-91197000D02*
X37415400Y-90553800D01*
X36993800Y-91197000D02*
X36393000Y-90716800D01*
X36981200Y-105016000D02*
X36386300Y-105503500D01*
X36981200Y-105016000D02*
X37410700Y-105654100D01*
X36830000Y-90170000D02*
X38015000Y-97601000D01*
X38017300Y-97964400D02*
X38023070Y-97919170D01*
X38023070Y-97919170D02*
X38027110Y-97873750D01*
X38027110Y-97873750D02*
X38029430Y-97828210D01*
X38029430Y-97828210D02*
X38030020Y-97782610D01*
X38030020Y-97782610D02*
X38028870Y-97737020D01*
X38028870Y-97737020D02*
X38025990Y-97691520D01*
X38025990Y-97691520D02*
X38021390Y-97646150D01*
X38021390Y-97646150D02*
X38015060Y-97600990D01*
X38017300Y-97964400D02*
X36830000Y-106045000D01*
%TD*%
M02*
