%TF.GenerationSoftware,KiCad,Pcbnew,(5.1.9)-1*%
%TF.CreationDate,2021-11-03T00:36:12-04:00*%
%TF.ProjectId,main,6d61696e-2e6b-4696-9361-645f70636258,rev?*%
%TF.SameCoordinates,Original*%
%TF.FileFunction,Soldermask,Top*%
%TF.FilePolarity,Negative*%
%FSLAX46Y46*%
G04 Gerber Fmt 4.6, Leading zero omitted, Abs format (unit mm)*
G04 Created by KiCad (PCBNEW (5.1.9)-1) date 2021-11-03 00:36:12*
%MOMM*%
%LPD*%
G01*
G04 APERTURE LIST*
%ADD10O,1.600000X1.600000*%
%ADD11R,1.600000X1.600000*%
%ADD12O,1.700000X1.700000*%
%ADD13R,1.700000X1.700000*%
%ADD14C,1.800000*%
%ADD15C,6.000000*%
%ADD16C,1.500000*%
%ADD17C,3.200000*%
%ADD18C,1.600000*%
G04 APERTURE END LIST*
D10*
%TO.C,U10*%
X39370000Y-113665000D03*
X31750000Y-106045000D03*
X36830000Y-113665000D03*
X34290000Y-106045000D03*
X34290000Y-113665000D03*
X36830000Y-106045000D03*
X31750000Y-113665000D03*
D11*
X39370000Y-106045000D03*
%TD*%
D10*
%TO.C,U9*%
X39370000Y-97790000D03*
X31750000Y-90170000D03*
X36830000Y-97790000D03*
X34290000Y-90170000D03*
X34290000Y-97790000D03*
X36830000Y-90170000D03*
X31750000Y-97790000D03*
D11*
X39370000Y-90170000D03*
%TD*%
D10*
%TO.C,U4*%
X110490000Y-71120000D03*
X102870000Y-93980000D03*
X110490000Y-73660000D03*
X102870000Y-91440000D03*
X110490000Y-76200000D03*
X102870000Y-88900000D03*
X110490000Y-78740000D03*
X102870000Y-86360000D03*
X110490000Y-81280000D03*
X102870000Y-83820000D03*
X110490000Y-83820000D03*
X102870000Y-81280000D03*
X110490000Y-86360000D03*
X102870000Y-78740000D03*
X110490000Y-88900000D03*
X102870000Y-76200000D03*
X110490000Y-91440000D03*
X102870000Y-73660000D03*
X110490000Y-93980000D03*
D11*
X102870000Y-71120000D03*
%TD*%
D12*
%TO.C,JP2*%
X105410000Y-109220000D03*
D13*
X105410000Y-106680000D03*
%TD*%
D14*
%TO.C,J2*%
X68615000Y-111920000D03*
X75540000Y-109080000D03*
X74155000Y-111920000D03*
X67230000Y-109080000D03*
X72770000Y-109080000D03*
X64460000Y-109080000D03*
X71385000Y-111920000D03*
X65845000Y-111920000D03*
X70000000Y-109080000D03*
D15*
X57505000Y-110500000D03*
X82495000Y-110500000D03*
%TD*%
D10*
%TO.C,D2*%
X101600000Y-105410000D03*
D11*
X93980000Y-105410000D03*
%TD*%
D10*
%TO.C,D1*%
X101600000Y-110490000D03*
D11*
X93980000Y-110490000D03*
%TD*%
D12*
%TO.C,JP1*%
X107950000Y-60325000D03*
D13*
X105410000Y-60325000D03*
%TD*%
D10*
%TO.C,U8*%
X53340000Y-35560000D03*
X45720000Y-58420000D03*
X53340000Y-38100000D03*
X45720000Y-55880000D03*
X53340000Y-40640000D03*
X45720000Y-53340000D03*
X53340000Y-43180000D03*
X45720000Y-50800000D03*
X53340000Y-45720000D03*
X45720000Y-48260000D03*
X53340000Y-48260000D03*
X45720000Y-45720000D03*
X53340000Y-50800000D03*
X45720000Y-43180000D03*
X53340000Y-53340000D03*
X45720000Y-40640000D03*
X53340000Y-55880000D03*
X45720000Y-38100000D03*
X53340000Y-58420000D03*
D11*
X45720000Y-35560000D03*
%TD*%
D10*
%TO.C,U7*%
X110490000Y-31750000D03*
X102870000Y-49530000D03*
X110490000Y-34290000D03*
X102870000Y-46990000D03*
X110490000Y-36830000D03*
X102870000Y-44450000D03*
X110490000Y-39370000D03*
X102870000Y-41910000D03*
X110490000Y-41910000D03*
X102870000Y-39370000D03*
X110490000Y-44450000D03*
X102870000Y-36830000D03*
X110490000Y-46990000D03*
X102870000Y-34290000D03*
X110490000Y-49530000D03*
D11*
X102870000Y-31750000D03*
%TD*%
D10*
%TO.C,U6*%
X93980000Y-53340000D03*
X86360000Y-68580000D03*
X93980000Y-55880000D03*
X86360000Y-66040000D03*
X93980000Y-58420000D03*
X86360000Y-63500000D03*
X93980000Y-60960000D03*
X86360000Y-60960000D03*
X93980000Y-63500000D03*
X86360000Y-58420000D03*
X93980000Y-66040000D03*
X86360000Y-55880000D03*
X93980000Y-68580000D03*
D11*
X86360000Y-53340000D03*
%TD*%
D10*
%TO.C,U3*%
X93980000Y-74930000D03*
X86360000Y-97790000D03*
X93980000Y-77470000D03*
X86360000Y-95250000D03*
X93980000Y-80010000D03*
X86360000Y-92710000D03*
X93980000Y-82550000D03*
X86360000Y-90170000D03*
X93980000Y-85090000D03*
X86360000Y-87630000D03*
X93980000Y-87630000D03*
X86360000Y-85090000D03*
X93980000Y-90170000D03*
X86360000Y-82550000D03*
X93980000Y-92710000D03*
X86360000Y-80010000D03*
X93980000Y-95250000D03*
X86360000Y-77470000D03*
X93980000Y-97790000D03*
D11*
X86360000Y-74930000D03*
%TD*%
D14*
%TO.C,J5*%
X71385000Y-28080000D03*
X64460000Y-30920000D03*
X65845000Y-28080000D03*
X72770000Y-30920000D03*
X67230000Y-30920000D03*
X75540000Y-30920000D03*
X68615000Y-28080000D03*
X74155000Y-28080000D03*
X70000000Y-30920000D03*
D15*
X82495000Y-29500000D03*
X57505000Y-29500000D03*
%TD*%
D16*
%TO.C,Y1*%
X48440000Y-78740000D03*
X53340000Y-78740000D03*
%TD*%
D10*
%TO.C,U5*%
X93980000Y-45720000D03*
X60960000Y-38100000D03*
X91440000Y-45720000D03*
X63500000Y-38100000D03*
X88900000Y-45720000D03*
X66040000Y-38100000D03*
X86360000Y-45720000D03*
X68580000Y-38100000D03*
X83820000Y-45720000D03*
X71120000Y-38100000D03*
X81280000Y-45720000D03*
X73660000Y-38100000D03*
X78740000Y-45720000D03*
X76200000Y-38100000D03*
X76200000Y-45720000D03*
X78740000Y-38100000D03*
X73660000Y-45720000D03*
X81280000Y-38100000D03*
X71120000Y-45720000D03*
X83820000Y-38100000D03*
X68580000Y-45720000D03*
X86360000Y-38100000D03*
X66040000Y-45720000D03*
X88900000Y-38100000D03*
X63500000Y-45720000D03*
X91440000Y-38100000D03*
X60960000Y-45720000D03*
D11*
X93980000Y-38100000D03*
%TD*%
D10*
%TO.C,U2*%
X54610000Y-82550000D03*
X46990000Y-102870000D03*
X54610000Y-85090000D03*
X46990000Y-100330000D03*
X54610000Y-87630000D03*
X46990000Y-97790000D03*
X54610000Y-90170000D03*
X46990000Y-95250000D03*
X54610000Y-92710000D03*
X46990000Y-92710000D03*
X54610000Y-95250000D03*
X46990000Y-90170000D03*
X54610000Y-97790000D03*
X46990000Y-87630000D03*
X54610000Y-100330000D03*
X46990000Y-85090000D03*
X54610000Y-102870000D03*
D11*
X46990000Y-82550000D03*
%TD*%
D10*
%TO.C,U1*%
X63500000Y-101600000D03*
X78740000Y-53340000D03*
X63500000Y-99060000D03*
X78740000Y-55880000D03*
X63500000Y-96520000D03*
X78740000Y-58420000D03*
X63500000Y-93980000D03*
X78740000Y-60960000D03*
X63500000Y-91440000D03*
X78740000Y-63500000D03*
X63500000Y-88900000D03*
X78740000Y-66040000D03*
X63500000Y-86360000D03*
X78740000Y-68580000D03*
X63500000Y-83820000D03*
X78740000Y-71120000D03*
X63500000Y-81280000D03*
X78740000Y-73660000D03*
X63500000Y-78740000D03*
X78740000Y-76200000D03*
X63500000Y-76200000D03*
X78740000Y-78740000D03*
X63500000Y-73660000D03*
X78740000Y-81280000D03*
X63500000Y-71120000D03*
X78740000Y-83820000D03*
X63500000Y-68580000D03*
X78740000Y-86360000D03*
X63500000Y-66040000D03*
X78740000Y-88900000D03*
X63500000Y-63500000D03*
X78740000Y-91440000D03*
X63500000Y-60960000D03*
X78740000Y-93980000D03*
X63500000Y-58420000D03*
X78740000Y-96520000D03*
X63500000Y-55880000D03*
X78740000Y-99060000D03*
X63500000Y-53340000D03*
D11*
X78740000Y-101600000D03*
%TD*%
D10*
%TO.C,U22*%
X39370000Y-57150000D03*
X31750000Y-85090000D03*
X39370000Y-59690000D03*
X31750000Y-82550000D03*
X39370000Y-62230000D03*
X31750000Y-80010000D03*
X39370000Y-64770000D03*
X31750000Y-77470000D03*
X39370000Y-67310000D03*
X31750000Y-74930000D03*
X39370000Y-69850000D03*
X31750000Y-72390000D03*
X39370000Y-72390000D03*
X31750000Y-69850000D03*
X39370000Y-74930000D03*
X31750000Y-67310000D03*
X39370000Y-77470000D03*
X31750000Y-64770000D03*
X39370000Y-80010000D03*
X31750000Y-62230000D03*
X39370000Y-82550000D03*
X31750000Y-59690000D03*
X39370000Y-85090000D03*
D11*
X31750000Y-57150000D03*
%TD*%
D17*
%TO.C,M4*%
X23500000Y-116500000D03*
%TD*%
%TO.C,M3*%
X23500000Y-23500000D03*
%TD*%
%TO.C,M2*%
X116500000Y-116500000D03*
%TD*%
%TO.C,M1*%
X116500000Y-23500000D03*
%TD*%
D18*
%TO.C,C1*%
X35770000Y-43015000D03*
D11*
X32270000Y-43015000D03*
%TD*%
D18*
%TO.C,C4*%
X35770000Y-33715000D03*
D11*
X32270000Y-33715000D03*
%TD*%
D13*
%TO.C,J4*%
X22540000Y-30600000D03*
D12*
X25080000Y-30600000D03*
X22540000Y-33140000D03*
X25080000Y-33140000D03*
X22540000Y-35680000D03*
X25080000Y-35680000D03*
X22540000Y-38220000D03*
X25080000Y-38220000D03*
%TD*%
%TO.C,J1*%
X25080000Y-109400000D03*
X22540000Y-109400000D03*
X25080000Y-106860000D03*
X22540000Y-106860000D03*
X25080000Y-104320000D03*
X22540000Y-104320000D03*
X25080000Y-101780000D03*
D13*
X22540000Y-101780000D03*
%TD*%
D12*
%TO.C,J3*%
X25080000Y-94130000D03*
X22540000Y-94130000D03*
X25080000Y-91590000D03*
X22540000Y-91590000D03*
X25080000Y-89050000D03*
X22540000Y-89050000D03*
X25080000Y-86510000D03*
X22540000Y-86510000D03*
X25080000Y-83970000D03*
X22540000Y-83970000D03*
X25080000Y-81430000D03*
X22540000Y-81430000D03*
X25080000Y-78890000D03*
X22540000Y-78890000D03*
X25080000Y-76350000D03*
X22540000Y-76350000D03*
X25080000Y-73810000D03*
X22540000Y-73810000D03*
X25080000Y-71270000D03*
X22540000Y-71270000D03*
X25080000Y-68730000D03*
X22540000Y-68730000D03*
X25080000Y-66190000D03*
X22540000Y-66190000D03*
X25080000Y-63650000D03*
X22540000Y-63650000D03*
X25080000Y-61110000D03*
X22540000Y-61110000D03*
X25080000Y-58570000D03*
X22540000Y-58570000D03*
X25080000Y-56030000D03*
X22540000Y-56030000D03*
X25080000Y-53490000D03*
X22540000Y-53490000D03*
X25080000Y-50950000D03*
X22540000Y-50950000D03*
X25080000Y-48410000D03*
X22540000Y-48410000D03*
X25080000Y-45870000D03*
D13*
X22540000Y-45870000D03*
%TD*%
M02*
