%TF.GenerationSoftware,KiCad,Pcbnew,(5.1.9)-1*%
%TF.CreationDate,2021-11-03T00:36:12-04:00*%
%TF.ProjectId,main,6d61696e-2e6b-4696-9361-645f70636258,rev?*%
%TF.SameCoordinates,Original*%
%TF.FileFunction,Legend,Bot*%
%TF.FilePolarity,Positive*%
%FSLAX46Y46*%
G04 Gerber Fmt 4.6, Leading zero omitted, Abs format (unit mm)*
G04 Created by KiCad (PCBNEW (5.1.9)-1) date 2021-11-03 00:36:12*
%MOMM*%
%LPD*%
G01*
G04 APERTURE LIST*
%ADD10C,0.120000*%
%ADD11C,0.150000*%
G04 APERTURE END LIST*
D10*
%TO.C,J12*%
X29310000Y-105002064D02*
X29310000Y-104547936D01*
X27840000Y-105002064D02*
X27840000Y-104547936D01*
%TO.C,R8*%
X105817936Y-72925000D02*
X106272064Y-72925000D01*
X105817936Y-74395000D02*
X106272064Y-74395000D01*
%TO.C,R7*%
X105817936Y-78005000D02*
X106272064Y-78005000D01*
X105817936Y-79475000D02*
X106272064Y-79475000D01*
%TO.C,R6*%
X105817936Y-83085000D02*
X106272064Y-83085000D01*
X105817936Y-84555000D02*
X106272064Y-84555000D01*
%TO.C,R5*%
X105817936Y-88165000D02*
X106272064Y-88165000D01*
X105817936Y-89635000D02*
X106272064Y-89635000D01*
%TO.C,R4*%
X107542064Y-94715000D02*
X107087936Y-94715000D01*
X107542064Y-93245000D02*
X107087936Y-93245000D01*
%TO.C,C13*%
X37565000Y-116578748D02*
X37565000Y-117101252D01*
X36095000Y-116578748D02*
X36095000Y-117101252D01*
%TO.C,C12*%
X32485000Y-116578748D02*
X32485000Y-117101252D01*
X31015000Y-116578748D02*
X31015000Y-117101252D01*
%TO.C,C11*%
X37565000Y-100703748D02*
X37565000Y-101226252D01*
X36095000Y-100703748D02*
X36095000Y-101226252D01*
%TO.C,C10*%
X32485000Y-100703748D02*
X32485000Y-101226252D01*
X31015000Y-100703748D02*
X31015000Y-101226252D01*
%TO.C,R3*%
X106452936Y-32485000D02*
X106907064Y-32485000D01*
X106452936Y-31015000D02*
X106907064Y-31015000D01*
%TO.C,R2*%
X102135000Y-54382936D02*
X102135000Y-54837064D01*
X103605000Y-54382936D02*
X103605000Y-54837064D01*
%TO.C,C9*%
X61968748Y-48995000D02*
X62491252Y-48995000D01*
X61968748Y-47525000D02*
X62491252Y-47525000D01*
%TO.C,C8*%
X61968748Y-41375000D02*
X62491252Y-41375000D01*
X61968748Y-39905000D02*
X62491252Y-39905000D01*
%TO.C,C7*%
X42153048Y-57856900D02*
X42675552Y-57856900D01*
X42153048Y-56386900D02*
X42675552Y-56386900D01*
%TO.C,C6*%
X92971252Y-42445000D02*
X92448748Y-42445000D01*
X92971252Y-43915000D02*
X92448748Y-43915000D01*
%TO.C,C5*%
X92971252Y-34825000D02*
X92448748Y-34825000D01*
X92971252Y-36295000D02*
X92448748Y-36295000D01*
%TO.C,C32*%
X74195000Y-98051252D02*
X74195000Y-97528748D01*
X75665000Y-98051252D02*
X75665000Y-97528748D01*
%TO.C,C30*%
X71020000Y-98051252D02*
X71020000Y-97528748D01*
X72490000Y-98051252D02*
X72490000Y-97528748D01*
%TO.C,C3*%
X50553252Y-36295000D02*
X50030748Y-36295000D01*
X50553252Y-34825000D02*
X50030748Y-34825000D01*
%TO.C,C2*%
X112264800Y-31063552D02*
X112264800Y-30541048D01*
X113734800Y-31063552D02*
X113734800Y-30541048D01*
%TO.C,C29*%
X82015000Y-99321252D02*
X82015000Y-98798748D01*
X80545000Y-99321252D02*
X80545000Y-98798748D01*
%TO.C,C22*%
X112549000Y-71874748D02*
X112549000Y-72397252D01*
X114019000Y-71874748D02*
X114019000Y-72397252D01*
%TO.C,C21*%
X49522748Y-85825000D02*
X50045252Y-85825000D01*
X49522748Y-84355000D02*
X50045252Y-84355000D01*
%TO.C,C19*%
X91193252Y-52605000D02*
X90670748Y-52605000D01*
X91193252Y-54075000D02*
X90670748Y-54075000D01*
%TO.C,C18*%
X40105000Y-109989252D02*
X40105000Y-109466748D01*
X38635000Y-109989252D02*
X38635000Y-109466748D01*
%TO.C,C17*%
X90705000Y-75938748D02*
X90705000Y-76461252D01*
X92175000Y-75938748D02*
X92175000Y-76461252D01*
%TO.C,C16*%
X40105000Y-94241252D02*
X40105000Y-93718748D01*
X38635000Y-94241252D02*
X38635000Y-93718748D01*
%TO.C,J12*%
D11*
X29677380Y-103965476D02*
X30391666Y-103965476D01*
X30534523Y-103917857D01*
X30629761Y-103822619D01*
X30677380Y-103679761D01*
X30677380Y-103584523D01*
X30677380Y-104965476D02*
X30677380Y-104394047D01*
X30677380Y-104679761D02*
X29677380Y-104679761D01*
X29820238Y-104584523D01*
X29915476Y-104489285D01*
X29963095Y-104394047D01*
X29772619Y-105346428D02*
X29725000Y-105394047D01*
X29677380Y-105489285D01*
X29677380Y-105727380D01*
X29725000Y-105822619D01*
X29772619Y-105870238D01*
X29867857Y-105917857D01*
X29963095Y-105917857D01*
X30105952Y-105870238D01*
X30677380Y-105298809D01*
X30677380Y-105917857D01*
%TO.C,R8*%
X106211666Y-75762380D02*
X106545000Y-75286190D01*
X106783095Y-75762380D02*
X106783095Y-74762380D01*
X106402142Y-74762380D01*
X106306904Y-74810000D01*
X106259285Y-74857619D01*
X106211666Y-74952857D01*
X106211666Y-75095714D01*
X106259285Y-75190952D01*
X106306904Y-75238571D01*
X106402142Y-75286190D01*
X106783095Y-75286190D01*
X105640238Y-75190952D02*
X105735476Y-75143333D01*
X105783095Y-75095714D01*
X105830714Y-75000476D01*
X105830714Y-74952857D01*
X105783095Y-74857619D01*
X105735476Y-74810000D01*
X105640238Y-74762380D01*
X105449761Y-74762380D01*
X105354523Y-74810000D01*
X105306904Y-74857619D01*
X105259285Y-74952857D01*
X105259285Y-75000476D01*
X105306904Y-75095714D01*
X105354523Y-75143333D01*
X105449761Y-75190952D01*
X105640238Y-75190952D01*
X105735476Y-75238571D01*
X105783095Y-75286190D01*
X105830714Y-75381428D01*
X105830714Y-75571904D01*
X105783095Y-75667142D01*
X105735476Y-75714761D01*
X105640238Y-75762380D01*
X105449761Y-75762380D01*
X105354523Y-75714761D01*
X105306904Y-75667142D01*
X105259285Y-75571904D01*
X105259285Y-75381428D01*
X105306904Y-75286190D01*
X105354523Y-75238571D01*
X105449761Y-75190952D01*
%TO.C,R7*%
X106211666Y-80842380D02*
X106545000Y-80366190D01*
X106783095Y-80842380D02*
X106783095Y-79842380D01*
X106402142Y-79842380D01*
X106306904Y-79890000D01*
X106259285Y-79937619D01*
X106211666Y-80032857D01*
X106211666Y-80175714D01*
X106259285Y-80270952D01*
X106306904Y-80318571D01*
X106402142Y-80366190D01*
X106783095Y-80366190D01*
X105878333Y-79842380D02*
X105211666Y-79842380D01*
X105640238Y-80842380D01*
%TO.C,R6*%
X106211666Y-85922380D02*
X106545000Y-85446190D01*
X106783095Y-85922380D02*
X106783095Y-84922380D01*
X106402142Y-84922380D01*
X106306904Y-84970000D01*
X106259285Y-85017619D01*
X106211666Y-85112857D01*
X106211666Y-85255714D01*
X106259285Y-85350952D01*
X106306904Y-85398571D01*
X106402142Y-85446190D01*
X106783095Y-85446190D01*
X105354523Y-84922380D02*
X105545000Y-84922380D01*
X105640238Y-84970000D01*
X105687857Y-85017619D01*
X105783095Y-85160476D01*
X105830714Y-85350952D01*
X105830714Y-85731904D01*
X105783095Y-85827142D01*
X105735476Y-85874761D01*
X105640238Y-85922380D01*
X105449761Y-85922380D01*
X105354523Y-85874761D01*
X105306904Y-85827142D01*
X105259285Y-85731904D01*
X105259285Y-85493809D01*
X105306904Y-85398571D01*
X105354523Y-85350952D01*
X105449761Y-85303333D01*
X105640238Y-85303333D01*
X105735476Y-85350952D01*
X105783095Y-85398571D01*
X105830714Y-85493809D01*
%TO.C,R5*%
X106211666Y-91002380D02*
X106545000Y-90526190D01*
X106783095Y-91002380D02*
X106783095Y-90002380D01*
X106402142Y-90002380D01*
X106306904Y-90050000D01*
X106259285Y-90097619D01*
X106211666Y-90192857D01*
X106211666Y-90335714D01*
X106259285Y-90430952D01*
X106306904Y-90478571D01*
X106402142Y-90526190D01*
X106783095Y-90526190D01*
X105306904Y-90002380D02*
X105783095Y-90002380D01*
X105830714Y-90478571D01*
X105783095Y-90430952D01*
X105687857Y-90383333D01*
X105449761Y-90383333D01*
X105354523Y-90430952D01*
X105306904Y-90478571D01*
X105259285Y-90573809D01*
X105259285Y-90811904D01*
X105306904Y-90907142D01*
X105354523Y-90954761D01*
X105449761Y-91002380D01*
X105687857Y-91002380D01*
X105783095Y-90954761D01*
X105830714Y-90907142D01*
%TO.C,R4*%
X107481666Y-92782380D02*
X107815000Y-92306190D01*
X108053095Y-92782380D02*
X108053095Y-91782380D01*
X107672142Y-91782380D01*
X107576904Y-91830000D01*
X107529285Y-91877619D01*
X107481666Y-91972857D01*
X107481666Y-92115714D01*
X107529285Y-92210952D01*
X107576904Y-92258571D01*
X107672142Y-92306190D01*
X108053095Y-92306190D01*
X106624523Y-92115714D02*
X106624523Y-92782380D01*
X106862619Y-91734761D02*
X107100714Y-92449047D01*
X106481666Y-92449047D01*
%TO.C,C13*%
X35507142Y-116197142D02*
X35554761Y-116149523D01*
X35602380Y-116006666D01*
X35602380Y-115911428D01*
X35554761Y-115768571D01*
X35459523Y-115673333D01*
X35364285Y-115625714D01*
X35173809Y-115578095D01*
X35030952Y-115578095D01*
X34840476Y-115625714D01*
X34745238Y-115673333D01*
X34650000Y-115768571D01*
X34602380Y-115911428D01*
X34602380Y-116006666D01*
X34650000Y-116149523D01*
X34697619Y-116197142D01*
X35602380Y-117149523D02*
X35602380Y-116578095D01*
X35602380Y-116863809D02*
X34602380Y-116863809D01*
X34745238Y-116768571D01*
X34840476Y-116673333D01*
X34888095Y-116578095D01*
X34602380Y-117482857D02*
X34602380Y-118101904D01*
X34983333Y-117768571D01*
X34983333Y-117911428D01*
X35030952Y-118006666D01*
X35078571Y-118054285D01*
X35173809Y-118101904D01*
X35411904Y-118101904D01*
X35507142Y-118054285D01*
X35554761Y-118006666D01*
X35602380Y-117911428D01*
X35602380Y-117625714D01*
X35554761Y-117530476D01*
X35507142Y-117482857D01*
%TO.C,C12*%
X30427142Y-116197142D02*
X30474761Y-116149523D01*
X30522380Y-116006666D01*
X30522380Y-115911428D01*
X30474761Y-115768571D01*
X30379523Y-115673333D01*
X30284285Y-115625714D01*
X30093809Y-115578095D01*
X29950952Y-115578095D01*
X29760476Y-115625714D01*
X29665238Y-115673333D01*
X29570000Y-115768571D01*
X29522380Y-115911428D01*
X29522380Y-116006666D01*
X29570000Y-116149523D01*
X29617619Y-116197142D01*
X30522380Y-117149523D02*
X30522380Y-116578095D01*
X30522380Y-116863809D02*
X29522380Y-116863809D01*
X29665238Y-116768571D01*
X29760476Y-116673333D01*
X29808095Y-116578095D01*
X29617619Y-117530476D02*
X29570000Y-117578095D01*
X29522380Y-117673333D01*
X29522380Y-117911428D01*
X29570000Y-118006666D01*
X29617619Y-118054285D01*
X29712857Y-118101904D01*
X29808095Y-118101904D01*
X29950952Y-118054285D01*
X30522380Y-117482857D01*
X30522380Y-118101904D01*
%TO.C,C11*%
X35507142Y-100322142D02*
X35554761Y-100274523D01*
X35602380Y-100131666D01*
X35602380Y-100036428D01*
X35554761Y-99893571D01*
X35459523Y-99798333D01*
X35364285Y-99750714D01*
X35173809Y-99703095D01*
X35030952Y-99703095D01*
X34840476Y-99750714D01*
X34745238Y-99798333D01*
X34650000Y-99893571D01*
X34602380Y-100036428D01*
X34602380Y-100131666D01*
X34650000Y-100274523D01*
X34697619Y-100322142D01*
X35602380Y-101274523D02*
X35602380Y-100703095D01*
X35602380Y-100988809D02*
X34602380Y-100988809D01*
X34745238Y-100893571D01*
X34840476Y-100798333D01*
X34888095Y-100703095D01*
X35602380Y-102226904D02*
X35602380Y-101655476D01*
X35602380Y-101941190D02*
X34602380Y-101941190D01*
X34745238Y-101845952D01*
X34840476Y-101750714D01*
X34888095Y-101655476D01*
%TO.C,C10*%
X30427142Y-100322142D02*
X30474761Y-100274523D01*
X30522380Y-100131666D01*
X30522380Y-100036428D01*
X30474761Y-99893571D01*
X30379523Y-99798333D01*
X30284285Y-99750714D01*
X30093809Y-99703095D01*
X29950952Y-99703095D01*
X29760476Y-99750714D01*
X29665238Y-99798333D01*
X29570000Y-99893571D01*
X29522380Y-100036428D01*
X29522380Y-100131666D01*
X29570000Y-100274523D01*
X29617619Y-100322142D01*
X30522380Y-101274523D02*
X30522380Y-100703095D01*
X30522380Y-100988809D02*
X29522380Y-100988809D01*
X29665238Y-100893571D01*
X29760476Y-100798333D01*
X29808095Y-100703095D01*
X29522380Y-101893571D02*
X29522380Y-101988809D01*
X29570000Y-102084047D01*
X29617619Y-102131666D01*
X29712857Y-102179285D01*
X29903333Y-102226904D01*
X30141428Y-102226904D01*
X30331904Y-102179285D01*
X30427142Y-102131666D01*
X30474761Y-102084047D01*
X30522380Y-101988809D01*
X30522380Y-101893571D01*
X30474761Y-101798333D01*
X30427142Y-101750714D01*
X30331904Y-101703095D01*
X30141428Y-101655476D01*
X29903333Y-101655476D01*
X29712857Y-101703095D01*
X29617619Y-101750714D01*
X29570000Y-101798333D01*
X29522380Y-101893571D01*
%TO.C,R3*%
X106846666Y-33852380D02*
X107180000Y-33376190D01*
X107418095Y-33852380D02*
X107418095Y-32852380D01*
X107037142Y-32852380D01*
X106941904Y-32900000D01*
X106894285Y-32947619D01*
X106846666Y-33042857D01*
X106846666Y-33185714D01*
X106894285Y-33280952D01*
X106941904Y-33328571D01*
X107037142Y-33376190D01*
X107418095Y-33376190D01*
X106513333Y-32852380D02*
X105894285Y-32852380D01*
X106227619Y-33233333D01*
X106084761Y-33233333D01*
X105989523Y-33280952D01*
X105941904Y-33328571D01*
X105894285Y-33423809D01*
X105894285Y-33661904D01*
X105941904Y-33757142D01*
X105989523Y-33804761D01*
X106084761Y-33852380D01*
X106370476Y-33852380D01*
X106465714Y-33804761D01*
X106513333Y-33757142D01*
%TO.C,R2*%
X101672380Y-54443333D02*
X101196190Y-54110000D01*
X101672380Y-53871904D02*
X100672380Y-53871904D01*
X100672380Y-54252857D01*
X100720000Y-54348095D01*
X100767619Y-54395714D01*
X100862857Y-54443333D01*
X101005714Y-54443333D01*
X101100952Y-54395714D01*
X101148571Y-54348095D01*
X101196190Y-54252857D01*
X101196190Y-53871904D01*
X100767619Y-54824285D02*
X100720000Y-54871904D01*
X100672380Y-54967142D01*
X100672380Y-55205238D01*
X100720000Y-55300476D01*
X100767619Y-55348095D01*
X100862857Y-55395714D01*
X100958095Y-55395714D01*
X101100952Y-55348095D01*
X101672380Y-54776666D01*
X101672380Y-55395714D01*
%TO.C,C9*%
X62396666Y-50297142D02*
X62444285Y-50344761D01*
X62587142Y-50392380D01*
X62682380Y-50392380D01*
X62825238Y-50344761D01*
X62920476Y-50249523D01*
X62968095Y-50154285D01*
X63015714Y-49963809D01*
X63015714Y-49820952D01*
X62968095Y-49630476D01*
X62920476Y-49535238D01*
X62825238Y-49440000D01*
X62682380Y-49392380D01*
X62587142Y-49392380D01*
X62444285Y-49440000D01*
X62396666Y-49487619D01*
X61920476Y-50392380D02*
X61730000Y-50392380D01*
X61634761Y-50344761D01*
X61587142Y-50297142D01*
X61491904Y-50154285D01*
X61444285Y-49963809D01*
X61444285Y-49582857D01*
X61491904Y-49487619D01*
X61539523Y-49440000D01*
X61634761Y-49392380D01*
X61825238Y-49392380D01*
X61920476Y-49440000D01*
X61968095Y-49487619D01*
X62015714Y-49582857D01*
X62015714Y-49820952D01*
X61968095Y-49916190D01*
X61920476Y-49963809D01*
X61825238Y-50011428D01*
X61634761Y-50011428D01*
X61539523Y-49963809D01*
X61491904Y-49916190D01*
X61444285Y-49820952D01*
%TO.C,C8*%
X62396666Y-42677142D02*
X62444285Y-42724761D01*
X62587142Y-42772380D01*
X62682380Y-42772380D01*
X62825238Y-42724761D01*
X62920476Y-42629523D01*
X62968095Y-42534285D01*
X63015714Y-42343809D01*
X63015714Y-42200952D01*
X62968095Y-42010476D01*
X62920476Y-41915238D01*
X62825238Y-41820000D01*
X62682380Y-41772380D01*
X62587142Y-41772380D01*
X62444285Y-41820000D01*
X62396666Y-41867619D01*
X61825238Y-42200952D02*
X61920476Y-42153333D01*
X61968095Y-42105714D01*
X62015714Y-42010476D01*
X62015714Y-41962857D01*
X61968095Y-41867619D01*
X61920476Y-41820000D01*
X61825238Y-41772380D01*
X61634761Y-41772380D01*
X61539523Y-41820000D01*
X61491904Y-41867619D01*
X61444285Y-41962857D01*
X61444285Y-42010476D01*
X61491904Y-42105714D01*
X61539523Y-42153333D01*
X61634761Y-42200952D01*
X61825238Y-42200952D01*
X61920476Y-42248571D01*
X61968095Y-42296190D01*
X62015714Y-42391428D01*
X62015714Y-42581904D01*
X61968095Y-42677142D01*
X61920476Y-42724761D01*
X61825238Y-42772380D01*
X61634761Y-42772380D01*
X61539523Y-42724761D01*
X61491904Y-42677142D01*
X61444285Y-42581904D01*
X61444285Y-42391428D01*
X61491904Y-42296190D01*
X61539523Y-42248571D01*
X61634761Y-42200952D01*
%TO.C,C7*%
X42580966Y-59159042D02*
X42628585Y-59206661D01*
X42771442Y-59254280D01*
X42866680Y-59254280D01*
X43009538Y-59206661D01*
X43104776Y-59111423D01*
X43152395Y-59016185D01*
X43200014Y-58825709D01*
X43200014Y-58682852D01*
X43152395Y-58492376D01*
X43104776Y-58397138D01*
X43009538Y-58301900D01*
X42866680Y-58254280D01*
X42771442Y-58254280D01*
X42628585Y-58301900D01*
X42580966Y-58349519D01*
X42247633Y-58254280D02*
X41580966Y-58254280D01*
X42009538Y-59254280D01*
%TO.C,C6*%
X92876666Y-41857142D02*
X92924285Y-41904761D01*
X93067142Y-41952380D01*
X93162380Y-41952380D01*
X93305238Y-41904761D01*
X93400476Y-41809523D01*
X93448095Y-41714285D01*
X93495714Y-41523809D01*
X93495714Y-41380952D01*
X93448095Y-41190476D01*
X93400476Y-41095238D01*
X93305238Y-41000000D01*
X93162380Y-40952380D01*
X93067142Y-40952380D01*
X92924285Y-41000000D01*
X92876666Y-41047619D01*
X92019523Y-40952380D02*
X92210000Y-40952380D01*
X92305238Y-41000000D01*
X92352857Y-41047619D01*
X92448095Y-41190476D01*
X92495714Y-41380952D01*
X92495714Y-41761904D01*
X92448095Y-41857142D01*
X92400476Y-41904761D01*
X92305238Y-41952380D01*
X92114761Y-41952380D01*
X92019523Y-41904761D01*
X91971904Y-41857142D01*
X91924285Y-41761904D01*
X91924285Y-41523809D01*
X91971904Y-41428571D01*
X92019523Y-41380952D01*
X92114761Y-41333333D01*
X92305238Y-41333333D01*
X92400476Y-41380952D01*
X92448095Y-41428571D01*
X92495714Y-41523809D01*
%TO.C,C5*%
X92876666Y-34237142D02*
X92924285Y-34284761D01*
X93067142Y-34332380D01*
X93162380Y-34332380D01*
X93305238Y-34284761D01*
X93400476Y-34189523D01*
X93448095Y-34094285D01*
X93495714Y-33903809D01*
X93495714Y-33760952D01*
X93448095Y-33570476D01*
X93400476Y-33475238D01*
X93305238Y-33380000D01*
X93162380Y-33332380D01*
X93067142Y-33332380D01*
X92924285Y-33380000D01*
X92876666Y-33427619D01*
X91971904Y-33332380D02*
X92448095Y-33332380D01*
X92495714Y-33808571D01*
X92448095Y-33760952D01*
X92352857Y-33713333D01*
X92114761Y-33713333D01*
X92019523Y-33760952D01*
X91971904Y-33808571D01*
X91924285Y-33903809D01*
X91924285Y-34141904D01*
X91971904Y-34237142D01*
X92019523Y-34284761D01*
X92114761Y-34332380D01*
X92352857Y-34332380D01*
X92448095Y-34284761D01*
X92495714Y-34237142D01*
%TO.C,C32*%
X76967142Y-97147142D02*
X77014761Y-97099523D01*
X77062380Y-96956666D01*
X77062380Y-96861428D01*
X77014761Y-96718571D01*
X76919523Y-96623333D01*
X76824285Y-96575714D01*
X76633809Y-96528095D01*
X76490952Y-96528095D01*
X76300476Y-96575714D01*
X76205238Y-96623333D01*
X76110000Y-96718571D01*
X76062380Y-96861428D01*
X76062380Y-96956666D01*
X76110000Y-97099523D01*
X76157619Y-97147142D01*
X76062380Y-97480476D02*
X76062380Y-98099523D01*
X76443333Y-97766190D01*
X76443333Y-97909047D01*
X76490952Y-98004285D01*
X76538571Y-98051904D01*
X76633809Y-98099523D01*
X76871904Y-98099523D01*
X76967142Y-98051904D01*
X77014761Y-98004285D01*
X77062380Y-97909047D01*
X77062380Y-97623333D01*
X77014761Y-97528095D01*
X76967142Y-97480476D01*
X76157619Y-98480476D02*
X76110000Y-98528095D01*
X76062380Y-98623333D01*
X76062380Y-98861428D01*
X76110000Y-98956666D01*
X76157619Y-99004285D01*
X76252857Y-99051904D01*
X76348095Y-99051904D01*
X76490952Y-99004285D01*
X77062380Y-98432857D01*
X77062380Y-99051904D01*
%TO.C,C30*%
X73792142Y-97147142D02*
X73839761Y-97099523D01*
X73887380Y-96956666D01*
X73887380Y-96861428D01*
X73839761Y-96718571D01*
X73744523Y-96623333D01*
X73649285Y-96575714D01*
X73458809Y-96528095D01*
X73315952Y-96528095D01*
X73125476Y-96575714D01*
X73030238Y-96623333D01*
X72935000Y-96718571D01*
X72887380Y-96861428D01*
X72887380Y-96956666D01*
X72935000Y-97099523D01*
X72982619Y-97147142D01*
X72887380Y-97480476D02*
X72887380Y-98099523D01*
X73268333Y-97766190D01*
X73268333Y-97909047D01*
X73315952Y-98004285D01*
X73363571Y-98051904D01*
X73458809Y-98099523D01*
X73696904Y-98099523D01*
X73792142Y-98051904D01*
X73839761Y-98004285D01*
X73887380Y-97909047D01*
X73887380Y-97623333D01*
X73839761Y-97528095D01*
X73792142Y-97480476D01*
X72887380Y-98718571D02*
X72887380Y-98813809D01*
X72935000Y-98909047D01*
X72982619Y-98956666D01*
X73077857Y-99004285D01*
X73268333Y-99051904D01*
X73506428Y-99051904D01*
X73696904Y-99004285D01*
X73792142Y-98956666D01*
X73839761Y-98909047D01*
X73887380Y-98813809D01*
X73887380Y-98718571D01*
X73839761Y-98623333D01*
X73792142Y-98575714D01*
X73696904Y-98528095D01*
X73506428Y-98480476D01*
X73268333Y-98480476D01*
X73077857Y-98528095D01*
X72982619Y-98575714D01*
X72935000Y-98623333D01*
X72887380Y-98718571D01*
%TO.C,C3*%
X50458666Y-34237142D02*
X50506285Y-34284761D01*
X50649142Y-34332380D01*
X50744380Y-34332380D01*
X50887238Y-34284761D01*
X50982476Y-34189523D01*
X51030095Y-34094285D01*
X51077714Y-33903809D01*
X51077714Y-33760952D01*
X51030095Y-33570476D01*
X50982476Y-33475238D01*
X50887238Y-33380000D01*
X50744380Y-33332380D01*
X50649142Y-33332380D01*
X50506285Y-33380000D01*
X50458666Y-33427619D01*
X50125333Y-33332380D02*
X49506285Y-33332380D01*
X49839619Y-33713333D01*
X49696761Y-33713333D01*
X49601523Y-33760952D01*
X49553904Y-33808571D01*
X49506285Y-33903809D01*
X49506285Y-34141904D01*
X49553904Y-34237142D01*
X49601523Y-34284761D01*
X49696761Y-34332380D01*
X49982476Y-34332380D01*
X50077714Y-34284761D01*
X50125333Y-34237142D01*
%TO.C,C2*%
X114322657Y-30968966D02*
X114275038Y-31016585D01*
X114227419Y-31159442D01*
X114227419Y-31254680D01*
X114275038Y-31397538D01*
X114370276Y-31492776D01*
X114465514Y-31540395D01*
X114655990Y-31588014D01*
X114798847Y-31588014D01*
X114989323Y-31540395D01*
X115084561Y-31492776D01*
X115179800Y-31397538D01*
X115227419Y-31254680D01*
X115227419Y-31159442D01*
X115179800Y-31016585D01*
X115132180Y-30968966D01*
X115132180Y-30588014D02*
X115179800Y-30540395D01*
X115227419Y-30445157D01*
X115227419Y-30207061D01*
X115179800Y-30111823D01*
X115132180Y-30064204D01*
X115036942Y-30016585D01*
X114941704Y-30016585D01*
X114798847Y-30064204D01*
X114227419Y-30635633D01*
X114227419Y-30016585D01*
%TO.C,C29*%
X83415142Y-98417142D02*
X83462761Y-98369523D01*
X83510380Y-98226666D01*
X83510380Y-98131428D01*
X83462761Y-97988571D01*
X83367523Y-97893333D01*
X83272285Y-97845714D01*
X83081809Y-97798095D01*
X82938952Y-97798095D01*
X82748476Y-97845714D01*
X82653238Y-97893333D01*
X82558000Y-97988571D01*
X82510380Y-98131428D01*
X82510380Y-98226666D01*
X82558000Y-98369523D01*
X82605619Y-98417142D01*
X82605619Y-98798095D02*
X82558000Y-98845714D01*
X82510380Y-98940952D01*
X82510380Y-99179047D01*
X82558000Y-99274285D01*
X82605619Y-99321904D01*
X82700857Y-99369523D01*
X82796095Y-99369523D01*
X82938952Y-99321904D01*
X83510380Y-98750476D01*
X83510380Y-99369523D01*
X83510380Y-99845714D02*
X83510380Y-100036190D01*
X83462761Y-100131428D01*
X83415142Y-100179047D01*
X83272285Y-100274285D01*
X83081809Y-100321904D01*
X82700857Y-100321904D01*
X82605619Y-100274285D01*
X82558000Y-100226666D01*
X82510380Y-100131428D01*
X82510380Y-99940952D01*
X82558000Y-99845714D01*
X82605619Y-99798095D01*
X82700857Y-99750476D01*
X82938952Y-99750476D01*
X83034190Y-99798095D01*
X83081809Y-99845714D01*
X83129428Y-99940952D01*
X83129428Y-100131428D01*
X83081809Y-100226666D01*
X83034190Y-100274285D01*
X82938952Y-100321904D01*
%TO.C,C22*%
X113926857Y-74993142D02*
X113974476Y-75040761D01*
X114117333Y-75088380D01*
X114212571Y-75088380D01*
X114355428Y-75040761D01*
X114450666Y-74945523D01*
X114498285Y-74850285D01*
X114545904Y-74659809D01*
X114545904Y-74516952D01*
X114498285Y-74326476D01*
X114450666Y-74231238D01*
X114355428Y-74136000D01*
X114212571Y-74088380D01*
X114117333Y-74088380D01*
X113974476Y-74136000D01*
X113926857Y-74183619D01*
X113545904Y-74183619D02*
X113498285Y-74136000D01*
X113403047Y-74088380D01*
X113164952Y-74088380D01*
X113069714Y-74136000D01*
X113022095Y-74183619D01*
X112974476Y-74278857D01*
X112974476Y-74374095D01*
X113022095Y-74516952D01*
X113593523Y-75088380D01*
X112974476Y-75088380D01*
X112593523Y-74183619D02*
X112545904Y-74136000D01*
X112450666Y-74088380D01*
X112212571Y-74088380D01*
X112117333Y-74136000D01*
X112069714Y-74183619D01*
X112022095Y-74278857D01*
X112022095Y-74374095D01*
X112069714Y-74516952D01*
X112641142Y-75088380D01*
X112022095Y-75088380D01*
%TO.C,C21*%
X51926857Y-86232857D02*
X51879238Y-86280476D01*
X51831619Y-86423333D01*
X51831619Y-86518571D01*
X51879238Y-86661428D01*
X51974476Y-86756666D01*
X52069714Y-86804285D01*
X52260190Y-86851904D01*
X52403047Y-86851904D01*
X52593523Y-86804285D01*
X52688761Y-86756666D01*
X52784000Y-86661428D01*
X52831619Y-86518571D01*
X52831619Y-86423333D01*
X52784000Y-86280476D01*
X52736380Y-86232857D01*
X52736380Y-85851904D02*
X52784000Y-85804285D01*
X52831619Y-85709047D01*
X52831619Y-85470952D01*
X52784000Y-85375714D01*
X52736380Y-85328095D01*
X52641142Y-85280476D01*
X52545904Y-85280476D01*
X52403047Y-85328095D01*
X51831619Y-85899523D01*
X51831619Y-85280476D01*
X51831619Y-84328095D02*
X51831619Y-84899523D01*
X51831619Y-84613809D02*
X52831619Y-84613809D01*
X52688761Y-84709047D01*
X52593523Y-84804285D01*
X52545904Y-84899523D01*
%TO.C,C19*%
X91574857Y-55197142D02*
X91622476Y-55244761D01*
X91765333Y-55292380D01*
X91860571Y-55292380D01*
X92003428Y-55244761D01*
X92098666Y-55149523D01*
X92146285Y-55054285D01*
X92193904Y-54863809D01*
X92193904Y-54720952D01*
X92146285Y-54530476D01*
X92098666Y-54435238D01*
X92003428Y-54340000D01*
X91860571Y-54292380D01*
X91765333Y-54292380D01*
X91622476Y-54340000D01*
X91574857Y-54387619D01*
X90622476Y-55292380D02*
X91193904Y-55292380D01*
X90908190Y-55292380D02*
X90908190Y-54292380D01*
X91003428Y-54435238D01*
X91098666Y-54530476D01*
X91193904Y-54578095D01*
X90146285Y-55292380D02*
X89955809Y-55292380D01*
X89860571Y-55244761D01*
X89812952Y-55197142D01*
X89717714Y-55054285D01*
X89670095Y-54863809D01*
X89670095Y-54482857D01*
X89717714Y-54387619D01*
X89765333Y-54340000D01*
X89860571Y-54292380D01*
X90051047Y-54292380D01*
X90146285Y-54340000D01*
X90193904Y-54387619D01*
X90241523Y-54482857D01*
X90241523Y-54720952D01*
X90193904Y-54816190D01*
X90146285Y-54863809D01*
X90051047Y-54911428D01*
X89860571Y-54911428D01*
X89765333Y-54863809D01*
X89717714Y-54816190D01*
X89670095Y-54720952D01*
%TO.C,C18*%
X41227142Y-109085142D02*
X41274761Y-109037523D01*
X41322380Y-108894666D01*
X41322380Y-108799428D01*
X41274761Y-108656571D01*
X41179523Y-108561333D01*
X41084285Y-108513714D01*
X40893809Y-108466095D01*
X40750952Y-108466095D01*
X40560476Y-108513714D01*
X40465238Y-108561333D01*
X40370000Y-108656571D01*
X40322380Y-108799428D01*
X40322380Y-108894666D01*
X40370000Y-109037523D01*
X40417619Y-109085142D01*
X41322380Y-110037523D02*
X41322380Y-109466095D01*
X41322380Y-109751809D02*
X40322380Y-109751809D01*
X40465238Y-109656571D01*
X40560476Y-109561333D01*
X40608095Y-109466095D01*
X40750952Y-110608952D02*
X40703333Y-110513714D01*
X40655714Y-110466095D01*
X40560476Y-110418476D01*
X40512857Y-110418476D01*
X40417619Y-110466095D01*
X40370000Y-110513714D01*
X40322380Y-110608952D01*
X40322380Y-110799428D01*
X40370000Y-110894666D01*
X40417619Y-110942285D01*
X40512857Y-110989904D01*
X40560476Y-110989904D01*
X40655714Y-110942285D01*
X40703333Y-110894666D01*
X40750952Y-110799428D01*
X40750952Y-110608952D01*
X40798571Y-110513714D01*
X40846190Y-110466095D01*
X40941428Y-110418476D01*
X41131904Y-110418476D01*
X41227142Y-110466095D01*
X41274761Y-110513714D01*
X41322380Y-110608952D01*
X41322380Y-110799428D01*
X41274761Y-110894666D01*
X41227142Y-110942285D01*
X41131904Y-110989904D01*
X40941428Y-110989904D01*
X40846190Y-110942285D01*
X40798571Y-110894666D01*
X40750952Y-110799428D01*
%TO.C,C17*%
X90117142Y-75557142D02*
X90164761Y-75509523D01*
X90212380Y-75366666D01*
X90212380Y-75271428D01*
X90164761Y-75128571D01*
X90069523Y-75033333D01*
X89974285Y-74985714D01*
X89783809Y-74938095D01*
X89640952Y-74938095D01*
X89450476Y-74985714D01*
X89355238Y-75033333D01*
X89260000Y-75128571D01*
X89212380Y-75271428D01*
X89212380Y-75366666D01*
X89260000Y-75509523D01*
X89307619Y-75557142D01*
X90212380Y-76509523D02*
X90212380Y-75938095D01*
X90212380Y-76223809D02*
X89212380Y-76223809D01*
X89355238Y-76128571D01*
X89450476Y-76033333D01*
X89498095Y-75938095D01*
X89212380Y-76842857D02*
X89212380Y-77509523D01*
X90212380Y-77080952D01*
%TO.C,C16*%
X38227142Y-93337142D02*
X38274761Y-93289523D01*
X38322380Y-93146666D01*
X38322380Y-93051428D01*
X38274761Y-92908571D01*
X38179523Y-92813333D01*
X38084285Y-92765714D01*
X37893809Y-92718095D01*
X37750952Y-92718095D01*
X37560476Y-92765714D01*
X37465238Y-92813333D01*
X37370000Y-92908571D01*
X37322380Y-93051428D01*
X37322380Y-93146666D01*
X37370000Y-93289523D01*
X37417619Y-93337142D01*
X38322380Y-94289523D02*
X38322380Y-93718095D01*
X38322380Y-94003809D02*
X37322380Y-94003809D01*
X37465238Y-93908571D01*
X37560476Y-93813333D01*
X37608095Y-93718095D01*
X37322380Y-95146666D02*
X37322380Y-94956190D01*
X37370000Y-94860952D01*
X37417619Y-94813333D01*
X37560476Y-94718095D01*
X37750952Y-94670476D01*
X38131904Y-94670476D01*
X38227142Y-94718095D01*
X38274761Y-94765714D01*
X38322380Y-94860952D01*
X38322380Y-95051428D01*
X38274761Y-95146666D01*
X38227142Y-95194285D01*
X38131904Y-95241904D01*
X37893809Y-95241904D01*
X37798571Y-95194285D01*
X37750952Y-95146666D01*
X37703333Y-95051428D01*
X37703333Y-94860952D01*
X37750952Y-94765714D01*
X37798571Y-94718095D01*
X37893809Y-94670476D01*
%TD*%
M02*
