%TF.GenerationSoftware,KiCad,Pcbnew,(5.1.9)-1*%
%TF.CreationDate,2021-05-23T10:03:25-04:00*%
%TF.ProjectId,main,6d61696e-2e6b-4696-9361-645f70636258,rev?*%
%TF.SameCoordinates,Original*%
%TF.FileFunction,Soldermask,Bot*%
%TF.FilePolarity,Negative*%
%FSLAX46Y46*%
G04 Gerber Fmt 4.6, Leading zero omitted, Abs format (unit mm)*
G04 Created by KiCad (PCBNEW (5.1.9)-1) date 2021-05-23 10:03:25*
%MOMM*%
%LPD*%
G01*
G04 APERTURE LIST*
%ADD10C,3.200000*%
%ADD11O,1.700000X1.700000*%
%ADD12R,1.700000X1.700000*%
G04 APERTURE END LIST*
D10*
%TO.C,H6*%
X69850000Y-16510000D03*
%TD*%
%TO.C,H5*%
X115570000Y-107950000D03*
%TD*%
%TO.C,H4*%
X115570000Y-16510000D03*
%TD*%
%TO.C,H3*%
X69850000Y-107950000D03*
%TD*%
%TO.C,H2*%
X24130000Y-16510000D03*
%TD*%
%TO.C,H1*%
X24130000Y-107950000D03*
%TD*%
D11*
%TO.C,J39*%
X116840000Y-101600000D03*
X114300000Y-101600000D03*
X116840000Y-99060000D03*
X114300000Y-99060000D03*
X116840000Y-96520000D03*
X114300000Y-96520000D03*
X116840000Y-93980000D03*
D12*
X114300000Y-93980000D03*
%TD*%
D11*
%TO.C,J38*%
X48260000Y-86360000D03*
X45720000Y-86360000D03*
X48260000Y-83820000D03*
X45720000Y-83820000D03*
X48260000Y-81280000D03*
X45720000Y-81280000D03*
X48260000Y-78740000D03*
X45720000Y-78740000D03*
X48260000Y-76200000D03*
X45720000Y-76200000D03*
X48260000Y-73660000D03*
X45720000Y-73660000D03*
X48260000Y-71120000D03*
X45720000Y-71120000D03*
X48260000Y-68580000D03*
X45720000Y-68580000D03*
X48260000Y-66040000D03*
X45720000Y-66040000D03*
X48260000Y-63500000D03*
X45720000Y-63500000D03*
X48260000Y-60960000D03*
X45720000Y-60960000D03*
X48260000Y-58420000D03*
X45720000Y-58420000D03*
X48260000Y-55880000D03*
X45720000Y-55880000D03*
X48260000Y-53340000D03*
X45720000Y-53340000D03*
X48260000Y-50800000D03*
X45720000Y-50800000D03*
X48260000Y-48260000D03*
X45720000Y-48260000D03*
X48260000Y-45720000D03*
X45720000Y-45720000D03*
X48260000Y-43180000D03*
X45720000Y-43180000D03*
X48260000Y-40640000D03*
X45720000Y-40640000D03*
X48260000Y-38100000D03*
D12*
X45720000Y-38100000D03*
%TD*%
D11*
%TO.C,J37*%
X116840000Y-30480000D03*
X114300000Y-30480000D03*
X116840000Y-27940000D03*
X114300000Y-27940000D03*
X116840000Y-25400000D03*
X114300000Y-25400000D03*
X116840000Y-22860000D03*
D12*
X114300000Y-22860000D03*
%TD*%
D11*
%TO.C,J29*%
X116840000Y-86360000D03*
X114300000Y-86360000D03*
X116840000Y-83820000D03*
X114300000Y-83820000D03*
X116840000Y-81280000D03*
X114300000Y-81280000D03*
X116840000Y-78740000D03*
X114300000Y-78740000D03*
X116840000Y-76200000D03*
X114300000Y-76200000D03*
X116840000Y-73660000D03*
X114300000Y-73660000D03*
X116840000Y-71120000D03*
X114300000Y-71120000D03*
X116840000Y-68580000D03*
X114300000Y-68580000D03*
X116840000Y-66040000D03*
X114300000Y-66040000D03*
X116840000Y-63500000D03*
X114300000Y-63500000D03*
X116840000Y-60960000D03*
X114300000Y-60960000D03*
X116840000Y-58420000D03*
X114300000Y-58420000D03*
X116840000Y-55880000D03*
X114300000Y-55880000D03*
X116840000Y-53340000D03*
X114300000Y-53340000D03*
X116840000Y-50800000D03*
X114300000Y-50800000D03*
X116840000Y-48260000D03*
X114300000Y-48260000D03*
X116840000Y-45720000D03*
X114300000Y-45720000D03*
X116840000Y-43180000D03*
X114300000Y-43180000D03*
X116840000Y-40640000D03*
X114300000Y-40640000D03*
X116840000Y-38100000D03*
D12*
X114300000Y-38100000D03*
%TD*%
D11*
%TO.C,J27*%
X63500000Y-86360000D03*
X60960000Y-86360000D03*
X63500000Y-83820000D03*
X60960000Y-83820000D03*
X63500000Y-81280000D03*
X60960000Y-81280000D03*
X63500000Y-78740000D03*
X60960000Y-78740000D03*
X63500000Y-76200000D03*
X60960000Y-76200000D03*
X63500000Y-73660000D03*
X60960000Y-73660000D03*
X63500000Y-71120000D03*
X60960000Y-71120000D03*
X63500000Y-68580000D03*
X60960000Y-68580000D03*
X63500000Y-66040000D03*
X60960000Y-66040000D03*
X63500000Y-63500000D03*
X60960000Y-63500000D03*
X63500000Y-60960000D03*
X60960000Y-60960000D03*
X63500000Y-58420000D03*
X60960000Y-58420000D03*
X63500000Y-55880000D03*
X60960000Y-55880000D03*
X63500000Y-53340000D03*
X60960000Y-53340000D03*
X63500000Y-50800000D03*
X60960000Y-50800000D03*
X63500000Y-48260000D03*
X60960000Y-48260000D03*
X63500000Y-45720000D03*
X60960000Y-45720000D03*
X63500000Y-43180000D03*
X60960000Y-43180000D03*
X63500000Y-40640000D03*
X60960000Y-40640000D03*
X63500000Y-38100000D03*
D12*
X60960000Y-38100000D03*
%TD*%
D11*
%TO.C,J35*%
X55880000Y-101600000D03*
X53340000Y-101600000D03*
X55880000Y-99060000D03*
X53340000Y-99060000D03*
X55880000Y-96520000D03*
X53340000Y-96520000D03*
X55880000Y-93980000D03*
D12*
X53340000Y-93980000D03*
%TD*%
D11*
%TO.C,J36*%
X40640000Y-101600000D03*
X38100000Y-101600000D03*
X40640000Y-99060000D03*
X38100000Y-99060000D03*
X40640000Y-96520000D03*
X38100000Y-96520000D03*
X40640000Y-93980000D03*
D12*
X38100000Y-93980000D03*
%TD*%
D11*
%TO.C,J34*%
X63500000Y-101600000D03*
X60960000Y-101600000D03*
X63500000Y-99060000D03*
X60960000Y-99060000D03*
X63500000Y-96520000D03*
X60960000Y-96520000D03*
X63500000Y-93980000D03*
D12*
X60960000Y-93980000D03*
%TD*%
D11*
%TO.C,J33*%
X86360000Y-101600000D03*
X83820000Y-101600000D03*
X86360000Y-99060000D03*
X83820000Y-99060000D03*
X86360000Y-96520000D03*
X83820000Y-96520000D03*
X86360000Y-93980000D03*
D12*
X83820000Y-93980000D03*
%TD*%
D11*
%TO.C,J32*%
X101600000Y-101600000D03*
X99060000Y-101600000D03*
X101600000Y-99060000D03*
X99060000Y-99060000D03*
X101600000Y-96520000D03*
X99060000Y-96520000D03*
X101600000Y-93980000D03*
D12*
X99060000Y-93980000D03*
%TD*%
D11*
%TO.C,J31*%
X71120000Y-101600000D03*
X68580000Y-101600000D03*
X71120000Y-99060000D03*
X68580000Y-99060000D03*
X71120000Y-96520000D03*
X68580000Y-96520000D03*
X71120000Y-93980000D03*
D12*
X68580000Y-93980000D03*
%TD*%
D11*
%TO.C,J30*%
X101600000Y-86360000D03*
X99060000Y-86360000D03*
X101600000Y-83820000D03*
X99060000Y-83820000D03*
X101600000Y-81280000D03*
X99060000Y-81280000D03*
X101600000Y-78740000D03*
X99060000Y-78740000D03*
X101600000Y-76200000D03*
X99060000Y-76200000D03*
X101600000Y-73660000D03*
X99060000Y-73660000D03*
X101600000Y-71120000D03*
X99060000Y-71120000D03*
X101600000Y-68580000D03*
X99060000Y-68580000D03*
X101600000Y-66040000D03*
X99060000Y-66040000D03*
X101600000Y-63500000D03*
X99060000Y-63500000D03*
X101600000Y-60960000D03*
X99060000Y-60960000D03*
X101600000Y-58420000D03*
X99060000Y-58420000D03*
X101600000Y-55880000D03*
X99060000Y-55880000D03*
X101600000Y-53340000D03*
X99060000Y-53340000D03*
X101600000Y-50800000D03*
X99060000Y-50800000D03*
X101600000Y-48260000D03*
X99060000Y-48260000D03*
X101600000Y-45720000D03*
X99060000Y-45720000D03*
X101600000Y-43180000D03*
X99060000Y-43180000D03*
X101600000Y-40640000D03*
X99060000Y-40640000D03*
X101600000Y-38100000D03*
D12*
X99060000Y-38100000D03*
%TD*%
D11*
%TO.C,J28*%
X78740000Y-86360000D03*
X76200000Y-86360000D03*
X78740000Y-83820000D03*
X76200000Y-83820000D03*
X78740000Y-81280000D03*
X76200000Y-81280000D03*
X78740000Y-78740000D03*
X76200000Y-78740000D03*
X78740000Y-76200000D03*
X76200000Y-76200000D03*
X78740000Y-73660000D03*
X76200000Y-73660000D03*
X78740000Y-71120000D03*
X76200000Y-71120000D03*
X78740000Y-68580000D03*
X76200000Y-68580000D03*
X78740000Y-66040000D03*
X76200000Y-66040000D03*
X78740000Y-63500000D03*
X76200000Y-63500000D03*
X78740000Y-60960000D03*
X76200000Y-60960000D03*
X78740000Y-58420000D03*
X76200000Y-58420000D03*
X78740000Y-55880000D03*
X76200000Y-55880000D03*
X78740000Y-53340000D03*
X76200000Y-53340000D03*
X78740000Y-50800000D03*
X76200000Y-50800000D03*
X78740000Y-48260000D03*
X76200000Y-48260000D03*
X78740000Y-45720000D03*
X76200000Y-45720000D03*
X78740000Y-43180000D03*
X76200000Y-43180000D03*
X78740000Y-40640000D03*
X76200000Y-40640000D03*
X78740000Y-38100000D03*
D12*
X76200000Y-38100000D03*
%TD*%
D11*
%TO.C,J26*%
X109220000Y-86360000D03*
X106680000Y-86360000D03*
X109220000Y-83820000D03*
X106680000Y-83820000D03*
X109220000Y-81280000D03*
X106680000Y-81280000D03*
X109220000Y-78740000D03*
X106680000Y-78740000D03*
X109220000Y-76200000D03*
X106680000Y-76200000D03*
X109220000Y-73660000D03*
X106680000Y-73660000D03*
X109220000Y-71120000D03*
X106680000Y-71120000D03*
X109220000Y-68580000D03*
X106680000Y-68580000D03*
X109220000Y-66040000D03*
X106680000Y-66040000D03*
X109220000Y-63500000D03*
X106680000Y-63500000D03*
X109220000Y-60960000D03*
X106680000Y-60960000D03*
X109220000Y-58420000D03*
X106680000Y-58420000D03*
X109220000Y-55880000D03*
X106680000Y-55880000D03*
X109220000Y-53340000D03*
X106680000Y-53340000D03*
X109220000Y-50800000D03*
X106680000Y-50800000D03*
X109220000Y-48260000D03*
X106680000Y-48260000D03*
X109220000Y-45720000D03*
X106680000Y-45720000D03*
X109220000Y-43180000D03*
X106680000Y-43180000D03*
X109220000Y-40640000D03*
X106680000Y-40640000D03*
X109220000Y-38100000D03*
D12*
X106680000Y-38100000D03*
%TD*%
D11*
%TO.C,J25*%
X86360000Y-86360000D03*
X83820000Y-86360000D03*
X86360000Y-83820000D03*
X83820000Y-83820000D03*
X86360000Y-81280000D03*
X83820000Y-81280000D03*
X86360000Y-78740000D03*
X83820000Y-78740000D03*
X86360000Y-76200000D03*
X83820000Y-76200000D03*
X86360000Y-73660000D03*
X83820000Y-73660000D03*
X86360000Y-71120000D03*
X83820000Y-71120000D03*
X86360000Y-68580000D03*
X83820000Y-68580000D03*
X86360000Y-66040000D03*
X83820000Y-66040000D03*
X86360000Y-63500000D03*
X83820000Y-63500000D03*
X86360000Y-60960000D03*
X83820000Y-60960000D03*
X86360000Y-58420000D03*
X83820000Y-58420000D03*
X86360000Y-55880000D03*
X83820000Y-55880000D03*
X86360000Y-53340000D03*
X83820000Y-53340000D03*
X86360000Y-50800000D03*
X83820000Y-50800000D03*
X86360000Y-48260000D03*
X83820000Y-48260000D03*
X86360000Y-45720000D03*
X83820000Y-45720000D03*
X86360000Y-43180000D03*
X83820000Y-43180000D03*
X86360000Y-40640000D03*
X83820000Y-40640000D03*
X86360000Y-38100000D03*
D12*
X83820000Y-38100000D03*
%TD*%
D11*
%TO.C,J24*%
X63500000Y-30480000D03*
X60960000Y-30480000D03*
X63500000Y-27940000D03*
X60960000Y-27940000D03*
X63500000Y-25400000D03*
X60960000Y-25400000D03*
X63500000Y-22860000D03*
D12*
X60960000Y-22860000D03*
%TD*%
D11*
%TO.C,J23*%
X101600000Y-30480000D03*
X99060000Y-30480000D03*
X101600000Y-27940000D03*
X99060000Y-27940000D03*
X101600000Y-25400000D03*
X99060000Y-25400000D03*
X101600000Y-22860000D03*
D12*
X99060000Y-22860000D03*
%TD*%
D11*
%TO.C,J22*%
X86360000Y-30480000D03*
X83820000Y-30480000D03*
X86360000Y-27940000D03*
X83820000Y-27940000D03*
X86360000Y-25400000D03*
X83820000Y-25400000D03*
X86360000Y-22860000D03*
D12*
X83820000Y-22860000D03*
%TD*%
D11*
%TO.C,J21*%
X109220000Y-30480000D03*
X106680000Y-30480000D03*
X109220000Y-27940000D03*
X106680000Y-27940000D03*
X109220000Y-25400000D03*
X106680000Y-25400000D03*
X109220000Y-22860000D03*
D12*
X106680000Y-22860000D03*
%TD*%
D11*
%TO.C,J20*%
X48260000Y-30480000D03*
X45720000Y-30480000D03*
X48260000Y-27940000D03*
X45720000Y-27940000D03*
X48260000Y-25400000D03*
X45720000Y-25400000D03*
X48260000Y-22860000D03*
D12*
X45720000Y-22860000D03*
%TD*%
D11*
%TO.C,J19*%
X33020000Y-30480000D03*
X30480000Y-30480000D03*
X33020000Y-27940000D03*
X30480000Y-27940000D03*
X33020000Y-25400000D03*
X30480000Y-25400000D03*
X33020000Y-22860000D03*
D12*
X30480000Y-22860000D03*
%TD*%
D11*
%TO.C,J18*%
X48260000Y-101600000D03*
X45720000Y-101600000D03*
X48260000Y-99060000D03*
X45720000Y-99060000D03*
X48260000Y-96520000D03*
X45720000Y-96520000D03*
X48260000Y-93980000D03*
D12*
X45720000Y-93980000D03*
%TD*%
D11*
%TO.C,J17*%
X33020000Y-101600000D03*
X30480000Y-101600000D03*
X33020000Y-99060000D03*
X30480000Y-99060000D03*
X33020000Y-96520000D03*
X30480000Y-96520000D03*
X33020000Y-93980000D03*
D12*
X30480000Y-93980000D03*
%TD*%
D11*
%TO.C,J16*%
X109220000Y-101600000D03*
X106680000Y-101600000D03*
X109220000Y-99060000D03*
X106680000Y-99060000D03*
X109220000Y-96520000D03*
X106680000Y-96520000D03*
X109220000Y-93980000D03*
D12*
X106680000Y-93980000D03*
%TD*%
D11*
%TO.C,J15*%
X93980000Y-101600000D03*
X91440000Y-101600000D03*
X93980000Y-99060000D03*
X91440000Y-99060000D03*
X93980000Y-96520000D03*
X91440000Y-96520000D03*
X93980000Y-93980000D03*
D12*
X91440000Y-93980000D03*
%TD*%
D11*
%TO.C,J14*%
X78740000Y-101600000D03*
X76200000Y-101600000D03*
X78740000Y-99060000D03*
X76200000Y-99060000D03*
X78740000Y-96520000D03*
X76200000Y-96520000D03*
X78740000Y-93980000D03*
D12*
X76200000Y-93980000D03*
%TD*%
D11*
%TO.C,J13*%
X55880000Y-86360000D03*
X53340000Y-86360000D03*
X55880000Y-83820000D03*
X53340000Y-83820000D03*
X55880000Y-81280000D03*
X53340000Y-81280000D03*
X55880000Y-78740000D03*
X53340000Y-78740000D03*
X55880000Y-76200000D03*
X53340000Y-76200000D03*
X55880000Y-73660000D03*
X53340000Y-73660000D03*
X55880000Y-71120000D03*
X53340000Y-71120000D03*
X55880000Y-68580000D03*
X53340000Y-68580000D03*
X55880000Y-66040000D03*
X53340000Y-66040000D03*
X55880000Y-63500000D03*
X53340000Y-63500000D03*
X55880000Y-60960000D03*
X53340000Y-60960000D03*
X55880000Y-58420000D03*
X53340000Y-58420000D03*
X55880000Y-55880000D03*
X53340000Y-55880000D03*
X55880000Y-53340000D03*
X53340000Y-53340000D03*
X55880000Y-50800000D03*
X53340000Y-50800000D03*
X55880000Y-48260000D03*
X53340000Y-48260000D03*
X55880000Y-45720000D03*
X53340000Y-45720000D03*
X55880000Y-43180000D03*
X53340000Y-43180000D03*
X55880000Y-40640000D03*
X53340000Y-40640000D03*
X55880000Y-38100000D03*
D12*
X53340000Y-38100000D03*
%TD*%
D11*
%TO.C,J12*%
X40640000Y-86360000D03*
X38100000Y-86360000D03*
X40640000Y-83820000D03*
X38100000Y-83820000D03*
X40640000Y-81280000D03*
X38100000Y-81280000D03*
X40640000Y-78740000D03*
X38100000Y-78740000D03*
X40640000Y-76200000D03*
X38100000Y-76200000D03*
X40640000Y-73660000D03*
X38100000Y-73660000D03*
X40640000Y-71120000D03*
X38100000Y-71120000D03*
X40640000Y-68580000D03*
X38100000Y-68580000D03*
X40640000Y-66040000D03*
X38100000Y-66040000D03*
X40640000Y-63500000D03*
X38100000Y-63500000D03*
X40640000Y-60960000D03*
X38100000Y-60960000D03*
X40640000Y-58420000D03*
X38100000Y-58420000D03*
X40640000Y-55880000D03*
X38100000Y-55880000D03*
X40640000Y-53340000D03*
X38100000Y-53340000D03*
X40640000Y-50800000D03*
X38100000Y-50800000D03*
X40640000Y-48260000D03*
X38100000Y-48260000D03*
X40640000Y-45720000D03*
X38100000Y-45720000D03*
X40640000Y-43180000D03*
X38100000Y-43180000D03*
X40640000Y-40640000D03*
X38100000Y-40640000D03*
X40640000Y-38100000D03*
D12*
X38100000Y-38100000D03*
%TD*%
D11*
%TO.C,J11*%
X71120000Y-86360000D03*
X68580000Y-86360000D03*
X71120000Y-83820000D03*
X68580000Y-83820000D03*
X71120000Y-81280000D03*
X68580000Y-81280000D03*
X71120000Y-78740000D03*
X68580000Y-78740000D03*
X71120000Y-76200000D03*
X68580000Y-76200000D03*
X71120000Y-73660000D03*
X68580000Y-73660000D03*
X71120000Y-71120000D03*
X68580000Y-71120000D03*
X71120000Y-68580000D03*
X68580000Y-68580000D03*
X71120000Y-66040000D03*
X68580000Y-66040000D03*
X71120000Y-63500000D03*
X68580000Y-63500000D03*
X71120000Y-60960000D03*
X68580000Y-60960000D03*
X71120000Y-58420000D03*
X68580000Y-58420000D03*
X71120000Y-55880000D03*
X68580000Y-55880000D03*
X71120000Y-53340000D03*
X68580000Y-53340000D03*
X71120000Y-50800000D03*
X68580000Y-50800000D03*
X71120000Y-48260000D03*
X68580000Y-48260000D03*
X71120000Y-45720000D03*
X68580000Y-45720000D03*
X71120000Y-43180000D03*
X68580000Y-43180000D03*
X71120000Y-40640000D03*
X68580000Y-40640000D03*
X71120000Y-38100000D03*
D12*
X68580000Y-38100000D03*
%TD*%
D11*
%TO.C,J10*%
X33020000Y-86360000D03*
X30480000Y-86360000D03*
X33020000Y-83820000D03*
X30480000Y-83820000D03*
X33020000Y-81280000D03*
X30480000Y-81280000D03*
X33020000Y-78740000D03*
X30480000Y-78740000D03*
X33020000Y-76200000D03*
X30480000Y-76200000D03*
X33020000Y-73660000D03*
X30480000Y-73660000D03*
X33020000Y-71120000D03*
X30480000Y-71120000D03*
X33020000Y-68580000D03*
X30480000Y-68580000D03*
X33020000Y-66040000D03*
X30480000Y-66040000D03*
X33020000Y-63500000D03*
X30480000Y-63500000D03*
X33020000Y-60960000D03*
X30480000Y-60960000D03*
X33020000Y-58420000D03*
X30480000Y-58420000D03*
X33020000Y-55880000D03*
X30480000Y-55880000D03*
X33020000Y-53340000D03*
X30480000Y-53340000D03*
X33020000Y-50800000D03*
X30480000Y-50800000D03*
X33020000Y-48260000D03*
X30480000Y-48260000D03*
X33020000Y-45720000D03*
X30480000Y-45720000D03*
X33020000Y-43180000D03*
X30480000Y-43180000D03*
X33020000Y-40640000D03*
X30480000Y-40640000D03*
X33020000Y-38100000D03*
D12*
X30480000Y-38100000D03*
%TD*%
D11*
%TO.C,J9*%
X93980000Y-86360000D03*
X91440000Y-86360000D03*
X93980000Y-83820000D03*
X91440000Y-83820000D03*
X93980000Y-81280000D03*
X91440000Y-81280000D03*
X93980000Y-78740000D03*
X91440000Y-78740000D03*
X93980000Y-76200000D03*
X91440000Y-76200000D03*
X93980000Y-73660000D03*
X91440000Y-73660000D03*
X93980000Y-71120000D03*
X91440000Y-71120000D03*
X93980000Y-68580000D03*
X91440000Y-68580000D03*
X93980000Y-66040000D03*
X91440000Y-66040000D03*
X93980000Y-63500000D03*
X91440000Y-63500000D03*
X93980000Y-60960000D03*
X91440000Y-60960000D03*
X93980000Y-58420000D03*
X91440000Y-58420000D03*
X93980000Y-55880000D03*
X91440000Y-55880000D03*
X93980000Y-53340000D03*
X91440000Y-53340000D03*
X93980000Y-50800000D03*
X91440000Y-50800000D03*
X93980000Y-48260000D03*
X91440000Y-48260000D03*
X93980000Y-45720000D03*
X91440000Y-45720000D03*
X93980000Y-43180000D03*
X91440000Y-43180000D03*
X93980000Y-40640000D03*
X91440000Y-40640000D03*
X93980000Y-38100000D03*
D12*
X91440000Y-38100000D03*
%TD*%
D11*
%TO.C,J8*%
X71120000Y-30480000D03*
X68580000Y-30480000D03*
X71120000Y-27940000D03*
X68580000Y-27940000D03*
X71120000Y-25400000D03*
X68580000Y-25400000D03*
X71120000Y-22860000D03*
D12*
X68580000Y-22860000D03*
%TD*%
D11*
%TO.C,J7*%
X93980000Y-30480000D03*
X91440000Y-30480000D03*
X93980000Y-27940000D03*
X91440000Y-27940000D03*
X93980000Y-25400000D03*
X91440000Y-25400000D03*
X93980000Y-22860000D03*
D12*
X91440000Y-22860000D03*
%TD*%
D11*
%TO.C,J6*%
X40640000Y-30480000D03*
X38100000Y-30480000D03*
X40640000Y-27940000D03*
X38100000Y-27940000D03*
X40640000Y-25400000D03*
X38100000Y-25400000D03*
X40640000Y-22860000D03*
D12*
X38100000Y-22860000D03*
%TD*%
D11*
%TO.C,J5*%
X55880000Y-30480000D03*
X53340000Y-30480000D03*
X55880000Y-27940000D03*
X53340000Y-27940000D03*
X55880000Y-25400000D03*
X53340000Y-25400000D03*
X55880000Y-22860000D03*
D12*
X53340000Y-22860000D03*
%TD*%
D11*
%TO.C,J4*%
X78740000Y-30480000D03*
X76200000Y-30480000D03*
X78740000Y-27940000D03*
X76200000Y-27940000D03*
X78740000Y-25400000D03*
X76200000Y-25400000D03*
X78740000Y-22860000D03*
D12*
X76200000Y-22860000D03*
%TD*%
%TO.C,J2*%
X22860000Y-22860000D03*
D11*
X25400000Y-22860000D03*
X22860000Y-25400000D03*
X25400000Y-25400000D03*
X22860000Y-27940000D03*
X25400000Y-27940000D03*
X22860000Y-30480000D03*
X25400000Y-30480000D03*
%TD*%
%TO.C,J1*%
X25400000Y-101600000D03*
X22860000Y-101600000D03*
X25400000Y-99060000D03*
X22860000Y-99060000D03*
X25400000Y-96520000D03*
X22860000Y-96520000D03*
X25400000Y-93980000D03*
D12*
X22860000Y-93980000D03*
%TD*%
D11*
%TO.C,J3*%
X25400000Y-86360000D03*
X22860000Y-86360000D03*
X25400000Y-83820000D03*
X22860000Y-83820000D03*
X25400000Y-81280000D03*
X22860000Y-81280000D03*
X25400000Y-78740000D03*
X22860000Y-78740000D03*
X25400000Y-76200000D03*
X22860000Y-76200000D03*
X25400000Y-73660000D03*
X22860000Y-73660000D03*
X25400000Y-71120000D03*
X22860000Y-71120000D03*
X25400000Y-68580000D03*
X22860000Y-68580000D03*
X25400000Y-66040000D03*
X22860000Y-66040000D03*
X25400000Y-63500000D03*
X22860000Y-63500000D03*
X25400000Y-60960000D03*
X22860000Y-60960000D03*
X25400000Y-58420000D03*
X22860000Y-58420000D03*
X25400000Y-55880000D03*
X22860000Y-55880000D03*
X25400000Y-53340000D03*
X22860000Y-53340000D03*
X25400000Y-50800000D03*
X22860000Y-50800000D03*
X25400000Y-48260000D03*
X22860000Y-48260000D03*
X25400000Y-45720000D03*
X22860000Y-45720000D03*
X25400000Y-43180000D03*
X22860000Y-43180000D03*
X25400000Y-40640000D03*
X22860000Y-40640000D03*
X25400000Y-38100000D03*
D12*
X22860000Y-38100000D03*
%TD*%
M02*
