M48
; DRILL file {KiCad (5.1.9)-1} date 05/23/21 10:03:27
; FORMAT={-:-/ absolute / inch / decimal}
; #@! TF.CreationDate,2021-05-23T10:03:27-04:00
; #@! TF.GenerationSoftware,Kicad,Pcbnew,(5.1.9)-1
FMAT,2
INCH
T1C0.0236
T2C0.0394
T3C0.1260
%
G90
G05
T1
X1.1455Y-1.2599
X1.4455Y-1.2597
X1.7451Y-1.2595
X2.0453Y-1.2593
X2.3454Y-1.2596
X2.6453Y-1.2595
X2.9454Y-1.2595
X3.2454Y-1.2595
X3.5452Y-1.2594
X3.8454Y-1.2594
X4.1452Y-1.2593
X4.4203Y-1.2592
T2
X0.9Y-0.9
X0.9Y-1.0
X0.9Y-1.1
X0.9Y-1.2
X0.9Y-1.5
X0.9Y-1.6
X0.9Y-1.7
X0.9Y-1.8
X0.9Y-1.9
X0.9Y-2.0
X0.9Y-2.1
X0.9Y-2.2
X0.9Y-2.3
X0.9Y-2.4
X0.9Y-2.5
X0.9Y-2.6
X0.9Y-2.7
X0.9Y-2.8
X0.9Y-2.9
X0.9Y-3.0
X0.9Y-3.1
X0.9Y-3.2
X0.9Y-3.3
X0.9Y-3.4
X0.9Y-3.7
X0.9Y-3.8
X0.9Y-3.9
X0.9Y-4.0
X1.0Y-0.9
X1.0Y-1.0
X1.0Y-1.1
X1.0Y-1.2
X1.0Y-1.5
X1.0Y-1.6
X1.0Y-1.7
X1.0Y-1.8
X1.0Y-1.9
X1.0Y-2.0
X1.0Y-2.1
X1.0Y-2.2
X1.0Y-2.3
X1.0Y-2.4
X1.0Y-2.5
X1.0Y-2.6
X1.0Y-2.7
X1.0Y-2.8
X1.0Y-2.9
X1.0Y-3.0
X1.0Y-3.1
X1.0Y-3.2
X1.0Y-3.3
X1.0Y-3.4
X1.0Y-3.7
X1.0Y-3.8
X1.0Y-3.9
X1.0Y-4.0
X1.2Y-0.9
X1.2Y-1.0
X1.2Y-1.1
X1.2Y-1.2
X1.2Y-1.5
X1.2Y-1.6
X1.2Y-1.7
X1.2Y-1.8
X1.2Y-1.9
X1.2Y-2.0
X1.2Y-2.1
X1.2Y-2.2
X1.2Y-2.3
X1.2Y-2.4
X1.2Y-2.5
X1.2Y-2.6
X1.2Y-2.7
X1.2Y-2.8
X1.2Y-2.9
X1.2Y-3.0
X1.2Y-3.1
X1.2Y-3.2
X1.2Y-3.3
X1.2Y-3.4
X1.2Y-3.7
X1.2Y-3.8
X1.2Y-3.9
X1.2Y-4.0
X1.3Y-0.9
X1.3Y-1.0
X1.3Y-1.1
X1.3Y-1.2
X1.3Y-1.5
X1.3Y-1.6
X1.3Y-1.7
X1.3Y-1.8
X1.3Y-1.9
X1.3Y-2.0
X1.3Y-2.1
X1.3Y-2.2
X1.3Y-2.3
X1.3Y-2.4
X1.3Y-2.5
X1.3Y-2.6
X1.3Y-2.7
X1.3Y-2.8
X1.3Y-2.9
X1.3Y-3.0
X1.3Y-3.1
X1.3Y-3.2
X1.3Y-3.3
X1.3Y-3.4
X1.3Y-3.7
X1.3Y-3.8
X1.3Y-3.9
X1.3Y-4.0
X1.5Y-0.9
X1.5Y-1.0
X1.5Y-1.1
X1.5Y-1.2
X1.5Y-1.5
X1.5Y-1.6
X1.5Y-1.7
X1.5Y-1.8
X1.5Y-1.9
X1.5Y-2.0
X1.5Y-2.1
X1.5Y-2.2
X1.5Y-2.3
X1.5Y-2.4
X1.5Y-2.5
X1.5Y-2.6
X1.5Y-2.7
X1.5Y-2.8
X1.5Y-2.9
X1.5Y-3.0
X1.5Y-3.1
X1.5Y-3.2
X1.5Y-3.3
X1.5Y-3.4
X1.5Y-3.7
X1.5Y-3.8
X1.5Y-3.9
X1.5Y-4.0
X1.6Y-0.9
X1.6Y-1.0
X1.6Y-1.1
X1.6Y-1.2
X1.6Y-1.5
X1.6Y-1.6
X1.6Y-1.7
X1.6Y-1.8
X1.6Y-1.9
X1.6Y-2.0
X1.6Y-2.1
X1.6Y-2.2
X1.6Y-2.3
X1.6Y-2.4
X1.6Y-2.5
X1.6Y-2.6
X1.6Y-2.7
X1.6Y-2.8
X1.6Y-2.9
X1.6Y-3.0
X1.6Y-3.1
X1.6Y-3.2
X1.6Y-3.3
X1.6Y-3.4
X1.6Y-3.7
X1.6Y-3.8
X1.6Y-3.9
X1.6Y-4.0
X1.8Y-0.9
X1.8Y-1.0
X1.8Y-1.1
X1.8Y-1.2
X1.8Y-1.5
X1.8Y-1.6
X1.8Y-1.7
X1.8Y-1.8
X1.8Y-1.9
X1.8Y-2.0
X1.8Y-2.1
X1.8Y-2.2
X1.8Y-2.3
X1.8Y-2.4
X1.8Y-2.5
X1.8Y-2.6
X1.8Y-2.7
X1.8Y-2.8
X1.8Y-2.9
X1.8Y-3.0
X1.8Y-3.1
X1.8Y-3.2
X1.8Y-3.3
X1.8Y-3.4
X1.8Y-3.7
X1.8Y-3.8
X1.8Y-3.9
X1.8Y-4.0
X1.9Y-0.9
X1.9Y-1.0
X1.9Y-1.1
X1.9Y-1.2
X1.9Y-1.5
X1.9Y-1.6
X1.9Y-1.7
X1.9Y-1.8
X1.9Y-1.9
X1.9Y-2.0
X1.9Y-2.1
X1.9Y-2.2
X1.9Y-2.3
X1.9Y-2.4
X1.9Y-2.5
X1.9Y-2.6
X1.9Y-2.7
X1.9Y-2.8
X1.9Y-2.9
X1.9Y-3.0
X1.9Y-3.1
X1.9Y-3.2
X1.9Y-3.3
X1.9Y-3.4
X1.9Y-3.7
X1.9Y-3.8
X1.9Y-3.9
X1.9Y-4.0
X2.1Y-0.9
X2.1Y-1.0
X2.1Y-1.1
X2.1Y-1.2
X2.1Y-1.5
X2.1Y-1.6
X2.1Y-1.7
X2.1Y-1.8
X2.1Y-1.9
X2.1Y-2.0
X2.1Y-2.1
X2.1Y-2.2
X2.1Y-2.3
X2.1Y-2.4
X2.1Y-2.5
X2.1Y-2.6
X2.1Y-2.7
X2.1Y-2.8
X2.1Y-2.9
X2.1Y-3.0
X2.1Y-3.1
X2.1Y-3.2
X2.1Y-3.3
X2.1Y-3.4
X2.1Y-3.7
X2.1Y-3.8
X2.1Y-3.9
X2.1Y-4.0
X2.2Y-0.9
X2.2Y-1.0
X2.2Y-1.1
X2.2Y-1.2
X2.2Y-1.5
X2.2Y-1.6
X2.2Y-1.7
X2.2Y-1.8
X2.2Y-1.9
X2.2Y-2.0
X2.2Y-2.1
X2.2Y-2.2
X2.2Y-2.3
X2.2Y-2.4
X2.2Y-2.5
X2.2Y-2.6
X2.2Y-2.7
X2.2Y-2.8
X2.2Y-2.9
X2.2Y-3.0
X2.2Y-3.1
X2.2Y-3.2
X2.2Y-3.3
X2.2Y-3.4
X2.2Y-3.7
X2.2Y-3.8
X2.2Y-3.9
X2.2Y-4.0
X2.4Y-0.9
X2.4Y-1.0
X2.4Y-1.1
X2.4Y-1.2
X2.4Y-1.5
X2.4Y-1.6
X2.4Y-1.7
X2.4Y-1.8
X2.4Y-1.9
X2.4Y-2.0
X2.4Y-2.1
X2.4Y-2.2
X2.4Y-2.3
X2.4Y-2.4
X2.4Y-2.5
X2.4Y-2.6
X2.4Y-2.7
X2.4Y-2.8
X2.4Y-2.9
X2.4Y-3.0
X2.4Y-3.1
X2.4Y-3.2
X2.4Y-3.3
X2.4Y-3.4
X2.4Y-3.7
X2.4Y-3.8
X2.4Y-3.9
X2.4Y-4.0
X2.5Y-0.9
X2.5Y-1.0
X2.5Y-1.1
X2.5Y-1.2
X2.5Y-1.5
X2.5Y-1.6
X2.5Y-1.7
X2.5Y-1.8
X2.5Y-1.9
X2.5Y-2.0
X2.5Y-2.1
X2.5Y-2.2
X2.5Y-2.3
X2.5Y-2.4
X2.5Y-2.5
X2.5Y-2.6
X2.5Y-2.7
X2.5Y-2.8
X2.5Y-2.9
X2.5Y-3.0
X2.5Y-3.1
X2.5Y-3.2
X2.5Y-3.3
X2.5Y-3.4
X2.5Y-3.7
X2.5Y-3.8
X2.5Y-3.9
X2.5Y-4.0
X2.7Y-0.9
X2.7Y-1.0
X2.7Y-1.1
X2.7Y-1.2
X2.7Y-1.5
X2.7Y-1.6
X2.7Y-1.7
X2.7Y-1.8
X2.7Y-1.9
X2.7Y-2.0
X2.7Y-2.1
X2.7Y-2.2
X2.7Y-2.3
X2.7Y-2.4
X2.7Y-2.5
X2.7Y-2.6
X2.7Y-2.7
X2.7Y-2.8
X2.7Y-2.9
X2.7Y-3.0
X2.7Y-3.1
X2.7Y-3.2
X2.7Y-3.3
X2.7Y-3.4
X2.7Y-3.7
X2.7Y-3.8
X2.7Y-3.9
X2.7Y-4.0
X2.8Y-0.9
X2.8Y-1.0
X2.8Y-1.1
X2.8Y-1.2
X2.8Y-1.5
X2.8Y-1.6
X2.8Y-1.7
X2.8Y-1.8
X2.8Y-1.9
X2.8Y-2.0
X2.8Y-2.1
X2.8Y-2.2
X2.8Y-2.3
X2.8Y-2.4
X2.8Y-2.5
X2.8Y-2.6
X2.8Y-2.7
X2.8Y-2.8
X2.8Y-2.9
X2.8Y-3.0
X2.8Y-3.1
X2.8Y-3.2
X2.8Y-3.3
X2.8Y-3.4
X2.8Y-3.7
X2.8Y-3.8
X2.8Y-3.9
X2.8Y-4.0
X3.0Y-0.9
X3.0Y-1.0
X3.0Y-1.1
X3.0Y-1.2
X3.0Y-1.5
X3.0Y-1.6
X3.0Y-1.7
X3.0Y-1.8
X3.0Y-1.9
X3.0Y-2.0
X3.0Y-2.1
X3.0Y-2.2
X3.0Y-2.3
X3.0Y-2.4
X3.0Y-2.5
X3.0Y-2.6
X3.0Y-2.7
X3.0Y-2.8
X3.0Y-2.9
X3.0Y-3.0
X3.0Y-3.1
X3.0Y-3.2
X3.0Y-3.3
X3.0Y-3.4
X3.0Y-3.7
X3.0Y-3.8
X3.0Y-3.9
X3.0Y-4.0
X3.1Y-0.9
X3.1Y-1.0
X3.1Y-1.1
X3.1Y-1.2
X3.1Y-1.5
X3.1Y-1.6
X3.1Y-1.7
X3.1Y-1.8
X3.1Y-1.9
X3.1Y-2.0
X3.1Y-2.1
X3.1Y-2.2
X3.1Y-2.3
X3.1Y-2.4
X3.1Y-2.5
X3.1Y-2.6
X3.1Y-2.7
X3.1Y-2.8
X3.1Y-2.9
X3.1Y-3.0
X3.1Y-3.1
X3.1Y-3.2
X3.1Y-3.3
X3.1Y-3.4
X3.1Y-3.7
X3.1Y-3.8
X3.1Y-3.9
X3.1Y-4.0
X3.3Y-0.9
X3.3Y-1.0
X3.3Y-1.1
X3.3Y-1.2
X3.3Y-1.5
X3.3Y-1.6
X3.3Y-1.7
X3.3Y-1.8
X3.3Y-1.9
X3.3Y-2.0
X3.3Y-2.1
X3.3Y-2.2
X3.3Y-2.3
X3.3Y-2.4
X3.3Y-2.5
X3.3Y-2.6
X3.3Y-2.7
X3.3Y-2.8
X3.3Y-2.9
X3.3Y-3.0
X3.3Y-3.1
X3.3Y-3.2
X3.3Y-3.3
X3.3Y-3.4
X3.3Y-3.7
X3.3Y-3.8
X3.3Y-3.9
X3.3Y-4.0
X3.4Y-0.9
X3.4Y-1.0
X3.4Y-1.1
X3.4Y-1.2
X3.4Y-1.5
X3.4Y-1.6
X3.4Y-1.7
X3.4Y-1.8
X3.4Y-1.9
X3.4Y-2.0
X3.4Y-2.1
X3.4Y-2.2
X3.4Y-2.3
X3.4Y-2.4
X3.4Y-2.5
X3.4Y-2.6
X3.4Y-2.7
X3.4Y-2.8
X3.4Y-2.9
X3.4Y-3.0
X3.4Y-3.1
X3.4Y-3.2
X3.4Y-3.3
X3.4Y-3.4
X3.4Y-3.7
X3.4Y-3.8
X3.4Y-3.9
X3.4Y-4.0
X3.6Y-0.9
X3.6Y-1.0
X3.6Y-1.1
X3.6Y-1.2
X3.6Y-1.5
X3.6Y-1.6
X3.6Y-1.7
X3.6Y-1.8
X3.6Y-1.9
X3.6Y-2.0
X3.6Y-2.1
X3.6Y-2.2
X3.6Y-2.3
X3.6Y-2.4
X3.6Y-2.5
X3.6Y-2.6
X3.6Y-2.7
X3.6Y-2.8
X3.6Y-2.9
X3.6Y-3.0
X3.6Y-3.1
X3.6Y-3.2
X3.6Y-3.3
X3.6Y-3.4
X3.6Y-3.7
X3.6Y-3.8
X3.6Y-3.9
X3.6Y-4.0
X3.7Y-0.9
X3.7Y-1.0
X3.7Y-1.1
X3.7Y-1.2
X3.7Y-1.5
X3.7Y-1.6
X3.7Y-1.7
X3.7Y-1.8
X3.7Y-1.9
X3.7Y-2.0
X3.7Y-2.1
X3.7Y-2.2
X3.7Y-2.3
X3.7Y-2.4
X3.7Y-2.5
X3.7Y-2.6
X3.7Y-2.7
X3.7Y-2.8
X3.7Y-2.9
X3.7Y-3.0
X3.7Y-3.1
X3.7Y-3.2
X3.7Y-3.3
X3.7Y-3.4
X3.7Y-3.7
X3.7Y-3.8
X3.7Y-3.9
X3.7Y-4.0
X3.9Y-0.9
X3.9Y-1.0
X3.9Y-1.1
X3.9Y-1.2
X3.9Y-1.5
X3.9Y-1.6
X3.9Y-1.7
X3.9Y-1.8
X3.9Y-1.9
X3.9Y-2.0
X3.9Y-2.1
X3.9Y-2.2
X3.9Y-2.3
X3.9Y-2.4
X3.9Y-2.5
X3.9Y-2.6
X3.9Y-2.7
X3.9Y-2.8
X3.9Y-2.9
X3.9Y-3.0
X3.9Y-3.1
X3.9Y-3.2
X3.9Y-3.3
X3.9Y-3.4
X3.9Y-3.7
X3.9Y-3.8
X3.9Y-3.9
X3.9Y-4.0
X4.0Y-0.9
X4.0Y-1.0
X4.0Y-1.1
X4.0Y-1.2
X4.0Y-1.5
X4.0Y-1.6
X4.0Y-1.7
X4.0Y-1.8
X4.0Y-1.9
X4.0Y-2.0
X4.0Y-2.1
X4.0Y-2.2
X4.0Y-2.3
X4.0Y-2.4
X4.0Y-2.5
X4.0Y-2.6
X4.0Y-2.7
X4.0Y-2.8
X4.0Y-2.9
X4.0Y-3.0
X4.0Y-3.1
X4.0Y-3.2
X4.0Y-3.3
X4.0Y-3.4
X4.0Y-3.7
X4.0Y-3.8
X4.0Y-3.9
X4.0Y-4.0
X4.2Y-0.9
X4.2Y-1.0
X4.2Y-1.1
X4.2Y-1.2
X4.2Y-1.5
X4.2Y-1.6
X4.2Y-1.7
X4.2Y-1.8
X4.2Y-1.9
X4.2Y-2.0
X4.2Y-2.1
X4.2Y-2.2
X4.2Y-2.3
X4.2Y-2.4
X4.2Y-2.5
X4.2Y-2.6
X4.2Y-2.7
X4.2Y-2.8
X4.2Y-2.9
X4.2Y-3.0
X4.2Y-3.1
X4.2Y-3.2
X4.2Y-3.3
X4.2Y-3.4
X4.2Y-3.7
X4.2Y-3.8
X4.2Y-3.9
X4.2Y-4.0
X4.3Y-0.9
X4.3Y-1.0
X4.3Y-1.1
X4.3Y-1.2
X4.3Y-1.5
X4.3Y-1.6
X4.3Y-1.7
X4.3Y-1.8
X4.3Y-1.9
X4.3Y-2.0
X4.3Y-2.1
X4.3Y-2.2
X4.3Y-2.3
X4.3Y-2.4
X4.3Y-2.5
X4.3Y-2.6
X4.3Y-2.7
X4.3Y-2.8
X4.3Y-2.9
X4.3Y-3.0
X4.3Y-3.1
X4.3Y-3.2
X4.3Y-3.3
X4.3Y-3.4
X4.3Y-3.7
X4.3Y-3.8
X4.3Y-3.9
X4.3Y-4.0
X4.5Y-0.9
X4.5Y-1.0
X4.5Y-1.1
X4.5Y-1.2
X4.5Y-1.5
X4.5Y-1.6
X4.5Y-1.7
X4.5Y-1.8
X4.5Y-1.9
X4.5Y-2.0
X4.5Y-2.1
X4.5Y-2.2
X4.5Y-2.3
X4.5Y-2.4
X4.5Y-2.5
X4.5Y-2.6
X4.5Y-2.7
X4.5Y-2.8
X4.5Y-2.9
X4.5Y-3.0
X4.5Y-3.1
X4.5Y-3.2
X4.5Y-3.3
X4.5Y-3.4
X4.5Y-3.7
X4.5Y-3.8
X4.5Y-3.9
X4.5Y-4.0
X4.6Y-0.9
X4.6Y-1.0
X4.6Y-1.1
X4.6Y-1.2
X4.6Y-1.5
X4.6Y-1.6
X4.6Y-1.7
X4.6Y-1.8
X4.6Y-1.9
X4.6Y-2.0
X4.6Y-2.1
X4.6Y-2.2
X4.6Y-2.3
X4.6Y-2.4
X4.6Y-2.5
X4.6Y-2.6
X4.6Y-2.7
X4.6Y-2.8
X4.6Y-2.9
X4.6Y-3.0
X4.6Y-3.1
X4.6Y-3.2
X4.6Y-3.3
X4.6Y-3.4
X4.6Y-3.7
X4.6Y-3.8
X4.6Y-3.9
X4.6Y-4.0
T3
X0.95Y-0.65
X0.95Y-4.25
X2.75Y-0.65
X2.75Y-4.25
X4.55Y-0.65
X4.55Y-4.25
T0
M30
