%TF.GenerationSoftware,KiCad,Pcbnew,(5.1.9)-1*%
%TF.CreationDate,2022-02-06T01:16:42-05:00*%
%TF.ProjectId,main,6d61696e-2e6b-4696-9361-645f70636258,rev?*%
%TF.SameCoordinates,Original*%
%TF.FileFunction,Soldermask,Top*%
%TF.FilePolarity,Negative*%
%FSLAX46Y46*%
G04 Gerber Fmt 4.6, Leading zero omitted, Abs format (unit mm)*
G04 Created by KiCad (PCBNEW (5.1.9)-1) date 2022-02-06 01:16:42*
%MOMM*%
%LPD*%
G01*
G04 APERTURE LIST*
%ADD10O,1.700000X1.700000*%
%ADD11R,1.700000X1.700000*%
%ADD12R,1.050000X1.500000*%
%ADD13O,1.050000X1.500000*%
%ADD14O,4.000000X3.000000*%
%ADD15O,2.000000X3.200000*%
%ADD16R,2.000000X1.800000*%
%ADD17O,1.600000X1.600000*%
%ADD18R,1.600000X1.600000*%
%ADD19C,3.200000*%
%ADD20C,1.600000*%
G04 APERTURE END LIST*
%TO.C,U4*%
G36*
G01*
X84685000Y-39520000D02*
X84685000Y-39220000D01*
G75*
G02*
X84835000Y-39070000I150000J0D01*
G01*
X86485000Y-39070000D01*
G75*
G02*
X86635000Y-39220000I0J-150000D01*
G01*
X86635000Y-39520000D01*
G75*
G02*
X86485000Y-39670000I-150000J0D01*
G01*
X84835000Y-39670000D01*
G75*
G02*
X84685000Y-39520000I0J150000D01*
G01*
G37*
G36*
G01*
X84685000Y-40790000D02*
X84685000Y-40490000D01*
G75*
G02*
X84835000Y-40340000I150000J0D01*
G01*
X86485000Y-40340000D01*
G75*
G02*
X86635000Y-40490000I0J-150000D01*
G01*
X86635000Y-40790000D01*
G75*
G02*
X86485000Y-40940000I-150000J0D01*
G01*
X84835000Y-40940000D01*
G75*
G02*
X84685000Y-40790000I0J150000D01*
G01*
G37*
G36*
G01*
X84685000Y-42060000D02*
X84685000Y-41760000D01*
G75*
G02*
X84835000Y-41610000I150000J0D01*
G01*
X86485000Y-41610000D01*
G75*
G02*
X86635000Y-41760000I0J-150000D01*
G01*
X86635000Y-42060000D01*
G75*
G02*
X86485000Y-42210000I-150000J0D01*
G01*
X84835000Y-42210000D01*
G75*
G02*
X84685000Y-42060000I0J150000D01*
G01*
G37*
G36*
G01*
X84685000Y-43330000D02*
X84685000Y-43030000D01*
G75*
G02*
X84835000Y-42880000I150000J0D01*
G01*
X86485000Y-42880000D01*
G75*
G02*
X86635000Y-43030000I0J-150000D01*
G01*
X86635000Y-43330000D01*
G75*
G02*
X86485000Y-43480000I-150000J0D01*
G01*
X84835000Y-43480000D01*
G75*
G02*
X84685000Y-43330000I0J150000D01*
G01*
G37*
G36*
G01*
X84685000Y-44600000D02*
X84685000Y-44300000D01*
G75*
G02*
X84835000Y-44150000I150000J0D01*
G01*
X86485000Y-44150000D01*
G75*
G02*
X86635000Y-44300000I0J-150000D01*
G01*
X86635000Y-44600000D01*
G75*
G02*
X86485000Y-44750000I-150000J0D01*
G01*
X84835000Y-44750000D01*
G75*
G02*
X84685000Y-44600000I0J150000D01*
G01*
G37*
G36*
G01*
X84685000Y-45870000D02*
X84685000Y-45570000D01*
G75*
G02*
X84835000Y-45420000I150000J0D01*
G01*
X86485000Y-45420000D01*
G75*
G02*
X86635000Y-45570000I0J-150000D01*
G01*
X86635000Y-45870000D01*
G75*
G02*
X86485000Y-46020000I-150000J0D01*
G01*
X84835000Y-46020000D01*
G75*
G02*
X84685000Y-45870000I0J150000D01*
G01*
G37*
G36*
G01*
X84685000Y-47140000D02*
X84685000Y-46840000D01*
G75*
G02*
X84835000Y-46690000I150000J0D01*
G01*
X86485000Y-46690000D01*
G75*
G02*
X86635000Y-46840000I0J-150000D01*
G01*
X86635000Y-47140000D01*
G75*
G02*
X86485000Y-47290000I-150000J0D01*
G01*
X84835000Y-47290000D01*
G75*
G02*
X84685000Y-47140000I0J150000D01*
G01*
G37*
G36*
G01*
X79735000Y-47140000D02*
X79735000Y-46840000D01*
G75*
G02*
X79885000Y-46690000I150000J0D01*
G01*
X81535000Y-46690000D01*
G75*
G02*
X81685000Y-46840000I0J-150000D01*
G01*
X81685000Y-47140000D01*
G75*
G02*
X81535000Y-47290000I-150000J0D01*
G01*
X79885000Y-47290000D01*
G75*
G02*
X79735000Y-47140000I0J150000D01*
G01*
G37*
G36*
G01*
X79735000Y-45870000D02*
X79735000Y-45570000D01*
G75*
G02*
X79885000Y-45420000I150000J0D01*
G01*
X81535000Y-45420000D01*
G75*
G02*
X81685000Y-45570000I0J-150000D01*
G01*
X81685000Y-45870000D01*
G75*
G02*
X81535000Y-46020000I-150000J0D01*
G01*
X79885000Y-46020000D01*
G75*
G02*
X79735000Y-45870000I0J150000D01*
G01*
G37*
G36*
G01*
X79735000Y-44600000D02*
X79735000Y-44300000D01*
G75*
G02*
X79885000Y-44150000I150000J0D01*
G01*
X81535000Y-44150000D01*
G75*
G02*
X81685000Y-44300000I0J-150000D01*
G01*
X81685000Y-44600000D01*
G75*
G02*
X81535000Y-44750000I-150000J0D01*
G01*
X79885000Y-44750000D01*
G75*
G02*
X79735000Y-44600000I0J150000D01*
G01*
G37*
G36*
G01*
X79735000Y-43330000D02*
X79735000Y-43030000D01*
G75*
G02*
X79885000Y-42880000I150000J0D01*
G01*
X81535000Y-42880000D01*
G75*
G02*
X81685000Y-43030000I0J-150000D01*
G01*
X81685000Y-43330000D01*
G75*
G02*
X81535000Y-43480000I-150000J0D01*
G01*
X79885000Y-43480000D01*
G75*
G02*
X79735000Y-43330000I0J150000D01*
G01*
G37*
G36*
G01*
X79735000Y-42060000D02*
X79735000Y-41760000D01*
G75*
G02*
X79885000Y-41610000I150000J0D01*
G01*
X81535000Y-41610000D01*
G75*
G02*
X81685000Y-41760000I0J-150000D01*
G01*
X81685000Y-42060000D01*
G75*
G02*
X81535000Y-42210000I-150000J0D01*
G01*
X79885000Y-42210000D01*
G75*
G02*
X79735000Y-42060000I0J150000D01*
G01*
G37*
G36*
G01*
X79735000Y-40790000D02*
X79735000Y-40490000D01*
G75*
G02*
X79885000Y-40340000I150000J0D01*
G01*
X81535000Y-40340000D01*
G75*
G02*
X81685000Y-40490000I0J-150000D01*
G01*
X81685000Y-40790000D01*
G75*
G02*
X81535000Y-40940000I-150000J0D01*
G01*
X79885000Y-40940000D01*
G75*
G02*
X79735000Y-40790000I0J150000D01*
G01*
G37*
G36*
G01*
X79735000Y-39520000D02*
X79735000Y-39220000D01*
G75*
G02*
X79885000Y-39070000I150000J0D01*
G01*
X81535000Y-39070000D01*
G75*
G02*
X81685000Y-39220000I0J-150000D01*
G01*
X81685000Y-39520000D01*
G75*
G02*
X81535000Y-39670000I-150000J0D01*
G01*
X79885000Y-39670000D01*
G75*
G02*
X79735000Y-39520000I0J150000D01*
G01*
G37*
%TD*%
D10*
%TO.C,J4*%
X75820000Y-22500000D03*
X73280000Y-22500000D03*
X70740000Y-22500000D03*
X68200000Y-22500000D03*
X65660000Y-22500000D03*
X63120000Y-22500000D03*
X60580000Y-22500000D03*
X58040000Y-22500000D03*
D11*
X55500000Y-22500000D03*
%TD*%
%TO.C,U17*%
G36*
G01*
X96450000Y-38205000D02*
X96450000Y-37905000D01*
G75*
G02*
X96600000Y-37755000I150000J0D01*
G01*
X98050000Y-37755000D01*
G75*
G02*
X98200000Y-37905000I0J-150000D01*
G01*
X98200000Y-38205000D01*
G75*
G02*
X98050000Y-38355000I-150000J0D01*
G01*
X96600000Y-38355000D01*
G75*
G02*
X96450000Y-38205000I0J150000D01*
G01*
G37*
G36*
G01*
X96450000Y-39475000D02*
X96450000Y-39175000D01*
G75*
G02*
X96600000Y-39025000I150000J0D01*
G01*
X98050000Y-39025000D01*
G75*
G02*
X98200000Y-39175000I0J-150000D01*
G01*
X98200000Y-39475000D01*
G75*
G02*
X98050000Y-39625000I-150000J0D01*
G01*
X96600000Y-39625000D01*
G75*
G02*
X96450000Y-39475000I0J150000D01*
G01*
G37*
G36*
G01*
X96450000Y-40745000D02*
X96450000Y-40445000D01*
G75*
G02*
X96600000Y-40295000I150000J0D01*
G01*
X98050000Y-40295000D01*
G75*
G02*
X98200000Y-40445000I0J-150000D01*
G01*
X98200000Y-40745000D01*
G75*
G02*
X98050000Y-40895000I-150000J0D01*
G01*
X96600000Y-40895000D01*
G75*
G02*
X96450000Y-40745000I0J150000D01*
G01*
G37*
G36*
G01*
X96450000Y-42015000D02*
X96450000Y-41715000D01*
G75*
G02*
X96600000Y-41565000I150000J0D01*
G01*
X98050000Y-41565000D01*
G75*
G02*
X98200000Y-41715000I0J-150000D01*
G01*
X98200000Y-42015000D01*
G75*
G02*
X98050000Y-42165000I-150000J0D01*
G01*
X96600000Y-42165000D01*
G75*
G02*
X96450000Y-42015000I0J150000D01*
G01*
G37*
G36*
G01*
X96450000Y-43285000D02*
X96450000Y-42985000D01*
G75*
G02*
X96600000Y-42835000I150000J0D01*
G01*
X98050000Y-42835000D01*
G75*
G02*
X98200000Y-42985000I0J-150000D01*
G01*
X98200000Y-43285000D01*
G75*
G02*
X98050000Y-43435000I-150000J0D01*
G01*
X96600000Y-43435000D01*
G75*
G02*
X96450000Y-43285000I0J150000D01*
G01*
G37*
G36*
G01*
X96450000Y-44555000D02*
X96450000Y-44255000D01*
G75*
G02*
X96600000Y-44105000I150000J0D01*
G01*
X98050000Y-44105000D01*
G75*
G02*
X98200000Y-44255000I0J-150000D01*
G01*
X98200000Y-44555000D01*
G75*
G02*
X98050000Y-44705000I-150000J0D01*
G01*
X96600000Y-44705000D01*
G75*
G02*
X96450000Y-44555000I0J150000D01*
G01*
G37*
G36*
G01*
X96450000Y-45825000D02*
X96450000Y-45525000D01*
G75*
G02*
X96600000Y-45375000I150000J0D01*
G01*
X98050000Y-45375000D01*
G75*
G02*
X98200000Y-45525000I0J-150000D01*
G01*
X98200000Y-45825000D01*
G75*
G02*
X98050000Y-45975000I-150000J0D01*
G01*
X96600000Y-45975000D01*
G75*
G02*
X96450000Y-45825000I0J150000D01*
G01*
G37*
G36*
G01*
X96450000Y-47095000D02*
X96450000Y-46795000D01*
G75*
G02*
X96600000Y-46645000I150000J0D01*
G01*
X98050000Y-46645000D01*
G75*
G02*
X98200000Y-46795000I0J-150000D01*
G01*
X98200000Y-47095000D01*
G75*
G02*
X98050000Y-47245000I-150000J0D01*
G01*
X96600000Y-47245000D01*
G75*
G02*
X96450000Y-47095000I0J150000D01*
G01*
G37*
G36*
G01*
X91300000Y-47095000D02*
X91300000Y-46795000D01*
G75*
G02*
X91450000Y-46645000I150000J0D01*
G01*
X92900000Y-46645000D01*
G75*
G02*
X93050000Y-46795000I0J-150000D01*
G01*
X93050000Y-47095000D01*
G75*
G02*
X92900000Y-47245000I-150000J0D01*
G01*
X91450000Y-47245000D01*
G75*
G02*
X91300000Y-47095000I0J150000D01*
G01*
G37*
G36*
G01*
X91300000Y-45825000D02*
X91300000Y-45525000D01*
G75*
G02*
X91450000Y-45375000I150000J0D01*
G01*
X92900000Y-45375000D01*
G75*
G02*
X93050000Y-45525000I0J-150000D01*
G01*
X93050000Y-45825000D01*
G75*
G02*
X92900000Y-45975000I-150000J0D01*
G01*
X91450000Y-45975000D01*
G75*
G02*
X91300000Y-45825000I0J150000D01*
G01*
G37*
G36*
G01*
X91300000Y-44555000D02*
X91300000Y-44255000D01*
G75*
G02*
X91450000Y-44105000I150000J0D01*
G01*
X92900000Y-44105000D01*
G75*
G02*
X93050000Y-44255000I0J-150000D01*
G01*
X93050000Y-44555000D01*
G75*
G02*
X92900000Y-44705000I-150000J0D01*
G01*
X91450000Y-44705000D01*
G75*
G02*
X91300000Y-44555000I0J150000D01*
G01*
G37*
G36*
G01*
X91300000Y-43285000D02*
X91300000Y-42985000D01*
G75*
G02*
X91450000Y-42835000I150000J0D01*
G01*
X92900000Y-42835000D01*
G75*
G02*
X93050000Y-42985000I0J-150000D01*
G01*
X93050000Y-43285000D01*
G75*
G02*
X92900000Y-43435000I-150000J0D01*
G01*
X91450000Y-43435000D01*
G75*
G02*
X91300000Y-43285000I0J150000D01*
G01*
G37*
G36*
G01*
X91300000Y-42015000D02*
X91300000Y-41715000D01*
G75*
G02*
X91450000Y-41565000I150000J0D01*
G01*
X92900000Y-41565000D01*
G75*
G02*
X93050000Y-41715000I0J-150000D01*
G01*
X93050000Y-42015000D01*
G75*
G02*
X92900000Y-42165000I-150000J0D01*
G01*
X91450000Y-42165000D01*
G75*
G02*
X91300000Y-42015000I0J150000D01*
G01*
G37*
G36*
G01*
X91300000Y-40745000D02*
X91300000Y-40445000D01*
G75*
G02*
X91450000Y-40295000I150000J0D01*
G01*
X92900000Y-40295000D01*
G75*
G02*
X93050000Y-40445000I0J-150000D01*
G01*
X93050000Y-40745000D01*
G75*
G02*
X92900000Y-40895000I-150000J0D01*
G01*
X91450000Y-40895000D01*
G75*
G02*
X91300000Y-40745000I0J150000D01*
G01*
G37*
G36*
G01*
X91300000Y-39475000D02*
X91300000Y-39175000D01*
G75*
G02*
X91450000Y-39025000I150000J0D01*
G01*
X92900000Y-39025000D01*
G75*
G02*
X93050000Y-39175000I0J-150000D01*
G01*
X93050000Y-39475000D01*
G75*
G02*
X92900000Y-39625000I-150000J0D01*
G01*
X91450000Y-39625000D01*
G75*
G02*
X91300000Y-39475000I0J150000D01*
G01*
G37*
G36*
G01*
X91300000Y-38205000D02*
X91300000Y-37905000D01*
G75*
G02*
X91450000Y-37755000I150000J0D01*
G01*
X92900000Y-37755000D01*
G75*
G02*
X93050000Y-37905000I0J-150000D01*
G01*
X93050000Y-38205000D01*
G75*
G02*
X92900000Y-38355000I-150000J0D01*
G01*
X91450000Y-38355000D01*
G75*
G02*
X91300000Y-38205000I0J150000D01*
G01*
G37*
%TD*%
D12*
%TO.C,Q3*%
X47000000Y-33000000D03*
D13*
X49540000Y-33000000D03*
X48270000Y-33000000D03*
%TD*%
D14*
%TO.C,J3*%
X45650000Y-24400000D03*
D15*
X45650000Y-28300000D03*
%TD*%
%TO.C,U14*%
G36*
G01*
X62045000Y-35710000D02*
X62045000Y-35410000D01*
G75*
G02*
X62195000Y-35260000I150000J0D01*
G01*
X63945000Y-35260000D01*
G75*
G02*
X64095000Y-35410000I0J-150000D01*
G01*
X64095000Y-35710000D01*
G75*
G02*
X63945000Y-35860000I-150000J0D01*
G01*
X62195000Y-35860000D01*
G75*
G02*
X62045000Y-35710000I0J150000D01*
G01*
G37*
G36*
G01*
X62045000Y-36980000D02*
X62045000Y-36680000D01*
G75*
G02*
X62195000Y-36530000I150000J0D01*
G01*
X63945000Y-36530000D01*
G75*
G02*
X64095000Y-36680000I0J-150000D01*
G01*
X64095000Y-36980000D01*
G75*
G02*
X63945000Y-37130000I-150000J0D01*
G01*
X62195000Y-37130000D01*
G75*
G02*
X62045000Y-36980000I0J150000D01*
G01*
G37*
G36*
G01*
X62045000Y-38250000D02*
X62045000Y-37950000D01*
G75*
G02*
X62195000Y-37800000I150000J0D01*
G01*
X63945000Y-37800000D01*
G75*
G02*
X64095000Y-37950000I0J-150000D01*
G01*
X64095000Y-38250000D01*
G75*
G02*
X63945000Y-38400000I-150000J0D01*
G01*
X62195000Y-38400000D01*
G75*
G02*
X62045000Y-38250000I0J150000D01*
G01*
G37*
G36*
G01*
X62045000Y-39520000D02*
X62045000Y-39220000D01*
G75*
G02*
X62195000Y-39070000I150000J0D01*
G01*
X63945000Y-39070000D01*
G75*
G02*
X64095000Y-39220000I0J-150000D01*
G01*
X64095000Y-39520000D01*
G75*
G02*
X63945000Y-39670000I-150000J0D01*
G01*
X62195000Y-39670000D01*
G75*
G02*
X62045000Y-39520000I0J150000D01*
G01*
G37*
G36*
G01*
X62045000Y-40790000D02*
X62045000Y-40490000D01*
G75*
G02*
X62195000Y-40340000I150000J0D01*
G01*
X63945000Y-40340000D01*
G75*
G02*
X64095000Y-40490000I0J-150000D01*
G01*
X64095000Y-40790000D01*
G75*
G02*
X63945000Y-40940000I-150000J0D01*
G01*
X62195000Y-40940000D01*
G75*
G02*
X62045000Y-40790000I0J150000D01*
G01*
G37*
G36*
G01*
X62045000Y-42060000D02*
X62045000Y-41760000D01*
G75*
G02*
X62195000Y-41610000I150000J0D01*
G01*
X63945000Y-41610000D01*
G75*
G02*
X64095000Y-41760000I0J-150000D01*
G01*
X64095000Y-42060000D01*
G75*
G02*
X63945000Y-42210000I-150000J0D01*
G01*
X62195000Y-42210000D01*
G75*
G02*
X62045000Y-42060000I0J150000D01*
G01*
G37*
G36*
G01*
X62045000Y-43330000D02*
X62045000Y-43030000D01*
G75*
G02*
X62195000Y-42880000I150000J0D01*
G01*
X63945000Y-42880000D01*
G75*
G02*
X64095000Y-43030000I0J-150000D01*
G01*
X64095000Y-43330000D01*
G75*
G02*
X63945000Y-43480000I-150000J0D01*
G01*
X62195000Y-43480000D01*
G75*
G02*
X62045000Y-43330000I0J150000D01*
G01*
G37*
G36*
G01*
X62045000Y-44600000D02*
X62045000Y-44300000D01*
G75*
G02*
X62195000Y-44150000I150000J0D01*
G01*
X63945000Y-44150000D01*
G75*
G02*
X64095000Y-44300000I0J-150000D01*
G01*
X64095000Y-44600000D01*
G75*
G02*
X63945000Y-44750000I-150000J0D01*
G01*
X62195000Y-44750000D01*
G75*
G02*
X62045000Y-44600000I0J150000D01*
G01*
G37*
G36*
G01*
X62045000Y-45870000D02*
X62045000Y-45570000D01*
G75*
G02*
X62195000Y-45420000I150000J0D01*
G01*
X63945000Y-45420000D01*
G75*
G02*
X64095000Y-45570000I0J-150000D01*
G01*
X64095000Y-45870000D01*
G75*
G02*
X63945000Y-46020000I-150000J0D01*
G01*
X62195000Y-46020000D01*
G75*
G02*
X62045000Y-45870000I0J150000D01*
G01*
G37*
G36*
G01*
X62045000Y-47140000D02*
X62045000Y-46840000D01*
G75*
G02*
X62195000Y-46690000I150000J0D01*
G01*
X63945000Y-46690000D01*
G75*
G02*
X64095000Y-46840000I0J-150000D01*
G01*
X64095000Y-47140000D01*
G75*
G02*
X63945000Y-47290000I-150000J0D01*
G01*
X62195000Y-47290000D01*
G75*
G02*
X62045000Y-47140000I0J150000D01*
G01*
G37*
G36*
G01*
X52745000Y-47140000D02*
X52745000Y-46840000D01*
G75*
G02*
X52895000Y-46690000I150000J0D01*
G01*
X54645000Y-46690000D01*
G75*
G02*
X54795000Y-46840000I0J-150000D01*
G01*
X54795000Y-47140000D01*
G75*
G02*
X54645000Y-47290000I-150000J0D01*
G01*
X52895000Y-47290000D01*
G75*
G02*
X52745000Y-47140000I0J150000D01*
G01*
G37*
G36*
G01*
X52745000Y-45870000D02*
X52745000Y-45570000D01*
G75*
G02*
X52895000Y-45420000I150000J0D01*
G01*
X54645000Y-45420000D01*
G75*
G02*
X54795000Y-45570000I0J-150000D01*
G01*
X54795000Y-45870000D01*
G75*
G02*
X54645000Y-46020000I-150000J0D01*
G01*
X52895000Y-46020000D01*
G75*
G02*
X52745000Y-45870000I0J150000D01*
G01*
G37*
G36*
G01*
X52745000Y-44600000D02*
X52745000Y-44300000D01*
G75*
G02*
X52895000Y-44150000I150000J0D01*
G01*
X54645000Y-44150000D01*
G75*
G02*
X54795000Y-44300000I0J-150000D01*
G01*
X54795000Y-44600000D01*
G75*
G02*
X54645000Y-44750000I-150000J0D01*
G01*
X52895000Y-44750000D01*
G75*
G02*
X52745000Y-44600000I0J150000D01*
G01*
G37*
G36*
G01*
X52745000Y-43330000D02*
X52745000Y-43030000D01*
G75*
G02*
X52895000Y-42880000I150000J0D01*
G01*
X54645000Y-42880000D01*
G75*
G02*
X54795000Y-43030000I0J-150000D01*
G01*
X54795000Y-43330000D01*
G75*
G02*
X54645000Y-43480000I-150000J0D01*
G01*
X52895000Y-43480000D01*
G75*
G02*
X52745000Y-43330000I0J150000D01*
G01*
G37*
G36*
G01*
X52745000Y-42060000D02*
X52745000Y-41760000D01*
G75*
G02*
X52895000Y-41610000I150000J0D01*
G01*
X54645000Y-41610000D01*
G75*
G02*
X54795000Y-41760000I0J-150000D01*
G01*
X54795000Y-42060000D01*
G75*
G02*
X54645000Y-42210000I-150000J0D01*
G01*
X52895000Y-42210000D01*
G75*
G02*
X52745000Y-42060000I0J150000D01*
G01*
G37*
G36*
G01*
X52745000Y-40790000D02*
X52745000Y-40490000D01*
G75*
G02*
X52895000Y-40340000I150000J0D01*
G01*
X54645000Y-40340000D01*
G75*
G02*
X54795000Y-40490000I0J-150000D01*
G01*
X54795000Y-40790000D01*
G75*
G02*
X54645000Y-40940000I-150000J0D01*
G01*
X52895000Y-40940000D01*
G75*
G02*
X52745000Y-40790000I0J150000D01*
G01*
G37*
G36*
G01*
X52745000Y-39520000D02*
X52745000Y-39220000D01*
G75*
G02*
X52895000Y-39070000I150000J0D01*
G01*
X54645000Y-39070000D01*
G75*
G02*
X54795000Y-39220000I0J-150000D01*
G01*
X54795000Y-39520000D01*
G75*
G02*
X54645000Y-39670000I-150000J0D01*
G01*
X52895000Y-39670000D01*
G75*
G02*
X52745000Y-39520000I0J150000D01*
G01*
G37*
G36*
G01*
X52745000Y-38250000D02*
X52745000Y-37950000D01*
G75*
G02*
X52895000Y-37800000I150000J0D01*
G01*
X54645000Y-37800000D01*
G75*
G02*
X54795000Y-37950000I0J-150000D01*
G01*
X54795000Y-38250000D01*
G75*
G02*
X54645000Y-38400000I-150000J0D01*
G01*
X52895000Y-38400000D01*
G75*
G02*
X52745000Y-38250000I0J150000D01*
G01*
G37*
G36*
G01*
X52745000Y-36980000D02*
X52745000Y-36680000D01*
G75*
G02*
X52895000Y-36530000I150000J0D01*
G01*
X54645000Y-36530000D01*
G75*
G02*
X54795000Y-36680000I0J-150000D01*
G01*
X54795000Y-36980000D01*
G75*
G02*
X54645000Y-37130000I-150000J0D01*
G01*
X52895000Y-37130000D01*
G75*
G02*
X52745000Y-36980000I0J150000D01*
G01*
G37*
G36*
G01*
X52745000Y-35710000D02*
X52745000Y-35410000D01*
G75*
G02*
X52895000Y-35260000I150000J0D01*
G01*
X54645000Y-35260000D01*
G75*
G02*
X54795000Y-35410000I0J-150000D01*
G01*
X54795000Y-35710000D01*
G75*
G02*
X54645000Y-35860000I-150000J0D01*
G01*
X52895000Y-35860000D01*
G75*
G02*
X52745000Y-35710000I0J150000D01*
G01*
G37*
%TD*%
%TO.C,U13*%
G36*
G01*
X104925000Y-79560000D02*
X104625000Y-79560000D01*
G75*
G02*
X104475000Y-79410000I0J150000D01*
G01*
X104475000Y-77660000D01*
G75*
G02*
X104625000Y-77510000I150000J0D01*
G01*
X104925000Y-77510000D01*
G75*
G02*
X105075000Y-77660000I0J-150000D01*
G01*
X105075000Y-79410000D01*
G75*
G02*
X104925000Y-79560000I-150000J0D01*
G01*
G37*
G36*
G01*
X106195000Y-79560000D02*
X105895000Y-79560000D01*
G75*
G02*
X105745000Y-79410000I0J150000D01*
G01*
X105745000Y-77660000D01*
G75*
G02*
X105895000Y-77510000I150000J0D01*
G01*
X106195000Y-77510000D01*
G75*
G02*
X106345000Y-77660000I0J-150000D01*
G01*
X106345000Y-79410000D01*
G75*
G02*
X106195000Y-79560000I-150000J0D01*
G01*
G37*
G36*
G01*
X107465000Y-79560000D02*
X107165000Y-79560000D01*
G75*
G02*
X107015000Y-79410000I0J150000D01*
G01*
X107015000Y-77660000D01*
G75*
G02*
X107165000Y-77510000I150000J0D01*
G01*
X107465000Y-77510000D01*
G75*
G02*
X107615000Y-77660000I0J-150000D01*
G01*
X107615000Y-79410000D01*
G75*
G02*
X107465000Y-79560000I-150000J0D01*
G01*
G37*
G36*
G01*
X108735000Y-79560000D02*
X108435000Y-79560000D01*
G75*
G02*
X108285000Y-79410000I0J150000D01*
G01*
X108285000Y-77660000D01*
G75*
G02*
X108435000Y-77510000I150000J0D01*
G01*
X108735000Y-77510000D01*
G75*
G02*
X108885000Y-77660000I0J-150000D01*
G01*
X108885000Y-79410000D01*
G75*
G02*
X108735000Y-79560000I-150000J0D01*
G01*
G37*
G36*
G01*
X110005000Y-79560000D02*
X109705000Y-79560000D01*
G75*
G02*
X109555000Y-79410000I0J150000D01*
G01*
X109555000Y-77660000D01*
G75*
G02*
X109705000Y-77510000I150000J0D01*
G01*
X110005000Y-77510000D01*
G75*
G02*
X110155000Y-77660000I0J-150000D01*
G01*
X110155000Y-79410000D01*
G75*
G02*
X110005000Y-79560000I-150000J0D01*
G01*
G37*
G36*
G01*
X111275000Y-79560000D02*
X110975000Y-79560000D01*
G75*
G02*
X110825000Y-79410000I0J150000D01*
G01*
X110825000Y-77660000D01*
G75*
G02*
X110975000Y-77510000I150000J0D01*
G01*
X111275000Y-77510000D01*
G75*
G02*
X111425000Y-77660000I0J-150000D01*
G01*
X111425000Y-79410000D01*
G75*
G02*
X111275000Y-79560000I-150000J0D01*
G01*
G37*
G36*
G01*
X112545000Y-79560000D02*
X112245000Y-79560000D01*
G75*
G02*
X112095000Y-79410000I0J150000D01*
G01*
X112095000Y-77660000D01*
G75*
G02*
X112245000Y-77510000I150000J0D01*
G01*
X112545000Y-77510000D01*
G75*
G02*
X112695000Y-77660000I0J-150000D01*
G01*
X112695000Y-79410000D01*
G75*
G02*
X112545000Y-79560000I-150000J0D01*
G01*
G37*
G36*
G01*
X113815000Y-79560000D02*
X113515000Y-79560000D01*
G75*
G02*
X113365000Y-79410000I0J150000D01*
G01*
X113365000Y-77660000D01*
G75*
G02*
X113515000Y-77510000I150000J0D01*
G01*
X113815000Y-77510000D01*
G75*
G02*
X113965000Y-77660000I0J-150000D01*
G01*
X113965000Y-79410000D01*
G75*
G02*
X113815000Y-79560000I-150000J0D01*
G01*
G37*
G36*
G01*
X115085000Y-79560000D02*
X114785000Y-79560000D01*
G75*
G02*
X114635000Y-79410000I0J150000D01*
G01*
X114635000Y-77660000D01*
G75*
G02*
X114785000Y-77510000I150000J0D01*
G01*
X115085000Y-77510000D01*
G75*
G02*
X115235000Y-77660000I0J-150000D01*
G01*
X115235000Y-79410000D01*
G75*
G02*
X115085000Y-79560000I-150000J0D01*
G01*
G37*
G36*
G01*
X116355000Y-79560000D02*
X116055000Y-79560000D01*
G75*
G02*
X115905000Y-79410000I0J150000D01*
G01*
X115905000Y-77660000D01*
G75*
G02*
X116055000Y-77510000I150000J0D01*
G01*
X116355000Y-77510000D01*
G75*
G02*
X116505000Y-77660000I0J-150000D01*
G01*
X116505000Y-79410000D01*
G75*
G02*
X116355000Y-79560000I-150000J0D01*
G01*
G37*
G36*
G01*
X116355000Y-88860000D02*
X116055000Y-88860000D01*
G75*
G02*
X115905000Y-88710000I0J150000D01*
G01*
X115905000Y-86960000D01*
G75*
G02*
X116055000Y-86810000I150000J0D01*
G01*
X116355000Y-86810000D01*
G75*
G02*
X116505000Y-86960000I0J-150000D01*
G01*
X116505000Y-88710000D01*
G75*
G02*
X116355000Y-88860000I-150000J0D01*
G01*
G37*
G36*
G01*
X115085000Y-88860000D02*
X114785000Y-88860000D01*
G75*
G02*
X114635000Y-88710000I0J150000D01*
G01*
X114635000Y-86960000D01*
G75*
G02*
X114785000Y-86810000I150000J0D01*
G01*
X115085000Y-86810000D01*
G75*
G02*
X115235000Y-86960000I0J-150000D01*
G01*
X115235000Y-88710000D01*
G75*
G02*
X115085000Y-88860000I-150000J0D01*
G01*
G37*
G36*
G01*
X113815000Y-88860000D02*
X113515000Y-88860000D01*
G75*
G02*
X113365000Y-88710000I0J150000D01*
G01*
X113365000Y-86960000D01*
G75*
G02*
X113515000Y-86810000I150000J0D01*
G01*
X113815000Y-86810000D01*
G75*
G02*
X113965000Y-86960000I0J-150000D01*
G01*
X113965000Y-88710000D01*
G75*
G02*
X113815000Y-88860000I-150000J0D01*
G01*
G37*
G36*
G01*
X112545000Y-88860000D02*
X112245000Y-88860000D01*
G75*
G02*
X112095000Y-88710000I0J150000D01*
G01*
X112095000Y-86960000D01*
G75*
G02*
X112245000Y-86810000I150000J0D01*
G01*
X112545000Y-86810000D01*
G75*
G02*
X112695000Y-86960000I0J-150000D01*
G01*
X112695000Y-88710000D01*
G75*
G02*
X112545000Y-88860000I-150000J0D01*
G01*
G37*
G36*
G01*
X111275000Y-88860000D02*
X110975000Y-88860000D01*
G75*
G02*
X110825000Y-88710000I0J150000D01*
G01*
X110825000Y-86960000D01*
G75*
G02*
X110975000Y-86810000I150000J0D01*
G01*
X111275000Y-86810000D01*
G75*
G02*
X111425000Y-86960000I0J-150000D01*
G01*
X111425000Y-88710000D01*
G75*
G02*
X111275000Y-88860000I-150000J0D01*
G01*
G37*
G36*
G01*
X110005000Y-88860000D02*
X109705000Y-88860000D01*
G75*
G02*
X109555000Y-88710000I0J150000D01*
G01*
X109555000Y-86960000D01*
G75*
G02*
X109705000Y-86810000I150000J0D01*
G01*
X110005000Y-86810000D01*
G75*
G02*
X110155000Y-86960000I0J-150000D01*
G01*
X110155000Y-88710000D01*
G75*
G02*
X110005000Y-88860000I-150000J0D01*
G01*
G37*
G36*
G01*
X108735000Y-88860000D02*
X108435000Y-88860000D01*
G75*
G02*
X108285000Y-88710000I0J150000D01*
G01*
X108285000Y-86960000D01*
G75*
G02*
X108435000Y-86810000I150000J0D01*
G01*
X108735000Y-86810000D01*
G75*
G02*
X108885000Y-86960000I0J-150000D01*
G01*
X108885000Y-88710000D01*
G75*
G02*
X108735000Y-88860000I-150000J0D01*
G01*
G37*
G36*
G01*
X107465000Y-88860000D02*
X107165000Y-88860000D01*
G75*
G02*
X107015000Y-88710000I0J150000D01*
G01*
X107015000Y-86960000D01*
G75*
G02*
X107165000Y-86810000I150000J0D01*
G01*
X107465000Y-86810000D01*
G75*
G02*
X107615000Y-86960000I0J-150000D01*
G01*
X107615000Y-88710000D01*
G75*
G02*
X107465000Y-88860000I-150000J0D01*
G01*
G37*
G36*
G01*
X106195000Y-88860000D02*
X105895000Y-88860000D01*
G75*
G02*
X105745000Y-88710000I0J150000D01*
G01*
X105745000Y-86960000D01*
G75*
G02*
X105895000Y-86810000I150000J0D01*
G01*
X106195000Y-86810000D01*
G75*
G02*
X106345000Y-86960000I0J-150000D01*
G01*
X106345000Y-88710000D01*
G75*
G02*
X106195000Y-88860000I-150000J0D01*
G01*
G37*
G36*
G01*
X104925000Y-88860000D02*
X104625000Y-88860000D01*
G75*
G02*
X104475000Y-88710000I0J150000D01*
G01*
X104475000Y-86960000D01*
G75*
G02*
X104625000Y-86810000I150000J0D01*
G01*
X104925000Y-86810000D01*
G75*
G02*
X105075000Y-86960000I0J-150000D01*
G01*
X105075000Y-88710000D01*
G75*
G02*
X104925000Y-88860000I-150000J0D01*
G01*
G37*
%TD*%
%TO.C,U12*%
G36*
G01*
X45651000Y-65255000D02*
X45651000Y-65555000D01*
G75*
G02*
X45501000Y-65705000I-150000J0D01*
G01*
X43751000Y-65705000D01*
G75*
G02*
X43601000Y-65555000I0J150000D01*
G01*
X43601000Y-65255000D01*
G75*
G02*
X43751000Y-65105000I150000J0D01*
G01*
X45501000Y-65105000D01*
G75*
G02*
X45651000Y-65255000I0J-150000D01*
G01*
G37*
G36*
G01*
X45651000Y-63985000D02*
X45651000Y-64285000D01*
G75*
G02*
X45501000Y-64435000I-150000J0D01*
G01*
X43751000Y-64435000D01*
G75*
G02*
X43601000Y-64285000I0J150000D01*
G01*
X43601000Y-63985000D01*
G75*
G02*
X43751000Y-63835000I150000J0D01*
G01*
X45501000Y-63835000D01*
G75*
G02*
X45651000Y-63985000I0J-150000D01*
G01*
G37*
G36*
G01*
X45651000Y-62715000D02*
X45651000Y-63015000D01*
G75*
G02*
X45501000Y-63165000I-150000J0D01*
G01*
X43751000Y-63165000D01*
G75*
G02*
X43601000Y-63015000I0J150000D01*
G01*
X43601000Y-62715000D01*
G75*
G02*
X43751000Y-62565000I150000J0D01*
G01*
X45501000Y-62565000D01*
G75*
G02*
X45651000Y-62715000I0J-150000D01*
G01*
G37*
G36*
G01*
X45651000Y-61445000D02*
X45651000Y-61745000D01*
G75*
G02*
X45501000Y-61895000I-150000J0D01*
G01*
X43751000Y-61895000D01*
G75*
G02*
X43601000Y-61745000I0J150000D01*
G01*
X43601000Y-61445000D01*
G75*
G02*
X43751000Y-61295000I150000J0D01*
G01*
X45501000Y-61295000D01*
G75*
G02*
X45651000Y-61445000I0J-150000D01*
G01*
G37*
G36*
G01*
X45651000Y-60175000D02*
X45651000Y-60475000D01*
G75*
G02*
X45501000Y-60625000I-150000J0D01*
G01*
X43751000Y-60625000D01*
G75*
G02*
X43601000Y-60475000I0J150000D01*
G01*
X43601000Y-60175000D01*
G75*
G02*
X43751000Y-60025000I150000J0D01*
G01*
X45501000Y-60025000D01*
G75*
G02*
X45651000Y-60175000I0J-150000D01*
G01*
G37*
G36*
G01*
X45651000Y-58905000D02*
X45651000Y-59205000D01*
G75*
G02*
X45501000Y-59355000I-150000J0D01*
G01*
X43751000Y-59355000D01*
G75*
G02*
X43601000Y-59205000I0J150000D01*
G01*
X43601000Y-58905000D01*
G75*
G02*
X43751000Y-58755000I150000J0D01*
G01*
X45501000Y-58755000D01*
G75*
G02*
X45651000Y-58905000I0J-150000D01*
G01*
G37*
G36*
G01*
X45651000Y-57635000D02*
X45651000Y-57935000D01*
G75*
G02*
X45501000Y-58085000I-150000J0D01*
G01*
X43751000Y-58085000D01*
G75*
G02*
X43601000Y-57935000I0J150000D01*
G01*
X43601000Y-57635000D01*
G75*
G02*
X43751000Y-57485000I150000J0D01*
G01*
X45501000Y-57485000D01*
G75*
G02*
X45651000Y-57635000I0J-150000D01*
G01*
G37*
G36*
G01*
X45651000Y-56365000D02*
X45651000Y-56665000D01*
G75*
G02*
X45501000Y-56815000I-150000J0D01*
G01*
X43751000Y-56815000D01*
G75*
G02*
X43601000Y-56665000I0J150000D01*
G01*
X43601000Y-56365000D01*
G75*
G02*
X43751000Y-56215000I150000J0D01*
G01*
X45501000Y-56215000D01*
G75*
G02*
X45651000Y-56365000I0J-150000D01*
G01*
G37*
G36*
G01*
X45651000Y-55095000D02*
X45651000Y-55395000D01*
G75*
G02*
X45501000Y-55545000I-150000J0D01*
G01*
X43751000Y-55545000D01*
G75*
G02*
X43601000Y-55395000I0J150000D01*
G01*
X43601000Y-55095000D01*
G75*
G02*
X43751000Y-54945000I150000J0D01*
G01*
X45501000Y-54945000D01*
G75*
G02*
X45651000Y-55095000I0J-150000D01*
G01*
G37*
G36*
G01*
X45651000Y-53825000D02*
X45651000Y-54125000D01*
G75*
G02*
X45501000Y-54275000I-150000J0D01*
G01*
X43751000Y-54275000D01*
G75*
G02*
X43601000Y-54125000I0J150000D01*
G01*
X43601000Y-53825000D01*
G75*
G02*
X43751000Y-53675000I150000J0D01*
G01*
X45501000Y-53675000D01*
G75*
G02*
X45651000Y-53825000I0J-150000D01*
G01*
G37*
G36*
G01*
X54951000Y-53825000D02*
X54951000Y-54125000D01*
G75*
G02*
X54801000Y-54275000I-150000J0D01*
G01*
X53051000Y-54275000D01*
G75*
G02*
X52901000Y-54125000I0J150000D01*
G01*
X52901000Y-53825000D01*
G75*
G02*
X53051000Y-53675000I150000J0D01*
G01*
X54801000Y-53675000D01*
G75*
G02*
X54951000Y-53825000I0J-150000D01*
G01*
G37*
G36*
G01*
X54951000Y-55095000D02*
X54951000Y-55395000D01*
G75*
G02*
X54801000Y-55545000I-150000J0D01*
G01*
X53051000Y-55545000D01*
G75*
G02*
X52901000Y-55395000I0J150000D01*
G01*
X52901000Y-55095000D01*
G75*
G02*
X53051000Y-54945000I150000J0D01*
G01*
X54801000Y-54945000D01*
G75*
G02*
X54951000Y-55095000I0J-150000D01*
G01*
G37*
G36*
G01*
X54951000Y-56365000D02*
X54951000Y-56665000D01*
G75*
G02*
X54801000Y-56815000I-150000J0D01*
G01*
X53051000Y-56815000D01*
G75*
G02*
X52901000Y-56665000I0J150000D01*
G01*
X52901000Y-56365000D01*
G75*
G02*
X53051000Y-56215000I150000J0D01*
G01*
X54801000Y-56215000D01*
G75*
G02*
X54951000Y-56365000I0J-150000D01*
G01*
G37*
G36*
G01*
X54951000Y-57635000D02*
X54951000Y-57935000D01*
G75*
G02*
X54801000Y-58085000I-150000J0D01*
G01*
X53051000Y-58085000D01*
G75*
G02*
X52901000Y-57935000I0J150000D01*
G01*
X52901000Y-57635000D01*
G75*
G02*
X53051000Y-57485000I150000J0D01*
G01*
X54801000Y-57485000D01*
G75*
G02*
X54951000Y-57635000I0J-150000D01*
G01*
G37*
G36*
G01*
X54951000Y-58905000D02*
X54951000Y-59205000D01*
G75*
G02*
X54801000Y-59355000I-150000J0D01*
G01*
X53051000Y-59355000D01*
G75*
G02*
X52901000Y-59205000I0J150000D01*
G01*
X52901000Y-58905000D01*
G75*
G02*
X53051000Y-58755000I150000J0D01*
G01*
X54801000Y-58755000D01*
G75*
G02*
X54951000Y-58905000I0J-150000D01*
G01*
G37*
G36*
G01*
X54951000Y-60175000D02*
X54951000Y-60475000D01*
G75*
G02*
X54801000Y-60625000I-150000J0D01*
G01*
X53051000Y-60625000D01*
G75*
G02*
X52901000Y-60475000I0J150000D01*
G01*
X52901000Y-60175000D01*
G75*
G02*
X53051000Y-60025000I150000J0D01*
G01*
X54801000Y-60025000D01*
G75*
G02*
X54951000Y-60175000I0J-150000D01*
G01*
G37*
G36*
G01*
X54951000Y-61445000D02*
X54951000Y-61745000D01*
G75*
G02*
X54801000Y-61895000I-150000J0D01*
G01*
X53051000Y-61895000D01*
G75*
G02*
X52901000Y-61745000I0J150000D01*
G01*
X52901000Y-61445000D01*
G75*
G02*
X53051000Y-61295000I150000J0D01*
G01*
X54801000Y-61295000D01*
G75*
G02*
X54951000Y-61445000I0J-150000D01*
G01*
G37*
G36*
G01*
X54951000Y-62715000D02*
X54951000Y-63015000D01*
G75*
G02*
X54801000Y-63165000I-150000J0D01*
G01*
X53051000Y-63165000D01*
G75*
G02*
X52901000Y-63015000I0J150000D01*
G01*
X52901000Y-62715000D01*
G75*
G02*
X53051000Y-62565000I150000J0D01*
G01*
X54801000Y-62565000D01*
G75*
G02*
X54951000Y-62715000I0J-150000D01*
G01*
G37*
G36*
G01*
X54951000Y-63985000D02*
X54951000Y-64285000D01*
G75*
G02*
X54801000Y-64435000I-150000J0D01*
G01*
X53051000Y-64435000D01*
G75*
G02*
X52901000Y-64285000I0J150000D01*
G01*
X52901000Y-63985000D01*
G75*
G02*
X53051000Y-63835000I150000J0D01*
G01*
X54801000Y-63835000D01*
G75*
G02*
X54951000Y-63985000I0J-150000D01*
G01*
G37*
G36*
G01*
X54951000Y-65255000D02*
X54951000Y-65555000D01*
G75*
G02*
X54801000Y-65705000I-150000J0D01*
G01*
X53051000Y-65705000D01*
G75*
G02*
X52901000Y-65555000I0J150000D01*
G01*
X52901000Y-65255000D01*
G75*
G02*
X53051000Y-65105000I150000J0D01*
G01*
X54801000Y-65105000D01*
G75*
G02*
X54951000Y-65255000I0J-150000D01*
G01*
G37*
%TD*%
%TO.C,U7*%
G36*
G01*
X103655000Y-37015000D02*
X103355000Y-37015000D01*
G75*
G02*
X103205000Y-36865000I0J150000D01*
G01*
X103205000Y-35115000D01*
G75*
G02*
X103355000Y-34965000I150000J0D01*
G01*
X103655000Y-34965000D01*
G75*
G02*
X103805000Y-35115000I0J-150000D01*
G01*
X103805000Y-36865000D01*
G75*
G02*
X103655000Y-37015000I-150000J0D01*
G01*
G37*
G36*
G01*
X104925000Y-37015000D02*
X104625000Y-37015000D01*
G75*
G02*
X104475000Y-36865000I0J150000D01*
G01*
X104475000Y-35115000D01*
G75*
G02*
X104625000Y-34965000I150000J0D01*
G01*
X104925000Y-34965000D01*
G75*
G02*
X105075000Y-35115000I0J-150000D01*
G01*
X105075000Y-36865000D01*
G75*
G02*
X104925000Y-37015000I-150000J0D01*
G01*
G37*
G36*
G01*
X106195000Y-37015000D02*
X105895000Y-37015000D01*
G75*
G02*
X105745000Y-36865000I0J150000D01*
G01*
X105745000Y-35115000D01*
G75*
G02*
X105895000Y-34965000I150000J0D01*
G01*
X106195000Y-34965000D01*
G75*
G02*
X106345000Y-35115000I0J-150000D01*
G01*
X106345000Y-36865000D01*
G75*
G02*
X106195000Y-37015000I-150000J0D01*
G01*
G37*
G36*
G01*
X107465000Y-37015000D02*
X107165000Y-37015000D01*
G75*
G02*
X107015000Y-36865000I0J150000D01*
G01*
X107015000Y-35115000D01*
G75*
G02*
X107165000Y-34965000I150000J0D01*
G01*
X107465000Y-34965000D01*
G75*
G02*
X107615000Y-35115000I0J-150000D01*
G01*
X107615000Y-36865000D01*
G75*
G02*
X107465000Y-37015000I-150000J0D01*
G01*
G37*
G36*
G01*
X108735000Y-37015000D02*
X108435000Y-37015000D01*
G75*
G02*
X108285000Y-36865000I0J150000D01*
G01*
X108285000Y-35115000D01*
G75*
G02*
X108435000Y-34965000I150000J0D01*
G01*
X108735000Y-34965000D01*
G75*
G02*
X108885000Y-35115000I0J-150000D01*
G01*
X108885000Y-36865000D01*
G75*
G02*
X108735000Y-37015000I-150000J0D01*
G01*
G37*
G36*
G01*
X110005000Y-37015000D02*
X109705000Y-37015000D01*
G75*
G02*
X109555000Y-36865000I0J150000D01*
G01*
X109555000Y-35115000D01*
G75*
G02*
X109705000Y-34965000I150000J0D01*
G01*
X110005000Y-34965000D01*
G75*
G02*
X110155000Y-35115000I0J-150000D01*
G01*
X110155000Y-36865000D01*
G75*
G02*
X110005000Y-37015000I-150000J0D01*
G01*
G37*
G36*
G01*
X111275000Y-37015000D02*
X110975000Y-37015000D01*
G75*
G02*
X110825000Y-36865000I0J150000D01*
G01*
X110825000Y-35115000D01*
G75*
G02*
X110975000Y-34965000I150000J0D01*
G01*
X111275000Y-34965000D01*
G75*
G02*
X111425000Y-35115000I0J-150000D01*
G01*
X111425000Y-36865000D01*
G75*
G02*
X111275000Y-37015000I-150000J0D01*
G01*
G37*
G36*
G01*
X112545000Y-37015000D02*
X112245000Y-37015000D01*
G75*
G02*
X112095000Y-36865000I0J150000D01*
G01*
X112095000Y-35115000D01*
G75*
G02*
X112245000Y-34965000I150000J0D01*
G01*
X112545000Y-34965000D01*
G75*
G02*
X112695000Y-35115000I0J-150000D01*
G01*
X112695000Y-36865000D01*
G75*
G02*
X112545000Y-37015000I-150000J0D01*
G01*
G37*
G36*
G01*
X113815000Y-37015000D02*
X113515000Y-37015000D01*
G75*
G02*
X113365000Y-36865000I0J150000D01*
G01*
X113365000Y-35115000D01*
G75*
G02*
X113515000Y-34965000I150000J0D01*
G01*
X113815000Y-34965000D01*
G75*
G02*
X113965000Y-35115000I0J-150000D01*
G01*
X113965000Y-36865000D01*
G75*
G02*
X113815000Y-37015000I-150000J0D01*
G01*
G37*
G36*
G01*
X115085000Y-37015000D02*
X114785000Y-37015000D01*
G75*
G02*
X114635000Y-36865000I0J150000D01*
G01*
X114635000Y-35115000D01*
G75*
G02*
X114785000Y-34965000I150000J0D01*
G01*
X115085000Y-34965000D01*
G75*
G02*
X115235000Y-35115000I0J-150000D01*
G01*
X115235000Y-36865000D01*
G75*
G02*
X115085000Y-37015000I-150000J0D01*
G01*
G37*
G36*
G01*
X115085000Y-46315000D02*
X114785000Y-46315000D01*
G75*
G02*
X114635000Y-46165000I0J150000D01*
G01*
X114635000Y-44415000D01*
G75*
G02*
X114785000Y-44265000I150000J0D01*
G01*
X115085000Y-44265000D01*
G75*
G02*
X115235000Y-44415000I0J-150000D01*
G01*
X115235000Y-46165000D01*
G75*
G02*
X115085000Y-46315000I-150000J0D01*
G01*
G37*
G36*
G01*
X113815000Y-46315000D02*
X113515000Y-46315000D01*
G75*
G02*
X113365000Y-46165000I0J150000D01*
G01*
X113365000Y-44415000D01*
G75*
G02*
X113515000Y-44265000I150000J0D01*
G01*
X113815000Y-44265000D01*
G75*
G02*
X113965000Y-44415000I0J-150000D01*
G01*
X113965000Y-46165000D01*
G75*
G02*
X113815000Y-46315000I-150000J0D01*
G01*
G37*
G36*
G01*
X112545000Y-46315000D02*
X112245000Y-46315000D01*
G75*
G02*
X112095000Y-46165000I0J150000D01*
G01*
X112095000Y-44415000D01*
G75*
G02*
X112245000Y-44265000I150000J0D01*
G01*
X112545000Y-44265000D01*
G75*
G02*
X112695000Y-44415000I0J-150000D01*
G01*
X112695000Y-46165000D01*
G75*
G02*
X112545000Y-46315000I-150000J0D01*
G01*
G37*
G36*
G01*
X111275000Y-46315000D02*
X110975000Y-46315000D01*
G75*
G02*
X110825000Y-46165000I0J150000D01*
G01*
X110825000Y-44415000D01*
G75*
G02*
X110975000Y-44265000I150000J0D01*
G01*
X111275000Y-44265000D01*
G75*
G02*
X111425000Y-44415000I0J-150000D01*
G01*
X111425000Y-46165000D01*
G75*
G02*
X111275000Y-46315000I-150000J0D01*
G01*
G37*
G36*
G01*
X110005000Y-46315000D02*
X109705000Y-46315000D01*
G75*
G02*
X109555000Y-46165000I0J150000D01*
G01*
X109555000Y-44415000D01*
G75*
G02*
X109705000Y-44265000I150000J0D01*
G01*
X110005000Y-44265000D01*
G75*
G02*
X110155000Y-44415000I0J-150000D01*
G01*
X110155000Y-46165000D01*
G75*
G02*
X110005000Y-46315000I-150000J0D01*
G01*
G37*
G36*
G01*
X108735000Y-46315000D02*
X108435000Y-46315000D01*
G75*
G02*
X108285000Y-46165000I0J150000D01*
G01*
X108285000Y-44415000D01*
G75*
G02*
X108435000Y-44265000I150000J0D01*
G01*
X108735000Y-44265000D01*
G75*
G02*
X108885000Y-44415000I0J-150000D01*
G01*
X108885000Y-46165000D01*
G75*
G02*
X108735000Y-46315000I-150000J0D01*
G01*
G37*
G36*
G01*
X107465000Y-46315000D02*
X107165000Y-46315000D01*
G75*
G02*
X107015000Y-46165000I0J150000D01*
G01*
X107015000Y-44415000D01*
G75*
G02*
X107165000Y-44265000I150000J0D01*
G01*
X107465000Y-44265000D01*
G75*
G02*
X107615000Y-44415000I0J-150000D01*
G01*
X107615000Y-46165000D01*
G75*
G02*
X107465000Y-46315000I-150000J0D01*
G01*
G37*
G36*
G01*
X106195000Y-46315000D02*
X105895000Y-46315000D01*
G75*
G02*
X105745000Y-46165000I0J150000D01*
G01*
X105745000Y-44415000D01*
G75*
G02*
X105895000Y-44265000I150000J0D01*
G01*
X106195000Y-44265000D01*
G75*
G02*
X106345000Y-44415000I0J-150000D01*
G01*
X106345000Y-46165000D01*
G75*
G02*
X106195000Y-46315000I-150000J0D01*
G01*
G37*
G36*
G01*
X104925000Y-46315000D02*
X104625000Y-46315000D01*
G75*
G02*
X104475000Y-46165000I0J150000D01*
G01*
X104475000Y-44415000D01*
G75*
G02*
X104625000Y-44265000I150000J0D01*
G01*
X104925000Y-44265000D01*
G75*
G02*
X105075000Y-44415000I0J-150000D01*
G01*
X105075000Y-46165000D01*
G75*
G02*
X104925000Y-46315000I-150000J0D01*
G01*
G37*
G36*
G01*
X103655000Y-46315000D02*
X103355000Y-46315000D01*
G75*
G02*
X103205000Y-46165000I0J150000D01*
G01*
X103205000Y-44415000D01*
G75*
G02*
X103355000Y-44265000I150000J0D01*
G01*
X103655000Y-44265000D01*
G75*
G02*
X103805000Y-44415000I0J-150000D01*
G01*
X103805000Y-46165000D01*
G75*
G02*
X103655000Y-46315000I-150000J0D01*
G01*
G37*
%TD*%
%TO.C,U5*%
G36*
G01*
X70255000Y-33660000D02*
X70255000Y-33960000D01*
G75*
G02*
X70105000Y-34110000I-150000J0D01*
G01*
X68455000Y-34110000D01*
G75*
G02*
X68305000Y-33960000I0J150000D01*
G01*
X68305000Y-33660000D01*
G75*
G02*
X68455000Y-33510000I150000J0D01*
G01*
X70105000Y-33510000D01*
G75*
G02*
X70255000Y-33660000I0J-150000D01*
G01*
G37*
G36*
G01*
X70255000Y-32390000D02*
X70255000Y-32690000D01*
G75*
G02*
X70105000Y-32840000I-150000J0D01*
G01*
X68455000Y-32840000D01*
G75*
G02*
X68305000Y-32690000I0J150000D01*
G01*
X68305000Y-32390000D01*
G75*
G02*
X68455000Y-32240000I150000J0D01*
G01*
X70105000Y-32240000D01*
G75*
G02*
X70255000Y-32390000I0J-150000D01*
G01*
G37*
G36*
G01*
X70255000Y-31120000D02*
X70255000Y-31420000D01*
G75*
G02*
X70105000Y-31570000I-150000J0D01*
G01*
X68455000Y-31570000D01*
G75*
G02*
X68305000Y-31420000I0J150000D01*
G01*
X68305000Y-31120000D01*
G75*
G02*
X68455000Y-30970000I150000J0D01*
G01*
X70105000Y-30970000D01*
G75*
G02*
X70255000Y-31120000I0J-150000D01*
G01*
G37*
G36*
G01*
X70255000Y-29850000D02*
X70255000Y-30150000D01*
G75*
G02*
X70105000Y-30300000I-150000J0D01*
G01*
X68455000Y-30300000D01*
G75*
G02*
X68305000Y-30150000I0J150000D01*
G01*
X68305000Y-29850000D01*
G75*
G02*
X68455000Y-29700000I150000J0D01*
G01*
X70105000Y-29700000D01*
G75*
G02*
X70255000Y-29850000I0J-150000D01*
G01*
G37*
G36*
G01*
X70255000Y-28580000D02*
X70255000Y-28880000D01*
G75*
G02*
X70105000Y-29030000I-150000J0D01*
G01*
X68455000Y-29030000D01*
G75*
G02*
X68305000Y-28880000I0J150000D01*
G01*
X68305000Y-28580000D01*
G75*
G02*
X68455000Y-28430000I150000J0D01*
G01*
X70105000Y-28430000D01*
G75*
G02*
X70255000Y-28580000I0J-150000D01*
G01*
G37*
G36*
G01*
X70255000Y-27310000D02*
X70255000Y-27610000D01*
G75*
G02*
X70105000Y-27760000I-150000J0D01*
G01*
X68455000Y-27760000D01*
G75*
G02*
X68305000Y-27610000I0J150000D01*
G01*
X68305000Y-27310000D01*
G75*
G02*
X68455000Y-27160000I150000J0D01*
G01*
X70105000Y-27160000D01*
G75*
G02*
X70255000Y-27310000I0J-150000D01*
G01*
G37*
G36*
G01*
X70255000Y-26040000D02*
X70255000Y-26340000D01*
G75*
G02*
X70105000Y-26490000I-150000J0D01*
G01*
X68455000Y-26490000D01*
G75*
G02*
X68305000Y-26340000I0J150000D01*
G01*
X68305000Y-26040000D01*
G75*
G02*
X68455000Y-25890000I150000J0D01*
G01*
X70105000Y-25890000D01*
G75*
G02*
X70255000Y-26040000I0J-150000D01*
G01*
G37*
G36*
G01*
X75205000Y-26040000D02*
X75205000Y-26340000D01*
G75*
G02*
X75055000Y-26490000I-150000J0D01*
G01*
X73405000Y-26490000D01*
G75*
G02*
X73255000Y-26340000I0J150000D01*
G01*
X73255000Y-26040000D01*
G75*
G02*
X73405000Y-25890000I150000J0D01*
G01*
X75055000Y-25890000D01*
G75*
G02*
X75205000Y-26040000I0J-150000D01*
G01*
G37*
G36*
G01*
X75205000Y-27310000D02*
X75205000Y-27610000D01*
G75*
G02*
X75055000Y-27760000I-150000J0D01*
G01*
X73405000Y-27760000D01*
G75*
G02*
X73255000Y-27610000I0J150000D01*
G01*
X73255000Y-27310000D01*
G75*
G02*
X73405000Y-27160000I150000J0D01*
G01*
X75055000Y-27160000D01*
G75*
G02*
X75205000Y-27310000I0J-150000D01*
G01*
G37*
G36*
G01*
X75205000Y-28580000D02*
X75205000Y-28880000D01*
G75*
G02*
X75055000Y-29030000I-150000J0D01*
G01*
X73405000Y-29030000D01*
G75*
G02*
X73255000Y-28880000I0J150000D01*
G01*
X73255000Y-28580000D01*
G75*
G02*
X73405000Y-28430000I150000J0D01*
G01*
X75055000Y-28430000D01*
G75*
G02*
X75205000Y-28580000I0J-150000D01*
G01*
G37*
G36*
G01*
X75205000Y-29850000D02*
X75205000Y-30150000D01*
G75*
G02*
X75055000Y-30300000I-150000J0D01*
G01*
X73405000Y-30300000D01*
G75*
G02*
X73255000Y-30150000I0J150000D01*
G01*
X73255000Y-29850000D01*
G75*
G02*
X73405000Y-29700000I150000J0D01*
G01*
X75055000Y-29700000D01*
G75*
G02*
X75205000Y-29850000I0J-150000D01*
G01*
G37*
G36*
G01*
X75205000Y-31120000D02*
X75205000Y-31420000D01*
G75*
G02*
X75055000Y-31570000I-150000J0D01*
G01*
X73405000Y-31570000D01*
G75*
G02*
X73255000Y-31420000I0J150000D01*
G01*
X73255000Y-31120000D01*
G75*
G02*
X73405000Y-30970000I150000J0D01*
G01*
X75055000Y-30970000D01*
G75*
G02*
X75205000Y-31120000I0J-150000D01*
G01*
G37*
G36*
G01*
X75205000Y-32390000D02*
X75205000Y-32690000D01*
G75*
G02*
X75055000Y-32840000I-150000J0D01*
G01*
X73405000Y-32840000D01*
G75*
G02*
X73255000Y-32690000I0J150000D01*
G01*
X73255000Y-32390000D01*
G75*
G02*
X73405000Y-32240000I150000J0D01*
G01*
X75055000Y-32240000D01*
G75*
G02*
X75205000Y-32390000I0J-150000D01*
G01*
G37*
G36*
G01*
X75205000Y-33660000D02*
X75205000Y-33960000D01*
G75*
G02*
X75055000Y-34110000I-150000J0D01*
G01*
X73405000Y-34110000D01*
G75*
G02*
X73255000Y-33960000I0J150000D01*
G01*
X73255000Y-33660000D01*
G75*
G02*
X73405000Y-33510000I150000J0D01*
G01*
X75055000Y-33510000D01*
G75*
G02*
X75205000Y-33660000I0J-150000D01*
G01*
G37*
%TD*%
%TO.C,U3*%
G36*
G01*
X37950000Y-46585000D02*
X38250000Y-46585000D01*
G75*
G02*
X38400000Y-46735000I0J-150000D01*
G01*
X38400000Y-48385000D01*
G75*
G02*
X38250000Y-48535000I-150000J0D01*
G01*
X37950000Y-48535000D01*
G75*
G02*
X37800000Y-48385000I0J150000D01*
G01*
X37800000Y-46735000D01*
G75*
G02*
X37950000Y-46585000I150000J0D01*
G01*
G37*
G36*
G01*
X36680000Y-46585000D02*
X36980000Y-46585000D01*
G75*
G02*
X37130000Y-46735000I0J-150000D01*
G01*
X37130000Y-48385000D01*
G75*
G02*
X36980000Y-48535000I-150000J0D01*
G01*
X36680000Y-48535000D01*
G75*
G02*
X36530000Y-48385000I0J150000D01*
G01*
X36530000Y-46735000D01*
G75*
G02*
X36680000Y-46585000I150000J0D01*
G01*
G37*
G36*
G01*
X35410000Y-46585000D02*
X35710000Y-46585000D01*
G75*
G02*
X35860000Y-46735000I0J-150000D01*
G01*
X35860000Y-48385000D01*
G75*
G02*
X35710000Y-48535000I-150000J0D01*
G01*
X35410000Y-48535000D01*
G75*
G02*
X35260000Y-48385000I0J150000D01*
G01*
X35260000Y-46735000D01*
G75*
G02*
X35410000Y-46585000I150000J0D01*
G01*
G37*
G36*
G01*
X34140000Y-46585000D02*
X34440000Y-46585000D01*
G75*
G02*
X34590000Y-46735000I0J-150000D01*
G01*
X34590000Y-48385000D01*
G75*
G02*
X34440000Y-48535000I-150000J0D01*
G01*
X34140000Y-48535000D01*
G75*
G02*
X33990000Y-48385000I0J150000D01*
G01*
X33990000Y-46735000D01*
G75*
G02*
X34140000Y-46585000I150000J0D01*
G01*
G37*
G36*
G01*
X32870000Y-46585000D02*
X33170000Y-46585000D01*
G75*
G02*
X33320000Y-46735000I0J-150000D01*
G01*
X33320000Y-48385000D01*
G75*
G02*
X33170000Y-48535000I-150000J0D01*
G01*
X32870000Y-48535000D01*
G75*
G02*
X32720000Y-48385000I0J150000D01*
G01*
X32720000Y-46735000D01*
G75*
G02*
X32870000Y-46585000I150000J0D01*
G01*
G37*
G36*
G01*
X31600000Y-46585000D02*
X31900000Y-46585000D01*
G75*
G02*
X32050000Y-46735000I0J-150000D01*
G01*
X32050000Y-48385000D01*
G75*
G02*
X31900000Y-48535000I-150000J0D01*
G01*
X31600000Y-48535000D01*
G75*
G02*
X31450000Y-48385000I0J150000D01*
G01*
X31450000Y-46735000D01*
G75*
G02*
X31600000Y-46585000I150000J0D01*
G01*
G37*
G36*
G01*
X30330000Y-46585000D02*
X30630000Y-46585000D01*
G75*
G02*
X30780000Y-46735000I0J-150000D01*
G01*
X30780000Y-48385000D01*
G75*
G02*
X30630000Y-48535000I-150000J0D01*
G01*
X30330000Y-48535000D01*
G75*
G02*
X30180000Y-48385000I0J150000D01*
G01*
X30180000Y-46735000D01*
G75*
G02*
X30330000Y-46585000I150000J0D01*
G01*
G37*
G36*
G01*
X30330000Y-41635000D02*
X30630000Y-41635000D01*
G75*
G02*
X30780000Y-41785000I0J-150000D01*
G01*
X30780000Y-43435000D01*
G75*
G02*
X30630000Y-43585000I-150000J0D01*
G01*
X30330000Y-43585000D01*
G75*
G02*
X30180000Y-43435000I0J150000D01*
G01*
X30180000Y-41785000D01*
G75*
G02*
X30330000Y-41635000I150000J0D01*
G01*
G37*
G36*
G01*
X31600000Y-41635000D02*
X31900000Y-41635000D01*
G75*
G02*
X32050000Y-41785000I0J-150000D01*
G01*
X32050000Y-43435000D01*
G75*
G02*
X31900000Y-43585000I-150000J0D01*
G01*
X31600000Y-43585000D01*
G75*
G02*
X31450000Y-43435000I0J150000D01*
G01*
X31450000Y-41785000D01*
G75*
G02*
X31600000Y-41635000I150000J0D01*
G01*
G37*
G36*
G01*
X32870000Y-41635000D02*
X33170000Y-41635000D01*
G75*
G02*
X33320000Y-41785000I0J-150000D01*
G01*
X33320000Y-43435000D01*
G75*
G02*
X33170000Y-43585000I-150000J0D01*
G01*
X32870000Y-43585000D01*
G75*
G02*
X32720000Y-43435000I0J150000D01*
G01*
X32720000Y-41785000D01*
G75*
G02*
X32870000Y-41635000I150000J0D01*
G01*
G37*
G36*
G01*
X34140000Y-41635000D02*
X34440000Y-41635000D01*
G75*
G02*
X34590000Y-41785000I0J-150000D01*
G01*
X34590000Y-43435000D01*
G75*
G02*
X34440000Y-43585000I-150000J0D01*
G01*
X34140000Y-43585000D01*
G75*
G02*
X33990000Y-43435000I0J150000D01*
G01*
X33990000Y-41785000D01*
G75*
G02*
X34140000Y-41635000I150000J0D01*
G01*
G37*
G36*
G01*
X35410000Y-41635000D02*
X35710000Y-41635000D01*
G75*
G02*
X35860000Y-41785000I0J-150000D01*
G01*
X35860000Y-43435000D01*
G75*
G02*
X35710000Y-43585000I-150000J0D01*
G01*
X35410000Y-43585000D01*
G75*
G02*
X35260000Y-43435000I0J150000D01*
G01*
X35260000Y-41785000D01*
G75*
G02*
X35410000Y-41635000I150000J0D01*
G01*
G37*
G36*
G01*
X36680000Y-41635000D02*
X36980000Y-41635000D01*
G75*
G02*
X37130000Y-41785000I0J-150000D01*
G01*
X37130000Y-43435000D01*
G75*
G02*
X36980000Y-43585000I-150000J0D01*
G01*
X36680000Y-43585000D01*
G75*
G02*
X36530000Y-43435000I0J150000D01*
G01*
X36530000Y-41785000D01*
G75*
G02*
X36680000Y-41635000I150000J0D01*
G01*
G37*
G36*
G01*
X37950000Y-41635000D02*
X38250000Y-41635000D01*
G75*
G02*
X38400000Y-41785000I0J-150000D01*
G01*
X38400000Y-43435000D01*
G75*
G02*
X38250000Y-43585000I-150000J0D01*
G01*
X37950000Y-43585000D01*
G75*
G02*
X37800000Y-43435000I0J150000D01*
G01*
X37800000Y-41785000D01*
G75*
G02*
X37950000Y-41635000I150000J0D01*
G01*
G37*
%TD*%
%TO.C,U2*%
G36*
G01*
X73255000Y-39635000D02*
X73255000Y-39335000D01*
G75*
G02*
X73405000Y-39185000I150000J0D01*
G01*
X75055000Y-39185000D01*
G75*
G02*
X75205000Y-39335000I0J-150000D01*
G01*
X75205000Y-39635000D01*
G75*
G02*
X75055000Y-39785000I-150000J0D01*
G01*
X73405000Y-39785000D01*
G75*
G02*
X73255000Y-39635000I0J150000D01*
G01*
G37*
G36*
G01*
X73255000Y-40905000D02*
X73255000Y-40605000D01*
G75*
G02*
X73405000Y-40455000I150000J0D01*
G01*
X75055000Y-40455000D01*
G75*
G02*
X75205000Y-40605000I0J-150000D01*
G01*
X75205000Y-40905000D01*
G75*
G02*
X75055000Y-41055000I-150000J0D01*
G01*
X73405000Y-41055000D01*
G75*
G02*
X73255000Y-40905000I0J150000D01*
G01*
G37*
G36*
G01*
X73255000Y-42175000D02*
X73255000Y-41875000D01*
G75*
G02*
X73405000Y-41725000I150000J0D01*
G01*
X75055000Y-41725000D01*
G75*
G02*
X75205000Y-41875000I0J-150000D01*
G01*
X75205000Y-42175000D01*
G75*
G02*
X75055000Y-42325000I-150000J0D01*
G01*
X73405000Y-42325000D01*
G75*
G02*
X73255000Y-42175000I0J150000D01*
G01*
G37*
G36*
G01*
X73255000Y-43445000D02*
X73255000Y-43145000D01*
G75*
G02*
X73405000Y-42995000I150000J0D01*
G01*
X75055000Y-42995000D01*
G75*
G02*
X75205000Y-43145000I0J-150000D01*
G01*
X75205000Y-43445000D01*
G75*
G02*
X75055000Y-43595000I-150000J0D01*
G01*
X73405000Y-43595000D01*
G75*
G02*
X73255000Y-43445000I0J150000D01*
G01*
G37*
G36*
G01*
X73255000Y-44715000D02*
X73255000Y-44415000D01*
G75*
G02*
X73405000Y-44265000I150000J0D01*
G01*
X75055000Y-44265000D01*
G75*
G02*
X75205000Y-44415000I0J-150000D01*
G01*
X75205000Y-44715000D01*
G75*
G02*
X75055000Y-44865000I-150000J0D01*
G01*
X73405000Y-44865000D01*
G75*
G02*
X73255000Y-44715000I0J150000D01*
G01*
G37*
G36*
G01*
X73255000Y-45985000D02*
X73255000Y-45685000D01*
G75*
G02*
X73405000Y-45535000I150000J0D01*
G01*
X75055000Y-45535000D01*
G75*
G02*
X75205000Y-45685000I0J-150000D01*
G01*
X75205000Y-45985000D01*
G75*
G02*
X75055000Y-46135000I-150000J0D01*
G01*
X73405000Y-46135000D01*
G75*
G02*
X73255000Y-45985000I0J150000D01*
G01*
G37*
G36*
G01*
X73255000Y-47255000D02*
X73255000Y-46955000D01*
G75*
G02*
X73405000Y-46805000I150000J0D01*
G01*
X75055000Y-46805000D01*
G75*
G02*
X75205000Y-46955000I0J-150000D01*
G01*
X75205000Y-47255000D01*
G75*
G02*
X75055000Y-47405000I-150000J0D01*
G01*
X73405000Y-47405000D01*
G75*
G02*
X73255000Y-47255000I0J150000D01*
G01*
G37*
G36*
G01*
X68305000Y-47255000D02*
X68305000Y-46955000D01*
G75*
G02*
X68455000Y-46805000I150000J0D01*
G01*
X70105000Y-46805000D01*
G75*
G02*
X70255000Y-46955000I0J-150000D01*
G01*
X70255000Y-47255000D01*
G75*
G02*
X70105000Y-47405000I-150000J0D01*
G01*
X68455000Y-47405000D01*
G75*
G02*
X68305000Y-47255000I0J150000D01*
G01*
G37*
G36*
G01*
X68305000Y-45985000D02*
X68305000Y-45685000D01*
G75*
G02*
X68455000Y-45535000I150000J0D01*
G01*
X70105000Y-45535000D01*
G75*
G02*
X70255000Y-45685000I0J-150000D01*
G01*
X70255000Y-45985000D01*
G75*
G02*
X70105000Y-46135000I-150000J0D01*
G01*
X68455000Y-46135000D01*
G75*
G02*
X68305000Y-45985000I0J150000D01*
G01*
G37*
G36*
G01*
X68305000Y-44715000D02*
X68305000Y-44415000D01*
G75*
G02*
X68455000Y-44265000I150000J0D01*
G01*
X70105000Y-44265000D01*
G75*
G02*
X70255000Y-44415000I0J-150000D01*
G01*
X70255000Y-44715000D01*
G75*
G02*
X70105000Y-44865000I-150000J0D01*
G01*
X68455000Y-44865000D01*
G75*
G02*
X68305000Y-44715000I0J150000D01*
G01*
G37*
G36*
G01*
X68305000Y-43445000D02*
X68305000Y-43145000D01*
G75*
G02*
X68455000Y-42995000I150000J0D01*
G01*
X70105000Y-42995000D01*
G75*
G02*
X70255000Y-43145000I0J-150000D01*
G01*
X70255000Y-43445000D01*
G75*
G02*
X70105000Y-43595000I-150000J0D01*
G01*
X68455000Y-43595000D01*
G75*
G02*
X68305000Y-43445000I0J150000D01*
G01*
G37*
G36*
G01*
X68305000Y-42175000D02*
X68305000Y-41875000D01*
G75*
G02*
X68455000Y-41725000I150000J0D01*
G01*
X70105000Y-41725000D01*
G75*
G02*
X70255000Y-41875000I0J-150000D01*
G01*
X70255000Y-42175000D01*
G75*
G02*
X70105000Y-42325000I-150000J0D01*
G01*
X68455000Y-42325000D01*
G75*
G02*
X68305000Y-42175000I0J150000D01*
G01*
G37*
G36*
G01*
X68305000Y-40905000D02*
X68305000Y-40605000D01*
G75*
G02*
X68455000Y-40455000I150000J0D01*
G01*
X70105000Y-40455000D01*
G75*
G02*
X70255000Y-40605000I0J-150000D01*
G01*
X70255000Y-40905000D01*
G75*
G02*
X70105000Y-41055000I-150000J0D01*
G01*
X68455000Y-41055000D01*
G75*
G02*
X68305000Y-40905000I0J150000D01*
G01*
G37*
G36*
G01*
X68305000Y-39635000D02*
X68305000Y-39335000D01*
G75*
G02*
X68455000Y-39185000I150000J0D01*
G01*
X70105000Y-39185000D01*
G75*
G02*
X70255000Y-39335000I0J-150000D01*
G01*
X70255000Y-39635000D01*
G75*
G02*
X70105000Y-39785000I-150000J0D01*
G01*
X68455000Y-39785000D01*
G75*
G02*
X68305000Y-39635000I0J150000D01*
G01*
G37*
%TD*%
%TO.C,U1*%
G36*
G01*
X47220000Y-40155000D02*
X47220000Y-39855000D01*
G75*
G02*
X47370000Y-39705000I150000J0D01*
G01*
X49020000Y-39705000D01*
G75*
G02*
X49170000Y-39855000I0J-150000D01*
G01*
X49170000Y-40155000D01*
G75*
G02*
X49020000Y-40305000I-150000J0D01*
G01*
X47370000Y-40305000D01*
G75*
G02*
X47220000Y-40155000I0J150000D01*
G01*
G37*
G36*
G01*
X47220000Y-41425000D02*
X47220000Y-41125000D01*
G75*
G02*
X47370000Y-40975000I150000J0D01*
G01*
X49020000Y-40975000D01*
G75*
G02*
X49170000Y-41125000I0J-150000D01*
G01*
X49170000Y-41425000D01*
G75*
G02*
X49020000Y-41575000I-150000J0D01*
G01*
X47370000Y-41575000D01*
G75*
G02*
X47220000Y-41425000I0J150000D01*
G01*
G37*
G36*
G01*
X47220000Y-42695000D02*
X47220000Y-42395000D01*
G75*
G02*
X47370000Y-42245000I150000J0D01*
G01*
X49020000Y-42245000D01*
G75*
G02*
X49170000Y-42395000I0J-150000D01*
G01*
X49170000Y-42695000D01*
G75*
G02*
X49020000Y-42845000I-150000J0D01*
G01*
X47370000Y-42845000D01*
G75*
G02*
X47220000Y-42695000I0J150000D01*
G01*
G37*
G36*
G01*
X47220000Y-43965000D02*
X47220000Y-43665000D01*
G75*
G02*
X47370000Y-43515000I150000J0D01*
G01*
X49020000Y-43515000D01*
G75*
G02*
X49170000Y-43665000I0J-150000D01*
G01*
X49170000Y-43965000D01*
G75*
G02*
X49020000Y-44115000I-150000J0D01*
G01*
X47370000Y-44115000D01*
G75*
G02*
X47220000Y-43965000I0J150000D01*
G01*
G37*
G36*
G01*
X47220000Y-45235000D02*
X47220000Y-44935000D01*
G75*
G02*
X47370000Y-44785000I150000J0D01*
G01*
X49020000Y-44785000D01*
G75*
G02*
X49170000Y-44935000I0J-150000D01*
G01*
X49170000Y-45235000D01*
G75*
G02*
X49020000Y-45385000I-150000J0D01*
G01*
X47370000Y-45385000D01*
G75*
G02*
X47220000Y-45235000I0J150000D01*
G01*
G37*
G36*
G01*
X47220000Y-46505000D02*
X47220000Y-46205000D01*
G75*
G02*
X47370000Y-46055000I150000J0D01*
G01*
X49020000Y-46055000D01*
G75*
G02*
X49170000Y-46205000I0J-150000D01*
G01*
X49170000Y-46505000D01*
G75*
G02*
X49020000Y-46655000I-150000J0D01*
G01*
X47370000Y-46655000D01*
G75*
G02*
X47220000Y-46505000I0J150000D01*
G01*
G37*
G36*
G01*
X47220000Y-47775000D02*
X47220000Y-47475000D01*
G75*
G02*
X47370000Y-47325000I150000J0D01*
G01*
X49020000Y-47325000D01*
G75*
G02*
X49170000Y-47475000I0J-150000D01*
G01*
X49170000Y-47775000D01*
G75*
G02*
X49020000Y-47925000I-150000J0D01*
G01*
X47370000Y-47925000D01*
G75*
G02*
X47220000Y-47775000I0J150000D01*
G01*
G37*
G36*
G01*
X42270000Y-47775000D02*
X42270000Y-47475000D01*
G75*
G02*
X42420000Y-47325000I150000J0D01*
G01*
X44070000Y-47325000D01*
G75*
G02*
X44220000Y-47475000I0J-150000D01*
G01*
X44220000Y-47775000D01*
G75*
G02*
X44070000Y-47925000I-150000J0D01*
G01*
X42420000Y-47925000D01*
G75*
G02*
X42270000Y-47775000I0J150000D01*
G01*
G37*
G36*
G01*
X42270000Y-46505000D02*
X42270000Y-46205000D01*
G75*
G02*
X42420000Y-46055000I150000J0D01*
G01*
X44070000Y-46055000D01*
G75*
G02*
X44220000Y-46205000I0J-150000D01*
G01*
X44220000Y-46505000D01*
G75*
G02*
X44070000Y-46655000I-150000J0D01*
G01*
X42420000Y-46655000D01*
G75*
G02*
X42270000Y-46505000I0J150000D01*
G01*
G37*
G36*
G01*
X42270000Y-45235000D02*
X42270000Y-44935000D01*
G75*
G02*
X42420000Y-44785000I150000J0D01*
G01*
X44070000Y-44785000D01*
G75*
G02*
X44220000Y-44935000I0J-150000D01*
G01*
X44220000Y-45235000D01*
G75*
G02*
X44070000Y-45385000I-150000J0D01*
G01*
X42420000Y-45385000D01*
G75*
G02*
X42270000Y-45235000I0J150000D01*
G01*
G37*
G36*
G01*
X42270000Y-43965000D02*
X42270000Y-43665000D01*
G75*
G02*
X42420000Y-43515000I150000J0D01*
G01*
X44070000Y-43515000D01*
G75*
G02*
X44220000Y-43665000I0J-150000D01*
G01*
X44220000Y-43965000D01*
G75*
G02*
X44070000Y-44115000I-150000J0D01*
G01*
X42420000Y-44115000D01*
G75*
G02*
X42270000Y-43965000I0J150000D01*
G01*
G37*
G36*
G01*
X42270000Y-42695000D02*
X42270000Y-42395000D01*
G75*
G02*
X42420000Y-42245000I150000J0D01*
G01*
X44070000Y-42245000D01*
G75*
G02*
X44220000Y-42395000I0J-150000D01*
G01*
X44220000Y-42695000D01*
G75*
G02*
X44070000Y-42845000I-150000J0D01*
G01*
X42420000Y-42845000D01*
G75*
G02*
X42270000Y-42695000I0J150000D01*
G01*
G37*
G36*
G01*
X42270000Y-41425000D02*
X42270000Y-41125000D01*
G75*
G02*
X42420000Y-40975000I150000J0D01*
G01*
X44070000Y-40975000D01*
G75*
G02*
X44220000Y-41125000I0J-150000D01*
G01*
X44220000Y-41425000D01*
G75*
G02*
X44070000Y-41575000I-150000J0D01*
G01*
X42420000Y-41575000D01*
G75*
G02*
X42270000Y-41425000I0J150000D01*
G01*
G37*
G36*
G01*
X42270000Y-40155000D02*
X42270000Y-39855000D01*
G75*
G02*
X42420000Y-39705000I150000J0D01*
G01*
X44070000Y-39705000D01*
G75*
G02*
X44220000Y-39855000I0J-150000D01*
G01*
X44220000Y-40155000D01*
G75*
G02*
X44070000Y-40305000I-150000J0D01*
G01*
X42420000Y-40305000D01*
G75*
G02*
X42270000Y-40155000I0J150000D01*
G01*
G37*
%TD*%
%TO.C,U10*%
G36*
G01*
X81685000Y-32235000D02*
X81685000Y-32535000D01*
G75*
G02*
X81535000Y-32685000I-150000J0D01*
G01*
X79885000Y-32685000D01*
G75*
G02*
X79735000Y-32535000I0J150000D01*
G01*
X79735000Y-32235000D01*
G75*
G02*
X79885000Y-32085000I150000J0D01*
G01*
X81535000Y-32085000D01*
G75*
G02*
X81685000Y-32235000I0J-150000D01*
G01*
G37*
G36*
G01*
X81685000Y-30965000D02*
X81685000Y-31265000D01*
G75*
G02*
X81535000Y-31415000I-150000J0D01*
G01*
X79885000Y-31415000D01*
G75*
G02*
X79735000Y-31265000I0J150000D01*
G01*
X79735000Y-30965000D01*
G75*
G02*
X79885000Y-30815000I150000J0D01*
G01*
X81535000Y-30815000D01*
G75*
G02*
X81685000Y-30965000I0J-150000D01*
G01*
G37*
G36*
G01*
X81685000Y-29695000D02*
X81685000Y-29995000D01*
G75*
G02*
X81535000Y-30145000I-150000J0D01*
G01*
X79885000Y-30145000D01*
G75*
G02*
X79735000Y-29995000I0J150000D01*
G01*
X79735000Y-29695000D01*
G75*
G02*
X79885000Y-29545000I150000J0D01*
G01*
X81535000Y-29545000D01*
G75*
G02*
X81685000Y-29695000I0J-150000D01*
G01*
G37*
G36*
G01*
X81685000Y-28425000D02*
X81685000Y-28725000D01*
G75*
G02*
X81535000Y-28875000I-150000J0D01*
G01*
X79885000Y-28875000D01*
G75*
G02*
X79735000Y-28725000I0J150000D01*
G01*
X79735000Y-28425000D01*
G75*
G02*
X79885000Y-28275000I150000J0D01*
G01*
X81535000Y-28275000D01*
G75*
G02*
X81685000Y-28425000I0J-150000D01*
G01*
G37*
G36*
G01*
X81685000Y-27155000D02*
X81685000Y-27455000D01*
G75*
G02*
X81535000Y-27605000I-150000J0D01*
G01*
X79885000Y-27605000D01*
G75*
G02*
X79735000Y-27455000I0J150000D01*
G01*
X79735000Y-27155000D01*
G75*
G02*
X79885000Y-27005000I150000J0D01*
G01*
X81535000Y-27005000D01*
G75*
G02*
X81685000Y-27155000I0J-150000D01*
G01*
G37*
G36*
G01*
X81685000Y-25885000D02*
X81685000Y-26185000D01*
G75*
G02*
X81535000Y-26335000I-150000J0D01*
G01*
X79885000Y-26335000D01*
G75*
G02*
X79735000Y-26185000I0J150000D01*
G01*
X79735000Y-25885000D01*
G75*
G02*
X79885000Y-25735000I150000J0D01*
G01*
X81535000Y-25735000D01*
G75*
G02*
X81685000Y-25885000I0J-150000D01*
G01*
G37*
G36*
G01*
X81685000Y-24615000D02*
X81685000Y-24915000D01*
G75*
G02*
X81535000Y-25065000I-150000J0D01*
G01*
X79885000Y-25065000D01*
G75*
G02*
X79735000Y-24915000I0J150000D01*
G01*
X79735000Y-24615000D01*
G75*
G02*
X79885000Y-24465000I150000J0D01*
G01*
X81535000Y-24465000D01*
G75*
G02*
X81685000Y-24615000I0J-150000D01*
G01*
G37*
G36*
G01*
X81685000Y-23345000D02*
X81685000Y-23645000D01*
G75*
G02*
X81535000Y-23795000I-150000J0D01*
G01*
X79885000Y-23795000D01*
G75*
G02*
X79735000Y-23645000I0J150000D01*
G01*
X79735000Y-23345000D01*
G75*
G02*
X79885000Y-23195000I150000J0D01*
G01*
X81535000Y-23195000D01*
G75*
G02*
X81685000Y-23345000I0J-150000D01*
G01*
G37*
G36*
G01*
X86635000Y-23345000D02*
X86635000Y-23645000D01*
G75*
G02*
X86485000Y-23795000I-150000J0D01*
G01*
X84835000Y-23795000D01*
G75*
G02*
X84685000Y-23645000I0J150000D01*
G01*
X84685000Y-23345000D01*
G75*
G02*
X84835000Y-23195000I150000J0D01*
G01*
X86485000Y-23195000D01*
G75*
G02*
X86635000Y-23345000I0J-150000D01*
G01*
G37*
G36*
G01*
X86635000Y-24615000D02*
X86635000Y-24915000D01*
G75*
G02*
X86485000Y-25065000I-150000J0D01*
G01*
X84835000Y-25065000D01*
G75*
G02*
X84685000Y-24915000I0J150000D01*
G01*
X84685000Y-24615000D01*
G75*
G02*
X84835000Y-24465000I150000J0D01*
G01*
X86485000Y-24465000D01*
G75*
G02*
X86635000Y-24615000I0J-150000D01*
G01*
G37*
G36*
G01*
X86635000Y-25885000D02*
X86635000Y-26185000D01*
G75*
G02*
X86485000Y-26335000I-150000J0D01*
G01*
X84835000Y-26335000D01*
G75*
G02*
X84685000Y-26185000I0J150000D01*
G01*
X84685000Y-25885000D01*
G75*
G02*
X84835000Y-25735000I150000J0D01*
G01*
X86485000Y-25735000D01*
G75*
G02*
X86635000Y-25885000I0J-150000D01*
G01*
G37*
G36*
G01*
X86635000Y-27155000D02*
X86635000Y-27455000D01*
G75*
G02*
X86485000Y-27605000I-150000J0D01*
G01*
X84835000Y-27605000D01*
G75*
G02*
X84685000Y-27455000I0J150000D01*
G01*
X84685000Y-27155000D01*
G75*
G02*
X84835000Y-27005000I150000J0D01*
G01*
X86485000Y-27005000D01*
G75*
G02*
X86635000Y-27155000I0J-150000D01*
G01*
G37*
G36*
G01*
X86635000Y-28425000D02*
X86635000Y-28725000D01*
G75*
G02*
X86485000Y-28875000I-150000J0D01*
G01*
X84835000Y-28875000D01*
G75*
G02*
X84685000Y-28725000I0J150000D01*
G01*
X84685000Y-28425000D01*
G75*
G02*
X84835000Y-28275000I150000J0D01*
G01*
X86485000Y-28275000D01*
G75*
G02*
X86635000Y-28425000I0J-150000D01*
G01*
G37*
G36*
G01*
X86635000Y-29695000D02*
X86635000Y-29995000D01*
G75*
G02*
X86485000Y-30145000I-150000J0D01*
G01*
X84835000Y-30145000D01*
G75*
G02*
X84685000Y-29995000I0J150000D01*
G01*
X84685000Y-29695000D01*
G75*
G02*
X84835000Y-29545000I150000J0D01*
G01*
X86485000Y-29545000D01*
G75*
G02*
X86635000Y-29695000I0J-150000D01*
G01*
G37*
G36*
G01*
X86635000Y-30965000D02*
X86635000Y-31265000D01*
G75*
G02*
X86485000Y-31415000I-150000J0D01*
G01*
X84835000Y-31415000D01*
G75*
G02*
X84685000Y-31265000I0J150000D01*
G01*
X84685000Y-30965000D01*
G75*
G02*
X84835000Y-30815000I150000J0D01*
G01*
X86485000Y-30815000D01*
G75*
G02*
X86635000Y-30965000I0J-150000D01*
G01*
G37*
G36*
G01*
X86635000Y-32235000D02*
X86635000Y-32535000D01*
G75*
G02*
X86485000Y-32685000I-150000J0D01*
G01*
X84835000Y-32685000D01*
G75*
G02*
X84685000Y-32535000I0J150000D01*
G01*
X84685000Y-32235000D01*
G75*
G02*
X84835000Y-32085000I150000J0D01*
G01*
X86485000Y-32085000D01*
G75*
G02*
X86635000Y-32235000I0J-150000D01*
G01*
G37*
%TD*%
%TO.C,U16*%
G36*
G01*
X93115000Y-32235000D02*
X93115000Y-32535000D01*
G75*
G02*
X92965000Y-32685000I-150000J0D01*
G01*
X91315000Y-32685000D01*
G75*
G02*
X91165000Y-32535000I0J150000D01*
G01*
X91165000Y-32235000D01*
G75*
G02*
X91315000Y-32085000I150000J0D01*
G01*
X92965000Y-32085000D01*
G75*
G02*
X93115000Y-32235000I0J-150000D01*
G01*
G37*
G36*
G01*
X93115000Y-30965000D02*
X93115000Y-31265000D01*
G75*
G02*
X92965000Y-31415000I-150000J0D01*
G01*
X91315000Y-31415000D01*
G75*
G02*
X91165000Y-31265000I0J150000D01*
G01*
X91165000Y-30965000D01*
G75*
G02*
X91315000Y-30815000I150000J0D01*
G01*
X92965000Y-30815000D01*
G75*
G02*
X93115000Y-30965000I0J-150000D01*
G01*
G37*
G36*
G01*
X93115000Y-29695000D02*
X93115000Y-29995000D01*
G75*
G02*
X92965000Y-30145000I-150000J0D01*
G01*
X91315000Y-30145000D01*
G75*
G02*
X91165000Y-29995000I0J150000D01*
G01*
X91165000Y-29695000D01*
G75*
G02*
X91315000Y-29545000I150000J0D01*
G01*
X92965000Y-29545000D01*
G75*
G02*
X93115000Y-29695000I0J-150000D01*
G01*
G37*
G36*
G01*
X93115000Y-28425000D02*
X93115000Y-28725000D01*
G75*
G02*
X92965000Y-28875000I-150000J0D01*
G01*
X91315000Y-28875000D01*
G75*
G02*
X91165000Y-28725000I0J150000D01*
G01*
X91165000Y-28425000D01*
G75*
G02*
X91315000Y-28275000I150000J0D01*
G01*
X92965000Y-28275000D01*
G75*
G02*
X93115000Y-28425000I0J-150000D01*
G01*
G37*
G36*
G01*
X93115000Y-27155000D02*
X93115000Y-27455000D01*
G75*
G02*
X92965000Y-27605000I-150000J0D01*
G01*
X91315000Y-27605000D01*
G75*
G02*
X91165000Y-27455000I0J150000D01*
G01*
X91165000Y-27155000D01*
G75*
G02*
X91315000Y-27005000I150000J0D01*
G01*
X92965000Y-27005000D01*
G75*
G02*
X93115000Y-27155000I0J-150000D01*
G01*
G37*
G36*
G01*
X93115000Y-25885000D02*
X93115000Y-26185000D01*
G75*
G02*
X92965000Y-26335000I-150000J0D01*
G01*
X91315000Y-26335000D01*
G75*
G02*
X91165000Y-26185000I0J150000D01*
G01*
X91165000Y-25885000D01*
G75*
G02*
X91315000Y-25735000I150000J0D01*
G01*
X92965000Y-25735000D01*
G75*
G02*
X93115000Y-25885000I0J-150000D01*
G01*
G37*
G36*
G01*
X93115000Y-24615000D02*
X93115000Y-24915000D01*
G75*
G02*
X92965000Y-25065000I-150000J0D01*
G01*
X91315000Y-25065000D01*
G75*
G02*
X91165000Y-24915000I0J150000D01*
G01*
X91165000Y-24615000D01*
G75*
G02*
X91315000Y-24465000I150000J0D01*
G01*
X92965000Y-24465000D01*
G75*
G02*
X93115000Y-24615000I0J-150000D01*
G01*
G37*
G36*
G01*
X93115000Y-23345000D02*
X93115000Y-23645000D01*
G75*
G02*
X92965000Y-23795000I-150000J0D01*
G01*
X91315000Y-23795000D01*
G75*
G02*
X91165000Y-23645000I0J150000D01*
G01*
X91165000Y-23345000D01*
G75*
G02*
X91315000Y-23195000I150000J0D01*
G01*
X92965000Y-23195000D01*
G75*
G02*
X93115000Y-23345000I0J-150000D01*
G01*
G37*
G36*
G01*
X98065000Y-23345000D02*
X98065000Y-23645000D01*
G75*
G02*
X97915000Y-23795000I-150000J0D01*
G01*
X96265000Y-23795000D01*
G75*
G02*
X96115000Y-23645000I0J150000D01*
G01*
X96115000Y-23345000D01*
G75*
G02*
X96265000Y-23195000I150000J0D01*
G01*
X97915000Y-23195000D01*
G75*
G02*
X98065000Y-23345000I0J-150000D01*
G01*
G37*
G36*
G01*
X98065000Y-24615000D02*
X98065000Y-24915000D01*
G75*
G02*
X97915000Y-25065000I-150000J0D01*
G01*
X96265000Y-25065000D01*
G75*
G02*
X96115000Y-24915000I0J150000D01*
G01*
X96115000Y-24615000D01*
G75*
G02*
X96265000Y-24465000I150000J0D01*
G01*
X97915000Y-24465000D01*
G75*
G02*
X98065000Y-24615000I0J-150000D01*
G01*
G37*
G36*
G01*
X98065000Y-25885000D02*
X98065000Y-26185000D01*
G75*
G02*
X97915000Y-26335000I-150000J0D01*
G01*
X96265000Y-26335000D01*
G75*
G02*
X96115000Y-26185000I0J150000D01*
G01*
X96115000Y-25885000D01*
G75*
G02*
X96265000Y-25735000I150000J0D01*
G01*
X97915000Y-25735000D01*
G75*
G02*
X98065000Y-25885000I0J-150000D01*
G01*
G37*
G36*
G01*
X98065000Y-27155000D02*
X98065000Y-27455000D01*
G75*
G02*
X97915000Y-27605000I-150000J0D01*
G01*
X96265000Y-27605000D01*
G75*
G02*
X96115000Y-27455000I0J150000D01*
G01*
X96115000Y-27155000D01*
G75*
G02*
X96265000Y-27005000I150000J0D01*
G01*
X97915000Y-27005000D01*
G75*
G02*
X98065000Y-27155000I0J-150000D01*
G01*
G37*
G36*
G01*
X98065000Y-28425000D02*
X98065000Y-28725000D01*
G75*
G02*
X97915000Y-28875000I-150000J0D01*
G01*
X96265000Y-28875000D01*
G75*
G02*
X96115000Y-28725000I0J150000D01*
G01*
X96115000Y-28425000D01*
G75*
G02*
X96265000Y-28275000I150000J0D01*
G01*
X97915000Y-28275000D01*
G75*
G02*
X98065000Y-28425000I0J-150000D01*
G01*
G37*
G36*
G01*
X98065000Y-29695000D02*
X98065000Y-29995000D01*
G75*
G02*
X97915000Y-30145000I-150000J0D01*
G01*
X96265000Y-30145000D01*
G75*
G02*
X96115000Y-29995000I0J150000D01*
G01*
X96115000Y-29695000D01*
G75*
G02*
X96265000Y-29545000I150000J0D01*
G01*
X97915000Y-29545000D01*
G75*
G02*
X98065000Y-29695000I0J-150000D01*
G01*
G37*
G36*
G01*
X98065000Y-30965000D02*
X98065000Y-31265000D01*
G75*
G02*
X97915000Y-31415000I-150000J0D01*
G01*
X96265000Y-31415000D01*
G75*
G02*
X96115000Y-31265000I0J150000D01*
G01*
X96115000Y-30965000D01*
G75*
G02*
X96265000Y-30815000I150000J0D01*
G01*
X97915000Y-30815000D01*
G75*
G02*
X98065000Y-30965000I0J-150000D01*
G01*
G37*
G36*
G01*
X98065000Y-32235000D02*
X98065000Y-32535000D01*
G75*
G02*
X97915000Y-32685000I-150000J0D01*
G01*
X96265000Y-32685000D01*
G75*
G02*
X96115000Y-32535000I0J150000D01*
G01*
X96115000Y-32235000D01*
G75*
G02*
X96265000Y-32085000I150000J0D01*
G01*
X97915000Y-32085000D01*
G75*
G02*
X98065000Y-32235000I0J-150000D01*
G01*
G37*
%TD*%
D16*
%TO.C,X1*%
X103945000Y-30480000D03*
X103945000Y-25400000D03*
X108145000Y-25400000D03*
X108145000Y-30480000D03*
%TD*%
D12*
%TO.C,Q1*%
X43750000Y-32500000D03*
D13*
X41210000Y-32500000D03*
X42480000Y-32500000D03*
%TD*%
D17*
%TO.C,U11*%
X40005000Y-52705000D03*
X32385000Y-80645000D03*
X40005000Y-55245000D03*
X32385000Y-78105000D03*
X40005000Y-57785000D03*
X32385000Y-75565000D03*
X40005000Y-60325000D03*
X32385000Y-73025000D03*
X40005000Y-62865000D03*
X32385000Y-70485000D03*
X40005000Y-65405000D03*
X32385000Y-67945000D03*
X40005000Y-67945000D03*
X32385000Y-65405000D03*
X40005000Y-70485000D03*
X32385000Y-62865000D03*
X40005000Y-73025000D03*
X32385000Y-60325000D03*
X40005000Y-75565000D03*
X32385000Y-57785000D03*
X40005000Y-78105000D03*
X32385000Y-55245000D03*
X40005000Y-80645000D03*
D18*
X32385000Y-52705000D03*
%TD*%
D17*
%TO.C,U15*%
X58928000Y-52832000D03*
X117348000Y-68072000D03*
X61468000Y-52832000D03*
X114808000Y-68072000D03*
X64008000Y-52832000D03*
X112268000Y-68072000D03*
X66548000Y-52832000D03*
X109728000Y-68072000D03*
X69088000Y-52832000D03*
X107188000Y-68072000D03*
X71628000Y-52832000D03*
X104648000Y-68072000D03*
X74168000Y-52832000D03*
X102108000Y-68072000D03*
X76708000Y-52832000D03*
X99568000Y-68072000D03*
X79248000Y-52832000D03*
X97028000Y-68072000D03*
X81788000Y-52832000D03*
X94488000Y-68072000D03*
X84328000Y-52832000D03*
X91948000Y-68072000D03*
X86868000Y-52832000D03*
X89408000Y-68072000D03*
X89408000Y-52832000D03*
X86868000Y-68072000D03*
X91948000Y-52832000D03*
X84328000Y-68072000D03*
X94488000Y-52832000D03*
X81788000Y-68072000D03*
X97028000Y-52832000D03*
X79248000Y-68072000D03*
X99568000Y-52832000D03*
X76708000Y-68072000D03*
X102108000Y-52832000D03*
X74168000Y-68072000D03*
X104648000Y-52832000D03*
X71628000Y-68072000D03*
X107188000Y-52832000D03*
X69088000Y-68072000D03*
X109728000Y-52832000D03*
X66548000Y-68072000D03*
X112268000Y-52832000D03*
X64008000Y-68072000D03*
X114808000Y-52832000D03*
X61468000Y-68072000D03*
X117348000Y-52832000D03*
D18*
X58928000Y-68072000D03*
%TD*%
D17*
%TO.C,U9*%
X50165000Y-78960700D03*
X98425000Y-94200700D03*
X52705000Y-78960700D03*
X95885000Y-94200700D03*
X55245000Y-78960700D03*
X93345000Y-94200700D03*
X57785000Y-78960700D03*
X90805000Y-94200700D03*
X60325000Y-78960700D03*
X88265000Y-94200700D03*
X62865000Y-78960700D03*
X85725000Y-94200700D03*
X65405000Y-78960700D03*
X83185000Y-94200700D03*
X67945000Y-78960700D03*
X80645000Y-94200700D03*
X70485000Y-78960700D03*
X78105000Y-94200700D03*
X73025000Y-78960700D03*
X75565000Y-94200700D03*
X75565000Y-78960700D03*
X73025000Y-94200700D03*
X78105000Y-78960700D03*
X70485000Y-94200700D03*
X80645000Y-78960700D03*
X67945000Y-94200700D03*
X83185000Y-78960700D03*
X65405000Y-94200700D03*
X85725000Y-78960700D03*
X62865000Y-94200700D03*
X88265000Y-78960700D03*
X60325000Y-94200700D03*
X90805000Y-78960700D03*
X57785000Y-94200700D03*
X93345000Y-78960700D03*
X55245000Y-94200700D03*
X95885000Y-78960700D03*
X52705000Y-94200700D03*
X98425000Y-78960700D03*
D18*
X50165000Y-94200700D03*
%TD*%
D17*
%TO.C,U8*%
X50165000Y-99060000D03*
X108585000Y-114300000D03*
X52705000Y-99060000D03*
X106045000Y-114300000D03*
X55245000Y-99060000D03*
X103505000Y-114300000D03*
X57785000Y-99060000D03*
X100965000Y-114300000D03*
X60325000Y-99060000D03*
X98425000Y-114300000D03*
X62865000Y-99060000D03*
X95885000Y-114300000D03*
X65405000Y-99060000D03*
X93345000Y-114300000D03*
X67945000Y-99060000D03*
X90805000Y-114300000D03*
X70485000Y-99060000D03*
X88265000Y-114300000D03*
X73025000Y-99060000D03*
X85725000Y-114300000D03*
X75565000Y-99060000D03*
X83185000Y-114300000D03*
X78105000Y-99060000D03*
X80645000Y-114300000D03*
X80645000Y-99060000D03*
X78105000Y-114300000D03*
X83185000Y-99060000D03*
X75565000Y-114300000D03*
X85725000Y-99060000D03*
X73025000Y-114300000D03*
X88265000Y-99060000D03*
X70485000Y-114300000D03*
X90805000Y-99060000D03*
X67945000Y-114300000D03*
X93345000Y-99060000D03*
X65405000Y-114300000D03*
X95885000Y-99060000D03*
X62865000Y-114300000D03*
X98425000Y-99060000D03*
X60325000Y-114300000D03*
X100965000Y-99060000D03*
X57785000Y-114300000D03*
X103505000Y-99060000D03*
X55245000Y-114300000D03*
X106045000Y-99060000D03*
X52705000Y-114300000D03*
X108585000Y-99060000D03*
D18*
X50165000Y-114300000D03*
%TD*%
D17*
%TO.C,U6*%
X40005000Y-86360000D03*
X32385000Y-114300000D03*
X40005000Y-88900000D03*
X32385000Y-111760000D03*
X40005000Y-91440000D03*
X32385000Y-109220000D03*
X40005000Y-93980000D03*
X32385000Y-106680000D03*
X40005000Y-96520000D03*
X32385000Y-104140000D03*
X40005000Y-99060000D03*
X32385000Y-101600000D03*
X40005000Y-101600000D03*
X32385000Y-99060000D03*
X40005000Y-104140000D03*
X32385000Y-96520000D03*
X40005000Y-106680000D03*
X32385000Y-93980000D03*
X40005000Y-109220000D03*
X32385000Y-91440000D03*
X40005000Y-111760000D03*
X32385000Y-88900000D03*
X40005000Y-114300000D03*
D18*
X32385000Y-86360000D03*
%TD*%
D19*
%TO.C,M4*%
X23500000Y-116500000D03*
%TD*%
%TO.C,M3*%
X23500000Y-23500000D03*
%TD*%
%TO.C,M2*%
X116500000Y-116500000D03*
%TD*%
%TO.C,M1*%
X116500000Y-23500000D03*
%TD*%
D20*
%TO.C,C20*%
X32060000Y-35560000D03*
D18*
X35560000Y-35560000D03*
%TD*%
D20*
%TO.C,C23*%
X32060000Y-26035000D03*
D18*
X35560000Y-26035000D03*
%TD*%
D11*
%TO.C,J1*%
X22540000Y-30600000D03*
D10*
X25080000Y-30600000D03*
X22540000Y-33140000D03*
X25080000Y-33140000D03*
X22540000Y-35680000D03*
X25080000Y-35680000D03*
X22540000Y-38220000D03*
X25080000Y-38220000D03*
%TD*%
%TO.C,J2*%
X25080000Y-109400000D03*
X22540000Y-109400000D03*
X25080000Y-106860000D03*
X22540000Y-106860000D03*
X25080000Y-104320000D03*
X22540000Y-104320000D03*
X25080000Y-101780000D03*
D11*
X22540000Y-101780000D03*
%TD*%
D10*
%TO.C,J5*%
X25080000Y-94130000D03*
X22540000Y-94130000D03*
X25080000Y-91590000D03*
X22540000Y-91590000D03*
X25080000Y-89050000D03*
X22540000Y-89050000D03*
X25080000Y-86510000D03*
X22540000Y-86510000D03*
X25080000Y-83970000D03*
X22540000Y-83970000D03*
X25080000Y-81430000D03*
X22540000Y-81430000D03*
X25080000Y-78890000D03*
X22540000Y-78890000D03*
X25080000Y-76350000D03*
X22540000Y-76350000D03*
X25080000Y-73810000D03*
X22540000Y-73810000D03*
X25080000Y-71270000D03*
X22540000Y-71270000D03*
X25080000Y-68730000D03*
X22540000Y-68730000D03*
X25080000Y-66190000D03*
X22540000Y-66190000D03*
X25080000Y-63650000D03*
X22540000Y-63650000D03*
X25080000Y-61110000D03*
X22540000Y-61110000D03*
X25080000Y-58570000D03*
X22540000Y-58570000D03*
X25080000Y-56030000D03*
X22540000Y-56030000D03*
X25080000Y-53490000D03*
X22540000Y-53490000D03*
X25080000Y-50950000D03*
X22540000Y-50950000D03*
X25080000Y-48410000D03*
X22540000Y-48410000D03*
X25080000Y-45870000D03*
D11*
X22540000Y-45870000D03*
%TD*%
M02*
