%TF.GenerationSoftware,KiCad,Pcbnew,(5.1.9)-1*%
%TF.CreationDate,2022-02-06T01:16:42-05:00*%
%TF.ProjectId,main,6d61696e-2e6b-4696-9361-645f70636258,rev?*%
%TF.SameCoordinates,Original*%
%TF.FileFunction,Legend,Top*%
%TF.FilePolarity,Positive*%
%FSLAX46Y46*%
G04 Gerber Fmt 4.6, Leading zero omitted, Abs format (unit mm)*
G04 Created by KiCad (PCBNEW (5.1.9)-1) date 2022-02-06 01:16:42*
%MOMM*%
%LPD*%
G01*
G04 APERTURE LIST*
%ADD10C,0.300000*%
%ADD11C,0.120000*%
%ADD12C,0.150000*%
G04 APERTURE END LIST*
D10*
X103988428Y-93799000D02*
X104559857Y-93799000D01*
X103874142Y-94141857D02*
X104274142Y-92941857D01*
X104674142Y-94141857D01*
X105074142Y-94027571D02*
X105131285Y-94084714D01*
X105074142Y-94141857D01*
X105017000Y-94084714D01*
X105074142Y-94027571D01*
X105074142Y-94141857D01*
X106445571Y-92941857D02*
X106731285Y-94141857D01*
X106959857Y-93284714D01*
X107188428Y-94141857D01*
X107474142Y-92941857D01*
X107931285Y-94141857D02*
X107931285Y-93341857D01*
X107931285Y-92941857D02*
X107874142Y-92999000D01*
X107931285Y-93056142D01*
X107988428Y-92999000D01*
X107931285Y-92941857D01*
X107931285Y-93056142D01*
X108674142Y-94141857D02*
X108559857Y-94084714D01*
X108502714Y-93970428D01*
X108502714Y-92941857D01*
X109074142Y-94084714D02*
X109188428Y-94141857D01*
X109417000Y-94141857D01*
X109531285Y-94084714D01*
X109588428Y-93970428D01*
X109588428Y-93913285D01*
X109531285Y-93799000D01*
X109417000Y-93741857D01*
X109245571Y-93741857D01*
X109131285Y-93684714D01*
X109074142Y-93570428D01*
X109074142Y-93513285D01*
X109131285Y-93399000D01*
X109245571Y-93341857D01*
X109417000Y-93341857D01*
X109531285Y-93399000D01*
X110274142Y-94141857D02*
X110159857Y-94084714D01*
X110102714Y-94027571D01*
X110045571Y-93913285D01*
X110045571Y-93570428D01*
X110102714Y-93456142D01*
X110159857Y-93399000D01*
X110274142Y-93341857D01*
X110445571Y-93341857D01*
X110559857Y-93399000D01*
X110617000Y-93456142D01*
X110674142Y-93570428D01*
X110674142Y-93913285D01*
X110617000Y-94027571D01*
X110559857Y-94084714D01*
X110445571Y-94141857D01*
X110274142Y-94141857D01*
X111188428Y-93341857D02*
X111188428Y-94141857D01*
X111188428Y-93456142D02*
X111245571Y-93399000D01*
X111359857Y-93341857D01*
X111531285Y-93341857D01*
X111645571Y-93399000D01*
X111702714Y-93513285D01*
X111702714Y-94141857D01*
X113131285Y-93056142D02*
X113188428Y-92999000D01*
X113302714Y-92941857D01*
X113588428Y-92941857D01*
X113702714Y-92999000D01*
X113759857Y-93056142D01*
X113817000Y-93170428D01*
X113817000Y-93284714D01*
X113759857Y-93456142D01*
X113074142Y-94141857D01*
X113817000Y-94141857D01*
X114559857Y-92941857D02*
X114674142Y-92941857D01*
X114788428Y-92999000D01*
X114845571Y-93056142D01*
X114902714Y-93170428D01*
X114959857Y-93399000D01*
X114959857Y-93684714D01*
X114902714Y-93913285D01*
X114845571Y-94027571D01*
X114788428Y-94084714D01*
X114674142Y-94141857D01*
X114559857Y-94141857D01*
X114445571Y-94084714D01*
X114388428Y-94027571D01*
X114331285Y-93913285D01*
X114274142Y-93684714D01*
X114274142Y-93399000D01*
X114331285Y-93170428D01*
X114388428Y-93056142D01*
X114445571Y-92999000D01*
X114559857Y-92941857D01*
X115417000Y-93056142D02*
X115474142Y-92999000D01*
X115588428Y-92941857D01*
X115874142Y-92941857D01*
X115988428Y-92999000D01*
X116045571Y-93056142D01*
X116102714Y-93170428D01*
X116102714Y-93284714D01*
X116045571Y-93456142D01*
X115359857Y-94141857D01*
X116102714Y-94141857D01*
X116559857Y-93056142D02*
X116617000Y-92999000D01*
X116731285Y-92941857D01*
X117017000Y-92941857D01*
X117131285Y-92999000D01*
X117188428Y-93056142D01*
X117245571Y-93170428D01*
X117245571Y-93284714D01*
X117188428Y-93456142D01*
X116502714Y-94141857D01*
X117245571Y-94141857D01*
X113574857Y-110298714D02*
X114774857Y-110013000D01*
X113917714Y-109784428D01*
X114774857Y-109555857D01*
X113574857Y-109270142D01*
X114660571Y-108127285D02*
X114717714Y-108184428D01*
X114774857Y-108355857D01*
X114774857Y-108470142D01*
X114717714Y-108641571D01*
X114603428Y-108755857D01*
X114489142Y-108813000D01*
X114260571Y-108870142D01*
X114089142Y-108870142D01*
X113860571Y-108813000D01*
X113746285Y-108755857D01*
X113632000Y-108641571D01*
X113574857Y-108470142D01*
X113574857Y-108355857D01*
X113632000Y-108184428D01*
X113689142Y-108127285D01*
X114089142Y-107441571D02*
X114032000Y-107555857D01*
X113974857Y-107613000D01*
X113860571Y-107670142D01*
X113803428Y-107670142D01*
X113689142Y-107613000D01*
X113632000Y-107555857D01*
X113574857Y-107441571D01*
X113574857Y-107213000D01*
X113632000Y-107098714D01*
X113689142Y-107041571D01*
X113803428Y-106984428D01*
X113860571Y-106984428D01*
X113974857Y-107041571D01*
X114032000Y-107098714D01*
X114089142Y-107213000D01*
X114089142Y-107441571D01*
X114146285Y-107555857D01*
X114203428Y-107613000D01*
X114317714Y-107670142D01*
X114546285Y-107670142D01*
X114660571Y-107613000D01*
X114717714Y-107555857D01*
X114774857Y-107441571D01*
X114774857Y-107213000D01*
X114717714Y-107098714D01*
X114660571Y-107041571D01*
X114546285Y-106984428D01*
X114317714Y-106984428D01*
X114203428Y-107041571D01*
X114146285Y-107098714D01*
X114089142Y-107213000D01*
X113574857Y-106241571D02*
X113574857Y-106127285D01*
X113632000Y-106013000D01*
X113689142Y-105955857D01*
X113803428Y-105898714D01*
X114032000Y-105841571D01*
X114317714Y-105841571D01*
X114546285Y-105898714D01*
X114660571Y-105955857D01*
X114717714Y-106013000D01*
X114774857Y-106127285D01*
X114774857Y-106241571D01*
X114717714Y-106355857D01*
X114660571Y-106413000D01*
X114546285Y-106470142D01*
X114317714Y-106527285D01*
X114032000Y-106527285D01*
X113803428Y-106470142D01*
X113689142Y-106413000D01*
X113632000Y-106355857D01*
X113574857Y-106241571D01*
X114774857Y-104413000D02*
X113574857Y-104413000D01*
X114432000Y-104013000D01*
X113574857Y-103613000D01*
X114774857Y-103613000D01*
X114660571Y-102355857D02*
X114717714Y-102413000D01*
X114774857Y-102584428D01*
X114774857Y-102698714D01*
X114717714Y-102870142D01*
X114603428Y-102984428D01*
X114489142Y-103041571D01*
X114260571Y-103098714D01*
X114089142Y-103098714D01*
X113860571Y-103041571D01*
X113746285Y-102984428D01*
X113632000Y-102870142D01*
X113574857Y-102698714D01*
X113574857Y-102584428D01*
X113632000Y-102413000D01*
X113689142Y-102355857D01*
X113574857Y-101327285D02*
X113574857Y-101555857D01*
X113632000Y-101670142D01*
X113689142Y-101727285D01*
X113860571Y-101841571D01*
X114089142Y-101898714D01*
X114546285Y-101898714D01*
X114660571Y-101841571D01*
X114717714Y-101784428D01*
X114774857Y-101670142D01*
X114774857Y-101441571D01*
X114717714Y-101327285D01*
X114660571Y-101270142D01*
X114546285Y-101213000D01*
X114260571Y-101213000D01*
X114146285Y-101270142D01*
X114089142Y-101327285D01*
X114032000Y-101441571D01*
X114032000Y-101670142D01*
X114089142Y-101784428D01*
X114146285Y-101841571D01*
X114260571Y-101898714D01*
X114089142Y-100527285D02*
X114032000Y-100641571D01*
X113974857Y-100698714D01*
X113860571Y-100755857D01*
X113803428Y-100755857D01*
X113689142Y-100698714D01*
X113632000Y-100641571D01*
X113574857Y-100527285D01*
X113574857Y-100298714D01*
X113632000Y-100184428D01*
X113689142Y-100127285D01*
X113803428Y-100070142D01*
X113860571Y-100070142D01*
X113974857Y-100127285D01*
X114032000Y-100184428D01*
X114089142Y-100298714D01*
X114089142Y-100527285D01*
X114146285Y-100641571D01*
X114203428Y-100698714D01*
X114317714Y-100755857D01*
X114546285Y-100755857D01*
X114660571Y-100698714D01*
X114717714Y-100641571D01*
X114774857Y-100527285D01*
X114774857Y-100298714D01*
X114717714Y-100184428D01*
X114660571Y-100127285D01*
X114546285Y-100070142D01*
X114317714Y-100070142D01*
X114203428Y-100127285D01*
X114146285Y-100184428D01*
X114089142Y-100298714D01*
X113974857Y-99041571D02*
X114774857Y-99041571D01*
X113517714Y-99327285D02*
X114374857Y-99613000D01*
X114374857Y-98870142D01*
X113574857Y-97841571D02*
X113574857Y-98413000D01*
X114146285Y-98470142D01*
X114089142Y-98413000D01*
X114032000Y-98298714D01*
X114032000Y-98013000D01*
X114089142Y-97898714D01*
X114146285Y-97841571D01*
X114260571Y-97784428D01*
X114546285Y-97784428D01*
X114660571Y-97841571D01*
X114717714Y-97898714D01*
X114774857Y-98013000D01*
X114774857Y-98298714D01*
X114717714Y-98413000D01*
X114660571Y-98470142D01*
X115674857Y-109870142D02*
X116874857Y-109470142D01*
X115674857Y-109070142D01*
X116874857Y-108670142D02*
X115674857Y-108670142D01*
X116874857Y-108098714D02*
X115674857Y-108098714D01*
X115674857Y-107813000D01*
X115732000Y-107641571D01*
X115846285Y-107527285D01*
X115960571Y-107470142D01*
X116189142Y-107413000D01*
X116360571Y-107413000D01*
X116589142Y-107470142D01*
X116703428Y-107527285D01*
X116817714Y-107641571D01*
X116874857Y-107813000D01*
X116874857Y-108098714D01*
X116246285Y-106898714D02*
X116246285Y-106498714D01*
X116874857Y-106327285D02*
X116874857Y-106898714D01*
X115674857Y-106898714D01*
X115674857Y-106327285D01*
X115674857Y-105584428D02*
X115674857Y-105355857D01*
X115732000Y-105241571D01*
X115846285Y-105127285D01*
X116074857Y-105070142D01*
X116474857Y-105070142D01*
X116703428Y-105127285D01*
X116817714Y-105241571D01*
X116874857Y-105355857D01*
X116874857Y-105584428D01*
X116817714Y-105698714D01*
X116703428Y-105813000D01*
X116474857Y-105870142D01*
X116074857Y-105870142D01*
X115846285Y-105813000D01*
X115732000Y-105698714D01*
X115674857Y-105584428D01*
X116246285Y-103241571D02*
X116303428Y-103070142D01*
X116360571Y-103013000D01*
X116474857Y-102955857D01*
X116646285Y-102955857D01*
X116760571Y-103013000D01*
X116817714Y-103070142D01*
X116874857Y-103184428D01*
X116874857Y-103641571D01*
X115674857Y-103641571D01*
X115674857Y-103241571D01*
X115732000Y-103127285D01*
X115789142Y-103070142D01*
X115903428Y-103013000D01*
X116017714Y-103013000D01*
X116132000Y-103070142D01*
X116189142Y-103127285D01*
X116246285Y-103241571D01*
X116246285Y-103641571D01*
X115674857Y-102213000D02*
X115674857Y-101984428D01*
X115732000Y-101870142D01*
X115846285Y-101755857D01*
X116074857Y-101698714D01*
X116474857Y-101698714D01*
X116703428Y-101755857D01*
X116817714Y-101870142D01*
X116874857Y-101984428D01*
X116874857Y-102213000D01*
X116817714Y-102327285D01*
X116703428Y-102441571D01*
X116474857Y-102498714D01*
X116074857Y-102498714D01*
X115846285Y-102441571D01*
X115732000Y-102327285D01*
X115674857Y-102213000D01*
X116532000Y-101241571D02*
X116532000Y-100670142D01*
X116874857Y-101355857D02*
X115674857Y-100955857D01*
X116874857Y-100555857D01*
X116874857Y-99470142D02*
X116303428Y-99870142D01*
X116874857Y-100155857D02*
X115674857Y-100155857D01*
X115674857Y-99698714D01*
X115732000Y-99584428D01*
X115789142Y-99527285D01*
X115903428Y-99470142D01*
X116074857Y-99470142D01*
X116189142Y-99527285D01*
X116246285Y-99584428D01*
X116303428Y-99698714D01*
X116303428Y-100155857D01*
X116874857Y-98955857D02*
X115674857Y-98955857D01*
X115674857Y-98670142D01*
X115732000Y-98498714D01*
X115846285Y-98384428D01*
X115960571Y-98327285D01*
X116189142Y-98270142D01*
X116360571Y-98270142D01*
X116589142Y-98327285D01*
X116703428Y-98384428D01*
X116817714Y-98498714D01*
X116874857Y-98670142D01*
X116874857Y-98955857D01*
X118974857Y-105270142D02*
X118403428Y-105670142D01*
X118974857Y-105955857D02*
X117774857Y-105955857D01*
X117774857Y-105498714D01*
X117832000Y-105384428D01*
X117889142Y-105327285D01*
X118003428Y-105270142D01*
X118174857Y-105270142D01*
X118289142Y-105327285D01*
X118346285Y-105384428D01*
X118403428Y-105498714D01*
X118403428Y-105955857D01*
X118346285Y-104755857D02*
X118346285Y-104355857D01*
X118974857Y-104184428D02*
X118974857Y-104755857D01*
X117774857Y-104755857D01*
X117774857Y-104184428D01*
X117774857Y-103841571D02*
X118974857Y-103441571D01*
X117774857Y-103041571D01*
X117889142Y-102698714D02*
X117832000Y-102641571D01*
X117774857Y-102527285D01*
X117774857Y-102241571D01*
X117832000Y-102127285D01*
X117889142Y-102070142D01*
X118003428Y-102013000D01*
X118117714Y-102013000D01*
X118289142Y-102070142D01*
X118974857Y-102755857D01*
X118974857Y-102013000D01*
D11*
%TO.C,U4*%
X83185000Y-47615000D02*
X85135000Y-47615000D01*
X83185000Y-47615000D02*
X81235000Y-47615000D01*
X83185000Y-38745000D02*
X85135000Y-38745000D01*
X83185000Y-38745000D02*
X79735000Y-38745000D01*
%TO.C,J4*%
X77150000Y-23830000D02*
X77150000Y-21170000D01*
X56770000Y-23830000D02*
X77150000Y-23830000D01*
X56770000Y-21170000D02*
X77150000Y-21170000D01*
X56770000Y-23830000D02*
X56770000Y-21170000D01*
X55500000Y-23830000D02*
X54170000Y-23830000D01*
X54170000Y-23830000D02*
X54170000Y-22500000D01*
%TO.C,U17*%
X94750000Y-47560000D02*
X96700000Y-47560000D01*
X94750000Y-47560000D02*
X92800000Y-47560000D01*
X94750000Y-37440000D02*
X96700000Y-37440000D01*
X94750000Y-37440000D02*
X91300000Y-37440000D01*
%TO.C,Q3*%
X46470000Y-34850000D02*
X50070000Y-34850000D01*
X50108478Y-34838478D02*
G75*
G03*
X48270000Y-30400000I-1838478J1838478D01*
G01*
X46431522Y-34838478D02*
G75*
G02*
X48270000Y-30400000I1838478J1838478D01*
G01*
%TO.C,J3*%
X50650000Y-20000000D02*
X50650000Y-30000000D01*
X40650000Y-20000000D02*
X40650000Y-30000000D01*
X50650000Y-30000000D02*
X40650000Y-30000000D01*
X50650000Y-20000000D02*
X40650000Y-20000000D01*
%TO.C,U14*%
X54560000Y-35000000D02*
X52745000Y-35000000D01*
X54560000Y-34765000D02*
X54560000Y-35000000D01*
X58420000Y-34765000D02*
X54560000Y-34765000D01*
X62280000Y-34765000D02*
X62280000Y-35000000D01*
X58420000Y-34765000D02*
X62280000Y-34765000D01*
X54560000Y-47785000D02*
X54560000Y-47550000D01*
X58420000Y-47785000D02*
X54560000Y-47785000D01*
X62280000Y-47785000D02*
X62280000Y-47550000D01*
X58420000Y-47785000D02*
X62280000Y-47785000D01*
%TO.C,U13*%
X104215000Y-87045000D02*
X104215000Y-88860000D01*
X103980000Y-87045000D02*
X104215000Y-87045000D01*
X103980000Y-83185000D02*
X103980000Y-87045000D01*
X103980000Y-79325000D02*
X104215000Y-79325000D01*
X103980000Y-83185000D02*
X103980000Y-79325000D01*
X117000000Y-87045000D02*
X116765000Y-87045000D01*
X117000000Y-83185000D02*
X117000000Y-87045000D01*
X117000000Y-79325000D02*
X116765000Y-79325000D01*
X117000000Y-83185000D02*
X117000000Y-79325000D01*
%TO.C,U12*%
X53136000Y-65965000D02*
X54951000Y-65965000D01*
X53136000Y-66200000D02*
X53136000Y-65965000D01*
X49276000Y-66200000D02*
X53136000Y-66200000D01*
X45416000Y-66200000D02*
X45416000Y-65965000D01*
X49276000Y-66200000D02*
X45416000Y-66200000D01*
X53136000Y-53180000D02*
X53136000Y-53415000D01*
X49276000Y-53180000D02*
X53136000Y-53180000D01*
X45416000Y-53180000D02*
X45416000Y-53415000D01*
X49276000Y-53180000D02*
X45416000Y-53180000D01*
%TO.C,U7*%
X102945000Y-44500000D02*
X102945000Y-46315000D01*
X102710000Y-44500000D02*
X102945000Y-44500000D01*
X102710000Y-40640000D02*
X102710000Y-44500000D01*
X102710000Y-36780000D02*
X102945000Y-36780000D01*
X102710000Y-40640000D02*
X102710000Y-36780000D01*
X115730000Y-44500000D02*
X115495000Y-44500000D01*
X115730000Y-40640000D02*
X115730000Y-44500000D01*
X115730000Y-36780000D02*
X115495000Y-36780000D01*
X115730000Y-40640000D02*
X115730000Y-36780000D01*
%TO.C,U5*%
X71755000Y-34435000D02*
X75205000Y-34435000D01*
X71755000Y-34435000D02*
X69805000Y-34435000D01*
X71755000Y-25565000D02*
X73705000Y-25565000D01*
X71755000Y-25565000D02*
X69805000Y-25565000D01*
%TO.C,U3*%
X38725000Y-45085000D02*
X38725000Y-41635000D01*
X38725000Y-45085000D02*
X38725000Y-47035000D01*
X29855000Y-45085000D02*
X29855000Y-43135000D01*
X29855000Y-45085000D02*
X29855000Y-47035000D01*
%TO.C,U2*%
X71755000Y-38860000D02*
X68305000Y-38860000D01*
X71755000Y-38860000D02*
X73705000Y-38860000D01*
X71755000Y-47730000D02*
X69805000Y-47730000D01*
X71755000Y-47730000D02*
X73705000Y-47730000D01*
%TO.C,U1*%
X45720000Y-39380000D02*
X42270000Y-39380000D01*
X45720000Y-39380000D02*
X47670000Y-39380000D01*
X45720000Y-48250000D02*
X43770000Y-48250000D01*
X45720000Y-48250000D02*
X47670000Y-48250000D01*
%TO.C,U10*%
X83185000Y-33000000D02*
X86635000Y-33000000D01*
X83185000Y-33000000D02*
X81235000Y-33000000D01*
X83185000Y-22880000D02*
X85135000Y-22880000D01*
X83185000Y-22880000D02*
X81235000Y-22880000D01*
%TO.C,U16*%
X94615000Y-33000000D02*
X98065000Y-33000000D01*
X94615000Y-33000000D02*
X92665000Y-33000000D01*
X94615000Y-22880000D02*
X96565000Y-22880000D01*
X94615000Y-22880000D02*
X92665000Y-22880000D01*
%TO.C,X1*%
X108745000Y-29380000D02*
X109345000Y-29380000D01*
X108745000Y-26500000D02*
X108745000Y-29380000D01*
X103345000Y-31640000D02*
X103345000Y-31580000D01*
X108745000Y-31640000D02*
X103345000Y-31640000D01*
X108745000Y-31580000D02*
X108745000Y-31640000D01*
X109345000Y-31580000D02*
X108745000Y-31580000D01*
X103345000Y-29380000D02*
X103345000Y-26500000D01*
X108745000Y-24240000D02*
X108745000Y-24300000D01*
X103345000Y-24240000D02*
X108745000Y-24240000D01*
X103345000Y-24300000D02*
X103345000Y-24240000D01*
%TO.C,Q1*%
X44280000Y-30650000D02*
X40680000Y-30650000D01*
X40641522Y-30661522D02*
G75*
G03*
X42480000Y-35100000I1838478J-1838478D01*
G01*
X44318478Y-30661522D02*
G75*
G02*
X42480000Y-35100000I-1838478J-1838478D01*
G01*
%TO.C,U11*%
X35195000Y-51375000D02*
X33545000Y-51375000D01*
X33545000Y-51375000D02*
X33545000Y-81975000D01*
X33545000Y-81975000D02*
X38845000Y-81975000D01*
X38845000Y-81975000D02*
X38845000Y-51375000D01*
X38845000Y-51375000D02*
X37195000Y-51375000D01*
X31055000Y-51315000D02*
X31055000Y-82035000D01*
X31055000Y-82035000D02*
X41335000Y-82035000D01*
X41335000Y-82035000D02*
X41335000Y-51315000D01*
X41335000Y-51315000D02*
X31055000Y-51315000D01*
X37195000Y-51375000D02*
G75*
G02*
X35195000Y-51375000I-1000000J0D01*
G01*
%TO.C,U15*%
X57598000Y-61452000D02*
X57598000Y-66912000D01*
X57598000Y-66912000D02*
X118678000Y-66912000D01*
X118678000Y-66912000D02*
X118678000Y-53992000D01*
X118678000Y-53992000D02*
X57598000Y-53992000D01*
X57598000Y-53992000D02*
X57598000Y-59452000D01*
X57538000Y-69402000D02*
X118738000Y-69402000D01*
X118738000Y-69402000D02*
X118738000Y-51502000D01*
X118738000Y-51502000D02*
X57538000Y-51502000D01*
X57538000Y-51502000D02*
X57538000Y-69402000D01*
X57598000Y-59452000D02*
G75*
G02*
X57598000Y-61452000I0J-1000000D01*
G01*
%TO.C,U9*%
X48835000Y-87580700D02*
X48835000Y-93040700D01*
X48835000Y-93040700D02*
X99755000Y-93040700D01*
X99755000Y-93040700D02*
X99755000Y-80120700D01*
X99755000Y-80120700D02*
X48835000Y-80120700D01*
X48835000Y-80120700D02*
X48835000Y-85580700D01*
X48775000Y-95530700D02*
X99815000Y-95530700D01*
X99815000Y-95530700D02*
X99815000Y-77630700D01*
X99815000Y-77630700D02*
X48775000Y-77630700D01*
X48775000Y-77630700D02*
X48775000Y-95530700D01*
X48835000Y-85580700D02*
G75*
G02*
X48835000Y-87580700I0J-1000000D01*
G01*
%TO.C,U8*%
X48835000Y-107680000D02*
X48835000Y-113140000D01*
X48835000Y-113140000D02*
X109915000Y-113140000D01*
X109915000Y-113140000D02*
X109915000Y-100220000D01*
X109915000Y-100220000D02*
X48835000Y-100220000D01*
X48835000Y-100220000D02*
X48835000Y-105680000D01*
X48775000Y-115630000D02*
X109975000Y-115630000D01*
X109975000Y-115630000D02*
X109975000Y-97730000D01*
X109975000Y-97730000D02*
X48775000Y-97730000D01*
X48775000Y-97730000D02*
X48775000Y-115630000D01*
X48835000Y-105680000D02*
G75*
G02*
X48835000Y-107680000I0J-1000000D01*
G01*
%TO.C,U6*%
X35195000Y-85030000D02*
X33545000Y-85030000D01*
X33545000Y-85030000D02*
X33545000Y-115630000D01*
X33545000Y-115630000D02*
X38845000Y-115630000D01*
X38845000Y-115630000D02*
X38845000Y-85030000D01*
X38845000Y-85030000D02*
X37195000Y-85030000D01*
X31055000Y-84970000D02*
X31055000Y-115690000D01*
X31055000Y-115690000D02*
X41335000Y-115690000D01*
X41335000Y-115690000D02*
X41335000Y-84970000D01*
X41335000Y-84970000D02*
X31055000Y-84970000D01*
X37195000Y-85030000D02*
G75*
G02*
X35195000Y-85030000I-1000000J0D01*
G01*
%TO.C,C20*%
X37819698Y-38275000D02*
X37819698Y-37475000D01*
X38219698Y-37875000D02*
X37419698Y-37875000D01*
X29729000Y-36093000D02*
X29729000Y-35027000D01*
X29769000Y-36328000D02*
X29769000Y-34792000D01*
X29809000Y-36508000D02*
X29809000Y-34612000D01*
X29849000Y-36658000D02*
X29849000Y-34462000D01*
X29889000Y-36789000D02*
X29889000Y-34331000D01*
X29929000Y-36906000D02*
X29929000Y-34214000D01*
X29969000Y-37013000D02*
X29969000Y-34107000D01*
X30009000Y-37112000D02*
X30009000Y-34008000D01*
X30049000Y-37205000D02*
X30049000Y-33915000D01*
X30089000Y-37291000D02*
X30089000Y-33829000D01*
X30129000Y-37373000D02*
X30129000Y-33747000D01*
X30169000Y-37450000D02*
X30169000Y-33670000D01*
X30209000Y-37524000D02*
X30209000Y-33596000D01*
X30249000Y-37594000D02*
X30249000Y-33526000D01*
X30289000Y-37662000D02*
X30289000Y-33458000D01*
X30329000Y-37726000D02*
X30329000Y-33394000D01*
X30369000Y-37788000D02*
X30369000Y-33332000D01*
X30409000Y-37847000D02*
X30409000Y-33273000D01*
X30449000Y-37905000D02*
X30449000Y-33215000D01*
X30489000Y-37960000D02*
X30489000Y-33160000D01*
X30529000Y-38014000D02*
X30529000Y-33106000D01*
X30569000Y-38065000D02*
X30569000Y-33055000D01*
X30609000Y-38116000D02*
X30609000Y-33004000D01*
X30649000Y-38164000D02*
X30649000Y-32956000D01*
X30689000Y-38211000D02*
X30689000Y-32909000D01*
X30729000Y-38257000D02*
X30729000Y-32863000D01*
X30769000Y-38301000D02*
X30769000Y-32819000D01*
X30809000Y-38344000D02*
X30809000Y-32776000D01*
X30849000Y-38386000D02*
X30849000Y-32734000D01*
X30889000Y-38427000D02*
X30889000Y-32693000D01*
X30929000Y-38467000D02*
X30929000Y-32653000D01*
X30969000Y-38505000D02*
X30969000Y-32615000D01*
X31009000Y-38543000D02*
X31009000Y-32577000D01*
X31049000Y-34520000D02*
X31049000Y-32541000D01*
X31049000Y-38579000D02*
X31049000Y-36600000D01*
X31089000Y-34520000D02*
X31089000Y-32505000D01*
X31089000Y-38615000D02*
X31089000Y-36600000D01*
X31129000Y-34520000D02*
X31129000Y-32470000D01*
X31129000Y-38650000D02*
X31129000Y-36600000D01*
X31169000Y-34520000D02*
X31169000Y-32436000D01*
X31169000Y-38684000D02*
X31169000Y-36600000D01*
X31209000Y-34520000D02*
X31209000Y-32404000D01*
X31209000Y-38716000D02*
X31209000Y-36600000D01*
X31249000Y-34520000D02*
X31249000Y-32371000D01*
X31249000Y-38749000D02*
X31249000Y-36600000D01*
X31289000Y-34520000D02*
X31289000Y-32340000D01*
X31289000Y-38780000D02*
X31289000Y-36600000D01*
X31329000Y-34520000D02*
X31329000Y-32310000D01*
X31329000Y-38810000D02*
X31329000Y-36600000D01*
X31369000Y-34520000D02*
X31369000Y-32280000D01*
X31369000Y-38840000D02*
X31369000Y-36600000D01*
X31409000Y-34520000D02*
X31409000Y-32251000D01*
X31409000Y-38869000D02*
X31409000Y-36600000D01*
X31449000Y-34520000D02*
X31449000Y-32222000D01*
X31449000Y-38898000D02*
X31449000Y-36600000D01*
X31489000Y-34520000D02*
X31489000Y-32195000D01*
X31489000Y-38925000D02*
X31489000Y-36600000D01*
X31529000Y-34520000D02*
X31529000Y-32168000D01*
X31529000Y-38952000D02*
X31529000Y-36600000D01*
X31569000Y-34520000D02*
X31569000Y-32142000D01*
X31569000Y-38978000D02*
X31569000Y-36600000D01*
X31609000Y-34520000D02*
X31609000Y-32116000D01*
X31609000Y-39004000D02*
X31609000Y-36600000D01*
X31649000Y-34520000D02*
X31649000Y-32091000D01*
X31649000Y-39029000D02*
X31649000Y-36600000D01*
X31689000Y-34520000D02*
X31689000Y-32067000D01*
X31689000Y-39053000D02*
X31689000Y-36600000D01*
X31729000Y-34520000D02*
X31729000Y-32043000D01*
X31729000Y-39077000D02*
X31729000Y-36600000D01*
X31769000Y-34520000D02*
X31769000Y-32020000D01*
X31769000Y-39100000D02*
X31769000Y-36600000D01*
X31809000Y-34520000D02*
X31809000Y-31998000D01*
X31809000Y-39122000D02*
X31809000Y-36600000D01*
X31849000Y-34520000D02*
X31849000Y-31976000D01*
X31849000Y-39144000D02*
X31849000Y-36600000D01*
X31889000Y-34520000D02*
X31889000Y-31954000D01*
X31889000Y-39166000D02*
X31889000Y-36600000D01*
X31929000Y-34520000D02*
X31929000Y-31933000D01*
X31929000Y-39187000D02*
X31929000Y-36600000D01*
X31969000Y-34520000D02*
X31969000Y-31913000D01*
X31969000Y-39207000D02*
X31969000Y-36600000D01*
X32009000Y-34520000D02*
X32009000Y-31894000D01*
X32009000Y-39226000D02*
X32009000Y-36600000D01*
X32049000Y-34520000D02*
X32049000Y-31874000D01*
X32049000Y-39246000D02*
X32049000Y-36600000D01*
X32089000Y-34520000D02*
X32089000Y-31856000D01*
X32089000Y-39264000D02*
X32089000Y-36600000D01*
X32129000Y-34520000D02*
X32129000Y-31838000D01*
X32129000Y-39282000D02*
X32129000Y-36600000D01*
X32169000Y-34520000D02*
X32169000Y-31820000D01*
X32169000Y-39300000D02*
X32169000Y-36600000D01*
X32209000Y-34520000D02*
X32209000Y-31803000D01*
X32209000Y-39317000D02*
X32209000Y-36600000D01*
X32249000Y-34520000D02*
X32249000Y-31786000D01*
X32249000Y-39334000D02*
X32249000Y-36600000D01*
X32289000Y-34520000D02*
X32289000Y-31770000D01*
X32289000Y-39350000D02*
X32289000Y-36600000D01*
X32329000Y-34520000D02*
X32329000Y-31755000D01*
X32329000Y-39365000D02*
X32329000Y-36600000D01*
X32369000Y-34520000D02*
X32369000Y-31739000D01*
X32369000Y-39381000D02*
X32369000Y-36600000D01*
X32409000Y-34520000D02*
X32409000Y-31725000D01*
X32409000Y-39395000D02*
X32409000Y-36600000D01*
X32449000Y-34520000D02*
X32449000Y-31710000D01*
X32449000Y-39410000D02*
X32449000Y-36600000D01*
X32489000Y-34520000D02*
X32489000Y-31697000D01*
X32489000Y-39423000D02*
X32489000Y-36600000D01*
X32529000Y-34520000D02*
X32529000Y-31683000D01*
X32529000Y-39437000D02*
X32529000Y-36600000D01*
X32569000Y-34520000D02*
X32569000Y-31671000D01*
X32569000Y-39449000D02*
X32569000Y-36600000D01*
X32609000Y-34520000D02*
X32609000Y-31658000D01*
X32609000Y-39462000D02*
X32609000Y-36600000D01*
X32649000Y-34520000D02*
X32649000Y-31646000D01*
X32649000Y-39474000D02*
X32649000Y-36600000D01*
X32689000Y-34520000D02*
X32689000Y-31635000D01*
X32689000Y-39485000D02*
X32689000Y-36600000D01*
X32729000Y-34520000D02*
X32729000Y-31624000D01*
X32729000Y-39496000D02*
X32729000Y-36600000D01*
X32769000Y-34520000D02*
X32769000Y-31613000D01*
X32769000Y-39507000D02*
X32769000Y-36600000D01*
X32809000Y-34520000D02*
X32809000Y-31603000D01*
X32809000Y-39517000D02*
X32809000Y-36600000D01*
X32849000Y-34520000D02*
X32849000Y-31593000D01*
X32849000Y-39527000D02*
X32849000Y-36600000D01*
X32889000Y-34520000D02*
X32889000Y-31584000D01*
X32889000Y-39536000D02*
X32889000Y-36600000D01*
X32929000Y-34520000D02*
X32929000Y-31575000D01*
X32929000Y-39545000D02*
X32929000Y-36600000D01*
X32969000Y-34520000D02*
X32969000Y-31566000D01*
X32969000Y-39554000D02*
X32969000Y-36600000D01*
X33009000Y-34520000D02*
X33009000Y-31558000D01*
X33009000Y-39562000D02*
X33009000Y-36600000D01*
X33049000Y-34520000D02*
X33049000Y-31550000D01*
X33049000Y-39570000D02*
X33049000Y-36600000D01*
X33089000Y-34520000D02*
X33089000Y-31543000D01*
X33089000Y-39577000D02*
X33089000Y-36600000D01*
X33130000Y-39584000D02*
X33130000Y-31536000D01*
X33170000Y-39590000D02*
X33170000Y-31530000D01*
X33210000Y-39597000D02*
X33210000Y-31523000D01*
X33250000Y-39602000D02*
X33250000Y-31518000D01*
X33290000Y-39608000D02*
X33290000Y-31512000D01*
X33330000Y-39612000D02*
X33330000Y-31508000D01*
X33370000Y-39617000D02*
X33370000Y-31503000D01*
X33410000Y-39621000D02*
X33410000Y-31499000D01*
X33450000Y-39625000D02*
X33450000Y-31495000D01*
X33490000Y-39628000D02*
X33490000Y-31492000D01*
X33530000Y-39631000D02*
X33530000Y-31489000D01*
X33570000Y-39634000D02*
X33570000Y-31486000D01*
X33610000Y-39636000D02*
X33610000Y-31484000D01*
X33650000Y-39637000D02*
X33650000Y-31483000D01*
X33690000Y-39639000D02*
X33690000Y-31481000D01*
X33730000Y-39640000D02*
X33730000Y-31480000D01*
X33770000Y-39640000D02*
X33770000Y-31480000D01*
X33810000Y-39640000D02*
X33810000Y-31480000D01*
X37930000Y-35560000D02*
G75*
G03*
X37930000Y-35560000I-4120000J0D01*
G01*
%TO.C,C23*%
X37819698Y-28750000D02*
X37819698Y-27950000D01*
X38219698Y-28350000D02*
X37419698Y-28350000D01*
X29729000Y-26568000D02*
X29729000Y-25502000D01*
X29769000Y-26803000D02*
X29769000Y-25267000D01*
X29809000Y-26983000D02*
X29809000Y-25087000D01*
X29849000Y-27133000D02*
X29849000Y-24937000D01*
X29889000Y-27264000D02*
X29889000Y-24806000D01*
X29929000Y-27381000D02*
X29929000Y-24689000D01*
X29969000Y-27488000D02*
X29969000Y-24582000D01*
X30009000Y-27587000D02*
X30009000Y-24483000D01*
X30049000Y-27680000D02*
X30049000Y-24390000D01*
X30089000Y-27766000D02*
X30089000Y-24304000D01*
X30129000Y-27848000D02*
X30129000Y-24222000D01*
X30169000Y-27925000D02*
X30169000Y-24145000D01*
X30209000Y-27999000D02*
X30209000Y-24071000D01*
X30249000Y-28069000D02*
X30249000Y-24001000D01*
X30289000Y-28137000D02*
X30289000Y-23933000D01*
X30329000Y-28201000D02*
X30329000Y-23869000D01*
X30369000Y-28263000D02*
X30369000Y-23807000D01*
X30409000Y-28322000D02*
X30409000Y-23748000D01*
X30449000Y-28380000D02*
X30449000Y-23690000D01*
X30489000Y-28435000D02*
X30489000Y-23635000D01*
X30529000Y-28489000D02*
X30529000Y-23581000D01*
X30569000Y-28540000D02*
X30569000Y-23530000D01*
X30609000Y-28591000D02*
X30609000Y-23479000D01*
X30649000Y-28639000D02*
X30649000Y-23431000D01*
X30689000Y-28686000D02*
X30689000Y-23384000D01*
X30729000Y-28732000D02*
X30729000Y-23338000D01*
X30769000Y-28776000D02*
X30769000Y-23294000D01*
X30809000Y-28819000D02*
X30809000Y-23251000D01*
X30849000Y-28861000D02*
X30849000Y-23209000D01*
X30889000Y-28902000D02*
X30889000Y-23168000D01*
X30929000Y-28942000D02*
X30929000Y-23128000D01*
X30969000Y-28980000D02*
X30969000Y-23090000D01*
X31009000Y-29018000D02*
X31009000Y-23052000D01*
X31049000Y-24995000D02*
X31049000Y-23016000D01*
X31049000Y-29054000D02*
X31049000Y-27075000D01*
X31089000Y-24995000D02*
X31089000Y-22980000D01*
X31089000Y-29090000D02*
X31089000Y-27075000D01*
X31129000Y-24995000D02*
X31129000Y-22945000D01*
X31129000Y-29125000D02*
X31129000Y-27075000D01*
X31169000Y-24995000D02*
X31169000Y-22911000D01*
X31169000Y-29159000D02*
X31169000Y-27075000D01*
X31209000Y-24995000D02*
X31209000Y-22879000D01*
X31209000Y-29191000D02*
X31209000Y-27075000D01*
X31249000Y-24995000D02*
X31249000Y-22846000D01*
X31249000Y-29224000D02*
X31249000Y-27075000D01*
X31289000Y-24995000D02*
X31289000Y-22815000D01*
X31289000Y-29255000D02*
X31289000Y-27075000D01*
X31329000Y-24995000D02*
X31329000Y-22785000D01*
X31329000Y-29285000D02*
X31329000Y-27075000D01*
X31369000Y-24995000D02*
X31369000Y-22755000D01*
X31369000Y-29315000D02*
X31369000Y-27075000D01*
X31409000Y-24995000D02*
X31409000Y-22726000D01*
X31409000Y-29344000D02*
X31409000Y-27075000D01*
X31449000Y-24995000D02*
X31449000Y-22697000D01*
X31449000Y-29373000D02*
X31449000Y-27075000D01*
X31489000Y-24995000D02*
X31489000Y-22670000D01*
X31489000Y-29400000D02*
X31489000Y-27075000D01*
X31529000Y-24995000D02*
X31529000Y-22643000D01*
X31529000Y-29427000D02*
X31529000Y-27075000D01*
X31569000Y-24995000D02*
X31569000Y-22617000D01*
X31569000Y-29453000D02*
X31569000Y-27075000D01*
X31609000Y-24995000D02*
X31609000Y-22591000D01*
X31609000Y-29479000D02*
X31609000Y-27075000D01*
X31649000Y-24995000D02*
X31649000Y-22566000D01*
X31649000Y-29504000D02*
X31649000Y-27075000D01*
X31689000Y-24995000D02*
X31689000Y-22542000D01*
X31689000Y-29528000D02*
X31689000Y-27075000D01*
X31729000Y-24995000D02*
X31729000Y-22518000D01*
X31729000Y-29552000D02*
X31729000Y-27075000D01*
X31769000Y-24995000D02*
X31769000Y-22495000D01*
X31769000Y-29575000D02*
X31769000Y-27075000D01*
X31809000Y-24995000D02*
X31809000Y-22473000D01*
X31809000Y-29597000D02*
X31809000Y-27075000D01*
X31849000Y-24995000D02*
X31849000Y-22451000D01*
X31849000Y-29619000D02*
X31849000Y-27075000D01*
X31889000Y-24995000D02*
X31889000Y-22429000D01*
X31889000Y-29641000D02*
X31889000Y-27075000D01*
X31929000Y-24995000D02*
X31929000Y-22408000D01*
X31929000Y-29662000D02*
X31929000Y-27075000D01*
X31969000Y-24995000D02*
X31969000Y-22388000D01*
X31969000Y-29682000D02*
X31969000Y-27075000D01*
X32009000Y-24995000D02*
X32009000Y-22369000D01*
X32009000Y-29701000D02*
X32009000Y-27075000D01*
X32049000Y-24995000D02*
X32049000Y-22349000D01*
X32049000Y-29721000D02*
X32049000Y-27075000D01*
X32089000Y-24995000D02*
X32089000Y-22331000D01*
X32089000Y-29739000D02*
X32089000Y-27075000D01*
X32129000Y-24995000D02*
X32129000Y-22313000D01*
X32129000Y-29757000D02*
X32129000Y-27075000D01*
X32169000Y-24995000D02*
X32169000Y-22295000D01*
X32169000Y-29775000D02*
X32169000Y-27075000D01*
X32209000Y-24995000D02*
X32209000Y-22278000D01*
X32209000Y-29792000D02*
X32209000Y-27075000D01*
X32249000Y-24995000D02*
X32249000Y-22261000D01*
X32249000Y-29809000D02*
X32249000Y-27075000D01*
X32289000Y-24995000D02*
X32289000Y-22245000D01*
X32289000Y-29825000D02*
X32289000Y-27075000D01*
X32329000Y-24995000D02*
X32329000Y-22230000D01*
X32329000Y-29840000D02*
X32329000Y-27075000D01*
X32369000Y-24995000D02*
X32369000Y-22214000D01*
X32369000Y-29856000D02*
X32369000Y-27075000D01*
X32409000Y-24995000D02*
X32409000Y-22200000D01*
X32409000Y-29870000D02*
X32409000Y-27075000D01*
X32449000Y-24995000D02*
X32449000Y-22185000D01*
X32449000Y-29885000D02*
X32449000Y-27075000D01*
X32489000Y-24995000D02*
X32489000Y-22172000D01*
X32489000Y-29898000D02*
X32489000Y-27075000D01*
X32529000Y-24995000D02*
X32529000Y-22158000D01*
X32529000Y-29912000D02*
X32529000Y-27075000D01*
X32569000Y-24995000D02*
X32569000Y-22146000D01*
X32569000Y-29924000D02*
X32569000Y-27075000D01*
X32609000Y-24995000D02*
X32609000Y-22133000D01*
X32609000Y-29937000D02*
X32609000Y-27075000D01*
X32649000Y-24995000D02*
X32649000Y-22121000D01*
X32649000Y-29949000D02*
X32649000Y-27075000D01*
X32689000Y-24995000D02*
X32689000Y-22110000D01*
X32689000Y-29960000D02*
X32689000Y-27075000D01*
X32729000Y-24995000D02*
X32729000Y-22099000D01*
X32729000Y-29971000D02*
X32729000Y-27075000D01*
X32769000Y-24995000D02*
X32769000Y-22088000D01*
X32769000Y-29982000D02*
X32769000Y-27075000D01*
X32809000Y-24995000D02*
X32809000Y-22078000D01*
X32809000Y-29992000D02*
X32809000Y-27075000D01*
X32849000Y-24995000D02*
X32849000Y-22068000D01*
X32849000Y-30002000D02*
X32849000Y-27075000D01*
X32889000Y-24995000D02*
X32889000Y-22059000D01*
X32889000Y-30011000D02*
X32889000Y-27075000D01*
X32929000Y-24995000D02*
X32929000Y-22050000D01*
X32929000Y-30020000D02*
X32929000Y-27075000D01*
X32969000Y-24995000D02*
X32969000Y-22041000D01*
X32969000Y-30029000D02*
X32969000Y-27075000D01*
X33009000Y-24995000D02*
X33009000Y-22033000D01*
X33009000Y-30037000D02*
X33009000Y-27075000D01*
X33049000Y-24995000D02*
X33049000Y-22025000D01*
X33049000Y-30045000D02*
X33049000Y-27075000D01*
X33089000Y-24995000D02*
X33089000Y-22018000D01*
X33089000Y-30052000D02*
X33089000Y-27075000D01*
X33130000Y-30059000D02*
X33130000Y-22011000D01*
X33170000Y-30065000D02*
X33170000Y-22005000D01*
X33210000Y-30072000D02*
X33210000Y-21998000D01*
X33250000Y-30077000D02*
X33250000Y-21993000D01*
X33290000Y-30083000D02*
X33290000Y-21987000D01*
X33330000Y-30087000D02*
X33330000Y-21983000D01*
X33370000Y-30092000D02*
X33370000Y-21978000D01*
X33410000Y-30096000D02*
X33410000Y-21974000D01*
X33450000Y-30100000D02*
X33450000Y-21970000D01*
X33490000Y-30103000D02*
X33490000Y-21967000D01*
X33530000Y-30106000D02*
X33530000Y-21964000D01*
X33570000Y-30109000D02*
X33570000Y-21961000D01*
X33610000Y-30111000D02*
X33610000Y-21959000D01*
X33650000Y-30112000D02*
X33650000Y-21958000D01*
X33690000Y-30114000D02*
X33690000Y-21956000D01*
X33730000Y-30115000D02*
X33730000Y-21955000D01*
X33770000Y-30115000D02*
X33770000Y-21955000D01*
X33810000Y-30115000D02*
X33810000Y-21955000D01*
X37930000Y-26035000D02*
G75*
G03*
X37930000Y-26035000I-4120000J0D01*
G01*
%TO.C,J1*%
X21210000Y-39550000D02*
X26410000Y-39550000D01*
X21210000Y-31870000D02*
X21210000Y-39550000D01*
X26410000Y-29270000D02*
X26410000Y-39550000D01*
X21210000Y-31870000D02*
X23810000Y-31870000D01*
X23810000Y-31870000D02*
X23810000Y-29270000D01*
X23810000Y-29270000D02*
X26410000Y-29270000D01*
X21210000Y-30600000D02*
X21210000Y-29270000D01*
X21210000Y-29270000D02*
X22540000Y-29270000D01*
%TO.C,J2*%
X21210000Y-100450000D02*
X22540000Y-100450000D01*
X21210000Y-101780000D02*
X21210000Y-100450000D01*
X23810000Y-100450000D02*
X26410000Y-100450000D01*
X23810000Y-103050000D02*
X23810000Y-100450000D01*
X21210000Y-103050000D02*
X23810000Y-103050000D01*
X26410000Y-100450000D02*
X26410000Y-110730000D01*
X21210000Y-103050000D02*
X21210000Y-110730000D01*
X21210000Y-110730000D02*
X26410000Y-110730000D01*
%TO.C,J5*%
X21210000Y-95460000D02*
X26410000Y-95460000D01*
X21210000Y-47140000D02*
X21210000Y-95460000D01*
X26410000Y-44540000D02*
X26410000Y-95460000D01*
X21210000Y-47140000D02*
X23810000Y-47140000D01*
X23810000Y-47140000D02*
X23810000Y-44540000D01*
X23810000Y-44540000D02*
X26410000Y-44540000D01*
X21210000Y-45870000D02*
X21210000Y-44540000D01*
X21210000Y-44540000D02*
X22540000Y-44540000D01*
%TO.C,U4*%
D12*
X82423095Y-37352380D02*
X82423095Y-38161904D01*
X82470714Y-38257142D01*
X82518333Y-38304761D01*
X82613571Y-38352380D01*
X82804047Y-38352380D01*
X82899285Y-38304761D01*
X82946904Y-38257142D01*
X82994523Y-38161904D01*
X82994523Y-37352380D01*
X83899285Y-37685714D02*
X83899285Y-38352380D01*
X83661190Y-37304761D02*
X83423095Y-38019047D01*
X84042142Y-38019047D01*
%TO.C,J4*%
X52622380Y-22833333D02*
X53336666Y-22833333D01*
X53479523Y-22880952D01*
X53574761Y-22976190D01*
X53622380Y-23119047D01*
X53622380Y-23214285D01*
X52955714Y-21928571D02*
X53622380Y-21928571D01*
X52574761Y-22166666D02*
X53289047Y-22404761D01*
X53289047Y-21785714D01*
%TO.C,U17*%
X93511904Y-36052380D02*
X93511904Y-36861904D01*
X93559523Y-36957142D01*
X93607142Y-37004761D01*
X93702380Y-37052380D01*
X93892857Y-37052380D01*
X93988095Y-37004761D01*
X94035714Y-36957142D01*
X94083333Y-36861904D01*
X94083333Y-36052380D01*
X95083333Y-37052380D02*
X94511904Y-37052380D01*
X94797619Y-37052380D02*
X94797619Y-36052380D01*
X94702380Y-36195238D01*
X94607142Y-36290476D01*
X94511904Y-36338095D01*
X95416666Y-36052380D02*
X96083333Y-36052380D01*
X95654761Y-37052380D01*
%TO.C,Q3*%
X48174761Y-29987619D02*
X48079523Y-29940000D01*
X47984285Y-29844761D01*
X47841428Y-29701904D01*
X47746190Y-29654285D01*
X47650952Y-29654285D01*
X47698571Y-29892380D02*
X47603333Y-29844761D01*
X47508095Y-29749523D01*
X47460476Y-29559047D01*
X47460476Y-29225714D01*
X47508095Y-29035238D01*
X47603333Y-28940000D01*
X47698571Y-28892380D01*
X47889047Y-28892380D01*
X47984285Y-28940000D01*
X48079523Y-29035238D01*
X48127142Y-29225714D01*
X48127142Y-29559047D01*
X48079523Y-29749523D01*
X47984285Y-29844761D01*
X47889047Y-29892380D01*
X47698571Y-29892380D01*
X48460476Y-28892380D02*
X49079523Y-28892380D01*
X48746190Y-29273333D01*
X48889047Y-29273333D01*
X48984285Y-29320952D01*
X49031904Y-29368571D01*
X49079523Y-29463809D01*
X49079523Y-29701904D01*
X49031904Y-29797142D01*
X48984285Y-29844761D01*
X48889047Y-29892380D01*
X48603333Y-29892380D01*
X48508095Y-29844761D01*
X48460476Y-29797142D01*
%TO.C,J3*%
X45366666Y-20802380D02*
X45366666Y-21516666D01*
X45319047Y-21659523D01*
X45223809Y-21754761D01*
X45080952Y-21802380D01*
X44985714Y-21802380D01*
X45747619Y-20802380D02*
X46366666Y-20802380D01*
X46033333Y-21183333D01*
X46176190Y-21183333D01*
X46271428Y-21230952D01*
X46319047Y-21278571D01*
X46366666Y-21373809D01*
X46366666Y-21611904D01*
X46319047Y-21707142D01*
X46271428Y-21754761D01*
X46176190Y-21802380D01*
X45890476Y-21802380D01*
X45795238Y-21754761D01*
X45747619Y-21707142D01*
%TO.C,U14*%
X57181904Y-33377380D02*
X57181904Y-34186904D01*
X57229523Y-34282142D01*
X57277142Y-34329761D01*
X57372380Y-34377380D01*
X57562857Y-34377380D01*
X57658095Y-34329761D01*
X57705714Y-34282142D01*
X57753333Y-34186904D01*
X57753333Y-33377380D01*
X58753333Y-34377380D02*
X58181904Y-34377380D01*
X58467619Y-34377380D02*
X58467619Y-33377380D01*
X58372380Y-33520238D01*
X58277142Y-33615476D01*
X58181904Y-33663095D01*
X59610476Y-33710714D02*
X59610476Y-34377380D01*
X59372380Y-33329761D02*
X59134285Y-34044047D01*
X59753333Y-34044047D01*
%TO.C,U13*%
X102592380Y-84423095D02*
X103401904Y-84423095D01*
X103497142Y-84375476D01*
X103544761Y-84327857D01*
X103592380Y-84232619D01*
X103592380Y-84042142D01*
X103544761Y-83946904D01*
X103497142Y-83899285D01*
X103401904Y-83851666D01*
X102592380Y-83851666D01*
X103592380Y-82851666D02*
X103592380Y-83423095D01*
X103592380Y-83137380D02*
X102592380Y-83137380D01*
X102735238Y-83232619D01*
X102830476Y-83327857D01*
X102878095Y-83423095D01*
X102592380Y-82518333D02*
X102592380Y-81899285D01*
X102973333Y-82232619D01*
X102973333Y-82089761D01*
X103020952Y-81994523D01*
X103068571Y-81946904D01*
X103163809Y-81899285D01*
X103401904Y-81899285D01*
X103497142Y-81946904D01*
X103544761Y-81994523D01*
X103592380Y-82089761D01*
X103592380Y-82375476D01*
X103544761Y-82470714D01*
X103497142Y-82518333D01*
%TO.C,U12*%
X48037904Y-66492380D02*
X48037904Y-67301904D01*
X48085523Y-67397142D01*
X48133142Y-67444761D01*
X48228380Y-67492380D01*
X48418857Y-67492380D01*
X48514095Y-67444761D01*
X48561714Y-67397142D01*
X48609333Y-67301904D01*
X48609333Y-66492380D01*
X49609333Y-67492380D02*
X49037904Y-67492380D01*
X49323619Y-67492380D02*
X49323619Y-66492380D01*
X49228380Y-66635238D01*
X49133142Y-66730476D01*
X49037904Y-66778095D01*
X49990285Y-66587619D02*
X50037904Y-66540000D01*
X50133142Y-66492380D01*
X50371238Y-66492380D01*
X50466476Y-66540000D01*
X50514095Y-66587619D01*
X50561714Y-66682857D01*
X50561714Y-66778095D01*
X50514095Y-66920952D01*
X49942666Y-67492380D01*
X50561714Y-67492380D01*
%TO.C,U7*%
X101322380Y-41401904D02*
X102131904Y-41401904D01*
X102227142Y-41354285D01*
X102274761Y-41306666D01*
X102322380Y-41211428D01*
X102322380Y-41020952D01*
X102274761Y-40925714D01*
X102227142Y-40878095D01*
X102131904Y-40830476D01*
X101322380Y-40830476D01*
X101322380Y-40449523D02*
X101322380Y-39782857D01*
X102322380Y-40211428D01*
%TO.C,U5*%
X70993095Y-34732380D02*
X70993095Y-35541904D01*
X71040714Y-35637142D01*
X71088333Y-35684761D01*
X71183571Y-35732380D01*
X71374047Y-35732380D01*
X71469285Y-35684761D01*
X71516904Y-35637142D01*
X71564523Y-35541904D01*
X71564523Y-34732380D01*
X72516904Y-34732380D02*
X72040714Y-34732380D01*
X71993095Y-35208571D01*
X72040714Y-35160952D01*
X72135952Y-35113333D01*
X72374047Y-35113333D01*
X72469285Y-35160952D01*
X72516904Y-35208571D01*
X72564523Y-35303809D01*
X72564523Y-35541904D01*
X72516904Y-35637142D01*
X72469285Y-35684761D01*
X72374047Y-35732380D01*
X72135952Y-35732380D01*
X72040714Y-35684761D01*
X71993095Y-35637142D01*
%TO.C,U3*%
X39022380Y-45846904D02*
X39831904Y-45846904D01*
X39927142Y-45799285D01*
X39974761Y-45751666D01*
X40022380Y-45656428D01*
X40022380Y-45465952D01*
X39974761Y-45370714D01*
X39927142Y-45323095D01*
X39831904Y-45275476D01*
X39022380Y-45275476D01*
X39022380Y-44894523D02*
X39022380Y-44275476D01*
X39403333Y-44608809D01*
X39403333Y-44465952D01*
X39450952Y-44370714D01*
X39498571Y-44323095D01*
X39593809Y-44275476D01*
X39831904Y-44275476D01*
X39927142Y-44323095D01*
X39974761Y-44370714D01*
X40022380Y-44465952D01*
X40022380Y-44751666D01*
X39974761Y-44846904D01*
X39927142Y-44894523D01*
%TO.C,U2*%
X70993095Y-37467380D02*
X70993095Y-38276904D01*
X71040714Y-38372142D01*
X71088333Y-38419761D01*
X71183571Y-38467380D01*
X71374047Y-38467380D01*
X71469285Y-38419761D01*
X71516904Y-38372142D01*
X71564523Y-38276904D01*
X71564523Y-37467380D01*
X71993095Y-37562619D02*
X72040714Y-37515000D01*
X72135952Y-37467380D01*
X72374047Y-37467380D01*
X72469285Y-37515000D01*
X72516904Y-37562619D01*
X72564523Y-37657857D01*
X72564523Y-37753095D01*
X72516904Y-37895952D01*
X71945476Y-38467380D01*
X72564523Y-38467380D01*
%TO.C,U1*%
X44958095Y-37987380D02*
X44958095Y-38796904D01*
X45005714Y-38892142D01*
X45053333Y-38939761D01*
X45148571Y-38987380D01*
X45339047Y-38987380D01*
X45434285Y-38939761D01*
X45481904Y-38892142D01*
X45529523Y-38796904D01*
X45529523Y-37987380D01*
X46529523Y-38987380D02*
X45958095Y-38987380D01*
X46243809Y-38987380D02*
X46243809Y-37987380D01*
X46148571Y-38130238D01*
X46053333Y-38225476D01*
X45958095Y-38273095D01*
%TO.C,U10*%
X81946904Y-33292380D02*
X81946904Y-34101904D01*
X81994523Y-34197142D01*
X82042142Y-34244761D01*
X82137380Y-34292380D01*
X82327857Y-34292380D01*
X82423095Y-34244761D01*
X82470714Y-34197142D01*
X82518333Y-34101904D01*
X82518333Y-33292380D01*
X83518333Y-34292380D02*
X82946904Y-34292380D01*
X83232619Y-34292380D02*
X83232619Y-33292380D01*
X83137380Y-33435238D01*
X83042142Y-33530476D01*
X82946904Y-33578095D01*
X84137380Y-33292380D02*
X84232619Y-33292380D01*
X84327857Y-33340000D01*
X84375476Y-33387619D01*
X84423095Y-33482857D01*
X84470714Y-33673333D01*
X84470714Y-33911428D01*
X84423095Y-34101904D01*
X84375476Y-34197142D01*
X84327857Y-34244761D01*
X84232619Y-34292380D01*
X84137380Y-34292380D01*
X84042142Y-34244761D01*
X83994523Y-34197142D01*
X83946904Y-34101904D01*
X83899285Y-33911428D01*
X83899285Y-33673333D01*
X83946904Y-33482857D01*
X83994523Y-33387619D01*
X84042142Y-33340000D01*
X84137380Y-33292380D01*
%TO.C,U16*%
X93376904Y-33292380D02*
X93376904Y-34101904D01*
X93424523Y-34197142D01*
X93472142Y-34244761D01*
X93567380Y-34292380D01*
X93757857Y-34292380D01*
X93853095Y-34244761D01*
X93900714Y-34197142D01*
X93948333Y-34101904D01*
X93948333Y-33292380D01*
X94948333Y-34292380D02*
X94376904Y-34292380D01*
X94662619Y-34292380D02*
X94662619Y-33292380D01*
X94567380Y-33435238D01*
X94472142Y-33530476D01*
X94376904Y-33578095D01*
X95805476Y-33292380D02*
X95615000Y-33292380D01*
X95519761Y-33340000D01*
X95472142Y-33387619D01*
X95376904Y-33530476D01*
X95329285Y-33720952D01*
X95329285Y-34101904D01*
X95376904Y-34197142D01*
X95424523Y-34244761D01*
X95519761Y-34292380D01*
X95710238Y-34292380D01*
X95805476Y-34244761D01*
X95853095Y-34197142D01*
X95900714Y-34101904D01*
X95900714Y-33863809D01*
X95853095Y-33768571D01*
X95805476Y-33720952D01*
X95710238Y-33673333D01*
X95519761Y-33673333D01*
X95424523Y-33720952D01*
X95376904Y-33768571D01*
X95329285Y-33863809D01*
%TO.C,X1*%
X102492619Y-27130476D02*
X101492619Y-27797142D01*
X102492619Y-27797142D02*
X101492619Y-27130476D01*
X101492619Y-28701904D02*
X101492619Y-28130476D01*
X101492619Y-28416190D02*
X102492619Y-28416190D01*
X102349761Y-28320952D01*
X102254523Y-28225714D01*
X102206904Y-28130476D01*
%TO.C,Q1*%
X42384761Y-36607619D02*
X42289523Y-36560000D01*
X42194285Y-36464761D01*
X42051428Y-36321904D01*
X41956190Y-36274285D01*
X41860952Y-36274285D01*
X41908571Y-36512380D02*
X41813333Y-36464761D01*
X41718095Y-36369523D01*
X41670476Y-36179047D01*
X41670476Y-35845714D01*
X41718095Y-35655238D01*
X41813333Y-35560000D01*
X41908571Y-35512380D01*
X42099047Y-35512380D01*
X42194285Y-35560000D01*
X42289523Y-35655238D01*
X42337142Y-35845714D01*
X42337142Y-36179047D01*
X42289523Y-36369523D01*
X42194285Y-36464761D01*
X42099047Y-36512380D01*
X41908571Y-36512380D01*
X43289523Y-36512380D02*
X42718095Y-36512380D01*
X43003809Y-36512380D02*
X43003809Y-35512380D01*
X42908571Y-35655238D01*
X42813333Y-35750476D01*
X42718095Y-35798095D01*
%TO.C,U11*%
X34956904Y-49827380D02*
X34956904Y-50636904D01*
X35004523Y-50732142D01*
X35052142Y-50779761D01*
X35147380Y-50827380D01*
X35337857Y-50827380D01*
X35433095Y-50779761D01*
X35480714Y-50732142D01*
X35528333Y-50636904D01*
X35528333Y-49827380D01*
X36528333Y-50827380D02*
X35956904Y-50827380D01*
X36242619Y-50827380D02*
X36242619Y-49827380D01*
X36147380Y-49970238D01*
X36052142Y-50065476D01*
X35956904Y-50113095D01*
X37480714Y-50827380D02*
X36909285Y-50827380D01*
X37195000Y-50827380D02*
X37195000Y-49827380D01*
X37099761Y-49970238D01*
X37004523Y-50065476D01*
X36909285Y-50113095D01*
%TO.C,U15*%
X56050380Y-61690095D02*
X56859904Y-61690095D01*
X56955142Y-61642476D01*
X57002761Y-61594857D01*
X57050380Y-61499619D01*
X57050380Y-61309142D01*
X57002761Y-61213904D01*
X56955142Y-61166285D01*
X56859904Y-61118666D01*
X56050380Y-61118666D01*
X57050380Y-60118666D02*
X57050380Y-60690095D01*
X57050380Y-60404380D02*
X56050380Y-60404380D01*
X56193238Y-60499619D01*
X56288476Y-60594857D01*
X56336095Y-60690095D01*
X56050380Y-59213904D02*
X56050380Y-59690095D01*
X56526571Y-59737714D01*
X56478952Y-59690095D01*
X56431333Y-59594857D01*
X56431333Y-59356761D01*
X56478952Y-59261523D01*
X56526571Y-59213904D01*
X56621809Y-59166285D01*
X56859904Y-59166285D01*
X56955142Y-59213904D01*
X57002761Y-59261523D01*
X57050380Y-59356761D01*
X57050380Y-59594857D01*
X57002761Y-59690095D01*
X56955142Y-59737714D01*
%TO.C,U9*%
X47287380Y-87342604D02*
X48096904Y-87342604D01*
X48192142Y-87294985D01*
X48239761Y-87247366D01*
X48287380Y-87152128D01*
X48287380Y-86961652D01*
X48239761Y-86866414D01*
X48192142Y-86818795D01*
X48096904Y-86771176D01*
X47287380Y-86771176D01*
X48287380Y-86247366D02*
X48287380Y-86056890D01*
X48239761Y-85961652D01*
X48192142Y-85914033D01*
X48049285Y-85818795D01*
X47858809Y-85771176D01*
X47477857Y-85771176D01*
X47382619Y-85818795D01*
X47335000Y-85866414D01*
X47287380Y-85961652D01*
X47287380Y-86152128D01*
X47335000Y-86247366D01*
X47382619Y-86294985D01*
X47477857Y-86342604D01*
X47715952Y-86342604D01*
X47811190Y-86294985D01*
X47858809Y-86247366D01*
X47906428Y-86152128D01*
X47906428Y-85961652D01*
X47858809Y-85866414D01*
X47811190Y-85818795D01*
X47715952Y-85771176D01*
%TO.C,U8*%
X47287380Y-107441904D02*
X48096904Y-107441904D01*
X48192142Y-107394285D01*
X48239761Y-107346666D01*
X48287380Y-107251428D01*
X48287380Y-107060952D01*
X48239761Y-106965714D01*
X48192142Y-106918095D01*
X48096904Y-106870476D01*
X47287380Y-106870476D01*
X47715952Y-106251428D02*
X47668333Y-106346666D01*
X47620714Y-106394285D01*
X47525476Y-106441904D01*
X47477857Y-106441904D01*
X47382619Y-106394285D01*
X47335000Y-106346666D01*
X47287380Y-106251428D01*
X47287380Y-106060952D01*
X47335000Y-105965714D01*
X47382619Y-105918095D01*
X47477857Y-105870476D01*
X47525476Y-105870476D01*
X47620714Y-105918095D01*
X47668333Y-105965714D01*
X47715952Y-106060952D01*
X47715952Y-106251428D01*
X47763571Y-106346666D01*
X47811190Y-106394285D01*
X47906428Y-106441904D01*
X48096904Y-106441904D01*
X48192142Y-106394285D01*
X48239761Y-106346666D01*
X48287380Y-106251428D01*
X48287380Y-106060952D01*
X48239761Y-105965714D01*
X48192142Y-105918095D01*
X48096904Y-105870476D01*
X47906428Y-105870476D01*
X47811190Y-105918095D01*
X47763571Y-105965714D01*
X47715952Y-106060952D01*
%TO.C,U6*%
X35433095Y-83482380D02*
X35433095Y-84291904D01*
X35480714Y-84387142D01*
X35528333Y-84434761D01*
X35623571Y-84482380D01*
X35814047Y-84482380D01*
X35909285Y-84434761D01*
X35956904Y-84387142D01*
X36004523Y-84291904D01*
X36004523Y-83482380D01*
X36909285Y-83482380D02*
X36718809Y-83482380D01*
X36623571Y-83530000D01*
X36575952Y-83577619D01*
X36480714Y-83720476D01*
X36433095Y-83910952D01*
X36433095Y-84291904D01*
X36480714Y-84387142D01*
X36528333Y-84434761D01*
X36623571Y-84482380D01*
X36814047Y-84482380D01*
X36909285Y-84434761D01*
X36956904Y-84387142D01*
X37004523Y-84291904D01*
X37004523Y-84053809D01*
X36956904Y-83958571D01*
X36909285Y-83910952D01*
X36814047Y-83863333D01*
X36623571Y-83863333D01*
X36528333Y-83910952D01*
X36480714Y-83958571D01*
X36433095Y-84053809D01*
%TO.C,C20*%
X29185142Y-36202857D02*
X29232761Y-36250476D01*
X29280380Y-36393333D01*
X29280380Y-36488571D01*
X29232761Y-36631428D01*
X29137523Y-36726666D01*
X29042285Y-36774285D01*
X28851809Y-36821904D01*
X28708952Y-36821904D01*
X28518476Y-36774285D01*
X28423238Y-36726666D01*
X28328000Y-36631428D01*
X28280380Y-36488571D01*
X28280380Y-36393333D01*
X28328000Y-36250476D01*
X28375619Y-36202857D01*
X28375619Y-35821904D02*
X28328000Y-35774285D01*
X28280380Y-35679047D01*
X28280380Y-35440952D01*
X28328000Y-35345714D01*
X28375619Y-35298095D01*
X28470857Y-35250476D01*
X28566095Y-35250476D01*
X28708952Y-35298095D01*
X29280380Y-35869523D01*
X29280380Y-35250476D01*
X28280380Y-34631428D02*
X28280380Y-34536190D01*
X28328000Y-34440952D01*
X28375619Y-34393333D01*
X28470857Y-34345714D01*
X28661333Y-34298095D01*
X28899428Y-34298095D01*
X29089904Y-34345714D01*
X29185142Y-34393333D01*
X29232761Y-34440952D01*
X29280380Y-34536190D01*
X29280380Y-34631428D01*
X29232761Y-34726666D01*
X29185142Y-34774285D01*
X29089904Y-34821904D01*
X28899428Y-34869523D01*
X28661333Y-34869523D01*
X28470857Y-34821904D01*
X28375619Y-34774285D01*
X28328000Y-34726666D01*
X28280380Y-34631428D01*
%TO.C,C23*%
X29185142Y-26804857D02*
X29232761Y-26852476D01*
X29280380Y-26995333D01*
X29280380Y-27090571D01*
X29232761Y-27233428D01*
X29137523Y-27328666D01*
X29042285Y-27376285D01*
X28851809Y-27423904D01*
X28708952Y-27423904D01*
X28518476Y-27376285D01*
X28423238Y-27328666D01*
X28328000Y-27233428D01*
X28280380Y-27090571D01*
X28280380Y-26995333D01*
X28328000Y-26852476D01*
X28375619Y-26804857D01*
X28375619Y-26423904D02*
X28328000Y-26376285D01*
X28280380Y-26281047D01*
X28280380Y-26042952D01*
X28328000Y-25947714D01*
X28375619Y-25900095D01*
X28470857Y-25852476D01*
X28566095Y-25852476D01*
X28708952Y-25900095D01*
X29280380Y-26471523D01*
X29280380Y-25852476D01*
X28280380Y-25519142D02*
X28280380Y-24900095D01*
X28661333Y-25233428D01*
X28661333Y-25090571D01*
X28708952Y-24995333D01*
X28756571Y-24947714D01*
X28851809Y-24900095D01*
X29089904Y-24900095D01*
X29185142Y-24947714D01*
X29232761Y-24995333D01*
X29280380Y-25090571D01*
X29280380Y-25376285D01*
X29232761Y-25471523D01*
X29185142Y-25519142D01*
%TO.C,J1*%
X23476666Y-27722380D02*
X23476666Y-28436666D01*
X23429047Y-28579523D01*
X23333809Y-28674761D01*
X23190952Y-28722380D01*
X23095714Y-28722380D01*
X24476666Y-28722380D02*
X23905238Y-28722380D01*
X24190952Y-28722380D02*
X24190952Y-27722380D01*
X24095714Y-27865238D01*
X24000476Y-27960476D01*
X23905238Y-28008095D01*
%TO.C,J2*%
X23476666Y-98902380D02*
X23476666Y-99616666D01*
X23429047Y-99759523D01*
X23333809Y-99854761D01*
X23190952Y-99902380D01*
X23095714Y-99902380D01*
X23905238Y-98997619D02*
X23952857Y-98950000D01*
X24048095Y-98902380D01*
X24286190Y-98902380D01*
X24381428Y-98950000D01*
X24429047Y-98997619D01*
X24476666Y-99092857D01*
X24476666Y-99188095D01*
X24429047Y-99330952D01*
X23857619Y-99902380D01*
X24476666Y-99902380D01*
%TO.C,J5*%
X23476666Y-42992380D02*
X23476666Y-43706666D01*
X23429047Y-43849523D01*
X23333809Y-43944761D01*
X23190952Y-43992380D01*
X23095714Y-43992380D01*
X24429047Y-42992380D02*
X23952857Y-42992380D01*
X23905238Y-43468571D01*
X23952857Y-43420952D01*
X24048095Y-43373333D01*
X24286190Y-43373333D01*
X24381428Y-43420952D01*
X24429047Y-43468571D01*
X24476666Y-43563809D01*
X24476666Y-43801904D01*
X24429047Y-43897142D01*
X24381428Y-43944761D01*
X24286190Y-43992380D01*
X24048095Y-43992380D01*
X23952857Y-43944761D01*
X23905238Y-43897142D01*
%TD*%
M02*
