%TF.GenerationSoftware,KiCad,Pcbnew,(5.1.9)-1*%
%TF.CreationDate,2021-06-06T11:32:17-04:00*%
%TF.ProjectId,main,6d61696e-2e6b-4696-9361-645f70636258,rev?*%
%TF.SameCoordinates,Original*%
%TF.FileFunction,Soldermask,Bot*%
%TF.FilePolarity,Negative*%
%FSLAX46Y46*%
G04 Gerber Fmt 4.6, Leading zero omitted, Abs format (unit mm)*
G04 Created by KiCad (PCBNEW (5.1.9)-1) date 2021-06-06 11:32:17*
%MOMM*%
%LPD*%
G01*
G04 APERTURE LIST*
%ADD10C,1.800000*%
%ADD11R,1.800000X1.800000*%
%ADD12C,1.600000*%
%ADD13R,1.600000X1.600000*%
%ADD14O,1.600000X1.600000*%
%ADD15O,1.700000X1.700000*%
%ADD16R,1.700000X1.700000*%
%ADD17C,3.200000*%
G04 APERTURE END LIST*
D10*
%TO.C,D28*%
X95960000Y-90000000D03*
D11*
X98500000Y-90000000D03*
%TD*%
D10*
%TO.C,D27*%
X95960000Y-95000000D03*
D11*
X98500000Y-95000000D03*
%TD*%
D10*
%TO.C,D26*%
X95960000Y-100000000D03*
D11*
X98500000Y-100000000D03*
%TD*%
D10*
%TO.C,D25*%
X95960000Y-105000000D03*
D11*
X98500000Y-105000000D03*
%TD*%
D12*
%TO.C,C9*%
X37752000Y-32774000D03*
D13*
X37752000Y-29274000D03*
%TD*%
%TO.C,C8*%
G36*
G01*
X39309000Y-31630000D02*
X40259000Y-31630000D01*
G75*
G02*
X40509000Y-31880000I0J-250000D01*
G01*
X40509000Y-32380000D01*
G75*
G02*
X40259000Y-32630000I-250000J0D01*
G01*
X39309000Y-32630000D01*
G75*
G02*
X39059000Y-32380000I0J250000D01*
G01*
X39059000Y-31880000D01*
G75*
G02*
X39309000Y-31630000I250000J0D01*
G01*
G37*
G36*
G01*
X39309000Y-29730000D02*
X40259000Y-29730000D01*
G75*
G02*
X40509000Y-29980000I0J-250000D01*
G01*
X40509000Y-30480000D01*
G75*
G02*
X40259000Y-30730000I-250000J0D01*
G01*
X39309000Y-30730000D01*
G75*
G02*
X39059000Y-30480000I0J250000D01*
G01*
X39059000Y-29980000D01*
G75*
G02*
X39309000Y-29730000I250000J0D01*
G01*
G37*
%TD*%
%TO.C,C14*%
G36*
G01*
X44897000Y-31630000D02*
X45847000Y-31630000D01*
G75*
G02*
X46097000Y-31880000I0J-250000D01*
G01*
X46097000Y-32380000D01*
G75*
G02*
X45847000Y-32630000I-250000J0D01*
G01*
X44897000Y-32630000D01*
G75*
G02*
X44647000Y-32380000I0J250000D01*
G01*
X44647000Y-31880000D01*
G75*
G02*
X44897000Y-31630000I250000J0D01*
G01*
G37*
G36*
G01*
X44897000Y-29730000D02*
X45847000Y-29730000D01*
G75*
G02*
X46097000Y-29980000I0J-250000D01*
G01*
X46097000Y-30480000D01*
G75*
G02*
X45847000Y-30730000I-250000J0D01*
G01*
X44897000Y-30730000D01*
G75*
G02*
X44647000Y-30480000I0J250000D01*
G01*
X44647000Y-29980000D01*
G75*
G02*
X44897000Y-29730000I250000J0D01*
G01*
G37*
%TD*%
D14*
%TO.C,U2*%
X50800000Y-52070000D03*
X43180000Y-67310000D03*
X50800000Y-54610000D03*
X43180000Y-64770000D03*
X50800000Y-57150000D03*
X43180000Y-62230000D03*
X50800000Y-59690000D03*
X43180000Y-59690000D03*
X50800000Y-62230000D03*
X43180000Y-57150000D03*
X50800000Y-64770000D03*
X43180000Y-54610000D03*
X50800000Y-67310000D03*
D13*
X43180000Y-52070000D03*
%TD*%
D14*
%TO.C,U1*%
X50800000Y-72390000D03*
X43180000Y-87630000D03*
X50800000Y-74930000D03*
X43180000Y-85090000D03*
X50800000Y-77470000D03*
X43180000Y-82550000D03*
X50800000Y-80010000D03*
X43180000Y-80010000D03*
X50800000Y-82550000D03*
X43180000Y-77470000D03*
X50800000Y-85090000D03*
X43180000Y-74930000D03*
X50800000Y-87630000D03*
D13*
X43180000Y-72390000D03*
%TD*%
D14*
%TO.C,RN3*%
X78000000Y-97820000D03*
X78000000Y-95280000D03*
X78000000Y-92740000D03*
X78000000Y-90200000D03*
X78000000Y-87660000D03*
X78000000Y-85120000D03*
X78000000Y-82580000D03*
X78000000Y-80040000D03*
D13*
X78000000Y-77500000D03*
%TD*%
D14*
%TO.C,RN2*%
X78000000Y-42180000D03*
X78000000Y-44720000D03*
X78000000Y-47260000D03*
X78000000Y-49800000D03*
X78000000Y-52340000D03*
X78000000Y-54880000D03*
X78000000Y-57420000D03*
X78000000Y-59960000D03*
D13*
X78000000Y-62500000D03*
%TD*%
%TO.C,RN1*%
X106500000Y-62500000D03*
D14*
X106500000Y-59960000D03*
X106500000Y-57420000D03*
X106500000Y-54880000D03*
X106500000Y-52340000D03*
X106500000Y-49800000D03*
X106500000Y-47260000D03*
X106500000Y-44720000D03*
X106500000Y-42180000D03*
%TD*%
D10*
%TO.C,D24*%
X83460000Y-77500000D03*
D11*
X86000000Y-77500000D03*
%TD*%
D10*
%TO.C,D23*%
X83460000Y-87500000D03*
D11*
X86000000Y-87500000D03*
%TD*%
D10*
%TO.C,D22*%
X83460000Y-97500000D03*
D11*
X86000000Y-97500000D03*
%TD*%
D10*
%TO.C,D21*%
X83460000Y-107500000D03*
D11*
X86000000Y-107500000D03*
%TD*%
D10*
%TO.C,D20*%
X83460000Y-102500000D03*
D11*
X86000000Y-102500000D03*
%TD*%
D10*
%TO.C,D19*%
X83460000Y-92500000D03*
D11*
X86000000Y-92500000D03*
%TD*%
D10*
%TO.C,D18*%
X83460000Y-82500000D03*
D11*
X86000000Y-82500000D03*
%TD*%
D10*
%TO.C,D17*%
X83460000Y-72500000D03*
D11*
X86000000Y-72500000D03*
%TD*%
D10*
%TO.C,D16*%
X83460000Y-37500000D03*
D11*
X86000000Y-37500000D03*
%TD*%
D10*
%TO.C,D15*%
X83460000Y-47500000D03*
D11*
X86000000Y-47500000D03*
%TD*%
D10*
%TO.C,D14*%
X83460000Y-57500000D03*
D11*
X86000000Y-57500000D03*
%TD*%
D10*
%TO.C,D13*%
X83460000Y-67500000D03*
D11*
X86000000Y-67500000D03*
%TD*%
D10*
%TO.C,D12*%
X83460000Y-62500000D03*
D11*
X86000000Y-62500000D03*
%TD*%
D10*
%TO.C,D11*%
X83460000Y-52500000D03*
D11*
X86000000Y-52500000D03*
%TD*%
D10*
%TO.C,D10*%
X83460000Y-42500000D03*
D11*
X86000000Y-42500000D03*
%TD*%
D10*
%TO.C,D9*%
X83460000Y-32500000D03*
D11*
X86000000Y-32500000D03*
%TD*%
D10*
%TO.C,D8*%
X95460000Y-37500000D03*
D11*
X98000000Y-37500000D03*
%TD*%
D10*
%TO.C,D7*%
X95460000Y-47500000D03*
D11*
X98000000Y-47500000D03*
%TD*%
D10*
%TO.C,D6*%
X95460000Y-57500000D03*
D11*
X98000000Y-57500000D03*
%TD*%
D10*
%TO.C,D5*%
X95460000Y-67500000D03*
D11*
X98000000Y-67500000D03*
%TD*%
D10*
%TO.C,D4*%
X95460000Y-62500000D03*
D11*
X98000000Y-62500000D03*
%TD*%
D10*
%TO.C,D3*%
X95460000Y-52500000D03*
D11*
X98000000Y-52500000D03*
%TD*%
D10*
%TO.C,D2*%
X95460000Y-42500000D03*
D11*
X98000000Y-42500000D03*
%TD*%
D15*
%TO.C,SW4*%
X113790000Y-88500000D03*
X111250000Y-88500000D03*
D16*
X108710000Y-88500000D03*
%TD*%
D15*
%TO.C,SW3*%
X113790000Y-94500000D03*
X111250000Y-94500000D03*
D16*
X108710000Y-94500000D03*
%TD*%
D15*
%TO.C,SW2*%
X113790000Y-100500000D03*
X111250000Y-100500000D03*
D16*
X108710000Y-100500000D03*
%TD*%
D15*
%TO.C,SW1*%
X113790000Y-106500000D03*
X111250000Y-106500000D03*
D16*
X108710000Y-106500000D03*
%TD*%
%TO.C,R4*%
G36*
G01*
X111850000Y-85049999D02*
X111850000Y-85950001D01*
G75*
G02*
X111600001Y-86200000I-249999J0D01*
G01*
X111074999Y-86200000D01*
G75*
G02*
X110825000Y-85950001I0J249999D01*
G01*
X110825000Y-85049999D01*
G75*
G02*
X111074999Y-84800000I249999J0D01*
G01*
X111600001Y-84800000D01*
G75*
G02*
X111850000Y-85049999I0J-249999D01*
G01*
G37*
G36*
G01*
X113675000Y-85049999D02*
X113675000Y-85950001D01*
G75*
G02*
X113425001Y-86200000I-249999J0D01*
G01*
X112899999Y-86200000D01*
G75*
G02*
X112650000Y-85950001I0J249999D01*
G01*
X112650000Y-85049999D01*
G75*
G02*
X112899999Y-84800000I249999J0D01*
G01*
X113425001Y-84800000D01*
G75*
G02*
X113675000Y-85049999I0J-249999D01*
G01*
G37*
%TD*%
%TO.C,R3*%
G36*
G01*
X111850000Y-91049999D02*
X111850000Y-91950001D01*
G75*
G02*
X111600001Y-92200000I-249999J0D01*
G01*
X111074999Y-92200000D01*
G75*
G02*
X110825000Y-91950001I0J249999D01*
G01*
X110825000Y-91049999D01*
G75*
G02*
X111074999Y-90800000I249999J0D01*
G01*
X111600001Y-90800000D01*
G75*
G02*
X111850000Y-91049999I0J-249999D01*
G01*
G37*
G36*
G01*
X113675000Y-91049999D02*
X113675000Y-91950001D01*
G75*
G02*
X113425001Y-92200000I-249999J0D01*
G01*
X112899999Y-92200000D01*
G75*
G02*
X112650000Y-91950001I0J249999D01*
G01*
X112650000Y-91049999D01*
G75*
G02*
X112899999Y-90800000I249999J0D01*
G01*
X113425001Y-90800000D01*
G75*
G02*
X113675000Y-91049999I0J-249999D01*
G01*
G37*
%TD*%
%TO.C,R2*%
G36*
G01*
X111850000Y-97049999D02*
X111850000Y-97950001D01*
G75*
G02*
X111600001Y-98200000I-249999J0D01*
G01*
X111074999Y-98200000D01*
G75*
G02*
X110825000Y-97950001I0J249999D01*
G01*
X110825000Y-97049999D01*
G75*
G02*
X111074999Y-96800000I249999J0D01*
G01*
X111600001Y-96800000D01*
G75*
G02*
X111850000Y-97049999I0J-249999D01*
G01*
G37*
G36*
G01*
X113675000Y-97049999D02*
X113675000Y-97950001D01*
G75*
G02*
X113425001Y-98200000I-249999J0D01*
G01*
X112899999Y-98200000D01*
G75*
G02*
X112650000Y-97950001I0J249999D01*
G01*
X112650000Y-97049999D01*
G75*
G02*
X112899999Y-96800000I249999J0D01*
G01*
X113425001Y-96800000D01*
G75*
G02*
X113675000Y-97049999I0J-249999D01*
G01*
G37*
%TD*%
%TO.C,R1*%
G36*
G01*
X111850000Y-103049999D02*
X111850000Y-103950001D01*
G75*
G02*
X111600001Y-104200000I-249999J0D01*
G01*
X111074999Y-104200000D01*
G75*
G02*
X110825000Y-103950001I0J249999D01*
G01*
X110825000Y-103049999D01*
G75*
G02*
X111074999Y-102800000I249999J0D01*
G01*
X111600001Y-102800000D01*
G75*
G02*
X111850000Y-103049999I0J-249999D01*
G01*
G37*
G36*
G01*
X113675000Y-103049999D02*
X113675000Y-103950001D01*
G75*
G02*
X113425001Y-104200000I-249999J0D01*
G01*
X112899999Y-104200000D01*
G75*
G02*
X112650000Y-103950001I0J249999D01*
G01*
X112650000Y-103049999D01*
G75*
G02*
X112899999Y-102800000I249999J0D01*
G01*
X113425001Y-102800000D01*
G75*
G02*
X113675000Y-103049999I0J-249999D01*
G01*
G37*
%TD*%
D14*
%TO.C,U5*%
X68580000Y-86360000D03*
X60960000Y-109220000D03*
X68580000Y-88900000D03*
X60960000Y-106680000D03*
X68580000Y-91440000D03*
X60960000Y-104140000D03*
X68580000Y-93980000D03*
X60960000Y-101600000D03*
X68580000Y-96520000D03*
X60960000Y-99060000D03*
X68580000Y-99060000D03*
X60960000Y-96520000D03*
X68580000Y-101600000D03*
X60960000Y-93980000D03*
X68580000Y-104140000D03*
X60960000Y-91440000D03*
X68580000Y-106680000D03*
X60960000Y-88900000D03*
X68580000Y-109220000D03*
D13*
X60960000Y-86360000D03*
%TD*%
D14*
%TO.C,U4*%
X68580000Y-58420000D03*
X60960000Y-81280000D03*
X68580000Y-60960000D03*
X60960000Y-78740000D03*
X68580000Y-63500000D03*
X60960000Y-76200000D03*
X68580000Y-66040000D03*
X60960000Y-73660000D03*
X68580000Y-68580000D03*
X60960000Y-71120000D03*
X68580000Y-71120000D03*
X60960000Y-68580000D03*
X68580000Y-73660000D03*
X60960000Y-66040000D03*
X68580000Y-76200000D03*
X60960000Y-63500000D03*
X68580000Y-78740000D03*
X60960000Y-60960000D03*
X68580000Y-81280000D03*
D13*
X60960000Y-58420000D03*
%TD*%
D14*
%TO.C,U3*%
X68580000Y-30480000D03*
X60960000Y-53340000D03*
X68580000Y-33020000D03*
X60960000Y-50800000D03*
X68580000Y-35560000D03*
X60960000Y-48260000D03*
X68580000Y-38100000D03*
X60960000Y-45720000D03*
X68580000Y-40640000D03*
X60960000Y-43180000D03*
X68580000Y-43180000D03*
X60960000Y-40640000D03*
X68580000Y-45720000D03*
X60960000Y-38100000D03*
X68580000Y-48260000D03*
X60960000Y-35560000D03*
X68580000Y-50800000D03*
X60960000Y-33020000D03*
X68580000Y-53340000D03*
D13*
X60960000Y-30480000D03*
%TD*%
D17*
%TO.C,H4*%
X23500000Y-116500000D03*
%TD*%
%TO.C,H3*%
X116500000Y-116500000D03*
%TD*%
%TO.C,H2*%
X23500000Y-23500000D03*
%TD*%
%TO.C,H1*%
X116500000Y-23500000D03*
%TD*%
D10*
%TO.C,D1*%
X95460000Y-32500000D03*
D11*
X98000000Y-32500000D03*
%TD*%
%TO.C,C6*%
G36*
G01*
X47810000Y-71915000D02*
X47810000Y-72865000D01*
G75*
G02*
X47560000Y-73115000I-250000J0D01*
G01*
X47060000Y-73115000D01*
G75*
G02*
X46810000Y-72865000I0J250000D01*
G01*
X46810000Y-71915000D01*
G75*
G02*
X47060000Y-71665000I250000J0D01*
G01*
X47560000Y-71665000D01*
G75*
G02*
X47810000Y-71915000I0J-250000D01*
G01*
G37*
G36*
G01*
X49710000Y-71915000D02*
X49710000Y-72865000D01*
G75*
G02*
X49460000Y-73115000I-250000J0D01*
G01*
X48960000Y-73115000D01*
G75*
G02*
X48710000Y-72865000I0J250000D01*
G01*
X48710000Y-71915000D01*
G75*
G02*
X48960000Y-71665000I250000J0D01*
G01*
X49460000Y-71665000D01*
G75*
G02*
X49710000Y-71915000I0J-250000D01*
G01*
G37*
%TD*%
D12*
%TO.C,C5*%
X47531000Y-32774000D03*
D13*
X47531000Y-29274000D03*
%TD*%
D16*
%TO.C,J3*%
X22540000Y-30600000D03*
D15*
X25080000Y-30600000D03*
X22540000Y-33140000D03*
X25080000Y-33140000D03*
X22540000Y-35680000D03*
X25080000Y-35680000D03*
X22540000Y-38220000D03*
X25080000Y-38220000D03*
%TD*%
%TO.C,J4*%
X25080000Y-109400000D03*
X22540000Y-109400000D03*
X25080000Y-106860000D03*
X22540000Y-106860000D03*
X25080000Y-104320000D03*
X22540000Y-104320000D03*
X25080000Y-101780000D03*
D16*
X22540000Y-101780000D03*
%TD*%
D15*
%TO.C,J2*%
X33080000Y-94130000D03*
X30540000Y-94130000D03*
X33080000Y-91590000D03*
X30540000Y-91590000D03*
X33080000Y-89050000D03*
X30540000Y-89050000D03*
X33080000Y-86510000D03*
X30540000Y-86510000D03*
X33080000Y-83970000D03*
X30540000Y-83970000D03*
X33080000Y-81430000D03*
X30540000Y-81430000D03*
X33080000Y-78890000D03*
X30540000Y-78890000D03*
X33080000Y-76350000D03*
X30540000Y-76350000D03*
X33080000Y-73810000D03*
X30540000Y-73810000D03*
X33080000Y-71270000D03*
X30540000Y-71270000D03*
X33080000Y-68730000D03*
X30540000Y-68730000D03*
X33080000Y-66190000D03*
X30540000Y-66190000D03*
X33080000Y-63650000D03*
X30540000Y-63650000D03*
X33080000Y-61110000D03*
X30540000Y-61110000D03*
X33080000Y-58570000D03*
X30540000Y-58570000D03*
X33080000Y-56030000D03*
X30540000Y-56030000D03*
X33080000Y-53490000D03*
X30540000Y-53490000D03*
X33080000Y-50950000D03*
X30540000Y-50950000D03*
X33080000Y-48410000D03*
X30540000Y-48410000D03*
X33080000Y-45870000D03*
D16*
X30540000Y-45870000D03*
%TD*%
%TO.C,C4*%
G36*
G01*
X65590000Y-57945000D02*
X65590000Y-58895000D01*
G75*
G02*
X65340000Y-59145000I-250000J0D01*
G01*
X64840000Y-59145000D01*
G75*
G02*
X64590000Y-58895000I0J250000D01*
G01*
X64590000Y-57945000D01*
G75*
G02*
X64840000Y-57695000I250000J0D01*
G01*
X65340000Y-57695000D01*
G75*
G02*
X65590000Y-57945000I0J-250000D01*
G01*
G37*
G36*
G01*
X67490000Y-57945000D02*
X67490000Y-58895000D01*
G75*
G02*
X67240000Y-59145000I-250000J0D01*
G01*
X66740000Y-59145000D01*
G75*
G02*
X66490000Y-58895000I0J250000D01*
G01*
X66490000Y-57945000D01*
G75*
G02*
X66740000Y-57695000I250000J0D01*
G01*
X67240000Y-57695000D01*
G75*
G02*
X67490000Y-57945000I0J-250000D01*
G01*
G37*
%TD*%
%TO.C,C3*%
G36*
G01*
X65590000Y-30005000D02*
X65590000Y-30955000D01*
G75*
G02*
X65340000Y-31205000I-250000J0D01*
G01*
X64840000Y-31205000D01*
G75*
G02*
X64590000Y-30955000I0J250000D01*
G01*
X64590000Y-30005000D01*
G75*
G02*
X64840000Y-29755000I250000J0D01*
G01*
X65340000Y-29755000D01*
G75*
G02*
X65590000Y-30005000I0J-250000D01*
G01*
G37*
G36*
G01*
X67490000Y-30005000D02*
X67490000Y-30955000D01*
G75*
G02*
X67240000Y-31205000I-250000J0D01*
G01*
X66740000Y-31205000D01*
G75*
G02*
X66490000Y-30955000I0J250000D01*
G01*
X66490000Y-30005000D01*
G75*
G02*
X66740000Y-29755000I250000J0D01*
G01*
X67240000Y-29755000D01*
G75*
G02*
X67490000Y-30005000I0J-250000D01*
G01*
G37*
%TD*%
%TO.C,C2*%
G36*
G01*
X47810000Y-51595000D02*
X47810000Y-52545000D01*
G75*
G02*
X47560000Y-52795000I-250000J0D01*
G01*
X47060000Y-52795000D01*
G75*
G02*
X46810000Y-52545000I0J250000D01*
G01*
X46810000Y-51595000D01*
G75*
G02*
X47060000Y-51345000I250000J0D01*
G01*
X47560000Y-51345000D01*
G75*
G02*
X47810000Y-51595000I0J-250000D01*
G01*
G37*
G36*
G01*
X49710000Y-51595000D02*
X49710000Y-52545000D01*
G75*
G02*
X49460000Y-52795000I-250000J0D01*
G01*
X48960000Y-52795000D01*
G75*
G02*
X48710000Y-52545000I0J250000D01*
G01*
X48710000Y-51595000D01*
G75*
G02*
X48960000Y-51345000I250000J0D01*
G01*
X49460000Y-51345000D01*
G75*
G02*
X49710000Y-51595000I0J-250000D01*
G01*
G37*
%TD*%
%TO.C,C1*%
G36*
G01*
X65590000Y-85885000D02*
X65590000Y-86835000D01*
G75*
G02*
X65340000Y-87085000I-250000J0D01*
G01*
X64840000Y-87085000D01*
G75*
G02*
X64590000Y-86835000I0J250000D01*
G01*
X64590000Y-85885000D01*
G75*
G02*
X64840000Y-85635000I250000J0D01*
G01*
X65340000Y-85635000D01*
G75*
G02*
X65590000Y-85885000I0J-250000D01*
G01*
G37*
G36*
G01*
X67490000Y-85885000D02*
X67490000Y-86835000D01*
G75*
G02*
X67240000Y-87085000I-250000J0D01*
G01*
X66740000Y-87085000D01*
G75*
G02*
X66490000Y-86835000I0J250000D01*
G01*
X66490000Y-85885000D01*
G75*
G02*
X66740000Y-85635000I250000J0D01*
G01*
X67240000Y-85635000D01*
G75*
G02*
X67490000Y-85885000I0J-250000D01*
G01*
G37*
%TD*%
D15*
%TO.C,J1*%
X25080000Y-94130000D03*
X22540000Y-94130000D03*
X25080000Y-91590000D03*
X22540000Y-91590000D03*
X25080000Y-89050000D03*
X22540000Y-89050000D03*
X25080000Y-86510000D03*
X22540000Y-86510000D03*
X25080000Y-83970000D03*
X22540000Y-83970000D03*
X25080000Y-81430000D03*
X22540000Y-81430000D03*
X25080000Y-78890000D03*
X22540000Y-78890000D03*
X25080000Y-76350000D03*
X22540000Y-76350000D03*
X25080000Y-73810000D03*
X22540000Y-73810000D03*
X25080000Y-71270000D03*
X22540000Y-71270000D03*
X25080000Y-68730000D03*
X22540000Y-68730000D03*
X25080000Y-66190000D03*
X22540000Y-66190000D03*
X25080000Y-63650000D03*
X22540000Y-63650000D03*
X25080000Y-61110000D03*
X22540000Y-61110000D03*
X25080000Y-58570000D03*
X22540000Y-58570000D03*
X25080000Y-56030000D03*
X22540000Y-56030000D03*
X25080000Y-53490000D03*
X22540000Y-53490000D03*
X25080000Y-50950000D03*
X22540000Y-50950000D03*
X25080000Y-48410000D03*
X22540000Y-48410000D03*
X25080000Y-45870000D03*
D16*
X22540000Y-45870000D03*
%TD*%
M02*
