M48
; DRILL file {KiCad (5.1.9)-1} date 06/06/21 11:32:19
; FORMAT={-:-/ absolute / inch / decimal}
; #@! TF.CreationDate,2021-06-06T11:32:19-04:00
; #@! TF.GenerationSoftware,Kicad,Pcbnew,(5.1.9)-1
FMAT,2
INCH
T1C0.0118
T2C0.0236
T3C0.0315
T4C0.0354
T5C0.0394
T6C0.1260
%
G90
G05
T1
X1.4094Y-3.2002
X1.4276Y-2.2454
X1.4566Y-3.0084
X1.4714Y-3.1727
X1.4723Y-3.114
X1.4737Y-2.3018
X1.4882Y-2.5477
X1.5507Y-2.4933
X1.5862Y-3.0987
X1.603Y-2.5197
X1.7921Y-1.9637
X1.893Y-2.5912
X2.3629Y-2.9614
T2
X2.9931Y-2.9882
X3.6098Y-3.6272
T3
X1.4863Y-1.1525
X1.4863Y-1.2903
X1.7Y-2.05
X1.7Y-2.15
X1.7Y-2.25
X1.7Y-2.35
X1.7Y-2.45
X1.7Y-2.55
X1.7Y-2.65
X1.7Y-2.85
X1.7Y-2.95
X1.7Y-3.05
X1.7Y-3.15
X1.7Y-3.25
X1.7Y-3.35
X1.7Y-3.45
X1.8713Y-1.1525
X1.8713Y-1.2903
X2.0Y-2.05
X2.0Y-2.15
X2.0Y-2.25
X2.0Y-2.35
X2.0Y-2.45
X2.0Y-2.55
X2.0Y-2.65
X2.0Y-2.85
X2.0Y-2.95
X2.0Y-3.05
X2.0Y-3.15
X2.0Y-3.25
X2.0Y-3.35
X2.0Y-3.45
X2.4Y-1.2
X2.4Y-1.3
X2.4Y-1.4
X2.4Y-1.5
X2.4Y-1.6
X2.4Y-1.7
X2.4Y-1.8
X2.4Y-1.9
X2.4Y-2.0
X2.4Y-2.1
X2.4Y-2.3
X2.4Y-2.4
X2.4Y-2.5
X2.4Y-2.6
X2.4Y-2.7
X2.4Y-2.8
X2.4Y-2.9
X2.4Y-3.0
X2.4Y-3.1
X2.4Y-3.2
X2.4Y-3.4
X2.4Y-3.5
X2.4Y-3.6
X2.4Y-3.7
X2.4Y-3.8
X2.4Y-3.9
X2.4Y-4.0
X2.4Y-4.1
X2.4Y-4.2
X2.4Y-4.3
X2.7Y-1.2
X2.7Y-1.3
X2.7Y-1.4
X2.7Y-1.5
X2.7Y-1.6
X2.7Y-1.7
X2.7Y-1.8
X2.7Y-1.9
X2.7Y-2.0
X2.7Y-2.1
X2.7Y-2.3
X2.7Y-2.4
X2.7Y-2.5
X2.7Y-2.6
X2.7Y-2.7
X2.7Y-2.8
X2.7Y-2.9
X2.7Y-3.0
X2.7Y-3.1
X2.7Y-3.2
X2.7Y-3.4
X2.7Y-3.5
X2.7Y-3.6
X2.7Y-3.7
X2.7Y-3.8
X2.7Y-3.9
X2.7Y-4.0
X2.7Y-4.1
X2.7Y-4.2
X2.7Y-4.3
X3.0709Y-1.6606
X3.0709Y-1.7606
X3.0709Y-1.8606
X3.0709Y-1.9606
X3.0709Y-2.0606
X3.0709Y-2.1606
X3.0709Y-2.2606
X3.0709Y-2.3606
X3.0709Y-2.4606
X3.0709Y-3.0512
X3.0709Y-3.1512
X3.0709Y-3.2512
X3.0709Y-3.3512
X3.0709Y-3.4512
X3.0709Y-3.5512
X3.0709Y-3.6512
X3.0709Y-3.7512
X3.0709Y-3.8512
X4.1929Y-1.6606
X4.1929Y-1.7606
X4.1929Y-1.8606
X4.1929Y-1.9606
X4.1929Y-2.0606
X4.1929Y-2.1606
X4.1929Y-2.2606
X4.1929Y-2.3606
X4.1929Y-2.4606
T4
X3.2858Y-1.2795
X3.2858Y-1.4764
X3.2858Y-1.6732
X3.2858Y-1.8701
X3.2858Y-2.0669
X3.2858Y-2.2638
X3.2858Y-2.4606
X3.2858Y-2.6575
X3.2858Y-2.8543
X3.2858Y-3.0512
X3.2858Y-3.248
X3.2858Y-3.4449
X3.2858Y-3.6417
X3.2858Y-3.8386
X3.2858Y-4.0354
X3.2858Y-4.2323
X3.3858Y-1.2795
X3.3858Y-1.4764
X3.3858Y-1.6732
X3.3858Y-1.8701
X3.3858Y-2.0669
X3.3858Y-2.2638
X3.3858Y-2.4606
X3.3858Y-2.6575
X3.3858Y-2.8543
X3.3858Y-3.0512
X3.3858Y-3.248
X3.3858Y-3.4449
X3.3858Y-3.6417
X3.3858Y-3.8386
X3.3858Y-4.0354
X3.3858Y-4.2323
X3.7583Y-1.2795
X3.7583Y-1.4764
X3.7583Y-1.6732
X3.7583Y-1.8701
X3.7583Y-2.0669
X3.7583Y-2.2638
X3.7583Y-2.4606
X3.7583Y-2.6575
X3.778Y-3.5433
X3.778Y-3.7402
X3.778Y-3.937
X3.778Y-4.1339
X3.8583Y-1.2795
X3.8583Y-1.4764
X3.8583Y-1.6732
X3.8583Y-1.8701
X3.8583Y-2.0669
X3.8583Y-2.2638
X3.8583Y-2.4606
X3.8583Y-2.6575
X3.878Y-3.5433
X3.878Y-3.7402
X3.878Y-3.937
X3.878Y-4.1339
T5
X0.8874Y-1.2047
X0.8874Y-1.3047
X0.8874Y-1.4047
X0.8874Y-1.5047
X0.8874Y-1.8059
X0.8874Y-1.9059
X0.8874Y-2.0059
X0.8874Y-2.1059
X0.8874Y-2.2059
X0.8874Y-2.3059
X0.8874Y-2.4059
X0.8874Y-2.5059
X0.8874Y-2.6059
X0.8874Y-2.7059
X0.8874Y-2.8059
X0.8874Y-2.9059
X0.8874Y-3.0059
X0.8874Y-3.1059
X0.8874Y-3.2059
X0.8874Y-3.3059
X0.8874Y-3.4059
X0.8874Y-3.5059
X0.8874Y-3.6059
X0.8874Y-3.7059
X0.8874Y-4.0071
X0.8874Y-4.1071
X0.8874Y-4.2071
X0.8874Y-4.3071
X0.9874Y-1.2047
X0.9874Y-1.3047
X0.9874Y-1.4047
X0.9874Y-1.5047
X0.9874Y-1.8059
X0.9874Y-1.9059
X0.9874Y-2.0059
X0.9874Y-2.1059
X0.9874Y-2.2059
X0.9874Y-2.3059
X0.9874Y-2.4059
X0.9874Y-2.5059
X0.9874Y-2.6059
X0.9874Y-2.7059
X0.9874Y-2.8059
X0.9874Y-2.9059
X0.9874Y-3.0059
X0.9874Y-3.1059
X0.9874Y-3.2059
X0.9874Y-3.3059
X0.9874Y-3.4059
X0.9874Y-3.5059
X0.9874Y-3.6059
X0.9874Y-3.7059
X0.9874Y-4.0071
X0.9874Y-4.1071
X0.9874Y-4.2071
X0.9874Y-4.3071
X1.2024Y-1.8059
X1.2024Y-1.9059
X1.2024Y-2.0059
X1.2024Y-2.1059
X1.2024Y-2.2059
X1.2024Y-2.3059
X1.2024Y-2.4059
X1.2024Y-2.5059
X1.2024Y-2.6059
X1.2024Y-2.7059
X1.2024Y-2.8059
X1.2024Y-2.9059
X1.2024Y-3.0059
X1.2024Y-3.1059
X1.2024Y-3.2059
X1.2024Y-3.3059
X1.2024Y-3.4059
X1.2024Y-3.5059
X1.2024Y-3.6059
X1.2024Y-3.7059
X1.3024Y-1.8059
X1.3024Y-1.9059
X1.3024Y-2.0059
X1.3024Y-2.1059
X1.3024Y-2.2059
X1.3024Y-2.3059
X1.3024Y-2.4059
X1.3024Y-2.5059
X1.3024Y-2.6059
X1.3024Y-2.7059
X1.3024Y-2.8059
X1.3024Y-2.9059
X1.3024Y-3.0059
X1.3024Y-3.1059
X1.3024Y-3.2059
X1.3024Y-3.3059
X1.3024Y-3.4059
X1.3024Y-3.5059
X1.3024Y-3.6059
X1.3024Y-3.7059
X4.2799Y-3.4843
X4.2799Y-3.7205
X4.2799Y-3.9567
X4.2799Y-4.1929
X4.3799Y-3.4843
X4.3799Y-3.7205
X4.3799Y-3.9567
X4.3799Y-4.1929
X4.4799Y-3.4843
X4.4799Y-3.7205
X4.4799Y-3.9567
X4.4799Y-4.1929
T6
X0.9252Y-0.9252
X0.9252Y-4.5866
X4.5866Y-0.9252
X4.5866Y-4.5866
T0
M30
