M48
; DRILL file {KiCad (5.1.9)-1} date 11/03/21 00:39:48
; FORMAT={-:-/ absolute / inch / decimal}
; #@! TF.CreationDate,2021-11-03T00:39:48-04:00
; #@! TF.GenerationSoftware,Kicad,Pcbnew,(5.1.9)-1
; #@! TF.FileFunction,Plated,1,2,PTH
FMAT,2
INCH
T1C0.0118
T2C0.0197
T3C0.0295
T4C0.0315
T5C0.0394
T6C0.0591
%
G90
G05
T1
X1.1128Y-3.2315
X1.1855Y-2.5962
X1.2145Y-3.0404
X1.3004Y-1.8196
X1.4314Y-2.2853
X1.4531Y-1.8171
X1.5025Y-2.5154
X1.5288Y-1.7044
X1.6616Y-2.2668
X1.675Y-1.5294
X1.685Y-2.3253
X1.7578Y-1.6744
X1.7745Y-2.7175
X1.8107Y-2.5247
X1.8217Y-2.4286
X1.863Y-2.5162
X1.9257Y-2.2659
X2.0535Y-1.6735
X2.1766Y-2.8282
X2.177Y-1.4944
X2.1777Y-2.0489
X2.1803Y-2.2211
X2.2127Y-2.4758
X2.2249Y-3.1551
X2.2697Y-1.7319
X2.2755Y-1.7633
X2.283Y-1.7943
X2.3113Y-1.6779
X2.3325Y-2.9961
X2.3354Y-1.8316
X2.3686Y-1.6865
X2.5325Y-1.7231
X2.5344Y-2.7654
X2.5784Y-1.7241
X2.5878Y-2.7634
X2.5926Y-2.7945
X2.6537Y-1.1769
X2.8657Y-1.075
X2.9506Y-1.3038
X2.9764Y-1.1747
X3.0109Y-1.6422
X3.1293Y-3.9675
X3.2044Y-1.4712
X3.2312Y-1.6493
X3.245Y-1.1564
X3.3332Y-3.156
X3.4269Y-1.2872
X3.4648Y-1.8003
X3.4862Y-3.0078
X3.487Y-1.041
X3.5274Y-2.9928
X3.719Y-1.0303
X3.7298Y-2.7507
X3.7639Y-1.7494
X3.7663Y-1.6497
X3.8233Y-1.3034
X3.8466Y-2.9968
X3.8708Y-2.9658
X3.8719Y-1.775
X3.8995Y-1.7364
X3.9174Y-1.7627
X3.942Y-2.8878
X3.9462Y-1.7765
X3.9572Y-1.8061
X3.9888Y-1.8078
X4.0459Y-2.8519
X4.0958Y-1.8861
X4.1412Y-1.8443
X4.1633Y-0.9856
X4.1686Y-1.5795
X4.1942Y-0.9979
X4.2147Y-2.8257
X4.3036Y-2.9608
X4.443Y-2.8161
X4.4517Y-1.3676
T2
X1.0976Y-3.3411
X1.1997Y-1.7354
X1.4139Y-3.1968
X1.4357Y-3.3419
X1.4371Y-2.0282
X1.5186Y-1.9294
X1.5472Y-1.8138
X1.6548Y-3.167
X1.6699Y-1.9106
X1.8659Y-2.5755
X1.923Y-1.4539
X1.9416Y-1.5471
X1.9466Y-1.349
X1.9753Y-1.014
X2.0227Y-2.5765
X2.118Y-1.8833
X2.1267Y-2.0922
X2.381Y-1.4452
X2.5146Y-1.3675
X2.6863Y-1.3063
X2.721Y-1.8643
X2.7756Y-1.3501
X2.8072Y-1.5281
X2.8457Y-1.321
X2.9438Y-0.9259
X2.9532Y-1.4841
X3.1393Y-1.3038
X3.1709Y-1.894
X3.2773Y-1.2295
X3.3785Y-0.8873
X3.5003Y-1.499
X3.5979Y-1.3045
X3.6202Y-1.8897
X3.7309Y-1.2255
X3.7379Y-1.4499
X3.8454Y-0.8844
X3.873Y-1.4217
X3.8776Y-3.5036
X3.8829Y-1.5001
X4.0287Y-1.4231
X4.032Y-0.8979
X4.0728Y-1.7199
X4.117Y-1.2533
X4.1234Y-3.3655
X4.1239Y-3.1621
X4.248Y-1.2513
X4.2963Y-0.9285
X4.526Y-1.7177
X4.5516Y-2.806
X4.5765Y-3.3956
T3
X1.7Y-1.3
X1.75Y-1.3
X1.8Y-1.3
T4
X1.2622Y-1.025
X1.2622Y-1.4
X1.275Y-2.075
X1.275Y-2.175
X1.275Y-2.275
X1.275Y-2.375
X1.275Y-2.475
X1.275Y-2.575
X1.275Y-2.675
X1.275Y-2.775
X1.275Y-2.875
X1.275Y-2.975
X1.275Y-3.075
X1.275Y-3.175
X1.275Y-3.4
X1.275Y-3.5
X1.275Y-3.6
X1.275Y-3.7
X1.275Y-3.8
X1.275Y-3.9
X1.275Y-4.0
X1.275Y-4.1
X1.275Y-4.2
X1.275Y-4.3
X1.275Y-4.4
X1.275Y-4.5
X1.4Y-1.025
X1.4Y-1.4
X1.575Y-2.075
X1.575Y-2.175
X1.575Y-2.275
X1.575Y-2.375
X1.575Y-2.475
X1.575Y-2.575
X1.575Y-2.675
X1.575Y-2.775
X1.575Y-2.875
X1.575Y-2.975
X1.575Y-3.075
X1.575Y-3.175
X1.575Y-3.4
X1.575Y-3.5
X1.575Y-3.6
X1.575Y-3.7
X1.575Y-3.8
X1.575Y-3.9
X1.575Y-4.0
X1.575Y-4.1
X1.575Y-4.2
X1.575Y-4.3
X1.575Y-4.4
X1.575Y-4.5
X1.975Y-3.1087
X1.975Y-3.7087
X1.975Y-3.9
X1.975Y-4.5
X2.075Y-3.1087
X2.075Y-3.7087
X2.075Y-3.9
X2.075Y-4.5
X2.175Y-3.1087
X2.175Y-3.7087
X2.175Y-3.9
X2.175Y-4.5
X2.275Y-3.1087
X2.275Y-3.7087
X2.275Y-3.9
X2.275Y-4.5
X2.32Y-2.08
X2.32Y-2.68
X2.375Y-3.1087
X2.375Y-3.7087
X2.375Y-3.9
X2.375Y-4.5
X2.42Y-2.08
X2.42Y-2.68
X2.475Y-3.1087
X2.475Y-3.7087
X2.475Y-3.9
X2.475Y-4.5
X2.52Y-2.08
X2.52Y-2.68
X2.575Y-3.1087
X2.575Y-3.7087
X2.575Y-3.9
X2.575Y-4.5
X2.62Y-2.08
X2.62Y-2.68
X2.675Y-3.1087
X2.675Y-3.7087
X2.675Y-3.9
X2.675Y-4.5
X2.72Y-2.08
X2.72Y-2.68
X2.775Y-3.1087
X2.775Y-3.7087
X2.775Y-3.9
X2.775Y-4.5
X2.82Y-2.08
X2.82Y-2.68
X2.875Y-3.1087
X2.875Y-3.7087
X2.875Y-3.9
X2.875Y-4.5
X2.92Y-2.08
X2.92Y-2.68
X2.975Y-3.1087
X2.975Y-3.7087
X2.975Y-3.9
X2.975Y-4.5
X3.02Y-2.08
X3.02Y-2.68
X3.075Y-3.1087
X3.075Y-3.7087
X3.075Y-3.9
X3.075Y-4.5
X3.12Y-2.08
X3.12Y-2.68
X3.175Y-3.1087
X3.175Y-3.7087
X3.175Y-3.9
X3.175Y-4.5
X3.22Y-2.08
X3.22Y-2.68
X3.275Y-3.1087
X3.275Y-3.7087
X3.275Y-3.9
X3.275Y-4.5
X3.32Y-2.08
X3.32Y-2.68
X3.375Y-3.1087
X3.375Y-3.7087
X3.375Y-3.9
X3.375Y-4.5
X3.42Y-2.08
X3.42Y-2.68
X3.475Y-3.1087
X3.475Y-3.7087
X3.475Y-3.9
X3.475Y-4.5
X3.52Y-2.08
X3.52Y-2.68
X3.575Y-3.1087
X3.575Y-3.7087
X3.575Y-3.9
X3.575Y-4.5
X3.62Y-2.08
X3.62Y-2.68
X3.675Y-3.1087
X3.675Y-3.7087
X3.675Y-3.9
X3.675Y-4.5
X3.72Y-2.08
X3.72Y-2.68
X3.775Y-3.1087
X3.775Y-3.7087
X3.775Y-3.9
X3.775Y-4.5
X3.82Y-2.08
X3.82Y-2.68
X3.875Y-3.1087
X3.875Y-3.7087
X3.875Y-3.9
X3.875Y-4.5
X3.92Y-2.08
X3.92Y-2.68
X3.975Y-3.9
X3.975Y-4.5
X4.02Y-2.08
X4.02Y-2.68
X4.075Y-3.9
X4.075Y-4.5
X4.12Y-2.08
X4.12Y-2.68
X4.175Y-3.9
X4.175Y-4.5
X4.22Y-2.08
X4.22Y-2.68
X4.275Y-3.9
X4.275Y-4.5
X4.32Y-2.08
X4.32Y-2.68
X4.42Y-2.08
X4.42Y-2.68
X4.52Y-2.08
X4.52Y-2.68
X4.62Y-2.08
X4.62Y-2.68
T5
X0.8874Y-1.2047
X0.8874Y-1.3047
X0.8874Y-1.4047
X0.8874Y-1.5047
X0.8874Y-1.8059
X0.8874Y-1.9059
X0.8874Y-2.0059
X0.8874Y-2.1059
X0.8874Y-2.2059
X0.8874Y-2.3059
X0.8874Y-2.4059
X0.8874Y-2.5059
X0.8874Y-2.6059
X0.8874Y-2.7059
X0.8874Y-2.8059
X0.8874Y-2.9059
X0.8874Y-3.0059
X0.8874Y-3.1059
X0.8874Y-3.2059
X0.8874Y-3.3059
X0.8874Y-3.4059
X0.8874Y-3.5059
X0.8874Y-3.6059
X0.8874Y-3.7059
X0.8874Y-4.0071
X0.8874Y-4.1071
X0.8874Y-4.2071
X0.8874Y-4.3071
X0.9874Y-1.2047
X0.9874Y-1.3047
X0.9874Y-1.4047
X0.9874Y-1.5047
X0.9874Y-1.8059
X0.9874Y-1.9059
X0.9874Y-2.0059
X0.9874Y-2.1059
X0.9874Y-2.2059
X0.9874Y-2.3059
X0.9874Y-2.4059
X0.9874Y-2.5059
X0.9874Y-2.6059
X0.9874Y-2.7059
X0.9874Y-2.8059
X0.9874Y-2.9059
X0.9874Y-3.0059
X0.9874Y-3.1059
X0.9874Y-3.2059
X0.9874Y-3.3059
X0.9874Y-3.4059
X0.9874Y-3.5059
X0.9874Y-3.6059
X0.9874Y-3.7059
X0.9874Y-4.0071
X0.9874Y-4.1071
X0.9874Y-4.2071
X0.9874Y-4.3071
X2.1128Y-1.15
X2.18Y-0.95
X2.2128Y-1.15
X2.28Y-0.95
X2.3128Y-1.15
X2.38Y-0.95
X2.4128Y-1.15
X2.48Y-0.95
X2.5128Y-1.15
T5
G00X1.7972Y-1.1378
M15
G01X1.7972Y-1.0906
M16
G05
T6
G00X1.8169Y-0.9606
M15
G01X1.7776Y-0.9606
M16
G05
T0
M30
