%TF.GenerationSoftware,KiCad,Pcbnew,(5.1.9)-1*%
%TF.CreationDate,2021-06-06T15:03:33-04:00*%
%TF.ProjectId,main,6d61696e-2e6b-4696-9361-645f70636258,rev?*%
%TF.SameCoordinates,Original*%
%TF.FileFunction,Legend,Bot*%
%TF.FilePolarity,Positive*%
%FSLAX46Y46*%
G04 Gerber Fmt 4.6, Leading zero omitted, Abs format (unit mm)*
G04 Created by KiCad (PCBNEW (5.1.9)-1) date 2021-06-06 15:03:33*
%MOMM*%
%LPD*%
G01*
G04 APERTURE LIST*
%ADD10C,0.120000*%
%ADD11C,0.150000*%
G04 APERTURE END LIST*
D10*
%TO.C,R5*%
X33120000Y-40135436D02*
X33120000Y-40589564D01*
X31650000Y-40135436D02*
X31650000Y-40589564D01*
%TO.C,R4*%
X73760000Y-42317936D02*
X73760000Y-42772064D01*
X72290000Y-42317936D02*
X72290000Y-42772064D01*
%TO.C,C5*%
X46616252Y-76935000D02*
X46093748Y-76935000D01*
X46616252Y-75465000D02*
X46093748Y-75465000D01*
%TO.C,C4*%
X64396252Y-43915000D02*
X63873748Y-43915000D01*
X64396252Y-42445000D02*
X63873748Y-42445000D01*
%TO.C,C2*%
X46616252Y-43915000D02*
X46093748Y-43915000D01*
X46616252Y-42445000D02*
X46093748Y-42445000D01*
%TO.C,C1*%
X64396252Y-76935000D02*
X63873748Y-76935000D01*
X64396252Y-75465000D02*
X63873748Y-75465000D01*
%TO.C,R3*%
X54382936Y-75465000D02*
X54837064Y-75465000D01*
X54382936Y-76935000D02*
X54837064Y-76935000D01*
%TO.C,R2*%
X46127936Y-65305000D02*
X46582064Y-65305000D01*
X46127936Y-66775000D02*
X46582064Y-66775000D01*
%TO.C,R1*%
X45312064Y-51535000D02*
X44857936Y-51535000D01*
X45312064Y-50065000D02*
X44857936Y-50065000D01*
%TO.C,C21*%
X37637800Y-31522648D02*
X37637800Y-32045152D01*
X39107800Y-31522648D02*
X39107800Y-32045152D01*
%TO.C,C20*%
X44262000Y-31522648D02*
X44262000Y-32045152D01*
X45732000Y-31522648D02*
X45732000Y-32045152D01*
%TO.C,C18*%
X111386252Y-89435000D02*
X110863748Y-89435000D01*
X111386252Y-90905000D02*
X110863748Y-90905000D01*
%TO.C,C15*%
X83761252Y-53875000D02*
X83238748Y-53875000D01*
X83761252Y-55345000D02*
X83238748Y-55345000D01*
%TO.C,C13*%
X111386252Y-53875000D02*
X110863748Y-53875000D01*
X111386252Y-55345000D02*
X110863748Y-55345000D01*
%TO.C,C11*%
X111386252Y-71655000D02*
X110863748Y-71655000D01*
X111386252Y-73125000D02*
X110863748Y-73125000D01*
%TO.C,C9*%
X111386252Y-36095000D02*
X110863748Y-36095000D01*
X111386252Y-37565000D02*
X110863748Y-37565000D01*
%TO.C,R5*%
D11*
X31187380Y-40195833D02*
X30711190Y-39862500D01*
X31187380Y-39624404D02*
X30187380Y-39624404D01*
X30187380Y-40005357D01*
X30235000Y-40100595D01*
X30282619Y-40148214D01*
X30377857Y-40195833D01*
X30520714Y-40195833D01*
X30615952Y-40148214D01*
X30663571Y-40100595D01*
X30711190Y-40005357D01*
X30711190Y-39624404D01*
X30187380Y-41100595D02*
X30187380Y-40624404D01*
X30663571Y-40576785D01*
X30615952Y-40624404D01*
X30568333Y-40719642D01*
X30568333Y-40957738D01*
X30615952Y-41052976D01*
X30663571Y-41100595D01*
X30758809Y-41148214D01*
X30996904Y-41148214D01*
X31092142Y-41100595D01*
X31139761Y-41052976D01*
X31187380Y-40957738D01*
X31187380Y-40719642D01*
X31139761Y-40624404D01*
X31092142Y-40576785D01*
%TO.C,R4*%
X71827380Y-42378333D02*
X71351190Y-42045000D01*
X71827380Y-41806904D02*
X70827380Y-41806904D01*
X70827380Y-42187857D01*
X70875000Y-42283095D01*
X70922619Y-42330714D01*
X71017857Y-42378333D01*
X71160714Y-42378333D01*
X71255952Y-42330714D01*
X71303571Y-42283095D01*
X71351190Y-42187857D01*
X71351190Y-41806904D01*
X71160714Y-43235476D02*
X71827380Y-43235476D01*
X70779761Y-42997380D02*
X71494047Y-42759285D01*
X71494047Y-43378333D01*
%TO.C,C5*%
X46521666Y-74877142D02*
X46569285Y-74924761D01*
X46712142Y-74972380D01*
X46807380Y-74972380D01*
X46950238Y-74924761D01*
X47045476Y-74829523D01*
X47093095Y-74734285D01*
X47140714Y-74543809D01*
X47140714Y-74400952D01*
X47093095Y-74210476D01*
X47045476Y-74115238D01*
X46950238Y-74020000D01*
X46807380Y-73972380D01*
X46712142Y-73972380D01*
X46569285Y-74020000D01*
X46521666Y-74067619D01*
X45616904Y-73972380D02*
X46093095Y-73972380D01*
X46140714Y-74448571D01*
X46093095Y-74400952D01*
X45997857Y-74353333D01*
X45759761Y-74353333D01*
X45664523Y-74400952D01*
X45616904Y-74448571D01*
X45569285Y-74543809D01*
X45569285Y-74781904D01*
X45616904Y-74877142D01*
X45664523Y-74924761D01*
X45759761Y-74972380D01*
X45997857Y-74972380D01*
X46093095Y-74924761D01*
X46140714Y-74877142D01*
%TO.C,C4*%
X64301666Y-41857142D02*
X64349285Y-41904761D01*
X64492142Y-41952380D01*
X64587380Y-41952380D01*
X64730238Y-41904761D01*
X64825476Y-41809523D01*
X64873095Y-41714285D01*
X64920714Y-41523809D01*
X64920714Y-41380952D01*
X64873095Y-41190476D01*
X64825476Y-41095238D01*
X64730238Y-41000000D01*
X64587380Y-40952380D01*
X64492142Y-40952380D01*
X64349285Y-41000000D01*
X64301666Y-41047619D01*
X63444523Y-41285714D02*
X63444523Y-41952380D01*
X63682619Y-40904761D02*
X63920714Y-41619047D01*
X63301666Y-41619047D01*
%TO.C,C2*%
X46521666Y-41857142D02*
X46569285Y-41904761D01*
X46712142Y-41952380D01*
X46807380Y-41952380D01*
X46950238Y-41904761D01*
X47045476Y-41809523D01*
X47093095Y-41714285D01*
X47140714Y-41523809D01*
X47140714Y-41380952D01*
X47093095Y-41190476D01*
X47045476Y-41095238D01*
X46950238Y-41000000D01*
X46807380Y-40952380D01*
X46712142Y-40952380D01*
X46569285Y-41000000D01*
X46521666Y-41047619D01*
X46140714Y-41047619D02*
X46093095Y-41000000D01*
X45997857Y-40952380D01*
X45759761Y-40952380D01*
X45664523Y-41000000D01*
X45616904Y-41047619D01*
X45569285Y-41142857D01*
X45569285Y-41238095D01*
X45616904Y-41380952D01*
X46188333Y-41952380D01*
X45569285Y-41952380D01*
%TO.C,C1*%
X64301666Y-74877142D02*
X64349285Y-74924761D01*
X64492142Y-74972380D01*
X64587380Y-74972380D01*
X64730238Y-74924761D01*
X64825476Y-74829523D01*
X64873095Y-74734285D01*
X64920714Y-74543809D01*
X64920714Y-74400952D01*
X64873095Y-74210476D01*
X64825476Y-74115238D01*
X64730238Y-74020000D01*
X64587380Y-73972380D01*
X64492142Y-73972380D01*
X64349285Y-74020000D01*
X64301666Y-74067619D01*
X63349285Y-74972380D02*
X63920714Y-74972380D01*
X63635000Y-74972380D02*
X63635000Y-73972380D01*
X63730238Y-74115238D01*
X63825476Y-74210476D01*
X63920714Y-74258095D01*
%TO.C,R3*%
X54776666Y-78302380D02*
X55110000Y-77826190D01*
X55348095Y-78302380D02*
X55348095Y-77302380D01*
X54967142Y-77302380D01*
X54871904Y-77350000D01*
X54824285Y-77397619D01*
X54776666Y-77492857D01*
X54776666Y-77635714D01*
X54824285Y-77730952D01*
X54871904Y-77778571D01*
X54967142Y-77826190D01*
X55348095Y-77826190D01*
X54443333Y-77302380D02*
X53824285Y-77302380D01*
X54157619Y-77683333D01*
X54014761Y-77683333D01*
X53919523Y-77730952D01*
X53871904Y-77778571D01*
X53824285Y-77873809D01*
X53824285Y-78111904D01*
X53871904Y-78207142D01*
X53919523Y-78254761D01*
X54014761Y-78302380D01*
X54300476Y-78302380D01*
X54395714Y-78254761D01*
X54443333Y-78207142D01*
%TO.C,R2*%
X46521666Y-68142380D02*
X46855000Y-67666190D01*
X47093095Y-68142380D02*
X47093095Y-67142380D01*
X46712142Y-67142380D01*
X46616904Y-67190000D01*
X46569285Y-67237619D01*
X46521666Y-67332857D01*
X46521666Y-67475714D01*
X46569285Y-67570952D01*
X46616904Y-67618571D01*
X46712142Y-67666190D01*
X47093095Y-67666190D01*
X46140714Y-67237619D02*
X46093095Y-67190000D01*
X45997857Y-67142380D01*
X45759761Y-67142380D01*
X45664523Y-67190000D01*
X45616904Y-67237619D01*
X45569285Y-67332857D01*
X45569285Y-67428095D01*
X45616904Y-67570952D01*
X46188333Y-68142380D01*
X45569285Y-68142380D01*
%TO.C,R1*%
X45251666Y-49602380D02*
X45585000Y-49126190D01*
X45823095Y-49602380D02*
X45823095Y-48602380D01*
X45442142Y-48602380D01*
X45346904Y-48650000D01*
X45299285Y-48697619D01*
X45251666Y-48792857D01*
X45251666Y-48935714D01*
X45299285Y-49030952D01*
X45346904Y-49078571D01*
X45442142Y-49126190D01*
X45823095Y-49126190D01*
X44299285Y-49602380D02*
X44870714Y-49602380D01*
X44585000Y-49602380D02*
X44585000Y-48602380D01*
X44680238Y-48745238D01*
X44775476Y-48840476D01*
X44870714Y-48888095D01*
%TO.C,C21*%
X40380942Y-31141042D02*
X40428561Y-31093423D01*
X40476180Y-30950566D01*
X40476180Y-30855328D01*
X40428561Y-30712471D01*
X40333323Y-30617233D01*
X40238085Y-30569614D01*
X40047609Y-30521995D01*
X39904752Y-30521995D01*
X39714276Y-30569614D01*
X39619038Y-30617233D01*
X39523800Y-30712471D01*
X39476180Y-30855328D01*
X39476180Y-30950566D01*
X39523800Y-31093423D01*
X39571419Y-31141042D01*
X39571419Y-31521995D02*
X39523800Y-31569614D01*
X39476180Y-31664852D01*
X39476180Y-31902947D01*
X39523800Y-31998185D01*
X39571419Y-32045804D01*
X39666657Y-32093423D01*
X39761895Y-32093423D01*
X39904752Y-32045804D01*
X40476180Y-31474376D01*
X40476180Y-32093423D01*
X40476180Y-33045804D02*
X40476180Y-32474376D01*
X40476180Y-32760090D02*
X39476180Y-32760090D01*
X39619038Y-32664852D01*
X39714276Y-32569614D01*
X39761895Y-32474376D01*
%TO.C,C20*%
X43576142Y-31141042D02*
X43623761Y-31093423D01*
X43671380Y-30950566D01*
X43671380Y-30855328D01*
X43623761Y-30712471D01*
X43528523Y-30617233D01*
X43433285Y-30569614D01*
X43242809Y-30521995D01*
X43099952Y-30521995D01*
X42909476Y-30569614D01*
X42814238Y-30617233D01*
X42719000Y-30712471D01*
X42671380Y-30855328D01*
X42671380Y-30950566D01*
X42719000Y-31093423D01*
X42766619Y-31141042D01*
X42766619Y-31521995D02*
X42719000Y-31569614D01*
X42671380Y-31664852D01*
X42671380Y-31902947D01*
X42719000Y-31998185D01*
X42766619Y-32045804D01*
X42861857Y-32093423D01*
X42957095Y-32093423D01*
X43099952Y-32045804D01*
X43671380Y-31474376D01*
X43671380Y-32093423D01*
X42671380Y-32712471D02*
X42671380Y-32807709D01*
X42719000Y-32902947D01*
X42766619Y-32950566D01*
X42861857Y-32998185D01*
X43052333Y-33045804D01*
X43290428Y-33045804D01*
X43480904Y-32998185D01*
X43576142Y-32950566D01*
X43623761Y-32902947D01*
X43671380Y-32807709D01*
X43671380Y-32712471D01*
X43623761Y-32617233D01*
X43576142Y-32569614D01*
X43480904Y-32521995D01*
X43290428Y-32474376D01*
X43052333Y-32474376D01*
X42861857Y-32521995D01*
X42766619Y-32569614D01*
X42719000Y-32617233D01*
X42671380Y-32712471D01*
%TO.C,C18*%
X111767857Y-88847142D02*
X111815476Y-88894761D01*
X111958333Y-88942380D01*
X112053571Y-88942380D01*
X112196428Y-88894761D01*
X112291666Y-88799523D01*
X112339285Y-88704285D01*
X112386904Y-88513809D01*
X112386904Y-88370952D01*
X112339285Y-88180476D01*
X112291666Y-88085238D01*
X112196428Y-87990000D01*
X112053571Y-87942380D01*
X111958333Y-87942380D01*
X111815476Y-87990000D01*
X111767857Y-88037619D01*
X110815476Y-88942380D02*
X111386904Y-88942380D01*
X111101190Y-88942380D02*
X111101190Y-87942380D01*
X111196428Y-88085238D01*
X111291666Y-88180476D01*
X111386904Y-88228095D01*
X110244047Y-88370952D02*
X110339285Y-88323333D01*
X110386904Y-88275714D01*
X110434523Y-88180476D01*
X110434523Y-88132857D01*
X110386904Y-88037619D01*
X110339285Y-87990000D01*
X110244047Y-87942380D01*
X110053571Y-87942380D01*
X109958333Y-87990000D01*
X109910714Y-88037619D01*
X109863095Y-88132857D01*
X109863095Y-88180476D01*
X109910714Y-88275714D01*
X109958333Y-88323333D01*
X110053571Y-88370952D01*
X110244047Y-88370952D01*
X110339285Y-88418571D01*
X110386904Y-88466190D01*
X110434523Y-88561428D01*
X110434523Y-88751904D01*
X110386904Y-88847142D01*
X110339285Y-88894761D01*
X110244047Y-88942380D01*
X110053571Y-88942380D01*
X109958333Y-88894761D01*
X109910714Y-88847142D01*
X109863095Y-88751904D01*
X109863095Y-88561428D01*
X109910714Y-88466190D01*
X109958333Y-88418571D01*
X110053571Y-88370952D01*
%TO.C,C15*%
X84203857Y-56618142D02*
X84251476Y-56665761D01*
X84394333Y-56713380D01*
X84489571Y-56713380D01*
X84632428Y-56665761D01*
X84727666Y-56570523D01*
X84775285Y-56475285D01*
X84822904Y-56284809D01*
X84822904Y-56141952D01*
X84775285Y-55951476D01*
X84727666Y-55856238D01*
X84632428Y-55761000D01*
X84489571Y-55713380D01*
X84394333Y-55713380D01*
X84251476Y-55761000D01*
X84203857Y-55808619D01*
X83251476Y-56713380D02*
X83822904Y-56713380D01*
X83537190Y-56713380D02*
X83537190Y-55713380D01*
X83632428Y-55856238D01*
X83727666Y-55951476D01*
X83822904Y-55999095D01*
X82346714Y-55713380D02*
X82822904Y-55713380D01*
X82870523Y-56189571D01*
X82822904Y-56141952D01*
X82727666Y-56094333D01*
X82489571Y-56094333D01*
X82394333Y-56141952D01*
X82346714Y-56189571D01*
X82299095Y-56284809D01*
X82299095Y-56522904D01*
X82346714Y-56618142D01*
X82394333Y-56665761D01*
X82489571Y-56713380D01*
X82727666Y-56713380D01*
X82822904Y-56665761D01*
X82870523Y-56618142D01*
%TO.C,C13*%
X111767857Y-53287142D02*
X111815476Y-53334761D01*
X111958333Y-53382380D01*
X112053571Y-53382380D01*
X112196428Y-53334761D01*
X112291666Y-53239523D01*
X112339285Y-53144285D01*
X112386904Y-52953809D01*
X112386904Y-52810952D01*
X112339285Y-52620476D01*
X112291666Y-52525238D01*
X112196428Y-52430000D01*
X112053571Y-52382380D01*
X111958333Y-52382380D01*
X111815476Y-52430000D01*
X111767857Y-52477619D01*
X110815476Y-53382380D02*
X111386904Y-53382380D01*
X111101190Y-53382380D02*
X111101190Y-52382380D01*
X111196428Y-52525238D01*
X111291666Y-52620476D01*
X111386904Y-52668095D01*
X110482142Y-52382380D02*
X109863095Y-52382380D01*
X110196428Y-52763333D01*
X110053571Y-52763333D01*
X109958333Y-52810952D01*
X109910714Y-52858571D01*
X109863095Y-52953809D01*
X109863095Y-53191904D01*
X109910714Y-53287142D01*
X109958333Y-53334761D01*
X110053571Y-53382380D01*
X110339285Y-53382380D01*
X110434523Y-53334761D01*
X110482142Y-53287142D01*
%TO.C,C11*%
X111767857Y-71067142D02*
X111815476Y-71114761D01*
X111958333Y-71162380D01*
X112053571Y-71162380D01*
X112196428Y-71114761D01*
X112291666Y-71019523D01*
X112339285Y-70924285D01*
X112386904Y-70733809D01*
X112386904Y-70590952D01*
X112339285Y-70400476D01*
X112291666Y-70305238D01*
X112196428Y-70210000D01*
X112053571Y-70162380D01*
X111958333Y-70162380D01*
X111815476Y-70210000D01*
X111767857Y-70257619D01*
X110815476Y-71162380D02*
X111386904Y-71162380D01*
X111101190Y-71162380D02*
X111101190Y-70162380D01*
X111196428Y-70305238D01*
X111291666Y-70400476D01*
X111386904Y-70448095D01*
X109863095Y-71162380D02*
X110434523Y-71162380D01*
X110148809Y-71162380D02*
X110148809Y-70162380D01*
X110244047Y-70305238D01*
X110339285Y-70400476D01*
X110434523Y-70448095D01*
%TO.C,C9*%
X111291666Y-35507142D02*
X111339285Y-35554761D01*
X111482142Y-35602380D01*
X111577380Y-35602380D01*
X111720238Y-35554761D01*
X111815476Y-35459523D01*
X111863095Y-35364285D01*
X111910714Y-35173809D01*
X111910714Y-35030952D01*
X111863095Y-34840476D01*
X111815476Y-34745238D01*
X111720238Y-34650000D01*
X111577380Y-34602380D01*
X111482142Y-34602380D01*
X111339285Y-34650000D01*
X111291666Y-34697619D01*
X110815476Y-35602380D02*
X110625000Y-35602380D01*
X110529761Y-35554761D01*
X110482142Y-35507142D01*
X110386904Y-35364285D01*
X110339285Y-35173809D01*
X110339285Y-34792857D01*
X110386904Y-34697619D01*
X110434523Y-34650000D01*
X110529761Y-34602380D01*
X110720238Y-34602380D01*
X110815476Y-34650000D01*
X110863095Y-34697619D01*
X110910714Y-34792857D01*
X110910714Y-35030952D01*
X110863095Y-35126190D01*
X110815476Y-35173809D01*
X110720238Y-35221428D01*
X110529761Y-35221428D01*
X110434523Y-35173809D01*
X110386904Y-35126190D01*
X110339285Y-35030952D01*
%TD*%
M02*
