%TF.GenerationSoftware,KiCad,Pcbnew,(5.1.9)-1*%
%TF.CreationDate,2021-06-06T15:03:33-04:00*%
%TF.ProjectId,main,6d61696e-2e6b-4696-9361-645f70636258,rev?*%
%TF.SameCoordinates,Original*%
%TF.FileFunction,Legend,Top*%
%TF.FilePolarity,Positive*%
%FSLAX46Y46*%
G04 Gerber Fmt 4.6, Leading zero omitted, Abs format (unit mm)*
G04 Created by KiCad (PCBNEW (5.1.9)-1) date 2021-06-06 15:03:33*
%MOMM*%
%LPD*%
G01*
G04 APERTURE LIST*
%ADD10C,0.200000*%
%ADD11C,0.100000*%
%ADD12C,0.120000*%
%ADD13C,0.150000*%
G04 APERTURE END LIST*
D10*
X51842142Y-22312380D02*
X52413571Y-22312380D01*
X52127857Y-23312380D02*
X52127857Y-22312380D01*
X53318333Y-23312380D02*
X52985000Y-22836190D01*
X52746904Y-23312380D02*
X52746904Y-22312380D01*
X53127857Y-22312380D01*
X53223095Y-22360000D01*
X53270714Y-22407619D01*
X53318333Y-22502857D01*
X53318333Y-22645714D01*
X53270714Y-22740952D01*
X53223095Y-22788571D01*
X53127857Y-22836190D01*
X52746904Y-22836190D01*
X53699285Y-23264761D02*
X53842142Y-23312380D01*
X54080238Y-23312380D01*
X54175476Y-23264761D01*
X54223095Y-23217142D01*
X54270714Y-23121904D01*
X54270714Y-23026666D01*
X54223095Y-22931428D01*
X54175476Y-22883809D01*
X54080238Y-22836190D01*
X53889761Y-22788571D01*
X53794523Y-22740952D01*
X53746904Y-22693333D01*
X53699285Y-22598095D01*
X53699285Y-22502857D01*
X53746904Y-22407619D01*
X53794523Y-22360000D01*
X53889761Y-22312380D01*
X54127857Y-22312380D01*
X54270714Y-22360000D01*
X54699285Y-22931428D02*
X55461190Y-22931428D01*
X56080238Y-22740952D02*
X55985000Y-22693333D01*
X55937380Y-22645714D01*
X55889761Y-22550476D01*
X55889761Y-22502857D01*
X55937380Y-22407619D01*
X55985000Y-22360000D01*
X56080238Y-22312380D01*
X56270714Y-22312380D01*
X56365952Y-22360000D01*
X56413571Y-22407619D01*
X56461190Y-22502857D01*
X56461190Y-22550476D01*
X56413571Y-22645714D01*
X56365952Y-22693333D01*
X56270714Y-22740952D01*
X56080238Y-22740952D01*
X55985000Y-22788571D01*
X55937380Y-22836190D01*
X55889761Y-22931428D01*
X55889761Y-23121904D01*
X55937380Y-23217142D01*
X55985000Y-23264761D01*
X56080238Y-23312380D01*
X56270714Y-23312380D01*
X56365952Y-23264761D01*
X56413571Y-23217142D01*
X56461190Y-23121904D01*
X56461190Y-22931428D01*
X56413571Y-22836190D01*
X56365952Y-22788571D01*
X56270714Y-22740952D01*
X57080238Y-22312380D02*
X57175476Y-22312380D01*
X57270714Y-22360000D01*
X57318333Y-22407619D01*
X57365952Y-22502857D01*
X57413571Y-22693333D01*
X57413571Y-22931428D01*
X57365952Y-23121904D01*
X57318333Y-23217142D01*
X57270714Y-23264761D01*
X57175476Y-23312380D01*
X57080238Y-23312380D01*
X56985000Y-23264761D01*
X56937380Y-23217142D01*
X56889761Y-23121904D01*
X56842142Y-22931428D01*
X56842142Y-22693333D01*
X56889761Y-22502857D01*
X56937380Y-22407619D01*
X56985000Y-22360000D01*
X57080238Y-22312380D01*
X58604047Y-22788571D02*
X58937380Y-22788571D01*
X59080238Y-23312380D02*
X58604047Y-23312380D01*
X58604047Y-22312380D01*
X59080238Y-22312380D01*
X59413571Y-22312380D02*
X60080238Y-23312380D01*
X60080238Y-22312380D02*
X59413571Y-23312380D01*
X60461190Y-23312380D02*
X60461190Y-22312380D01*
X60842142Y-22312380D01*
X60937380Y-22360000D01*
X60985000Y-22407619D01*
X61032619Y-22502857D01*
X61032619Y-22645714D01*
X60985000Y-22740952D01*
X60937380Y-22788571D01*
X60842142Y-22836190D01*
X60461190Y-22836190D01*
X61413571Y-23026666D02*
X61889761Y-23026666D01*
X61318333Y-23312380D02*
X61651666Y-22312380D01*
X61985000Y-23312380D01*
X62318333Y-23312380D02*
X62318333Y-22312380D01*
X62889761Y-23312380D01*
X62889761Y-22312380D01*
X63318333Y-23264761D02*
X63461190Y-23312380D01*
X63699285Y-23312380D01*
X63794523Y-23264761D01*
X63842142Y-23217142D01*
X63889761Y-23121904D01*
X63889761Y-23026666D01*
X63842142Y-22931428D01*
X63794523Y-22883809D01*
X63699285Y-22836190D01*
X63508809Y-22788571D01*
X63413571Y-22740952D01*
X63365952Y-22693333D01*
X63318333Y-22598095D01*
X63318333Y-22502857D01*
X63365952Y-22407619D01*
X63413571Y-22360000D01*
X63508809Y-22312380D01*
X63746904Y-22312380D01*
X63889761Y-22360000D01*
X64318333Y-23312380D02*
X64318333Y-22312380D01*
X64985000Y-22312380D02*
X65175476Y-22312380D01*
X65270714Y-22360000D01*
X65365952Y-22455238D01*
X65413571Y-22645714D01*
X65413571Y-22979047D01*
X65365952Y-23169523D01*
X65270714Y-23264761D01*
X65175476Y-23312380D01*
X64985000Y-23312380D01*
X64889761Y-23264761D01*
X64794523Y-23169523D01*
X64746904Y-22979047D01*
X64746904Y-22645714D01*
X64794523Y-22455238D01*
X64889761Y-22360000D01*
X64985000Y-22312380D01*
X65842142Y-23312380D02*
X65842142Y-22312380D01*
X66413571Y-23312380D01*
X66413571Y-22312380D01*
X67985000Y-22788571D02*
X68127857Y-22836190D01*
X68175476Y-22883809D01*
X68223095Y-22979047D01*
X68223095Y-23121904D01*
X68175476Y-23217142D01*
X68127857Y-23264761D01*
X68032619Y-23312380D01*
X67651666Y-23312380D01*
X67651666Y-22312380D01*
X67985000Y-22312380D01*
X68080238Y-22360000D01*
X68127857Y-22407619D01*
X68175476Y-22502857D01*
X68175476Y-22598095D01*
X68127857Y-22693333D01*
X68080238Y-22740952D01*
X67985000Y-22788571D01*
X67651666Y-22788571D01*
X69223095Y-23312380D02*
X68889761Y-22836190D01*
X68651666Y-23312380D02*
X68651666Y-22312380D01*
X69032619Y-22312380D01*
X69127857Y-22360000D01*
X69175476Y-22407619D01*
X69223095Y-22502857D01*
X69223095Y-22645714D01*
X69175476Y-22740952D01*
X69127857Y-22788571D01*
X69032619Y-22836190D01*
X68651666Y-22836190D01*
X69651666Y-22788571D02*
X69985000Y-22788571D01*
X70127857Y-23312380D02*
X69651666Y-23312380D01*
X69651666Y-22312380D01*
X70127857Y-22312380D01*
X70508809Y-23026666D02*
X70985000Y-23026666D01*
X70413571Y-23312380D02*
X70746904Y-22312380D01*
X71080238Y-23312380D01*
X71413571Y-23312380D02*
X71413571Y-22312380D01*
X71985000Y-23312380D02*
X71556428Y-22740952D01*
X71985000Y-22312380D02*
X71413571Y-22883809D01*
X72604047Y-22312380D02*
X72794523Y-22312380D01*
X72889761Y-22360000D01*
X72985000Y-22455238D01*
X73032619Y-22645714D01*
X73032619Y-22979047D01*
X72985000Y-23169523D01*
X72889761Y-23264761D01*
X72794523Y-23312380D01*
X72604047Y-23312380D01*
X72508809Y-23264761D01*
X72413571Y-23169523D01*
X72365952Y-22979047D01*
X72365952Y-22645714D01*
X72413571Y-22455238D01*
X72508809Y-22360000D01*
X72604047Y-22312380D01*
X73461190Y-22312380D02*
X73461190Y-23121904D01*
X73508809Y-23217142D01*
X73556428Y-23264761D01*
X73651666Y-23312380D01*
X73842142Y-23312380D01*
X73937380Y-23264761D01*
X73985000Y-23217142D01*
X74032619Y-23121904D01*
X74032619Y-22312380D01*
X74365952Y-22312380D02*
X74937380Y-22312380D01*
X74651666Y-23312380D02*
X74651666Y-22312380D01*
X76032619Y-22931428D02*
X76794523Y-22931428D01*
X77985000Y-23026666D02*
X78461190Y-23026666D01*
X77889761Y-23312380D02*
X78223095Y-22312380D01*
X78556428Y-23312380D01*
X78889761Y-23217142D02*
X78937380Y-23264761D01*
X78889761Y-23312380D01*
X78842142Y-23264761D01*
X78889761Y-23217142D01*
X78889761Y-23312380D01*
X80032619Y-22312380D02*
X80270714Y-23312380D01*
X80461190Y-22598095D01*
X80651666Y-23312380D01*
X80889761Y-22312380D01*
X81270714Y-23312380D02*
X81270714Y-22645714D01*
X81270714Y-22312380D02*
X81223095Y-22360000D01*
X81270714Y-22407619D01*
X81318333Y-22360000D01*
X81270714Y-22312380D01*
X81270714Y-22407619D01*
X81889761Y-23312380D02*
X81794523Y-23264761D01*
X81746904Y-23169523D01*
X81746904Y-22312380D01*
X82223095Y-23264761D02*
X82318333Y-23312380D01*
X82508809Y-23312380D01*
X82604047Y-23264761D01*
X82651666Y-23169523D01*
X82651666Y-23121904D01*
X82604047Y-23026666D01*
X82508809Y-22979047D01*
X82365952Y-22979047D01*
X82270714Y-22931428D01*
X82223095Y-22836190D01*
X82223095Y-22788571D01*
X82270714Y-22693333D01*
X82365952Y-22645714D01*
X82508809Y-22645714D01*
X82604047Y-22693333D01*
X83223095Y-23312380D02*
X83127857Y-23264761D01*
X83080238Y-23217142D01*
X83032619Y-23121904D01*
X83032619Y-22836190D01*
X83080238Y-22740952D01*
X83127857Y-22693333D01*
X83223095Y-22645714D01*
X83365952Y-22645714D01*
X83461190Y-22693333D01*
X83508809Y-22740952D01*
X83556428Y-22836190D01*
X83556428Y-23121904D01*
X83508809Y-23217142D01*
X83461190Y-23264761D01*
X83365952Y-23312380D01*
X83223095Y-23312380D01*
X83985000Y-22645714D02*
X83985000Y-23312380D01*
X83985000Y-22740952D02*
X84032619Y-22693333D01*
X84127857Y-22645714D01*
X84270714Y-22645714D01*
X84365952Y-22693333D01*
X84413571Y-22788571D01*
X84413571Y-23312380D01*
X85604047Y-22407619D02*
X85651666Y-22360000D01*
X85746904Y-22312380D01*
X85985000Y-22312380D01*
X86080238Y-22360000D01*
X86127857Y-22407619D01*
X86175476Y-22502857D01*
X86175476Y-22598095D01*
X86127857Y-22740952D01*
X85556428Y-23312380D01*
X86175476Y-23312380D01*
X86794523Y-22312380D02*
X86889761Y-22312380D01*
X86985000Y-22360000D01*
X87032619Y-22407619D01*
X87080238Y-22502857D01*
X87127857Y-22693333D01*
X87127857Y-22931428D01*
X87080238Y-23121904D01*
X87032619Y-23217142D01*
X86985000Y-23264761D01*
X86889761Y-23312380D01*
X86794523Y-23312380D01*
X86699285Y-23264761D01*
X86651666Y-23217142D01*
X86604047Y-23121904D01*
X86556428Y-22931428D01*
X86556428Y-22693333D01*
X86604047Y-22502857D01*
X86651666Y-22407619D01*
X86699285Y-22360000D01*
X86794523Y-22312380D01*
X87508809Y-22407619D02*
X87556428Y-22360000D01*
X87651666Y-22312380D01*
X87889761Y-22312380D01*
X87985000Y-22360000D01*
X88032619Y-22407619D01*
X88080238Y-22502857D01*
X88080238Y-22598095D01*
X88032619Y-22740952D01*
X87461190Y-23312380D01*
X88080238Y-23312380D01*
X89032619Y-23312380D02*
X88461190Y-23312380D01*
X88746904Y-23312380D02*
X88746904Y-22312380D01*
X88651666Y-22455238D01*
X88556428Y-22550476D01*
X88461190Y-22598095D01*
D11*
X42980000Y-117325000D02*
X42980000Y-117791666D01*
X42813333Y-117058333D02*
X42646666Y-117558333D01*
X43080000Y-117558333D01*
X43480000Y-117091666D02*
X43546666Y-117091666D01*
X43613333Y-117125000D01*
X43646666Y-117158333D01*
X43680000Y-117225000D01*
X43713333Y-117358333D01*
X43713333Y-117525000D01*
X43680000Y-117658333D01*
X43646666Y-117725000D01*
X43613333Y-117758333D01*
X43546666Y-117791666D01*
X43480000Y-117791666D01*
X43413333Y-117758333D01*
X43380000Y-117725000D01*
X43346666Y-117658333D01*
X43313333Y-117525000D01*
X43313333Y-117358333D01*
X43346666Y-117225000D01*
X43380000Y-117158333D01*
X43413333Y-117125000D01*
X43480000Y-117091666D01*
X42613333Y-114551666D02*
X43046666Y-114551666D01*
X42813333Y-114818333D01*
X42913333Y-114818333D01*
X42980000Y-114851666D01*
X43013333Y-114885000D01*
X43046666Y-114951666D01*
X43046666Y-115118333D01*
X43013333Y-115185000D01*
X42980000Y-115218333D01*
X42913333Y-115251666D01*
X42713333Y-115251666D01*
X42646666Y-115218333D01*
X42613333Y-115185000D01*
X43380000Y-115251666D02*
X43513333Y-115251666D01*
X43580000Y-115218333D01*
X43613333Y-115185000D01*
X43680000Y-115085000D01*
X43713333Y-114951666D01*
X43713333Y-114685000D01*
X43680000Y-114618333D01*
X43646666Y-114585000D01*
X43580000Y-114551666D01*
X43446666Y-114551666D01*
X43380000Y-114585000D01*
X43346666Y-114618333D01*
X43313333Y-114685000D01*
X43313333Y-114851666D01*
X43346666Y-114918333D01*
X43380000Y-114951666D01*
X43446666Y-114985000D01*
X43580000Y-114985000D01*
X43646666Y-114951666D01*
X43680000Y-114918333D01*
X43713333Y-114851666D01*
X96320000Y-117158333D02*
X96353333Y-117125000D01*
X96420000Y-117091666D01*
X96586666Y-117091666D01*
X96653333Y-117125000D01*
X96686666Y-117158333D01*
X96720000Y-117225000D01*
X96720000Y-117291666D01*
X96686666Y-117391666D01*
X96286666Y-117791666D01*
X96720000Y-117791666D01*
X96720000Y-115251666D02*
X96320000Y-115251666D01*
X96520000Y-115251666D02*
X96520000Y-114551666D01*
X96453333Y-114651666D01*
X96386666Y-114718333D01*
X96320000Y-114751666D01*
D12*
%TO.C,JP2*%
X31055000Y-45145000D02*
X31055000Y-43815000D01*
X32385000Y-45145000D02*
X31055000Y-45145000D01*
X33655000Y-45145000D02*
X33655000Y-42485000D01*
X33655000Y-42485000D02*
X36255000Y-42485000D01*
X33655000Y-45145000D02*
X36255000Y-45145000D01*
X36255000Y-45145000D02*
X36255000Y-42485000D01*
%TO.C,JP1*%
X71695000Y-47050000D02*
X71695000Y-45720000D01*
X73025000Y-47050000D02*
X71695000Y-47050000D01*
X74295000Y-47050000D02*
X74295000Y-44390000D01*
X74295000Y-44390000D02*
X76895000Y-44390000D01*
X74295000Y-47050000D02*
X76895000Y-47050000D01*
X76895000Y-47050000D02*
X76895000Y-44390000D01*
%TO.C,U9*%
X107950000Y-103030000D02*
X106680000Y-104300000D01*
X105410000Y-103030000D02*
X107950000Y-103030000D01*
X106680000Y-104300000D02*
X105410000Y-103030000D01*
X116730000Y-87930000D02*
X116730000Y-105430000D01*
X96630000Y-105430000D02*
X96630000Y-87930000D01*
X116730000Y-105430000D02*
X96630000Y-105430000D01*
X116730000Y-87930000D02*
X96630000Y-87930000D01*
%TO.C,U8*%
X107950000Y-85250000D02*
X106680000Y-86520000D01*
X105410000Y-85250000D02*
X107950000Y-85250000D01*
X106680000Y-86520000D02*
X105410000Y-85250000D01*
X116730000Y-70150000D02*
X116730000Y-87650000D01*
X96630000Y-87650000D02*
X96630000Y-70150000D01*
X116730000Y-87650000D02*
X96630000Y-87650000D01*
X116730000Y-70150000D02*
X96630000Y-70150000D01*
%TO.C,U7*%
X107950000Y-67470000D02*
X106680000Y-68740000D01*
X105410000Y-67470000D02*
X107950000Y-67470000D01*
X106680000Y-68740000D02*
X105410000Y-67470000D01*
X116730000Y-52370000D02*
X116730000Y-69870000D01*
X96630000Y-69870000D02*
X96630000Y-52370000D01*
X116730000Y-69870000D02*
X96630000Y-69870000D01*
X116730000Y-52370000D02*
X96630000Y-52370000D01*
%TO.C,U6*%
X107950000Y-49690000D02*
X106680000Y-50960000D01*
X105410000Y-49690000D02*
X107950000Y-49690000D01*
X106680000Y-50960000D02*
X105410000Y-49690000D01*
X116730000Y-34590000D02*
X116730000Y-52090000D01*
X96630000Y-52090000D02*
X96630000Y-34590000D01*
X116730000Y-52090000D02*
X96630000Y-52090000D01*
X116730000Y-34590000D02*
X96630000Y-34590000D01*
%TO.C,U3*%
X81550000Y-53280000D02*
X79900000Y-53280000D01*
X79900000Y-53280000D02*
X79900000Y-83880000D01*
X79900000Y-83880000D02*
X85200000Y-83880000D01*
X85200000Y-83880000D02*
X85200000Y-53280000D01*
X85200000Y-53280000D02*
X83550000Y-53280000D01*
X77410000Y-53220000D02*
X77410000Y-83940000D01*
X77410000Y-83940000D02*
X87690000Y-83940000D01*
X87690000Y-83940000D02*
X87690000Y-53220000D01*
X87690000Y-53220000D02*
X77410000Y-53220000D01*
X83550000Y-53280000D02*
G75*
G02*
X81550000Y-53280000I-1000000J0D01*
G01*
%TO.C,U5*%
X50860000Y-41790000D02*
X40580000Y-41790000D01*
X50860000Y-67430000D02*
X50860000Y-41790000D01*
X40580000Y-67430000D02*
X50860000Y-67430000D01*
X40580000Y-41790000D02*
X40580000Y-67430000D01*
X48370000Y-41850000D02*
X46720000Y-41850000D01*
X48370000Y-67370000D02*
X48370000Y-41850000D01*
X43070000Y-67370000D02*
X48370000Y-67370000D01*
X43070000Y-41850000D02*
X43070000Y-67370000D01*
X44720000Y-41850000D02*
X43070000Y-41850000D01*
X46720000Y-41850000D02*
G75*
G02*
X44720000Y-41850000I-1000000J0D01*
G01*
%TO.C,U4*%
X68640000Y-41790000D02*
X58360000Y-41790000D01*
X68640000Y-67430000D02*
X68640000Y-41790000D01*
X58360000Y-67430000D02*
X68640000Y-67430000D01*
X58360000Y-41790000D02*
X58360000Y-67430000D01*
X66150000Y-41850000D02*
X64500000Y-41850000D01*
X66150000Y-67370000D02*
X66150000Y-41850000D01*
X60850000Y-67370000D02*
X66150000Y-67370000D01*
X60850000Y-41850000D02*
X60850000Y-67370000D01*
X62500000Y-41850000D02*
X60850000Y-41850000D01*
X64500000Y-41850000D02*
G75*
G02*
X62500000Y-41850000I-1000000J0D01*
G01*
%TO.C,U2*%
X68640000Y-74810000D02*
X58360000Y-74810000D01*
X68640000Y-100450000D02*
X68640000Y-74810000D01*
X58360000Y-100450000D02*
X68640000Y-100450000D01*
X58360000Y-74810000D02*
X58360000Y-100450000D01*
X66150000Y-74870000D02*
X64500000Y-74870000D01*
X66150000Y-100390000D02*
X66150000Y-74870000D01*
X60850000Y-100390000D02*
X66150000Y-100390000D01*
X60850000Y-74870000D02*
X60850000Y-100390000D01*
X62500000Y-74870000D02*
X60850000Y-74870000D01*
X64500000Y-74870000D02*
G75*
G02*
X62500000Y-74870000I-1000000J0D01*
G01*
%TO.C,U1*%
X50860000Y-74810000D02*
X40580000Y-74810000D01*
X50860000Y-100450000D02*
X50860000Y-74810000D01*
X40580000Y-100450000D02*
X50860000Y-100450000D01*
X40580000Y-74810000D02*
X40580000Y-100450000D01*
X48370000Y-74870000D02*
X46720000Y-74870000D01*
X48370000Y-100390000D02*
X48370000Y-74870000D01*
X43070000Y-100390000D02*
X48370000Y-100390000D01*
X43070000Y-74870000D02*
X43070000Y-100390000D01*
X44720000Y-74870000D02*
X43070000Y-74870000D01*
X46720000Y-74870000D02*
G75*
G02*
X44720000Y-74870000I-1000000J0D01*
G01*
%TO.C,C3*%
X40480000Y-31480000D02*
G75*
G03*
X40480000Y-31480000I-4120000J0D01*
G01*
X40440000Y-31480000D02*
X32280000Y-31480000D01*
X40440000Y-31520000D02*
X32280000Y-31520000D01*
X40440000Y-31560000D02*
X32280000Y-31560000D01*
X40439000Y-31600000D02*
X32281000Y-31600000D01*
X40437000Y-31640000D02*
X32283000Y-31640000D01*
X40436000Y-31680000D02*
X32284000Y-31680000D01*
X40434000Y-31720000D02*
X32286000Y-31720000D01*
X40431000Y-31760000D02*
X32289000Y-31760000D01*
X40428000Y-31800000D02*
X32292000Y-31800000D01*
X40425000Y-31840000D02*
X32295000Y-31840000D01*
X40421000Y-31880000D02*
X32299000Y-31880000D01*
X40417000Y-31920000D02*
X32303000Y-31920000D01*
X40412000Y-31960000D02*
X32308000Y-31960000D01*
X40408000Y-32000000D02*
X32312000Y-32000000D01*
X40402000Y-32040000D02*
X32318000Y-32040000D01*
X40397000Y-32080000D02*
X32323000Y-32080000D01*
X40390000Y-32120000D02*
X32330000Y-32120000D01*
X40384000Y-32160000D02*
X32336000Y-32160000D01*
X40377000Y-32201000D02*
X37400000Y-32201000D01*
X35320000Y-32201000D02*
X32343000Y-32201000D01*
X40370000Y-32241000D02*
X37400000Y-32241000D01*
X35320000Y-32241000D02*
X32350000Y-32241000D01*
X40362000Y-32281000D02*
X37400000Y-32281000D01*
X35320000Y-32281000D02*
X32358000Y-32281000D01*
X40354000Y-32321000D02*
X37400000Y-32321000D01*
X35320000Y-32321000D02*
X32366000Y-32321000D01*
X40345000Y-32361000D02*
X37400000Y-32361000D01*
X35320000Y-32361000D02*
X32375000Y-32361000D01*
X40336000Y-32401000D02*
X37400000Y-32401000D01*
X35320000Y-32401000D02*
X32384000Y-32401000D01*
X40327000Y-32441000D02*
X37400000Y-32441000D01*
X35320000Y-32441000D02*
X32393000Y-32441000D01*
X40317000Y-32481000D02*
X37400000Y-32481000D01*
X35320000Y-32481000D02*
X32403000Y-32481000D01*
X40307000Y-32521000D02*
X37400000Y-32521000D01*
X35320000Y-32521000D02*
X32413000Y-32521000D01*
X40296000Y-32561000D02*
X37400000Y-32561000D01*
X35320000Y-32561000D02*
X32424000Y-32561000D01*
X40285000Y-32601000D02*
X37400000Y-32601000D01*
X35320000Y-32601000D02*
X32435000Y-32601000D01*
X40274000Y-32641000D02*
X37400000Y-32641000D01*
X35320000Y-32641000D02*
X32446000Y-32641000D01*
X40262000Y-32681000D02*
X37400000Y-32681000D01*
X35320000Y-32681000D02*
X32458000Y-32681000D01*
X40249000Y-32721000D02*
X37400000Y-32721000D01*
X35320000Y-32721000D02*
X32471000Y-32721000D01*
X40237000Y-32761000D02*
X37400000Y-32761000D01*
X35320000Y-32761000D02*
X32483000Y-32761000D01*
X40223000Y-32801000D02*
X37400000Y-32801000D01*
X35320000Y-32801000D02*
X32497000Y-32801000D01*
X40210000Y-32841000D02*
X37400000Y-32841000D01*
X35320000Y-32841000D02*
X32510000Y-32841000D01*
X40195000Y-32881000D02*
X37400000Y-32881000D01*
X35320000Y-32881000D02*
X32525000Y-32881000D01*
X40181000Y-32921000D02*
X37400000Y-32921000D01*
X35320000Y-32921000D02*
X32539000Y-32921000D01*
X40165000Y-32961000D02*
X37400000Y-32961000D01*
X35320000Y-32961000D02*
X32555000Y-32961000D01*
X40150000Y-33001000D02*
X37400000Y-33001000D01*
X35320000Y-33001000D02*
X32570000Y-33001000D01*
X40134000Y-33041000D02*
X37400000Y-33041000D01*
X35320000Y-33041000D02*
X32586000Y-33041000D01*
X40117000Y-33081000D02*
X37400000Y-33081000D01*
X35320000Y-33081000D02*
X32603000Y-33081000D01*
X40100000Y-33121000D02*
X37400000Y-33121000D01*
X35320000Y-33121000D02*
X32620000Y-33121000D01*
X40082000Y-33161000D02*
X37400000Y-33161000D01*
X35320000Y-33161000D02*
X32638000Y-33161000D01*
X40064000Y-33201000D02*
X37400000Y-33201000D01*
X35320000Y-33201000D02*
X32656000Y-33201000D01*
X40046000Y-33241000D02*
X37400000Y-33241000D01*
X35320000Y-33241000D02*
X32674000Y-33241000D01*
X40026000Y-33281000D02*
X37400000Y-33281000D01*
X35320000Y-33281000D02*
X32694000Y-33281000D01*
X40007000Y-33321000D02*
X37400000Y-33321000D01*
X35320000Y-33321000D02*
X32713000Y-33321000D01*
X39987000Y-33361000D02*
X37400000Y-33361000D01*
X35320000Y-33361000D02*
X32733000Y-33361000D01*
X39966000Y-33401000D02*
X37400000Y-33401000D01*
X35320000Y-33401000D02*
X32754000Y-33401000D01*
X39944000Y-33441000D02*
X37400000Y-33441000D01*
X35320000Y-33441000D02*
X32776000Y-33441000D01*
X39922000Y-33481000D02*
X37400000Y-33481000D01*
X35320000Y-33481000D02*
X32798000Y-33481000D01*
X39900000Y-33521000D02*
X37400000Y-33521000D01*
X35320000Y-33521000D02*
X32820000Y-33521000D01*
X39877000Y-33561000D02*
X37400000Y-33561000D01*
X35320000Y-33561000D02*
X32843000Y-33561000D01*
X39853000Y-33601000D02*
X37400000Y-33601000D01*
X35320000Y-33601000D02*
X32867000Y-33601000D01*
X39829000Y-33641000D02*
X37400000Y-33641000D01*
X35320000Y-33641000D02*
X32891000Y-33641000D01*
X39804000Y-33681000D02*
X37400000Y-33681000D01*
X35320000Y-33681000D02*
X32916000Y-33681000D01*
X39778000Y-33721000D02*
X37400000Y-33721000D01*
X35320000Y-33721000D02*
X32942000Y-33721000D01*
X39752000Y-33761000D02*
X37400000Y-33761000D01*
X35320000Y-33761000D02*
X32968000Y-33761000D01*
X39725000Y-33801000D02*
X37400000Y-33801000D01*
X35320000Y-33801000D02*
X32995000Y-33801000D01*
X39698000Y-33841000D02*
X37400000Y-33841000D01*
X35320000Y-33841000D02*
X33022000Y-33841000D01*
X39669000Y-33881000D02*
X37400000Y-33881000D01*
X35320000Y-33881000D02*
X33051000Y-33881000D01*
X39640000Y-33921000D02*
X37400000Y-33921000D01*
X35320000Y-33921000D02*
X33080000Y-33921000D01*
X39610000Y-33961000D02*
X37400000Y-33961000D01*
X35320000Y-33961000D02*
X33110000Y-33961000D01*
X39580000Y-34001000D02*
X37400000Y-34001000D01*
X35320000Y-34001000D02*
X33140000Y-34001000D01*
X39549000Y-34041000D02*
X37400000Y-34041000D01*
X35320000Y-34041000D02*
X33171000Y-34041000D01*
X39516000Y-34081000D02*
X37400000Y-34081000D01*
X35320000Y-34081000D02*
X33204000Y-34081000D01*
X39484000Y-34121000D02*
X37400000Y-34121000D01*
X35320000Y-34121000D02*
X33236000Y-34121000D01*
X39450000Y-34161000D02*
X37400000Y-34161000D01*
X35320000Y-34161000D02*
X33270000Y-34161000D01*
X39415000Y-34201000D02*
X37400000Y-34201000D01*
X35320000Y-34201000D02*
X33305000Y-34201000D01*
X39379000Y-34241000D02*
X37400000Y-34241000D01*
X35320000Y-34241000D02*
X33341000Y-34241000D01*
X39343000Y-34281000D02*
X33377000Y-34281000D01*
X39305000Y-34321000D02*
X33415000Y-34321000D01*
X39267000Y-34361000D02*
X33453000Y-34361000D01*
X39227000Y-34401000D02*
X33493000Y-34401000D01*
X39186000Y-34441000D02*
X33534000Y-34441000D01*
X39144000Y-34481000D02*
X33576000Y-34481000D01*
X39101000Y-34521000D02*
X33619000Y-34521000D01*
X39057000Y-34561000D02*
X33663000Y-34561000D01*
X39011000Y-34601000D02*
X33709000Y-34601000D01*
X38964000Y-34641000D02*
X33756000Y-34641000D01*
X38916000Y-34681000D02*
X33804000Y-34681000D01*
X38865000Y-34721000D02*
X33855000Y-34721000D01*
X38814000Y-34761000D02*
X33906000Y-34761000D01*
X38760000Y-34801000D02*
X33960000Y-34801000D01*
X38705000Y-34841000D02*
X34015000Y-34841000D01*
X38647000Y-34881000D02*
X34073000Y-34881000D01*
X38588000Y-34921000D02*
X34132000Y-34921000D01*
X38526000Y-34961000D02*
X34194000Y-34961000D01*
X38462000Y-35001000D02*
X34258000Y-35001000D01*
X38394000Y-35041000D02*
X34326000Y-35041000D01*
X38324000Y-35081000D02*
X34396000Y-35081000D01*
X38250000Y-35121000D02*
X34470000Y-35121000D01*
X38173000Y-35161000D02*
X34547000Y-35161000D01*
X38091000Y-35201000D02*
X34629000Y-35201000D01*
X38005000Y-35241000D02*
X34715000Y-35241000D01*
X37912000Y-35281000D02*
X34808000Y-35281000D01*
X37813000Y-35321000D02*
X34907000Y-35321000D01*
X37706000Y-35361000D02*
X35014000Y-35361000D01*
X37589000Y-35401000D02*
X35131000Y-35401000D01*
X37458000Y-35441000D02*
X35262000Y-35441000D01*
X37308000Y-35481000D02*
X35412000Y-35481000D01*
X37128000Y-35521000D02*
X35592000Y-35521000D01*
X36893000Y-35561000D02*
X35827000Y-35561000D01*
X38675000Y-27070302D02*
X38675000Y-27870302D01*
X39075000Y-27470302D02*
X38275000Y-27470302D01*
%TO.C,C8*%
X51050000Y-31480000D02*
G75*
G03*
X51050000Y-31480000I-4120000J0D01*
G01*
X51010000Y-31480000D02*
X42850000Y-31480000D01*
X51010000Y-31520000D02*
X42850000Y-31520000D01*
X51010000Y-31560000D02*
X42850000Y-31560000D01*
X51009000Y-31600000D02*
X42851000Y-31600000D01*
X51007000Y-31640000D02*
X42853000Y-31640000D01*
X51006000Y-31680000D02*
X42854000Y-31680000D01*
X51004000Y-31720000D02*
X42856000Y-31720000D01*
X51001000Y-31760000D02*
X42859000Y-31760000D01*
X50998000Y-31800000D02*
X42862000Y-31800000D01*
X50995000Y-31840000D02*
X42865000Y-31840000D01*
X50991000Y-31880000D02*
X42869000Y-31880000D01*
X50987000Y-31920000D02*
X42873000Y-31920000D01*
X50982000Y-31960000D02*
X42878000Y-31960000D01*
X50978000Y-32000000D02*
X42882000Y-32000000D01*
X50972000Y-32040000D02*
X42888000Y-32040000D01*
X50967000Y-32080000D02*
X42893000Y-32080000D01*
X50960000Y-32120000D02*
X42900000Y-32120000D01*
X50954000Y-32160000D02*
X42906000Y-32160000D01*
X50947000Y-32201000D02*
X47970000Y-32201000D01*
X45890000Y-32201000D02*
X42913000Y-32201000D01*
X50940000Y-32241000D02*
X47970000Y-32241000D01*
X45890000Y-32241000D02*
X42920000Y-32241000D01*
X50932000Y-32281000D02*
X47970000Y-32281000D01*
X45890000Y-32281000D02*
X42928000Y-32281000D01*
X50924000Y-32321000D02*
X47970000Y-32321000D01*
X45890000Y-32321000D02*
X42936000Y-32321000D01*
X50915000Y-32361000D02*
X47970000Y-32361000D01*
X45890000Y-32361000D02*
X42945000Y-32361000D01*
X50906000Y-32401000D02*
X47970000Y-32401000D01*
X45890000Y-32401000D02*
X42954000Y-32401000D01*
X50897000Y-32441000D02*
X47970000Y-32441000D01*
X45890000Y-32441000D02*
X42963000Y-32441000D01*
X50887000Y-32481000D02*
X47970000Y-32481000D01*
X45890000Y-32481000D02*
X42973000Y-32481000D01*
X50877000Y-32521000D02*
X47970000Y-32521000D01*
X45890000Y-32521000D02*
X42983000Y-32521000D01*
X50866000Y-32561000D02*
X47970000Y-32561000D01*
X45890000Y-32561000D02*
X42994000Y-32561000D01*
X50855000Y-32601000D02*
X47970000Y-32601000D01*
X45890000Y-32601000D02*
X43005000Y-32601000D01*
X50844000Y-32641000D02*
X47970000Y-32641000D01*
X45890000Y-32641000D02*
X43016000Y-32641000D01*
X50832000Y-32681000D02*
X47970000Y-32681000D01*
X45890000Y-32681000D02*
X43028000Y-32681000D01*
X50819000Y-32721000D02*
X47970000Y-32721000D01*
X45890000Y-32721000D02*
X43041000Y-32721000D01*
X50807000Y-32761000D02*
X47970000Y-32761000D01*
X45890000Y-32761000D02*
X43053000Y-32761000D01*
X50793000Y-32801000D02*
X47970000Y-32801000D01*
X45890000Y-32801000D02*
X43067000Y-32801000D01*
X50780000Y-32841000D02*
X47970000Y-32841000D01*
X45890000Y-32841000D02*
X43080000Y-32841000D01*
X50765000Y-32881000D02*
X47970000Y-32881000D01*
X45890000Y-32881000D02*
X43095000Y-32881000D01*
X50751000Y-32921000D02*
X47970000Y-32921000D01*
X45890000Y-32921000D02*
X43109000Y-32921000D01*
X50735000Y-32961000D02*
X47970000Y-32961000D01*
X45890000Y-32961000D02*
X43125000Y-32961000D01*
X50720000Y-33001000D02*
X47970000Y-33001000D01*
X45890000Y-33001000D02*
X43140000Y-33001000D01*
X50704000Y-33041000D02*
X47970000Y-33041000D01*
X45890000Y-33041000D02*
X43156000Y-33041000D01*
X50687000Y-33081000D02*
X47970000Y-33081000D01*
X45890000Y-33081000D02*
X43173000Y-33081000D01*
X50670000Y-33121000D02*
X47970000Y-33121000D01*
X45890000Y-33121000D02*
X43190000Y-33121000D01*
X50652000Y-33161000D02*
X47970000Y-33161000D01*
X45890000Y-33161000D02*
X43208000Y-33161000D01*
X50634000Y-33201000D02*
X47970000Y-33201000D01*
X45890000Y-33201000D02*
X43226000Y-33201000D01*
X50616000Y-33241000D02*
X47970000Y-33241000D01*
X45890000Y-33241000D02*
X43244000Y-33241000D01*
X50596000Y-33281000D02*
X47970000Y-33281000D01*
X45890000Y-33281000D02*
X43264000Y-33281000D01*
X50577000Y-33321000D02*
X47970000Y-33321000D01*
X45890000Y-33321000D02*
X43283000Y-33321000D01*
X50557000Y-33361000D02*
X47970000Y-33361000D01*
X45890000Y-33361000D02*
X43303000Y-33361000D01*
X50536000Y-33401000D02*
X47970000Y-33401000D01*
X45890000Y-33401000D02*
X43324000Y-33401000D01*
X50514000Y-33441000D02*
X47970000Y-33441000D01*
X45890000Y-33441000D02*
X43346000Y-33441000D01*
X50492000Y-33481000D02*
X47970000Y-33481000D01*
X45890000Y-33481000D02*
X43368000Y-33481000D01*
X50470000Y-33521000D02*
X47970000Y-33521000D01*
X45890000Y-33521000D02*
X43390000Y-33521000D01*
X50447000Y-33561000D02*
X47970000Y-33561000D01*
X45890000Y-33561000D02*
X43413000Y-33561000D01*
X50423000Y-33601000D02*
X47970000Y-33601000D01*
X45890000Y-33601000D02*
X43437000Y-33601000D01*
X50399000Y-33641000D02*
X47970000Y-33641000D01*
X45890000Y-33641000D02*
X43461000Y-33641000D01*
X50374000Y-33681000D02*
X47970000Y-33681000D01*
X45890000Y-33681000D02*
X43486000Y-33681000D01*
X50348000Y-33721000D02*
X47970000Y-33721000D01*
X45890000Y-33721000D02*
X43512000Y-33721000D01*
X50322000Y-33761000D02*
X47970000Y-33761000D01*
X45890000Y-33761000D02*
X43538000Y-33761000D01*
X50295000Y-33801000D02*
X47970000Y-33801000D01*
X45890000Y-33801000D02*
X43565000Y-33801000D01*
X50268000Y-33841000D02*
X47970000Y-33841000D01*
X45890000Y-33841000D02*
X43592000Y-33841000D01*
X50239000Y-33881000D02*
X47970000Y-33881000D01*
X45890000Y-33881000D02*
X43621000Y-33881000D01*
X50210000Y-33921000D02*
X47970000Y-33921000D01*
X45890000Y-33921000D02*
X43650000Y-33921000D01*
X50180000Y-33961000D02*
X47970000Y-33961000D01*
X45890000Y-33961000D02*
X43680000Y-33961000D01*
X50150000Y-34001000D02*
X47970000Y-34001000D01*
X45890000Y-34001000D02*
X43710000Y-34001000D01*
X50119000Y-34041000D02*
X47970000Y-34041000D01*
X45890000Y-34041000D02*
X43741000Y-34041000D01*
X50086000Y-34081000D02*
X47970000Y-34081000D01*
X45890000Y-34081000D02*
X43774000Y-34081000D01*
X50054000Y-34121000D02*
X47970000Y-34121000D01*
X45890000Y-34121000D02*
X43806000Y-34121000D01*
X50020000Y-34161000D02*
X47970000Y-34161000D01*
X45890000Y-34161000D02*
X43840000Y-34161000D01*
X49985000Y-34201000D02*
X47970000Y-34201000D01*
X45890000Y-34201000D02*
X43875000Y-34201000D01*
X49949000Y-34241000D02*
X47970000Y-34241000D01*
X45890000Y-34241000D02*
X43911000Y-34241000D01*
X49913000Y-34281000D02*
X43947000Y-34281000D01*
X49875000Y-34321000D02*
X43985000Y-34321000D01*
X49837000Y-34361000D02*
X44023000Y-34361000D01*
X49797000Y-34401000D02*
X44063000Y-34401000D01*
X49756000Y-34441000D02*
X44104000Y-34441000D01*
X49714000Y-34481000D02*
X44146000Y-34481000D01*
X49671000Y-34521000D02*
X44189000Y-34521000D01*
X49627000Y-34561000D02*
X44233000Y-34561000D01*
X49581000Y-34601000D02*
X44279000Y-34601000D01*
X49534000Y-34641000D02*
X44326000Y-34641000D01*
X49486000Y-34681000D02*
X44374000Y-34681000D01*
X49435000Y-34721000D02*
X44425000Y-34721000D01*
X49384000Y-34761000D02*
X44476000Y-34761000D01*
X49330000Y-34801000D02*
X44530000Y-34801000D01*
X49275000Y-34841000D02*
X44585000Y-34841000D01*
X49217000Y-34881000D02*
X44643000Y-34881000D01*
X49158000Y-34921000D02*
X44702000Y-34921000D01*
X49096000Y-34961000D02*
X44764000Y-34961000D01*
X49032000Y-35001000D02*
X44828000Y-35001000D01*
X48964000Y-35041000D02*
X44896000Y-35041000D01*
X48894000Y-35081000D02*
X44966000Y-35081000D01*
X48820000Y-35121000D02*
X45040000Y-35121000D01*
X48743000Y-35161000D02*
X45117000Y-35161000D01*
X48661000Y-35201000D02*
X45199000Y-35201000D01*
X48575000Y-35241000D02*
X45285000Y-35241000D01*
X48482000Y-35281000D02*
X45378000Y-35281000D01*
X48383000Y-35321000D02*
X45477000Y-35321000D01*
X48276000Y-35361000D02*
X45584000Y-35361000D01*
X48159000Y-35401000D02*
X45701000Y-35401000D01*
X48028000Y-35441000D02*
X45832000Y-35441000D01*
X47878000Y-35481000D02*
X45982000Y-35481000D01*
X47698000Y-35521000D02*
X46162000Y-35521000D01*
X47463000Y-35561000D02*
X46397000Y-35561000D01*
X49245000Y-27070302D02*
X49245000Y-27870302D01*
X49645000Y-27470302D02*
X48845000Y-27470302D01*
%TO.C,J2*%
X21210000Y-29270000D02*
X22540000Y-29270000D01*
X21210000Y-30600000D02*
X21210000Y-29270000D01*
X23810000Y-29270000D02*
X26410000Y-29270000D01*
X23810000Y-31870000D02*
X23810000Y-29270000D01*
X21210000Y-31870000D02*
X23810000Y-31870000D01*
X26410000Y-29270000D02*
X26410000Y-39550000D01*
X21210000Y-31870000D02*
X21210000Y-39550000D01*
X21210000Y-39550000D02*
X26410000Y-39550000D01*
%TO.C,J1*%
X21210000Y-110730000D02*
X26410000Y-110730000D01*
X21210000Y-103050000D02*
X21210000Y-110730000D01*
X26410000Y-100450000D02*
X26410000Y-110730000D01*
X21210000Y-103050000D02*
X23810000Y-103050000D01*
X23810000Y-103050000D02*
X23810000Y-100450000D01*
X23810000Y-100450000D02*
X26410000Y-100450000D01*
X21210000Y-101780000D02*
X21210000Y-100450000D01*
X21210000Y-100450000D02*
X22540000Y-100450000D01*
%TO.C,J4*%
X44540000Y-113590000D02*
X44540000Y-118790000D01*
X92860000Y-113590000D02*
X44540000Y-113590000D01*
X95460000Y-118790000D02*
X44540000Y-118790000D01*
X92860000Y-113590000D02*
X92860000Y-116190000D01*
X92860000Y-116190000D02*
X95460000Y-116190000D01*
X95460000Y-116190000D02*
X95460000Y-118790000D01*
X94130000Y-113590000D02*
X95460000Y-113590000D01*
X95460000Y-113590000D02*
X95460000Y-114920000D01*
%TO.C,J3*%
X21210000Y-44540000D02*
X22540000Y-44540000D01*
X21210000Y-45870000D02*
X21210000Y-44540000D01*
X23810000Y-44540000D02*
X26410000Y-44540000D01*
X23810000Y-47140000D02*
X23810000Y-44540000D01*
X21210000Y-47140000D02*
X23810000Y-47140000D01*
X26410000Y-44540000D02*
X26410000Y-95460000D01*
X21210000Y-47140000D02*
X21210000Y-95460000D01*
X21210000Y-95460000D02*
X26410000Y-95460000D01*
%TO.C,JP2*%
D13*
X37183571Y-46100714D02*
X37183571Y-45767380D01*
X37707380Y-45624523D02*
X37707380Y-46100714D01*
X36707380Y-46100714D01*
X36707380Y-45624523D01*
X36707380Y-45291190D02*
X37707380Y-44624523D01*
X36707380Y-44624523D02*
X37707380Y-45291190D01*
X37707380Y-44243571D02*
X36707380Y-44243571D01*
X37421666Y-43910238D01*
X36707380Y-43576904D01*
X37707380Y-43576904D01*
X37183571Y-43100714D02*
X37183571Y-42767380D01*
X37707380Y-42624523D02*
X37707380Y-43100714D01*
X36707380Y-43100714D01*
X36707380Y-42624523D01*
X37707380Y-42195952D02*
X36707380Y-42195952D01*
X37421666Y-41862619D01*
X36707380Y-41529285D01*
X37707380Y-41529285D01*
%TO.C,JP1*%
X78347380Y-48386666D02*
X77347380Y-48386666D01*
X78299761Y-47958095D02*
X78347380Y-47815238D01*
X78347380Y-47577142D01*
X78299761Y-47481904D01*
X78252142Y-47434285D01*
X78156904Y-47386666D01*
X78061666Y-47386666D01*
X77966428Y-47434285D01*
X77918809Y-47481904D01*
X77871190Y-47577142D01*
X77823571Y-47767619D01*
X77775952Y-47862857D01*
X77728333Y-47910476D01*
X77633095Y-47958095D01*
X77537857Y-47958095D01*
X77442619Y-47910476D01*
X77395000Y-47862857D01*
X77347380Y-47767619D01*
X77347380Y-47529523D01*
X77395000Y-47386666D01*
X77347380Y-46767619D02*
X77347380Y-46577142D01*
X77395000Y-46481904D01*
X77490238Y-46386666D01*
X77680714Y-46339047D01*
X78014047Y-46339047D01*
X78204523Y-46386666D01*
X78299761Y-46481904D01*
X78347380Y-46577142D01*
X78347380Y-46767619D01*
X78299761Y-46862857D01*
X78204523Y-46958095D01*
X78014047Y-47005714D01*
X77680714Y-47005714D01*
X77490238Y-46958095D01*
X77395000Y-46862857D01*
X77347380Y-46767619D01*
X78347380Y-45434285D02*
X78347380Y-45910476D01*
X77347380Y-45910476D01*
X78061666Y-45148571D02*
X78061666Y-44672380D01*
X78347380Y-45243809D02*
X77347380Y-44910476D01*
X78347380Y-44577142D01*
X77347380Y-44386666D02*
X77347380Y-43815238D01*
X78347380Y-44100952D02*
X77347380Y-44100952D01*
X77823571Y-43481904D02*
X77823571Y-43148571D01*
X78347380Y-43005714D02*
X78347380Y-43481904D01*
X77347380Y-43481904D01*
X77347380Y-43005714D01*
%TO.C,U9*%
X105918095Y-96132380D02*
X105918095Y-96941904D01*
X105965714Y-97037142D01*
X106013333Y-97084761D01*
X106108571Y-97132380D01*
X106299047Y-97132380D01*
X106394285Y-97084761D01*
X106441904Y-97037142D01*
X106489523Y-96941904D01*
X106489523Y-96132380D01*
X107013333Y-97132380D02*
X107203809Y-97132380D01*
X107299047Y-97084761D01*
X107346666Y-97037142D01*
X107441904Y-96894285D01*
X107489523Y-96703809D01*
X107489523Y-96322857D01*
X107441904Y-96227619D01*
X107394285Y-96180000D01*
X107299047Y-96132380D01*
X107108571Y-96132380D01*
X107013333Y-96180000D01*
X106965714Y-96227619D01*
X106918095Y-96322857D01*
X106918095Y-96560952D01*
X106965714Y-96656190D01*
X107013333Y-96703809D01*
X107108571Y-96751428D01*
X107299047Y-96751428D01*
X107394285Y-96703809D01*
X107441904Y-96656190D01*
X107489523Y-96560952D01*
X101052380Y-97989523D02*
X101052380Y-97418095D01*
X102052380Y-97703809D02*
X101052380Y-97703809D01*
X101052380Y-96894285D02*
X101052380Y-96703809D01*
X101100000Y-96608571D01*
X101195238Y-96513333D01*
X101385714Y-96465714D01*
X101719047Y-96465714D01*
X101909523Y-96513333D01*
X102004761Y-96608571D01*
X102052380Y-96703809D01*
X102052380Y-96894285D01*
X102004761Y-96989523D01*
X101909523Y-97084761D01*
X101719047Y-97132380D01*
X101385714Y-97132380D01*
X101195238Y-97084761D01*
X101100000Y-96989523D01*
X101052380Y-96894285D01*
X102052380Y-96037142D02*
X101052380Y-96037142D01*
X101052380Y-95656190D01*
X101100000Y-95560952D01*
X101147619Y-95513333D01*
X101242857Y-95465714D01*
X101385714Y-95465714D01*
X101480952Y-95513333D01*
X101528571Y-95560952D01*
X101576190Y-95656190D01*
X101576190Y-96037142D01*
%TO.C,U8*%
X105918095Y-78352380D02*
X105918095Y-79161904D01*
X105965714Y-79257142D01*
X106013333Y-79304761D01*
X106108571Y-79352380D01*
X106299047Y-79352380D01*
X106394285Y-79304761D01*
X106441904Y-79257142D01*
X106489523Y-79161904D01*
X106489523Y-78352380D01*
X107108571Y-78780952D02*
X107013333Y-78733333D01*
X106965714Y-78685714D01*
X106918095Y-78590476D01*
X106918095Y-78542857D01*
X106965714Y-78447619D01*
X107013333Y-78400000D01*
X107108571Y-78352380D01*
X107299047Y-78352380D01*
X107394285Y-78400000D01*
X107441904Y-78447619D01*
X107489523Y-78542857D01*
X107489523Y-78590476D01*
X107441904Y-78685714D01*
X107394285Y-78733333D01*
X107299047Y-78780952D01*
X107108571Y-78780952D01*
X107013333Y-78828571D01*
X106965714Y-78876190D01*
X106918095Y-78971428D01*
X106918095Y-79161904D01*
X106965714Y-79257142D01*
X107013333Y-79304761D01*
X107108571Y-79352380D01*
X107299047Y-79352380D01*
X107394285Y-79304761D01*
X107441904Y-79257142D01*
X107489523Y-79161904D01*
X107489523Y-78971428D01*
X107441904Y-78876190D01*
X107394285Y-78828571D01*
X107299047Y-78780952D01*
X102147619Y-77590476D02*
X102147619Y-78161904D01*
X101147619Y-77876190D02*
X102147619Y-77876190D01*
X102147619Y-78685714D02*
X102147619Y-78876190D01*
X102100000Y-78971428D01*
X102004761Y-79066666D01*
X101814285Y-79114285D01*
X101480952Y-79114285D01*
X101290476Y-79066666D01*
X101195238Y-78971428D01*
X101147619Y-78876190D01*
X101147619Y-78685714D01*
X101195238Y-78590476D01*
X101290476Y-78495238D01*
X101480952Y-78447619D01*
X101814285Y-78447619D01*
X102004761Y-78495238D01*
X102100000Y-78590476D01*
X102147619Y-78685714D01*
X101147619Y-79542857D02*
X102147619Y-79542857D01*
X102147619Y-79923809D01*
X102100000Y-80019047D01*
X102052380Y-80066666D01*
X101957142Y-80114285D01*
X101814285Y-80114285D01*
X101719047Y-80066666D01*
X101671428Y-80019047D01*
X101623809Y-79923809D01*
X101623809Y-79542857D01*
%TO.C,U7*%
X105918095Y-60572380D02*
X105918095Y-61381904D01*
X105965714Y-61477142D01*
X106013333Y-61524761D01*
X106108571Y-61572380D01*
X106299047Y-61572380D01*
X106394285Y-61524761D01*
X106441904Y-61477142D01*
X106489523Y-61381904D01*
X106489523Y-60572380D01*
X106870476Y-60572380D02*
X107537142Y-60572380D01*
X107108571Y-61572380D01*
X101052380Y-62429523D02*
X101052380Y-61858095D01*
X102052380Y-62143809D02*
X101052380Y-62143809D01*
X101052380Y-61334285D02*
X101052380Y-61143809D01*
X101100000Y-61048571D01*
X101195238Y-60953333D01*
X101385714Y-60905714D01*
X101719047Y-60905714D01*
X101909523Y-60953333D01*
X102004761Y-61048571D01*
X102052380Y-61143809D01*
X102052380Y-61334285D01*
X102004761Y-61429523D01*
X101909523Y-61524761D01*
X101719047Y-61572380D01*
X101385714Y-61572380D01*
X101195238Y-61524761D01*
X101100000Y-61429523D01*
X101052380Y-61334285D01*
X102052380Y-60477142D02*
X101052380Y-60477142D01*
X101052380Y-60096190D01*
X101100000Y-60000952D01*
X101147619Y-59953333D01*
X101242857Y-59905714D01*
X101385714Y-59905714D01*
X101480952Y-59953333D01*
X101528571Y-60000952D01*
X101576190Y-60096190D01*
X101576190Y-60477142D01*
%TO.C,U6*%
X105918095Y-42792380D02*
X105918095Y-43601904D01*
X105965714Y-43697142D01*
X106013333Y-43744761D01*
X106108571Y-43792380D01*
X106299047Y-43792380D01*
X106394285Y-43744761D01*
X106441904Y-43697142D01*
X106489523Y-43601904D01*
X106489523Y-42792380D01*
X107394285Y-42792380D02*
X107203809Y-42792380D01*
X107108571Y-42840000D01*
X107060952Y-42887619D01*
X106965714Y-43030476D01*
X106918095Y-43220952D01*
X106918095Y-43601904D01*
X106965714Y-43697142D01*
X107013333Y-43744761D01*
X107108571Y-43792380D01*
X107299047Y-43792380D01*
X107394285Y-43744761D01*
X107441904Y-43697142D01*
X107489523Y-43601904D01*
X107489523Y-43363809D01*
X107441904Y-43268571D01*
X107394285Y-43220952D01*
X107299047Y-43173333D01*
X107108571Y-43173333D01*
X107013333Y-43220952D01*
X106965714Y-43268571D01*
X106918095Y-43363809D01*
X101052380Y-44649523D02*
X101052380Y-44078095D01*
X102052380Y-44363809D02*
X101052380Y-44363809D01*
X101052380Y-43554285D02*
X101052380Y-43363809D01*
X101100000Y-43268571D01*
X101195238Y-43173333D01*
X101385714Y-43125714D01*
X101719047Y-43125714D01*
X101909523Y-43173333D01*
X102004761Y-43268571D01*
X102052380Y-43363809D01*
X102052380Y-43554285D01*
X102004761Y-43649523D01*
X101909523Y-43744761D01*
X101719047Y-43792380D01*
X101385714Y-43792380D01*
X101195238Y-43744761D01*
X101100000Y-43649523D01*
X101052380Y-43554285D01*
X102052380Y-42697142D02*
X101052380Y-42697142D01*
X101052380Y-42316190D01*
X101100000Y-42220952D01*
X101147619Y-42173333D01*
X101242857Y-42125714D01*
X101385714Y-42125714D01*
X101480952Y-42173333D01*
X101528571Y-42220952D01*
X101576190Y-42316190D01*
X101576190Y-42697142D01*
%TO.C,U3*%
X81788095Y-51732380D02*
X81788095Y-52541904D01*
X81835714Y-52637142D01*
X81883333Y-52684761D01*
X81978571Y-52732380D01*
X82169047Y-52732380D01*
X82264285Y-52684761D01*
X82311904Y-52637142D01*
X82359523Y-52541904D01*
X82359523Y-51732380D01*
X82740476Y-51732380D02*
X83359523Y-51732380D01*
X83026190Y-52113333D01*
X83169047Y-52113333D01*
X83264285Y-52160952D01*
X83311904Y-52208571D01*
X83359523Y-52303809D01*
X83359523Y-52541904D01*
X83311904Y-52637142D01*
X83264285Y-52684761D01*
X83169047Y-52732380D01*
X82883333Y-52732380D01*
X82788095Y-52684761D01*
X82740476Y-52637142D01*
%TO.C,U5*%
X44958095Y-40302380D02*
X44958095Y-41111904D01*
X45005714Y-41207142D01*
X45053333Y-41254761D01*
X45148571Y-41302380D01*
X45339047Y-41302380D01*
X45434285Y-41254761D01*
X45481904Y-41207142D01*
X45529523Y-41111904D01*
X45529523Y-40302380D01*
X46481904Y-40302380D02*
X46005714Y-40302380D01*
X45958095Y-40778571D01*
X46005714Y-40730952D01*
X46100952Y-40683333D01*
X46339047Y-40683333D01*
X46434285Y-40730952D01*
X46481904Y-40778571D01*
X46529523Y-40873809D01*
X46529523Y-41111904D01*
X46481904Y-41207142D01*
X46434285Y-41254761D01*
X46339047Y-41302380D01*
X46100952Y-41302380D01*
X46005714Y-41254761D01*
X45958095Y-41207142D01*
%TO.C,U4*%
X62738095Y-40302380D02*
X62738095Y-41111904D01*
X62785714Y-41207142D01*
X62833333Y-41254761D01*
X62928571Y-41302380D01*
X63119047Y-41302380D01*
X63214285Y-41254761D01*
X63261904Y-41207142D01*
X63309523Y-41111904D01*
X63309523Y-40302380D01*
X64214285Y-40635714D02*
X64214285Y-41302380D01*
X63976190Y-40254761D02*
X63738095Y-40969047D01*
X64357142Y-40969047D01*
%TO.C,U2*%
X62738095Y-73322380D02*
X62738095Y-74131904D01*
X62785714Y-74227142D01*
X62833333Y-74274761D01*
X62928571Y-74322380D01*
X63119047Y-74322380D01*
X63214285Y-74274761D01*
X63261904Y-74227142D01*
X63309523Y-74131904D01*
X63309523Y-73322380D01*
X63738095Y-73417619D02*
X63785714Y-73370000D01*
X63880952Y-73322380D01*
X64119047Y-73322380D01*
X64214285Y-73370000D01*
X64261904Y-73417619D01*
X64309523Y-73512857D01*
X64309523Y-73608095D01*
X64261904Y-73750952D01*
X63690476Y-74322380D01*
X64309523Y-74322380D01*
%TO.C,U1*%
X44958095Y-73322380D02*
X44958095Y-74131904D01*
X45005714Y-74227142D01*
X45053333Y-74274761D01*
X45148571Y-74322380D01*
X45339047Y-74322380D01*
X45434285Y-74274761D01*
X45481904Y-74227142D01*
X45529523Y-74131904D01*
X45529523Y-73322380D01*
X46529523Y-74322380D02*
X45958095Y-74322380D01*
X46243809Y-74322380D02*
X46243809Y-73322380D01*
X46148571Y-73465238D01*
X46053333Y-73560476D01*
X45958095Y-73608095D01*
%TO.C,C3*%
X36193333Y-36819142D02*
X36145714Y-36866761D01*
X36002857Y-36914380D01*
X35907619Y-36914380D01*
X35764761Y-36866761D01*
X35669523Y-36771523D01*
X35621904Y-36676285D01*
X35574285Y-36485809D01*
X35574285Y-36342952D01*
X35621904Y-36152476D01*
X35669523Y-36057238D01*
X35764761Y-35962000D01*
X35907619Y-35914380D01*
X36002857Y-35914380D01*
X36145714Y-35962000D01*
X36193333Y-36009619D01*
X36526666Y-35914380D02*
X37145714Y-35914380D01*
X36812380Y-36295333D01*
X36955238Y-36295333D01*
X37050476Y-36342952D01*
X37098095Y-36390571D01*
X37145714Y-36485809D01*
X37145714Y-36723904D01*
X37098095Y-36819142D01*
X37050476Y-36866761D01*
X36955238Y-36914380D01*
X36669523Y-36914380D01*
X36574285Y-36866761D01*
X36526666Y-36819142D01*
%TO.C,C8*%
X46890333Y-36819142D02*
X46842714Y-36866761D01*
X46699857Y-36914380D01*
X46604619Y-36914380D01*
X46461761Y-36866761D01*
X46366523Y-36771523D01*
X46318904Y-36676285D01*
X46271285Y-36485809D01*
X46271285Y-36342952D01*
X46318904Y-36152476D01*
X46366523Y-36057238D01*
X46461761Y-35962000D01*
X46604619Y-35914380D01*
X46699857Y-35914380D01*
X46842714Y-35962000D01*
X46890333Y-36009619D01*
X47461761Y-36342952D02*
X47366523Y-36295333D01*
X47318904Y-36247714D01*
X47271285Y-36152476D01*
X47271285Y-36104857D01*
X47318904Y-36009619D01*
X47366523Y-35962000D01*
X47461761Y-35914380D01*
X47652238Y-35914380D01*
X47747476Y-35962000D01*
X47795095Y-36009619D01*
X47842714Y-36104857D01*
X47842714Y-36152476D01*
X47795095Y-36247714D01*
X47747476Y-36295333D01*
X47652238Y-36342952D01*
X47461761Y-36342952D01*
X47366523Y-36390571D01*
X47318904Y-36438190D01*
X47271285Y-36533428D01*
X47271285Y-36723904D01*
X47318904Y-36819142D01*
X47366523Y-36866761D01*
X47461761Y-36914380D01*
X47652238Y-36914380D01*
X47747476Y-36866761D01*
X47795095Y-36819142D01*
X47842714Y-36723904D01*
X47842714Y-36533428D01*
X47795095Y-36438190D01*
X47747476Y-36390571D01*
X47652238Y-36342952D01*
%TO.C,J2*%
X23476666Y-27722380D02*
X23476666Y-28436666D01*
X23429047Y-28579523D01*
X23333809Y-28674761D01*
X23190952Y-28722380D01*
X23095714Y-28722380D01*
X23905238Y-27817619D02*
X23952857Y-27770000D01*
X24048095Y-27722380D01*
X24286190Y-27722380D01*
X24381428Y-27770000D01*
X24429047Y-27817619D01*
X24476666Y-27912857D01*
X24476666Y-28008095D01*
X24429047Y-28150952D01*
X23857619Y-28722380D01*
X24476666Y-28722380D01*
%TO.C,J1*%
X23476666Y-98902380D02*
X23476666Y-99616666D01*
X23429047Y-99759523D01*
X23333809Y-99854761D01*
X23190952Y-99902380D01*
X23095714Y-99902380D01*
X24476666Y-99902380D02*
X23905238Y-99902380D01*
X24190952Y-99902380D02*
X24190952Y-98902380D01*
X24095714Y-99045238D01*
X24000476Y-99140476D01*
X23905238Y-99188095D01*
%TO.C,J4*%
X67016666Y-111847380D02*
X67588095Y-111847380D01*
X67302380Y-112847380D02*
X67302380Y-111847380D01*
X68492857Y-112847380D02*
X68159523Y-112371190D01*
X67921428Y-112847380D02*
X67921428Y-111847380D01*
X68302380Y-111847380D01*
X68397619Y-111895000D01*
X68445238Y-111942619D01*
X68492857Y-112037857D01*
X68492857Y-112180714D01*
X68445238Y-112275952D01*
X68397619Y-112323571D01*
X68302380Y-112371190D01*
X67921428Y-112371190D01*
X68873809Y-112799761D02*
X69016666Y-112847380D01*
X69254761Y-112847380D01*
X69350000Y-112799761D01*
X69397619Y-112752142D01*
X69445238Y-112656904D01*
X69445238Y-112561666D01*
X69397619Y-112466428D01*
X69350000Y-112418809D01*
X69254761Y-112371190D01*
X69064285Y-112323571D01*
X68969047Y-112275952D01*
X68921428Y-112228333D01*
X68873809Y-112133095D01*
X68873809Y-112037857D01*
X68921428Y-111942619D01*
X68969047Y-111895000D01*
X69064285Y-111847380D01*
X69302380Y-111847380D01*
X69445238Y-111895000D01*
X69873809Y-112466428D02*
X70635714Y-112466428D01*
X71254761Y-112275952D02*
X71159523Y-112228333D01*
X71111904Y-112180714D01*
X71064285Y-112085476D01*
X71064285Y-112037857D01*
X71111904Y-111942619D01*
X71159523Y-111895000D01*
X71254761Y-111847380D01*
X71445238Y-111847380D01*
X71540476Y-111895000D01*
X71588095Y-111942619D01*
X71635714Y-112037857D01*
X71635714Y-112085476D01*
X71588095Y-112180714D01*
X71540476Y-112228333D01*
X71445238Y-112275952D01*
X71254761Y-112275952D01*
X71159523Y-112323571D01*
X71111904Y-112371190D01*
X71064285Y-112466428D01*
X71064285Y-112656904D01*
X71111904Y-112752142D01*
X71159523Y-112799761D01*
X71254761Y-112847380D01*
X71445238Y-112847380D01*
X71540476Y-112799761D01*
X71588095Y-112752142D01*
X71635714Y-112656904D01*
X71635714Y-112466428D01*
X71588095Y-112371190D01*
X71540476Y-112323571D01*
X71445238Y-112275952D01*
X72254761Y-111847380D02*
X72350000Y-111847380D01*
X72445238Y-111895000D01*
X72492857Y-111942619D01*
X72540476Y-112037857D01*
X72588095Y-112228333D01*
X72588095Y-112466428D01*
X72540476Y-112656904D01*
X72492857Y-112752142D01*
X72445238Y-112799761D01*
X72350000Y-112847380D01*
X72254761Y-112847380D01*
X72159523Y-112799761D01*
X72111904Y-112752142D01*
X72064285Y-112656904D01*
X72016666Y-112466428D01*
X72016666Y-112228333D01*
X72064285Y-112037857D01*
X72111904Y-111942619D01*
X72159523Y-111895000D01*
X72254761Y-111847380D01*
%TO.C,J3*%
X23476666Y-42992380D02*
X23476666Y-43706666D01*
X23429047Y-43849523D01*
X23333809Y-43944761D01*
X23190952Y-43992380D01*
X23095714Y-43992380D01*
X23857619Y-42992380D02*
X24476666Y-42992380D01*
X24143333Y-43373333D01*
X24286190Y-43373333D01*
X24381428Y-43420952D01*
X24429047Y-43468571D01*
X24476666Y-43563809D01*
X24476666Y-43801904D01*
X24429047Y-43897142D01*
X24381428Y-43944761D01*
X24286190Y-43992380D01*
X24000476Y-43992380D01*
X23905238Y-43944761D01*
X23857619Y-43897142D01*
%TD*%
M02*
