%TF.GenerationSoftware,KiCad,Pcbnew,(5.1.9)-1*%
%TF.CreationDate,2021-06-06T15:03:33-04:00*%
%TF.ProjectId,main,6d61696e-2e6b-4696-9361-645f70636258,rev?*%
%TF.SameCoordinates,Original*%
%TF.FileFunction,Soldermask,Top*%
%TF.FilePolarity,Negative*%
%FSLAX46Y46*%
G04 Gerber Fmt 4.6, Leading zero omitted, Abs format (unit mm)*
G04 Created by KiCad (PCBNEW (5.1.9)-1) date 2021-06-06 15:03:33*
%MOMM*%
%LPD*%
G01*
G04 APERTURE LIST*
%ADD10O,1.700000X1.700000*%
%ADD11R,1.700000X1.700000*%
%ADD12R,1.600000X1.600000*%
%ADD13O,1.600000X1.600000*%
%ADD14C,3.200000*%
%ADD15C,1.600000*%
G04 APERTURE END LIST*
D10*
%TO.C,JP2*%
X34925000Y-43815000D03*
D11*
X32385000Y-43815000D03*
%TD*%
D10*
%TO.C,JP1*%
X75565000Y-45720000D03*
D11*
X73025000Y-45720000D03*
%TD*%
D12*
%TO.C,U9*%
X114300000Y-103030000D03*
D13*
X114300000Y-100490000D03*
X114300000Y-97950000D03*
X114300000Y-95410000D03*
X114300000Y-92870000D03*
X114300000Y-90330000D03*
X99060000Y-90330000D03*
X99060000Y-92870000D03*
X99060000Y-95410000D03*
X99060000Y-97950000D03*
X99060000Y-100490000D03*
X99060000Y-103030000D03*
%TD*%
D12*
%TO.C,U8*%
X114300000Y-85250000D03*
D13*
X114300000Y-82710000D03*
X114300000Y-80170000D03*
X114300000Y-77630000D03*
X114300000Y-75090000D03*
X114300000Y-72550000D03*
X99060000Y-72550000D03*
X99060000Y-75090000D03*
X99060000Y-77630000D03*
X99060000Y-80170000D03*
X99060000Y-82710000D03*
X99060000Y-85250000D03*
%TD*%
D12*
%TO.C,U7*%
X114300000Y-67470000D03*
D13*
X114300000Y-64930000D03*
X114300000Y-62390000D03*
X114300000Y-59850000D03*
X114300000Y-57310000D03*
X114300000Y-54770000D03*
X99060000Y-54770000D03*
X99060000Y-57310000D03*
X99060000Y-59850000D03*
X99060000Y-62390000D03*
X99060000Y-64930000D03*
X99060000Y-67470000D03*
%TD*%
D12*
%TO.C,U6*%
X114300000Y-49690000D03*
D13*
X114300000Y-47150000D03*
X114300000Y-44610000D03*
X114300000Y-42070000D03*
X114300000Y-39530000D03*
X114300000Y-36990000D03*
X99060000Y-36990000D03*
X99060000Y-39530000D03*
X99060000Y-42070000D03*
X99060000Y-44610000D03*
X99060000Y-47150000D03*
X99060000Y-49690000D03*
%TD*%
%TO.C,U3*%
X86360000Y-54610000D03*
X78740000Y-82550000D03*
X86360000Y-57150000D03*
X78740000Y-80010000D03*
X86360000Y-59690000D03*
X78740000Y-77470000D03*
X86360000Y-62230000D03*
X78740000Y-74930000D03*
X86360000Y-64770000D03*
X78740000Y-72390000D03*
X86360000Y-67310000D03*
X78740000Y-69850000D03*
X86360000Y-69850000D03*
X78740000Y-67310000D03*
X86360000Y-72390000D03*
X78740000Y-64770000D03*
X86360000Y-74930000D03*
X78740000Y-62230000D03*
X86360000Y-77470000D03*
X78740000Y-59690000D03*
X86360000Y-80010000D03*
X78740000Y-57150000D03*
X86360000Y-82550000D03*
D12*
X78740000Y-54610000D03*
%TD*%
D13*
%TO.C,U5*%
X49530000Y-43180000D03*
X41910000Y-66040000D03*
X49530000Y-45720000D03*
X41910000Y-63500000D03*
X49530000Y-48260000D03*
X41910000Y-60960000D03*
X49530000Y-50800000D03*
X41910000Y-58420000D03*
X49530000Y-53340000D03*
X41910000Y-55880000D03*
X49530000Y-55880000D03*
X41910000Y-53340000D03*
X49530000Y-58420000D03*
X41910000Y-50800000D03*
X49530000Y-60960000D03*
X41910000Y-48260000D03*
X49530000Y-63500000D03*
X41910000Y-45720000D03*
X49530000Y-66040000D03*
D12*
X41910000Y-43180000D03*
%TD*%
D13*
%TO.C,U4*%
X67310000Y-43180000D03*
X59690000Y-66040000D03*
X67310000Y-45720000D03*
X59690000Y-63500000D03*
X67310000Y-48260000D03*
X59690000Y-60960000D03*
X67310000Y-50800000D03*
X59690000Y-58420000D03*
X67310000Y-53340000D03*
X59690000Y-55880000D03*
X67310000Y-55880000D03*
X59690000Y-53340000D03*
X67310000Y-58420000D03*
X59690000Y-50800000D03*
X67310000Y-60960000D03*
X59690000Y-48260000D03*
X67310000Y-63500000D03*
X59690000Y-45720000D03*
X67310000Y-66040000D03*
D12*
X59690000Y-43180000D03*
%TD*%
D13*
%TO.C,U2*%
X67310000Y-76200000D03*
X59690000Y-99060000D03*
X67310000Y-78740000D03*
X59690000Y-96520000D03*
X67310000Y-81280000D03*
X59690000Y-93980000D03*
X67310000Y-83820000D03*
X59690000Y-91440000D03*
X67310000Y-86360000D03*
X59690000Y-88900000D03*
X67310000Y-88900000D03*
X59690000Y-86360000D03*
X67310000Y-91440000D03*
X59690000Y-83820000D03*
X67310000Y-93980000D03*
X59690000Y-81280000D03*
X67310000Y-96520000D03*
X59690000Y-78740000D03*
X67310000Y-99060000D03*
D12*
X59690000Y-76200000D03*
%TD*%
D13*
%TO.C,U1*%
X49530000Y-76200000D03*
X41910000Y-99060000D03*
X49530000Y-78740000D03*
X41910000Y-96520000D03*
X49530000Y-81280000D03*
X41910000Y-93980000D03*
X49530000Y-83820000D03*
X41910000Y-91440000D03*
X49530000Y-86360000D03*
X41910000Y-88900000D03*
X49530000Y-88900000D03*
X41910000Y-86360000D03*
X49530000Y-91440000D03*
X41910000Y-83820000D03*
X49530000Y-93980000D03*
X41910000Y-81280000D03*
X49530000Y-96520000D03*
X41910000Y-78740000D03*
X49530000Y-99060000D03*
D12*
X41910000Y-76200000D03*
%TD*%
D14*
%TO.C,M4*%
X23500000Y-116500000D03*
%TD*%
%TO.C,M3*%
X23500000Y-23500000D03*
%TD*%
%TO.C,M2*%
X116500000Y-116500000D03*
%TD*%
%TO.C,M1*%
X116500000Y-23500000D03*
%TD*%
D15*
%TO.C,C3*%
X36360000Y-33230000D03*
D12*
X36360000Y-29730000D03*
%TD*%
D15*
%TO.C,C8*%
X46930000Y-33230000D03*
D12*
X46930000Y-29730000D03*
%TD*%
D11*
%TO.C,J2*%
X22540000Y-30600000D03*
D10*
X25080000Y-30600000D03*
X22540000Y-33140000D03*
X25080000Y-33140000D03*
X22540000Y-35680000D03*
X25080000Y-35680000D03*
X22540000Y-38220000D03*
X25080000Y-38220000D03*
%TD*%
%TO.C,J1*%
X25080000Y-109400000D03*
X22540000Y-109400000D03*
X25080000Y-106860000D03*
X22540000Y-106860000D03*
X25080000Y-104320000D03*
X22540000Y-104320000D03*
X25080000Y-101780000D03*
D11*
X22540000Y-101780000D03*
%TD*%
D10*
%TO.C,J4*%
X45870000Y-117460000D03*
X45870000Y-114920000D03*
X48410000Y-117460000D03*
X48410000Y-114920000D03*
X50950000Y-117460000D03*
X50950000Y-114920000D03*
X53490000Y-117460000D03*
X53490000Y-114920000D03*
X56030000Y-117460000D03*
X56030000Y-114920000D03*
X58570000Y-117460000D03*
X58570000Y-114920000D03*
X61110000Y-117460000D03*
X61110000Y-114920000D03*
X63650000Y-117460000D03*
X63650000Y-114920000D03*
X66190000Y-117460000D03*
X66190000Y-114920000D03*
X68730000Y-117460000D03*
X68730000Y-114920000D03*
X71270000Y-117460000D03*
X71270000Y-114920000D03*
X73810000Y-117460000D03*
X73810000Y-114920000D03*
X76350000Y-117460000D03*
X76350000Y-114920000D03*
X78890000Y-117460000D03*
X78890000Y-114920000D03*
X81430000Y-117460000D03*
X81430000Y-114920000D03*
X83970000Y-117460000D03*
X83970000Y-114920000D03*
X86510000Y-117460000D03*
X86510000Y-114920000D03*
X89050000Y-117460000D03*
X89050000Y-114920000D03*
X91590000Y-117460000D03*
X91590000Y-114920000D03*
X94130000Y-117460000D03*
D11*
X94130000Y-114920000D03*
%TD*%
D10*
%TO.C,J3*%
X25080000Y-94130000D03*
X22540000Y-94130000D03*
X25080000Y-91590000D03*
X22540000Y-91590000D03*
X25080000Y-89050000D03*
X22540000Y-89050000D03*
X25080000Y-86510000D03*
X22540000Y-86510000D03*
X25080000Y-83970000D03*
X22540000Y-83970000D03*
X25080000Y-81430000D03*
X22540000Y-81430000D03*
X25080000Y-78890000D03*
X22540000Y-78890000D03*
X25080000Y-76350000D03*
X22540000Y-76350000D03*
X25080000Y-73810000D03*
X22540000Y-73810000D03*
X25080000Y-71270000D03*
X22540000Y-71270000D03*
X25080000Y-68730000D03*
X22540000Y-68730000D03*
X25080000Y-66190000D03*
X22540000Y-66190000D03*
X25080000Y-63650000D03*
X22540000Y-63650000D03*
X25080000Y-61110000D03*
X22540000Y-61110000D03*
X25080000Y-58570000D03*
X22540000Y-58570000D03*
X25080000Y-56030000D03*
X22540000Y-56030000D03*
X25080000Y-53490000D03*
X22540000Y-53490000D03*
X25080000Y-50950000D03*
X22540000Y-50950000D03*
X25080000Y-48410000D03*
X22540000Y-48410000D03*
X25080000Y-45870000D03*
D11*
X22540000Y-45870000D03*
%TD*%
M02*
