M48
; DRILL file {KiCad (5.1.9)-1} date 06/06/21 15:03:38
; FORMAT={-:-/ absolute / inch / decimal}
; #@! TF.CreationDate,2021-06-06T15:03:38-04:00
; #@! TF.GenerationSoftware,Kicad,Pcbnew,(5.1.9)-1
FMAT,2
INCH
T1C0.0118
T2C0.0236
T3C0.0315
T4C0.0394
T5C0.1260
%
G90
G05
T1
X1.1796Y-3.2134
X1.3069Y-3.0371
X1.7335Y-2.6808
X1.8838Y-2.4321
X2.0323Y-3.5504
X2.5497Y-3.2518
X2.6031Y-3.4794
X2.6348Y-3.9493
X2.6698Y-4.0814
X2.6862Y-4.1109
X2.7007Y-3.6071
X2.7523Y-3.4593
X3.2299Y-2.4857
X3.2634Y-2.9221
X3.3217Y-3.0442
X3.4618Y-3.1401
T2
X1.6094Y-2.689
X1.7367Y-3.0239
X1.8102Y-2.6591
T3
X1.4315Y-1.1705
X1.4315Y-1.3083
X1.65Y-1.7
X1.65Y-1.8
X1.65Y-1.9
X1.65Y-2.0
X1.65Y-2.1
X1.65Y-2.2
X1.65Y-2.3
X1.65Y-2.4
X1.65Y-2.5
X1.65Y-2.6
X1.65Y-3.0
X1.65Y-3.1
X1.65Y-3.2
X1.65Y-3.3
X1.65Y-3.4
X1.65Y-3.5
X1.65Y-3.6
X1.65Y-3.7
X1.65Y-3.8
X1.65Y-3.9
X1.8476Y-1.1705
X1.8476Y-1.3083
X1.95Y-1.7
X1.95Y-1.8
X1.95Y-1.9
X1.95Y-2.0
X1.95Y-2.1
X1.95Y-2.2
X1.95Y-2.3
X1.95Y-2.4
X1.95Y-2.5
X1.95Y-2.6
X1.95Y-3.0
X1.95Y-3.1
X1.95Y-3.2
X1.95Y-3.3
X1.95Y-3.4
X1.95Y-3.5
X1.95Y-3.6
X1.95Y-3.7
X1.95Y-3.8
X1.95Y-3.9
X2.35Y-1.7
X2.35Y-1.8
X2.35Y-1.9
X2.35Y-2.0
X2.35Y-2.1
X2.35Y-2.2
X2.35Y-2.3
X2.35Y-2.4
X2.35Y-2.5
X2.35Y-2.6
X2.35Y-3.0
X2.35Y-3.1
X2.35Y-3.2
X2.35Y-3.3
X2.35Y-3.4
X2.35Y-3.5
X2.35Y-3.6
X2.35Y-3.7
X2.35Y-3.8
X2.35Y-3.9
X2.65Y-1.7
X2.65Y-1.8
X2.65Y-1.9
X2.65Y-2.0
X2.65Y-2.1
X2.65Y-2.2
X2.65Y-2.3
X2.65Y-2.4
X2.65Y-2.5
X2.65Y-2.6
X2.65Y-3.0
X2.65Y-3.1
X2.65Y-3.2
X2.65Y-3.3
X2.65Y-3.4
X2.65Y-3.5
X2.65Y-3.6
X2.65Y-3.7
X2.65Y-3.8
X2.65Y-3.9
X3.1Y-2.15
X3.1Y-2.25
X3.1Y-2.35
X3.1Y-2.45
X3.1Y-2.55
X3.1Y-2.65
X3.1Y-2.75
X3.1Y-2.85
X3.1Y-2.95
X3.1Y-3.05
X3.1Y-3.15
X3.1Y-3.25
X3.4Y-2.15
X3.4Y-2.25
X3.4Y-2.35
X3.4Y-2.45
X3.4Y-2.55
X3.4Y-2.65
X3.4Y-2.75
X3.4Y-2.85
X3.4Y-2.95
X3.4Y-3.05
X3.4Y-3.15
X3.4Y-3.25
X3.9Y-1.4563
X3.9Y-1.5563
X3.9Y-1.6563
X3.9Y-1.7563
X3.9Y-1.8563
X3.9Y-1.9563
X3.9Y-2.1563
X3.9Y-2.2563
X3.9Y-2.3563
X3.9Y-2.4563
X3.9Y-2.5563
X3.9Y-2.6563
X3.9Y-2.8563
X3.9Y-2.9563
X3.9Y-3.0563
X3.9Y-3.1563
X3.9Y-3.2563
X3.9Y-3.3563
X3.9Y-3.5563
X3.9Y-3.6563
X3.9Y-3.7563
X3.9Y-3.8563
X3.9Y-3.9563
X3.9Y-4.0563
X4.5Y-1.4563
X4.5Y-1.5563
X4.5Y-1.6563
X4.5Y-1.7563
X4.5Y-1.8563
X4.5Y-1.9563
X4.5Y-2.1563
X4.5Y-2.2563
X4.5Y-2.3563
X4.5Y-2.4563
X4.5Y-2.5563
X4.5Y-2.6563
X4.5Y-2.8563
X4.5Y-2.9563
X4.5Y-3.0563
X4.5Y-3.1563
X4.5Y-3.2563
X4.5Y-3.3563
X4.5Y-3.5563
X4.5Y-3.6563
X4.5Y-3.7563
X4.5Y-3.8563
X4.5Y-3.9563
X4.5Y-4.0563
T4
X0.8874Y-1.2047
X0.8874Y-1.3047
X0.8874Y-1.4047
X0.8874Y-1.5047
X0.8874Y-1.8059
X0.8874Y-1.9059
X0.8874Y-2.0059
X0.8874Y-2.1059
X0.8874Y-2.2059
X0.8874Y-2.3059
X0.8874Y-2.4059
X0.8874Y-2.5059
X0.8874Y-2.6059
X0.8874Y-2.7059
X0.8874Y-2.8059
X0.8874Y-2.9059
X0.8874Y-3.0059
X0.8874Y-3.1059
X0.8874Y-3.2059
X0.8874Y-3.3059
X0.8874Y-3.4059
X0.8874Y-3.5059
X0.8874Y-3.6059
X0.8874Y-3.7059
X0.8874Y-4.0071
X0.8874Y-4.1071
X0.8874Y-4.2071
X0.8874Y-4.3071
X0.9874Y-1.2047
X0.9874Y-1.3047
X0.9874Y-1.4047
X0.9874Y-1.5047
X0.9874Y-1.8059
X0.9874Y-1.9059
X0.9874Y-2.0059
X0.9874Y-2.1059
X0.9874Y-2.2059
X0.9874Y-2.3059
X0.9874Y-2.4059
X0.9874Y-2.5059
X0.9874Y-2.6059
X0.9874Y-2.7059
X0.9874Y-2.8059
X0.9874Y-2.9059
X0.9874Y-3.0059
X0.9874Y-3.1059
X0.9874Y-3.2059
X0.9874Y-3.3059
X0.9874Y-3.4059
X0.9874Y-3.5059
X0.9874Y-3.6059
X0.9874Y-3.7059
X0.9874Y-4.0071
X0.9874Y-4.1071
X0.9874Y-4.2071
X0.9874Y-4.3071
X1.275Y-1.725
X1.375Y-1.725
X1.8059Y-4.5244
X1.8059Y-4.6244
X1.9059Y-4.5244
X1.9059Y-4.6244
X2.0059Y-4.5244
X2.0059Y-4.6244
X2.1059Y-4.5244
X2.1059Y-4.6244
X2.2059Y-4.5244
X2.2059Y-4.6244
X2.3059Y-4.5244
X2.3059Y-4.6244
X2.4059Y-4.5244
X2.4059Y-4.6244
X2.5059Y-4.5244
X2.5059Y-4.6244
X2.6059Y-4.5244
X2.6059Y-4.6244
X2.7059Y-4.5244
X2.7059Y-4.6244
X2.8059Y-4.5244
X2.8059Y-4.6244
X2.875Y-1.8
X2.9059Y-4.5244
X2.9059Y-4.6244
X2.975Y-1.8
X3.0059Y-4.5244
X3.0059Y-4.6244
X3.1059Y-4.5244
X3.1059Y-4.6244
X3.2059Y-4.5244
X3.2059Y-4.6244
X3.3059Y-4.5244
X3.3059Y-4.6244
X3.4059Y-4.5244
X3.4059Y-4.6244
X3.5059Y-4.5244
X3.5059Y-4.6244
X3.6059Y-4.5244
X3.6059Y-4.6244
X3.7059Y-4.5244
X3.7059Y-4.6244
T5
X0.9252Y-0.9252
X0.9252Y-4.5866
X4.5866Y-0.9252
X4.5866Y-4.5866
T0
M30
