%TF.GenerationSoftware,KiCad,Pcbnew,(5.1.9)-1*%
%TF.CreationDate,2021-05-09T07:52:10-04:00*%
%TF.ProjectId,cpu2,63707532-2e6b-4696-9361-645f70636258,rev?*%
%TF.SameCoordinates,Original*%
%TF.FileFunction,Legend,Top*%
%TF.FilePolarity,Positive*%
%FSLAX46Y46*%
G04 Gerber Fmt 4.6, Leading zero omitted, Abs format (unit mm)*
G04 Created by KiCad (PCBNEW (5.1.9)-1) date 2021-05-09 07:52:10*
%MOMM*%
%LPD*%
G01*
G04 APERTURE LIST*
%ADD10C,0.150000*%
%ADD11C,0.120000*%
G04 APERTURE END LIST*
D10*
X40260000Y-37743380D02*
X40926666Y-37743380D01*
X40260000Y-38743380D01*
X40926666Y-38743380D01*
X41450476Y-38171952D02*
X41355238Y-38124333D01*
X41307619Y-38076714D01*
X41260000Y-37981476D01*
X41260000Y-37933857D01*
X41307619Y-37838619D01*
X41355238Y-37791000D01*
X41450476Y-37743380D01*
X41640952Y-37743380D01*
X41736190Y-37791000D01*
X41783809Y-37838619D01*
X41831428Y-37933857D01*
X41831428Y-37981476D01*
X41783809Y-38076714D01*
X41736190Y-38124333D01*
X41640952Y-38171952D01*
X41450476Y-38171952D01*
X41355238Y-38219571D01*
X41307619Y-38267190D01*
X41260000Y-38362428D01*
X41260000Y-38552904D01*
X41307619Y-38648142D01*
X41355238Y-38695761D01*
X41450476Y-38743380D01*
X41640952Y-38743380D01*
X41736190Y-38695761D01*
X41783809Y-38648142D01*
X41831428Y-38552904D01*
X41831428Y-38362428D01*
X41783809Y-38267190D01*
X41736190Y-38219571D01*
X41640952Y-38171952D01*
X42450476Y-37743380D02*
X42545714Y-37743380D01*
X42640952Y-37791000D01*
X42688571Y-37838619D01*
X42736190Y-37933857D01*
X42783809Y-38124333D01*
X42783809Y-38362428D01*
X42736190Y-38552904D01*
X42688571Y-38648142D01*
X42640952Y-38695761D01*
X42545714Y-38743380D01*
X42450476Y-38743380D01*
X42355238Y-38695761D01*
X42307619Y-38648142D01*
X42260000Y-38552904D01*
X42212380Y-38362428D01*
X42212380Y-38124333D01*
X42260000Y-37933857D01*
X42307619Y-37838619D01*
X42355238Y-37791000D01*
X42450476Y-37743380D01*
X44545714Y-38648142D02*
X44498095Y-38695761D01*
X44355238Y-38743380D01*
X44260000Y-38743380D01*
X44117142Y-38695761D01*
X44021904Y-38600523D01*
X43974285Y-38505285D01*
X43926666Y-38314809D01*
X43926666Y-38171952D01*
X43974285Y-37981476D01*
X44021904Y-37886238D01*
X44117142Y-37791000D01*
X44260000Y-37743380D01*
X44355238Y-37743380D01*
X44498095Y-37791000D01*
X44545714Y-37838619D01*
X44974285Y-38743380D02*
X44974285Y-37743380D01*
X45355238Y-37743380D01*
X45450476Y-37791000D01*
X45498095Y-37838619D01*
X45545714Y-37933857D01*
X45545714Y-38076714D01*
X45498095Y-38171952D01*
X45450476Y-38219571D01*
X45355238Y-38267190D01*
X44974285Y-38267190D01*
X45974285Y-37743380D02*
X45974285Y-38552904D01*
X46021904Y-38648142D01*
X46069523Y-38695761D01*
X46164761Y-38743380D01*
X46355238Y-38743380D01*
X46450476Y-38695761D01*
X46498095Y-38648142D01*
X46545714Y-38552904D01*
X46545714Y-37743380D01*
X47783809Y-38743380D02*
X47783809Y-37743380D01*
X48117142Y-38457666D01*
X48450476Y-37743380D01*
X48450476Y-38743380D01*
X48926666Y-38219571D02*
X49260000Y-38219571D01*
X49402857Y-38743380D02*
X48926666Y-38743380D01*
X48926666Y-37743380D01*
X49402857Y-37743380D01*
X49831428Y-38743380D02*
X49831428Y-37743380D01*
X50164761Y-38457666D01*
X50498095Y-37743380D01*
X50498095Y-38743380D01*
X52069523Y-38219571D02*
X52212380Y-38267190D01*
X52260000Y-38314809D01*
X52307619Y-38410047D01*
X52307619Y-38552904D01*
X52260000Y-38648142D01*
X52212380Y-38695761D01*
X52117142Y-38743380D01*
X51736190Y-38743380D01*
X51736190Y-37743380D01*
X52069523Y-37743380D01*
X52164761Y-37791000D01*
X52212380Y-37838619D01*
X52260000Y-37933857D01*
X52260000Y-38029095D01*
X52212380Y-38124333D01*
X52164761Y-38171952D01*
X52069523Y-38219571D01*
X51736190Y-38219571D01*
X52926666Y-37743380D02*
X53117142Y-37743380D01*
X53212380Y-37791000D01*
X53307619Y-37886238D01*
X53355238Y-38076714D01*
X53355238Y-38410047D01*
X53307619Y-38600523D01*
X53212380Y-38695761D01*
X53117142Y-38743380D01*
X52926666Y-38743380D01*
X52831428Y-38695761D01*
X52736190Y-38600523D01*
X52688571Y-38410047D01*
X52688571Y-38076714D01*
X52736190Y-37886238D01*
X52831428Y-37791000D01*
X52926666Y-37743380D01*
X53736190Y-38457666D02*
X54212380Y-38457666D01*
X53640952Y-38743380D02*
X53974285Y-37743380D01*
X54307619Y-38743380D01*
X55212380Y-38743380D02*
X54879047Y-38267190D01*
X54640952Y-38743380D02*
X54640952Y-37743380D01*
X55021904Y-37743380D01*
X55117142Y-37791000D01*
X55164761Y-37838619D01*
X55212380Y-37933857D01*
X55212380Y-38076714D01*
X55164761Y-38171952D01*
X55117142Y-38219571D01*
X55021904Y-38267190D01*
X54640952Y-38267190D01*
X55640952Y-38743380D02*
X55640952Y-37743380D01*
X55879047Y-37743380D01*
X56021904Y-37791000D01*
X56117142Y-37886238D01*
X56164761Y-37981476D01*
X56212380Y-38171952D01*
X56212380Y-38314809D01*
X56164761Y-38505285D01*
X56117142Y-38600523D01*
X56021904Y-38695761D01*
X55879047Y-38743380D01*
X55640952Y-38743380D01*
X42736190Y-40107666D02*
X43212380Y-40107666D01*
X42640952Y-40393380D02*
X42974285Y-39393380D01*
X43307619Y-40393380D01*
X43640952Y-40298142D02*
X43688571Y-40345761D01*
X43640952Y-40393380D01*
X43593333Y-40345761D01*
X43640952Y-40298142D01*
X43640952Y-40393380D01*
X44783809Y-39393380D02*
X45021904Y-40393380D01*
X45212380Y-39679095D01*
X45402857Y-40393380D01*
X45640952Y-39393380D01*
X46021904Y-40393380D02*
X46021904Y-39726714D01*
X46021904Y-39393380D02*
X45974285Y-39441000D01*
X46021904Y-39488619D01*
X46069523Y-39441000D01*
X46021904Y-39393380D01*
X46021904Y-39488619D01*
X46640952Y-40393380D02*
X46545714Y-40345761D01*
X46498095Y-40250523D01*
X46498095Y-39393380D01*
X46974285Y-40345761D02*
X47069523Y-40393380D01*
X47260000Y-40393380D01*
X47355238Y-40345761D01*
X47402857Y-40250523D01*
X47402857Y-40202904D01*
X47355238Y-40107666D01*
X47260000Y-40060047D01*
X47117142Y-40060047D01*
X47021904Y-40012428D01*
X46974285Y-39917190D01*
X46974285Y-39869571D01*
X47021904Y-39774333D01*
X47117142Y-39726714D01*
X47260000Y-39726714D01*
X47355238Y-39774333D01*
X47974285Y-40393380D02*
X47879047Y-40345761D01*
X47831428Y-40298142D01*
X47783809Y-40202904D01*
X47783809Y-39917190D01*
X47831428Y-39821952D01*
X47879047Y-39774333D01*
X47974285Y-39726714D01*
X48117142Y-39726714D01*
X48212380Y-39774333D01*
X48260000Y-39821952D01*
X48307619Y-39917190D01*
X48307619Y-40202904D01*
X48260000Y-40298142D01*
X48212380Y-40345761D01*
X48117142Y-40393380D01*
X47974285Y-40393380D01*
X48736190Y-39726714D02*
X48736190Y-40393380D01*
X48736190Y-39821952D02*
X48783809Y-39774333D01*
X48879047Y-39726714D01*
X49021904Y-39726714D01*
X49117142Y-39774333D01*
X49164761Y-39869571D01*
X49164761Y-40393380D01*
X50355238Y-39488619D02*
X50402857Y-39441000D01*
X50498095Y-39393380D01*
X50736190Y-39393380D01*
X50831428Y-39441000D01*
X50879047Y-39488619D01*
X50926666Y-39583857D01*
X50926666Y-39679095D01*
X50879047Y-39821952D01*
X50307619Y-40393380D01*
X50926666Y-40393380D01*
X51545714Y-39393380D02*
X51640952Y-39393380D01*
X51736190Y-39441000D01*
X51783809Y-39488619D01*
X51831428Y-39583857D01*
X51879047Y-39774333D01*
X51879047Y-40012428D01*
X51831428Y-40202904D01*
X51783809Y-40298142D01*
X51736190Y-40345761D01*
X51640952Y-40393380D01*
X51545714Y-40393380D01*
X51450476Y-40345761D01*
X51402857Y-40298142D01*
X51355238Y-40202904D01*
X51307619Y-40012428D01*
X51307619Y-39774333D01*
X51355238Y-39583857D01*
X51402857Y-39488619D01*
X51450476Y-39441000D01*
X51545714Y-39393380D01*
X52260000Y-39488619D02*
X52307619Y-39441000D01*
X52402857Y-39393380D01*
X52640952Y-39393380D01*
X52736190Y-39441000D01*
X52783809Y-39488619D01*
X52831428Y-39583857D01*
X52831428Y-39679095D01*
X52783809Y-39821952D01*
X52212380Y-40393380D01*
X52831428Y-40393380D01*
X53783809Y-40393380D02*
X53212380Y-40393380D01*
X53498095Y-40393380D02*
X53498095Y-39393380D01*
X53402857Y-39536238D01*
X53307619Y-39631476D01*
X53212380Y-39679095D01*
D11*
%TO.C,J5*%
X62036000Y-20514000D02*
X62036000Y-21844000D01*
X60706000Y-20514000D02*
X62036000Y-20514000D01*
X59436000Y-20514000D02*
X59436000Y-23174000D01*
X59436000Y-23174000D02*
X28896000Y-23174000D01*
X59436000Y-20514000D02*
X28896000Y-20514000D01*
X28896000Y-20514000D02*
X28896000Y-23174000D01*
%TO.C,D5*%
X59754000Y-28230000D02*
X59910000Y-28230000D01*
X57438000Y-28230000D02*
X57594000Y-28230000D01*
X59753837Y-25628870D02*
G75*
G02*
X59754000Y-27710961I-1079837J-1041130D01*
G01*
X57594163Y-25628870D02*
G75*
G03*
X57594000Y-27710961I1079837J-1041130D01*
G01*
X59752608Y-24997665D02*
G75*
G02*
X59909516Y-28230000I-1078608J-1672335D01*
G01*
X57595392Y-24997665D02*
G75*
G03*
X57438484Y-28230000I1078608J-1672335D01*
G01*
%TO.C,D4*%
X59754000Y-36104000D02*
X59910000Y-36104000D01*
X57438000Y-36104000D02*
X57594000Y-36104000D01*
X59753837Y-33502870D02*
G75*
G02*
X59754000Y-35584961I-1079837J-1041130D01*
G01*
X57594163Y-33502870D02*
G75*
G03*
X57594000Y-35584961I1079837J-1041130D01*
G01*
X59752608Y-32871665D02*
G75*
G02*
X59909516Y-36104000I-1078608J-1672335D01*
G01*
X57595392Y-32871665D02*
G75*
G03*
X57438484Y-36104000I1078608J-1672335D01*
G01*
%TO.C,D3*%
X105120000Y-25210000D02*
X105120000Y-25366000D01*
X105120000Y-22894000D02*
X105120000Y-23050000D01*
X107721130Y-25209837D02*
G75*
G02*
X105639039Y-25210000I-1041130J1079837D01*
G01*
X107721130Y-23050163D02*
G75*
G03*
X105639039Y-23050000I-1041130J-1079837D01*
G01*
X108352335Y-25208608D02*
G75*
G02*
X105120000Y-25365516I-1672335J1078608D01*
G01*
X108352335Y-23051392D02*
G75*
G03*
X105120000Y-22894484I-1672335J-1078608D01*
G01*
%TO.C,C3*%
X28854302Y-35893000D02*
X28854302Y-36693000D01*
X28454302Y-36293000D02*
X29254302Y-36293000D01*
X36945000Y-38075000D02*
X36945000Y-39141000D01*
X36905000Y-37840000D02*
X36905000Y-39376000D01*
X36865000Y-37660000D02*
X36865000Y-39556000D01*
X36825000Y-37510000D02*
X36825000Y-39706000D01*
X36785000Y-37379000D02*
X36785000Y-39837000D01*
X36745000Y-37262000D02*
X36745000Y-39954000D01*
X36705000Y-37155000D02*
X36705000Y-40061000D01*
X36665000Y-37056000D02*
X36665000Y-40160000D01*
X36625000Y-36963000D02*
X36625000Y-40253000D01*
X36585000Y-36877000D02*
X36585000Y-40339000D01*
X36545000Y-36795000D02*
X36545000Y-40421000D01*
X36505000Y-36718000D02*
X36505000Y-40498000D01*
X36465000Y-36644000D02*
X36465000Y-40572000D01*
X36425000Y-36574000D02*
X36425000Y-40642000D01*
X36385000Y-36506000D02*
X36385000Y-40710000D01*
X36345000Y-36442000D02*
X36345000Y-40774000D01*
X36305000Y-36380000D02*
X36305000Y-40836000D01*
X36265000Y-36321000D02*
X36265000Y-40895000D01*
X36225000Y-36263000D02*
X36225000Y-40953000D01*
X36185000Y-36208000D02*
X36185000Y-41008000D01*
X36145000Y-36154000D02*
X36145000Y-41062000D01*
X36105000Y-36103000D02*
X36105000Y-41113000D01*
X36065000Y-36052000D02*
X36065000Y-41164000D01*
X36025000Y-36004000D02*
X36025000Y-41212000D01*
X35985000Y-35957000D02*
X35985000Y-41259000D01*
X35945000Y-35911000D02*
X35945000Y-41305000D01*
X35905000Y-35867000D02*
X35905000Y-41349000D01*
X35865000Y-35824000D02*
X35865000Y-41392000D01*
X35825000Y-35782000D02*
X35825000Y-41434000D01*
X35785000Y-35741000D02*
X35785000Y-41475000D01*
X35745000Y-35701000D02*
X35745000Y-41515000D01*
X35705000Y-35663000D02*
X35705000Y-41553000D01*
X35665000Y-35625000D02*
X35665000Y-41591000D01*
X35625000Y-39648000D02*
X35625000Y-41627000D01*
X35625000Y-35589000D02*
X35625000Y-37568000D01*
X35585000Y-39648000D02*
X35585000Y-41663000D01*
X35585000Y-35553000D02*
X35585000Y-37568000D01*
X35545000Y-39648000D02*
X35545000Y-41698000D01*
X35545000Y-35518000D02*
X35545000Y-37568000D01*
X35505000Y-39648000D02*
X35505000Y-41732000D01*
X35505000Y-35484000D02*
X35505000Y-37568000D01*
X35465000Y-39648000D02*
X35465000Y-41764000D01*
X35465000Y-35452000D02*
X35465000Y-37568000D01*
X35425000Y-39648000D02*
X35425000Y-41797000D01*
X35425000Y-35419000D02*
X35425000Y-37568000D01*
X35385000Y-39648000D02*
X35385000Y-41828000D01*
X35385000Y-35388000D02*
X35385000Y-37568000D01*
X35345000Y-39648000D02*
X35345000Y-41858000D01*
X35345000Y-35358000D02*
X35345000Y-37568000D01*
X35305000Y-39648000D02*
X35305000Y-41888000D01*
X35305000Y-35328000D02*
X35305000Y-37568000D01*
X35265000Y-39648000D02*
X35265000Y-41917000D01*
X35265000Y-35299000D02*
X35265000Y-37568000D01*
X35225000Y-39648000D02*
X35225000Y-41946000D01*
X35225000Y-35270000D02*
X35225000Y-37568000D01*
X35185000Y-39648000D02*
X35185000Y-41973000D01*
X35185000Y-35243000D02*
X35185000Y-37568000D01*
X35145000Y-39648000D02*
X35145000Y-42000000D01*
X35145000Y-35216000D02*
X35145000Y-37568000D01*
X35105000Y-39648000D02*
X35105000Y-42026000D01*
X35105000Y-35190000D02*
X35105000Y-37568000D01*
X35065000Y-39648000D02*
X35065000Y-42052000D01*
X35065000Y-35164000D02*
X35065000Y-37568000D01*
X35025000Y-39648000D02*
X35025000Y-42077000D01*
X35025000Y-35139000D02*
X35025000Y-37568000D01*
X34985000Y-39648000D02*
X34985000Y-42101000D01*
X34985000Y-35115000D02*
X34985000Y-37568000D01*
X34945000Y-39648000D02*
X34945000Y-42125000D01*
X34945000Y-35091000D02*
X34945000Y-37568000D01*
X34905000Y-39648000D02*
X34905000Y-42148000D01*
X34905000Y-35068000D02*
X34905000Y-37568000D01*
X34865000Y-39648000D02*
X34865000Y-42170000D01*
X34865000Y-35046000D02*
X34865000Y-37568000D01*
X34825000Y-39648000D02*
X34825000Y-42192000D01*
X34825000Y-35024000D02*
X34825000Y-37568000D01*
X34785000Y-39648000D02*
X34785000Y-42214000D01*
X34785000Y-35002000D02*
X34785000Y-37568000D01*
X34745000Y-39648000D02*
X34745000Y-42235000D01*
X34745000Y-34981000D02*
X34745000Y-37568000D01*
X34705000Y-39648000D02*
X34705000Y-42255000D01*
X34705000Y-34961000D02*
X34705000Y-37568000D01*
X34665000Y-39648000D02*
X34665000Y-42274000D01*
X34665000Y-34942000D02*
X34665000Y-37568000D01*
X34625000Y-39648000D02*
X34625000Y-42294000D01*
X34625000Y-34922000D02*
X34625000Y-37568000D01*
X34585000Y-39648000D02*
X34585000Y-42312000D01*
X34585000Y-34904000D02*
X34585000Y-37568000D01*
X34545000Y-39648000D02*
X34545000Y-42330000D01*
X34545000Y-34886000D02*
X34545000Y-37568000D01*
X34505000Y-39648000D02*
X34505000Y-42348000D01*
X34505000Y-34868000D02*
X34505000Y-37568000D01*
X34465000Y-39648000D02*
X34465000Y-42365000D01*
X34465000Y-34851000D02*
X34465000Y-37568000D01*
X34425000Y-39648000D02*
X34425000Y-42382000D01*
X34425000Y-34834000D02*
X34425000Y-37568000D01*
X34385000Y-39648000D02*
X34385000Y-42398000D01*
X34385000Y-34818000D02*
X34385000Y-37568000D01*
X34345000Y-39648000D02*
X34345000Y-42413000D01*
X34345000Y-34803000D02*
X34345000Y-37568000D01*
X34305000Y-39648000D02*
X34305000Y-42429000D01*
X34305000Y-34787000D02*
X34305000Y-37568000D01*
X34265000Y-39648000D02*
X34265000Y-42443000D01*
X34265000Y-34773000D02*
X34265000Y-37568000D01*
X34225000Y-39648000D02*
X34225000Y-42458000D01*
X34225000Y-34758000D02*
X34225000Y-37568000D01*
X34185000Y-39648000D02*
X34185000Y-42471000D01*
X34185000Y-34745000D02*
X34185000Y-37568000D01*
X34145000Y-39648000D02*
X34145000Y-42485000D01*
X34145000Y-34731000D02*
X34145000Y-37568000D01*
X34105000Y-39648000D02*
X34105000Y-42497000D01*
X34105000Y-34719000D02*
X34105000Y-37568000D01*
X34065000Y-39648000D02*
X34065000Y-42510000D01*
X34065000Y-34706000D02*
X34065000Y-37568000D01*
X34025000Y-39648000D02*
X34025000Y-42522000D01*
X34025000Y-34694000D02*
X34025000Y-37568000D01*
X33985000Y-39648000D02*
X33985000Y-42533000D01*
X33985000Y-34683000D02*
X33985000Y-37568000D01*
X33945000Y-39648000D02*
X33945000Y-42544000D01*
X33945000Y-34672000D02*
X33945000Y-37568000D01*
X33905000Y-39648000D02*
X33905000Y-42555000D01*
X33905000Y-34661000D02*
X33905000Y-37568000D01*
X33865000Y-39648000D02*
X33865000Y-42565000D01*
X33865000Y-34651000D02*
X33865000Y-37568000D01*
X33825000Y-39648000D02*
X33825000Y-42575000D01*
X33825000Y-34641000D02*
X33825000Y-37568000D01*
X33785000Y-39648000D02*
X33785000Y-42584000D01*
X33785000Y-34632000D02*
X33785000Y-37568000D01*
X33745000Y-39648000D02*
X33745000Y-42593000D01*
X33745000Y-34623000D02*
X33745000Y-37568000D01*
X33705000Y-39648000D02*
X33705000Y-42602000D01*
X33705000Y-34614000D02*
X33705000Y-37568000D01*
X33665000Y-39648000D02*
X33665000Y-42610000D01*
X33665000Y-34606000D02*
X33665000Y-37568000D01*
X33625000Y-39648000D02*
X33625000Y-42618000D01*
X33625000Y-34598000D02*
X33625000Y-37568000D01*
X33585000Y-39648000D02*
X33585000Y-42625000D01*
X33585000Y-34591000D02*
X33585000Y-37568000D01*
X33544000Y-34584000D02*
X33544000Y-42632000D01*
X33504000Y-34578000D02*
X33504000Y-42638000D01*
X33464000Y-34571000D02*
X33464000Y-42645000D01*
X33424000Y-34566000D02*
X33424000Y-42650000D01*
X33384000Y-34560000D02*
X33384000Y-42656000D01*
X33344000Y-34556000D02*
X33344000Y-42660000D01*
X33304000Y-34551000D02*
X33304000Y-42665000D01*
X33264000Y-34547000D02*
X33264000Y-42669000D01*
X33224000Y-34543000D02*
X33224000Y-42673000D01*
X33184000Y-34540000D02*
X33184000Y-42676000D01*
X33144000Y-34537000D02*
X33144000Y-42679000D01*
X33104000Y-34534000D02*
X33104000Y-42682000D01*
X33064000Y-34532000D02*
X33064000Y-42684000D01*
X33024000Y-34531000D02*
X33024000Y-42685000D01*
X32984000Y-34529000D02*
X32984000Y-42687000D01*
X32944000Y-34528000D02*
X32944000Y-42688000D01*
X32904000Y-34528000D02*
X32904000Y-42688000D01*
X32864000Y-34528000D02*
X32864000Y-42688000D01*
X36984000Y-38608000D02*
G75*
G03*
X36984000Y-38608000I-4120000J0D01*
G01*
%TO.C,SW2*%
X110855000Y-63920000D02*
X115355000Y-63920000D01*
X109605000Y-59920000D02*
X109605000Y-61420000D01*
X115355000Y-57420000D02*
X110855000Y-57420000D01*
X116605000Y-61420000D02*
X116605000Y-59920000D01*
%TO.C,SW1*%
X110855000Y-54395000D02*
X115355000Y-54395000D01*
X109605000Y-50395000D02*
X109605000Y-51895000D01*
X115355000Y-47895000D02*
X110855000Y-47895000D01*
X116605000Y-51895000D02*
X116605000Y-50395000D01*
%TO.C,U8*%
X97850000Y-44330000D02*
X87570000Y-44330000D01*
X97850000Y-64890000D02*
X97850000Y-44330000D01*
X87570000Y-64890000D02*
X97850000Y-64890000D01*
X87570000Y-44330000D02*
X87570000Y-64890000D01*
X95360000Y-44390000D02*
X93710000Y-44390000D01*
X95360000Y-64830000D02*
X95360000Y-44390000D01*
X90060000Y-64830000D02*
X95360000Y-64830000D01*
X90060000Y-44390000D02*
X90060000Y-64830000D01*
X91710000Y-44390000D02*
X90060000Y-44390000D01*
X93710000Y-44390000D02*
G75*
G02*
X91710000Y-44390000I-1000000J0D01*
G01*
%TO.C,Y1*%
X82755000Y-49790000D02*
X82755000Y-60690000D01*
X82755000Y-60690000D02*
X86155000Y-60690000D01*
X86155000Y-60690000D02*
X86155000Y-49790000D01*
X86155000Y-49790000D02*
X82755000Y-49790000D01*
X83855000Y-49790000D02*
X83185000Y-48390000D01*
X83185000Y-48390000D02*
X83185000Y-47690000D01*
X85055000Y-49790000D02*
X85725000Y-48390000D01*
X85725000Y-48390000D02*
X85725000Y-47690000D01*
%TO.C,BT1*%
X98130000Y-27850000D02*
X98130000Y-35650000D01*
X77030000Y-35550000D02*
X74130000Y-35550000D01*
X74130000Y-35550000D02*
X74130000Y-27950000D01*
X74130000Y-27950000D02*
X77030000Y-27950000D01*
X98129999Y-35650000D02*
G75*
G02*
X77130001Y-35649999I-10499999J3900000D01*
G01*
X77097630Y-27938285D02*
G75*
G02*
X98129999Y-27850001I10532370J-3811715D01*
G01*
%TO.C,C8*%
X28854302Y-26114000D02*
X28854302Y-26914000D01*
X28454302Y-26514000D02*
X29254302Y-26514000D01*
X36945000Y-28296000D02*
X36945000Y-29362000D01*
X36905000Y-28061000D02*
X36905000Y-29597000D01*
X36865000Y-27881000D02*
X36865000Y-29777000D01*
X36825000Y-27731000D02*
X36825000Y-29927000D01*
X36785000Y-27600000D02*
X36785000Y-30058000D01*
X36745000Y-27483000D02*
X36745000Y-30175000D01*
X36705000Y-27376000D02*
X36705000Y-30282000D01*
X36665000Y-27277000D02*
X36665000Y-30381000D01*
X36625000Y-27184000D02*
X36625000Y-30474000D01*
X36585000Y-27098000D02*
X36585000Y-30560000D01*
X36545000Y-27016000D02*
X36545000Y-30642000D01*
X36505000Y-26939000D02*
X36505000Y-30719000D01*
X36465000Y-26865000D02*
X36465000Y-30793000D01*
X36425000Y-26795000D02*
X36425000Y-30863000D01*
X36385000Y-26727000D02*
X36385000Y-30931000D01*
X36345000Y-26663000D02*
X36345000Y-30995000D01*
X36305000Y-26601000D02*
X36305000Y-31057000D01*
X36265000Y-26542000D02*
X36265000Y-31116000D01*
X36225000Y-26484000D02*
X36225000Y-31174000D01*
X36185000Y-26429000D02*
X36185000Y-31229000D01*
X36145000Y-26375000D02*
X36145000Y-31283000D01*
X36105000Y-26324000D02*
X36105000Y-31334000D01*
X36065000Y-26273000D02*
X36065000Y-31385000D01*
X36025000Y-26225000D02*
X36025000Y-31433000D01*
X35985000Y-26178000D02*
X35985000Y-31480000D01*
X35945000Y-26132000D02*
X35945000Y-31526000D01*
X35905000Y-26088000D02*
X35905000Y-31570000D01*
X35865000Y-26045000D02*
X35865000Y-31613000D01*
X35825000Y-26003000D02*
X35825000Y-31655000D01*
X35785000Y-25962000D02*
X35785000Y-31696000D01*
X35745000Y-25922000D02*
X35745000Y-31736000D01*
X35705000Y-25884000D02*
X35705000Y-31774000D01*
X35665000Y-25846000D02*
X35665000Y-31812000D01*
X35625000Y-29869000D02*
X35625000Y-31848000D01*
X35625000Y-25810000D02*
X35625000Y-27789000D01*
X35585000Y-29869000D02*
X35585000Y-31884000D01*
X35585000Y-25774000D02*
X35585000Y-27789000D01*
X35545000Y-29869000D02*
X35545000Y-31919000D01*
X35545000Y-25739000D02*
X35545000Y-27789000D01*
X35505000Y-29869000D02*
X35505000Y-31953000D01*
X35505000Y-25705000D02*
X35505000Y-27789000D01*
X35465000Y-29869000D02*
X35465000Y-31985000D01*
X35465000Y-25673000D02*
X35465000Y-27789000D01*
X35425000Y-29869000D02*
X35425000Y-32018000D01*
X35425000Y-25640000D02*
X35425000Y-27789000D01*
X35385000Y-29869000D02*
X35385000Y-32049000D01*
X35385000Y-25609000D02*
X35385000Y-27789000D01*
X35345000Y-29869000D02*
X35345000Y-32079000D01*
X35345000Y-25579000D02*
X35345000Y-27789000D01*
X35305000Y-29869000D02*
X35305000Y-32109000D01*
X35305000Y-25549000D02*
X35305000Y-27789000D01*
X35265000Y-29869000D02*
X35265000Y-32138000D01*
X35265000Y-25520000D02*
X35265000Y-27789000D01*
X35225000Y-29869000D02*
X35225000Y-32167000D01*
X35225000Y-25491000D02*
X35225000Y-27789000D01*
X35185000Y-29869000D02*
X35185000Y-32194000D01*
X35185000Y-25464000D02*
X35185000Y-27789000D01*
X35145000Y-29869000D02*
X35145000Y-32221000D01*
X35145000Y-25437000D02*
X35145000Y-27789000D01*
X35105000Y-29869000D02*
X35105000Y-32247000D01*
X35105000Y-25411000D02*
X35105000Y-27789000D01*
X35065000Y-29869000D02*
X35065000Y-32273000D01*
X35065000Y-25385000D02*
X35065000Y-27789000D01*
X35025000Y-29869000D02*
X35025000Y-32298000D01*
X35025000Y-25360000D02*
X35025000Y-27789000D01*
X34985000Y-29869000D02*
X34985000Y-32322000D01*
X34985000Y-25336000D02*
X34985000Y-27789000D01*
X34945000Y-29869000D02*
X34945000Y-32346000D01*
X34945000Y-25312000D02*
X34945000Y-27789000D01*
X34905000Y-29869000D02*
X34905000Y-32369000D01*
X34905000Y-25289000D02*
X34905000Y-27789000D01*
X34865000Y-29869000D02*
X34865000Y-32391000D01*
X34865000Y-25267000D02*
X34865000Y-27789000D01*
X34825000Y-29869000D02*
X34825000Y-32413000D01*
X34825000Y-25245000D02*
X34825000Y-27789000D01*
X34785000Y-29869000D02*
X34785000Y-32435000D01*
X34785000Y-25223000D02*
X34785000Y-27789000D01*
X34745000Y-29869000D02*
X34745000Y-32456000D01*
X34745000Y-25202000D02*
X34745000Y-27789000D01*
X34705000Y-29869000D02*
X34705000Y-32476000D01*
X34705000Y-25182000D02*
X34705000Y-27789000D01*
X34665000Y-29869000D02*
X34665000Y-32495000D01*
X34665000Y-25163000D02*
X34665000Y-27789000D01*
X34625000Y-29869000D02*
X34625000Y-32515000D01*
X34625000Y-25143000D02*
X34625000Y-27789000D01*
X34585000Y-29869000D02*
X34585000Y-32533000D01*
X34585000Y-25125000D02*
X34585000Y-27789000D01*
X34545000Y-29869000D02*
X34545000Y-32551000D01*
X34545000Y-25107000D02*
X34545000Y-27789000D01*
X34505000Y-29869000D02*
X34505000Y-32569000D01*
X34505000Y-25089000D02*
X34505000Y-27789000D01*
X34465000Y-29869000D02*
X34465000Y-32586000D01*
X34465000Y-25072000D02*
X34465000Y-27789000D01*
X34425000Y-29869000D02*
X34425000Y-32603000D01*
X34425000Y-25055000D02*
X34425000Y-27789000D01*
X34385000Y-29869000D02*
X34385000Y-32619000D01*
X34385000Y-25039000D02*
X34385000Y-27789000D01*
X34345000Y-29869000D02*
X34345000Y-32634000D01*
X34345000Y-25024000D02*
X34345000Y-27789000D01*
X34305000Y-29869000D02*
X34305000Y-32650000D01*
X34305000Y-25008000D02*
X34305000Y-27789000D01*
X34265000Y-29869000D02*
X34265000Y-32664000D01*
X34265000Y-24994000D02*
X34265000Y-27789000D01*
X34225000Y-29869000D02*
X34225000Y-32679000D01*
X34225000Y-24979000D02*
X34225000Y-27789000D01*
X34185000Y-29869000D02*
X34185000Y-32692000D01*
X34185000Y-24966000D02*
X34185000Y-27789000D01*
X34145000Y-29869000D02*
X34145000Y-32706000D01*
X34145000Y-24952000D02*
X34145000Y-27789000D01*
X34105000Y-29869000D02*
X34105000Y-32718000D01*
X34105000Y-24940000D02*
X34105000Y-27789000D01*
X34065000Y-29869000D02*
X34065000Y-32731000D01*
X34065000Y-24927000D02*
X34065000Y-27789000D01*
X34025000Y-29869000D02*
X34025000Y-32743000D01*
X34025000Y-24915000D02*
X34025000Y-27789000D01*
X33985000Y-29869000D02*
X33985000Y-32754000D01*
X33985000Y-24904000D02*
X33985000Y-27789000D01*
X33945000Y-29869000D02*
X33945000Y-32765000D01*
X33945000Y-24893000D02*
X33945000Y-27789000D01*
X33905000Y-29869000D02*
X33905000Y-32776000D01*
X33905000Y-24882000D02*
X33905000Y-27789000D01*
X33865000Y-29869000D02*
X33865000Y-32786000D01*
X33865000Y-24872000D02*
X33865000Y-27789000D01*
X33825000Y-29869000D02*
X33825000Y-32796000D01*
X33825000Y-24862000D02*
X33825000Y-27789000D01*
X33785000Y-29869000D02*
X33785000Y-32805000D01*
X33785000Y-24853000D02*
X33785000Y-27789000D01*
X33745000Y-29869000D02*
X33745000Y-32814000D01*
X33745000Y-24844000D02*
X33745000Y-27789000D01*
X33705000Y-29869000D02*
X33705000Y-32823000D01*
X33705000Y-24835000D02*
X33705000Y-27789000D01*
X33665000Y-29869000D02*
X33665000Y-32831000D01*
X33665000Y-24827000D02*
X33665000Y-27789000D01*
X33625000Y-29869000D02*
X33625000Y-32839000D01*
X33625000Y-24819000D02*
X33625000Y-27789000D01*
X33585000Y-29869000D02*
X33585000Y-32846000D01*
X33585000Y-24812000D02*
X33585000Y-27789000D01*
X33544000Y-24805000D02*
X33544000Y-32853000D01*
X33504000Y-24799000D02*
X33504000Y-32859000D01*
X33464000Y-24792000D02*
X33464000Y-32866000D01*
X33424000Y-24787000D02*
X33424000Y-32871000D01*
X33384000Y-24781000D02*
X33384000Y-32877000D01*
X33344000Y-24777000D02*
X33344000Y-32881000D01*
X33304000Y-24772000D02*
X33304000Y-32886000D01*
X33264000Y-24768000D02*
X33264000Y-32890000D01*
X33224000Y-24764000D02*
X33224000Y-32894000D01*
X33184000Y-24761000D02*
X33184000Y-32897000D01*
X33144000Y-24758000D02*
X33144000Y-32900000D01*
X33104000Y-24755000D02*
X33104000Y-32903000D01*
X33064000Y-24753000D02*
X33064000Y-32905000D01*
X33024000Y-24752000D02*
X33024000Y-32906000D01*
X32984000Y-24750000D02*
X32984000Y-32908000D01*
X32944000Y-24749000D02*
X32944000Y-32909000D01*
X32904000Y-24749000D02*
X32904000Y-32909000D01*
X32864000Y-24749000D02*
X32864000Y-32909000D01*
X36984000Y-28829000D02*
G75*
G03*
X36984000Y-28829000I-4120000J0D01*
G01*
%TO.C,U10*%
X80130000Y-106740000D02*
X80130000Y-96460000D01*
X62110000Y-106740000D02*
X80130000Y-106740000D01*
X62110000Y-96460000D02*
X62110000Y-106740000D01*
X80130000Y-96460000D02*
X62110000Y-96460000D01*
X80070000Y-104250000D02*
X80070000Y-102600000D01*
X62170000Y-104250000D02*
X80070000Y-104250000D01*
X62170000Y-98950000D02*
X62170000Y-104250000D01*
X80070000Y-98950000D02*
X62170000Y-98950000D01*
X80070000Y-100600000D02*
X80070000Y-98950000D01*
X80070000Y-102600000D02*
G75*
G02*
X80070000Y-100600000I0J1000000D01*
G01*
%TO.C,U6*%
X77590000Y-119186000D02*
X77590000Y-108906000D01*
X59570000Y-119186000D02*
X77590000Y-119186000D01*
X59570000Y-108906000D02*
X59570000Y-119186000D01*
X77590000Y-108906000D02*
X59570000Y-108906000D01*
X77530000Y-116696000D02*
X77530000Y-115046000D01*
X59630000Y-116696000D02*
X77530000Y-116696000D01*
X59630000Y-111396000D02*
X59630000Y-116696000D01*
X77530000Y-111396000D02*
X59630000Y-111396000D01*
X77530000Y-113046000D02*
X77530000Y-111396000D01*
X77530000Y-115046000D02*
G75*
G02*
X77530000Y-113046000I0J1000000D01*
G01*
%TO.C,U1*%
X73085000Y-21470000D02*
X62805000Y-21470000D01*
X73085000Y-39490000D02*
X73085000Y-21470000D01*
X62805000Y-39490000D02*
X73085000Y-39490000D01*
X62805000Y-21470000D02*
X62805000Y-39490000D01*
X70595000Y-21530000D02*
X68945000Y-21530000D01*
X70595000Y-39430000D02*
X70595000Y-21530000D01*
X65295000Y-39430000D02*
X70595000Y-39430000D01*
X65295000Y-21530000D02*
X65295000Y-39430000D01*
X66945000Y-21530000D02*
X65295000Y-21530000D01*
X68945000Y-21530000D02*
G75*
G02*
X66945000Y-21530000I-1000000J0D01*
G01*
%TO.C,U5*%
X79636000Y-108906000D02*
X79636000Y-119186000D01*
X110356000Y-108906000D02*
X79636000Y-108906000D01*
X110356000Y-119186000D02*
X110356000Y-108906000D01*
X79636000Y-119186000D02*
X110356000Y-119186000D01*
X79696000Y-111396000D02*
X79696000Y-113046000D01*
X110296000Y-111396000D02*
X79696000Y-111396000D01*
X110296000Y-116696000D02*
X110296000Y-111396000D01*
X79696000Y-116696000D02*
X110296000Y-116696000D01*
X79696000Y-115046000D02*
X79696000Y-116696000D01*
X79696000Y-113046000D02*
G75*
G02*
X79696000Y-115046000I0J-1000000D01*
G01*
%TO.C,U4*%
X43120000Y-119500000D02*
X53400000Y-119500000D01*
X43120000Y-98940000D02*
X43120000Y-119500000D01*
X53400000Y-98940000D02*
X43120000Y-98940000D01*
X53400000Y-119500000D02*
X53400000Y-98940000D01*
X45610000Y-119440000D02*
X47260000Y-119440000D01*
X45610000Y-99000000D02*
X45610000Y-119440000D01*
X50910000Y-99000000D02*
X45610000Y-99000000D01*
X50910000Y-119440000D02*
X50910000Y-99000000D01*
X49260000Y-119440000D02*
X50910000Y-119440000D01*
X47260000Y-119440000D02*
G75*
G02*
X49260000Y-119440000I1000000J0D01*
G01*
%TO.C,U3*%
X30420000Y-119500000D02*
X40700000Y-119500000D01*
X30420000Y-98940000D02*
X30420000Y-119500000D01*
X40700000Y-98940000D02*
X30420000Y-98940000D01*
X40700000Y-119500000D02*
X40700000Y-98940000D01*
X32910000Y-119440000D02*
X34560000Y-119440000D01*
X32910000Y-99000000D02*
X32910000Y-119440000D01*
X38210000Y-99000000D02*
X32910000Y-99000000D01*
X38210000Y-119440000D02*
X38210000Y-99000000D01*
X36560000Y-119440000D02*
X38210000Y-119440000D01*
X34560000Y-119440000D02*
G75*
G02*
X36560000Y-119440000I1000000J0D01*
G01*
%TO.C,U2*%
X79829000Y-42425000D02*
X61929000Y-42425000D01*
X79829000Y-93465000D02*
X79829000Y-42425000D01*
X61929000Y-93465000D02*
X79829000Y-93465000D01*
X61929000Y-42425000D02*
X61929000Y-93465000D01*
X77339000Y-42485000D02*
X71879000Y-42485000D01*
X77339000Y-93405000D02*
X77339000Y-42485000D01*
X64419000Y-93405000D02*
X77339000Y-93405000D01*
X64419000Y-42485000D02*
X64419000Y-93405000D01*
X69879000Y-42485000D02*
X64419000Y-42485000D01*
X71879000Y-42485000D02*
G75*
G02*
X69879000Y-42485000I-1000000J0D01*
G01*
%TO.C,U12*%
X89805000Y-66615000D02*
X84345000Y-66615000D01*
X84345000Y-66615000D02*
X84345000Y-107375000D01*
X84345000Y-107375000D02*
X97265000Y-107375000D01*
X97265000Y-107375000D02*
X97265000Y-66615000D01*
X97265000Y-66615000D02*
X91805000Y-66615000D01*
X81855000Y-66555000D02*
X81855000Y-107435000D01*
X81855000Y-107435000D02*
X99755000Y-107435000D01*
X99755000Y-107435000D02*
X99755000Y-66555000D01*
X99755000Y-66555000D02*
X81855000Y-66555000D01*
X91805000Y-66615000D02*
G75*
G02*
X89805000Y-66615000I-1000000J0D01*
G01*
%TO.C,U11*%
X119440000Y-66555000D02*
X101540000Y-66555000D01*
X119440000Y-107435000D02*
X119440000Y-66555000D01*
X101540000Y-107435000D02*
X119440000Y-107435000D01*
X101540000Y-66555000D02*
X101540000Y-107435000D01*
X116950000Y-66615000D02*
X111490000Y-66615000D01*
X116950000Y-107375000D02*
X116950000Y-66615000D01*
X104030000Y-107375000D02*
X116950000Y-107375000D01*
X104030000Y-66615000D02*
X104030000Y-107375000D01*
X109490000Y-66615000D02*
X104030000Y-66615000D01*
X111490000Y-66615000D02*
G75*
G02*
X109490000Y-66615000I-1000000J0D01*
G01*
%TO.C,U16*%
X37278000Y-66795000D02*
X47558000Y-66795000D01*
X37278000Y-41155000D02*
X37278000Y-66795000D01*
X47558000Y-41155000D02*
X37278000Y-41155000D01*
X47558000Y-66795000D02*
X47558000Y-41155000D01*
X39768000Y-66735000D02*
X41418000Y-66735000D01*
X39768000Y-41215000D02*
X39768000Y-66735000D01*
X45068000Y-41215000D02*
X39768000Y-41215000D01*
X45068000Y-66735000D02*
X45068000Y-41215000D01*
X43418000Y-66735000D02*
X45068000Y-66735000D01*
X41418000Y-66735000D02*
G75*
G02*
X43418000Y-66735000I1000000J0D01*
G01*
%TO.C,U15*%
X49724000Y-94735000D02*
X60004000Y-94735000D01*
X49724000Y-69095000D02*
X49724000Y-94735000D01*
X60004000Y-69095000D02*
X49724000Y-69095000D01*
X60004000Y-94735000D02*
X60004000Y-69095000D01*
X52214000Y-94675000D02*
X53864000Y-94675000D01*
X52214000Y-69155000D02*
X52214000Y-94675000D01*
X57514000Y-69155000D02*
X52214000Y-69155000D01*
X57514000Y-94675000D02*
X57514000Y-69155000D01*
X55864000Y-94675000D02*
X57514000Y-94675000D01*
X53864000Y-94675000D02*
G75*
G02*
X55864000Y-94675000I1000000J0D01*
G01*
%TO.C,U14*%
X49724000Y-66795000D02*
X60004000Y-66795000D01*
X49724000Y-41155000D02*
X49724000Y-66795000D01*
X60004000Y-41155000D02*
X49724000Y-41155000D01*
X60004000Y-66795000D02*
X60004000Y-41155000D01*
X52214000Y-66735000D02*
X53864000Y-66735000D01*
X52214000Y-41215000D02*
X52214000Y-66735000D01*
X57514000Y-41215000D02*
X52214000Y-41215000D01*
X57514000Y-66735000D02*
X57514000Y-41215000D01*
X55864000Y-66735000D02*
X57514000Y-66735000D01*
X53864000Y-66735000D02*
G75*
G02*
X55864000Y-66735000I1000000J0D01*
G01*
%TO.C,U13*%
X43418000Y-94675000D02*
X45068000Y-94675000D01*
X45068000Y-94675000D02*
X45068000Y-69155000D01*
X45068000Y-69155000D02*
X39768000Y-69155000D01*
X39768000Y-69155000D02*
X39768000Y-94675000D01*
X39768000Y-94675000D02*
X41418000Y-94675000D01*
X47558000Y-94735000D02*
X47558000Y-69095000D01*
X47558000Y-69095000D02*
X37278000Y-69095000D01*
X37278000Y-69095000D02*
X37278000Y-94735000D01*
X37278000Y-94735000D02*
X47558000Y-94735000D01*
X41418000Y-94675000D02*
G75*
G02*
X43418000Y-94675000I1000000J0D01*
G01*
%TO.C,J2*%
X21210000Y-39550000D02*
X26410000Y-39550000D01*
X21210000Y-31870000D02*
X21210000Y-39550000D01*
X26410000Y-29270000D02*
X26410000Y-39550000D01*
X21210000Y-31870000D02*
X23810000Y-31870000D01*
X23810000Y-31870000D02*
X23810000Y-29270000D01*
X23810000Y-29270000D02*
X26410000Y-29270000D01*
X21210000Y-30600000D02*
X21210000Y-29270000D01*
X21210000Y-29270000D02*
X22540000Y-29270000D01*
%TO.C,J1*%
X21210000Y-100450000D02*
X22540000Y-100450000D01*
X21210000Y-101780000D02*
X21210000Y-100450000D01*
X23810000Y-100450000D02*
X26410000Y-100450000D01*
X23810000Y-103050000D02*
X23810000Y-100450000D01*
X21210000Y-103050000D02*
X23810000Y-103050000D01*
X26410000Y-100450000D02*
X26410000Y-110730000D01*
X21210000Y-103050000D02*
X21210000Y-110730000D01*
X21210000Y-110730000D02*
X26410000Y-110730000D01*
%TO.C,D2*%
X102425000Y-58765000D02*
X102269000Y-58765000D01*
X104741000Y-58765000D02*
X104585000Y-58765000D01*
X102425163Y-61366130D02*
G75*
G02*
X102425000Y-59284039I1079837J1041130D01*
G01*
X104584837Y-61366130D02*
G75*
G03*
X104585000Y-59284039I-1079837J1041130D01*
G01*
X102426392Y-61997335D02*
G75*
G02*
X102269484Y-58765000I1078608J1672335D01*
G01*
X104583608Y-61997335D02*
G75*
G03*
X104740516Y-58765000I-1078608J1672335D01*
G01*
%TO.C,J4*%
X29210000Y-44540000D02*
X30540000Y-44540000D01*
X29210000Y-45870000D02*
X29210000Y-44540000D01*
X31810000Y-44540000D02*
X34410000Y-44540000D01*
X31810000Y-47140000D02*
X31810000Y-44540000D01*
X29210000Y-47140000D02*
X31810000Y-47140000D01*
X34410000Y-44540000D02*
X34410000Y-95460000D01*
X29210000Y-47140000D02*
X29210000Y-95460000D01*
X29210000Y-95460000D02*
X34410000Y-95460000D01*
%TO.C,X1*%
X53960000Y-24157000D02*
X41810000Y-24157000D01*
X54710000Y-36307000D02*
X54710000Y-24907000D01*
X42560000Y-37057000D02*
X53960000Y-37057000D01*
X41810000Y-24157000D02*
X41810000Y-36307000D01*
X41810000Y-36307000D02*
G75*
G03*
X42560000Y-37057000I750000J0D01*
G01*
X53960000Y-37057000D02*
G75*
G03*
X54710000Y-36307000I0J750000D01*
G01*
X54710000Y-24907000D02*
G75*
G03*
X53960000Y-24157000I-750000J0D01*
G01*
%TO.C,D1*%
X102425000Y-49240000D02*
X102269000Y-49240000D01*
X104741000Y-49240000D02*
X104585000Y-49240000D01*
X102425163Y-51841130D02*
G75*
G02*
X102425000Y-49759039I1079837J1041130D01*
G01*
X104584837Y-51841130D02*
G75*
G03*
X104585000Y-49759039I-1079837J1041130D01*
G01*
X102426392Y-52472335D02*
G75*
G02*
X102269484Y-49240000I1078608J1672335D01*
G01*
X104583608Y-52472335D02*
G75*
G03*
X104740516Y-49240000I-1078608J1672335D01*
G01*
%TO.C,U7*%
X110744000Y-43815000D02*
X109474000Y-45085000D01*
X108204000Y-43815000D02*
X110744000Y-43815000D01*
X109474000Y-45085000D02*
X108204000Y-43815000D01*
X119524000Y-28715000D02*
X119524000Y-46215000D01*
X99424000Y-46215000D02*
X99424000Y-28715000D01*
X119524000Y-46215000D02*
X99424000Y-46215000D01*
X119524000Y-28715000D02*
X99424000Y-28715000D01*
%TO.C,RN1*%
X55115000Y-119550000D02*
X57915000Y-119550000D01*
X57915000Y-119550000D02*
X57915000Y-96350000D01*
X57915000Y-96350000D02*
X55115000Y-96350000D01*
X55115000Y-96350000D02*
X55115000Y-119550000D01*
X55115000Y-116840000D02*
X57915000Y-116840000D01*
%TO.C,J3*%
X21210000Y-95460000D02*
X26410000Y-95460000D01*
X21210000Y-47140000D02*
X21210000Y-95460000D01*
X26410000Y-44540000D02*
X26410000Y-95460000D01*
X21210000Y-47140000D02*
X23810000Y-47140000D01*
X23810000Y-47140000D02*
X23810000Y-44540000D01*
X23810000Y-44540000D02*
X26410000Y-44540000D01*
X21210000Y-45870000D02*
X21210000Y-44540000D01*
X21210000Y-44540000D02*
X22540000Y-44540000D01*
%TO.C,J5*%
D10*
X38528666Y-23582380D02*
X38528666Y-24296666D01*
X38481047Y-24439523D01*
X38385809Y-24534761D01*
X38242952Y-24582380D01*
X38147714Y-24582380D01*
X39481047Y-23582380D02*
X39004857Y-23582380D01*
X38957238Y-24058571D01*
X39004857Y-24010952D01*
X39100095Y-23963333D01*
X39338190Y-23963333D01*
X39433428Y-24010952D01*
X39481047Y-24058571D01*
X39528666Y-24153809D01*
X39528666Y-24391904D01*
X39481047Y-24487142D01*
X39433428Y-24534761D01*
X39338190Y-24582380D01*
X39100095Y-24582380D01*
X39004857Y-24534761D01*
X38957238Y-24487142D01*
%TO.C,D5*%
X56166380Y-27408095D02*
X55166380Y-27408095D01*
X55166380Y-27170000D01*
X55214000Y-27027142D01*
X55309238Y-26931904D01*
X55404476Y-26884285D01*
X55594952Y-26836666D01*
X55737809Y-26836666D01*
X55928285Y-26884285D01*
X56023523Y-26931904D01*
X56118761Y-27027142D01*
X56166380Y-27170000D01*
X56166380Y-27408095D01*
X55166380Y-25931904D02*
X55166380Y-26408095D01*
X55642571Y-26455714D01*
X55594952Y-26408095D01*
X55547333Y-26312857D01*
X55547333Y-26074761D01*
X55594952Y-25979523D01*
X55642571Y-25931904D01*
X55737809Y-25884285D01*
X55975904Y-25884285D01*
X56071142Y-25931904D01*
X56118761Y-25979523D01*
X56166380Y-26074761D01*
X56166380Y-26312857D01*
X56118761Y-26408095D01*
X56071142Y-26455714D01*
X62086380Y-28122380D02*
X61610190Y-28455714D01*
X62086380Y-28693809D02*
X61086380Y-28693809D01*
X61086380Y-28312857D01*
X61134000Y-28217619D01*
X61181619Y-28170000D01*
X61276857Y-28122380D01*
X61419714Y-28122380D01*
X61514952Y-28170000D01*
X61562571Y-28217619D01*
X61610190Y-28312857D01*
X61610190Y-28693809D01*
X61562571Y-27693809D02*
X61562571Y-27360476D01*
X62086380Y-27217619D02*
X62086380Y-27693809D01*
X61086380Y-27693809D01*
X61086380Y-27217619D01*
X62038761Y-26836666D02*
X62086380Y-26693809D01*
X62086380Y-26455714D01*
X62038761Y-26360476D01*
X61991142Y-26312857D01*
X61895904Y-26265238D01*
X61800666Y-26265238D01*
X61705428Y-26312857D01*
X61657809Y-26360476D01*
X61610190Y-26455714D01*
X61562571Y-26646190D01*
X61514952Y-26741428D01*
X61467333Y-26789047D01*
X61372095Y-26836666D01*
X61276857Y-26836666D01*
X61181619Y-26789047D01*
X61134000Y-26741428D01*
X61086380Y-26646190D01*
X61086380Y-26408095D01*
X61134000Y-26265238D01*
X61562571Y-25836666D02*
X61562571Y-25503333D01*
X62086380Y-25360476D02*
X62086380Y-25836666D01*
X61086380Y-25836666D01*
X61086380Y-25360476D01*
X61086380Y-25074761D02*
X61086380Y-24503333D01*
X62086380Y-24789047D02*
X61086380Y-24789047D01*
%TO.C,D4*%
X56166380Y-35282095D02*
X55166380Y-35282095D01*
X55166380Y-35044000D01*
X55214000Y-34901142D01*
X55309238Y-34805904D01*
X55404476Y-34758285D01*
X55594952Y-34710666D01*
X55737809Y-34710666D01*
X55928285Y-34758285D01*
X56023523Y-34805904D01*
X56118761Y-34901142D01*
X56166380Y-35044000D01*
X56166380Y-35282095D01*
X55499714Y-33853523D02*
X56166380Y-33853523D01*
X55118761Y-34091619D02*
X55833047Y-34329714D01*
X55833047Y-33710666D01*
X62086380Y-35639238D02*
X61086380Y-35639238D01*
X62086380Y-35067809D01*
X61086380Y-35067809D01*
X62086380Y-34591619D02*
X61086380Y-34591619D01*
X61800666Y-34258285D01*
X61086380Y-33924952D01*
X62086380Y-33924952D01*
X62086380Y-33448761D02*
X61086380Y-33448761D01*
%TO.C,D3*%
X105941904Y-21622380D02*
X105941904Y-20622380D01*
X106180000Y-20622380D01*
X106322857Y-20670000D01*
X106418095Y-20765238D01*
X106465714Y-20860476D01*
X106513333Y-21050952D01*
X106513333Y-21193809D01*
X106465714Y-21384285D01*
X106418095Y-21479523D01*
X106322857Y-21574761D01*
X106180000Y-21622380D01*
X105941904Y-21622380D01*
X106846666Y-20622380D02*
X107465714Y-20622380D01*
X107132380Y-21003333D01*
X107275238Y-21003333D01*
X107370476Y-21050952D01*
X107418095Y-21098571D01*
X107465714Y-21193809D01*
X107465714Y-21431904D01*
X107418095Y-21527142D01*
X107370476Y-21574761D01*
X107275238Y-21622380D01*
X106989523Y-21622380D01*
X106894285Y-21574761D01*
X106846666Y-21527142D01*
X105775238Y-27542380D02*
X105775238Y-26542380D01*
X106108571Y-27256666D01*
X106441904Y-26542380D01*
X106441904Y-27542380D01*
X106918095Y-27542380D02*
X106918095Y-26542380D01*
X107251428Y-27256666D01*
X107584761Y-26542380D01*
X107584761Y-27542380D01*
%TO.C,C3*%
X38203142Y-38774666D02*
X38250761Y-38822285D01*
X38298380Y-38965142D01*
X38298380Y-39060380D01*
X38250761Y-39203238D01*
X38155523Y-39298476D01*
X38060285Y-39346095D01*
X37869809Y-39393714D01*
X37726952Y-39393714D01*
X37536476Y-39346095D01*
X37441238Y-39298476D01*
X37346000Y-39203238D01*
X37298380Y-39060380D01*
X37298380Y-38965142D01*
X37346000Y-38822285D01*
X37393619Y-38774666D01*
X37298380Y-38441333D02*
X37298380Y-37822285D01*
X37679333Y-38155619D01*
X37679333Y-38012761D01*
X37726952Y-37917523D01*
X37774571Y-37869904D01*
X37869809Y-37822285D01*
X38107904Y-37822285D01*
X38203142Y-37869904D01*
X38250761Y-37917523D01*
X38298380Y-38012761D01*
X38298380Y-38298476D01*
X38250761Y-38393714D01*
X38203142Y-38441333D01*
%TO.C,SW2*%
X111771666Y-60729761D02*
X111914523Y-60777380D01*
X112152619Y-60777380D01*
X112247857Y-60729761D01*
X112295476Y-60682142D01*
X112343095Y-60586904D01*
X112343095Y-60491666D01*
X112295476Y-60396428D01*
X112247857Y-60348809D01*
X112152619Y-60301190D01*
X111962142Y-60253571D01*
X111866904Y-60205952D01*
X111819285Y-60158333D01*
X111771666Y-60063095D01*
X111771666Y-59967857D01*
X111819285Y-59872619D01*
X111866904Y-59825000D01*
X111962142Y-59777380D01*
X112200238Y-59777380D01*
X112343095Y-59825000D01*
X112676428Y-59777380D02*
X112914523Y-60777380D01*
X113105000Y-60063095D01*
X113295476Y-60777380D01*
X113533571Y-59777380D01*
X113866904Y-59872619D02*
X113914523Y-59825000D01*
X114009761Y-59777380D01*
X114247857Y-59777380D01*
X114343095Y-59825000D01*
X114390714Y-59872619D01*
X114438333Y-59967857D01*
X114438333Y-60063095D01*
X114390714Y-60205952D01*
X113819285Y-60777380D01*
X114438333Y-60777380D01*
X119197380Y-62412380D02*
X118721190Y-62745714D01*
X119197380Y-62983809D02*
X118197380Y-62983809D01*
X118197380Y-62602857D01*
X118245000Y-62507619D01*
X118292619Y-62460000D01*
X118387857Y-62412380D01*
X118530714Y-62412380D01*
X118625952Y-62460000D01*
X118673571Y-62507619D01*
X118721190Y-62602857D01*
X118721190Y-62983809D01*
X118673571Y-61983809D02*
X118673571Y-61650476D01*
X119197380Y-61507619D02*
X119197380Y-61983809D01*
X118197380Y-61983809D01*
X118197380Y-61507619D01*
X119149761Y-61126666D02*
X119197380Y-60983809D01*
X119197380Y-60745714D01*
X119149761Y-60650476D01*
X119102142Y-60602857D01*
X119006904Y-60555238D01*
X118911666Y-60555238D01*
X118816428Y-60602857D01*
X118768809Y-60650476D01*
X118721190Y-60745714D01*
X118673571Y-60936190D01*
X118625952Y-61031428D01*
X118578333Y-61079047D01*
X118483095Y-61126666D01*
X118387857Y-61126666D01*
X118292619Y-61079047D01*
X118245000Y-61031428D01*
X118197380Y-60936190D01*
X118197380Y-60698095D01*
X118245000Y-60555238D01*
X118673571Y-60126666D02*
X118673571Y-59793333D01*
X119197380Y-59650476D02*
X119197380Y-60126666D01*
X118197380Y-60126666D01*
X118197380Y-59650476D01*
X118197380Y-59364761D02*
X118197380Y-58793333D01*
X119197380Y-59079047D02*
X118197380Y-59079047D01*
%TO.C,SW1*%
X111696666Y-51204761D02*
X111839523Y-51252380D01*
X112077619Y-51252380D01*
X112172857Y-51204761D01*
X112220476Y-51157142D01*
X112268095Y-51061904D01*
X112268095Y-50966666D01*
X112220476Y-50871428D01*
X112172857Y-50823809D01*
X112077619Y-50776190D01*
X111887142Y-50728571D01*
X111791904Y-50680952D01*
X111744285Y-50633333D01*
X111696666Y-50538095D01*
X111696666Y-50442857D01*
X111744285Y-50347619D01*
X111791904Y-50300000D01*
X111887142Y-50252380D01*
X112125238Y-50252380D01*
X112268095Y-50300000D01*
X112601428Y-50252380D02*
X112839523Y-51252380D01*
X113030000Y-50538095D01*
X113220476Y-51252380D01*
X113458571Y-50252380D01*
X114363333Y-51252380D02*
X113791904Y-51252380D01*
X114077619Y-51252380D02*
X114077619Y-50252380D01*
X113982380Y-50395238D01*
X113887142Y-50490476D01*
X113791904Y-50538095D01*
X119197380Y-52530238D02*
X118197380Y-52530238D01*
X119197380Y-51958809D01*
X118197380Y-51958809D01*
X119197380Y-51482619D02*
X118197380Y-51482619D01*
X118911666Y-51149285D01*
X118197380Y-50815952D01*
X119197380Y-50815952D01*
X119197380Y-50339761D02*
X118197380Y-50339761D01*
%TO.C,U8*%
X91948095Y-42842380D02*
X91948095Y-43651904D01*
X91995714Y-43747142D01*
X92043333Y-43794761D01*
X92138571Y-43842380D01*
X92329047Y-43842380D01*
X92424285Y-43794761D01*
X92471904Y-43747142D01*
X92519523Y-43651904D01*
X92519523Y-42842380D01*
X93138571Y-43270952D02*
X93043333Y-43223333D01*
X92995714Y-43175714D01*
X92948095Y-43080476D01*
X92948095Y-43032857D01*
X92995714Y-42937619D01*
X93043333Y-42890000D01*
X93138571Y-42842380D01*
X93329047Y-42842380D01*
X93424285Y-42890000D01*
X93471904Y-42937619D01*
X93519523Y-43032857D01*
X93519523Y-43080476D01*
X93471904Y-43175714D01*
X93424285Y-43223333D01*
X93329047Y-43270952D01*
X93138571Y-43270952D01*
X93043333Y-43318571D01*
X92995714Y-43366190D01*
X92948095Y-43461428D01*
X92948095Y-43651904D01*
X92995714Y-43747142D01*
X93043333Y-43794761D01*
X93138571Y-43842380D01*
X93329047Y-43842380D01*
X93424285Y-43794761D01*
X93471904Y-43747142D01*
X93519523Y-43651904D01*
X93519523Y-43461428D01*
X93471904Y-43366190D01*
X93424285Y-43318571D01*
X93329047Y-43270952D01*
%TO.C,Y1*%
X81458809Y-49513809D02*
X80982619Y-49513809D01*
X81982619Y-49180476D02*
X81458809Y-49513809D01*
X81982619Y-49847142D01*
X80982619Y-50704285D02*
X80982619Y-50132857D01*
X80982619Y-50418571D02*
X81982619Y-50418571D01*
X81839761Y-50323333D01*
X81744523Y-50228095D01*
X81696904Y-50132857D01*
%TO.C,BT1*%
X86482286Y-31678571D02*
X86625143Y-31726190D01*
X86672762Y-31773809D01*
X86720381Y-31869047D01*
X86720381Y-32011904D01*
X86672762Y-32107142D01*
X86625143Y-32154761D01*
X86529905Y-32202380D01*
X86148953Y-32202380D01*
X86148953Y-31202380D01*
X86482286Y-31202380D01*
X86577524Y-31250000D01*
X86625143Y-31297619D01*
X86672762Y-31392857D01*
X86672762Y-31488095D01*
X86625143Y-31583333D01*
X86577524Y-31630952D01*
X86482286Y-31678571D01*
X86148953Y-31678571D01*
X87006096Y-31202380D02*
X87577524Y-31202380D01*
X87291810Y-32202380D02*
X87291810Y-31202380D01*
X88434667Y-32202380D02*
X87863239Y-32202380D01*
X88148953Y-32202380D02*
X88148953Y-31202380D01*
X88053715Y-31345238D01*
X87958477Y-31440476D01*
X87863239Y-31488095D01*
%TO.C,C8*%
X38203142Y-28868666D02*
X38250761Y-28916285D01*
X38298380Y-29059142D01*
X38298380Y-29154380D01*
X38250761Y-29297238D01*
X38155523Y-29392476D01*
X38060285Y-29440095D01*
X37869809Y-29487714D01*
X37726952Y-29487714D01*
X37536476Y-29440095D01*
X37441238Y-29392476D01*
X37346000Y-29297238D01*
X37298380Y-29154380D01*
X37298380Y-29059142D01*
X37346000Y-28916285D01*
X37393619Y-28868666D01*
X37726952Y-28297238D02*
X37679333Y-28392476D01*
X37631714Y-28440095D01*
X37536476Y-28487714D01*
X37488857Y-28487714D01*
X37393619Y-28440095D01*
X37346000Y-28392476D01*
X37298380Y-28297238D01*
X37298380Y-28106761D01*
X37346000Y-28011523D01*
X37393619Y-27963904D01*
X37488857Y-27916285D01*
X37536476Y-27916285D01*
X37631714Y-27963904D01*
X37679333Y-28011523D01*
X37726952Y-28106761D01*
X37726952Y-28297238D01*
X37774571Y-28392476D01*
X37822190Y-28440095D01*
X37917428Y-28487714D01*
X38107904Y-28487714D01*
X38203142Y-28440095D01*
X38250761Y-28392476D01*
X38298380Y-28297238D01*
X38298380Y-28106761D01*
X38250761Y-28011523D01*
X38203142Y-27963904D01*
X38107904Y-27916285D01*
X37917428Y-27916285D01*
X37822190Y-27963904D01*
X37774571Y-28011523D01*
X37726952Y-28106761D01*
%TO.C,U10*%
X80522380Y-102838095D02*
X81331904Y-102838095D01*
X81427142Y-102790476D01*
X81474761Y-102742857D01*
X81522380Y-102647619D01*
X81522380Y-102457142D01*
X81474761Y-102361904D01*
X81427142Y-102314285D01*
X81331904Y-102266666D01*
X80522380Y-102266666D01*
X81522380Y-101266666D02*
X81522380Y-101838095D01*
X81522380Y-101552380D02*
X80522380Y-101552380D01*
X80665238Y-101647619D01*
X80760476Y-101742857D01*
X80808095Y-101838095D01*
X80522380Y-100647619D02*
X80522380Y-100552380D01*
X80570000Y-100457142D01*
X80617619Y-100409523D01*
X80712857Y-100361904D01*
X80903333Y-100314285D01*
X81141428Y-100314285D01*
X81331904Y-100361904D01*
X81427142Y-100409523D01*
X81474761Y-100457142D01*
X81522380Y-100552380D01*
X81522380Y-100647619D01*
X81474761Y-100742857D01*
X81427142Y-100790476D01*
X81331904Y-100838095D01*
X81141428Y-100885714D01*
X80903333Y-100885714D01*
X80712857Y-100838095D01*
X80617619Y-100790476D01*
X80570000Y-100742857D01*
X80522380Y-100647619D01*
%TO.C,U6*%
X75565095Y-107402380D02*
X75565095Y-108211904D01*
X75612714Y-108307142D01*
X75660333Y-108354761D01*
X75755571Y-108402380D01*
X75946047Y-108402380D01*
X76041285Y-108354761D01*
X76088904Y-108307142D01*
X76136523Y-108211904D01*
X76136523Y-107402380D01*
X77041285Y-107402380D02*
X76850809Y-107402380D01*
X76755571Y-107450000D01*
X76707952Y-107497619D01*
X76612714Y-107640476D01*
X76565095Y-107830952D01*
X76565095Y-108211904D01*
X76612714Y-108307142D01*
X76660333Y-108354761D01*
X76755571Y-108402380D01*
X76946047Y-108402380D01*
X77041285Y-108354761D01*
X77088904Y-108307142D01*
X77136523Y-108211904D01*
X77136523Y-107973809D01*
X77088904Y-107878571D01*
X77041285Y-107830952D01*
X76946047Y-107783333D01*
X76755571Y-107783333D01*
X76660333Y-107830952D01*
X76612714Y-107878571D01*
X76565095Y-107973809D01*
%TO.C,U1*%
X73366380Y-22986904D02*
X74175904Y-22986904D01*
X74271142Y-22939285D01*
X74318761Y-22891666D01*
X74366380Y-22796428D01*
X74366380Y-22605952D01*
X74318761Y-22510714D01*
X74271142Y-22463095D01*
X74175904Y-22415476D01*
X73366380Y-22415476D01*
X74366380Y-21415476D02*
X74366380Y-21986904D01*
X74366380Y-21701190D02*
X73366380Y-21701190D01*
X73509238Y-21796428D01*
X73604476Y-21891666D01*
X73652095Y-21986904D01*
%TO.C,U5*%
X78148380Y-114807904D02*
X78957904Y-114807904D01*
X79053142Y-114760285D01*
X79100761Y-114712666D01*
X79148380Y-114617428D01*
X79148380Y-114426952D01*
X79100761Y-114331714D01*
X79053142Y-114284095D01*
X78957904Y-114236476D01*
X78148380Y-114236476D01*
X78148380Y-113284095D02*
X78148380Y-113760285D01*
X78624571Y-113807904D01*
X78576952Y-113760285D01*
X78529333Y-113665047D01*
X78529333Y-113426952D01*
X78576952Y-113331714D01*
X78624571Y-113284095D01*
X78719809Y-113236476D01*
X78957904Y-113236476D01*
X79053142Y-113284095D01*
X79100761Y-113331714D01*
X79148380Y-113426952D01*
X79148380Y-113665047D01*
X79100761Y-113760285D01*
X79053142Y-113807904D01*
%TO.C,U4*%
X47625095Y-97369380D02*
X47625095Y-98178904D01*
X47672714Y-98274142D01*
X47720333Y-98321761D01*
X47815571Y-98369380D01*
X48006047Y-98369380D01*
X48101285Y-98321761D01*
X48148904Y-98274142D01*
X48196523Y-98178904D01*
X48196523Y-97369380D01*
X49101285Y-97702714D02*
X49101285Y-98369380D01*
X48863190Y-97321761D02*
X48625095Y-98036047D01*
X49244142Y-98036047D01*
%TO.C,U3*%
X34671095Y-97496380D02*
X34671095Y-98305904D01*
X34718714Y-98401142D01*
X34766333Y-98448761D01*
X34861571Y-98496380D01*
X35052047Y-98496380D01*
X35147285Y-98448761D01*
X35194904Y-98401142D01*
X35242523Y-98305904D01*
X35242523Y-97496380D01*
X35623476Y-97496380D02*
X36242523Y-97496380D01*
X35909190Y-97877333D01*
X36052047Y-97877333D01*
X36147285Y-97924952D01*
X36194904Y-97972571D01*
X36242523Y-98067809D01*
X36242523Y-98305904D01*
X36194904Y-98401142D01*
X36147285Y-98448761D01*
X36052047Y-98496380D01*
X35766333Y-98496380D01*
X35671095Y-98448761D01*
X35623476Y-98401142D01*
%TO.C,U2*%
X70117095Y-40937380D02*
X70117095Y-41746904D01*
X70164714Y-41842142D01*
X70212333Y-41889761D01*
X70307571Y-41937380D01*
X70498047Y-41937380D01*
X70593285Y-41889761D01*
X70640904Y-41842142D01*
X70688523Y-41746904D01*
X70688523Y-40937380D01*
X71117095Y-41032619D02*
X71164714Y-40985000D01*
X71259952Y-40937380D01*
X71498047Y-40937380D01*
X71593285Y-40985000D01*
X71640904Y-41032619D01*
X71688523Y-41127857D01*
X71688523Y-41223095D01*
X71640904Y-41365952D01*
X71069476Y-41937380D01*
X71688523Y-41937380D01*
%TO.C,U12*%
X89566904Y-65067380D02*
X89566904Y-65876904D01*
X89614523Y-65972142D01*
X89662142Y-66019761D01*
X89757380Y-66067380D01*
X89947857Y-66067380D01*
X90043095Y-66019761D01*
X90090714Y-65972142D01*
X90138333Y-65876904D01*
X90138333Y-65067380D01*
X91138333Y-66067380D02*
X90566904Y-66067380D01*
X90852619Y-66067380D02*
X90852619Y-65067380D01*
X90757380Y-65210238D01*
X90662142Y-65305476D01*
X90566904Y-65353095D01*
X91519285Y-65162619D02*
X91566904Y-65115000D01*
X91662142Y-65067380D01*
X91900238Y-65067380D01*
X91995476Y-65115000D01*
X92043095Y-65162619D01*
X92090714Y-65257857D01*
X92090714Y-65353095D01*
X92043095Y-65495952D01*
X91471666Y-66067380D01*
X92090714Y-66067380D01*
%TO.C,U11*%
X109251904Y-65067380D02*
X109251904Y-65876904D01*
X109299523Y-65972142D01*
X109347142Y-66019761D01*
X109442380Y-66067380D01*
X109632857Y-66067380D01*
X109728095Y-66019761D01*
X109775714Y-65972142D01*
X109823333Y-65876904D01*
X109823333Y-65067380D01*
X110823333Y-66067380D02*
X110251904Y-66067380D01*
X110537619Y-66067380D02*
X110537619Y-65067380D01*
X110442380Y-65210238D01*
X110347142Y-65305476D01*
X110251904Y-65353095D01*
X111775714Y-66067380D02*
X111204285Y-66067380D01*
X111490000Y-66067380D02*
X111490000Y-65067380D01*
X111394761Y-65210238D01*
X111299523Y-65305476D01*
X111204285Y-65353095D01*
%TO.C,U16*%
X41179904Y-67187380D02*
X41179904Y-67996904D01*
X41227523Y-68092142D01*
X41275142Y-68139761D01*
X41370380Y-68187380D01*
X41560857Y-68187380D01*
X41656095Y-68139761D01*
X41703714Y-68092142D01*
X41751333Y-67996904D01*
X41751333Y-67187380D01*
X42751333Y-68187380D02*
X42179904Y-68187380D01*
X42465619Y-68187380D02*
X42465619Y-67187380D01*
X42370380Y-67330238D01*
X42275142Y-67425476D01*
X42179904Y-67473095D01*
X43608476Y-67187380D02*
X43418000Y-67187380D01*
X43322761Y-67235000D01*
X43275142Y-67282619D01*
X43179904Y-67425476D01*
X43132285Y-67615952D01*
X43132285Y-67996904D01*
X43179904Y-68092142D01*
X43227523Y-68139761D01*
X43322761Y-68187380D01*
X43513238Y-68187380D01*
X43608476Y-68139761D01*
X43656095Y-68092142D01*
X43703714Y-67996904D01*
X43703714Y-67758809D01*
X43656095Y-67663571D01*
X43608476Y-67615952D01*
X43513238Y-67568333D01*
X43322761Y-67568333D01*
X43227523Y-67615952D01*
X43179904Y-67663571D01*
X43132285Y-67758809D01*
%TO.C,U15*%
X53625904Y-95127380D02*
X53625904Y-95936904D01*
X53673523Y-96032142D01*
X53721142Y-96079761D01*
X53816380Y-96127380D01*
X54006857Y-96127380D01*
X54102095Y-96079761D01*
X54149714Y-96032142D01*
X54197333Y-95936904D01*
X54197333Y-95127380D01*
X55197333Y-96127380D02*
X54625904Y-96127380D01*
X54911619Y-96127380D02*
X54911619Y-95127380D01*
X54816380Y-95270238D01*
X54721142Y-95365476D01*
X54625904Y-95413095D01*
X56102095Y-95127380D02*
X55625904Y-95127380D01*
X55578285Y-95603571D01*
X55625904Y-95555952D01*
X55721142Y-95508333D01*
X55959238Y-95508333D01*
X56054476Y-95555952D01*
X56102095Y-95603571D01*
X56149714Y-95698809D01*
X56149714Y-95936904D01*
X56102095Y-96032142D01*
X56054476Y-96079761D01*
X55959238Y-96127380D01*
X55721142Y-96127380D01*
X55625904Y-96079761D01*
X55578285Y-96032142D01*
%TO.C,U14*%
X53625904Y-67187380D02*
X53625904Y-67996904D01*
X53673523Y-68092142D01*
X53721142Y-68139761D01*
X53816380Y-68187380D01*
X54006857Y-68187380D01*
X54102095Y-68139761D01*
X54149714Y-68092142D01*
X54197333Y-67996904D01*
X54197333Y-67187380D01*
X55197333Y-68187380D02*
X54625904Y-68187380D01*
X54911619Y-68187380D02*
X54911619Y-67187380D01*
X54816380Y-67330238D01*
X54721142Y-67425476D01*
X54625904Y-67473095D01*
X56054476Y-67520714D02*
X56054476Y-68187380D01*
X55816380Y-67139761D02*
X55578285Y-67854047D01*
X56197333Y-67854047D01*
%TO.C,U13*%
X41179904Y-95127380D02*
X41179904Y-95936904D01*
X41227523Y-96032142D01*
X41275142Y-96079761D01*
X41370380Y-96127380D01*
X41560857Y-96127380D01*
X41656095Y-96079761D01*
X41703714Y-96032142D01*
X41751333Y-95936904D01*
X41751333Y-95127380D01*
X42751333Y-96127380D02*
X42179904Y-96127380D01*
X42465619Y-96127380D02*
X42465619Y-95127380D01*
X42370380Y-95270238D01*
X42275142Y-95365476D01*
X42179904Y-95413095D01*
X43084666Y-95127380D02*
X43703714Y-95127380D01*
X43370380Y-95508333D01*
X43513238Y-95508333D01*
X43608476Y-95555952D01*
X43656095Y-95603571D01*
X43703714Y-95698809D01*
X43703714Y-95936904D01*
X43656095Y-96032142D01*
X43608476Y-96079761D01*
X43513238Y-96127380D01*
X43227523Y-96127380D01*
X43132285Y-96079761D01*
X43084666Y-96032142D01*
%TO.C,J2*%
X23476666Y-27722380D02*
X23476666Y-28436666D01*
X23429047Y-28579523D01*
X23333809Y-28674761D01*
X23190952Y-28722380D01*
X23095714Y-28722380D01*
X23905238Y-27817619D02*
X23952857Y-27770000D01*
X24048095Y-27722380D01*
X24286190Y-27722380D01*
X24381428Y-27770000D01*
X24429047Y-27817619D01*
X24476666Y-27912857D01*
X24476666Y-28008095D01*
X24429047Y-28150952D01*
X23857619Y-28722380D01*
X24476666Y-28722380D01*
%TO.C,J1*%
X23476666Y-98902380D02*
X23476666Y-99616666D01*
X23429047Y-99759523D01*
X23333809Y-99854761D01*
X23190952Y-99902380D01*
X23095714Y-99902380D01*
X24476666Y-99902380D02*
X23905238Y-99902380D01*
X24190952Y-99902380D02*
X24190952Y-98902380D01*
X24095714Y-99045238D01*
X24000476Y-99140476D01*
X23905238Y-99188095D01*
%TO.C,D2*%
X106917380Y-61063095D02*
X105917380Y-61063095D01*
X105917380Y-60825000D01*
X105965000Y-60682142D01*
X106060238Y-60586904D01*
X106155476Y-60539285D01*
X106345952Y-60491666D01*
X106488809Y-60491666D01*
X106679285Y-60539285D01*
X106774523Y-60586904D01*
X106869761Y-60682142D01*
X106917380Y-60825000D01*
X106917380Y-61063095D01*
X106012619Y-60110714D02*
X105965000Y-60063095D01*
X105917380Y-59967857D01*
X105917380Y-59729761D01*
X105965000Y-59634523D01*
X106012619Y-59586904D01*
X106107857Y-59539285D01*
X106203095Y-59539285D01*
X106345952Y-59586904D01*
X106917380Y-60158333D01*
X106917380Y-59539285D01*
X100997380Y-61658333D02*
X99997380Y-61658333D01*
X99997380Y-61277380D01*
X100045000Y-61182142D01*
X100092619Y-61134523D01*
X100187857Y-61086904D01*
X100330714Y-61086904D01*
X100425952Y-61134523D01*
X100473571Y-61182142D01*
X100521190Y-61277380D01*
X100521190Y-61658333D01*
X99997380Y-60753571D02*
X100997380Y-60515476D01*
X100283095Y-60325000D01*
X100997380Y-60134523D01*
X99997380Y-59896428D01*
X100997380Y-58944047D02*
X100521190Y-59277380D01*
X100997380Y-59515476D02*
X99997380Y-59515476D01*
X99997380Y-59134523D01*
X100045000Y-59039285D01*
X100092619Y-58991666D01*
X100187857Y-58944047D01*
X100330714Y-58944047D01*
X100425952Y-58991666D01*
X100473571Y-59039285D01*
X100521190Y-59134523D01*
X100521190Y-59515476D01*
%TO.C,J4*%
X31476666Y-42992380D02*
X31476666Y-43706666D01*
X31429047Y-43849523D01*
X31333809Y-43944761D01*
X31190952Y-43992380D01*
X31095714Y-43992380D01*
X32381428Y-43325714D02*
X32381428Y-43992380D01*
X32143333Y-42944761D02*
X31905238Y-43659047D01*
X32524285Y-43659047D01*
%TO.C,X1*%
X55162380Y-31416523D02*
X56162380Y-30749857D01*
X55162380Y-30749857D02*
X56162380Y-31416523D01*
X56162380Y-29845095D02*
X56162380Y-30416523D01*
X56162380Y-30130809D02*
X55162380Y-30130809D01*
X55305238Y-30226047D01*
X55400476Y-30321285D01*
X55448095Y-30416523D01*
%TO.C,D1*%
X106917380Y-51538095D02*
X105917380Y-51538095D01*
X105917380Y-51300000D01*
X105965000Y-51157142D01*
X106060238Y-51061904D01*
X106155476Y-51014285D01*
X106345952Y-50966666D01*
X106488809Y-50966666D01*
X106679285Y-51014285D01*
X106774523Y-51061904D01*
X106869761Y-51157142D01*
X106917380Y-51300000D01*
X106917380Y-51538095D01*
X106917380Y-50014285D02*
X106917380Y-50585714D01*
X106917380Y-50300000D02*
X105917380Y-50300000D01*
X106060238Y-50395238D01*
X106155476Y-50490476D01*
X106203095Y-50585714D01*
X100997380Y-52300000D02*
X99997380Y-52300000D01*
X100473571Y-52300000D02*
X100473571Y-51728571D01*
X100997380Y-51728571D02*
X99997380Y-51728571D01*
X100711666Y-51300000D02*
X100711666Y-50823809D01*
X100997380Y-51395238D02*
X99997380Y-51061904D01*
X100997380Y-50728571D01*
X100997380Y-49919047D02*
X100997380Y-50395238D01*
X99997380Y-50395238D01*
X99997380Y-49728571D02*
X99997380Y-49157142D01*
X100997380Y-49442857D02*
X99997380Y-49442857D01*
%TO.C,U7*%
X108712095Y-36917380D02*
X108712095Y-37726904D01*
X108759714Y-37822142D01*
X108807333Y-37869761D01*
X108902571Y-37917380D01*
X109093047Y-37917380D01*
X109188285Y-37869761D01*
X109235904Y-37822142D01*
X109283523Y-37726904D01*
X109283523Y-36917380D01*
X109664476Y-36917380D02*
X110331142Y-36917380D01*
X109902571Y-37917380D01*
X103846380Y-38774523D02*
X103846380Y-38203095D01*
X104846380Y-38488809D02*
X103846380Y-38488809D01*
X103846380Y-37679285D02*
X103846380Y-37488809D01*
X103894000Y-37393571D01*
X103989238Y-37298333D01*
X104179714Y-37250714D01*
X104513047Y-37250714D01*
X104703523Y-37298333D01*
X104798761Y-37393571D01*
X104846380Y-37488809D01*
X104846380Y-37679285D01*
X104798761Y-37774523D01*
X104703523Y-37869761D01*
X104513047Y-37917380D01*
X104179714Y-37917380D01*
X103989238Y-37869761D01*
X103894000Y-37774523D01*
X103846380Y-37679285D01*
X104846380Y-36822142D02*
X103846380Y-36822142D01*
X103846380Y-36441190D01*
X103894000Y-36345952D01*
X103941619Y-36298333D01*
X104036857Y-36250714D01*
X104179714Y-36250714D01*
X104274952Y-36298333D01*
X104322571Y-36345952D01*
X104370190Y-36441190D01*
X104370190Y-36822142D01*
%TO.C,RN1*%
X59253380Y-98480476D02*
X58777190Y-98813809D01*
X59253380Y-99051904D02*
X58253380Y-99051904D01*
X58253380Y-98670952D01*
X58301000Y-98575714D01*
X58348619Y-98528095D01*
X58443857Y-98480476D01*
X58586714Y-98480476D01*
X58681952Y-98528095D01*
X58729571Y-98575714D01*
X58777190Y-98670952D01*
X58777190Y-99051904D01*
X59253380Y-98051904D02*
X58253380Y-98051904D01*
X59253380Y-97480476D01*
X58253380Y-97480476D01*
X59253380Y-96480476D02*
X59253380Y-97051904D01*
X59253380Y-96766190D02*
X58253380Y-96766190D01*
X58396238Y-96861428D01*
X58491476Y-96956666D01*
X58539095Y-97051904D01*
%TO.C,J3*%
X23476666Y-42992380D02*
X23476666Y-43706666D01*
X23429047Y-43849523D01*
X23333809Y-43944761D01*
X23190952Y-43992380D01*
X23095714Y-43992380D01*
X23857619Y-42992380D02*
X24476666Y-42992380D01*
X24143333Y-43373333D01*
X24286190Y-43373333D01*
X24381428Y-43420952D01*
X24429047Y-43468571D01*
X24476666Y-43563809D01*
X24476666Y-43801904D01*
X24429047Y-43897142D01*
X24381428Y-43944761D01*
X24286190Y-43992380D01*
X24000476Y-43992380D01*
X23905238Y-43944761D01*
X23857619Y-43897142D01*
%TD*%
M02*
