%TF.GenerationSoftware,KiCad,Pcbnew,(5.1.9)-1*%
%TF.CreationDate,2021-05-09T07:52:10-04:00*%
%TF.ProjectId,cpu2,63707532-2e6b-4696-9361-645f70636258,rev?*%
%TF.SameCoordinates,Original*%
%TF.FileFunction,Legend,Bot*%
%TF.FilePolarity,Positive*%
%FSLAX46Y46*%
G04 Gerber Fmt 4.6, Leading zero omitted, Abs format (unit mm)*
G04 Created by KiCad (PCBNEW (5.1.9)-1) date 2021-05-09 07:52:10*
%MOMM*%
%LPD*%
G01*
G04 APERTURE LIST*
%ADD10C,0.120000*%
%ADD11C,0.150000*%
G04 APERTURE END LIST*
D10*
%TO.C,R16*%
X59917064Y-30707000D02*
X59462936Y-30707000D01*
X59917064Y-29237000D02*
X59462936Y-29237000D01*
%TO.C,R15*%
X60020564Y-38581000D02*
X59566436Y-38581000D01*
X60020564Y-37111000D02*
X59566436Y-37111000D01*
%TO.C,R14*%
X99467936Y-23395000D02*
X99922064Y-23395000D01*
X99467936Y-24865000D02*
X99922064Y-24865000D01*
%TO.C,C23*%
X51335000Y-29390748D02*
X51335000Y-29913252D01*
X52805000Y-29390748D02*
X52805000Y-29913252D01*
%TO.C,C21*%
X32758748Y-35841000D02*
X33281252Y-35841000D01*
X32758748Y-37311000D02*
X33281252Y-37311000D01*
%TO.C,C20*%
X32758748Y-30253000D02*
X33281252Y-30253000D01*
X32758748Y-31723000D02*
X33281252Y-31723000D01*
%TO.C,C19*%
X78005000Y-102943252D02*
X78005000Y-102420748D01*
X79475000Y-102943252D02*
X79475000Y-102420748D01*
%TO.C,C18*%
X41074748Y-64670000D02*
X41597252Y-64670000D01*
X41074748Y-66140000D02*
X41597252Y-66140000D01*
%TO.C,C17*%
X53520748Y-92610000D02*
X54043252Y-92610000D01*
X53520748Y-94080000D02*
X54043252Y-94080000D01*
%TO.C,C16*%
X41074748Y-92610000D02*
X41597252Y-92610000D01*
X41074748Y-94080000D02*
X41597252Y-94080000D01*
%TO.C,C15*%
X46916748Y-117375000D02*
X47439252Y-117375000D01*
X46916748Y-118845000D02*
X47439252Y-118845000D01*
%TO.C,C14*%
X95435748Y-68680000D02*
X95958252Y-68680000D01*
X95435748Y-67210000D02*
X95958252Y-67210000D01*
%TO.C,C13*%
X53520748Y-64670000D02*
X54043252Y-64670000D01*
X53520748Y-66140000D02*
X54043252Y-66140000D01*
%TO.C,C12*%
X80291000Y-112702748D02*
X80291000Y-113225252D01*
X81761000Y-112702748D02*
X81761000Y-113225252D01*
%TO.C,C11*%
X75465000Y-115389252D02*
X75465000Y-114866748D01*
X76935000Y-115389252D02*
X76935000Y-114866748D01*
%TO.C,C10*%
X115511252Y-68680000D02*
X114988748Y-68680000D01*
X115511252Y-67210000D02*
X114988748Y-67210000D01*
%TO.C,C9*%
X65585748Y-68607000D02*
X66108252Y-68607000D01*
X65585748Y-70077000D02*
X66108252Y-70077000D01*
%TO.C,R9*%
X104240000Y-56287936D02*
X104240000Y-56742064D01*
X102770000Y-56287936D02*
X102770000Y-56742064D01*
%TO.C,R13*%
X53971564Y-63600000D02*
X53517436Y-63600000D01*
X53971564Y-62130000D02*
X53517436Y-62130000D01*
%TO.C,R12*%
X75465000Y-102947064D02*
X75465000Y-102492936D01*
X76935000Y-102947064D02*
X76935000Y-102492936D01*
%TO.C,R11*%
X65305000Y-102947064D02*
X65305000Y-102492936D01*
X66775000Y-102947064D02*
X66775000Y-102492936D01*
%TO.C,R10*%
X71855000Y-100252936D02*
X71855000Y-100707064D01*
X70385000Y-100252936D02*
X70385000Y-100707064D01*
%TO.C,R8*%
X104240000Y-46762936D02*
X104240000Y-47217064D01*
X102770000Y-46762936D02*
X102770000Y-47217064D01*
%TO.C,R7*%
X76196564Y-82650000D02*
X75742436Y-82650000D01*
X76196564Y-81180000D02*
X75742436Y-81180000D01*
%TO.C,R6*%
X76196564Y-85190000D02*
X75742436Y-85190000D01*
X76196564Y-83720000D02*
X75742436Y-83720000D01*
%TO.C,R5*%
X65685936Y-81180000D02*
X66140064Y-81180000D01*
X65685936Y-82650000D02*
X66140064Y-82650000D01*
%TO.C,R4*%
X69164564Y-28675000D02*
X68710436Y-28675000D01*
X69164564Y-27205000D02*
X68710436Y-27205000D01*
%TO.C,R3*%
X69164564Y-38835000D02*
X68710436Y-38835000D01*
X69164564Y-37365000D02*
X68710436Y-37365000D01*
%TO.C,R2*%
X69164564Y-26135000D02*
X68710436Y-26135000D01*
X69164564Y-24665000D02*
X68710436Y-24665000D01*
%TO.C,R1*%
X69164564Y-33755000D02*
X68710436Y-33755000D01*
X69164564Y-32285000D02*
X68710436Y-32285000D01*
%TO.C,C7*%
X69161252Y-23595000D02*
X68638748Y-23595000D01*
X69161252Y-22125000D02*
X68638748Y-22125000D01*
%TO.C,C6*%
X34216748Y-117375000D02*
X34739252Y-117375000D01*
X34216748Y-118845000D02*
X34739252Y-118845000D01*
%TO.C,C5*%
X114561252Y-31850000D02*
X114038748Y-31850000D01*
X114561252Y-30380000D02*
X114038748Y-30380000D01*
%TO.C,C4*%
X93926252Y-46455000D02*
X93403748Y-46455000D01*
X93926252Y-44985000D02*
X93403748Y-44985000D01*
%TO.C,C2*%
X68638748Y-29745000D02*
X69161252Y-29745000D01*
X68638748Y-31215000D02*
X69161252Y-31215000D01*
%TO.C,C1*%
X68638748Y-34825000D02*
X69161252Y-34825000D01*
X68638748Y-36295000D02*
X69161252Y-36295000D01*
%TO.C,R16*%
D11*
X60483357Y-31948380D02*
X60816690Y-31472190D01*
X61054785Y-31948380D02*
X61054785Y-30948380D01*
X60673833Y-30948380D01*
X60578595Y-30996000D01*
X60530976Y-31043619D01*
X60483357Y-31138857D01*
X60483357Y-31281714D01*
X60530976Y-31376952D01*
X60578595Y-31424571D01*
X60673833Y-31472190D01*
X61054785Y-31472190D01*
X59530976Y-31948380D02*
X60102404Y-31948380D01*
X59816690Y-31948380D02*
X59816690Y-30948380D01*
X59911928Y-31091238D01*
X60007166Y-31186476D01*
X60102404Y-31234095D01*
X58673833Y-30948380D02*
X58864309Y-30948380D01*
X58959547Y-30996000D01*
X59007166Y-31043619D01*
X59102404Y-31186476D01*
X59150023Y-31376952D01*
X59150023Y-31757904D01*
X59102404Y-31853142D01*
X59054785Y-31900761D01*
X58959547Y-31948380D01*
X58769071Y-31948380D01*
X58673833Y-31900761D01*
X58626214Y-31853142D01*
X58578595Y-31757904D01*
X58578595Y-31519809D01*
X58626214Y-31424571D01*
X58673833Y-31376952D01*
X58769071Y-31329333D01*
X58959547Y-31329333D01*
X59054785Y-31376952D01*
X59102404Y-31424571D01*
X59150023Y-31519809D01*
%TO.C,R15*%
X60436357Y-39822380D02*
X60769690Y-39346190D01*
X61007785Y-39822380D02*
X61007785Y-38822380D01*
X60626833Y-38822380D01*
X60531595Y-38870000D01*
X60483976Y-38917619D01*
X60436357Y-39012857D01*
X60436357Y-39155714D01*
X60483976Y-39250952D01*
X60531595Y-39298571D01*
X60626833Y-39346190D01*
X61007785Y-39346190D01*
X59483976Y-39822380D02*
X60055404Y-39822380D01*
X59769690Y-39822380D02*
X59769690Y-38822380D01*
X59864928Y-38965238D01*
X59960166Y-39060476D01*
X60055404Y-39108095D01*
X58579214Y-38822380D02*
X59055404Y-38822380D01*
X59103023Y-39298571D01*
X59055404Y-39250952D01*
X58960166Y-39203333D01*
X58722071Y-39203333D01*
X58626833Y-39250952D01*
X58579214Y-39298571D01*
X58531595Y-39393809D01*
X58531595Y-39631904D01*
X58579214Y-39727142D01*
X58626833Y-39774761D01*
X58722071Y-39822380D01*
X58960166Y-39822380D01*
X59055404Y-39774761D01*
X59103023Y-39727142D01*
%TO.C,R14*%
X100337857Y-26232380D02*
X100671190Y-25756190D01*
X100909285Y-26232380D02*
X100909285Y-25232380D01*
X100528333Y-25232380D01*
X100433095Y-25280000D01*
X100385476Y-25327619D01*
X100337857Y-25422857D01*
X100337857Y-25565714D01*
X100385476Y-25660952D01*
X100433095Y-25708571D01*
X100528333Y-25756190D01*
X100909285Y-25756190D01*
X99385476Y-26232380D02*
X99956904Y-26232380D01*
X99671190Y-26232380D02*
X99671190Y-25232380D01*
X99766428Y-25375238D01*
X99861666Y-25470476D01*
X99956904Y-25518095D01*
X98528333Y-25565714D02*
X98528333Y-26232380D01*
X98766428Y-25184761D02*
X99004523Y-25899047D01*
X98385476Y-25899047D01*
%TO.C,C23*%
X50747142Y-29009142D02*
X50794761Y-28961523D01*
X50842380Y-28818666D01*
X50842380Y-28723428D01*
X50794761Y-28580571D01*
X50699523Y-28485333D01*
X50604285Y-28437714D01*
X50413809Y-28390095D01*
X50270952Y-28390095D01*
X50080476Y-28437714D01*
X49985238Y-28485333D01*
X49890000Y-28580571D01*
X49842380Y-28723428D01*
X49842380Y-28818666D01*
X49890000Y-28961523D01*
X49937619Y-29009142D01*
X49937619Y-29390095D02*
X49890000Y-29437714D01*
X49842380Y-29532952D01*
X49842380Y-29771047D01*
X49890000Y-29866285D01*
X49937619Y-29913904D01*
X50032857Y-29961523D01*
X50128095Y-29961523D01*
X50270952Y-29913904D01*
X50842380Y-29342476D01*
X50842380Y-29961523D01*
X49842380Y-30294857D02*
X49842380Y-30913904D01*
X50223333Y-30580571D01*
X50223333Y-30723428D01*
X50270952Y-30818666D01*
X50318571Y-30866285D01*
X50413809Y-30913904D01*
X50651904Y-30913904D01*
X50747142Y-30866285D01*
X50794761Y-30818666D01*
X50842380Y-30723428D01*
X50842380Y-30437714D01*
X50794761Y-30342476D01*
X50747142Y-30294857D01*
%TO.C,C21*%
X33662857Y-35282142D02*
X33710476Y-35329761D01*
X33853333Y-35377380D01*
X33948571Y-35377380D01*
X34091428Y-35329761D01*
X34186666Y-35234523D01*
X34234285Y-35139285D01*
X34281904Y-34948809D01*
X34281904Y-34805952D01*
X34234285Y-34615476D01*
X34186666Y-34520238D01*
X34091428Y-34425000D01*
X33948571Y-34377380D01*
X33853333Y-34377380D01*
X33710476Y-34425000D01*
X33662857Y-34472619D01*
X33281904Y-34472619D02*
X33234285Y-34425000D01*
X33139047Y-34377380D01*
X32900952Y-34377380D01*
X32805714Y-34425000D01*
X32758095Y-34472619D01*
X32710476Y-34567857D01*
X32710476Y-34663095D01*
X32758095Y-34805952D01*
X33329523Y-35377380D01*
X32710476Y-35377380D01*
X31758095Y-35377380D02*
X32329523Y-35377380D01*
X32043809Y-35377380D02*
X32043809Y-34377380D01*
X32139047Y-34520238D01*
X32234285Y-34615476D01*
X32329523Y-34663095D01*
%TO.C,C20*%
X33662857Y-33123142D02*
X33710476Y-33170761D01*
X33853333Y-33218380D01*
X33948571Y-33218380D01*
X34091428Y-33170761D01*
X34186666Y-33075523D01*
X34234285Y-32980285D01*
X34281904Y-32789809D01*
X34281904Y-32646952D01*
X34234285Y-32456476D01*
X34186666Y-32361238D01*
X34091428Y-32266000D01*
X33948571Y-32218380D01*
X33853333Y-32218380D01*
X33710476Y-32266000D01*
X33662857Y-32313619D01*
X33281904Y-32313619D02*
X33234285Y-32266000D01*
X33139047Y-32218380D01*
X32900952Y-32218380D01*
X32805714Y-32266000D01*
X32758095Y-32313619D01*
X32710476Y-32408857D01*
X32710476Y-32504095D01*
X32758095Y-32646952D01*
X33329523Y-33218380D01*
X32710476Y-33218380D01*
X32091428Y-32218380D02*
X31996190Y-32218380D01*
X31900952Y-32266000D01*
X31853333Y-32313619D01*
X31805714Y-32408857D01*
X31758095Y-32599333D01*
X31758095Y-32837428D01*
X31805714Y-33027904D01*
X31853333Y-33123142D01*
X31900952Y-33170761D01*
X31996190Y-33218380D01*
X32091428Y-33218380D01*
X32186666Y-33170761D01*
X32234285Y-33123142D01*
X32281904Y-33027904D01*
X32329523Y-32837428D01*
X32329523Y-32599333D01*
X32281904Y-32408857D01*
X32234285Y-32313619D01*
X32186666Y-32266000D01*
X32091428Y-32218380D01*
%TO.C,C19*%
X80777142Y-102039142D02*
X80824761Y-101991523D01*
X80872380Y-101848666D01*
X80872380Y-101753428D01*
X80824761Y-101610571D01*
X80729523Y-101515333D01*
X80634285Y-101467714D01*
X80443809Y-101420095D01*
X80300952Y-101420095D01*
X80110476Y-101467714D01*
X80015238Y-101515333D01*
X79920000Y-101610571D01*
X79872380Y-101753428D01*
X79872380Y-101848666D01*
X79920000Y-101991523D01*
X79967619Y-102039142D01*
X80872380Y-102991523D02*
X80872380Y-102420095D01*
X80872380Y-102705809D02*
X79872380Y-102705809D01*
X80015238Y-102610571D01*
X80110476Y-102515333D01*
X80158095Y-102420095D01*
X80872380Y-103467714D02*
X80872380Y-103658190D01*
X80824761Y-103753428D01*
X80777142Y-103801047D01*
X80634285Y-103896285D01*
X80443809Y-103943904D01*
X80062857Y-103943904D01*
X79967619Y-103896285D01*
X79920000Y-103848666D01*
X79872380Y-103753428D01*
X79872380Y-103562952D01*
X79920000Y-103467714D01*
X79967619Y-103420095D01*
X80062857Y-103372476D01*
X80300952Y-103372476D01*
X80396190Y-103420095D01*
X80443809Y-103467714D01*
X80491428Y-103562952D01*
X80491428Y-103753428D01*
X80443809Y-103848666D01*
X80396190Y-103896285D01*
X80300952Y-103943904D01*
%TO.C,C18*%
X41978857Y-67442142D02*
X42026476Y-67489761D01*
X42169333Y-67537380D01*
X42264571Y-67537380D01*
X42407428Y-67489761D01*
X42502666Y-67394523D01*
X42550285Y-67299285D01*
X42597904Y-67108809D01*
X42597904Y-66965952D01*
X42550285Y-66775476D01*
X42502666Y-66680238D01*
X42407428Y-66585000D01*
X42264571Y-66537380D01*
X42169333Y-66537380D01*
X42026476Y-66585000D01*
X41978857Y-66632619D01*
X41026476Y-67537380D02*
X41597904Y-67537380D01*
X41312190Y-67537380D02*
X41312190Y-66537380D01*
X41407428Y-66680238D01*
X41502666Y-66775476D01*
X41597904Y-66823095D01*
X40455047Y-66965952D02*
X40550285Y-66918333D01*
X40597904Y-66870714D01*
X40645523Y-66775476D01*
X40645523Y-66727857D01*
X40597904Y-66632619D01*
X40550285Y-66585000D01*
X40455047Y-66537380D01*
X40264571Y-66537380D01*
X40169333Y-66585000D01*
X40121714Y-66632619D01*
X40074095Y-66727857D01*
X40074095Y-66775476D01*
X40121714Y-66870714D01*
X40169333Y-66918333D01*
X40264571Y-66965952D01*
X40455047Y-66965952D01*
X40550285Y-67013571D01*
X40597904Y-67061190D01*
X40645523Y-67156428D01*
X40645523Y-67346904D01*
X40597904Y-67442142D01*
X40550285Y-67489761D01*
X40455047Y-67537380D01*
X40264571Y-67537380D01*
X40169333Y-67489761D01*
X40121714Y-67442142D01*
X40074095Y-67346904D01*
X40074095Y-67156428D01*
X40121714Y-67061190D01*
X40169333Y-67013571D01*
X40264571Y-66965952D01*
%TO.C,C17*%
X54424857Y-95382142D02*
X54472476Y-95429761D01*
X54615333Y-95477380D01*
X54710571Y-95477380D01*
X54853428Y-95429761D01*
X54948666Y-95334523D01*
X54996285Y-95239285D01*
X55043904Y-95048809D01*
X55043904Y-94905952D01*
X54996285Y-94715476D01*
X54948666Y-94620238D01*
X54853428Y-94525000D01*
X54710571Y-94477380D01*
X54615333Y-94477380D01*
X54472476Y-94525000D01*
X54424857Y-94572619D01*
X53472476Y-95477380D02*
X54043904Y-95477380D01*
X53758190Y-95477380D02*
X53758190Y-94477380D01*
X53853428Y-94620238D01*
X53948666Y-94715476D01*
X54043904Y-94763095D01*
X53139142Y-94477380D02*
X52472476Y-94477380D01*
X52901047Y-95477380D01*
%TO.C,C16*%
X41978857Y-95382142D02*
X42026476Y-95429761D01*
X42169333Y-95477380D01*
X42264571Y-95477380D01*
X42407428Y-95429761D01*
X42502666Y-95334523D01*
X42550285Y-95239285D01*
X42597904Y-95048809D01*
X42597904Y-94905952D01*
X42550285Y-94715476D01*
X42502666Y-94620238D01*
X42407428Y-94525000D01*
X42264571Y-94477380D01*
X42169333Y-94477380D01*
X42026476Y-94525000D01*
X41978857Y-94572619D01*
X41026476Y-95477380D02*
X41597904Y-95477380D01*
X41312190Y-95477380D02*
X41312190Y-94477380D01*
X41407428Y-94620238D01*
X41502666Y-94715476D01*
X41597904Y-94763095D01*
X40169333Y-94477380D02*
X40359809Y-94477380D01*
X40455047Y-94525000D01*
X40502666Y-94572619D01*
X40597904Y-94715476D01*
X40645523Y-94905952D01*
X40645523Y-95286904D01*
X40597904Y-95382142D01*
X40550285Y-95429761D01*
X40455047Y-95477380D01*
X40264571Y-95477380D01*
X40169333Y-95429761D01*
X40121714Y-95382142D01*
X40074095Y-95286904D01*
X40074095Y-95048809D01*
X40121714Y-94953571D01*
X40169333Y-94905952D01*
X40264571Y-94858333D01*
X40455047Y-94858333D01*
X40550285Y-94905952D01*
X40597904Y-94953571D01*
X40645523Y-95048809D01*
%TO.C,C15*%
X47759857Y-116816142D02*
X47807476Y-116863761D01*
X47950333Y-116911380D01*
X48045571Y-116911380D01*
X48188428Y-116863761D01*
X48283666Y-116768523D01*
X48331285Y-116673285D01*
X48378904Y-116482809D01*
X48378904Y-116339952D01*
X48331285Y-116149476D01*
X48283666Y-116054238D01*
X48188428Y-115959000D01*
X48045571Y-115911380D01*
X47950333Y-115911380D01*
X47807476Y-115959000D01*
X47759857Y-116006619D01*
X46807476Y-116911380D02*
X47378904Y-116911380D01*
X47093190Y-116911380D02*
X47093190Y-115911380D01*
X47188428Y-116054238D01*
X47283666Y-116149476D01*
X47378904Y-116197095D01*
X45902714Y-115911380D02*
X46378904Y-115911380D01*
X46426523Y-116387571D01*
X46378904Y-116339952D01*
X46283666Y-116292333D01*
X46045571Y-116292333D01*
X45950333Y-116339952D01*
X45902714Y-116387571D01*
X45855095Y-116482809D01*
X45855095Y-116720904D01*
X45902714Y-116816142D01*
X45950333Y-116863761D01*
X46045571Y-116911380D01*
X46283666Y-116911380D01*
X46378904Y-116863761D01*
X46426523Y-116816142D01*
%TO.C,C14*%
X96339857Y-69982142D02*
X96387476Y-70029761D01*
X96530333Y-70077380D01*
X96625571Y-70077380D01*
X96768428Y-70029761D01*
X96863666Y-69934523D01*
X96911285Y-69839285D01*
X96958904Y-69648809D01*
X96958904Y-69505952D01*
X96911285Y-69315476D01*
X96863666Y-69220238D01*
X96768428Y-69125000D01*
X96625571Y-69077380D01*
X96530333Y-69077380D01*
X96387476Y-69125000D01*
X96339857Y-69172619D01*
X95387476Y-70077380D02*
X95958904Y-70077380D01*
X95673190Y-70077380D02*
X95673190Y-69077380D01*
X95768428Y-69220238D01*
X95863666Y-69315476D01*
X95958904Y-69363095D01*
X94530333Y-69410714D02*
X94530333Y-70077380D01*
X94768428Y-69029761D02*
X95006523Y-69744047D01*
X94387476Y-69744047D01*
%TO.C,C13*%
X54424857Y-67442142D02*
X54472476Y-67489761D01*
X54615333Y-67537380D01*
X54710571Y-67537380D01*
X54853428Y-67489761D01*
X54948666Y-67394523D01*
X54996285Y-67299285D01*
X55043904Y-67108809D01*
X55043904Y-66965952D01*
X54996285Y-66775476D01*
X54948666Y-66680238D01*
X54853428Y-66585000D01*
X54710571Y-66537380D01*
X54615333Y-66537380D01*
X54472476Y-66585000D01*
X54424857Y-66632619D01*
X53472476Y-67537380D02*
X54043904Y-67537380D01*
X53758190Y-67537380D02*
X53758190Y-66537380D01*
X53853428Y-66680238D01*
X53948666Y-66775476D01*
X54043904Y-66823095D01*
X53139142Y-66537380D02*
X52520095Y-66537380D01*
X52853428Y-66918333D01*
X52710571Y-66918333D01*
X52615333Y-66965952D01*
X52567714Y-67013571D01*
X52520095Y-67108809D01*
X52520095Y-67346904D01*
X52567714Y-67442142D01*
X52615333Y-67489761D01*
X52710571Y-67537380D01*
X52996285Y-67537380D01*
X53091523Y-67489761D01*
X53139142Y-67442142D01*
%TO.C,C12*%
X79703142Y-112321142D02*
X79750761Y-112273523D01*
X79798380Y-112130666D01*
X79798380Y-112035428D01*
X79750761Y-111892571D01*
X79655523Y-111797333D01*
X79560285Y-111749714D01*
X79369809Y-111702095D01*
X79226952Y-111702095D01*
X79036476Y-111749714D01*
X78941238Y-111797333D01*
X78846000Y-111892571D01*
X78798380Y-112035428D01*
X78798380Y-112130666D01*
X78846000Y-112273523D01*
X78893619Y-112321142D01*
X79798380Y-113273523D02*
X79798380Y-112702095D01*
X79798380Y-112987809D02*
X78798380Y-112987809D01*
X78941238Y-112892571D01*
X79036476Y-112797333D01*
X79084095Y-112702095D01*
X78893619Y-113654476D02*
X78846000Y-113702095D01*
X78798380Y-113797333D01*
X78798380Y-114035428D01*
X78846000Y-114130666D01*
X78893619Y-114178285D01*
X78988857Y-114225904D01*
X79084095Y-114225904D01*
X79226952Y-114178285D01*
X79798380Y-113606857D01*
X79798380Y-114225904D01*
%TO.C,C11*%
X78237142Y-114485142D02*
X78284761Y-114437523D01*
X78332380Y-114294666D01*
X78332380Y-114199428D01*
X78284761Y-114056571D01*
X78189523Y-113961333D01*
X78094285Y-113913714D01*
X77903809Y-113866095D01*
X77760952Y-113866095D01*
X77570476Y-113913714D01*
X77475238Y-113961333D01*
X77380000Y-114056571D01*
X77332380Y-114199428D01*
X77332380Y-114294666D01*
X77380000Y-114437523D01*
X77427619Y-114485142D01*
X78332380Y-115437523D02*
X78332380Y-114866095D01*
X78332380Y-115151809D02*
X77332380Y-115151809D01*
X77475238Y-115056571D01*
X77570476Y-114961333D01*
X77618095Y-114866095D01*
X78332380Y-116389904D02*
X78332380Y-115818476D01*
X78332380Y-116104190D02*
X77332380Y-116104190D01*
X77475238Y-116008952D01*
X77570476Y-115913714D01*
X77618095Y-115818476D01*
%TO.C,C10*%
X115892857Y-66622142D02*
X115940476Y-66669761D01*
X116083333Y-66717380D01*
X116178571Y-66717380D01*
X116321428Y-66669761D01*
X116416666Y-66574523D01*
X116464285Y-66479285D01*
X116511904Y-66288809D01*
X116511904Y-66145952D01*
X116464285Y-65955476D01*
X116416666Y-65860238D01*
X116321428Y-65765000D01*
X116178571Y-65717380D01*
X116083333Y-65717380D01*
X115940476Y-65765000D01*
X115892857Y-65812619D01*
X114940476Y-66717380D02*
X115511904Y-66717380D01*
X115226190Y-66717380D02*
X115226190Y-65717380D01*
X115321428Y-65860238D01*
X115416666Y-65955476D01*
X115511904Y-66003095D01*
X114321428Y-65717380D02*
X114226190Y-65717380D01*
X114130952Y-65765000D01*
X114083333Y-65812619D01*
X114035714Y-65907857D01*
X113988095Y-66098333D01*
X113988095Y-66336428D01*
X114035714Y-66526904D01*
X114083333Y-66622142D01*
X114130952Y-66669761D01*
X114226190Y-66717380D01*
X114321428Y-66717380D01*
X114416666Y-66669761D01*
X114464285Y-66622142D01*
X114511904Y-66526904D01*
X114559523Y-66336428D01*
X114559523Y-66098333D01*
X114511904Y-65907857D01*
X114464285Y-65812619D01*
X114416666Y-65765000D01*
X114321428Y-65717380D01*
%TO.C,C9*%
X66013666Y-71379142D02*
X66061285Y-71426761D01*
X66204142Y-71474380D01*
X66299380Y-71474380D01*
X66442238Y-71426761D01*
X66537476Y-71331523D01*
X66585095Y-71236285D01*
X66632714Y-71045809D01*
X66632714Y-70902952D01*
X66585095Y-70712476D01*
X66537476Y-70617238D01*
X66442238Y-70522000D01*
X66299380Y-70474380D01*
X66204142Y-70474380D01*
X66061285Y-70522000D01*
X66013666Y-70569619D01*
X65537476Y-71474380D02*
X65347000Y-71474380D01*
X65251761Y-71426761D01*
X65204142Y-71379142D01*
X65108904Y-71236285D01*
X65061285Y-71045809D01*
X65061285Y-70664857D01*
X65108904Y-70569619D01*
X65156523Y-70522000D01*
X65251761Y-70474380D01*
X65442238Y-70474380D01*
X65537476Y-70522000D01*
X65585095Y-70569619D01*
X65632714Y-70664857D01*
X65632714Y-70902952D01*
X65585095Y-70998190D01*
X65537476Y-71045809D01*
X65442238Y-71093428D01*
X65251761Y-71093428D01*
X65156523Y-71045809D01*
X65108904Y-70998190D01*
X65061285Y-70902952D01*
%TO.C,R9*%
X103671666Y-59507380D02*
X104005000Y-59031190D01*
X104243095Y-59507380D02*
X104243095Y-58507380D01*
X103862142Y-58507380D01*
X103766904Y-58555000D01*
X103719285Y-58602619D01*
X103671666Y-58697857D01*
X103671666Y-58840714D01*
X103719285Y-58935952D01*
X103766904Y-58983571D01*
X103862142Y-59031190D01*
X104243095Y-59031190D01*
X103195476Y-59507380D02*
X103005000Y-59507380D01*
X102909761Y-59459761D01*
X102862142Y-59412142D01*
X102766904Y-59269285D01*
X102719285Y-59078809D01*
X102719285Y-58697857D01*
X102766904Y-58602619D01*
X102814523Y-58555000D01*
X102909761Y-58507380D01*
X103100238Y-58507380D01*
X103195476Y-58555000D01*
X103243095Y-58602619D01*
X103290714Y-58697857D01*
X103290714Y-58935952D01*
X103243095Y-59031190D01*
X103195476Y-59078809D01*
X103100238Y-59126428D01*
X102909761Y-59126428D01*
X102814523Y-59078809D01*
X102766904Y-59031190D01*
X102719285Y-58935952D01*
%TO.C,R13*%
X54387357Y-61667380D02*
X54720690Y-61191190D01*
X54958785Y-61667380D02*
X54958785Y-60667380D01*
X54577833Y-60667380D01*
X54482595Y-60715000D01*
X54434976Y-60762619D01*
X54387357Y-60857857D01*
X54387357Y-61000714D01*
X54434976Y-61095952D01*
X54482595Y-61143571D01*
X54577833Y-61191190D01*
X54958785Y-61191190D01*
X53434976Y-61667380D02*
X54006404Y-61667380D01*
X53720690Y-61667380D02*
X53720690Y-60667380D01*
X53815928Y-60810238D01*
X53911166Y-60905476D01*
X54006404Y-60953095D01*
X53101642Y-60667380D02*
X52482595Y-60667380D01*
X52815928Y-61048333D01*
X52673071Y-61048333D01*
X52577833Y-61095952D01*
X52530214Y-61143571D01*
X52482595Y-61238809D01*
X52482595Y-61476904D01*
X52530214Y-61572142D01*
X52577833Y-61619761D01*
X52673071Y-61667380D01*
X52958785Y-61667380D01*
X53054023Y-61619761D01*
X53101642Y-61572142D01*
%TO.C,R12*%
X76842857Y-100782380D02*
X77176190Y-100306190D01*
X77414285Y-100782380D02*
X77414285Y-99782380D01*
X77033333Y-99782380D01*
X76938095Y-99830000D01*
X76890476Y-99877619D01*
X76842857Y-99972857D01*
X76842857Y-100115714D01*
X76890476Y-100210952D01*
X76938095Y-100258571D01*
X77033333Y-100306190D01*
X77414285Y-100306190D01*
X75890476Y-100782380D02*
X76461904Y-100782380D01*
X76176190Y-100782380D02*
X76176190Y-99782380D01*
X76271428Y-99925238D01*
X76366666Y-100020476D01*
X76461904Y-100068095D01*
X75509523Y-99877619D02*
X75461904Y-99830000D01*
X75366666Y-99782380D01*
X75128571Y-99782380D01*
X75033333Y-99830000D01*
X74985714Y-99877619D01*
X74938095Y-99972857D01*
X74938095Y-100068095D01*
X74985714Y-100210952D01*
X75557142Y-100782380D01*
X74938095Y-100782380D01*
%TO.C,R11*%
X68142380Y-102077142D02*
X67666190Y-101743809D01*
X68142380Y-101505714D02*
X67142380Y-101505714D01*
X67142380Y-101886666D01*
X67190000Y-101981904D01*
X67237619Y-102029523D01*
X67332857Y-102077142D01*
X67475714Y-102077142D01*
X67570952Y-102029523D01*
X67618571Y-101981904D01*
X67666190Y-101886666D01*
X67666190Y-101505714D01*
X68142380Y-103029523D02*
X68142380Y-102458095D01*
X68142380Y-102743809D02*
X67142380Y-102743809D01*
X67285238Y-102648571D01*
X67380476Y-102553333D01*
X67428095Y-102458095D01*
X68142380Y-103981904D02*
X68142380Y-103410476D01*
X68142380Y-103696190D02*
X67142380Y-103696190D01*
X67285238Y-103600952D01*
X67380476Y-103505714D01*
X67428095Y-103410476D01*
%TO.C,R10*%
X69921380Y-99837142D02*
X69445190Y-99503809D01*
X69921380Y-99265714D02*
X68921380Y-99265714D01*
X68921380Y-99646666D01*
X68969000Y-99741904D01*
X69016619Y-99789523D01*
X69111857Y-99837142D01*
X69254714Y-99837142D01*
X69349952Y-99789523D01*
X69397571Y-99741904D01*
X69445190Y-99646666D01*
X69445190Y-99265714D01*
X69921380Y-100789523D02*
X69921380Y-100218095D01*
X69921380Y-100503809D02*
X68921380Y-100503809D01*
X69064238Y-100408571D01*
X69159476Y-100313333D01*
X69207095Y-100218095D01*
X68921380Y-101408571D02*
X68921380Y-101503809D01*
X68969000Y-101599047D01*
X69016619Y-101646666D01*
X69111857Y-101694285D01*
X69302333Y-101741904D01*
X69540428Y-101741904D01*
X69730904Y-101694285D01*
X69826142Y-101646666D01*
X69873761Y-101599047D01*
X69921380Y-101503809D01*
X69921380Y-101408571D01*
X69873761Y-101313333D01*
X69826142Y-101265714D01*
X69730904Y-101218095D01*
X69540428Y-101170476D01*
X69302333Y-101170476D01*
X69111857Y-101218095D01*
X69016619Y-101265714D01*
X68969000Y-101313333D01*
X68921380Y-101408571D01*
%TO.C,R8*%
X103671666Y-49982380D02*
X104005000Y-49506190D01*
X104243095Y-49982380D02*
X104243095Y-48982380D01*
X103862142Y-48982380D01*
X103766904Y-49030000D01*
X103719285Y-49077619D01*
X103671666Y-49172857D01*
X103671666Y-49315714D01*
X103719285Y-49410952D01*
X103766904Y-49458571D01*
X103862142Y-49506190D01*
X104243095Y-49506190D01*
X103100238Y-49410952D02*
X103195476Y-49363333D01*
X103243095Y-49315714D01*
X103290714Y-49220476D01*
X103290714Y-49172857D01*
X103243095Y-49077619D01*
X103195476Y-49030000D01*
X103100238Y-48982380D01*
X102909761Y-48982380D01*
X102814523Y-49030000D01*
X102766904Y-49077619D01*
X102719285Y-49172857D01*
X102719285Y-49220476D01*
X102766904Y-49315714D01*
X102814523Y-49363333D01*
X102909761Y-49410952D01*
X103100238Y-49410952D01*
X103195476Y-49458571D01*
X103243095Y-49506190D01*
X103290714Y-49601428D01*
X103290714Y-49791904D01*
X103243095Y-49887142D01*
X103195476Y-49934761D01*
X103100238Y-49982380D01*
X102909761Y-49982380D01*
X102814523Y-49934761D01*
X102766904Y-49887142D01*
X102719285Y-49791904D01*
X102719285Y-49601428D01*
X102766904Y-49506190D01*
X102814523Y-49458571D01*
X102909761Y-49410952D01*
%TO.C,R7*%
X76136166Y-80717380D02*
X76469500Y-80241190D01*
X76707595Y-80717380D02*
X76707595Y-79717380D01*
X76326642Y-79717380D01*
X76231404Y-79765000D01*
X76183785Y-79812619D01*
X76136166Y-79907857D01*
X76136166Y-80050714D01*
X76183785Y-80145952D01*
X76231404Y-80193571D01*
X76326642Y-80241190D01*
X76707595Y-80241190D01*
X75802833Y-79717380D02*
X75136166Y-79717380D01*
X75564738Y-80717380D01*
%TO.C,R6*%
X76239666Y-86685380D02*
X76573000Y-86209190D01*
X76811095Y-86685380D02*
X76811095Y-85685380D01*
X76430142Y-85685380D01*
X76334904Y-85733000D01*
X76287285Y-85780619D01*
X76239666Y-85875857D01*
X76239666Y-86018714D01*
X76287285Y-86113952D01*
X76334904Y-86161571D01*
X76430142Y-86209190D01*
X76811095Y-86209190D01*
X75382523Y-85685380D02*
X75573000Y-85685380D01*
X75668238Y-85733000D01*
X75715857Y-85780619D01*
X75811095Y-85923476D01*
X75858714Y-86113952D01*
X75858714Y-86494904D01*
X75811095Y-86590142D01*
X75763476Y-86637761D01*
X75668238Y-86685380D01*
X75477761Y-86685380D01*
X75382523Y-86637761D01*
X75334904Y-86590142D01*
X75287285Y-86494904D01*
X75287285Y-86256809D01*
X75334904Y-86161571D01*
X75382523Y-86113952D01*
X75477761Y-86066333D01*
X75668238Y-86066333D01*
X75763476Y-86113952D01*
X75811095Y-86161571D01*
X75858714Y-86256809D01*
%TO.C,R5*%
X66079666Y-84017380D02*
X66413000Y-83541190D01*
X66651095Y-84017380D02*
X66651095Y-83017380D01*
X66270142Y-83017380D01*
X66174904Y-83065000D01*
X66127285Y-83112619D01*
X66079666Y-83207857D01*
X66079666Y-83350714D01*
X66127285Y-83445952D01*
X66174904Y-83493571D01*
X66270142Y-83541190D01*
X66651095Y-83541190D01*
X65174904Y-83017380D02*
X65651095Y-83017380D01*
X65698714Y-83493571D01*
X65651095Y-83445952D01*
X65555857Y-83398333D01*
X65317761Y-83398333D01*
X65222523Y-83445952D01*
X65174904Y-83493571D01*
X65127285Y-83588809D01*
X65127285Y-83826904D01*
X65174904Y-83922142D01*
X65222523Y-83969761D01*
X65317761Y-84017380D01*
X65555857Y-84017380D01*
X65651095Y-83969761D01*
X65698714Y-83922142D01*
%TO.C,R4*%
X66460666Y-28392380D02*
X66794000Y-27916190D01*
X67032095Y-28392380D02*
X67032095Y-27392380D01*
X66651142Y-27392380D01*
X66555904Y-27440000D01*
X66508285Y-27487619D01*
X66460666Y-27582857D01*
X66460666Y-27725714D01*
X66508285Y-27820952D01*
X66555904Y-27868571D01*
X66651142Y-27916190D01*
X67032095Y-27916190D01*
X65603523Y-27725714D02*
X65603523Y-28392380D01*
X65841619Y-27344761D02*
X66079714Y-28059047D01*
X65460666Y-28059047D01*
%TO.C,R3*%
X66460666Y-36012380D02*
X66794000Y-35536190D01*
X67032095Y-36012380D02*
X67032095Y-35012380D01*
X66651142Y-35012380D01*
X66555904Y-35060000D01*
X66508285Y-35107619D01*
X66460666Y-35202857D01*
X66460666Y-35345714D01*
X66508285Y-35440952D01*
X66555904Y-35488571D01*
X66651142Y-35536190D01*
X67032095Y-35536190D01*
X66127333Y-35012380D02*
X65508285Y-35012380D01*
X65841619Y-35393333D01*
X65698761Y-35393333D01*
X65603523Y-35440952D01*
X65555904Y-35488571D01*
X65508285Y-35583809D01*
X65508285Y-35821904D01*
X65555904Y-35917142D01*
X65603523Y-35964761D01*
X65698761Y-36012380D01*
X65984476Y-36012380D01*
X66079714Y-35964761D01*
X66127333Y-35917142D01*
%TO.C,R2*%
X66460666Y-25852380D02*
X66794000Y-25376190D01*
X67032095Y-25852380D02*
X67032095Y-24852380D01*
X66651142Y-24852380D01*
X66555904Y-24900000D01*
X66508285Y-24947619D01*
X66460666Y-25042857D01*
X66460666Y-25185714D01*
X66508285Y-25280952D01*
X66555904Y-25328571D01*
X66651142Y-25376190D01*
X67032095Y-25376190D01*
X66079714Y-24947619D02*
X66032095Y-24900000D01*
X65936857Y-24852380D01*
X65698761Y-24852380D01*
X65603523Y-24900000D01*
X65555904Y-24947619D01*
X65508285Y-25042857D01*
X65508285Y-25138095D01*
X65555904Y-25280952D01*
X66127333Y-25852380D01*
X65508285Y-25852380D01*
%TO.C,R1*%
X66460666Y-33472380D02*
X66794000Y-32996190D01*
X67032095Y-33472380D02*
X67032095Y-32472380D01*
X66651142Y-32472380D01*
X66555904Y-32520000D01*
X66508285Y-32567619D01*
X66460666Y-32662857D01*
X66460666Y-32805714D01*
X66508285Y-32900952D01*
X66555904Y-32948571D01*
X66651142Y-32996190D01*
X67032095Y-32996190D01*
X65508285Y-33472380D02*
X66079714Y-33472380D01*
X65794000Y-33472380D02*
X65794000Y-32472380D01*
X65889238Y-32615238D01*
X65984476Y-32710476D01*
X66079714Y-32758095D01*
%TO.C,C7*%
X66460666Y-23217142D02*
X66508285Y-23264761D01*
X66651142Y-23312380D01*
X66746380Y-23312380D01*
X66889238Y-23264761D01*
X66984476Y-23169523D01*
X67032095Y-23074285D01*
X67079714Y-22883809D01*
X67079714Y-22740952D01*
X67032095Y-22550476D01*
X66984476Y-22455238D01*
X66889238Y-22360000D01*
X66746380Y-22312380D01*
X66651142Y-22312380D01*
X66508285Y-22360000D01*
X66460666Y-22407619D01*
X66127333Y-22312380D02*
X65460666Y-22312380D01*
X65889238Y-23312380D01*
%TO.C,C6*%
X34644666Y-116816142D02*
X34692285Y-116863761D01*
X34835142Y-116911380D01*
X34930380Y-116911380D01*
X35073238Y-116863761D01*
X35168476Y-116768523D01*
X35216095Y-116673285D01*
X35263714Y-116482809D01*
X35263714Y-116339952D01*
X35216095Y-116149476D01*
X35168476Y-116054238D01*
X35073238Y-115959000D01*
X34930380Y-115911380D01*
X34835142Y-115911380D01*
X34692285Y-115959000D01*
X34644666Y-116006619D01*
X33787523Y-115911380D02*
X33978000Y-115911380D01*
X34073238Y-115959000D01*
X34120857Y-116006619D01*
X34216095Y-116149476D01*
X34263714Y-116339952D01*
X34263714Y-116720904D01*
X34216095Y-116816142D01*
X34168476Y-116863761D01*
X34073238Y-116911380D01*
X33882761Y-116911380D01*
X33787523Y-116863761D01*
X33739904Y-116816142D01*
X33692285Y-116720904D01*
X33692285Y-116482809D01*
X33739904Y-116387571D01*
X33787523Y-116339952D01*
X33882761Y-116292333D01*
X34073238Y-116292333D01*
X34168476Y-116339952D01*
X34216095Y-116387571D01*
X34263714Y-116482809D01*
%TO.C,C5*%
X114466666Y-29792142D02*
X114514285Y-29839761D01*
X114657142Y-29887380D01*
X114752380Y-29887380D01*
X114895238Y-29839761D01*
X114990476Y-29744523D01*
X115038095Y-29649285D01*
X115085714Y-29458809D01*
X115085714Y-29315952D01*
X115038095Y-29125476D01*
X114990476Y-29030238D01*
X114895238Y-28935000D01*
X114752380Y-28887380D01*
X114657142Y-28887380D01*
X114514285Y-28935000D01*
X114466666Y-28982619D01*
X113561904Y-28887380D02*
X114038095Y-28887380D01*
X114085714Y-29363571D01*
X114038095Y-29315952D01*
X113942857Y-29268333D01*
X113704761Y-29268333D01*
X113609523Y-29315952D01*
X113561904Y-29363571D01*
X113514285Y-29458809D01*
X113514285Y-29696904D01*
X113561904Y-29792142D01*
X113609523Y-29839761D01*
X113704761Y-29887380D01*
X113942857Y-29887380D01*
X114038095Y-29839761D01*
X114085714Y-29792142D01*
%TO.C,C4*%
X93831666Y-44397142D02*
X93879285Y-44444761D01*
X94022142Y-44492380D01*
X94117380Y-44492380D01*
X94260238Y-44444761D01*
X94355476Y-44349523D01*
X94403095Y-44254285D01*
X94450714Y-44063809D01*
X94450714Y-43920952D01*
X94403095Y-43730476D01*
X94355476Y-43635238D01*
X94260238Y-43540000D01*
X94117380Y-43492380D01*
X94022142Y-43492380D01*
X93879285Y-43540000D01*
X93831666Y-43587619D01*
X92974523Y-43825714D02*
X92974523Y-44492380D01*
X93212619Y-43444761D02*
X93450714Y-44159047D01*
X92831666Y-44159047D01*
%TO.C,C2*%
X66460666Y-30837142D02*
X66508285Y-30884761D01*
X66651142Y-30932380D01*
X66746380Y-30932380D01*
X66889238Y-30884761D01*
X66984476Y-30789523D01*
X67032095Y-30694285D01*
X67079714Y-30503809D01*
X67079714Y-30360952D01*
X67032095Y-30170476D01*
X66984476Y-30075238D01*
X66889238Y-29980000D01*
X66746380Y-29932380D01*
X66651142Y-29932380D01*
X66508285Y-29980000D01*
X66460666Y-30027619D01*
X66079714Y-30027619D02*
X66032095Y-29980000D01*
X65936857Y-29932380D01*
X65698761Y-29932380D01*
X65603523Y-29980000D01*
X65555904Y-30027619D01*
X65508285Y-30122857D01*
X65508285Y-30218095D01*
X65555904Y-30360952D01*
X66127333Y-30932380D01*
X65508285Y-30932380D01*
%TO.C,C1*%
X66460666Y-38457142D02*
X66508285Y-38504761D01*
X66651142Y-38552380D01*
X66746380Y-38552380D01*
X66889238Y-38504761D01*
X66984476Y-38409523D01*
X67032095Y-38314285D01*
X67079714Y-38123809D01*
X67079714Y-37980952D01*
X67032095Y-37790476D01*
X66984476Y-37695238D01*
X66889238Y-37600000D01*
X66746380Y-37552380D01*
X66651142Y-37552380D01*
X66508285Y-37600000D01*
X66460666Y-37647619D01*
X65508285Y-38552380D02*
X66079714Y-38552380D01*
X65794000Y-38552380D02*
X65794000Y-37552380D01*
X65889238Y-37695238D01*
X65984476Y-37790476D01*
X66079714Y-37838095D01*
%TD*%
M02*
