M48
; DRILL file {KiCad (5.1.9)-1} date 05/09/21 07:52:15
; FORMAT={-:-/ absolute / inch / decimal}
; #@! TF.CreationDate,2021-05-09T07:52:15-04:00
; #@! TF.GenerationSoftware,Kicad,Pcbnew,(5.1.9)-1
FMAT,2
INCH
T1C0.0118
T2C0.0197
T3C0.0236
T4C0.0300
T5C0.0315
T6C0.0354
T7C0.0394
T8C0.0433
T9C0.1260
%
G90
G05
T1
X1.3644Y-3.2382
X1.3882Y-3.2588
X1.4288Y-4.5155
X1.4689Y-3.6187
X1.489Y-2.0157
X1.6068Y-3.3369
X1.6291Y-3.2775
X1.6336Y-3.5967
X1.8282Y-4.4642
X1.8612Y-3.4039
X1.8901Y-2.4198
X1.9004Y-2.9161
X1.9364Y-2.1974
X1.9554Y-2.1354
X2.0857Y-3.2247
X2.0893Y-4.3033
X2.0956Y-1.9815
X2.1133Y-4.2039
X2.1201Y-2.122
X2.1299Y-4.3583
X2.1399Y-2.2713
X2.1647Y-3.7703
X2.1732Y-1.8939
X2.1975Y-2.201
X2.2145Y-3.6094
X2.2822Y-3.8581
X2.3456Y-3.8494
X2.3685Y-2.3415
X2.3779Y-2.2222
X2.391Y-3.0246
X2.3975Y-2.6766
X2.4243Y-2.5562
X2.4408Y-3.4699
X2.5637Y-2.2238
X2.5945Y-3.4869
X2.6042Y-3.4569
X2.6544Y-3.4359
X2.7589Y-4.5742
X2.8633Y-3.7697
X2.8641Y-3.1336
X2.867Y-3.0761
X2.8987Y-3.0727
X2.9031Y-3.1063
X2.9322Y-3.1203
X2.9437Y-4.3078
X3.0384Y-3.9007
X3.1249Y-3.4704
X3.1966Y-4.0489
X3.2174Y-3.1326
X3.2284Y-2.278
X3.3214Y-2.4327
X3.3607Y-0.944
X3.6686Y-1.8905
X4.1338Y-3.5765
T2
X3.275Y-1.85
X3.375Y-1.85
T3
X1.8701Y-1.0191
X1.8772Y-3.7621
X1.9015Y-4.0227
X2.1617Y-1.749
X2.1955Y-2.5632
X2.2411Y-2.7273
X2.4442Y-4.4668
X2.6289Y-1.4597
X3.9006Y-2.0571
T4
X2.9657Y-1.25
X3.7531Y-1.25
T5
X1.225Y-1.135
X1.225Y-1.52
X1.25Y-3.95
X1.25Y-4.05
X1.25Y-4.15
X1.25Y-4.25
X1.25Y-4.35
X1.25Y-4.45
X1.25Y-4.55
X1.25Y-4.65
X1.3628Y-1.135
X1.3628Y-1.52
X1.52Y-1.675
X1.52Y-1.775
X1.52Y-1.875
X1.52Y-1.975
X1.52Y-2.075
X1.52Y-2.175
X1.52Y-2.275
X1.52Y-2.375
X1.52Y-2.475
X1.52Y-2.575
X1.52Y-2.775
X1.52Y-2.875
X1.52Y-2.975
X1.52Y-3.075
X1.52Y-3.175
X1.52Y-3.275
X1.52Y-3.375
X1.52Y-3.475
X1.52Y-3.575
X1.52Y-3.675
X1.55Y-3.95
X1.55Y-4.05
X1.55Y-4.15
X1.55Y-4.25
X1.55Y-4.35
X1.55Y-4.45
X1.55Y-4.55
X1.55Y-4.65
X1.75Y-1.055
X1.75Y-1.355
X1.75Y-3.95
X1.75Y-4.05
X1.75Y-4.15
X1.75Y-4.25
X1.75Y-4.35
X1.75Y-4.45
X1.75Y-4.55
X1.75Y-4.65
X1.82Y-1.675
X1.82Y-1.775
X1.82Y-1.875
X1.82Y-1.975
X1.82Y-2.075
X1.82Y-2.175
X1.82Y-2.275
X1.82Y-2.375
X1.82Y-2.475
X1.82Y-2.575
X1.82Y-2.775
X1.82Y-2.875
X1.82Y-2.975
X1.82Y-3.075
X1.82Y-3.175
X1.82Y-3.275
X1.82Y-3.375
X1.82Y-3.475
X1.82Y-3.575
X1.82Y-3.675
X2.01Y-1.675
X2.01Y-1.775
X2.01Y-1.875
X2.01Y-1.975
X2.01Y-2.075
X2.01Y-2.175
X2.01Y-2.275
X2.01Y-2.375
X2.01Y-2.475
X2.01Y-2.575
X2.01Y-2.775
X2.01Y-2.875
X2.01Y-2.975
X2.01Y-3.075
X2.01Y-3.175
X2.01Y-3.275
X2.01Y-3.375
X2.01Y-3.475
X2.01Y-3.575
X2.01Y-3.675
X2.05Y-1.055
X2.05Y-1.355
X2.05Y-3.95
X2.05Y-4.05
X2.05Y-4.15
X2.05Y-4.25
X2.05Y-4.35
X2.05Y-4.45
X2.05Y-4.55
X2.05Y-4.65
X2.225Y-3.85
X2.225Y-3.95
X2.225Y-4.05
X2.225Y-4.15
X2.225Y-4.25
X2.225Y-4.35
X2.225Y-4.45
X2.225Y-4.55
X2.225Y-4.65
X2.31Y-1.675
X2.31Y-1.775
X2.31Y-1.875
X2.31Y-1.975
X2.31Y-2.075
X2.31Y-2.175
X2.31Y-2.275
X2.31Y-2.375
X2.31Y-2.475
X2.31Y-2.575
X2.31Y-2.775
X2.31Y-2.875
X2.31Y-2.975
X2.31Y-3.075
X2.31Y-3.175
X2.31Y-3.275
X2.31Y-3.375
X2.31Y-3.475
X2.31Y-3.575
X2.31Y-3.675
X2.4Y-4.34
X2.4Y-4.64
X2.4905Y-1.725
X2.4905Y-1.825
X2.4905Y-1.925
X2.4905Y-2.025
X2.4905Y-2.125
X2.4905Y-2.225
X2.4905Y-2.325
X2.4905Y-2.425
X2.4905Y-2.525
X2.4905Y-2.625
X2.4905Y-2.725
X2.4905Y-2.825
X2.4905Y-2.925
X2.4905Y-3.025
X2.4905Y-3.125
X2.4905Y-3.225
X2.4905Y-3.325
X2.4905Y-3.425
X2.4905Y-3.525
X2.4905Y-3.625
X2.5Y-3.85
X2.5Y-4.15
X2.5Y-4.34
X2.5Y-4.64
X2.525Y-0.9
X2.525Y-1.0
X2.525Y-1.1
X2.525Y-1.2
X2.525Y-1.3
X2.525Y-1.4
X2.525Y-1.5
X2.6Y-3.85
X2.6Y-4.15
X2.6Y-4.34
X2.6Y-4.64
X2.7Y-3.85
X2.7Y-4.15
X2.7Y-4.34
X2.7Y-4.64
X2.8Y-3.85
X2.8Y-4.15
X2.8Y-4.34
X2.8Y-4.64
X2.825Y-0.9
X2.825Y-1.0
X2.825Y-1.1
X2.825Y-1.2
X2.825Y-1.3
X2.825Y-1.4
X2.825Y-1.5
X2.9Y-3.85
X2.9Y-4.15
X2.9Y-4.34
X2.9Y-4.64
X3.0Y-3.85
X3.0Y-4.15
X3.0Y-4.34
X3.0Y-4.64
X3.0905Y-1.725
X3.0905Y-1.825
X3.0905Y-1.925
X3.0905Y-2.025
X3.0905Y-2.125
X3.0905Y-2.225
X3.0905Y-2.325
X3.0905Y-2.425
X3.0905Y-2.525
X3.0905Y-2.625
X3.0905Y-2.725
X3.0905Y-2.825
X3.0905Y-2.925
X3.0905Y-3.025
X3.0905Y-3.125
X3.0905Y-3.225
X3.0905Y-3.325
X3.0905Y-3.425
X3.0905Y-3.525
X3.0905Y-3.625
X3.1Y-3.85
X3.1Y-4.15
X3.19Y-4.34
X3.19Y-4.64
X3.275Y-2.675
X3.275Y-2.775
X3.275Y-2.875
X3.275Y-2.975
X3.275Y-3.075
X3.275Y-3.175
X3.275Y-3.275
X3.275Y-3.375
X3.275Y-3.475
X3.275Y-3.575
X3.275Y-3.675
X3.275Y-3.775
X3.275Y-3.875
X3.275Y-3.975
X3.275Y-4.075
X3.275Y-4.175
X3.29Y-4.34
X3.29Y-4.64
X3.39Y-4.34
X3.39Y-4.64
X3.49Y-4.34
X3.49Y-4.64
X3.5Y-1.8
X3.5Y-1.9
X3.5Y-2.0
X3.5Y-2.1
X3.5Y-2.2
X3.5Y-2.3
X3.5Y-2.4
X3.5Y-2.5
X3.59Y-4.34
X3.59Y-4.64
X3.69Y-4.34
X3.69Y-4.64
X3.79Y-4.34
X3.79Y-4.64
X3.8Y-1.8
X3.8Y-1.9
X3.8Y-2.0
X3.8Y-2.1
X3.8Y-2.2
X3.8Y-2.3
X3.8Y-2.4
X3.8Y-2.5
X3.875Y-2.675
X3.875Y-2.775
X3.875Y-2.875
X3.875Y-2.975
X3.875Y-3.075
X3.875Y-3.175
X3.875Y-3.275
X3.875Y-3.375
X3.875Y-3.475
X3.875Y-3.575
X3.875Y-3.675
X3.875Y-3.775
X3.875Y-3.875
X3.875Y-3.975
X3.875Y-4.075
X3.875Y-4.175
X3.89Y-4.34
X3.89Y-4.64
X3.99Y-4.34
X3.99Y-4.64
X4.01Y-1.225
X4.01Y-1.325
X4.01Y-1.425
X4.01Y-1.525
X4.01Y-1.625
X4.01Y-1.725
X4.05Y-2.675
X4.05Y-2.775
X4.05Y-2.875
X4.05Y-2.975
X4.05Y-3.075
X4.05Y-3.175
X4.05Y-3.275
X4.05Y-3.375
X4.05Y-3.475
X4.05Y-3.575
X4.05Y-3.675
X4.05Y-3.775
X4.05Y-3.875
X4.05Y-3.975
X4.05Y-4.075
X4.05Y-4.175
X4.09Y-4.34
X4.09Y-4.64
X4.19Y-4.34
X4.19Y-4.64
X4.29Y-4.34
X4.29Y-4.64
X4.61Y-1.225
X4.61Y-1.325
X4.61Y-1.425
X4.61Y-1.525
X4.61Y-1.625
X4.61Y-1.725
X4.65Y-2.675
X4.65Y-2.775
X4.65Y-2.875
X4.65Y-2.975
X4.65Y-3.075
X4.65Y-3.175
X4.65Y-3.275
X4.65Y-3.375
X4.65Y-3.475
X4.65Y-3.575
X4.65Y-3.675
X4.65Y-3.775
X4.65Y-3.875
X4.65Y-3.975
X4.65Y-4.075
X4.65Y-4.175
T6
X2.31Y-1.0
X2.31Y-1.1
X2.31Y-1.31
X2.31Y-1.41
X4.075Y-1.95
X4.075Y-2.05
X4.075Y-2.325
X4.075Y-2.425
X4.15Y-0.95
X4.25Y-0.95
T7
X0.8874Y-1.2047
X0.8874Y-1.3047
X0.8874Y-1.4047
X0.8874Y-1.5047
X0.8874Y-1.8059
X0.8874Y-1.9059
X0.8874Y-2.0059
X0.8874Y-2.1059
X0.8874Y-2.2059
X0.8874Y-2.3059
X0.8874Y-2.4059
X0.8874Y-2.5059
X0.8874Y-2.6059
X0.8874Y-2.7059
X0.8874Y-2.8059
X0.8874Y-2.9059
X0.8874Y-3.0059
X0.8874Y-3.1059
X0.8874Y-3.2059
X0.8874Y-3.3059
X0.8874Y-3.4059
X0.8874Y-3.5059
X0.8874Y-3.6059
X0.8874Y-3.7059
X0.8874Y-4.0071
X0.8874Y-4.1071
X0.8874Y-4.2071
X0.8874Y-4.3071
X0.9874Y-1.2047
X0.9874Y-1.3047
X0.9874Y-1.4047
X0.9874Y-1.5047
X0.9874Y-1.8059
X0.9874Y-1.9059
X0.9874Y-2.0059
X0.9874Y-2.1059
X0.9874Y-2.2059
X0.9874Y-2.3059
X0.9874Y-2.4059
X0.9874Y-2.5059
X0.9874Y-2.6059
X0.9874Y-2.7059
X0.9874Y-2.8059
X0.9874Y-2.9059
X0.9874Y-3.0059
X0.9874Y-3.1059
X0.9874Y-3.2059
X0.9874Y-3.3059
X0.9874Y-3.4059
X0.9874Y-3.5059
X0.9874Y-3.6059
X0.9874Y-3.7059
X0.9874Y-4.0071
X0.9874Y-4.1071
X0.9874Y-4.2071
X0.9874Y-4.3071
X1.19Y-0.86
X1.2024Y-1.8059
X1.2024Y-1.9059
X1.2024Y-2.0059
X1.2024Y-2.1059
X1.2024Y-2.2059
X1.2024Y-2.3059
X1.2024Y-2.4059
X1.2024Y-2.5059
X1.2024Y-2.6059
X1.2024Y-2.7059
X1.2024Y-2.8059
X1.2024Y-2.9059
X1.2024Y-3.0059
X1.2024Y-3.1059
X1.2024Y-3.2059
X1.2024Y-3.3059
X1.2024Y-3.4059
X1.2024Y-3.5059
X1.2024Y-3.6059
X1.2024Y-3.7059
X1.29Y-0.86
X1.3024Y-1.8059
X1.3024Y-1.9059
X1.3024Y-2.0059
X1.3024Y-2.1059
X1.3024Y-2.2059
X1.3024Y-2.3059
X1.3024Y-2.4059
X1.3024Y-2.5059
X1.3024Y-2.6059
X1.3024Y-2.7059
X1.3024Y-2.8059
X1.3024Y-2.9059
X1.3024Y-3.0059
X1.3024Y-3.1059
X1.3024Y-3.2059
X1.3024Y-3.3059
X1.3024Y-3.4059
X1.3024Y-3.5059
X1.3024Y-3.6059
X1.3024Y-3.7059
X1.39Y-0.86
X1.49Y-0.86
X1.59Y-0.86
X1.69Y-0.86
X1.79Y-0.86
X1.89Y-0.86
X1.99Y-0.86
X2.09Y-0.86
X2.19Y-0.86
X2.29Y-0.86
X2.39Y-0.86
T8
X4.325Y-1.925
X4.325Y-2.1022
X4.325Y-2.3
X4.325Y-2.4772
X4.5809Y-1.925
X4.5809Y-2.1022
X4.5809Y-2.3
X4.5809Y-2.4772
T9
X0.9252Y-0.9252
X0.9252Y-4.5866
X4.5866Y-0.9252
X4.5866Y-4.5866
T0
M30
