M48
; DRILL file {KiCad (5.1.9)-1} date 11/07/21 13:29:34
; FORMAT={-:-/ absolute / inch / decimal}
; #@! TF.CreationDate,2021-11-07T13:29:34-05:00
; #@! TF.GenerationSoftware,Kicad,Pcbnew,(5.1.9)-1
; #@! TF.FileFunction,Plated,1,2,PTH
FMAT,2
INCH
T1C0.0118
T2C0.0236
T3C0.0315
T4C0.0330
T5C0.0354
T6C0.0394
%
G90
G05
T1
X1.4446Y-1.8285
X1.5004Y-1.69
X1.568Y-2.6979
X1.6156Y-2.5246
X1.6279Y-2.6203
X1.6463Y-2.8871
X1.7099Y-3.2806
X1.7378Y-2.8089
X1.751Y-3.0624
X1.7567Y-3.2182
X1.8737Y-3.7778
X1.8954Y-3.909
X1.9392Y-1.6301
X1.9604Y-3.9239
X1.9811Y-4.0356
X1.9839Y-3.7733
X2.0136Y-3.5953
X2.0204Y-3.9622
X2.0293Y-1.535
X2.0456Y-3.9329
X2.1021Y-2.8832
X2.1093Y-3.5174
X2.1729Y-1.5869
X2.1761Y-3.107
X2.1904Y-3.772
X2.2348Y-2.5251
X2.235Y-4.042
X2.2654Y-2.7439
X2.2701Y-2.6969
X2.2744Y-2.9375
X2.3646Y-3.1038
X2.3903Y-4.4225
X2.4199Y-1.7087
X2.4342Y-4.3793
X2.4345Y-2.8113
X2.4425Y-2.6547
X2.4621Y-1.7125
X2.4741Y-2.4663
X2.4949Y-3.2488
X2.5271Y-1.8084
X2.5648Y-3.2858
X2.5648Y-1.9671
X2.5723Y-4.2118
X2.575Y-3.7733
X2.6073Y-2.8093
X2.6105Y-3.5246
X2.6488Y-3.5879
X2.6698Y-2.7051
X2.6949Y-1.3246
X2.7158Y-3.5719
X2.7557Y-2.6753
X2.8221Y-3.4337
X2.9211Y-1.4726
X2.9448Y-0.9581
X2.978Y-2.1003
X2.9817Y-2.5564
X3.0151Y-0.8969
X3.147Y-1.0038
X3.3355Y-1.9783
X3.5108Y-2.1119
X4.1398Y-3.1798
X4.5239Y-1.5237
X4.5379Y-3.1961
X4.5774Y-1.6048
T2
X1.6019Y-2.0507
X1.6211Y-3.8212
X1.6766Y-3.5946
X1.9019Y-3.4846
X2.0892Y-2.6231
X2.1724Y-3.4425
X2.1815Y-1.2623
X2.1835Y-0.961
X2.3092Y-3.8371
X2.3311Y-3.5937
X2.3546Y-1.7323
X2.377Y-3.4494
X2.5455Y-3.5059
X2.552Y-3.3889
X2.5683Y-1.4305
X2.5734Y-3.1928
X2.5835Y-3.128
X2.5929Y-4.1117
X2.6119Y-2.9172
X2.6246Y-2.2617
X2.6612Y-2.0373
X2.6868Y-4.1843
X2.718Y-3.0856
X2.7964Y-2.9141
X2.8294Y-1.496
X2.8534Y-2.9202
X2.9401Y-3.6795
X3.0618Y-2.3654
X3.1804Y-1.2341
X3.2059Y-1.576
X3.2062Y-1.5184
X3.3385Y-0.8756
X3.3956Y-2.3381
X3.4923Y-1.8267
X3.5961Y-1.3886
X3.656Y-1.6034
X3.7778Y-1.5857
X3.8282Y-2.1837
X3.8622Y-1.6241
X3.9126Y-3.8304
X4.0218Y-3.0628
X4.091Y-3.8893
X4.1824Y-3.0048
X4.3244Y-2.3283
X4.3343Y-3.0667
X4.5239Y-2.1799
X4.5359Y-3.8392
T3
X1.2305Y-1.0474
X1.2305Y-1.4135
X1.25Y-2.25
X1.25Y-2.35
X1.25Y-2.45
X1.25Y-2.55
X1.25Y-2.65
X1.25Y-2.75
X1.25Y-2.85
X1.25Y-2.95
X1.25Y-3.05
X1.25Y-3.15
X1.25Y-3.25
X1.25Y-3.35
X1.3683Y-1.0474
X1.3683Y-1.4135
X1.55Y-2.25
X1.55Y-2.35
X1.55Y-2.45
X1.55Y-2.55
X1.55Y-2.65
X1.55Y-2.75
X1.55Y-2.85
X1.55Y-2.95
X1.55Y-3.05
X1.55Y-3.15
X1.55Y-3.25
X1.55Y-3.35
X1.66Y-0.88
X1.66Y-0.98
X1.66Y-1.08
X1.66Y-1.18
X1.66Y-1.28
X1.66Y-1.38
X1.66Y-1.48
X1.66Y-1.58
X1.66Y-1.68
X1.78Y-1.88
X1.78Y-1.98
X1.78Y-2.08
X1.78Y-2.18
X1.78Y-2.28
X1.78Y-2.38
X1.78Y-2.48
X1.78Y-2.58
X1.78Y-2.68
X1.78Y-2.78
X1.78Y-2.88
X1.78Y-2.98
X1.96Y-0.88
X1.96Y-0.98
X1.96Y-1.08
X1.96Y-1.18
X1.96Y-1.28
X1.96Y-1.38
X1.96Y-1.48
X1.96Y-1.58
X1.96Y-1.68
X2.38Y-1.88
X2.38Y-1.98
X2.38Y-2.08
X2.38Y-2.18
X2.38Y-2.28
X2.38Y-2.38
X2.38Y-2.48
X2.38Y-2.58
X2.38Y-2.68
X2.38Y-2.78
X2.38Y-2.88
X2.38Y-2.98
X2.66Y-2.16
X2.66Y-2.46
X2.76Y-2.16
X2.76Y-2.46
X2.86Y-2.16
X2.86Y-2.46
X2.96Y-2.16
X2.96Y-2.46
X3.06Y-2.16
X3.06Y-2.46
X3.16Y-2.16
X3.16Y-2.46
X3.26Y-2.16
X3.26Y-2.46
X3.36Y-2.16
X3.36Y-2.46
X3.44Y-2.8
X3.5778Y-2.8
T4
X2.34Y-1.14
X2.34Y-1.34
X2.44Y-1.24
X2.82Y-3.243
X2.92Y-3.343
X3.02Y-3.243
X3.44Y-3.237
X3.54Y-3.137
X3.64Y-3.237
X3.648Y-1.04
X3.648Y-1.24
X3.748Y-1.14
X3.905Y-2.677
X4.005Y-2.577
X4.025Y-2.133
X4.105Y-2.677
X4.125Y-2.233
X4.2Y-1.368
X4.2Y-1.718
X4.225Y-2.133
X4.255Y-2.677
X4.3Y-1.468
X4.3Y-1.818
X4.355Y-2.577
X4.4Y-1.368
X4.4Y-1.718
X4.455Y-2.677
T5
X1.2Y-4.485
X1.3Y-4.485
T6
X0.8874Y-1.2047
X0.8874Y-1.3047
X0.8874Y-1.4047
X0.8874Y-1.5047
X0.8874Y-1.8059
X0.8874Y-1.9059
X0.8874Y-2.0059
X0.8874Y-2.1059
X0.8874Y-2.2059
X0.8874Y-2.3059
X0.8874Y-2.4059
X0.8874Y-2.5059
X0.8874Y-2.6059
X0.8874Y-2.7059
X0.8874Y-2.8059
X0.8874Y-2.9059
X0.8874Y-3.0059
X0.8874Y-3.1059
X0.8874Y-3.2059
X0.8874Y-3.3059
X0.8874Y-3.4059
X0.8874Y-3.5059
X0.8874Y-3.6059
X0.8874Y-3.7059
X0.8874Y-4.0071
X0.8874Y-4.1071
X0.8874Y-4.2071
X0.8874Y-4.3071
X0.9874Y-1.2047
X0.9874Y-1.3047
X0.9874Y-1.4047
X0.9874Y-1.5047
X0.9874Y-1.8059
X0.9874Y-1.9059
X0.9874Y-2.0059
X0.9874Y-2.1059
X0.9874Y-2.2059
X0.9874Y-2.3059
X0.9874Y-2.4059
X0.9874Y-2.5059
X0.9874Y-2.6059
X0.9874Y-2.7059
X0.9874Y-2.8059
X0.9874Y-2.9059
X0.9874Y-3.0059
X0.9874Y-3.1059
X0.9874Y-3.2059
X0.9874Y-3.3059
X0.9874Y-3.4059
X0.9874Y-3.5059
X0.9874Y-3.6059
X0.9874Y-3.7059
X0.9874Y-4.0071
X0.9874Y-4.1071
X0.9874Y-4.2071
X0.9874Y-4.3071
X3.48Y-4.2247
X3.48Y-4.4216
X3.48Y-4.52
X3.5784Y-4.4216
X3.5784Y-4.52
X3.6769Y-4.2247
X3.6769Y-4.4216
X3.6769Y-4.52
T2
G00X3.9531Y-4.3554
M15
G01X3.9531Y-4.3396
M16
G05
G00X4.0516Y-4.3554
M15
G01X4.0516Y-4.3396
M16
G05
G00X4.1579Y-4.5444
M15
G01X4.1421Y-4.5444
M16
G05
G00X4.2484Y-4.3554
M15
G01X4.2484Y-4.3396
M16
G05
G00X4.3469Y-4.3554
M15
G01X4.3469Y-4.3396
M16
G05
T0
M30
