%TF.GenerationSoftware,KiCad,Pcbnew,(5.1.9)-1*%
%TF.CreationDate,2021-11-07T13:29:39-05:00*%
%TF.ProjectId,main,6d61696e-2e6b-4696-9361-645f70636258,rev?*%
%TF.SameCoordinates,Original*%
%TF.FileFunction,Legend,Bot*%
%TF.FilePolarity,Positive*%
%FSLAX46Y46*%
G04 Gerber Fmt 4.6, Leading zero omitted, Abs format (unit mm)*
G04 Created by KiCad (PCBNEW (5.1.9)-1) date 2021-11-07 13:29:39*
%MOMM*%
%LPD*%
G01*
G04 APERTURE LIST*
%ADD10C,0.120000*%
%ADD11C,0.150000*%
G04 APERTURE END LIST*
D10*
%TO.C,C57*%
X41429000Y-50030748D02*
X41429000Y-50553252D01*
X42899000Y-50030748D02*
X42899000Y-50553252D01*
%TO.C,C56*%
X101338748Y-98525000D02*
X101861252Y-98525000D01*
X101338748Y-97055000D02*
X101861252Y-97055000D01*
%TO.C,C55*%
X67283000Y-34297252D02*
X67283000Y-33774748D01*
X65813000Y-34297252D02*
X65813000Y-33774748D01*
%TO.C,C54*%
X46997252Y-26697000D02*
X46474748Y-26697000D01*
X46997252Y-28167000D02*
X46474748Y-28167000D01*
%TO.C,C53*%
X86079000Y-59697252D02*
X86079000Y-59174748D01*
X84609000Y-59697252D02*
X84609000Y-59174748D01*
%TO.C,C52*%
X79983000Y-48963252D02*
X79983000Y-48440748D01*
X78513000Y-48963252D02*
X78513000Y-48440748D01*
%TO.C,C51*%
X57665252Y-49557000D02*
X57142748Y-49557000D01*
X57665252Y-51027000D02*
X57142748Y-51027000D01*
%TO.C,C50*%
X97763000Y-40967252D02*
X97763000Y-40444748D01*
X96293000Y-40967252D02*
X96293000Y-40444748D01*
%TO.C,C12*%
X83285000Y-39108748D02*
X83285000Y-39631252D01*
X81815000Y-39108748D02*
X81815000Y-39631252D01*
%TO.C,C5*%
X106907000Y-77970748D02*
X106907000Y-78493252D01*
X105437000Y-77970748D02*
X105437000Y-78493252D01*
%TO.C,R11*%
X33755000Y-110770936D02*
X33755000Y-111225064D01*
X32285000Y-110770936D02*
X32285000Y-111225064D01*
%TO.C,R10*%
X69569000Y-97285436D02*
X69569000Y-97739564D01*
X68099000Y-97285436D02*
X68099000Y-97739564D01*
%TO.C,R9*%
X65559000Y-97763064D02*
X65559000Y-97308936D01*
X67029000Y-97763064D02*
X67029000Y-97308936D01*
%TO.C,R8*%
X55399000Y-97890064D02*
X55399000Y-97435936D01*
X56869000Y-97890064D02*
X56869000Y-97435936D01*
%TO.C,R7*%
X50319000Y-97890064D02*
X50319000Y-97435936D01*
X51789000Y-97890064D02*
X51789000Y-97435936D01*
%TO.C,U14*%
X58334000Y-39624000D02*
X58334000Y-36699000D01*
X58334000Y-39624000D02*
X58334000Y-41124000D01*
X61554000Y-39624000D02*
X61554000Y-38124000D01*
X61554000Y-39624000D02*
X61554000Y-41124000D01*
%TO.C,U13*%
X40132000Y-48346000D02*
X37207000Y-48346000D01*
X40132000Y-48346000D02*
X41632000Y-48346000D01*
X40132000Y-45126000D02*
X38632000Y-45126000D01*
X40132000Y-45126000D02*
X41632000Y-45126000D01*
%TO.C,U12*%
X83820000Y-48682000D02*
X86745000Y-48682000D01*
X83820000Y-48682000D02*
X82320000Y-48682000D01*
X83820000Y-51902000D02*
X85320000Y-51902000D01*
X83820000Y-51902000D02*
X82320000Y-51902000D01*
%TO.C,U11*%
X70526000Y-34544000D02*
X70526000Y-31619000D01*
X70526000Y-34544000D02*
X70526000Y-36044000D01*
X73746000Y-34544000D02*
X73746000Y-33044000D01*
X73746000Y-34544000D02*
X73746000Y-36044000D01*
%TO.C,R6*%
X57176936Y-75973000D02*
X57631064Y-75973000D01*
X57176936Y-77443000D02*
X57631064Y-77443000D01*
%TO.C,R4*%
X76989000Y-58139064D02*
X76989000Y-57684936D01*
X78459000Y-58139064D02*
X78459000Y-57684936D01*
%TO.C,U3*%
X64830000Y-110236000D02*
X64830000Y-114686000D01*
X64830000Y-110236000D02*
X64830000Y-107586000D01*
X52010000Y-110236000D02*
X52010000Y-112886000D01*
X52010000Y-110236000D02*
X52010000Y-107586000D01*
%TO.C,C3*%
X38635000Y-54236252D02*
X38635000Y-53713748D01*
X40105000Y-54236252D02*
X40105000Y-53713748D01*
%TO.C,C2*%
X64743000Y-117086748D02*
X64743000Y-117609252D01*
X63273000Y-117086748D02*
X63273000Y-117609252D01*
%TO.C,C29*%
X39997748Y-93318000D02*
X40520252Y-93318000D01*
X39997748Y-91848000D02*
X40520252Y-91848000D01*
%TO.C,C22*%
X71366748Y-73379000D02*
X71889252Y-73379000D01*
X71366748Y-71909000D02*
X71889252Y-71909000D01*
%TO.C,C21*%
X76715252Y-91721000D02*
X76192748Y-91721000D01*
X76715252Y-93191000D02*
X76192748Y-93191000D01*
%TO.C,C19*%
X80037000Y-33266748D02*
X80037000Y-33789252D01*
X81507000Y-33266748D02*
X81507000Y-33789252D01*
%TO.C,C18*%
X66794748Y-78967000D02*
X67317252Y-78967000D01*
X66794748Y-77497000D02*
X67317252Y-77497000D01*
%TO.C,C17*%
X50553252Y-87149000D02*
X50030748Y-87149000D01*
X50553252Y-88619000D02*
X50030748Y-88619000D01*
%TO.C,C16*%
X59663000Y-95765252D02*
X59663000Y-95242748D01*
X58193000Y-95765252D02*
X58193000Y-95242748D01*
%TO.C,C57*%
D11*
X40841142Y-49649142D02*
X40888761Y-49601523D01*
X40936380Y-49458666D01*
X40936380Y-49363428D01*
X40888761Y-49220571D01*
X40793523Y-49125333D01*
X40698285Y-49077714D01*
X40507809Y-49030095D01*
X40364952Y-49030095D01*
X40174476Y-49077714D01*
X40079238Y-49125333D01*
X39984000Y-49220571D01*
X39936380Y-49363428D01*
X39936380Y-49458666D01*
X39984000Y-49601523D01*
X40031619Y-49649142D01*
X39936380Y-50553904D02*
X39936380Y-50077714D01*
X40412571Y-50030095D01*
X40364952Y-50077714D01*
X40317333Y-50172952D01*
X40317333Y-50411047D01*
X40364952Y-50506285D01*
X40412571Y-50553904D01*
X40507809Y-50601523D01*
X40745904Y-50601523D01*
X40841142Y-50553904D01*
X40888761Y-50506285D01*
X40936380Y-50411047D01*
X40936380Y-50172952D01*
X40888761Y-50077714D01*
X40841142Y-50030095D01*
X39936380Y-50934857D02*
X39936380Y-51601523D01*
X40936380Y-51172952D01*
%TO.C,C56*%
X102242857Y-99827142D02*
X102290476Y-99874761D01*
X102433333Y-99922380D01*
X102528571Y-99922380D01*
X102671428Y-99874761D01*
X102766666Y-99779523D01*
X102814285Y-99684285D01*
X102861904Y-99493809D01*
X102861904Y-99350952D01*
X102814285Y-99160476D01*
X102766666Y-99065238D01*
X102671428Y-98970000D01*
X102528571Y-98922380D01*
X102433333Y-98922380D01*
X102290476Y-98970000D01*
X102242857Y-99017619D01*
X101338095Y-98922380D02*
X101814285Y-98922380D01*
X101861904Y-99398571D01*
X101814285Y-99350952D01*
X101719047Y-99303333D01*
X101480952Y-99303333D01*
X101385714Y-99350952D01*
X101338095Y-99398571D01*
X101290476Y-99493809D01*
X101290476Y-99731904D01*
X101338095Y-99827142D01*
X101385714Y-99874761D01*
X101480952Y-99922380D01*
X101719047Y-99922380D01*
X101814285Y-99874761D01*
X101861904Y-99827142D01*
X100433333Y-98922380D02*
X100623809Y-98922380D01*
X100719047Y-98970000D01*
X100766666Y-99017619D01*
X100861904Y-99160476D01*
X100909523Y-99350952D01*
X100909523Y-99731904D01*
X100861904Y-99827142D01*
X100814285Y-99874761D01*
X100719047Y-99922380D01*
X100528571Y-99922380D01*
X100433333Y-99874761D01*
X100385714Y-99827142D01*
X100338095Y-99731904D01*
X100338095Y-99493809D01*
X100385714Y-99398571D01*
X100433333Y-99350952D01*
X100528571Y-99303333D01*
X100719047Y-99303333D01*
X100814285Y-99350952D01*
X100861904Y-99398571D01*
X100909523Y-99493809D01*
%TO.C,C55*%
X68585142Y-33393142D02*
X68632761Y-33345523D01*
X68680380Y-33202666D01*
X68680380Y-33107428D01*
X68632761Y-32964571D01*
X68537523Y-32869333D01*
X68442285Y-32821714D01*
X68251809Y-32774095D01*
X68108952Y-32774095D01*
X67918476Y-32821714D01*
X67823238Y-32869333D01*
X67728000Y-32964571D01*
X67680380Y-33107428D01*
X67680380Y-33202666D01*
X67728000Y-33345523D01*
X67775619Y-33393142D01*
X67680380Y-34297904D02*
X67680380Y-33821714D01*
X68156571Y-33774095D01*
X68108952Y-33821714D01*
X68061333Y-33916952D01*
X68061333Y-34155047D01*
X68108952Y-34250285D01*
X68156571Y-34297904D01*
X68251809Y-34345523D01*
X68489904Y-34345523D01*
X68585142Y-34297904D01*
X68632761Y-34250285D01*
X68680380Y-34155047D01*
X68680380Y-33916952D01*
X68632761Y-33821714D01*
X68585142Y-33774095D01*
X67680380Y-35250285D02*
X67680380Y-34774095D01*
X68156571Y-34726476D01*
X68108952Y-34774095D01*
X68061333Y-34869333D01*
X68061333Y-35107428D01*
X68108952Y-35202666D01*
X68156571Y-35250285D01*
X68251809Y-35297904D01*
X68489904Y-35297904D01*
X68585142Y-35250285D01*
X68632761Y-35202666D01*
X68680380Y-35107428D01*
X68680380Y-34869333D01*
X68632761Y-34774095D01*
X68585142Y-34726476D01*
%TO.C,C54*%
X47378857Y-26109142D02*
X47426476Y-26156761D01*
X47569333Y-26204380D01*
X47664571Y-26204380D01*
X47807428Y-26156761D01*
X47902666Y-26061523D01*
X47950285Y-25966285D01*
X47997904Y-25775809D01*
X47997904Y-25632952D01*
X47950285Y-25442476D01*
X47902666Y-25347238D01*
X47807428Y-25252000D01*
X47664571Y-25204380D01*
X47569333Y-25204380D01*
X47426476Y-25252000D01*
X47378857Y-25299619D01*
X46474095Y-25204380D02*
X46950285Y-25204380D01*
X46997904Y-25680571D01*
X46950285Y-25632952D01*
X46855047Y-25585333D01*
X46616952Y-25585333D01*
X46521714Y-25632952D01*
X46474095Y-25680571D01*
X46426476Y-25775809D01*
X46426476Y-26013904D01*
X46474095Y-26109142D01*
X46521714Y-26156761D01*
X46616952Y-26204380D01*
X46855047Y-26204380D01*
X46950285Y-26156761D01*
X46997904Y-26109142D01*
X45569333Y-25537714D02*
X45569333Y-26204380D01*
X45807428Y-25156761D02*
X46045523Y-25871047D01*
X45426476Y-25871047D01*
%TO.C,C53*%
X87381142Y-58793142D02*
X87428761Y-58745523D01*
X87476380Y-58602666D01*
X87476380Y-58507428D01*
X87428761Y-58364571D01*
X87333523Y-58269333D01*
X87238285Y-58221714D01*
X87047809Y-58174095D01*
X86904952Y-58174095D01*
X86714476Y-58221714D01*
X86619238Y-58269333D01*
X86524000Y-58364571D01*
X86476380Y-58507428D01*
X86476380Y-58602666D01*
X86524000Y-58745523D01*
X86571619Y-58793142D01*
X86476380Y-59697904D02*
X86476380Y-59221714D01*
X86952571Y-59174095D01*
X86904952Y-59221714D01*
X86857333Y-59316952D01*
X86857333Y-59555047D01*
X86904952Y-59650285D01*
X86952571Y-59697904D01*
X87047809Y-59745523D01*
X87285904Y-59745523D01*
X87381142Y-59697904D01*
X87428761Y-59650285D01*
X87476380Y-59555047D01*
X87476380Y-59316952D01*
X87428761Y-59221714D01*
X87381142Y-59174095D01*
X86476380Y-60078857D02*
X86476380Y-60697904D01*
X86857333Y-60364571D01*
X86857333Y-60507428D01*
X86904952Y-60602666D01*
X86952571Y-60650285D01*
X87047809Y-60697904D01*
X87285904Y-60697904D01*
X87381142Y-60650285D01*
X87428761Y-60602666D01*
X87476380Y-60507428D01*
X87476380Y-60221714D01*
X87428761Y-60126476D01*
X87381142Y-60078857D01*
%TO.C,C52*%
X79605142Y-51173142D02*
X79652761Y-51125523D01*
X79700380Y-50982666D01*
X79700380Y-50887428D01*
X79652761Y-50744571D01*
X79557523Y-50649333D01*
X79462285Y-50601714D01*
X79271809Y-50554095D01*
X79128952Y-50554095D01*
X78938476Y-50601714D01*
X78843238Y-50649333D01*
X78748000Y-50744571D01*
X78700380Y-50887428D01*
X78700380Y-50982666D01*
X78748000Y-51125523D01*
X78795619Y-51173142D01*
X78700380Y-52077904D02*
X78700380Y-51601714D01*
X79176571Y-51554095D01*
X79128952Y-51601714D01*
X79081333Y-51696952D01*
X79081333Y-51935047D01*
X79128952Y-52030285D01*
X79176571Y-52077904D01*
X79271809Y-52125523D01*
X79509904Y-52125523D01*
X79605142Y-52077904D01*
X79652761Y-52030285D01*
X79700380Y-51935047D01*
X79700380Y-51696952D01*
X79652761Y-51601714D01*
X79605142Y-51554095D01*
X78795619Y-52506476D02*
X78748000Y-52554095D01*
X78700380Y-52649333D01*
X78700380Y-52887428D01*
X78748000Y-52982666D01*
X78795619Y-53030285D01*
X78890857Y-53077904D01*
X78986095Y-53077904D01*
X79128952Y-53030285D01*
X79700380Y-52458857D01*
X79700380Y-53077904D01*
%TO.C,C51*%
X58046857Y-48969142D02*
X58094476Y-49016761D01*
X58237333Y-49064380D01*
X58332571Y-49064380D01*
X58475428Y-49016761D01*
X58570666Y-48921523D01*
X58618285Y-48826285D01*
X58665904Y-48635809D01*
X58665904Y-48492952D01*
X58618285Y-48302476D01*
X58570666Y-48207238D01*
X58475428Y-48112000D01*
X58332571Y-48064380D01*
X58237333Y-48064380D01*
X58094476Y-48112000D01*
X58046857Y-48159619D01*
X57142095Y-48064380D02*
X57618285Y-48064380D01*
X57665904Y-48540571D01*
X57618285Y-48492952D01*
X57523047Y-48445333D01*
X57284952Y-48445333D01*
X57189714Y-48492952D01*
X57142095Y-48540571D01*
X57094476Y-48635809D01*
X57094476Y-48873904D01*
X57142095Y-48969142D01*
X57189714Y-49016761D01*
X57284952Y-49064380D01*
X57523047Y-49064380D01*
X57618285Y-49016761D01*
X57665904Y-48969142D01*
X56142095Y-49064380D02*
X56713523Y-49064380D01*
X56427809Y-49064380D02*
X56427809Y-48064380D01*
X56523047Y-48207238D01*
X56618285Y-48302476D01*
X56713523Y-48350095D01*
%TO.C,C50*%
X99065142Y-40063142D02*
X99112761Y-40015523D01*
X99160380Y-39872666D01*
X99160380Y-39777428D01*
X99112761Y-39634571D01*
X99017523Y-39539333D01*
X98922285Y-39491714D01*
X98731809Y-39444095D01*
X98588952Y-39444095D01*
X98398476Y-39491714D01*
X98303238Y-39539333D01*
X98208000Y-39634571D01*
X98160380Y-39777428D01*
X98160380Y-39872666D01*
X98208000Y-40015523D01*
X98255619Y-40063142D01*
X98160380Y-40967904D02*
X98160380Y-40491714D01*
X98636571Y-40444095D01*
X98588952Y-40491714D01*
X98541333Y-40586952D01*
X98541333Y-40825047D01*
X98588952Y-40920285D01*
X98636571Y-40967904D01*
X98731809Y-41015523D01*
X98969904Y-41015523D01*
X99065142Y-40967904D01*
X99112761Y-40920285D01*
X99160380Y-40825047D01*
X99160380Y-40586952D01*
X99112761Y-40491714D01*
X99065142Y-40444095D01*
X98160380Y-41634571D02*
X98160380Y-41729809D01*
X98208000Y-41825047D01*
X98255619Y-41872666D01*
X98350857Y-41920285D01*
X98541333Y-41967904D01*
X98779428Y-41967904D01*
X98969904Y-41920285D01*
X99065142Y-41872666D01*
X99112761Y-41825047D01*
X99160380Y-41729809D01*
X99160380Y-41634571D01*
X99112761Y-41539333D01*
X99065142Y-41491714D01*
X98969904Y-41444095D01*
X98779428Y-41396476D01*
X98541333Y-41396476D01*
X98350857Y-41444095D01*
X98255619Y-41491714D01*
X98208000Y-41539333D01*
X98160380Y-41634571D01*
%TO.C,C12*%
X81227142Y-38727142D02*
X81274761Y-38679523D01*
X81322380Y-38536666D01*
X81322380Y-38441428D01*
X81274761Y-38298571D01*
X81179523Y-38203333D01*
X81084285Y-38155714D01*
X80893809Y-38108095D01*
X80750952Y-38108095D01*
X80560476Y-38155714D01*
X80465238Y-38203333D01*
X80370000Y-38298571D01*
X80322380Y-38441428D01*
X80322380Y-38536666D01*
X80370000Y-38679523D01*
X80417619Y-38727142D01*
X81322380Y-39679523D02*
X81322380Y-39108095D01*
X81322380Y-39393809D02*
X80322380Y-39393809D01*
X80465238Y-39298571D01*
X80560476Y-39203333D01*
X80608095Y-39108095D01*
X80417619Y-40060476D02*
X80370000Y-40108095D01*
X80322380Y-40203333D01*
X80322380Y-40441428D01*
X80370000Y-40536666D01*
X80417619Y-40584285D01*
X80512857Y-40631904D01*
X80608095Y-40631904D01*
X80750952Y-40584285D01*
X81322380Y-40012857D01*
X81322380Y-40631904D01*
%TO.C,C5*%
X104849142Y-78065333D02*
X104896761Y-78017714D01*
X104944380Y-77874857D01*
X104944380Y-77779619D01*
X104896761Y-77636761D01*
X104801523Y-77541523D01*
X104706285Y-77493904D01*
X104515809Y-77446285D01*
X104372952Y-77446285D01*
X104182476Y-77493904D01*
X104087238Y-77541523D01*
X103992000Y-77636761D01*
X103944380Y-77779619D01*
X103944380Y-77874857D01*
X103992000Y-78017714D01*
X104039619Y-78065333D01*
X103944380Y-78970095D02*
X103944380Y-78493904D01*
X104420571Y-78446285D01*
X104372952Y-78493904D01*
X104325333Y-78589142D01*
X104325333Y-78827238D01*
X104372952Y-78922476D01*
X104420571Y-78970095D01*
X104515809Y-79017714D01*
X104753904Y-79017714D01*
X104849142Y-78970095D01*
X104896761Y-78922476D01*
X104944380Y-78827238D01*
X104944380Y-78589142D01*
X104896761Y-78493904D01*
X104849142Y-78446285D01*
%TO.C,R11*%
X31822380Y-110355142D02*
X31346190Y-110021809D01*
X31822380Y-109783714D02*
X30822380Y-109783714D01*
X30822380Y-110164666D01*
X30870000Y-110259904D01*
X30917619Y-110307523D01*
X31012857Y-110355142D01*
X31155714Y-110355142D01*
X31250952Y-110307523D01*
X31298571Y-110259904D01*
X31346190Y-110164666D01*
X31346190Y-109783714D01*
X31822380Y-111307523D02*
X31822380Y-110736095D01*
X31822380Y-111021809D02*
X30822380Y-111021809D01*
X30965238Y-110926571D01*
X31060476Y-110831333D01*
X31108095Y-110736095D01*
X31822380Y-112259904D02*
X31822380Y-111688476D01*
X31822380Y-111974190D02*
X30822380Y-111974190D01*
X30965238Y-111878952D01*
X31060476Y-111783714D01*
X31108095Y-111688476D01*
%TO.C,R10*%
X69413380Y-99941142D02*
X68937190Y-99607809D01*
X69413380Y-99369714D02*
X68413380Y-99369714D01*
X68413380Y-99750666D01*
X68461000Y-99845904D01*
X68508619Y-99893523D01*
X68603857Y-99941142D01*
X68746714Y-99941142D01*
X68841952Y-99893523D01*
X68889571Y-99845904D01*
X68937190Y-99750666D01*
X68937190Y-99369714D01*
X69413380Y-100893523D02*
X69413380Y-100322095D01*
X69413380Y-100607809D02*
X68413380Y-100607809D01*
X68556238Y-100512571D01*
X68651476Y-100417333D01*
X68699095Y-100322095D01*
X68413380Y-101512571D02*
X68413380Y-101607809D01*
X68461000Y-101703047D01*
X68508619Y-101750666D01*
X68603857Y-101798285D01*
X68794333Y-101845904D01*
X69032428Y-101845904D01*
X69222904Y-101798285D01*
X69318142Y-101750666D01*
X69365761Y-101703047D01*
X69413380Y-101607809D01*
X69413380Y-101512571D01*
X69365761Y-101417333D01*
X69318142Y-101369714D01*
X69222904Y-101322095D01*
X69032428Y-101274476D01*
X68794333Y-101274476D01*
X68603857Y-101322095D01*
X68508619Y-101369714D01*
X68461000Y-101417333D01*
X68413380Y-101512571D01*
%TO.C,R9*%
X66746380Y-100036333D02*
X66270190Y-99703000D01*
X66746380Y-99464904D02*
X65746380Y-99464904D01*
X65746380Y-99845857D01*
X65794000Y-99941095D01*
X65841619Y-99988714D01*
X65936857Y-100036333D01*
X66079714Y-100036333D01*
X66174952Y-99988714D01*
X66222571Y-99941095D01*
X66270190Y-99845857D01*
X66270190Y-99464904D01*
X66746380Y-100512523D02*
X66746380Y-100703000D01*
X66698761Y-100798238D01*
X66651142Y-100845857D01*
X66508285Y-100941095D01*
X66317809Y-100988714D01*
X65936857Y-100988714D01*
X65841619Y-100941095D01*
X65794000Y-100893476D01*
X65746380Y-100798238D01*
X65746380Y-100607761D01*
X65794000Y-100512523D01*
X65841619Y-100464904D01*
X65936857Y-100417285D01*
X66174952Y-100417285D01*
X66270190Y-100464904D01*
X66317809Y-100512523D01*
X66365428Y-100607761D01*
X66365428Y-100798238D01*
X66317809Y-100893476D01*
X66270190Y-100941095D01*
X66174952Y-100988714D01*
%TO.C,R8*%
X56713380Y-100163333D02*
X56237190Y-99830000D01*
X56713380Y-99591904D02*
X55713380Y-99591904D01*
X55713380Y-99972857D01*
X55761000Y-100068095D01*
X55808619Y-100115714D01*
X55903857Y-100163333D01*
X56046714Y-100163333D01*
X56141952Y-100115714D01*
X56189571Y-100068095D01*
X56237190Y-99972857D01*
X56237190Y-99591904D01*
X56141952Y-100734761D02*
X56094333Y-100639523D01*
X56046714Y-100591904D01*
X55951476Y-100544285D01*
X55903857Y-100544285D01*
X55808619Y-100591904D01*
X55761000Y-100639523D01*
X55713380Y-100734761D01*
X55713380Y-100925238D01*
X55761000Y-101020476D01*
X55808619Y-101068095D01*
X55903857Y-101115714D01*
X55951476Y-101115714D01*
X56046714Y-101068095D01*
X56094333Y-101020476D01*
X56141952Y-100925238D01*
X56141952Y-100734761D01*
X56189571Y-100639523D01*
X56237190Y-100591904D01*
X56332428Y-100544285D01*
X56522904Y-100544285D01*
X56618142Y-100591904D01*
X56665761Y-100639523D01*
X56713380Y-100734761D01*
X56713380Y-100925238D01*
X56665761Y-101020476D01*
X56618142Y-101068095D01*
X56522904Y-101115714D01*
X56332428Y-101115714D01*
X56237190Y-101068095D01*
X56189571Y-101020476D01*
X56141952Y-100925238D01*
%TO.C,R7*%
X51506380Y-100163333D02*
X51030190Y-99830000D01*
X51506380Y-99591904D02*
X50506380Y-99591904D01*
X50506380Y-99972857D01*
X50554000Y-100068095D01*
X50601619Y-100115714D01*
X50696857Y-100163333D01*
X50839714Y-100163333D01*
X50934952Y-100115714D01*
X50982571Y-100068095D01*
X51030190Y-99972857D01*
X51030190Y-99591904D01*
X50506380Y-100496666D02*
X50506380Y-101163333D01*
X51506380Y-100734761D01*
%TO.C,U14*%
X56946380Y-38385904D02*
X57755904Y-38385904D01*
X57851142Y-38433523D01*
X57898761Y-38481142D01*
X57946380Y-38576380D01*
X57946380Y-38766857D01*
X57898761Y-38862095D01*
X57851142Y-38909714D01*
X57755904Y-38957333D01*
X56946380Y-38957333D01*
X57946380Y-39957333D02*
X57946380Y-39385904D01*
X57946380Y-39671619D02*
X56946380Y-39671619D01*
X57089238Y-39576380D01*
X57184476Y-39481142D01*
X57232095Y-39385904D01*
X57279714Y-40814476D02*
X57946380Y-40814476D01*
X56898761Y-40576380D02*
X57613047Y-40338285D01*
X57613047Y-40957333D01*
%TO.C,U13*%
X39846095Y-43648380D02*
X39846095Y-44457904D01*
X39798476Y-44553142D01*
X39750857Y-44600761D01*
X39655619Y-44648380D01*
X39465142Y-44648380D01*
X39369904Y-44600761D01*
X39322285Y-44553142D01*
X39274666Y-44457904D01*
X39274666Y-43648380D01*
X38274666Y-44648380D02*
X38846095Y-44648380D01*
X38560380Y-44648380D02*
X38560380Y-43648380D01*
X38655619Y-43791238D01*
X38750857Y-43886476D01*
X38846095Y-43934095D01*
X37941333Y-43648380D02*
X37322285Y-43648380D01*
X37655619Y-44029333D01*
X37512761Y-44029333D01*
X37417523Y-44076952D01*
X37369904Y-44124571D01*
X37322285Y-44219809D01*
X37322285Y-44457904D01*
X37369904Y-44553142D01*
X37417523Y-44600761D01*
X37512761Y-44648380D01*
X37798476Y-44648380D01*
X37893714Y-44600761D01*
X37941333Y-44553142D01*
%TO.C,U12*%
X85058095Y-47294380D02*
X85058095Y-48103904D01*
X85010476Y-48199142D01*
X84962857Y-48246761D01*
X84867619Y-48294380D01*
X84677142Y-48294380D01*
X84581904Y-48246761D01*
X84534285Y-48199142D01*
X84486666Y-48103904D01*
X84486666Y-47294380D01*
X83486666Y-48294380D02*
X84058095Y-48294380D01*
X83772380Y-48294380D02*
X83772380Y-47294380D01*
X83867619Y-47437238D01*
X83962857Y-47532476D01*
X84058095Y-47580095D01*
X83105714Y-47389619D02*
X83058095Y-47342000D01*
X82962857Y-47294380D01*
X82724761Y-47294380D01*
X82629523Y-47342000D01*
X82581904Y-47389619D01*
X82534285Y-47484857D01*
X82534285Y-47580095D01*
X82581904Y-47722952D01*
X83153333Y-48294380D01*
X82534285Y-48294380D01*
%TO.C,U11*%
X69138380Y-33305904D02*
X69947904Y-33305904D01*
X70043142Y-33353523D01*
X70090761Y-33401142D01*
X70138380Y-33496380D01*
X70138380Y-33686857D01*
X70090761Y-33782095D01*
X70043142Y-33829714D01*
X69947904Y-33877333D01*
X69138380Y-33877333D01*
X70138380Y-34877333D02*
X70138380Y-34305904D01*
X70138380Y-34591619D02*
X69138380Y-34591619D01*
X69281238Y-34496380D01*
X69376476Y-34401142D01*
X69424095Y-34305904D01*
X70138380Y-35829714D02*
X70138380Y-35258285D01*
X70138380Y-35544000D02*
X69138380Y-35544000D01*
X69281238Y-35448761D01*
X69376476Y-35353523D01*
X69424095Y-35258285D01*
%TO.C,R6*%
X57570666Y-78810380D02*
X57904000Y-78334190D01*
X58142095Y-78810380D02*
X58142095Y-77810380D01*
X57761142Y-77810380D01*
X57665904Y-77858000D01*
X57618285Y-77905619D01*
X57570666Y-78000857D01*
X57570666Y-78143714D01*
X57618285Y-78238952D01*
X57665904Y-78286571D01*
X57761142Y-78334190D01*
X58142095Y-78334190D01*
X56713523Y-77810380D02*
X56904000Y-77810380D01*
X56999238Y-77858000D01*
X57046857Y-77905619D01*
X57142095Y-78048476D01*
X57189714Y-78238952D01*
X57189714Y-78619904D01*
X57142095Y-78715142D01*
X57094476Y-78762761D01*
X56999238Y-78810380D01*
X56808761Y-78810380D01*
X56713523Y-78762761D01*
X56665904Y-78715142D01*
X56618285Y-78619904D01*
X56618285Y-78381809D01*
X56665904Y-78286571D01*
X56713523Y-78238952D01*
X56808761Y-78191333D01*
X56999238Y-78191333D01*
X57094476Y-78238952D01*
X57142095Y-78286571D01*
X57189714Y-78381809D01*
%TO.C,R4*%
X79826380Y-57745333D02*
X79350190Y-57412000D01*
X79826380Y-57173904D02*
X78826380Y-57173904D01*
X78826380Y-57554857D01*
X78874000Y-57650095D01*
X78921619Y-57697714D01*
X79016857Y-57745333D01*
X79159714Y-57745333D01*
X79254952Y-57697714D01*
X79302571Y-57650095D01*
X79350190Y-57554857D01*
X79350190Y-57173904D01*
X79159714Y-58602476D02*
X79826380Y-58602476D01*
X78778761Y-58364380D02*
X79493047Y-58126285D01*
X79493047Y-58745333D01*
%TO.C,U3*%
X65122380Y-109474095D02*
X65931904Y-109474095D01*
X66027142Y-109521714D01*
X66074761Y-109569333D01*
X66122380Y-109664571D01*
X66122380Y-109855047D01*
X66074761Y-109950285D01*
X66027142Y-109997904D01*
X65931904Y-110045523D01*
X65122380Y-110045523D01*
X65122380Y-110426476D02*
X65122380Y-111045523D01*
X65503333Y-110712190D01*
X65503333Y-110855047D01*
X65550952Y-110950285D01*
X65598571Y-110997904D01*
X65693809Y-111045523D01*
X65931904Y-111045523D01*
X66027142Y-110997904D01*
X66074761Y-110950285D01*
X66122380Y-110855047D01*
X66122380Y-110569333D01*
X66074761Y-110474095D01*
X66027142Y-110426476D01*
%TO.C,C3*%
X41407142Y-53808333D02*
X41454761Y-53760714D01*
X41502380Y-53617857D01*
X41502380Y-53522619D01*
X41454761Y-53379761D01*
X41359523Y-53284523D01*
X41264285Y-53236904D01*
X41073809Y-53189285D01*
X40930952Y-53189285D01*
X40740476Y-53236904D01*
X40645238Y-53284523D01*
X40550000Y-53379761D01*
X40502380Y-53522619D01*
X40502380Y-53617857D01*
X40550000Y-53760714D01*
X40597619Y-53808333D01*
X40502380Y-54141666D02*
X40502380Y-54760714D01*
X40883333Y-54427380D01*
X40883333Y-54570238D01*
X40930952Y-54665476D01*
X40978571Y-54713095D01*
X41073809Y-54760714D01*
X41311904Y-54760714D01*
X41407142Y-54713095D01*
X41454761Y-54665476D01*
X41502380Y-54570238D01*
X41502380Y-54284523D01*
X41454761Y-54189285D01*
X41407142Y-54141666D01*
%TO.C,C2*%
X62685142Y-117181333D02*
X62732761Y-117133714D01*
X62780380Y-116990857D01*
X62780380Y-116895619D01*
X62732761Y-116752761D01*
X62637523Y-116657523D01*
X62542285Y-116609904D01*
X62351809Y-116562285D01*
X62208952Y-116562285D01*
X62018476Y-116609904D01*
X61923238Y-116657523D01*
X61828000Y-116752761D01*
X61780380Y-116895619D01*
X61780380Y-116990857D01*
X61828000Y-117133714D01*
X61875619Y-117181333D01*
X61875619Y-117562285D02*
X61828000Y-117609904D01*
X61780380Y-117705142D01*
X61780380Y-117943238D01*
X61828000Y-118038476D01*
X61875619Y-118086095D01*
X61970857Y-118133714D01*
X62066095Y-118133714D01*
X62208952Y-118086095D01*
X62780380Y-117514666D01*
X62780380Y-118133714D01*
%TO.C,C29*%
X40901857Y-94718142D02*
X40949476Y-94765761D01*
X41092333Y-94813380D01*
X41187571Y-94813380D01*
X41330428Y-94765761D01*
X41425666Y-94670523D01*
X41473285Y-94575285D01*
X41520904Y-94384809D01*
X41520904Y-94241952D01*
X41473285Y-94051476D01*
X41425666Y-93956238D01*
X41330428Y-93861000D01*
X41187571Y-93813380D01*
X41092333Y-93813380D01*
X40949476Y-93861000D01*
X40901857Y-93908619D01*
X40520904Y-93908619D02*
X40473285Y-93861000D01*
X40378047Y-93813380D01*
X40139952Y-93813380D01*
X40044714Y-93861000D01*
X39997095Y-93908619D01*
X39949476Y-94003857D01*
X39949476Y-94099095D01*
X39997095Y-94241952D01*
X40568523Y-94813380D01*
X39949476Y-94813380D01*
X39473285Y-94813380D02*
X39282809Y-94813380D01*
X39187571Y-94765761D01*
X39139952Y-94718142D01*
X39044714Y-94575285D01*
X38997095Y-94384809D01*
X38997095Y-94003857D01*
X39044714Y-93908619D01*
X39092333Y-93861000D01*
X39187571Y-93813380D01*
X39378047Y-93813380D01*
X39473285Y-93861000D01*
X39520904Y-93908619D01*
X39568523Y-94003857D01*
X39568523Y-94241952D01*
X39520904Y-94337190D01*
X39473285Y-94384809D01*
X39378047Y-94432428D01*
X39187571Y-94432428D01*
X39092333Y-94384809D01*
X39044714Y-94337190D01*
X38997095Y-94241952D01*
%TO.C,C22*%
X74485142Y-72001142D02*
X74532761Y-71953523D01*
X74580380Y-71810666D01*
X74580380Y-71715428D01*
X74532761Y-71572571D01*
X74437523Y-71477333D01*
X74342285Y-71429714D01*
X74151809Y-71382095D01*
X74008952Y-71382095D01*
X73818476Y-71429714D01*
X73723238Y-71477333D01*
X73628000Y-71572571D01*
X73580380Y-71715428D01*
X73580380Y-71810666D01*
X73628000Y-71953523D01*
X73675619Y-72001142D01*
X73675619Y-72382095D02*
X73628000Y-72429714D01*
X73580380Y-72524952D01*
X73580380Y-72763047D01*
X73628000Y-72858285D01*
X73675619Y-72905904D01*
X73770857Y-72953523D01*
X73866095Y-72953523D01*
X74008952Y-72905904D01*
X74580380Y-72334476D01*
X74580380Y-72953523D01*
X73675619Y-73334476D02*
X73628000Y-73382095D01*
X73580380Y-73477333D01*
X73580380Y-73715428D01*
X73628000Y-73810666D01*
X73675619Y-73858285D01*
X73770857Y-73905904D01*
X73866095Y-73905904D01*
X74008952Y-73858285D01*
X74580380Y-73286857D01*
X74580380Y-73905904D01*
%TO.C,C21*%
X74311142Y-91313142D02*
X74358761Y-91265523D01*
X74406380Y-91122666D01*
X74406380Y-91027428D01*
X74358761Y-90884571D01*
X74263523Y-90789333D01*
X74168285Y-90741714D01*
X73977809Y-90694095D01*
X73834952Y-90694095D01*
X73644476Y-90741714D01*
X73549238Y-90789333D01*
X73454000Y-90884571D01*
X73406380Y-91027428D01*
X73406380Y-91122666D01*
X73454000Y-91265523D01*
X73501619Y-91313142D01*
X73501619Y-91694095D02*
X73454000Y-91741714D01*
X73406380Y-91836952D01*
X73406380Y-92075047D01*
X73454000Y-92170285D01*
X73501619Y-92217904D01*
X73596857Y-92265523D01*
X73692095Y-92265523D01*
X73834952Y-92217904D01*
X74406380Y-91646476D01*
X74406380Y-92265523D01*
X74406380Y-93217904D02*
X74406380Y-92646476D01*
X74406380Y-92932190D02*
X73406380Y-92932190D01*
X73549238Y-92836952D01*
X73644476Y-92741714D01*
X73692095Y-92646476D01*
%TO.C,C19*%
X82629142Y-32885142D02*
X82676761Y-32837523D01*
X82724380Y-32694666D01*
X82724380Y-32599428D01*
X82676761Y-32456571D01*
X82581523Y-32361333D01*
X82486285Y-32313714D01*
X82295809Y-32266095D01*
X82152952Y-32266095D01*
X81962476Y-32313714D01*
X81867238Y-32361333D01*
X81772000Y-32456571D01*
X81724380Y-32599428D01*
X81724380Y-32694666D01*
X81772000Y-32837523D01*
X81819619Y-32885142D01*
X82724380Y-33837523D02*
X82724380Y-33266095D01*
X82724380Y-33551809D02*
X81724380Y-33551809D01*
X81867238Y-33456571D01*
X81962476Y-33361333D01*
X82010095Y-33266095D01*
X82724380Y-34313714D02*
X82724380Y-34504190D01*
X82676761Y-34599428D01*
X82629142Y-34647047D01*
X82486285Y-34742285D01*
X82295809Y-34789904D01*
X81914857Y-34789904D01*
X81819619Y-34742285D01*
X81772000Y-34694666D01*
X81724380Y-34599428D01*
X81724380Y-34408952D01*
X81772000Y-34313714D01*
X81819619Y-34266095D01*
X81914857Y-34218476D01*
X82152952Y-34218476D01*
X82248190Y-34266095D01*
X82295809Y-34313714D01*
X82343428Y-34408952D01*
X82343428Y-34599428D01*
X82295809Y-34694666D01*
X82248190Y-34742285D01*
X82152952Y-34789904D01*
%TO.C,C18*%
X67698857Y-80089142D02*
X67746476Y-80136761D01*
X67889333Y-80184380D01*
X67984571Y-80184380D01*
X68127428Y-80136761D01*
X68222666Y-80041523D01*
X68270285Y-79946285D01*
X68317904Y-79755809D01*
X68317904Y-79612952D01*
X68270285Y-79422476D01*
X68222666Y-79327238D01*
X68127428Y-79232000D01*
X67984571Y-79184380D01*
X67889333Y-79184380D01*
X67746476Y-79232000D01*
X67698857Y-79279619D01*
X66746476Y-80184380D02*
X67317904Y-80184380D01*
X67032190Y-80184380D02*
X67032190Y-79184380D01*
X67127428Y-79327238D01*
X67222666Y-79422476D01*
X67317904Y-79470095D01*
X66175047Y-79612952D02*
X66270285Y-79565333D01*
X66317904Y-79517714D01*
X66365523Y-79422476D01*
X66365523Y-79374857D01*
X66317904Y-79279619D01*
X66270285Y-79232000D01*
X66175047Y-79184380D01*
X65984571Y-79184380D01*
X65889333Y-79232000D01*
X65841714Y-79279619D01*
X65794095Y-79374857D01*
X65794095Y-79422476D01*
X65841714Y-79517714D01*
X65889333Y-79565333D01*
X65984571Y-79612952D01*
X66175047Y-79612952D01*
X66270285Y-79660571D01*
X66317904Y-79708190D01*
X66365523Y-79803428D01*
X66365523Y-79993904D01*
X66317904Y-80089142D01*
X66270285Y-80136761D01*
X66175047Y-80184380D01*
X65984571Y-80184380D01*
X65889333Y-80136761D01*
X65841714Y-80089142D01*
X65794095Y-79993904D01*
X65794095Y-79803428D01*
X65841714Y-79708190D01*
X65889333Y-79660571D01*
X65984571Y-79612952D01*
%TO.C,C17*%
X50934857Y-86561142D02*
X50982476Y-86608761D01*
X51125333Y-86656380D01*
X51220571Y-86656380D01*
X51363428Y-86608761D01*
X51458666Y-86513523D01*
X51506285Y-86418285D01*
X51553904Y-86227809D01*
X51553904Y-86084952D01*
X51506285Y-85894476D01*
X51458666Y-85799238D01*
X51363428Y-85704000D01*
X51220571Y-85656380D01*
X51125333Y-85656380D01*
X50982476Y-85704000D01*
X50934857Y-85751619D01*
X49982476Y-86656380D02*
X50553904Y-86656380D01*
X50268190Y-86656380D02*
X50268190Y-85656380D01*
X50363428Y-85799238D01*
X50458666Y-85894476D01*
X50553904Y-85942095D01*
X49649142Y-85656380D02*
X48982476Y-85656380D01*
X49411047Y-86656380D01*
%TO.C,C16*%
X59285142Y-98036142D02*
X59332761Y-97988523D01*
X59380380Y-97845666D01*
X59380380Y-97750428D01*
X59332761Y-97607571D01*
X59237523Y-97512333D01*
X59142285Y-97464714D01*
X58951809Y-97417095D01*
X58808952Y-97417095D01*
X58618476Y-97464714D01*
X58523238Y-97512333D01*
X58428000Y-97607571D01*
X58380380Y-97750428D01*
X58380380Y-97845666D01*
X58428000Y-97988523D01*
X58475619Y-98036142D01*
X59380380Y-98988523D02*
X59380380Y-98417095D01*
X59380380Y-98702809D02*
X58380380Y-98702809D01*
X58523238Y-98607571D01*
X58618476Y-98512333D01*
X58666095Y-98417095D01*
X58380380Y-99845666D02*
X58380380Y-99655190D01*
X58428000Y-99559952D01*
X58475619Y-99512333D01*
X58618476Y-99417095D01*
X58808952Y-99369476D01*
X59189904Y-99369476D01*
X59285142Y-99417095D01*
X59332761Y-99464714D01*
X59380380Y-99559952D01*
X59380380Y-99750428D01*
X59332761Y-99845666D01*
X59285142Y-99893285D01*
X59189904Y-99940904D01*
X58951809Y-99940904D01*
X58856571Y-99893285D01*
X58808952Y-99845666D01*
X58761333Y-99750428D01*
X58761333Y-99559952D01*
X58808952Y-99464714D01*
X58856571Y-99417095D01*
X58951809Y-99369476D01*
%TD*%
M02*
