%TF.GenerationSoftware,KiCad,Pcbnew,(5.1.9)-1*%
%TF.CreationDate,2021-11-07T13:29:39-05:00*%
%TF.ProjectId,main,6d61696e-2e6b-4696-9361-645f70636258,rev?*%
%TF.SameCoordinates,Original*%
%TF.FileFunction,Soldermask,Top*%
%TF.FilePolarity,Negative*%
%FSLAX46Y46*%
G04 Gerber Fmt 4.6, Leading zero omitted, Abs format (unit mm)*
G04 Created by KiCad (PCBNEW (5.1.9)-1) date 2021-11-07 13:29:39*
%MOMM*%
%LPD*%
G01*
G04 APERTURE LIST*
%ADD10C,1.800000*%
%ADD11C,1.346200*%
%ADD12R,1.346200X1.346200*%
%ADD13C,1.200000*%
%ADD14O,2.600000X1.300000*%
%ADD15O,1.300000X2.600000*%
%ADD16C,1.600000*%
%ADD17R,1.600000X1.600000*%
%ADD18R,5.500000X4.400000*%
%ADD19R,0.410000X3.510000*%
%ADD20C,1.500000*%
%ADD21C,3.000000*%
%ADD22R,1.800000X1.800000*%
%ADD23R,0.900000X0.800000*%
%ADD24O,1.600000X1.600000*%
%ADD25R,1.500000X0.600000*%
%ADD26C,3.200000*%
%ADD27R,1.700000X1.700000*%
%ADD28O,1.700000X1.700000*%
G04 APERTURE END LIST*
D10*
%TO.C,RV10*%
X88392000Y-107308000D03*
X93392000Y-107308000D03*
X93392000Y-114808000D03*
X90892000Y-114808000D03*
X88392000Y-114808000D03*
X93392000Y-112308000D03*
X90892000Y-112308000D03*
X88392000Y-112308000D03*
%TD*%
%TO.C,L1*%
G36*
G01*
X79191000Y-69020000D02*
X80311000Y-69020000D01*
G75*
G02*
X80451000Y-69160000I0J-140000D01*
G01*
X80451000Y-73080000D01*
G75*
G02*
X80311000Y-73220000I-140000J0D01*
G01*
X79191000Y-73220000D01*
G75*
G02*
X79051000Y-73080000I0J140000D01*
G01*
X79051000Y-69160000D01*
G75*
G02*
X79191000Y-69020000I140000J0D01*
G01*
G37*
G36*
G01*
X82891000Y-69020000D02*
X84011000Y-69020000D01*
G75*
G02*
X84151000Y-69160000I0J-140000D01*
G01*
X84151000Y-73080000D01*
G75*
G02*
X84011000Y-73220000I-140000J0D01*
G01*
X82891000Y-73220000D01*
G75*
G02*
X82751000Y-73080000I0J140000D01*
G01*
X82751000Y-69160000D01*
G75*
G02*
X82891000Y-69020000I140000J0D01*
G01*
G37*
%TD*%
%TO.C,U17*%
G36*
G01*
X104672000Y-81892000D02*
X104672000Y-82192000D01*
G75*
G02*
X104522000Y-82342000I-150000J0D01*
G01*
X102872000Y-82342000D01*
G75*
G02*
X102722000Y-82192000I0J150000D01*
G01*
X102722000Y-81892000D01*
G75*
G02*
X102872000Y-81742000I150000J0D01*
G01*
X104522000Y-81742000D01*
G75*
G02*
X104672000Y-81892000I0J-150000D01*
G01*
G37*
G36*
G01*
X104672000Y-80622000D02*
X104672000Y-80922000D01*
G75*
G02*
X104522000Y-81072000I-150000J0D01*
G01*
X102872000Y-81072000D01*
G75*
G02*
X102722000Y-80922000I0J150000D01*
G01*
X102722000Y-80622000D01*
G75*
G02*
X102872000Y-80472000I150000J0D01*
G01*
X104522000Y-80472000D01*
G75*
G02*
X104672000Y-80622000I0J-150000D01*
G01*
G37*
G36*
G01*
X104672000Y-79352000D02*
X104672000Y-79652000D01*
G75*
G02*
X104522000Y-79802000I-150000J0D01*
G01*
X102872000Y-79802000D01*
G75*
G02*
X102722000Y-79652000I0J150000D01*
G01*
X102722000Y-79352000D01*
G75*
G02*
X102872000Y-79202000I150000J0D01*
G01*
X104522000Y-79202000D01*
G75*
G02*
X104672000Y-79352000I0J-150000D01*
G01*
G37*
G36*
G01*
X104672000Y-78082000D02*
X104672000Y-78382000D01*
G75*
G02*
X104522000Y-78532000I-150000J0D01*
G01*
X102872000Y-78532000D01*
G75*
G02*
X102722000Y-78382000I0J150000D01*
G01*
X102722000Y-78082000D01*
G75*
G02*
X102872000Y-77932000I150000J0D01*
G01*
X104522000Y-77932000D01*
G75*
G02*
X104672000Y-78082000I0J-150000D01*
G01*
G37*
G36*
G01*
X104672000Y-76812000D02*
X104672000Y-77112000D01*
G75*
G02*
X104522000Y-77262000I-150000J0D01*
G01*
X102872000Y-77262000D01*
G75*
G02*
X102722000Y-77112000I0J150000D01*
G01*
X102722000Y-76812000D01*
G75*
G02*
X102872000Y-76662000I150000J0D01*
G01*
X104522000Y-76662000D01*
G75*
G02*
X104672000Y-76812000I0J-150000D01*
G01*
G37*
G36*
G01*
X104672000Y-75542000D02*
X104672000Y-75842000D01*
G75*
G02*
X104522000Y-75992000I-150000J0D01*
G01*
X102872000Y-75992000D01*
G75*
G02*
X102722000Y-75842000I0J150000D01*
G01*
X102722000Y-75542000D01*
G75*
G02*
X102872000Y-75392000I150000J0D01*
G01*
X104522000Y-75392000D01*
G75*
G02*
X104672000Y-75542000I0J-150000D01*
G01*
G37*
G36*
G01*
X104672000Y-74272000D02*
X104672000Y-74572000D01*
G75*
G02*
X104522000Y-74722000I-150000J0D01*
G01*
X102872000Y-74722000D01*
G75*
G02*
X102722000Y-74572000I0J150000D01*
G01*
X102722000Y-74272000D01*
G75*
G02*
X102872000Y-74122000I150000J0D01*
G01*
X104522000Y-74122000D01*
G75*
G02*
X104672000Y-74272000I0J-150000D01*
G01*
G37*
G36*
G01*
X109622000Y-74272000D02*
X109622000Y-74572000D01*
G75*
G02*
X109472000Y-74722000I-150000J0D01*
G01*
X107822000Y-74722000D01*
G75*
G02*
X107672000Y-74572000I0J150000D01*
G01*
X107672000Y-74272000D01*
G75*
G02*
X107822000Y-74122000I150000J0D01*
G01*
X109472000Y-74122000D01*
G75*
G02*
X109622000Y-74272000I0J-150000D01*
G01*
G37*
G36*
G01*
X109622000Y-75542000D02*
X109622000Y-75842000D01*
G75*
G02*
X109472000Y-75992000I-150000J0D01*
G01*
X107822000Y-75992000D01*
G75*
G02*
X107672000Y-75842000I0J150000D01*
G01*
X107672000Y-75542000D01*
G75*
G02*
X107822000Y-75392000I150000J0D01*
G01*
X109472000Y-75392000D01*
G75*
G02*
X109622000Y-75542000I0J-150000D01*
G01*
G37*
G36*
G01*
X109622000Y-76812000D02*
X109622000Y-77112000D01*
G75*
G02*
X109472000Y-77262000I-150000J0D01*
G01*
X107822000Y-77262000D01*
G75*
G02*
X107672000Y-77112000I0J150000D01*
G01*
X107672000Y-76812000D01*
G75*
G02*
X107822000Y-76662000I150000J0D01*
G01*
X109472000Y-76662000D01*
G75*
G02*
X109622000Y-76812000I0J-150000D01*
G01*
G37*
G36*
G01*
X109622000Y-78082000D02*
X109622000Y-78382000D01*
G75*
G02*
X109472000Y-78532000I-150000J0D01*
G01*
X107822000Y-78532000D01*
G75*
G02*
X107672000Y-78382000I0J150000D01*
G01*
X107672000Y-78082000D01*
G75*
G02*
X107822000Y-77932000I150000J0D01*
G01*
X109472000Y-77932000D01*
G75*
G02*
X109622000Y-78082000I0J-150000D01*
G01*
G37*
G36*
G01*
X109622000Y-79352000D02*
X109622000Y-79652000D01*
G75*
G02*
X109472000Y-79802000I-150000J0D01*
G01*
X107822000Y-79802000D01*
G75*
G02*
X107672000Y-79652000I0J150000D01*
G01*
X107672000Y-79352000D01*
G75*
G02*
X107822000Y-79202000I150000J0D01*
G01*
X109472000Y-79202000D01*
G75*
G02*
X109622000Y-79352000I0J-150000D01*
G01*
G37*
G36*
G01*
X109622000Y-80622000D02*
X109622000Y-80922000D01*
G75*
G02*
X109472000Y-81072000I-150000J0D01*
G01*
X107822000Y-81072000D01*
G75*
G02*
X107672000Y-80922000I0J150000D01*
G01*
X107672000Y-80622000D01*
G75*
G02*
X107822000Y-80472000I150000J0D01*
G01*
X109472000Y-80472000D01*
G75*
G02*
X109622000Y-80622000I0J-150000D01*
G01*
G37*
G36*
G01*
X109622000Y-81892000D02*
X109622000Y-82192000D01*
G75*
G02*
X109472000Y-82342000I-150000J0D01*
G01*
X107822000Y-82342000D01*
G75*
G02*
X107672000Y-82192000I0J150000D01*
G01*
X107672000Y-81892000D01*
G75*
G02*
X107822000Y-81742000I150000J0D01*
G01*
X109472000Y-81742000D01*
G75*
G02*
X109622000Y-81892000I0J-150000D01*
G01*
G37*
%TD*%
%TO.C,U16*%
G36*
G01*
X98655000Y-37107000D02*
X98655000Y-36807000D01*
G75*
G02*
X98805000Y-36657000I150000J0D01*
G01*
X100455000Y-36657000D01*
G75*
G02*
X100605000Y-36807000I0J-150000D01*
G01*
X100605000Y-37107000D01*
G75*
G02*
X100455000Y-37257000I-150000J0D01*
G01*
X98805000Y-37257000D01*
G75*
G02*
X98655000Y-37107000I0J150000D01*
G01*
G37*
G36*
G01*
X98655000Y-38377000D02*
X98655000Y-38077000D01*
G75*
G02*
X98805000Y-37927000I150000J0D01*
G01*
X100455000Y-37927000D01*
G75*
G02*
X100605000Y-38077000I0J-150000D01*
G01*
X100605000Y-38377000D01*
G75*
G02*
X100455000Y-38527000I-150000J0D01*
G01*
X98805000Y-38527000D01*
G75*
G02*
X98655000Y-38377000I0J150000D01*
G01*
G37*
G36*
G01*
X98655000Y-39647000D02*
X98655000Y-39347000D01*
G75*
G02*
X98805000Y-39197000I150000J0D01*
G01*
X100455000Y-39197000D01*
G75*
G02*
X100605000Y-39347000I0J-150000D01*
G01*
X100605000Y-39647000D01*
G75*
G02*
X100455000Y-39797000I-150000J0D01*
G01*
X98805000Y-39797000D01*
G75*
G02*
X98655000Y-39647000I0J150000D01*
G01*
G37*
G36*
G01*
X98655000Y-40917000D02*
X98655000Y-40617000D01*
G75*
G02*
X98805000Y-40467000I150000J0D01*
G01*
X100455000Y-40467000D01*
G75*
G02*
X100605000Y-40617000I0J-150000D01*
G01*
X100605000Y-40917000D01*
G75*
G02*
X100455000Y-41067000I-150000J0D01*
G01*
X98805000Y-41067000D01*
G75*
G02*
X98655000Y-40917000I0J150000D01*
G01*
G37*
G36*
G01*
X98655000Y-42187000D02*
X98655000Y-41887000D01*
G75*
G02*
X98805000Y-41737000I150000J0D01*
G01*
X100455000Y-41737000D01*
G75*
G02*
X100605000Y-41887000I0J-150000D01*
G01*
X100605000Y-42187000D01*
G75*
G02*
X100455000Y-42337000I-150000J0D01*
G01*
X98805000Y-42337000D01*
G75*
G02*
X98655000Y-42187000I0J150000D01*
G01*
G37*
G36*
G01*
X98655000Y-43457000D02*
X98655000Y-43157000D01*
G75*
G02*
X98805000Y-43007000I150000J0D01*
G01*
X100455000Y-43007000D01*
G75*
G02*
X100605000Y-43157000I0J-150000D01*
G01*
X100605000Y-43457000D01*
G75*
G02*
X100455000Y-43607000I-150000J0D01*
G01*
X98805000Y-43607000D01*
G75*
G02*
X98655000Y-43457000I0J150000D01*
G01*
G37*
G36*
G01*
X98655000Y-44727000D02*
X98655000Y-44427000D01*
G75*
G02*
X98805000Y-44277000I150000J0D01*
G01*
X100455000Y-44277000D01*
G75*
G02*
X100605000Y-44427000I0J-150000D01*
G01*
X100605000Y-44727000D01*
G75*
G02*
X100455000Y-44877000I-150000J0D01*
G01*
X98805000Y-44877000D01*
G75*
G02*
X98655000Y-44727000I0J150000D01*
G01*
G37*
G36*
G01*
X93705000Y-44727000D02*
X93705000Y-44427000D01*
G75*
G02*
X93855000Y-44277000I150000J0D01*
G01*
X95505000Y-44277000D01*
G75*
G02*
X95655000Y-44427000I0J-150000D01*
G01*
X95655000Y-44727000D01*
G75*
G02*
X95505000Y-44877000I-150000J0D01*
G01*
X93855000Y-44877000D01*
G75*
G02*
X93705000Y-44727000I0J150000D01*
G01*
G37*
G36*
G01*
X93705000Y-43457000D02*
X93705000Y-43157000D01*
G75*
G02*
X93855000Y-43007000I150000J0D01*
G01*
X95505000Y-43007000D01*
G75*
G02*
X95655000Y-43157000I0J-150000D01*
G01*
X95655000Y-43457000D01*
G75*
G02*
X95505000Y-43607000I-150000J0D01*
G01*
X93855000Y-43607000D01*
G75*
G02*
X93705000Y-43457000I0J150000D01*
G01*
G37*
G36*
G01*
X93705000Y-42187000D02*
X93705000Y-41887000D01*
G75*
G02*
X93855000Y-41737000I150000J0D01*
G01*
X95505000Y-41737000D01*
G75*
G02*
X95655000Y-41887000I0J-150000D01*
G01*
X95655000Y-42187000D01*
G75*
G02*
X95505000Y-42337000I-150000J0D01*
G01*
X93855000Y-42337000D01*
G75*
G02*
X93705000Y-42187000I0J150000D01*
G01*
G37*
G36*
G01*
X93705000Y-40917000D02*
X93705000Y-40617000D01*
G75*
G02*
X93855000Y-40467000I150000J0D01*
G01*
X95505000Y-40467000D01*
G75*
G02*
X95655000Y-40617000I0J-150000D01*
G01*
X95655000Y-40917000D01*
G75*
G02*
X95505000Y-41067000I-150000J0D01*
G01*
X93855000Y-41067000D01*
G75*
G02*
X93705000Y-40917000I0J150000D01*
G01*
G37*
G36*
G01*
X93705000Y-39647000D02*
X93705000Y-39347000D01*
G75*
G02*
X93855000Y-39197000I150000J0D01*
G01*
X95505000Y-39197000D01*
G75*
G02*
X95655000Y-39347000I0J-150000D01*
G01*
X95655000Y-39647000D01*
G75*
G02*
X95505000Y-39797000I-150000J0D01*
G01*
X93855000Y-39797000D01*
G75*
G02*
X93705000Y-39647000I0J150000D01*
G01*
G37*
G36*
G01*
X93705000Y-38377000D02*
X93705000Y-38077000D01*
G75*
G02*
X93855000Y-37927000I150000J0D01*
G01*
X95505000Y-37927000D01*
G75*
G02*
X95655000Y-38077000I0J-150000D01*
G01*
X95655000Y-38377000D01*
G75*
G02*
X95505000Y-38527000I-150000J0D01*
G01*
X93855000Y-38527000D01*
G75*
G02*
X93705000Y-38377000I0J150000D01*
G01*
G37*
G36*
G01*
X93705000Y-37107000D02*
X93705000Y-36807000D01*
G75*
G02*
X93855000Y-36657000I150000J0D01*
G01*
X95505000Y-36657000D01*
G75*
G02*
X95655000Y-36807000I0J-150000D01*
G01*
X95655000Y-37107000D01*
G75*
G02*
X95505000Y-37257000I-150000J0D01*
G01*
X93855000Y-37257000D01*
G75*
G02*
X93705000Y-37107000I0J150000D01*
G01*
G37*
%TD*%
%TO.C,U18*%
G36*
G01*
X103355000Y-99290000D02*
X103655000Y-99290000D01*
G75*
G02*
X103805000Y-99440000I0J-150000D01*
G01*
X103805000Y-101090000D01*
G75*
G02*
X103655000Y-101240000I-150000J0D01*
G01*
X103355000Y-101240000D01*
G75*
G02*
X103205000Y-101090000I0J150000D01*
G01*
X103205000Y-99440000D01*
G75*
G02*
X103355000Y-99290000I150000J0D01*
G01*
G37*
G36*
G01*
X102085000Y-99290000D02*
X102385000Y-99290000D01*
G75*
G02*
X102535000Y-99440000I0J-150000D01*
G01*
X102535000Y-101090000D01*
G75*
G02*
X102385000Y-101240000I-150000J0D01*
G01*
X102085000Y-101240000D01*
G75*
G02*
X101935000Y-101090000I0J150000D01*
G01*
X101935000Y-99440000D01*
G75*
G02*
X102085000Y-99290000I150000J0D01*
G01*
G37*
G36*
G01*
X100815000Y-99290000D02*
X101115000Y-99290000D01*
G75*
G02*
X101265000Y-99440000I0J-150000D01*
G01*
X101265000Y-101090000D01*
G75*
G02*
X101115000Y-101240000I-150000J0D01*
G01*
X100815000Y-101240000D01*
G75*
G02*
X100665000Y-101090000I0J150000D01*
G01*
X100665000Y-99440000D01*
G75*
G02*
X100815000Y-99290000I150000J0D01*
G01*
G37*
G36*
G01*
X99545000Y-99290000D02*
X99845000Y-99290000D01*
G75*
G02*
X99995000Y-99440000I0J-150000D01*
G01*
X99995000Y-101090000D01*
G75*
G02*
X99845000Y-101240000I-150000J0D01*
G01*
X99545000Y-101240000D01*
G75*
G02*
X99395000Y-101090000I0J150000D01*
G01*
X99395000Y-99440000D01*
G75*
G02*
X99545000Y-99290000I150000J0D01*
G01*
G37*
G36*
G01*
X99545000Y-94340000D02*
X99845000Y-94340000D01*
G75*
G02*
X99995000Y-94490000I0J-150000D01*
G01*
X99995000Y-96140000D01*
G75*
G02*
X99845000Y-96290000I-150000J0D01*
G01*
X99545000Y-96290000D01*
G75*
G02*
X99395000Y-96140000I0J150000D01*
G01*
X99395000Y-94490000D01*
G75*
G02*
X99545000Y-94340000I150000J0D01*
G01*
G37*
G36*
G01*
X100815000Y-94340000D02*
X101115000Y-94340000D01*
G75*
G02*
X101265000Y-94490000I0J-150000D01*
G01*
X101265000Y-96140000D01*
G75*
G02*
X101115000Y-96290000I-150000J0D01*
G01*
X100815000Y-96290000D01*
G75*
G02*
X100665000Y-96140000I0J150000D01*
G01*
X100665000Y-94490000D01*
G75*
G02*
X100815000Y-94340000I150000J0D01*
G01*
G37*
G36*
G01*
X102085000Y-94340000D02*
X102385000Y-94340000D01*
G75*
G02*
X102535000Y-94490000I0J-150000D01*
G01*
X102535000Y-96140000D01*
G75*
G02*
X102385000Y-96290000I-150000J0D01*
G01*
X102085000Y-96290000D01*
G75*
G02*
X101935000Y-96140000I0J150000D01*
G01*
X101935000Y-94490000D01*
G75*
G02*
X102085000Y-94340000I150000J0D01*
G01*
G37*
G36*
G01*
X103355000Y-94340000D02*
X103655000Y-94340000D01*
G75*
G02*
X103805000Y-94490000I0J-150000D01*
G01*
X103805000Y-96140000D01*
G75*
G02*
X103655000Y-96290000I-150000J0D01*
G01*
X103355000Y-96290000D01*
G75*
G02*
X103205000Y-96140000I0J150000D01*
G01*
X103205000Y-94490000D01*
G75*
G02*
X103355000Y-94340000I150000J0D01*
G01*
G37*
%TD*%
D11*
%TO.C,RV9*%
X106680000Y-43637200D03*
X109220000Y-46177200D03*
D12*
X111760000Y-43637200D03*
%TD*%
D11*
%TO.C,RV8*%
X106680000Y-34747200D03*
X109220000Y-37287200D03*
D12*
X111760000Y-34747200D03*
%TD*%
D11*
%TO.C,RV7*%
X104267000Y-67995800D03*
X101727000Y-65455800D03*
D12*
X99187000Y-67995800D03*
%TD*%
D11*
%TO.C,RV6*%
X113157000Y-67995800D03*
X110617000Y-65455800D03*
D12*
X108077000Y-67995800D03*
%TD*%
D11*
%TO.C,RV5*%
X59436000Y-34036000D03*
X61976000Y-31496000D03*
D12*
X59436000Y-28956000D03*
%TD*%
D11*
%TO.C,RV4*%
X71628000Y-82372200D03*
X74168000Y-84912200D03*
D12*
X76708000Y-82372200D03*
%TD*%
D11*
%TO.C,RV3*%
X92456000Y-82219800D03*
X89916000Y-79679800D03*
D12*
X87376000Y-82219800D03*
%TD*%
D11*
%TO.C,RV2*%
X92659200Y-31496000D03*
X95199200Y-28956000D03*
D12*
X92659200Y-26416000D03*
%TD*%
D11*
%TO.C,RV1*%
X102235000Y-54178200D03*
X104775000Y-56718200D03*
D12*
X107315000Y-54178200D03*
%TD*%
%TO.C,R58*%
G36*
G01*
X96920000Y-101923001D02*
X96920000Y-101022999D01*
G75*
G02*
X97169999Y-100773000I249999J0D01*
G01*
X97695001Y-100773000D01*
G75*
G02*
X97945000Y-101022999I0J-249999D01*
G01*
X97945000Y-101923001D01*
G75*
G02*
X97695001Y-102173000I-249999J0D01*
G01*
X97169999Y-102173000D01*
G75*
G02*
X96920000Y-101923001I0J249999D01*
G01*
G37*
G36*
G01*
X95095000Y-101923001D02*
X95095000Y-101022999D01*
G75*
G02*
X95344999Y-100773000I249999J0D01*
G01*
X95870001Y-100773000D01*
G75*
G02*
X96120000Y-101022999I0J-249999D01*
G01*
X96120000Y-101923001D01*
G75*
G02*
X95870001Y-102173000I-249999J0D01*
G01*
X95344999Y-102173000D01*
G75*
G02*
X95095000Y-101923001I0J249999D01*
G01*
G37*
%TD*%
%TO.C,R57*%
G36*
G01*
X116389999Y-99841000D02*
X117290001Y-99841000D01*
G75*
G02*
X117540000Y-100090999I0J-249999D01*
G01*
X117540000Y-100616001D01*
G75*
G02*
X117290001Y-100866000I-249999J0D01*
G01*
X116389999Y-100866000D01*
G75*
G02*
X116140000Y-100616001I0J249999D01*
G01*
X116140000Y-100090999D01*
G75*
G02*
X116389999Y-99841000I249999J0D01*
G01*
G37*
G36*
G01*
X116389999Y-98016000D02*
X117290001Y-98016000D01*
G75*
G02*
X117540000Y-98265999I0J-249999D01*
G01*
X117540000Y-98791001D01*
G75*
G02*
X117290001Y-99041000I-249999J0D01*
G01*
X116389999Y-99041000D01*
G75*
G02*
X116140000Y-98791001I0J249999D01*
G01*
X116140000Y-98265999D01*
G75*
G02*
X116389999Y-98016000I249999J0D01*
G01*
G37*
%TD*%
%TO.C,R56*%
G36*
G01*
X103905000Y-103701001D02*
X103905000Y-102800999D01*
G75*
G02*
X104154999Y-102551000I249999J0D01*
G01*
X104680001Y-102551000D01*
G75*
G02*
X104930000Y-102800999I0J-249999D01*
G01*
X104930000Y-103701001D01*
G75*
G02*
X104680001Y-103951000I-249999J0D01*
G01*
X104154999Y-103951000D01*
G75*
G02*
X103905000Y-103701001I0J249999D01*
G01*
G37*
G36*
G01*
X102080000Y-103701001D02*
X102080000Y-102800999D01*
G75*
G02*
X102329999Y-102551000I249999J0D01*
G01*
X102855001Y-102551000D01*
G75*
G02*
X103105000Y-102800999I0J-249999D01*
G01*
X103105000Y-103701001D01*
G75*
G02*
X102855001Y-103951000I-249999J0D01*
G01*
X102329999Y-103951000D01*
G75*
G02*
X102080000Y-103701001I0J249999D01*
G01*
G37*
%TD*%
%TO.C,R55*%
G36*
G01*
X103905000Y-92906001D02*
X103905000Y-92005999D01*
G75*
G02*
X104154999Y-91756000I249999J0D01*
G01*
X104680001Y-91756000D01*
G75*
G02*
X104930000Y-92005999I0J-249999D01*
G01*
X104930000Y-92906001D01*
G75*
G02*
X104680001Y-93156000I-249999J0D01*
G01*
X104154999Y-93156000D01*
G75*
G02*
X103905000Y-92906001I0J249999D01*
G01*
G37*
G36*
G01*
X102080000Y-92906001D02*
X102080000Y-92005999D01*
G75*
G02*
X102329999Y-91756000I249999J0D01*
G01*
X102855001Y-91756000D01*
G75*
G02*
X103105000Y-92005999I0J-249999D01*
G01*
X103105000Y-92906001D01*
G75*
G02*
X102855001Y-93156000I-249999J0D01*
G01*
X102329999Y-93156000D01*
G75*
G02*
X102080000Y-92906001I0J249999D01*
G01*
G37*
%TD*%
%TO.C,R54*%
G36*
G01*
X116389999Y-96031000D02*
X117290001Y-96031000D01*
G75*
G02*
X117540000Y-96280999I0J-249999D01*
G01*
X117540000Y-96806001D01*
G75*
G02*
X117290001Y-97056000I-249999J0D01*
G01*
X116389999Y-97056000D01*
G75*
G02*
X116140000Y-96806001I0J249999D01*
G01*
X116140000Y-96280999D01*
G75*
G02*
X116389999Y-96031000I249999J0D01*
G01*
G37*
G36*
G01*
X116389999Y-94206000D02*
X117290001Y-94206000D01*
G75*
G02*
X117540000Y-94455999I0J-249999D01*
G01*
X117540000Y-94981001D01*
G75*
G02*
X117290001Y-95231000I-249999J0D01*
G01*
X116389999Y-95231000D01*
G75*
G02*
X116140000Y-94981001I0J249999D01*
G01*
X116140000Y-94455999D01*
G75*
G02*
X116389999Y-94206000I249999J0D01*
G01*
G37*
%TD*%
%TO.C,R53*%
G36*
G01*
X96120000Y-94418999D02*
X96120000Y-95319001D01*
G75*
G02*
X95870001Y-95569000I-249999J0D01*
G01*
X95344999Y-95569000D01*
G75*
G02*
X95095000Y-95319001I0J249999D01*
G01*
X95095000Y-94418999D01*
G75*
G02*
X95344999Y-94169000I249999J0D01*
G01*
X95870001Y-94169000D01*
G75*
G02*
X96120000Y-94418999I0J-249999D01*
G01*
G37*
G36*
G01*
X97945000Y-94418999D02*
X97945000Y-95319001D01*
G75*
G02*
X97695001Y-95569000I-249999J0D01*
G01*
X97169999Y-95569000D01*
G75*
G02*
X96920000Y-95319001I0J249999D01*
G01*
X96920000Y-94418999D01*
G75*
G02*
X97169999Y-94169000I249999J0D01*
G01*
X97695001Y-94169000D01*
G75*
G02*
X97945000Y-94418999I0J-249999D01*
G01*
G37*
%TD*%
%TO.C,R52*%
G36*
G01*
X111702001Y-81642000D02*
X110801999Y-81642000D01*
G75*
G02*
X110552000Y-81392001I0J249999D01*
G01*
X110552000Y-80866999D01*
G75*
G02*
X110801999Y-80617000I249999J0D01*
G01*
X111702001Y-80617000D01*
G75*
G02*
X111952000Y-80866999I0J-249999D01*
G01*
X111952000Y-81392001D01*
G75*
G02*
X111702001Y-81642000I-249999J0D01*
G01*
G37*
G36*
G01*
X111702001Y-83467000D02*
X110801999Y-83467000D01*
G75*
G02*
X110552000Y-83217001I0J249999D01*
G01*
X110552000Y-82691999D01*
G75*
G02*
X110801999Y-82442000I249999J0D01*
G01*
X111702001Y-82442000D01*
G75*
G02*
X111952000Y-82691999I0J-249999D01*
G01*
X111952000Y-83217001D01*
G75*
G02*
X111702001Y-83467000I-249999J0D01*
G01*
G37*
%TD*%
%TO.C,R51*%
G36*
G01*
X101542001Y-81642000D02*
X100641999Y-81642000D01*
G75*
G02*
X100392000Y-81392001I0J249999D01*
G01*
X100392000Y-80866999D01*
G75*
G02*
X100641999Y-80617000I249999J0D01*
G01*
X101542001Y-80617000D01*
G75*
G02*
X101792000Y-80866999I0J-249999D01*
G01*
X101792000Y-81392001D01*
G75*
G02*
X101542001Y-81642000I-249999J0D01*
G01*
G37*
G36*
G01*
X101542001Y-83467000D02*
X100641999Y-83467000D01*
G75*
G02*
X100392000Y-83217001I0J249999D01*
G01*
X100392000Y-82691999D01*
G75*
G02*
X100641999Y-82442000I249999J0D01*
G01*
X101542001Y-82442000D01*
G75*
G02*
X101792000Y-82691999I0J-249999D01*
G01*
X101792000Y-83217001D01*
G75*
G02*
X101542001Y-83467000I-249999J0D01*
G01*
G37*
%TD*%
%TO.C,R50*%
G36*
G01*
X101542001Y-77832000D02*
X100641999Y-77832000D01*
G75*
G02*
X100392000Y-77582001I0J249999D01*
G01*
X100392000Y-77056999D01*
G75*
G02*
X100641999Y-76807000I249999J0D01*
G01*
X101542001Y-76807000D01*
G75*
G02*
X101792000Y-77056999I0J-249999D01*
G01*
X101792000Y-77582001D01*
G75*
G02*
X101542001Y-77832000I-249999J0D01*
G01*
G37*
G36*
G01*
X101542001Y-79657000D02*
X100641999Y-79657000D01*
G75*
G02*
X100392000Y-79407001I0J249999D01*
G01*
X100392000Y-78881999D01*
G75*
G02*
X100641999Y-78632000I249999J0D01*
G01*
X101542001Y-78632000D01*
G75*
G02*
X101792000Y-78881999I0J-249999D01*
G01*
X101792000Y-79407001D01*
G75*
G02*
X101542001Y-79657000I-249999J0D01*
G01*
G37*
%TD*%
%TO.C,R49*%
G36*
G01*
X110801999Y-78632000D02*
X111702001Y-78632000D01*
G75*
G02*
X111952000Y-78881999I0J-249999D01*
G01*
X111952000Y-79407001D01*
G75*
G02*
X111702001Y-79657000I-249999J0D01*
G01*
X110801999Y-79657000D01*
G75*
G02*
X110552000Y-79407001I0J249999D01*
G01*
X110552000Y-78881999D01*
G75*
G02*
X110801999Y-78632000I249999J0D01*
G01*
G37*
G36*
G01*
X110801999Y-76807000D02*
X111702001Y-76807000D01*
G75*
G02*
X111952000Y-77056999I0J-249999D01*
G01*
X111952000Y-77582001D01*
G75*
G02*
X111702001Y-77832000I-249999J0D01*
G01*
X110801999Y-77832000D01*
G75*
G02*
X110552000Y-77582001I0J249999D01*
G01*
X110552000Y-77056999D01*
G75*
G02*
X110801999Y-76807000I249999J0D01*
G01*
G37*
%TD*%
%TO.C,R48*%
G36*
G01*
X114484999Y-42056000D02*
X115385001Y-42056000D01*
G75*
G02*
X115635000Y-42305999I0J-249999D01*
G01*
X115635000Y-42831001D01*
G75*
G02*
X115385001Y-43081000I-249999J0D01*
G01*
X114484999Y-43081000D01*
G75*
G02*
X114235000Y-42831001I0J249999D01*
G01*
X114235000Y-42305999D01*
G75*
G02*
X114484999Y-42056000I249999J0D01*
G01*
G37*
G36*
G01*
X114484999Y-40231000D02*
X115385001Y-40231000D01*
G75*
G02*
X115635000Y-40480999I0J-249999D01*
G01*
X115635000Y-41006001D01*
G75*
G02*
X115385001Y-41256000I-249999J0D01*
G01*
X114484999Y-41256000D01*
G75*
G02*
X114235000Y-41006001I0J249999D01*
G01*
X114235000Y-40480999D01*
G75*
G02*
X114484999Y-40231000I249999J0D01*
G01*
G37*
%TD*%
%TO.C,R47*%
G36*
G01*
X115385001Y-36176000D02*
X114484999Y-36176000D01*
G75*
G02*
X114235000Y-35926001I0J249999D01*
G01*
X114235000Y-35400999D01*
G75*
G02*
X114484999Y-35151000I249999J0D01*
G01*
X115385001Y-35151000D01*
G75*
G02*
X115635000Y-35400999I0J-249999D01*
G01*
X115635000Y-35926001D01*
G75*
G02*
X115385001Y-36176000I-249999J0D01*
G01*
G37*
G36*
G01*
X115385001Y-38001000D02*
X114484999Y-38001000D01*
G75*
G02*
X114235000Y-37751001I0J249999D01*
G01*
X114235000Y-37225999D01*
G75*
G02*
X114484999Y-36976000I249999J0D01*
G01*
X115385001Y-36976000D01*
G75*
G02*
X115635000Y-37225999I0J-249999D01*
G01*
X115635000Y-37751001D01*
G75*
G02*
X115385001Y-38001000I-249999J0D01*
G01*
G37*
%TD*%
%TO.C,R46*%
G36*
G01*
X98101999Y-82442000D02*
X99002001Y-82442000D01*
G75*
G02*
X99252000Y-82691999I0J-249999D01*
G01*
X99252000Y-83217001D01*
G75*
G02*
X99002001Y-83467000I-249999J0D01*
G01*
X98101999Y-83467000D01*
G75*
G02*
X97852000Y-83217001I0J249999D01*
G01*
X97852000Y-82691999D01*
G75*
G02*
X98101999Y-82442000I249999J0D01*
G01*
G37*
G36*
G01*
X98101999Y-80617000D02*
X99002001Y-80617000D01*
G75*
G02*
X99252000Y-80866999I0J-249999D01*
G01*
X99252000Y-81392001D01*
G75*
G02*
X99002001Y-81642000I-249999J0D01*
G01*
X98101999Y-81642000D01*
G75*
G02*
X97852000Y-81392001I0J249999D01*
G01*
X97852000Y-80866999D01*
G75*
G02*
X98101999Y-80617000I249999J0D01*
G01*
G37*
%TD*%
%TO.C,R45*%
G36*
G01*
X113341999Y-82442000D02*
X114242001Y-82442000D01*
G75*
G02*
X114492000Y-82691999I0J-249999D01*
G01*
X114492000Y-83217001D01*
G75*
G02*
X114242001Y-83467000I-249999J0D01*
G01*
X113341999Y-83467000D01*
G75*
G02*
X113092000Y-83217001I0J249999D01*
G01*
X113092000Y-82691999D01*
G75*
G02*
X113341999Y-82442000I249999J0D01*
G01*
G37*
G36*
G01*
X113341999Y-80617000D02*
X114242001Y-80617000D01*
G75*
G02*
X114492000Y-80866999I0J-249999D01*
G01*
X114492000Y-81392001D01*
G75*
G02*
X114242001Y-81642000I-249999J0D01*
G01*
X113341999Y-81642000D01*
G75*
G02*
X113092000Y-81392001I0J249999D01*
G01*
X113092000Y-80866999D01*
G75*
G02*
X113341999Y-80617000I249999J0D01*
G01*
G37*
%TD*%
%TO.C,R44*%
G36*
G01*
X102470000Y-46666999D02*
X102470000Y-47567001D01*
G75*
G02*
X102220001Y-47817000I-249999J0D01*
G01*
X101694999Y-47817000D01*
G75*
G02*
X101445000Y-47567001I0J249999D01*
G01*
X101445000Y-46666999D01*
G75*
G02*
X101694999Y-46417000I249999J0D01*
G01*
X102220001Y-46417000D01*
G75*
G02*
X102470000Y-46666999I0J-249999D01*
G01*
G37*
G36*
G01*
X104295000Y-46666999D02*
X104295000Y-47567001D01*
G75*
G02*
X104045001Y-47817000I-249999J0D01*
G01*
X103519999Y-47817000D01*
G75*
G02*
X103270000Y-47567001I0J249999D01*
G01*
X103270000Y-46666999D01*
G75*
G02*
X103519999Y-46417000I249999J0D01*
G01*
X104045001Y-46417000D01*
G75*
G02*
X104295000Y-46666999I0J-249999D01*
G01*
G37*
%TD*%
%TO.C,R43*%
G36*
G01*
X102470000Y-33966999D02*
X102470000Y-34867001D01*
G75*
G02*
X102220001Y-35117000I-249999J0D01*
G01*
X101694999Y-35117000D01*
G75*
G02*
X101445000Y-34867001I0J249999D01*
G01*
X101445000Y-33966999D01*
G75*
G02*
X101694999Y-33717000I249999J0D01*
G01*
X102220001Y-33717000D01*
G75*
G02*
X102470000Y-33966999I0J-249999D01*
G01*
G37*
G36*
G01*
X104295000Y-33966999D02*
X104295000Y-34867001D01*
G75*
G02*
X104045001Y-35117000I-249999J0D01*
G01*
X103519999Y-35117000D01*
G75*
G02*
X103270000Y-34867001I0J249999D01*
G01*
X103270000Y-33966999D01*
G75*
G02*
X103519999Y-33717000I249999J0D01*
G01*
X104045001Y-33717000D01*
G75*
G02*
X104295000Y-33966999I0J-249999D01*
G01*
G37*
%TD*%
%TO.C,R42*%
G36*
G01*
X95561999Y-67202000D02*
X96462001Y-67202000D01*
G75*
G02*
X96712000Y-67451999I0J-249999D01*
G01*
X96712000Y-67977001D01*
G75*
G02*
X96462001Y-68227000I-249999J0D01*
G01*
X95561999Y-68227000D01*
G75*
G02*
X95312000Y-67977001I0J249999D01*
G01*
X95312000Y-67451999D01*
G75*
G02*
X95561999Y-67202000I249999J0D01*
G01*
G37*
G36*
G01*
X95561999Y-65377000D02*
X96462001Y-65377000D01*
G75*
G02*
X96712000Y-65626999I0J-249999D01*
G01*
X96712000Y-66152001D01*
G75*
G02*
X96462001Y-66402000I-249999J0D01*
G01*
X95561999Y-66402000D01*
G75*
G02*
X95312000Y-66152001I0J249999D01*
G01*
X95312000Y-65626999D01*
G75*
G02*
X95561999Y-65377000I249999J0D01*
G01*
G37*
%TD*%
%TO.C,R41*%
G36*
G01*
X115881999Y-67202000D02*
X116782001Y-67202000D01*
G75*
G02*
X117032000Y-67451999I0J-249999D01*
G01*
X117032000Y-67977001D01*
G75*
G02*
X116782001Y-68227000I-249999J0D01*
G01*
X115881999Y-68227000D01*
G75*
G02*
X115632000Y-67977001I0J249999D01*
G01*
X115632000Y-67451999D01*
G75*
G02*
X115881999Y-67202000I249999J0D01*
G01*
G37*
G36*
G01*
X115881999Y-65377000D02*
X116782001Y-65377000D01*
G75*
G02*
X117032000Y-65626999I0J-249999D01*
G01*
X117032000Y-66152001D01*
G75*
G02*
X116782001Y-66402000I-249999J0D01*
G01*
X115881999Y-66402000D01*
G75*
G02*
X115632000Y-66152001I0J249999D01*
G01*
X115632000Y-65626999D01*
G75*
G02*
X115881999Y-65377000I249999J0D01*
G01*
G37*
%TD*%
%TO.C,R40*%
G36*
G01*
X100641999Y-74822000D02*
X101542001Y-74822000D01*
G75*
G02*
X101792000Y-75071999I0J-249999D01*
G01*
X101792000Y-75597001D01*
G75*
G02*
X101542001Y-75847000I-249999J0D01*
G01*
X100641999Y-75847000D01*
G75*
G02*
X100392000Y-75597001I0J249999D01*
G01*
X100392000Y-75071999D01*
G75*
G02*
X100641999Y-74822000I249999J0D01*
G01*
G37*
G36*
G01*
X100641999Y-72997000D02*
X101542001Y-72997000D01*
G75*
G02*
X101792000Y-73246999I0J-249999D01*
G01*
X101792000Y-73772001D01*
G75*
G02*
X101542001Y-74022000I-249999J0D01*
G01*
X100641999Y-74022000D01*
G75*
G02*
X100392000Y-73772001I0J249999D01*
G01*
X100392000Y-73246999D01*
G75*
G02*
X100641999Y-72997000I249999J0D01*
G01*
G37*
%TD*%
%TO.C,R39*%
G36*
G01*
X110801999Y-74822000D02*
X111702001Y-74822000D01*
G75*
G02*
X111952000Y-75071999I0J-249999D01*
G01*
X111952000Y-75597001D01*
G75*
G02*
X111702001Y-75847000I-249999J0D01*
G01*
X110801999Y-75847000D01*
G75*
G02*
X110552000Y-75597001I0J249999D01*
G01*
X110552000Y-75071999D01*
G75*
G02*
X110801999Y-74822000I249999J0D01*
G01*
G37*
G36*
G01*
X110801999Y-72997000D02*
X111702001Y-72997000D01*
G75*
G02*
X111952000Y-73246999I0J-249999D01*
G01*
X111952000Y-73772001D01*
G75*
G02*
X111702001Y-74022000I-249999J0D01*
G01*
X110801999Y-74022000D01*
G75*
G02*
X110552000Y-73772001I0J249999D01*
G01*
X110552000Y-73246999D01*
G75*
G02*
X110801999Y-72997000I249999J0D01*
G01*
G37*
%TD*%
%TO.C,R38*%
G36*
G01*
X69196000Y-27997999D02*
X69196000Y-28898001D01*
G75*
G02*
X68946001Y-29148000I-249999J0D01*
G01*
X68420999Y-29148000D01*
G75*
G02*
X68171000Y-28898001I0J249999D01*
G01*
X68171000Y-27997999D01*
G75*
G02*
X68420999Y-27748000I249999J0D01*
G01*
X68946001Y-27748000D01*
G75*
G02*
X69196000Y-27997999I0J-249999D01*
G01*
G37*
G36*
G01*
X71021000Y-27997999D02*
X71021000Y-28898001D01*
G75*
G02*
X70771001Y-29148000I-249999J0D01*
G01*
X70245999Y-29148000D01*
G75*
G02*
X69996000Y-28898001I0J249999D01*
G01*
X69996000Y-27997999D01*
G75*
G02*
X70245999Y-27748000I249999J0D01*
G01*
X70771001Y-27748000D01*
G75*
G02*
X71021000Y-27997999I0J-249999D01*
G01*
G37*
%TD*%
%TO.C,R37*%
G36*
G01*
X69196000Y-24441999D02*
X69196000Y-25342001D01*
G75*
G02*
X68946001Y-25592000I-249999J0D01*
G01*
X68420999Y-25592000D01*
G75*
G02*
X68171000Y-25342001I0J249999D01*
G01*
X68171000Y-24441999D01*
G75*
G02*
X68420999Y-24192000I249999J0D01*
G01*
X68946001Y-24192000D01*
G75*
G02*
X69196000Y-24441999I0J-249999D01*
G01*
G37*
G36*
G01*
X71021000Y-24441999D02*
X71021000Y-25342001D01*
G75*
G02*
X70771001Y-25592000I-249999J0D01*
G01*
X70245999Y-25592000D01*
G75*
G02*
X69996000Y-25342001I0J249999D01*
G01*
X69996000Y-24441999D01*
G75*
G02*
X70245999Y-24192000I249999J0D01*
G01*
X70771001Y-24192000D01*
G75*
G02*
X71021000Y-24441999I0J-249999D01*
G01*
G37*
%TD*%
%TO.C,R36*%
G36*
G01*
X78848000Y-87433999D02*
X78848000Y-88334001D01*
G75*
G02*
X78598001Y-88584000I-249999J0D01*
G01*
X78072999Y-88584000D01*
G75*
G02*
X77823000Y-88334001I0J249999D01*
G01*
X77823000Y-87433999D01*
G75*
G02*
X78072999Y-87184000I249999J0D01*
G01*
X78598001Y-87184000D01*
G75*
G02*
X78848000Y-87433999I0J-249999D01*
G01*
G37*
G36*
G01*
X80673000Y-87433999D02*
X80673000Y-88334001D01*
G75*
G02*
X80423001Y-88584000I-249999J0D01*
G01*
X79897999Y-88584000D01*
G75*
G02*
X79648000Y-88334001I0J249999D01*
G01*
X79648000Y-87433999D01*
G75*
G02*
X79897999Y-87184000I249999J0D01*
G01*
X80423001Y-87184000D01*
G75*
G02*
X80673000Y-87433999I0J-249999D01*
G01*
G37*
%TD*%
%TO.C,R35*%
G36*
G01*
X85236000Y-88334001D02*
X85236000Y-87433999D01*
G75*
G02*
X85485999Y-87184000I249999J0D01*
G01*
X86011001Y-87184000D01*
G75*
G02*
X86261000Y-87433999I0J-249999D01*
G01*
X86261000Y-88334001D01*
G75*
G02*
X86011001Y-88584000I-249999J0D01*
G01*
X85485999Y-88584000D01*
G75*
G02*
X85236000Y-88334001I0J249999D01*
G01*
G37*
G36*
G01*
X83411000Y-88334001D02*
X83411000Y-87433999D01*
G75*
G02*
X83660999Y-87184000I249999J0D01*
G01*
X84186001Y-87184000D01*
G75*
G02*
X84436000Y-87433999I0J-249999D01*
G01*
X84436000Y-88334001D01*
G75*
G02*
X84186001Y-88584000I-249999J0D01*
G01*
X83660999Y-88584000D01*
G75*
G02*
X83411000Y-88334001I0J249999D01*
G01*
G37*
%TD*%
%TO.C,R34*%
G36*
G01*
X59886001Y-25000000D02*
X58985999Y-25000000D01*
G75*
G02*
X58736000Y-24750001I0J249999D01*
G01*
X58736000Y-24224999D01*
G75*
G02*
X58985999Y-23975000I249999J0D01*
G01*
X59886001Y-23975000D01*
G75*
G02*
X60136000Y-24224999I0J-249999D01*
G01*
X60136000Y-24750001D01*
G75*
G02*
X59886001Y-25000000I-249999J0D01*
G01*
G37*
G36*
G01*
X59886001Y-26825000D02*
X58985999Y-26825000D01*
G75*
G02*
X58736000Y-26575001I0J249999D01*
G01*
X58736000Y-26049999D01*
G75*
G02*
X58985999Y-25800000I249999J0D01*
G01*
X59886001Y-25800000D01*
G75*
G02*
X60136000Y-26049999I0J-249999D01*
G01*
X60136000Y-26575001D01*
G75*
G02*
X59886001Y-26825000I-249999J0D01*
G01*
G37*
%TD*%
%TO.C,R33*%
G36*
G01*
X102343000Y-23171999D02*
X102343000Y-24072001D01*
G75*
G02*
X102093001Y-24322000I-249999J0D01*
G01*
X101567999Y-24322000D01*
G75*
G02*
X101318000Y-24072001I0J249999D01*
G01*
X101318000Y-23171999D01*
G75*
G02*
X101567999Y-22922000I249999J0D01*
G01*
X102093001Y-22922000D01*
G75*
G02*
X102343000Y-23171999I0J-249999D01*
G01*
G37*
G36*
G01*
X104168000Y-23171999D02*
X104168000Y-24072001D01*
G75*
G02*
X103918001Y-24322000I-249999J0D01*
G01*
X103392999Y-24322000D01*
G75*
G02*
X103143000Y-24072001I0J249999D01*
G01*
X103143000Y-23171999D01*
G75*
G02*
X103392999Y-22922000I249999J0D01*
G01*
X103918001Y-22922000D01*
G75*
G02*
X104168000Y-23171999I0J-249999D01*
G01*
G37*
%TD*%
%TO.C,R32*%
G36*
G01*
X102343000Y-25711999D02*
X102343000Y-26612001D01*
G75*
G02*
X102093001Y-26862000I-249999J0D01*
G01*
X101567999Y-26862000D01*
G75*
G02*
X101318000Y-26612001I0J249999D01*
G01*
X101318000Y-25711999D01*
G75*
G02*
X101567999Y-25462000I249999J0D01*
G01*
X102093001Y-25462000D01*
G75*
G02*
X102343000Y-25711999I0J-249999D01*
G01*
G37*
G36*
G01*
X104168000Y-25711999D02*
X104168000Y-26612001D01*
G75*
G02*
X103918001Y-26862000I-249999J0D01*
G01*
X103392999Y-26862000D01*
G75*
G02*
X103143000Y-26612001I0J249999D01*
G01*
X103143000Y-25711999D01*
G75*
G02*
X103392999Y-25462000I249999J0D01*
G01*
X103918001Y-25462000D01*
G75*
G02*
X104168000Y-25711999I0J-249999D01*
G01*
G37*
%TD*%
%TO.C,R31*%
G36*
G01*
X81222001Y-83928000D02*
X80321999Y-83928000D01*
G75*
G02*
X80072000Y-83678001I0J249999D01*
G01*
X80072000Y-83152999D01*
G75*
G02*
X80321999Y-82903000I249999J0D01*
G01*
X81222001Y-82903000D01*
G75*
G02*
X81472000Y-83152999I0J-249999D01*
G01*
X81472000Y-83678001D01*
G75*
G02*
X81222001Y-83928000I-249999J0D01*
G01*
G37*
G36*
G01*
X81222001Y-85753000D02*
X80321999Y-85753000D01*
G75*
G02*
X80072000Y-85503001I0J249999D01*
G01*
X80072000Y-84977999D01*
G75*
G02*
X80321999Y-84728000I249999J0D01*
G01*
X81222001Y-84728000D01*
G75*
G02*
X81472000Y-84977999I0J-249999D01*
G01*
X81472000Y-85503001D01*
G75*
G02*
X81222001Y-85753000I-249999J0D01*
G01*
G37*
%TD*%
%TO.C,R30*%
G36*
G01*
X83762001Y-83928000D02*
X82861999Y-83928000D01*
G75*
G02*
X82612000Y-83678001I0J249999D01*
G01*
X82612000Y-83152999D01*
G75*
G02*
X82861999Y-82903000I249999J0D01*
G01*
X83762001Y-82903000D01*
G75*
G02*
X84012000Y-83152999I0J-249999D01*
G01*
X84012000Y-83678001D01*
G75*
G02*
X83762001Y-83928000I-249999J0D01*
G01*
G37*
G36*
G01*
X83762001Y-85753000D02*
X82861999Y-85753000D01*
G75*
G02*
X82612000Y-85503001I0J249999D01*
G01*
X82612000Y-84977999D01*
G75*
G02*
X82861999Y-84728000I249999J0D01*
G01*
X83762001Y-84728000D01*
G75*
G02*
X84012000Y-84977999I0J-249999D01*
G01*
X84012000Y-85503001D01*
G75*
G02*
X83762001Y-85753000I-249999J0D01*
G01*
G37*
%TD*%
%TO.C,R29*%
G36*
G01*
X93453000Y-23425999D02*
X93453000Y-24326001D01*
G75*
G02*
X93203001Y-24576000I-249999J0D01*
G01*
X92677999Y-24576000D01*
G75*
G02*
X92428000Y-24326001I0J249999D01*
G01*
X92428000Y-23425999D01*
G75*
G02*
X92677999Y-23176000I249999J0D01*
G01*
X93203001Y-23176000D01*
G75*
G02*
X93453000Y-23425999I0J-249999D01*
G01*
G37*
G36*
G01*
X95278000Y-23425999D02*
X95278000Y-24326001D01*
G75*
G02*
X95028001Y-24576000I-249999J0D01*
G01*
X94502999Y-24576000D01*
G75*
G02*
X94253000Y-24326001I0J249999D01*
G01*
X94253000Y-23425999D01*
G75*
G02*
X94502999Y-23176000I249999J0D01*
G01*
X95028001Y-23176000D01*
G75*
G02*
X95278000Y-23425999I0J-249999D01*
G01*
G37*
%TD*%
D13*
%TO.C,J2*%
X110410000Y-117927000D03*
X110410000Y-115427000D03*
X100410000Y-117927000D03*
X100410000Y-115427000D03*
X105410000Y-110427000D03*
D14*
X105410000Y-115427000D03*
D15*
X107910000Y-110427000D03*
X102910000Y-110427000D03*
X100410000Y-110427000D03*
X110410000Y-110427000D03*
%TD*%
%TO.C,C49*%
G36*
G01*
X111540000Y-102531000D02*
X111540000Y-101431000D01*
G75*
G02*
X111790000Y-101181000I250000J0D01*
G01*
X114790000Y-101181000D01*
G75*
G02*
X115040000Y-101431000I0J-250000D01*
G01*
X115040000Y-102531000D01*
G75*
G02*
X114790000Y-102781000I-250000J0D01*
G01*
X111790000Y-102781000D01*
G75*
G02*
X111540000Y-102531000I0J250000D01*
G01*
G37*
G36*
G01*
X105940000Y-102531000D02*
X105940000Y-101431000D01*
G75*
G02*
X106190000Y-101181000I250000J0D01*
G01*
X109190000Y-101181000D01*
G75*
G02*
X109440000Y-101431000I0J-250000D01*
G01*
X109440000Y-102531000D01*
G75*
G02*
X109190000Y-102781000I-250000J0D01*
G01*
X106190000Y-102781000D01*
G75*
G02*
X105940000Y-102531000I0J250000D01*
G01*
G37*
%TD*%
%TO.C,C48*%
G36*
G01*
X92260000Y-100998000D02*
X92260000Y-101948000D01*
G75*
G02*
X92010000Y-102198000I-250000J0D01*
G01*
X91510000Y-102198000D01*
G75*
G02*
X91260000Y-101948000I0J250000D01*
G01*
X91260000Y-100998000D01*
G75*
G02*
X91510000Y-100748000I250000J0D01*
G01*
X92010000Y-100748000D01*
G75*
G02*
X92260000Y-100998000I0J-250000D01*
G01*
G37*
G36*
G01*
X94160000Y-100998000D02*
X94160000Y-101948000D01*
G75*
G02*
X93910000Y-102198000I-250000J0D01*
G01*
X93410000Y-102198000D01*
G75*
G02*
X93160000Y-101948000I0J250000D01*
G01*
X93160000Y-100998000D01*
G75*
G02*
X93410000Y-100748000I250000J0D01*
G01*
X93910000Y-100748000D01*
G75*
G02*
X94160000Y-100998000I0J-250000D01*
G01*
G37*
%TD*%
%TO.C,C47*%
G36*
G01*
X92260000Y-94394000D02*
X92260000Y-95344000D01*
G75*
G02*
X92010000Y-95594000I-250000J0D01*
G01*
X91510000Y-95594000D01*
G75*
G02*
X91260000Y-95344000I0J250000D01*
G01*
X91260000Y-94394000D01*
G75*
G02*
X91510000Y-94144000I250000J0D01*
G01*
X92010000Y-94144000D01*
G75*
G02*
X92260000Y-94394000I0J-250000D01*
G01*
G37*
G36*
G01*
X94160000Y-94394000D02*
X94160000Y-95344000D01*
G75*
G02*
X93910000Y-95594000I-250000J0D01*
G01*
X93410000Y-95594000D01*
G75*
G02*
X93160000Y-95344000I0J250000D01*
G01*
X93160000Y-94394000D01*
G75*
G02*
X93410000Y-94144000I250000J0D01*
G01*
X93910000Y-94144000D01*
G75*
G02*
X94160000Y-94394000I0J-250000D01*
G01*
G37*
%TD*%
%TO.C,C46*%
G36*
G01*
X104107000Y-84640000D02*
X103157000Y-84640000D01*
G75*
G02*
X102907000Y-84390000I0J250000D01*
G01*
X102907000Y-83890000D01*
G75*
G02*
X103157000Y-83640000I250000J0D01*
G01*
X104107000Y-83640000D01*
G75*
G02*
X104357000Y-83890000I0J-250000D01*
G01*
X104357000Y-84390000D01*
G75*
G02*
X104107000Y-84640000I-250000J0D01*
G01*
G37*
G36*
G01*
X104107000Y-86540000D02*
X103157000Y-86540000D01*
G75*
G02*
X102907000Y-86290000I0J250000D01*
G01*
X102907000Y-85790000D01*
G75*
G02*
X103157000Y-85540000I250000J0D01*
G01*
X104107000Y-85540000D01*
G75*
G02*
X104357000Y-85790000I0J-250000D01*
G01*
X104357000Y-86290000D01*
G75*
G02*
X104107000Y-86540000I-250000J0D01*
G01*
G37*
%TD*%
%TO.C,C45*%
G36*
G01*
X109187000Y-84640000D02*
X108237000Y-84640000D01*
G75*
G02*
X107987000Y-84390000I0J250000D01*
G01*
X107987000Y-83890000D01*
G75*
G02*
X108237000Y-83640000I250000J0D01*
G01*
X109187000Y-83640000D01*
G75*
G02*
X109437000Y-83890000I0J-250000D01*
G01*
X109437000Y-84390000D01*
G75*
G02*
X109187000Y-84640000I-250000J0D01*
G01*
G37*
G36*
G01*
X109187000Y-86540000D02*
X108237000Y-86540000D01*
G75*
G02*
X107987000Y-86290000I0J250000D01*
G01*
X107987000Y-85790000D01*
G75*
G02*
X108237000Y-85540000I250000J0D01*
G01*
X109187000Y-85540000D01*
G75*
G02*
X109437000Y-85790000I0J-250000D01*
G01*
X109437000Y-86290000D01*
G75*
G02*
X109187000Y-86540000I-250000J0D01*
G01*
G37*
%TD*%
%TO.C,C44*%
G36*
G01*
X100145000Y-92931000D02*
X100145000Y-91981000D01*
G75*
G02*
X100395000Y-91731000I250000J0D01*
G01*
X100895000Y-91731000D01*
G75*
G02*
X101145000Y-91981000I0J-250000D01*
G01*
X101145000Y-92931000D01*
G75*
G02*
X100895000Y-93181000I-250000J0D01*
G01*
X100395000Y-93181000D01*
G75*
G02*
X100145000Y-92931000I0J250000D01*
G01*
G37*
G36*
G01*
X98245000Y-92931000D02*
X98245000Y-91981000D01*
G75*
G02*
X98495000Y-91731000I250000J0D01*
G01*
X98995000Y-91731000D01*
G75*
G02*
X99245000Y-91981000I0J-250000D01*
G01*
X99245000Y-92931000D01*
G75*
G02*
X98995000Y-93181000I-250000J0D01*
G01*
X98495000Y-93181000D01*
G75*
G02*
X98245000Y-92931000I0J250000D01*
G01*
G37*
%TD*%
%TO.C,C43*%
G36*
G01*
X111540000Y-93641000D02*
X111540000Y-92541000D01*
G75*
G02*
X111790000Y-92291000I250000J0D01*
G01*
X114790000Y-92291000D01*
G75*
G02*
X115040000Y-92541000I0J-250000D01*
G01*
X115040000Y-93641000D01*
G75*
G02*
X114790000Y-93891000I-250000J0D01*
G01*
X111790000Y-93891000D01*
G75*
G02*
X111540000Y-93641000I0J250000D01*
G01*
G37*
G36*
G01*
X105940000Y-93641000D02*
X105940000Y-92541000D01*
G75*
G02*
X106190000Y-92291000I250000J0D01*
G01*
X109190000Y-92291000D01*
G75*
G02*
X109440000Y-92541000I0J-250000D01*
G01*
X109440000Y-93641000D01*
G75*
G02*
X109190000Y-93891000I-250000J0D01*
G01*
X106190000Y-93891000D01*
G75*
G02*
X105940000Y-93641000I0J250000D01*
G01*
G37*
%TD*%
%TO.C,C42*%
G36*
G01*
X99027000Y-77782000D02*
X98077000Y-77782000D01*
G75*
G02*
X97827000Y-77532000I0J250000D01*
G01*
X97827000Y-77032000D01*
G75*
G02*
X98077000Y-76782000I250000J0D01*
G01*
X99027000Y-76782000D01*
G75*
G02*
X99277000Y-77032000I0J-250000D01*
G01*
X99277000Y-77532000D01*
G75*
G02*
X99027000Y-77782000I-250000J0D01*
G01*
G37*
G36*
G01*
X99027000Y-79682000D02*
X98077000Y-79682000D01*
G75*
G02*
X97827000Y-79432000I0J250000D01*
G01*
X97827000Y-78932000D01*
G75*
G02*
X98077000Y-78682000I250000J0D01*
G01*
X99027000Y-78682000D01*
G75*
G02*
X99277000Y-78932000I0J-250000D01*
G01*
X99277000Y-79432000D01*
G75*
G02*
X99027000Y-79682000I-250000J0D01*
G01*
G37*
%TD*%
D16*
%TO.C,C41*%
X90876000Y-71120000D03*
D17*
X87376000Y-71120000D03*
%TD*%
%TO.C,C40*%
G36*
G01*
X114460000Y-45916000D02*
X115410000Y-45916000D01*
G75*
G02*
X115660000Y-46166000I0J-250000D01*
G01*
X115660000Y-46666000D01*
G75*
G02*
X115410000Y-46916000I-250000J0D01*
G01*
X114460000Y-46916000D01*
G75*
G02*
X114210000Y-46666000I0J250000D01*
G01*
X114210000Y-46166000D01*
G75*
G02*
X114460000Y-45916000I250000J0D01*
G01*
G37*
G36*
G01*
X114460000Y-44016000D02*
X115410000Y-44016000D01*
G75*
G02*
X115660000Y-44266000I0J-250000D01*
G01*
X115660000Y-44766000D01*
G75*
G02*
X115410000Y-45016000I-250000J0D01*
G01*
X114460000Y-45016000D01*
G75*
G02*
X114210000Y-44766000I0J250000D01*
G01*
X114210000Y-44266000D01*
G75*
G02*
X114460000Y-44016000I250000J0D01*
G01*
G37*
%TD*%
%TO.C,C39*%
G36*
G01*
X115410000Y-32316000D02*
X114460000Y-32316000D01*
G75*
G02*
X114210000Y-32066000I0J250000D01*
G01*
X114210000Y-31566000D01*
G75*
G02*
X114460000Y-31316000I250000J0D01*
G01*
X115410000Y-31316000D01*
G75*
G02*
X115660000Y-31566000I0J-250000D01*
G01*
X115660000Y-32066000D01*
G75*
G02*
X115410000Y-32316000I-250000J0D01*
G01*
G37*
G36*
G01*
X115410000Y-34216000D02*
X114460000Y-34216000D01*
G75*
G02*
X114210000Y-33966000I0J250000D01*
G01*
X114210000Y-33466000D01*
G75*
G02*
X114460000Y-33216000I250000J0D01*
G01*
X115410000Y-33216000D01*
G75*
G02*
X115660000Y-33466000I0J-250000D01*
G01*
X115660000Y-33966000D01*
G75*
G02*
X115410000Y-34216000I-250000J0D01*
G01*
G37*
%TD*%
%TO.C,C38*%
G36*
G01*
X100272000Y-85692000D02*
X100272000Y-84742000D01*
G75*
G02*
X100522000Y-84492000I250000J0D01*
G01*
X101022000Y-84492000D01*
G75*
G02*
X101272000Y-84742000I0J-250000D01*
G01*
X101272000Y-85692000D01*
G75*
G02*
X101022000Y-85942000I-250000J0D01*
G01*
X100522000Y-85942000D01*
G75*
G02*
X100272000Y-85692000I0J250000D01*
G01*
G37*
G36*
G01*
X98372000Y-85692000D02*
X98372000Y-84742000D01*
G75*
G02*
X98622000Y-84492000I250000J0D01*
G01*
X99122000Y-84492000D01*
G75*
G02*
X99372000Y-84742000I0J-250000D01*
G01*
X99372000Y-85692000D01*
G75*
G02*
X99122000Y-85942000I-250000J0D01*
G01*
X98622000Y-85942000D01*
G75*
G02*
X98372000Y-85692000I0J250000D01*
G01*
G37*
%TD*%
%TO.C,C37*%
G36*
G01*
X112072000Y-84869000D02*
X112072000Y-85819000D01*
G75*
G02*
X111822000Y-86069000I-250000J0D01*
G01*
X111322000Y-86069000D01*
G75*
G02*
X111072000Y-85819000I0J250000D01*
G01*
X111072000Y-84869000D01*
G75*
G02*
X111322000Y-84619000I250000J0D01*
G01*
X111822000Y-84619000D01*
G75*
G02*
X112072000Y-84869000I0J-250000D01*
G01*
G37*
G36*
G01*
X113972000Y-84869000D02*
X113972000Y-85819000D01*
G75*
G02*
X113722000Y-86069000I-250000J0D01*
G01*
X113222000Y-86069000D01*
G75*
G02*
X112972000Y-85819000I0J250000D01*
G01*
X112972000Y-84869000D01*
G75*
G02*
X113222000Y-84619000I250000J0D01*
G01*
X113722000Y-84619000D01*
G75*
G02*
X113972000Y-84869000I0J-250000D01*
G01*
G37*
%TD*%
%TO.C,C36*%
G36*
G01*
X97975000Y-46642000D02*
X97975000Y-47592000D01*
G75*
G02*
X97725000Y-47842000I-250000J0D01*
G01*
X97225000Y-47842000D01*
G75*
G02*
X96975000Y-47592000I0J250000D01*
G01*
X96975000Y-46642000D01*
G75*
G02*
X97225000Y-46392000I250000J0D01*
G01*
X97725000Y-46392000D01*
G75*
G02*
X97975000Y-46642000I0J-250000D01*
G01*
G37*
G36*
G01*
X99875000Y-46642000D02*
X99875000Y-47592000D01*
G75*
G02*
X99625000Y-47842000I-250000J0D01*
G01*
X99125000Y-47842000D01*
G75*
G02*
X98875000Y-47592000I0J250000D01*
G01*
X98875000Y-46642000D01*
G75*
G02*
X99125000Y-46392000I250000J0D01*
G01*
X99625000Y-46392000D01*
G75*
G02*
X99875000Y-46642000I0J-250000D01*
G01*
G37*
%TD*%
%TO.C,C35*%
G36*
G01*
X98610000Y-33942000D02*
X98610000Y-34892000D01*
G75*
G02*
X98360000Y-35142000I-250000J0D01*
G01*
X97860000Y-35142000D01*
G75*
G02*
X97610000Y-34892000I0J250000D01*
G01*
X97610000Y-33942000D01*
G75*
G02*
X97860000Y-33692000I250000J0D01*
G01*
X98360000Y-33692000D01*
G75*
G02*
X98610000Y-33942000I0J-250000D01*
G01*
G37*
G36*
G01*
X100510000Y-33942000D02*
X100510000Y-34892000D01*
G75*
G02*
X100260000Y-35142000I-250000J0D01*
G01*
X99760000Y-35142000D01*
G75*
G02*
X99510000Y-34892000I0J250000D01*
G01*
X99510000Y-33942000D01*
G75*
G02*
X99760000Y-33692000I250000J0D01*
G01*
X100260000Y-33692000D01*
G75*
G02*
X100510000Y-33942000I0J-250000D01*
G01*
G37*
%TD*%
%TO.C,C34*%
G36*
G01*
X95537000Y-71062000D02*
X96487000Y-71062000D01*
G75*
G02*
X96737000Y-71312000I0J-250000D01*
G01*
X96737000Y-71812000D01*
G75*
G02*
X96487000Y-72062000I-250000J0D01*
G01*
X95537000Y-72062000D01*
G75*
G02*
X95287000Y-71812000I0J250000D01*
G01*
X95287000Y-71312000D01*
G75*
G02*
X95537000Y-71062000I250000J0D01*
G01*
G37*
G36*
G01*
X95537000Y-69162000D02*
X96487000Y-69162000D01*
G75*
G02*
X96737000Y-69412000I0J-250000D01*
G01*
X96737000Y-69912000D01*
G75*
G02*
X96487000Y-70162000I-250000J0D01*
G01*
X95537000Y-70162000D01*
G75*
G02*
X95287000Y-69912000I0J250000D01*
G01*
X95287000Y-69412000D01*
G75*
G02*
X95537000Y-69162000I250000J0D01*
G01*
G37*
%TD*%
%TO.C,C33*%
G36*
G01*
X115857000Y-71062000D02*
X116807000Y-71062000D01*
G75*
G02*
X117057000Y-71312000I0J-250000D01*
G01*
X117057000Y-71812000D01*
G75*
G02*
X116807000Y-72062000I-250000J0D01*
G01*
X115857000Y-72062000D01*
G75*
G02*
X115607000Y-71812000I0J250000D01*
G01*
X115607000Y-71312000D01*
G75*
G02*
X115857000Y-71062000I250000J0D01*
G01*
G37*
G36*
G01*
X115857000Y-69162000D02*
X116807000Y-69162000D01*
G75*
G02*
X117057000Y-69412000I0J-250000D01*
G01*
X117057000Y-69912000D01*
G75*
G02*
X116807000Y-70162000I-250000J0D01*
G01*
X115857000Y-70162000D01*
G75*
G02*
X115607000Y-69912000I0J250000D01*
G01*
X115607000Y-69412000D01*
G75*
G02*
X115857000Y-69162000I250000J0D01*
G01*
G37*
%TD*%
%TO.C,C32*%
G36*
G01*
X98077000Y-74872000D02*
X99027000Y-74872000D01*
G75*
G02*
X99277000Y-75122000I0J-250000D01*
G01*
X99277000Y-75622000D01*
G75*
G02*
X99027000Y-75872000I-250000J0D01*
G01*
X98077000Y-75872000D01*
G75*
G02*
X97827000Y-75622000I0J250000D01*
G01*
X97827000Y-75122000D01*
G75*
G02*
X98077000Y-74872000I250000J0D01*
G01*
G37*
G36*
G01*
X98077000Y-72972000D02*
X99027000Y-72972000D01*
G75*
G02*
X99277000Y-73222000I0J-250000D01*
G01*
X99277000Y-73722000D01*
G75*
G02*
X99027000Y-73972000I-250000J0D01*
G01*
X98077000Y-73972000D01*
G75*
G02*
X97827000Y-73722000I0J250000D01*
G01*
X97827000Y-73222000D01*
G75*
G02*
X98077000Y-72972000I250000J0D01*
G01*
G37*
%TD*%
%TO.C,C31*%
G36*
G01*
X113317000Y-74872000D02*
X114267000Y-74872000D01*
G75*
G02*
X114517000Y-75122000I0J-250000D01*
G01*
X114517000Y-75622000D01*
G75*
G02*
X114267000Y-75872000I-250000J0D01*
G01*
X113317000Y-75872000D01*
G75*
G02*
X113067000Y-75622000I0J250000D01*
G01*
X113067000Y-75122000D01*
G75*
G02*
X113317000Y-74872000I250000J0D01*
G01*
G37*
G36*
G01*
X113317000Y-72972000D02*
X114267000Y-72972000D01*
G75*
G02*
X114517000Y-73222000I0J-250000D01*
G01*
X114517000Y-73722000D01*
G75*
G02*
X114267000Y-73972000I-250000J0D01*
G01*
X113317000Y-73972000D01*
G75*
G02*
X113067000Y-73722000I0J250000D01*
G01*
X113067000Y-73222000D01*
G75*
G02*
X113317000Y-72972000I250000J0D01*
G01*
G37*
%TD*%
%TO.C,C30*%
G36*
G01*
X65082000Y-27973000D02*
X65082000Y-28923000D01*
G75*
G02*
X64832000Y-29173000I-250000J0D01*
G01*
X64332000Y-29173000D01*
G75*
G02*
X64082000Y-28923000I0J250000D01*
G01*
X64082000Y-27973000D01*
G75*
G02*
X64332000Y-27723000I250000J0D01*
G01*
X64832000Y-27723000D01*
G75*
G02*
X65082000Y-27973000I0J-250000D01*
G01*
G37*
G36*
G01*
X66982000Y-27973000D02*
X66982000Y-28923000D01*
G75*
G02*
X66732000Y-29173000I-250000J0D01*
G01*
X66232000Y-29173000D01*
G75*
G02*
X65982000Y-28923000I0J250000D01*
G01*
X65982000Y-27973000D01*
G75*
G02*
X66232000Y-27723000I250000J0D01*
G01*
X66732000Y-27723000D01*
G75*
G02*
X66982000Y-27973000I0J-250000D01*
G01*
G37*
%TD*%
%TO.C,C28*%
G36*
G01*
X65082000Y-24417000D02*
X65082000Y-25367000D01*
G75*
G02*
X64832000Y-25617000I-250000J0D01*
G01*
X64332000Y-25617000D01*
G75*
G02*
X64082000Y-25367000I0J250000D01*
G01*
X64082000Y-24417000D01*
G75*
G02*
X64332000Y-24167000I250000J0D01*
G01*
X64832000Y-24167000D01*
G75*
G02*
X65082000Y-24417000I0J-250000D01*
G01*
G37*
G36*
G01*
X66982000Y-24417000D02*
X66982000Y-25367000D01*
G75*
G02*
X66732000Y-25617000I-250000J0D01*
G01*
X66232000Y-25617000D01*
G75*
G02*
X65982000Y-25367000I0J250000D01*
G01*
X65982000Y-24417000D01*
G75*
G02*
X66232000Y-24167000I250000J0D01*
G01*
X66732000Y-24167000D01*
G75*
G02*
X66982000Y-24417000I0J-250000D01*
G01*
G37*
%TD*%
%TO.C,C27*%
G36*
G01*
X74734000Y-87409000D02*
X74734000Y-88359000D01*
G75*
G02*
X74484000Y-88609000I-250000J0D01*
G01*
X73984000Y-88609000D01*
G75*
G02*
X73734000Y-88359000I0J250000D01*
G01*
X73734000Y-87409000D01*
G75*
G02*
X73984000Y-87159000I250000J0D01*
G01*
X74484000Y-87159000D01*
G75*
G02*
X74734000Y-87409000I0J-250000D01*
G01*
G37*
G36*
G01*
X76634000Y-87409000D02*
X76634000Y-88359000D01*
G75*
G02*
X76384000Y-88609000I-250000J0D01*
G01*
X75884000Y-88609000D01*
G75*
G02*
X75634000Y-88359000I0J250000D01*
G01*
X75634000Y-87409000D01*
G75*
G02*
X75884000Y-87159000I250000J0D01*
G01*
X76384000Y-87159000D01*
G75*
G02*
X76634000Y-87409000I0J-250000D01*
G01*
G37*
%TD*%
%TO.C,C26*%
G36*
G01*
X89284000Y-88359000D02*
X89284000Y-87409000D01*
G75*
G02*
X89534000Y-87159000I250000J0D01*
G01*
X90034000Y-87159000D01*
G75*
G02*
X90284000Y-87409000I0J-250000D01*
G01*
X90284000Y-88359000D01*
G75*
G02*
X90034000Y-88609000I-250000J0D01*
G01*
X89534000Y-88609000D01*
G75*
G02*
X89284000Y-88359000I0J250000D01*
G01*
G37*
G36*
G01*
X87384000Y-88359000D02*
X87384000Y-87409000D01*
G75*
G02*
X87634000Y-87159000I250000J0D01*
G01*
X88134000Y-87159000D01*
G75*
G02*
X88384000Y-87409000I0J-250000D01*
G01*
X88384000Y-88359000D01*
G75*
G02*
X88134000Y-88609000I-250000J0D01*
G01*
X87634000Y-88609000D01*
G75*
G02*
X87384000Y-88359000I0J250000D01*
G01*
G37*
%TD*%
%TO.C,C23*%
G36*
G01*
X56421000Y-25850000D02*
X57371000Y-25850000D01*
G75*
G02*
X57621000Y-26100000I0J-250000D01*
G01*
X57621000Y-26600000D01*
G75*
G02*
X57371000Y-26850000I-250000J0D01*
G01*
X56421000Y-26850000D01*
G75*
G02*
X56171000Y-26600000I0J250000D01*
G01*
X56171000Y-26100000D01*
G75*
G02*
X56421000Y-25850000I250000J0D01*
G01*
G37*
G36*
G01*
X56421000Y-23950000D02*
X57371000Y-23950000D01*
G75*
G02*
X57621000Y-24200000I0J-250000D01*
G01*
X57621000Y-24700000D01*
G75*
G02*
X57371000Y-24950000I-250000J0D01*
G01*
X56421000Y-24950000D01*
G75*
G02*
X56171000Y-24700000I0J250000D01*
G01*
X56171000Y-24200000D01*
G75*
G02*
X56421000Y-23950000I250000J0D01*
G01*
G37*
%TD*%
%TO.C,C20*%
G36*
G01*
X98483000Y-23147000D02*
X98483000Y-24097000D01*
G75*
G02*
X98233000Y-24347000I-250000J0D01*
G01*
X97733000Y-24347000D01*
G75*
G02*
X97483000Y-24097000I0J250000D01*
G01*
X97483000Y-23147000D01*
G75*
G02*
X97733000Y-22897000I250000J0D01*
G01*
X98233000Y-22897000D01*
G75*
G02*
X98483000Y-23147000I0J-250000D01*
G01*
G37*
G36*
G01*
X100383000Y-23147000D02*
X100383000Y-24097000D01*
G75*
G02*
X100133000Y-24347000I-250000J0D01*
G01*
X99633000Y-24347000D01*
G75*
G02*
X99383000Y-24097000I0J250000D01*
G01*
X99383000Y-23147000D01*
G75*
G02*
X99633000Y-22897000I250000J0D01*
G01*
X100133000Y-22897000D01*
G75*
G02*
X100383000Y-23147000I0J-250000D01*
G01*
G37*
%TD*%
%TO.C,C15*%
G36*
G01*
X98483000Y-25687000D02*
X98483000Y-26637000D01*
G75*
G02*
X98233000Y-26887000I-250000J0D01*
G01*
X97733000Y-26887000D01*
G75*
G02*
X97483000Y-26637000I0J250000D01*
G01*
X97483000Y-25687000D01*
G75*
G02*
X97733000Y-25437000I250000J0D01*
G01*
X98233000Y-25437000D01*
G75*
G02*
X98483000Y-25687000I0J-250000D01*
G01*
G37*
G36*
G01*
X100383000Y-25687000D02*
X100383000Y-26637000D01*
G75*
G02*
X100133000Y-26887000I-250000J0D01*
G01*
X99633000Y-26887000D01*
G75*
G02*
X99383000Y-26637000I0J250000D01*
G01*
X99383000Y-25687000D01*
G75*
G02*
X99633000Y-25437000I250000J0D01*
G01*
X100133000Y-25437000D01*
G75*
G02*
X100383000Y-25687000I0J-250000D01*
G01*
G37*
%TD*%
%TO.C,C13*%
G36*
G01*
X81247000Y-79814000D02*
X80297000Y-79814000D01*
G75*
G02*
X80047000Y-79564000I0J250000D01*
G01*
X80047000Y-79064000D01*
G75*
G02*
X80297000Y-78814000I250000J0D01*
G01*
X81247000Y-78814000D01*
G75*
G02*
X81497000Y-79064000I0J-250000D01*
G01*
X81497000Y-79564000D01*
G75*
G02*
X81247000Y-79814000I-250000J0D01*
G01*
G37*
G36*
G01*
X81247000Y-81714000D02*
X80297000Y-81714000D01*
G75*
G02*
X80047000Y-81464000I0J250000D01*
G01*
X80047000Y-80964000D01*
G75*
G02*
X80297000Y-80714000I250000J0D01*
G01*
X81247000Y-80714000D01*
G75*
G02*
X81497000Y-80964000I0J-250000D01*
G01*
X81497000Y-81464000D01*
G75*
G02*
X81247000Y-81714000I-250000J0D01*
G01*
G37*
%TD*%
%TO.C,C11*%
G36*
G01*
X83787000Y-79814000D02*
X82837000Y-79814000D01*
G75*
G02*
X82587000Y-79564000I0J250000D01*
G01*
X82587000Y-79064000D01*
G75*
G02*
X82837000Y-78814000I250000J0D01*
G01*
X83787000Y-78814000D01*
G75*
G02*
X84037000Y-79064000I0J-250000D01*
G01*
X84037000Y-79564000D01*
G75*
G02*
X83787000Y-79814000I-250000J0D01*
G01*
G37*
G36*
G01*
X83787000Y-81714000D02*
X82837000Y-81714000D01*
G75*
G02*
X82587000Y-81464000I0J250000D01*
G01*
X82587000Y-80964000D01*
G75*
G02*
X82837000Y-80714000I250000J0D01*
G01*
X83787000Y-80714000D01*
G75*
G02*
X84037000Y-80964000I0J-250000D01*
G01*
X84037000Y-81464000D01*
G75*
G02*
X83787000Y-81714000I-250000J0D01*
G01*
G37*
%TD*%
%TO.C,C10*%
G36*
G01*
X89593000Y-23401000D02*
X89593000Y-24351000D01*
G75*
G02*
X89343000Y-24601000I-250000J0D01*
G01*
X88843000Y-24601000D01*
G75*
G02*
X88593000Y-24351000I0J250000D01*
G01*
X88593000Y-23401000D01*
G75*
G02*
X88843000Y-23151000I250000J0D01*
G01*
X89343000Y-23151000D01*
G75*
G02*
X89593000Y-23401000I0J-250000D01*
G01*
G37*
G36*
G01*
X91493000Y-23401000D02*
X91493000Y-24351000D01*
G75*
G02*
X91243000Y-24601000I-250000J0D01*
G01*
X90743000Y-24601000D01*
G75*
G02*
X90493000Y-24351000I0J250000D01*
G01*
X90493000Y-23401000D01*
G75*
G02*
X90743000Y-23151000I250000J0D01*
G01*
X91243000Y-23151000D01*
G75*
G02*
X91493000Y-23401000I0J-250000D01*
G01*
G37*
%TD*%
%TO.C,U4*%
G36*
G01*
X79018000Y-31346000D02*
X79018000Y-31646000D01*
G75*
G02*
X78868000Y-31796000I-150000J0D01*
G01*
X77218000Y-31796000D01*
G75*
G02*
X77068000Y-31646000I0J150000D01*
G01*
X77068000Y-31346000D01*
G75*
G02*
X77218000Y-31196000I150000J0D01*
G01*
X78868000Y-31196000D01*
G75*
G02*
X79018000Y-31346000I0J-150000D01*
G01*
G37*
G36*
G01*
X79018000Y-30076000D02*
X79018000Y-30376000D01*
G75*
G02*
X78868000Y-30526000I-150000J0D01*
G01*
X77218000Y-30526000D01*
G75*
G02*
X77068000Y-30376000I0J150000D01*
G01*
X77068000Y-30076000D01*
G75*
G02*
X77218000Y-29926000I150000J0D01*
G01*
X78868000Y-29926000D01*
G75*
G02*
X79018000Y-30076000I0J-150000D01*
G01*
G37*
G36*
G01*
X79018000Y-28806000D02*
X79018000Y-29106000D01*
G75*
G02*
X78868000Y-29256000I-150000J0D01*
G01*
X77218000Y-29256000D01*
G75*
G02*
X77068000Y-29106000I0J150000D01*
G01*
X77068000Y-28806000D01*
G75*
G02*
X77218000Y-28656000I150000J0D01*
G01*
X78868000Y-28656000D01*
G75*
G02*
X79018000Y-28806000I0J-150000D01*
G01*
G37*
G36*
G01*
X79018000Y-27536000D02*
X79018000Y-27836000D01*
G75*
G02*
X78868000Y-27986000I-150000J0D01*
G01*
X77218000Y-27986000D01*
G75*
G02*
X77068000Y-27836000I0J150000D01*
G01*
X77068000Y-27536000D01*
G75*
G02*
X77218000Y-27386000I150000J0D01*
G01*
X78868000Y-27386000D01*
G75*
G02*
X79018000Y-27536000I0J-150000D01*
G01*
G37*
G36*
G01*
X79018000Y-26266000D02*
X79018000Y-26566000D01*
G75*
G02*
X78868000Y-26716000I-150000J0D01*
G01*
X77218000Y-26716000D01*
G75*
G02*
X77068000Y-26566000I0J150000D01*
G01*
X77068000Y-26266000D01*
G75*
G02*
X77218000Y-26116000I150000J0D01*
G01*
X78868000Y-26116000D01*
G75*
G02*
X79018000Y-26266000I0J-150000D01*
G01*
G37*
G36*
G01*
X79018000Y-24996000D02*
X79018000Y-25296000D01*
G75*
G02*
X78868000Y-25446000I-150000J0D01*
G01*
X77218000Y-25446000D01*
G75*
G02*
X77068000Y-25296000I0J150000D01*
G01*
X77068000Y-24996000D01*
G75*
G02*
X77218000Y-24846000I150000J0D01*
G01*
X78868000Y-24846000D01*
G75*
G02*
X79018000Y-24996000I0J-150000D01*
G01*
G37*
G36*
G01*
X79018000Y-23726000D02*
X79018000Y-24026000D01*
G75*
G02*
X78868000Y-24176000I-150000J0D01*
G01*
X77218000Y-24176000D01*
G75*
G02*
X77068000Y-24026000I0J150000D01*
G01*
X77068000Y-23726000D01*
G75*
G02*
X77218000Y-23576000I150000J0D01*
G01*
X78868000Y-23576000D01*
G75*
G02*
X79018000Y-23726000I0J-150000D01*
G01*
G37*
G36*
G01*
X79018000Y-22456000D02*
X79018000Y-22756000D01*
G75*
G02*
X78868000Y-22906000I-150000J0D01*
G01*
X77218000Y-22906000D01*
G75*
G02*
X77068000Y-22756000I0J150000D01*
G01*
X77068000Y-22456000D01*
G75*
G02*
X77218000Y-22306000I150000J0D01*
G01*
X78868000Y-22306000D01*
G75*
G02*
X79018000Y-22456000I0J-150000D01*
G01*
G37*
G36*
G01*
X83968000Y-22456000D02*
X83968000Y-22756000D01*
G75*
G02*
X83818000Y-22906000I-150000J0D01*
G01*
X82168000Y-22906000D01*
G75*
G02*
X82018000Y-22756000I0J150000D01*
G01*
X82018000Y-22456000D01*
G75*
G02*
X82168000Y-22306000I150000J0D01*
G01*
X83818000Y-22306000D01*
G75*
G02*
X83968000Y-22456000I0J-150000D01*
G01*
G37*
G36*
G01*
X83968000Y-23726000D02*
X83968000Y-24026000D01*
G75*
G02*
X83818000Y-24176000I-150000J0D01*
G01*
X82168000Y-24176000D01*
G75*
G02*
X82018000Y-24026000I0J150000D01*
G01*
X82018000Y-23726000D01*
G75*
G02*
X82168000Y-23576000I150000J0D01*
G01*
X83818000Y-23576000D01*
G75*
G02*
X83968000Y-23726000I0J-150000D01*
G01*
G37*
G36*
G01*
X83968000Y-24996000D02*
X83968000Y-25296000D01*
G75*
G02*
X83818000Y-25446000I-150000J0D01*
G01*
X82168000Y-25446000D01*
G75*
G02*
X82018000Y-25296000I0J150000D01*
G01*
X82018000Y-24996000D01*
G75*
G02*
X82168000Y-24846000I150000J0D01*
G01*
X83818000Y-24846000D01*
G75*
G02*
X83968000Y-24996000I0J-150000D01*
G01*
G37*
G36*
G01*
X83968000Y-26266000D02*
X83968000Y-26566000D01*
G75*
G02*
X83818000Y-26716000I-150000J0D01*
G01*
X82168000Y-26716000D01*
G75*
G02*
X82018000Y-26566000I0J150000D01*
G01*
X82018000Y-26266000D01*
G75*
G02*
X82168000Y-26116000I150000J0D01*
G01*
X83818000Y-26116000D01*
G75*
G02*
X83968000Y-26266000I0J-150000D01*
G01*
G37*
G36*
G01*
X83968000Y-27536000D02*
X83968000Y-27836000D01*
G75*
G02*
X83818000Y-27986000I-150000J0D01*
G01*
X82168000Y-27986000D01*
G75*
G02*
X82018000Y-27836000I0J150000D01*
G01*
X82018000Y-27536000D01*
G75*
G02*
X82168000Y-27386000I150000J0D01*
G01*
X83818000Y-27386000D01*
G75*
G02*
X83968000Y-27536000I0J-150000D01*
G01*
G37*
G36*
G01*
X83968000Y-28806000D02*
X83968000Y-29106000D01*
G75*
G02*
X83818000Y-29256000I-150000J0D01*
G01*
X82168000Y-29256000D01*
G75*
G02*
X82018000Y-29106000I0J150000D01*
G01*
X82018000Y-28806000D01*
G75*
G02*
X82168000Y-28656000I150000J0D01*
G01*
X83818000Y-28656000D01*
G75*
G02*
X83968000Y-28806000I0J-150000D01*
G01*
G37*
G36*
G01*
X83968000Y-30076000D02*
X83968000Y-30376000D01*
G75*
G02*
X83818000Y-30526000I-150000J0D01*
G01*
X82168000Y-30526000D01*
G75*
G02*
X82018000Y-30376000I0J150000D01*
G01*
X82018000Y-30076000D01*
G75*
G02*
X82168000Y-29926000I150000J0D01*
G01*
X83818000Y-29926000D01*
G75*
G02*
X83968000Y-30076000I0J-150000D01*
G01*
G37*
G36*
G01*
X83968000Y-31346000D02*
X83968000Y-31646000D01*
G75*
G02*
X83818000Y-31796000I-150000J0D01*
G01*
X82168000Y-31796000D01*
G75*
G02*
X82018000Y-31646000I0J150000D01*
G01*
X82018000Y-31346000D01*
G75*
G02*
X82168000Y-31196000I150000J0D01*
G01*
X83818000Y-31196000D01*
G75*
G02*
X83968000Y-31346000I0J-150000D01*
G01*
G37*
%TD*%
%TO.C,R28*%
G36*
G01*
X107550000Y-60382999D02*
X107550000Y-61283001D01*
G75*
G02*
X107300001Y-61533000I-249999J0D01*
G01*
X106774999Y-61533000D01*
G75*
G02*
X106525000Y-61283001I0J249999D01*
G01*
X106525000Y-60382999D01*
G75*
G02*
X106774999Y-60133000I249999J0D01*
G01*
X107300001Y-60133000D01*
G75*
G02*
X107550000Y-60382999I0J-249999D01*
G01*
G37*
G36*
G01*
X109375000Y-60382999D02*
X109375000Y-61283001D01*
G75*
G02*
X109125001Y-61533000I-249999J0D01*
G01*
X108599999Y-61533000D01*
G75*
G02*
X108350000Y-61283001I0J249999D01*
G01*
X108350000Y-60382999D01*
G75*
G02*
X108599999Y-60133000I249999J0D01*
G01*
X109125001Y-60133000D01*
G75*
G02*
X109375000Y-60382999I0J-249999D01*
G01*
G37*
%TD*%
%TO.C,R27*%
G36*
G01*
X103740000Y-60382999D02*
X103740000Y-61283001D01*
G75*
G02*
X103490001Y-61533000I-249999J0D01*
G01*
X102964999Y-61533000D01*
G75*
G02*
X102715000Y-61283001I0J249999D01*
G01*
X102715000Y-60382999D01*
G75*
G02*
X102964999Y-60133000I249999J0D01*
G01*
X103490001Y-60133000D01*
G75*
G02*
X103740000Y-60382999I0J-249999D01*
G01*
G37*
G36*
G01*
X105565000Y-60382999D02*
X105565000Y-61283001D01*
G75*
G02*
X105315001Y-61533000I-249999J0D01*
G01*
X104789999Y-61533000D01*
G75*
G02*
X104540000Y-61283001I0J249999D01*
G01*
X104540000Y-60382999D01*
G75*
G02*
X104789999Y-60133000I249999J0D01*
G01*
X105315001Y-60133000D01*
G75*
G02*
X105565000Y-60382999I0J-249999D01*
G01*
G37*
%TD*%
%TO.C,R26*%
G36*
G01*
X100730000Y-61283001D02*
X100730000Y-60382999D01*
G75*
G02*
X100979999Y-60133000I249999J0D01*
G01*
X101505001Y-60133000D01*
G75*
G02*
X101755000Y-60382999I0J-249999D01*
G01*
X101755000Y-61283001D01*
G75*
G02*
X101505001Y-61533000I-249999J0D01*
G01*
X100979999Y-61533000D01*
G75*
G02*
X100730000Y-61283001I0J249999D01*
G01*
G37*
G36*
G01*
X98905000Y-61283001D02*
X98905000Y-60382999D01*
G75*
G02*
X99154999Y-60133000I249999J0D01*
G01*
X99680001Y-60133000D01*
G75*
G02*
X99930000Y-60382999I0J-249999D01*
G01*
X99930000Y-61283001D01*
G75*
G02*
X99680001Y-61533000I-249999J0D01*
G01*
X99154999Y-61533000D01*
G75*
G02*
X98905000Y-61283001I0J249999D01*
G01*
G37*
%TD*%
%TO.C,R25*%
G36*
G01*
X111360000Y-60382999D02*
X111360000Y-61283001D01*
G75*
G02*
X111110001Y-61533000I-249999J0D01*
G01*
X110584999Y-61533000D01*
G75*
G02*
X110335000Y-61283001I0J249999D01*
G01*
X110335000Y-60382999D01*
G75*
G02*
X110584999Y-60133000I249999J0D01*
G01*
X111110001Y-60133000D01*
G75*
G02*
X111360000Y-60382999I0J-249999D01*
G01*
G37*
G36*
G01*
X113185000Y-60382999D02*
X113185000Y-61283001D01*
G75*
G02*
X112935001Y-61533000I-249999J0D01*
G01*
X112409999Y-61533000D01*
G75*
G02*
X112160000Y-61283001I0J249999D01*
G01*
X112160000Y-60382999D01*
G75*
G02*
X112409999Y-60133000I249999J0D01*
G01*
X112935001Y-60133000D01*
G75*
G02*
X113185000Y-60382999I0J-249999D01*
G01*
G37*
%TD*%
%TO.C,R24*%
G36*
G01*
X99244999Y-57423000D02*
X100145001Y-57423000D01*
G75*
G02*
X100395000Y-57672999I0J-249999D01*
G01*
X100395000Y-58198001D01*
G75*
G02*
X100145001Y-58448000I-249999J0D01*
G01*
X99244999Y-58448000D01*
G75*
G02*
X98995000Y-58198001I0J249999D01*
G01*
X98995000Y-57672999D01*
G75*
G02*
X99244999Y-57423000I249999J0D01*
G01*
G37*
G36*
G01*
X99244999Y-55598000D02*
X100145001Y-55598000D01*
G75*
G02*
X100395000Y-55847999I0J-249999D01*
G01*
X100395000Y-56373001D01*
G75*
G02*
X100145001Y-56623000I-249999J0D01*
G01*
X99244999Y-56623000D01*
G75*
G02*
X98995000Y-56373001I0J249999D01*
G01*
X98995000Y-55847999D01*
G75*
G02*
X99244999Y-55598000I249999J0D01*
G01*
G37*
%TD*%
%TO.C,R23*%
G36*
G01*
X111944999Y-57423000D02*
X112845001Y-57423000D01*
G75*
G02*
X113095000Y-57672999I0J-249999D01*
G01*
X113095000Y-58198001D01*
G75*
G02*
X112845001Y-58448000I-249999J0D01*
G01*
X111944999Y-58448000D01*
G75*
G02*
X111695000Y-58198001I0J249999D01*
G01*
X111695000Y-57672999D01*
G75*
G02*
X111944999Y-57423000I249999J0D01*
G01*
G37*
G36*
G01*
X111944999Y-55598000D02*
X112845001Y-55598000D01*
G75*
G02*
X113095000Y-55847999I0J-249999D01*
G01*
X113095000Y-56373001D01*
G75*
G02*
X112845001Y-56623000I-249999J0D01*
G01*
X111944999Y-56623000D01*
G75*
G02*
X111695000Y-56373001I0J249999D01*
G01*
X111695000Y-55847999D01*
G75*
G02*
X111944999Y-55598000I249999J0D01*
G01*
G37*
%TD*%
%TO.C,R22*%
G36*
G01*
X52940000Y-29013999D02*
X52940000Y-29914001D01*
G75*
G02*
X52690001Y-30164000I-249999J0D01*
G01*
X52164999Y-30164000D01*
G75*
G02*
X51915000Y-29914001I0J249999D01*
G01*
X51915000Y-29013999D01*
G75*
G02*
X52164999Y-28764000I249999J0D01*
G01*
X52690001Y-28764000D01*
G75*
G02*
X52940000Y-29013999I0J-249999D01*
G01*
G37*
G36*
G01*
X54765000Y-29013999D02*
X54765000Y-29914001D01*
G75*
G02*
X54515001Y-30164000I-249999J0D01*
G01*
X53989999Y-30164000D01*
G75*
G02*
X53740000Y-29914001I0J249999D01*
G01*
X53740000Y-29013999D01*
G75*
G02*
X53989999Y-28764000I249999J0D01*
G01*
X54515001Y-28764000D01*
G75*
G02*
X54765000Y-29013999I0J-249999D01*
G01*
G37*
%TD*%
%TO.C,R21*%
G36*
G01*
X52940000Y-26473999D02*
X52940000Y-27374001D01*
G75*
G02*
X52690001Y-27624000I-249999J0D01*
G01*
X52164999Y-27624000D01*
G75*
G02*
X51915000Y-27374001I0J249999D01*
G01*
X51915000Y-26473999D01*
G75*
G02*
X52164999Y-26224000I249999J0D01*
G01*
X52690001Y-26224000D01*
G75*
G02*
X52940000Y-26473999I0J-249999D01*
G01*
G37*
G36*
G01*
X54765000Y-26473999D02*
X54765000Y-27374001D01*
G75*
G02*
X54515001Y-27624000I-249999J0D01*
G01*
X53989999Y-27624000D01*
G75*
G02*
X53740000Y-27374001I0J249999D01*
G01*
X53740000Y-26473999D01*
G75*
G02*
X53989999Y-26224000I249999J0D01*
G01*
X54515001Y-26224000D01*
G75*
G02*
X54765000Y-26473999I0J-249999D01*
G01*
G37*
%TD*%
%TO.C,R20*%
G36*
G01*
X52940000Y-31553999D02*
X52940000Y-32454001D01*
G75*
G02*
X52690001Y-32704000I-249999J0D01*
G01*
X52164999Y-32704000D01*
G75*
G02*
X51915000Y-32454001I0J249999D01*
G01*
X51915000Y-31553999D01*
G75*
G02*
X52164999Y-31304000I249999J0D01*
G01*
X52690001Y-31304000D01*
G75*
G02*
X52940000Y-31553999I0J-249999D01*
G01*
G37*
G36*
G01*
X54765000Y-31553999D02*
X54765000Y-32454001D01*
G75*
G02*
X54515001Y-32704000I-249999J0D01*
G01*
X53989999Y-32704000D01*
G75*
G02*
X53740000Y-32454001I0J249999D01*
G01*
X53740000Y-31553999D01*
G75*
G02*
X53989999Y-31304000I249999J0D01*
G01*
X54515001Y-31304000D01*
G75*
G02*
X54765000Y-31553999I0J-249999D01*
G01*
G37*
%TD*%
%TO.C,R19*%
G36*
G01*
X115385001Y-52813000D02*
X114484999Y-52813000D01*
G75*
G02*
X114235000Y-52563001I0J249999D01*
G01*
X114235000Y-52037999D01*
G75*
G02*
X114484999Y-51788000I249999J0D01*
G01*
X115385001Y-51788000D01*
G75*
G02*
X115635000Y-52037999I0J-249999D01*
G01*
X115635000Y-52563001D01*
G75*
G02*
X115385001Y-52813000I-249999J0D01*
G01*
G37*
G36*
G01*
X115385001Y-54638000D02*
X114484999Y-54638000D01*
G75*
G02*
X114235000Y-54388001I0J249999D01*
G01*
X114235000Y-53862999D01*
G75*
G02*
X114484999Y-53613000I249999J0D01*
G01*
X115385001Y-53613000D01*
G75*
G02*
X115635000Y-53862999I0J-249999D01*
G01*
X115635000Y-54388001D01*
G75*
G02*
X115385001Y-54638000I-249999J0D01*
G01*
G37*
%TD*%
%TO.C,R18*%
G36*
G01*
X52940000Y-23933999D02*
X52940000Y-24834001D01*
G75*
G02*
X52690001Y-25084000I-249999J0D01*
G01*
X52164999Y-25084000D01*
G75*
G02*
X51915000Y-24834001I0J249999D01*
G01*
X51915000Y-23933999D01*
G75*
G02*
X52164999Y-23684000I249999J0D01*
G01*
X52690001Y-23684000D01*
G75*
G02*
X52940000Y-23933999I0J-249999D01*
G01*
G37*
G36*
G01*
X54765000Y-23933999D02*
X54765000Y-24834001D01*
G75*
G02*
X54515001Y-25084000I-249999J0D01*
G01*
X53989999Y-25084000D01*
G75*
G02*
X53740000Y-24834001I0J249999D01*
G01*
X53740000Y-23933999D01*
G75*
G02*
X53989999Y-23684000I249999J0D01*
G01*
X54515001Y-23684000D01*
G75*
G02*
X54765000Y-23933999I0J-249999D01*
G01*
G37*
%TD*%
%TO.C,R17*%
G36*
G01*
X97605001Y-52813000D02*
X96704999Y-52813000D01*
G75*
G02*
X96455000Y-52563001I0J249999D01*
G01*
X96455000Y-52037999D01*
G75*
G02*
X96704999Y-51788000I249999J0D01*
G01*
X97605001Y-51788000D01*
G75*
G02*
X97855000Y-52037999I0J-249999D01*
G01*
X97855000Y-52563001D01*
G75*
G02*
X97605001Y-52813000I-249999J0D01*
G01*
G37*
G36*
G01*
X97605001Y-54638000D02*
X96704999Y-54638000D01*
G75*
G02*
X96455000Y-54388001I0J249999D01*
G01*
X96455000Y-53862999D01*
G75*
G02*
X96704999Y-53613000I249999J0D01*
G01*
X97605001Y-53613000D01*
G75*
G02*
X97855000Y-53862999I0J-249999D01*
G01*
X97855000Y-54388001D01*
G75*
G02*
X97605001Y-54638000I-249999J0D01*
G01*
G37*
%TD*%
%TO.C,R16*%
G36*
G01*
X75203000Y-29406001D02*
X75203000Y-28505999D01*
G75*
G02*
X75452999Y-28256000I249999J0D01*
G01*
X75978001Y-28256000D01*
G75*
G02*
X76228000Y-28505999I0J-249999D01*
G01*
X76228000Y-29406001D01*
G75*
G02*
X75978001Y-29656000I-249999J0D01*
G01*
X75452999Y-29656000D01*
G75*
G02*
X75203000Y-29406001I0J249999D01*
G01*
G37*
G36*
G01*
X73378000Y-29406001D02*
X73378000Y-28505999D01*
G75*
G02*
X73627999Y-28256000I249999J0D01*
G01*
X74153001Y-28256000D01*
G75*
G02*
X74403000Y-28505999I0J-249999D01*
G01*
X74403000Y-29406001D01*
G75*
G02*
X74153001Y-29656000I-249999J0D01*
G01*
X73627999Y-29656000D01*
G75*
G02*
X73378000Y-29406001I0J249999D01*
G01*
G37*
%TD*%
%TO.C,R15*%
G36*
G01*
X75203000Y-25596001D02*
X75203000Y-24695999D01*
G75*
G02*
X75452999Y-24446000I249999J0D01*
G01*
X75978001Y-24446000D01*
G75*
G02*
X76228000Y-24695999I0J-249999D01*
G01*
X76228000Y-25596001D01*
G75*
G02*
X75978001Y-25846000I-249999J0D01*
G01*
X75452999Y-25846000D01*
G75*
G02*
X75203000Y-25596001I0J249999D01*
G01*
G37*
G36*
G01*
X73378000Y-25596001D02*
X73378000Y-24695999D01*
G75*
G02*
X73627999Y-24446000I249999J0D01*
G01*
X74153001Y-24446000D01*
G75*
G02*
X74403000Y-24695999I0J-249999D01*
G01*
X74403000Y-25596001D01*
G75*
G02*
X74153001Y-25846000I-249999J0D01*
G01*
X73627999Y-25846000D01*
G75*
G02*
X73378000Y-25596001I0J249999D01*
G01*
G37*
%TD*%
%TO.C,R14*%
G36*
G01*
X85833000Y-23425999D02*
X85833000Y-24326001D01*
G75*
G02*
X85583001Y-24576000I-249999J0D01*
G01*
X85057999Y-24576000D01*
G75*
G02*
X84808000Y-24326001I0J249999D01*
G01*
X84808000Y-23425999D01*
G75*
G02*
X85057999Y-23176000I249999J0D01*
G01*
X85583001Y-23176000D01*
G75*
G02*
X85833000Y-23425999I0J-249999D01*
G01*
G37*
G36*
G01*
X87658000Y-23425999D02*
X87658000Y-24326001D01*
G75*
G02*
X87408001Y-24576000I-249999J0D01*
G01*
X86882999Y-24576000D01*
G75*
G02*
X86633000Y-24326001I0J249999D01*
G01*
X86633000Y-23425999D01*
G75*
G02*
X86882999Y-23176000I249999J0D01*
G01*
X87408001Y-23176000D01*
G75*
G02*
X87658000Y-23425999I0J-249999D01*
G01*
G37*
%TD*%
%TO.C,R13*%
G36*
G01*
X85833000Y-29775999D02*
X85833000Y-30676001D01*
G75*
G02*
X85583001Y-30926000I-249999J0D01*
G01*
X85057999Y-30926000D01*
G75*
G02*
X84808000Y-30676001I0J249999D01*
G01*
X84808000Y-29775999D01*
G75*
G02*
X85057999Y-29526000I249999J0D01*
G01*
X85583001Y-29526000D01*
G75*
G02*
X85833000Y-29775999I0J-249999D01*
G01*
G37*
G36*
G01*
X87658000Y-29775999D02*
X87658000Y-30676001D01*
G75*
G02*
X87408001Y-30926000I-249999J0D01*
G01*
X86882999Y-30926000D01*
G75*
G02*
X86633000Y-30676001I0J249999D01*
G01*
X86633000Y-29775999D01*
G75*
G02*
X86882999Y-29526000I249999J0D01*
G01*
X87408001Y-29526000D01*
G75*
G02*
X87658000Y-29775999I0J-249999D01*
G01*
G37*
%TD*%
%TO.C,R12*%
G36*
G01*
X91205000Y-43630001D02*
X91205000Y-42729999D01*
G75*
G02*
X91454999Y-42480000I249999J0D01*
G01*
X91980001Y-42480000D01*
G75*
G02*
X92230000Y-42729999I0J-249999D01*
G01*
X92230000Y-43630001D01*
G75*
G02*
X91980001Y-43880000I-249999J0D01*
G01*
X91454999Y-43880000D01*
G75*
G02*
X91205000Y-43630001I0J249999D01*
G01*
G37*
G36*
G01*
X89380000Y-43630001D02*
X89380000Y-42729999D01*
G75*
G02*
X89629999Y-42480000I249999J0D01*
G01*
X90155001Y-42480000D01*
G75*
G02*
X90405000Y-42729999I0J-249999D01*
G01*
X90405000Y-43630001D01*
G75*
G02*
X90155001Y-43880000I-249999J0D01*
G01*
X89629999Y-43880000D01*
G75*
G02*
X89380000Y-43630001I0J249999D01*
G01*
G37*
%TD*%
%TO.C,R5*%
G36*
G01*
X109404999Y-57423000D02*
X110305001Y-57423000D01*
G75*
G02*
X110555000Y-57672999I0J-249999D01*
G01*
X110555000Y-58198001D01*
G75*
G02*
X110305001Y-58448000I-249999J0D01*
G01*
X109404999Y-58448000D01*
G75*
G02*
X109155000Y-58198001I0J249999D01*
G01*
X109155000Y-57672999D01*
G75*
G02*
X109404999Y-57423000I249999J0D01*
G01*
G37*
G36*
G01*
X109404999Y-55598000D02*
X110305001Y-55598000D01*
G75*
G02*
X110555000Y-55847999I0J-249999D01*
G01*
X110555000Y-56373001D01*
G75*
G02*
X110305001Y-56623000I-249999J0D01*
G01*
X109404999Y-56623000D01*
G75*
G02*
X109155000Y-56373001I0J249999D01*
G01*
X109155000Y-55847999D01*
G75*
G02*
X109404999Y-55598000I249999J0D01*
G01*
G37*
%TD*%
%TO.C,C25*%
G36*
G01*
X100170000Y-52763000D02*
X99220000Y-52763000D01*
G75*
G02*
X98970000Y-52513000I0J250000D01*
G01*
X98970000Y-52013000D01*
G75*
G02*
X99220000Y-51763000I250000J0D01*
G01*
X100170000Y-51763000D01*
G75*
G02*
X100420000Y-52013000I0J-250000D01*
G01*
X100420000Y-52513000D01*
G75*
G02*
X100170000Y-52763000I-250000J0D01*
G01*
G37*
G36*
G01*
X100170000Y-54663000D02*
X99220000Y-54663000D01*
G75*
G02*
X98970000Y-54413000I0J250000D01*
G01*
X98970000Y-53913000D01*
G75*
G02*
X99220000Y-53663000I250000J0D01*
G01*
X100170000Y-53663000D01*
G75*
G02*
X100420000Y-53913000I0J-250000D01*
G01*
X100420000Y-54413000D01*
G75*
G02*
X100170000Y-54663000I-250000J0D01*
G01*
G37*
%TD*%
%TO.C,C24*%
G36*
G01*
X112870000Y-52763000D02*
X111920000Y-52763000D01*
G75*
G02*
X111670000Y-52513000I0J250000D01*
G01*
X111670000Y-52013000D01*
G75*
G02*
X111920000Y-51763000I250000J0D01*
G01*
X112870000Y-51763000D01*
G75*
G02*
X113120000Y-52013000I0J-250000D01*
G01*
X113120000Y-52513000D01*
G75*
G02*
X112870000Y-52763000I-250000J0D01*
G01*
G37*
G36*
G01*
X112870000Y-54663000D02*
X111920000Y-54663000D01*
G75*
G02*
X111670000Y-54413000I0J250000D01*
G01*
X111670000Y-53913000D01*
G75*
G02*
X111920000Y-53663000I250000J0D01*
G01*
X112870000Y-53663000D01*
G75*
G02*
X113120000Y-53913000I0J-250000D01*
G01*
X113120000Y-54413000D01*
G75*
G02*
X112870000Y-54663000I-250000J0D01*
G01*
G37*
%TD*%
%TO.C,C14*%
G36*
G01*
X110330000Y-52763000D02*
X109380000Y-52763000D01*
G75*
G02*
X109130000Y-52513000I0J250000D01*
G01*
X109130000Y-52013000D01*
G75*
G02*
X109380000Y-51763000I250000J0D01*
G01*
X110330000Y-51763000D01*
G75*
G02*
X110580000Y-52013000I0J-250000D01*
G01*
X110580000Y-52513000D01*
G75*
G02*
X110330000Y-52763000I-250000J0D01*
G01*
G37*
G36*
G01*
X110330000Y-54663000D02*
X109380000Y-54663000D01*
G75*
G02*
X109130000Y-54413000I0J250000D01*
G01*
X109130000Y-53913000D01*
G75*
G02*
X109380000Y-53663000I250000J0D01*
G01*
X110330000Y-53663000D01*
G75*
G02*
X110580000Y-53913000I0J-250000D01*
G01*
X110580000Y-54413000D01*
G75*
G02*
X110330000Y-54663000I-250000J0D01*
G01*
G37*
%TD*%
%TO.C,C9*%
G36*
G01*
X103345000Y-42222000D02*
X102395000Y-42222000D01*
G75*
G02*
X102145000Y-41972000I0J250000D01*
G01*
X102145000Y-41472000D01*
G75*
G02*
X102395000Y-41222000I250000J0D01*
G01*
X103345000Y-41222000D01*
G75*
G02*
X103595000Y-41472000I0J-250000D01*
G01*
X103595000Y-41972000D01*
G75*
G02*
X103345000Y-42222000I-250000J0D01*
G01*
G37*
G36*
G01*
X103345000Y-44122000D02*
X102395000Y-44122000D01*
G75*
G02*
X102145000Y-43872000I0J250000D01*
G01*
X102145000Y-43372000D01*
G75*
G02*
X102395000Y-43122000I250000J0D01*
G01*
X103345000Y-43122000D01*
G75*
G02*
X103595000Y-43372000I0J-250000D01*
G01*
X103595000Y-43872000D01*
G75*
G02*
X103345000Y-44122000I-250000J0D01*
G01*
G37*
%TD*%
%TO.C,C8*%
G36*
G01*
X102395000Y-38677000D02*
X103345000Y-38677000D01*
G75*
G02*
X103595000Y-38927000I0J-250000D01*
G01*
X103595000Y-39427000D01*
G75*
G02*
X103345000Y-39677000I-250000J0D01*
G01*
X102395000Y-39677000D01*
G75*
G02*
X102145000Y-39427000I0J250000D01*
G01*
X102145000Y-38927000D01*
G75*
G02*
X102395000Y-38677000I250000J0D01*
G01*
G37*
G36*
G01*
X102395000Y-36777000D02*
X103345000Y-36777000D01*
G75*
G02*
X103595000Y-37027000I0J-250000D01*
G01*
X103595000Y-37527000D01*
G75*
G02*
X103345000Y-37777000I-250000J0D01*
G01*
X102395000Y-37777000D01*
G75*
G02*
X102145000Y-37527000I0J250000D01*
G01*
X102145000Y-37027000D01*
G75*
G02*
X102395000Y-36777000I250000J0D01*
G01*
G37*
%TD*%
%TO.C,C7*%
G36*
G01*
X89695000Y-36645000D02*
X90645000Y-36645000D01*
G75*
G02*
X90895000Y-36895000I0J-250000D01*
G01*
X90895000Y-37395000D01*
G75*
G02*
X90645000Y-37645000I-250000J0D01*
G01*
X89695000Y-37645000D01*
G75*
G02*
X89445000Y-37395000I0J250000D01*
G01*
X89445000Y-36895000D01*
G75*
G02*
X89695000Y-36645000I250000J0D01*
G01*
G37*
G36*
G01*
X89695000Y-34745000D02*
X90645000Y-34745000D01*
G75*
G02*
X90895000Y-34995000I0J-250000D01*
G01*
X90895000Y-35495000D01*
G75*
G02*
X90645000Y-35745000I-250000J0D01*
G01*
X89695000Y-35745000D01*
G75*
G02*
X89445000Y-35495000I0J250000D01*
G01*
X89445000Y-34995000D01*
G75*
G02*
X89695000Y-34745000I250000J0D01*
G01*
G37*
%TD*%
%TO.C,C6*%
G36*
G01*
X91255000Y-41115000D02*
X91255000Y-40165000D01*
G75*
G02*
X91505000Y-39915000I250000J0D01*
G01*
X92005000Y-39915000D01*
G75*
G02*
X92255000Y-40165000I0J-250000D01*
G01*
X92255000Y-41115000D01*
G75*
G02*
X92005000Y-41365000I-250000J0D01*
G01*
X91505000Y-41365000D01*
G75*
G02*
X91255000Y-41115000I0J250000D01*
G01*
G37*
G36*
G01*
X89355000Y-41115000D02*
X89355000Y-40165000D01*
G75*
G02*
X89605000Y-39915000I250000J0D01*
G01*
X90105000Y-39915000D01*
G75*
G02*
X90355000Y-40165000I0J-250000D01*
G01*
X90355000Y-41115000D01*
G75*
G02*
X90105000Y-41365000I-250000J0D01*
G01*
X89605000Y-41365000D01*
G75*
G02*
X89355000Y-41115000I0J250000D01*
G01*
G37*
%TD*%
D18*
%TO.C,U15*%
X35066000Y-103964000D03*
X81566000Y-103964000D03*
D19*
X42756000Y-93586500D03*
X45936000Y-93586500D03*
X52286000Y-93586500D03*
X52916000Y-93586500D03*
X53556000Y-93586500D03*
X43396000Y-93586500D03*
X44026000Y-93586500D03*
X46566000Y-93586500D03*
X44666000Y-93586500D03*
X45296000Y-93586500D03*
X47206000Y-93586500D03*
X48476000Y-93586500D03*
X49106000Y-93586500D03*
X47836000Y-93586500D03*
X49746000Y-93586500D03*
X50376000Y-93586500D03*
X51016000Y-93586500D03*
X51646000Y-93586500D03*
X57366000Y-93586500D03*
X70066000Y-93586500D03*
X71966000Y-93586500D03*
X66886000Y-93586500D03*
X68156000Y-93586500D03*
X73876000Y-93586500D03*
X61806000Y-93586500D03*
X59906000Y-93586500D03*
X59266000Y-93586500D03*
X64986000Y-93586500D03*
X69426000Y-93586500D03*
X73236000Y-93586500D03*
X72606000Y-93586500D03*
X54826000Y-93586500D03*
X55456000Y-93586500D03*
X57996000Y-93586500D03*
X58636000Y-93586500D03*
X68796000Y-93586500D03*
X56726000Y-93586500D03*
X60536000Y-93586500D03*
X62446000Y-93586500D03*
X64346000Y-93586500D03*
X63076000Y-93586500D03*
X61176000Y-93586500D03*
X66256000Y-93586500D03*
X56096000Y-93586500D03*
X54186000Y-93586500D03*
X67526000Y-93586500D03*
X65616000Y-93586500D03*
X71336000Y-93586500D03*
X63716000Y-93586500D03*
X70696000Y-93586500D03*
D20*
X38236000Y-99464000D03*
X78396000Y-99464000D03*
D21*
X38236000Y-96464000D03*
X78396000Y-96464000D03*
%TD*%
D10*
%TO.C,D1*%
X33020000Y-113919000D03*
D22*
X30480000Y-113919000D03*
%TD*%
%TO.C,U8*%
G36*
G01*
X54651000Y-87480000D02*
X54651000Y-87780000D01*
G75*
G02*
X54501000Y-87930000I-150000J0D01*
G01*
X52851000Y-87930000D01*
G75*
G02*
X52701000Y-87780000I0J150000D01*
G01*
X52701000Y-87480000D01*
G75*
G02*
X52851000Y-87330000I150000J0D01*
G01*
X54501000Y-87330000D01*
G75*
G02*
X54651000Y-87480000I0J-150000D01*
G01*
G37*
G36*
G01*
X54651000Y-86210000D02*
X54651000Y-86510000D01*
G75*
G02*
X54501000Y-86660000I-150000J0D01*
G01*
X52851000Y-86660000D01*
G75*
G02*
X52701000Y-86510000I0J150000D01*
G01*
X52701000Y-86210000D01*
G75*
G02*
X52851000Y-86060000I150000J0D01*
G01*
X54501000Y-86060000D01*
G75*
G02*
X54651000Y-86210000I0J-150000D01*
G01*
G37*
G36*
G01*
X54651000Y-84940000D02*
X54651000Y-85240000D01*
G75*
G02*
X54501000Y-85390000I-150000J0D01*
G01*
X52851000Y-85390000D01*
G75*
G02*
X52701000Y-85240000I0J150000D01*
G01*
X52701000Y-84940000D01*
G75*
G02*
X52851000Y-84790000I150000J0D01*
G01*
X54501000Y-84790000D01*
G75*
G02*
X54651000Y-84940000I0J-150000D01*
G01*
G37*
G36*
G01*
X54651000Y-83670000D02*
X54651000Y-83970000D01*
G75*
G02*
X54501000Y-84120000I-150000J0D01*
G01*
X52851000Y-84120000D01*
G75*
G02*
X52701000Y-83970000I0J150000D01*
G01*
X52701000Y-83670000D01*
G75*
G02*
X52851000Y-83520000I150000J0D01*
G01*
X54501000Y-83520000D01*
G75*
G02*
X54651000Y-83670000I0J-150000D01*
G01*
G37*
G36*
G01*
X54651000Y-82400000D02*
X54651000Y-82700000D01*
G75*
G02*
X54501000Y-82850000I-150000J0D01*
G01*
X52851000Y-82850000D01*
G75*
G02*
X52701000Y-82700000I0J150000D01*
G01*
X52701000Y-82400000D01*
G75*
G02*
X52851000Y-82250000I150000J0D01*
G01*
X54501000Y-82250000D01*
G75*
G02*
X54651000Y-82400000I0J-150000D01*
G01*
G37*
G36*
G01*
X54651000Y-81130000D02*
X54651000Y-81430000D01*
G75*
G02*
X54501000Y-81580000I-150000J0D01*
G01*
X52851000Y-81580000D01*
G75*
G02*
X52701000Y-81430000I0J150000D01*
G01*
X52701000Y-81130000D01*
G75*
G02*
X52851000Y-80980000I150000J0D01*
G01*
X54501000Y-80980000D01*
G75*
G02*
X54651000Y-81130000I0J-150000D01*
G01*
G37*
G36*
G01*
X54651000Y-79860000D02*
X54651000Y-80160000D01*
G75*
G02*
X54501000Y-80310000I-150000J0D01*
G01*
X52851000Y-80310000D01*
G75*
G02*
X52701000Y-80160000I0J150000D01*
G01*
X52701000Y-79860000D01*
G75*
G02*
X52851000Y-79710000I150000J0D01*
G01*
X54501000Y-79710000D01*
G75*
G02*
X54651000Y-79860000I0J-150000D01*
G01*
G37*
G36*
G01*
X59601000Y-79860000D02*
X59601000Y-80160000D01*
G75*
G02*
X59451000Y-80310000I-150000J0D01*
G01*
X57801000Y-80310000D01*
G75*
G02*
X57651000Y-80160000I0J150000D01*
G01*
X57651000Y-79860000D01*
G75*
G02*
X57801000Y-79710000I150000J0D01*
G01*
X59451000Y-79710000D01*
G75*
G02*
X59601000Y-79860000I0J-150000D01*
G01*
G37*
G36*
G01*
X59601000Y-81130000D02*
X59601000Y-81430000D01*
G75*
G02*
X59451000Y-81580000I-150000J0D01*
G01*
X57801000Y-81580000D01*
G75*
G02*
X57651000Y-81430000I0J150000D01*
G01*
X57651000Y-81130000D01*
G75*
G02*
X57801000Y-80980000I150000J0D01*
G01*
X59451000Y-80980000D01*
G75*
G02*
X59601000Y-81130000I0J-150000D01*
G01*
G37*
G36*
G01*
X59601000Y-82400000D02*
X59601000Y-82700000D01*
G75*
G02*
X59451000Y-82850000I-150000J0D01*
G01*
X57801000Y-82850000D01*
G75*
G02*
X57651000Y-82700000I0J150000D01*
G01*
X57651000Y-82400000D01*
G75*
G02*
X57801000Y-82250000I150000J0D01*
G01*
X59451000Y-82250000D01*
G75*
G02*
X59601000Y-82400000I0J-150000D01*
G01*
G37*
G36*
G01*
X59601000Y-83670000D02*
X59601000Y-83970000D01*
G75*
G02*
X59451000Y-84120000I-150000J0D01*
G01*
X57801000Y-84120000D01*
G75*
G02*
X57651000Y-83970000I0J150000D01*
G01*
X57651000Y-83670000D01*
G75*
G02*
X57801000Y-83520000I150000J0D01*
G01*
X59451000Y-83520000D01*
G75*
G02*
X59601000Y-83670000I0J-150000D01*
G01*
G37*
G36*
G01*
X59601000Y-84940000D02*
X59601000Y-85240000D01*
G75*
G02*
X59451000Y-85390000I-150000J0D01*
G01*
X57801000Y-85390000D01*
G75*
G02*
X57651000Y-85240000I0J150000D01*
G01*
X57651000Y-84940000D01*
G75*
G02*
X57801000Y-84790000I150000J0D01*
G01*
X59451000Y-84790000D01*
G75*
G02*
X59601000Y-84940000I0J-150000D01*
G01*
G37*
G36*
G01*
X59601000Y-86210000D02*
X59601000Y-86510000D01*
G75*
G02*
X59451000Y-86660000I-150000J0D01*
G01*
X57801000Y-86660000D01*
G75*
G02*
X57651000Y-86510000I0J150000D01*
G01*
X57651000Y-86210000D01*
G75*
G02*
X57801000Y-86060000I150000J0D01*
G01*
X59451000Y-86060000D01*
G75*
G02*
X59601000Y-86210000I0J-150000D01*
G01*
G37*
G36*
G01*
X59601000Y-87480000D02*
X59601000Y-87780000D01*
G75*
G02*
X59451000Y-87930000I-150000J0D01*
G01*
X57801000Y-87930000D01*
G75*
G02*
X57651000Y-87780000I0J150000D01*
G01*
X57651000Y-87480000D01*
G75*
G02*
X57801000Y-87330000I150000J0D01*
G01*
X59451000Y-87330000D01*
G75*
G02*
X59601000Y-87480000I0J-150000D01*
G01*
G37*
%TD*%
%TO.C,R3*%
G36*
G01*
X50692000Y-80714001D02*
X50692000Y-79813999D01*
G75*
G02*
X50941999Y-79564000I249999J0D01*
G01*
X51467001Y-79564000D01*
G75*
G02*
X51717000Y-79813999I0J-249999D01*
G01*
X51717000Y-80714001D01*
G75*
G02*
X51467001Y-80964000I-249999J0D01*
G01*
X50941999Y-80964000D01*
G75*
G02*
X50692000Y-80714001I0J249999D01*
G01*
G37*
G36*
G01*
X48867000Y-80714001D02*
X48867000Y-79813999D01*
G75*
G02*
X49116999Y-79564000I249999J0D01*
G01*
X49642001Y-79564000D01*
G75*
G02*
X49892000Y-79813999I0J-249999D01*
G01*
X49892000Y-80714001D01*
G75*
G02*
X49642001Y-80964000I-249999J0D01*
G01*
X49116999Y-80964000D01*
G75*
G02*
X48867000Y-80714001I0J249999D01*
G01*
G37*
%TD*%
%TO.C,R2*%
G36*
G01*
X63557999Y-37992000D02*
X64458001Y-37992000D01*
G75*
G02*
X64708000Y-38241999I0J-249999D01*
G01*
X64708000Y-38767001D01*
G75*
G02*
X64458001Y-39017000I-249999J0D01*
G01*
X63557999Y-39017000D01*
G75*
G02*
X63308000Y-38767001I0J249999D01*
G01*
X63308000Y-38241999D01*
G75*
G02*
X63557999Y-37992000I249999J0D01*
G01*
G37*
G36*
G01*
X63557999Y-36167000D02*
X64458001Y-36167000D01*
G75*
G02*
X64708000Y-36416999I0J-249999D01*
G01*
X64708000Y-36942001D01*
G75*
G02*
X64458001Y-37192000I-249999J0D01*
G01*
X63557999Y-37192000D01*
G75*
G02*
X63308000Y-36942001I0J249999D01*
G01*
X63308000Y-36416999D01*
G75*
G02*
X63557999Y-36167000I249999J0D01*
G01*
G37*
%TD*%
%TO.C,R1*%
G36*
G01*
X50692000Y-84778001D02*
X50692000Y-83877999D01*
G75*
G02*
X50941999Y-83628000I249999J0D01*
G01*
X51467001Y-83628000D01*
G75*
G02*
X51717000Y-83877999I0J-249999D01*
G01*
X51717000Y-84778001D01*
G75*
G02*
X51467001Y-85028000I-249999J0D01*
G01*
X50941999Y-85028000D01*
G75*
G02*
X50692000Y-84778001I0J249999D01*
G01*
G37*
G36*
G01*
X48867000Y-84778001D02*
X48867000Y-83877999D01*
G75*
G02*
X49116999Y-83628000I249999J0D01*
G01*
X49642001Y-83628000D01*
G75*
G02*
X49892000Y-83877999I0J-249999D01*
G01*
X49892000Y-84778001D01*
G75*
G02*
X49642001Y-85028000I-249999J0D01*
G01*
X49116999Y-85028000D01*
G75*
G02*
X48867000Y-84778001I0J249999D01*
G01*
G37*
%TD*%
D23*
%TO.C,Q2*%
X45228000Y-79756000D03*
X47228000Y-78806000D03*
X47228000Y-80706000D03*
%TD*%
%TO.C,Q1*%
X45228000Y-84836000D03*
X47228000Y-83886000D03*
X47228000Y-85786000D03*
%TD*%
D24*
%TO.C,U7*%
X85344000Y-62484000D03*
X67564000Y-54864000D03*
X82804000Y-62484000D03*
X70104000Y-54864000D03*
X80264000Y-62484000D03*
X72644000Y-54864000D03*
X77724000Y-62484000D03*
X75184000Y-54864000D03*
X75184000Y-62484000D03*
X77724000Y-54864000D03*
X72644000Y-62484000D03*
X80264000Y-54864000D03*
X70104000Y-62484000D03*
X82804000Y-54864000D03*
X67564000Y-62484000D03*
D17*
X85344000Y-54864000D03*
%TD*%
%TO.C,U6*%
G36*
G01*
X66016000Y-80160000D02*
X66016000Y-79860000D01*
G75*
G02*
X66166000Y-79710000I150000J0D01*
G01*
X67816000Y-79710000D01*
G75*
G02*
X67966000Y-79860000I0J-150000D01*
G01*
X67966000Y-80160000D01*
G75*
G02*
X67816000Y-80310000I-150000J0D01*
G01*
X66166000Y-80310000D01*
G75*
G02*
X66016000Y-80160000I0J150000D01*
G01*
G37*
G36*
G01*
X66016000Y-81430000D02*
X66016000Y-81130000D01*
G75*
G02*
X66166000Y-80980000I150000J0D01*
G01*
X67816000Y-80980000D01*
G75*
G02*
X67966000Y-81130000I0J-150000D01*
G01*
X67966000Y-81430000D01*
G75*
G02*
X67816000Y-81580000I-150000J0D01*
G01*
X66166000Y-81580000D01*
G75*
G02*
X66016000Y-81430000I0J150000D01*
G01*
G37*
G36*
G01*
X66016000Y-82700000D02*
X66016000Y-82400000D01*
G75*
G02*
X66166000Y-82250000I150000J0D01*
G01*
X67816000Y-82250000D01*
G75*
G02*
X67966000Y-82400000I0J-150000D01*
G01*
X67966000Y-82700000D01*
G75*
G02*
X67816000Y-82850000I-150000J0D01*
G01*
X66166000Y-82850000D01*
G75*
G02*
X66016000Y-82700000I0J150000D01*
G01*
G37*
G36*
G01*
X66016000Y-83970000D02*
X66016000Y-83670000D01*
G75*
G02*
X66166000Y-83520000I150000J0D01*
G01*
X67816000Y-83520000D01*
G75*
G02*
X67966000Y-83670000I0J-150000D01*
G01*
X67966000Y-83970000D01*
G75*
G02*
X67816000Y-84120000I-150000J0D01*
G01*
X66166000Y-84120000D01*
G75*
G02*
X66016000Y-83970000I0J150000D01*
G01*
G37*
G36*
G01*
X66016000Y-85240000D02*
X66016000Y-84940000D01*
G75*
G02*
X66166000Y-84790000I150000J0D01*
G01*
X67816000Y-84790000D01*
G75*
G02*
X67966000Y-84940000I0J-150000D01*
G01*
X67966000Y-85240000D01*
G75*
G02*
X67816000Y-85390000I-150000J0D01*
G01*
X66166000Y-85390000D01*
G75*
G02*
X66016000Y-85240000I0J150000D01*
G01*
G37*
G36*
G01*
X66016000Y-86510000D02*
X66016000Y-86210000D01*
G75*
G02*
X66166000Y-86060000I150000J0D01*
G01*
X67816000Y-86060000D01*
G75*
G02*
X67966000Y-86210000I0J-150000D01*
G01*
X67966000Y-86510000D01*
G75*
G02*
X67816000Y-86660000I-150000J0D01*
G01*
X66166000Y-86660000D01*
G75*
G02*
X66016000Y-86510000I0J150000D01*
G01*
G37*
G36*
G01*
X66016000Y-87780000D02*
X66016000Y-87480000D01*
G75*
G02*
X66166000Y-87330000I150000J0D01*
G01*
X67816000Y-87330000D01*
G75*
G02*
X67966000Y-87480000I0J-150000D01*
G01*
X67966000Y-87780000D01*
G75*
G02*
X67816000Y-87930000I-150000J0D01*
G01*
X66166000Y-87930000D01*
G75*
G02*
X66016000Y-87780000I0J150000D01*
G01*
G37*
G36*
G01*
X61066000Y-87780000D02*
X61066000Y-87480000D01*
G75*
G02*
X61216000Y-87330000I150000J0D01*
G01*
X62866000Y-87330000D01*
G75*
G02*
X63016000Y-87480000I0J-150000D01*
G01*
X63016000Y-87780000D01*
G75*
G02*
X62866000Y-87930000I-150000J0D01*
G01*
X61216000Y-87930000D01*
G75*
G02*
X61066000Y-87780000I0J150000D01*
G01*
G37*
G36*
G01*
X61066000Y-86510000D02*
X61066000Y-86210000D01*
G75*
G02*
X61216000Y-86060000I150000J0D01*
G01*
X62866000Y-86060000D01*
G75*
G02*
X63016000Y-86210000I0J-150000D01*
G01*
X63016000Y-86510000D01*
G75*
G02*
X62866000Y-86660000I-150000J0D01*
G01*
X61216000Y-86660000D01*
G75*
G02*
X61066000Y-86510000I0J150000D01*
G01*
G37*
G36*
G01*
X61066000Y-85240000D02*
X61066000Y-84940000D01*
G75*
G02*
X61216000Y-84790000I150000J0D01*
G01*
X62866000Y-84790000D01*
G75*
G02*
X63016000Y-84940000I0J-150000D01*
G01*
X63016000Y-85240000D01*
G75*
G02*
X62866000Y-85390000I-150000J0D01*
G01*
X61216000Y-85390000D01*
G75*
G02*
X61066000Y-85240000I0J150000D01*
G01*
G37*
G36*
G01*
X61066000Y-83970000D02*
X61066000Y-83670000D01*
G75*
G02*
X61216000Y-83520000I150000J0D01*
G01*
X62866000Y-83520000D01*
G75*
G02*
X63016000Y-83670000I0J-150000D01*
G01*
X63016000Y-83970000D01*
G75*
G02*
X62866000Y-84120000I-150000J0D01*
G01*
X61216000Y-84120000D01*
G75*
G02*
X61066000Y-83970000I0J150000D01*
G01*
G37*
G36*
G01*
X61066000Y-82700000D02*
X61066000Y-82400000D01*
G75*
G02*
X61216000Y-82250000I150000J0D01*
G01*
X62866000Y-82250000D01*
G75*
G02*
X63016000Y-82400000I0J-150000D01*
G01*
X63016000Y-82700000D01*
G75*
G02*
X62866000Y-82850000I-150000J0D01*
G01*
X61216000Y-82850000D01*
G75*
G02*
X61066000Y-82700000I0J150000D01*
G01*
G37*
G36*
G01*
X61066000Y-81430000D02*
X61066000Y-81130000D01*
G75*
G02*
X61216000Y-80980000I150000J0D01*
G01*
X62866000Y-80980000D01*
G75*
G02*
X63016000Y-81130000I0J-150000D01*
G01*
X63016000Y-81430000D01*
G75*
G02*
X62866000Y-81580000I-150000J0D01*
G01*
X61216000Y-81580000D01*
G75*
G02*
X61066000Y-81430000I0J150000D01*
G01*
G37*
G36*
G01*
X61066000Y-80160000D02*
X61066000Y-79860000D01*
G75*
G02*
X61216000Y-79710000I150000J0D01*
G01*
X62866000Y-79710000D01*
G75*
G02*
X63016000Y-79860000I0J-150000D01*
G01*
X63016000Y-80160000D01*
G75*
G02*
X62866000Y-80310000I-150000J0D01*
G01*
X61216000Y-80310000D01*
G75*
G02*
X61066000Y-80160000I0J150000D01*
G01*
G37*
%TD*%
D24*
%TO.C,U10*%
X60452000Y-47752000D03*
X45212000Y-75692000D03*
X60452000Y-50292000D03*
X45212000Y-73152000D03*
X60452000Y-52832000D03*
X45212000Y-70612000D03*
X60452000Y-55372000D03*
X45212000Y-68072000D03*
X60452000Y-57912000D03*
X45212000Y-65532000D03*
X60452000Y-60452000D03*
X45212000Y-62992000D03*
X60452000Y-62992000D03*
X45212000Y-60452000D03*
X60452000Y-65532000D03*
X45212000Y-57912000D03*
X60452000Y-68072000D03*
X45212000Y-55372000D03*
X60452000Y-70612000D03*
X45212000Y-52832000D03*
X60452000Y-73152000D03*
X45212000Y-50292000D03*
X60452000Y-75692000D03*
D17*
X45212000Y-47752000D03*
%TD*%
D24*
%TO.C,U9*%
X49784000Y-22352000D03*
X42164000Y-42672000D03*
X49784000Y-24892000D03*
X42164000Y-40132000D03*
X49784000Y-27432000D03*
X42164000Y-37592000D03*
X49784000Y-29972000D03*
X42164000Y-35052000D03*
X49784000Y-32512000D03*
X42164000Y-32512000D03*
X49784000Y-35052000D03*
X42164000Y-29972000D03*
X49784000Y-37592000D03*
X42164000Y-27432000D03*
X49784000Y-40132000D03*
X42164000Y-24892000D03*
X49784000Y-42672000D03*
D17*
X42164000Y-22352000D03*
%TD*%
%TO.C,U5*%
G36*
G01*
X76177000Y-74745000D02*
X76477000Y-74745000D01*
G75*
G02*
X76627000Y-74895000I0J-150000D01*
G01*
X76627000Y-76645000D01*
G75*
G02*
X76477000Y-76795000I-150000J0D01*
G01*
X76177000Y-76795000D01*
G75*
G02*
X76027000Y-76645000I0J150000D01*
G01*
X76027000Y-74895000D01*
G75*
G02*
X76177000Y-74745000I150000J0D01*
G01*
G37*
G36*
G01*
X74907000Y-74745000D02*
X75207000Y-74745000D01*
G75*
G02*
X75357000Y-74895000I0J-150000D01*
G01*
X75357000Y-76645000D01*
G75*
G02*
X75207000Y-76795000I-150000J0D01*
G01*
X74907000Y-76795000D01*
G75*
G02*
X74757000Y-76645000I0J150000D01*
G01*
X74757000Y-74895000D01*
G75*
G02*
X74907000Y-74745000I150000J0D01*
G01*
G37*
G36*
G01*
X73637000Y-74745000D02*
X73937000Y-74745000D01*
G75*
G02*
X74087000Y-74895000I0J-150000D01*
G01*
X74087000Y-76645000D01*
G75*
G02*
X73937000Y-76795000I-150000J0D01*
G01*
X73637000Y-76795000D01*
G75*
G02*
X73487000Y-76645000I0J150000D01*
G01*
X73487000Y-74895000D01*
G75*
G02*
X73637000Y-74745000I150000J0D01*
G01*
G37*
G36*
G01*
X72367000Y-74745000D02*
X72667000Y-74745000D01*
G75*
G02*
X72817000Y-74895000I0J-150000D01*
G01*
X72817000Y-76645000D01*
G75*
G02*
X72667000Y-76795000I-150000J0D01*
G01*
X72367000Y-76795000D01*
G75*
G02*
X72217000Y-76645000I0J150000D01*
G01*
X72217000Y-74895000D01*
G75*
G02*
X72367000Y-74745000I150000J0D01*
G01*
G37*
G36*
G01*
X71097000Y-74745000D02*
X71397000Y-74745000D01*
G75*
G02*
X71547000Y-74895000I0J-150000D01*
G01*
X71547000Y-76645000D01*
G75*
G02*
X71397000Y-76795000I-150000J0D01*
G01*
X71097000Y-76795000D01*
G75*
G02*
X70947000Y-76645000I0J150000D01*
G01*
X70947000Y-74895000D01*
G75*
G02*
X71097000Y-74745000I150000J0D01*
G01*
G37*
G36*
G01*
X69827000Y-74745000D02*
X70127000Y-74745000D01*
G75*
G02*
X70277000Y-74895000I0J-150000D01*
G01*
X70277000Y-76645000D01*
G75*
G02*
X70127000Y-76795000I-150000J0D01*
G01*
X69827000Y-76795000D01*
G75*
G02*
X69677000Y-76645000I0J150000D01*
G01*
X69677000Y-74895000D01*
G75*
G02*
X69827000Y-74745000I150000J0D01*
G01*
G37*
G36*
G01*
X68557000Y-74745000D02*
X68857000Y-74745000D01*
G75*
G02*
X69007000Y-74895000I0J-150000D01*
G01*
X69007000Y-76645000D01*
G75*
G02*
X68857000Y-76795000I-150000J0D01*
G01*
X68557000Y-76795000D01*
G75*
G02*
X68407000Y-76645000I0J150000D01*
G01*
X68407000Y-74895000D01*
G75*
G02*
X68557000Y-74745000I150000J0D01*
G01*
G37*
G36*
G01*
X67287000Y-74745000D02*
X67587000Y-74745000D01*
G75*
G02*
X67737000Y-74895000I0J-150000D01*
G01*
X67737000Y-76645000D01*
G75*
G02*
X67587000Y-76795000I-150000J0D01*
G01*
X67287000Y-76795000D01*
G75*
G02*
X67137000Y-76645000I0J150000D01*
G01*
X67137000Y-74895000D01*
G75*
G02*
X67287000Y-74745000I150000J0D01*
G01*
G37*
G36*
G01*
X66017000Y-74745000D02*
X66317000Y-74745000D01*
G75*
G02*
X66467000Y-74895000I0J-150000D01*
G01*
X66467000Y-76645000D01*
G75*
G02*
X66317000Y-76795000I-150000J0D01*
G01*
X66017000Y-76795000D01*
G75*
G02*
X65867000Y-76645000I0J150000D01*
G01*
X65867000Y-74895000D01*
G75*
G02*
X66017000Y-74745000I150000J0D01*
G01*
G37*
G36*
G01*
X64747000Y-74745000D02*
X65047000Y-74745000D01*
G75*
G02*
X65197000Y-74895000I0J-150000D01*
G01*
X65197000Y-76645000D01*
G75*
G02*
X65047000Y-76795000I-150000J0D01*
G01*
X64747000Y-76795000D01*
G75*
G02*
X64597000Y-76645000I0J150000D01*
G01*
X64597000Y-74895000D01*
G75*
G02*
X64747000Y-74745000I150000J0D01*
G01*
G37*
G36*
G01*
X64747000Y-65445000D02*
X65047000Y-65445000D01*
G75*
G02*
X65197000Y-65595000I0J-150000D01*
G01*
X65197000Y-67345000D01*
G75*
G02*
X65047000Y-67495000I-150000J0D01*
G01*
X64747000Y-67495000D01*
G75*
G02*
X64597000Y-67345000I0J150000D01*
G01*
X64597000Y-65595000D01*
G75*
G02*
X64747000Y-65445000I150000J0D01*
G01*
G37*
G36*
G01*
X66017000Y-65445000D02*
X66317000Y-65445000D01*
G75*
G02*
X66467000Y-65595000I0J-150000D01*
G01*
X66467000Y-67345000D01*
G75*
G02*
X66317000Y-67495000I-150000J0D01*
G01*
X66017000Y-67495000D01*
G75*
G02*
X65867000Y-67345000I0J150000D01*
G01*
X65867000Y-65595000D01*
G75*
G02*
X66017000Y-65445000I150000J0D01*
G01*
G37*
G36*
G01*
X67287000Y-65445000D02*
X67587000Y-65445000D01*
G75*
G02*
X67737000Y-65595000I0J-150000D01*
G01*
X67737000Y-67345000D01*
G75*
G02*
X67587000Y-67495000I-150000J0D01*
G01*
X67287000Y-67495000D01*
G75*
G02*
X67137000Y-67345000I0J150000D01*
G01*
X67137000Y-65595000D01*
G75*
G02*
X67287000Y-65445000I150000J0D01*
G01*
G37*
G36*
G01*
X68557000Y-65445000D02*
X68857000Y-65445000D01*
G75*
G02*
X69007000Y-65595000I0J-150000D01*
G01*
X69007000Y-67345000D01*
G75*
G02*
X68857000Y-67495000I-150000J0D01*
G01*
X68557000Y-67495000D01*
G75*
G02*
X68407000Y-67345000I0J150000D01*
G01*
X68407000Y-65595000D01*
G75*
G02*
X68557000Y-65445000I150000J0D01*
G01*
G37*
G36*
G01*
X69827000Y-65445000D02*
X70127000Y-65445000D01*
G75*
G02*
X70277000Y-65595000I0J-150000D01*
G01*
X70277000Y-67345000D01*
G75*
G02*
X70127000Y-67495000I-150000J0D01*
G01*
X69827000Y-67495000D01*
G75*
G02*
X69677000Y-67345000I0J150000D01*
G01*
X69677000Y-65595000D01*
G75*
G02*
X69827000Y-65445000I150000J0D01*
G01*
G37*
G36*
G01*
X71097000Y-65445000D02*
X71397000Y-65445000D01*
G75*
G02*
X71547000Y-65595000I0J-150000D01*
G01*
X71547000Y-67345000D01*
G75*
G02*
X71397000Y-67495000I-150000J0D01*
G01*
X71097000Y-67495000D01*
G75*
G02*
X70947000Y-67345000I0J150000D01*
G01*
X70947000Y-65595000D01*
G75*
G02*
X71097000Y-65445000I150000J0D01*
G01*
G37*
G36*
G01*
X72367000Y-65445000D02*
X72667000Y-65445000D01*
G75*
G02*
X72817000Y-65595000I0J-150000D01*
G01*
X72817000Y-67345000D01*
G75*
G02*
X72667000Y-67495000I-150000J0D01*
G01*
X72367000Y-67495000D01*
G75*
G02*
X72217000Y-67345000I0J150000D01*
G01*
X72217000Y-65595000D01*
G75*
G02*
X72367000Y-65445000I150000J0D01*
G01*
G37*
G36*
G01*
X73637000Y-65445000D02*
X73937000Y-65445000D01*
G75*
G02*
X74087000Y-65595000I0J-150000D01*
G01*
X74087000Y-67345000D01*
G75*
G02*
X73937000Y-67495000I-150000J0D01*
G01*
X73637000Y-67495000D01*
G75*
G02*
X73487000Y-67345000I0J150000D01*
G01*
X73487000Y-65595000D01*
G75*
G02*
X73637000Y-65445000I150000J0D01*
G01*
G37*
G36*
G01*
X74907000Y-65445000D02*
X75207000Y-65445000D01*
G75*
G02*
X75357000Y-65595000I0J-150000D01*
G01*
X75357000Y-67345000D01*
G75*
G02*
X75207000Y-67495000I-150000J0D01*
G01*
X74907000Y-67495000D01*
G75*
G02*
X74757000Y-67345000I0J150000D01*
G01*
X74757000Y-65595000D01*
G75*
G02*
X74907000Y-65445000I150000J0D01*
G01*
G37*
G36*
G01*
X76177000Y-65445000D02*
X76477000Y-65445000D01*
G75*
G02*
X76627000Y-65595000I0J-150000D01*
G01*
X76627000Y-67345000D01*
G75*
G02*
X76477000Y-67495000I-150000J0D01*
G01*
X76177000Y-67495000D01*
G75*
G02*
X76027000Y-67345000I0J150000D01*
G01*
X76027000Y-65595000D01*
G75*
G02*
X76177000Y-65445000I150000J0D01*
G01*
G37*
%TD*%
D25*
%TO.C,U2*%
X87370000Y-37465000D03*
X87370000Y-38735000D03*
X87370000Y-40005000D03*
X87370000Y-41275000D03*
X87370000Y-42545000D03*
X87370000Y-43815000D03*
X87370000Y-45085000D03*
X87370000Y-46355000D03*
X80270000Y-46355000D03*
X80270000Y-45085000D03*
X80270000Y-43815000D03*
X80270000Y-42545000D03*
X80270000Y-41275000D03*
X80270000Y-40005000D03*
X80270000Y-38735000D03*
X80270000Y-37465000D03*
%TD*%
%TO.C,U1*%
G36*
G01*
X74872000Y-37107000D02*
X74872000Y-36807000D01*
G75*
G02*
X75022000Y-36657000I150000J0D01*
G01*
X76772000Y-36657000D01*
G75*
G02*
X76922000Y-36807000I0J-150000D01*
G01*
X76922000Y-37107000D01*
G75*
G02*
X76772000Y-37257000I-150000J0D01*
G01*
X75022000Y-37257000D01*
G75*
G02*
X74872000Y-37107000I0J150000D01*
G01*
G37*
G36*
G01*
X74872000Y-38377000D02*
X74872000Y-38077000D01*
G75*
G02*
X75022000Y-37927000I150000J0D01*
G01*
X76772000Y-37927000D01*
G75*
G02*
X76922000Y-38077000I0J-150000D01*
G01*
X76922000Y-38377000D01*
G75*
G02*
X76772000Y-38527000I-150000J0D01*
G01*
X75022000Y-38527000D01*
G75*
G02*
X74872000Y-38377000I0J150000D01*
G01*
G37*
G36*
G01*
X74872000Y-39647000D02*
X74872000Y-39347000D01*
G75*
G02*
X75022000Y-39197000I150000J0D01*
G01*
X76772000Y-39197000D01*
G75*
G02*
X76922000Y-39347000I0J-150000D01*
G01*
X76922000Y-39647000D01*
G75*
G02*
X76772000Y-39797000I-150000J0D01*
G01*
X75022000Y-39797000D01*
G75*
G02*
X74872000Y-39647000I0J150000D01*
G01*
G37*
G36*
G01*
X74872000Y-40917000D02*
X74872000Y-40617000D01*
G75*
G02*
X75022000Y-40467000I150000J0D01*
G01*
X76772000Y-40467000D01*
G75*
G02*
X76922000Y-40617000I0J-150000D01*
G01*
X76922000Y-40917000D01*
G75*
G02*
X76772000Y-41067000I-150000J0D01*
G01*
X75022000Y-41067000D01*
G75*
G02*
X74872000Y-40917000I0J150000D01*
G01*
G37*
G36*
G01*
X74872000Y-42187000D02*
X74872000Y-41887000D01*
G75*
G02*
X75022000Y-41737000I150000J0D01*
G01*
X76772000Y-41737000D01*
G75*
G02*
X76922000Y-41887000I0J-150000D01*
G01*
X76922000Y-42187000D01*
G75*
G02*
X76772000Y-42337000I-150000J0D01*
G01*
X75022000Y-42337000D01*
G75*
G02*
X74872000Y-42187000I0J150000D01*
G01*
G37*
G36*
G01*
X74872000Y-43457000D02*
X74872000Y-43157000D01*
G75*
G02*
X75022000Y-43007000I150000J0D01*
G01*
X76772000Y-43007000D01*
G75*
G02*
X76922000Y-43157000I0J-150000D01*
G01*
X76922000Y-43457000D01*
G75*
G02*
X76772000Y-43607000I-150000J0D01*
G01*
X75022000Y-43607000D01*
G75*
G02*
X74872000Y-43457000I0J150000D01*
G01*
G37*
G36*
G01*
X74872000Y-44727000D02*
X74872000Y-44427000D01*
G75*
G02*
X75022000Y-44277000I150000J0D01*
G01*
X76772000Y-44277000D01*
G75*
G02*
X76922000Y-44427000I0J-150000D01*
G01*
X76922000Y-44727000D01*
G75*
G02*
X76772000Y-44877000I-150000J0D01*
G01*
X75022000Y-44877000D01*
G75*
G02*
X74872000Y-44727000I0J150000D01*
G01*
G37*
G36*
G01*
X74872000Y-45997000D02*
X74872000Y-45697000D01*
G75*
G02*
X75022000Y-45547000I150000J0D01*
G01*
X76772000Y-45547000D01*
G75*
G02*
X76922000Y-45697000I0J-150000D01*
G01*
X76922000Y-45997000D01*
G75*
G02*
X76772000Y-46147000I-150000J0D01*
G01*
X75022000Y-46147000D01*
G75*
G02*
X74872000Y-45997000I0J150000D01*
G01*
G37*
G36*
G01*
X74872000Y-47267000D02*
X74872000Y-46967000D01*
G75*
G02*
X75022000Y-46817000I150000J0D01*
G01*
X76772000Y-46817000D01*
G75*
G02*
X76922000Y-46967000I0J-150000D01*
G01*
X76922000Y-47267000D01*
G75*
G02*
X76772000Y-47417000I-150000J0D01*
G01*
X75022000Y-47417000D01*
G75*
G02*
X74872000Y-47267000I0J150000D01*
G01*
G37*
G36*
G01*
X74872000Y-48537000D02*
X74872000Y-48237000D01*
G75*
G02*
X75022000Y-48087000I150000J0D01*
G01*
X76772000Y-48087000D01*
G75*
G02*
X76922000Y-48237000I0J-150000D01*
G01*
X76922000Y-48537000D01*
G75*
G02*
X76772000Y-48687000I-150000J0D01*
G01*
X75022000Y-48687000D01*
G75*
G02*
X74872000Y-48537000I0J150000D01*
G01*
G37*
G36*
G01*
X74872000Y-49807000D02*
X74872000Y-49507000D01*
G75*
G02*
X75022000Y-49357000I150000J0D01*
G01*
X76772000Y-49357000D01*
G75*
G02*
X76922000Y-49507000I0J-150000D01*
G01*
X76922000Y-49807000D01*
G75*
G02*
X76772000Y-49957000I-150000J0D01*
G01*
X75022000Y-49957000D01*
G75*
G02*
X74872000Y-49807000I0J150000D01*
G01*
G37*
G36*
G01*
X74872000Y-51077000D02*
X74872000Y-50777000D01*
G75*
G02*
X75022000Y-50627000I150000J0D01*
G01*
X76772000Y-50627000D01*
G75*
G02*
X76922000Y-50777000I0J-150000D01*
G01*
X76922000Y-51077000D01*
G75*
G02*
X76772000Y-51227000I-150000J0D01*
G01*
X75022000Y-51227000D01*
G75*
G02*
X74872000Y-51077000I0J150000D01*
G01*
G37*
G36*
G01*
X65572000Y-51077000D02*
X65572000Y-50777000D01*
G75*
G02*
X65722000Y-50627000I150000J0D01*
G01*
X67472000Y-50627000D01*
G75*
G02*
X67622000Y-50777000I0J-150000D01*
G01*
X67622000Y-51077000D01*
G75*
G02*
X67472000Y-51227000I-150000J0D01*
G01*
X65722000Y-51227000D01*
G75*
G02*
X65572000Y-51077000I0J150000D01*
G01*
G37*
G36*
G01*
X65572000Y-49807000D02*
X65572000Y-49507000D01*
G75*
G02*
X65722000Y-49357000I150000J0D01*
G01*
X67472000Y-49357000D01*
G75*
G02*
X67622000Y-49507000I0J-150000D01*
G01*
X67622000Y-49807000D01*
G75*
G02*
X67472000Y-49957000I-150000J0D01*
G01*
X65722000Y-49957000D01*
G75*
G02*
X65572000Y-49807000I0J150000D01*
G01*
G37*
G36*
G01*
X65572000Y-48537000D02*
X65572000Y-48237000D01*
G75*
G02*
X65722000Y-48087000I150000J0D01*
G01*
X67472000Y-48087000D01*
G75*
G02*
X67622000Y-48237000I0J-150000D01*
G01*
X67622000Y-48537000D01*
G75*
G02*
X67472000Y-48687000I-150000J0D01*
G01*
X65722000Y-48687000D01*
G75*
G02*
X65572000Y-48537000I0J150000D01*
G01*
G37*
G36*
G01*
X65572000Y-47267000D02*
X65572000Y-46967000D01*
G75*
G02*
X65722000Y-46817000I150000J0D01*
G01*
X67472000Y-46817000D01*
G75*
G02*
X67622000Y-46967000I0J-150000D01*
G01*
X67622000Y-47267000D01*
G75*
G02*
X67472000Y-47417000I-150000J0D01*
G01*
X65722000Y-47417000D01*
G75*
G02*
X65572000Y-47267000I0J150000D01*
G01*
G37*
G36*
G01*
X65572000Y-45997000D02*
X65572000Y-45697000D01*
G75*
G02*
X65722000Y-45547000I150000J0D01*
G01*
X67472000Y-45547000D01*
G75*
G02*
X67622000Y-45697000I0J-150000D01*
G01*
X67622000Y-45997000D01*
G75*
G02*
X67472000Y-46147000I-150000J0D01*
G01*
X65722000Y-46147000D01*
G75*
G02*
X65572000Y-45997000I0J150000D01*
G01*
G37*
G36*
G01*
X65572000Y-44727000D02*
X65572000Y-44427000D01*
G75*
G02*
X65722000Y-44277000I150000J0D01*
G01*
X67472000Y-44277000D01*
G75*
G02*
X67622000Y-44427000I0J-150000D01*
G01*
X67622000Y-44727000D01*
G75*
G02*
X67472000Y-44877000I-150000J0D01*
G01*
X65722000Y-44877000D01*
G75*
G02*
X65572000Y-44727000I0J150000D01*
G01*
G37*
G36*
G01*
X65572000Y-43457000D02*
X65572000Y-43157000D01*
G75*
G02*
X65722000Y-43007000I150000J0D01*
G01*
X67472000Y-43007000D01*
G75*
G02*
X67622000Y-43157000I0J-150000D01*
G01*
X67622000Y-43457000D01*
G75*
G02*
X67472000Y-43607000I-150000J0D01*
G01*
X65722000Y-43607000D01*
G75*
G02*
X65572000Y-43457000I0J150000D01*
G01*
G37*
G36*
G01*
X65572000Y-42187000D02*
X65572000Y-41887000D01*
G75*
G02*
X65722000Y-41737000I150000J0D01*
G01*
X67472000Y-41737000D01*
G75*
G02*
X67622000Y-41887000I0J-150000D01*
G01*
X67622000Y-42187000D01*
G75*
G02*
X67472000Y-42337000I-150000J0D01*
G01*
X65722000Y-42337000D01*
G75*
G02*
X65572000Y-42187000I0J150000D01*
G01*
G37*
G36*
G01*
X65572000Y-40917000D02*
X65572000Y-40617000D01*
G75*
G02*
X65722000Y-40467000I150000J0D01*
G01*
X67472000Y-40467000D01*
G75*
G02*
X67622000Y-40617000I0J-150000D01*
G01*
X67622000Y-40917000D01*
G75*
G02*
X67472000Y-41067000I-150000J0D01*
G01*
X65722000Y-41067000D01*
G75*
G02*
X65572000Y-40917000I0J150000D01*
G01*
G37*
G36*
G01*
X65572000Y-39647000D02*
X65572000Y-39347000D01*
G75*
G02*
X65722000Y-39197000I150000J0D01*
G01*
X67472000Y-39197000D01*
G75*
G02*
X67622000Y-39347000I0J-150000D01*
G01*
X67622000Y-39647000D01*
G75*
G02*
X67472000Y-39797000I-150000J0D01*
G01*
X65722000Y-39797000D01*
G75*
G02*
X65572000Y-39647000I0J150000D01*
G01*
G37*
G36*
G01*
X65572000Y-38377000D02*
X65572000Y-38077000D01*
G75*
G02*
X65722000Y-37927000I150000J0D01*
G01*
X67472000Y-37927000D01*
G75*
G02*
X67622000Y-38077000I0J-150000D01*
G01*
X67622000Y-38377000D01*
G75*
G02*
X67472000Y-38527000I-150000J0D01*
G01*
X65722000Y-38527000D01*
G75*
G02*
X65572000Y-38377000I0J150000D01*
G01*
G37*
G36*
G01*
X65572000Y-37107000D02*
X65572000Y-36807000D01*
G75*
G02*
X65722000Y-36657000I150000J0D01*
G01*
X67472000Y-36657000D01*
G75*
G02*
X67622000Y-36807000I0J-150000D01*
G01*
X67622000Y-37107000D01*
G75*
G02*
X67472000Y-37257000I-150000J0D01*
G01*
X65722000Y-37257000D01*
G75*
G02*
X65572000Y-37107000I0J150000D01*
G01*
G37*
%TD*%
D24*
%TO.C,U22*%
X39370000Y-57150000D03*
X31750000Y-85090000D03*
X39370000Y-59690000D03*
X31750000Y-82550000D03*
X39370000Y-62230000D03*
X31750000Y-80010000D03*
X39370000Y-64770000D03*
X31750000Y-77470000D03*
X39370000Y-67310000D03*
X31750000Y-74930000D03*
X39370000Y-69850000D03*
X31750000Y-72390000D03*
X39370000Y-72390000D03*
X31750000Y-69850000D03*
X39370000Y-74930000D03*
X31750000Y-67310000D03*
X39370000Y-77470000D03*
X31750000Y-64770000D03*
X39370000Y-80010000D03*
X31750000Y-62230000D03*
X39370000Y-82550000D03*
X31750000Y-59690000D03*
X39370000Y-85090000D03*
D17*
X31750000Y-57150000D03*
%TD*%
D26*
%TO.C,M4*%
X23500000Y-116500000D03*
%TD*%
%TO.C,M3*%
X23500000Y-23500000D03*
%TD*%
%TO.C,M2*%
X116500000Y-116500000D03*
%TD*%
%TO.C,M1*%
X116500000Y-23500000D03*
%TD*%
D16*
%TO.C,C1*%
X34754000Y-35903000D03*
D17*
X31254000Y-35903000D03*
%TD*%
D16*
%TO.C,C4*%
X34754000Y-26603000D03*
D17*
X31254000Y-26603000D03*
%TD*%
D27*
%TO.C,J4*%
X22540000Y-30600000D03*
D28*
X25080000Y-30600000D03*
X22540000Y-33140000D03*
X25080000Y-33140000D03*
X22540000Y-35680000D03*
X25080000Y-35680000D03*
X22540000Y-38220000D03*
X25080000Y-38220000D03*
%TD*%
%TO.C,J1*%
X25080000Y-109400000D03*
X22540000Y-109400000D03*
X25080000Y-106860000D03*
X22540000Y-106860000D03*
X25080000Y-104320000D03*
X22540000Y-104320000D03*
X25080000Y-101780000D03*
D27*
X22540000Y-101780000D03*
%TD*%
D28*
%TO.C,J3*%
X25080000Y-94130000D03*
X22540000Y-94130000D03*
X25080000Y-91590000D03*
X22540000Y-91590000D03*
X25080000Y-89050000D03*
X22540000Y-89050000D03*
X25080000Y-86510000D03*
X22540000Y-86510000D03*
X25080000Y-83970000D03*
X22540000Y-83970000D03*
X25080000Y-81430000D03*
X22540000Y-81430000D03*
X25080000Y-78890000D03*
X22540000Y-78890000D03*
X25080000Y-76350000D03*
X22540000Y-76350000D03*
X25080000Y-73810000D03*
X22540000Y-73810000D03*
X25080000Y-71270000D03*
X22540000Y-71270000D03*
X25080000Y-68730000D03*
X22540000Y-68730000D03*
X25080000Y-66190000D03*
X22540000Y-66190000D03*
X25080000Y-63650000D03*
X22540000Y-63650000D03*
X25080000Y-61110000D03*
X22540000Y-61110000D03*
X25080000Y-58570000D03*
X22540000Y-58570000D03*
X25080000Y-56030000D03*
X22540000Y-56030000D03*
X25080000Y-53490000D03*
X22540000Y-53490000D03*
X25080000Y-50950000D03*
X22540000Y-50950000D03*
X25080000Y-48410000D03*
X22540000Y-48410000D03*
X25080000Y-45870000D03*
D27*
X22540000Y-45870000D03*
%TD*%
M02*
