%TF.GenerationSoftware,KiCad,Pcbnew,(5.1.9)-1*%
%TF.CreationDate,2021-05-23T14:47:50-04:00*%
%TF.ProjectId,cpu2,63707532-2e6b-4696-9361-645f70636258,rev?*%
%TF.SameCoordinates,Original*%
%TF.FileFunction,Soldermask,Bot*%
%TF.FilePolarity,Negative*%
%FSLAX46Y46*%
G04 Gerber Fmt 4.6, Leading zero omitted, Abs format (unit mm)*
G04 Created by KiCad (PCBNEW (5.1.9)-1) date 2021-05-23 14:47:50*
%MOMM*%
%LPD*%
G01*
G04 APERTURE LIST*
%ADD10C,3.200000*%
%ADD11C,1.800000*%
%ADD12R,1.800000X1.800000*%
%ADD13O,1.700000X1.700000*%
%ADD14R,1.700000X1.700000*%
%ADD15C,1.600000*%
%ADD16R,1.600000X1.600000*%
%ADD17C,2.000000*%
%ADD18O,1.600000X1.600000*%
%ADD19C,1.000000*%
%ADD20C,1.524000*%
G04 APERTURE END LIST*
D10*
%TO.C,M4*%
X23500000Y-116500000D03*
%TD*%
%TO.C,M3*%
X23500000Y-23500000D03*
%TD*%
%TO.C,M2*%
X116500000Y-116500000D03*
%TD*%
%TO.C,M1*%
X116500000Y-23500000D03*
%TD*%
%TO.C,R21*%
G36*
G01*
X102104000Y-61410001D02*
X102104000Y-60509999D01*
G75*
G02*
X102353999Y-60260000I249999J0D01*
G01*
X102879001Y-60260000D01*
G75*
G02*
X103129000Y-60509999I0J-249999D01*
G01*
X103129000Y-61410001D01*
G75*
G02*
X102879001Y-61660000I-249999J0D01*
G01*
X102353999Y-61660000D01*
G75*
G02*
X102104000Y-61410001I0J249999D01*
G01*
G37*
G36*
G01*
X100279000Y-61410001D02*
X100279000Y-60509999D01*
G75*
G02*
X100528999Y-60260000I249999J0D01*
G01*
X101054001Y-60260000D01*
G75*
G02*
X101304000Y-60509999I0J-249999D01*
G01*
X101304000Y-61410001D01*
G75*
G02*
X101054001Y-61660000I-249999J0D01*
G01*
X100528999Y-61660000D01*
G75*
G02*
X100279000Y-61410001I0J249999D01*
G01*
G37*
%TD*%
%TO.C,R20*%
G36*
G01*
X102104000Y-56838001D02*
X102104000Y-55937999D01*
G75*
G02*
X102353999Y-55688000I249999J0D01*
G01*
X102879001Y-55688000D01*
G75*
G02*
X103129000Y-55937999I0J-249999D01*
G01*
X103129000Y-56838001D01*
G75*
G02*
X102879001Y-57088000I-249999J0D01*
G01*
X102353999Y-57088000D01*
G75*
G02*
X102104000Y-56838001I0J249999D01*
G01*
G37*
G36*
G01*
X100279000Y-56838001D02*
X100279000Y-55937999D01*
G75*
G02*
X100528999Y-55688000I249999J0D01*
G01*
X101054001Y-55688000D01*
G75*
G02*
X101304000Y-55937999I0J-249999D01*
G01*
X101304000Y-56838001D01*
G75*
G02*
X101054001Y-57088000I-249999J0D01*
G01*
X100528999Y-57088000D01*
G75*
G02*
X100279000Y-56838001I0J249999D01*
G01*
G37*
%TD*%
D11*
%TO.C,D10*%
X105156000Y-62992000D03*
D12*
X102616000Y-62992000D03*
%TD*%
D11*
%TO.C,D9*%
X105156000Y-58420000D03*
D12*
X102616000Y-58420000D03*
%TD*%
%TO.C,R19*%
G36*
G01*
X113026000Y-108400001D02*
X113026000Y-107499999D01*
G75*
G02*
X113275999Y-107250000I249999J0D01*
G01*
X113801001Y-107250000D01*
G75*
G02*
X114051000Y-107499999I0J-249999D01*
G01*
X114051000Y-108400001D01*
G75*
G02*
X113801001Y-108650000I-249999J0D01*
G01*
X113275999Y-108650000D01*
G75*
G02*
X113026000Y-108400001I0J249999D01*
G01*
G37*
G36*
G01*
X111201000Y-108400001D02*
X111201000Y-107499999D01*
G75*
G02*
X111450999Y-107250000I249999J0D01*
G01*
X111976001Y-107250000D01*
G75*
G02*
X112226000Y-107499999I0J-249999D01*
G01*
X112226000Y-108400001D01*
G75*
G02*
X111976001Y-108650000I-249999J0D01*
G01*
X111450999Y-108650000D01*
G75*
G02*
X111201000Y-108400001I0J249999D01*
G01*
G37*
%TD*%
D11*
%TO.C,D8*%
X116332000Y-109982000D03*
D12*
X113792000Y-109982000D03*
%TD*%
%TO.C,R18*%
G36*
G01*
X107384001Y-25912500D02*
X106483999Y-25912500D01*
G75*
G02*
X106234000Y-25662501I0J249999D01*
G01*
X106234000Y-25137499D01*
G75*
G02*
X106483999Y-24887500I249999J0D01*
G01*
X107384001Y-24887500D01*
G75*
G02*
X107634000Y-25137499I0J-249999D01*
G01*
X107634000Y-25662501D01*
G75*
G02*
X107384001Y-25912500I-249999J0D01*
G01*
G37*
G36*
G01*
X107384001Y-27737500D02*
X106483999Y-27737500D01*
G75*
G02*
X106234000Y-27487501I0J249999D01*
G01*
X106234000Y-26962499D01*
G75*
G02*
X106483999Y-26712500I249999J0D01*
G01*
X107384001Y-26712500D01*
G75*
G02*
X107634000Y-26962499I0J-249999D01*
G01*
X107634000Y-27487501D01*
G75*
G02*
X107384001Y-27737500I-249999J0D01*
G01*
G37*
%TD*%
D11*
%TO.C,D7*%
X108966000Y-22860000D03*
D12*
X108966000Y-25400000D03*
%TD*%
%TO.C,R17*%
G36*
G01*
X101288001Y-25912500D02*
X100387999Y-25912500D01*
G75*
G02*
X100138000Y-25662501I0J249999D01*
G01*
X100138000Y-25137499D01*
G75*
G02*
X100387999Y-24887500I249999J0D01*
G01*
X101288001Y-24887500D01*
G75*
G02*
X101538000Y-25137499I0J-249999D01*
G01*
X101538000Y-25662501D01*
G75*
G02*
X101288001Y-25912500I-249999J0D01*
G01*
G37*
G36*
G01*
X101288001Y-27737500D02*
X100387999Y-27737500D01*
G75*
G02*
X100138000Y-27487501I0J249999D01*
G01*
X100138000Y-26962499D01*
G75*
G02*
X100387999Y-26712500I249999J0D01*
G01*
X101288001Y-26712500D01*
G75*
G02*
X101538000Y-26962499I0J-249999D01*
G01*
X101538000Y-27487501D01*
G75*
G02*
X101288001Y-27737500I-249999J0D01*
G01*
G37*
%TD*%
D11*
%TO.C,D6*%
X102870000Y-22860000D03*
D12*
X102870000Y-25400000D03*
%TD*%
D13*
%TO.C,J5*%
X30226000Y-21844000D03*
X32766000Y-21844000D03*
X35306000Y-21844000D03*
X37846000Y-21844000D03*
X40386000Y-21844000D03*
X42926000Y-21844000D03*
X45466000Y-21844000D03*
X48006000Y-21844000D03*
X50546000Y-21844000D03*
X53086000Y-21844000D03*
X55626000Y-21844000D03*
X58166000Y-21844000D03*
D14*
X60706000Y-21844000D03*
%TD*%
%TO.C,R16*%
G36*
G01*
X59290000Y-29521998D02*
X59290000Y-30422002D01*
G75*
G02*
X59040002Y-30672000I-249998J0D01*
G01*
X58514998Y-30672000D01*
G75*
G02*
X58265000Y-30422002I0J249998D01*
G01*
X58265000Y-29521998D01*
G75*
G02*
X58514998Y-29272000I249998J0D01*
G01*
X59040002Y-29272000D01*
G75*
G02*
X59290000Y-29521998I0J-249998D01*
G01*
G37*
G36*
G01*
X61115000Y-29521998D02*
X61115000Y-30422002D01*
G75*
G02*
X60865002Y-30672000I-249998J0D01*
G01*
X60339998Y-30672000D01*
G75*
G02*
X60090000Y-30422002I0J249998D01*
G01*
X60090000Y-29521998D01*
G75*
G02*
X60339998Y-29272000I249998J0D01*
G01*
X60865002Y-29272000D01*
G75*
G02*
X61115000Y-29521998I0J-249998D01*
G01*
G37*
%TD*%
%TO.C,R15*%
G36*
G01*
X61450002Y-36300000D02*
X60549998Y-36300000D01*
G75*
G02*
X60300000Y-36050002I0J249998D01*
G01*
X60300000Y-35524998D01*
G75*
G02*
X60549998Y-35275000I249998J0D01*
G01*
X61450002Y-35275000D01*
G75*
G02*
X61700000Y-35524998I0J-249998D01*
G01*
X61700000Y-36050002D01*
G75*
G02*
X61450002Y-36300000I-249998J0D01*
G01*
G37*
G36*
G01*
X61450002Y-38125000D02*
X60549998Y-38125000D01*
G75*
G02*
X60300000Y-37875002I0J249998D01*
G01*
X60300000Y-37349998D01*
G75*
G02*
X60549998Y-37100000I249998J0D01*
G01*
X61450002Y-37100000D01*
G75*
G02*
X61700000Y-37349998I0J-249998D01*
G01*
X61700000Y-37875002D01*
G75*
G02*
X61450002Y-38125000I-249998J0D01*
G01*
G37*
%TD*%
D11*
%TO.C,D5*%
X58674000Y-25400000D03*
D12*
X58674000Y-27940000D03*
%TD*%
D11*
%TO.C,D4*%
X58674000Y-33274000D03*
D12*
X58674000Y-35814000D03*
%TD*%
%TO.C,R14*%
G36*
G01*
X77781998Y-23871500D02*
X78682002Y-23871500D01*
G75*
G02*
X78932000Y-24121498I0J-249998D01*
G01*
X78932000Y-24646502D01*
G75*
G02*
X78682002Y-24896500I-249998J0D01*
G01*
X77781998Y-24896500D01*
G75*
G02*
X77532000Y-24646502I0J249998D01*
G01*
X77532000Y-24121498D01*
G75*
G02*
X77781998Y-23871500I249998J0D01*
G01*
G37*
G36*
G01*
X77781998Y-22046500D02*
X78682002Y-22046500D01*
G75*
G02*
X78932000Y-22296498I0J-249998D01*
G01*
X78932000Y-22821502D01*
G75*
G02*
X78682002Y-23071500I-249998J0D01*
G01*
X77781998Y-23071500D01*
G75*
G02*
X77532000Y-22821502I0J249998D01*
G01*
X77532000Y-22296498D01*
G75*
G02*
X77781998Y-22046500I249998J0D01*
G01*
G37*
%TD*%
D11*
%TO.C,D3*%
X75946000Y-22098000D03*
D12*
X75946000Y-24638000D03*
%TD*%
D15*
%TO.C,C3*%
X34500000Y-37300000D03*
D16*
X31000000Y-37300000D03*
%TD*%
D17*
%TO.C,SW2*%
X116332000Y-58420000D03*
X116332000Y-62920000D03*
X109832000Y-58420000D03*
X109832000Y-62920000D03*
%TD*%
%TO.C,SW1*%
X116332000Y-49348000D03*
X116332000Y-53848000D03*
X109832000Y-49348000D03*
X109832000Y-53848000D03*
%TD*%
D16*
%TO.C,U8*%
X88900000Y-45720000D03*
D18*
X96520000Y-63500000D03*
X88900000Y-48260000D03*
X96520000Y-60960000D03*
X88900000Y-50800000D03*
X96520000Y-58420000D03*
X88900000Y-53340000D03*
X96520000Y-55880000D03*
X88900000Y-55880000D03*
X96520000Y-53340000D03*
X88900000Y-58420000D03*
X96520000Y-50800000D03*
X88900000Y-60960000D03*
X96520000Y-48260000D03*
X88900000Y-63500000D03*
X96520000Y-45720000D03*
%TD*%
D19*
%TO.C,Y1*%
X85725000Y-46990000D03*
X83185000Y-46990000D03*
%TD*%
D20*
%TO.C,BT1*%
X75330000Y-31750000D03*
X95330000Y-31750000D03*
%TD*%
%TO.C,C23*%
G36*
G01*
X51595000Y-28202000D02*
X52545000Y-28202000D01*
G75*
G02*
X52795000Y-28452000I0J-250000D01*
G01*
X52795000Y-28952000D01*
G75*
G02*
X52545000Y-29202000I-250000J0D01*
G01*
X51595000Y-29202000D01*
G75*
G02*
X51345000Y-28952000I0J250000D01*
G01*
X51345000Y-28452000D01*
G75*
G02*
X51595000Y-28202000I250000J0D01*
G01*
G37*
G36*
G01*
X51595000Y-30102000D02*
X52545000Y-30102000D01*
G75*
G02*
X52795000Y-30352000I0J-250000D01*
G01*
X52795000Y-30852000D01*
G75*
G02*
X52545000Y-31102000I-250000J0D01*
G01*
X51595000Y-31102000D01*
G75*
G02*
X51345000Y-30852000I0J250000D01*
G01*
X51345000Y-30352000D01*
G75*
G02*
X51595000Y-30102000I250000J0D01*
G01*
G37*
%TD*%
%TO.C,C21*%
G36*
G01*
X33503900Y-35762200D02*
X33503900Y-34812200D01*
G75*
G02*
X33753900Y-34562200I250000J0D01*
G01*
X34253900Y-34562200D01*
G75*
G02*
X34503900Y-34812200I0J-250000D01*
G01*
X34503900Y-35762200D01*
G75*
G02*
X34253900Y-36012200I-250000J0D01*
G01*
X33753900Y-36012200D01*
G75*
G02*
X33503900Y-35762200I0J250000D01*
G01*
G37*
G36*
G01*
X31603900Y-35762200D02*
X31603900Y-34812200D01*
G75*
G02*
X31853900Y-34562200I250000J0D01*
G01*
X32353900Y-34562200D01*
G75*
G02*
X32603900Y-34812200I0J-250000D01*
G01*
X32603900Y-35762200D01*
G75*
G02*
X32353900Y-36012200I-250000J0D01*
G01*
X31853900Y-36012200D01*
G75*
G02*
X31603900Y-35762200I0J250000D01*
G01*
G37*
%TD*%
%TO.C,C20*%
G36*
G01*
X33503900Y-30408000D02*
X33503900Y-29458000D01*
G75*
G02*
X33753900Y-29208000I250000J0D01*
G01*
X34253900Y-29208000D01*
G75*
G02*
X34503900Y-29458000I0J-250000D01*
G01*
X34503900Y-30408000D01*
G75*
G02*
X34253900Y-30658000I-250000J0D01*
G01*
X33753900Y-30658000D01*
G75*
G02*
X33503900Y-30408000I0J250000D01*
G01*
G37*
G36*
G01*
X31603900Y-30408000D02*
X31603900Y-29458000D01*
G75*
G02*
X31853900Y-29208000I250000J0D01*
G01*
X32353900Y-29208000D01*
G75*
G02*
X32603900Y-29458000I0J-250000D01*
G01*
X32603900Y-30408000D01*
G75*
G02*
X32353900Y-30658000I-250000J0D01*
G01*
X31853900Y-30658000D01*
G75*
G02*
X31603900Y-30408000I0J250000D01*
G01*
G37*
%TD*%
%TO.C,C19*%
G36*
G01*
X79215000Y-102232000D02*
X78265000Y-102232000D01*
G75*
G02*
X78015000Y-101982000I0J250000D01*
G01*
X78015000Y-101482000D01*
G75*
G02*
X78265000Y-101232000I250000J0D01*
G01*
X79215000Y-101232000D01*
G75*
G02*
X79465000Y-101482000I0J-250000D01*
G01*
X79465000Y-101982000D01*
G75*
G02*
X79215000Y-102232000I-250000J0D01*
G01*
G37*
G36*
G01*
X79215000Y-104132000D02*
X78265000Y-104132000D01*
G75*
G02*
X78015000Y-103882000I0J250000D01*
G01*
X78015000Y-103382000D01*
G75*
G02*
X78265000Y-103132000I250000J0D01*
G01*
X79215000Y-103132000D01*
G75*
G02*
X79465000Y-103382000I0J-250000D01*
G01*
X79465000Y-103882000D01*
G75*
G02*
X79215000Y-104132000I-250000J0D01*
G01*
G37*
%TD*%
%TO.C,C18*%
G36*
G01*
X41786000Y-65880000D02*
X41786000Y-64930000D01*
G75*
G02*
X42036000Y-64680000I250000J0D01*
G01*
X42536000Y-64680000D01*
G75*
G02*
X42786000Y-64930000I0J-250000D01*
G01*
X42786000Y-65880000D01*
G75*
G02*
X42536000Y-66130000I-250000J0D01*
G01*
X42036000Y-66130000D01*
G75*
G02*
X41786000Y-65880000I0J250000D01*
G01*
G37*
G36*
G01*
X39886000Y-65880000D02*
X39886000Y-64930000D01*
G75*
G02*
X40136000Y-64680000I250000J0D01*
G01*
X40636000Y-64680000D01*
G75*
G02*
X40886000Y-64930000I0J-250000D01*
G01*
X40886000Y-65880000D01*
G75*
G02*
X40636000Y-66130000I-250000J0D01*
G01*
X40136000Y-66130000D01*
G75*
G02*
X39886000Y-65880000I0J250000D01*
G01*
G37*
%TD*%
%TO.C,C17*%
G36*
G01*
X54232000Y-93820000D02*
X54232000Y-92870000D01*
G75*
G02*
X54482000Y-92620000I250000J0D01*
G01*
X54982000Y-92620000D01*
G75*
G02*
X55232000Y-92870000I0J-250000D01*
G01*
X55232000Y-93820000D01*
G75*
G02*
X54982000Y-94070000I-250000J0D01*
G01*
X54482000Y-94070000D01*
G75*
G02*
X54232000Y-93820000I0J250000D01*
G01*
G37*
G36*
G01*
X52332000Y-93820000D02*
X52332000Y-92870000D01*
G75*
G02*
X52582000Y-92620000I250000J0D01*
G01*
X53082000Y-92620000D01*
G75*
G02*
X53332000Y-92870000I0J-250000D01*
G01*
X53332000Y-93820000D01*
G75*
G02*
X53082000Y-94070000I-250000J0D01*
G01*
X52582000Y-94070000D01*
G75*
G02*
X52332000Y-93820000I0J250000D01*
G01*
G37*
%TD*%
%TO.C,C16*%
G36*
G01*
X41786000Y-93820000D02*
X41786000Y-92870000D01*
G75*
G02*
X42036000Y-92620000I250000J0D01*
G01*
X42536000Y-92620000D01*
G75*
G02*
X42786000Y-92870000I0J-250000D01*
G01*
X42786000Y-93820000D01*
G75*
G02*
X42536000Y-94070000I-250000J0D01*
G01*
X42036000Y-94070000D01*
G75*
G02*
X41786000Y-93820000I0J250000D01*
G01*
G37*
G36*
G01*
X39886000Y-93820000D02*
X39886000Y-92870000D01*
G75*
G02*
X40136000Y-92620000I250000J0D01*
G01*
X40636000Y-92620000D01*
G75*
G02*
X40886000Y-92870000I0J-250000D01*
G01*
X40886000Y-93820000D01*
G75*
G02*
X40636000Y-94070000I-250000J0D01*
G01*
X40136000Y-94070000D01*
G75*
G02*
X39886000Y-93820000I0J250000D01*
G01*
G37*
%TD*%
%TO.C,C15*%
G36*
G01*
X47628000Y-118585000D02*
X47628000Y-117635000D01*
G75*
G02*
X47878000Y-117385000I250000J0D01*
G01*
X48378000Y-117385000D01*
G75*
G02*
X48628000Y-117635000I0J-250000D01*
G01*
X48628000Y-118585000D01*
G75*
G02*
X48378000Y-118835000I-250000J0D01*
G01*
X47878000Y-118835000D01*
G75*
G02*
X47628000Y-118585000I0J250000D01*
G01*
G37*
G36*
G01*
X45728000Y-118585000D02*
X45728000Y-117635000D01*
G75*
G02*
X45978000Y-117385000I250000J0D01*
G01*
X46478000Y-117385000D01*
G75*
G02*
X46728000Y-117635000I0J-250000D01*
G01*
X46728000Y-118585000D01*
G75*
G02*
X46478000Y-118835000I-250000J0D01*
G01*
X45978000Y-118835000D01*
G75*
G02*
X45728000Y-118585000I0J250000D01*
G01*
G37*
%TD*%
%TO.C,C14*%
G36*
G01*
X94247000Y-68420000D02*
X94247000Y-67470000D01*
G75*
G02*
X94497000Y-67220000I250000J0D01*
G01*
X94997000Y-67220000D01*
G75*
G02*
X95247000Y-67470000I0J-250000D01*
G01*
X95247000Y-68420000D01*
G75*
G02*
X94997000Y-68670000I-250000J0D01*
G01*
X94497000Y-68670000D01*
G75*
G02*
X94247000Y-68420000I0J250000D01*
G01*
G37*
G36*
G01*
X96147000Y-68420000D02*
X96147000Y-67470000D01*
G75*
G02*
X96397000Y-67220000I250000J0D01*
G01*
X96897000Y-67220000D01*
G75*
G02*
X97147000Y-67470000I0J-250000D01*
G01*
X97147000Y-68420000D01*
G75*
G02*
X96897000Y-68670000I-250000J0D01*
G01*
X96397000Y-68670000D01*
G75*
G02*
X96147000Y-68420000I0J250000D01*
G01*
G37*
%TD*%
%TO.C,C13*%
G36*
G01*
X54232000Y-65880000D02*
X54232000Y-64930000D01*
G75*
G02*
X54482000Y-64680000I250000J0D01*
G01*
X54982000Y-64680000D01*
G75*
G02*
X55232000Y-64930000I0J-250000D01*
G01*
X55232000Y-65880000D01*
G75*
G02*
X54982000Y-66130000I-250000J0D01*
G01*
X54482000Y-66130000D01*
G75*
G02*
X54232000Y-65880000I0J250000D01*
G01*
G37*
G36*
G01*
X52332000Y-65880000D02*
X52332000Y-64930000D01*
G75*
G02*
X52582000Y-64680000I250000J0D01*
G01*
X53082000Y-64680000D01*
G75*
G02*
X53332000Y-64930000I0J-250000D01*
G01*
X53332000Y-65880000D01*
G75*
G02*
X53082000Y-66130000I-250000J0D01*
G01*
X52582000Y-66130000D01*
G75*
G02*
X52332000Y-65880000I0J250000D01*
G01*
G37*
%TD*%
%TO.C,C12*%
G36*
G01*
X80551000Y-111514000D02*
X81501000Y-111514000D01*
G75*
G02*
X81751000Y-111764000I0J-250000D01*
G01*
X81751000Y-112264000D01*
G75*
G02*
X81501000Y-112514000I-250000J0D01*
G01*
X80551000Y-112514000D01*
G75*
G02*
X80301000Y-112264000I0J250000D01*
G01*
X80301000Y-111764000D01*
G75*
G02*
X80551000Y-111514000I250000J0D01*
G01*
G37*
G36*
G01*
X80551000Y-113414000D02*
X81501000Y-113414000D01*
G75*
G02*
X81751000Y-113664000I0J-250000D01*
G01*
X81751000Y-114164000D01*
G75*
G02*
X81501000Y-114414000I-250000J0D01*
G01*
X80551000Y-114414000D01*
G75*
G02*
X80301000Y-114164000I0J250000D01*
G01*
X80301000Y-113664000D01*
G75*
G02*
X80551000Y-113414000I250000J0D01*
G01*
G37*
%TD*%
%TO.C,C11*%
G36*
G01*
X76675000Y-114678000D02*
X75725000Y-114678000D01*
G75*
G02*
X75475000Y-114428000I0J250000D01*
G01*
X75475000Y-113928000D01*
G75*
G02*
X75725000Y-113678000I250000J0D01*
G01*
X76675000Y-113678000D01*
G75*
G02*
X76925000Y-113928000I0J-250000D01*
G01*
X76925000Y-114428000D01*
G75*
G02*
X76675000Y-114678000I-250000J0D01*
G01*
G37*
G36*
G01*
X76675000Y-116578000D02*
X75725000Y-116578000D01*
G75*
G02*
X75475000Y-116328000I0J250000D01*
G01*
X75475000Y-115828000D01*
G75*
G02*
X75725000Y-115578000I250000J0D01*
G01*
X76675000Y-115578000D01*
G75*
G02*
X76925000Y-115828000I0J-250000D01*
G01*
X76925000Y-116328000D01*
G75*
G02*
X76675000Y-116578000I-250000J0D01*
G01*
G37*
%TD*%
%TO.C,C10*%
G36*
G01*
X114800000Y-67470000D02*
X114800000Y-68420000D01*
G75*
G02*
X114550000Y-68670000I-250000J0D01*
G01*
X114050000Y-68670000D01*
G75*
G02*
X113800000Y-68420000I0J250000D01*
G01*
X113800000Y-67470000D01*
G75*
G02*
X114050000Y-67220000I250000J0D01*
G01*
X114550000Y-67220000D01*
G75*
G02*
X114800000Y-67470000I0J-250000D01*
G01*
G37*
G36*
G01*
X116700000Y-67470000D02*
X116700000Y-68420000D01*
G75*
G02*
X116450000Y-68670000I-250000J0D01*
G01*
X115950000Y-68670000D01*
G75*
G02*
X115700000Y-68420000I0J250000D01*
G01*
X115700000Y-67470000D01*
G75*
G02*
X115950000Y-67220000I250000J0D01*
G01*
X116450000Y-67220000D01*
G75*
G02*
X116700000Y-67470000I0J-250000D01*
G01*
G37*
%TD*%
%TO.C,C9*%
G36*
G01*
X66297000Y-69817000D02*
X66297000Y-68867000D01*
G75*
G02*
X66547000Y-68617000I250000J0D01*
G01*
X67047000Y-68617000D01*
G75*
G02*
X67297000Y-68867000I0J-250000D01*
G01*
X67297000Y-69817000D01*
G75*
G02*
X67047000Y-70067000I-250000J0D01*
G01*
X66547000Y-70067000D01*
G75*
G02*
X66297000Y-69817000I0J250000D01*
G01*
G37*
G36*
G01*
X64397000Y-69817000D02*
X64397000Y-68867000D01*
G75*
G02*
X64647000Y-68617000I250000J0D01*
G01*
X65147000Y-68617000D01*
G75*
G02*
X65397000Y-68867000I0J-250000D01*
G01*
X65397000Y-69817000D01*
G75*
G02*
X65147000Y-70067000I-250000J0D01*
G01*
X64647000Y-70067000D01*
G75*
G02*
X64397000Y-69817000I0J250000D01*
G01*
G37*
%TD*%
D15*
%TO.C,C8*%
X34500000Y-28000000D03*
D16*
X31000000Y-28000000D03*
%TD*%
D18*
%TO.C,U10*%
X78740000Y-105410000D03*
X63500000Y-97790000D03*
X76200000Y-105410000D03*
X66040000Y-97790000D03*
X73660000Y-105410000D03*
X68580000Y-97790000D03*
X71120000Y-105410000D03*
X71120000Y-97790000D03*
X68580000Y-105410000D03*
X73660000Y-97790000D03*
X66040000Y-105410000D03*
X76200000Y-97790000D03*
X63500000Y-105410000D03*
D16*
X78740000Y-97790000D03*
%TD*%
D18*
%TO.C,U6*%
X76200000Y-117856000D03*
X60960000Y-110236000D03*
X73660000Y-117856000D03*
X63500000Y-110236000D03*
X71120000Y-117856000D03*
X66040000Y-110236000D03*
X68580000Y-117856000D03*
X68580000Y-110236000D03*
X66040000Y-117856000D03*
X71120000Y-110236000D03*
X63500000Y-117856000D03*
X73660000Y-110236000D03*
X60960000Y-117856000D03*
D16*
X76200000Y-110236000D03*
%TD*%
D18*
%TO.C,U1*%
X71755000Y-22860000D03*
X64135000Y-38100000D03*
X71755000Y-25400000D03*
X64135000Y-35560000D03*
X71755000Y-27940000D03*
X64135000Y-33020000D03*
X71755000Y-30480000D03*
X64135000Y-30480000D03*
X71755000Y-33020000D03*
X64135000Y-27940000D03*
X71755000Y-35560000D03*
X64135000Y-25400000D03*
X71755000Y-38100000D03*
D16*
X64135000Y-22860000D03*
%TD*%
D18*
%TO.C,U5*%
X81026000Y-110236000D03*
X108966000Y-117856000D03*
X83566000Y-110236000D03*
X106426000Y-117856000D03*
X86106000Y-110236000D03*
X103886000Y-117856000D03*
X88646000Y-110236000D03*
X101346000Y-117856000D03*
X91186000Y-110236000D03*
X98806000Y-117856000D03*
X93726000Y-110236000D03*
X96266000Y-117856000D03*
X96266000Y-110236000D03*
X93726000Y-117856000D03*
X98806000Y-110236000D03*
X91186000Y-117856000D03*
X101346000Y-110236000D03*
X88646000Y-117856000D03*
X103886000Y-110236000D03*
X86106000Y-117856000D03*
X106426000Y-110236000D03*
X83566000Y-117856000D03*
X108966000Y-110236000D03*
D16*
X81026000Y-117856000D03*
%TD*%
D18*
%TO.C,U4*%
X44450000Y-118110000D03*
X52070000Y-100330000D03*
X44450000Y-115570000D03*
X52070000Y-102870000D03*
X44450000Y-113030000D03*
X52070000Y-105410000D03*
X44450000Y-110490000D03*
X52070000Y-107950000D03*
X44450000Y-107950000D03*
X52070000Y-110490000D03*
X44450000Y-105410000D03*
X52070000Y-113030000D03*
X44450000Y-102870000D03*
X52070000Y-115570000D03*
X44450000Y-100330000D03*
D16*
X52070000Y-118110000D03*
%TD*%
D18*
%TO.C,U3*%
X31750000Y-118110000D03*
X39370000Y-100330000D03*
X31750000Y-115570000D03*
X39370000Y-102870000D03*
X31750000Y-113030000D03*
X39370000Y-105410000D03*
X31750000Y-110490000D03*
X39370000Y-107950000D03*
X31750000Y-107950000D03*
X39370000Y-110490000D03*
X31750000Y-105410000D03*
X39370000Y-113030000D03*
X31750000Y-102870000D03*
X39370000Y-115570000D03*
X31750000Y-100330000D03*
D16*
X39370000Y-118110000D03*
%TD*%
D18*
%TO.C,U2*%
X78499000Y-43815000D03*
X63259000Y-92075000D03*
X78499000Y-46355000D03*
X63259000Y-89535000D03*
X78499000Y-48895000D03*
X63259000Y-86995000D03*
X78499000Y-51435000D03*
X63259000Y-84455000D03*
X78499000Y-53975000D03*
X63259000Y-81915000D03*
X78499000Y-56515000D03*
X63259000Y-79375000D03*
X78499000Y-59055000D03*
X63259000Y-76835000D03*
X78499000Y-61595000D03*
X63259000Y-74295000D03*
X78499000Y-64135000D03*
X63259000Y-71755000D03*
X78499000Y-66675000D03*
X63259000Y-69215000D03*
X78499000Y-69215000D03*
X63259000Y-66675000D03*
X78499000Y-71755000D03*
X63259000Y-64135000D03*
X78499000Y-74295000D03*
X63259000Y-61595000D03*
X78499000Y-76835000D03*
X63259000Y-59055000D03*
X78499000Y-79375000D03*
X63259000Y-56515000D03*
X78499000Y-81915000D03*
X63259000Y-53975000D03*
X78499000Y-84455000D03*
X63259000Y-51435000D03*
X78499000Y-86995000D03*
X63259000Y-48895000D03*
X78499000Y-89535000D03*
X63259000Y-46355000D03*
X78499000Y-92075000D03*
D16*
X63259000Y-43815000D03*
%TD*%
%TO.C,U12*%
X83185000Y-67945000D03*
D18*
X98425000Y-106045000D03*
X83185000Y-70485000D03*
X98425000Y-103505000D03*
X83185000Y-73025000D03*
X98425000Y-100965000D03*
X83185000Y-75565000D03*
X98425000Y-98425000D03*
X83185000Y-78105000D03*
X98425000Y-95885000D03*
X83185000Y-80645000D03*
X98425000Y-93345000D03*
X83185000Y-83185000D03*
X98425000Y-90805000D03*
X83185000Y-85725000D03*
X98425000Y-88265000D03*
X83185000Y-88265000D03*
X98425000Y-85725000D03*
X83185000Y-90805000D03*
X98425000Y-83185000D03*
X83185000Y-93345000D03*
X98425000Y-80645000D03*
X83185000Y-95885000D03*
X98425000Y-78105000D03*
X83185000Y-98425000D03*
X98425000Y-75565000D03*
X83185000Y-100965000D03*
X98425000Y-73025000D03*
X83185000Y-103505000D03*
X98425000Y-70485000D03*
X83185000Y-106045000D03*
X98425000Y-67945000D03*
%TD*%
%TO.C,U11*%
X118110000Y-67945000D03*
X102870000Y-106045000D03*
X118110000Y-70485000D03*
X102870000Y-103505000D03*
X118110000Y-73025000D03*
X102870000Y-100965000D03*
X118110000Y-75565000D03*
X102870000Y-98425000D03*
X118110000Y-78105000D03*
X102870000Y-95885000D03*
X118110000Y-80645000D03*
X102870000Y-93345000D03*
X118110000Y-83185000D03*
X102870000Y-90805000D03*
X118110000Y-85725000D03*
X102870000Y-88265000D03*
X118110000Y-88265000D03*
X102870000Y-85725000D03*
X118110000Y-90805000D03*
X102870000Y-83185000D03*
X118110000Y-93345000D03*
X102870000Y-80645000D03*
X118110000Y-95885000D03*
X102870000Y-78105000D03*
X118110000Y-98425000D03*
X102870000Y-75565000D03*
X118110000Y-100965000D03*
X102870000Y-73025000D03*
X118110000Y-103505000D03*
X102870000Y-70485000D03*
X118110000Y-106045000D03*
D16*
X102870000Y-67945000D03*
%TD*%
D18*
%TO.C,U16*%
X38608000Y-65405000D03*
X46228000Y-42545000D03*
X38608000Y-62865000D03*
X46228000Y-45085000D03*
X38608000Y-60325000D03*
X46228000Y-47625000D03*
X38608000Y-57785000D03*
X46228000Y-50165000D03*
X38608000Y-55245000D03*
X46228000Y-52705000D03*
X38608000Y-52705000D03*
X46228000Y-55245000D03*
X38608000Y-50165000D03*
X46228000Y-57785000D03*
X38608000Y-47625000D03*
X46228000Y-60325000D03*
X38608000Y-45085000D03*
X46228000Y-62865000D03*
X38608000Y-42545000D03*
D16*
X46228000Y-65405000D03*
%TD*%
D18*
%TO.C,U15*%
X51054000Y-93345000D03*
X58674000Y-70485000D03*
X51054000Y-90805000D03*
X58674000Y-73025000D03*
X51054000Y-88265000D03*
X58674000Y-75565000D03*
X51054000Y-85725000D03*
X58674000Y-78105000D03*
X51054000Y-83185000D03*
X58674000Y-80645000D03*
X51054000Y-80645000D03*
X58674000Y-83185000D03*
X51054000Y-78105000D03*
X58674000Y-85725000D03*
X51054000Y-75565000D03*
X58674000Y-88265000D03*
X51054000Y-73025000D03*
X58674000Y-90805000D03*
X51054000Y-70485000D03*
D16*
X58674000Y-93345000D03*
%TD*%
D18*
%TO.C,U14*%
X51054000Y-65405000D03*
X58674000Y-42545000D03*
X51054000Y-62865000D03*
X58674000Y-45085000D03*
X51054000Y-60325000D03*
X58674000Y-47625000D03*
X51054000Y-57785000D03*
X58674000Y-50165000D03*
X51054000Y-55245000D03*
X58674000Y-52705000D03*
X51054000Y-52705000D03*
X58674000Y-55245000D03*
X51054000Y-50165000D03*
X58674000Y-57785000D03*
X51054000Y-47625000D03*
X58674000Y-60325000D03*
X51054000Y-45085000D03*
X58674000Y-62865000D03*
X51054000Y-42545000D03*
D16*
X58674000Y-65405000D03*
%TD*%
%TO.C,U13*%
X46228000Y-93345000D03*
D18*
X38608000Y-70485000D03*
X46228000Y-90805000D03*
X38608000Y-73025000D03*
X46228000Y-88265000D03*
X38608000Y-75565000D03*
X46228000Y-85725000D03*
X38608000Y-78105000D03*
X46228000Y-83185000D03*
X38608000Y-80645000D03*
X46228000Y-80645000D03*
X38608000Y-83185000D03*
X46228000Y-78105000D03*
X38608000Y-85725000D03*
X46228000Y-75565000D03*
X38608000Y-88265000D03*
X46228000Y-73025000D03*
X38608000Y-90805000D03*
X46228000Y-70485000D03*
X38608000Y-93345000D03*
%TD*%
D14*
%TO.C,J2*%
X22540000Y-30600000D03*
D13*
X25080000Y-30600000D03*
X22540000Y-33140000D03*
X25080000Y-33140000D03*
X22540000Y-35680000D03*
X25080000Y-35680000D03*
X22540000Y-38220000D03*
X25080000Y-38220000D03*
%TD*%
%TO.C,J1*%
X25080000Y-109400000D03*
X22540000Y-109400000D03*
X25080000Y-106860000D03*
X22540000Y-106860000D03*
X25080000Y-104320000D03*
X22540000Y-104320000D03*
X25080000Y-101780000D03*
D14*
X22540000Y-101780000D03*
%TD*%
%TO.C,R9*%
G36*
G01*
X102104000Y-47694002D02*
X102104000Y-46793998D01*
G75*
G02*
X102353998Y-46544000I249998J0D01*
G01*
X102879002Y-46544000D01*
G75*
G02*
X103129000Y-46793998I0J-249998D01*
G01*
X103129000Y-47694002D01*
G75*
G02*
X102879002Y-47944000I-249998J0D01*
G01*
X102353998Y-47944000D01*
G75*
G02*
X102104000Y-47694002I0J249998D01*
G01*
G37*
G36*
G01*
X100279000Y-47694002D02*
X100279000Y-46793998D01*
G75*
G02*
X100528998Y-46544000I249998J0D01*
G01*
X101054002Y-46544000D01*
G75*
G02*
X101304000Y-46793998I0J-249998D01*
G01*
X101304000Y-47694002D01*
G75*
G02*
X101054002Y-47944000I-249998J0D01*
G01*
X100528998Y-47944000D01*
G75*
G02*
X100279000Y-47694002I0J249998D01*
G01*
G37*
%TD*%
D11*
%TO.C,D2*%
X105156000Y-49276000D03*
D12*
X102616000Y-49276000D03*
%TD*%
D13*
%TO.C,J4*%
X33080000Y-94130000D03*
X30540000Y-94130000D03*
X33080000Y-91590000D03*
X30540000Y-91590000D03*
X33080000Y-89050000D03*
X30540000Y-89050000D03*
X33080000Y-86510000D03*
X30540000Y-86510000D03*
X33080000Y-83970000D03*
X30540000Y-83970000D03*
X33080000Y-81430000D03*
X30540000Y-81430000D03*
X33080000Y-78890000D03*
X30540000Y-78890000D03*
X33080000Y-76350000D03*
X30540000Y-76350000D03*
X33080000Y-73810000D03*
X30540000Y-73810000D03*
X33080000Y-71270000D03*
X30540000Y-71270000D03*
X33080000Y-68730000D03*
X30540000Y-68730000D03*
X33080000Y-66190000D03*
X30540000Y-66190000D03*
X33080000Y-63650000D03*
X30540000Y-63650000D03*
X33080000Y-61110000D03*
X30540000Y-61110000D03*
X33080000Y-58570000D03*
X30540000Y-58570000D03*
X33080000Y-56030000D03*
X30540000Y-56030000D03*
X33080000Y-53490000D03*
X30540000Y-53490000D03*
X33080000Y-50950000D03*
X30540000Y-50950000D03*
X33080000Y-48410000D03*
X30540000Y-48410000D03*
X33080000Y-45870000D03*
D14*
X30540000Y-45870000D03*
%TD*%
%TO.C,R13*%
G36*
G01*
X53344500Y-62414998D02*
X53344500Y-63315002D01*
G75*
G02*
X53094502Y-63565000I-249998J0D01*
G01*
X52569498Y-63565000D01*
G75*
G02*
X52319500Y-63315002I0J249998D01*
G01*
X52319500Y-62414998D01*
G75*
G02*
X52569498Y-62165000I249998J0D01*
G01*
X53094502Y-62165000D01*
G75*
G02*
X53344500Y-62414998I0J-249998D01*
G01*
G37*
G36*
G01*
X55169500Y-62414998D02*
X55169500Y-63315002D01*
G75*
G02*
X54919502Y-63565000I-249998J0D01*
G01*
X54394498Y-63565000D01*
G75*
G02*
X54144500Y-63315002I0J249998D01*
G01*
X54144500Y-62414998D01*
G75*
G02*
X54394498Y-62165000I249998J0D01*
G01*
X54919502Y-62165000D01*
G75*
G02*
X55169500Y-62414998I0J-249998D01*
G01*
G37*
%TD*%
D16*
%TO.C,X1*%
X44450000Y-26797000D03*
D15*
X52070000Y-26797000D03*
X52070000Y-34417000D03*
X44450000Y-34417000D03*
%TD*%
%TO.C,R12*%
G36*
G01*
X76650002Y-102320000D02*
X75749998Y-102320000D01*
G75*
G02*
X75500000Y-102070002I0J249998D01*
G01*
X75500000Y-101544998D01*
G75*
G02*
X75749998Y-101295000I249998J0D01*
G01*
X76650002Y-101295000D01*
G75*
G02*
X76900000Y-101544998I0J-249998D01*
G01*
X76900000Y-102070002D01*
G75*
G02*
X76650002Y-102320000I-249998J0D01*
G01*
G37*
G36*
G01*
X76650002Y-104145000D02*
X75749998Y-104145000D01*
G75*
G02*
X75500000Y-103895002I0J249998D01*
G01*
X75500000Y-103369998D01*
G75*
G02*
X75749998Y-103120000I249998J0D01*
G01*
X76650002Y-103120000D01*
G75*
G02*
X76900000Y-103369998I0J-249998D01*
G01*
X76900000Y-103895002D01*
G75*
G02*
X76650002Y-104145000I-249998J0D01*
G01*
G37*
%TD*%
%TO.C,R11*%
G36*
G01*
X66490002Y-102320000D02*
X65589998Y-102320000D01*
G75*
G02*
X65340000Y-102070002I0J249998D01*
G01*
X65340000Y-101544998D01*
G75*
G02*
X65589998Y-101295000I249998J0D01*
G01*
X66490002Y-101295000D01*
G75*
G02*
X66740000Y-101544998I0J-249998D01*
G01*
X66740000Y-102070002D01*
G75*
G02*
X66490002Y-102320000I-249998J0D01*
G01*
G37*
G36*
G01*
X66490002Y-104145000D02*
X65589998Y-104145000D01*
G75*
G02*
X65340000Y-103895002I0J249998D01*
G01*
X65340000Y-103369998D01*
G75*
G02*
X65589998Y-103120000I249998J0D01*
G01*
X66490002Y-103120000D01*
G75*
G02*
X66740000Y-103369998I0J-249998D01*
G01*
X66740000Y-103895002D01*
G75*
G02*
X66490002Y-104145000I-249998J0D01*
G01*
G37*
%TD*%
%TO.C,R10*%
G36*
G01*
X70669998Y-100880000D02*
X71570002Y-100880000D01*
G75*
G02*
X71820000Y-101129998I0J-249998D01*
G01*
X71820000Y-101655002D01*
G75*
G02*
X71570002Y-101905000I-249998J0D01*
G01*
X70669998Y-101905000D01*
G75*
G02*
X70420000Y-101655002I0J249998D01*
G01*
X70420000Y-101129998D01*
G75*
G02*
X70669998Y-100880000I249998J0D01*
G01*
G37*
G36*
G01*
X70669998Y-99055000D02*
X71570002Y-99055000D01*
G75*
G02*
X71820000Y-99304998I0J-249998D01*
G01*
X71820000Y-99830002D01*
G75*
G02*
X71570002Y-100080000I-249998J0D01*
G01*
X70669998Y-100080000D01*
G75*
G02*
X70420000Y-99830002I0J249998D01*
G01*
X70420000Y-99304998D01*
G75*
G02*
X70669998Y-99055000I249998J0D01*
G01*
G37*
%TD*%
D11*
%TO.C,D1*%
X105156000Y-53848000D03*
D12*
X102616000Y-53848000D03*
%TD*%
%TO.C,R8*%
G36*
G01*
X102104000Y-52266002D02*
X102104000Y-51365998D01*
G75*
G02*
X102353998Y-51116000I249998J0D01*
G01*
X102879002Y-51116000D01*
G75*
G02*
X103129000Y-51365998I0J-249998D01*
G01*
X103129000Y-52266002D01*
G75*
G02*
X102879002Y-52516000I-249998J0D01*
G01*
X102353998Y-52516000D01*
G75*
G02*
X102104000Y-52266002I0J249998D01*
G01*
G37*
G36*
G01*
X100279000Y-52266002D02*
X100279000Y-51365998D01*
G75*
G02*
X100528998Y-51116000I249998J0D01*
G01*
X101054002Y-51116000D01*
G75*
G02*
X101304000Y-51365998I0J-249998D01*
G01*
X101304000Y-52266002D01*
G75*
G02*
X101054002Y-52516000I-249998J0D01*
G01*
X100528998Y-52516000D01*
G75*
G02*
X100279000Y-52266002I0J249998D01*
G01*
G37*
%TD*%
%TO.C,R7*%
G36*
G01*
X75569500Y-81464998D02*
X75569500Y-82365002D01*
G75*
G02*
X75319502Y-82615000I-249998J0D01*
G01*
X74794498Y-82615000D01*
G75*
G02*
X74544500Y-82365002I0J249998D01*
G01*
X74544500Y-81464998D01*
G75*
G02*
X74794498Y-81215000I249998J0D01*
G01*
X75319502Y-81215000D01*
G75*
G02*
X75569500Y-81464998I0J-249998D01*
G01*
G37*
G36*
G01*
X77394500Y-81464998D02*
X77394500Y-82365002D01*
G75*
G02*
X77144502Y-82615000I-249998J0D01*
G01*
X76619498Y-82615000D01*
G75*
G02*
X76369500Y-82365002I0J249998D01*
G01*
X76369500Y-81464998D01*
G75*
G02*
X76619498Y-81215000I249998J0D01*
G01*
X77144502Y-81215000D01*
G75*
G02*
X77394500Y-81464998I0J-249998D01*
G01*
G37*
%TD*%
%TO.C,R6*%
G36*
G01*
X75569500Y-84004998D02*
X75569500Y-84905002D01*
G75*
G02*
X75319502Y-85155000I-249998J0D01*
G01*
X74794498Y-85155000D01*
G75*
G02*
X74544500Y-84905002I0J249998D01*
G01*
X74544500Y-84004998D01*
G75*
G02*
X74794498Y-83755000I249998J0D01*
G01*
X75319502Y-83755000D01*
G75*
G02*
X75569500Y-84004998I0J-249998D01*
G01*
G37*
G36*
G01*
X77394500Y-84004998D02*
X77394500Y-84905002D01*
G75*
G02*
X77144502Y-85155000I-249998J0D01*
G01*
X76619498Y-85155000D01*
G75*
G02*
X76369500Y-84905002I0J249998D01*
G01*
X76369500Y-84004998D01*
G75*
G02*
X76619498Y-83755000I249998J0D01*
G01*
X77144502Y-83755000D01*
G75*
G02*
X77394500Y-84004998I0J-249998D01*
G01*
G37*
%TD*%
%TO.C,R5*%
G36*
G01*
X66313000Y-82365002D02*
X66313000Y-81464998D01*
G75*
G02*
X66562998Y-81215000I249998J0D01*
G01*
X67088002Y-81215000D01*
G75*
G02*
X67338000Y-81464998I0J-249998D01*
G01*
X67338000Y-82365002D01*
G75*
G02*
X67088002Y-82615000I-249998J0D01*
G01*
X66562998Y-82615000D01*
G75*
G02*
X66313000Y-82365002I0J249998D01*
G01*
G37*
G36*
G01*
X64488000Y-82365002D02*
X64488000Y-81464998D01*
G75*
G02*
X64737998Y-81215000I249998J0D01*
G01*
X65263002Y-81215000D01*
G75*
G02*
X65513000Y-81464998I0J-249998D01*
G01*
X65513000Y-82365002D01*
G75*
G02*
X65263002Y-82615000I-249998J0D01*
G01*
X64737998Y-82615000D01*
G75*
G02*
X64488000Y-82365002I0J249998D01*
G01*
G37*
%TD*%
%TO.C,R4*%
G36*
G01*
X68537500Y-27489998D02*
X68537500Y-28390002D01*
G75*
G02*
X68287502Y-28640000I-249998J0D01*
G01*
X67762498Y-28640000D01*
G75*
G02*
X67512500Y-28390002I0J249998D01*
G01*
X67512500Y-27489998D01*
G75*
G02*
X67762498Y-27240000I249998J0D01*
G01*
X68287502Y-27240000D01*
G75*
G02*
X68537500Y-27489998I0J-249998D01*
G01*
G37*
G36*
G01*
X70362500Y-27489998D02*
X70362500Y-28390002D01*
G75*
G02*
X70112502Y-28640000I-249998J0D01*
G01*
X69587498Y-28640000D01*
G75*
G02*
X69337500Y-28390002I0J249998D01*
G01*
X69337500Y-27489998D01*
G75*
G02*
X69587498Y-27240000I249998J0D01*
G01*
X70112502Y-27240000D01*
G75*
G02*
X70362500Y-27489998I0J-249998D01*
G01*
G37*
%TD*%
%TO.C,R3*%
G36*
G01*
X68537500Y-37649998D02*
X68537500Y-38550002D01*
G75*
G02*
X68287502Y-38800000I-249998J0D01*
G01*
X67762498Y-38800000D01*
G75*
G02*
X67512500Y-38550002I0J249998D01*
G01*
X67512500Y-37649998D01*
G75*
G02*
X67762498Y-37400000I249998J0D01*
G01*
X68287502Y-37400000D01*
G75*
G02*
X68537500Y-37649998I0J-249998D01*
G01*
G37*
G36*
G01*
X70362500Y-37649998D02*
X70362500Y-38550002D01*
G75*
G02*
X70112502Y-38800000I-249998J0D01*
G01*
X69587498Y-38800000D01*
G75*
G02*
X69337500Y-38550002I0J249998D01*
G01*
X69337500Y-37649998D01*
G75*
G02*
X69587498Y-37400000I249998J0D01*
G01*
X70112502Y-37400000D01*
G75*
G02*
X70362500Y-37649998I0J-249998D01*
G01*
G37*
%TD*%
%TO.C,R2*%
G36*
G01*
X68537500Y-24949998D02*
X68537500Y-25850002D01*
G75*
G02*
X68287502Y-26100000I-249998J0D01*
G01*
X67762498Y-26100000D01*
G75*
G02*
X67512500Y-25850002I0J249998D01*
G01*
X67512500Y-24949998D01*
G75*
G02*
X67762498Y-24700000I249998J0D01*
G01*
X68287502Y-24700000D01*
G75*
G02*
X68537500Y-24949998I0J-249998D01*
G01*
G37*
G36*
G01*
X70362500Y-24949998D02*
X70362500Y-25850002D01*
G75*
G02*
X70112502Y-26100000I-249998J0D01*
G01*
X69587498Y-26100000D01*
G75*
G02*
X69337500Y-25850002I0J249998D01*
G01*
X69337500Y-24949998D01*
G75*
G02*
X69587498Y-24700000I249998J0D01*
G01*
X70112502Y-24700000D01*
G75*
G02*
X70362500Y-24949998I0J-249998D01*
G01*
G37*
%TD*%
%TO.C,R1*%
G36*
G01*
X68537500Y-32569998D02*
X68537500Y-33470002D01*
G75*
G02*
X68287502Y-33720000I-249998J0D01*
G01*
X67762498Y-33720000D01*
G75*
G02*
X67512500Y-33470002I0J249998D01*
G01*
X67512500Y-32569998D01*
G75*
G02*
X67762498Y-32320000I249998J0D01*
G01*
X68287502Y-32320000D01*
G75*
G02*
X68537500Y-32569998I0J-249998D01*
G01*
G37*
G36*
G01*
X70362500Y-32569998D02*
X70362500Y-33470002D01*
G75*
G02*
X70112502Y-33720000I-249998J0D01*
G01*
X69587498Y-33720000D01*
G75*
G02*
X69337500Y-33470002I0J249998D01*
G01*
X69337500Y-32569998D01*
G75*
G02*
X69587498Y-32320000I249998J0D01*
G01*
X70112502Y-32320000D01*
G75*
G02*
X70362500Y-32569998I0J-249998D01*
G01*
G37*
%TD*%
%TO.C,C7*%
G36*
G01*
X68450000Y-22385000D02*
X68450000Y-23335000D01*
G75*
G02*
X68200000Y-23585000I-250000J0D01*
G01*
X67700000Y-23585000D01*
G75*
G02*
X67450000Y-23335000I0J250000D01*
G01*
X67450000Y-22385000D01*
G75*
G02*
X67700000Y-22135000I250000J0D01*
G01*
X68200000Y-22135000D01*
G75*
G02*
X68450000Y-22385000I0J-250000D01*
G01*
G37*
G36*
G01*
X70350000Y-22385000D02*
X70350000Y-23335000D01*
G75*
G02*
X70100000Y-23585000I-250000J0D01*
G01*
X69600000Y-23585000D01*
G75*
G02*
X69350000Y-23335000I0J250000D01*
G01*
X69350000Y-22385000D01*
G75*
G02*
X69600000Y-22135000I250000J0D01*
G01*
X70100000Y-22135000D01*
G75*
G02*
X70350000Y-22385000I0J-250000D01*
G01*
G37*
%TD*%
%TO.C,C6*%
G36*
G01*
X34928000Y-118585000D02*
X34928000Y-117635000D01*
G75*
G02*
X35178000Y-117385000I250000J0D01*
G01*
X35678000Y-117385000D01*
G75*
G02*
X35928000Y-117635000I0J-250000D01*
G01*
X35928000Y-118585000D01*
G75*
G02*
X35678000Y-118835000I-250000J0D01*
G01*
X35178000Y-118835000D01*
G75*
G02*
X34928000Y-118585000I0J250000D01*
G01*
G37*
G36*
G01*
X33028000Y-118585000D02*
X33028000Y-117635000D01*
G75*
G02*
X33278000Y-117385000I250000J0D01*
G01*
X33778000Y-117385000D01*
G75*
G02*
X34028000Y-117635000I0J-250000D01*
G01*
X34028000Y-118585000D01*
G75*
G02*
X33778000Y-118835000I-250000J0D01*
G01*
X33278000Y-118835000D01*
G75*
G02*
X33028000Y-118585000I0J250000D01*
G01*
G37*
%TD*%
%TO.C,C5*%
G36*
G01*
X113850000Y-30640000D02*
X113850000Y-31590000D01*
G75*
G02*
X113600000Y-31840000I-250000J0D01*
G01*
X113100000Y-31840000D01*
G75*
G02*
X112850000Y-31590000I0J250000D01*
G01*
X112850000Y-30640000D01*
G75*
G02*
X113100000Y-30390000I250000J0D01*
G01*
X113600000Y-30390000D01*
G75*
G02*
X113850000Y-30640000I0J-250000D01*
G01*
G37*
G36*
G01*
X115750000Y-30640000D02*
X115750000Y-31590000D01*
G75*
G02*
X115500000Y-31840000I-250000J0D01*
G01*
X115000000Y-31840000D01*
G75*
G02*
X114750000Y-31590000I0J250000D01*
G01*
X114750000Y-30640000D01*
G75*
G02*
X115000000Y-30390000I250000J0D01*
G01*
X115500000Y-30390000D01*
G75*
G02*
X115750000Y-30640000I0J-250000D01*
G01*
G37*
%TD*%
%TO.C,C4*%
G36*
G01*
X93215000Y-45245000D02*
X93215000Y-46195000D01*
G75*
G02*
X92965000Y-46445000I-250000J0D01*
G01*
X92465000Y-46445000D01*
G75*
G02*
X92215000Y-46195000I0J250000D01*
G01*
X92215000Y-45245000D01*
G75*
G02*
X92465000Y-44995000I250000J0D01*
G01*
X92965000Y-44995000D01*
G75*
G02*
X93215000Y-45245000I0J-250000D01*
G01*
G37*
G36*
G01*
X95115000Y-45245000D02*
X95115000Y-46195000D01*
G75*
G02*
X94865000Y-46445000I-250000J0D01*
G01*
X94365000Y-46445000D01*
G75*
G02*
X94115000Y-46195000I0J250000D01*
G01*
X94115000Y-45245000D01*
G75*
G02*
X94365000Y-44995000I250000J0D01*
G01*
X94865000Y-44995000D01*
G75*
G02*
X95115000Y-45245000I0J-250000D01*
G01*
G37*
%TD*%
%TO.C,C2*%
G36*
G01*
X69350000Y-30955000D02*
X69350000Y-30005000D01*
G75*
G02*
X69600000Y-29755000I250000J0D01*
G01*
X70100000Y-29755000D01*
G75*
G02*
X70350000Y-30005000I0J-250000D01*
G01*
X70350000Y-30955000D01*
G75*
G02*
X70100000Y-31205000I-250000J0D01*
G01*
X69600000Y-31205000D01*
G75*
G02*
X69350000Y-30955000I0J250000D01*
G01*
G37*
G36*
G01*
X67450000Y-30955000D02*
X67450000Y-30005000D01*
G75*
G02*
X67700000Y-29755000I250000J0D01*
G01*
X68200000Y-29755000D01*
G75*
G02*
X68450000Y-30005000I0J-250000D01*
G01*
X68450000Y-30955000D01*
G75*
G02*
X68200000Y-31205000I-250000J0D01*
G01*
X67700000Y-31205000D01*
G75*
G02*
X67450000Y-30955000I0J250000D01*
G01*
G37*
%TD*%
%TO.C,C1*%
G36*
G01*
X69350000Y-36035000D02*
X69350000Y-35085000D01*
G75*
G02*
X69600000Y-34835000I250000J0D01*
G01*
X70100000Y-34835000D01*
G75*
G02*
X70350000Y-35085000I0J-250000D01*
G01*
X70350000Y-36035000D01*
G75*
G02*
X70100000Y-36285000I-250000J0D01*
G01*
X69600000Y-36285000D01*
G75*
G02*
X69350000Y-36035000I0J250000D01*
G01*
G37*
G36*
G01*
X67450000Y-36035000D02*
X67450000Y-35085000D01*
G75*
G02*
X67700000Y-34835000I250000J0D01*
G01*
X68200000Y-34835000D01*
G75*
G02*
X68450000Y-35085000I0J-250000D01*
G01*
X68450000Y-36035000D01*
G75*
G02*
X68200000Y-36285000I-250000J0D01*
G01*
X67700000Y-36285000D01*
G75*
G02*
X67450000Y-36035000I0J250000D01*
G01*
G37*
%TD*%
D18*
%TO.C,U7*%
X101854000Y-43815000D03*
X101854000Y-41275000D03*
X101854000Y-38735000D03*
X101854000Y-36195000D03*
X101854000Y-33655000D03*
X101854000Y-31115000D03*
X117094000Y-31115000D03*
X117094000Y-33655000D03*
X117094000Y-36195000D03*
X117094000Y-38735000D03*
X117094000Y-41275000D03*
D16*
X117094000Y-43815000D03*
%TD*%
D18*
%TO.C,RN1*%
X56515000Y-97790000D03*
X56515000Y-100330000D03*
X56515000Y-102870000D03*
X56515000Y-105410000D03*
X56515000Y-107950000D03*
X56515000Y-110490000D03*
X56515000Y-113030000D03*
X56515000Y-115570000D03*
D16*
X56515000Y-118110000D03*
%TD*%
D13*
%TO.C,J3*%
X25080000Y-94130000D03*
X22540000Y-94130000D03*
X25080000Y-91590000D03*
X22540000Y-91590000D03*
X25080000Y-89050000D03*
X22540000Y-89050000D03*
X25080000Y-86510000D03*
X22540000Y-86510000D03*
X25080000Y-83970000D03*
X22540000Y-83970000D03*
X25080000Y-81430000D03*
X22540000Y-81430000D03*
X25080000Y-78890000D03*
X22540000Y-78890000D03*
X25080000Y-76350000D03*
X22540000Y-76350000D03*
X25080000Y-73810000D03*
X22540000Y-73810000D03*
X25080000Y-71270000D03*
X22540000Y-71270000D03*
X25080000Y-68730000D03*
X22540000Y-68730000D03*
X25080000Y-66190000D03*
X22540000Y-66190000D03*
X25080000Y-63650000D03*
X22540000Y-63650000D03*
X25080000Y-61110000D03*
X22540000Y-61110000D03*
X25080000Y-58570000D03*
X22540000Y-58570000D03*
X25080000Y-56030000D03*
X22540000Y-56030000D03*
X25080000Y-53490000D03*
X22540000Y-53490000D03*
X25080000Y-50950000D03*
X22540000Y-50950000D03*
X25080000Y-48410000D03*
X22540000Y-48410000D03*
X25080000Y-45870000D03*
D14*
X22540000Y-45870000D03*
%TD*%
M02*
