M48
; DRILL file {KiCad (5.1.9)-1} date 05/23/21 14:47:52
; FORMAT={-:-/ absolute / inch / decimal}
; #@! TF.CreationDate,2021-05-23T14:47:52-04:00
; #@! TF.GenerationSoftware,Kicad,Pcbnew,(5.1.9)-1
FMAT,2
INCH
T1C0.0118
T2C0.0197
T3C0.0236
T4C0.0300
T5C0.0315
T6C0.0354
T7C0.0394
T8C0.0433
T9C0.1260
%
G90
G05
T1
X1.3913Y-3.1689
X1.3995Y-2.1021
X1.4188Y-3.1838
X1.434Y-2.0919
X1.4828Y-3.8228
X1.5673Y-3.35
X1.5781Y-3.2123
X1.7031Y-3.6417
X1.7621Y-2.4075
X1.7728Y-2.8995
X1.7733Y-3.3011
X1.9059Y-2.7536
X1.9095Y-3.6974
X1.9279Y-3.4507
X1.9334Y-2.0443
X1.9371Y-2.0855
X1.9898Y-3.8401
X1.9958Y-2.6704
X2.0231Y-3.8018
X2.0642Y-3.2049
X2.0729Y-2.0422
X2.0906Y-2.1008
X2.1097Y-1.4519
X2.1126Y-2.4168
X2.1338Y-2.0993
X2.1524Y-4.1804
X2.1544Y-3.3594
X2.2077Y-1.5528
X2.2277Y-1.6552
X2.2741Y-4.2279
X2.3182Y-4.3769
X2.3777Y-2.6678
X2.3973Y-2.9777
X2.4267Y-3.1519
X2.4318Y-1.5822
X2.4533Y-3.1698
X2.5218Y-3.7726
X2.5635Y-3.5149
X2.6131Y-1.0798
X2.6612Y-4.2025
X2.7006Y-1.3456
X2.7462Y-3.1548
X2.7581Y-2.3658
X2.7719Y-3.4877
X2.792Y-3.1193
X2.8126Y-4.4097
X2.8267Y-3.6649
X2.8422Y-2.1392
X2.8522Y-2.7922
X2.8663Y-3.0526
X2.8891Y-3.1603
X2.9143Y-3.2142
X2.9157Y-1.0477
X2.9504Y-2.8601
X2.9592Y-2.4263
X2.9636Y-3.7642
X2.9977Y-1.9206
X3.0242Y-3.5987
X3.0437Y-1.8986
X3.139Y-4.1139
X3.1864Y-3.2478
X3.2035Y-2.0999
X3.2789Y-4.4247
X3.3Y-2.4861
X3.354Y-3.248
X3.9312Y-3.7066
X4.0941Y-3.6248
X4.1287Y-4.3036
X4.1444Y-4.0142
X4.5289Y-4.2017
T2
X3.275Y-1.85
X3.375Y-1.85
T3
X1.0712Y-3.3434
X1.3787Y-3.6377
X1.4221Y-3.2819
X1.62Y-3.7729
X1.6655Y-3.6181
X1.8789Y-3.8198
X1.9392Y-3.9599
X2.274Y-1.5643
X2.4147Y-4.482
X2.6378Y-1.1636
X2.7003Y-2.8925
X2.7946Y-4.0407
X2.9708Y-1.7651
X3.1343Y-4.2523
T4
X2.9657Y-1.25
X3.7531Y-1.25
T5
X1.2205Y-1.1024
X1.2205Y-1.4685
X1.25Y-3.95
X1.25Y-4.05
X1.25Y-4.15
X1.25Y-4.25
X1.25Y-4.35
X1.25Y-4.45
X1.25Y-4.55
X1.25Y-4.65
X1.3583Y-1.1024
X1.3583Y-1.4685
X1.52Y-1.675
X1.52Y-1.775
X1.52Y-1.875
X1.52Y-1.975
X1.52Y-2.075
X1.52Y-2.175
X1.52Y-2.275
X1.52Y-2.375
X1.52Y-2.475
X1.52Y-2.575
X1.52Y-2.775
X1.52Y-2.875
X1.52Y-2.975
X1.52Y-3.075
X1.52Y-3.175
X1.52Y-3.275
X1.52Y-3.375
X1.52Y-3.475
X1.52Y-3.575
X1.52Y-3.675
X1.55Y-3.95
X1.55Y-4.05
X1.55Y-4.15
X1.55Y-4.25
X1.55Y-4.35
X1.55Y-4.45
X1.55Y-4.55
X1.55Y-4.65
X1.75Y-1.055
X1.75Y-1.355
X1.75Y-3.95
X1.75Y-4.05
X1.75Y-4.15
X1.75Y-4.25
X1.75Y-4.35
X1.75Y-4.45
X1.75Y-4.55
X1.75Y-4.65
X1.82Y-1.675
X1.82Y-1.775
X1.82Y-1.875
X1.82Y-1.975
X1.82Y-2.075
X1.82Y-2.175
X1.82Y-2.275
X1.82Y-2.375
X1.82Y-2.475
X1.82Y-2.575
X1.82Y-2.775
X1.82Y-2.875
X1.82Y-2.975
X1.82Y-3.075
X1.82Y-3.175
X1.82Y-3.275
X1.82Y-3.375
X1.82Y-3.475
X1.82Y-3.575
X1.82Y-3.675
X2.01Y-1.675
X2.01Y-1.775
X2.01Y-1.875
X2.01Y-1.975
X2.01Y-2.075
X2.01Y-2.175
X2.01Y-2.275
X2.01Y-2.375
X2.01Y-2.475
X2.01Y-2.575
X2.01Y-2.775
X2.01Y-2.875
X2.01Y-2.975
X2.01Y-3.075
X2.01Y-3.175
X2.01Y-3.275
X2.01Y-3.375
X2.01Y-3.475
X2.01Y-3.575
X2.01Y-3.675
X2.05Y-1.055
X2.05Y-1.355
X2.05Y-3.95
X2.05Y-4.05
X2.05Y-4.15
X2.05Y-4.25
X2.05Y-4.35
X2.05Y-4.45
X2.05Y-4.55
X2.05Y-4.65
X2.225Y-3.85
X2.225Y-3.95
X2.225Y-4.05
X2.225Y-4.15
X2.225Y-4.25
X2.225Y-4.35
X2.225Y-4.45
X2.225Y-4.55
X2.225Y-4.65
X2.31Y-1.675
X2.31Y-1.775
X2.31Y-1.875
X2.31Y-1.975
X2.31Y-2.075
X2.31Y-2.175
X2.31Y-2.275
X2.31Y-2.375
X2.31Y-2.475
X2.31Y-2.575
X2.31Y-2.775
X2.31Y-2.875
X2.31Y-2.975
X2.31Y-3.075
X2.31Y-3.175
X2.31Y-3.275
X2.31Y-3.375
X2.31Y-3.475
X2.31Y-3.575
X2.31Y-3.675
X2.4Y-4.34
X2.4Y-4.64
X2.4905Y-1.725
X2.4905Y-1.825
X2.4905Y-1.925
X2.4905Y-2.025
X2.4905Y-2.125
X2.4905Y-2.225
X2.4905Y-2.325
X2.4905Y-2.425
X2.4905Y-2.525
X2.4905Y-2.625
X2.4905Y-2.725
X2.4905Y-2.825
X2.4905Y-2.925
X2.4905Y-3.025
X2.4905Y-3.125
X2.4905Y-3.225
X2.4905Y-3.325
X2.4905Y-3.425
X2.4905Y-3.525
X2.4905Y-3.625
X2.5Y-3.85
X2.5Y-4.15
X2.5Y-4.34
X2.5Y-4.64
X2.525Y-0.9
X2.525Y-1.0
X2.525Y-1.1
X2.525Y-1.2
X2.525Y-1.3
X2.525Y-1.4
X2.525Y-1.5
X2.6Y-3.85
X2.6Y-4.15
X2.6Y-4.34
X2.6Y-4.64
X2.7Y-3.85
X2.7Y-4.15
X2.7Y-4.34
X2.7Y-4.64
X2.8Y-3.85
X2.8Y-4.15
X2.8Y-4.34
X2.8Y-4.64
X2.825Y-0.9
X2.825Y-1.0
X2.825Y-1.1
X2.825Y-1.2
X2.825Y-1.3
X2.825Y-1.4
X2.825Y-1.5
X2.9Y-3.85
X2.9Y-4.15
X2.9Y-4.34
X2.9Y-4.64
X3.0Y-3.85
X3.0Y-4.15
X3.0Y-4.34
X3.0Y-4.64
X3.0905Y-1.725
X3.0905Y-1.825
X3.0905Y-1.925
X3.0905Y-2.025
X3.0905Y-2.125
X3.0905Y-2.225
X3.0905Y-2.325
X3.0905Y-2.425
X3.0905Y-2.525
X3.0905Y-2.625
X3.0905Y-2.725
X3.0905Y-2.825
X3.0905Y-2.925
X3.0905Y-3.025
X3.0905Y-3.125
X3.0905Y-3.225
X3.0905Y-3.325
X3.0905Y-3.425
X3.0905Y-3.525
X3.0905Y-3.625
X3.1Y-3.85
X3.1Y-4.15
X3.19Y-4.34
X3.19Y-4.64
X3.275Y-2.675
X3.275Y-2.775
X3.275Y-2.875
X3.275Y-2.975
X3.275Y-3.075
X3.275Y-3.175
X3.275Y-3.275
X3.275Y-3.375
X3.275Y-3.475
X3.275Y-3.575
X3.275Y-3.675
X3.275Y-3.775
X3.275Y-3.875
X3.275Y-3.975
X3.275Y-4.075
X3.275Y-4.175
X3.29Y-4.34
X3.29Y-4.64
X3.39Y-4.34
X3.39Y-4.64
X3.49Y-4.34
X3.49Y-4.64
X3.5Y-1.8
X3.5Y-1.9
X3.5Y-2.0
X3.5Y-2.1
X3.5Y-2.2
X3.5Y-2.3
X3.5Y-2.4
X3.5Y-2.5
X3.59Y-4.34
X3.59Y-4.64
X3.69Y-4.34
X3.69Y-4.64
X3.79Y-4.34
X3.79Y-4.64
X3.8Y-1.8
X3.8Y-1.9
X3.8Y-2.0
X3.8Y-2.1
X3.8Y-2.2
X3.8Y-2.3
X3.8Y-2.4
X3.8Y-2.5
X3.875Y-2.675
X3.875Y-2.775
X3.875Y-2.875
X3.875Y-2.975
X3.875Y-3.075
X3.875Y-3.175
X3.875Y-3.275
X3.875Y-3.375
X3.875Y-3.475
X3.875Y-3.575
X3.875Y-3.675
X3.875Y-3.775
X3.875Y-3.875
X3.875Y-3.975
X3.875Y-4.075
X3.875Y-4.175
X3.89Y-4.34
X3.89Y-4.64
X3.99Y-4.34
X3.99Y-4.64
X4.01Y-1.225
X4.01Y-1.325
X4.01Y-1.425
X4.01Y-1.525
X4.01Y-1.625
X4.01Y-1.725
X4.05Y-2.675
X4.05Y-2.775
X4.05Y-2.875
X4.05Y-2.975
X4.05Y-3.075
X4.05Y-3.175
X4.05Y-3.275
X4.05Y-3.375
X4.05Y-3.475
X4.05Y-3.575
X4.05Y-3.675
X4.05Y-3.775
X4.05Y-3.875
X4.05Y-3.975
X4.05Y-4.075
X4.05Y-4.175
X4.09Y-4.34
X4.09Y-4.64
X4.19Y-4.34
X4.19Y-4.64
X4.29Y-4.34
X4.29Y-4.64
X4.61Y-1.225
X4.61Y-1.325
X4.61Y-1.425
X4.61Y-1.525
X4.61Y-1.625
X4.61Y-1.725
X4.65Y-2.675
X4.65Y-2.775
X4.65Y-2.875
X4.65Y-2.975
X4.65Y-3.075
X4.65Y-3.175
X4.65Y-3.275
X4.65Y-3.375
X4.65Y-3.475
X4.65Y-3.575
X4.65Y-3.675
X4.65Y-3.775
X4.65Y-3.875
X4.65Y-3.975
X4.65Y-4.075
X4.65Y-4.175
T6
X2.31Y-1.0
X2.31Y-1.1
X2.31Y-1.31
X2.31Y-1.41
X2.99Y-0.87
X2.99Y-0.97
X4.04Y-1.94
X4.04Y-2.12
X4.04Y-2.3
X4.04Y-2.48
X4.05Y-0.9
X4.05Y-1.0
X4.14Y-1.94
X4.14Y-2.12
X4.14Y-2.3
X4.14Y-2.48
X4.29Y-0.9
X4.29Y-1.0
X4.48Y-4.33
X4.58Y-4.33
T7
X0.8874Y-1.2047
X0.8874Y-1.3047
X0.8874Y-1.4047
X0.8874Y-1.5047
X0.8874Y-1.8059
X0.8874Y-1.9059
X0.8874Y-2.0059
X0.8874Y-2.1059
X0.8874Y-2.2059
X0.8874Y-2.3059
X0.8874Y-2.4059
X0.8874Y-2.5059
X0.8874Y-2.6059
X0.8874Y-2.7059
X0.8874Y-2.8059
X0.8874Y-2.9059
X0.8874Y-3.0059
X0.8874Y-3.1059
X0.8874Y-3.2059
X0.8874Y-3.3059
X0.8874Y-3.4059
X0.8874Y-3.5059
X0.8874Y-3.6059
X0.8874Y-3.7059
X0.8874Y-4.0071
X0.8874Y-4.1071
X0.8874Y-4.2071
X0.8874Y-4.3071
X0.9874Y-1.2047
X0.9874Y-1.3047
X0.9874Y-1.4047
X0.9874Y-1.5047
X0.9874Y-1.8059
X0.9874Y-1.9059
X0.9874Y-2.0059
X0.9874Y-2.1059
X0.9874Y-2.2059
X0.9874Y-2.3059
X0.9874Y-2.4059
X0.9874Y-2.5059
X0.9874Y-2.6059
X0.9874Y-2.7059
X0.9874Y-2.8059
X0.9874Y-2.9059
X0.9874Y-3.0059
X0.9874Y-3.1059
X0.9874Y-3.2059
X0.9874Y-3.3059
X0.9874Y-3.4059
X0.9874Y-3.5059
X0.9874Y-3.6059
X0.9874Y-3.7059
X0.9874Y-4.0071
X0.9874Y-4.1071
X0.9874Y-4.2071
X0.9874Y-4.3071
X1.19Y-0.86
X1.2024Y-1.8059
X1.2024Y-1.9059
X1.2024Y-2.0059
X1.2024Y-2.1059
X1.2024Y-2.2059
X1.2024Y-2.3059
X1.2024Y-2.4059
X1.2024Y-2.5059
X1.2024Y-2.6059
X1.2024Y-2.7059
X1.2024Y-2.8059
X1.2024Y-2.9059
X1.2024Y-3.0059
X1.2024Y-3.1059
X1.2024Y-3.2059
X1.2024Y-3.3059
X1.2024Y-3.4059
X1.2024Y-3.5059
X1.2024Y-3.6059
X1.2024Y-3.7059
X1.29Y-0.86
X1.3024Y-1.8059
X1.3024Y-1.9059
X1.3024Y-2.0059
X1.3024Y-2.1059
X1.3024Y-2.2059
X1.3024Y-2.3059
X1.3024Y-2.4059
X1.3024Y-2.5059
X1.3024Y-2.6059
X1.3024Y-2.7059
X1.3024Y-2.8059
X1.3024Y-2.9059
X1.3024Y-3.0059
X1.3024Y-3.1059
X1.3024Y-3.2059
X1.3024Y-3.3059
X1.3024Y-3.4059
X1.3024Y-3.5059
X1.3024Y-3.6059
X1.3024Y-3.7059
X1.39Y-0.86
X1.49Y-0.86
X1.59Y-0.86
X1.69Y-0.86
X1.79Y-0.86
X1.89Y-0.86
X1.99Y-0.86
X2.09Y-0.86
X2.19Y-0.86
X2.29Y-0.86
X2.39Y-0.86
T8
X4.3241Y-1.9428
X4.3241Y-2.12
X4.3241Y-2.3
X4.3241Y-2.4772
X4.58Y-1.9428
X4.58Y-2.12
X4.58Y-2.3
X4.58Y-2.4772
T9
X0.9252Y-0.9252
X0.9252Y-4.5866
X4.5866Y-0.9252
X4.5866Y-4.5866
T0
M30
