%TF.GenerationSoftware,KiCad,Pcbnew,(5.1.9)-1*%
%TF.CreationDate,2021-05-23T14:47:50-04:00*%
%TF.ProjectId,cpu2,63707532-2e6b-4696-9361-645f70636258,rev?*%
%TF.SameCoordinates,Original*%
%TF.FileFunction,Legend,Top*%
%TF.FilePolarity,Positive*%
%FSLAX46Y46*%
G04 Gerber Fmt 4.6, Leading zero omitted, Abs format (unit mm)*
G04 Created by KiCad (PCBNEW (5.1.9)-1) date 2021-05-23 14:47:50*
%MOMM*%
%LPD*%
G01*
G04 APERTURE LIST*
%ADD10C,0.150000*%
%ADD11C,0.120000*%
G04 APERTURE END LIST*
D10*
X40260000Y-37743380D02*
X40926666Y-37743380D01*
X40260000Y-38743380D01*
X40926666Y-38743380D01*
X41450476Y-38171952D02*
X41355238Y-38124333D01*
X41307619Y-38076714D01*
X41260000Y-37981476D01*
X41260000Y-37933857D01*
X41307619Y-37838619D01*
X41355238Y-37791000D01*
X41450476Y-37743380D01*
X41640952Y-37743380D01*
X41736190Y-37791000D01*
X41783809Y-37838619D01*
X41831428Y-37933857D01*
X41831428Y-37981476D01*
X41783809Y-38076714D01*
X41736190Y-38124333D01*
X41640952Y-38171952D01*
X41450476Y-38171952D01*
X41355238Y-38219571D01*
X41307619Y-38267190D01*
X41260000Y-38362428D01*
X41260000Y-38552904D01*
X41307619Y-38648142D01*
X41355238Y-38695761D01*
X41450476Y-38743380D01*
X41640952Y-38743380D01*
X41736190Y-38695761D01*
X41783809Y-38648142D01*
X41831428Y-38552904D01*
X41831428Y-38362428D01*
X41783809Y-38267190D01*
X41736190Y-38219571D01*
X41640952Y-38171952D01*
X42450476Y-37743380D02*
X42545714Y-37743380D01*
X42640952Y-37791000D01*
X42688571Y-37838619D01*
X42736190Y-37933857D01*
X42783809Y-38124333D01*
X42783809Y-38362428D01*
X42736190Y-38552904D01*
X42688571Y-38648142D01*
X42640952Y-38695761D01*
X42545714Y-38743380D01*
X42450476Y-38743380D01*
X42355238Y-38695761D01*
X42307619Y-38648142D01*
X42260000Y-38552904D01*
X42212380Y-38362428D01*
X42212380Y-38124333D01*
X42260000Y-37933857D01*
X42307619Y-37838619D01*
X42355238Y-37791000D01*
X42450476Y-37743380D01*
X44545714Y-38648142D02*
X44498095Y-38695761D01*
X44355238Y-38743380D01*
X44260000Y-38743380D01*
X44117142Y-38695761D01*
X44021904Y-38600523D01*
X43974285Y-38505285D01*
X43926666Y-38314809D01*
X43926666Y-38171952D01*
X43974285Y-37981476D01*
X44021904Y-37886238D01*
X44117142Y-37791000D01*
X44260000Y-37743380D01*
X44355238Y-37743380D01*
X44498095Y-37791000D01*
X44545714Y-37838619D01*
X44974285Y-38743380D02*
X44974285Y-37743380D01*
X45355238Y-37743380D01*
X45450476Y-37791000D01*
X45498095Y-37838619D01*
X45545714Y-37933857D01*
X45545714Y-38076714D01*
X45498095Y-38171952D01*
X45450476Y-38219571D01*
X45355238Y-38267190D01*
X44974285Y-38267190D01*
X45974285Y-37743380D02*
X45974285Y-38552904D01*
X46021904Y-38648142D01*
X46069523Y-38695761D01*
X46164761Y-38743380D01*
X46355238Y-38743380D01*
X46450476Y-38695761D01*
X46498095Y-38648142D01*
X46545714Y-38552904D01*
X46545714Y-37743380D01*
X47783809Y-38743380D02*
X47783809Y-37743380D01*
X48117142Y-38457666D01*
X48450476Y-37743380D01*
X48450476Y-38743380D01*
X48926666Y-38219571D02*
X49260000Y-38219571D01*
X49402857Y-38743380D02*
X48926666Y-38743380D01*
X48926666Y-37743380D01*
X49402857Y-37743380D01*
X49831428Y-38743380D02*
X49831428Y-37743380D01*
X50164761Y-38457666D01*
X50498095Y-37743380D01*
X50498095Y-38743380D01*
X52069523Y-38219571D02*
X52212380Y-38267190D01*
X52260000Y-38314809D01*
X52307619Y-38410047D01*
X52307619Y-38552904D01*
X52260000Y-38648142D01*
X52212380Y-38695761D01*
X52117142Y-38743380D01*
X51736190Y-38743380D01*
X51736190Y-37743380D01*
X52069523Y-37743380D01*
X52164761Y-37791000D01*
X52212380Y-37838619D01*
X52260000Y-37933857D01*
X52260000Y-38029095D01*
X52212380Y-38124333D01*
X52164761Y-38171952D01*
X52069523Y-38219571D01*
X51736190Y-38219571D01*
X52926666Y-37743380D02*
X53117142Y-37743380D01*
X53212380Y-37791000D01*
X53307619Y-37886238D01*
X53355238Y-38076714D01*
X53355238Y-38410047D01*
X53307619Y-38600523D01*
X53212380Y-38695761D01*
X53117142Y-38743380D01*
X52926666Y-38743380D01*
X52831428Y-38695761D01*
X52736190Y-38600523D01*
X52688571Y-38410047D01*
X52688571Y-38076714D01*
X52736190Y-37886238D01*
X52831428Y-37791000D01*
X52926666Y-37743380D01*
X53736190Y-38457666D02*
X54212380Y-38457666D01*
X53640952Y-38743380D02*
X53974285Y-37743380D01*
X54307619Y-38743380D01*
X55212380Y-38743380D02*
X54879047Y-38267190D01*
X54640952Y-38743380D02*
X54640952Y-37743380D01*
X55021904Y-37743380D01*
X55117142Y-37791000D01*
X55164761Y-37838619D01*
X55212380Y-37933857D01*
X55212380Y-38076714D01*
X55164761Y-38171952D01*
X55117142Y-38219571D01*
X55021904Y-38267190D01*
X54640952Y-38267190D01*
X55640952Y-38743380D02*
X55640952Y-37743380D01*
X55879047Y-37743380D01*
X56021904Y-37791000D01*
X56117142Y-37886238D01*
X56164761Y-37981476D01*
X56212380Y-38171952D01*
X56212380Y-38314809D01*
X56164761Y-38505285D01*
X56117142Y-38600523D01*
X56021904Y-38695761D01*
X55879047Y-38743380D01*
X55640952Y-38743380D01*
X42736190Y-40107666D02*
X43212380Y-40107666D01*
X42640952Y-40393380D02*
X42974285Y-39393380D01*
X43307619Y-40393380D01*
X43640952Y-40298142D02*
X43688571Y-40345761D01*
X43640952Y-40393380D01*
X43593333Y-40345761D01*
X43640952Y-40298142D01*
X43640952Y-40393380D01*
X44783809Y-39393380D02*
X45021904Y-40393380D01*
X45212380Y-39679095D01*
X45402857Y-40393380D01*
X45640952Y-39393380D01*
X46021904Y-40393380D02*
X46021904Y-39726714D01*
X46021904Y-39393380D02*
X45974285Y-39441000D01*
X46021904Y-39488619D01*
X46069523Y-39441000D01*
X46021904Y-39393380D01*
X46021904Y-39488619D01*
X46640952Y-40393380D02*
X46545714Y-40345761D01*
X46498095Y-40250523D01*
X46498095Y-39393380D01*
X46974285Y-40345761D02*
X47069523Y-40393380D01*
X47260000Y-40393380D01*
X47355238Y-40345761D01*
X47402857Y-40250523D01*
X47402857Y-40202904D01*
X47355238Y-40107666D01*
X47260000Y-40060047D01*
X47117142Y-40060047D01*
X47021904Y-40012428D01*
X46974285Y-39917190D01*
X46974285Y-39869571D01*
X47021904Y-39774333D01*
X47117142Y-39726714D01*
X47260000Y-39726714D01*
X47355238Y-39774333D01*
X47974285Y-40393380D02*
X47879047Y-40345761D01*
X47831428Y-40298142D01*
X47783809Y-40202904D01*
X47783809Y-39917190D01*
X47831428Y-39821952D01*
X47879047Y-39774333D01*
X47974285Y-39726714D01*
X48117142Y-39726714D01*
X48212380Y-39774333D01*
X48260000Y-39821952D01*
X48307619Y-39917190D01*
X48307619Y-40202904D01*
X48260000Y-40298142D01*
X48212380Y-40345761D01*
X48117142Y-40393380D01*
X47974285Y-40393380D01*
X48736190Y-39726714D02*
X48736190Y-40393380D01*
X48736190Y-39821952D02*
X48783809Y-39774333D01*
X48879047Y-39726714D01*
X49021904Y-39726714D01*
X49117142Y-39774333D01*
X49164761Y-39869571D01*
X49164761Y-40393380D01*
X50355238Y-39488619D02*
X50402857Y-39441000D01*
X50498095Y-39393380D01*
X50736190Y-39393380D01*
X50831428Y-39441000D01*
X50879047Y-39488619D01*
X50926666Y-39583857D01*
X50926666Y-39679095D01*
X50879047Y-39821952D01*
X50307619Y-40393380D01*
X50926666Y-40393380D01*
X51545714Y-39393380D02*
X51640952Y-39393380D01*
X51736190Y-39441000D01*
X51783809Y-39488619D01*
X51831428Y-39583857D01*
X51879047Y-39774333D01*
X51879047Y-40012428D01*
X51831428Y-40202904D01*
X51783809Y-40298142D01*
X51736190Y-40345761D01*
X51640952Y-40393380D01*
X51545714Y-40393380D01*
X51450476Y-40345761D01*
X51402857Y-40298142D01*
X51355238Y-40202904D01*
X51307619Y-40012428D01*
X51307619Y-39774333D01*
X51355238Y-39583857D01*
X51402857Y-39488619D01*
X51450476Y-39441000D01*
X51545714Y-39393380D01*
X52260000Y-39488619D02*
X52307619Y-39441000D01*
X52402857Y-39393380D01*
X52640952Y-39393380D01*
X52736190Y-39441000D01*
X52783809Y-39488619D01*
X52831428Y-39583857D01*
X52831428Y-39679095D01*
X52783809Y-39821952D01*
X52212380Y-40393380D01*
X52831428Y-40393380D01*
X53783809Y-40393380D02*
X53212380Y-40393380D01*
X53498095Y-40393380D02*
X53498095Y-39393380D01*
X53402857Y-39536238D01*
X53307619Y-39631476D01*
X53212380Y-39679095D01*
D11*
%TO.C,D10*%
X102326000Y-61756000D02*
X102326000Y-61912000D01*
X102326000Y-64072000D02*
X102326000Y-64228000D01*
X104927130Y-64071837D02*
G75*
G02*
X102845039Y-64072000I-1041130J1079837D01*
G01*
X104927130Y-61912163D02*
G75*
G03*
X102845039Y-61912000I-1041130J-1079837D01*
G01*
X105558335Y-64070608D02*
G75*
G02*
X102326000Y-64227516I-1672335J1078608D01*
G01*
X105558335Y-61913392D02*
G75*
G03*
X102326000Y-61756484I-1672335J-1078608D01*
G01*
%TO.C,D9*%
X102326000Y-57184000D02*
X102326000Y-57340000D01*
X102326000Y-59500000D02*
X102326000Y-59656000D01*
X104927130Y-59499837D02*
G75*
G02*
X102845039Y-59500000I-1041130J1079837D01*
G01*
X104927130Y-57340163D02*
G75*
G03*
X102845039Y-57340000I-1041130J-1079837D01*
G01*
X105558335Y-59498608D02*
G75*
G02*
X102326000Y-59655516I-1672335J1078608D01*
G01*
X105558335Y-57341392D02*
G75*
G03*
X102326000Y-57184484I-1672335J-1078608D01*
G01*
%TO.C,D8*%
X113502000Y-108746000D02*
X113502000Y-108902000D01*
X113502000Y-111062000D02*
X113502000Y-111218000D01*
X116103130Y-111061837D02*
G75*
G02*
X114021039Y-111062000I-1041130J1079837D01*
G01*
X116103130Y-108902163D02*
G75*
G03*
X114021039Y-108902000I-1041130J-1079837D01*
G01*
X116734335Y-111060608D02*
G75*
G02*
X113502000Y-111217516I-1672335J1078608D01*
G01*
X116734335Y-108903392D02*
G75*
G03*
X113502000Y-108746484I-1672335J-1078608D01*
G01*
%TO.C,D7*%
X107730000Y-25690000D02*
X107886000Y-25690000D01*
X110046000Y-25690000D02*
X110202000Y-25690000D01*
X110045837Y-23088870D02*
G75*
G02*
X110046000Y-25170961I-1079837J-1041130D01*
G01*
X107886163Y-23088870D02*
G75*
G03*
X107886000Y-25170961I1079837J-1041130D01*
G01*
X110044608Y-22457665D02*
G75*
G02*
X110201516Y-25690000I-1078608J-1672335D01*
G01*
X107887392Y-22457665D02*
G75*
G03*
X107730484Y-25690000I1078608J-1672335D01*
G01*
%TO.C,D6*%
X101634000Y-25690000D02*
X101790000Y-25690000D01*
X103950000Y-25690000D02*
X104106000Y-25690000D01*
X103949837Y-23088870D02*
G75*
G02*
X103950000Y-25170961I-1079837J-1041130D01*
G01*
X101790163Y-23088870D02*
G75*
G03*
X101790000Y-25170961I1079837J-1041130D01*
G01*
X103948608Y-22457665D02*
G75*
G02*
X104105516Y-25690000I-1078608J-1672335D01*
G01*
X101791392Y-22457665D02*
G75*
G03*
X101634484Y-25690000I1078608J-1672335D01*
G01*
%TO.C,J5*%
X28896000Y-20514000D02*
X28896000Y-23174000D01*
X59436000Y-20514000D02*
X28896000Y-20514000D01*
X59436000Y-23174000D02*
X28896000Y-23174000D01*
X59436000Y-20514000D02*
X59436000Y-23174000D01*
X60706000Y-20514000D02*
X62036000Y-20514000D01*
X62036000Y-20514000D02*
X62036000Y-21844000D01*
%TO.C,D5*%
X57438000Y-28230000D02*
X57594000Y-28230000D01*
X59754000Y-28230000D02*
X59910000Y-28230000D01*
X59753837Y-25628870D02*
G75*
G02*
X59754000Y-27710961I-1079837J-1041130D01*
G01*
X57594163Y-25628870D02*
G75*
G03*
X57594000Y-27710961I1079837J-1041130D01*
G01*
X59752608Y-24997665D02*
G75*
G02*
X59909516Y-28230000I-1078608J-1672335D01*
G01*
X57595392Y-24997665D02*
G75*
G03*
X57438484Y-28230000I1078608J-1672335D01*
G01*
%TO.C,D4*%
X57438000Y-36104000D02*
X57594000Y-36104000D01*
X59754000Y-36104000D02*
X59910000Y-36104000D01*
X59753837Y-33502870D02*
G75*
G02*
X59754000Y-35584961I-1079837J-1041130D01*
G01*
X57594163Y-33502870D02*
G75*
G03*
X57594000Y-35584961I1079837J-1041130D01*
G01*
X59752608Y-32871665D02*
G75*
G02*
X59909516Y-36104000I-1078608J-1672335D01*
G01*
X57595392Y-32871665D02*
G75*
G03*
X57438484Y-36104000I1078608J-1672335D01*
G01*
%TO.C,D3*%
X74710000Y-24928000D02*
X74866000Y-24928000D01*
X77026000Y-24928000D02*
X77182000Y-24928000D01*
X77025837Y-22326870D02*
G75*
G02*
X77026000Y-24408961I-1079837J-1041130D01*
G01*
X74866163Y-22326870D02*
G75*
G03*
X74866000Y-24408961I1079837J-1041130D01*
G01*
X77024608Y-21695665D02*
G75*
G02*
X77181516Y-24928000I-1078608J-1672335D01*
G01*
X74867392Y-21695665D02*
G75*
G03*
X74710484Y-24928000I1078608J-1672335D01*
G01*
%TO.C,C3*%
X36870000Y-37300000D02*
G75*
G03*
X36870000Y-37300000I-4120000J0D01*
G01*
X32750000Y-33220000D02*
X32750000Y-41380000D01*
X32790000Y-33220000D02*
X32790000Y-41380000D01*
X32830000Y-33220000D02*
X32830000Y-41380000D01*
X32870000Y-33221000D02*
X32870000Y-41379000D01*
X32910000Y-33223000D02*
X32910000Y-41377000D01*
X32950000Y-33224000D02*
X32950000Y-41376000D01*
X32990000Y-33226000D02*
X32990000Y-41374000D01*
X33030000Y-33229000D02*
X33030000Y-41371000D01*
X33070000Y-33232000D02*
X33070000Y-41368000D01*
X33110000Y-33235000D02*
X33110000Y-41365000D01*
X33150000Y-33239000D02*
X33150000Y-41361000D01*
X33190000Y-33243000D02*
X33190000Y-41357000D01*
X33230000Y-33248000D02*
X33230000Y-41352000D01*
X33270000Y-33252000D02*
X33270000Y-41348000D01*
X33310000Y-33258000D02*
X33310000Y-41342000D01*
X33350000Y-33263000D02*
X33350000Y-41337000D01*
X33390000Y-33270000D02*
X33390000Y-41330000D01*
X33430000Y-33276000D02*
X33430000Y-41324000D01*
X33471000Y-33283000D02*
X33471000Y-36260000D01*
X33471000Y-38340000D02*
X33471000Y-41317000D01*
X33511000Y-33290000D02*
X33511000Y-36260000D01*
X33511000Y-38340000D02*
X33511000Y-41310000D01*
X33551000Y-33298000D02*
X33551000Y-36260000D01*
X33551000Y-38340000D02*
X33551000Y-41302000D01*
X33591000Y-33306000D02*
X33591000Y-36260000D01*
X33591000Y-38340000D02*
X33591000Y-41294000D01*
X33631000Y-33315000D02*
X33631000Y-36260000D01*
X33631000Y-38340000D02*
X33631000Y-41285000D01*
X33671000Y-33324000D02*
X33671000Y-36260000D01*
X33671000Y-38340000D02*
X33671000Y-41276000D01*
X33711000Y-33333000D02*
X33711000Y-36260000D01*
X33711000Y-38340000D02*
X33711000Y-41267000D01*
X33751000Y-33343000D02*
X33751000Y-36260000D01*
X33751000Y-38340000D02*
X33751000Y-41257000D01*
X33791000Y-33353000D02*
X33791000Y-36260000D01*
X33791000Y-38340000D02*
X33791000Y-41247000D01*
X33831000Y-33364000D02*
X33831000Y-36260000D01*
X33831000Y-38340000D02*
X33831000Y-41236000D01*
X33871000Y-33375000D02*
X33871000Y-36260000D01*
X33871000Y-38340000D02*
X33871000Y-41225000D01*
X33911000Y-33386000D02*
X33911000Y-36260000D01*
X33911000Y-38340000D02*
X33911000Y-41214000D01*
X33951000Y-33398000D02*
X33951000Y-36260000D01*
X33951000Y-38340000D02*
X33951000Y-41202000D01*
X33991000Y-33411000D02*
X33991000Y-36260000D01*
X33991000Y-38340000D02*
X33991000Y-41189000D01*
X34031000Y-33423000D02*
X34031000Y-36260000D01*
X34031000Y-38340000D02*
X34031000Y-41177000D01*
X34071000Y-33437000D02*
X34071000Y-36260000D01*
X34071000Y-38340000D02*
X34071000Y-41163000D01*
X34111000Y-33450000D02*
X34111000Y-36260000D01*
X34111000Y-38340000D02*
X34111000Y-41150000D01*
X34151000Y-33465000D02*
X34151000Y-36260000D01*
X34151000Y-38340000D02*
X34151000Y-41135000D01*
X34191000Y-33479000D02*
X34191000Y-36260000D01*
X34191000Y-38340000D02*
X34191000Y-41121000D01*
X34231000Y-33495000D02*
X34231000Y-36260000D01*
X34231000Y-38340000D02*
X34231000Y-41105000D01*
X34271000Y-33510000D02*
X34271000Y-36260000D01*
X34271000Y-38340000D02*
X34271000Y-41090000D01*
X34311000Y-33526000D02*
X34311000Y-36260000D01*
X34311000Y-38340000D02*
X34311000Y-41074000D01*
X34351000Y-33543000D02*
X34351000Y-36260000D01*
X34351000Y-38340000D02*
X34351000Y-41057000D01*
X34391000Y-33560000D02*
X34391000Y-36260000D01*
X34391000Y-38340000D02*
X34391000Y-41040000D01*
X34431000Y-33578000D02*
X34431000Y-36260000D01*
X34431000Y-38340000D02*
X34431000Y-41022000D01*
X34471000Y-33596000D02*
X34471000Y-36260000D01*
X34471000Y-38340000D02*
X34471000Y-41004000D01*
X34511000Y-33614000D02*
X34511000Y-36260000D01*
X34511000Y-38340000D02*
X34511000Y-40986000D01*
X34551000Y-33634000D02*
X34551000Y-36260000D01*
X34551000Y-38340000D02*
X34551000Y-40966000D01*
X34591000Y-33653000D02*
X34591000Y-36260000D01*
X34591000Y-38340000D02*
X34591000Y-40947000D01*
X34631000Y-33673000D02*
X34631000Y-36260000D01*
X34631000Y-38340000D02*
X34631000Y-40927000D01*
X34671000Y-33694000D02*
X34671000Y-36260000D01*
X34671000Y-38340000D02*
X34671000Y-40906000D01*
X34711000Y-33716000D02*
X34711000Y-36260000D01*
X34711000Y-38340000D02*
X34711000Y-40884000D01*
X34751000Y-33738000D02*
X34751000Y-36260000D01*
X34751000Y-38340000D02*
X34751000Y-40862000D01*
X34791000Y-33760000D02*
X34791000Y-36260000D01*
X34791000Y-38340000D02*
X34791000Y-40840000D01*
X34831000Y-33783000D02*
X34831000Y-36260000D01*
X34831000Y-38340000D02*
X34831000Y-40817000D01*
X34871000Y-33807000D02*
X34871000Y-36260000D01*
X34871000Y-38340000D02*
X34871000Y-40793000D01*
X34911000Y-33831000D02*
X34911000Y-36260000D01*
X34911000Y-38340000D02*
X34911000Y-40769000D01*
X34951000Y-33856000D02*
X34951000Y-36260000D01*
X34951000Y-38340000D02*
X34951000Y-40744000D01*
X34991000Y-33882000D02*
X34991000Y-36260000D01*
X34991000Y-38340000D02*
X34991000Y-40718000D01*
X35031000Y-33908000D02*
X35031000Y-36260000D01*
X35031000Y-38340000D02*
X35031000Y-40692000D01*
X35071000Y-33935000D02*
X35071000Y-36260000D01*
X35071000Y-38340000D02*
X35071000Y-40665000D01*
X35111000Y-33962000D02*
X35111000Y-36260000D01*
X35111000Y-38340000D02*
X35111000Y-40638000D01*
X35151000Y-33991000D02*
X35151000Y-36260000D01*
X35151000Y-38340000D02*
X35151000Y-40609000D01*
X35191000Y-34020000D02*
X35191000Y-36260000D01*
X35191000Y-38340000D02*
X35191000Y-40580000D01*
X35231000Y-34050000D02*
X35231000Y-36260000D01*
X35231000Y-38340000D02*
X35231000Y-40550000D01*
X35271000Y-34080000D02*
X35271000Y-36260000D01*
X35271000Y-38340000D02*
X35271000Y-40520000D01*
X35311000Y-34111000D02*
X35311000Y-36260000D01*
X35311000Y-38340000D02*
X35311000Y-40489000D01*
X35351000Y-34144000D02*
X35351000Y-36260000D01*
X35351000Y-38340000D02*
X35351000Y-40456000D01*
X35391000Y-34176000D02*
X35391000Y-36260000D01*
X35391000Y-38340000D02*
X35391000Y-40424000D01*
X35431000Y-34210000D02*
X35431000Y-36260000D01*
X35431000Y-38340000D02*
X35431000Y-40390000D01*
X35471000Y-34245000D02*
X35471000Y-36260000D01*
X35471000Y-38340000D02*
X35471000Y-40355000D01*
X35511000Y-34281000D02*
X35511000Y-36260000D01*
X35511000Y-38340000D02*
X35511000Y-40319000D01*
X35551000Y-34317000D02*
X35551000Y-40283000D01*
X35591000Y-34355000D02*
X35591000Y-40245000D01*
X35631000Y-34393000D02*
X35631000Y-40207000D01*
X35671000Y-34433000D02*
X35671000Y-40167000D01*
X35711000Y-34474000D02*
X35711000Y-40126000D01*
X35751000Y-34516000D02*
X35751000Y-40084000D01*
X35791000Y-34559000D02*
X35791000Y-40041000D01*
X35831000Y-34603000D02*
X35831000Y-39997000D01*
X35871000Y-34649000D02*
X35871000Y-39951000D01*
X35911000Y-34696000D02*
X35911000Y-39904000D01*
X35951000Y-34744000D02*
X35951000Y-39856000D01*
X35991000Y-34795000D02*
X35991000Y-39805000D01*
X36031000Y-34846000D02*
X36031000Y-39754000D01*
X36071000Y-34900000D02*
X36071000Y-39700000D01*
X36111000Y-34955000D02*
X36111000Y-39645000D01*
X36151000Y-35013000D02*
X36151000Y-39587000D01*
X36191000Y-35072000D02*
X36191000Y-39528000D01*
X36231000Y-35134000D02*
X36231000Y-39466000D01*
X36271000Y-35198000D02*
X36271000Y-39402000D01*
X36311000Y-35266000D02*
X36311000Y-39334000D01*
X36351000Y-35336000D02*
X36351000Y-39264000D01*
X36391000Y-35410000D02*
X36391000Y-39190000D01*
X36431000Y-35487000D02*
X36431000Y-39113000D01*
X36471000Y-35569000D02*
X36471000Y-39031000D01*
X36511000Y-35655000D02*
X36511000Y-38945000D01*
X36551000Y-35748000D02*
X36551000Y-38852000D01*
X36591000Y-35847000D02*
X36591000Y-38753000D01*
X36631000Y-35954000D02*
X36631000Y-38646000D01*
X36671000Y-36071000D02*
X36671000Y-38529000D01*
X36711000Y-36202000D02*
X36711000Y-38398000D01*
X36751000Y-36352000D02*
X36751000Y-38248000D01*
X36791000Y-36532000D02*
X36791000Y-38068000D01*
X36831000Y-36767000D02*
X36831000Y-37833000D01*
X28340302Y-34985000D02*
X29140302Y-34985000D01*
X28740302Y-34585000D02*
X28740302Y-35385000D01*
%TO.C,SW2*%
X116582000Y-61420000D02*
X116582000Y-59920000D01*
X115332000Y-57420000D02*
X110832000Y-57420000D01*
X109582000Y-59920000D02*
X109582000Y-61420000D01*
X110832000Y-63920000D02*
X115332000Y-63920000D01*
%TO.C,SW1*%
X116582000Y-52348000D02*
X116582000Y-50848000D01*
X115332000Y-48348000D02*
X110832000Y-48348000D01*
X109582000Y-50848000D02*
X109582000Y-52348000D01*
X110832000Y-54848000D02*
X115332000Y-54848000D01*
%TO.C,U8*%
X91710000Y-44390000D02*
X90060000Y-44390000D01*
X90060000Y-44390000D02*
X90060000Y-64830000D01*
X90060000Y-64830000D02*
X95360000Y-64830000D01*
X95360000Y-64830000D02*
X95360000Y-44390000D01*
X95360000Y-44390000D02*
X93710000Y-44390000D01*
X87570000Y-44330000D02*
X87570000Y-64890000D01*
X87570000Y-64890000D02*
X97850000Y-64890000D01*
X97850000Y-64890000D02*
X97850000Y-44330000D01*
X97850000Y-44330000D02*
X87570000Y-44330000D01*
X93710000Y-44390000D02*
G75*
G02*
X91710000Y-44390000I-1000000J0D01*
G01*
%TO.C,Y1*%
X85725000Y-48390000D02*
X85725000Y-47690000D01*
X85055000Y-49790000D02*
X85725000Y-48390000D01*
X83185000Y-48390000D02*
X83185000Y-47690000D01*
X83855000Y-49790000D02*
X83185000Y-48390000D01*
X86155000Y-49790000D02*
X82755000Y-49790000D01*
X86155000Y-60690000D02*
X86155000Y-49790000D01*
X82755000Y-60690000D02*
X86155000Y-60690000D01*
X82755000Y-49790000D02*
X82755000Y-60690000D01*
%TO.C,BT1*%
X74130000Y-27950000D02*
X77030000Y-27950000D01*
X74130000Y-35550000D02*
X74130000Y-27950000D01*
X77030000Y-35550000D02*
X74130000Y-35550000D01*
X98130000Y-27850000D02*
X98130000Y-35650000D01*
X98129999Y-35650000D02*
G75*
G02*
X77130001Y-35649999I-10499999J3900000D01*
G01*
X77097630Y-27938285D02*
G75*
G02*
X98129999Y-27850001I10532370J-3811715D01*
G01*
%TO.C,C8*%
X36870000Y-28000000D02*
G75*
G03*
X36870000Y-28000000I-4120000J0D01*
G01*
X32750000Y-23920000D02*
X32750000Y-32080000D01*
X32790000Y-23920000D02*
X32790000Y-32080000D01*
X32830000Y-23920000D02*
X32830000Y-32080000D01*
X32870000Y-23921000D02*
X32870000Y-32079000D01*
X32910000Y-23923000D02*
X32910000Y-32077000D01*
X32950000Y-23924000D02*
X32950000Y-32076000D01*
X32990000Y-23926000D02*
X32990000Y-32074000D01*
X33030000Y-23929000D02*
X33030000Y-32071000D01*
X33070000Y-23932000D02*
X33070000Y-32068000D01*
X33110000Y-23935000D02*
X33110000Y-32065000D01*
X33150000Y-23939000D02*
X33150000Y-32061000D01*
X33190000Y-23943000D02*
X33190000Y-32057000D01*
X33230000Y-23948000D02*
X33230000Y-32052000D01*
X33270000Y-23952000D02*
X33270000Y-32048000D01*
X33310000Y-23958000D02*
X33310000Y-32042000D01*
X33350000Y-23963000D02*
X33350000Y-32037000D01*
X33390000Y-23970000D02*
X33390000Y-32030000D01*
X33430000Y-23976000D02*
X33430000Y-32024000D01*
X33471000Y-23983000D02*
X33471000Y-26960000D01*
X33471000Y-29040000D02*
X33471000Y-32017000D01*
X33511000Y-23990000D02*
X33511000Y-26960000D01*
X33511000Y-29040000D02*
X33511000Y-32010000D01*
X33551000Y-23998000D02*
X33551000Y-26960000D01*
X33551000Y-29040000D02*
X33551000Y-32002000D01*
X33591000Y-24006000D02*
X33591000Y-26960000D01*
X33591000Y-29040000D02*
X33591000Y-31994000D01*
X33631000Y-24015000D02*
X33631000Y-26960000D01*
X33631000Y-29040000D02*
X33631000Y-31985000D01*
X33671000Y-24024000D02*
X33671000Y-26960000D01*
X33671000Y-29040000D02*
X33671000Y-31976000D01*
X33711000Y-24033000D02*
X33711000Y-26960000D01*
X33711000Y-29040000D02*
X33711000Y-31967000D01*
X33751000Y-24043000D02*
X33751000Y-26960000D01*
X33751000Y-29040000D02*
X33751000Y-31957000D01*
X33791000Y-24053000D02*
X33791000Y-26960000D01*
X33791000Y-29040000D02*
X33791000Y-31947000D01*
X33831000Y-24064000D02*
X33831000Y-26960000D01*
X33831000Y-29040000D02*
X33831000Y-31936000D01*
X33871000Y-24075000D02*
X33871000Y-26960000D01*
X33871000Y-29040000D02*
X33871000Y-31925000D01*
X33911000Y-24086000D02*
X33911000Y-26960000D01*
X33911000Y-29040000D02*
X33911000Y-31914000D01*
X33951000Y-24098000D02*
X33951000Y-26960000D01*
X33951000Y-29040000D02*
X33951000Y-31902000D01*
X33991000Y-24111000D02*
X33991000Y-26960000D01*
X33991000Y-29040000D02*
X33991000Y-31889000D01*
X34031000Y-24123000D02*
X34031000Y-26960000D01*
X34031000Y-29040000D02*
X34031000Y-31877000D01*
X34071000Y-24137000D02*
X34071000Y-26960000D01*
X34071000Y-29040000D02*
X34071000Y-31863000D01*
X34111000Y-24150000D02*
X34111000Y-26960000D01*
X34111000Y-29040000D02*
X34111000Y-31850000D01*
X34151000Y-24165000D02*
X34151000Y-26960000D01*
X34151000Y-29040000D02*
X34151000Y-31835000D01*
X34191000Y-24179000D02*
X34191000Y-26960000D01*
X34191000Y-29040000D02*
X34191000Y-31821000D01*
X34231000Y-24195000D02*
X34231000Y-26960000D01*
X34231000Y-29040000D02*
X34231000Y-31805000D01*
X34271000Y-24210000D02*
X34271000Y-26960000D01*
X34271000Y-29040000D02*
X34271000Y-31790000D01*
X34311000Y-24226000D02*
X34311000Y-26960000D01*
X34311000Y-29040000D02*
X34311000Y-31774000D01*
X34351000Y-24243000D02*
X34351000Y-26960000D01*
X34351000Y-29040000D02*
X34351000Y-31757000D01*
X34391000Y-24260000D02*
X34391000Y-26960000D01*
X34391000Y-29040000D02*
X34391000Y-31740000D01*
X34431000Y-24278000D02*
X34431000Y-26960000D01*
X34431000Y-29040000D02*
X34431000Y-31722000D01*
X34471000Y-24296000D02*
X34471000Y-26960000D01*
X34471000Y-29040000D02*
X34471000Y-31704000D01*
X34511000Y-24314000D02*
X34511000Y-26960000D01*
X34511000Y-29040000D02*
X34511000Y-31686000D01*
X34551000Y-24334000D02*
X34551000Y-26960000D01*
X34551000Y-29040000D02*
X34551000Y-31666000D01*
X34591000Y-24353000D02*
X34591000Y-26960000D01*
X34591000Y-29040000D02*
X34591000Y-31647000D01*
X34631000Y-24373000D02*
X34631000Y-26960000D01*
X34631000Y-29040000D02*
X34631000Y-31627000D01*
X34671000Y-24394000D02*
X34671000Y-26960000D01*
X34671000Y-29040000D02*
X34671000Y-31606000D01*
X34711000Y-24416000D02*
X34711000Y-26960000D01*
X34711000Y-29040000D02*
X34711000Y-31584000D01*
X34751000Y-24438000D02*
X34751000Y-26960000D01*
X34751000Y-29040000D02*
X34751000Y-31562000D01*
X34791000Y-24460000D02*
X34791000Y-26960000D01*
X34791000Y-29040000D02*
X34791000Y-31540000D01*
X34831000Y-24483000D02*
X34831000Y-26960000D01*
X34831000Y-29040000D02*
X34831000Y-31517000D01*
X34871000Y-24507000D02*
X34871000Y-26960000D01*
X34871000Y-29040000D02*
X34871000Y-31493000D01*
X34911000Y-24531000D02*
X34911000Y-26960000D01*
X34911000Y-29040000D02*
X34911000Y-31469000D01*
X34951000Y-24556000D02*
X34951000Y-26960000D01*
X34951000Y-29040000D02*
X34951000Y-31444000D01*
X34991000Y-24582000D02*
X34991000Y-26960000D01*
X34991000Y-29040000D02*
X34991000Y-31418000D01*
X35031000Y-24608000D02*
X35031000Y-26960000D01*
X35031000Y-29040000D02*
X35031000Y-31392000D01*
X35071000Y-24635000D02*
X35071000Y-26960000D01*
X35071000Y-29040000D02*
X35071000Y-31365000D01*
X35111000Y-24662000D02*
X35111000Y-26960000D01*
X35111000Y-29040000D02*
X35111000Y-31338000D01*
X35151000Y-24691000D02*
X35151000Y-26960000D01*
X35151000Y-29040000D02*
X35151000Y-31309000D01*
X35191000Y-24720000D02*
X35191000Y-26960000D01*
X35191000Y-29040000D02*
X35191000Y-31280000D01*
X35231000Y-24750000D02*
X35231000Y-26960000D01*
X35231000Y-29040000D02*
X35231000Y-31250000D01*
X35271000Y-24780000D02*
X35271000Y-26960000D01*
X35271000Y-29040000D02*
X35271000Y-31220000D01*
X35311000Y-24811000D02*
X35311000Y-26960000D01*
X35311000Y-29040000D02*
X35311000Y-31189000D01*
X35351000Y-24844000D02*
X35351000Y-26960000D01*
X35351000Y-29040000D02*
X35351000Y-31156000D01*
X35391000Y-24876000D02*
X35391000Y-26960000D01*
X35391000Y-29040000D02*
X35391000Y-31124000D01*
X35431000Y-24910000D02*
X35431000Y-26960000D01*
X35431000Y-29040000D02*
X35431000Y-31090000D01*
X35471000Y-24945000D02*
X35471000Y-26960000D01*
X35471000Y-29040000D02*
X35471000Y-31055000D01*
X35511000Y-24981000D02*
X35511000Y-26960000D01*
X35511000Y-29040000D02*
X35511000Y-31019000D01*
X35551000Y-25017000D02*
X35551000Y-30983000D01*
X35591000Y-25055000D02*
X35591000Y-30945000D01*
X35631000Y-25093000D02*
X35631000Y-30907000D01*
X35671000Y-25133000D02*
X35671000Y-30867000D01*
X35711000Y-25174000D02*
X35711000Y-30826000D01*
X35751000Y-25216000D02*
X35751000Y-30784000D01*
X35791000Y-25259000D02*
X35791000Y-30741000D01*
X35831000Y-25303000D02*
X35831000Y-30697000D01*
X35871000Y-25349000D02*
X35871000Y-30651000D01*
X35911000Y-25396000D02*
X35911000Y-30604000D01*
X35951000Y-25444000D02*
X35951000Y-30556000D01*
X35991000Y-25495000D02*
X35991000Y-30505000D01*
X36031000Y-25546000D02*
X36031000Y-30454000D01*
X36071000Y-25600000D02*
X36071000Y-30400000D01*
X36111000Y-25655000D02*
X36111000Y-30345000D01*
X36151000Y-25713000D02*
X36151000Y-30287000D01*
X36191000Y-25772000D02*
X36191000Y-30228000D01*
X36231000Y-25834000D02*
X36231000Y-30166000D01*
X36271000Y-25898000D02*
X36271000Y-30102000D01*
X36311000Y-25966000D02*
X36311000Y-30034000D01*
X36351000Y-26036000D02*
X36351000Y-29964000D01*
X36391000Y-26110000D02*
X36391000Y-29890000D01*
X36431000Y-26187000D02*
X36431000Y-29813000D01*
X36471000Y-26269000D02*
X36471000Y-29731000D01*
X36511000Y-26355000D02*
X36511000Y-29645000D01*
X36551000Y-26448000D02*
X36551000Y-29552000D01*
X36591000Y-26547000D02*
X36591000Y-29453000D01*
X36631000Y-26654000D02*
X36631000Y-29346000D01*
X36671000Y-26771000D02*
X36671000Y-29229000D01*
X36711000Y-26902000D02*
X36711000Y-29098000D01*
X36751000Y-27052000D02*
X36751000Y-28948000D01*
X36791000Y-27232000D02*
X36791000Y-28768000D01*
X36831000Y-27467000D02*
X36831000Y-28533000D01*
X28340302Y-25685000D02*
X29140302Y-25685000D01*
X28740302Y-25285000D02*
X28740302Y-26085000D01*
%TO.C,U10*%
X80070000Y-100600000D02*
X80070000Y-98950000D01*
X80070000Y-98950000D02*
X62170000Y-98950000D01*
X62170000Y-98950000D02*
X62170000Y-104250000D01*
X62170000Y-104250000D02*
X80070000Y-104250000D01*
X80070000Y-104250000D02*
X80070000Y-102600000D01*
X80130000Y-96460000D02*
X62110000Y-96460000D01*
X62110000Y-96460000D02*
X62110000Y-106740000D01*
X62110000Y-106740000D02*
X80130000Y-106740000D01*
X80130000Y-106740000D02*
X80130000Y-96460000D01*
X80070000Y-102600000D02*
G75*
G02*
X80070000Y-100600000I0J1000000D01*
G01*
%TO.C,U6*%
X77530000Y-113046000D02*
X77530000Y-111396000D01*
X77530000Y-111396000D02*
X59630000Y-111396000D01*
X59630000Y-111396000D02*
X59630000Y-116696000D01*
X59630000Y-116696000D02*
X77530000Y-116696000D01*
X77530000Y-116696000D02*
X77530000Y-115046000D01*
X77590000Y-108906000D02*
X59570000Y-108906000D01*
X59570000Y-108906000D02*
X59570000Y-119186000D01*
X59570000Y-119186000D02*
X77590000Y-119186000D01*
X77590000Y-119186000D02*
X77590000Y-108906000D01*
X77530000Y-115046000D02*
G75*
G02*
X77530000Y-113046000I0J1000000D01*
G01*
%TO.C,U1*%
X66945000Y-21530000D02*
X65295000Y-21530000D01*
X65295000Y-21530000D02*
X65295000Y-39430000D01*
X65295000Y-39430000D02*
X70595000Y-39430000D01*
X70595000Y-39430000D02*
X70595000Y-21530000D01*
X70595000Y-21530000D02*
X68945000Y-21530000D01*
X62805000Y-21470000D02*
X62805000Y-39490000D01*
X62805000Y-39490000D02*
X73085000Y-39490000D01*
X73085000Y-39490000D02*
X73085000Y-21470000D01*
X73085000Y-21470000D02*
X62805000Y-21470000D01*
X68945000Y-21530000D02*
G75*
G02*
X66945000Y-21530000I-1000000J0D01*
G01*
%TO.C,U5*%
X79696000Y-115046000D02*
X79696000Y-116696000D01*
X79696000Y-116696000D02*
X110296000Y-116696000D01*
X110296000Y-116696000D02*
X110296000Y-111396000D01*
X110296000Y-111396000D02*
X79696000Y-111396000D01*
X79696000Y-111396000D02*
X79696000Y-113046000D01*
X79636000Y-119186000D02*
X110356000Y-119186000D01*
X110356000Y-119186000D02*
X110356000Y-108906000D01*
X110356000Y-108906000D02*
X79636000Y-108906000D01*
X79636000Y-108906000D02*
X79636000Y-119186000D01*
X79696000Y-113046000D02*
G75*
G02*
X79696000Y-115046000I0J-1000000D01*
G01*
%TO.C,U4*%
X49260000Y-119440000D02*
X50910000Y-119440000D01*
X50910000Y-119440000D02*
X50910000Y-99000000D01*
X50910000Y-99000000D02*
X45610000Y-99000000D01*
X45610000Y-99000000D02*
X45610000Y-119440000D01*
X45610000Y-119440000D02*
X47260000Y-119440000D01*
X53400000Y-119500000D02*
X53400000Y-98940000D01*
X53400000Y-98940000D02*
X43120000Y-98940000D01*
X43120000Y-98940000D02*
X43120000Y-119500000D01*
X43120000Y-119500000D02*
X53400000Y-119500000D01*
X47260000Y-119440000D02*
G75*
G02*
X49260000Y-119440000I1000000J0D01*
G01*
%TO.C,U3*%
X36560000Y-119440000D02*
X38210000Y-119440000D01*
X38210000Y-119440000D02*
X38210000Y-99000000D01*
X38210000Y-99000000D02*
X32910000Y-99000000D01*
X32910000Y-99000000D02*
X32910000Y-119440000D01*
X32910000Y-119440000D02*
X34560000Y-119440000D01*
X40700000Y-119500000D02*
X40700000Y-98940000D01*
X40700000Y-98940000D02*
X30420000Y-98940000D01*
X30420000Y-98940000D02*
X30420000Y-119500000D01*
X30420000Y-119500000D02*
X40700000Y-119500000D01*
X34560000Y-119440000D02*
G75*
G02*
X36560000Y-119440000I1000000J0D01*
G01*
%TO.C,U2*%
X69879000Y-42485000D02*
X64419000Y-42485000D01*
X64419000Y-42485000D02*
X64419000Y-93405000D01*
X64419000Y-93405000D02*
X77339000Y-93405000D01*
X77339000Y-93405000D02*
X77339000Y-42485000D01*
X77339000Y-42485000D02*
X71879000Y-42485000D01*
X61929000Y-42425000D02*
X61929000Y-93465000D01*
X61929000Y-93465000D02*
X79829000Y-93465000D01*
X79829000Y-93465000D02*
X79829000Y-42425000D01*
X79829000Y-42425000D02*
X61929000Y-42425000D01*
X71879000Y-42485000D02*
G75*
G02*
X69879000Y-42485000I-1000000J0D01*
G01*
%TO.C,U12*%
X99755000Y-66555000D02*
X81855000Y-66555000D01*
X99755000Y-107435000D02*
X99755000Y-66555000D01*
X81855000Y-107435000D02*
X99755000Y-107435000D01*
X81855000Y-66555000D02*
X81855000Y-107435000D01*
X97265000Y-66615000D02*
X91805000Y-66615000D01*
X97265000Y-107375000D02*
X97265000Y-66615000D01*
X84345000Y-107375000D02*
X97265000Y-107375000D01*
X84345000Y-66615000D02*
X84345000Y-107375000D01*
X89805000Y-66615000D02*
X84345000Y-66615000D01*
X91805000Y-66615000D02*
G75*
G02*
X89805000Y-66615000I-1000000J0D01*
G01*
%TO.C,U11*%
X109490000Y-66615000D02*
X104030000Y-66615000D01*
X104030000Y-66615000D02*
X104030000Y-107375000D01*
X104030000Y-107375000D02*
X116950000Y-107375000D01*
X116950000Y-107375000D02*
X116950000Y-66615000D01*
X116950000Y-66615000D02*
X111490000Y-66615000D01*
X101540000Y-66555000D02*
X101540000Y-107435000D01*
X101540000Y-107435000D02*
X119440000Y-107435000D01*
X119440000Y-107435000D02*
X119440000Y-66555000D01*
X119440000Y-66555000D02*
X101540000Y-66555000D01*
X111490000Y-66615000D02*
G75*
G02*
X109490000Y-66615000I-1000000J0D01*
G01*
%TO.C,U16*%
X43418000Y-66735000D02*
X45068000Y-66735000D01*
X45068000Y-66735000D02*
X45068000Y-41215000D01*
X45068000Y-41215000D02*
X39768000Y-41215000D01*
X39768000Y-41215000D02*
X39768000Y-66735000D01*
X39768000Y-66735000D02*
X41418000Y-66735000D01*
X47558000Y-66795000D02*
X47558000Y-41155000D01*
X47558000Y-41155000D02*
X37278000Y-41155000D01*
X37278000Y-41155000D02*
X37278000Y-66795000D01*
X37278000Y-66795000D02*
X47558000Y-66795000D01*
X41418000Y-66735000D02*
G75*
G02*
X43418000Y-66735000I1000000J0D01*
G01*
%TO.C,U15*%
X55864000Y-94675000D02*
X57514000Y-94675000D01*
X57514000Y-94675000D02*
X57514000Y-69155000D01*
X57514000Y-69155000D02*
X52214000Y-69155000D01*
X52214000Y-69155000D02*
X52214000Y-94675000D01*
X52214000Y-94675000D02*
X53864000Y-94675000D01*
X60004000Y-94735000D02*
X60004000Y-69095000D01*
X60004000Y-69095000D02*
X49724000Y-69095000D01*
X49724000Y-69095000D02*
X49724000Y-94735000D01*
X49724000Y-94735000D02*
X60004000Y-94735000D01*
X53864000Y-94675000D02*
G75*
G02*
X55864000Y-94675000I1000000J0D01*
G01*
%TO.C,U14*%
X55864000Y-66735000D02*
X57514000Y-66735000D01*
X57514000Y-66735000D02*
X57514000Y-41215000D01*
X57514000Y-41215000D02*
X52214000Y-41215000D01*
X52214000Y-41215000D02*
X52214000Y-66735000D01*
X52214000Y-66735000D02*
X53864000Y-66735000D01*
X60004000Y-66795000D02*
X60004000Y-41155000D01*
X60004000Y-41155000D02*
X49724000Y-41155000D01*
X49724000Y-41155000D02*
X49724000Y-66795000D01*
X49724000Y-66795000D02*
X60004000Y-66795000D01*
X53864000Y-66735000D02*
G75*
G02*
X55864000Y-66735000I1000000J0D01*
G01*
%TO.C,U13*%
X37278000Y-94735000D02*
X47558000Y-94735000D01*
X37278000Y-69095000D02*
X37278000Y-94735000D01*
X47558000Y-69095000D02*
X37278000Y-69095000D01*
X47558000Y-94735000D02*
X47558000Y-69095000D01*
X39768000Y-94675000D02*
X41418000Y-94675000D01*
X39768000Y-69155000D02*
X39768000Y-94675000D01*
X45068000Y-69155000D02*
X39768000Y-69155000D01*
X45068000Y-94675000D02*
X45068000Y-69155000D01*
X43418000Y-94675000D02*
X45068000Y-94675000D01*
X41418000Y-94675000D02*
G75*
G02*
X43418000Y-94675000I1000000J0D01*
G01*
%TO.C,J2*%
X21210000Y-29270000D02*
X22540000Y-29270000D01*
X21210000Y-30600000D02*
X21210000Y-29270000D01*
X23810000Y-29270000D02*
X26410000Y-29270000D01*
X23810000Y-31870000D02*
X23810000Y-29270000D01*
X21210000Y-31870000D02*
X23810000Y-31870000D01*
X26410000Y-29270000D02*
X26410000Y-39550000D01*
X21210000Y-31870000D02*
X21210000Y-39550000D01*
X21210000Y-39550000D02*
X26410000Y-39550000D01*
%TO.C,J1*%
X21210000Y-110730000D02*
X26410000Y-110730000D01*
X21210000Y-103050000D02*
X21210000Y-110730000D01*
X26410000Y-100450000D02*
X26410000Y-110730000D01*
X21210000Y-103050000D02*
X23810000Y-103050000D01*
X23810000Y-103050000D02*
X23810000Y-100450000D01*
X23810000Y-100450000D02*
X26410000Y-100450000D01*
X21210000Y-101780000D02*
X21210000Y-100450000D01*
X21210000Y-100450000D02*
X22540000Y-100450000D01*
%TO.C,D2*%
X102326000Y-48040000D02*
X102326000Y-48196000D01*
X102326000Y-50356000D02*
X102326000Y-50512000D01*
X104927130Y-50355837D02*
G75*
G02*
X102845039Y-50356000I-1041130J1079837D01*
G01*
X104927130Y-48196163D02*
G75*
G03*
X102845039Y-48196000I-1041130J-1079837D01*
G01*
X105558335Y-50354608D02*
G75*
G02*
X102326000Y-50511516I-1672335J1078608D01*
G01*
X105558335Y-48197392D02*
G75*
G03*
X102326000Y-48040484I-1672335J-1078608D01*
G01*
%TO.C,J4*%
X29210000Y-95460000D02*
X34410000Y-95460000D01*
X29210000Y-47140000D02*
X29210000Y-95460000D01*
X34410000Y-44540000D02*
X34410000Y-95460000D01*
X29210000Y-47140000D02*
X31810000Y-47140000D01*
X31810000Y-47140000D02*
X31810000Y-44540000D01*
X31810000Y-44540000D02*
X34410000Y-44540000D01*
X29210000Y-45870000D02*
X29210000Y-44540000D01*
X29210000Y-44540000D02*
X30540000Y-44540000D01*
%TO.C,X1*%
X41810000Y-24157000D02*
X41810000Y-36307000D01*
X42560000Y-37057000D02*
X53960000Y-37057000D01*
X54710000Y-36307000D02*
X54710000Y-24907000D01*
X53960000Y-24157000D02*
X41810000Y-24157000D01*
X41810000Y-36307000D02*
G75*
G03*
X42560000Y-37057000I750000J0D01*
G01*
X53960000Y-37057000D02*
G75*
G03*
X54710000Y-36307000I0J750000D01*
G01*
X54710000Y-24907000D02*
G75*
G03*
X53960000Y-24157000I-750000J0D01*
G01*
%TO.C,D1*%
X102326000Y-52612000D02*
X102326000Y-52768000D01*
X102326000Y-54928000D02*
X102326000Y-55084000D01*
X104927130Y-54927837D02*
G75*
G02*
X102845039Y-54928000I-1041130J1079837D01*
G01*
X104927130Y-52768163D02*
G75*
G03*
X102845039Y-52768000I-1041130J-1079837D01*
G01*
X105558335Y-54926608D02*
G75*
G02*
X102326000Y-55083516I-1672335J1078608D01*
G01*
X105558335Y-52769392D02*
G75*
G03*
X102326000Y-52612484I-1672335J-1078608D01*
G01*
%TO.C,U7*%
X119524000Y-28715000D02*
X99424000Y-28715000D01*
X119524000Y-46215000D02*
X99424000Y-46215000D01*
X99424000Y-46215000D02*
X99424000Y-28715000D01*
X119524000Y-28715000D02*
X119524000Y-46215000D01*
X109474000Y-45085000D02*
X108204000Y-43815000D01*
X108204000Y-43815000D02*
X110744000Y-43815000D01*
X110744000Y-43815000D02*
X109474000Y-45085000D01*
%TO.C,RN1*%
X55115000Y-116840000D02*
X57915000Y-116840000D01*
X55115000Y-96350000D02*
X55115000Y-119550000D01*
X57915000Y-96350000D02*
X55115000Y-96350000D01*
X57915000Y-119550000D02*
X57915000Y-96350000D01*
X55115000Y-119550000D02*
X57915000Y-119550000D01*
%TO.C,J3*%
X21210000Y-44540000D02*
X22540000Y-44540000D01*
X21210000Y-45870000D02*
X21210000Y-44540000D01*
X23810000Y-44540000D02*
X26410000Y-44540000D01*
X23810000Y-47140000D02*
X23810000Y-44540000D01*
X21210000Y-47140000D02*
X23810000Y-47140000D01*
X26410000Y-44540000D02*
X26410000Y-95460000D01*
X21210000Y-47140000D02*
X21210000Y-95460000D01*
X21210000Y-95460000D02*
X26410000Y-95460000D01*
%TO.C,D10*%
D10*
X101232380Y-64206285D02*
X100232380Y-64206285D01*
X100232380Y-63968190D01*
X100280000Y-63825333D01*
X100375238Y-63730095D01*
X100470476Y-63682476D01*
X100660952Y-63634857D01*
X100803809Y-63634857D01*
X100994285Y-63682476D01*
X101089523Y-63730095D01*
X101184761Y-63825333D01*
X101232380Y-63968190D01*
X101232380Y-64206285D01*
X101232380Y-62682476D02*
X101232380Y-63253904D01*
X101232380Y-62968190D02*
X100232380Y-62968190D01*
X100375238Y-63063428D01*
X100470476Y-63158666D01*
X100518095Y-63253904D01*
X100232380Y-62063428D02*
X100232380Y-61968190D01*
X100280000Y-61872952D01*
X100327619Y-61825333D01*
X100422857Y-61777714D01*
X100613333Y-61730095D01*
X100851428Y-61730095D01*
X101041904Y-61777714D01*
X101137142Y-61825333D01*
X101184761Y-61872952D01*
X101232380Y-61968190D01*
X101232380Y-62063428D01*
X101184761Y-62158666D01*
X101137142Y-62206285D01*
X101041904Y-62253904D01*
X100851428Y-62301523D01*
X100613333Y-62301523D01*
X100422857Y-62253904D01*
X100327619Y-62206285D01*
X100280000Y-62158666D01*
X100232380Y-62063428D01*
X107328380Y-63777714D02*
X106852190Y-64111047D01*
X107328380Y-64349142D02*
X106328380Y-64349142D01*
X106328380Y-63968190D01*
X106376000Y-63872952D01*
X106423619Y-63825333D01*
X106518857Y-63777714D01*
X106661714Y-63777714D01*
X106756952Y-63825333D01*
X106804571Y-63872952D01*
X106852190Y-63968190D01*
X106852190Y-64349142D01*
X106328380Y-63158666D02*
X106328380Y-62968190D01*
X106376000Y-62872952D01*
X106471238Y-62777714D01*
X106661714Y-62730095D01*
X106995047Y-62730095D01*
X107185523Y-62777714D01*
X107280761Y-62872952D01*
X107328380Y-62968190D01*
X107328380Y-63158666D01*
X107280761Y-63253904D01*
X107185523Y-63349142D01*
X106995047Y-63396761D01*
X106661714Y-63396761D01*
X106471238Y-63349142D01*
X106376000Y-63253904D01*
X106328380Y-63158666D01*
X107328380Y-62301523D02*
X106328380Y-62301523D01*
X107042666Y-61968190D01*
X106328380Y-61634857D01*
X107328380Y-61634857D01*
%TO.C,D9*%
X101290380Y-59158095D02*
X100290380Y-59158095D01*
X100290380Y-58920000D01*
X100338000Y-58777142D01*
X100433238Y-58681904D01*
X100528476Y-58634285D01*
X100718952Y-58586666D01*
X100861809Y-58586666D01*
X101052285Y-58634285D01*
X101147523Y-58681904D01*
X101242761Y-58777142D01*
X101290380Y-58920000D01*
X101290380Y-59158095D01*
X101290380Y-58110476D02*
X101290380Y-57920000D01*
X101242761Y-57824761D01*
X101195142Y-57777142D01*
X101052285Y-57681904D01*
X100861809Y-57634285D01*
X100480857Y-57634285D01*
X100385619Y-57681904D01*
X100338000Y-57729523D01*
X100290380Y-57824761D01*
X100290380Y-58015238D01*
X100338000Y-58110476D01*
X100385619Y-58158095D01*
X100480857Y-58205714D01*
X100718952Y-58205714D01*
X100814190Y-58158095D01*
X100861809Y-58110476D01*
X100909428Y-58015238D01*
X100909428Y-57824761D01*
X100861809Y-57729523D01*
X100814190Y-57681904D01*
X100718952Y-57634285D01*
X107386380Y-59110476D02*
X106910190Y-59443809D01*
X107386380Y-59681904D02*
X106386380Y-59681904D01*
X106386380Y-59300952D01*
X106434000Y-59205714D01*
X106481619Y-59158095D01*
X106576857Y-59110476D01*
X106719714Y-59110476D01*
X106814952Y-59158095D01*
X106862571Y-59205714D01*
X106910190Y-59300952D01*
X106910190Y-59681904D01*
X107100666Y-58729523D02*
X107100666Y-58253333D01*
X107386380Y-58824761D02*
X106386380Y-58491428D01*
X107386380Y-58158095D01*
X107386380Y-57824761D02*
X106386380Y-57824761D01*
X107100666Y-57491428D01*
X106386380Y-57158095D01*
X107386380Y-57158095D01*
%TO.C,D8*%
X112466380Y-110720095D02*
X111466380Y-110720095D01*
X111466380Y-110482000D01*
X111514000Y-110339142D01*
X111609238Y-110243904D01*
X111704476Y-110196285D01*
X111894952Y-110148666D01*
X112037809Y-110148666D01*
X112228285Y-110196285D01*
X112323523Y-110243904D01*
X112418761Y-110339142D01*
X112466380Y-110482000D01*
X112466380Y-110720095D01*
X111894952Y-109577238D02*
X111847333Y-109672476D01*
X111799714Y-109720095D01*
X111704476Y-109767714D01*
X111656857Y-109767714D01*
X111561619Y-109720095D01*
X111514000Y-109672476D01*
X111466380Y-109577238D01*
X111466380Y-109386761D01*
X111514000Y-109291523D01*
X111561619Y-109243904D01*
X111656857Y-109196285D01*
X111704476Y-109196285D01*
X111799714Y-109243904D01*
X111847333Y-109291523D01*
X111894952Y-109386761D01*
X111894952Y-109577238D01*
X111942571Y-109672476D01*
X111990190Y-109720095D01*
X112085428Y-109767714D01*
X112275904Y-109767714D01*
X112371142Y-109720095D01*
X112418761Y-109672476D01*
X112466380Y-109577238D01*
X112466380Y-109386761D01*
X112418761Y-109291523D01*
X112371142Y-109243904D01*
X112275904Y-109196285D01*
X112085428Y-109196285D01*
X111990190Y-109243904D01*
X111942571Y-109291523D01*
X111894952Y-109386761D01*
X118514761Y-110743904D02*
X118562380Y-110601047D01*
X118562380Y-110362952D01*
X118514761Y-110267714D01*
X118467142Y-110220095D01*
X118371904Y-110172476D01*
X118276666Y-110172476D01*
X118181428Y-110220095D01*
X118133809Y-110267714D01*
X118086190Y-110362952D01*
X118038571Y-110553428D01*
X117990952Y-110648666D01*
X117943333Y-110696285D01*
X117848095Y-110743904D01*
X117752857Y-110743904D01*
X117657619Y-110696285D01*
X117610000Y-110648666D01*
X117562380Y-110553428D01*
X117562380Y-110315333D01*
X117610000Y-110172476D01*
X117562380Y-109315333D02*
X117562380Y-109505809D01*
X117610000Y-109601047D01*
X117657619Y-109648666D01*
X117800476Y-109743904D01*
X117990952Y-109791523D01*
X118371904Y-109791523D01*
X118467142Y-109743904D01*
X118514761Y-109696285D01*
X118562380Y-109601047D01*
X118562380Y-109410571D01*
X118514761Y-109315333D01*
X118467142Y-109267714D01*
X118371904Y-109220095D01*
X118133809Y-109220095D01*
X118038571Y-109267714D01*
X117990952Y-109315333D01*
X117943333Y-109410571D01*
X117943333Y-109601047D01*
X117990952Y-109696285D01*
X118038571Y-109743904D01*
X118133809Y-109791523D01*
%TO.C,D7*%
X108227904Y-27884380D02*
X108227904Y-26884380D01*
X108466000Y-26884380D01*
X108608857Y-26932000D01*
X108704095Y-27027238D01*
X108751714Y-27122476D01*
X108799333Y-27312952D01*
X108799333Y-27455809D01*
X108751714Y-27646285D01*
X108704095Y-27741523D01*
X108608857Y-27836761D01*
X108466000Y-27884380D01*
X108227904Y-27884380D01*
X109132666Y-26884380D02*
X109799333Y-26884380D01*
X109370761Y-27884380D01*
X106989809Y-21534380D02*
X106989809Y-20534380D01*
X107466000Y-21534380D02*
X107466000Y-20534380D01*
X108037428Y-21534380D01*
X108037428Y-20534380D01*
X108513619Y-20534380D02*
X108513619Y-21343904D01*
X108561238Y-21439142D01*
X108608857Y-21486761D01*
X108704095Y-21534380D01*
X108894571Y-21534380D01*
X108989809Y-21486761D01*
X109037428Y-21439142D01*
X109085047Y-21343904D01*
X109085047Y-20534380D01*
X109513619Y-21486761D02*
X109656476Y-21534380D01*
X109894571Y-21534380D01*
X109989809Y-21486761D01*
X110037428Y-21439142D01*
X110085047Y-21343904D01*
X110085047Y-21248666D01*
X110037428Y-21153428D01*
X109989809Y-21105809D01*
X109894571Y-21058190D01*
X109704095Y-21010571D01*
X109608857Y-20962952D01*
X109561238Y-20915333D01*
X109513619Y-20820095D01*
X109513619Y-20724857D01*
X109561238Y-20629619D01*
X109608857Y-20582000D01*
X109704095Y-20534380D01*
X109942190Y-20534380D01*
X110085047Y-20582000D01*
X110513619Y-21010571D02*
X110846952Y-21010571D01*
X110989809Y-21534380D02*
X110513619Y-21534380D01*
X110513619Y-20534380D01*
X110989809Y-20534380D01*
%TO.C,D6*%
X102131904Y-27630380D02*
X102131904Y-26630380D01*
X102370000Y-26630380D01*
X102512857Y-26678000D01*
X102608095Y-26773238D01*
X102655714Y-26868476D01*
X102703333Y-27058952D01*
X102703333Y-27201809D01*
X102655714Y-27392285D01*
X102608095Y-27487523D01*
X102512857Y-27582761D01*
X102370000Y-27630380D01*
X102131904Y-27630380D01*
X103560476Y-26630380D02*
X103370000Y-26630380D01*
X103274761Y-26678000D01*
X103227142Y-26725619D01*
X103131904Y-26868476D01*
X103084285Y-27058952D01*
X103084285Y-27439904D01*
X103131904Y-27535142D01*
X103179523Y-27582761D01*
X103274761Y-27630380D01*
X103465238Y-27630380D01*
X103560476Y-27582761D01*
X103608095Y-27535142D01*
X103655714Y-27439904D01*
X103655714Y-27201809D01*
X103608095Y-27106571D01*
X103560476Y-27058952D01*
X103465238Y-27011333D01*
X103274761Y-27011333D01*
X103179523Y-27058952D01*
X103131904Y-27106571D01*
X103084285Y-27201809D01*
X100584285Y-21010571D02*
X100917619Y-21010571D01*
X101060476Y-21534380D02*
X100584285Y-21534380D01*
X100584285Y-20534380D01*
X101060476Y-20534380D01*
X101393809Y-20534380D02*
X102060476Y-21534380D01*
X102060476Y-20534380D02*
X101393809Y-21534380D01*
X102441428Y-21534380D02*
X102441428Y-20534380D01*
X102774761Y-21248666D01*
X103108095Y-20534380D01*
X103108095Y-21534380D01*
X103584285Y-21010571D02*
X103917619Y-21010571D01*
X104060476Y-21534380D02*
X103584285Y-21534380D01*
X103584285Y-20534380D01*
X104060476Y-20534380D01*
X104489047Y-21534380D02*
X104489047Y-20534380D01*
X104822380Y-21248666D01*
X105155714Y-20534380D01*
X105155714Y-21534380D01*
%TO.C,J5*%
X38528666Y-23582380D02*
X38528666Y-24296666D01*
X38481047Y-24439523D01*
X38385809Y-24534761D01*
X38242952Y-24582380D01*
X38147714Y-24582380D01*
X39481047Y-23582380D02*
X39004857Y-23582380D01*
X38957238Y-24058571D01*
X39004857Y-24010952D01*
X39100095Y-23963333D01*
X39338190Y-23963333D01*
X39433428Y-24010952D01*
X39481047Y-24058571D01*
X39528666Y-24153809D01*
X39528666Y-24391904D01*
X39481047Y-24487142D01*
X39433428Y-24534761D01*
X39338190Y-24582380D01*
X39100095Y-24582380D01*
X39004857Y-24534761D01*
X38957238Y-24487142D01*
%TO.C,D5*%
X56166380Y-27408095D02*
X55166380Y-27408095D01*
X55166380Y-27170000D01*
X55214000Y-27027142D01*
X55309238Y-26931904D01*
X55404476Y-26884285D01*
X55594952Y-26836666D01*
X55737809Y-26836666D01*
X55928285Y-26884285D01*
X56023523Y-26931904D01*
X56118761Y-27027142D01*
X56166380Y-27170000D01*
X56166380Y-27408095D01*
X55166380Y-25931904D02*
X55166380Y-26408095D01*
X55642571Y-26455714D01*
X55594952Y-26408095D01*
X55547333Y-26312857D01*
X55547333Y-26074761D01*
X55594952Y-25979523D01*
X55642571Y-25931904D01*
X55737809Y-25884285D01*
X55975904Y-25884285D01*
X56071142Y-25931904D01*
X56118761Y-25979523D01*
X56166380Y-26074761D01*
X56166380Y-26312857D01*
X56118761Y-26408095D01*
X56071142Y-26455714D01*
X62086380Y-28122380D02*
X61610190Y-28455714D01*
X62086380Y-28693809D02*
X61086380Y-28693809D01*
X61086380Y-28312857D01*
X61134000Y-28217619D01*
X61181619Y-28170000D01*
X61276857Y-28122380D01*
X61419714Y-28122380D01*
X61514952Y-28170000D01*
X61562571Y-28217619D01*
X61610190Y-28312857D01*
X61610190Y-28693809D01*
X61562571Y-27693809D02*
X61562571Y-27360476D01*
X62086380Y-27217619D02*
X62086380Y-27693809D01*
X61086380Y-27693809D01*
X61086380Y-27217619D01*
X62038761Y-26836666D02*
X62086380Y-26693809D01*
X62086380Y-26455714D01*
X62038761Y-26360476D01*
X61991142Y-26312857D01*
X61895904Y-26265238D01*
X61800666Y-26265238D01*
X61705428Y-26312857D01*
X61657809Y-26360476D01*
X61610190Y-26455714D01*
X61562571Y-26646190D01*
X61514952Y-26741428D01*
X61467333Y-26789047D01*
X61372095Y-26836666D01*
X61276857Y-26836666D01*
X61181619Y-26789047D01*
X61134000Y-26741428D01*
X61086380Y-26646190D01*
X61086380Y-26408095D01*
X61134000Y-26265238D01*
X61562571Y-25836666D02*
X61562571Y-25503333D01*
X62086380Y-25360476D02*
X62086380Y-25836666D01*
X61086380Y-25836666D01*
X61086380Y-25360476D01*
X61086380Y-25074761D02*
X61086380Y-24503333D01*
X62086380Y-24789047D02*
X61086380Y-24789047D01*
%TO.C,D4*%
X56166380Y-35282095D02*
X55166380Y-35282095D01*
X55166380Y-35044000D01*
X55214000Y-34901142D01*
X55309238Y-34805904D01*
X55404476Y-34758285D01*
X55594952Y-34710666D01*
X55737809Y-34710666D01*
X55928285Y-34758285D01*
X56023523Y-34805904D01*
X56118761Y-34901142D01*
X56166380Y-35044000D01*
X56166380Y-35282095D01*
X55499714Y-33853523D02*
X56166380Y-33853523D01*
X55118761Y-34091619D02*
X55833047Y-34329714D01*
X55833047Y-33710666D01*
X62086380Y-35639238D02*
X61086380Y-35639238D01*
X62086380Y-35067809D01*
X61086380Y-35067809D01*
X62086380Y-34591619D02*
X61086380Y-34591619D01*
X61800666Y-34258285D01*
X61086380Y-33924952D01*
X62086380Y-33924952D01*
X62086380Y-33448761D02*
X61086380Y-33448761D01*
%TO.C,D3*%
X74620380Y-26900095D02*
X73620380Y-26900095D01*
X73620380Y-26662000D01*
X73668000Y-26519142D01*
X73763238Y-26423904D01*
X73858476Y-26376285D01*
X74048952Y-26328666D01*
X74191809Y-26328666D01*
X74382285Y-26376285D01*
X74477523Y-26423904D01*
X74572761Y-26519142D01*
X74620380Y-26662000D01*
X74620380Y-26900095D01*
X73620380Y-25995333D02*
X73620380Y-25376285D01*
X74001333Y-25709619D01*
X74001333Y-25566761D01*
X74048952Y-25471523D01*
X74096571Y-25423904D01*
X74191809Y-25376285D01*
X74429904Y-25376285D01*
X74525142Y-25423904D01*
X74572761Y-25471523D01*
X74620380Y-25566761D01*
X74620380Y-25852476D01*
X74572761Y-25947714D01*
X74525142Y-25995333D01*
X79192380Y-22748761D02*
X78192380Y-22748761D01*
X78906666Y-22415428D01*
X78192380Y-22082095D01*
X79192380Y-22082095D01*
X79192380Y-21605904D02*
X78192380Y-21605904D01*
X78906666Y-21272571D01*
X78192380Y-20939238D01*
X79192380Y-20939238D01*
%TO.C,C3*%
X38089142Y-37466666D02*
X38136761Y-37514285D01*
X38184380Y-37657142D01*
X38184380Y-37752380D01*
X38136761Y-37895238D01*
X38041523Y-37990476D01*
X37946285Y-38038095D01*
X37755809Y-38085714D01*
X37612952Y-38085714D01*
X37422476Y-38038095D01*
X37327238Y-37990476D01*
X37232000Y-37895238D01*
X37184380Y-37752380D01*
X37184380Y-37657142D01*
X37232000Y-37514285D01*
X37279619Y-37466666D01*
X37184380Y-37133333D02*
X37184380Y-36514285D01*
X37565333Y-36847619D01*
X37565333Y-36704761D01*
X37612952Y-36609523D01*
X37660571Y-36561904D01*
X37755809Y-36514285D01*
X37993904Y-36514285D01*
X38089142Y-36561904D01*
X38136761Y-36609523D01*
X38184380Y-36704761D01*
X38184380Y-36990476D01*
X38136761Y-37085714D01*
X38089142Y-37133333D01*
%TO.C,SW2*%
X111748666Y-60729761D02*
X111891523Y-60777380D01*
X112129619Y-60777380D01*
X112224857Y-60729761D01*
X112272476Y-60682142D01*
X112320095Y-60586904D01*
X112320095Y-60491666D01*
X112272476Y-60396428D01*
X112224857Y-60348809D01*
X112129619Y-60301190D01*
X111939142Y-60253571D01*
X111843904Y-60205952D01*
X111796285Y-60158333D01*
X111748666Y-60063095D01*
X111748666Y-59967857D01*
X111796285Y-59872619D01*
X111843904Y-59825000D01*
X111939142Y-59777380D01*
X112177238Y-59777380D01*
X112320095Y-59825000D01*
X112653428Y-59777380D02*
X112891523Y-60777380D01*
X113082000Y-60063095D01*
X113272476Y-60777380D01*
X113510571Y-59777380D01*
X113843904Y-59872619D02*
X113891523Y-59825000D01*
X113986761Y-59777380D01*
X114224857Y-59777380D01*
X114320095Y-59825000D01*
X114367714Y-59872619D01*
X114415333Y-59967857D01*
X114415333Y-60063095D01*
X114367714Y-60205952D01*
X113796285Y-60777380D01*
X114415333Y-60777380D01*
X119174380Y-62412380D02*
X118698190Y-62745714D01*
X119174380Y-62983809D02*
X118174380Y-62983809D01*
X118174380Y-62602857D01*
X118222000Y-62507619D01*
X118269619Y-62460000D01*
X118364857Y-62412380D01*
X118507714Y-62412380D01*
X118602952Y-62460000D01*
X118650571Y-62507619D01*
X118698190Y-62602857D01*
X118698190Y-62983809D01*
X118650571Y-61983809D02*
X118650571Y-61650476D01*
X119174380Y-61507619D02*
X119174380Y-61983809D01*
X118174380Y-61983809D01*
X118174380Y-61507619D01*
X119126761Y-61126666D02*
X119174380Y-60983809D01*
X119174380Y-60745714D01*
X119126761Y-60650476D01*
X119079142Y-60602857D01*
X118983904Y-60555238D01*
X118888666Y-60555238D01*
X118793428Y-60602857D01*
X118745809Y-60650476D01*
X118698190Y-60745714D01*
X118650571Y-60936190D01*
X118602952Y-61031428D01*
X118555333Y-61079047D01*
X118460095Y-61126666D01*
X118364857Y-61126666D01*
X118269619Y-61079047D01*
X118222000Y-61031428D01*
X118174380Y-60936190D01*
X118174380Y-60698095D01*
X118222000Y-60555238D01*
X118650571Y-60126666D02*
X118650571Y-59793333D01*
X119174380Y-59650476D02*
X119174380Y-60126666D01*
X118174380Y-60126666D01*
X118174380Y-59650476D01*
X118174380Y-59364761D02*
X118174380Y-58793333D01*
X119174380Y-59079047D02*
X118174380Y-59079047D01*
%TO.C,SW1*%
X111673666Y-51657761D02*
X111816523Y-51705380D01*
X112054619Y-51705380D01*
X112149857Y-51657761D01*
X112197476Y-51610142D01*
X112245095Y-51514904D01*
X112245095Y-51419666D01*
X112197476Y-51324428D01*
X112149857Y-51276809D01*
X112054619Y-51229190D01*
X111864142Y-51181571D01*
X111768904Y-51133952D01*
X111721285Y-51086333D01*
X111673666Y-50991095D01*
X111673666Y-50895857D01*
X111721285Y-50800619D01*
X111768904Y-50753000D01*
X111864142Y-50705380D01*
X112102238Y-50705380D01*
X112245095Y-50753000D01*
X112578428Y-50705380D02*
X112816523Y-51705380D01*
X113007000Y-50991095D01*
X113197476Y-51705380D01*
X113435571Y-50705380D01*
X114340333Y-51705380D02*
X113768904Y-51705380D01*
X114054619Y-51705380D02*
X114054619Y-50705380D01*
X113959380Y-50848238D01*
X113864142Y-50943476D01*
X113768904Y-50991095D01*
X119174380Y-52983238D02*
X118174380Y-52983238D01*
X119174380Y-52411809D01*
X118174380Y-52411809D01*
X119174380Y-51935619D02*
X118174380Y-51935619D01*
X118888666Y-51602285D01*
X118174380Y-51268952D01*
X119174380Y-51268952D01*
X119174380Y-50792761D02*
X118174380Y-50792761D01*
%TO.C,U8*%
X91948095Y-42842380D02*
X91948095Y-43651904D01*
X91995714Y-43747142D01*
X92043333Y-43794761D01*
X92138571Y-43842380D01*
X92329047Y-43842380D01*
X92424285Y-43794761D01*
X92471904Y-43747142D01*
X92519523Y-43651904D01*
X92519523Y-42842380D01*
X93138571Y-43270952D02*
X93043333Y-43223333D01*
X92995714Y-43175714D01*
X92948095Y-43080476D01*
X92948095Y-43032857D01*
X92995714Y-42937619D01*
X93043333Y-42890000D01*
X93138571Y-42842380D01*
X93329047Y-42842380D01*
X93424285Y-42890000D01*
X93471904Y-42937619D01*
X93519523Y-43032857D01*
X93519523Y-43080476D01*
X93471904Y-43175714D01*
X93424285Y-43223333D01*
X93329047Y-43270952D01*
X93138571Y-43270952D01*
X93043333Y-43318571D01*
X92995714Y-43366190D01*
X92948095Y-43461428D01*
X92948095Y-43651904D01*
X92995714Y-43747142D01*
X93043333Y-43794761D01*
X93138571Y-43842380D01*
X93329047Y-43842380D01*
X93424285Y-43794761D01*
X93471904Y-43747142D01*
X93519523Y-43651904D01*
X93519523Y-43461428D01*
X93471904Y-43366190D01*
X93424285Y-43318571D01*
X93329047Y-43270952D01*
%TO.C,Y1*%
X81458809Y-49513809D02*
X80982619Y-49513809D01*
X81982619Y-49180476D02*
X81458809Y-49513809D01*
X81982619Y-49847142D01*
X80982619Y-50704285D02*
X80982619Y-50132857D01*
X80982619Y-50418571D02*
X81982619Y-50418571D01*
X81839761Y-50323333D01*
X81744523Y-50228095D01*
X81696904Y-50132857D01*
%TO.C,BT1*%
X86482286Y-31678571D02*
X86625143Y-31726190D01*
X86672762Y-31773809D01*
X86720381Y-31869047D01*
X86720381Y-32011904D01*
X86672762Y-32107142D01*
X86625143Y-32154761D01*
X86529905Y-32202380D01*
X86148953Y-32202380D01*
X86148953Y-31202380D01*
X86482286Y-31202380D01*
X86577524Y-31250000D01*
X86625143Y-31297619D01*
X86672762Y-31392857D01*
X86672762Y-31488095D01*
X86625143Y-31583333D01*
X86577524Y-31630952D01*
X86482286Y-31678571D01*
X86148953Y-31678571D01*
X87006096Y-31202380D02*
X87577524Y-31202380D01*
X87291810Y-32202380D02*
X87291810Y-31202380D01*
X88434667Y-32202380D02*
X87863239Y-32202380D01*
X88148953Y-32202380D02*
X88148953Y-31202380D01*
X88053715Y-31345238D01*
X87958477Y-31440476D01*
X87863239Y-31488095D01*
%TO.C,C8*%
X38089142Y-28039666D02*
X38136761Y-28087285D01*
X38184380Y-28230142D01*
X38184380Y-28325380D01*
X38136761Y-28468238D01*
X38041523Y-28563476D01*
X37946285Y-28611095D01*
X37755809Y-28658714D01*
X37612952Y-28658714D01*
X37422476Y-28611095D01*
X37327238Y-28563476D01*
X37232000Y-28468238D01*
X37184380Y-28325380D01*
X37184380Y-28230142D01*
X37232000Y-28087285D01*
X37279619Y-28039666D01*
X37612952Y-27468238D02*
X37565333Y-27563476D01*
X37517714Y-27611095D01*
X37422476Y-27658714D01*
X37374857Y-27658714D01*
X37279619Y-27611095D01*
X37232000Y-27563476D01*
X37184380Y-27468238D01*
X37184380Y-27277761D01*
X37232000Y-27182523D01*
X37279619Y-27134904D01*
X37374857Y-27087285D01*
X37422476Y-27087285D01*
X37517714Y-27134904D01*
X37565333Y-27182523D01*
X37612952Y-27277761D01*
X37612952Y-27468238D01*
X37660571Y-27563476D01*
X37708190Y-27611095D01*
X37803428Y-27658714D01*
X37993904Y-27658714D01*
X38089142Y-27611095D01*
X38136761Y-27563476D01*
X38184380Y-27468238D01*
X38184380Y-27277761D01*
X38136761Y-27182523D01*
X38089142Y-27134904D01*
X37993904Y-27087285D01*
X37803428Y-27087285D01*
X37708190Y-27134904D01*
X37660571Y-27182523D01*
X37612952Y-27277761D01*
%TO.C,U10*%
X80522380Y-102838095D02*
X81331904Y-102838095D01*
X81427142Y-102790476D01*
X81474761Y-102742857D01*
X81522380Y-102647619D01*
X81522380Y-102457142D01*
X81474761Y-102361904D01*
X81427142Y-102314285D01*
X81331904Y-102266666D01*
X80522380Y-102266666D01*
X81522380Y-101266666D02*
X81522380Y-101838095D01*
X81522380Y-101552380D02*
X80522380Y-101552380D01*
X80665238Y-101647619D01*
X80760476Y-101742857D01*
X80808095Y-101838095D01*
X80522380Y-100647619D02*
X80522380Y-100552380D01*
X80570000Y-100457142D01*
X80617619Y-100409523D01*
X80712857Y-100361904D01*
X80903333Y-100314285D01*
X81141428Y-100314285D01*
X81331904Y-100361904D01*
X81427142Y-100409523D01*
X81474761Y-100457142D01*
X81522380Y-100552380D01*
X81522380Y-100647619D01*
X81474761Y-100742857D01*
X81427142Y-100790476D01*
X81331904Y-100838095D01*
X81141428Y-100885714D01*
X80903333Y-100885714D01*
X80712857Y-100838095D01*
X80617619Y-100790476D01*
X80570000Y-100742857D01*
X80522380Y-100647619D01*
%TO.C,U6*%
X75565095Y-107402380D02*
X75565095Y-108211904D01*
X75612714Y-108307142D01*
X75660333Y-108354761D01*
X75755571Y-108402380D01*
X75946047Y-108402380D01*
X76041285Y-108354761D01*
X76088904Y-108307142D01*
X76136523Y-108211904D01*
X76136523Y-107402380D01*
X77041285Y-107402380D02*
X76850809Y-107402380D01*
X76755571Y-107450000D01*
X76707952Y-107497619D01*
X76612714Y-107640476D01*
X76565095Y-107830952D01*
X76565095Y-108211904D01*
X76612714Y-108307142D01*
X76660333Y-108354761D01*
X76755571Y-108402380D01*
X76946047Y-108402380D01*
X77041285Y-108354761D01*
X77088904Y-108307142D01*
X77136523Y-108211904D01*
X77136523Y-107973809D01*
X77088904Y-107878571D01*
X77041285Y-107830952D01*
X76946047Y-107783333D01*
X76755571Y-107783333D01*
X76660333Y-107830952D01*
X76612714Y-107878571D01*
X76565095Y-107973809D01*
%TO.C,U1*%
X65024095Y-39838380D02*
X65024095Y-40647904D01*
X65071714Y-40743142D01*
X65119333Y-40790761D01*
X65214571Y-40838380D01*
X65405047Y-40838380D01*
X65500285Y-40790761D01*
X65547904Y-40743142D01*
X65595523Y-40647904D01*
X65595523Y-39838380D01*
X66595523Y-40838380D02*
X66024095Y-40838380D01*
X66309809Y-40838380D02*
X66309809Y-39838380D01*
X66214571Y-39981238D01*
X66119333Y-40076476D01*
X66024095Y-40124095D01*
%TO.C,U5*%
X78148380Y-114807904D02*
X78957904Y-114807904D01*
X79053142Y-114760285D01*
X79100761Y-114712666D01*
X79148380Y-114617428D01*
X79148380Y-114426952D01*
X79100761Y-114331714D01*
X79053142Y-114284095D01*
X78957904Y-114236476D01*
X78148380Y-114236476D01*
X78148380Y-113284095D02*
X78148380Y-113760285D01*
X78624571Y-113807904D01*
X78576952Y-113760285D01*
X78529333Y-113665047D01*
X78529333Y-113426952D01*
X78576952Y-113331714D01*
X78624571Y-113284095D01*
X78719809Y-113236476D01*
X78957904Y-113236476D01*
X79053142Y-113284095D01*
X79100761Y-113331714D01*
X79148380Y-113426952D01*
X79148380Y-113665047D01*
X79100761Y-113760285D01*
X79053142Y-113807904D01*
%TO.C,U4*%
X47625095Y-97369380D02*
X47625095Y-98178904D01*
X47672714Y-98274142D01*
X47720333Y-98321761D01*
X47815571Y-98369380D01*
X48006047Y-98369380D01*
X48101285Y-98321761D01*
X48148904Y-98274142D01*
X48196523Y-98178904D01*
X48196523Y-97369380D01*
X49101285Y-97702714D02*
X49101285Y-98369380D01*
X48863190Y-97321761D02*
X48625095Y-98036047D01*
X49244142Y-98036047D01*
%TO.C,U3*%
X34671095Y-97496380D02*
X34671095Y-98305904D01*
X34718714Y-98401142D01*
X34766333Y-98448761D01*
X34861571Y-98496380D01*
X35052047Y-98496380D01*
X35147285Y-98448761D01*
X35194904Y-98401142D01*
X35242523Y-98305904D01*
X35242523Y-97496380D01*
X35623476Y-97496380D02*
X36242523Y-97496380D01*
X35909190Y-97877333D01*
X36052047Y-97877333D01*
X36147285Y-97924952D01*
X36194904Y-97972571D01*
X36242523Y-98067809D01*
X36242523Y-98305904D01*
X36194904Y-98401142D01*
X36147285Y-98448761D01*
X36052047Y-98496380D01*
X35766333Y-98496380D01*
X35671095Y-98448761D01*
X35623476Y-98401142D01*
%TO.C,U2*%
X70117095Y-40937380D02*
X70117095Y-41746904D01*
X70164714Y-41842142D01*
X70212333Y-41889761D01*
X70307571Y-41937380D01*
X70498047Y-41937380D01*
X70593285Y-41889761D01*
X70640904Y-41842142D01*
X70688523Y-41746904D01*
X70688523Y-40937380D01*
X71117095Y-41032619D02*
X71164714Y-40985000D01*
X71259952Y-40937380D01*
X71498047Y-40937380D01*
X71593285Y-40985000D01*
X71640904Y-41032619D01*
X71688523Y-41127857D01*
X71688523Y-41223095D01*
X71640904Y-41365952D01*
X71069476Y-41937380D01*
X71688523Y-41937380D01*
%TO.C,U12*%
X89566904Y-65067380D02*
X89566904Y-65876904D01*
X89614523Y-65972142D01*
X89662142Y-66019761D01*
X89757380Y-66067380D01*
X89947857Y-66067380D01*
X90043095Y-66019761D01*
X90090714Y-65972142D01*
X90138333Y-65876904D01*
X90138333Y-65067380D01*
X91138333Y-66067380D02*
X90566904Y-66067380D01*
X90852619Y-66067380D02*
X90852619Y-65067380D01*
X90757380Y-65210238D01*
X90662142Y-65305476D01*
X90566904Y-65353095D01*
X91519285Y-65162619D02*
X91566904Y-65115000D01*
X91662142Y-65067380D01*
X91900238Y-65067380D01*
X91995476Y-65115000D01*
X92043095Y-65162619D01*
X92090714Y-65257857D01*
X92090714Y-65353095D01*
X92043095Y-65495952D01*
X91471666Y-66067380D01*
X92090714Y-66067380D01*
%TO.C,U11*%
X109251904Y-65067380D02*
X109251904Y-65876904D01*
X109299523Y-65972142D01*
X109347142Y-66019761D01*
X109442380Y-66067380D01*
X109632857Y-66067380D01*
X109728095Y-66019761D01*
X109775714Y-65972142D01*
X109823333Y-65876904D01*
X109823333Y-65067380D01*
X110823333Y-66067380D02*
X110251904Y-66067380D01*
X110537619Y-66067380D02*
X110537619Y-65067380D01*
X110442380Y-65210238D01*
X110347142Y-65305476D01*
X110251904Y-65353095D01*
X111775714Y-66067380D02*
X111204285Y-66067380D01*
X111490000Y-66067380D02*
X111490000Y-65067380D01*
X111394761Y-65210238D01*
X111299523Y-65305476D01*
X111204285Y-65353095D01*
%TO.C,U16*%
X41179904Y-67187380D02*
X41179904Y-67996904D01*
X41227523Y-68092142D01*
X41275142Y-68139761D01*
X41370380Y-68187380D01*
X41560857Y-68187380D01*
X41656095Y-68139761D01*
X41703714Y-68092142D01*
X41751333Y-67996904D01*
X41751333Y-67187380D01*
X42751333Y-68187380D02*
X42179904Y-68187380D01*
X42465619Y-68187380D02*
X42465619Y-67187380D01*
X42370380Y-67330238D01*
X42275142Y-67425476D01*
X42179904Y-67473095D01*
X43608476Y-67187380D02*
X43418000Y-67187380D01*
X43322761Y-67235000D01*
X43275142Y-67282619D01*
X43179904Y-67425476D01*
X43132285Y-67615952D01*
X43132285Y-67996904D01*
X43179904Y-68092142D01*
X43227523Y-68139761D01*
X43322761Y-68187380D01*
X43513238Y-68187380D01*
X43608476Y-68139761D01*
X43656095Y-68092142D01*
X43703714Y-67996904D01*
X43703714Y-67758809D01*
X43656095Y-67663571D01*
X43608476Y-67615952D01*
X43513238Y-67568333D01*
X43322761Y-67568333D01*
X43227523Y-67615952D01*
X43179904Y-67663571D01*
X43132285Y-67758809D01*
%TO.C,U15*%
X53625904Y-95127380D02*
X53625904Y-95936904D01*
X53673523Y-96032142D01*
X53721142Y-96079761D01*
X53816380Y-96127380D01*
X54006857Y-96127380D01*
X54102095Y-96079761D01*
X54149714Y-96032142D01*
X54197333Y-95936904D01*
X54197333Y-95127380D01*
X55197333Y-96127380D02*
X54625904Y-96127380D01*
X54911619Y-96127380D02*
X54911619Y-95127380D01*
X54816380Y-95270238D01*
X54721142Y-95365476D01*
X54625904Y-95413095D01*
X56102095Y-95127380D02*
X55625904Y-95127380D01*
X55578285Y-95603571D01*
X55625904Y-95555952D01*
X55721142Y-95508333D01*
X55959238Y-95508333D01*
X56054476Y-95555952D01*
X56102095Y-95603571D01*
X56149714Y-95698809D01*
X56149714Y-95936904D01*
X56102095Y-96032142D01*
X56054476Y-96079761D01*
X55959238Y-96127380D01*
X55721142Y-96127380D01*
X55625904Y-96079761D01*
X55578285Y-96032142D01*
%TO.C,U14*%
X53625904Y-67187380D02*
X53625904Y-67996904D01*
X53673523Y-68092142D01*
X53721142Y-68139761D01*
X53816380Y-68187380D01*
X54006857Y-68187380D01*
X54102095Y-68139761D01*
X54149714Y-68092142D01*
X54197333Y-67996904D01*
X54197333Y-67187380D01*
X55197333Y-68187380D02*
X54625904Y-68187380D01*
X54911619Y-68187380D02*
X54911619Y-67187380D01*
X54816380Y-67330238D01*
X54721142Y-67425476D01*
X54625904Y-67473095D01*
X56054476Y-67520714D02*
X56054476Y-68187380D01*
X55816380Y-67139761D02*
X55578285Y-67854047D01*
X56197333Y-67854047D01*
%TO.C,U13*%
X41179904Y-95127380D02*
X41179904Y-95936904D01*
X41227523Y-96032142D01*
X41275142Y-96079761D01*
X41370380Y-96127380D01*
X41560857Y-96127380D01*
X41656095Y-96079761D01*
X41703714Y-96032142D01*
X41751333Y-95936904D01*
X41751333Y-95127380D01*
X42751333Y-96127380D02*
X42179904Y-96127380D01*
X42465619Y-96127380D02*
X42465619Y-95127380D01*
X42370380Y-95270238D01*
X42275142Y-95365476D01*
X42179904Y-95413095D01*
X43084666Y-95127380D02*
X43703714Y-95127380D01*
X43370380Y-95508333D01*
X43513238Y-95508333D01*
X43608476Y-95555952D01*
X43656095Y-95603571D01*
X43703714Y-95698809D01*
X43703714Y-95936904D01*
X43656095Y-96032142D01*
X43608476Y-96079761D01*
X43513238Y-96127380D01*
X43227523Y-96127380D01*
X43132285Y-96079761D01*
X43084666Y-96032142D01*
%TO.C,J2*%
X23476666Y-27722380D02*
X23476666Y-28436666D01*
X23429047Y-28579523D01*
X23333809Y-28674761D01*
X23190952Y-28722380D01*
X23095714Y-28722380D01*
X23905238Y-27817619D02*
X23952857Y-27770000D01*
X24048095Y-27722380D01*
X24286190Y-27722380D01*
X24381428Y-27770000D01*
X24429047Y-27817619D01*
X24476666Y-27912857D01*
X24476666Y-28008095D01*
X24429047Y-28150952D01*
X23857619Y-28722380D01*
X24476666Y-28722380D01*
%TO.C,J1*%
X23476666Y-98902380D02*
X23476666Y-99616666D01*
X23429047Y-99759523D01*
X23333809Y-99854761D01*
X23190952Y-99902380D01*
X23095714Y-99902380D01*
X24476666Y-99902380D02*
X23905238Y-99902380D01*
X24190952Y-99902380D02*
X24190952Y-98902380D01*
X24095714Y-99045238D01*
X24000476Y-99140476D01*
X23905238Y-99188095D01*
%TO.C,D2*%
X101163380Y-50014095D02*
X100163380Y-50014095D01*
X100163380Y-49776000D01*
X100211000Y-49633142D01*
X100306238Y-49537904D01*
X100401476Y-49490285D01*
X100591952Y-49442666D01*
X100734809Y-49442666D01*
X100925285Y-49490285D01*
X101020523Y-49537904D01*
X101115761Y-49633142D01*
X101163380Y-49776000D01*
X101163380Y-50014095D01*
X100258619Y-49061714D02*
X100211000Y-49014095D01*
X100163380Y-48918857D01*
X100163380Y-48680761D01*
X100211000Y-48585523D01*
X100258619Y-48537904D01*
X100353857Y-48490285D01*
X100449095Y-48490285D01*
X100591952Y-48537904D01*
X101163380Y-49109333D01*
X101163380Y-48490285D01*
X107513380Y-50609333D02*
X106513380Y-50609333D01*
X106513380Y-50228380D01*
X106561000Y-50133142D01*
X106608619Y-50085523D01*
X106703857Y-50037904D01*
X106846714Y-50037904D01*
X106941952Y-50085523D01*
X106989571Y-50133142D01*
X107037190Y-50228380D01*
X107037190Y-50609333D01*
X106513380Y-49704571D02*
X107513380Y-49466476D01*
X106799095Y-49276000D01*
X107513380Y-49085523D01*
X106513380Y-48847428D01*
X107513380Y-47895047D02*
X107037190Y-48228380D01*
X107513380Y-48466476D02*
X106513380Y-48466476D01*
X106513380Y-48085523D01*
X106561000Y-47990285D01*
X106608619Y-47942666D01*
X106703857Y-47895047D01*
X106846714Y-47895047D01*
X106941952Y-47942666D01*
X106989571Y-47990285D01*
X107037190Y-48085523D01*
X107037190Y-48466476D01*
%TO.C,J4*%
X31476666Y-42992380D02*
X31476666Y-43706666D01*
X31429047Y-43849523D01*
X31333809Y-43944761D01*
X31190952Y-43992380D01*
X31095714Y-43992380D01*
X32381428Y-43325714D02*
X32381428Y-43992380D01*
X32143333Y-42944761D02*
X31905238Y-43659047D01*
X32524285Y-43659047D01*
%TO.C,X1*%
X55162380Y-31416523D02*
X56162380Y-30749857D01*
X55162380Y-30749857D02*
X56162380Y-31416523D01*
X56162380Y-29845095D02*
X56162380Y-30416523D01*
X56162380Y-30130809D02*
X55162380Y-30130809D01*
X55305238Y-30226047D01*
X55400476Y-30321285D01*
X55448095Y-30416523D01*
%TO.C,D1*%
X101163380Y-54332095D02*
X100163380Y-54332095D01*
X100163380Y-54094000D01*
X100211000Y-53951142D01*
X100306238Y-53855904D01*
X100401476Y-53808285D01*
X100591952Y-53760666D01*
X100734809Y-53760666D01*
X100925285Y-53808285D01*
X101020523Y-53855904D01*
X101115761Y-53951142D01*
X101163380Y-54094000D01*
X101163380Y-54332095D01*
X101163380Y-52808285D02*
X101163380Y-53379714D01*
X101163380Y-53094000D02*
X100163380Y-53094000D01*
X100306238Y-53189238D01*
X100401476Y-53284476D01*
X100449095Y-53379714D01*
X107513380Y-55348000D02*
X106513380Y-55348000D01*
X106989571Y-55348000D02*
X106989571Y-54776571D01*
X107513380Y-54776571D02*
X106513380Y-54776571D01*
X107227666Y-54348000D02*
X107227666Y-53871809D01*
X107513380Y-54443238D02*
X106513380Y-54109904D01*
X107513380Y-53776571D01*
X107513380Y-52967047D02*
X107513380Y-53443238D01*
X106513380Y-53443238D01*
X106513380Y-52776571D02*
X106513380Y-52205142D01*
X107513380Y-52490857D02*
X106513380Y-52490857D01*
%TO.C,U7*%
X108712095Y-36917380D02*
X108712095Y-37726904D01*
X108759714Y-37822142D01*
X108807333Y-37869761D01*
X108902571Y-37917380D01*
X109093047Y-37917380D01*
X109188285Y-37869761D01*
X109235904Y-37822142D01*
X109283523Y-37726904D01*
X109283523Y-36917380D01*
X109664476Y-36917380D02*
X110331142Y-36917380D01*
X109902571Y-37917380D01*
X103846380Y-38774523D02*
X103846380Y-38203095D01*
X104846380Y-38488809D02*
X103846380Y-38488809D01*
X103846380Y-37679285D02*
X103846380Y-37488809D01*
X103894000Y-37393571D01*
X103989238Y-37298333D01*
X104179714Y-37250714D01*
X104513047Y-37250714D01*
X104703523Y-37298333D01*
X104798761Y-37393571D01*
X104846380Y-37488809D01*
X104846380Y-37679285D01*
X104798761Y-37774523D01*
X104703523Y-37869761D01*
X104513047Y-37917380D01*
X104179714Y-37917380D01*
X103989238Y-37869761D01*
X103894000Y-37774523D01*
X103846380Y-37679285D01*
X104846380Y-36822142D02*
X103846380Y-36822142D01*
X103846380Y-36441190D01*
X103894000Y-36345952D01*
X103941619Y-36298333D01*
X104036857Y-36250714D01*
X104179714Y-36250714D01*
X104274952Y-36298333D01*
X104322571Y-36345952D01*
X104370190Y-36441190D01*
X104370190Y-36822142D01*
%TO.C,RN1*%
X59253380Y-98480476D02*
X58777190Y-98813809D01*
X59253380Y-99051904D02*
X58253380Y-99051904D01*
X58253380Y-98670952D01*
X58301000Y-98575714D01*
X58348619Y-98528095D01*
X58443857Y-98480476D01*
X58586714Y-98480476D01*
X58681952Y-98528095D01*
X58729571Y-98575714D01*
X58777190Y-98670952D01*
X58777190Y-99051904D01*
X59253380Y-98051904D02*
X58253380Y-98051904D01*
X59253380Y-97480476D01*
X58253380Y-97480476D01*
X59253380Y-96480476D02*
X59253380Y-97051904D01*
X59253380Y-96766190D02*
X58253380Y-96766190D01*
X58396238Y-96861428D01*
X58491476Y-96956666D01*
X58539095Y-97051904D01*
%TO.C,J3*%
X23476666Y-42992380D02*
X23476666Y-43706666D01*
X23429047Y-43849523D01*
X23333809Y-43944761D01*
X23190952Y-43992380D01*
X23095714Y-43992380D01*
X23857619Y-42992380D02*
X24476666Y-42992380D01*
X24143333Y-43373333D01*
X24286190Y-43373333D01*
X24381428Y-43420952D01*
X24429047Y-43468571D01*
X24476666Y-43563809D01*
X24476666Y-43801904D01*
X24429047Y-43897142D01*
X24381428Y-43944761D01*
X24286190Y-43992380D01*
X24000476Y-43992380D01*
X23905238Y-43944761D01*
X23857619Y-43897142D01*
%TD*%
M02*
