%TF.GenerationSoftware,KiCad,Pcbnew,(5.1.9)-1*%
%TF.CreationDate,2021-05-25T17:26:24-04:00*%
%TF.ProjectId,main,6d61696e-2e6b-4696-9361-645f70636258,rev?*%
%TF.SameCoordinates,Original*%
%TF.FileFunction,Soldermask,Top*%
%TF.FilePolarity,Negative*%
%FSLAX46Y46*%
G04 Gerber Fmt 4.6, Leading zero omitted, Abs format (unit mm)*
G04 Created by KiCad (PCBNEW (5.1.9)-1) date 2021-05-25 17:26:24*
%MOMM*%
%LPD*%
G01*
G04 APERTURE LIST*
%ADD10R,0.900000X0.800000*%
%ADD11O,1.600000X1.600000*%
%ADD12R,1.600000X1.600000*%
%ADD13C,1.600000*%
%ADD14C,1.100000*%
%ADD15R,1.500000X2.800000*%
%ADD16R,0.750000X1.500000*%
%ADD17R,0.700000X1.500000*%
%ADD18R,1.000000X1.500000*%
%ADD19R,2.000000X1.500000*%
%ADD20R,2.000000X3.800000*%
%ADD21O,1.700000X1.700000*%
%ADD22R,1.700000X1.700000*%
%ADD23C,1.500000*%
%ADD24C,1.800000*%
%ADD25R,1.800000X1.800000*%
%ADD26R,1.200000X1.900000*%
%ADD27O,1.200000X1.900000*%
%ADD28R,1.500000X1.900000*%
%ADD29C,1.450000*%
%ADD30R,0.400000X1.350000*%
%ADD31C,1.000000*%
%ADD32C,1.524000*%
%ADD33C,3.200000*%
G04 APERTURE END LIST*
D10*
%TO.C,Q9*%
X38370000Y-62230000D03*
X40370000Y-61280000D03*
X40370000Y-63180000D03*
%TD*%
%TO.C,Q8*%
X44831000Y-71374000D03*
X46831000Y-70424000D03*
X46831000Y-72324000D03*
%TD*%
%TO.C,Q6*%
X38243000Y-71247000D03*
X40243000Y-70297000D03*
X40243000Y-72197000D03*
%TD*%
D11*
%TO.C,U7*%
X67310000Y-24130000D03*
X85090000Y-31750000D03*
X69850000Y-24130000D03*
X82550000Y-31750000D03*
X72390000Y-24130000D03*
X80010000Y-31750000D03*
X74930000Y-24130000D03*
X77470000Y-31750000D03*
X77470000Y-24130000D03*
X74930000Y-31750000D03*
X80010000Y-24130000D03*
X72390000Y-31750000D03*
X82550000Y-24130000D03*
X69850000Y-31750000D03*
X85090000Y-24130000D03*
D12*
X67310000Y-31750000D03*
%TD*%
D11*
%TO.C,U3*%
X43180000Y-24130000D03*
X60960000Y-31750000D03*
X45720000Y-24130000D03*
X58420000Y-31750000D03*
X48260000Y-24130000D03*
X55880000Y-31750000D03*
X50800000Y-24130000D03*
X53340000Y-31750000D03*
X53340000Y-24130000D03*
X50800000Y-31750000D03*
X55880000Y-24130000D03*
X48260000Y-31750000D03*
X58420000Y-24130000D03*
X45720000Y-31750000D03*
X60960000Y-24130000D03*
D12*
X43180000Y-31750000D03*
%TD*%
D13*
%TO.C,J9*%
X55855000Y-104775000D03*
D14*
X34855000Y-104775000D03*
D15*
X57805000Y-103775000D03*
X60005000Y-118275000D03*
X32705000Y-118275000D03*
X32705000Y-103775000D03*
D16*
X34105000Y-101975000D03*
D17*
X35305000Y-101975000D03*
D18*
X55735000Y-101975000D03*
X40735000Y-101975000D03*
X43235000Y-101975000D03*
X45735000Y-101975000D03*
X48235000Y-101975000D03*
X53235000Y-101975000D03*
X50735000Y-101975000D03*
X38305000Y-101975000D03*
X36605000Y-101975000D03*
%TD*%
D19*
%TO.C,U1*%
X72330000Y-113188000D03*
X72330000Y-117788000D03*
X72330000Y-115488000D03*
D20*
X78630000Y-115488000D03*
%TD*%
%TO.C,R17*%
G36*
G01*
X113550001Y-109100000D02*
X112649999Y-109100000D01*
G75*
G02*
X112400000Y-108850001I0J249999D01*
G01*
X112400000Y-108324999D01*
G75*
G02*
X112649999Y-108075000I249999J0D01*
G01*
X113550001Y-108075000D01*
G75*
G02*
X113800000Y-108324999I0J-249999D01*
G01*
X113800000Y-108850001D01*
G75*
G02*
X113550001Y-109100000I-249999J0D01*
G01*
G37*
G36*
G01*
X113550001Y-110925000D02*
X112649999Y-110925000D01*
G75*
G02*
X112400000Y-110675001I0J249999D01*
G01*
X112400000Y-110149999D01*
G75*
G02*
X112649999Y-109900000I249999J0D01*
G01*
X113550001Y-109900000D01*
G75*
G02*
X113800000Y-110149999I0J-249999D01*
G01*
X113800000Y-110675001D01*
G75*
G02*
X113550001Y-110925000I-249999J0D01*
G01*
G37*
%TD*%
%TO.C,R16*%
G36*
G01*
X108150001Y-109100000D02*
X107249999Y-109100000D01*
G75*
G02*
X107000000Y-108850001I0J249999D01*
G01*
X107000000Y-108324999D01*
G75*
G02*
X107249999Y-108075000I249999J0D01*
G01*
X108150001Y-108075000D01*
G75*
G02*
X108400000Y-108324999I0J-249999D01*
G01*
X108400000Y-108850001D01*
G75*
G02*
X108150001Y-109100000I-249999J0D01*
G01*
G37*
G36*
G01*
X108150001Y-110925000D02*
X107249999Y-110925000D01*
G75*
G02*
X107000000Y-110675001I0J249999D01*
G01*
X107000000Y-110149999D01*
G75*
G02*
X107249999Y-109900000I249999J0D01*
G01*
X108150001Y-109900000D01*
G75*
G02*
X108400000Y-110149999I0J-249999D01*
G01*
X108400000Y-110675001D01*
G75*
G02*
X108150001Y-110925000I-249999J0D01*
G01*
G37*
%TD*%
%TO.C,R13*%
G36*
G01*
X113550001Y-103600000D02*
X112649999Y-103600000D01*
G75*
G02*
X112400000Y-103350001I0J249999D01*
G01*
X112400000Y-102824999D01*
G75*
G02*
X112649999Y-102575000I249999J0D01*
G01*
X113550001Y-102575000D01*
G75*
G02*
X113800000Y-102824999I0J-249999D01*
G01*
X113800000Y-103350001D01*
G75*
G02*
X113550001Y-103600000I-249999J0D01*
G01*
G37*
G36*
G01*
X113550001Y-105425000D02*
X112649999Y-105425000D01*
G75*
G02*
X112400000Y-105175001I0J249999D01*
G01*
X112400000Y-104649999D01*
G75*
G02*
X112649999Y-104400000I249999J0D01*
G01*
X113550001Y-104400000D01*
G75*
G02*
X113800000Y-104649999I0J-249999D01*
G01*
X113800000Y-105175001D01*
G75*
G02*
X113550001Y-105425000I-249999J0D01*
G01*
G37*
%TD*%
%TO.C,R12*%
G36*
G01*
X108150001Y-103600000D02*
X107249999Y-103600000D01*
G75*
G02*
X107000000Y-103350001I0J249999D01*
G01*
X107000000Y-102824999D01*
G75*
G02*
X107249999Y-102575000I249999J0D01*
G01*
X108150001Y-102575000D01*
G75*
G02*
X108400000Y-102824999I0J-249999D01*
G01*
X108400000Y-103350001D01*
G75*
G02*
X108150001Y-103600000I-249999J0D01*
G01*
G37*
G36*
G01*
X108150001Y-105425000D02*
X107249999Y-105425000D01*
G75*
G02*
X107000000Y-105175001I0J249999D01*
G01*
X107000000Y-104649999D01*
G75*
G02*
X107249999Y-104400000I249999J0D01*
G01*
X108150001Y-104400000D01*
G75*
G02*
X108400000Y-104649999I0J-249999D01*
G01*
X108400000Y-105175001D01*
G75*
G02*
X108150001Y-105425000I-249999J0D01*
G01*
G37*
%TD*%
%TO.C,R8*%
G36*
G01*
X69442001Y-108830000D02*
X68541999Y-108830000D01*
G75*
G02*
X68292000Y-108580001I0J249999D01*
G01*
X68292000Y-108054999D01*
G75*
G02*
X68541999Y-107805000I249999J0D01*
G01*
X69442001Y-107805000D01*
G75*
G02*
X69692000Y-108054999I0J-249999D01*
G01*
X69692000Y-108580001D01*
G75*
G02*
X69442001Y-108830000I-249999J0D01*
G01*
G37*
G36*
G01*
X69442001Y-110655000D02*
X68541999Y-110655000D01*
G75*
G02*
X68292000Y-110405001I0J249999D01*
G01*
X68292000Y-109879999D01*
G75*
G02*
X68541999Y-109630000I249999J0D01*
G01*
X69442001Y-109630000D01*
G75*
G02*
X69692000Y-109879999I0J-249999D01*
G01*
X69692000Y-110405001D01*
G75*
G02*
X69442001Y-110655000I-249999J0D01*
G01*
G37*
%TD*%
%TO.C,R7*%
G36*
G01*
X72041999Y-109630000D02*
X72942001Y-109630000D01*
G75*
G02*
X73192000Y-109879999I0J-249999D01*
G01*
X73192000Y-110405001D01*
G75*
G02*
X72942001Y-110655000I-249999J0D01*
G01*
X72041999Y-110655000D01*
G75*
G02*
X71792000Y-110405001I0J249999D01*
G01*
X71792000Y-109879999D01*
G75*
G02*
X72041999Y-109630000I249999J0D01*
G01*
G37*
G36*
G01*
X72041999Y-107805000D02*
X72942001Y-107805000D01*
G75*
G02*
X73192000Y-108054999I0J-249999D01*
G01*
X73192000Y-108580001D01*
G75*
G02*
X72942001Y-108830000I-249999J0D01*
G01*
X72041999Y-108830000D01*
G75*
G02*
X71792000Y-108580001I0J249999D01*
G01*
X71792000Y-108054999D01*
G75*
G02*
X72041999Y-107805000I249999J0D01*
G01*
G37*
%TD*%
%TO.C,R6*%
G36*
G01*
X72942001Y-102818000D02*
X72041999Y-102818000D01*
G75*
G02*
X71792000Y-102568001I0J249999D01*
G01*
X71792000Y-102042999D01*
G75*
G02*
X72041999Y-101793000I249999J0D01*
G01*
X72942001Y-101793000D01*
G75*
G02*
X73192000Y-102042999I0J-249999D01*
G01*
X73192000Y-102568001D01*
G75*
G02*
X72942001Y-102818000I-249999J0D01*
G01*
G37*
G36*
G01*
X72942001Y-104643000D02*
X72041999Y-104643000D01*
G75*
G02*
X71792000Y-104393001I0J249999D01*
G01*
X71792000Y-103867999D01*
G75*
G02*
X72041999Y-103618000I249999J0D01*
G01*
X72942001Y-103618000D01*
G75*
G02*
X73192000Y-103867999I0J-249999D01*
G01*
X73192000Y-104393001D01*
G75*
G02*
X72942001Y-104643000I-249999J0D01*
G01*
G37*
%TD*%
%TO.C,R5*%
G36*
G01*
X68541999Y-103618000D02*
X69442001Y-103618000D01*
G75*
G02*
X69692000Y-103867999I0J-249999D01*
G01*
X69692000Y-104393001D01*
G75*
G02*
X69442001Y-104643000I-249999J0D01*
G01*
X68541999Y-104643000D01*
G75*
G02*
X68292000Y-104393001I0J249999D01*
G01*
X68292000Y-103867999D01*
G75*
G02*
X68541999Y-103618000I249999J0D01*
G01*
G37*
G36*
G01*
X68541999Y-101793000D02*
X69442001Y-101793000D01*
G75*
G02*
X69692000Y-102042999I0J-249999D01*
G01*
X69692000Y-102568001D01*
G75*
G02*
X69442001Y-102818000I-249999J0D01*
G01*
X68541999Y-102818000D01*
G75*
G02*
X68292000Y-102568001I0J249999D01*
G01*
X68292000Y-102042999D01*
G75*
G02*
X68541999Y-101793000I249999J0D01*
G01*
G37*
%TD*%
%TO.C,R4*%
G36*
G01*
X63041999Y-107805000D02*
X63942001Y-107805000D01*
G75*
G02*
X64192000Y-108054999I0J-249999D01*
G01*
X64192000Y-108580001D01*
G75*
G02*
X63942001Y-108830000I-249999J0D01*
G01*
X63041999Y-108830000D01*
G75*
G02*
X62792000Y-108580001I0J249999D01*
G01*
X62792000Y-108054999D01*
G75*
G02*
X63041999Y-107805000I249999J0D01*
G01*
G37*
G36*
G01*
X63041999Y-109630000D02*
X63942001Y-109630000D01*
G75*
G02*
X64192000Y-109879999I0J-249999D01*
G01*
X64192000Y-110405001D01*
G75*
G02*
X63942001Y-110655000I-249999J0D01*
G01*
X63041999Y-110655000D01*
G75*
G02*
X62792000Y-110405001I0J249999D01*
G01*
X62792000Y-109879999D01*
G75*
G02*
X63041999Y-109630000I249999J0D01*
G01*
G37*
%TD*%
%TO.C,R3*%
G36*
G01*
X78442001Y-108830000D02*
X77541999Y-108830000D01*
G75*
G02*
X77292000Y-108580001I0J249999D01*
G01*
X77292000Y-108054999D01*
G75*
G02*
X77541999Y-107805000I249999J0D01*
G01*
X78442001Y-107805000D01*
G75*
G02*
X78692000Y-108054999I0J-249999D01*
G01*
X78692000Y-108580001D01*
G75*
G02*
X78442001Y-108830000I-249999J0D01*
G01*
G37*
G36*
G01*
X78442001Y-110655000D02*
X77541999Y-110655000D01*
G75*
G02*
X77292000Y-110405001I0J249999D01*
G01*
X77292000Y-109879999D01*
G75*
G02*
X77541999Y-109630000I249999J0D01*
G01*
X78442001Y-109630000D01*
G75*
G02*
X78692000Y-109879999I0J-249999D01*
G01*
X78692000Y-110405001D01*
G75*
G02*
X78442001Y-110655000I-249999J0D01*
G01*
G37*
%TD*%
%TO.C,R2*%
G36*
G01*
X78442001Y-102818000D02*
X77541999Y-102818000D01*
G75*
G02*
X77292000Y-102568001I0J249999D01*
G01*
X77292000Y-102042999D01*
G75*
G02*
X77541999Y-101793000I249999J0D01*
G01*
X78442001Y-101793000D01*
G75*
G02*
X78692000Y-102042999I0J-249999D01*
G01*
X78692000Y-102568001D01*
G75*
G02*
X78442001Y-102818000I-249999J0D01*
G01*
G37*
G36*
G01*
X78442001Y-104643000D02*
X77541999Y-104643000D01*
G75*
G02*
X77292000Y-104393001I0J249999D01*
G01*
X77292000Y-103867999D01*
G75*
G02*
X77541999Y-103618000I249999J0D01*
G01*
X78442001Y-103618000D01*
G75*
G02*
X78692000Y-103867999I0J-249999D01*
G01*
X78692000Y-104393001D01*
G75*
G02*
X78442001Y-104643000I-249999J0D01*
G01*
G37*
%TD*%
%TO.C,R1*%
G36*
G01*
X63041999Y-103618000D02*
X63942001Y-103618000D01*
G75*
G02*
X64192000Y-103867999I0J-249999D01*
G01*
X64192000Y-104393001D01*
G75*
G02*
X63942001Y-104643000I-249999J0D01*
G01*
X63041999Y-104643000D01*
G75*
G02*
X62792000Y-104393001I0J249999D01*
G01*
X62792000Y-103867999D01*
G75*
G02*
X63041999Y-103618000I249999J0D01*
G01*
G37*
G36*
G01*
X63041999Y-101793000D02*
X63942001Y-101793000D01*
G75*
G02*
X64192000Y-102042999I0J-249999D01*
G01*
X64192000Y-102568001D01*
G75*
G02*
X63942001Y-102818000I-249999J0D01*
G01*
X63041999Y-102818000D01*
G75*
G02*
X62792000Y-102568001I0J249999D01*
G01*
X62792000Y-102042999D01*
G75*
G02*
X63041999Y-101793000I249999J0D01*
G01*
G37*
%TD*%
D10*
%TO.C,Q7*%
X109400000Y-109500000D03*
X111400000Y-108550000D03*
X111400000Y-110450000D03*
%TD*%
%TO.C,Q5*%
X109400000Y-104000000D03*
X111400000Y-103050000D03*
X111400000Y-104950000D03*
%TD*%
%TO.C,Q4*%
X67242000Y-109230000D03*
X65242000Y-110180000D03*
X65242000Y-108280000D03*
%TD*%
%TO.C,Q3*%
X74242000Y-109230000D03*
X76242000Y-108280000D03*
X76242000Y-110180000D03*
%TD*%
%TO.C,Q2*%
X74242000Y-103218000D03*
X76242000Y-102268000D03*
X76242000Y-104168000D03*
%TD*%
%TO.C,Q1*%
X67242000Y-103218000D03*
X65242000Y-104168000D03*
X65242000Y-102268000D03*
%TD*%
D21*
%TO.C,J4*%
X118110000Y-102870000D03*
X118110000Y-105410000D03*
X118110000Y-107950000D03*
D22*
X118110000Y-110490000D03*
%TD*%
%TO.C,C8*%
G36*
G01*
X67255000Y-114753000D02*
X68205000Y-114753000D01*
G75*
G02*
X68455000Y-115003000I0J-250000D01*
G01*
X68455000Y-115503000D01*
G75*
G02*
X68205000Y-115753000I-250000J0D01*
G01*
X67255000Y-115753000D01*
G75*
G02*
X67005000Y-115503000I0J250000D01*
G01*
X67005000Y-115003000D01*
G75*
G02*
X67255000Y-114753000I250000J0D01*
G01*
G37*
G36*
G01*
X67255000Y-112853000D02*
X68205000Y-112853000D01*
G75*
G02*
X68455000Y-113103000I0J-250000D01*
G01*
X68455000Y-113603000D01*
G75*
G02*
X68205000Y-113853000I-250000J0D01*
G01*
X67255000Y-113853000D01*
G75*
G02*
X67005000Y-113603000I0J250000D01*
G01*
X67005000Y-113103000D01*
G75*
G02*
X67255000Y-112853000I250000J0D01*
G01*
G37*
%TD*%
%TO.C,C7*%
G36*
G01*
X63955000Y-116373000D02*
X63005000Y-116373000D01*
G75*
G02*
X62755000Y-116123000I0J250000D01*
G01*
X62755000Y-115623000D01*
G75*
G02*
X63005000Y-115373000I250000J0D01*
G01*
X63955000Y-115373000D01*
G75*
G02*
X64205000Y-115623000I0J-250000D01*
G01*
X64205000Y-116123000D01*
G75*
G02*
X63955000Y-116373000I-250000J0D01*
G01*
G37*
G36*
G01*
X63955000Y-118273000D02*
X63005000Y-118273000D01*
G75*
G02*
X62755000Y-118023000I0J250000D01*
G01*
X62755000Y-117523000D01*
G75*
G02*
X63005000Y-117273000I250000J0D01*
G01*
X63955000Y-117273000D01*
G75*
G02*
X64205000Y-117523000I0J-250000D01*
G01*
X64205000Y-118023000D01*
G75*
G02*
X63955000Y-118273000I-250000J0D01*
G01*
G37*
%TD*%
%TO.C,C6*%
G36*
G01*
X69435000Y-114753000D02*
X70385000Y-114753000D01*
G75*
G02*
X70635000Y-115003000I0J-250000D01*
G01*
X70635000Y-115503000D01*
G75*
G02*
X70385000Y-115753000I-250000J0D01*
G01*
X69435000Y-115753000D01*
G75*
G02*
X69185000Y-115503000I0J250000D01*
G01*
X69185000Y-115003000D01*
G75*
G02*
X69435000Y-114753000I250000J0D01*
G01*
G37*
G36*
G01*
X69435000Y-112853000D02*
X70385000Y-112853000D01*
G75*
G02*
X70635000Y-113103000I0J-250000D01*
G01*
X70635000Y-113603000D01*
G75*
G02*
X70385000Y-113853000I-250000J0D01*
G01*
X69435000Y-113853000D01*
G75*
G02*
X69185000Y-113603000I0J250000D01*
G01*
X69185000Y-113103000D01*
G75*
G02*
X69435000Y-112853000I250000J0D01*
G01*
G37*
%TD*%
%TO.C,C5*%
G36*
G01*
X66080000Y-116373000D02*
X65130000Y-116373000D01*
G75*
G02*
X64880000Y-116123000I0J250000D01*
G01*
X64880000Y-115623000D01*
G75*
G02*
X65130000Y-115373000I250000J0D01*
G01*
X66080000Y-115373000D01*
G75*
G02*
X66330000Y-115623000I0J-250000D01*
G01*
X66330000Y-116123000D01*
G75*
G02*
X66080000Y-116373000I-250000J0D01*
G01*
G37*
G36*
G01*
X66080000Y-118273000D02*
X65130000Y-118273000D01*
G75*
G02*
X64880000Y-118023000I0J250000D01*
G01*
X64880000Y-117523000D01*
G75*
G02*
X65130000Y-117273000I250000J0D01*
G01*
X66080000Y-117273000D01*
G75*
G02*
X66330000Y-117523000I0J-250000D01*
G01*
X66330000Y-118023000D01*
G75*
G02*
X66080000Y-118273000I-250000J0D01*
G01*
G37*
%TD*%
D23*
%TO.C,Y2*%
X94688000Y-101092000D03*
X99568000Y-101092000D03*
%TD*%
%TO.C,U9*%
G36*
G01*
X96500000Y-113795000D02*
X96500000Y-114095000D01*
G75*
G02*
X96350000Y-114245000I-150000J0D01*
G01*
X94700000Y-114245000D01*
G75*
G02*
X94550000Y-114095000I0J150000D01*
G01*
X94550000Y-113795000D01*
G75*
G02*
X94700000Y-113645000I150000J0D01*
G01*
X96350000Y-113645000D01*
G75*
G02*
X96500000Y-113795000I0J-150000D01*
G01*
G37*
G36*
G01*
X96500000Y-112525000D02*
X96500000Y-112825000D01*
G75*
G02*
X96350000Y-112975000I-150000J0D01*
G01*
X94700000Y-112975000D01*
G75*
G02*
X94550000Y-112825000I0J150000D01*
G01*
X94550000Y-112525000D01*
G75*
G02*
X94700000Y-112375000I150000J0D01*
G01*
X96350000Y-112375000D01*
G75*
G02*
X96500000Y-112525000I0J-150000D01*
G01*
G37*
G36*
G01*
X96500000Y-111255000D02*
X96500000Y-111555000D01*
G75*
G02*
X96350000Y-111705000I-150000J0D01*
G01*
X94700000Y-111705000D01*
G75*
G02*
X94550000Y-111555000I0J150000D01*
G01*
X94550000Y-111255000D01*
G75*
G02*
X94700000Y-111105000I150000J0D01*
G01*
X96350000Y-111105000D01*
G75*
G02*
X96500000Y-111255000I0J-150000D01*
G01*
G37*
G36*
G01*
X96500000Y-109985000D02*
X96500000Y-110285000D01*
G75*
G02*
X96350000Y-110435000I-150000J0D01*
G01*
X94700000Y-110435000D01*
G75*
G02*
X94550000Y-110285000I0J150000D01*
G01*
X94550000Y-109985000D01*
G75*
G02*
X94700000Y-109835000I150000J0D01*
G01*
X96350000Y-109835000D01*
G75*
G02*
X96500000Y-109985000I0J-150000D01*
G01*
G37*
G36*
G01*
X96500000Y-108715000D02*
X96500000Y-109015000D01*
G75*
G02*
X96350000Y-109165000I-150000J0D01*
G01*
X94700000Y-109165000D01*
G75*
G02*
X94550000Y-109015000I0J150000D01*
G01*
X94550000Y-108715000D01*
G75*
G02*
X94700000Y-108565000I150000J0D01*
G01*
X96350000Y-108565000D01*
G75*
G02*
X96500000Y-108715000I0J-150000D01*
G01*
G37*
G36*
G01*
X96500000Y-107445000D02*
X96500000Y-107745000D01*
G75*
G02*
X96350000Y-107895000I-150000J0D01*
G01*
X94700000Y-107895000D01*
G75*
G02*
X94550000Y-107745000I0J150000D01*
G01*
X94550000Y-107445000D01*
G75*
G02*
X94700000Y-107295000I150000J0D01*
G01*
X96350000Y-107295000D01*
G75*
G02*
X96500000Y-107445000I0J-150000D01*
G01*
G37*
G36*
G01*
X96500000Y-106175000D02*
X96500000Y-106475000D01*
G75*
G02*
X96350000Y-106625000I-150000J0D01*
G01*
X94700000Y-106625000D01*
G75*
G02*
X94550000Y-106475000I0J150000D01*
G01*
X94550000Y-106175000D01*
G75*
G02*
X94700000Y-106025000I150000J0D01*
G01*
X96350000Y-106025000D01*
G75*
G02*
X96500000Y-106175000I0J-150000D01*
G01*
G37*
G36*
G01*
X96500000Y-104905000D02*
X96500000Y-105205000D01*
G75*
G02*
X96350000Y-105355000I-150000J0D01*
G01*
X94700000Y-105355000D01*
G75*
G02*
X94550000Y-105205000I0J150000D01*
G01*
X94550000Y-104905000D01*
G75*
G02*
X94700000Y-104755000I150000J0D01*
G01*
X96350000Y-104755000D01*
G75*
G02*
X96500000Y-104905000I0J-150000D01*
G01*
G37*
G36*
G01*
X101450000Y-104905000D02*
X101450000Y-105205000D01*
G75*
G02*
X101300000Y-105355000I-150000J0D01*
G01*
X99650000Y-105355000D01*
G75*
G02*
X99500000Y-105205000I0J150000D01*
G01*
X99500000Y-104905000D01*
G75*
G02*
X99650000Y-104755000I150000J0D01*
G01*
X101300000Y-104755000D01*
G75*
G02*
X101450000Y-104905000I0J-150000D01*
G01*
G37*
G36*
G01*
X101450000Y-106175000D02*
X101450000Y-106475000D01*
G75*
G02*
X101300000Y-106625000I-150000J0D01*
G01*
X99650000Y-106625000D01*
G75*
G02*
X99500000Y-106475000I0J150000D01*
G01*
X99500000Y-106175000D01*
G75*
G02*
X99650000Y-106025000I150000J0D01*
G01*
X101300000Y-106025000D01*
G75*
G02*
X101450000Y-106175000I0J-150000D01*
G01*
G37*
G36*
G01*
X101450000Y-107445000D02*
X101450000Y-107745000D01*
G75*
G02*
X101300000Y-107895000I-150000J0D01*
G01*
X99650000Y-107895000D01*
G75*
G02*
X99500000Y-107745000I0J150000D01*
G01*
X99500000Y-107445000D01*
G75*
G02*
X99650000Y-107295000I150000J0D01*
G01*
X101300000Y-107295000D01*
G75*
G02*
X101450000Y-107445000I0J-150000D01*
G01*
G37*
G36*
G01*
X101450000Y-108715000D02*
X101450000Y-109015000D01*
G75*
G02*
X101300000Y-109165000I-150000J0D01*
G01*
X99650000Y-109165000D01*
G75*
G02*
X99500000Y-109015000I0J150000D01*
G01*
X99500000Y-108715000D01*
G75*
G02*
X99650000Y-108565000I150000J0D01*
G01*
X101300000Y-108565000D01*
G75*
G02*
X101450000Y-108715000I0J-150000D01*
G01*
G37*
G36*
G01*
X101450000Y-109985000D02*
X101450000Y-110285000D01*
G75*
G02*
X101300000Y-110435000I-150000J0D01*
G01*
X99650000Y-110435000D01*
G75*
G02*
X99500000Y-110285000I0J150000D01*
G01*
X99500000Y-109985000D01*
G75*
G02*
X99650000Y-109835000I150000J0D01*
G01*
X101300000Y-109835000D01*
G75*
G02*
X101450000Y-109985000I0J-150000D01*
G01*
G37*
G36*
G01*
X101450000Y-111255000D02*
X101450000Y-111555000D01*
G75*
G02*
X101300000Y-111705000I-150000J0D01*
G01*
X99650000Y-111705000D01*
G75*
G02*
X99500000Y-111555000I0J150000D01*
G01*
X99500000Y-111255000D01*
G75*
G02*
X99650000Y-111105000I150000J0D01*
G01*
X101300000Y-111105000D01*
G75*
G02*
X101450000Y-111255000I0J-150000D01*
G01*
G37*
G36*
G01*
X101450000Y-112525000D02*
X101450000Y-112825000D01*
G75*
G02*
X101300000Y-112975000I-150000J0D01*
G01*
X99650000Y-112975000D01*
G75*
G02*
X99500000Y-112825000I0J150000D01*
G01*
X99500000Y-112525000D01*
G75*
G02*
X99650000Y-112375000I150000J0D01*
G01*
X101300000Y-112375000D01*
G75*
G02*
X101450000Y-112525000I0J-150000D01*
G01*
G37*
G36*
G01*
X101450000Y-113795000D02*
X101450000Y-114095000D01*
G75*
G02*
X101300000Y-114245000I-150000J0D01*
G01*
X99650000Y-114245000D01*
G75*
G02*
X99500000Y-114095000I0J150000D01*
G01*
X99500000Y-113795000D01*
G75*
G02*
X99650000Y-113645000I150000J0D01*
G01*
X101300000Y-113645000D01*
G75*
G02*
X101450000Y-113795000I0J-150000D01*
G01*
G37*
%TD*%
D21*
%TO.C,J8*%
X98044000Y-92710000D03*
X100584000Y-92710000D03*
X103124000Y-92710000D03*
D22*
X105664000Y-92710000D03*
%TD*%
D21*
%TO.C,J6*%
X84130000Y-113000000D03*
X86670000Y-113000000D03*
X89210000Y-113000000D03*
D22*
X91750000Y-113000000D03*
%TD*%
D24*
%TO.C,D2*%
X89662000Y-105664000D03*
D25*
X89662000Y-108204000D03*
%TD*%
%TO.C,C17*%
G36*
G01*
X102525000Y-112450000D02*
X103475000Y-112450000D01*
G75*
G02*
X103725000Y-112700000I0J-250000D01*
G01*
X103725000Y-113200000D01*
G75*
G02*
X103475000Y-113450000I-250000J0D01*
G01*
X102525000Y-113450000D01*
G75*
G02*
X102275000Y-113200000I0J250000D01*
G01*
X102275000Y-112700000D01*
G75*
G02*
X102525000Y-112450000I250000J0D01*
G01*
G37*
G36*
G01*
X102525000Y-110550000D02*
X103475000Y-110550000D01*
G75*
G02*
X103725000Y-110800000I0J-250000D01*
G01*
X103725000Y-111300000D01*
G75*
G02*
X103475000Y-111550000I-250000J0D01*
G01*
X102525000Y-111550000D01*
G75*
G02*
X102275000Y-111300000I0J250000D01*
G01*
X102275000Y-110800000D01*
G75*
G02*
X102525000Y-110550000I250000J0D01*
G01*
G37*
%TD*%
%TO.C,C16*%
G36*
G01*
X98450000Y-116475000D02*
X98450000Y-115525000D01*
G75*
G02*
X98700000Y-115275000I250000J0D01*
G01*
X99200000Y-115275000D01*
G75*
G02*
X99450000Y-115525000I0J-250000D01*
G01*
X99450000Y-116475000D01*
G75*
G02*
X99200000Y-116725000I-250000J0D01*
G01*
X98700000Y-116725000D01*
G75*
G02*
X98450000Y-116475000I0J250000D01*
G01*
G37*
G36*
G01*
X96550000Y-116475000D02*
X96550000Y-115525000D01*
G75*
G02*
X96800000Y-115275000I250000J0D01*
G01*
X97300000Y-115275000D01*
G75*
G02*
X97550000Y-115525000I0J-250000D01*
G01*
X97550000Y-116475000D01*
G75*
G02*
X97300000Y-116725000I-250000J0D01*
G01*
X96800000Y-116725000D01*
G75*
G02*
X96550000Y-116475000I0J250000D01*
G01*
G37*
%TD*%
%TO.C,C15*%
G36*
G01*
X98450000Y-118475000D02*
X98450000Y-117525000D01*
G75*
G02*
X98700000Y-117275000I250000J0D01*
G01*
X99200000Y-117275000D01*
G75*
G02*
X99450000Y-117525000I0J-250000D01*
G01*
X99450000Y-118475000D01*
G75*
G02*
X99200000Y-118725000I-250000J0D01*
G01*
X98700000Y-118725000D01*
G75*
G02*
X98450000Y-118475000I0J250000D01*
G01*
G37*
G36*
G01*
X96550000Y-118475000D02*
X96550000Y-117525000D01*
G75*
G02*
X96800000Y-117275000I250000J0D01*
G01*
X97300000Y-117275000D01*
G75*
G02*
X97550000Y-117525000I0J-250000D01*
G01*
X97550000Y-118475000D01*
G75*
G02*
X97300000Y-118725000I-250000J0D01*
G01*
X96800000Y-118725000D01*
G75*
G02*
X96550000Y-118475000I0J250000D01*
G01*
G37*
%TD*%
D11*
%TO.C,U4*%
X67580000Y-81280000D03*
X115840000Y-96520000D03*
X70120000Y-81280000D03*
X113300000Y-96520000D03*
X72660000Y-81280000D03*
X110760000Y-96520000D03*
X75200000Y-81280000D03*
X108220000Y-96520000D03*
X77740000Y-81280000D03*
X105680000Y-96520000D03*
X80280000Y-81280000D03*
X103140000Y-96520000D03*
X82820000Y-81280000D03*
X100600000Y-96520000D03*
X85360000Y-81280000D03*
X98060000Y-96520000D03*
X87900000Y-81280000D03*
X95520000Y-96520000D03*
X90440000Y-81280000D03*
X92980000Y-96520000D03*
X92980000Y-81280000D03*
X90440000Y-96520000D03*
X95520000Y-81280000D03*
X87900000Y-96520000D03*
X98060000Y-81280000D03*
X85360000Y-96520000D03*
X100600000Y-81280000D03*
X82820000Y-96520000D03*
X103140000Y-81280000D03*
X80280000Y-96520000D03*
X105680000Y-81280000D03*
X77740000Y-96520000D03*
X108220000Y-81280000D03*
X75200000Y-96520000D03*
X110760000Y-81280000D03*
X72660000Y-96520000D03*
X113300000Y-81280000D03*
X70120000Y-96520000D03*
X115840000Y-81280000D03*
D12*
X67580000Y-96520000D03*
%TD*%
D11*
%TO.C,U5*%
X115840000Y-75565000D03*
X57420000Y-60325000D03*
X113300000Y-75565000D03*
X59960000Y-60325000D03*
X110760000Y-75565000D03*
X62500000Y-60325000D03*
X108220000Y-75565000D03*
X65040000Y-60325000D03*
X105680000Y-75565000D03*
X67580000Y-60325000D03*
X103140000Y-75565000D03*
X70120000Y-60325000D03*
X100600000Y-75565000D03*
X72660000Y-60325000D03*
X98060000Y-75565000D03*
X75200000Y-60325000D03*
X95520000Y-75565000D03*
X77740000Y-60325000D03*
X92980000Y-75565000D03*
X80280000Y-60325000D03*
X90440000Y-75565000D03*
X82820000Y-60325000D03*
X87900000Y-75565000D03*
X85360000Y-60325000D03*
X85360000Y-75565000D03*
X87900000Y-60325000D03*
X82820000Y-75565000D03*
X90440000Y-60325000D03*
X80280000Y-75565000D03*
X92980000Y-60325000D03*
X77740000Y-75565000D03*
X95520000Y-60325000D03*
X75200000Y-75565000D03*
X98060000Y-60325000D03*
X72660000Y-75565000D03*
X100600000Y-60325000D03*
X70120000Y-75565000D03*
X103140000Y-60325000D03*
X67580000Y-75565000D03*
X105680000Y-60325000D03*
X65040000Y-75565000D03*
X108220000Y-60325000D03*
X62500000Y-75565000D03*
X110760000Y-60325000D03*
X59960000Y-75565000D03*
X113300000Y-60325000D03*
X57420000Y-75565000D03*
D12*
X115840000Y-60325000D03*
%TD*%
D11*
%TO.C,U8*%
X69850000Y-48260000D03*
X41910000Y-40640000D03*
X67310000Y-48260000D03*
X44450000Y-40640000D03*
X64770000Y-48260000D03*
X46990000Y-40640000D03*
X62230000Y-48260000D03*
X49530000Y-40640000D03*
X59690000Y-48260000D03*
X52070000Y-40640000D03*
X57150000Y-48260000D03*
X54610000Y-40640000D03*
X54610000Y-48260000D03*
X57150000Y-40640000D03*
X52070000Y-48260000D03*
X59690000Y-40640000D03*
X49530000Y-48260000D03*
X62230000Y-40640000D03*
X46990000Y-48260000D03*
X64770000Y-40640000D03*
X44450000Y-48260000D03*
X67310000Y-40640000D03*
X41910000Y-48260000D03*
D12*
X69850000Y-40640000D03*
%TD*%
%TO.C,R18*%
G36*
G01*
X48772500Y-71685999D02*
X48772500Y-72586001D01*
G75*
G02*
X48522501Y-72836000I-249999J0D01*
G01*
X47997499Y-72836000D01*
G75*
G02*
X47747500Y-72586001I0J249999D01*
G01*
X47747500Y-71685999D01*
G75*
G02*
X47997499Y-71436000I249999J0D01*
G01*
X48522501Y-71436000D01*
G75*
G02*
X48772500Y-71685999I0J-249999D01*
G01*
G37*
G36*
G01*
X50597500Y-71685999D02*
X50597500Y-72586001D01*
G75*
G02*
X50347501Y-72836000I-249999J0D01*
G01*
X49822499Y-72836000D01*
G75*
G02*
X49572500Y-72586001I0J249999D01*
G01*
X49572500Y-71685999D01*
G75*
G02*
X49822499Y-71436000I249999J0D01*
G01*
X50347501Y-71436000D01*
G75*
G02*
X50597500Y-71685999I0J-249999D01*
G01*
G37*
%TD*%
%TO.C,R15*%
G36*
G01*
X42145000Y-71812999D02*
X42145000Y-72713001D01*
G75*
G02*
X41895001Y-72963000I-249999J0D01*
G01*
X41369999Y-72963000D01*
G75*
G02*
X41120000Y-72713001I0J249999D01*
G01*
X41120000Y-71812999D01*
G75*
G02*
X41369999Y-71563000I249999J0D01*
G01*
X41895001Y-71563000D01*
G75*
G02*
X42145000Y-71812999I0J-249999D01*
G01*
G37*
G36*
G01*
X43970000Y-71812999D02*
X43970000Y-72713001D01*
G75*
G02*
X43720001Y-72963000I-249999J0D01*
G01*
X43194999Y-72963000D01*
G75*
G02*
X42945000Y-72713001I0J249999D01*
G01*
X42945000Y-71812999D01*
G75*
G02*
X43194999Y-71563000I249999J0D01*
G01*
X43720001Y-71563000D01*
G75*
G02*
X43970000Y-71812999I0J-249999D01*
G01*
G37*
%TD*%
%TO.C,R14*%
G36*
G01*
X42121500Y-69653999D02*
X42121500Y-70554001D01*
G75*
G02*
X41871501Y-70804000I-249999J0D01*
G01*
X41346499Y-70804000D01*
G75*
G02*
X41096500Y-70554001I0J249999D01*
G01*
X41096500Y-69653999D01*
G75*
G02*
X41346499Y-69404000I249999J0D01*
G01*
X41871501Y-69404000D01*
G75*
G02*
X42121500Y-69653999I0J-249999D01*
G01*
G37*
G36*
G01*
X43946500Y-69653999D02*
X43946500Y-70554001D01*
G75*
G02*
X43696501Y-70804000I-249999J0D01*
G01*
X43171499Y-70804000D01*
G75*
G02*
X42921500Y-70554001I0J249999D01*
G01*
X42921500Y-69653999D01*
G75*
G02*
X43171499Y-69404000I249999J0D01*
G01*
X43696501Y-69404000D01*
G75*
G02*
X43946500Y-69653999I0J-249999D01*
G01*
G37*
%TD*%
%TO.C,R19*%
G36*
G01*
X43326000Y-63569001D02*
X43326000Y-62668999D01*
G75*
G02*
X43575999Y-62419000I249999J0D01*
G01*
X44101001Y-62419000D01*
G75*
G02*
X44351000Y-62668999I0J-249999D01*
G01*
X44351000Y-63569001D01*
G75*
G02*
X44101001Y-63819000I-249999J0D01*
G01*
X43575999Y-63819000D01*
G75*
G02*
X43326000Y-63569001I0J249999D01*
G01*
G37*
G36*
G01*
X41501000Y-63569001D02*
X41501000Y-62668999D01*
G75*
G02*
X41750999Y-62419000I249999J0D01*
G01*
X42276001Y-62419000D01*
G75*
G02*
X42526000Y-62668999I0J-249999D01*
G01*
X42526000Y-63569001D01*
G75*
G02*
X42276001Y-63819000I-249999J0D01*
G01*
X41750999Y-63819000D01*
G75*
G02*
X41501000Y-63569001I0J249999D01*
G01*
G37*
%TD*%
D26*
%TO.C,J7*%
X85100000Y-118487500D03*
X90900000Y-118487500D03*
D27*
X91500000Y-118487500D03*
X84500000Y-118487500D03*
D28*
X87000000Y-118487500D03*
D29*
X90500000Y-115787500D03*
D30*
X88000000Y-115787500D03*
X88650000Y-115787500D03*
X89300000Y-115787500D03*
X86700000Y-115787500D03*
X87350000Y-115787500D03*
D29*
X85500000Y-115787500D03*
D28*
X89000000Y-118487500D03*
%TD*%
D24*
%TO.C,D1*%
X83500000Y-105664000D03*
D25*
X83500000Y-108204000D03*
%TD*%
D11*
%TO.C,U2*%
X91440000Y-24130000D03*
X109220000Y-31750000D03*
X93980000Y-24130000D03*
X106680000Y-31750000D03*
X96520000Y-24130000D03*
X104140000Y-31750000D03*
X99060000Y-24130000D03*
X101600000Y-31750000D03*
X101600000Y-24130000D03*
X99060000Y-31750000D03*
X104140000Y-24130000D03*
X96520000Y-31750000D03*
X106680000Y-24130000D03*
X93980000Y-31750000D03*
X109220000Y-24130000D03*
D12*
X91440000Y-31750000D03*
%TD*%
D31*
%TO.C,Y1*%
X91425000Y-34290000D03*
X91425000Y-36830000D03*
%TD*%
D11*
%TO.C,U6*%
X77740000Y-39370000D03*
X115840000Y-54610000D03*
X80280000Y-39370000D03*
X113300000Y-54610000D03*
X82820000Y-39370000D03*
X110760000Y-54610000D03*
X85360000Y-39370000D03*
X108220000Y-54610000D03*
X87900000Y-39370000D03*
X105680000Y-54610000D03*
X90440000Y-39370000D03*
X103140000Y-54610000D03*
X92980000Y-39370000D03*
X100600000Y-54610000D03*
X95520000Y-39370000D03*
X98060000Y-54610000D03*
X98060000Y-39370000D03*
X95520000Y-54610000D03*
X100600000Y-39370000D03*
X92980000Y-54610000D03*
X103140000Y-39370000D03*
X90440000Y-54610000D03*
X105680000Y-39370000D03*
X87900000Y-54610000D03*
X108220000Y-39370000D03*
X85360000Y-54610000D03*
X110760000Y-39370000D03*
X82820000Y-54610000D03*
X113300000Y-39370000D03*
X80280000Y-54610000D03*
X115840000Y-39370000D03*
D12*
X77740000Y-54610000D03*
%TD*%
D32*
%TO.C,BT1*%
X61800000Y-87905000D03*
X41800000Y-87905000D03*
%TD*%
D33*
%TO.C,M4*%
X23500000Y-116500000D03*
%TD*%
%TO.C,M3*%
X23500000Y-23500000D03*
%TD*%
%TO.C,M2*%
X116500000Y-116500000D03*
%TD*%
%TO.C,M1*%
X116500000Y-23500000D03*
%TD*%
D13*
%TO.C,C1*%
X34500000Y-37300000D03*
D12*
X31000000Y-37300000D03*
%TD*%
D13*
%TO.C,C4*%
X34500000Y-28000000D03*
D12*
X31000000Y-28000000D03*
%TD*%
D22*
%TO.C,J5*%
X22540000Y-30600000D03*
D21*
X25080000Y-30600000D03*
X22540000Y-33140000D03*
X25080000Y-33140000D03*
X22540000Y-35680000D03*
X25080000Y-35680000D03*
X22540000Y-38220000D03*
X25080000Y-38220000D03*
%TD*%
%TO.C,J1*%
X25080000Y-109400000D03*
X22540000Y-109400000D03*
X25080000Y-106860000D03*
X22540000Y-106860000D03*
X25080000Y-104320000D03*
X22540000Y-104320000D03*
X25080000Y-101780000D03*
D22*
X22540000Y-101780000D03*
%TD*%
D21*
%TO.C,J3*%
X33080000Y-94130000D03*
X30540000Y-94130000D03*
X33080000Y-91590000D03*
X30540000Y-91590000D03*
X33080000Y-89050000D03*
X30540000Y-89050000D03*
X33080000Y-86510000D03*
X30540000Y-86510000D03*
X33080000Y-83970000D03*
X30540000Y-83970000D03*
X33080000Y-81430000D03*
X30540000Y-81430000D03*
X33080000Y-78890000D03*
X30540000Y-78890000D03*
X33080000Y-76350000D03*
X30540000Y-76350000D03*
X33080000Y-73810000D03*
X30540000Y-73810000D03*
X33080000Y-71270000D03*
X30540000Y-71270000D03*
X33080000Y-68730000D03*
X30540000Y-68730000D03*
X33080000Y-66190000D03*
X30540000Y-66190000D03*
X33080000Y-63650000D03*
X30540000Y-63650000D03*
X33080000Y-61110000D03*
X30540000Y-61110000D03*
X33080000Y-58570000D03*
X30540000Y-58570000D03*
X33080000Y-56030000D03*
X30540000Y-56030000D03*
X33080000Y-53490000D03*
X30540000Y-53490000D03*
X33080000Y-50950000D03*
X30540000Y-50950000D03*
X33080000Y-48410000D03*
X30540000Y-48410000D03*
X33080000Y-45870000D03*
D22*
X30540000Y-45870000D03*
%TD*%
D21*
%TO.C,J2*%
X25080000Y-94130000D03*
X22540000Y-94130000D03*
X25080000Y-91590000D03*
X22540000Y-91590000D03*
X25080000Y-89050000D03*
X22540000Y-89050000D03*
X25080000Y-86510000D03*
X22540000Y-86510000D03*
X25080000Y-83970000D03*
X22540000Y-83970000D03*
X25080000Y-81430000D03*
X22540000Y-81430000D03*
X25080000Y-78890000D03*
X22540000Y-78890000D03*
X25080000Y-76350000D03*
X22540000Y-76350000D03*
X25080000Y-73810000D03*
X22540000Y-73810000D03*
X25080000Y-71270000D03*
X22540000Y-71270000D03*
X25080000Y-68730000D03*
X22540000Y-68730000D03*
X25080000Y-66190000D03*
X22540000Y-66190000D03*
X25080000Y-63650000D03*
X22540000Y-63650000D03*
X25080000Y-61110000D03*
X22540000Y-61110000D03*
X25080000Y-58570000D03*
X22540000Y-58570000D03*
X25080000Y-56030000D03*
X22540000Y-56030000D03*
X25080000Y-53490000D03*
X22540000Y-53490000D03*
X25080000Y-50950000D03*
X22540000Y-50950000D03*
X25080000Y-48410000D03*
X22540000Y-48410000D03*
X25080000Y-45870000D03*
D22*
X22540000Y-45870000D03*
%TD*%
M02*
