%TF.GenerationSoftware,KiCad,Pcbnew,(5.1.9)-1*%
%TF.CreationDate,2021-05-25T17:26:24-04:00*%
%TF.ProjectId,main,6d61696e-2e6b-4696-9361-645f70636258,rev?*%
%TF.SameCoordinates,Original*%
%TF.FileFunction,Legend,Top*%
%TF.FilePolarity,Positive*%
%FSLAX46Y46*%
G04 Gerber Fmt 4.6, Leading zero omitted, Abs format (unit mm)*
G04 Created by KiCad (PCBNEW (5.1.9)-1) date 2021-05-25 17:26:24*
%MOMM*%
%LPD*%
G01*
G04 APERTURE LIST*
%ADD10C,0.120000*%
%ADD11C,0.150000*%
G04 APERTURE END LIST*
D10*
%TO.C,Q9*%
X38610000Y-60650000D02*
X40070000Y-60650000D01*
X38610000Y-63810000D02*
X40770000Y-63810000D01*
X38610000Y-63810000D02*
X38610000Y-62880000D01*
X38610000Y-60650000D02*
X38610000Y-61580000D01*
%TO.C,Q8*%
X45071000Y-69794000D02*
X46531000Y-69794000D01*
X45071000Y-72954000D02*
X47231000Y-72954000D01*
X45071000Y-72954000D02*
X45071000Y-72024000D01*
X45071000Y-69794000D02*
X45071000Y-70724000D01*
%TO.C,Q6*%
X38483000Y-69667000D02*
X39943000Y-69667000D01*
X38483000Y-72827000D02*
X40643000Y-72827000D01*
X38483000Y-72827000D02*
X38483000Y-71897000D01*
X38483000Y-69667000D02*
X38483000Y-70597000D01*
%TO.C,U7*%
X65920000Y-22800000D02*
X65920000Y-33080000D01*
X86480000Y-22800000D02*
X65920000Y-22800000D01*
X86480000Y-33080000D02*
X86480000Y-22800000D01*
X65920000Y-33080000D02*
X86480000Y-33080000D01*
X65980000Y-25290000D02*
X65980000Y-26940000D01*
X86420000Y-25290000D02*
X65980000Y-25290000D01*
X86420000Y-30590000D02*
X86420000Y-25290000D01*
X65980000Y-30590000D02*
X86420000Y-30590000D01*
X65980000Y-28940000D02*
X65980000Y-30590000D01*
X65980000Y-26940000D02*
G75*
G02*
X65980000Y-28940000I0J-1000000D01*
G01*
%TO.C,U3*%
X41790000Y-22800000D02*
X41790000Y-33080000D01*
X62350000Y-22800000D02*
X41790000Y-22800000D01*
X62350000Y-33080000D02*
X62350000Y-22800000D01*
X41790000Y-33080000D02*
X62350000Y-33080000D01*
X41850000Y-25290000D02*
X41850000Y-26940000D01*
X62290000Y-25290000D02*
X41850000Y-25290000D01*
X62290000Y-30590000D02*
X62290000Y-25290000D01*
X41850000Y-30590000D02*
X62290000Y-30590000D01*
X41850000Y-28940000D02*
X41850000Y-30590000D01*
X41850000Y-26940000D02*
G75*
G02*
X41850000Y-28940000I0J-1000000D01*
G01*
%TO.C,U1*%
X71380000Y-112078000D02*
X77390000Y-112078000D01*
X73630000Y-118898000D02*
X77390000Y-118898000D01*
X77390000Y-112078000D02*
X77390000Y-113338000D01*
X77390000Y-118898000D02*
X77390000Y-117638000D01*
%TO.C,R17*%
X113835000Y-109727064D02*
X113835000Y-109272936D01*
X112365000Y-109727064D02*
X112365000Y-109272936D01*
%TO.C,R16*%
X108435000Y-109727064D02*
X108435000Y-109272936D01*
X106965000Y-109727064D02*
X106965000Y-109272936D01*
%TO.C,R13*%
X113835000Y-104227064D02*
X113835000Y-103772936D01*
X112365000Y-104227064D02*
X112365000Y-103772936D01*
%TO.C,R12*%
X108435000Y-104227064D02*
X108435000Y-103772936D01*
X106965000Y-104227064D02*
X106965000Y-103772936D01*
%TO.C,R8*%
X69727000Y-109457064D02*
X69727000Y-109002936D01*
X68257000Y-109457064D02*
X68257000Y-109002936D01*
%TO.C,R7*%
X71757000Y-109002936D02*
X71757000Y-109457064D01*
X73227000Y-109002936D02*
X73227000Y-109457064D01*
%TO.C,R6*%
X73227000Y-103445064D02*
X73227000Y-102990936D01*
X71757000Y-103445064D02*
X71757000Y-102990936D01*
%TO.C,R5*%
X68257000Y-102990936D02*
X68257000Y-103445064D01*
X69727000Y-102990936D02*
X69727000Y-103445064D01*
%TO.C,R4*%
X64227000Y-109002936D02*
X64227000Y-109457064D01*
X62757000Y-109002936D02*
X62757000Y-109457064D01*
%TO.C,R3*%
X78727000Y-109457064D02*
X78727000Y-109002936D01*
X77257000Y-109457064D02*
X77257000Y-109002936D01*
%TO.C,R2*%
X78727000Y-103445064D02*
X78727000Y-102990936D01*
X77257000Y-103445064D02*
X77257000Y-102990936D01*
%TO.C,R1*%
X62757000Y-102990936D02*
X62757000Y-103445064D01*
X64227000Y-102990936D02*
X64227000Y-103445064D01*
%TO.C,Q7*%
X109640000Y-107920000D02*
X111100000Y-107920000D01*
X109640000Y-111080000D02*
X111800000Y-111080000D01*
X109640000Y-111080000D02*
X109640000Y-110150000D01*
X109640000Y-107920000D02*
X109640000Y-108850000D01*
%TO.C,Q5*%
X109640000Y-102420000D02*
X111100000Y-102420000D01*
X109640000Y-105580000D02*
X111800000Y-105580000D01*
X109640000Y-105580000D02*
X109640000Y-104650000D01*
X109640000Y-102420000D02*
X109640000Y-103350000D01*
%TO.C,Q4*%
X67002000Y-110810000D02*
X65542000Y-110810000D01*
X67002000Y-107650000D02*
X64842000Y-107650000D01*
X67002000Y-107650000D02*
X67002000Y-108580000D01*
X67002000Y-110810000D02*
X67002000Y-109880000D01*
%TO.C,Q3*%
X74482000Y-107650000D02*
X75942000Y-107650000D01*
X74482000Y-110810000D02*
X76642000Y-110810000D01*
X74482000Y-110810000D02*
X74482000Y-109880000D01*
X74482000Y-107650000D02*
X74482000Y-108580000D01*
%TO.C,Q2*%
X74482000Y-101638000D02*
X75942000Y-101638000D01*
X74482000Y-104798000D02*
X76642000Y-104798000D01*
X74482000Y-104798000D02*
X74482000Y-103868000D01*
X74482000Y-101638000D02*
X74482000Y-102568000D01*
%TO.C,Q1*%
X67002000Y-104798000D02*
X65542000Y-104798000D01*
X67002000Y-101638000D02*
X64842000Y-101638000D01*
X67002000Y-101638000D02*
X67002000Y-102568000D01*
X67002000Y-104798000D02*
X67002000Y-103868000D01*
%TO.C,J4*%
X119440000Y-111820000D02*
X118110000Y-111820000D01*
X119440000Y-110490000D02*
X119440000Y-111820000D01*
X119440000Y-109220000D02*
X116780000Y-109220000D01*
X116780000Y-109220000D02*
X116780000Y-101540000D01*
X119440000Y-109220000D02*
X119440000Y-101540000D01*
X119440000Y-101540000D02*
X116780000Y-101540000D01*
%TO.C,C8*%
X66995000Y-114041748D02*
X66995000Y-114564252D01*
X68465000Y-114041748D02*
X68465000Y-114564252D01*
%TO.C,C7*%
X64215000Y-117084252D02*
X64215000Y-116561748D01*
X62745000Y-117084252D02*
X62745000Y-116561748D01*
%TO.C,C6*%
X69175000Y-114041748D02*
X69175000Y-114564252D01*
X70645000Y-114041748D02*
X70645000Y-114564252D01*
%TO.C,C5*%
X66340000Y-117084252D02*
X66340000Y-116561748D01*
X64870000Y-117084252D02*
X64870000Y-116561748D01*
%TO.C,Y2*%
X100253000Y-98567000D02*
X94003000Y-98567000D01*
X100253000Y-103617000D02*
X94003000Y-103617000D01*
X94003000Y-98567000D02*
G75*
G03*
X94003000Y-103617000I0J-2525000D01*
G01*
X100253000Y-98567000D02*
G75*
G02*
X100253000Y-103617000I0J-2525000D01*
G01*
%TO.C,U9*%
X98000000Y-114560000D02*
X101450000Y-114560000D01*
X98000000Y-114560000D02*
X96050000Y-114560000D01*
X98000000Y-104440000D02*
X99950000Y-104440000D01*
X98000000Y-104440000D02*
X96050000Y-104440000D01*
%TO.C,J8*%
X106994000Y-91380000D02*
X106994000Y-92710000D01*
X105664000Y-91380000D02*
X106994000Y-91380000D01*
X104394000Y-91380000D02*
X104394000Y-94040000D01*
X104394000Y-94040000D02*
X96714000Y-94040000D01*
X104394000Y-91380000D02*
X96714000Y-91380000D01*
X96714000Y-91380000D02*
X96714000Y-94040000D01*
%TO.C,J6*%
X93080000Y-111670000D02*
X93080000Y-113000000D01*
X91750000Y-111670000D02*
X93080000Y-111670000D01*
X90480000Y-111670000D02*
X90480000Y-114330000D01*
X90480000Y-114330000D02*
X82800000Y-114330000D01*
X90480000Y-111670000D02*
X82800000Y-111670000D01*
X82800000Y-111670000D02*
X82800000Y-114330000D01*
%TO.C,D2*%
X90742000Y-108494000D02*
X90898000Y-108494000D01*
X88426000Y-108494000D02*
X88582000Y-108494000D01*
X90741837Y-105892870D02*
G75*
G02*
X90742000Y-107974961I-1079837J-1041130D01*
G01*
X88582163Y-105892870D02*
G75*
G03*
X88582000Y-107974961I1079837J-1041130D01*
G01*
X90740608Y-105261665D02*
G75*
G02*
X90897516Y-108494000I-1078608J-1672335D01*
G01*
X88583392Y-105261665D02*
G75*
G03*
X88426484Y-108494000I1078608J-1672335D01*
G01*
%TO.C,C17*%
X102265000Y-111738748D02*
X102265000Y-112261252D01*
X103735000Y-111738748D02*
X103735000Y-112261252D01*
%TO.C,C16*%
X97738748Y-116735000D02*
X98261252Y-116735000D01*
X97738748Y-115265000D02*
X98261252Y-115265000D01*
%TO.C,C15*%
X97738748Y-118735000D02*
X98261252Y-118735000D01*
X97738748Y-117265000D02*
X98261252Y-117265000D01*
%TO.C,U4*%
X66190000Y-79950000D02*
X66190000Y-97850000D01*
X117230000Y-79950000D02*
X66190000Y-79950000D01*
X117230000Y-97850000D02*
X117230000Y-79950000D01*
X66190000Y-97850000D02*
X117230000Y-97850000D01*
X66250000Y-82440000D02*
X66250000Y-87900000D01*
X117170000Y-82440000D02*
X66250000Y-82440000D01*
X117170000Y-95360000D02*
X117170000Y-82440000D01*
X66250000Y-95360000D02*
X117170000Y-95360000D01*
X66250000Y-89900000D02*
X66250000Y-95360000D01*
X66250000Y-87900000D02*
G75*
G02*
X66250000Y-89900000I0J-1000000D01*
G01*
%TO.C,U5*%
X117230000Y-76895000D02*
X117230000Y-58995000D01*
X56030000Y-76895000D02*
X117230000Y-76895000D01*
X56030000Y-58995000D02*
X56030000Y-76895000D01*
X117230000Y-58995000D02*
X56030000Y-58995000D01*
X117170000Y-74405000D02*
X117170000Y-68945000D01*
X56090000Y-74405000D02*
X117170000Y-74405000D01*
X56090000Y-61485000D02*
X56090000Y-74405000D01*
X117170000Y-61485000D02*
X56090000Y-61485000D01*
X117170000Y-66945000D02*
X117170000Y-61485000D01*
X117170000Y-68945000D02*
G75*
G02*
X117170000Y-66945000I0J1000000D01*
G01*
%TO.C,U8*%
X71180000Y-47100000D02*
X71180000Y-45450000D01*
X40580000Y-47100000D02*
X71180000Y-47100000D01*
X40580000Y-41800000D02*
X40580000Y-47100000D01*
X71180000Y-41800000D02*
X40580000Y-41800000D01*
X71180000Y-43450000D02*
X71180000Y-41800000D01*
X71180000Y-45450000D02*
G75*
G02*
X71180000Y-43450000I0J1000000D01*
G01*
%TO.C,R18*%
X49399564Y-71401000D02*
X48945436Y-71401000D01*
X49399564Y-72871000D02*
X48945436Y-72871000D01*
%TO.C,R15*%
X42772064Y-71528000D02*
X42317936Y-71528000D01*
X42772064Y-72998000D02*
X42317936Y-72998000D01*
%TO.C,R14*%
X42748564Y-69369000D02*
X42294436Y-69369000D01*
X42748564Y-70839000D02*
X42294436Y-70839000D01*
%TO.C,R19*%
X42698936Y-63854000D02*
X43153064Y-63854000D01*
X42698936Y-62384000D02*
X43153064Y-62384000D01*
%TO.C,J7*%
X86300000Y-114937500D02*
X86300000Y-115387500D01*
X86300000Y-114937500D02*
X86750000Y-114937500D01*
X91900000Y-115487500D02*
X91450000Y-115487500D01*
X91900000Y-117337500D02*
X91900000Y-115487500D01*
X84100000Y-119887500D02*
X84100000Y-119637500D01*
X91900000Y-119887500D02*
X91900000Y-119637500D01*
X84100000Y-117337500D02*
X84100000Y-115487500D01*
X84100000Y-115487500D02*
X84550000Y-115487500D01*
%TO.C,D1*%
X84580000Y-108494000D02*
X84736000Y-108494000D01*
X82264000Y-108494000D02*
X82420000Y-108494000D01*
X84579837Y-105892870D02*
G75*
G02*
X84580000Y-107974961I-1079837J-1041130D01*
G01*
X82420163Y-105892870D02*
G75*
G03*
X82420000Y-107974961I1079837J-1041130D01*
G01*
X84578608Y-105261665D02*
G75*
G02*
X84735516Y-108494000I-1078608J-1672335D01*
G01*
X82421392Y-105261665D02*
G75*
G03*
X82264484Y-108494000I1078608J-1672335D01*
G01*
%TO.C,U2*%
X90050000Y-22800000D02*
X90050000Y-33080000D01*
X110610000Y-22800000D02*
X90050000Y-22800000D01*
X110610000Y-33080000D02*
X110610000Y-22800000D01*
X90050000Y-33080000D02*
X110610000Y-33080000D01*
X90110000Y-25290000D02*
X90110000Y-26940000D01*
X110550000Y-25290000D02*
X90110000Y-25290000D01*
X110550000Y-30590000D02*
X110550000Y-25290000D01*
X90110000Y-30590000D02*
X110550000Y-30590000D01*
X90110000Y-28940000D02*
X90110000Y-30590000D01*
X90110000Y-26940000D02*
G75*
G02*
X90110000Y-28940000I0J-1000000D01*
G01*
%TO.C,Y1*%
X92825000Y-34290000D02*
X92125000Y-34290000D01*
X94225000Y-34960000D02*
X92825000Y-34290000D01*
X92825000Y-36830000D02*
X92125000Y-36830000D01*
X94225000Y-36160000D02*
X92825000Y-36830000D01*
X94225000Y-33860000D02*
X94225000Y-37260000D01*
X105125000Y-33860000D02*
X94225000Y-33860000D01*
X105125000Y-37260000D02*
X105125000Y-33860000D01*
X94225000Y-37260000D02*
X105125000Y-37260000D01*
%TO.C,U6*%
X76410000Y-40530000D02*
X76410000Y-45990000D01*
X117170000Y-40530000D02*
X76410000Y-40530000D01*
X117170000Y-53450000D02*
X117170000Y-40530000D01*
X76410000Y-53450000D02*
X117170000Y-53450000D01*
X76410000Y-47990000D02*
X76410000Y-53450000D01*
X76410000Y-45990000D02*
G75*
G02*
X76410000Y-47990000I0J-1000000D01*
G01*
%TO.C,BT1*%
X63000000Y-91705000D02*
X60100000Y-91705000D01*
X63000000Y-84105000D02*
X63000000Y-91705000D01*
X60100000Y-84105000D02*
X63000000Y-84105000D01*
X39000000Y-91805000D02*
X39000000Y-84005000D01*
X39000001Y-84005000D02*
G75*
G02*
X59999999Y-84005001I10499999J-3900000D01*
G01*
X60032370Y-91716715D02*
G75*
G02*
X39000001Y-91804999I-10532370J3811715D01*
G01*
%TO.C,C1*%
X36870000Y-37300000D02*
G75*
G03*
X36870000Y-37300000I-4120000J0D01*
G01*
X32750000Y-33220000D02*
X32750000Y-41380000D01*
X32790000Y-33220000D02*
X32790000Y-41380000D01*
X32830000Y-33220000D02*
X32830000Y-41380000D01*
X32870000Y-33221000D02*
X32870000Y-41379000D01*
X32910000Y-33223000D02*
X32910000Y-41377000D01*
X32950000Y-33224000D02*
X32950000Y-41376000D01*
X32990000Y-33226000D02*
X32990000Y-41374000D01*
X33030000Y-33229000D02*
X33030000Y-41371000D01*
X33070000Y-33232000D02*
X33070000Y-41368000D01*
X33110000Y-33235000D02*
X33110000Y-41365000D01*
X33150000Y-33239000D02*
X33150000Y-41361000D01*
X33190000Y-33243000D02*
X33190000Y-41357000D01*
X33230000Y-33248000D02*
X33230000Y-41352000D01*
X33270000Y-33252000D02*
X33270000Y-41348000D01*
X33310000Y-33258000D02*
X33310000Y-41342000D01*
X33350000Y-33263000D02*
X33350000Y-41337000D01*
X33390000Y-33270000D02*
X33390000Y-41330000D01*
X33430000Y-33276000D02*
X33430000Y-41324000D01*
X33471000Y-33283000D02*
X33471000Y-36260000D01*
X33471000Y-38340000D02*
X33471000Y-41317000D01*
X33511000Y-33290000D02*
X33511000Y-36260000D01*
X33511000Y-38340000D02*
X33511000Y-41310000D01*
X33551000Y-33298000D02*
X33551000Y-36260000D01*
X33551000Y-38340000D02*
X33551000Y-41302000D01*
X33591000Y-33306000D02*
X33591000Y-36260000D01*
X33591000Y-38340000D02*
X33591000Y-41294000D01*
X33631000Y-33315000D02*
X33631000Y-36260000D01*
X33631000Y-38340000D02*
X33631000Y-41285000D01*
X33671000Y-33324000D02*
X33671000Y-36260000D01*
X33671000Y-38340000D02*
X33671000Y-41276000D01*
X33711000Y-33333000D02*
X33711000Y-36260000D01*
X33711000Y-38340000D02*
X33711000Y-41267000D01*
X33751000Y-33343000D02*
X33751000Y-36260000D01*
X33751000Y-38340000D02*
X33751000Y-41257000D01*
X33791000Y-33353000D02*
X33791000Y-36260000D01*
X33791000Y-38340000D02*
X33791000Y-41247000D01*
X33831000Y-33364000D02*
X33831000Y-36260000D01*
X33831000Y-38340000D02*
X33831000Y-41236000D01*
X33871000Y-33375000D02*
X33871000Y-36260000D01*
X33871000Y-38340000D02*
X33871000Y-41225000D01*
X33911000Y-33386000D02*
X33911000Y-36260000D01*
X33911000Y-38340000D02*
X33911000Y-41214000D01*
X33951000Y-33398000D02*
X33951000Y-36260000D01*
X33951000Y-38340000D02*
X33951000Y-41202000D01*
X33991000Y-33411000D02*
X33991000Y-36260000D01*
X33991000Y-38340000D02*
X33991000Y-41189000D01*
X34031000Y-33423000D02*
X34031000Y-36260000D01*
X34031000Y-38340000D02*
X34031000Y-41177000D01*
X34071000Y-33437000D02*
X34071000Y-36260000D01*
X34071000Y-38340000D02*
X34071000Y-41163000D01*
X34111000Y-33450000D02*
X34111000Y-36260000D01*
X34111000Y-38340000D02*
X34111000Y-41150000D01*
X34151000Y-33465000D02*
X34151000Y-36260000D01*
X34151000Y-38340000D02*
X34151000Y-41135000D01*
X34191000Y-33479000D02*
X34191000Y-36260000D01*
X34191000Y-38340000D02*
X34191000Y-41121000D01*
X34231000Y-33495000D02*
X34231000Y-36260000D01*
X34231000Y-38340000D02*
X34231000Y-41105000D01*
X34271000Y-33510000D02*
X34271000Y-36260000D01*
X34271000Y-38340000D02*
X34271000Y-41090000D01*
X34311000Y-33526000D02*
X34311000Y-36260000D01*
X34311000Y-38340000D02*
X34311000Y-41074000D01*
X34351000Y-33543000D02*
X34351000Y-36260000D01*
X34351000Y-38340000D02*
X34351000Y-41057000D01*
X34391000Y-33560000D02*
X34391000Y-36260000D01*
X34391000Y-38340000D02*
X34391000Y-41040000D01*
X34431000Y-33578000D02*
X34431000Y-36260000D01*
X34431000Y-38340000D02*
X34431000Y-41022000D01*
X34471000Y-33596000D02*
X34471000Y-36260000D01*
X34471000Y-38340000D02*
X34471000Y-41004000D01*
X34511000Y-33614000D02*
X34511000Y-36260000D01*
X34511000Y-38340000D02*
X34511000Y-40986000D01*
X34551000Y-33634000D02*
X34551000Y-36260000D01*
X34551000Y-38340000D02*
X34551000Y-40966000D01*
X34591000Y-33653000D02*
X34591000Y-36260000D01*
X34591000Y-38340000D02*
X34591000Y-40947000D01*
X34631000Y-33673000D02*
X34631000Y-36260000D01*
X34631000Y-38340000D02*
X34631000Y-40927000D01*
X34671000Y-33694000D02*
X34671000Y-36260000D01*
X34671000Y-38340000D02*
X34671000Y-40906000D01*
X34711000Y-33716000D02*
X34711000Y-36260000D01*
X34711000Y-38340000D02*
X34711000Y-40884000D01*
X34751000Y-33738000D02*
X34751000Y-36260000D01*
X34751000Y-38340000D02*
X34751000Y-40862000D01*
X34791000Y-33760000D02*
X34791000Y-36260000D01*
X34791000Y-38340000D02*
X34791000Y-40840000D01*
X34831000Y-33783000D02*
X34831000Y-36260000D01*
X34831000Y-38340000D02*
X34831000Y-40817000D01*
X34871000Y-33807000D02*
X34871000Y-36260000D01*
X34871000Y-38340000D02*
X34871000Y-40793000D01*
X34911000Y-33831000D02*
X34911000Y-36260000D01*
X34911000Y-38340000D02*
X34911000Y-40769000D01*
X34951000Y-33856000D02*
X34951000Y-36260000D01*
X34951000Y-38340000D02*
X34951000Y-40744000D01*
X34991000Y-33882000D02*
X34991000Y-36260000D01*
X34991000Y-38340000D02*
X34991000Y-40718000D01*
X35031000Y-33908000D02*
X35031000Y-36260000D01*
X35031000Y-38340000D02*
X35031000Y-40692000D01*
X35071000Y-33935000D02*
X35071000Y-36260000D01*
X35071000Y-38340000D02*
X35071000Y-40665000D01*
X35111000Y-33962000D02*
X35111000Y-36260000D01*
X35111000Y-38340000D02*
X35111000Y-40638000D01*
X35151000Y-33991000D02*
X35151000Y-36260000D01*
X35151000Y-38340000D02*
X35151000Y-40609000D01*
X35191000Y-34020000D02*
X35191000Y-36260000D01*
X35191000Y-38340000D02*
X35191000Y-40580000D01*
X35231000Y-34050000D02*
X35231000Y-36260000D01*
X35231000Y-38340000D02*
X35231000Y-40550000D01*
X35271000Y-34080000D02*
X35271000Y-36260000D01*
X35271000Y-38340000D02*
X35271000Y-40520000D01*
X35311000Y-34111000D02*
X35311000Y-36260000D01*
X35311000Y-38340000D02*
X35311000Y-40489000D01*
X35351000Y-34144000D02*
X35351000Y-36260000D01*
X35351000Y-38340000D02*
X35351000Y-40456000D01*
X35391000Y-34176000D02*
X35391000Y-36260000D01*
X35391000Y-38340000D02*
X35391000Y-40424000D01*
X35431000Y-34210000D02*
X35431000Y-36260000D01*
X35431000Y-38340000D02*
X35431000Y-40390000D01*
X35471000Y-34245000D02*
X35471000Y-36260000D01*
X35471000Y-38340000D02*
X35471000Y-40355000D01*
X35511000Y-34281000D02*
X35511000Y-36260000D01*
X35511000Y-38340000D02*
X35511000Y-40319000D01*
X35551000Y-34317000D02*
X35551000Y-40283000D01*
X35591000Y-34355000D02*
X35591000Y-40245000D01*
X35631000Y-34393000D02*
X35631000Y-40207000D01*
X35671000Y-34433000D02*
X35671000Y-40167000D01*
X35711000Y-34474000D02*
X35711000Y-40126000D01*
X35751000Y-34516000D02*
X35751000Y-40084000D01*
X35791000Y-34559000D02*
X35791000Y-40041000D01*
X35831000Y-34603000D02*
X35831000Y-39997000D01*
X35871000Y-34649000D02*
X35871000Y-39951000D01*
X35911000Y-34696000D02*
X35911000Y-39904000D01*
X35951000Y-34744000D02*
X35951000Y-39856000D01*
X35991000Y-34795000D02*
X35991000Y-39805000D01*
X36031000Y-34846000D02*
X36031000Y-39754000D01*
X36071000Y-34900000D02*
X36071000Y-39700000D01*
X36111000Y-34955000D02*
X36111000Y-39645000D01*
X36151000Y-35013000D02*
X36151000Y-39587000D01*
X36191000Y-35072000D02*
X36191000Y-39528000D01*
X36231000Y-35134000D02*
X36231000Y-39466000D01*
X36271000Y-35198000D02*
X36271000Y-39402000D01*
X36311000Y-35266000D02*
X36311000Y-39334000D01*
X36351000Y-35336000D02*
X36351000Y-39264000D01*
X36391000Y-35410000D02*
X36391000Y-39190000D01*
X36431000Y-35487000D02*
X36431000Y-39113000D01*
X36471000Y-35569000D02*
X36471000Y-39031000D01*
X36511000Y-35655000D02*
X36511000Y-38945000D01*
X36551000Y-35748000D02*
X36551000Y-38852000D01*
X36591000Y-35847000D02*
X36591000Y-38753000D01*
X36631000Y-35954000D02*
X36631000Y-38646000D01*
X36671000Y-36071000D02*
X36671000Y-38529000D01*
X36711000Y-36202000D02*
X36711000Y-38398000D01*
X36751000Y-36352000D02*
X36751000Y-38248000D01*
X36791000Y-36532000D02*
X36791000Y-38068000D01*
X36831000Y-36767000D02*
X36831000Y-37833000D01*
X28340302Y-34985000D02*
X29140302Y-34985000D01*
X28740302Y-34585000D02*
X28740302Y-35385000D01*
%TO.C,C4*%
X36870000Y-28000000D02*
G75*
G03*
X36870000Y-28000000I-4120000J0D01*
G01*
X32750000Y-23920000D02*
X32750000Y-32080000D01*
X32790000Y-23920000D02*
X32790000Y-32080000D01*
X32830000Y-23920000D02*
X32830000Y-32080000D01*
X32870000Y-23921000D02*
X32870000Y-32079000D01*
X32910000Y-23923000D02*
X32910000Y-32077000D01*
X32950000Y-23924000D02*
X32950000Y-32076000D01*
X32990000Y-23926000D02*
X32990000Y-32074000D01*
X33030000Y-23929000D02*
X33030000Y-32071000D01*
X33070000Y-23932000D02*
X33070000Y-32068000D01*
X33110000Y-23935000D02*
X33110000Y-32065000D01*
X33150000Y-23939000D02*
X33150000Y-32061000D01*
X33190000Y-23943000D02*
X33190000Y-32057000D01*
X33230000Y-23948000D02*
X33230000Y-32052000D01*
X33270000Y-23952000D02*
X33270000Y-32048000D01*
X33310000Y-23958000D02*
X33310000Y-32042000D01*
X33350000Y-23963000D02*
X33350000Y-32037000D01*
X33390000Y-23970000D02*
X33390000Y-32030000D01*
X33430000Y-23976000D02*
X33430000Y-32024000D01*
X33471000Y-23983000D02*
X33471000Y-26960000D01*
X33471000Y-29040000D02*
X33471000Y-32017000D01*
X33511000Y-23990000D02*
X33511000Y-26960000D01*
X33511000Y-29040000D02*
X33511000Y-32010000D01*
X33551000Y-23998000D02*
X33551000Y-26960000D01*
X33551000Y-29040000D02*
X33551000Y-32002000D01*
X33591000Y-24006000D02*
X33591000Y-26960000D01*
X33591000Y-29040000D02*
X33591000Y-31994000D01*
X33631000Y-24015000D02*
X33631000Y-26960000D01*
X33631000Y-29040000D02*
X33631000Y-31985000D01*
X33671000Y-24024000D02*
X33671000Y-26960000D01*
X33671000Y-29040000D02*
X33671000Y-31976000D01*
X33711000Y-24033000D02*
X33711000Y-26960000D01*
X33711000Y-29040000D02*
X33711000Y-31967000D01*
X33751000Y-24043000D02*
X33751000Y-26960000D01*
X33751000Y-29040000D02*
X33751000Y-31957000D01*
X33791000Y-24053000D02*
X33791000Y-26960000D01*
X33791000Y-29040000D02*
X33791000Y-31947000D01*
X33831000Y-24064000D02*
X33831000Y-26960000D01*
X33831000Y-29040000D02*
X33831000Y-31936000D01*
X33871000Y-24075000D02*
X33871000Y-26960000D01*
X33871000Y-29040000D02*
X33871000Y-31925000D01*
X33911000Y-24086000D02*
X33911000Y-26960000D01*
X33911000Y-29040000D02*
X33911000Y-31914000D01*
X33951000Y-24098000D02*
X33951000Y-26960000D01*
X33951000Y-29040000D02*
X33951000Y-31902000D01*
X33991000Y-24111000D02*
X33991000Y-26960000D01*
X33991000Y-29040000D02*
X33991000Y-31889000D01*
X34031000Y-24123000D02*
X34031000Y-26960000D01*
X34031000Y-29040000D02*
X34031000Y-31877000D01*
X34071000Y-24137000D02*
X34071000Y-26960000D01*
X34071000Y-29040000D02*
X34071000Y-31863000D01*
X34111000Y-24150000D02*
X34111000Y-26960000D01*
X34111000Y-29040000D02*
X34111000Y-31850000D01*
X34151000Y-24165000D02*
X34151000Y-26960000D01*
X34151000Y-29040000D02*
X34151000Y-31835000D01*
X34191000Y-24179000D02*
X34191000Y-26960000D01*
X34191000Y-29040000D02*
X34191000Y-31821000D01*
X34231000Y-24195000D02*
X34231000Y-26960000D01*
X34231000Y-29040000D02*
X34231000Y-31805000D01*
X34271000Y-24210000D02*
X34271000Y-26960000D01*
X34271000Y-29040000D02*
X34271000Y-31790000D01*
X34311000Y-24226000D02*
X34311000Y-26960000D01*
X34311000Y-29040000D02*
X34311000Y-31774000D01*
X34351000Y-24243000D02*
X34351000Y-26960000D01*
X34351000Y-29040000D02*
X34351000Y-31757000D01*
X34391000Y-24260000D02*
X34391000Y-26960000D01*
X34391000Y-29040000D02*
X34391000Y-31740000D01*
X34431000Y-24278000D02*
X34431000Y-26960000D01*
X34431000Y-29040000D02*
X34431000Y-31722000D01*
X34471000Y-24296000D02*
X34471000Y-26960000D01*
X34471000Y-29040000D02*
X34471000Y-31704000D01*
X34511000Y-24314000D02*
X34511000Y-26960000D01*
X34511000Y-29040000D02*
X34511000Y-31686000D01*
X34551000Y-24334000D02*
X34551000Y-26960000D01*
X34551000Y-29040000D02*
X34551000Y-31666000D01*
X34591000Y-24353000D02*
X34591000Y-26960000D01*
X34591000Y-29040000D02*
X34591000Y-31647000D01*
X34631000Y-24373000D02*
X34631000Y-26960000D01*
X34631000Y-29040000D02*
X34631000Y-31627000D01*
X34671000Y-24394000D02*
X34671000Y-26960000D01*
X34671000Y-29040000D02*
X34671000Y-31606000D01*
X34711000Y-24416000D02*
X34711000Y-26960000D01*
X34711000Y-29040000D02*
X34711000Y-31584000D01*
X34751000Y-24438000D02*
X34751000Y-26960000D01*
X34751000Y-29040000D02*
X34751000Y-31562000D01*
X34791000Y-24460000D02*
X34791000Y-26960000D01*
X34791000Y-29040000D02*
X34791000Y-31540000D01*
X34831000Y-24483000D02*
X34831000Y-26960000D01*
X34831000Y-29040000D02*
X34831000Y-31517000D01*
X34871000Y-24507000D02*
X34871000Y-26960000D01*
X34871000Y-29040000D02*
X34871000Y-31493000D01*
X34911000Y-24531000D02*
X34911000Y-26960000D01*
X34911000Y-29040000D02*
X34911000Y-31469000D01*
X34951000Y-24556000D02*
X34951000Y-26960000D01*
X34951000Y-29040000D02*
X34951000Y-31444000D01*
X34991000Y-24582000D02*
X34991000Y-26960000D01*
X34991000Y-29040000D02*
X34991000Y-31418000D01*
X35031000Y-24608000D02*
X35031000Y-26960000D01*
X35031000Y-29040000D02*
X35031000Y-31392000D01*
X35071000Y-24635000D02*
X35071000Y-26960000D01*
X35071000Y-29040000D02*
X35071000Y-31365000D01*
X35111000Y-24662000D02*
X35111000Y-26960000D01*
X35111000Y-29040000D02*
X35111000Y-31338000D01*
X35151000Y-24691000D02*
X35151000Y-26960000D01*
X35151000Y-29040000D02*
X35151000Y-31309000D01*
X35191000Y-24720000D02*
X35191000Y-26960000D01*
X35191000Y-29040000D02*
X35191000Y-31280000D01*
X35231000Y-24750000D02*
X35231000Y-26960000D01*
X35231000Y-29040000D02*
X35231000Y-31250000D01*
X35271000Y-24780000D02*
X35271000Y-26960000D01*
X35271000Y-29040000D02*
X35271000Y-31220000D01*
X35311000Y-24811000D02*
X35311000Y-26960000D01*
X35311000Y-29040000D02*
X35311000Y-31189000D01*
X35351000Y-24844000D02*
X35351000Y-26960000D01*
X35351000Y-29040000D02*
X35351000Y-31156000D01*
X35391000Y-24876000D02*
X35391000Y-26960000D01*
X35391000Y-29040000D02*
X35391000Y-31124000D01*
X35431000Y-24910000D02*
X35431000Y-26960000D01*
X35431000Y-29040000D02*
X35431000Y-31090000D01*
X35471000Y-24945000D02*
X35471000Y-26960000D01*
X35471000Y-29040000D02*
X35471000Y-31055000D01*
X35511000Y-24981000D02*
X35511000Y-26960000D01*
X35511000Y-29040000D02*
X35511000Y-31019000D01*
X35551000Y-25017000D02*
X35551000Y-30983000D01*
X35591000Y-25055000D02*
X35591000Y-30945000D01*
X35631000Y-25093000D02*
X35631000Y-30907000D01*
X35671000Y-25133000D02*
X35671000Y-30867000D01*
X35711000Y-25174000D02*
X35711000Y-30826000D01*
X35751000Y-25216000D02*
X35751000Y-30784000D01*
X35791000Y-25259000D02*
X35791000Y-30741000D01*
X35831000Y-25303000D02*
X35831000Y-30697000D01*
X35871000Y-25349000D02*
X35871000Y-30651000D01*
X35911000Y-25396000D02*
X35911000Y-30604000D01*
X35951000Y-25444000D02*
X35951000Y-30556000D01*
X35991000Y-25495000D02*
X35991000Y-30505000D01*
X36031000Y-25546000D02*
X36031000Y-30454000D01*
X36071000Y-25600000D02*
X36071000Y-30400000D01*
X36111000Y-25655000D02*
X36111000Y-30345000D01*
X36151000Y-25713000D02*
X36151000Y-30287000D01*
X36191000Y-25772000D02*
X36191000Y-30228000D01*
X36231000Y-25834000D02*
X36231000Y-30166000D01*
X36271000Y-25898000D02*
X36271000Y-30102000D01*
X36311000Y-25966000D02*
X36311000Y-30034000D01*
X36351000Y-26036000D02*
X36351000Y-29964000D01*
X36391000Y-26110000D02*
X36391000Y-29890000D01*
X36431000Y-26187000D02*
X36431000Y-29813000D01*
X36471000Y-26269000D02*
X36471000Y-29731000D01*
X36511000Y-26355000D02*
X36511000Y-29645000D01*
X36551000Y-26448000D02*
X36551000Y-29552000D01*
X36591000Y-26547000D02*
X36591000Y-29453000D01*
X36631000Y-26654000D02*
X36631000Y-29346000D01*
X36671000Y-26771000D02*
X36671000Y-29229000D01*
X36711000Y-26902000D02*
X36711000Y-29098000D01*
X36751000Y-27052000D02*
X36751000Y-28948000D01*
X36791000Y-27232000D02*
X36791000Y-28768000D01*
X36831000Y-27467000D02*
X36831000Y-28533000D01*
X28340302Y-25685000D02*
X29140302Y-25685000D01*
X28740302Y-25285000D02*
X28740302Y-26085000D01*
%TO.C,J5*%
X21210000Y-29270000D02*
X22540000Y-29270000D01*
X21210000Y-30600000D02*
X21210000Y-29270000D01*
X23810000Y-29270000D02*
X26410000Y-29270000D01*
X23810000Y-31870000D02*
X23810000Y-29270000D01*
X21210000Y-31870000D02*
X23810000Y-31870000D01*
X26410000Y-29270000D02*
X26410000Y-39550000D01*
X21210000Y-31870000D02*
X21210000Y-39550000D01*
X21210000Y-39550000D02*
X26410000Y-39550000D01*
%TO.C,J1*%
X21210000Y-110730000D02*
X26410000Y-110730000D01*
X21210000Y-103050000D02*
X21210000Y-110730000D01*
X26410000Y-100450000D02*
X26410000Y-110730000D01*
X21210000Y-103050000D02*
X23810000Y-103050000D01*
X23810000Y-103050000D02*
X23810000Y-100450000D01*
X23810000Y-100450000D02*
X26410000Y-100450000D01*
X21210000Y-101780000D02*
X21210000Y-100450000D01*
X21210000Y-100450000D02*
X22540000Y-100450000D01*
%TO.C,J3*%
X29210000Y-95460000D02*
X34410000Y-95460000D01*
X29210000Y-47140000D02*
X29210000Y-95460000D01*
X34410000Y-44540000D02*
X34410000Y-95460000D01*
X29210000Y-47140000D02*
X31810000Y-47140000D01*
X31810000Y-47140000D02*
X31810000Y-44540000D01*
X31810000Y-44540000D02*
X34410000Y-44540000D01*
X29210000Y-45870000D02*
X29210000Y-44540000D01*
X29210000Y-44540000D02*
X30540000Y-44540000D01*
%TO.C,J2*%
X21210000Y-44540000D02*
X22540000Y-44540000D01*
X21210000Y-45870000D02*
X21210000Y-44540000D01*
X23810000Y-44540000D02*
X26410000Y-44540000D01*
X23810000Y-47140000D02*
X23810000Y-44540000D01*
X21210000Y-47140000D02*
X23810000Y-47140000D01*
X26410000Y-44540000D02*
X26410000Y-95460000D01*
X21210000Y-47140000D02*
X21210000Y-95460000D01*
X21210000Y-95460000D02*
X26410000Y-95460000D01*
%TO.C,Q9*%
D11*
X39274761Y-65277619D02*
X39179523Y-65230000D01*
X39084285Y-65134761D01*
X38941428Y-64991904D01*
X38846190Y-64944285D01*
X38750952Y-64944285D01*
X38798571Y-65182380D02*
X38703333Y-65134761D01*
X38608095Y-65039523D01*
X38560476Y-64849047D01*
X38560476Y-64515714D01*
X38608095Y-64325238D01*
X38703333Y-64230000D01*
X38798571Y-64182380D01*
X38989047Y-64182380D01*
X39084285Y-64230000D01*
X39179523Y-64325238D01*
X39227142Y-64515714D01*
X39227142Y-64849047D01*
X39179523Y-65039523D01*
X39084285Y-65134761D01*
X38989047Y-65182380D01*
X38798571Y-65182380D01*
X39703333Y-65182380D02*
X39893809Y-65182380D01*
X39989047Y-65134761D01*
X40036666Y-65087142D01*
X40131904Y-64944285D01*
X40179523Y-64753809D01*
X40179523Y-64372857D01*
X40131904Y-64277619D01*
X40084285Y-64230000D01*
X39989047Y-64182380D01*
X39798571Y-64182380D01*
X39703333Y-64230000D01*
X39655714Y-64277619D01*
X39608095Y-64372857D01*
X39608095Y-64610952D01*
X39655714Y-64706190D01*
X39703333Y-64753809D01*
X39798571Y-64801428D01*
X39989047Y-64801428D01*
X40084285Y-64753809D01*
X40131904Y-64706190D01*
X40179523Y-64610952D01*
%TO.C,Q8*%
X45735761Y-74421619D02*
X45640523Y-74374000D01*
X45545285Y-74278761D01*
X45402428Y-74135904D01*
X45307190Y-74088285D01*
X45211952Y-74088285D01*
X45259571Y-74326380D02*
X45164333Y-74278761D01*
X45069095Y-74183523D01*
X45021476Y-73993047D01*
X45021476Y-73659714D01*
X45069095Y-73469238D01*
X45164333Y-73374000D01*
X45259571Y-73326380D01*
X45450047Y-73326380D01*
X45545285Y-73374000D01*
X45640523Y-73469238D01*
X45688142Y-73659714D01*
X45688142Y-73993047D01*
X45640523Y-74183523D01*
X45545285Y-74278761D01*
X45450047Y-74326380D01*
X45259571Y-74326380D01*
X46259571Y-73754952D02*
X46164333Y-73707333D01*
X46116714Y-73659714D01*
X46069095Y-73564476D01*
X46069095Y-73516857D01*
X46116714Y-73421619D01*
X46164333Y-73374000D01*
X46259571Y-73326380D01*
X46450047Y-73326380D01*
X46545285Y-73374000D01*
X46592904Y-73421619D01*
X46640523Y-73516857D01*
X46640523Y-73564476D01*
X46592904Y-73659714D01*
X46545285Y-73707333D01*
X46450047Y-73754952D01*
X46259571Y-73754952D01*
X46164333Y-73802571D01*
X46116714Y-73850190D01*
X46069095Y-73945428D01*
X46069095Y-74135904D01*
X46116714Y-74231142D01*
X46164333Y-74278761D01*
X46259571Y-74326380D01*
X46450047Y-74326380D01*
X46545285Y-74278761D01*
X46592904Y-74231142D01*
X46640523Y-74135904D01*
X46640523Y-73945428D01*
X46592904Y-73850190D01*
X46545285Y-73802571D01*
X46450047Y-73754952D01*
%TO.C,Q6*%
X39147761Y-74294619D02*
X39052523Y-74247000D01*
X38957285Y-74151761D01*
X38814428Y-74008904D01*
X38719190Y-73961285D01*
X38623952Y-73961285D01*
X38671571Y-74199380D02*
X38576333Y-74151761D01*
X38481095Y-74056523D01*
X38433476Y-73866047D01*
X38433476Y-73532714D01*
X38481095Y-73342238D01*
X38576333Y-73247000D01*
X38671571Y-73199380D01*
X38862047Y-73199380D01*
X38957285Y-73247000D01*
X39052523Y-73342238D01*
X39100142Y-73532714D01*
X39100142Y-73866047D01*
X39052523Y-74056523D01*
X38957285Y-74151761D01*
X38862047Y-74199380D01*
X38671571Y-74199380D01*
X39957285Y-73199380D02*
X39766809Y-73199380D01*
X39671571Y-73247000D01*
X39623952Y-73294619D01*
X39528714Y-73437476D01*
X39481095Y-73627952D01*
X39481095Y-74008904D01*
X39528714Y-74104142D01*
X39576333Y-74151761D01*
X39671571Y-74199380D01*
X39862047Y-74199380D01*
X39957285Y-74151761D01*
X40004904Y-74104142D01*
X40052523Y-74008904D01*
X40052523Y-73770809D01*
X40004904Y-73675571D01*
X39957285Y-73627952D01*
X39862047Y-73580333D01*
X39671571Y-73580333D01*
X39576333Y-73627952D01*
X39528714Y-73675571D01*
X39481095Y-73770809D01*
%TO.C,U7*%
X64432380Y-28701904D02*
X65241904Y-28701904D01*
X65337142Y-28654285D01*
X65384761Y-28606666D01*
X65432380Y-28511428D01*
X65432380Y-28320952D01*
X65384761Y-28225714D01*
X65337142Y-28178095D01*
X65241904Y-28130476D01*
X64432380Y-28130476D01*
X64432380Y-27749523D02*
X64432380Y-27082857D01*
X65432380Y-27511428D01*
%TO.C,U3*%
X40302380Y-28701904D02*
X41111904Y-28701904D01*
X41207142Y-28654285D01*
X41254761Y-28606666D01*
X41302380Y-28511428D01*
X41302380Y-28320952D01*
X41254761Y-28225714D01*
X41207142Y-28178095D01*
X41111904Y-28130476D01*
X40302380Y-28130476D01*
X40302380Y-27749523D02*
X40302380Y-27130476D01*
X40683333Y-27463809D01*
X40683333Y-27320952D01*
X40730952Y-27225714D01*
X40778571Y-27178095D01*
X40873809Y-27130476D01*
X41111904Y-27130476D01*
X41207142Y-27178095D01*
X41254761Y-27225714D01*
X41302380Y-27320952D01*
X41302380Y-27606666D01*
X41254761Y-27701904D01*
X41207142Y-27749523D01*
%TO.C,J9*%
X45921666Y-110577380D02*
X45921666Y-111291666D01*
X45874047Y-111434523D01*
X45778809Y-111529761D01*
X45635952Y-111577380D01*
X45540714Y-111577380D01*
X46445476Y-111577380D02*
X46635952Y-111577380D01*
X46731190Y-111529761D01*
X46778809Y-111482142D01*
X46874047Y-111339285D01*
X46921666Y-111148809D01*
X46921666Y-110767857D01*
X46874047Y-110672619D01*
X46826428Y-110625000D01*
X46731190Y-110577380D01*
X46540714Y-110577380D01*
X46445476Y-110625000D01*
X46397857Y-110672619D01*
X46350238Y-110767857D01*
X46350238Y-111005952D01*
X46397857Y-111101190D01*
X46445476Y-111148809D01*
X46540714Y-111196428D01*
X46731190Y-111196428D01*
X46826428Y-111148809D01*
X46874047Y-111101190D01*
X46921666Y-111005952D01*
%TO.C,U1*%
X74718095Y-114940380D02*
X74718095Y-115749904D01*
X74765714Y-115845142D01*
X74813333Y-115892761D01*
X74908571Y-115940380D01*
X75099047Y-115940380D01*
X75194285Y-115892761D01*
X75241904Y-115845142D01*
X75289523Y-115749904D01*
X75289523Y-114940380D01*
X76289523Y-115940380D02*
X75718095Y-115940380D01*
X76003809Y-115940380D02*
X76003809Y-114940380D01*
X75908571Y-115083238D01*
X75813333Y-115178476D01*
X75718095Y-115226095D01*
%TO.C,R17*%
X115152380Y-110142857D02*
X114676190Y-110476190D01*
X115152380Y-110714285D02*
X114152380Y-110714285D01*
X114152380Y-110333333D01*
X114200000Y-110238095D01*
X114247619Y-110190476D01*
X114342857Y-110142857D01*
X114485714Y-110142857D01*
X114580952Y-110190476D01*
X114628571Y-110238095D01*
X114676190Y-110333333D01*
X114676190Y-110714285D01*
X115152380Y-109190476D02*
X115152380Y-109761904D01*
X115152380Y-109476190D02*
X114152380Y-109476190D01*
X114295238Y-109571428D01*
X114390476Y-109666666D01*
X114438095Y-109761904D01*
X114152380Y-108857142D02*
X114152380Y-108190476D01*
X115152380Y-108619047D01*
%TO.C,R16*%
X106502380Y-110142857D02*
X106026190Y-110476190D01*
X106502380Y-110714285D02*
X105502380Y-110714285D01*
X105502380Y-110333333D01*
X105550000Y-110238095D01*
X105597619Y-110190476D01*
X105692857Y-110142857D01*
X105835714Y-110142857D01*
X105930952Y-110190476D01*
X105978571Y-110238095D01*
X106026190Y-110333333D01*
X106026190Y-110714285D01*
X106502380Y-109190476D02*
X106502380Y-109761904D01*
X106502380Y-109476190D02*
X105502380Y-109476190D01*
X105645238Y-109571428D01*
X105740476Y-109666666D01*
X105788095Y-109761904D01*
X105502380Y-108333333D02*
X105502380Y-108523809D01*
X105550000Y-108619047D01*
X105597619Y-108666666D01*
X105740476Y-108761904D01*
X105930952Y-108809523D01*
X106311904Y-108809523D01*
X106407142Y-108761904D01*
X106454761Y-108714285D01*
X106502380Y-108619047D01*
X106502380Y-108428571D01*
X106454761Y-108333333D01*
X106407142Y-108285714D01*
X106311904Y-108238095D01*
X106073809Y-108238095D01*
X105978571Y-108285714D01*
X105930952Y-108333333D01*
X105883333Y-108428571D01*
X105883333Y-108619047D01*
X105930952Y-108714285D01*
X105978571Y-108761904D01*
X106073809Y-108809523D01*
%TO.C,R13*%
X115152380Y-104542857D02*
X114676190Y-104876190D01*
X115152380Y-105114285D02*
X114152380Y-105114285D01*
X114152380Y-104733333D01*
X114200000Y-104638095D01*
X114247619Y-104590476D01*
X114342857Y-104542857D01*
X114485714Y-104542857D01*
X114580952Y-104590476D01*
X114628571Y-104638095D01*
X114676190Y-104733333D01*
X114676190Y-105114285D01*
X115152380Y-103590476D02*
X115152380Y-104161904D01*
X115152380Y-103876190D02*
X114152380Y-103876190D01*
X114295238Y-103971428D01*
X114390476Y-104066666D01*
X114438095Y-104161904D01*
X114152380Y-103257142D02*
X114152380Y-102638095D01*
X114533333Y-102971428D01*
X114533333Y-102828571D01*
X114580952Y-102733333D01*
X114628571Y-102685714D01*
X114723809Y-102638095D01*
X114961904Y-102638095D01*
X115057142Y-102685714D01*
X115104761Y-102733333D01*
X115152380Y-102828571D01*
X115152380Y-103114285D01*
X115104761Y-103209523D01*
X115057142Y-103257142D01*
%TO.C,R12*%
X106502380Y-104642857D02*
X106026190Y-104976190D01*
X106502380Y-105214285D02*
X105502380Y-105214285D01*
X105502380Y-104833333D01*
X105550000Y-104738095D01*
X105597619Y-104690476D01*
X105692857Y-104642857D01*
X105835714Y-104642857D01*
X105930952Y-104690476D01*
X105978571Y-104738095D01*
X106026190Y-104833333D01*
X106026190Y-105214285D01*
X106502380Y-103690476D02*
X106502380Y-104261904D01*
X106502380Y-103976190D02*
X105502380Y-103976190D01*
X105645238Y-104071428D01*
X105740476Y-104166666D01*
X105788095Y-104261904D01*
X105597619Y-103309523D02*
X105550000Y-103261904D01*
X105502380Y-103166666D01*
X105502380Y-102928571D01*
X105550000Y-102833333D01*
X105597619Y-102785714D01*
X105692857Y-102738095D01*
X105788095Y-102738095D01*
X105930952Y-102785714D01*
X106502380Y-103357142D01*
X106502380Y-102738095D01*
%TO.C,R8*%
X68725333Y-107382380D02*
X68392000Y-106906190D01*
X68153904Y-107382380D02*
X68153904Y-106382380D01*
X68534857Y-106382380D01*
X68630095Y-106430000D01*
X68677714Y-106477619D01*
X68725333Y-106572857D01*
X68725333Y-106715714D01*
X68677714Y-106810952D01*
X68630095Y-106858571D01*
X68534857Y-106906190D01*
X68153904Y-106906190D01*
X69296761Y-106810952D02*
X69201523Y-106763333D01*
X69153904Y-106715714D01*
X69106285Y-106620476D01*
X69106285Y-106572857D01*
X69153904Y-106477619D01*
X69201523Y-106430000D01*
X69296761Y-106382380D01*
X69487238Y-106382380D01*
X69582476Y-106430000D01*
X69630095Y-106477619D01*
X69677714Y-106572857D01*
X69677714Y-106620476D01*
X69630095Y-106715714D01*
X69582476Y-106763333D01*
X69487238Y-106810952D01*
X69296761Y-106810952D01*
X69201523Y-106858571D01*
X69153904Y-106906190D01*
X69106285Y-107001428D01*
X69106285Y-107191904D01*
X69153904Y-107287142D01*
X69201523Y-107334761D01*
X69296761Y-107382380D01*
X69487238Y-107382380D01*
X69582476Y-107334761D01*
X69630095Y-107287142D01*
X69677714Y-107191904D01*
X69677714Y-107001428D01*
X69630095Y-106906190D01*
X69582476Y-106858571D01*
X69487238Y-106810952D01*
%TO.C,R7*%
X72325333Y-107482380D02*
X71992000Y-107006190D01*
X71753904Y-107482380D02*
X71753904Y-106482380D01*
X72134857Y-106482380D01*
X72230095Y-106530000D01*
X72277714Y-106577619D01*
X72325333Y-106672857D01*
X72325333Y-106815714D01*
X72277714Y-106910952D01*
X72230095Y-106958571D01*
X72134857Y-107006190D01*
X71753904Y-107006190D01*
X72658666Y-106482380D02*
X73325333Y-106482380D01*
X72896761Y-107482380D01*
%TO.C,R6*%
X72425333Y-101420380D02*
X72092000Y-100944190D01*
X71853904Y-101420380D02*
X71853904Y-100420380D01*
X72234857Y-100420380D01*
X72330095Y-100468000D01*
X72377714Y-100515619D01*
X72425333Y-100610857D01*
X72425333Y-100753714D01*
X72377714Y-100848952D01*
X72330095Y-100896571D01*
X72234857Y-100944190D01*
X71853904Y-100944190D01*
X73282476Y-100420380D02*
X73092000Y-100420380D01*
X72996761Y-100468000D01*
X72949142Y-100515619D01*
X72853904Y-100658476D01*
X72806285Y-100848952D01*
X72806285Y-101229904D01*
X72853904Y-101325142D01*
X72901523Y-101372761D01*
X72996761Y-101420380D01*
X73187238Y-101420380D01*
X73282476Y-101372761D01*
X73330095Y-101325142D01*
X73377714Y-101229904D01*
X73377714Y-100991809D01*
X73330095Y-100896571D01*
X73282476Y-100848952D01*
X73187238Y-100801333D01*
X72996761Y-100801333D01*
X72901523Y-100848952D01*
X72853904Y-100896571D01*
X72806285Y-100991809D01*
%TO.C,R5*%
X68925333Y-101320380D02*
X68592000Y-100844190D01*
X68353904Y-101320380D02*
X68353904Y-100320380D01*
X68734857Y-100320380D01*
X68830095Y-100368000D01*
X68877714Y-100415619D01*
X68925333Y-100510857D01*
X68925333Y-100653714D01*
X68877714Y-100748952D01*
X68830095Y-100796571D01*
X68734857Y-100844190D01*
X68353904Y-100844190D01*
X69830095Y-100320380D02*
X69353904Y-100320380D01*
X69306285Y-100796571D01*
X69353904Y-100748952D01*
X69449142Y-100701333D01*
X69687238Y-100701333D01*
X69782476Y-100748952D01*
X69830095Y-100796571D01*
X69877714Y-100891809D01*
X69877714Y-101129904D01*
X69830095Y-101225142D01*
X69782476Y-101272761D01*
X69687238Y-101320380D01*
X69449142Y-101320380D01*
X69353904Y-101272761D01*
X69306285Y-101225142D01*
%TO.C,R4*%
X63325333Y-107382380D02*
X62992000Y-106906190D01*
X62753904Y-107382380D02*
X62753904Y-106382380D01*
X63134857Y-106382380D01*
X63230095Y-106430000D01*
X63277714Y-106477619D01*
X63325333Y-106572857D01*
X63325333Y-106715714D01*
X63277714Y-106810952D01*
X63230095Y-106858571D01*
X63134857Y-106906190D01*
X62753904Y-106906190D01*
X64182476Y-106715714D02*
X64182476Y-107382380D01*
X63944380Y-106334761D02*
X63706285Y-107049047D01*
X64325333Y-107049047D01*
%TO.C,R3*%
X77825333Y-107482380D02*
X77492000Y-107006190D01*
X77253904Y-107482380D02*
X77253904Y-106482380D01*
X77634857Y-106482380D01*
X77730095Y-106530000D01*
X77777714Y-106577619D01*
X77825333Y-106672857D01*
X77825333Y-106815714D01*
X77777714Y-106910952D01*
X77730095Y-106958571D01*
X77634857Y-107006190D01*
X77253904Y-107006190D01*
X78158666Y-106482380D02*
X78777714Y-106482380D01*
X78444380Y-106863333D01*
X78587238Y-106863333D01*
X78682476Y-106910952D01*
X78730095Y-106958571D01*
X78777714Y-107053809D01*
X78777714Y-107291904D01*
X78730095Y-107387142D01*
X78682476Y-107434761D01*
X78587238Y-107482380D01*
X78301523Y-107482380D01*
X78206285Y-107434761D01*
X78158666Y-107387142D01*
%TO.C,R2*%
X78425333Y-101420380D02*
X78092000Y-100944190D01*
X77853904Y-101420380D02*
X77853904Y-100420380D01*
X78234857Y-100420380D01*
X78330095Y-100468000D01*
X78377714Y-100515619D01*
X78425333Y-100610857D01*
X78425333Y-100753714D01*
X78377714Y-100848952D01*
X78330095Y-100896571D01*
X78234857Y-100944190D01*
X77853904Y-100944190D01*
X78806285Y-100515619D02*
X78853904Y-100468000D01*
X78949142Y-100420380D01*
X79187238Y-100420380D01*
X79282476Y-100468000D01*
X79330095Y-100515619D01*
X79377714Y-100610857D01*
X79377714Y-100706095D01*
X79330095Y-100848952D01*
X78758666Y-101420380D01*
X79377714Y-101420380D01*
%TO.C,R1*%
X63025333Y-101320380D02*
X62692000Y-100844190D01*
X62453904Y-101320380D02*
X62453904Y-100320380D01*
X62834857Y-100320380D01*
X62930095Y-100368000D01*
X62977714Y-100415619D01*
X63025333Y-100510857D01*
X63025333Y-100653714D01*
X62977714Y-100748952D01*
X62930095Y-100796571D01*
X62834857Y-100844190D01*
X62453904Y-100844190D01*
X63977714Y-101320380D02*
X63406285Y-101320380D01*
X63692000Y-101320380D02*
X63692000Y-100320380D01*
X63596761Y-100463238D01*
X63501523Y-100558476D01*
X63406285Y-100606095D01*
%TO.C,Q7*%
X110304761Y-112547619D02*
X110209523Y-112500000D01*
X110114285Y-112404761D01*
X109971428Y-112261904D01*
X109876190Y-112214285D01*
X109780952Y-112214285D01*
X109828571Y-112452380D02*
X109733333Y-112404761D01*
X109638095Y-112309523D01*
X109590476Y-112119047D01*
X109590476Y-111785714D01*
X109638095Y-111595238D01*
X109733333Y-111500000D01*
X109828571Y-111452380D01*
X110019047Y-111452380D01*
X110114285Y-111500000D01*
X110209523Y-111595238D01*
X110257142Y-111785714D01*
X110257142Y-112119047D01*
X110209523Y-112309523D01*
X110114285Y-112404761D01*
X110019047Y-112452380D01*
X109828571Y-112452380D01*
X110590476Y-111452380D02*
X111257142Y-111452380D01*
X110828571Y-112452380D01*
%TO.C,Q5*%
X110304761Y-107047619D02*
X110209523Y-107000000D01*
X110114285Y-106904761D01*
X109971428Y-106761904D01*
X109876190Y-106714285D01*
X109780952Y-106714285D01*
X109828571Y-106952380D02*
X109733333Y-106904761D01*
X109638095Y-106809523D01*
X109590476Y-106619047D01*
X109590476Y-106285714D01*
X109638095Y-106095238D01*
X109733333Y-106000000D01*
X109828571Y-105952380D01*
X110019047Y-105952380D01*
X110114285Y-106000000D01*
X110209523Y-106095238D01*
X110257142Y-106285714D01*
X110257142Y-106619047D01*
X110209523Y-106809523D01*
X110114285Y-106904761D01*
X110019047Y-106952380D01*
X109828571Y-106952380D01*
X111161904Y-105952380D02*
X110685714Y-105952380D01*
X110638095Y-106428571D01*
X110685714Y-106380952D01*
X110780952Y-106333333D01*
X111019047Y-106333333D01*
X111114285Y-106380952D01*
X111161904Y-106428571D01*
X111209523Y-106523809D01*
X111209523Y-106761904D01*
X111161904Y-106857142D01*
X111114285Y-106904761D01*
X111019047Y-106952380D01*
X110780952Y-106952380D01*
X110685714Y-106904761D01*
X110638095Y-106857142D01*
%TO.C,Q4*%
X66146761Y-107277619D02*
X66051523Y-107230000D01*
X65956285Y-107134761D01*
X65813428Y-106991904D01*
X65718190Y-106944285D01*
X65622952Y-106944285D01*
X65670571Y-107182380D02*
X65575333Y-107134761D01*
X65480095Y-107039523D01*
X65432476Y-106849047D01*
X65432476Y-106515714D01*
X65480095Y-106325238D01*
X65575333Y-106230000D01*
X65670571Y-106182380D01*
X65861047Y-106182380D01*
X65956285Y-106230000D01*
X66051523Y-106325238D01*
X66099142Y-106515714D01*
X66099142Y-106849047D01*
X66051523Y-107039523D01*
X65956285Y-107134761D01*
X65861047Y-107182380D01*
X65670571Y-107182380D01*
X66956285Y-106515714D02*
X66956285Y-107182380D01*
X66718190Y-106134761D02*
X66480095Y-106849047D01*
X67099142Y-106849047D01*
%TO.C,Q3*%
X75396761Y-107377619D02*
X75301523Y-107330000D01*
X75206285Y-107234761D01*
X75063428Y-107091904D01*
X74968190Y-107044285D01*
X74872952Y-107044285D01*
X74920571Y-107282380D02*
X74825333Y-107234761D01*
X74730095Y-107139523D01*
X74682476Y-106949047D01*
X74682476Y-106615714D01*
X74730095Y-106425238D01*
X74825333Y-106330000D01*
X74920571Y-106282380D01*
X75111047Y-106282380D01*
X75206285Y-106330000D01*
X75301523Y-106425238D01*
X75349142Y-106615714D01*
X75349142Y-106949047D01*
X75301523Y-107139523D01*
X75206285Y-107234761D01*
X75111047Y-107282380D01*
X74920571Y-107282380D01*
X75682476Y-106282380D02*
X76301523Y-106282380D01*
X75968190Y-106663333D01*
X76111047Y-106663333D01*
X76206285Y-106710952D01*
X76253904Y-106758571D01*
X76301523Y-106853809D01*
X76301523Y-107091904D01*
X76253904Y-107187142D01*
X76206285Y-107234761D01*
X76111047Y-107282380D01*
X75825333Y-107282380D01*
X75730095Y-107234761D01*
X75682476Y-107187142D01*
%TO.C,Q2*%
X76496761Y-101415619D02*
X76401523Y-101368000D01*
X76306285Y-101272761D01*
X76163428Y-101129904D01*
X76068190Y-101082285D01*
X75972952Y-101082285D01*
X76020571Y-101320380D02*
X75925333Y-101272761D01*
X75830095Y-101177523D01*
X75782476Y-100987047D01*
X75782476Y-100653714D01*
X75830095Y-100463238D01*
X75925333Y-100368000D01*
X76020571Y-100320380D01*
X76211047Y-100320380D01*
X76306285Y-100368000D01*
X76401523Y-100463238D01*
X76449142Y-100653714D01*
X76449142Y-100987047D01*
X76401523Y-101177523D01*
X76306285Y-101272761D01*
X76211047Y-101320380D01*
X76020571Y-101320380D01*
X76830095Y-100415619D02*
X76877714Y-100368000D01*
X76972952Y-100320380D01*
X77211047Y-100320380D01*
X77306285Y-100368000D01*
X77353904Y-100415619D01*
X77401523Y-100510857D01*
X77401523Y-100606095D01*
X77353904Y-100748952D01*
X76782476Y-101320380D01*
X77401523Y-101320380D01*
%TO.C,Q1*%
X64996761Y-101315619D02*
X64901523Y-101268000D01*
X64806285Y-101172761D01*
X64663428Y-101029904D01*
X64568190Y-100982285D01*
X64472952Y-100982285D01*
X64520571Y-101220380D02*
X64425333Y-101172761D01*
X64330095Y-101077523D01*
X64282476Y-100887047D01*
X64282476Y-100553714D01*
X64330095Y-100363238D01*
X64425333Y-100268000D01*
X64520571Y-100220380D01*
X64711047Y-100220380D01*
X64806285Y-100268000D01*
X64901523Y-100363238D01*
X64949142Y-100553714D01*
X64949142Y-100887047D01*
X64901523Y-101077523D01*
X64806285Y-101172761D01*
X64711047Y-101220380D01*
X64520571Y-101220380D01*
X65901523Y-101220380D02*
X65330095Y-101220380D01*
X65615809Y-101220380D02*
X65615809Y-100220380D01*
X65520571Y-100363238D01*
X65425333Y-100458476D01*
X65330095Y-100506095D01*
%TO.C,J4*%
X117776666Y-112272380D02*
X117776666Y-112986666D01*
X117729047Y-113129523D01*
X117633809Y-113224761D01*
X117490952Y-113272380D01*
X117395714Y-113272380D01*
X118681428Y-112605714D02*
X118681428Y-113272380D01*
X118443333Y-112224761D02*
X118205238Y-112939047D01*
X118824285Y-112939047D01*
%TO.C,C8*%
X67563333Y-112495142D02*
X67515714Y-112542761D01*
X67372857Y-112590380D01*
X67277619Y-112590380D01*
X67134761Y-112542761D01*
X67039523Y-112447523D01*
X66991904Y-112352285D01*
X66944285Y-112161809D01*
X66944285Y-112018952D01*
X66991904Y-111828476D01*
X67039523Y-111733238D01*
X67134761Y-111638000D01*
X67277619Y-111590380D01*
X67372857Y-111590380D01*
X67515714Y-111638000D01*
X67563333Y-111685619D01*
X68134761Y-112018952D02*
X68039523Y-111971333D01*
X67991904Y-111923714D01*
X67944285Y-111828476D01*
X67944285Y-111780857D01*
X67991904Y-111685619D01*
X68039523Y-111638000D01*
X68134761Y-111590380D01*
X68325238Y-111590380D01*
X68420476Y-111638000D01*
X68468095Y-111685619D01*
X68515714Y-111780857D01*
X68515714Y-111828476D01*
X68468095Y-111923714D01*
X68420476Y-111971333D01*
X68325238Y-112018952D01*
X68134761Y-112018952D01*
X68039523Y-112066571D01*
X67991904Y-112114190D01*
X67944285Y-112209428D01*
X67944285Y-112399904D01*
X67991904Y-112495142D01*
X68039523Y-112542761D01*
X68134761Y-112590380D01*
X68325238Y-112590380D01*
X68420476Y-112542761D01*
X68468095Y-112495142D01*
X68515714Y-112399904D01*
X68515714Y-112209428D01*
X68468095Y-112114190D01*
X68420476Y-112066571D01*
X68325238Y-112018952D01*
%TO.C,C7*%
X63363333Y-114895142D02*
X63315714Y-114942761D01*
X63172857Y-114990380D01*
X63077619Y-114990380D01*
X62934761Y-114942761D01*
X62839523Y-114847523D01*
X62791904Y-114752285D01*
X62744285Y-114561809D01*
X62744285Y-114418952D01*
X62791904Y-114228476D01*
X62839523Y-114133238D01*
X62934761Y-114038000D01*
X63077619Y-113990380D01*
X63172857Y-113990380D01*
X63315714Y-114038000D01*
X63363333Y-114085619D01*
X63696666Y-113990380D02*
X64363333Y-113990380D01*
X63934761Y-114990380D01*
%TO.C,C6*%
X69563333Y-112495142D02*
X69515714Y-112542761D01*
X69372857Y-112590380D01*
X69277619Y-112590380D01*
X69134761Y-112542761D01*
X69039523Y-112447523D01*
X68991904Y-112352285D01*
X68944285Y-112161809D01*
X68944285Y-112018952D01*
X68991904Y-111828476D01*
X69039523Y-111733238D01*
X69134761Y-111638000D01*
X69277619Y-111590380D01*
X69372857Y-111590380D01*
X69515714Y-111638000D01*
X69563333Y-111685619D01*
X70420476Y-111590380D02*
X70230000Y-111590380D01*
X70134761Y-111638000D01*
X70087142Y-111685619D01*
X69991904Y-111828476D01*
X69944285Y-112018952D01*
X69944285Y-112399904D01*
X69991904Y-112495142D01*
X70039523Y-112542761D01*
X70134761Y-112590380D01*
X70325238Y-112590380D01*
X70420476Y-112542761D01*
X70468095Y-112495142D01*
X70515714Y-112399904D01*
X70515714Y-112161809D01*
X70468095Y-112066571D01*
X70420476Y-112018952D01*
X70325238Y-111971333D01*
X70134761Y-111971333D01*
X70039523Y-112018952D01*
X69991904Y-112066571D01*
X69944285Y-112161809D01*
%TO.C,C5*%
X65363333Y-114895142D02*
X65315714Y-114942761D01*
X65172857Y-114990380D01*
X65077619Y-114990380D01*
X64934761Y-114942761D01*
X64839523Y-114847523D01*
X64791904Y-114752285D01*
X64744285Y-114561809D01*
X64744285Y-114418952D01*
X64791904Y-114228476D01*
X64839523Y-114133238D01*
X64934761Y-114038000D01*
X65077619Y-113990380D01*
X65172857Y-113990380D01*
X65315714Y-114038000D01*
X65363333Y-114085619D01*
X66268095Y-113990380D02*
X65791904Y-113990380D01*
X65744285Y-114466571D01*
X65791904Y-114418952D01*
X65887142Y-114371333D01*
X66125238Y-114371333D01*
X66220476Y-114418952D01*
X66268095Y-114466571D01*
X66315714Y-114561809D01*
X66315714Y-114799904D01*
X66268095Y-114895142D01*
X66220476Y-114942761D01*
X66125238Y-114990380D01*
X65887142Y-114990380D01*
X65791904Y-114942761D01*
X65744285Y-114895142D01*
%TO.C,Y2*%
X96651809Y-101276190D02*
X96651809Y-101752380D01*
X96318476Y-100752380D02*
X96651809Y-101276190D01*
X96985142Y-100752380D01*
X97270857Y-100847619D02*
X97318476Y-100800000D01*
X97413714Y-100752380D01*
X97651809Y-100752380D01*
X97747047Y-100800000D01*
X97794666Y-100847619D01*
X97842285Y-100942857D01*
X97842285Y-101038095D01*
X97794666Y-101180952D01*
X97223238Y-101752380D01*
X97842285Y-101752380D01*
%TO.C,U9*%
X97552380Y-110061904D02*
X98361904Y-110061904D01*
X98457142Y-110014285D01*
X98504761Y-109966666D01*
X98552380Y-109871428D01*
X98552380Y-109680952D01*
X98504761Y-109585714D01*
X98457142Y-109538095D01*
X98361904Y-109490476D01*
X97552380Y-109490476D01*
X98552380Y-108966666D02*
X98552380Y-108776190D01*
X98504761Y-108680952D01*
X98457142Y-108633333D01*
X98314285Y-108538095D01*
X98123809Y-108490476D01*
X97742857Y-108490476D01*
X97647619Y-108538095D01*
X97600000Y-108585714D01*
X97552380Y-108680952D01*
X97552380Y-108871428D01*
X97600000Y-108966666D01*
X97647619Y-109014285D01*
X97742857Y-109061904D01*
X97980952Y-109061904D01*
X98076190Y-109014285D01*
X98123809Y-108966666D01*
X98171428Y-108871428D01*
X98171428Y-108680952D01*
X98123809Y-108585714D01*
X98076190Y-108538095D01*
X97980952Y-108490476D01*
%TO.C,J8*%
X107446380Y-93043333D02*
X108160666Y-93043333D01*
X108303523Y-93090952D01*
X108398761Y-93186190D01*
X108446380Y-93329047D01*
X108446380Y-93424285D01*
X107874952Y-92424285D02*
X107827333Y-92519523D01*
X107779714Y-92567142D01*
X107684476Y-92614761D01*
X107636857Y-92614761D01*
X107541619Y-92567142D01*
X107494000Y-92519523D01*
X107446380Y-92424285D01*
X107446380Y-92233809D01*
X107494000Y-92138571D01*
X107541619Y-92090952D01*
X107636857Y-92043333D01*
X107684476Y-92043333D01*
X107779714Y-92090952D01*
X107827333Y-92138571D01*
X107874952Y-92233809D01*
X107874952Y-92424285D01*
X107922571Y-92519523D01*
X107970190Y-92567142D01*
X108065428Y-92614761D01*
X108255904Y-92614761D01*
X108351142Y-92567142D01*
X108398761Y-92519523D01*
X108446380Y-92424285D01*
X108446380Y-92233809D01*
X108398761Y-92138571D01*
X108351142Y-92090952D01*
X108255904Y-92043333D01*
X108065428Y-92043333D01*
X107970190Y-92090952D01*
X107922571Y-92138571D01*
X107874952Y-92233809D01*
%TO.C,J6*%
X81452380Y-113233333D02*
X82166666Y-113233333D01*
X82309523Y-113280952D01*
X82404761Y-113376190D01*
X82452380Y-113519047D01*
X82452380Y-113614285D01*
X81452380Y-112328571D02*
X81452380Y-112519047D01*
X81500000Y-112614285D01*
X81547619Y-112661904D01*
X81690476Y-112757142D01*
X81880952Y-112804761D01*
X82261904Y-112804761D01*
X82357142Y-112757142D01*
X82404761Y-112709523D01*
X82452380Y-112614285D01*
X82452380Y-112423809D01*
X82404761Y-112328571D01*
X82357142Y-112280952D01*
X82261904Y-112233333D01*
X82023809Y-112233333D01*
X81928571Y-112280952D01*
X81880952Y-112328571D01*
X81833333Y-112423809D01*
X81833333Y-112614285D01*
X81880952Y-112709523D01*
X81928571Y-112757142D01*
X82023809Y-112804761D01*
%TO.C,D2*%
X87154380Y-107672095D02*
X86154380Y-107672095D01*
X86154380Y-107434000D01*
X86202000Y-107291142D01*
X86297238Y-107195904D01*
X86392476Y-107148285D01*
X86582952Y-107100666D01*
X86725809Y-107100666D01*
X86916285Y-107148285D01*
X87011523Y-107195904D01*
X87106761Y-107291142D01*
X87154380Y-107434000D01*
X87154380Y-107672095D01*
X86249619Y-106719714D02*
X86202000Y-106672095D01*
X86154380Y-106576857D01*
X86154380Y-106338761D01*
X86202000Y-106243523D01*
X86249619Y-106195904D01*
X86344857Y-106148285D01*
X86440095Y-106148285D01*
X86582952Y-106195904D01*
X87154380Y-106767333D01*
X87154380Y-106148285D01*
%TO.C,C17*%
X103357142Y-109542857D02*
X103404761Y-109590476D01*
X103452380Y-109733333D01*
X103452380Y-109828571D01*
X103404761Y-109971428D01*
X103309523Y-110066666D01*
X103214285Y-110114285D01*
X103023809Y-110161904D01*
X102880952Y-110161904D01*
X102690476Y-110114285D01*
X102595238Y-110066666D01*
X102500000Y-109971428D01*
X102452380Y-109828571D01*
X102452380Y-109733333D01*
X102500000Y-109590476D01*
X102547619Y-109542857D01*
X103452380Y-108590476D02*
X103452380Y-109161904D01*
X103452380Y-108876190D02*
X102452380Y-108876190D01*
X102595238Y-108971428D01*
X102690476Y-109066666D01*
X102738095Y-109161904D01*
X102452380Y-108257142D02*
X102452380Y-107590476D01*
X103452380Y-108019047D01*
%TO.C,C16*%
X100357142Y-116357142D02*
X100309523Y-116404761D01*
X100166666Y-116452380D01*
X100071428Y-116452380D01*
X99928571Y-116404761D01*
X99833333Y-116309523D01*
X99785714Y-116214285D01*
X99738095Y-116023809D01*
X99738095Y-115880952D01*
X99785714Y-115690476D01*
X99833333Y-115595238D01*
X99928571Y-115500000D01*
X100071428Y-115452380D01*
X100166666Y-115452380D01*
X100309523Y-115500000D01*
X100357142Y-115547619D01*
X101309523Y-116452380D02*
X100738095Y-116452380D01*
X101023809Y-116452380D02*
X101023809Y-115452380D01*
X100928571Y-115595238D01*
X100833333Y-115690476D01*
X100738095Y-115738095D01*
X102166666Y-115452380D02*
X101976190Y-115452380D01*
X101880952Y-115500000D01*
X101833333Y-115547619D01*
X101738095Y-115690476D01*
X101690476Y-115880952D01*
X101690476Y-116261904D01*
X101738095Y-116357142D01*
X101785714Y-116404761D01*
X101880952Y-116452380D01*
X102071428Y-116452380D01*
X102166666Y-116404761D01*
X102214285Y-116357142D01*
X102261904Y-116261904D01*
X102261904Y-116023809D01*
X102214285Y-115928571D01*
X102166666Y-115880952D01*
X102071428Y-115833333D01*
X101880952Y-115833333D01*
X101785714Y-115880952D01*
X101738095Y-115928571D01*
X101690476Y-116023809D01*
%TO.C,C15*%
X100357142Y-118457142D02*
X100309523Y-118504761D01*
X100166666Y-118552380D01*
X100071428Y-118552380D01*
X99928571Y-118504761D01*
X99833333Y-118409523D01*
X99785714Y-118314285D01*
X99738095Y-118123809D01*
X99738095Y-117980952D01*
X99785714Y-117790476D01*
X99833333Y-117695238D01*
X99928571Y-117600000D01*
X100071428Y-117552380D01*
X100166666Y-117552380D01*
X100309523Y-117600000D01*
X100357142Y-117647619D01*
X101309523Y-118552380D02*
X100738095Y-118552380D01*
X101023809Y-118552380D02*
X101023809Y-117552380D01*
X100928571Y-117695238D01*
X100833333Y-117790476D01*
X100738095Y-117838095D01*
X102214285Y-117552380D02*
X101738095Y-117552380D01*
X101690476Y-118028571D01*
X101738095Y-117980952D01*
X101833333Y-117933333D01*
X102071428Y-117933333D01*
X102166666Y-117980952D01*
X102214285Y-118028571D01*
X102261904Y-118123809D01*
X102261904Y-118361904D01*
X102214285Y-118457142D01*
X102166666Y-118504761D01*
X102071428Y-118552380D01*
X101833333Y-118552380D01*
X101738095Y-118504761D01*
X101690476Y-118457142D01*
%TO.C,U4*%
X64702380Y-89661904D02*
X65511904Y-89661904D01*
X65607142Y-89614285D01*
X65654761Y-89566666D01*
X65702380Y-89471428D01*
X65702380Y-89280952D01*
X65654761Y-89185714D01*
X65607142Y-89138095D01*
X65511904Y-89090476D01*
X64702380Y-89090476D01*
X65035714Y-88185714D02*
X65702380Y-88185714D01*
X64654761Y-88423809D02*
X65369047Y-88661904D01*
X65369047Y-88042857D01*
%TO.C,U5*%
X117622380Y-68706904D02*
X118431904Y-68706904D01*
X118527142Y-68659285D01*
X118574761Y-68611666D01*
X118622380Y-68516428D01*
X118622380Y-68325952D01*
X118574761Y-68230714D01*
X118527142Y-68183095D01*
X118431904Y-68135476D01*
X117622380Y-68135476D01*
X117622380Y-67183095D02*
X117622380Y-67659285D01*
X118098571Y-67706904D01*
X118050952Y-67659285D01*
X118003333Y-67564047D01*
X118003333Y-67325952D01*
X118050952Y-67230714D01*
X118098571Y-67183095D01*
X118193809Y-67135476D01*
X118431904Y-67135476D01*
X118527142Y-67183095D01*
X118574761Y-67230714D01*
X118622380Y-67325952D01*
X118622380Y-67564047D01*
X118574761Y-67659285D01*
X118527142Y-67706904D01*
%TO.C,U8*%
X71632380Y-45211904D02*
X72441904Y-45211904D01*
X72537142Y-45164285D01*
X72584761Y-45116666D01*
X72632380Y-45021428D01*
X72632380Y-44830952D01*
X72584761Y-44735714D01*
X72537142Y-44688095D01*
X72441904Y-44640476D01*
X71632380Y-44640476D01*
X72060952Y-44021428D02*
X72013333Y-44116666D01*
X71965714Y-44164285D01*
X71870476Y-44211904D01*
X71822857Y-44211904D01*
X71727619Y-44164285D01*
X71680000Y-44116666D01*
X71632380Y-44021428D01*
X71632380Y-43830952D01*
X71680000Y-43735714D01*
X71727619Y-43688095D01*
X71822857Y-43640476D01*
X71870476Y-43640476D01*
X71965714Y-43688095D01*
X72013333Y-43735714D01*
X72060952Y-43830952D01*
X72060952Y-44021428D01*
X72108571Y-44116666D01*
X72156190Y-44164285D01*
X72251428Y-44211904D01*
X72441904Y-44211904D01*
X72537142Y-44164285D01*
X72584761Y-44116666D01*
X72632380Y-44021428D01*
X72632380Y-43830952D01*
X72584761Y-43735714D01*
X72537142Y-43688095D01*
X72441904Y-43640476D01*
X72251428Y-43640476D01*
X72156190Y-43688095D01*
X72108571Y-43735714D01*
X72060952Y-43830952D01*
%TO.C,R18*%
X48529642Y-74238380D02*
X48196309Y-73762190D01*
X47958214Y-74238380D02*
X47958214Y-73238380D01*
X48339166Y-73238380D01*
X48434404Y-73286000D01*
X48482023Y-73333619D01*
X48529642Y-73428857D01*
X48529642Y-73571714D01*
X48482023Y-73666952D01*
X48434404Y-73714571D01*
X48339166Y-73762190D01*
X47958214Y-73762190D01*
X49482023Y-74238380D02*
X48910595Y-74238380D01*
X49196309Y-74238380D02*
X49196309Y-73238380D01*
X49101071Y-73381238D01*
X49005833Y-73476476D01*
X48910595Y-73524095D01*
X50053452Y-73666952D02*
X49958214Y-73619333D01*
X49910595Y-73571714D01*
X49862976Y-73476476D01*
X49862976Y-73428857D01*
X49910595Y-73333619D01*
X49958214Y-73286000D01*
X50053452Y-73238380D01*
X50243928Y-73238380D01*
X50339166Y-73286000D01*
X50386785Y-73333619D01*
X50434404Y-73428857D01*
X50434404Y-73476476D01*
X50386785Y-73571714D01*
X50339166Y-73619333D01*
X50243928Y-73666952D01*
X50053452Y-73666952D01*
X49958214Y-73714571D01*
X49910595Y-73762190D01*
X49862976Y-73857428D01*
X49862976Y-74047904D01*
X49910595Y-74143142D01*
X49958214Y-74190761D01*
X50053452Y-74238380D01*
X50243928Y-74238380D01*
X50339166Y-74190761D01*
X50386785Y-74143142D01*
X50434404Y-74047904D01*
X50434404Y-73857428D01*
X50386785Y-73762190D01*
X50339166Y-73714571D01*
X50243928Y-73666952D01*
%TO.C,R15*%
X41902142Y-74365380D02*
X41568809Y-73889190D01*
X41330714Y-74365380D02*
X41330714Y-73365380D01*
X41711666Y-73365380D01*
X41806904Y-73413000D01*
X41854523Y-73460619D01*
X41902142Y-73555857D01*
X41902142Y-73698714D01*
X41854523Y-73793952D01*
X41806904Y-73841571D01*
X41711666Y-73889190D01*
X41330714Y-73889190D01*
X42854523Y-74365380D02*
X42283095Y-74365380D01*
X42568809Y-74365380D02*
X42568809Y-73365380D01*
X42473571Y-73508238D01*
X42378333Y-73603476D01*
X42283095Y-73651095D01*
X43759285Y-73365380D02*
X43283095Y-73365380D01*
X43235476Y-73841571D01*
X43283095Y-73793952D01*
X43378333Y-73746333D01*
X43616428Y-73746333D01*
X43711666Y-73793952D01*
X43759285Y-73841571D01*
X43806904Y-73936809D01*
X43806904Y-74174904D01*
X43759285Y-74270142D01*
X43711666Y-74317761D01*
X43616428Y-74365380D01*
X43378333Y-74365380D01*
X43283095Y-74317761D01*
X43235476Y-74270142D01*
%TO.C,R14*%
X41878642Y-72206380D02*
X41545309Y-71730190D01*
X41307214Y-72206380D02*
X41307214Y-71206380D01*
X41688166Y-71206380D01*
X41783404Y-71254000D01*
X41831023Y-71301619D01*
X41878642Y-71396857D01*
X41878642Y-71539714D01*
X41831023Y-71634952D01*
X41783404Y-71682571D01*
X41688166Y-71730190D01*
X41307214Y-71730190D01*
X42831023Y-72206380D02*
X42259595Y-72206380D01*
X42545309Y-72206380D02*
X42545309Y-71206380D01*
X42450071Y-71349238D01*
X42354833Y-71444476D01*
X42259595Y-71492095D01*
X43688166Y-71539714D02*
X43688166Y-72206380D01*
X43450071Y-71158761D02*
X43211976Y-71873047D01*
X43831023Y-71873047D01*
%TO.C,R19*%
X42283142Y-61921380D02*
X41949809Y-61445190D01*
X41711714Y-61921380D02*
X41711714Y-60921380D01*
X42092666Y-60921380D01*
X42187904Y-60969000D01*
X42235523Y-61016619D01*
X42283142Y-61111857D01*
X42283142Y-61254714D01*
X42235523Y-61349952D01*
X42187904Y-61397571D01*
X42092666Y-61445190D01*
X41711714Y-61445190D01*
X43235523Y-61921380D02*
X42664095Y-61921380D01*
X42949809Y-61921380D02*
X42949809Y-60921380D01*
X42854571Y-61064238D01*
X42759333Y-61159476D01*
X42664095Y-61207095D01*
X43711714Y-61921380D02*
X43902190Y-61921380D01*
X43997428Y-61873761D01*
X44045047Y-61826142D01*
X44140285Y-61683285D01*
X44187904Y-61492809D01*
X44187904Y-61111857D01*
X44140285Y-61016619D01*
X44092666Y-60969000D01*
X43997428Y-60921380D01*
X43806952Y-60921380D01*
X43711714Y-60969000D01*
X43664095Y-61016619D01*
X43616476Y-61111857D01*
X43616476Y-61349952D01*
X43664095Y-61445190D01*
X43711714Y-61492809D01*
X43806952Y-61540428D01*
X43997428Y-61540428D01*
X44092666Y-61492809D01*
X44140285Y-61445190D01*
X44187904Y-61349952D01*
%TO.C,J7*%
X92252380Y-117333333D02*
X92966666Y-117333333D01*
X93109523Y-117380952D01*
X93204761Y-117476190D01*
X93252380Y-117619047D01*
X93252380Y-117714285D01*
X92252380Y-116952380D02*
X92252380Y-116285714D01*
X93252380Y-116714285D01*
%TO.C,D1*%
X80992380Y-107672095D02*
X79992380Y-107672095D01*
X79992380Y-107434000D01*
X80040000Y-107291142D01*
X80135238Y-107195904D01*
X80230476Y-107148285D01*
X80420952Y-107100666D01*
X80563809Y-107100666D01*
X80754285Y-107148285D01*
X80849523Y-107195904D01*
X80944761Y-107291142D01*
X80992380Y-107434000D01*
X80992380Y-107672095D01*
X80992380Y-106148285D02*
X80992380Y-106719714D01*
X80992380Y-106434000D02*
X79992380Y-106434000D01*
X80135238Y-106529238D01*
X80230476Y-106624476D01*
X80278095Y-106719714D01*
%TO.C,U2*%
X88562380Y-28701904D02*
X89371904Y-28701904D01*
X89467142Y-28654285D01*
X89514761Y-28606666D01*
X89562380Y-28511428D01*
X89562380Y-28320952D01*
X89514761Y-28225714D01*
X89467142Y-28178095D01*
X89371904Y-28130476D01*
X88562380Y-28130476D01*
X88657619Y-27701904D02*
X88610000Y-27654285D01*
X88562380Y-27559047D01*
X88562380Y-27320952D01*
X88610000Y-27225714D01*
X88657619Y-27178095D01*
X88752857Y-27130476D01*
X88848095Y-27130476D01*
X88990952Y-27178095D01*
X89562380Y-27749523D01*
X89562380Y-27130476D01*
%TO.C,Y1*%
X93948809Y-38556190D02*
X93948809Y-39032380D01*
X93615476Y-38032380D02*
X93948809Y-38556190D01*
X94282142Y-38032380D01*
X95139285Y-39032380D02*
X94567857Y-39032380D01*
X94853571Y-39032380D02*
X94853571Y-38032380D01*
X94758333Y-38175238D01*
X94663095Y-38270476D01*
X94567857Y-38318095D01*
%TO.C,U6*%
X74862380Y-47751904D02*
X75671904Y-47751904D01*
X75767142Y-47704285D01*
X75814761Y-47656666D01*
X75862380Y-47561428D01*
X75862380Y-47370952D01*
X75814761Y-47275714D01*
X75767142Y-47228095D01*
X75671904Y-47180476D01*
X74862380Y-47180476D01*
X74862380Y-46275714D02*
X74862380Y-46466190D01*
X74910000Y-46561428D01*
X74957619Y-46609047D01*
X75100476Y-46704285D01*
X75290952Y-46751904D01*
X75671904Y-46751904D01*
X75767142Y-46704285D01*
X75814761Y-46656666D01*
X75862380Y-46561428D01*
X75862380Y-46370952D01*
X75814761Y-46275714D01*
X75767142Y-46228095D01*
X75671904Y-46180476D01*
X75433809Y-46180476D01*
X75338571Y-46228095D01*
X75290952Y-46275714D01*
X75243333Y-46370952D01*
X75243333Y-46561428D01*
X75290952Y-46656666D01*
X75338571Y-46704285D01*
X75433809Y-46751904D01*
%TO.C,BT1*%
X49014285Y-87833571D02*
X49157142Y-87881190D01*
X49204761Y-87928809D01*
X49252380Y-88024047D01*
X49252380Y-88166904D01*
X49204761Y-88262142D01*
X49157142Y-88309761D01*
X49061904Y-88357380D01*
X48680952Y-88357380D01*
X48680952Y-87357380D01*
X49014285Y-87357380D01*
X49109523Y-87405000D01*
X49157142Y-87452619D01*
X49204761Y-87547857D01*
X49204761Y-87643095D01*
X49157142Y-87738333D01*
X49109523Y-87785952D01*
X49014285Y-87833571D01*
X48680952Y-87833571D01*
X49538095Y-87357380D02*
X50109523Y-87357380D01*
X49823809Y-88357380D02*
X49823809Y-87357380D01*
X50966666Y-88357380D02*
X50395238Y-88357380D01*
X50680952Y-88357380D02*
X50680952Y-87357380D01*
X50585714Y-87500238D01*
X50490476Y-87595476D01*
X50395238Y-87643095D01*
%TO.C,C1*%
X38089142Y-37466666D02*
X38136761Y-37514285D01*
X38184380Y-37657142D01*
X38184380Y-37752380D01*
X38136761Y-37895238D01*
X38041523Y-37990476D01*
X37946285Y-38038095D01*
X37755809Y-38085714D01*
X37612952Y-38085714D01*
X37422476Y-38038095D01*
X37327238Y-37990476D01*
X37232000Y-37895238D01*
X37184380Y-37752380D01*
X37184380Y-37657142D01*
X37232000Y-37514285D01*
X37279619Y-37466666D01*
X38184380Y-36514285D02*
X38184380Y-37085714D01*
X38184380Y-36800000D02*
X37184380Y-36800000D01*
X37327238Y-36895238D01*
X37422476Y-36990476D01*
X37470095Y-37085714D01*
%TO.C,C4*%
X38089142Y-28039666D02*
X38136761Y-28087285D01*
X38184380Y-28230142D01*
X38184380Y-28325380D01*
X38136761Y-28468238D01*
X38041523Y-28563476D01*
X37946285Y-28611095D01*
X37755809Y-28658714D01*
X37612952Y-28658714D01*
X37422476Y-28611095D01*
X37327238Y-28563476D01*
X37232000Y-28468238D01*
X37184380Y-28325380D01*
X37184380Y-28230142D01*
X37232000Y-28087285D01*
X37279619Y-28039666D01*
X37517714Y-27182523D02*
X38184380Y-27182523D01*
X37136761Y-27420619D02*
X37851047Y-27658714D01*
X37851047Y-27039666D01*
%TO.C,J5*%
X23476666Y-27722380D02*
X23476666Y-28436666D01*
X23429047Y-28579523D01*
X23333809Y-28674761D01*
X23190952Y-28722380D01*
X23095714Y-28722380D01*
X24429047Y-27722380D02*
X23952857Y-27722380D01*
X23905238Y-28198571D01*
X23952857Y-28150952D01*
X24048095Y-28103333D01*
X24286190Y-28103333D01*
X24381428Y-28150952D01*
X24429047Y-28198571D01*
X24476666Y-28293809D01*
X24476666Y-28531904D01*
X24429047Y-28627142D01*
X24381428Y-28674761D01*
X24286190Y-28722380D01*
X24048095Y-28722380D01*
X23952857Y-28674761D01*
X23905238Y-28627142D01*
%TO.C,J1*%
X23476666Y-98902380D02*
X23476666Y-99616666D01*
X23429047Y-99759523D01*
X23333809Y-99854761D01*
X23190952Y-99902380D01*
X23095714Y-99902380D01*
X24476666Y-99902380D02*
X23905238Y-99902380D01*
X24190952Y-99902380D02*
X24190952Y-98902380D01*
X24095714Y-99045238D01*
X24000476Y-99140476D01*
X23905238Y-99188095D01*
%TO.C,J3*%
X31476666Y-42992380D02*
X31476666Y-43706666D01*
X31429047Y-43849523D01*
X31333809Y-43944761D01*
X31190952Y-43992380D01*
X31095714Y-43992380D01*
X31857619Y-42992380D02*
X32476666Y-42992380D01*
X32143333Y-43373333D01*
X32286190Y-43373333D01*
X32381428Y-43420952D01*
X32429047Y-43468571D01*
X32476666Y-43563809D01*
X32476666Y-43801904D01*
X32429047Y-43897142D01*
X32381428Y-43944761D01*
X32286190Y-43992380D01*
X32000476Y-43992380D01*
X31905238Y-43944761D01*
X31857619Y-43897142D01*
%TO.C,J2*%
X23476666Y-42992380D02*
X23476666Y-43706666D01*
X23429047Y-43849523D01*
X23333809Y-43944761D01*
X23190952Y-43992380D01*
X23095714Y-43992380D01*
X23905238Y-43087619D02*
X23952857Y-43040000D01*
X24048095Y-42992380D01*
X24286190Y-42992380D01*
X24381428Y-43040000D01*
X24429047Y-43087619D01*
X24476666Y-43182857D01*
X24476666Y-43278095D01*
X24429047Y-43420952D01*
X23857619Y-43992380D01*
X24476666Y-43992380D01*
%TD*%
M02*
