%TF.GenerationSoftware,KiCad,Pcbnew,(5.1.9)-1*%
%TF.CreationDate,2021-05-25T17:26:24-04:00*%
%TF.ProjectId,main,6d61696e-2e6b-4696-9361-645f70636258,rev?*%
%TF.SameCoordinates,Original*%
%TF.FileFunction,Legend,Bot*%
%TF.FilePolarity,Positive*%
%FSLAX46Y46*%
G04 Gerber Fmt 4.6, Leading zero omitted, Abs format (unit mm)*
G04 Created by KiCad (PCBNEW (5.1.9)-1) date 2021-05-25 17:26:24*
%MOMM*%
%LPD*%
G01*
G04 APERTURE LIST*
%ADD10C,0.200000*%
%ADD11C,0.120000*%
%ADD12C,0.150000*%
G04 APERTURE END LIST*
D10*
X107532857Y-66070571D02*
X107175714Y-67570571D01*
X106890000Y-66499142D01*
X106604285Y-67570571D01*
X106247142Y-66070571D01*
X104818571Y-67427714D02*
X104890000Y-67499142D01*
X105104285Y-67570571D01*
X105247142Y-67570571D01*
X105461428Y-67499142D01*
X105604285Y-67356285D01*
X105675714Y-67213428D01*
X105747142Y-66927714D01*
X105747142Y-66713428D01*
X105675714Y-66427714D01*
X105604285Y-66284857D01*
X105461428Y-66142000D01*
X105247142Y-66070571D01*
X105104285Y-66070571D01*
X104890000Y-66142000D01*
X104818571Y-66213428D01*
X103961428Y-66713428D02*
X104104285Y-66642000D01*
X104175714Y-66570571D01*
X104247142Y-66427714D01*
X104247142Y-66356285D01*
X104175714Y-66213428D01*
X104104285Y-66142000D01*
X103961428Y-66070571D01*
X103675714Y-66070571D01*
X103532857Y-66142000D01*
X103461428Y-66213428D01*
X103390000Y-66356285D01*
X103390000Y-66427714D01*
X103461428Y-66570571D01*
X103532857Y-66642000D01*
X103675714Y-66713428D01*
X103961428Y-66713428D01*
X104104285Y-66784857D01*
X104175714Y-66856285D01*
X104247142Y-66999142D01*
X104247142Y-67284857D01*
X104175714Y-67427714D01*
X104104285Y-67499142D01*
X103961428Y-67570571D01*
X103675714Y-67570571D01*
X103532857Y-67499142D01*
X103461428Y-67427714D01*
X103390000Y-67284857D01*
X103390000Y-66999142D01*
X103461428Y-66856285D01*
X103532857Y-66784857D01*
X103675714Y-66713428D01*
X102461428Y-66070571D02*
X102318571Y-66070571D01*
X102175714Y-66142000D01*
X102104285Y-66213428D01*
X102032857Y-66356285D01*
X101961428Y-66642000D01*
X101961428Y-66999142D01*
X102032857Y-67284857D01*
X102104285Y-67427714D01*
X102175714Y-67499142D01*
X102318571Y-67570571D01*
X102461428Y-67570571D01*
X102604285Y-67499142D01*
X102675714Y-67427714D01*
X102747142Y-67284857D01*
X102818571Y-66999142D01*
X102818571Y-66642000D01*
X102747142Y-66356285D01*
X102675714Y-66213428D01*
X102604285Y-66142000D01*
X102461428Y-66070571D01*
X113818571Y-69592000D02*
X113104285Y-69592000D01*
X113961428Y-70020571D02*
X113461428Y-68520571D01*
X112961428Y-70020571D01*
X112675714Y-68520571D02*
X112175714Y-70020571D01*
X111675714Y-68520571D01*
X110318571Y-70020571D02*
X110818571Y-69306285D01*
X111175714Y-70020571D02*
X111175714Y-68520571D01*
X110604285Y-68520571D01*
X110461428Y-68592000D01*
X110390000Y-68663428D01*
X110318571Y-68806285D01*
X110318571Y-69020571D01*
X110390000Y-69163428D01*
X110461428Y-69234857D01*
X110604285Y-69306285D01*
X111175714Y-69306285D01*
X107461428Y-68449142D02*
X108747142Y-70377714D01*
X104961428Y-70020571D02*
X105461428Y-69306285D01*
X105818571Y-70020571D02*
X105818571Y-68520571D01*
X105247142Y-68520571D01*
X105104285Y-68592000D01*
X105032857Y-68663428D01*
X104961428Y-68806285D01*
X104961428Y-69020571D01*
X105032857Y-69163428D01*
X105104285Y-69234857D01*
X105247142Y-69306285D01*
X105818571Y-69306285D01*
X104390000Y-69592000D02*
X103675714Y-69592000D01*
X104532857Y-70020571D02*
X104032857Y-68520571D01*
X103532857Y-70020571D01*
X103032857Y-70020571D02*
X103032857Y-68520571D01*
X102532857Y-69592000D01*
X102032857Y-68520571D01*
X102032857Y-70020571D01*
X100175714Y-70020571D02*
X100175714Y-68520571D01*
X100175714Y-69092000D02*
X100032857Y-69020571D01*
X99747142Y-69020571D01*
X99604285Y-69092000D01*
X99532857Y-69163428D01*
X99461428Y-69306285D01*
X99461428Y-69734857D01*
X99532857Y-69877714D01*
X99604285Y-69949142D01*
X99747142Y-70020571D01*
X100032857Y-70020571D01*
X100175714Y-69949142D01*
X98604285Y-70020571D02*
X98747142Y-69949142D01*
X98818571Y-69877714D01*
X98890000Y-69734857D01*
X98890000Y-69306285D01*
X98818571Y-69163428D01*
X98747142Y-69092000D01*
X98604285Y-69020571D01*
X98390000Y-69020571D01*
X98247142Y-69092000D01*
X98175714Y-69163428D01*
X98104285Y-69306285D01*
X98104285Y-69734857D01*
X98175714Y-69877714D01*
X98247142Y-69949142D01*
X98390000Y-70020571D01*
X98604285Y-70020571D01*
X96818571Y-70020571D02*
X96818571Y-69234857D01*
X96890000Y-69092000D01*
X97032857Y-69020571D01*
X97318571Y-69020571D01*
X97461428Y-69092000D01*
X96818571Y-69949142D02*
X96961428Y-70020571D01*
X97318571Y-70020571D01*
X97461428Y-69949142D01*
X97532857Y-69806285D01*
X97532857Y-69663428D01*
X97461428Y-69520571D01*
X97318571Y-69449142D01*
X96961428Y-69449142D01*
X96818571Y-69377714D01*
X96104285Y-70020571D02*
X96104285Y-69020571D01*
X96104285Y-69306285D02*
X96032857Y-69163428D01*
X95961428Y-69092000D01*
X95818571Y-69020571D01*
X95675714Y-69020571D01*
X94532857Y-70020571D02*
X94532857Y-68520571D01*
X94532857Y-69949142D02*
X94675714Y-70020571D01*
X94961428Y-70020571D01*
X95104285Y-69949142D01*
X95175714Y-69877714D01*
X95247142Y-69734857D01*
X95247142Y-69306285D01*
X95175714Y-69163428D01*
X95104285Y-69092000D01*
X94961428Y-69020571D01*
X94675714Y-69020571D01*
X94532857Y-69092000D01*
X112425714Y-72042000D02*
X111711428Y-72042000D01*
X112568571Y-72470571D02*
X112068571Y-70970571D01*
X111568571Y-72470571D01*
X111068571Y-72327714D02*
X110997142Y-72399142D01*
X111068571Y-72470571D01*
X111140000Y-72399142D01*
X111068571Y-72327714D01*
X111068571Y-72470571D01*
X110497142Y-70970571D02*
X110140000Y-72470571D01*
X109854285Y-71399142D01*
X109568571Y-72470571D01*
X109211428Y-70970571D01*
X108640000Y-72470571D02*
X108640000Y-71470571D01*
X108640000Y-70970571D02*
X108711428Y-71042000D01*
X108640000Y-71113428D01*
X108568571Y-71042000D01*
X108640000Y-70970571D01*
X108640000Y-71113428D01*
X107711428Y-72470571D02*
X107854285Y-72399142D01*
X107925714Y-72256285D01*
X107925714Y-70970571D01*
X107211428Y-72399142D02*
X107068571Y-72470571D01*
X106782857Y-72470571D01*
X106640000Y-72399142D01*
X106568571Y-72256285D01*
X106568571Y-72184857D01*
X106640000Y-72042000D01*
X106782857Y-71970571D01*
X106997142Y-71970571D01*
X107140000Y-71899142D01*
X107211428Y-71756285D01*
X107211428Y-71684857D01*
X107140000Y-71542000D01*
X106997142Y-71470571D01*
X106782857Y-71470571D01*
X106640000Y-71542000D01*
X105711428Y-72470571D02*
X105854285Y-72399142D01*
X105925714Y-72327714D01*
X105997142Y-72184857D01*
X105997142Y-71756285D01*
X105925714Y-71613428D01*
X105854285Y-71542000D01*
X105711428Y-71470571D01*
X105497142Y-71470571D01*
X105354285Y-71542000D01*
X105282857Y-71613428D01*
X105211428Y-71756285D01*
X105211428Y-72184857D01*
X105282857Y-72327714D01*
X105354285Y-72399142D01*
X105497142Y-72470571D01*
X105711428Y-72470571D01*
X104568571Y-71470571D02*
X104568571Y-72470571D01*
X104568571Y-71613428D02*
X104497142Y-71542000D01*
X104354285Y-71470571D01*
X104140000Y-71470571D01*
X103997142Y-71542000D01*
X103925714Y-71684857D01*
X103925714Y-72470571D01*
X102140000Y-71113428D02*
X102068571Y-71042000D01*
X101925714Y-70970571D01*
X101568571Y-70970571D01*
X101425714Y-71042000D01*
X101354285Y-71113428D01*
X101282857Y-71256285D01*
X101282857Y-71399142D01*
X101354285Y-71613428D01*
X102211428Y-72470571D01*
X101282857Y-72470571D01*
X100354285Y-70970571D02*
X100211428Y-70970571D01*
X100068571Y-71042000D01*
X99997142Y-71113428D01*
X99925714Y-71256285D01*
X99854285Y-71542000D01*
X99854285Y-71899142D01*
X99925714Y-72184857D01*
X99997142Y-72327714D01*
X100068571Y-72399142D01*
X100211428Y-72470571D01*
X100354285Y-72470571D01*
X100497142Y-72399142D01*
X100568571Y-72327714D01*
X100640000Y-72184857D01*
X100711428Y-71899142D01*
X100711428Y-71542000D01*
X100640000Y-71256285D01*
X100568571Y-71113428D01*
X100497142Y-71042000D01*
X100354285Y-70970571D01*
X99282857Y-71113428D02*
X99211428Y-71042000D01*
X99068571Y-70970571D01*
X98711428Y-70970571D01*
X98568571Y-71042000D01*
X98497142Y-71113428D01*
X98425714Y-71256285D01*
X98425714Y-71399142D01*
X98497142Y-71613428D01*
X99354285Y-72470571D01*
X98425714Y-72470571D01*
X96997142Y-72470571D02*
X97854285Y-72470571D01*
X97425714Y-72470571D02*
X97425714Y-70970571D01*
X97568571Y-71184857D01*
X97711428Y-71327714D01*
X97854285Y-71399142D01*
D11*
%TO.C,C24*%
X68045000Y-26662748D02*
X68045000Y-27185252D01*
X66575000Y-26662748D02*
X66575000Y-27185252D01*
%TO.C,C22*%
X43915000Y-26662748D02*
X43915000Y-27185252D01*
X42445000Y-26662748D02*
X42445000Y-27185252D01*
%TO.C,C20*%
X69115000Y-45727252D02*
X69115000Y-45204748D01*
X70585000Y-45727252D02*
X70585000Y-45204748D01*
%TO.C,R11*%
X89381064Y-94715000D02*
X88926936Y-94715000D01*
X89381064Y-93245000D02*
X88926936Y-93245000D01*
%TO.C,R10*%
X88873064Y-104367000D02*
X88418936Y-104367000D01*
X88873064Y-102897000D02*
X88418936Y-102897000D01*
%TO.C,C19*%
X87149000Y-99761252D02*
X87149000Y-99238748D01*
X88619000Y-99761252D02*
X88619000Y-99238748D01*
%TO.C,R9*%
X82777064Y-104367000D02*
X82322936Y-104367000D01*
X82777064Y-102897000D02*
X82322936Y-102897000D01*
%TO.C,C10*%
X101846748Y-100357000D02*
X102369252Y-100357000D01*
X101846748Y-101827000D02*
X102369252Y-101827000D01*
%TO.C,C9*%
X92209252Y-101827000D02*
X91686748Y-101827000D01*
X92209252Y-100357000D02*
X91686748Y-100357000D01*
%TO.C,C3*%
X32792648Y-36022200D02*
X33315152Y-36022200D01*
X32792648Y-34552200D02*
X33315152Y-34552200D01*
%TO.C,C2*%
X32792648Y-30668000D02*
X33315152Y-30668000D01*
X32792648Y-29198000D02*
X33315152Y-29198000D01*
%TO.C,C12*%
X90705000Y-26662748D02*
X90705000Y-27185252D01*
X92175000Y-26662748D02*
X92175000Y-27185252D01*
%TO.C,C13*%
X116559000Y-72905252D02*
X116559000Y-72382748D01*
X115089000Y-72905252D02*
X115089000Y-72382748D01*
%TO.C,C14*%
X91955252Y-82577000D02*
X91432748Y-82577000D01*
X91955252Y-84047000D02*
X91432748Y-84047000D01*
%TO.C,C18*%
X92194748Y-94715000D02*
X92717252Y-94715000D01*
X92194748Y-93245000D02*
X92717252Y-93245000D01*
%TO.C,C24*%
D12*
X65987142Y-26281142D02*
X66034761Y-26233523D01*
X66082380Y-26090666D01*
X66082380Y-25995428D01*
X66034761Y-25852571D01*
X65939523Y-25757333D01*
X65844285Y-25709714D01*
X65653809Y-25662095D01*
X65510952Y-25662095D01*
X65320476Y-25709714D01*
X65225238Y-25757333D01*
X65130000Y-25852571D01*
X65082380Y-25995428D01*
X65082380Y-26090666D01*
X65130000Y-26233523D01*
X65177619Y-26281142D01*
X65177619Y-26662095D02*
X65130000Y-26709714D01*
X65082380Y-26804952D01*
X65082380Y-27043047D01*
X65130000Y-27138285D01*
X65177619Y-27185904D01*
X65272857Y-27233523D01*
X65368095Y-27233523D01*
X65510952Y-27185904D01*
X66082380Y-26614476D01*
X66082380Y-27233523D01*
X65415714Y-28090666D02*
X66082380Y-28090666D01*
X65034761Y-27852571D02*
X65749047Y-27614476D01*
X65749047Y-28233523D01*
%TO.C,C22*%
X41857142Y-26281142D02*
X41904761Y-26233523D01*
X41952380Y-26090666D01*
X41952380Y-25995428D01*
X41904761Y-25852571D01*
X41809523Y-25757333D01*
X41714285Y-25709714D01*
X41523809Y-25662095D01*
X41380952Y-25662095D01*
X41190476Y-25709714D01*
X41095238Y-25757333D01*
X41000000Y-25852571D01*
X40952380Y-25995428D01*
X40952380Y-26090666D01*
X41000000Y-26233523D01*
X41047619Y-26281142D01*
X41047619Y-26662095D02*
X41000000Y-26709714D01*
X40952380Y-26804952D01*
X40952380Y-27043047D01*
X41000000Y-27138285D01*
X41047619Y-27185904D01*
X41142857Y-27233523D01*
X41238095Y-27233523D01*
X41380952Y-27185904D01*
X41952380Y-26614476D01*
X41952380Y-27233523D01*
X41047619Y-27614476D02*
X41000000Y-27662095D01*
X40952380Y-27757333D01*
X40952380Y-27995428D01*
X41000000Y-28090666D01*
X41047619Y-28138285D01*
X41142857Y-28185904D01*
X41238095Y-28185904D01*
X41380952Y-28138285D01*
X41952380Y-27566857D01*
X41952380Y-28185904D01*
%TO.C,C20*%
X71887142Y-44823142D02*
X71934761Y-44775523D01*
X71982380Y-44632666D01*
X71982380Y-44537428D01*
X71934761Y-44394571D01*
X71839523Y-44299333D01*
X71744285Y-44251714D01*
X71553809Y-44204095D01*
X71410952Y-44204095D01*
X71220476Y-44251714D01*
X71125238Y-44299333D01*
X71030000Y-44394571D01*
X70982380Y-44537428D01*
X70982380Y-44632666D01*
X71030000Y-44775523D01*
X71077619Y-44823142D01*
X71077619Y-45204095D02*
X71030000Y-45251714D01*
X70982380Y-45346952D01*
X70982380Y-45585047D01*
X71030000Y-45680285D01*
X71077619Y-45727904D01*
X71172857Y-45775523D01*
X71268095Y-45775523D01*
X71410952Y-45727904D01*
X71982380Y-45156476D01*
X71982380Y-45775523D01*
X70982380Y-46394571D02*
X70982380Y-46489809D01*
X71030000Y-46585047D01*
X71077619Y-46632666D01*
X71172857Y-46680285D01*
X71363333Y-46727904D01*
X71601428Y-46727904D01*
X71791904Y-46680285D01*
X71887142Y-46632666D01*
X71934761Y-46585047D01*
X71982380Y-46489809D01*
X71982380Y-46394571D01*
X71934761Y-46299333D01*
X71887142Y-46251714D01*
X71791904Y-46204095D01*
X71601428Y-46156476D01*
X71363333Y-46156476D01*
X71172857Y-46204095D01*
X71077619Y-46251714D01*
X71030000Y-46299333D01*
X70982380Y-46394571D01*
%TO.C,R11*%
X89796857Y-92782380D02*
X90130190Y-92306190D01*
X90368285Y-92782380D02*
X90368285Y-91782380D01*
X89987333Y-91782380D01*
X89892095Y-91830000D01*
X89844476Y-91877619D01*
X89796857Y-91972857D01*
X89796857Y-92115714D01*
X89844476Y-92210952D01*
X89892095Y-92258571D01*
X89987333Y-92306190D01*
X90368285Y-92306190D01*
X88844476Y-92782380D02*
X89415904Y-92782380D01*
X89130190Y-92782380D02*
X89130190Y-91782380D01*
X89225428Y-91925238D01*
X89320666Y-92020476D01*
X89415904Y-92068095D01*
X87892095Y-92782380D02*
X88463523Y-92782380D01*
X88177809Y-92782380D02*
X88177809Y-91782380D01*
X88273047Y-91925238D01*
X88368285Y-92020476D01*
X88463523Y-92068095D01*
%TO.C,R10*%
X89288857Y-102434380D02*
X89622190Y-101958190D01*
X89860285Y-102434380D02*
X89860285Y-101434380D01*
X89479333Y-101434380D01*
X89384095Y-101482000D01*
X89336476Y-101529619D01*
X89288857Y-101624857D01*
X89288857Y-101767714D01*
X89336476Y-101862952D01*
X89384095Y-101910571D01*
X89479333Y-101958190D01*
X89860285Y-101958190D01*
X88336476Y-102434380D02*
X88907904Y-102434380D01*
X88622190Y-102434380D02*
X88622190Y-101434380D01*
X88717428Y-101577238D01*
X88812666Y-101672476D01*
X88907904Y-101720095D01*
X87717428Y-101434380D02*
X87622190Y-101434380D01*
X87526952Y-101482000D01*
X87479333Y-101529619D01*
X87431714Y-101624857D01*
X87384095Y-101815333D01*
X87384095Y-102053428D01*
X87431714Y-102243904D01*
X87479333Y-102339142D01*
X87526952Y-102386761D01*
X87622190Y-102434380D01*
X87717428Y-102434380D01*
X87812666Y-102386761D01*
X87860285Y-102339142D01*
X87907904Y-102243904D01*
X87955523Y-102053428D01*
X87955523Y-101815333D01*
X87907904Y-101624857D01*
X87860285Y-101529619D01*
X87812666Y-101482000D01*
X87717428Y-101434380D01*
%TO.C,C19*%
X89921142Y-98857142D02*
X89968761Y-98809523D01*
X90016380Y-98666666D01*
X90016380Y-98571428D01*
X89968761Y-98428571D01*
X89873523Y-98333333D01*
X89778285Y-98285714D01*
X89587809Y-98238095D01*
X89444952Y-98238095D01*
X89254476Y-98285714D01*
X89159238Y-98333333D01*
X89064000Y-98428571D01*
X89016380Y-98571428D01*
X89016380Y-98666666D01*
X89064000Y-98809523D01*
X89111619Y-98857142D01*
X90016380Y-99809523D02*
X90016380Y-99238095D01*
X90016380Y-99523809D02*
X89016380Y-99523809D01*
X89159238Y-99428571D01*
X89254476Y-99333333D01*
X89302095Y-99238095D01*
X90016380Y-100285714D02*
X90016380Y-100476190D01*
X89968761Y-100571428D01*
X89921142Y-100619047D01*
X89778285Y-100714285D01*
X89587809Y-100761904D01*
X89206857Y-100761904D01*
X89111619Y-100714285D01*
X89064000Y-100666666D01*
X89016380Y-100571428D01*
X89016380Y-100380952D01*
X89064000Y-100285714D01*
X89111619Y-100238095D01*
X89206857Y-100190476D01*
X89444952Y-100190476D01*
X89540190Y-100238095D01*
X89587809Y-100285714D01*
X89635428Y-100380952D01*
X89635428Y-100571428D01*
X89587809Y-100666666D01*
X89540190Y-100714285D01*
X89444952Y-100761904D01*
%TO.C,R9*%
X82716666Y-102434380D02*
X83050000Y-101958190D01*
X83288095Y-102434380D02*
X83288095Y-101434380D01*
X82907142Y-101434380D01*
X82811904Y-101482000D01*
X82764285Y-101529619D01*
X82716666Y-101624857D01*
X82716666Y-101767714D01*
X82764285Y-101862952D01*
X82811904Y-101910571D01*
X82907142Y-101958190D01*
X83288095Y-101958190D01*
X82240476Y-102434380D02*
X82050000Y-102434380D01*
X81954761Y-102386761D01*
X81907142Y-102339142D01*
X81811904Y-102196285D01*
X81764285Y-102005809D01*
X81764285Y-101624857D01*
X81811904Y-101529619D01*
X81859523Y-101482000D01*
X81954761Y-101434380D01*
X82145238Y-101434380D01*
X82240476Y-101482000D01*
X82288095Y-101529619D01*
X82335714Y-101624857D01*
X82335714Y-101862952D01*
X82288095Y-101958190D01*
X82240476Y-102005809D01*
X82145238Y-102053428D01*
X81954761Y-102053428D01*
X81859523Y-102005809D01*
X81811904Y-101958190D01*
X81764285Y-101862952D01*
%TO.C,C10*%
X102750857Y-103129142D02*
X102798476Y-103176761D01*
X102941333Y-103224380D01*
X103036571Y-103224380D01*
X103179428Y-103176761D01*
X103274666Y-103081523D01*
X103322285Y-102986285D01*
X103369904Y-102795809D01*
X103369904Y-102652952D01*
X103322285Y-102462476D01*
X103274666Y-102367238D01*
X103179428Y-102272000D01*
X103036571Y-102224380D01*
X102941333Y-102224380D01*
X102798476Y-102272000D01*
X102750857Y-102319619D01*
X101798476Y-103224380D02*
X102369904Y-103224380D01*
X102084190Y-103224380D02*
X102084190Y-102224380D01*
X102179428Y-102367238D01*
X102274666Y-102462476D01*
X102369904Y-102510095D01*
X101179428Y-102224380D02*
X101084190Y-102224380D01*
X100988952Y-102272000D01*
X100941333Y-102319619D01*
X100893714Y-102414857D01*
X100846095Y-102605333D01*
X100846095Y-102843428D01*
X100893714Y-103033904D01*
X100941333Y-103129142D01*
X100988952Y-103176761D01*
X101084190Y-103224380D01*
X101179428Y-103224380D01*
X101274666Y-103176761D01*
X101322285Y-103129142D01*
X101369904Y-103033904D01*
X101417523Y-102843428D01*
X101417523Y-102605333D01*
X101369904Y-102414857D01*
X101322285Y-102319619D01*
X101274666Y-102272000D01*
X101179428Y-102224380D01*
%TO.C,C9*%
X92114666Y-99769142D02*
X92162285Y-99816761D01*
X92305142Y-99864380D01*
X92400380Y-99864380D01*
X92543238Y-99816761D01*
X92638476Y-99721523D01*
X92686095Y-99626285D01*
X92733714Y-99435809D01*
X92733714Y-99292952D01*
X92686095Y-99102476D01*
X92638476Y-99007238D01*
X92543238Y-98912000D01*
X92400380Y-98864380D01*
X92305142Y-98864380D01*
X92162285Y-98912000D01*
X92114666Y-98959619D01*
X91638476Y-99864380D02*
X91448000Y-99864380D01*
X91352761Y-99816761D01*
X91305142Y-99769142D01*
X91209904Y-99626285D01*
X91162285Y-99435809D01*
X91162285Y-99054857D01*
X91209904Y-98959619D01*
X91257523Y-98912000D01*
X91352761Y-98864380D01*
X91543238Y-98864380D01*
X91638476Y-98912000D01*
X91686095Y-98959619D01*
X91733714Y-99054857D01*
X91733714Y-99292952D01*
X91686095Y-99388190D01*
X91638476Y-99435809D01*
X91543238Y-99483428D01*
X91352761Y-99483428D01*
X91257523Y-99435809D01*
X91209904Y-99388190D01*
X91162285Y-99292952D01*
%TO.C,C3*%
X33220566Y-33993342D02*
X33268185Y-34040961D01*
X33411042Y-34088580D01*
X33506280Y-34088580D01*
X33649138Y-34040961D01*
X33744376Y-33945723D01*
X33791995Y-33850485D01*
X33839614Y-33660009D01*
X33839614Y-33517152D01*
X33791995Y-33326676D01*
X33744376Y-33231438D01*
X33649138Y-33136200D01*
X33506280Y-33088580D01*
X33411042Y-33088580D01*
X33268185Y-33136200D01*
X33220566Y-33183819D01*
X32887233Y-33088580D02*
X32268185Y-33088580D01*
X32601519Y-33469533D01*
X32458661Y-33469533D01*
X32363423Y-33517152D01*
X32315804Y-33564771D01*
X32268185Y-33660009D01*
X32268185Y-33898104D01*
X32315804Y-33993342D01*
X32363423Y-34040961D01*
X32458661Y-34088580D01*
X32744376Y-34088580D01*
X32839614Y-34040961D01*
X32887233Y-33993342D01*
%TO.C,C2*%
X33220566Y-32068142D02*
X33268185Y-32115761D01*
X33411042Y-32163380D01*
X33506280Y-32163380D01*
X33649138Y-32115761D01*
X33744376Y-32020523D01*
X33791995Y-31925285D01*
X33839614Y-31734809D01*
X33839614Y-31591952D01*
X33791995Y-31401476D01*
X33744376Y-31306238D01*
X33649138Y-31211000D01*
X33506280Y-31163380D01*
X33411042Y-31163380D01*
X33268185Y-31211000D01*
X33220566Y-31258619D01*
X32839614Y-31258619D02*
X32791995Y-31211000D01*
X32696757Y-31163380D01*
X32458661Y-31163380D01*
X32363423Y-31211000D01*
X32315804Y-31258619D01*
X32268185Y-31353857D01*
X32268185Y-31449095D01*
X32315804Y-31591952D01*
X32887233Y-32163380D01*
X32268185Y-32163380D01*
%TO.C,C12*%
X93448142Y-26220142D02*
X93495761Y-26172523D01*
X93543380Y-26029666D01*
X93543380Y-25934428D01*
X93495761Y-25791571D01*
X93400523Y-25696333D01*
X93305285Y-25648714D01*
X93114809Y-25601095D01*
X92971952Y-25601095D01*
X92781476Y-25648714D01*
X92686238Y-25696333D01*
X92591000Y-25791571D01*
X92543380Y-25934428D01*
X92543380Y-26029666D01*
X92591000Y-26172523D01*
X92638619Y-26220142D01*
X93543380Y-27172523D02*
X93543380Y-26601095D01*
X93543380Y-26886809D02*
X92543380Y-26886809D01*
X92686238Y-26791571D01*
X92781476Y-26696333D01*
X92829095Y-26601095D01*
X92638619Y-27553476D02*
X92591000Y-27601095D01*
X92543380Y-27696333D01*
X92543380Y-27934428D01*
X92591000Y-28029666D01*
X92638619Y-28077285D01*
X92733857Y-28124904D01*
X92829095Y-28124904D01*
X92971952Y-28077285D01*
X93543380Y-27505857D01*
X93543380Y-28124904D01*
%TO.C,C13*%
X117861142Y-72001142D02*
X117908761Y-71953523D01*
X117956380Y-71810666D01*
X117956380Y-71715428D01*
X117908761Y-71572571D01*
X117813523Y-71477333D01*
X117718285Y-71429714D01*
X117527809Y-71382095D01*
X117384952Y-71382095D01*
X117194476Y-71429714D01*
X117099238Y-71477333D01*
X117004000Y-71572571D01*
X116956380Y-71715428D01*
X116956380Y-71810666D01*
X117004000Y-71953523D01*
X117051619Y-72001142D01*
X117956380Y-72953523D02*
X117956380Y-72382095D01*
X117956380Y-72667809D02*
X116956380Y-72667809D01*
X117099238Y-72572571D01*
X117194476Y-72477333D01*
X117242095Y-72382095D01*
X116956380Y-73286857D02*
X116956380Y-73905904D01*
X117337333Y-73572571D01*
X117337333Y-73715428D01*
X117384952Y-73810666D01*
X117432571Y-73858285D01*
X117527809Y-73905904D01*
X117765904Y-73905904D01*
X117861142Y-73858285D01*
X117908761Y-73810666D01*
X117956380Y-73715428D01*
X117956380Y-73429714D01*
X117908761Y-73334476D01*
X117861142Y-73286857D01*
%TO.C,C14*%
X92336857Y-85447142D02*
X92384476Y-85494761D01*
X92527333Y-85542380D01*
X92622571Y-85542380D01*
X92765428Y-85494761D01*
X92860666Y-85399523D01*
X92908285Y-85304285D01*
X92955904Y-85113809D01*
X92955904Y-84970952D01*
X92908285Y-84780476D01*
X92860666Y-84685238D01*
X92765428Y-84590000D01*
X92622571Y-84542380D01*
X92527333Y-84542380D01*
X92384476Y-84590000D01*
X92336857Y-84637619D01*
X91384476Y-85542380D02*
X91955904Y-85542380D01*
X91670190Y-85542380D02*
X91670190Y-84542380D01*
X91765428Y-84685238D01*
X91860666Y-84780476D01*
X91955904Y-84828095D01*
X90527333Y-84875714D02*
X90527333Y-85542380D01*
X90765428Y-84494761D02*
X91003523Y-85209047D01*
X90384476Y-85209047D01*
%TO.C,C18*%
X93098857Y-92813142D02*
X93146476Y-92860761D01*
X93289333Y-92908380D01*
X93384571Y-92908380D01*
X93527428Y-92860761D01*
X93622666Y-92765523D01*
X93670285Y-92670285D01*
X93717904Y-92479809D01*
X93717904Y-92336952D01*
X93670285Y-92146476D01*
X93622666Y-92051238D01*
X93527428Y-91956000D01*
X93384571Y-91908380D01*
X93289333Y-91908380D01*
X93146476Y-91956000D01*
X93098857Y-92003619D01*
X92146476Y-92908380D02*
X92717904Y-92908380D01*
X92432190Y-92908380D02*
X92432190Y-91908380D01*
X92527428Y-92051238D01*
X92622666Y-92146476D01*
X92717904Y-92194095D01*
X91575047Y-92336952D02*
X91670285Y-92289333D01*
X91717904Y-92241714D01*
X91765523Y-92146476D01*
X91765523Y-92098857D01*
X91717904Y-92003619D01*
X91670285Y-91956000D01*
X91575047Y-91908380D01*
X91384571Y-91908380D01*
X91289333Y-91956000D01*
X91241714Y-92003619D01*
X91194095Y-92098857D01*
X91194095Y-92146476D01*
X91241714Y-92241714D01*
X91289333Y-92289333D01*
X91384571Y-92336952D01*
X91575047Y-92336952D01*
X91670285Y-92384571D01*
X91717904Y-92432190D01*
X91765523Y-92527428D01*
X91765523Y-92717904D01*
X91717904Y-92813142D01*
X91670285Y-92860761D01*
X91575047Y-92908380D01*
X91384571Y-92908380D01*
X91289333Y-92860761D01*
X91241714Y-92813142D01*
X91194095Y-92717904D01*
X91194095Y-92527428D01*
X91241714Y-92432190D01*
X91289333Y-92384571D01*
X91384571Y-92336952D01*
%TD*%
M02*
