M48
; DRILL file {KiCad (5.1.9)-1} date 05/25/21 17:26:26
; FORMAT={-:-/ absolute / inch / decimal}
; #@! TF.CreationDate,2021-05-25T17:26:26-04:00
; #@! TF.GenerationSoftware,Kicad,Pcbnew,(5.1.9)-1
FMAT,2
INCH
T1C0.0118
T2C0.0197
T3C0.0236
T4C0.0300
T5C0.0315
T6C0.0335
T7C0.0354
T8C0.0394
T9C0.0433
T10C0.0630
T11C0.1260
%
G90
G05
T1
X1.4281Y-2.3617
X1.7333Y-2.434
X2.0842Y-1.9432
X2.2536Y-2.1151
X2.3675Y-2.0523
X2.3914Y-2.5578
X2.4006Y-2.1212
X2.7647Y-2.0489
X2.7867Y-1.1803
X2.8501Y-1.6827
X2.9102Y-4.0164
X2.9169Y-1.4011
X2.9391Y-3.9958
X2.956Y-1.4291
X3.0307Y-1.4435
X3.588Y-4.1489
X3.738Y-2.5229
X3.8893Y-4.2885
X3.8998Y-4.2331
T2
X3.5994Y-1.35
X3.5994Y-1.45
T3
X1.5735Y-2.7231
X1.7907Y-2.8603
X2.7904Y-4.0003
X2.8855Y-1.4364
X3.1935Y-1.392
X3.6446Y-4.0829
X4.375Y-4.1764
T4
X1.6457Y-3.4608
X2.4331Y-3.4608
T5
X1.2205Y-1.1024
X1.2205Y-1.4685
X1.3583Y-1.1024
X1.3583Y-1.4685
X1.65Y-1.6
X1.65Y-1.9
X1.7Y-0.95
X1.7Y-1.25
X1.75Y-1.6
X1.75Y-1.9
X1.8Y-0.95
X1.8Y-1.25
X1.85Y-1.6
X1.85Y-1.9
X1.9Y-0.95
X1.9Y-1.25
X1.95Y-1.6
X1.95Y-1.9
X2.0Y-0.95
X2.0Y-1.25
X2.05Y-1.6
X2.05Y-1.9
X2.1Y-0.95
X2.1Y-1.25
X2.15Y-1.6
X2.15Y-1.9
X2.2Y-0.95
X2.2Y-1.25
X2.25Y-1.6
X2.25Y-1.9
X2.2606Y-2.375
X2.2606Y-2.975
X2.3Y-0.95
X2.3Y-1.25
X2.35Y-1.6
X2.35Y-1.9
X2.3606Y-2.375
X2.3606Y-2.975
X2.4Y-0.95
X2.4Y-1.25
X2.45Y-1.6
X2.45Y-1.9
X2.4606Y-2.375
X2.4606Y-2.975
X2.55Y-1.6
X2.55Y-1.9
X2.5606Y-2.375
X2.5606Y-2.975
X2.65Y-0.95
X2.65Y-1.25
X2.65Y-1.6
X2.65Y-1.9
X2.6606Y-2.375
X2.6606Y-2.975
X2.6606Y-3.2
X2.6606Y-3.8
X2.75Y-0.95
X2.75Y-1.25
X2.75Y-1.6
X2.75Y-1.9
X2.7606Y-2.375
X2.7606Y-2.975
X2.7606Y-3.2
X2.7606Y-3.8
X2.85Y-0.95
X2.85Y-1.25
X2.8606Y-2.375
X2.8606Y-2.975
X2.8606Y-3.2
X2.8606Y-3.8
X2.95Y-0.95
X2.95Y-1.25
X2.9606Y-2.375
X2.9606Y-2.975
X2.9606Y-3.2
X2.9606Y-3.8
X3.05Y-0.95
X3.05Y-1.25
X3.0606Y-1.55
X3.0606Y-2.15
X3.0606Y-2.375
X3.0606Y-2.975
X3.0606Y-3.2
X3.0606Y-3.8
X3.15Y-0.95
X3.15Y-1.25
X3.1606Y-1.55
X3.1606Y-2.15
X3.1606Y-2.375
X3.1606Y-2.975
X3.1606Y-3.2
X3.1606Y-3.8
X3.25Y-0.95
X3.25Y-1.25
X3.2606Y-1.55
X3.2606Y-2.15
X3.2606Y-2.375
X3.2606Y-2.975
X3.2606Y-3.2
X3.2606Y-3.8
X3.35Y-0.95
X3.35Y-1.25
X3.3606Y-1.55
X3.3606Y-2.15
X3.3606Y-2.375
X3.3606Y-2.975
X3.3606Y-3.2
X3.3606Y-3.8
X3.4606Y-1.55
X3.4606Y-2.15
X3.4606Y-2.375
X3.4606Y-2.975
X3.4606Y-3.2
X3.4606Y-3.8
X3.5606Y-1.55
X3.5606Y-2.15
X3.5606Y-2.375
X3.5606Y-2.975
X3.5606Y-3.2
X3.5606Y-3.8
X3.6Y-0.95
X3.6Y-1.25
X3.6606Y-1.55
X3.6606Y-2.15
X3.6606Y-2.375
X3.6606Y-2.975
X3.6606Y-3.2
X3.6606Y-3.8
X3.7Y-0.95
X3.7Y-1.25
X3.7279Y-3.98
X3.7606Y-1.55
X3.7606Y-2.15
X3.7606Y-2.375
X3.7606Y-2.975
X3.7606Y-3.2
X3.7606Y-3.8
X3.8Y-0.95
X3.8Y-1.25
X3.8606Y-1.55
X3.8606Y-2.15
X3.8606Y-2.375
X3.8606Y-2.975
X3.8606Y-3.2
X3.8606Y-3.8
X3.9Y-0.95
X3.9Y-1.25
X3.92Y-3.98
X3.9606Y-1.55
X3.9606Y-2.15
X3.9606Y-2.375
X3.9606Y-2.975
X3.9606Y-3.2
X3.9606Y-3.8
X4.0Y-0.95
X4.0Y-1.25
X4.0606Y-1.55
X4.0606Y-2.15
X4.0606Y-2.375
X4.0606Y-2.975
X4.0606Y-3.2
X4.0606Y-3.8
X4.1Y-0.95
X4.1Y-1.25
X4.1606Y-1.55
X4.1606Y-2.15
X4.1606Y-2.375
X4.1606Y-2.975
X4.1606Y-3.2
X4.1606Y-3.8
X4.2Y-0.95
X4.2Y-1.25
X4.2606Y-1.55
X4.2606Y-2.15
X4.2606Y-2.375
X4.2606Y-2.975
X4.2606Y-3.2
X4.2606Y-3.8
X4.3Y-0.95
X4.3Y-1.25
X4.3606Y-1.55
X4.3606Y-2.15
X4.3606Y-2.375
X4.3606Y-2.975
X4.3606Y-3.2
X4.3606Y-3.8
X4.4606Y-1.55
X4.4606Y-2.15
X4.4606Y-2.375
X4.4606Y-2.975
X4.4606Y-3.2
X4.4606Y-3.8
X4.5606Y-1.55
X4.5606Y-2.15
X4.5606Y-2.375
X4.5606Y-2.975
X4.5606Y-3.2
X4.5606Y-3.8
T6
X3.3661Y-4.5586
X3.563Y-4.5586
T7
X3.2874Y-4.16
X3.2874Y-4.26
X3.53Y-4.16
X3.53Y-4.26
T8
X0.8874Y-1.2047
X0.8874Y-1.3047
X0.8874Y-1.4047
X0.8874Y-1.5047
X0.8874Y-1.8059
X0.8874Y-1.9059
X0.8874Y-2.0059
X0.8874Y-2.1059
X0.8874Y-2.2059
X0.8874Y-2.3059
X0.8874Y-2.4059
X0.8874Y-2.5059
X0.8874Y-2.6059
X0.8874Y-2.7059
X0.8874Y-2.8059
X0.8874Y-2.9059
X0.8874Y-3.0059
X0.8874Y-3.1059
X0.8874Y-3.2059
X0.8874Y-3.3059
X0.8874Y-3.4059
X0.8874Y-3.5059
X0.8874Y-3.6059
X0.8874Y-3.7059
X0.8874Y-4.0071
X0.8874Y-4.1071
X0.8874Y-4.2071
X0.8874Y-4.3071
X0.9874Y-1.2047
X0.9874Y-1.3047
X0.9874Y-1.4047
X0.9874Y-1.5047
X0.9874Y-1.8059
X0.9874Y-1.9059
X0.9874Y-2.0059
X0.9874Y-2.1059
X0.9874Y-2.2059
X0.9874Y-2.3059
X0.9874Y-2.4059
X0.9874Y-2.5059
X0.9874Y-2.6059
X0.9874Y-2.7059
X0.9874Y-2.8059
X0.9874Y-2.9059
X0.9874Y-3.0059
X0.9874Y-3.1059
X0.9874Y-3.2059
X0.9874Y-3.3059
X0.9874Y-3.4059
X0.9874Y-3.5059
X0.9874Y-3.6059
X0.9874Y-3.7059
X0.9874Y-4.0071
X0.9874Y-4.1071
X0.9874Y-4.2071
X0.9874Y-4.3071
X1.2024Y-1.8059
X1.2024Y-1.9059
X1.2024Y-2.0059
X1.2024Y-2.1059
X1.2024Y-2.2059
X1.2024Y-2.3059
X1.2024Y-2.4059
X1.2024Y-2.5059
X1.2024Y-2.6059
X1.2024Y-2.7059
X1.2024Y-2.8059
X1.2024Y-2.9059
X1.2024Y-3.0059
X1.2024Y-3.1059
X1.2024Y-3.2059
X1.2024Y-3.3059
X1.2024Y-3.4059
X1.2024Y-3.5059
X1.2024Y-3.6059
X1.2024Y-3.7059
X1.3024Y-1.8059
X1.3024Y-1.9059
X1.3024Y-2.0059
X1.3024Y-2.1059
X1.3024Y-2.2059
X1.3024Y-2.3059
X1.3024Y-2.4059
X1.3024Y-2.5059
X1.3024Y-2.6059
X1.3024Y-2.7059
X1.3024Y-2.8059
X1.3024Y-2.9059
X1.3024Y-3.0059
X1.3024Y-3.1059
X1.3024Y-3.2059
X1.3024Y-3.3059
X1.3024Y-3.4059
X1.3024Y-3.5059
X1.3024Y-3.6059
X1.3024Y-3.7059
X3.3122Y-4.4488
X3.4122Y-4.4488
X3.5122Y-4.4488
X3.6122Y-4.4488
X3.86Y-3.65
X3.96Y-3.65
X4.06Y-3.65
X4.16Y-3.65
X4.65Y-4.05
X4.65Y-4.15
X4.65Y-4.25
X4.65Y-4.35
T9
X1.3722Y-4.125
T10
X2.199Y-4.125
T11
X0.9252Y-0.9252
X0.9252Y-4.5866
X4.5866Y-0.9252
X4.5866Y-4.5866
T3
G00X3.3268Y-4.6786
M15
G01X3.3268Y-4.6511
M16
G05
G00X3.6024Y-4.6511
M15
G01X3.6024Y-4.6786
M16
G05
T0
M30
