M48
; DRILL file {KiCad (5.1.9)-1} date 11/05/21 22:54:15
; FORMAT={-:-/ absolute / inch / decimal}
; #@! TF.CreationDate,2021-11-05T22:54:15-04:00
; #@! TF.GenerationSoftware,Kicad,Pcbnew,(5.1.9)-1
; #@! TF.FileFunction,Plated,1,2,PTH
FMAT,2
INCH
T1C0.0118
T2C0.0197
T3C0.0315
T4C0.0354
T5C0.0394
%
G90
G05
T1
X1.296Y-2.7986
X1.3194Y-3.1051
X1.3205Y-3.1645
X1.3376Y-2.4362
X1.3435Y-3.803
X1.3514Y-2.2382
X1.3576Y-2.8329
X1.3721Y-2.5184
X1.3784Y-2.3246
X1.3935Y-2.8859
X1.4062Y-2.377
X1.4155Y-3.1432
X1.4178Y-3.0524
X1.4342Y-2.2797
X1.4408Y-3.486
X1.4578Y-2.9624
X1.7534Y-2.6805
X1.7579Y-3.3009
X1.7774Y-2.9711
X1.7943Y-3.0998
X1.8011Y-2.6399
X1.8191Y-3.2327
X1.8405Y-3.4744
X1.8872Y-3.482
X1.8944Y-2.2003
X1.9601Y-3.3025
X1.9669Y-4.3624
X1.9684Y-2.7178
X1.9693Y-4.5827
X2.0089Y-3.0297
X2.0717Y-1.3301
X2.1189Y-2.7997
X2.1272Y-3.2035
X2.156Y-2.6979
X2.1564Y-1.4903
X2.1655Y-3.1695
X2.1692Y-3.4338
X2.1694Y-3.0502
X2.2001Y-2.6996
X2.2102Y-3.2749
X2.2121Y-1.4299
X2.2683Y-1.3301
X2.3185Y-2.9432
X2.3358Y-2.5222
X2.3359Y-3.4269
X2.3678Y-2.0582
X2.3681Y-3.0945
X2.3851Y-1.162
X2.4675Y-1.634
X2.4771Y-1.9416
X2.5147Y-3.1857
X2.5227Y-2.9884
X2.5231Y-3.0596
X2.5492Y-1.5857
X2.5507Y-1.5332
X2.552Y-3.2542
X2.5534Y-3.3122
X2.5537Y-1.8429
X2.6046Y-1.4853
X2.6393Y-1.5507
X2.6448Y-1.4243
X2.6463Y-4.3293
X2.6533Y-1.635
X2.6649Y-3.1182
X2.6715Y-4.4525
X2.6731Y-3.2432
X2.6864Y-3.0667
X2.6873Y-2.1113
X2.7296Y-2.0778
X2.7338Y-1.1118
X2.7386Y-1.5702
X2.7474Y-1.5389
X2.7501Y-3.0094
X2.7924Y-2.0465
X2.7989Y-2.9946
X2.8439Y-3.2462
X2.8517Y-2.9593
X2.8686Y-2.3717
X2.89Y-3.0583
X2.8943Y-1.3435
X2.9015Y-2.7471
X2.9055Y-3.2237
X2.9171Y-3.1002
X2.936Y-1.3622
X2.9391Y-2.8845
X2.969Y-1.6134
X3.0008Y-1.6142
X3.0305Y-3.0983
X3.0697Y-2.2919
X3.1135Y-3.2804
X3.1166Y-2.2688
X3.1195Y-1.5504
X3.1216Y-1.9775
X3.1227Y-1.2513
X3.1428Y-1.1165
X3.1595Y-1.7578
X3.1603Y-3.1503
X3.1662Y-2.2692
X3.1714Y-2.8829
X3.1744Y-4.4002
X3.2365Y-1.3023
X3.2379Y-1.7527
X3.2528Y-1.6039
X3.2571Y-4.5057
X3.2573Y-1.2522
X3.2605Y-1.962
X3.2675Y-1.6454
X3.2833Y-4.4422
X3.3065Y-1.2534
X3.3648Y-1.7607
X3.394Y-1.8033
X3.4032Y-1.3292
X3.4088Y-2.2386
X3.4139Y-2.9967
X3.4158Y-1.7613
X3.435Y-4.4901
X3.4402Y-1.6532
X3.4628Y-2.2557
X3.5137Y-2.0452
X3.5273Y-1.5028
X3.5323Y-4.402
X3.5403Y-3.161
X3.5435Y-1.5876
X3.5467Y-1.3971
X3.5565Y-1.7772
X3.5862Y-1.7667
X3.6133Y-1.4031
X3.6495Y-1.9514
X3.6767Y-2.1237
X3.6845Y-1.3461
X3.7328Y-1.1245
X3.7401Y-1.6289
X3.7665Y-1.5194
X3.7865Y-1.344
X3.8114Y-2.8903
X3.8267Y-1.7499
X3.8396Y-1.5409
X3.8497Y-1.9521
X3.8583Y-1.5164
X3.8611Y-2.8737
X3.8879Y-4.4946
X3.9384Y-2.884
X3.9444Y-1.3947
X3.9614Y-2.9804
X3.9659Y-1.2508
X4.0086Y-1.3672
X4.0384Y-1.3789
X4.0639Y-1.3291
X4.0931Y-3.1226
X4.1102Y-3.0966
X4.1785Y-1.2464
X4.2519Y-2.3843
X4.3053Y-1.5305
X4.3054Y-3.3872
X4.3072Y-3.2997
X4.4414Y-1.4052
X4.4995Y-2.5342
X4.5143Y-3.1677
X4.5588Y-1.2016
T2
X1.245Y-1.8697
X1.7281Y-3.3815
X1.7447Y-4.0541
X1.7477Y-2.0862
X1.7886Y-3.5489
X1.795Y-2.8867
X1.8374Y-1.1906
X1.8641Y-1.2196
X1.9472Y-1.0809
X1.9718Y-2.5189
X1.9803Y-2.5734
X2.0034Y-3.3534
X2.024Y-2.9667
X2.0741Y-2.4564
X2.1496Y-4.5924
X2.1535Y-2.2854
X2.2169Y-4.2387
X2.3741Y-1.3227
X2.4159Y-1.5135
X2.4187Y-1.1105
X2.5141Y-4.35
X2.5894Y-2.994
X2.5921Y-1.7616
X2.7311Y-2.9169
X2.7979Y-1.3324
X2.8299Y-1.2519
X2.8498Y-4.5184
X2.915Y-1.9747
X2.9169Y-2.9445
X2.9228Y-3.0185
X2.965Y-4.4169
X3.0647Y-3.3048
X3.0899Y-4.3176
X3.1364Y-1.6475
X3.3942Y-1.3914
X3.5549Y-1.6505
X3.6033Y-1.2384
X4.1722Y-2.9823
X4.1782Y-3.2082
X4.2175Y-1.5424
X4.2366Y-1.7177
X4.4706Y-2.1532
X4.495Y-2.9598
X4.6262Y-1.2202
T3
X1.25Y-2.25
X1.25Y-2.35
X1.25Y-2.45
X1.25Y-2.55
X1.25Y-2.65
X1.25Y-2.75
X1.25Y-2.85
X1.25Y-2.95
X1.25Y-3.05
X1.25Y-3.15
X1.25Y-3.25
X1.25Y-3.35
X1.2705Y-1.3274
X1.2705Y-1.6935
X1.325Y-4.2
X1.325Y-4.5
X1.4083Y-1.3274
X1.4083Y-1.6935
X1.55Y-2.25
X1.55Y-2.35
X1.55Y-2.45
X1.55Y-2.55
X1.55Y-2.65
X1.55Y-2.75
X1.55Y-2.85
X1.55Y-2.95
X1.55Y-3.05
X1.55Y-3.15
X1.55Y-3.25
X1.55Y-3.35
X1.625Y-4.2
X1.625Y-4.5
X2.43Y-2.19
X2.43Y-2.79
X2.43Y-3.575
X2.43Y-4.175
X2.53Y-2.19
X2.53Y-2.79
X2.53Y-3.575
X2.53Y-4.175
X2.63Y-2.19
X2.63Y-2.79
X2.63Y-3.575
X2.63Y-4.175
X2.73Y-2.19
X2.73Y-2.79
X2.73Y-3.575
X2.73Y-4.175
X2.83Y-2.19
X2.83Y-2.79
X2.83Y-3.575
X2.83Y-4.175
X2.93Y-2.19
X2.93Y-2.79
X2.93Y-3.575
X2.93Y-4.175
X3.03Y-2.19
X3.03Y-2.79
X3.03Y-3.575
X3.03Y-4.175
X3.125Y-3.36
X3.13Y-2.19
X3.13Y-2.79
X3.13Y-3.575
X3.13Y-4.175
X3.225Y-3.46
X3.23Y-2.19
X3.23Y-2.79
X3.23Y-3.575
X3.23Y-4.175
X3.325Y-3.36
X3.33Y-2.19
X3.33Y-2.79
X3.33Y-3.575
X3.33Y-4.175
X3.43Y-2.19
X3.43Y-2.79
X3.43Y-3.575
X3.43Y-4.175
X3.53Y-2.19
X3.53Y-2.79
X3.53Y-3.575
X3.53Y-4.175
X3.63Y-2.19
X3.63Y-2.79
X3.63Y-3.575
X3.63Y-4.175
X3.73Y-2.19
X3.73Y-2.79
X3.73Y-3.575
X3.73Y-4.175
X3.83Y-2.19
X3.83Y-2.79
X3.83Y-3.575
X3.83Y-4.175
X3.93Y-2.19
X3.93Y-2.79
X3.93Y-3.575
X3.93Y-4.175
X4.03Y-2.19
X4.03Y-2.79
X4.03Y-3.575
X4.03Y-4.175
X4.03Y-4.4
X4.13Y-2.19
X4.13Y-2.79
X4.13Y-3.575
X4.13Y-4.175
X4.13Y-4.3
X4.23Y-2.19
X4.23Y-2.79
X4.23Y-3.575
X4.23Y-4.175
X4.23Y-4.4
X4.33Y-2.19
X4.33Y-2.79
X4.33Y-3.575
X4.33Y-4.175
T4
X1.6929Y-1.811
X1.6929Y-1.911
X1.8898Y-1.811
X1.8898Y-1.911
X2.0866Y-1.5929
X2.0866Y-1.6929
X2.0866Y-1.811
X2.0866Y-1.911
X2.2835Y-1.5929
X2.2835Y-1.6929
X2.2835Y-1.811
X2.2835Y-1.911
X4.5669Y-2.3016
X4.5669Y-2.4016
X4.5669Y-2.6559
X4.5669Y-2.7559
X4.5669Y-3.6795
X4.5669Y-3.7795
X4.5669Y-3.9945
X4.5669Y-4.0945
T5
X0.8874Y-1.2047
X0.8874Y-1.3047
X0.8874Y-1.4047
X0.8874Y-1.5047
X0.8874Y-1.8059
X0.8874Y-1.9059
X0.8874Y-2.0059
X0.8874Y-2.1059
X0.8874Y-2.2059
X0.8874Y-2.3059
X0.8874Y-2.4059
X0.8874Y-2.5059
X0.8874Y-2.6059
X0.8874Y-2.7059
X0.8874Y-2.8059
X0.8874Y-2.9059
X0.8874Y-3.0059
X0.8874Y-3.1059
X0.8874Y-3.2059
X0.8874Y-3.3059
X0.8874Y-3.4059
X0.8874Y-3.5059
X0.8874Y-3.6059
X0.8874Y-3.7059
X0.8874Y-4.0071
X0.8874Y-4.1071
X0.8874Y-4.2071
X0.8874Y-4.3071
X0.9874Y-1.2047
X0.9874Y-1.3047
X0.9874Y-1.4047
X0.9874Y-1.5047
X0.9874Y-1.8059
X0.9874Y-1.9059
X0.9874Y-2.0059
X0.9874Y-2.1059
X0.9874Y-2.2059
X0.9874Y-2.3059
X0.9874Y-2.4059
X0.9874Y-2.5059
X0.9874Y-2.6059
X0.9874Y-2.7059
X0.9874Y-2.8059
X0.9874Y-2.9059
X0.9874Y-3.0059
X0.9874Y-3.1059
X0.9874Y-3.2059
X0.9874Y-3.3059
X0.9874Y-3.4059
X0.9874Y-3.5059
X0.9874Y-3.6059
X0.9874Y-3.7059
X0.9874Y-4.0071
X0.9874Y-4.1071
X0.9874Y-4.2071
X0.9874Y-4.3071
X1.375Y-0.875
X1.375Y-0.975
X1.475Y-0.875
X1.475Y-0.975
X1.575Y-0.875
X1.575Y-0.975
X1.675Y-0.875
X1.675Y-0.975
X1.775Y-0.875
X1.775Y-0.975
X1.875Y-0.875
X1.875Y-0.975
X1.975Y-0.875
X1.975Y-0.975
X2.075Y-0.875
X2.075Y-0.975
X2.175Y-0.875
X2.175Y-0.975
X2.275Y-0.875
X2.275Y-0.975
X2.375Y-0.875
X2.375Y-0.975
X2.475Y-0.875
X2.475Y-0.975
X2.575Y-0.875
X2.575Y-0.975
X2.675Y-0.875
X2.675Y-0.975
X2.775Y-0.875
X2.775Y-0.975
X2.875Y-0.875
X2.875Y-0.975
X2.975Y-0.875
X2.975Y-0.975
X3.45Y-0.875
X3.45Y-0.975
X3.55Y-0.875
X3.55Y-0.975
X3.65Y-0.875
X3.65Y-0.975
X3.75Y-0.875
X3.75Y-0.975
X3.7598Y-2.9724
X3.8031Y-3.2402
X3.8031Y-3.437
X3.85Y-0.875
X3.85Y-0.975
X3.8598Y-2.9724
X3.95Y-0.875
X3.95Y-0.975
X4.05Y-0.875
X4.05Y-0.975
X4.1323Y-3.4252
X4.15Y-0.875
X4.15Y-0.975
X4.2323Y-3.4252
T0
M30
