M48
; DRILL file {KiCad (5.1.9)-1} date 02/05/22 12:09:47
; FORMAT={-:-/ absolute / inch / decimal}
; #@! TF.CreationDate,2022-02-05T12:09:47-05:00
; #@! TF.GenerationSoftware,Kicad,Pcbnew,(5.1.9)-1
; #@! TF.FileFunction,Plated,1,2,PTH
FMAT,2
INCH
T1C0.0118
T2C0.0197
T3C0.0236
T4C0.0315
T5C0.0354
T6C0.0394
%
G90
G05
T1
X1.0696Y-2.9205
X1.0884Y-2.425
X1.1131Y-2.6071
X1.136Y-4.2545
X1.2006Y-2.8904
X1.2061Y-4.2801
X1.2446Y-2.9901
X1.2638Y-3.4247
X1.3338Y-4.2689
X1.5063Y-3.5394
X1.7033Y-3.7277
X2.0024Y-3.6192
X2.0148Y-3.57
X2.0625Y-3.2603
X2.0698Y-3.3176
X2.0711Y-3.1852
X2.0953Y-3.7253
X2.1323Y-3.5914
X2.1851Y-3.4617
X2.1879Y-3.3409
X2.2037Y-3.4963
X2.2301Y-3.2697
X2.2436Y-3.6487
X2.3063Y-3.838
X2.3356Y-3.5088
X2.4254Y-4.1061
X2.4816Y-3.9031
X2.5059Y-3.8532
X2.5214Y-3.9481
X2.5429Y-3.7597
X2.5926Y-3.3905
X2.6553Y-3.612
X2.6637Y-3.5235
X2.6906Y-3.8205
X2.722Y-3.7577
X2.7346Y-3.5374
X2.7425Y-3.2167
X2.7894Y-4.311
X2.8475Y-3.3766
X2.8647Y-3.6582
X2.8954Y-3.6828
X2.9056Y-3.335
X2.9391Y-3.0722
X2.9509Y-3.1422
X3.1508Y-3.2255
X3.1558Y-3.6364
X3.336Y-3.627
X3.3875Y-3.1552
X3.4005Y-2.8027
X3.4561Y-3.7373
X3.5383Y-3.4484
X3.5767Y-3.4522
X3.6237Y-3.472
X3.8113Y-2.7266
X3.815Y-3.4913
X3.8343Y-2.7052
X3.8694Y-2.7024
X4.1581Y-3.5733
X4.1785Y-3.8245
X4.1884Y-3.6469
X4.304Y-3.4472
X4.4214Y-3.7494
X4.4278Y-3.8026
X4.4669Y-3.6983
T2
X1.6166Y-4.1734
X1.7124Y-4.0878
X1.7155Y-3.9664
X1.9419Y-3.808
X2.1252Y-3.9082
X2.3096Y-3.9605
X2.3206Y-3.6182
X2.6293Y-3.2687
X2.6419Y-4.1517
X2.8199Y-3.5771
X3.0641Y-3.3806
X3.5655Y-3.6616
X3.7028Y-3.3643
X3.8013Y-3.5798
X4.016Y-3.3637
X4.587Y-3.3636
T3
X2.3031Y-1.1929
X2.3031Y-1.4055
X2.3031Y-1.5866
X2.3031Y-1.7992
X2.3031Y-1.9803
X2.3031Y-2.1929
X2.3031Y-2.374
X2.3031Y-2.5866
X2.3031Y-2.8465
X2.3031Y-3.0591
X2.3031Y-3.2402
X2.3031Y-3.4528
X2.4016Y-1.1929
X2.4016Y-1.4055
X2.4016Y-1.5866
X2.4016Y-1.7992
X2.4016Y-1.9803
X2.4016Y-2.1929
X2.4016Y-2.374
X2.4016Y-2.5866
X2.4016Y-2.8465
X2.4016Y-3.0591
X2.4016Y-3.2402
X2.4016Y-3.4528
X2.5Y-1.1929
X2.5Y-1.4055
X2.5Y-1.5866
X2.5Y-1.7992
X2.5Y-1.9803
X2.5Y-2.1929
X2.5Y-2.374
X2.5Y-2.5866
X2.5Y-2.8465
X2.5Y-3.0591
X2.5Y-3.2402
X2.5Y-3.4528
X2.6969Y-1.1929
X2.6969Y-1.4055
X2.6969Y-1.5866
X2.6969Y-1.7992
X2.6969Y-1.9803
X2.6969Y-2.1929
X2.6969Y-2.374
X2.6969Y-2.5866
X2.6969Y-2.8465
X2.6969Y-3.0591
X2.7953Y-1.1929
X2.7953Y-1.4055
X2.7953Y-1.5866
X2.7953Y-1.7992
X2.7953Y-1.9803
X2.7953Y-2.1929
X2.7953Y-2.374
X2.7953Y-2.5866
X2.7953Y-2.8465
X2.7953Y-3.0591
X2.8937Y-1.1929
X2.8937Y-1.4055
X2.8937Y-1.5866
X2.8937Y-1.7992
X2.8937Y-1.9803
X2.8937Y-2.1929
X2.8937Y-2.374
X2.8937Y-2.5866
X2.8937Y-2.8465
X2.8937Y-3.0591
X3.0906Y-1.1929
X3.0906Y-1.4055
X3.0906Y-1.5866
X3.0906Y-1.7992
X3.0906Y-1.9803
X3.0906Y-2.1929
X3.0906Y-2.374
X3.0906Y-2.5866
X3.0906Y-2.8465
X3.0906Y-3.0591
X3.189Y-1.1929
X3.189Y-1.4055
X3.189Y-1.5866
X3.189Y-1.7992
X3.189Y-1.9803
X3.189Y-2.1929
X3.189Y-2.374
X3.189Y-2.5866
X3.189Y-2.8465
X3.189Y-3.0591
X3.2874Y-1.1929
X3.2874Y-1.4055
X3.2874Y-1.5866
X3.2874Y-1.7992
X3.2874Y-1.9803
X3.2874Y-2.1929
X3.2874Y-2.374
X3.2874Y-2.5866
X3.2874Y-2.8465
X3.2874Y-3.0591
X3.4843Y-1.1929
X3.4843Y-1.4055
X3.4843Y-1.5866
X3.4843Y-1.7992
X3.4843Y-1.9803
X3.4843Y-2.1929
X3.4843Y-2.374
X3.4843Y-2.5866
X3.4843Y-2.8465
X3.4843Y-3.0591
X3.5827Y-1.1929
X3.5827Y-1.4055
X3.5827Y-1.5866
X3.5827Y-1.7992
X3.5827Y-1.9803
X3.5827Y-2.1929
X3.5827Y-2.374
X3.5827Y-2.5866
X3.5827Y-2.8465
X3.5827Y-3.0591
X3.6811Y-1.1929
X3.6811Y-1.4055
X3.6811Y-1.5866
X3.6811Y-1.7992
X3.6811Y-1.9803
X3.6811Y-2.1929
X3.6811Y-2.374
X3.6811Y-2.5866
X3.6811Y-2.8465
X3.6811Y-3.0591
X3.878Y-1.1929
X3.878Y-1.4055
X3.878Y-1.5866
X3.878Y-1.7992
X3.878Y-1.9803
X3.878Y-2.1929
X3.878Y-2.374
X3.878Y-2.5866
X3.878Y-2.8465
X3.878Y-3.0591
X3.9764Y-1.1929
X3.9764Y-1.4055
X3.9764Y-1.5866
X3.9764Y-1.7992
X3.9764Y-1.9803
X3.9764Y-2.1929
X3.9764Y-2.374
X3.9764Y-2.5866
X3.9764Y-2.8465
X3.9764Y-3.0591
X4.0748Y-1.1929
X4.0748Y-1.4055
X4.0748Y-1.5866
X4.0748Y-1.7992
X4.0748Y-1.9803
X4.0748Y-2.1929
X4.0748Y-2.374
X4.0748Y-2.5866
X4.0748Y-2.8465
X4.0748Y-3.0591
X4.2717Y-1.1929
X4.2717Y-1.4055
X4.2717Y-1.5866
X4.2717Y-1.7992
X4.2717Y-1.9803
X4.2717Y-2.1929
X4.2717Y-2.374
X4.2717Y-2.5866
X4.2717Y-2.8465
X4.2717Y-3.0591
X4.3701Y-1.1929
X4.3701Y-1.4055
X4.3701Y-1.5866
X4.3701Y-1.7992
X4.3701Y-1.9803
X4.3701Y-2.1929
X4.3701Y-2.374
X4.3701Y-2.5866
X4.3701Y-2.8465
X4.3701Y-3.0591
X4.4685Y-1.1929
X4.4685Y-1.4055
X4.4685Y-1.5866
X4.4685Y-1.7992
X4.4685Y-1.9803
X4.4685Y-2.1929
X4.4685Y-2.374
X4.4685Y-2.5866
X4.4685Y-2.8465
X4.4685Y-3.0591
T4
X1.35Y-1.0394
X1.35Y-1.1394
X1.35Y-1.2394
X1.35Y-1.3394
X1.35Y-1.4394
X1.35Y-1.5394
X1.35Y-1.7394
X1.35Y-1.8394
X1.35Y-1.9394
X1.35Y-2.0394
X1.35Y-2.1394
X1.35Y-2.2394
X1.35Y-2.4394
X1.35Y-2.5394
X1.35Y-2.6394
X1.35Y-2.7394
X1.35Y-2.8394
X1.35Y-2.9394
X1.35Y-3.1394
X1.35Y-3.2394
X1.35Y-3.3394
X1.35Y-3.4394
X1.35Y-3.5394
X1.35Y-3.6394
X1.95Y-1.0394
X1.95Y-1.1394
X1.95Y-1.2394
X1.95Y-1.3394
X1.95Y-1.4394
X1.95Y-1.5394
X1.95Y-1.7394
X1.95Y-1.8394
X1.95Y-1.9394
X1.95Y-2.0394
X1.95Y-2.1394
X1.95Y-2.2394
X1.95Y-2.4394
X1.95Y-2.5394
X1.95Y-2.6394
X1.95Y-2.7394
X1.95Y-2.8394
X1.95Y-2.9394
X1.95Y-3.1394
X1.95Y-3.2394
X1.95Y-3.3394
X1.95Y-3.4394
X1.95Y-3.5394
X1.95Y-3.6394
T5
X1.3386Y-4.4
X1.3386Y-4.5
X1.5354Y-4.4
X1.5354Y-4.5
X1.7323Y-4.4
X1.7323Y-4.5
X1.9291Y-4.4
X1.9291Y-4.5
X2.126Y-4.4
X2.126Y-4.5
X2.3228Y-4.4
X2.3228Y-4.5
X2.5197Y-4.4
X2.5197Y-4.5
X2.7165Y-4.4
X2.7165Y-4.5
X2.9134Y-4.0831
X2.9134Y-4.1831
X2.9134Y-4.4
X2.9134Y-4.5
X3.1102Y-4.0831
X3.1102Y-4.1831
X3.1102Y-4.4
X3.1102Y-4.5
X3.3071Y-4.0831
X3.3071Y-4.1831
X3.3071Y-4.4
X3.3071Y-4.5
X3.5039Y-4.0831
X3.5039Y-4.1831
X3.5039Y-4.4
X3.5039Y-4.5
X3.7008Y-4.0831
X3.7008Y-4.1831
X3.7008Y-4.4
X3.7008Y-4.5
X3.8976Y-4.0831
X3.8976Y-4.1831
X3.8976Y-4.4
X3.8976Y-4.5
X4.0945Y-4.0831
X4.0945Y-4.1831
X4.0945Y-4.4
X4.0945Y-4.5
X4.2913Y-4.0831
X4.2913Y-4.1831
X4.2913Y-4.4
X4.2913Y-4.5
T6
X0.8874Y-1.2047
X0.8874Y-1.3047
X0.8874Y-1.4047
X0.8874Y-1.5047
X0.8874Y-1.8059
X0.8874Y-1.9059
X0.8874Y-2.0059
X0.8874Y-2.1059
X0.8874Y-2.2059
X0.8874Y-2.3059
X0.8874Y-2.4059
X0.8874Y-2.5059
X0.8874Y-2.6059
X0.8874Y-2.7059
X0.8874Y-2.8059
X0.8874Y-2.9059
X0.8874Y-3.0059
X0.8874Y-3.1059
X0.8874Y-3.2059
X0.8874Y-3.3059
X0.8874Y-3.4059
X0.8874Y-3.5059
X0.8874Y-3.6059
X0.8874Y-3.7059
X0.8874Y-4.0071
X0.8874Y-4.1071
X0.8874Y-4.2071
X0.8874Y-4.3071
X0.9874Y-1.2047
X0.9874Y-1.3047
X0.9874Y-1.4047
X0.9874Y-1.5047
X0.9874Y-1.8059
X0.9874Y-1.9059
X0.9874Y-2.0059
X0.9874Y-2.1059
X0.9874Y-2.2059
X0.9874Y-2.3059
X0.9874Y-2.4059
X0.9874Y-2.5059
X0.9874Y-2.6059
X0.9874Y-2.7059
X0.9874Y-2.8059
X0.9874Y-2.9059
X0.9874Y-3.0059
X0.9874Y-3.1059
X0.9874Y-3.2059
X0.9874Y-3.3059
X0.9874Y-3.4059
X0.9874Y-3.5059
X0.9874Y-3.6059
X0.9874Y-3.7059
X0.9874Y-4.0071
X0.9874Y-4.1071
X0.9874Y-4.2071
X0.9874Y-4.3071
T0
M30
