%TF.GenerationSoftware,KiCad,Pcbnew,(5.1.9)-1*%
%TF.CreationDate,2021-06-06T11:32:17-04:00*%
%TF.ProjectId,main,6d61696e-2e6b-4696-9361-645f70636258,rev?*%
%TF.SameCoordinates,Original*%
%TF.FileFunction,Legend,Bot*%
%TF.FilePolarity,Positive*%
%FSLAX46Y46*%
G04 Gerber Fmt 4.6, Leading zero omitted, Abs format (unit mm)*
G04 Created by KiCad (PCBNEW (5.1.9)-1) date 2021-06-06 11:32:17*
%MOMM*%
%LPD*%
G01*
G04 APERTURE LIST*
%ADD10C,0.120000*%
%ADD11C,0.150000*%
G04 APERTURE END LIST*
D10*
%TO.C,C8*%
X40519000Y-30918748D02*
X40519000Y-31441252D01*
X39049000Y-30918748D02*
X39049000Y-31441252D01*
%TO.C,C14*%
X46107000Y-30918748D02*
X46107000Y-31441252D01*
X44637000Y-30918748D02*
X44637000Y-31441252D01*
%TO.C,R4*%
X112477064Y-86235000D02*
X112022936Y-86235000D01*
X112477064Y-84765000D02*
X112022936Y-84765000D01*
%TO.C,R3*%
X112477064Y-92235000D02*
X112022936Y-92235000D01*
X112477064Y-90765000D02*
X112022936Y-90765000D01*
%TO.C,R2*%
X112477064Y-98235000D02*
X112022936Y-98235000D01*
X112477064Y-96765000D02*
X112022936Y-96765000D01*
%TO.C,R1*%
X112477064Y-104235000D02*
X112022936Y-104235000D01*
X112477064Y-102765000D02*
X112022936Y-102765000D01*
%TO.C,C6*%
X48521252Y-73125000D02*
X47998748Y-73125000D01*
X48521252Y-71655000D02*
X47998748Y-71655000D01*
%TO.C,C4*%
X66301252Y-59155000D02*
X65778748Y-59155000D01*
X66301252Y-57685000D02*
X65778748Y-57685000D01*
%TO.C,C3*%
X66301252Y-31215000D02*
X65778748Y-31215000D01*
X66301252Y-29745000D02*
X65778748Y-29745000D01*
%TO.C,C2*%
X48521252Y-52805000D02*
X47998748Y-52805000D01*
X48521252Y-51335000D02*
X47998748Y-51335000D01*
%TO.C,C1*%
X66301252Y-87095000D02*
X65778748Y-87095000D01*
X66301252Y-85625000D02*
X65778748Y-85625000D01*
%TO.C,C8*%
D11*
X41792142Y-31013333D02*
X41839761Y-30965714D01*
X41887380Y-30822857D01*
X41887380Y-30727619D01*
X41839761Y-30584761D01*
X41744523Y-30489523D01*
X41649285Y-30441904D01*
X41458809Y-30394285D01*
X41315952Y-30394285D01*
X41125476Y-30441904D01*
X41030238Y-30489523D01*
X40935000Y-30584761D01*
X40887380Y-30727619D01*
X40887380Y-30822857D01*
X40935000Y-30965714D01*
X40982619Y-31013333D01*
X41315952Y-31584761D02*
X41268333Y-31489523D01*
X41220714Y-31441904D01*
X41125476Y-31394285D01*
X41077857Y-31394285D01*
X40982619Y-31441904D01*
X40935000Y-31489523D01*
X40887380Y-31584761D01*
X40887380Y-31775238D01*
X40935000Y-31870476D01*
X40982619Y-31918095D01*
X41077857Y-31965714D01*
X41125476Y-31965714D01*
X41220714Y-31918095D01*
X41268333Y-31870476D01*
X41315952Y-31775238D01*
X41315952Y-31584761D01*
X41363571Y-31489523D01*
X41411190Y-31441904D01*
X41506428Y-31394285D01*
X41696904Y-31394285D01*
X41792142Y-31441904D01*
X41839761Y-31489523D01*
X41887380Y-31584761D01*
X41887380Y-31775238D01*
X41839761Y-31870476D01*
X41792142Y-31918095D01*
X41696904Y-31965714D01*
X41506428Y-31965714D01*
X41411190Y-31918095D01*
X41363571Y-31870476D01*
X41315952Y-31775238D01*
%TO.C,C14*%
X43951142Y-30537142D02*
X43998761Y-30489523D01*
X44046380Y-30346666D01*
X44046380Y-30251428D01*
X43998761Y-30108571D01*
X43903523Y-30013333D01*
X43808285Y-29965714D01*
X43617809Y-29918095D01*
X43474952Y-29918095D01*
X43284476Y-29965714D01*
X43189238Y-30013333D01*
X43094000Y-30108571D01*
X43046380Y-30251428D01*
X43046380Y-30346666D01*
X43094000Y-30489523D01*
X43141619Y-30537142D01*
X44046380Y-31489523D02*
X44046380Y-30918095D01*
X44046380Y-31203809D02*
X43046380Y-31203809D01*
X43189238Y-31108571D01*
X43284476Y-31013333D01*
X43332095Y-30918095D01*
X43379714Y-32346666D02*
X44046380Y-32346666D01*
X42998761Y-32108571D02*
X43713047Y-31870476D01*
X43713047Y-32489523D01*
%TO.C,R4*%
X115702380Y-85333333D02*
X115226190Y-85000000D01*
X115702380Y-84761904D02*
X114702380Y-84761904D01*
X114702380Y-85142857D01*
X114750000Y-85238095D01*
X114797619Y-85285714D01*
X114892857Y-85333333D01*
X115035714Y-85333333D01*
X115130952Y-85285714D01*
X115178571Y-85238095D01*
X115226190Y-85142857D01*
X115226190Y-84761904D01*
X115035714Y-86190476D02*
X115702380Y-86190476D01*
X114654761Y-85952380D02*
X115369047Y-85714285D01*
X115369047Y-86333333D01*
%TO.C,R3*%
X115702380Y-91333333D02*
X115226190Y-91000000D01*
X115702380Y-90761904D02*
X114702380Y-90761904D01*
X114702380Y-91142857D01*
X114750000Y-91238095D01*
X114797619Y-91285714D01*
X114892857Y-91333333D01*
X115035714Y-91333333D01*
X115130952Y-91285714D01*
X115178571Y-91238095D01*
X115226190Y-91142857D01*
X115226190Y-90761904D01*
X114702380Y-91666666D02*
X114702380Y-92285714D01*
X115083333Y-91952380D01*
X115083333Y-92095238D01*
X115130952Y-92190476D01*
X115178571Y-92238095D01*
X115273809Y-92285714D01*
X115511904Y-92285714D01*
X115607142Y-92238095D01*
X115654761Y-92190476D01*
X115702380Y-92095238D01*
X115702380Y-91809523D01*
X115654761Y-91714285D01*
X115607142Y-91666666D01*
%TO.C,R2*%
X115702380Y-97333333D02*
X115226190Y-97000000D01*
X115702380Y-96761904D02*
X114702380Y-96761904D01*
X114702380Y-97142857D01*
X114750000Y-97238095D01*
X114797619Y-97285714D01*
X114892857Y-97333333D01*
X115035714Y-97333333D01*
X115130952Y-97285714D01*
X115178571Y-97238095D01*
X115226190Y-97142857D01*
X115226190Y-96761904D01*
X114797619Y-97714285D02*
X114750000Y-97761904D01*
X114702380Y-97857142D01*
X114702380Y-98095238D01*
X114750000Y-98190476D01*
X114797619Y-98238095D01*
X114892857Y-98285714D01*
X114988095Y-98285714D01*
X115130952Y-98238095D01*
X115702380Y-97666666D01*
X115702380Y-98285714D01*
%TO.C,R1*%
X115702380Y-103333333D02*
X115226190Y-103000000D01*
X115702380Y-102761904D02*
X114702380Y-102761904D01*
X114702380Y-103142857D01*
X114750000Y-103238095D01*
X114797619Y-103285714D01*
X114892857Y-103333333D01*
X115035714Y-103333333D01*
X115130952Y-103285714D01*
X115178571Y-103238095D01*
X115226190Y-103142857D01*
X115226190Y-102761904D01*
X115702380Y-104285714D02*
X115702380Y-103714285D01*
X115702380Y-104000000D02*
X114702380Y-104000000D01*
X114845238Y-103904761D01*
X114940476Y-103809523D01*
X114988095Y-103714285D01*
%TO.C,C6*%
X48426666Y-71067142D02*
X48474285Y-71114761D01*
X48617142Y-71162380D01*
X48712380Y-71162380D01*
X48855238Y-71114761D01*
X48950476Y-71019523D01*
X48998095Y-70924285D01*
X49045714Y-70733809D01*
X49045714Y-70590952D01*
X48998095Y-70400476D01*
X48950476Y-70305238D01*
X48855238Y-70210000D01*
X48712380Y-70162380D01*
X48617142Y-70162380D01*
X48474285Y-70210000D01*
X48426666Y-70257619D01*
X47569523Y-70162380D02*
X47760000Y-70162380D01*
X47855238Y-70210000D01*
X47902857Y-70257619D01*
X47998095Y-70400476D01*
X48045714Y-70590952D01*
X48045714Y-70971904D01*
X47998095Y-71067142D01*
X47950476Y-71114761D01*
X47855238Y-71162380D01*
X47664761Y-71162380D01*
X47569523Y-71114761D01*
X47521904Y-71067142D01*
X47474285Y-70971904D01*
X47474285Y-70733809D01*
X47521904Y-70638571D01*
X47569523Y-70590952D01*
X47664761Y-70543333D01*
X47855238Y-70543333D01*
X47950476Y-70590952D01*
X47998095Y-70638571D01*
X48045714Y-70733809D01*
%TO.C,C4*%
X63600666Y-58777142D02*
X63648285Y-58824761D01*
X63791142Y-58872380D01*
X63886380Y-58872380D01*
X64029238Y-58824761D01*
X64124476Y-58729523D01*
X64172095Y-58634285D01*
X64219714Y-58443809D01*
X64219714Y-58300952D01*
X64172095Y-58110476D01*
X64124476Y-58015238D01*
X64029238Y-57920000D01*
X63886380Y-57872380D01*
X63791142Y-57872380D01*
X63648285Y-57920000D01*
X63600666Y-57967619D01*
X62743523Y-58205714D02*
X62743523Y-58872380D01*
X62981619Y-57824761D02*
X63219714Y-58539047D01*
X62600666Y-58539047D01*
%TO.C,C3*%
X66206666Y-32488142D02*
X66254285Y-32535761D01*
X66397142Y-32583380D01*
X66492380Y-32583380D01*
X66635238Y-32535761D01*
X66730476Y-32440523D01*
X66778095Y-32345285D01*
X66825714Y-32154809D01*
X66825714Y-32011952D01*
X66778095Y-31821476D01*
X66730476Y-31726238D01*
X66635238Y-31631000D01*
X66492380Y-31583380D01*
X66397142Y-31583380D01*
X66254285Y-31631000D01*
X66206666Y-31678619D01*
X65873333Y-31583380D02*
X65254285Y-31583380D01*
X65587619Y-31964333D01*
X65444761Y-31964333D01*
X65349523Y-32011952D01*
X65301904Y-32059571D01*
X65254285Y-32154809D01*
X65254285Y-32392904D01*
X65301904Y-32488142D01*
X65349523Y-32535761D01*
X65444761Y-32583380D01*
X65730476Y-32583380D01*
X65825714Y-32535761D01*
X65873333Y-32488142D01*
%TO.C,C2*%
X48426666Y-50747142D02*
X48474285Y-50794761D01*
X48617142Y-50842380D01*
X48712380Y-50842380D01*
X48855238Y-50794761D01*
X48950476Y-50699523D01*
X48998095Y-50604285D01*
X49045714Y-50413809D01*
X49045714Y-50270952D01*
X48998095Y-50080476D01*
X48950476Y-49985238D01*
X48855238Y-49890000D01*
X48712380Y-49842380D01*
X48617142Y-49842380D01*
X48474285Y-49890000D01*
X48426666Y-49937619D01*
X48045714Y-49937619D02*
X47998095Y-49890000D01*
X47902857Y-49842380D01*
X47664761Y-49842380D01*
X47569523Y-49890000D01*
X47521904Y-49937619D01*
X47474285Y-50032857D01*
X47474285Y-50128095D01*
X47521904Y-50270952D01*
X48093333Y-50842380D01*
X47474285Y-50842380D01*
%TO.C,C1*%
X66206666Y-85037142D02*
X66254285Y-85084761D01*
X66397142Y-85132380D01*
X66492380Y-85132380D01*
X66635238Y-85084761D01*
X66730476Y-84989523D01*
X66778095Y-84894285D01*
X66825714Y-84703809D01*
X66825714Y-84560952D01*
X66778095Y-84370476D01*
X66730476Y-84275238D01*
X66635238Y-84180000D01*
X66492380Y-84132380D01*
X66397142Y-84132380D01*
X66254285Y-84180000D01*
X66206666Y-84227619D01*
X65254285Y-85132380D02*
X65825714Y-85132380D01*
X65540000Y-85132380D02*
X65540000Y-84132380D01*
X65635238Y-84275238D01*
X65730476Y-84370476D01*
X65825714Y-84418095D01*
%TD*%
M02*
