%TF.GenerationSoftware,KiCad,Pcbnew,(5.1.9)-1*%
%TF.CreationDate,2021-06-06T11:32:17-04:00*%
%TF.ProjectId,main,6d61696e-2e6b-4696-9361-645f70636258,rev?*%
%TF.SameCoordinates,Original*%
%TF.FileFunction,Copper,L1,Top*%
%TF.FilePolarity,Positive*%
%FSLAX46Y46*%
G04 Gerber Fmt 4.6, Leading zero omitted, Abs format (unit mm)*
G04 Created by KiCad (PCBNEW (5.1.9)-1) date 2021-06-06 11:32:17*
%MOMM*%
%LPD*%
G01*
G04 APERTURE LIST*
%TA.AperFunction,ComponentPad*%
%ADD10C,1.800000*%
%TD*%
%TA.AperFunction,ComponentPad*%
%ADD11R,1.800000X1.800000*%
%TD*%
%TA.AperFunction,ComponentPad*%
%ADD12C,1.600000*%
%TD*%
%TA.AperFunction,ComponentPad*%
%ADD13R,1.600000X1.600000*%
%TD*%
%TA.AperFunction,ComponentPad*%
%ADD14O,1.600000X1.600000*%
%TD*%
%TA.AperFunction,ComponentPad*%
%ADD15O,1.700000X1.700000*%
%TD*%
%TA.AperFunction,ComponentPad*%
%ADD16R,1.700000X1.700000*%
%TD*%
%TA.AperFunction,ViaPad*%
%ADD17C,1.200000*%
%TD*%
%TA.AperFunction,ViaPad*%
%ADD18C,0.600000*%
%TD*%
%TA.AperFunction,Conductor*%
%ADD19C,0.700000*%
%TD*%
%TA.AperFunction,Conductor*%
%ADD20C,0.220000*%
%TD*%
G04 APERTURE END LIST*
%TO.P,R8,2*%
%TO.N,Net-(D28-Pad2)*%
%TA.AperFunction,SMDPad,CuDef*%
G36*
G01*
X92900000Y-90450001D02*
X92900000Y-89549999D01*
G75*
G02*
X93149999Y-89300000I249999J0D01*
G01*
X93675001Y-89300000D01*
G75*
G02*
X93925000Y-89549999I0J-249999D01*
G01*
X93925000Y-90450001D01*
G75*
G02*
X93675001Y-90700000I-249999J0D01*
G01*
X93149999Y-90700000D01*
G75*
G02*
X92900000Y-90450001I0J249999D01*
G01*
G37*
%TD.AperFunction*%
%TO.P,R8,1*%
%TO.N,+5V*%
%TA.AperFunction,SMDPad,CuDef*%
G36*
G01*
X91075000Y-90450001D02*
X91075000Y-89549999D01*
G75*
G02*
X91324999Y-89300000I249999J0D01*
G01*
X91850001Y-89300000D01*
G75*
G02*
X92100000Y-89549999I0J-249999D01*
G01*
X92100000Y-90450001D01*
G75*
G02*
X91850001Y-90700000I-249999J0D01*
G01*
X91324999Y-90700000D01*
G75*
G02*
X91075000Y-90450001I0J249999D01*
G01*
G37*
%TD.AperFunction*%
%TD*%
%TO.P,R7,2*%
%TO.N,Net-(D27-Pad2)*%
%TA.AperFunction,SMDPad,CuDef*%
G36*
G01*
X92900000Y-95450001D02*
X92900000Y-94549999D01*
G75*
G02*
X93149999Y-94300000I249999J0D01*
G01*
X93675001Y-94300000D01*
G75*
G02*
X93925000Y-94549999I0J-249999D01*
G01*
X93925000Y-95450001D01*
G75*
G02*
X93675001Y-95700000I-249999J0D01*
G01*
X93149999Y-95700000D01*
G75*
G02*
X92900000Y-95450001I0J249999D01*
G01*
G37*
%TD.AperFunction*%
%TO.P,R7,1*%
%TO.N,+5V*%
%TA.AperFunction,SMDPad,CuDef*%
G36*
G01*
X91075000Y-95450001D02*
X91075000Y-94549999D01*
G75*
G02*
X91324999Y-94300000I249999J0D01*
G01*
X91850001Y-94300000D01*
G75*
G02*
X92100000Y-94549999I0J-249999D01*
G01*
X92100000Y-95450001D01*
G75*
G02*
X91850001Y-95700000I-249999J0D01*
G01*
X91324999Y-95700000D01*
G75*
G02*
X91075000Y-95450001I0J249999D01*
G01*
G37*
%TD.AperFunction*%
%TD*%
%TO.P,R6,2*%
%TO.N,Net-(D26-Pad2)*%
%TA.AperFunction,SMDPad,CuDef*%
G36*
G01*
X92900000Y-100450001D02*
X92900000Y-99549999D01*
G75*
G02*
X93149999Y-99300000I249999J0D01*
G01*
X93675001Y-99300000D01*
G75*
G02*
X93925000Y-99549999I0J-249999D01*
G01*
X93925000Y-100450001D01*
G75*
G02*
X93675001Y-100700000I-249999J0D01*
G01*
X93149999Y-100700000D01*
G75*
G02*
X92900000Y-100450001I0J249999D01*
G01*
G37*
%TD.AperFunction*%
%TO.P,R6,1*%
%TO.N,+5V*%
%TA.AperFunction,SMDPad,CuDef*%
G36*
G01*
X91075000Y-100450001D02*
X91075000Y-99549999D01*
G75*
G02*
X91324999Y-99300000I249999J0D01*
G01*
X91850001Y-99300000D01*
G75*
G02*
X92100000Y-99549999I0J-249999D01*
G01*
X92100000Y-100450001D01*
G75*
G02*
X91850001Y-100700000I-249999J0D01*
G01*
X91324999Y-100700000D01*
G75*
G02*
X91075000Y-100450001I0J249999D01*
G01*
G37*
%TD.AperFunction*%
%TD*%
%TO.P,R5,2*%
%TO.N,Net-(D25-Pad2)*%
%TA.AperFunction,SMDPad,CuDef*%
G36*
G01*
X92900000Y-105450001D02*
X92900000Y-104549999D01*
G75*
G02*
X93149999Y-104300000I249999J0D01*
G01*
X93675001Y-104300000D01*
G75*
G02*
X93925000Y-104549999I0J-249999D01*
G01*
X93925000Y-105450001D01*
G75*
G02*
X93675001Y-105700000I-249999J0D01*
G01*
X93149999Y-105700000D01*
G75*
G02*
X92900000Y-105450001I0J249999D01*
G01*
G37*
%TD.AperFunction*%
%TO.P,R5,1*%
%TO.N,+5V*%
%TA.AperFunction,SMDPad,CuDef*%
G36*
G01*
X91075000Y-105450001D02*
X91075000Y-104549999D01*
G75*
G02*
X91324999Y-104300000I249999J0D01*
G01*
X91850001Y-104300000D01*
G75*
G02*
X92100000Y-104549999I0J-249999D01*
G01*
X92100000Y-105450001D01*
G75*
G02*
X91850001Y-105700000I-249999J0D01*
G01*
X91324999Y-105700000D01*
G75*
G02*
X91075000Y-105450001I0J249999D01*
G01*
G37*
%TD.AperFunction*%
%TD*%
D10*
%TO.P,D28,2*%
%TO.N,Net-(D28-Pad2)*%
X95960000Y-90000000D03*
D11*
%TO.P,D28,1*%
%TO.N,Net-(D28-Pad1)*%
X98500000Y-90000000D03*
%TD*%
D10*
%TO.P,D27,2*%
%TO.N,Net-(D27-Pad2)*%
X95960000Y-95000000D03*
D11*
%TO.P,D27,1*%
%TO.N,Net-(D27-Pad1)*%
X98500000Y-95000000D03*
%TD*%
D10*
%TO.P,D26,2*%
%TO.N,Net-(D26-Pad2)*%
X95960000Y-100000000D03*
D11*
%TO.P,D26,1*%
%TO.N,Net-(D26-Pad1)*%
X98500000Y-100000000D03*
%TD*%
D10*
%TO.P,D25,2*%
%TO.N,Net-(D25-Pad2)*%
X95960000Y-105000000D03*
D11*
%TO.P,D25,1*%
%TO.N,Net-(D25-Pad1)*%
X98500000Y-105000000D03*
%TD*%
D12*
%TO.P,C9,2*%
%TO.N,GND*%
X37752000Y-32774000D03*
D13*
%TO.P,C9,1*%
%TO.N,+5V*%
X37752000Y-29274000D03*
%TD*%
D14*
%TO.P,U2,14*%
%TO.N,+5V*%
X50800000Y-52070000D03*
%TO.P,U2,7*%
%TO.N,GND*%
X43180000Y-67310000D03*
%TO.P,U2,13*%
%TO.N,Net-(U2-Pad10)*%
X50800000Y-54610000D03*
%TO.P,U2,6*%
X43180000Y-64770000D03*
%TO.P,U2,12*%
X50800000Y-57150000D03*
%TO.P,U2,5*%
%TO.N,Net-(D28-Pad1)*%
X43180000Y-62230000D03*
%TO.P,U2,11*%
%TO.N,N/C*%
X50800000Y-59690000D03*
%TO.P,U2,4*%
%TO.N,Net-(D27-Pad1)*%
X43180000Y-59690000D03*
%TO.P,U2,10*%
%TO.N,Net-(U2-Pad10)*%
X50800000Y-62230000D03*
%TO.P,U2,3*%
%TO.N,N/C*%
X43180000Y-57150000D03*
%TO.P,U2,9*%
%TO.N,Net-(U2-Pad10)*%
X50800000Y-64770000D03*
%TO.P,U2,2*%
%TO.N,Net-(D26-Pad1)*%
X43180000Y-54610000D03*
%TO.P,U2,8*%
%TO.N,Net-(U2-Pad8)*%
X50800000Y-67310000D03*
D13*
%TO.P,U2,1*%
%TO.N,Net-(D25-Pad1)*%
X43180000Y-52070000D03*
%TD*%
D14*
%TO.P,U1,14*%
%TO.N,+5V*%
X50800000Y-72390000D03*
%TO.P,U1,7*%
%TO.N,GND*%
X43180000Y-87630000D03*
%TO.P,U1,13*%
%TO.N,Net-(R4-Pad2)*%
X50800000Y-74930000D03*
%TO.P,U1,6*%
%TO.N,Net-(D26-Pad1)*%
X43180000Y-85090000D03*
%TO.P,U1,12*%
%TO.N,~F_WRITE~*%
X50800000Y-77470000D03*
%TO.P,U1,5*%
%TO.N,Net-(R2-Pad2)*%
X43180000Y-82550000D03*
%TO.P,U1,11*%
%TO.N,Net-(D28-Pad1)*%
X50800000Y-80010000D03*
%TO.P,U1,4*%
%TO.N,~F_OUT~*%
X43180000Y-80010000D03*
%TO.P,U1,10*%
%TO.N,Net-(R3-Pad2)*%
X50800000Y-82550000D03*
%TO.P,U1,3*%
%TO.N,Net-(D25-Pad1)*%
X43180000Y-77470000D03*
%TO.P,U1,9*%
%TO.N,~F_READ~*%
X50800000Y-85090000D03*
%TO.P,U1,2*%
%TO.N,Net-(R1-Pad2)*%
X43180000Y-74930000D03*
%TO.P,U1,8*%
%TO.N,Net-(D27-Pad1)*%
X50800000Y-87630000D03*
D13*
%TO.P,U1,1*%
%TO.N,~F_IN~*%
X43180000Y-72390000D03*
%TD*%
D14*
%TO.P,RN3,9*%
%TO.N,Net-(D21-Pad1)*%
X78000000Y-97820000D03*
%TO.P,RN3,8*%
%TO.N,Net-(D20-Pad1)*%
X78000000Y-95280000D03*
%TO.P,RN3,7*%
%TO.N,Net-(D22-Pad1)*%
X78000000Y-92740000D03*
%TO.P,RN3,6*%
%TO.N,Net-(D19-Pad1)*%
X78000000Y-90200000D03*
%TO.P,RN3,5*%
%TO.N,Net-(D23-Pad1)*%
X78000000Y-87660000D03*
%TO.P,RN3,4*%
%TO.N,Net-(D18-Pad1)*%
X78000000Y-85120000D03*
%TO.P,RN3,3*%
%TO.N,Net-(D24-Pad1)*%
X78000000Y-82580000D03*
%TO.P,RN3,2*%
%TO.N,Net-(D17-Pad1)*%
X78000000Y-80040000D03*
D13*
%TO.P,RN3,1*%
%TO.N,GND*%
X78000000Y-77500000D03*
%TD*%
D14*
%TO.P,RN2,9*%
%TO.N,Net-(D9-Pad1)*%
X78000000Y-42180000D03*
%TO.P,RN2,8*%
%TO.N,Net-(D16-Pad1)*%
X78000000Y-44720000D03*
%TO.P,RN2,7*%
%TO.N,Net-(D10-Pad1)*%
X78000000Y-47260000D03*
%TO.P,RN2,6*%
%TO.N,Net-(D15-Pad1)*%
X78000000Y-49800000D03*
%TO.P,RN2,5*%
%TO.N,Net-(D11-Pad1)*%
X78000000Y-52340000D03*
%TO.P,RN2,4*%
%TO.N,Net-(D14-Pad1)*%
X78000000Y-54880000D03*
%TO.P,RN2,3*%
%TO.N,Net-(D12-Pad1)*%
X78000000Y-57420000D03*
%TO.P,RN2,2*%
%TO.N,Net-(D13-Pad1)*%
X78000000Y-59960000D03*
D13*
%TO.P,RN2,1*%
%TO.N,GND*%
X78000000Y-62500000D03*
%TD*%
%TO.P,RN1,1*%
%TO.N,GND*%
X106500000Y-62500000D03*
D14*
%TO.P,RN1,2*%
%TO.N,Net-(D5-Pad1)*%
X106500000Y-59960000D03*
%TO.P,RN1,3*%
%TO.N,Net-(D4-Pad1)*%
X106500000Y-57420000D03*
%TO.P,RN1,4*%
%TO.N,Net-(D6-Pad1)*%
X106500000Y-54880000D03*
%TO.P,RN1,5*%
%TO.N,Net-(D3-Pad1)*%
X106500000Y-52340000D03*
%TO.P,RN1,6*%
%TO.N,Net-(D7-Pad1)*%
X106500000Y-49800000D03*
%TO.P,RN1,7*%
%TO.N,Net-(D2-Pad1)*%
X106500000Y-47260000D03*
%TO.P,RN1,8*%
%TO.N,Net-(D8-Pad1)*%
X106500000Y-44720000D03*
%TO.P,RN1,9*%
%TO.N,Net-(D1-Pad1)*%
X106500000Y-42180000D03*
%TD*%
D10*
%TO.P,D24,2*%
%TO.N,Net-(D24-Pad2)*%
X83460000Y-77500000D03*
D11*
%TO.P,D24,1*%
%TO.N,Net-(D24-Pad1)*%
X86000000Y-77500000D03*
%TD*%
D10*
%TO.P,D23,2*%
%TO.N,Net-(D23-Pad2)*%
X83460000Y-87500000D03*
D11*
%TO.P,D23,1*%
%TO.N,Net-(D23-Pad1)*%
X86000000Y-87500000D03*
%TD*%
D10*
%TO.P,D22,2*%
%TO.N,Net-(D22-Pad2)*%
X83460000Y-97500000D03*
D11*
%TO.P,D22,1*%
%TO.N,Net-(D22-Pad1)*%
X86000000Y-97500000D03*
%TD*%
D10*
%TO.P,D21,2*%
%TO.N,Net-(D21-Pad2)*%
X83460000Y-107500000D03*
D11*
%TO.P,D21,1*%
%TO.N,Net-(D21-Pad1)*%
X86000000Y-107500000D03*
%TD*%
D10*
%TO.P,D20,2*%
%TO.N,Net-(D20-Pad2)*%
X83460000Y-102500000D03*
D11*
%TO.P,D20,1*%
%TO.N,Net-(D20-Pad1)*%
X86000000Y-102500000D03*
%TD*%
D10*
%TO.P,D19,2*%
%TO.N,Net-(D19-Pad2)*%
X83460000Y-92500000D03*
D11*
%TO.P,D19,1*%
%TO.N,Net-(D19-Pad1)*%
X86000000Y-92500000D03*
%TD*%
D10*
%TO.P,D18,2*%
%TO.N,Net-(D18-Pad2)*%
X83460000Y-82500000D03*
D11*
%TO.P,D18,1*%
%TO.N,Net-(D18-Pad1)*%
X86000000Y-82500000D03*
%TD*%
D10*
%TO.P,D17,2*%
%TO.N,Net-(D17-Pad2)*%
X83460000Y-72500000D03*
D11*
%TO.P,D17,1*%
%TO.N,Net-(D17-Pad1)*%
X86000000Y-72500000D03*
%TD*%
D10*
%TO.P,D16,2*%
%TO.N,Net-(D16-Pad2)*%
X83460000Y-37500000D03*
D11*
%TO.P,D16,1*%
%TO.N,Net-(D16-Pad1)*%
X86000000Y-37500000D03*
%TD*%
D10*
%TO.P,D15,2*%
%TO.N,Net-(D15-Pad2)*%
X83460000Y-47500000D03*
D11*
%TO.P,D15,1*%
%TO.N,Net-(D15-Pad1)*%
X86000000Y-47500000D03*
%TD*%
D10*
%TO.P,D14,2*%
%TO.N,Net-(D14-Pad2)*%
X83460000Y-57500000D03*
D11*
%TO.P,D14,1*%
%TO.N,Net-(D14-Pad1)*%
X86000000Y-57500000D03*
%TD*%
D10*
%TO.P,D13,2*%
%TO.N,Net-(D13-Pad2)*%
X83460000Y-67500000D03*
D11*
%TO.P,D13,1*%
%TO.N,Net-(D13-Pad1)*%
X86000000Y-67500000D03*
%TD*%
D10*
%TO.P,D12,2*%
%TO.N,Net-(D12-Pad2)*%
X83460000Y-62500000D03*
D11*
%TO.P,D12,1*%
%TO.N,Net-(D12-Pad1)*%
X86000000Y-62500000D03*
%TD*%
D10*
%TO.P,D11,2*%
%TO.N,Net-(D11-Pad2)*%
X83460000Y-52500000D03*
D11*
%TO.P,D11,1*%
%TO.N,Net-(D11-Pad1)*%
X86000000Y-52500000D03*
%TD*%
D10*
%TO.P,D10,2*%
%TO.N,Net-(D10-Pad2)*%
X83460000Y-42500000D03*
D11*
%TO.P,D10,1*%
%TO.N,Net-(D10-Pad1)*%
X86000000Y-42500000D03*
%TD*%
D10*
%TO.P,D9,2*%
%TO.N,Net-(D9-Pad2)*%
X83460000Y-32500000D03*
D11*
%TO.P,D9,1*%
%TO.N,Net-(D9-Pad1)*%
X86000000Y-32500000D03*
%TD*%
D10*
%TO.P,D8,2*%
%TO.N,Net-(D8-Pad2)*%
X95460000Y-37500000D03*
D11*
%TO.P,D8,1*%
%TO.N,Net-(D8-Pad1)*%
X98000000Y-37500000D03*
%TD*%
D10*
%TO.P,D7,2*%
%TO.N,Net-(D7-Pad2)*%
X95460000Y-47500000D03*
D11*
%TO.P,D7,1*%
%TO.N,Net-(D7-Pad1)*%
X98000000Y-47500000D03*
%TD*%
D10*
%TO.P,D6,2*%
%TO.N,Net-(D6-Pad2)*%
X95460000Y-57500000D03*
D11*
%TO.P,D6,1*%
%TO.N,Net-(D6-Pad1)*%
X98000000Y-57500000D03*
%TD*%
D10*
%TO.P,D5,2*%
%TO.N,Net-(D5-Pad2)*%
X95460000Y-67500000D03*
D11*
%TO.P,D5,1*%
%TO.N,Net-(D5-Pad1)*%
X98000000Y-67500000D03*
%TD*%
D10*
%TO.P,D4,2*%
%TO.N,Net-(D4-Pad2)*%
X95460000Y-62500000D03*
D11*
%TO.P,D4,1*%
%TO.N,Net-(D4-Pad1)*%
X98000000Y-62500000D03*
%TD*%
D10*
%TO.P,D3,2*%
%TO.N,Net-(D3-Pad2)*%
X95460000Y-52500000D03*
D11*
%TO.P,D3,1*%
%TO.N,Net-(D3-Pad1)*%
X98000000Y-52500000D03*
%TD*%
D10*
%TO.P,D2,2*%
%TO.N,Net-(D2-Pad2)*%
X95460000Y-42500000D03*
D11*
%TO.P,D2,1*%
%TO.N,Net-(D2-Pad1)*%
X98000000Y-42500000D03*
%TD*%
D15*
%TO.P,SW4,3*%
%TO.N,N/C*%
X113790000Y-88500000D03*
%TO.P,SW4,2*%
%TO.N,Net-(R4-Pad2)*%
X111250000Y-88500000D03*
D16*
%TO.P,SW4,1*%
%TO.N,GND*%
X108710000Y-88500000D03*
%TD*%
D15*
%TO.P,SW3,3*%
%TO.N,N/C*%
X113790000Y-94500000D03*
%TO.P,SW3,2*%
%TO.N,Net-(R3-Pad2)*%
X111250000Y-94500000D03*
D16*
%TO.P,SW3,1*%
%TO.N,GND*%
X108710000Y-94500000D03*
%TD*%
D15*
%TO.P,SW2,3*%
%TO.N,N/C*%
X113790000Y-100500000D03*
%TO.P,SW2,2*%
%TO.N,Net-(R2-Pad2)*%
X111250000Y-100500000D03*
D16*
%TO.P,SW2,1*%
%TO.N,GND*%
X108710000Y-100500000D03*
%TD*%
D15*
%TO.P,SW1,3*%
%TO.N,N/C*%
X113790000Y-106500000D03*
%TO.P,SW1,2*%
%TO.N,Net-(R1-Pad2)*%
X111250000Y-106500000D03*
D16*
%TO.P,SW1,1*%
%TO.N,GND*%
X108710000Y-106500000D03*
%TD*%
D14*
%TO.P,U5,20*%
%TO.N,+5V*%
X68580000Y-86360000D03*
%TO.P,U5,10*%
%TO.N,GND*%
X60960000Y-109220000D03*
%TO.P,U5,19*%
%TO.N,Net-(D24-Pad2)*%
X68580000Y-88900000D03*
%TO.P,U5,9*%
%TO.N,Net-(D20-Pad2)*%
X60960000Y-106680000D03*
%TO.P,U5,18*%
%TO.N,F_A9*%
X68580000Y-91440000D03*
%TO.P,U5,8*%
%TO.N,F_A14*%
X60960000Y-104140000D03*
%TO.P,U5,17*%
%TO.N,F_A11*%
X68580000Y-93980000D03*
%TO.P,U5,7*%
%TO.N,F_A12*%
X60960000Y-101600000D03*
%TO.P,U5,16*%
%TO.N,Net-(D23-Pad2)*%
X68580000Y-96520000D03*
%TO.P,U5,6*%
%TO.N,Net-(D19-Pad2)*%
X60960000Y-99060000D03*
%TO.P,U5,15*%
%TO.N,Net-(D22-Pad2)*%
X68580000Y-99060000D03*
%TO.P,U5,5*%
%TO.N,Net-(D18-Pad2)*%
X60960000Y-96520000D03*
%TO.P,U5,14*%
%TO.N,F_A13*%
X68580000Y-101600000D03*
%TO.P,U5,4*%
%TO.N,F_A10*%
X60960000Y-93980000D03*
%TO.P,U5,13*%
%TO.N,F_A15*%
X68580000Y-104140000D03*
%TO.P,U5,3*%
%TO.N,F_A8*%
X60960000Y-91440000D03*
%TO.P,U5,12*%
%TO.N,Net-(D21-Pad2)*%
X68580000Y-106680000D03*
%TO.P,U5,2*%
%TO.N,Net-(D17-Pad2)*%
X60960000Y-88900000D03*
%TO.P,U5,11*%
%TO.N,Net-(U2-Pad8)*%
X68580000Y-109220000D03*
D13*
%TO.P,U5,1*%
%TO.N,GND*%
X60960000Y-86360000D03*
%TD*%
D14*
%TO.P,U4,20*%
%TO.N,+5V*%
X68580000Y-58420000D03*
%TO.P,U4,10*%
%TO.N,GND*%
X60960000Y-81280000D03*
%TO.P,U4,19*%
%TO.N,Net-(D16-Pad2)*%
X68580000Y-60960000D03*
%TO.P,U4,9*%
%TO.N,Net-(D12-Pad2)*%
X60960000Y-78740000D03*
%TO.P,U4,18*%
%TO.N,F_A1*%
X68580000Y-63500000D03*
%TO.P,U4,8*%
%TO.N,F_A6*%
X60960000Y-76200000D03*
%TO.P,U4,17*%
%TO.N,F_A3*%
X68580000Y-66040000D03*
%TO.P,U4,7*%
%TO.N,F_A4*%
X60960000Y-73660000D03*
%TO.P,U4,16*%
%TO.N,Net-(D15-Pad2)*%
X68580000Y-68580000D03*
%TO.P,U4,6*%
%TO.N,Net-(D11-Pad2)*%
X60960000Y-71120000D03*
%TO.P,U4,15*%
%TO.N,Net-(D14-Pad2)*%
X68580000Y-71120000D03*
%TO.P,U4,5*%
%TO.N,Net-(D10-Pad2)*%
X60960000Y-68580000D03*
%TO.P,U4,14*%
%TO.N,F_A5*%
X68580000Y-73660000D03*
%TO.P,U4,4*%
%TO.N,F_A2*%
X60960000Y-66040000D03*
%TO.P,U4,13*%
%TO.N,F_A7*%
X68580000Y-76200000D03*
%TO.P,U4,3*%
%TO.N,F_A0*%
X60960000Y-63500000D03*
%TO.P,U4,12*%
%TO.N,Net-(D13-Pad2)*%
X68580000Y-78740000D03*
%TO.P,U4,2*%
%TO.N,Net-(D9-Pad2)*%
X60960000Y-60960000D03*
%TO.P,U4,11*%
%TO.N,Net-(U2-Pad8)*%
X68580000Y-81280000D03*
D13*
%TO.P,U4,1*%
%TO.N,GND*%
X60960000Y-58420000D03*
%TD*%
D14*
%TO.P,U3,20*%
%TO.N,+5V*%
X68580000Y-30480000D03*
%TO.P,U3,10*%
%TO.N,GND*%
X60960000Y-53340000D03*
%TO.P,U3,19*%
%TO.N,Net-(D8-Pad2)*%
X68580000Y-33020000D03*
%TO.P,U3,9*%
%TO.N,Net-(D4-Pad2)*%
X60960000Y-50800000D03*
%TO.P,U3,18*%
%TO.N,F_D1*%
X68580000Y-35560000D03*
%TO.P,U3,8*%
%TO.N,F_D6*%
X60960000Y-48260000D03*
%TO.P,U3,17*%
%TO.N,F_D3*%
X68580000Y-38100000D03*
%TO.P,U3,7*%
%TO.N,F_D4*%
X60960000Y-45720000D03*
%TO.P,U3,16*%
%TO.N,Net-(D7-Pad2)*%
X68580000Y-40640000D03*
%TO.P,U3,6*%
%TO.N,Net-(D3-Pad2)*%
X60960000Y-43180000D03*
%TO.P,U3,15*%
%TO.N,Net-(D6-Pad2)*%
X68580000Y-43180000D03*
%TO.P,U3,5*%
%TO.N,Net-(D2-Pad2)*%
X60960000Y-40640000D03*
%TO.P,U3,14*%
%TO.N,F_D5*%
X68580000Y-45720000D03*
%TO.P,U3,4*%
%TO.N,F_D2*%
X60960000Y-38100000D03*
%TO.P,U3,13*%
%TO.N,F_D7*%
X68580000Y-48260000D03*
%TO.P,U3,3*%
%TO.N,F_D0*%
X60960000Y-35560000D03*
%TO.P,U3,12*%
%TO.N,Net-(D5-Pad2)*%
X68580000Y-50800000D03*
%TO.P,U3,2*%
%TO.N,Net-(D1-Pad2)*%
X60960000Y-33020000D03*
%TO.P,U3,11*%
%TO.N,Net-(U2-Pad8)*%
X68580000Y-53340000D03*
D13*
%TO.P,U3,1*%
%TO.N,GND*%
X60960000Y-30480000D03*
%TD*%
D10*
%TO.P,D1,2*%
%TO.N,Net-(D1-Pad2)*%
X95460000Y-32500000D03*
D11*
%TO.P,D1,1*%
%TO.N,Net-(D1-Pad1)*%
X98000000Y-32500000D03*
%TD*%
D12*
%TO.P,C5,2*%
%TO.N,GND*%
X47531000Y-32774000D03*
D13*
%TO.P,C5,1*%
%TO.N,+5V*%
X47531000Y-29274000D03*
%TD*%
D16*
%TO.P,J3,1*%
%TO.N,+5V*%
X22540000Y-30600000D03*
D15*
%TO.P,J3,2*%
%TO.N,GND*%
X25080000Y-30600000D03*
%TO.P,J3,3*%
%TO.N,+5V*%
X22540000Y-33140000D03*
%TO.P,J3,4*%
%TO.N,GND*%
X25080000Y-33140000D03*
%TO.P,J3,5*%
%TO.N,N/C*%
X22540000Y-35680000D03*
%TO.P,J3,6*%
%TO.N,GND*%
X25080000Y-35680000D03*
%TO.P,J3,7*%
%TO.N,N/C*%
X22540000Y-38220000D03*
%TO.P,J3,8*%
%TO.N,GND*%
X25080000Y-38220000D03*
%TD*%
%TO.P,J4,8*%
%TO.N,N/C*%
X25080000Y-109400000D03*
%TO.P,J4,7*%
X22540000Y-109400000D03*
%TO.P,J4,6*%
X25080000Y-106860000D03*
%TO.P,J4,5*%
X22540000Y-106860000D03*
%TO.P,J4,4*%
%TO.N,GND*%
X25080000Y-104320000D03*
%TO.P,J4,3*%
%TO.N,N/C*%
X22540000Y-104320000D03*
%TO.P,J4,2*%
%TO.N,+5V*%
X25080000Y-101780000D03*
D16*
%TO.P,J4,1*%
%TO.N,N/C*%
X22540000Y-101780000D03*
%TD*%
D15*
%TO.P,J2,40*%
%TO.N,+5V*%
X33080000Y-94130000D03*
%TO.P,J2,39*%
%TO.N,F_A2*%
X30540000Y-94130000D03*
%TO.P,J2,38*%
%TO.N,GND*%
X33080000Y-91590000D03*
%TO.P,J2,37*%
%TO.N,F_A6*%
X30540000Y-91590000D03*
%TO.P,J2,36*%
%TO.N,F_A5*%
X33080000Y-89050000D03*
%TO.P,J2,35*%
%TO.N,F_A7*%
X30540000Y-89050000D03*
%TO.P,J2,34*%
%TO.N,~F_WAIT~*%
X33080000Y-86510000D03*
%TO.P,J2,33*%
%TO.N,F_A3*%
X30540000Y-86510000D03*
%TO.P,J2,32*%
%TO.N,F_A4*%
X33080000Y-83970000D03*
%TO.P,J2,31*%
%TO.N,F_D2*%
X30540000Y-83970000D03*
%TO.P,J2,30*%
%TO.N,GND*%
X33080000Y-81430000D03*
%TO.P,J2,29*%
%TO.N,F_D0*%
X30540000Y-81430000D03*
%TO.P,J2,28*%
%TO.N,F_A1*%
X33080000Y-78890000D03*
%TO.P,J2,27*%
%TO.N,F_D5*%
X30540000Y-78890000D03*
%TO.P,J2,26*%
%TO.N,F_A0*%
X33080000Y-76350000D03*
%TO.P,J2,25*%
%TO.N,F_D3*%
X30540000Y-76350000D03*
%TO.P,J2,24*%
%TO.N,CLK*%
X33080000Y-73810000D03*
%TO.P,J2,23*%
%TO.N,F_D6*%
X30540000Y-73810000D03*
%TO.P,J2,22*%
%TO.N,~F_INT~*%
X33080000Y-71270000D03*
%TO.P,J2,21*%
%TO.N,F_D1*%
X30540000Y-71270000D03*
%TO.P,J2,20*%
%TO.N,~F_IN~*%
X33080000Y-68730000D03*
%TO.P,J2,19*%
%TO.N,F_D7*%
X30540000Y-68730000D03*
%TO.P,J2,18*%
%TO.N,F_A9*%
X33080000Y-66190000D03*
%TO.P,J2,17*%
%TO.N,F_D4*%
X30540000Y-66190000D03*
%TO.P,J2,16*%
%TO.N,~F_READ~*%
X33080000Y-63650000D03*
%TO.P,J2,15*%
%TO.N,~F_INUSE~*%
X30540000Y-63650000D03*
%TO.P,J2,14*%
%TO.N,~F_WRITE~*%
X33080000Y-61110000D03*
%TO.P,J2,13*%
%TO.N,~F_INTAK~*%
X30540000Y-61110000D03*
%TO.P,J2,12*%
%TO.N,F_A8*%
X33080000Y-58570000D03*
%TO.P,J2,11*%
%TO.N,~F_OUT~*%
X30540000Y-58570000D03*
%TO.P,J2,10*%
%TO.N,F_A11*%
X33080000Y-56030000D03*
%TO.P,J2,9*%
%TO.N,F_A14*%
X30540000Y-56030000D03*
%TO.P,J2,8*%
%TO.N,F_A15*%
X33080000Y-53490000D03*
%TO.P,J2,7*%
%TO.N,GND*%
X30540000Y-53490000D03*
%TO.P,J2,6*%
%TO.N,F_A12*%
X33080000Y-50950000D03*
%TO.P,J2,5*%
%TO.N,F_A13*%
X30540000Y-50950000D03*
%TO.P,J2,4*%
%TO.N,~F_EXMEM~*%
X33080000Y-48410000D03*
%TO.P,J2,3*%
%TO.N,F_A10*%
X30540000Y-48410000D03*
%TO.P,J2,2*%
%TO.N,~F_MREQ~*%
X33080000Y-45870000D03*
D16*
%TO.P,J2,1*%
%TO.N,~F_SYSRES~*%
X30540000Y-45870000D03*
%TD*%
D15*
%TO.P,J1,40*%
%TO.N,+5V*%
X25080000Y-94130000D03*
%TO.P,J1,39*%
%TO.N,F_A2*%
X22540000Y-94130000D03*
%TO.P,J1,38*%
%TO.N,GND*%
X25080000Y-91590000D03*
%TO.P,J1,37*%
%TO.N,F_A6*%
X22540000Y-91590000D03*
%TO.P,J1,36*%
%TO.N,F_A5*%
X25080000Y-89050000D03*
%TO.P,J1,35*%
%TO.N,F_A7*%
X22540000Y-89050000D03*
%TO.P,J1,34*%
%TO.N,~F_WAIT~*%
X25080000Y-86510000D03*
%TO.P,J1,33*%
%TO.N,F_A3*%
X22540000Y-86510000D03*
%TO.P,J1,32*%
%TO.N,F_A4*%
X25080000Y-83970000D03*
%TO.P,J1,31*%
%TO.N,F_D2*%
X22540000Y-83970000D03*
%TO.P,J1,30*%
%TO.N,GND*%
X25080000Y-81430000D03*
%TO.P,J1,29*%
%TO.N,F_D0*%
X22540000Y-81430000D03*
%TO.P,J1,28*%
%TO.N,F_A1*%
X25080000Y-78890000D03*
%TO.P,J1,27*%
%TO.N,F_D5*%
X22540000Y-78890000D03*
%TO.P,J1,26*%
%TO.N,F_A0*%
X25080000Y-76350000D03*
%TO.P,J1,25*%
%TO.N,F_D3*%
X22540000Y-76350000D03*
%TO.P,J1,24*%
%TO.N,CLK*%
X25080000Y-73810000D03*
%TO.P,J1,23*%
%TO.N,F_D6*%
X22540000Y-73810000D03*
%TO.P,J1,22*%
%TO.N,~F_INT~*%
X25080000Y-71270000D03*
%TO.P,J1,21*%
%TO.N,F_D1*%
X22540000Y-71270000D03*
%TO.P,J1,20*%
%TO.N,~F_IN~*%
X25080000Y-68730000D03*
%TO.P,J1,19*%
%TO.N,F_D7*%
X22540000Y-68730000D03*
%TO.P,J1,18*%
%TO.N,F_A9*%
X25080000Y-66190000D03*
%TO.P,J1,17*%
%TO.N,F_D4*%
X22540000Y-66190000D03*
%TO.P,J1,16*%
%TO.N,~F_READ~*%
X25080000Y-63650000D03*
%TO.P,J1,15*%
%TO.N,~F_INUSE~*%
X22540000Y-63650000D03*
%TO.P,J1,14*%
%TO.N,~F_WRITE~*%
X25080000Y-61110000D03*
%TO.P,J1,13*%
%TO.N,~F_INTAK~*%
X22540000Y-61110000D03*
%TO.P,J1,12*%
%TO.N,F_A8*%
X25080000Y-58570000D03*
%TO.P,J1,11*%
%TO.N,~F_OUT~*%
X22540000Y-58570000D03*
%TO.P,J1,10*%
%TO.N,F_A11*%
X25080000Y-56030000D03*
%TO.P,J1,9*%
%TO.N,F_A14*%
X22540000Y-56030000D03*
%TO.P,J1,8*%
%TO.N,F_A15*%
X25080000Y-53490000D03*
%TO.P,J1,7*%
%TO.N,GND*%
X22540000Y-53490000D03*
%TO.P,J1,6*%
%TO.N,F_A12*%
X25080000Y-50950000D03*
%TO.P,J1,5*%
%TO.N,F_A13*%
X22540000Y-50950000D03*
%TO.P,J1,4*%
%TO.N,~F_EXMEM~*%
X25080000Y-48410000D03*
%TO.P,J1,3*%
%TO.N,F_A10*%
X22540000Y-48410000D03*
%TO.P,J1,2*%
%TO.N,~F_MREQ~*%
X25080000Y-45870000D03*
D16*
%TO.P,J1,1*%
%TO.N,~F_SYSRES~*%
X22540000Y-45870000D03*
%TD*%
D17*
%TO.N,+5V*%
X76025100Y-75900000D03*
X91690000Y-92130200D03*
D18*
%TO.N,F_A5*%
X60018200Y-75220300D03*
%TO.N,F_D0*%
X48082500Y-65816300D03*
%TO.N,F_D1*%
X45519400Y-49877000D03*
X40715400Y-64000100D03*
%TO.N,F_A9*%
X37799700Y-64711400D03*
%TO.N,F_A8*%
X37431100Y-58466800D03*
%TO.N,F_A11*%
X36260200Y-57032700D03*
%TO.N,~F_IN~*%
X36998700Y-76414400D03*
%TO.N,~F_READ~*%
X39387300Y-63330900D03*
%TO.N,~F_WRITE~*%
X37396400Y-79095900D03*
%TO.N,~F_OUT~*%
X37373900Y-80586800D03*
%TO.N,Net-(R1-Pad2)*%
X35798500Y-81285900D03*
%TO.N,Net-(D25-Pad1)*%
X40289500Y-78705800D03*
%TD*%
D19*
%TO.N,+5V*%
X91646800Y-91531800D02*
X91455800Y-92042700D01*
X91646800Y-91531800D02*
X91909200Y-92009900D01*
X25681600Y-100741700D02*
X24791100Y-101371800D01*
X25681600Y-100741700D02*
X25577700Y-101827600D01*
X91661600Y-92729500D02*
X91912100Y-92245000D01*
X91661600Y-92729500D02*
X91458100Y-92223400D01*
X32167400Y-94909200D02*
X33216700Y-94611000D01*
X32167400Y-94909200D02*
X32626500Y-93919600D01*
X69154200Y-59334700D02*
X69026200Y-58361300D01*
X69154200Y-59334700D02*
X68333200Y-58796300D01*
X75801800Y-75343100D02*
X75775400Y-75887900D01*
X75801800Y-75343100D02*
X76197200Y-75718700D01*
X34110000Y-94745600D02*
X33492000Y-93846800D01*
X34110000Y-94745600D02*
X33025600Y-94627000D01*
X25264700Y-95315700D02*
X25561200Y-94265900D01*
X25264700Y-95315700D02*
X24663000Y-94405900D01*
X91587500Y-90000000D02*
X91587500Y-90701000D01*
X91587500Y-90701000D02*
X91587530Y-90704780D01*
X91587530Y-90704780D02*
X91587610Y-90708570D01*
X91587610Y-90708570D02*
X91587750Y-90712350D01*
X91587750Y-90712350D02*
X91587940Y-90716130D01*
X91587940Y-90716130D02*
X91588180Y-90719900D01*
X91588200Y-90719900D02*
X91690000Y-92130200D01*
X25080000Y-101780000D02*
X26019300Y-100158700D01*
X91587500Y-105000000D02*
X91587500Y-104299000D01*
X91587500Y-104299000D02*
X91587500Y-100701000D01*
X91587500Y-100701000D02*
X91587500Y-100000000D01*
X91587500Y-100000000D02*
X91587500Y-99299000D01*
X91587500Y-99299000D02*
X91587500Y-95701000D01*
X91587500Y-95701000D02*
X91587500Y-95000000D01*
X91587500Y-95000000D02*
X91587500Y-94299000D01*
X91587800Y-94286600D02*
X91587670Y-94289700D01*
X91587670Y-94289700D02*
X91587580Y-94292800D01*
X91587580Y-94292800D02*
X91587530Y-94295900D01*
X91587530Y-94295900D02*
X91587510Y-94299000D01*
X91587800Y-94286600D02*
X91690000Y-92130200D01*
X26019300Y-100158700D02*
X33080000Y-94130000D01*
X68580000Y-58420000D02*
X69723800Y-60241900D01*
X69833500Y-60457400D02*
X69817920Y-60420170D01*
X69817920Y-60420170D02*
X69801240Y-60383430D01*
X69801240Y-60383430D02*
X69783470Y-60347200D01*
X69783470Y-60347200D02*
X69764620Y-60311510D01*
X69764620Y-60311510D02*
X69744720Y-60276410D01*
X69744720Y-60276410D02*
X69723780Y-60241920D01*
X69833500Y-60457400D02*
X76025100Y-75900000D01*
X33080000Y-94130000D02*
X60267200Y-110379200D01*
X60267200Y-110379200D02*
X60319920Y-110409120D01*
X60319920Y-110409120D02*
X60373930Y-110436650D01*
X60373930Y-110436650D02*
X60429110Y-110461720D01*
X60429110Y-110461720D02*
X60485370Y-110484300D01*
X60485370Y-110484300D02*
X60542590Y-110504320D01*
X60542590Y-110504320D02*
X60600640Y-110521760D01*
X60600640Y-110521760D02*
X60659420Y-110536580D01*
X60659420Y-110536580D02*
X60718810Y-110548740D01*
X60718810Y-110548740D02*
X60778680Y-110558220D01*
X60778680Y-110558220D02*
X60838920Y-110565010D01*
X60838920Y-110565010D02*
X60899400Y-110569090D01*
X60899400Y-110569090D02*
X60960000Y-110570450D01*
X60960000Y-110570500D02*
X68580000Y-110570500D01*
X68580000Y-110570500D02*
X68603870Y-110570290D01*
X68603870Y-110570290D02*
X68627730Y-110569660D01*
X68627730Y-110569660D02*
X68651580Y-110568600D01*
X68651580Y-110568600D02*
X68675410Y-110567130D01*
X68675410Y-110567130D02*
X68699200Y-110565230D01*
X68699200Y-110565200D02*
X86948600Y-108948400D01*
X86948600Y-108948400D02*
X86974730Y-108945450D01*
X86974730Y-108945450D02*
X87000680Y-108941260D01*
X87000680Y-108941260D02*
X87026410Y-108935840D01*
X87026410Y-108935840D02*
X87051850Y-108929190D01*
X87051850Y-108929190D02*
X87076940Y-108921340D01*
X87076940Y-108921340D02*
X87101630Y-108912300D01*
X87101630Y-108912300D02*
X87125860Y-108902090D01*
X87125860Y-108902090D02*
X87149570Y-108890730D01*
X87149570Y-108890730D02*
X87172710Y-108878260D01*
X87172710Y-108878260D02*
X87195240Y-108864690D01*
X87195240Y-108864690D02*
X87217090Y-108850070D01*
X87217090Y-108850070D02*
X87238210Y-108834420D01*
X87238200Y-108834400D02*
X91239700Y-105718900D01*
X91239700Y-105718900D02*
X91241830Y-105717170D01*
X91241830Y-105717170D02*
X91243890Y-105715340D01*
X91243890Y-105715340D02*
X91245870Y-105713440D01*
X91245870Y-105713440D02*
X91247770Y-105711450D01*
X91247770Y-105711450D02*
X91249580Y-105709380D01*
X91249580Y-105709380D02*
X91251300Y-105707240D01*
X91251300Y-105707240D02*
X91252930Y-105705030D01*
X91252930Y-105705030D02*
X91254470Y-105702750D01*
X91254470Y-105702750D02*
X91255910Y-105700410D01*
X91255900Y-105700400D02*
X91258000Y-105696800D01*
X91258000Y-105696800D02*
X91259900Y-105692500D01*
X91259900Y-105692500D02*
X91260300Y-105691400D01*
X91260300Y-105691400D02*
X91587500Y-105000000D01*
X25080000Y-94130000D02*
X26019300Y-100158700D01*
D20*
%TO.N,F_A2*%
X59948700Y-66370800D02*
X60698000Y-66678300D01*
X59948700Y-66370800D02*
X60371400Y-65679900D01*
X23530900Y-93621000D02*
X22724500Y-93413400D01*
X23530900Y-93621000D02*
X23229900Y-94397400D01*
X29691500Y-93408100D02*
X29807100Y-94232800D01*
X29691500Y-93408100D02*
X30524100Y-93390200D01*
X60960000Y-66040000D02*
X51406700Y-69164800D01*
X51063700Y-69243600D02*
X51121770Y-69234790D01*
X51121770Y-69234790D02*
X51179550Y-69224230D01*
X51179550Y-69224230D02*
X51236980Y-69211950D01*
X51236980Y-69211950D02*
X51294020Y-69197930D01*
X51294020Y-69197930D02*
X51350610Y-69182210D01*
X51350610Y-69182210D02*
X51406700Y-69164790D01*
X51063700Y-69243600D02*
X42224400Y-70449100D01*
X42224400Y-70449100D02*
X42171930Y-70457490D01*
X42171930Y-70457490D02*
X42119910Y-70468300D01*
X42119910Y-70468300D02*
X42068440Y-70481490D01*
X42068440Y-70481490D02*
X42017630Y-70497040D01*
X42017630Y-70497040D02*
X41967600Y-70514920D01*
X41967600Y-70514920D02*
X41918440Y-70535090D01*
X41918440Y-70535090D02*
X41870270Y-70557510D01*
X41870270Y-70557510D02*
X41823180Y-70582120D01*
X41823180Y-70582120D02*
X41777270Y-70608890D01*
X41777270Y-70608890D02*
X41732650Y-70637740D01*
X41732650Y-70637740D02*
X41689410Y-70668610D01*
X41689410Y-70668610D02*
X41647640Y-70701450D01*
X41647600Y-70701400D02*
X36075500Y-75294300D01*
X36075500Y-75294300D02*
X36028230Y-75335000D01*
X36028230Y-75335000D02*
X35982750Y-75377690D01*
X35982750Y-75377690D02*
X35939150Y-75422290D01*
X35939150Y-75422290D02*
X35897510Y-75468720D01*
X35897510Y-75468720D02*
X35857900Y-75516910D01*
X35857900Y-75516910D02*
X35820400Y-75566740D01*
X35820400Y-75566740D02*
X35785070Y-75618150D01*
X35785070Y-75618150D02*
X35751980Y-75671020D01*
X35751980Y-75671020D02*
X35721190Y-75725270D01*
X35721190Y-75725270D02*
X35692770Y-75780790D01*
X35692770Y-75780790D02*
X35666750Y-75837480D01*
X35666800Y-75837500D02*
X34144900Y-79351200D01*
X33551400Y-79950400D02*
X33603380Y-79925730D01*
X33603380Y-79925730D02*
X33654070Y-79898520D01*
X33654070Y-79898520D02*
X33703350Y-79868820D01*
X33703350Y-79868820D02*
X33751100Y-79836720D01*
X33751100Y-79836720D02*
X33797200Y-79802300D01*
X33797200Y-79802300D02*
X33841540Y-79765630D01*
X33841540Y-79765630D02*
X33884000Y-79726810D01*
X33884000Y-79726810D02*
X33924490Y-79685930D01*
X33924490Y-79685930D02*
X33962900Y-79643090D01*
X33962900Y-79643090D02*
X33999150Y-79598410D01*
X33999150Y-79598410D02*
X34033130Y-79551980D01*
X34033130Y-79551980D02*
X34064770Y-79503920D01*
X34064770Y-79503920D02*
X34093990Y-79454360D01*
X34093990Y-79454360D02*
X34120710Y-79403410D01*
X34120710Y-79403410D02*
X34144880Y-79351190D01*
X33551400Y-79950400D02*
X32608600Y-80369600D01*
X32608600Y-80369600D02*
X32557280Y-80393930D01*
X32557280Y-80393930D02*
X32507220Y-80420750D01*
X32507220Y-80420750D02*
X32458530Y-80449980D01*
X32458530Y-80449980D02*
X32411320Y-80481560D01*
X32411320Y-80481560D02*
X32365720Y-80515410D01*
X32365720Y-80515410D02*
X32321830Y-80551450D01*
X32321830Y-80551450D02*
X32279760Y-80589600D01*
X32279760Y-80589600D02*
X32239600Y-80629760D01*
X32239600Y-80629760D02*
X32201450Y-80671830D01*
X32201450Y-80671830D02*
X32165410Y-80715720D01*
X32165410Y-80715720D02*
X32131560Y-80761320D01*
X32131560Y-80761320D02*
X32099980Y-80808530D01*
X32099980Y-80808530D02*
X32070750Y-80857220D01*
X32070750Y-80857220D02*
X32043930Y-80907280D01*
X32043930Y-80907280D02*
X32019600Y-80958600D01*
X32019600Y-80958600D02*
X31600400Y-81901400D01*
X31011400Y-82490400D02*
X31062720Y-82466070D01*
X31062720Y-82466070D02*
X31112780Y-82439250D01*
X31112780Y-82439250D02*
X31161470Y-82410020D01*
X31161470Y-82410020D02*
X31208680Y-82378440D01*
X31208680Y-82378440D02*
X31254280Y-82344590D01*
X31254280Y-82344590D02*
X31298170Y-82308550D01*
X31298170Y-82308550D02*
X31340240Y-82270400D01*
X31340240Y-82270400D02*
X31380400Y-82230240D01*
X31380400Y-82230240D02*
X31418550Y-82188170D01*
X31418550Y-82188170D02*
X31454590Y-82144280D01*
X31454590Y-82144280D02*
X31488440Y-82098680D01*
X31488440Y-82098680D02*
X31520020Y-82051470D01*
X31520020Y-82051470D02*
X31549250Y-82002780D01*
X31549250Y-82002780D02*
X31576070Y-81952720D01*
X31576070Y-81952720D02*
X31600400Y-81901400D01*
X31011400Y-82490400D02*
X30068600Y-82909600D01*
X30068600Y-82909600D02*
X30012100Y-82936560D01*
X30012100Y-82936560D02*
X29957140Y-82966540D01*
X29957140Y-82966540D02*
X29903880Y-82999430D01*
X29903880Y-82999430D02*
X29852460Y-83035140D01*
X29852460Y-83035140D02*
X29803050Y-83073580D01*
X29803050Y-83073580D02*
X29755780Y-83114620D01*
X29755780Y-83114620D02*
X29710800Y-83158160D01*
X29710800Y-83158160D02*
X29668220Y-83204060D01*
X29668220Y-83204060D02*
X29628190Y-83252180D01*
X29628190Y-83252180D02*
X29590800Y-83302400D01*
X29590800Y-83302400D02*
X29556180Y-83354560D01*
X29556180Y-83354560D02*
X29524430Y-83408500D01*
X29524430Y-83408500D02*
X29495630Y-83464090D01*
X29495630Y-83464090D02*
X29469860Y-83521140D01*
X29469860Y-83521140D02*
X29447210Y-83579500D01*
X29447210Y-83579500D02*
X29427750Y-83639000D01*
X29427750Y-83639000D02*
X29411520Y-83699460D01*
X29411520Y-83699460D02*
X29398570Y-83760710D01*
X29398500Y-83760700D02*
X27907800Y-91890600D01*
X22540000Y-94130000D02*
X24549800Y-93097700D01*
X24690500Y-93036800D02*
X24661730Y-93047480D01*
X24661730Y-93047480D02*
X24633260Y-93058920D01*
X24633260Y-93058920D02*
X24605100Y-93071100D01*
X24605100Y-93071100D02*
X24577270Y-93084030D01*
X24577270Y-93084030D02*
X24549790Y-93097680D01*
X24690500Y-93036800D02*
X27907800Y-91890600D01*
X30540000Y-94130000D02*
X27907800Y-91890600D01*
D19*
%TO.N,GND*%
X60960000Y-54420000D02*
X61369100Y-53527500D01*
X60960000Y-54420000D02*
X60550900Y-53527500D01*
X29878300Y-52488900D02*
X30045900Y-53566800D01*
X29878300Y-52488900D02*
X30804300Y-53065600D01*
X61592800Y-82155200D02*
X61401400Y-81192200D01*
X61592800Y-82155200D02*
X60738400Y-81671600D01*
X25741700Y-82431100D02*
X25574100Y-81353200D01*
X25741700Y-82431100D02*
X24815700Y-81854400D01*
X25741700Y-90588900D02*
X24815700Y-91165600D01*
X25741700Y-90588900D02*
X25574100Y-91666800D01*
X25080000Y-31800000D02*
X25534500Y-30808300D01*
X25080000Y-31800000D02*
X24625500Y-30808300D01*
X25080000Y-31940000D02*
X24625500Y-32931700D01*
X25080000Y-31940000D02*
X25534500Y-32931700D01*
X24896700Y-39405900D02*
X25497400Y-38495300D01*
X24896700Y-39405900D02*
X24599000Y-38356500D01*
X34197200Y-91152000D02*
X33108100Y-91090800D01*
X34197200Y-91152000D02*
X33439900Y-91937200D01*
X42174500Y-88024200D02*
X43154700Y-88079300D01*
X42174500Y-88024200D02*
X42856100Y-87317500D01*
X21878300Y-52488900D02*
X22045900Y-53566800D01*
X21878300Y-52488900D02*
X22804300Y-53065600D01*
X60960000Y-30480000D02*
X60510000Y-30930000D01*
X60960000Y-58420000D02*
X60960000Y-57970000D01*
X60960000Y-57970000D02*
X60960000Y-57620000D01*
X60960000Y-57620000D02*
X60960000Y-53340000D01*
X30540000Y-53490000D02*
X29371600Y-51722200D01*
X29270800Y-51542000D02*
X29285740Y-51573030D01*
X29285740Y-51573030D02*
X29301440Y-51603690D01*
X29301440Y-51603690D02*
X29317890Y-51633950D01*
X29317890Y-51633950D02*
X29335080Y-51663800D01*
X29335080Y-51663800D02*
X29353000Y-51693210D01*
X29353000Y-51693210D02*
X29371640Y-51722180D01*
X29270800Y-51542000D02*
X26349200Y-45278000D01*
X26349200Y-45278000D02*
X26320820Y-45220610D01*
X26320820Y-45220610D02*
X26289840Y-45164570D01*
X26289840Y-45164570D02*
X26256330Y-45110010D01*
X26256330Y-45110010D02*
X26220370Y-45057040D01*
X26220370Y-45057040D02*
X26182020Y-45005770D01*
X26182020Y-45005770D02*
X26141360Y-44956310D01*
X26141360Y-44956310D02*
X26098490Y-44908750D01*
X26098490Y-44908750D02*
X26053490Y-44863200D01*
X26053490Y-44863200D02*
X26006460Y-44819760D01*
X26006460Y-44819760D02*
X25957490Y-44778510D01*
X25957500Y-44778500D02*
X24275300Y-43426000D01*
X78000000Y-77500000D02*
X77550000Y-77950000D01*
X77550000Y-77950000D02*
X77200000Y-77950000D01*
X77200000Y-77950000D02*
X77183450Y-77950390D01*
X77183450Y-77950390D02*
X77166940Y-77951560D01*
X77166940Y-77951560D02*
X77150500Y-77953520D01*
X77150500Y-77953520D02*
X77134180Y-77956250D01*
X77134180Y-77956250D02*
X77118000Y-77959740D01*
X77118000Y-77959740D02*
X77102000Y-77964000D01*
X77102000Y-77964000D02*
X77086220Y-77969010D01*
X77086220Y-77969010D02*
X77070700Y-77974760D01*
X77070700Y-77974760D02*
X77055470Y-77981240D01*
X77055470Y-77981240D02*
X77040560Y-77988430D01*
X77040560Y-77988430D02*
X77026010Y-77996310D01*
X77026000Y-77996300D02*
X69251500Y-82451700D01*
X68718100Y-82623400D02*
X68774110Y-82616460D01*
X68774110Y-82616460D02*
X68829790Y-82607180D01*
X68829790Y-82607180D02*
X68885020Y-82595580D01*
X68885020Y-82595580D02*
X68939730Y-82581690D01*
X68939730Y-82581690D02*
X68993800Y-82565520D01*
X68993800Y-82565520D02*
X69047160Y-82547110D01*
X69047160Y-82547110D02*
X69099690Y-82526480D01*
X69099690Y-82526480D02*
X69151320Y-82503680D01*
X69151320Y-82503680D02*
X69201960Y-82478740D01*
X69201960Y-82478740D02*
X69251500Y-82451700D01*
X68718100Y-82623400D02*
X62401000Y-83272800D01*
X60960000Y-81280000D02*
X62401000Y-83272800D01*
X25080000Y-81430000D02*
X26248400Y-83197800D01*
X26480500Y-83970000D02*
X26478840Y-83901870D01*
X26478840Y-83901870D02*
X26473870Y-83833900D01*
X26473870Y-83833900D02*
X26465600Y-83766250D01*
X26465600Y-83766250D02*
X26454050Y-83699090D01*
X26454050Y-83699090D02*
X26439240Y-83632560D01*
X26439240Y-83632560D02*
X26421220Y-83566840D01*
X26421220Y-83566840D02*
X26400020Y-83502070D01*
X26400020Y-83502070D02*
X26375690Y-83438410D01*
X26375690Y-83438410D02*
X26348290Y-83376000D01*
X26348290Y-83376000D02*
X26317900Y-83315010D01*
X26317900Y-83315010D02*
X26284570Y-83255560D01*
X26284570Y-83255560D02*
X26248380Y-83197810D01*
X26480500Y-83970000D02*
X26480500Y-89050000D01*
X26248400Y-89822200D02*
X26284580Y-89764450D01*
X26284580Y-89764450D02*
X26317910Y-89705000D01*
X26317910Y-89705000D02*
X26348310Y-89644000D01*
X26348310Y-89644000D02*
X26375710Y-89581600D01*
X26375710Y-89581600D02*
X26400030Y-89517940D01*
X26400030Y-89517940D02*
X26421230Y-89453170D01*
X26421230Y-89453170D02*
X26439260Y-89387440D01*
X26439260Y-89387440D02*
X26454070Y-89320920D01*
X26454070Y-89320920D02*
X26465620Y-89253750D01*
X26465620Y-89253750D02*
X26473890Y-89186100D01*
X26473890Y-89186100D02*
X26478860Y-89118130D01*
X26478860Y-89118130D02*
X26480520Y-89050000D01*
X26248400Y-89822200D02*
X25080000Y-91590000D01*
X25080000Y-30600000D02*
X25080000Y-33140000D01*
X25080000Y-38220000D02*
X24275300Y-43426000D01*
X78000000Y-62500000D02*
X78000000Y-62950000D01*
X78000000Y-62950000D02*
X78000000Y-63300000D01*
X78000000Y-63300000D02*
X78000000Y-76700000D01*
X78000000Y-76700000D02*
X78000000Y-77050000D01*
X78000000Y-77050000D02*
X78000000Y-77500000D01*
X33080000Y-91590000D02*
X43180000Y-87630000D01*
X108710000Y-94500000D02*
X108710000Y-94000000D01*
X108710000Y-94000000D02*
X108710000Y-93650000D01*
X108710000Y-93650000D02*
X108710000Y-89350000D01*
X108710000Y-89350000D02*
X108710000Y-89000000D01*
X108710000Y-89000000D02*
X108710000Y-88500000D01*
X22540000Y-53490000D02*
X21371600Y-51722200D01*
X21139500Y-50950000D02*
X21141160Y-51018130D01*
X21141160Y-51018130D02*
X21146130Y-51086100D01*
X21146130Y-51086100D02*
X21154400Y-51153750D01*
X21154400Y-51153750D02*
X21165950Y-51220910D01*
X21165950Y-51220910D02*
X21180760Y-51287440D01*
X21180760Y-51287440D02*
X21198780Y-51353160D01*
X21198780Y-51353160D02*
X21219980Y-51417930D01*
X21219980Y-51417930D02*
X21244310Y-51481590D01*
X21244310Y-51481590D02*
X21271710Y-51544000D01*
X21271710Y-51544000D02*
X21302100Y-51604990D01*
X21302100Y-51604990D02*
X21335430Y-51664440D01*
X21335430Y-51664440D02*
X21371620Y-51722190D01*
X21139500Y-50950000D02*
X21139500Y-45020000D01*
X21490800Y-44506800D02*
X21463100Y-44518430D01*
X21463100Y-44518430D02*
X21436090Y-44531550D01*
X21436090Y-44531550D02*
X21409820Y-44546130D01*
X21409820Y-44546130D02*
X21384390Y-44562110D01*
X21384390Y-44562110D02*
X21359870Y-44579470D01*
X21359870Y-44579470D02*
X21336340Y-44598130D01*
X21336340Y-44598130D02*
X21313850Y-44618040D01*
X21313850Y-44618040D02*
X21292490Y-44639160D01*
X21292490Y-44639160D02*
X21272310Y-44661410D01*
X21272310Y-44661410D02*
X21253370Y-44684720D01*
X21253370Y-44684720D02*
X21235730Y-44709040D01*
X21235730Y-44709040D02*
X21219450Y-44734280D01*
X21219450Y-44734280D02*
X21204570Y-44760370D01*
X21204570Y-44760370D02*
X21191130Y-44787230D01*
X21191130Y-44787230D02*
X21179170Y-44814790D01*
X21179170Y-44814790D02*
X21168740Y-44842960D01*
X21168740Y-44842960D02*
X21159860Y-44871650D01*
X21159860Y-44871650D02*
X21152560Y-44900790D01*
X21152560Y-44900790D02*
X21146860Y-44930280D01*
X21146860Y-44930280D02*
X21142770Y-44960040D01*
X21142770Y-44960040D02*
X21140320Y-44989970D01*
X21140320Y-44989970D02*
X21139500Y-45020000D01*
X21490800Y-44506800D02*
X24275300Y-43426000D01*
X106500000Y-62500000D02*
X106950000Y-62950000D01*
X106950000Y-62950000D02*
X106950000Y-63300000D01*
X106950000Y-63300000D02*
X106950030Y-63304530D01*
X106950030Y-63304530D02*
X106950120Y-63309050D01*
X106950120Y-63309050D02*
X106950260Y-63313580D01*
X106950260Y-63313580D02*
X106950470Y-63318100D01*
X106950500Y-63318100D02*
X108209500Y-87631900D01*
X108210000Y-87650000D02*
X108209970Y-87645470D01*
X108209970Y-87645470D02*
X108209880Y-87640950D01*
X108209880Y-87640950D02*
X108209740Y-87636420D01*
X108209740Y-87636420D02*
X108209530Y-87631900D01*
X108210000Y-87650000D02*
X108210000Y-88000000D01*
X108210000Y-88000000D02*
X108710000Y-88500000D01*
X60960000Y-86360000D02*
X61410000Y-85910000D01*
X61410000Y-85910000D02*
X61410000Y-85560000D01*
X61440600Y-85416900D02*
X61434860Y-85430480D01*
X61434860Y-85430480D02*
X61429690Y-85444280D01*
X61429690Y-85444280D02*
X61425110Y-85458290D01*
X61425110Y-85458290D02*
X61421130Y-85472490D01*
X61421130Y-85472490D02*
X61417740Y-85486830D01*
X61417740Y-85486830D02*
X61414960Y-85501310D01*
X61414960Y-85501310D02*
X61412800Y-85515890D01*
X61412800Y-85515890D02*
X61411250Y-85530550D01*
X61411250Y-85530550D02*
X61410320Y-85545260D01*
X61410320Y-85545260D02*
X61410010Y-85560000D01*
X61440600Y-85416900D02*
X62401000Y-83272800D01*
D20*
%TO.N,F_A6*%
X31530900Y-91081000D02*
X30724500Y-90873400D01*
X31530900Y-91081000D02*
X31229900Y-91857400D01*
X59930700Y-76469700D02*
X60660200Y-76821500D01*
X59930700Y-76469700D02*
X60394000Y-75805300D01*
X30540000Y-91590000D02*
X32549800Y-90557700D01*
X32608600Y-90529600D02*
X32593760Y-90536320D01*
X32593760Y-90536320D02*
X32579010Y-90543250D01*
X32579010Y-90543250D02*
X32564360Y-90550390D01*
X32564360Y-90550390D02*
X32549820Y-90557730D01*
X32608600Y-90529600D02*
X33551400Y-90110400D01*
X33551400Y-90110400D02*
X33591550Y-90091630D01*
X33591550Y-90091630D02*
X33630950Y-90071330D01*
X33630950Y-90071330D02*
X33669550Y-90049550D01*
X33669550Y-90049550D02*
X33707280Y-90026310D01*
X33707280Y-90026310D02*
X33744110Y-90001650D01*
X33744110Y-90001650D02*
X33779960Y-89975590D01*
X33779960Y-89975590D02*
X33814790Y-89948190D01*
X33814790Y-89948190D02*
X33848560Y-89919480D01*
X33848560Y-89919480D02*
X33881200Y-89889500D01*
X33881200Y-89889500D02*
X42413300Y-81746600D01*
X42828800Y-81496500D02*
X42782780Y-81512980D01*
X42782780Y-81512980D02*
X42737520Y-81531460D01*
X42737520Y-81531460D02*
X42693120Y-81551930D01*
X42693120Y-81551930D02*
X42649670Y-81574320D01*
X42649670Y-81574320D02*
X42607240Y-81598610D01*
X42607240Y-81598610D02*
X42565920Y-81624730D01*
X42565920Y-81624730D02*
X42525800Y-81652660D01*
X42525800Y-81652660D02*
X42486940Y-81682320D01*
X42486940Y-81682320D02*
X42449420Y-81713660D01*
X42449420Y-81713660D02*
X42413320Y-81746630D01*
X42828800Y-81496500D02*
X50448800Y-78956500D01*
X50518500Y-78935800D02*
X50500950Y-78940550D01*
X50500950Y-78940550D02*
X50483480Y-78945590D01*
X50483480Y-78945590D02*
X50466100Y-78950920D01*
X50466100Y-78950920D02*
X50448810Y-78956520D01*
X50518500Y-78935800D02*
X60960000Y-76200000D01*
%TO.N,F_A5*%
X33589000Y-88059100D02*
X32812600Y-88360100D01*
X33589000Y-88059100D02*
X33796600Y-88865500D01*
X59564000Y-75260900D02*
X59954700Y-75399300D01*
X59564000Y-75260900D02*
X59923900Y-75055300D01*
X33080000Y-89050000D02*
X34112300Y-87040200D01*
X34112300Y-87040200D02*
X34121490Y-87021910D01*
X34121490Y-87021910D02*
X34130360Y-87003450D01*
X34130360Y-87003450D02*
X34138900Y-86984850D01*
X34138900Y-86984850D02*
X34147110Y-86966090D01*
X34147110Y-86966090D02*
X34154990Y-86947200D01*
X34155000Y-86947200D02*
X36364000Y-81515900D01*
X36364000Y-81515900D02*
X36371040Y-81497760D01*
X36371040Y-81497760D02*
X36377500Y-81479410D01*
X36377500Y-81479410D02*
X36383370Y-81460870D01*
X36383370Y-81460870D02*
X36388650Y-81442140D01*
X36388650Y-81442140D02*
X36393330Y-81423260D01*
X36393330Y-81423260D02*
X36397400Y-81404240D01*
X36397400Y-81404240D02*
X36400870Y-81385100D01*
X36400900Y-81385100D02*
X36794000Y-78996700D01*
X37182800Y-78524000D02*
X37151530Y-78536670D01*
X37151530Y-78536670D02*
X37121010Y-78551050D01*
X37121010Y-78551050D02*
X37091340Y-78567100D01*
X37091340Y-78567100D02*
X37062590Y-78584760D01*
X37062590Y-78584760D02*
X37034860Y-78603980D01*
X37034860Y-78603980D02*
X37008240Y-78624700D01*
X37008240Y-78624700D02*
X36982800Y-78646870D01*
X36982800Y-78646870D02*
X36958630Y-78670400D01*
X36958630Y-78670400D02*
X36935790Y-78695230D01*
X36935790Y-78695230D02*
X36914360Y-78721290D01*
X36914360Y-78721290D02*
X36894400Y-78748490D01*
X36894400Y-78748490D02*
X36875980Y-78776750D01*
X36875980Y-78776750D02*
X36859140Y-78805990D01*
X36859140Y-78805990D02*
X36843950Y-78836110D01*
X36843950Y-78836110D02*
X36830440Y-78867030D01*
X36830440Y-78867030D02*
X36818660Y-78898640D01*
X36818660Y-78898640D02*
X36808650Y-78930860D01*
X36808650Y-78930860D02*
X36800430Y-78963580D01*
X36800430Y-78963580D02*
X36794030Y-78996700D01*
X37182800Y-78524000D02*
X42791500Y-76429700D01*
X43133800Y-76360500D02*
X43090050Y-76363190D01*
X43090050Y-76363190D02*
X43046440Y-76367600D01*
X43046440Y-76367600D02*
X43003040Y-76373730D01*
X43003040Y-76373730D02*
X42959910Y-76381570D01*
X42959910Y-76381570D02*
X42917130Y-76391100D01*
X42917130Y-76391100D02*
X42874760Y-76402310D01*
X42874760Y-76402310D02*
X42832860Y-76415190D01*
X42832860Y-76415190D02*
X42791500Y-76429710D01*
X43133800Y-76360500D02*
X50846200Y-76039500D01*
X50846200Y-76039500D02*
X50859390Y-76038870D01*
X50859390Y-76038870D02*
X50872570Y-76038090D01*
X50872570Y-76038090D02*
X50885740Y-76037150D01*
X50885740Y-76037150D02*
X50898900Y-76036050D01*
X50898900Y-76036100D02*
X60018200Y-75220300D01*
%TO.N,F_A7*%
X67533800Y-76006300D02*
X68044400Y-76635000D01*
X67533800Y-76006300D02*
X68235600Y-75602000D01*
X31049000Y-88059100D02*
X30272600Y-88360100D01*
X31049000Y-88059100D02*
X31256600Y-88865500D01*
X68580000Y-76200000D02*
X60757900Y-74751900D01*
X60731000Y-74746600D02*
X60737710Y-74747990D01*
X60737710Y-74747990D02*
X60744430Y-74749340D01*
X60744430Y-74749340D02*
X60751160Y-74750650D01*
X60751160Y-74750650D02*
X60757900Y-74751920D01*
X60731000Y-74746600D02*
X60144100Y-74622900D01*
X60144100Y-74622900D02*
X60129490Y-74620010D01*
X60129490Y-74620010D02*
X60114820Y-74617470D01*
X60114820Y-74617470D02*
X60100090Y-74615300D01*
X60100090Y-74615300D02*
X60085320Y-74613480D01*
X60085320Y-74613480D02*
X60070500Y-74612020D01*
X60070500Y-74612000D02*
X50895100Y-73823600D01*
X50895100Y-73823600D02*
X50876110Y-73822130D01*
X50876110Y-73822130D02*
X50857100Y-73820990D01*
X50857100Y-73820990D02*
X50838080Y-73820170D01*
X50838080Y-73820170D02*
X50819040Y-73819680D01*
X50819040Y-73819680D02*
X50800000Y-73819520D01*
X50800000Y-73819500D02*
X43180000Y-73819500D01*
X43180000Y-73819500D02*
X43126680Y-73820780D01*
X43126680Y-73820780D02*
X43073490Y-73824620D01*
X43073490Y-73824620D02*
X43020540Y-73831010D01*
X43020540Y-73831010D02*
X42967960Y-73839930D01*
X42967960Y-73839930D02*
X42915870Y-73851370D01*
X42915870Y-73851370D02*
X42864390Y-73865290D01*
X42864390Y-73865290D02*
X42813630Y-73881680D01*
X42813630Y-73881680D02*
X42763720Y-73900470D01*
X42763720Y-73900470D02*
X42714770Y-73921650D01*
X42714770Y-73921650D02*
X42666900Y-73945150D01*
X42666900Y-73945150D02*
X42620200Y-73970920D01*
X42620200Y-73970920D02*
X42574800Y-73998900D01*
X42574800Y-73998900D02*
X36605400Y-77878900D01*
X36605400Y-77878900D02*
X36547290Y-77918710D01*
X36547290Y-77918710D02*
X36491170Y-77961290D01*
X36491170Y-77961290D02*
X36437190Y-78006550D01*
X36437190Y-78006550D02*
X36385460Y-78054370D01*
X36385460Y-78054370D02*
X36336120Y-78104650D01*
X36336120Y-78104650D02*
X36289280Y-78157260D01*
X36289280Y-78157260D02*
X36245040Y-78212080D01*
X36245040Y-78212080D02*
X36203510Y-78268980D01*
X36203510Y-78268980D02*
X36164800Y-78327830D01*
X36164800Y-78327830D02*
X36128980Y-78388490D01*
X36128980Y-78388490D02*
X36096150Y-78450820D01*
X36096150Y-78450820D02*
X36066390Y-78514660D01*
X36066390Y-78514660D02*
X36039750Y-78579880D01*
X36039750Y-78579880D02*
X36016320Y-78646300D01*
X36016300Y-78646300D02*
X35218000Y-81096800D01*
X35218000Y-81096800D02*
X35214970Y-81106370D01*
X35214970Y-81106370D02*
X35212100Y-81115980D01*
X35212100Y-81115980D02*
X35209390Y-81125640D01*
X35209390Y-81125640D02*
X35206830Y-81135340D01*
X35206830Y-81135340D02*
X35204440Y-81145090D01*
X35204500Y-81145100D02*
X35027600Y-81891600D01*
X34968600Y-82092700D02*
X34982070Y-82052990D01*
X34982070Y-82052990D02*
X34994700Y-82013000D01*
X34994700Y-82013000D02*
X35006500Y-81972760D01*
X35006500Y-81972760D02*
X35017440Y-81932290D01*
X35017440Y-81932290D02*
X35027540Y-81891590D01*
X34968600Y-82092700D02*
X34175000Y-84354200D01*
X33551400Y-85030400D02*
X33604780Y-85005020D01*
X33604780Y-85005020D02*
X33656800Y-84976960D01*
X33656800Y-84976960D02*
X33707330Y-84946280D01*
X33707330Y-84946280D02*
X33756220Y-84913070D01*
X33756220Y-84913070D02*
X33803360Y-84877420D01*
X33803360Y-84877420D02*
X33848630Y-84839410D01*
X33848630Y-84839410D02*
X33891900Y-84799150D01*
X33891900Y-84799150D02*
X33933070Y-84756730D01*
X33933070Y-84756730D02*
X33972020Y-84712270D01*
X33972020Y-84712270D02*
X34008660Y-84665890D01*
X34008660Y-84665890D02*
X34042880Y-84617700D01*
X34042880Y-84617700D02*
X34074620Y-84567830D01*
X34074620Y-84567830D02*
X34103770Y-84516420D01*
X34103770Y-84516420D02*
X34130260Y-84463580D01*
X34130260Y-84463580D02*
X34154030Y-84409460D01*
X34154030Y-84409460D02*
X34175010Y-84354200D01*
X33551400Y-85030400D02*
X32608600Y-85449600D01*
X32608600Y-85449600D02*
X32557280Y-85473930D01*
X32557280Y-85473930D02*
X32507220Y-85500750D01*
X32507220Y-85500750D02*
X32458530Y-85529980D01*
X32458530Y-85529980D02*
X32411320Y-85561560D01*
X32411320Y-85561560D02*
X32365720Y-85595410D01*
X32365720Y-85595410D02*
X32321830Y-85631450D01*
X32321830Y-85631450D02*
X32279760Y-85669600D01*
X32279760Y-85669600D02*
X32239600Y-85709760D01*
X32239600Y-85709760D02*
X32201450Y-85751830D01*
X32201450Y-85751830D02*
X32165410Y-85795720D01*
X32165410Y-85795720D02*
X32131560Y-85841320D01*
X32131560Y-85841320D02*
X32099980Y-85888530D01*
X32099980Y-85888530D02*
X32070750Y-85937220D01*
X32070750Y-85937220D02*
X32043930Y-85987280D01*
X32043930Y-85987280D02*
X32019600Y-86038600D01*
X32019600Y-86038600D02*
X31600400Y-86981400D01*
X31572300Y-87040200D02*
X31579640Y-87025650D01*
X31579640Y-87025650D02*
X31586780Y-87011010D01*
X31586780Y-87011010D02*
X31593710Y-86996260D01*
X31593710Y-86996260D02*
X31600440Y-86981420D01*
X31572300Y-87040200D02*
X30540000Y-89050000D01*
%TO.N,F_A3*%
X31049000Y-85519100D02*
X30272600Y-85820100D01*
X31049000Y-85519100D02*
X31256600Y-86325500D01*
X67533800Y-66233700D02*
X68235600Y-66638000D01*
X67533800Y-66233700D02*
X68044400Y-65605000D01*
X30540000Y-86510000D02*
X31572300Y-84500200D01*
X31572300Y-84500200D02*
X31579640Y-84485650D01*
X31579640Y-84485650D02*
X31586780Y-84471010D01*
X31586780Y-84471010D02*
X31593710Y-84456260D01*
X31593710Y-84456260D02*
X31600440Y-84441420D01*
X31600400Y-84441400D02*
X32019600Y-83498600D01*
X32608600Y-82909600D02*
X32557280Y-82933930D01*
X32557280Y-82933930D02*
X32507220Y-82960750D01*
X32507220Y-82960750D02*
X32458530Y-82989980D01*
X32458530Y-82989980D02*
X32411320Y-83021560D01*
X32411320Y-83021560D02*
X32365720Y-83055410D01*
X32365720Y-83055410D02*
X32321830Y-83091450D01*
X32321830Y-83091450D02*
X32279760Y-83129600D01*
X32279760Y-83129600D02*
X32239600Y-83169760D01*
X32239600Y-83169760D02*
X32201450Y-83211830D01*
X32201450Y-83211830D02*
X32165410Y-83255720D01*
X32165410Y-83255720D02*
X32131560Y-83301320D01*
X32131560Y-83301320D02*
X32099980Y-83348530D01*
X32099980Y-83348530D02*
X32070750Y-83397220D01*
X32070750Y-83397220D02*
X32043930Y-83447280D01*
X32043930Y-83447280D02*
X32019600Y-83498600D01*
X32608600Y-82909600D02*
X33551400Y-82490400D01*
X33551400Y-82490400D02*
X33608060Y-82463360D01*
X33608060Y-82463360D02*
X33663170Y-82433290D01*
X33663170Y-82433290D02*
X33716570Y-82400280D01*
X33716570Y-82400280D02*
X33768110Y-82364440D01*
X33768110Y-82364440D02*
X33817640Y-82325860D01*
X33817640Y-82325860D02*
X33865000Y-82284650D01*
X33865000Y-82284650D02*
X33910070Y-82240950D01*
X33910070Y-82240950D02*
X33952720Y-82194870D01*
X33952720Y-82194870D02*
X33992800Y-82146560D01*
X33992800Y-82146560D02*
X34030220Y-82096150D01*
X34030220Y-82096150D02*
X34064850Y-82043790D01*
X34064850Y-82043790D02*
X34096600Y-81989630D01*
X34096600Y-81989630D02*
X34125380Y-81933830D01*
X34125380Y-81933830D02*
X34151100Y-81876560D01*
X34151100Y-81876560D02*
X34173680Y-81817980D01*
X34173680Y-81817980D02*
X34193060Y-81758270D01*
X34193060Y-81758270D02*
X34209180Y-81697600D01*
X34209200Y-81697600D02*
X34386100Y-80951200D01*
X34418400Y-80836300D02*
X34411190Y-80859060D01*
X34411190Y-80859060D02*
X34404360Y-80881940D01*
X34404360Y-80881940D02*
X34397900Y-80904930D01*
X34397900Y-80904930D02*
X34391820Y-80928020D01*
X34391820Y-80928020D02*
X34386130Y-80951210D01*
X34418400Y-80836300D02*
X35216600Y-78385800D01*
X35232700Y-78338300D02*
X35228590Y-78350150D01*
X35228590Y-78350150D02*
X35224540Y-78362010D01*
X35224540Y-78362010D02*
X35220560Y-78373900D01*
X35220560Y-78373900D02*
X35216640Y-78385810D01*
X35232700Y-78338300D02*
X36025600Y-76073700D01*
X36342900Y-75618800D02*
X36307480Y-75649370D01*
X36307480Y-75649370D02*
X36273480Y-75681520D01*
X36273480Y-75681520D02*
X36240970Y-75715180D01*
X36240970Y-75715180D02*
X36210030Y-75750280D01*
X36210030Y-75750280D02*
X36180710Y-75786750D01*
X36180710Y-75786750D02*
X36153080Y-75824510D01*
X36153080Y-75824510D02*
X36127180Y-75863480D01*
X36127180Y-75863480D02*
X36103080Y-75903590D01*
X36103080Y-75903590D02*
X36080830Y-75944750D01*
X36080830Y-75944750D02*
X36060470Y-75986880D01*
X36060470Y-75986880D02*
X36042040Y-76029890D01*
X36042040Y-76029890D02*
X36025580Y-76073690D01*
X36342900Y-75618800D02*
X41915100Y-71025900D01*
X42281200Y-70865700D02*
X42247900Y-70871030D01*
X42247900Y-70871030D02*
X42214870Y-70877890D01*
X42214870Y-70877890D02*
X42182200Y-70886260D01*
X42182200Y-70886260D02*
X42149950Y-70896130D01*
X42149950Y-70896130D02*
X42118190Y-70907490D01*
X42118190Y-70907490D02*
X42086980Y-70920290D01*
X42086980Y-70920290D02*
X42056400Y-70934520D01*
X42056400Y-70934520D02*
X42026510Y-70950140D01*
X42026510Y-70950140D02*
X41997380Y-70967130D01*
X41997380Y-70967130D02*
X41969050Y-70985440D01*
X41969050Y-70985440D02*
X41941600Y-71005040D01*
X41941600Y-71005040D02*
X41915090Y-71025880D01*
X42281200Y-70865700D02*
X51120500Y-69660200D01*
X51120500Y-69660200D02*
X51161420Y-69654260D01*
X51161420Y-69654260D02*
X51202240Y-69647600D01*
X51202240Y-69647600D02*
X51242930Y-69640230D01*
X51242930Y-69640230D02*
X51283480Y-69632150D01*
X51283480Y-69632150D02*
X51323890Y-69623370D01*
X51323900Y-69623400D02*
X60714700Y-67496900D01*
X60757900Y-67488100D02*
X60747070Y-67490160D01*
X60747070Y-67490160D02*
X60736270Y-67492330D01*
X60736270Y-67492330D02*
X60725480Y-67494600D01*
X60725480Y-67494600D02*
X60714720Y-67496980D01*
X60757900Y-67488100D02*
X68580000Y-66040000D01*
%TO.N,F_A4*%
X33773400Y-83098100D02*
X32953100Y-83241000D01*
X33773400Y-83098100D02*
X33818900Y-83929600D01*
X59924800Y-73414300D02*
X60403300Y-74067700D01*
X59924800Y-73414300D02*
X60645900Y-73045700D01*
X33080000Y-83970000D02*
X34317400Y-82414100D01*
X34317400Y-82414100D02*
X34359410Y-82358830D01*
X34359410Y-82358830D02*
X34398950Y-82301760D01*
X34398950Y-82301760D02*
X34435950Y-82243020D01*
X34435950Y-82243020D02*
X34470340Y-82182700D01*
X34470340Y-82182700D02*
X34502050Y-82120940D01*
X34502050Y-82120940D02*
X34531010Y-82057840D01*
X34531010Y-82057840D02*
X34557170Y-81993540D01*
X34557170Y-81993540D02*
X34580490Y-81928140D01*
X34580490Y-81928140D02*
X34600910Y-81861790D01*
X34600910Y-81861790D02*
X34618400Y-81794600D01*
X34618400Y-81794600D02*
X34795300Y-81048100D01*
X34818200Y-80966600D02*
X34813090Y-80982750D01*
X34813090Y-80982750D02*
X34808240Y-80998970D01*
X34808240Y-80998970D02*
X34803660Y-81015280D01*
X34803660Y-81015280D02*
X34799350Y-81031660D01*
X34799350Y-81031660D02*
X34795310Y-81048100D01*
X34818200Y-80966600D02*
X35616500Y-78516100D01*
X35629600Y-78477300D02*
X35626240Y-78486970D01*
X35626240Y-78486970D02*
X35622940Y-78496660D01*
X35622940Y-78496660D02*
X35619690Y-78506370D01*
X35619690Y-78506370D02*
X35616490Y-78516100D01*
X35629600Y-78477300D02*
X36422500Y-76212700D01*
X36610400Y-75943300D02*
X36589420Y-75961410D01*
X36589420Y-75961410D02*
X36569290Y-75980440D01*
X36569290Y-75980440D02*
X36550040Y-76000380D01*
X36550040Y-76000380D02*
X36531710Y-76021160D01*
X36531710Y-76021160D02*
X36514350Y-76042760D01*
X36514350Y-76042760D02*
X36497980Y-76065120D01*
X36497980Y-76065120D02*
X36482650Y-76088200D01*
X36482650Y-76088200D02*
X36468380Y-76111960D01*
X36468380Y-76111960D02*
X36455200Y-76136330D01*
X36455200Y-76136330D02*
X36443140Y-76161280D01*
X36443140Y-76161280D02*
X36432230Y-76186750D01*
X36432230Y-76186750D02*
X36422480Y-76212690D01*
X36610400Y-75943300D02*
X42182500Y-71350400D01*
X42380000Y-71279500D02*
X42364720Y-71279880D01*
X42364720Y-71279880D02*
X42349470Y-71281000D01*
X42349470Y-71281000D02*
X42334300Y-71282880D01*
X42334300Y-71282880D02*
X42319240Y-71285500D01*
X42319240Y-71285500D02*
X42304320Y-71288860D01*
X42304320Y-71288860D02*
X42289590Y-71292950D01*
X42289590Y-71292950D02*
X42275080Y-71297760D01*
X42275080Y-71297760D02*
X42260820Y-71303280D01*
X42260820Y-71303280D02*
X42246860Y-71309500D01*
X42246860Y-71309500D02*
X42233210Y-71316390D01*
X42233210Y-71316390D02*
X42219920Y-71323950D01*
X42219920Y-71323950D02*
X42207020Y-71332150D01*
X42207020Y-71332150D02*
X42194540Y-71340970D01*
X42194540Y-71340970D02*
X42182500Y-71350410D01*
X42380000Y-71279500D02*
X50800000Y-71279500D01*
X51056400Y-71309500D02*
X51020300Y-71301570D01*
X51020300Y-71301570D02*
X50983960Y-71294840D01*
X50983960Y-71294840D02*
X50947410Y-71289320D01*
X50947410Y-71289320D02*
X50910700Y-71285030D01*
X50910700Y-71285030D02*
X50873870Y-71281950D01*
X50873870Y-71281950D02*
X50836960Y-71280110D01*
X50836960Y-71280110D02*
X50800000Y-71279500D01*
X51056400Y-71309500D02*
X60960000Y-73660000D01*
%TO.N,F_D2*%
X22031000Y-82979100D02*
X21823400Y-83785500D01*
X22031000Y-82979100D02*
X22807400Y-83280100D01*
X60166900Y-38809300D02*
X60976600Y-38789800D01*
X60166900Y-38809300D02*
X60276400Y-38006800D01*
X22540000Y-83970000D02*
X21507700Y-81960200D01*
X21381300Y-81494000D02*
X21385000Y-81542510D01*
X21385000Y-81542510D02*
X21390730Y-81590830D01*
X21390730Y-81590830D02*
X21398480Y-81638860D01*
X21398480Y-81638860D02*
X21408240Y-81686530D01*
X21408240Y-81686530D02*
X21419990Y-81733740D01*
X21419990Y-81733740D02*
X21433710Y-81780420D01*
X21433710Y-81780420D02*
X21449370Y-81826490D01*
X21449370Y-81826490D02*
X21466950Y-81871860D01*
X21466950Y-81871860D02*
X21486410Y-81916450D01*
X21486410Y-81916450D02*
X21507730Y-81960190D01*
X21381300Y-81494000D02*
X20961400Y-73897200D01*
X20959000Y-73810000D02*
X20959150Y-73831810D01*
X20959150Y-73831810D02*
X20959600Y-73853620D01*
X20959600Y-73853620D02*
X20960350Y-73875410D01*
X20960350Y-73875410D02*
X20961410Y-73897200D01*
X20959000Y-73810000D02*
X20959000Y-66190000D01*
X20980800Y-65928300D02*
X20974150Y-65971610D01*
X20974150Y-65971610D02*
X20968700Y-66015090D01*
X20968700Y-66015090D02*
X20964450Y-66058700D01*
X20964450Y-66058700D02*
X20961420Y-66102410D01*
X20961420Y-66102410D02*
X20959600Y-66146190D01*
X20959600Y-66146190D02*
X20958990Y-66190000D01*
X20980800Y-65928300D02*
X21395500Y-63457900D01*
X22443900Y-62493500D02*
X22377640Y-62500930D01*
X22377640Y-62500930D02*
X22311920Y-62512150D01*
X22311920Y-62512150D02*
X22246950Y-62527120D01*
X22246950Y-62527120D02*
X22182950Y-62545810D01*
X22182950Y-62545810D02*
X22120120Y-62568130D01*
X22120120Y-62568130D02*
X22058690Y-62594030D01*
X22058690Y-62594030D02*
X21998840Y-62623420D01*
X21998840Y-62623420D02*
X21940780Y-62656190D01*
X21940780Y-62656190D02*
X21884690Y-62692240D01*
X21884690Y-62692240D02*
X21830770Y-62731460D01*
X21830770Y-62731460D02*
X21779190Y-62773700D01*
X21779190Y-62773700D02*
X21730120Y-62818840D01*
X21730120Y-62818840D02*
X21683720Y-62866730D01*
X21683720Y-62866730D02*
X21640150Y-62917190D01*
X21640150Y-62917190D02*
X21599560Y-62970080D01*
X21599560Y-62970080D02*
X21562060Y-63025210D01*
X21562060Y-63025210D02*
X21527790Y-63082400D01*
X21527790Y-63082400D02*
X21496870Y-63141470D01*
X21496870Y-63141470D02*
X21469380Y-63202220D01*
X21469380Y-63202220D02*
X21445440Y-63264440D01*
X21445440Y-63264440D02*
X21425100Y-63327940D01*
X21425100Y-63327940D02*
X21408440Y-63392490D01*
X21408440Y-63392490D02*
X21395520Y-63457900D01*
X22443900Y-62493500D02*
X25176100Y-62266500D01*
X25176100Y-62266500D02*
X25221780Y-62261790D01*
X25221780Y-62261790D02*
X25267240Y-62255280D01*
X25267240Y-62255280D02*
X25312400Y-62246980D01*
X25312400Y-62246980D02*
X25357200Y-62236890D01*
X25357200Y-62236890D02*
X25401560Y-62225040D01*
X25401560Y-62225040D02*
X25445430Y-62211450D01*
X25445430Y-62211450D02*
X25488710Y-62196130D01*
X25488710Y-62196130D02*
X25531360Y-62179110D01*
X25531360Y-62179110D02*
X25573310Y-62160420D01*
X25573300Y-62160400D02*
X30046700Y-60059600D01*
X30068600Y-60049600D02*
X30063110Y-60052060D01*
X30063110Y-60052060D02*
X30057630Y-60054550D01*
X30057630Y-60054550D02*
X30052160Y-60057060D01*
X30052160Y-60057060D02*
X30046700Y-60059610D01*
X30068600Y-60049600D02*
X31011400Y-59630400D01*
X31011400Y-59630400D02*
X31062720Y-59606070D01*
X31062720Y-59606070D02*
X31112780Y-59579250D01*
X31112780Y-59579250D02*
X31161470Y-59550020D01*
X31161470Y-59550020D02*
X31208680Y-59518440D01*
X31208680Y-59518440D02*
X31254280Y-59484590D01*
X31254280Y-59484590D02*
X31298170Y-59448550D01*
X31298170Y-59448550D02*
X31340240Y-59410400D01*
X31340240Y-59410400D02*
X31380400Y-59370240D01*
X31380400Y-59370240D02*
X31418550Y-59328170D01*
X31418550Y-59328170D02*
X31454590Y-59284280D01*
X31454590Y-59284280D02*
X31488440Y-59238680D01*
X31488440Y-59238680D02*
X31520020Y-59191470D01*
X31520020Y-59191470D02*
X31549250Y-59142780D01*
X31549250Y-59142780D02*
X31576070Y-59092720D01*
X31576070Y-59092720D02*
X31600400Y-59041400D01*
X31600400Y-59041400D02*
X32019600Y-58098600D01*
X33166900Y-57412800D02*
X33102230Y-57409750D01*
X33102230Y-57409750D02*
X33037500Y-57410320D01*
X33037500Y-57410320D02*
X32972900Y-57414490D01*
X32972900Y-57414490D02*
X32908630Y-57422260D01*
X32908630Y-57422260D02*
X32844890Y-57433610D01*
X32844890Y-57433610D02*
X32781890Y-57448490D01*
X32781890Y-57448490D02*
X32719820Y-57466850D01*
X32719820Y-57466850D02*
X32658860Y-57488660D01*
X32658860Y-57488660D02*
X32599220Y-57513820D01*
X32599220Y-57513820D02*
X32541070Y-57542280D01*
X32541070Y-57542280D02*
X32484600Y-57573930D01*
X32484600Y-57573930D02*
X32429980Y-57608680D01*
X32429980Y-57608680D02*
X32377380Y-57646420D01*
X32377380Y-57646420D02*
X32326970Y-57687040D01*
X32326970Y-57687040D02*
X32278910Y-57730410D01*
X32278910Y-57730410D02*
X32233340Y-57776390D01*
X32233340Y-57776390D02*
X32190400Y-57824830D01*
X32190400Y-57824830D02*
X32150230Y-57875600D01*
X32150230Y-57875600D02*
X32112950Y-57928530D01*
X32112950Y-57928530D02*
X32078690Y-57983450D01*
X32078690Y-57983450D02*
X32047540Y-58040200D01*
X32047540Y-58040200D02*
X32019600Y-58098600D01*
X33166900Y-57412800D02*
X36214500Y-57641500D01*
X36214500Y-57641500D02*
X36244920Y-57643020D01*
X36244920Y-57643020D02*
X36275380Y-57643020D01*
X36275380Y-57643020D02*
X36305800Y-57641510D01*
X36305800Y-57641510D02*
X36336110Y-57638470D01*
X36336110Y-57638470D02*
X36366230Y-57633930D01*
X36366230Y-57633930D02*
X36396090Y-57627900D01*
X36396090Y-57627900D02*
X36425600Y-57620380D01*
X36425600Y-57620380D02*
X36454710Y-57611400D01*
X36454710Y-57611400D02*
X36483330Y-57600980D01*
X36483330Y-57600980D02*
X36511400Y-57589140D01*
X36511400Y-57589140D02*
X36538840Y-57575920D01*
X36538840Y-57575920D02*
X36565580Y-57561350D01*
X36565580Y-57561350D02*
X36591570Y-57545460D01*
X36591600Y-57545500D02*
X42577300Y-53677300D01*
X42847800Y-53550400D02*
X42812250Y-53562210D01*
X42812250Y-53562210D02*
X42777120Y-53575210D01*
X42777120Y-53575210D02*
X42742450Y-53589390D01*
X42742450Y-53589390D02*
X42708270Y-53604720D01*
X42708270Y-53604720D02*
X42674630Y-53621210D01*
X42674630Y-53621210D02*
X42641570Y-53638820D01*
X42641570Y-53638820D02*
X42609120Y-53657530D01*
X42609120Y-53657530D02*
X42577320Y-53677330D01*
X42847800Y-53550400D02*
X44072900Y-53166300D01*
X44072900Y-53166300D02*
X44085430Y-53162080D01*
X44085430Y-53162080D02*
X44097780Y-53157320D01*
X44097780Y-53157320D02*
X44109900Y-53152040D01*
X44109900Y-53152040D02*
X44121800Y-53146260D01*
X44121800Y-53146260D02*
X44133430Y-53139970D01*
X44133430Y-53139970D02*
X44144790Y-53133190D01*
X44144790Y-53133190D02*
X44155850Y-53125930D01*
X44155850Y-53125930D02*
X44166590Y-53118210D01*
X44166590Y-53118210D02*
X44176990Y-53110040D01*
X44176990Y-53110040D02*
X44187030Y-53101430D01*
X44187000Y-53101400D02*
X60960000Y-38100000D01*
%TO.N,F_D0*%
X30031000Y-80439100D02*
X29823400Y-81245500D01*
X30031000Y-80439100D02*
X30807400Y-80740100D01*
X47685500Y-66040600D02*
X48098600Y-66005600D01*
X47685500Y-66040600D02*
X47928600Y-65704800D01*
X30540000Y-81430000D02*
X29507700Y-79420200D01*
X29379500Y-78890000D02*
X29380580Y-78940040D01*
X29380580Y-78940040D02*
X29383820Y-78989990D01*
X29383820Y-78989990D02*
X29389200Y-79039750D01*
X29389200Y-79039750D02*
X29396730Y-79089240D01*
X29396730Y-79089240D02*
X29406390Y-79138350D01*
X29406390Y-79138350D02*
X29418150Y-79187000D01*
X29418150Y-79187000D02*
X29432000Y-79235100D01*
X29432000Y-79235100D02*
X29447910Y-79282560D01*
X29447910Y-79282560D02*
X29465850Y-79329280D01*
X29465850Y-79329280D02*
X29485800Y-79375190D01*
X29485800Y-79375190D02*
X29507700Y-79420200D01*
X29379500Y-78890000D02*
X29379500Y-76350000D01*
X30068600Y-75289600D02*
X30011140Y-75317050D01*
X30011140Y-75317050D02*
X29955280Y-75347620D01*
X29955280Y-75347620D02*
X29901180Y-75381200D01*
X29901180Y-75381200D02*
X29849000Y-75417700D01*
X29849000Y-75417700D02*
X29798900Y-75457010D01*
X29798900Y-75457010D02*
X29751030Y-75499000D01*
X29751030Y-75499000D02*
X29705540Y-75543560D01*
X29705540Y-75543560D02*
X29662560Y-75590550D01*
X29662560Y-75590550D02*
X29622220Y-75639820D01*
X29622220Y-75639820D02*
X29584650Y-75691230D01*
X29584650Y-75691230D02*
X29549950Y-75744630D01*
X29549950Y-75744630D02*
X29518240Y-75799850D01*
X29518240Y-75799850D02*
X29489600Y-75856720D01*
X29489600Y-75856720D02*
X29464120Y-75915080D01*
X29464120Y-75915080D02*
X29441890Y-75974750D01*
X29441890Y-75974750D02*
X29422960Y-76035550D01*
X29422960Y-76035550D02*
X29407390Y-76097300D01*
X29407390Y-76097300D02*
X29395230Y-76159800D01*
X29395230Y-76159800D02*
X29386520Y-76222880D01*
X29386520Y-76222880D02*
X29381290Y-76286350D01*
X29381290Y-76286350D02*
X29379540Y-76350000D01*
X30068600Y-75289600D02*
X31011400Y-74870400D01*
X31011400Y-74870400D02*
X31062720Y-74846070D01*
X31062720Y-74846070D02*
X31112780Y-74819250D01*
X31112780Y-74819250D02*
X31161470Y-74790020D01*
X31161470Y-74790020D02*
X31208680Y-74758440D01*
X31208680Y-74758440D02*
X31254280Y-74724590D01*
X31254280Y-74724590D02*
X31298170Y-74688550D01*
X31298170Y-74688550D02*
X31340240Y-74650400D01*
X31340240Y-74650400D02*
X31380400Y-74610240D01*
X31380400Y-74610240D02*
X31418550Y-74568170D01*
X31418550Y-74568170D02*
X31454590Y-74524280D01*
X31454590Y-74524280D02*
X31488440Y-74478680D01*
X31488440Y-74478680D02*
X31520020Y-74431470D01*
X31520020Y-74431470D02*
X31549250Y-74382780D01*
X31549250Y-74382780D02*
X31576070Y-74332720D01*
X31576070Y-74332720D02*
X31600400Y-74281400D01*
X31600400Y-74281400D02*
X32019600Y-73338600D01*
X32617200Y-72745800D02*
X32565130Y-72770000D01*
X32565130Y-72770000D02*
X32514310Y-72796740D01*
X32514310Y-72796740D02*
X32464880Y-72825960D01*
X32464880Y-72825960D02*
X32416960Y-72857590D01*
X32416960Y-72857590D02*
X32370660Y-72891550D01*
X32370660Y-72891550D02*
X32326100Y-72927760D01*
X32326100Y-72927760D02*
X32283380Y-72966140D01*
X32283380Y-72966140D02*
X32242620Y-73006570D01*
X32242620Y-73006570D02*
X32203900Y-73048980D01*
X32203900Y-73048980D02*
X32167330Y-73093240D01*
X32167330Y-73093240D02*
X32132990Y-73139270D01*
X32132990Y-73139270D02*
X32100970Y-73186930D01*
X32100970Y-73186930D02*
X32071350Y-73236120D01*
X32071350Y-73236120D02*
X32044200Y-73286720D01*
X32044200Y-73286720D02*
X32019580Y-73338590D01*
X32617200Y-72745800D02*
X41250000Y-68991600D01*
X41671500Y-68846500D02*
X41599740Y-68866040D01*
X41599740Y-68866040D02*
X41528520Y-68887460D01*
X41528520Y-68887460D02*
X41457890Y-68910730D01*
X41457890Y-68910730D02*
X41387890Y-68935860D01*
X41387890Y-68935860D02*
X41318570Y-68962810D01*
X41318570Y-68962810D02*
X41249990Y-68991570D01*
X41671500Y-68846500D02*
X43457700Y-68385200D01*
X43457700Y-68385200D02*
X43497640Y-68374080D01*
X43497640Y-68374080D02*
X43537150Y-68361480D01*
X43537150Y-68361480D02*
X43576150Y-68347420D01*
X43576150Y-68347420D02*
X43614600Y-68331910D01*
X43614600Y-68331910D02*
X43652450Y-68314970D01*
X43652450Y-68314970D02*
X43689630Y-68296630D01*
X43689630Y-68296630D02*
X43726110Y-68276920D01*
X43726100Y-68276900D02*
X48082500Y-65816300D01*
%TO.N,F_A1*%
X33701300Y-77965300D02*
X32895100Y-78173500D01*
X33701300Y-77965300D02*
X33813300Y-78790500D01*
X67533800Y-63693700D02*
X68235600Y-64098000D01*
X67533800Y-63693700D02*
X68044400Y-63065000D01*
X33080000Y-78890000D02*
X35444900Y-75370400D01*
X35808000Y-74969900D02*
X35756470Y-75013970D01*
X35756470Y-75013970D02*
X35706560Y-75059880D01*
X35706560Y-75059880D02*
X35658350Y-75107560D01*
X35658350Y-75107560D02*
X35611900Y-75156960D01*
X35611900Y-75156960D02*
X35567270Y-75208010D01*
X35567270Y-75208010D02*
X35524520Y-75260650D01*
X35524520Y-75260650D02*
X35483700Y-75314790D01*
X35483700Y-75314790D02*
X35444870Y-75370380D01*
X35808000Y-74969900D02*
X41380100Y-70377000D01*
X42167600Y-70032400D02*
X42095960Y-70043860D01*
X42095960Y-70043860D02*
X42024920Y-70058610D01*
X42024920Y-70058610D02*
X41954650Y-70076620D01*
X41954650Y-70076620D02*
X41885270Y-70097860D01*
X41885270Y-70097860D02*
X41816950Y-70122280D01*
X41816950Y-70122280D02*
X41749830Y-70149820D01*
X41749830Y-70149820D02*
X41684060Y-70180430D01*
X41684060Y-70180430D02*
X41619760Y-70214040D01*
X41619760Y-70214040D02*
X41557080Y-70250580D01*
X41557080Y-70250580D02*
X41496160Y-70289980D01*
X41496160Y-70289980D02*
X41437120Y-70332140D01*
X41437120Y-70332140D02*
X41380090Y-70376980D01*
X42167600Y-70032400D02*
X51006900Y-68827000D01*
X51006900Y-68827000D02*
X51060880Y-68818650D01*
X51060880Y-68818650D02*
X51114520Y-68808390D01*
X51114520Y-68808390D02*
X51167770Y-68796220D01*
X51167770Y-68796220D02*
X51220550Y-68782150D01*
X51220550Y-68782150D02*
X51272790Y-68766220D01*
X51272790Y-68766220D02*
X51324430Y-68748430D01*
X51324430Y-68748430D02*
X51375400Y-68728810D01*
X51375400Y-68728800D02*
X60542600Y-65010900D01*
X60757900Y-64948100D02*
X60726430Y-64954400D01*
X60726430Y-64954400D02*
X60695160Y-64961600D01*
X60695160Y-64961600D02*
X60664110Y-64969700D01*
X60664110Y-64969700D02*
X60633300Y-64978700D01*
X60633300Y-64978700D02*
X60602770Y-64988580D01*
X60602770Y-64988580D02*
X60572540Y-64999340D01*
X60572540Y-64999340D02*
X60542630Y-65010970D01*
X60757900Y-64948100D02*
X68580000Y-63500000D01*
%TO.N,F_D5*%
X69045200Y-46676900D02*
X69248000Y-45892800D01*
X69045200Y-46676900D02*
X68303200Y-46352000D01*
X31049000Y-77899100D02*
X30272600Y-78200100D01*
X31049000Y-77899100D02*
X31256600Y-78705500D01*
X68580000Y-45720000D02*
X69578700Y-47774500D01*
X68626200Y-49369500D02*
X68692700Y-49364730D01*
X68692700Y-49364730D02*
X68758800Y-49355970D01*
X68758800Y-49355970D02*
X68824250Y-49343270D01*
X68824250Y-49343270D02*
X68888820Y-49326660D01*
X68888820Y-49326660D02*
X68952280Y-49306200D01*
X68952280Y-49306200D02*
X69014400Y-49281970D01*
X69014400Y-49281970D02*
X69074950Y-49254060D01*
X69074950Y-49254060D02*
X69133710Y-49222560D01*
X69133710Y-49222560D02*
X69190480Y-49187600D01*
X69190480Y-49187600D02*
X69245050Y-49149290D01*
X69245050Y-49149290D02*
X69297220Y-49107770D01*
X69297220Y-49107770D02*
X69346810Y-49063200D01*
X69346810Y-49063200D02*
X69393630Y-49015730D01*
X69393630Y-49015730D02*
X69437520Y-48965540D01*
X69437520Y-48965540D02*
X69478320Y-48912800D01*
X69478320Y-48912800D02*
X69515870Y-48857720D01*
X69515870Y-48857720D02*
X69550060Y-48800470D01*
X69550060Y-48800470D02*
X69580750Y-48741280D01*
X69580750Y-48741280D02*
X69607830Y-48680350D01*
X69607830Y-48680350D02*
X69631200Y-48617910D01*
X69631200Y-48617910D02*
X69650790Y-48554180D01*
X69650790Y-48554180D02*
X69666510Y-48489390D01*
X69666510Y-48489390D02*
X69678320Y-48423770D01*
X69678320Y-48423770D02*
X69686170Y-48357550D01*
X69686170Y-48357550D02*
X69690030Y-48290990D01*
X69690030Y-48290990D02*
X69689890Y-48224320D01*
X69689890Y-48224320D02*
X69685750Y-48157770D01*
X69685750Y-48157770D02*
X69677620Y-48091600D01*
X69677620Y-48091600D02*
X69665530Y-48026030D01*
X69665530Y-48026030D02*
X69649530Y-47961300D01*
X69649530Y-47961300D02*
X69629680Y-47897650D01*
X69629680Y-47897650D02*
X69606040Y-47835310D01*
X69606040Y-47835310D02*
X69578710Y-47774500D01*
X68626200Y-49369500D02*
X60913800Y-49690500D01*
X60913800Y-49690500D02*
X60853790Y-49694630D01*
X60853790Y-49694630D02*
X60794100Y-49702000D01*
X60794100Y-49702000D02*
X60734890Y-49712600D01*
X60734890Y-49712600D02*
X60676340Y-49726380D01*
X60676340Y-49726380D02*
X60618620Y-49743310D01*
X60618620Y-49743310D02*
X60561910Y-49763350D01*
X60561910Y-49763350D02*
X60506360Y-49786420D01*
X60506360Y-49786420D02*
X60452150Y-49812470D01*
X60452150Y-49812470D02*
X60399420Y-49841420D01*
X60399420Y-49841420D02*
X60348340Y-49873180D01*
X60348340Y-49873180D02*
X60299050Y-49907660D01*
X60299050Y-49907660D02*
X60251710Y-49944760D01*
X60251710Y-49944760D02*
X60206440Y-49984360D01*
X60206440Y-49984360D02*
X60163380Y-50026360D01*
X60163380Y-50026360D02*
X60122660Y-50070630D01*
X60122660Y-50070630D02*
X60084390Y-50117040D01*
X60084390Y-50117040D02*
X60048700Y-50165450D01*
X60048700Y-50165450D02*
X60015680Y-50215730D01*
X60015680Y-50215730D02*
X59985430Y-50267710D01*
X59985400Y-50267700D02*
X51774600Y-65302300D01*
X51205800Y-65803700D02*
X51256730Y-65782230D01*
X51256730Y-65782230D02*
X51306520Y-65758250D01*
X51306520Y-65758250D02*
X51355060Y-65731830D01*
X51355060Y-65731830D02*
X51402230Y-65703020D01*
X51402230Y-65703020D02*
X51447900Y-65671910D01*
X51447900Y-65671910D02*
X51491970Y-65638560D01*
X51491970Y-65638560D02*
X51534320Y-65603050D01*
X51534320Y-65603050D02*
X51574860Y-65565490D01*
X51574860Y-65565490D02*
X51613480Y-65525950D01*
X51613480Y-65525950D02*
X51650080Y-65484540D01*
X51650080Y-65484540D02*
X51684580Y-65441370D01*
X51684580Y-65441370D02*
X51716880Y-65396530D01*
X51716880Y-65396530D02*
X51746920Y-65350130D01*
X51746920Y-65350130D02*
X51774610Y-65302300D01*
X51205800Y-65803700D02*
X43739500Y-68735100D01*
X43562800Y-68792400D02*
X43598680Y-68782670D01*
X43598680Y-68782670D02*
X43634310Y-68772070D01*
X43634310Y-68772070D02*
X43669670Y-68760610D01*
X43669670Y-68760610D02*
X43704750Y-68748290D01*
X43704750Y-68748290D02*
X43739510Y-68735130D01*
X43562800Y-68792400D02*
X41776600Y-69253700D01*
X41776600Y-69253700D02*
X41682470Y-69280060D01*
X41682470Y-69280060D02*
X41589480Y-69310200D01*
X41589480Y-69310200D02*
X41497790Y-69344090D01*
X41497790Y-69344090D02*
X41407550Y-69381670D01*
X41407550Y-69381670D02*
X41318900Y-69422870D01*
X41318900Y-69422870D02*
X41232000Y-69467620D01*
X41232000Y-69467620D02*
X41146980Y-69515860D01*
X41146980Y-69515860D02*
X41063980Y-69567500D01*
X41063980Y-69567500D02*
X40983150Y-69622470D01*
X40983100Y-69622400D02*
X33751800Y-74756300D01*
X33551400Y-74870400D02*
X33586310Y-74854180D01*
X33586310Y-74854180D02*
X33620670Y-74836810D01*
X33620670Y-74836810D02*
X33654430Y-74818320D01*
X33654430Y-74818320D02*
X33687550Y-74798710D01*
X33687550Y-74798710D02*
X33720010Y-74778010D01*
X33720010Y-74778010D02*
X33751770Y-74756250D01*
X33551400Y-74870400D02*
X32608600Y-75289600D01*
X32608600Y-75289600D02*
X32557280Y-75313930D01*
X32557280Y-75313930D02*
X32507220Y-75340750D01*
X32507220Y-75340750D02*
X32458530Y-75369980D01*
X32458530Y-75369980D02*
X32411320Y-75401560D01*
X32411320Y-75401560D02*
X32365720Y-75435410D01*
X32365720Y-75435410D02*
X32321830Y-75471450D01*
X32321830Y-75471450D02*
X32279760Y-75509600D01*
X32279760Y-75509600D02*
X32239600Y-75549760D01*
X32239600Y-75549760D02*
X32201450Y-75591830D01*
X32201450Y-75591830D02*
X32165410Y-75635720D01*
X32165410Y-75635720D02*
X32131560Y-75681320D01*
X32131560Y-75681320D02*
X32099980Y-75728530D01*
X32099980Y-75728530D02*
X32070750Y-75777220D01*
X32070750Y-75777220D02*
X32043930Y-75827280D01*
X32043930Y-75827280D02*
X32019600Y-75878600D01*
X32019600Y-75878600D02*
X31600400Y-76821400D01*
X31572300Y-76880200D02*
X31579640Y-76865650D01*
X31579640Y-76865650D02*
X31586780Y-76851010D01*
X31586780Y-76851010D02*
X31593710Y-76836260D01*
X31593710Y-76836260D02*
X31600440Y-76821420D01*
X31572300Y-76880200D02*
X30540000Y-78890000D01*
%TO.N,F_A0*%
X33956700Y-75662600D02*
X33125600Y-75611400D01*
X33956700Y-75662600D02*
X33808200Y-76482000D01*
X60007200Y-63973600D02*
X60793100Y-64169500D01*
X60007200Y-63973600D02*
X60325500Y-63228900D01*
X33080000Y-76350000D02*
X41150600Y-70022000D01*
X42110800Y-69615800D02*
X42016130Y-69631040D01*
X42016130Y-69631040D02*
X41922310Y-69650810D01*
X41922310Y-69650810D02*
X41829540Y-69675080D01*
X41829540Y-69675080D02*
X41738050Y-69703780D01*
X41738050Y-69703780D02*
X41648050Y-69736850D01*
X41648050Y-69736850D02*
X41559740Y-69774210D01*
X41559740Y-69774210D02*
X41473330Y-69815770D01*
X41473330Y-69815770D02*
X41389020Y-69861450D01*
X41389020Y-69861450D02*
X41307010Y-69911130D01*
X41307010Y-69911130D02*
X41227480Y-69964690D01*
X41227480Y-69964690D02*
X41150620Y-70022020D01*
X42110800Y-69615800D02*
X50950100Y-68410300D01*
X50950100Y-68410300D02*
X50994760Y-68403280D01*
X50994760Y-68403280D02*
X51039100Y-68394440D01*
X51039100Y-68394440D02*
X51083050Y-68383810D01*
X51083050Y-68383810D02*
X51126520Y-68371400D01*
X51126520Y-68371400D02*
X51169460Y-68357230D01*
X51169460Y-68357230D02*
X51211780Y-68341320D01*
X51211780Y-68341320D02*
X51253420Y-68323710D01*
X51253420Y-68323710D02*
X51294310Y-68304410D01*
X51294300Y-68304400D02*
X60960000Y-63500000D01*
%TO.N,F_D3*%
X67533800Y-38293700D02*
X68235600Y-38698000D01*
X67533800Y-38293700D02*
X68044400Y-37665000D01*
X22031000Y-75359100D02*
X21823400Y-76165500D01*
X22031000Y-75359100D02*
X22807400Y-75660100D01*
X68580000Y-38100000D02*
X60757900Y-39548100D01*
X60757900Y-39548100D02*
X60705260Y-39559170D01*
X60705260Y-39559170D02*
X60653230Y-39572770D01*
X60653230Y-39572770D02*
X60601910Y-39588880D01*
X60601910Y-39588880D02*
X60551430Y-39607450D01*
X60551430Y-39607450D02*
X60501910Y-39628450D01*
X60501910Y-39628450D02*
X60453460Y-39651810D01*
X60453460Y-39651810D02*
X60406210Y-39677500D01*
X60406210Y-39677500D02*
X60360250Y-39705450D01*
X60360250Y-39705450D02*
X60315700Y-39735580D01*
X60315700Y-39735580D02*
X60272660Y-39767840D01*
X60272660Y-39767840D02*
X60231240Y-39802150D01*
X60231240Y-39802150D02*
X60191520Y-39838420D01*
X60191500Y-39838400D02*
X43948500Y-55411600D01*
X43718800Y-55581000D02*
X43754180Y-55560510D01*
X43754180Y-55560510D02*
X43788780Y-55538730D01*
X43788780Y-55538730D02*
X43822550Y-55515690D01*
X43822550Y-55515690D02*
X43855450Y-55491420D01*
X43855450Y-55491420D02*
X43887440Y-55465960D01*
X43887440Y-55465960D02*
X43918470Y-55439340D01*
X43918470Y-55439340D02*
X43948500Y-55411600D01*
X43718800Y-55581000D02*
X42641200Y-56179000D01*
X42641200Y-56179000D02*
X42637640Y-56180980D01*
X42637640Y-56180980D02*
X42634090Y-56182980D01*
X42634090Y-56182980D02*
X42630540Y-56184990D01*
X42630540Y-56184990D02*
X42627010Y-56187010D01*
X42627000Y-56187000D02*
X37735100Y-58996200D01*
X37546800Y-59066200D02*
X37571460Y-59060910D01*
X37571460Y-59060910D02*
X37595890Y-59054600D01*
X37595890Y-59054600D02*
X37620030Y-59047290D01*
X37620030Y-59047290D02*
X37643850Y-59038990D01*
X37643850Y-59038990D02*
X37667300Y-59029720D01*
X37667300Y-59029720D02*
X37690360Y-59019480D01*
X37690360Y-59019480D02*
X37712970Y-59008300D01*
X37712970Y-59008300D02*
X37735090Y-58996190D01*
X37546800Y-59066200D02*
X32860100Y-59970500D01*
X32860100Y-59970500D02*
X32799550Y-59983870D01*
X32799550Y-59983870D02*
X32739810Y-60000460D01*
X32739810Y-60000460D02*
X32681030Y-60020210D01*
X32681030Y-60020210D02*
X32623390Y-60043080D01*
X32623390Y-60043080D02*
X32567060Y-60068990D01*
X32567060Y-60068990D02*
X32512190Y-60097870D01*
X32512190Y-60097870D02*
X32458940Y-60129640D01*
X32458940Y-60129640D02*
X32407470Y-60164210D01*
X32407470Y-60164210D02*
X32357910Y-60201480D01*
X32357910Y-60201480D02*
X32310420Y-60241350D01*
X32310420Y-60241350D02*
X32265120Y-60283690D01*
X32265120Y-60283690D02*
X32222150Y-60328390D01*
X32222150Y-60328390D02*
X32181630Y-60375330D01*
X32181630Y-60375330D02*
X32143670Y-60424360D01*
X32143670Y-60424360D02*
X32108390Y-60475350D01*
X32108390Y-60475350D02*
X32075880Y-60528150D01*
X32075880Y-60528150D02*
X32046230Y-60582610D01*
X32046230Y-60582610D02*
X32019540Y-60638570D01*
X32019600Y-60638600D02*
X31600400Y-61581400D01*
X31011400Y-62170400D02*
X31062720Y-62146070D01*
X31062720Y-62146070D02*
X31112780Y-62119250D01*
X31112780Y-62119250D02*
X31161470Y-62090020D01*
X31161470Y-62090020D02*
X31208680Y-62058440D01*
X31208680Y-62058440D02*
X31254280Y-62024590D01*
X31254280Y-62024590D02*
X31298170Y-61988550D01*
X31298170Y-61988550D02*
X31340240Y-61950400D01*
X31340240Y-61950400D02*
X31380400Y-61910240D01*
X31380400Y-61910240D02*
X31418550Y-61868170D01*
X31418550Y-61868170D02*
X31454590Y-61824280D01*
X31454590Y-61824280D02*
X31488440Y-61778680D01*
X31488440Y-61778680D02*
X31520020Y-61731470D01*
X31520020Y-61731470D02*
X31549250Y-61682780D01*
X31549250Y-61682780D02*
X31576070Y-61632720D01*
X31576070Y-61632720D02*
X31600400Y-61581400D01*
X31011400Y-62170400D02*
X30068600Y-62589600D01*
X30068600Y-62589600D02*
X30063110Y-62592060D01*
X30063110Y-62592060D02*
X30057630Y-62594550D01*
X30057630Y-62594550D02*
X30052160Y-62597060D01*
X30052160Y-62597060D02*
X30046700Y-62599610D01*
X30046700Y-62599600D02*
X25573300Y-64700400D01*
X25176100Y-64806500D02*
X25221780Y-64801790D01*
X25221780Y-64801790D02*
X25267240Y-64795280D01*
X25267240Y-64795280D02*
X25312400Y-64786980D01*
X25312400Y-64786980D02*
X25357200Y-64776890D01*
X25357200Y-64776890D02*
X25401560Y-64765040D01*
X25401560Y-64765040D02*
X25445430Y-64751450D01*
X25445430Y-64751450D02*
X25488710Y-64736130D01*
X25488710Y-64736130D02*
X25531360Y-64719110D01*
X25531360Y-64719110D02*
X25573310Y-64700420D01*
X25176100Y-64806500D02*
X22443900Y-65033500D01*
X22443900Y-65033500D02*
X22377910Y-65040890D01*
X22377910Y-65040890D02*
X22312450Y-65052040D01*
X22312450Y-65052040D02*
X22247740Y-65066920D01*
X22247740Y-65066920D02*
X22183980Y-65085470D01*
X22183980Y-65085470D02*
X22121390Y-65107640D01*
X22121390Y-65107640D02*
X22060170Y-65133360D01*
X22060170Y-65133360D02*
X22000520Y-65162530D01*
X22000520Y-65162530D02*
X21942640Y-65195070D01*
X21942640Y-65195070D02*
X21886710Y-65230860D01*
X21886710Y-65230860D02*
X21832920Y-65269800D01*
X21832920Y-65269800D02*
X21781450Y-65311750D01*
X21781450Y-65311750D02*
X21732460Y-65356570D01*
X21732460Y-65356570D02*
X21686110Y-65404120D01*
X21686110Y-65404120D02*
X21642560Y-65454250D01*
X21642560Y-65454250D02*
X21601950Y-65506780D01*
X21601950Y-65506780D02*
X21564410Y-65561550D01*
X21564410Y-65561550D02*
X21530060Y-65618380D01*
X21530060Y-65618380D02*
X21499020Y-65677080D01*
X21499020Y-65677080D02*
X21471390Y-65737460D01*
X21471390Y-65737460D02*
X21447250Y-65799320D01*
X21447250Y-65799320D02*
X21426700Y-65862460D01*
X21426700Y-65862460D02*
X21409790Y-65926670D01*
X21409790Y-65926670D02*
X21396570Y-65991750D01*
X21396570Y-65991750D02*
X21387110Y-66057470D01*
X21387110Y-66057470D02*
X21381410Y-66123630D01*
X21381410Y-66123630D02*
X21379510Y-66190000D01*
X21379500Y-66190000D02*
X21379500Y-73810000D01*
X21379500Y-73810000D02*
X21380580Y-73860040D01*
X21380580Y-73860040D02*
X21383820Y-73909990D01*
X21383820Y-73909990D02*
X21389200Y-73959750D01*
X21389200Y-73959750D02*
X21396730Y-74009240D01*
X21396730Y-74009240D02*
X21406390Y-74058350D01*
X21406390Y-74058350D02*
X21418150Y-74107000D01*
X21418150Y-74107000D02*
X21432000Y-74155100D01*
X21432000Y-74155100D02*
X21447910Y-74202560D01*
X21447910Y-74202560D02*
X21465850Y-74249280D01*
X21465850Y-74249280D02*
X21485800Y-74295190D01*
X21485800Y-74295190D02*
X21507700Y-74340200D01*
X21507700Y-74340200D02*
X22540000Y-76350000D01*
%TO.N,F_D6*%
X31049000Y-72819100D02*
X30272600Y-73120100D01*
X31049000Y-72819100D02*
X31256600Y-73625500D01*
X60113900Y-48905100D02*
X60922700Y-48949000D01*
X60113900Y-48905100D02*
X60285700Y-48113600D01*
X30540000Y-73810000D02*
X31572300Y-71800200D01*
X31572300Y-71800200D02*
X31579640Y-71785650D01*
X31579640Y-71785650D02*
X31586780Y-71771010D01*
X31586780Y-71771010D02*
X31593710Y-71756260D01*
X31593710Y-71756260D02*
X31600440Y-71741420D01*
X31600400Y-71741400D02*
X32019600Y-70798600D01*
X32608600Y-70209600D02*
X32557280Y-70233930D01*
X32557280Y-70233930D02*
X32507220Y-70260750D01*
X32507220Y-70260750D02*
X32458530Y-70289980D01*
X32458530Y-70289980D02*
X32411320Y-70321560D01*
X32411320Y-70321560D02*
X32365720Y-70355410D01*
X32365720Y-70355410D02*
X32321830Y-70391450D01*
X32321830Y-70391450D02*
X32279760Y-70429600D01*
X32279760Y-70429600D02*
X32239600Y-70469760D01*
X32239600Y-70469760D02*
X32201450Y-70511830D01*
X32201450Y-70511830D02*
X32165410Y-70555720D01*
X32165410Y-70555720D02*
X32131560Y-70601320D01*
X32131560Y-70601320D02*
X32099980Y-70648530D01*
X32099980Y-70648530D02*
X32070750Y-70697220D01*
X32070750Y-70697220D02*
X32043930Y-70747280D01*
X32043930Y-70747280D02*
X32019600Y-70798600D01*
X32608600Y-70209600D02*
X33551400Y-69790400D01*
X33551400Y-69790400D02*
X33580600Y-69776930D01*
X33580600Y-69776930D02*
X33609410Y-69762660D01*
X33609410Y-69762660D02*
X33637820Y-69747600D01*
X33637820Y-69747600D02*
X33665790Y-69731750D01*
X33665790Y-69731750D02*
X33693320Y-69715140D01*
X33693320Y-69715140D02*
X33720380Y-69697770D01*
X33720400Y-69697800D02*
X42567200Y-63843900D01*
X42641200Y-63799000D02*
X42626130Y-63807520D01*
X42626130Y-63807520D02*
X42611190Y-63816270D01*
X42611190Y-63816270D02*
X42596380Y-63825260D01*
X42596380Y-63825260D02*
X42581720Y-63834470D01*
X42581720Y-63834470D02*
X42567210Y-63843910D01*
X42641200Y-63799000D02*
X43718800Y-63201000D01*
X43718800Y-63201000D02*
X43757960Y-63178220D01*
X43757960Y-63178220D02*
X43796150Y-63153850D01*
X43796150Y-63153850D02*
X43833320Y-63127950D01*
X43833320Y-63127950D02*
X43869400Y-63100560D01*
X43869400Y-63100560D02*
X43904340Y-63071720D01*
X43904340Y-63071720D02*
X43938060Y-63041470D01*
X43938060Y-63041470D02*
X43970530Y-63009880D01*
X43970530Y-63009880D02*
X44001680Y-62976980D01*
X44001700Y-62977000D02*
X49978300Y-56403000D01*
X50261200Y-56179000D02*
X50222040Y-56201780D01*
X50222040Y-56201780D02*
X50183850Y-56226150D01*
X50183850Y-56226150D02*
X50146680Y-56252050D01*
X50146680Y-56252050D02*
X50110600Y-56279440D01*
X50110600Y-56279440D02*
X50075660Y-56308280D01*
X50075660Y-56308280D02*
X50041940Y-56338530D01*
X50041940Y-56338530D02*
X50009470Y-56370120D01*
X50009470Y-56370120D02*
X49978320Y-56403020D01*
X50261200Y-56179000D02*
X51338800Y-55581000D01*
X51338800Y-55581000D02*
X51362080Y-55567710D01*
X51362080Y-55567710D02*
X51385030Y-55553870D01*
X51385030Y-55553870D02*
X51407640Y-55539480D01*
X51407640Y-55539480D02*
X51429890Y-55524540D01*
X51429890Y-55524540D02*
X51451780Y-55509070D01*
X51451780Y-55509070D02*
X51473290Y-55493080D01*
X51473300Y-55493100D02*
X60960000Y-48260000D01*
%TO.N,F_D1*%
X31049000Y-70279100D02*
X30272600Y-70580100D01*
X31049000Y-70279100D02*
X31256600Y-71085500D01*
X40303600Y-64196000D02*
X40718100Y-64190100D01*
X40303600Y-64196000D02*
X40569700Y-63878100D01*
X45865600Y-49580200D02*
X45467100Y-49694400D01*
X45865600Y-49580200D02*
X45691900Y-49956600D01*
X67533800Y-35753700D02*
X68235600Y-36158000D01*
X67533800Y-35753700D02*
X68044400Y-35125000D01*
X30540000Y-71270000D02*
X31572300Y-69260200D01*
X31572300Y-69260200D02*
X31579640Y-69245650D01*
X31579640Y-69245650D02*
X31586780Y-69231010D01*
X31586780Y-69231010D02*
X31593710Y-69216260D01*
X31593710Y-69216260D02*
X31600440Y-69201420D01*
X31600400Y-69201400D02*
X32019600Y-68258600D01*
X32611500Y-67668300D02*
X32559930Y-67692590D01*
X32559930Y-67692590D02*
X32509610Y-67719380D01*
X32509610Y-67719380D02*
X32460670Y-67748610D01*
X32460670Y-67748610D02*
X32413220Y-67780210D01*
X32413220Y-67780210D02*
X32367380Y-67814100D01*
X32367380Y-67814100D02*
X32323270Y-67850200D01*
X32323270Y-67850200D02*
X32280970Y-67888420D01*
X32280970Y-67888420D02*
X32240610Y-67928670D01*
X32240610Y-67928670D02*
X32202270Y-67970860D01*
X32202270Y-67970860D02*
X32166050Y-68014880D01*
X32166050Y-68014880D02*
X32132040Y-68060620D01*
X32132040Y-68060620D02*
X32100310Y-68107980D01*
X32100310Y-68107980D02*
X32070940Y-68156840D01*
X32070940Y-68156840D02*
X32044020Y-68207090D01*
X32044020Y-68207090D02*
X32019590Y-68258590D01*
X32611500Y-67668300D02*
X38046200Y-65269900D01*
X38046200Y-65269900D02*
X38050160Y-65268130D01*
X38050160Y-65268130D02*
X38054120Y-65266340D01*
X38054120Y-65266340D02*
X38058060Y-65264520D01*
X38058060Y-65264520D02*
X38061980Y-65262660D01*
X38062000Y-65262700D02*
X40715400Y-64000100D01*
X45519400Y-49877000D02*
X60237100Y-37257000D01*
X60757900Y-37008100D02*
X60705950Y-37019000D01*
X60705950Y-37019000D02*
X60654590Y-37032380D01*
X60654590Y-37032380D02*
X60603920Y-37048190D01*
X60603920Y-37048190D02*
X60554070Y-37066410D01*
X60554070Y-37066410D02*
X60505140Y-37086990D01*
X60505140Y-37086990D02*
X60457260Y-37109880D01*
X60457260Y-37109880D02*
X60410520Y-37135030D01*
X60410520Y-37135030D02*
X60365040Y-37162390D01*
X60365040Y-37162390D02*
X60320910Y-37191890D01*
X60320910Y-37191890D02*
X60278250Y-37223470D01*
X60278250Y-37223470D02*
X60237140Y-37257050D01*
X60757900Y-37008100D02*
X68580000Y-35560000D01*
%TO.N,F_D7*%
X67527400Y-48104900D02*
X68060700Y-48714400D01*
X67527400Y-48104900D02*
X68213900Y-47675200D01*
X31049000Y-67739100D02*
X30272600Y-68040100D01*
X31049000Y-67739100D02*
X31256600Y-68545500D01*
X68580000Y-48260000D02*
X61121800Y-47161400D01*
X61121800Y-47161400D02*
X61065810Y-47154600D01*
X61065810Y-47154600D02*
X61009550Y-47150660D01*
X61009550Y-47150660D02*
X60953160Y-47149570D01*
X60953160Y-47149570D02*
X60896790Y-47151350D01*
X60896790Y-47151350D02*
X60840580Y-47155990D01*
X60840580Y-47155990D02*
X60784680Y-47163480D01*
X60784680Y-47163480D02*
X60729240Y-47173790D01*
X60729240Y-47173790D02*
X60674380Y-47186910D01*
X60674380Y-47186910D02*
X60620270Y-47202790D01*
X60620270Y-47202790D02*
X60567030Y-47221410D01*
X60567030Y-47221410D02*
X60514800Y-47242700D01*
X60514800Y-47242700D02*
X60463730Y-47266610D01*
X60463730Y-47266610D02*
X60413930Y-47293090D01*
X60413930Y-47293090D02*
X60365540Y-47322070D01*
X60365500Y-47322000D02*
X51394500Y-53008000D01*
X51338800Y-53041000D02*
X51352900Y-53033040D01*
X51352900Y-53033040D02*
X51366880Y-53024880D01*
X51366880Y-53024880D02*
X51380730Y-53016520D01*
X51380730Y-53016520D02*
X51394470Y-53007950D01*
X51338800Y-53041000D02*
X50261200Y-53639000D01*
X50261200Y-53639000D02*
X50222040Y-53661780D01*
X50222040Y-53661780D02*
X50183850Y-53686150D01*
X50183850Y-53686150D02*
X50146680Y-53712050D01*
X50146680Y-53712050D02*
X50110600Y-53739440D01*
X50110600Y-53739440D02*
X50075660Y-53768280D01*
X50075660Y-53768280D02*
X50041940Y-53798530D01*
X50041940Y-53798530D02*
X50009470Y-53830120D01*
X50009470Y-53830120D02*
X49978320Y-53863020D01*
X49978300Y-53863000D02*
X44001700Y-60437000D01*
X43718800Y-60661000D02*
X43757960Y-60638220D01*
X43757960Y-60638220D02*
X43796150Y-60613850D01*
X43796150Y-60613850D02*
X43833320Y-60587950D01*
X43833320Y-60587950D02*
X43869400Y-60560560D01*
X43869400Y-60560560D02*
X43904340Y-60531720D01*
X43904340Y-60531720D02*
X43938060Y-60501470D01*
X43938060Y-60501470D02*
X43970530Y-60469880D01*
X43970530Y-60469880D02*
X44001680Y-60436980D01*
X43718800Y-60661000D02*
X42641200Y-61259000D01*
X42641200Y-61259000D02*
X42610020Y-61276970D01*
X42610020Y-61276970D02*
X42579450Y-61295930D01*
X42579450Y-61295930D02*
X42549500Y-61315880D01*
X42549500Y-61315880D02*
X42520220Y-61336790D01*
X42520220Y-61336790D02*
X42491620Y-61358630D01*
X42491620Y-61358630D02*
X42463750Y-61381390D01*
X42463750Y-61381390D02*
X42436640Y-61405040D01*
X42436600Y-61405000D02*
X39796000Y-63784400D01*
X39446200Y-63938600D02*
X39475890Y-63934990D01*
X39475890Y-63934990D02*
X39505360Y-63929920D01*
X39505360Y-63929920D02*
X39534560Y-63923420D01*
X39534560Y-63923420D02*
X39563400Y-63915500D01*
X39563400Y-63915500D02*
X39591810Y-63906180D01*
X39591810Y-63906180D02*
X39619740Y-63895470D01*
X39619740Y-63895470D02*
X39647110Y-63883410D01*
X39647110Y-63883410D02*
X39673850Y-63870030D01*
X39673850Y-63870030D02*
X39699910Y-63855350D01*
X39699910Y-63855350D02*
X39725220Y-63839410D01*
X39725220Y-63839410D02*
X39749710Y-63822250D01*
X39749710Y-63822250D02*
X39773340Y-63803910D01*
X39773340Y-63803910D02*
X39796040Y-63784440D01*
X39446200Y-63938600D02*
X37740800Y-64103700D01*
X37740800Y-64103700D02*
X37729200Y-64104940D01*
X37729200Y-64104940D02*
X37717630Y-64106390D01*
X37717630Y-64106390D02*
X37706080Y-64108070D01*
X37706080Y-64108070D02*
X37694570Y-64109970D01*
X37694570Y-64109970D02*
X37683100Y-64112090D01*
X37683100Y-64112100D02*
X32858400Y-65050900D01*
X32858400Y-65050900D02*
X32797970Y-65064340D01*
X32797970Y-65064340D02*
X32738340Y-65080980D01*
X32738340Y-65080980D02*
X32679690Y-65100780D01*
X32679690Y-65100780D02*
X32622170Y-65123670D01*
X32622170Y-65123670D02*
X32565960Y-65149610D01*
X32565960Y-65149610D02*
X32511210Y-65178500D01*
X32511210Y-65178500D02*
X32458080Y-65210270D01*
X32458080Y-65210270D02*
X32406720Y-65244830D01*
X32406720Y-65244830D02*
X32357270Y-65282080D01*
X32357270Y-65282080D02*
X32309880Y-65321910D01*
X32309880Y-65321910D02*
X32264690Y-65364220D01*
X32264690Y-65364220D02*
X32221810Y-65408870D01*
X32221810Y-65408870D02*
X32181380Y-65455740D01*
X32181380Y-65455740D02*
X32143500Y-65504710D01*
X32143500Y-65504710D02*
X32108290Y-65555630D01*
X32108290Y-65555630D02*
X32075840Y-65608350D01*
X32075840Y-65608350D02*
X32046250Y-65662720D01*
X32046250Y-65662720D02*
X32019600Y-65718600D01*
X32019600Y-65718600D02*
X31600400Y-66661400D01*
X31572300Y-66720200D02*
X31579640Y-66705650D01*
X31579640Y-66705650D02*
X31586780Y-66691010D01*
X31586780Y-66691010D02*
X31593710Y-66676260D01*
X31593710Y-66676260D02*
X31600440Y-66661420D01*
X31572300Y-66720200D02*
X30540000Y-68730000D01*
%TO.N,F_A9*%
X34143100Y-65857000D02*
X33383800Y-65515200D01*
X34143100Y-65857000D02*
X33714400Y-66571000D01*
X37364600Y-64847700D02*
X37775800Y-64899900D01*
X37364600Y-64847700D02*
X37672600Y-64570300D01*
X33080000Y-66190000D02*
X37799700Y-64711400D01*
%TO.N,F_D4*%
X60009300Y-46197900D02*
X60796100Y-46390300D01*
X60009300Y-46197900D02*
X60324300Y-45451700D01*
X31049000Y-65199100D02*
X30272600Y-65500100D01*
X31049000Y-65199100D02*
X31256600Y-66005500D01*
X23530900Y-66699000D02*
X23229900Y-65922600D01*
X23530900Y-66699000D02*
X22724500Y-66906600D01*
X29451500Y-66426800D02*
X30177300Y-66835000D01*
X29451500Y-66426800D02*
X29942100Y-65754000D01*
X60960000Y-45720000D02*
X50301300Y-51077800D01*
X50301300Y-51077800D02*
X50261240Y-51098970D01*
X50261240Y-51098970D02*
X50222080Y-51121760D01*
X50222080Y-51121760D02*
X50183880Y-51146120D01*
X50183880Y-51146120D02*
X50146700Y-51172020D01*
X50146700Y-51172020D02*
X50110610Y-51199420D01*
X50110610Y-51199420D02*
X50075670Y-51228270D01*
X50075670Y-51228270D02*
X50041940Y-51258510D01*
X50041940Y-51258510D02*
X50009470Y-51290110D01*
X50009470Y-51290110D02*
X49978310Y-51323010D01*
X49978300Y-51323000D02*
X44001700Y-57897000D01*
X43593600Y-58180600D02*
X43639680Y-58160890D01*
X43639680Y-58160890D02*
X43684820Y-58139120D01*
X43684820Y-58139120D02*
X43728930Y-58115340D01*
X43728930Y-58115340D02*
X43771930Y-58089590D01*
X43771930Y-58089590D02*
X43813720Y-58061920D01*
X43813720Y-58061920D02*
X43854220Y-58032400D01*
X43854220Y-58032400D02*
X43893340Y-58001080D01*
X43893340Y-58001080D02*
X43931020Y-57968030D01*
X43931020Y-57968030D02*
X43967160Y-57933310D01*
X43967160Y-57933310D02*
X44001700Y-57897000D01*
X43593600Y-58180600D02*
X32647800Y-62573000D01*
X32647800Y-62573000D02*
X32593050Y-62596620D01*
X32593050Y-62596620D02*
X32539580Y-62623030D01*
X32539580Y-62623030D02*
X32487540Y-62652140D01*
X32487540Y-62652140D02*
X32437060Y-62683890D01*
X32437060Y-62683890D02*
X32388290Y-62718200D01*
X32388290Y-62718200D02*
X32341340Y-62754960D01*
X32341340Y-62754960D02*
X32296330Y-62794080D01*
X32296330Y-62794080D02*
X32253400Y-62835470D01*
X32253400Y-62835470D02*
X32212650Y-62879000D01*
X32212650Y-62879000D02*
X32174190Y-62924580D01*
X32174190Y-62924580D02*
X32138130Y-62972060D01*
X32138130Y-62972060D02*
X32104540Y-63021340D01*
X32104540Y-63021340D02*
X32073540Y-63072280D01*
X32073540Y-63072280D02*
X32045190Y-63124740D01*
X32045190Y-63124740D02*
X32019580Y-63178590D01*
X32019600Y-63178600D02*
X31600400Y-64121400D01*
X31572300Y-64180200D02*
X31579640Y-64165650D01*
X31579640Y-64165650D02*
X31586780Y-64151010D01*
X31586780Y-64151010D02*
X31593710Y-64136260D01*
X31593710Y-64136260D02*
X31600440Y-64121420D01*
X31572300Y-64180200D02*
X30540000Y-66190000D01*
X22540000Y-66190000D02*
X24549800Y-67222300D01*
X24549800Y-67222300D02*
X24601200Y-67247120D01*
X24601200Y-67247120D02*
X24653760Y-67269390D01*
X24653760Y-67269390D02*
X24707350Y-67289040D01*
X24707350Y-67289040D02*
X24761850Y-67306030D01*
X24761850Y-67306030D02*
X24817110Y-67320330D01*
X24817110Y-67320330D02*
X24873010Y-67331890D01*
X24873010Y-67331890D02*
X24929410Y-67340690D01*
X24929410Y-67340690D02*
X24986170Y-67346700D01*
X24986170Y-67346700D02*
X25043160Y-67349910D01*
X25043160Y-67349910D02*
X25100240Y-67350320D01*
X25100240Y-67350320D02*
X25157270Y-67347920D01*
X25157270Y-67347920D02*
X25214120Y-67342720D01*
X25214120Y-67342720D02*
X25270640Y-67334730D01*
X25270640Y-67334730D02*
X25326690Y-67323970D01*
X25326700Y-67324000D02*
X30540000Y-66190000D01*
%TO.N,F_A8*%
X34193700Y-58543600D02*
X33558300Y-58005400D01*
X34193700Y-58543600D02*
X33584500Y-59111400D01*
X36975200Y-58477600D02*
X37356100Y-58641400D01*
X36975200Y-58477600D02*
X37347900Y-58296000D01*
X33080000Y-58570000D02*
X37431100Y-58466800D01*
%TO.N,F_A11*%
X35825300Y-56895600D02*
X36132800Y-57173600D01*
X35825300Y-56895600D02*
X36236600Y-56844200D01*
X34142400Y-56365000D02*
X33715100Y-55650300D01*
X34142400Y-56365000D02*
X33382500Y-56705300D01*
X32089100Y-55521000D02*
X32390100Y-56297400D01*
X32089100Y-55521000D02*
X32895500Y-55313400D01*
X26168500Y-55793200D02*
X25442700Y-55385000D01*
X26168500Y-55793200D02*
X25677900Y-56466000D01*
X36260200Y-57032700D02*
X33080000Y-56030000D01*
X33080000Y-56030000D02*
X31070200Y-54997700D01*
X31070200Y-54997700D02*
X31018800Y-54972880D01*
X31018800Y-54972880D02*
X30966240Y-54950610D01*
X30966240Y-54950610D02*
X30912650Y-54930960D01*
X30912650Y-54930960D02*
X30858150Y-54913970D01*
X30858150Y-54913970D02*
X30802890Y-54899670D01*
X30802890Y-54899670D02*
X30746990Y-54888110D01*
X30746990Y-54888110D02*
X30690590Y-54879310D01*
X30690590Y-54879310D02*
X30633830Y-54873300D01*
X30633830Y-54873300D02*
X30576840Y-54870090D01*
X30576840Y-54870090D02*
X30519760Y-54869680D01*
X30519760Y-54869680D02*
X30462730Y-54872080D01*
X30462730Y-54872080D02*
X30405880Y-54877280D01*
X30405880Y-54877280D02*
X30349360Y-54885270D01*
X30349360Y-54885270D02*
X30293310Y-54896030D01*
X30293300Y-54896000D02*
X25080000Y-56030000D01*
%TO.N,~F_IN~*%
X37385700Y-76173200D02*
X36974500Y-76225900D01*
X37385700Y-76173200D02*
X37157300Y-76519100D01*
X36998700Y-76414400D02*
X42321800Y-73096600D01*
X42380000Y-73080000D02*
X42374890Y-73080120D01*
X42374890Y-73080120D02*
X42369800Y-73080470D01*
X42369800Y-73080470D02*
X42364730Y-73081070D01*
X42364730Y-73081070D02*
X42359680Y-73081890D01*
X42359680Y-73081890D02*
X42354690Y-73082950D01*
X42354690Y-73082950D02*
X42349750Y-73084240D01*
X42349750Y-73084240D02*
X42344870Y-73085760D01*
X42344870Y-73085760D02*
X42340070Y-73087500D01*
X42340070Y-73087500D02*
X42335350Y-73089470D01*
X42335350Y-73089470D02*
X42330730Y-73091650D01*
X42330730Y-73091650D02*
X42326220Y-73094040D01*
X42326220Y-73094040D02*
X42321830Y-73096640D01*
X42380000Y-73080000D02*
X42490000Y-73080000D01*
X42490000Y-73080000D02*
X43180000Y-72390000D01*
%TO.N,~F_READ~*%
X34192600Y-63593700D02*
X33542900Y-63072800D01*
X34192600Y-63593700D02*
X33598900Y-64177600D01*
X38931900Y-63353900D02*
X39316900Y-63507400D01*
X38931900Y-63353900D02*
X39299500Y-63162400D01*
X33080000Y-63650000D02*
X39387300Y-63330900D01*
%TO.N,~F_WRITE~*%
X37851100Y-79130800D02*
X37488500Y-78929800D01*
X37851100Y-79130800D02*
X37462100Y-79274200D01*
X49752200Y-77655000D02*
X50450700Y-78065000D01*
X49752200Y-77655000D02*
X50268100Y-77030600D01*
X37396400Y-79095900D02*
X40242700Y-79314500D01*
X40242700Y-79314500D02*
X40264590Y-79315790D01*
X40264590Y-79315790D02*
X40286510Y-79316290D01*
X40286510Y-79316290D02*
X40308430Y-79316000D01*
X40308430Y-79316000D02*
X40330330Y-79314930D01*
X40330330Y-79314930D02*
X40352180Y-79313070D01*
X40352180Y-79313070D02*
X40373940Y-79310430D01*
X40373940Y-79310430D02*
X40395600Y-79307010D01*
X40395600Y-79307000D02*
X50800000Y-77470000D01*
%TO.N,~F_OUT~*%
X37827700Y-80541700D02*
X37435600Y-80407100D01*
X37827700Y-80541700D02*
X37469800Y-80750900D01*
X42121200Y-80115200D02*
X42786600Y-80576900D01*
X42121200Y-80115200D02*
X42682800Y-79531500D01*
X37373900Y-80586800D02*
X43180000Y-80010000D01*
%TO.N,Net-(D5-Pad1)*%
X105706400Y-60668700D02*
X106516100Y-60649800D01*
X105706400Y-60668700D02*
X105816500Y-59866200D01*
X98000000Y-67500000D02*
X98790000Y-66710000D01*
X98790000Y-66710000D02*
X98900000Y-66710000D01*
X98900000Y-66710000D02*
X98905730Y-66709850D01*
X98905730Y-66709850D02*
X98911440Y-66709400D01*
X98911440Y-66709400D02*
X98917120Y-66708660D01*
X98917120Y-66708660D02*
X98922760Y-66707620D01*
X98922760Y-66707620D02*
X98928330Y-66706290D01*
X98928330Y-66706290D02*
X98933830Y-66704670D01*
X98933830Y-66704670D02*
X98939240Y-66702760D01*
X98939240Y-66702760D02*
X98944530Y-66700580D01*
X98944530Y-66700580D02*
X98949710Y-66698130D01*
X98949710Y-66698130D02*
X98954750Y-66695400D01*
X98954750Y-66695400D02*
X98959650Y-66692420D01*
X98959650Y-66692420D02*
X98964380Y-66689190D01*
X98964380Y-66689190D02*
X98968940Y-66685720D01*
X98968940Y-66685720D02*
X98973310Y-66682010D01*
X98973300Y-66682000D02*
X106500000Y-59960000D01*
%TO.N,Net-(D10-Pad1)*%
X78938900Y-46759400D02*
X78147800Y-46586000D01*
X78938900Y-46759400D02*
X78642000Y-47513000D01*
X86000000Y-42500000D02*
X85210000Y-43290000D01*
X85210000Y-43290000D02*
X85100000Y-43290000D01*
X85100000Y-43290000D02*
X85094540Y-43290140D01*
X85094540Y-43290140D02*
X85089100Y-43290540D01*
X85089100Y-43290540D02*
X85083690Y-43291220D01*
X85083690Y-43291220D02*
X85078310Y-43292160D01*
X85078310Y-43292160D02*
X85072990Y-43293370D01*
X85072990Y-43293370D02*
X85067740Y-43294840D01*
X85067740Y-43294840D02*
X85062560Y-43296570D01*
X85062560Y-43296570D02*
X85057480Y-43298550D01*
X85057480Y-43298550D02*
X85052500Y-43300790D01*
X85052500Y-43300790D02*
X85047630Y-43303260D01*
X85047630Y-43303260D02*
X85042900Y-43305980D01*
X85042900Y-43305980D02*
X85038310Y-43308930D01*
X85038310Y-43308930D02*
X85033870Y-43312100D01*
X85033870Y-43312100D02*
X85029590Y-43315490D01*
X85029600Y-43315500D02*
X84503600Y-43753400D01*
X84227400Y-43939200D02*
X84269100Y-43916180D01*
X84269100Y-43916180D02*
X84310110Y-43891940D01*
X84310110Y-43891940D02*
X84350400Y-43866520D01*
X84350400Y-43866520D02*
X84389930Y-43839940D01*
X84389930Y-43839940D02*
X84428660Y-43812210D01*
X84428660Y-43812210D02*
X84466570Y-43783360D01*
X84466570Y-43783360D02*
X84503620Y-43753420D01*
X84227400Y-43939200D02*
X78000000Y-47260000D01*
%TO.N,Net-(D6-Pad2)*%
X69387500Y-43872900D02*
X69261600Y-43072800D01*
X69387500Y-43872900D02*
X68577600Y-43870000D01*
X94521800Y-56811100D02*
X94684400Y-57650300D01*
X94521800Y-56811100D02*
X95371200Y-56715100D01*
X68580000Y-43180000D02*
X77276800Y-50642800D01*
X77276800Y-50642800D02*
X77320880Y-50678710D01*
X77320880Y-50678710D02*
X77366740Y-50712310D01*
X77366740Y-50712310D02*
X77414270Y-50743530D01*
X77414270Y-50743530D02*
X77463320Y-50772270D01*
X77463320Y-50772270D02*
X77513790Y-50798460D01*
X77513790Y-50798460D02*
X77565520Y-50822040D01*
X77565520Y-50822040D02*
X77618400Y-50842930D01*
X77618400Y-50842930D02*
X77672280Y-50861100D01*
X77672280Y-50861100D02*
X77727010Y-50876480D01*
X77727010Y-50876480D02*
X77782470Y-50889040D01*
X77782470Y-50889040D02*
X77838490Y-50898750D01*
X77838490Y-50898750D02*
X77894930Y-50905570D01*
X77894930Y-50905570D02*
X77951650Y-50909500D01*
X77951650Y-50909500D02*
X78008500Y-50910520D01*
X78008500Y-50910500D02*
X83447600Y-50869000D01*
X83662700Y-50881600D02*
X83619840Y-50876810D01*
X83619840Y-50876810D02*
X83576870Y-50873150D01*
X83576870Y-50873150D02*
X83533820Y-50870630D01*
X83533820Y-50870630D02*
X83490720Y-50869240D01*
X83490720Y-50869240D02*
X83447600Y-50869000D01*
X83662700Y-50881600D02*
X86938600Y-51291900D01*
X87083800Y-51349700D02*
X87072030Y-51341470D01*
X87072030Y-51341470D02*
X87059890Y-51333790D01*
X87059890Y-51333790D02*
X87047420Y-51326680D01*
X87047420Y-51326680D02*
X87034620Y-51320160D01*
X87034620Y-51320160D02*
X87021540Y-51314240D01*
X87021540Y-51314240D02*
X87008200Y-51308920D01*
X87008200Y-51308920D02*
X86994620Y-51304230D01*
X86994620Y-51304230D02*
X86980850Y-51300170D01*
X86980850Y-51300170D02*
X86966900Y-51296760D01*
X86966900Y-51296760D02*
X86952810Y-51293990D01*
X86952810Y-51293990D02*
X86938600Y-51291870D01*
X87083800Y-51349700D02*
X95460000Y-57500000D01*
%TO.N,Net-(R1-Pad2)*%
X35907000Y-80843000D02*
X35649500Y-81167900D01*
X35907000Y-80843000D02*
X35985100Y-81250100D01*
X42235800Y-75420500D02*
X43025000Y-75602400D01*
X42235800Y-75420500D02*
X42540800Y-74670200D01*
X35798500Y-81285900D02*
X36395000Y-78850600D01*
X36921200Y-78181000D02*
X36873200Y-78207570D01*
X36873200Y-78207570D02*
X36826690Y-78236660D01*
X36826690Y-78236660D02*
X36781790Y-78268180D01*
X36781790Y-78268180D02*
X36738630Y-78302050D01*
X36738630Y-78302050D02*
X36697330Y-78338170D01*
X36697330Y-78338170D02*
X36658010Y-78376420D01*
X36658010Y-78376420D02*
X36620790Y-78416720D01*
X36620790Y-78416720D02*
X36585760Y-78458940D01*
X36585760Y-78458940D02*
X36553020Y-78502970D01*
X36553020Y-78502970D02*
X36522670Y-78548670D01*
X36522670Y-78548670D02*
X36494800Y-78595920D01*
X36494800Y-78595920D02*
X36469480Y-78644590D01*
X36469480Y-78644590D02*
X36446790Y-78694540D01*
X36446790Y-78694540D02*
X36426780Y-78745620D01*
X36426780Y-78745620D02*
X36409520Y-78797690D01*
X36409520Y-78797690D02*
X36395060Y-78850610D01*
X36921200Y-78181000D02*
X43180000Y-74930000D01*
%TO.N,Net-(R3-Pad2)*%
X110350400Y-95157100D02*
X111179300Y-95236700D01*
X110350400Y-95157100D02*
X110526700Y-94343300D01*
X51740100Y-83048300D02*
X51441400Y-82295500D01*
X51740100Y-83048300D02*
X50949400Y-83223700D01*
X111250000Y-94500000D02*
X109743200Y-95600700D01*
X109560000Y-95660500D02*
X109575070Y-95660130D01*
X109575070Y-95660130D02*
X109590100Y-95659040D01*
X109590100Y-95659040D02*
X109605060Y-95657210D01*
X109605060Y-95657210D02*
X109619910Y-95654660D01*
X109619910Y-95654660D02*
X109634630Y-95651400D01*
X109634630Y-95651400D02*
X109649160Y-95647420D01*
X109649160Y-95647420D02*
X109663490Y-95642750D01*
X109663490Y-95642750D02*
X109677570Y-95637380D01*
X109677570Y-95637380D02*
X109691380Y-95631330D01*
X109691380Y-95631330D02*
X109704880Y-95624630D01*
X109704880Y-95624630D02*
X109718030Y-95617270D01*
X109718030Y-95617270D02*
X109730820Y-95609290D01*
X109730820Y-95609290D02*
X109743200Y-95600700D01*
X109560000Y-95660500D02*
X107860000Y-95660500D01*
X107623200Y-95550900D02*
X107633750Y-95562710D01*
X107633750Y-95562710D02*
X107644890Y-95573970D01*
X107644890Y-95573970D02*
X107656590Y-95584650D01*
X107656590Y-95584650D02*
X107668820Y-95594720D01*
X107668820Y-95594720D02*
X107681550Y-95604150D01*
X107681550Y-95604150D02*
X107694740Y-95612920D01*
X107694740Y-95612920D02*
X107708360Y-95621000D01*
X107708360Y-95621000D02*
X107722380Y-95628380D01*
X107722380Y-95628380D02*
X107736750Y-95635040D01*
X107736750Y-95635040D02*
X107751450Y-95640950D01*
X107751450Y-95640950D02*
X107766430Y-95646110D01*
X107766430Y-95646110D02*
X107781650Y-95650490D01*
X107781650Y-95650490D02*
X107797070Y-95654100D01*
X107797070Y-95654100D02*
X107812660Y-95656910D01*
X107812660Y-95656910D02*
X107828370Y-95658930D01*
X107828370Y-95658930D02*
X107844170Y-95660140D01*
X107844170Y-95660140D02*
X107860000Y-95660540D01*
X107623200Y-95550900D02*
X87136800Y-71399100D01*
X87136800Y-71399100D02*
X87126570Y-71387630D01*
X87126570Y-71387630D02*
X87115780Y-71376680D01*
X87115780Y-71376680D02*
X87104470Y-71366270D01*
X87104470Y-71366270D02*
X87092650Y-71356440D01*
X87092650Y-71356440D02*
X87080360Y-71347200D01*
X87080360Y-71347200D02*
X87067630Y-71338590D01*
X87067630Y-71338590D02*
X87054490Y-71330610D01*
X87054490Y-71330610D02*
X87040970Y-71323300D01*
X87040970Y-71323300D02*
X87027100Y-71316660D01*
X87027100Y-71316660D02*
X87012920Y-71310720D01*
X87012920Y-71310720D02*
X86998470Y-71305490D01*
X86998470Y-71305490D02*
X86983770Y-71300970D01*
X86983770Y-71300970D02*
X86968870Y-71297190D01*
X86968870Y-71297190D02*
X86953800Y-71294160D01*
X86953800Y-71294160D02*
X86938600Y-71291870D01*
X86938600Y-71291900D02*
X83662700Y-70881600D01*
X83662700Y-70881600D02*
X83572180Y-70872820D01*
X83572180Y-70872820D02*
X83481320Y-70869090D01*
X83481320Y-70869090D02*
X83390390Y-70870440D01*
X83390390Y-70870440D02*
X83299680Y-70876850D01*
X83299680Y-70876850D02*
X83209460Y-70888310D01*
X83209460Y-70888310D02*
X83120030Y-70904780D01*
X83120030Y-70904780D02*
X83031650Y-70926210D01*
X83031650Y-70926210D02*
X82944600Y-70952530D01*
X82944600Y-70952530D02*
X82859150Y-70983660D01*
X82859150Y-70983660D02*
X82775570Y-71019500D01*
X82775570Y-71019500D02*
X82694120Y-71059950D01*
X82694120Y-71059950D02*
X82615050Y-71104880D01*
X82615050Y-71104880D02*
X82538610Y-71154140D01*
X82538610Y-71154140D02*
X82465030Y-71207580D01*
X82465030Y-71207580D02*
X82394550Y-71265040D01*
X82394550Y-71265040D02*
X82327370Y-71326350D01*
X82327370Y-71326350D02*
X82263720Y-71391300D01*
X82263720Y-71391300D02*
X82203790Y-71459690D01*
X82203790Y-71459690D02*
X82147760Y-71531320D01*
X82147760Y-71531320D02*
X82095810Y-71605960D01*
X82095810Y-71605960D02*
X82048100Y-71683390D01*
X82048100Y-71683390D02*
X82004790Y-71763350D01*
X82004790Y-71763350D02*
X81965990Y-71845600D01*
X81966000Y-71845600D02*
X79084400Y-78424600D01*
X78892900Y-78596300D02*
X78908580Y-78590920D01*
X78908580Y-78590920D02*
X78923940Y-78584710D01*
X78923940Y-78584710D02*
X78938960Y-78577700D01*
X78938960Y-78577700D02*
X78953570Y-78569890D01*
X78953570Y-78569890D02*
X78967750Y-78561310D01*
X78967750Y-78561310D02*
X78981460Y-78551990D01*
X78981460Y-78551990D02*
X78994640Y-78541950D01*
X78994640Y-78541950D02*
X79007270Y-78531220D01*
X79007270Y-78531220D02*
X79019310Y-78519830D01*
X79019310Y-78519830D02*
X79030730Y-78507820D01*
X79030730Y-78507820D02*
X79041490Y-78495210D01*
X79041490Y-78495210D02*
X79051560Y-78482050D01*
X79051560Y-78482050D02*
X79060920Y-78468370D01*
X79060920Y-78468370D02*
X79069530Y-78454210D01*
X79069530Y-78454210D02*
X79077370Y-78439610D01*
X79077370Y-78439610D02*
X79084420Y-78424610D01*
X78892900Y-78596300D02*
X77667800Y-78980400D01*
X77667800Y-78980400D02*
X77634480Y-78991430D01*
X77634480Y-78991430D02*
X77601530Y-79003500D01*
X77601530Y-79003500D02*
X77568970Y-79016610D01*
X77568970Y-79016610D02*
X77536840Y-79030750D01*
X77536840Y-79030750D02*
X77505180Y-79045890D01*
X77505180Y-79045890D02*
X77474010Y-79062020D01*
X77474000Y-79062000D02*
X61907100Y-87433500D01*
X61760000Y-87470500D02*
X61773920Y-87470190D01*
X61773920Y-87470190D02*
X61787820Y-87469250D01*
X61787820Y-87469250D02*
X61801660Y-87467690D01*
X61801660Y-87467690D02*
X61815420Y-87465510D01*
X61815420Y-87465510D02*
X61829060Y-87462720D01*
X61829060Y-87462720D02*
X61842570Y-87459320D01*
X61842570Y-87459320D02*
X61855910Y-87455320D01*
X61855910Y-87455320D02*
X61869060Y-87450720D01*
X61869060Y-87450720D02*
X61881980Y-87445540D01*
X61881980Y-87445540D02*
X61894670Y-87439780D01*
X61894670Y-87439780D02*
X61907080Y-87433460D01*
X61760000Y-87470500D02*
X60160000Y-87470500D01*
X60014600Y-87434300D02*
X60026890Y-87440470D01*
X60026890Y-87440470D02*
X60039450Y-87446090D01*
X60039450Y-87446090D02*
X60052240Y-87451150D01*
X60052240Y-87451150D02*
X60065240Y-87455640D01*
X60065240Y-87455640D02*
X60078430Y-87459550D01*
X60078430Y-87459550D02*
X60091780Y-87462870D01*
X60091780Y-87462870D02*
X60105260Y-87465590D01*
X60105260Y-87465590D02*
X60118850Y-87467710D01*
X60118850Y-87467710D02*
X60132520Y-87469240D01*
X60132520Y-87469240D02*
X60146250Y-87470150D01*
X60146250Y-87470150D02*
X60160000Y-87470450D01*
X60014600Y-87434300D02*
X50800000Y-82550000D01*
%TO.N,Net-(D1-Pad2)*%
X62012600Y-32864900D02*
X61326100Y-32435200D01*
X62012600Y-32864900D02*
X61479300Y-33474400D01*
X94307500Y-32336600D02*
X94847700Y-32999200D01*
X94307500Y-32336600D02*
X95010500Y-31850200D01*
X60960000Y-33020000D02*
X68418200Y-31921400D01*
X68533800Y-31910500D02*
X68510600Y-31911710D01*
X68510600Y-31911710D02*
X68487430Y-31913400D01*
X68487430Y-31913400D02*
X68464300Y-31915580D01*
X68464300Y-31915580D02*
X68441220Y-31918240D01*
X68441220Y-31918240D02*
X68418200Y-31921390D01*
X68533800Y-31910500D02*
X83409600Y-31290500D01*
X83460000Y-31289500D02*
X83447400Y-31289570D01*
X83447400Y-31289570D02*
X83434800Y-31289760D01*
X83434800Y-31289760D02*
X83422200Y-31290090D01*
X83422200Y-31290090D02*
X83409600Y-31290550D01*
X83460000Y-31289500D02*
X86900000Y-31289500D01*
X86943600Y-31292600D02*
X86936370Y-31291660D01*
X86936370Y-31291660D02*
X86929120Y-31290890D01*
X86929120Y-31290890D02*
X86921850Y-31290290D01*
X86921850Y-31290290D02*
X86914580Y-31289870D01*
X86914580Y-31289870D02*
X86907290Y-31289610D01*
X86907290Y-31289610D02*
X86900000Y-31289520D01*
X86943600Y-31292600D02*
X95460000Y-32500000D01*
%TO.N,Net-(D2-Pad2)*%
X62006200Y-40446300D02*
X61304400Y-40042000D01*
X62006200Y-40446300D02*
X61495600Y-41075000D01*
X94521800Y-41811100D02*
X94684400Y-42650300D01*
X94521800Y-41811100D02*
X95371200Y-41715100D01*
X60960000Y-40640000D02*
X68782100Y-39191900D01*
X68782100Y-39191900D02*
X68785850Y-39191200D01*
X68785850Y-39191200D02*
X68789600Y-39190490D01*
X68789600Y-39190490D02*
X68793340Y-39189760D01*
X68793340Y-39189760D02*
X68797080Y-39189020D01*
X68797100Y-39189100D02*
X83223300Y-36312900D01*
X83460000Y-36289500D02*
X83420300Y-36290150D01*
X83420300Y-36290150D02*
X83380640Y-36292100D01*
X83380640Y-36292100D02*
X83341070Y-36295360D01*
X83341070Y-36295360D02*
X83301630Y-36299900D01*
X83301630Y-36299900D02*
X83262350Y-36305740D01*
X83262350Y-36305740D02*
X83223290Y-36312870D01*
X83460000Y-36289500D02*
X86900000Y-36289500D01*
X87083800Y-36349700D02*
X87071390Y-36341050D01*
X87071390Y-36341050D02*
X87058580Y-36333010D01*
X87058580Y-36333010D02*
X87045380Y-36325600D01*
X87045380Y-36325600D02*
X87031850Y-36318840D01*
X87031850Y-36318840D02*
X87018000Y-36312760D01*
X87018000Y-36312760D02*
X87003870Y-36307350D01*
X87003870Y-36307350D02*
X86989490Y-36302640D01*
X86989490Y-36302640D02*
X86974900Y-36298630D01*
X86974900Y-36298630D02*
X86960140Y-36295340D01*
X86960140Y-36295340D02*
X86945230Y-36292780D01*
X86945230Y-36292780D02*
X86930210Y-36290940D01*
X86930210Y-36290940D02*
X86915120Y-36289830D01*
X86915120Y-36289830D02*
X86900000Y-36289460D01*
X87083800Y-36349700D02*
X95460000Y-42500000D01*
%TO.N,Net-(D3-Pad2)*%
X62012600Y-43024900D02*
X61326100Y-42595200D01*
X62012600Y-43024900D02*
X61479300Y-43634400D01*
X94521800Y-51811100D02*
X94684400Y-52650300D01*
X94521800Y-51811100D02*
X95371200Y-51715100D01*
X60960000Y-43180000D02*
X68418200Y-42081400D01*
X69231400Y-42280600D02*
X69184200Y-42248240D01*
X69184200Y-42248240D02*
X69135400Y-42218350D01*
X69135400Y-42218350D02*
X69085130Y-42191020D01*
X69085130Y-42191020D02*
X69033510Y-42166310D01*
X69033510Y-42166310D02*
X68980690Y-42144290D01*
X68980690Y-42144290D02*
X68926800Y-42125030D01*
X68926800Y-42125030D02*
X68872000Y-42108560D01*
X68872000Y-42108560D02*
X68816420Y-42094940D01*
X68816420Y-42094940D02*
X68760210Y-42084200D01*
X68760210Y-42084200D02*
X68703520Y-42076380D01*
X68703520Y-42076380D02*
X68646500Y-42071480D01*
X68646500Y-42071480D02*
X68589310Y-42069520D01*
X68589310Y-42069520D02*
X68532090Y-42070520D01*
X68532090Y-42070520D02*
X68475000Y-42074460D01*
X68475000Y-42074460D02*
X68418190Y-42081340D01*
X69231400Y-42280600D02*
X77348600Y-48159400D01*
X77348600Y-48159400D02*
X77397870Y-48193110D01*
X77397870Y-48193110D02*
X77448890Y-48224110D01*
X77448890Y-48224110D02*
X77501490Y-48252340D01*
X77501490Y-48252340D02*
X77555540Y-48277690D01*
X77555540Y-48277690D02*
X77610870Y-48300110D01*
X77610870Y-48300110D02*
X77667320Y-48319510D01*
X77667320Y-48319510D02*
X77724740Y-48335860D01*
X77724740Y-48335860D02*
X77782950Y-48349100D01*
X77782950Y-48349100D02*
X77841790Y-48359190D01*
X77841790Y-48359190D02*
X77901090Y-48366100D01*
X77901090Y-48366100D02*
X77960670Y-48369820D01*
X77960670Y-48369820D02*
X78020370Y-48370330D01*
X78020370Y-48370330D02*
X78080000Y-48367630D01*
X78080000Y-48367630D02*
X78139410Y-48361730D01*
X78139410Y-48361730D02*
X78198410Y-48352650D01*
X78198410Y-48352650D02*
X78256840Y-48340400D01*
X78256840Y-48340400D02*
X78314530Y-48325040D01*
X78314530Y-48325040D02*
X78371310Y-48306600D01*
X78371310Y-48306600D02*
X78427010Y-48285130D01*
X78427000Y-48285100D02*
X82994500Y-46382600D01*
X83460000Y-46289500D02*
X83406930Y-46290660D01*
X83406930Y-46290660D02*
X83353950Y-46294150D01*
X83353950Y-46294150D02*
X83301190Y-46299960D01*
X83301190Y-46299960D02*
X83248720Y-46308080D01*
X83248720Y-46308080D02*
X83196670Y-46318490D01*
X83196670Y-46318490D02*
X83145120Y-46331170D01*
X83145120Y-46331170D02*
X83094170Y-46346100D01*
X83094170Y-46346100D02*
X83043930Y-46363250D01*
X83043930Y-46363250D02*
X82994490Y-46382590D01*
X83460000Y-46289500D02*
X86900000Y-46289500D01*
X87083800Y-46349700D02*
X87071390Y-46341050D01*
X87071390Y-46341050D02*
X87058580Y-46333010D01*
X87058580Y-46333010D02*
X87045380Y-46325600D01*
X87045380Y-46325600D02*
X87031850Y-46318840D01*
X87031850Y-46318840D02*
X87018000Y-46312760D01*
X87018000Y-46312760D02*
X87003870Y-46307350D01*
X87003870Y-46307350D02*
X86989490Y-46302640D01*
X86989490Y-46302640D02*
X86974900Y-46298630D01*
X86974900Y-46298630D02*
X86960140Y-46295340D01*
X86960140Y-46295340D02*
X86945230Y-46292780D01*
X86945230Y-46292780D02*
X86930210Y-46290940D01*
X86930210Y-46290940D02*
X86915120Y-46289830D01*
X86915120Y-46289830D02*
X86900000Y-46289460D01*
X87083800Y-46349700D02*
X95460000Y-52500000D01*
%TO.N,Net-(D4-Pad2)*%
X62006200Y-50993700D02*
X61495600Y-50365000D01*
X62006200Y-50993700D02*
X61304400Y-51398000D01*
X94348500Y-62154300D02*
X94775700Y-62894800D01*
X94348500Y-62154300D02*
X95120300Y-61786800D01*
X60960000Y-50800000D02*
X68782100Y-52248100D01*
X69021400Y-52321000D02*
X68988310Y-52307300D01*
X68988310Y-52307300D02*
X68954800Y-52294670D01*
X68954800Y-52294670D02*
X68920900Y-52283130D01*
X68920900Y-52283130D02*
X68886650Y-52272680D01*
X68886650Y-52272680D02*
X68852070Y-52263350D01*
X68852070Y-52263350D02*
X68817210Y-52255140D01*
X68817210Y-52255140D02*
X68782110Y-52248050D01*
X69021400Y-52321000D02*
X78441400Y-56401000D01*
X78486700Y-56421800D02*
X78475470Y-56416400D01*
X78475470Y-56416400D02*
X78464170Y-56411130D01*
X78464170Y-56411130D02*
X78452820Y-56405980D01*
X78452820Y-56405980D02*
X78441420Y-56400960D01*
X78486700Y-56421800D02*
X82929500Y-58588100D01*
X82929500Y-58588100D02*
X82957250Y-58601200D01*
X82957250Y-58601200D02*
X82985330Y-58613590D01*
X82985330Y-58613590D02*
X83013710Y-58625260D01*
X83013710Y-58625260D02*
X83042370Y-58636210D01*
X83042370Y-58636210D02*
X83071310Y-58646430D01*
X83071310Y-58646430D02*
X83100490Y-58655920D01*
X83100500Y-58655900D02*
X95460000Y-62500000D01*
%TO.N,Net-(D5-Pad2)*%
X69599400Y-51104700D02*
X69159100Y-50424900D01*
X69599400Y-51104700D02*
X68858300Y-51431300D01*
X95741800Y-66370600D02*
X95026900Y-66839300D01*
X95741800Y-66370600D02*
X96152700Y-67120300D01*
X68580000Y-50800000D02*
X86988900Y-56302500D01*
X87053400Y-56330000D02*
X87044590Y-56325180D01*
X87044590Y-56325180D02*
X87035630Y-56320650D01*
X87035630Y-56320650D02*
X87026530Y-56316410D01*
X87026530Y-56316410D02*
X87017300Y-56312470D01*
X87017300Y-56312470D02*
X87007950Y-56308830D01*
X87007950Y-56308830D02*
X86998480Y-56305500D01*
X86998480Y-56305500D02*
X86988910Y-56302470D01*
X87053400Y-56330000D02*
X96058100Y-61447600D01*
X96634500Y-62793100D02*
X96649170Y-62726360D01*
X96649170Y-62726360D02*
X96660050Y-62658890D01*
X96660050Y-62658890D02*
X96667100Y-62590920D01*
X96667100Y-62590920D02*
X96670310Y-62522660D01*
X96670310Y-62522660D02*
X96669660Y-62454330D01*
X96669660Y-62454330D02*
X96665150Y-62386140D01*
X96665150Y-62386140D02*
X96656810Y-62318320D01*
X96656810Y-62318320D02*
X96644650Y-62251070D01*
X96644650Y-62251070D02*
X96628710Y-62184620D01*
X96628710Y-62184620D02*
X96609060Y-62119180D01*
X96609060Y-62119180D02*
X96585740Y-62054940D01*
X96585740Y-62054940D02*
X96558830Y-61992130D01*
X96558830Y-61992130D02*
X96528420Y-61930930D01*
X96528420Y-61930930D02*
X96494600Y-61871550D01*
X96494600Y-61871550D02*
X96457490Y-61814170D01*
X96457490Y-61814170D02*
X96417200Y-61758970D01*
X96417200Y-61758970D02*
X96373860Y-61706140D01*
X96373860Y-61706140D02*
X96327610Y-61655840D01*
X96327610Y-61655840D02*
X96278590Y-61608220D01*
X96278590Y-61608220D02*
X96226970Y-61563450D01*
X96226970Y-61563450D02*
X96172890Y-61521670D01*
X96172890Y-61521670D02*
X96116550Y-61483000D01*
X96116550Y-61483000D02*
X96058120Y-61447570D01*
X96634500Y-62793100D02*
X95460000Y-67500000D01*
%TO.N,Net-(D7-Pad2)*%
X69504900Y-41166000D02*
X69228700Y-40404600D01*
X69504900Y-41166000D02*
X68709300Y-41317800D01*
X94521800Y-46811100D02*
X94684400Y-47650300D01*
X94521800Y-46811100D02*
X95371200Y-46715100D01*
X68580000Y-40640000D02*
X77451000Y-45685300D01*
X77451000Y-45685300D02*
X77502050Y-45712600D01*
X77502050Y-45712600D02*
X77554460Y-45737200D01*
X77554460Y-45737200D02*
X77608070Y-45759040D01*
X77608070Y-45759040D02*
X77662760Y-45778050D01*
X77662760Y-45778050D02*
X77718350Y-45794190D01*
X77718350Y-45794190D02*
X77774720Y-45807410D01*
X77774720Y-45807410D02*
X77831690Y-45817670D01*
X77831690Y-45817670D02*
X77889130Y-45824950D01*
X77889130Y-45824950D02*
X77946860Y-45829230D01*
X77946860Y-45829230D02*
X78004740Y-45830490D01*
X78004740Y-45830490D02*
X78062610Y-45828730D01*
X78062610Y-45828730D02*
X78120300Y-45823960D01*
X78120300Y-45823960D02*
X78177670Y-45816190D01*
X78177670Y-45816190D02*
X78234560Y-45805440D01*
X78234560Y-45805440D02*
X78290810Y-45791740D01*
X78290810Y-45791740D02*
X78346260Y-45775130D01*
X78346260Y-45775130D02*
X78400780Y-45755650D01*
X78400800Y-45755700D02*
X83896800Y-43628900D01*
X83896800Y-43628900D02*
X83957210Y-43603630D01*
X83957210Y-43603630D02*
X84016170Y-43575120D01*
X84016170Y-43575120D02*
X84073500Y-43543470D01*
X84073500Y-43543470D02*
X84129030Y-43508770D01*
X84129030Y-43508770D02*
X84182600Y-43471110D01*
X84182600Y-43471110D02*
X84234060Y-43430610D01*
X84234060Y-43430610D02*
X84283260Y-43387390D01*
X84283260Y-43387390D02*
X84330040Y-43341570D01*
X84330040Y-43341570D02*
X84374280Y-43293280D01*
X84374280Y-43293280D02*
X84415840Y-43242680D01*
X84415840Y-43242680D02*
X84454610Y-43189900D01*
X84454610Y-43189900D02*
X84490460Y-43135100D01*
X84490460Y-43135100D02*
X84523300Y-43078440D01*
X84523300Y-43078440D02*
X84553030Y-43020100D01*
X84553030Y-43020100D02*
X84579560Y-42960220D01*
X84579560Y-42960220D02*
X84602810Y-42899000D01*
X84602810Y-42899000D02*
X84622710Y-42836620D01*
X84622710Y-42836620D02*
X84639210Y-42773250D01*
X84639210Y-42773250D02*
X84652270Y-42709070D01*
X84652270Y-42709070D02*
X84661830Y-42644290D01*
X84661900Y-42644300D02*
X84791700Y-41563000D01*
X85100000Y-41289500D02*
X85081980Y-41290020D01*
X85081980Y-41290020D02*
X85064030Y-41291590D01*
X85064030Y-41291590D02*
X85046200Y-41294200D01*
X85046200Y-41294200D02*
X85028540Y-41297830D01*
X85028540Y-41297830D02*
X85011130Y-41302490D01*
X85011130Y-41302490D02*
X84994020Y-41308150D01*
X84994020Y-41308150D02*
X84977260Y-41314790D01*
X84977260Y-41314790D02*
X84960920Y-41322390D01*
X84960920Y-41322390D02*
X84945050Y-41330930D01*
X84945050Y-41330930D02*
X84929700Y-41340370D01*
X84929700Y-41340370D02*
X84914920Y-41350690D01*
X84914920Y-41350690D02*
X84900770Y-41361850D01*
X84900770Y-41361850D02*
X84887280Y-41373810D01*
X84887280Y-41373810D02*
X84874520Y-41386530D01*
X84874520Y-41386530D02*
X84862510Y-41399970D01*
X84862510Y-41399970D02*
X84851310Y-41414090D01*
X84851310Y-41414090D02*
X84840940Y-41428830D01*
X84840940Y-41428830D02*
X84831440Y-41444150D01*
X84831440Y-41444150D02*
X84822850Y-41460000D01*
X84822850Y-41460000D02*
X84815200Y-41476310D01*
X84815200Y-41476310D02*
X84808500Y-41493050D01*
X84808500Y-41493050D02*
X84802790Y-41510140D01*
X84802790Y-41510140D02*
X84798070Y-41527540D01*
X84798070Y-41527540D02*
X84794380Y-41545180D01*
X84794380Y-41545180D02*
X84791710Y-41563000D01*
X85100000Y-41289500D02*
X86900000Y-41289500D01*
X87083800Y-41349700D02*
X87071390Y-41341050D01*
X87071390Y-41341050D02*
X87058580Y-41333010D01*
X87058580Y-41333010D02*
X87045380Y-41325600D01*
X87045380Y-41325600D02*
X87031850Y-41318840D01*
X87031850Y-41318840D02*
X87018000Y-41312760D01*
X87018000Y-41312760D02*
X87003870Y-41307350D01*
X87003870Y-41307350D02*
X86989490Y-41302640D01*
X86989490Y-41302640D02*
X86974900Y-41298630D01*
X86974900Y-41298630D02*
X86960140Y-41295340D01*
X86960140Y-41295340D02*
X86945230Y-41292780D01*
X86945230Y-41292780D02*
X86930210Y-41290940D01*
X86930210Y-41290940D02*
X86915120Y-41289830D01*
X86915120Y-41289830D02*
X86900000Y-41289460D01*
X87083800Y-41349700D02*
X95460000Y-47500000D01*
%TO.N,Net-(D8-Pad2)*%
X69631400Y-33183000D02*
X69102700Y-32569500D01*
X69631400Y-33183000D02*
X68941700Y-33607500D01*
X94316900Y-37280400D02*
X94824000Y-37968600D01*
X94316900Y-37280400D02*
X95043000Y-36829000D01*
X68580000Y-33020000D02*
X87012000Y-35877600D01*
X87037900Y-35882100D02*
X87031440Y-35880890D01*
X87031440Y-35880890D02*
X87024970Y-35879740D01*
X87024970Y-35879740D02*
X87018490Y-35878640D01*
X87018490Y-35878640D02*
X87012000Y-35877610D01*
X87037900Y-35882100D02*
X95460000Y-37500000D01*
%TO.N,Net-(D17-Pad2)*%
X61913200Y-88427200D02*
X61127500Y-88230700D01*
X61913200Y-88427200D02*
X61594300Y-89171700D01*
X82894600Y-73517500D02*
X83706800Y-73250500D01*
X82894600Y-73517500D02*
X82692400Y-72686900D01*
X60960000Y-88900000D02*
X68086500Y-85365200D01*
X68153800Y-85334500D02*
X68136780Y-85341740D01*
X68136780Y-85341740D02*
X68119880Y-85349260D01*
X68119880Y-85349260D02*
X68103110Y-85357070D01*
X68103110Y-85357070D02*
X68086470Y-85365150D01*
X68153800Y-85334500D02*
X78426200Y-81065500D01*
X78426200Y-81065500D02*
X78474750Y-81043950D01*
X78474750Y-81043950D02*
X78522210Y-81020100D01*
X78522210Y-81020100D02*
X78568480Y-80994000D01*
X78568480Y-80994000D02*
X78613450Y-80965730D01*
X78613450Y-80965730D02*
X78657020Y-80935330D01*
X78657020Y-80935330D02*
X78699080Y-80902890D01*
X78699080Y-80902890D02*
X78739540Y-80868480D01*
X78739540Y-80868480D02*
X78778310Y-80832160D01*
X78778310Y-80832160D02*
X78815300Y-80794040D01*
X78815300Y-80794040D02*
X78850430Y-80754190D01*
X78850430Y-80754190D02*
X78883610Y-80712710D01*
X78883610Y-80712710D02*
X78914760Y-80669680D01*
X78914760Y-80669680D02*
X78943830Y-80625220D01*
X78943830Y-80625220D02*
X78970730Y-80579420D01*
X78970700Y-80579400D02*
X83460000Y-72500000D01*
%TO.N,Net-(D18-Pad2)*%
X61910300Y-96041500D02*
X61123400Y-95849700D01*
X61910300Y-96041500D02*
X61595800Y-96787900D01*
X82520700Y-83187500D02*
X83370000Y-83284900D01*
X82520700Y-83187500D02*
X82684600Y-82348500D01*
X60960000Y-96520000D02*
X69079400Y-92431900D01*
X69079400Y-92431900D02*
X69101720Y-92420340D01*
X69101720Y-92420340D02*
X69123770Y-92408290D01*
X69123770Y-92408290D02*
X69145540Y-92395730D01*
X69145540Y-92395730D02*
X69167020Y-92382690D01*
X69167020Y-92382690D02*
X69188210Y-92369170D01*
X69188210Y-92369170D02*
X69209080Y-92355170D01*
X69209100Y-92355200D02*
X77370900Y-86744800D01*
X77461200Y-86689000D02*
X77442730Y-86699480D01*
X77442730Y-86699480D02*
X77424460Y-86710310D01*
X77424460Y-86710310D02*
X77406410Y-86721490D01*
X77406410Y-86721490D02*
X77388570Y-86733020D01*
X77388570Y-86733020D02*
X77370950Y-86744880D01*
X77461200Y-86689000D02*
X78538800Y-86091000D01*
X78538800Y-86091000D02*
X78562950Y-86077200D01*
X78562950Y-86077200D02*
X78586750Y-86062800D01*
X78586750Y-86062800D02*
X78610190Y-86047800D01*
X78610190Y-86047800D02*
X78633230Y-86032230D01*
X78633230Y-86032230D02*
X78655890Y-86016080D01*
X78655900Y-86016100D02*
X83460000Y-82500000D01*
%TO.N,Net-(D19-Pad2)*%
X62006200Y-98866300D02*
X61304400Y-98462000D01*
X62006200Y-98866300D02*
X61495600Y-99495000D01*
X82344200Y-92831400D02*
X83111200Y-93208900D01*
X82344200Y-92831400D02*
X82780800Y-92096500D01*
X60960000Y-99060000D02*
X68782100Y-97611900D01*
X68782100Y-97611900D02*
X68815450Y-97605200D01*
X68815450Y-97605200D02*
X68848590Y-97597470D01*
X68848590Y-97597470D02*
X68881470Y-97588740D01*
X68881470Y-97588740D02*
X68914060Y-97579010D01*
X68914060Y-97579010D02*
X68946350Y-97568280D01*
X68946350Y-97568280D02*
X68978290Y-97556560D01*
X68978300Y-97556600D02*
X77601700Y-94243400D01*
X77683800Y-94215500D02*
X77667210Y-94220570D01*
X77667210Y-94220570D02*
X77650700Y-94225900D01*
X77650700Y-94225900D02*
X77634280Y-94231480D01*
X77634280Y-94231480D02*
X77617950Y-94237320D01*
X77617950Y-94237320D02*
X77601710Y-94243420D01*
X77683800Y-94215500D02*
X83460000Y-92500000D01*
%TO.N,Net-(D23-Pad2)*%
X69517400Y-96016500D02*
X68725600Y-95845600D01*
X69517400Y-96016500D02*
X69222800Y-96771000D01*
X82528200Y-88197500D02*
X83378500Y-88285800D01*
X82528200Y-88197500D02*
X82683100Y-87356800D01*
X68580000Y-96520000D02*
X78525500Y-91178300D01*
X78525500Y-91178300D02*
X78549740Y-91164890D01*
X78549740Y-91164890D02*
X78573630Y-91150880D01*
X78573630Y-91150880D02*
X78597170Y-91136270D01*
X78597170Y-91136270D02*
X78620340Y-91121090D01*
X78620340Y-91121090D02*
X78643120Y-91105330D01*
X78643120Y-91105330D02*
X78665500Y-91089000D01*
X78665500Y-91089000D02*
X83460000Y-87500000D01*
%TO.N,Net-(D11-Pad1)*%
X79044000Y-52134700D02*
X78337800Y-51738300D01*
X79044000Y-52134700D02*
X78540400Y-52769100D01*
X86000000Y-52500000D02*
X85210000Y-51710000D01*
X85210000Y-51710000D02*
X85100000Y-51710000D01*
X85069400Y-51705700D02*
X85073140Y-51706710D01*
X85073140Y-51706710D02*
X85076920Y-51707590D01*
X85076920Y-51707590D02*
X85080720Y-51708340D01*
X85080720Y-51708340D02*
X85084550Y-51708950D01*
X85084550Y-51708950D02*
X85088390Y-51709430D01*
X85088390Y-51709430D02*
X85092250Y-51709770D01*
X85092250Y-51709770D02*
X85096120Y-51709970D01*
X85096120Y-51709970D02*
X85100000Y-51710040D01*
X85069400Y-51705700D02*
X83796600Y-51337200D01*
X83796600Y-51337200D02*
X83745990Y-51323730D01*
X83745990Y-51323730D02*
X83694840Y-51312460D01*
X83694840Y-51312460D02*
X83643250Y-51303410D01*
X83643250Y-51303410D02*
X83591320Y-51296610D01*
X83591320Y-51296610D02*
X83539140Y-51292050D01*
X83539140Y-51292050D02*
X83486820Y-51289760D01*
X83486820Y-51289760D02*
X83434450Y-51289730D01*
X83434450Y-51289730D02*
X83382120Y-51291970D01*
X83382120Y-51291970D02*
X83329940Y-51296470D01*
X83329940Y-51296470D02*
X83278000Y-51303220D01*
X83278000Y-51303220D02*
X83226400Y-51312210D01*
X83226400Y-51312200D02*
X78000000Y-52340000D01*
%TO.N,Net-(D12-Pad1)*%
X78909600Y-57972000D02*
X78655000Y-57203100D01*
X78909600Y-57972000D02*
X78110000Y-58101100D01*
X86000000Y-62500000D02*
X85210000Y-61710000D01*
X85210000Y-61710000D02*
X85100000Y-61710000D01*
X85042900Y-61694000D02*
X85047230Y-61696500D01*
X85047230Y-61696500D02*
X85051680Y-61698800D01*
X85051680Y-61698800D02*
X85056220Y-61700890D01*
X85056220Y-61700890D02*
X85060850Y-61702780D01*
X85060850Y-61702780D02*
X85065570Y-61704450D01*
X85065570Y-61704450D02*
X85070350Y-61705910D01*
X85070350Y-61705910D02*
X85075200Y-61707150D01*
X85075200Y-61707150D02*
X85080100Y-61708170D01*
X85080100Y-61708170D02*
X85085040Y-61708960D01*
X85085040Y-61708960D02*
X85090010Y-61709530D01*
X85090010Y-61709530D02*
X85095000Y-61709870D01*
X85095000Y-61709870D02*
X85100000Y-61709980D01*
X85042900Y-61694000D02*
X78000000Y-57420000D01*
%TO.N,Net-(D13-Pad1)*%
X78768800Y-60695500D02*
X78686400Y-59889800D01*
X78768800Y-60695500D02*
X77960200Y-60648800D01*
X86000000Y-67500000D02*
X85210000Y-66710000D01*
X85210000Y-66710000D02*
X85100000Y-66710000D01*
X85024000Y-66679500D02*
X85028140Y-66683260D01*
X85028140Y-66683260D02*
X85032470Y-66686810D01*
X85032470Y-66686810D02*
X85036970Y-66690130D01*
X85036970Y-66690130D02*
X85041630Y-66693220D01*
X85041630Y-66693220D02*
X85046440Y-66696060D01*
X85046440Y-66696060D02*
X85051400Y-66698660D01*
X85051400Y-66698660D02*
X85056480Y-66701000D01*
X85056480Y-66701000D02*
X85061670Y-66703090D01*
X85061670Y-66703090D02*
X85066960Y-66704900D01*
X85066960Y-66704900D02*
X85072330Y-66706450D01*
X85072330Y-66706450D02*
X85077780Y-66707710D01*
X85077780Y-66707710D02*
X85083280Y-66708710D01*
X85083280Y-66708710D02*
X85088830Y-66709410D01*
X85088830Y-66709410D02*
X85094410Y-66709840D01*
X85094410Y-66709840D02*
X85100000Y-66709980D01*
X85024000Y-66679500D02*
X78000000Y-59960000D01*
%TO.N,Net-(D14-Pad1)*%
X79031900Y-55139300D02*
X78562000Y-54479600D01*
X79031900Y-55139300D02*
X78306000Y-55498400D01*
X86000000Y-57500000D02*
X85210000Y-56710000D01*
X85210000Y-56710000D02*
X85100000Y-56710000D01*
X85069400Y-56705700D02*
X85073140Y-56706710D01*
X85073140Y-56706710D02*
X85076920Y-56707590D01*
X85076920Y-56707590D02*
X85080720Y-56708340D01*
X85080720Y-56708340D02*
X85084550Y-56708950D01*
X85084550Y-56708950D02*
X85088390Y-56709430D01*
X85088390Y-56709430D02*
X85092250Y-56709770D01*
X85092250Y-56709770D02*
X85096120Y-56709970D01*
X85096120Y-56709970D02*
X85100000Y-56710040D01*
X85069400Y-56705700D02*
X83796600Y-56337200D01*
X83796600Y-56337200D02*
X83786240Y-56334250D01*
X83786240Y-56334250D02*
X83775860Y-56331390D01*
X83775860Y-56331390D02*
X83765440Y-56328630D01*
X83765440Y-56328630D02*
X83755010Y-56325960D01*
X83755000Y-56326000D02*
X78000000Y-54880000D01*
%TO.N,Net-(D15-Pad1)*%
X79044300Y-49596000D02*
X78338500Y-49198700D01*
X79044300Y-49596000D02*
X78539900Y-50229700D01*
X86000000Y-47500000D02*
X85210000Y-48290000D01*
X85210000Y-48290000D02*
X85100000Y-48290000D01*
X85100000Y-48290000D02*
X85096130Y-48290070D01*
X85096130Y-48290070D02*
X85092260Y-48290270D01*
X85092260Y-48290270D02*
X85088400Y-48290610D01*
X85088400Y-48290610D02*
X85084550Y-48291090D01*
X85084550Y-48291090D02*
X85080730Y-48291700D01*
X85080730Y-48291700D02*
X85076920Y-48292450D01*
X85076920Y-48292450D02*
X85073150Y-48293330D01*
X85073150Y-48293330D02*
X85069410Y-48294340D01*
X85069400Y-48294300D02*
X83796600Y-48662800D01*
X83692100Y-48688000D02*
X83713170Y-48683690D01*
X83713170Y-48683690D02*
X83734160Y-48679000D01*
X83734160Y-48679000D02*
X83755060Y-48673950D01*
X83755060Y-48673950D02*
X83775870Y-48668520D01*
X83775870Y-48668520D02*
X83796580Y-48662730D01*
X83692100Y-48688000D02*
X78000000Y-49800000D01*
%TO.N,Net-(D16-Pad1)*%
X78786500Y-44003400D02*
X77977100Y-44030300D01*
X78786500Y-44003400D02*
X78684500Y-44806900D01*
X86000000Y-37500000D02*
X85210000Y-38290000D01*
X85210000Y-38290000D02*
X85100000Y-38290000D01*
X85100000Y-38290000D02*
X85094580Y-38290130D01*
X85094580Y-38290130D02*
X85089180Y-38290530D01*
X85089180Y-38290530D02*
X85083800Y-38291200D01*
X85083800Y-38291200D02*
X85078460Y-38292130D01*
X85078460Y-38292130D02*
X85073170Y-38293320D01*
X85073170Y-38293320D02*
X85067950Y-38294770D01*
X85067950Y-38294770D02*
X85062810Y-38296480D01*
X85062810Y-38296480D02*
X85057750Y-38298440D01*
X85057750Y-38298440D02*
X85052800Y-38300640D01*
X85052800Y-38300640D02*
X85047970Y-38303090D01*
X85047970Y-38303090D02*
X85043260Y-38305770D01*
X85043260Y-38305770D02*
X85038680Y-38308670D01*
X85038680Y-38308670D02*
X85034260Y-38311810D01*
X85034260Y-38311810D02*
X85030000Y-38315150D01*
X85030000Y-38315150D02*
X85025900Y-38318700D01*
X85025900Y-38318700D02*
X78000000Y-44720000D01*
%TO.N,Net-(D17-Pad1)*%
X78779800Y-79316100D02*
X77970500Y-79350700D01*
X78779800Y-79316100D02*
X78685300Y-80120500D01*
X86000000Y-72500000D02*
X85210000Y-71710000D01*
X85210000Y-71710000D02*
X85100000Y-71710000D01*
X85069400Y-71705700D02*
X85073140Y-71706710D01*
X85073140Y-71706710D02*
X85076920Y-71707590D01*
X85076920Y-71707590D02*
X85080720Y-71708340D01*
X85080720Y-71708340D02*
X85084550Y-71708950D01*
X85084550Y-71708950D02*
X85088390Y-71709430D01*
X85088390Y-71709430D02*
X85092250Y-71709770D01*
X85092250Y-71709770D02*
X85096120Y-71709970D01*
X85096120Y-71709970D02*
X85100000Y-71710040D01*
X85069400Y-71705700D02*
X83796600Y-71337200D01*
X83796600Y-71337200D02*
X83729120Y-71319750D01*
X83729120Y-71319750D02*
X83660740Y-71306220D01*
X83660740Y-71306220D02*
X83591700Y-71296650D01*
X83591700Y-71296650D02*
X83522220Y-71291060D01*
X83522220Y-71291060D02*
X83452530Y-71289480D01*
X83452530Y-71289480D02*
X83382870Y-71291920D01*
X83382870Y-71291920D02*
X83313470Y-71298360D01*
X83313470Y-71298360D02*
X83244550Y-71308790D01*
X83244550Y-71308790D02*
X83176340Y-71323160D01*
X83176340Y-71323160D02*
X83109080Y-71341440D01*
X83109080Y-71341440D02*
X83042980Y-71363560D01*
X83042980Y-71363560D02*
X82978260Y-71389450D01*
X82978260Y-71389450D02*
X82915140Y-71419010D01*
X82915140Y-71419010D02*
X82853830Y-71452170D01*
X82853830Y-71452170D02*
X82794520Y-71488790D01*
X82794520Y-71488790D02*
X82737420Y-71528770D01*
X82737420Y-71528770D02*
X82682720Y-71571970D01*
X82682720Y-71571970D02*
X82630600Y-71618250D01*
X82630600Y-71618250D02*
X82581220Y-71667440D01*
X82581220Y-71667440D02*
X82534760Y-71719400D01*
X82534760Y-71719400D02*
X82491360Y-71773950D01*
X82491360Y-71773950D02*
X82451180Y-71830910D01*
X82451180Y-71830910D02*
X82414340Y-71890080D01*
X82414340Y-71890080D02*
X82380970Y-71951280D01*
X82380970Y-71951280D02*
X82351180Y-72014290D01*
X82351200Y-72014300D02*
X79469600Y-78593300D01*
X79297300Y-78835800D02*
X79318830Y-78814980D01*
X79318830Y-78814980D02*
X79339500Y-78793290D01*
X79339500Y-78793290D02*
X79359250Y-78770770D01*
X79359250Y-78770770D02*
X79378070Y-78747470D01*
X79378070Y-78747470D02*
X79395920Y-78723410D01*
X79395920Y-78723410D02*
X79412760Y-78698640D01*
X79412760Y-78698640D02*
X79428580Y-78673200D01*
X79428580Y-78673200D02*
X79443340Y-78647130D01*
X79443340Y-78647130D02*
X79457020Y-78620490D01*
X79457020Y-78620490D02*
X79469600Y-78593300D01*
X79297300Y-78835800D02*
X78000000Y-80040000D01*
%TO.N,Net-(D20-Pad1)*%
X78786500Y-95996600D02*
X78684500Y-95193100D01*
X78786500Y-95996600D02*
X77977100Y-95969700D01*
X86000000Y-102500000D02*
X85210000Y-101710000D01*
X85210000Y-101710000D02*
X85100000Y-101710000D01*
X85025900Y-101681300D02*
X85029990Y-101684850D01*
X85029990Y-101684850D02*
X85034260Y-101688200D01*
X85034260Y-101688200D02*
X85038680Y-101691330D01*
X85038680Y-101691330D02*
X85043250Y-101694240D01*
X85043250Y-101694240D02*
X85047970Y-101696920D01*
X85047970Y-101696920D02*
X85052800Y-101699360D01*
X85052800Y-101699360D02*
X85057750Y-101701570D01*
X85057750Y-101701570D02*
X85062810Y-101703520D01*
X85062810Y-101703520D02*
X85067950Y-101705230D01*
X85067950Y-101705230D02*
X85073170Y-101706680D01*
X85073170Y-101706680D02*
X85078460Y-101707870D01*
X85078460Y-101707870D02*
X85083800Y-101708800D01*
X85083800Y-101708800D02*
X85089180Y-101709470D01*
X85089180Y-101709470D02*
X85094580Y-101709870D01*
X85094580Y-101709870D02*
X85100000Y-101710000D01*
X85025900Y-101681300D02*
X78000000Y-95280000D01*
%TO.N,Net-(D21-Pad1)*%
X78677100Y-98640800D02*
X78690000Y-97831000D01*
X78677100Y-98640800D02*
X77879600Y-98499400D01*
X86000000Y-107500000D02*
X85210000Y-106710000D01*
X85210000Y-106710000D02*
X85210000Y-106600000D01*
X85210000Y-106600000D02*
X85209870Y-106594580D01*
X85209870Y-106594580D02*
X85209470Y-106589180D01*
X85209470Y-106589180D02*
X85208800Y-106583810D01*
X85208800Y-106583810D02*
X85207870Y-106578470D01*
X85207870Y-106578470D02*
X85206680Y-106573190D01*
X85206680Y-106573190D02*
X85205230Y-106567970D01*
X85205230Y-106567970D02*
X85203530Y-106562820D01*
X85203530Y-106562820D02*
X85201570Y-106557770D01*
X85201570Y-106557770D02*
X85199370Y-106552820D01*
X85199370Y-106552820D02*
X85196930Y-106547990D01*
X85196930Y-106547990D02*
X85194250Y-106543280D01*
X85194250Y-106543280D02*
X85191340Y-106538710D01*
X85191340Y-106538710D02*
X85188210Y-106534290D01*
X85188210Y-106534290D02*
X85184870Y-106530020D01*
X85184900Y-106530000D02*
X78000000Y-97820000D01*
%TO.N,Net-(U2-Pad8)*%
X51752800Y-66836400D02*
X50966900Y-66640500D01*
X51752800Y-66836400D02*
X51434500Y-67581100D01*
X68320200Y-54371800D02*
X68980000Y-53902100D01*
X68320200Y-54371800D02*
X67961400Y-53645700D01*
X67772800Y-108526800D02*
X67898300Y-109327000D01*
X67772800Y-108526800D02*
X68582700Y-108530000D01*
X67527400Y-81124900D02*
X68060700Y-81734400D01*
X67527400Y-81124900D02*
X68213900Y-80695200D01*
X69045200Y-80323100D02*
X68303200Y-80648000D01*
X69045200Y-80323100D02*
X69248000Y-81107200D01*
X50800000Y-67310000D02*
X60465700Y-62505600D01*
X60656400Y-62431800D02*
X60623720Y-62441630D01*
X60623720Y-62441630D02*
X60591360Y-62452470D01*
X60591360Y-62452470D02*
X60559340Y-62464290D01*
X60559340Y-62464290D02*
X60527710Y-62477090D01*
X60527710Y-62477090D02*
X60496480Y-62490860D01*
X60496480Y-62490860D02*
X60465690Y-62505580D01*
X60656400Y-62431800D02*
X66724700Y-60707100D01*
X68580000Y-53340000D02*
X66724700Y-60707100D01*
X68580000Y-109220000D02*
X61683500Y-103297500D01*
X61683500Y-103297500D02*
X61658770Y-103276880D01*
X61658770Y-103276880D02*
X61633460Y-103256980D01*
X61633460Y-103256980D02*
X61607570Y-103237830D01*
X61607570Y-103237830D02*
X61581150Y-103219440D01*
X61581150Y-103219440D02*
X61554200Y-103201820D01*
X61554200Y-103201820D02*
X61526750Y-103184980D01*
X61526750Y-103184980D02*
X61498820Y-103168960D01*
X61498800Y-103169000D02*
X60421200Y-102571000D01*
X60191500Y-102401600D02*
X60221530Y-102429350D01*
X60221530Y-102429350D02*
X60252560Y-102455970D01*
X60252560Y-102455970D02*
X60284540Y-102481430D01*
X60284540Y-102481430D02*
X60317450Y-102505690D01*
X60317450Y-102505690D02*
X60351220Y-102528730D01*
X60351220Y-102528730D02*
X60385820Y-102550510D01*
X60385820Y-102550510D02*
X60421200Y-102571000D01*
X60191500Y-102401600D02*
X43948500Y-86828400D01*
X43948500Y-86828400D02*
X43918470Y-86800650D01*
X43918470Y-86800650D02*
X43887440Y-86774030D01*
X43887440Y-86774030D02*
X43855460Y-86748570D01*
X43855460Y-86748570D02*
X43822550Y-86724310D01*
X43822550Y-86724310D02*
X43788780Y-86701270D01*
X43788780Y-86701270D02*
X43754180Y-86679490D01*
X43754180Y-86679490D02*
X43718800Y-86659000D01*
X43718800Y-86659000D02*
X42641200Y-86061000D01*
X42828800Y-84036500D02*
X42765360Y-84059820D01*
X42765360Y-84059820D02*
X42703450Y-84086950D01*
X42703450Y-84086950D02*
X42643310Y-84117800D01*
X42643310Y-84117800D02*
X42585160Y-84152250D01*
X42585160Y-84152250D02*
X42529220Y-84190180D01*
X42529220Y-84190180D02*
X42475680Y-84231430D01*
X42475680Y-84231430D02*
X42424750Y-84275870D01*
X42424750Y-84275870D02*
X42376620Y-84323330D01*
X42376620Y-84323330D02*
X42331470Y-84373620D01*
X42331470Y-84373620D02*
X42289460Y-84426570D01*
X42289460Y-84426570D02*
X42250750Y-84481980D01*
X42250750Y-84481980D02*
X42215480Y-84539640D01*
X42215480Y-84539640D02*
X42183780Y-84599330D01*
X42183780Y-84599330D02*
X42155780Y-84660850D01*
X42155780Y-84660850D02*
X42131570Y-84723960D01*
X42131570Y-84723960D02*
X42111240Y-84788420D01*
X42111240Y-84788420D02*
X42094870Y-84854000D01*
X42094870Y-84854000D02*
X42082520Y-84920450D01*
X42082520Y-84920450D02*
X42074240Y-84987530D01*
X42074240Y-84987530D02*
X42070050Y-85054990D01*
X42070050Y-85054990D02*
X42069980Y-85122580D01*
X42069980Y-85122580D02*
X42074020Y-85190050D01*
X42074020Y-85190050D02*
X42082150Y-85257150D01*
X42082150Y-85257150D02*
X42094360Y-85323630D01*
X42094360Y-85323630D02*
X42110580Y-85389240D01*
X42110580Y-85389240D02*
X42130770Y-85453750D01*
X42130770Y-85453750D02*
X42154840Y-85516910D01*
X42154840Y-85516910D02*
X42182710Y-85578480D01*
X42182710Y-85578480D02*
X42214270Y-85638250D01*
X42214270Y-85638250D02*
X42249420Y-85695990D01*
X42249420Y-85695990D02*
X42288010Y-85751480D01*
X42288010Y-85751480D02*
X42329900Y-85804520D01*
X42329900Y-85804520D02*
X42374940Y-85854910D01*
X42374940Y-85854910D02*
X42422970Y-85902470D01*
X42422970Y-85902470D02*
X42473800Y-85947020D01*
X42473800Y-85947020D02*
X42527250Y-85988400D01*
X42527250Y-85988400D02*
X42583110Y-86026440D01*
X42583110Y-86026440D02*
X42641190Y-86061020D01*
X42828800Y-84036500D02*
X50448800Y-81496500D01*
X50662300Y-81448100D02*
X50626120Y-81453230D01*
X50626120Y-81453230D02*
X50590120Y-81459540D01*
X50590120Y-81459540D02*
X50554360Y-81467040D01*
X50554360Y-81467040D02*
X50518860Y-81475710D01*
X50518860Y-81475710D02*
X50483660Y-81485540D01*
X50483660Y-81485540D02*
X50448810Y-81496530D01*
X50662300Y-81448100D02*
X60822300Y-80178100D01*
X61121800Y-80181400D02*
X61084560Y-80176560D01*
X61084560Y-80176560D02*
X61047180Y-80172980D01*
X61047180Y-80172980D02*
X61009700Y-80170660D01*
X61009700Y-80170660D02*
X60972160Y-80169620D01*
X60972160Y-80169620D02*
X60934610Y-80169840D01*
X60934610Y-80169840D02*
X60897090Y-80171330D01*
X60897090Y-80171330D02*
X60859640Y-80174090D01*
X60859640Y-80174090D02*
X60822300Y-80178120D01*
X61121800Y-80181400D02*
X68580000Y-81280000D01*
X68580000Y-81280000D02*
X69578700Y-79225500D01*
X69578700Y-79225500D02*
X69599640Y-79179830D01*
X69599640Y-79179830D02*
X69618490Y-79133260D01*
X69618490Y-79133260D02*
X69635220Y-79085880D01*
X69635220Y-79085880D02*
X69649780Y-79037790D01*
X69649780Y-79037790D02*
X69662160Y-78989100D01*
X69662160Y-78989100D02*
X69672320Y-78939890D01*
X69672320Y-78939890D02*
X69680240Y-78890280D01*
X69680240Y-78890280D02*
X69685910Y-78840360D01*
X69685910Y-78840360D02*
X69689320Y-78790230D01*
X69689320Y-78790230D02*
X69690460Y-78740000D01*
X69690500Y-78740000D02*
X69690500Y-63500000D01*
X69690500Y-63500000D02*
X69688760Y-63437830D01*
X69688760Y-63437830D02*
X69683540Y-63375860D01*
X69683540Y-63375860D02*
X69674860Y-63314280D01*
X69674860Y-63314280D02*
X69662750Y-63253280D01*
X69662750Y-63253280D02*
X69647240Y-63193050D01*
X69647240Y-63193050D02*
X69628380Y-63133790D01*
X69628380Y-63133790D02*
X69606230Y-63075670D01*
X69606230Y-63075670D02*
X69580870Y-63018890D01*
X69580870Y-63018890D02*
X69552370Y-62963610D01*
X69552370Y-62963610D02*
X69520810Y-62910020D01*
X69520810Y-62910020D02*
X69486310Y-62858270D01*
X69486310Y-62858270D02*
X69448960Y-62808540D01*
X69448960Y-62808540D02*
X69408890Y-62760980D01*
X69408890Y-62760980D02*
X69366220Y-62715740D01*
X69366220Y-62715740D02*
X69321080Y-62672950D01*
X69321080Y-62672950D02*
X69273620Y-62632760D01*
X69273620Y-62632760D02*
X69223990Y-62595290D01*
X69223990Y-62595290D02*
X69172330Y-62560660D01*
X69172330Y-62560660D02*
X69118810Y-62528970D01*
X69118800Y-62529000D02*
X68041200Y-61931000D01*
X67806700Y-61757000D02*
X67837270Y-61785560D01*
X67837270Y-61785560D02*
X67868890Y-61812950D01*
X67868890Y-61812950D02*
X67901520Y-61839130D01*
X67901520Y-61839130D02*
X67935110Y-61864060D01*
X67935110Y-61864060D02*
X67969620Y-61887710D01*
X67969620Y-61887710D02*
X68005000Y-61910040D01*
X68005000Y-61910040D02*
X68041190Y-61931020D01*
X67806700Y-61757000D02*
X66724700Y-60707100D01*
%TO.N,Net-(U2-Pad10)*%
X44244000Y-64770000D02*
X43627500Y-64244800D01*
X44244000Y-64770000D02*
X43627500Y-65295200D01*
X49736000Y-64770000D02*
X50352500Y-65295200D01*
X49736000Y-64770000D02*
X50352500Y-64244800D01*
X43180000Y-64770000D02*
X50800000Y-64770000D01*
%TO.N,Net-(D25-Pad2)*%
X94796000Y-105000000D02*
X95423800Y-105580200D01*
X94796000Y-105000000D02*
X95423800Y-104419800D01*
X95960000Y-105000000D02*
X93926000Y-105000000D01*
X93926000Y-105000000D02*
X93816000Y-105000000D01*
X93816000Y-105000000D02*
X93412500Y-105000000D01*
%TO.N,Net-(D25-Pad1)*%
X40708800Y-78526500D02*
X40294400Y-78515900D01*
X40708800Y-78526500D02*
X40430200Y-78833500D01*
X42201700Y-77888300D02*
X42975100Y-78128800D01*
X42201700Y-77888300D02*
X42562100Y-77163000D01*
X40289500Y-78705800D02*
X43180000Y-77470000D01*
%TO.N,Net-(D26-Pad2)*%
X94796000Y-100000000D02*
X95423800Y-100580200D01*
X94796000Y-100000000D02*
X95423800Y-99419800D01*
X95960000Y-100000000D02*
X93926000Y-100000000D01*
X93926000Y-100000000D02*
X93816000Y-100000000D01*
X93816000Y-100000000D02*
X93412500Y-100000000D01*
%TO.N,Net-(D26-Pad1)*%
X44226200Y-85283700D02*
X43715600Y-84655000D01*
X44226200Y-85283700D02*
X43524400Y-85688000D01*
X43180000Y-85090000D02*
X51002100Y-86538100D01*
X51173500Y-86584200D02*
X51145480Y-86574610D01*
X51145480Y-86574610D02*
X51117220Y-86565780D01*
X51117220Y-86565780D02*
X51088730Y-86557700D01*
X51088730Y-86557700D02*
X51060030Y-86550380D01*
X51060030Y-86550380D02*
X51031150Y-86543830D01*
X51031150Y-86543830D02*
X51002110Y-86538050D01*
X51173500Y-86584200D02*
X60586500Y-89945800D01*
X60586500Y-89945800D02*
X60640450Y-89963520D01*
X60640450Y-89963520D02*
X60695230Y-89978470D01*
X60695230Y-89978470D02*
X60750700Y-89990590D01*
X60750700Y-89990590D02*
X60806720Y-89999870D01*
X60806720Y-89999870D02*
X60863140Y-90006260D01*
X60863140Y-90006260D02*
X60919820Y-90009770D01*
X60919820Y-90009770D02*
X60976600Y-90010370D01*
X60976600Y-90010370D02*
X61033330Y-90008070D01*
X61033330Y-90008070D02*
X61089880Y-90002870D01*
X61089880Y-90002870D02*
X61146080Y-89994790D01*
X61146080Y-89994790D02*
X61201800Y-89983850D01*
X61201800Y-89983850D02*
X61256890Y-89970070D01*
X61256890Y-89970070D02*
X61311200Y-89953500D01*
X61311200Y-89953500D02*
X68931200Y-87413500D01*
X68931200Y-87413500D02*
X68946930Y-87408130D01*
X68946930Y-87408130D02*
X68962570Y-87402520D01*
X68962570Y-87402520D02*
X68978130Y-87396680D01*
X68978130Y-87396680D02*
X68993600Y-87390600D01*
X68993600Y-87390600D02*
X78413600Y-83610600D01*
X78413600Y-83610600D02*
X78428400Y-83604540D01*
X78428400Y-83604540D02*
X78443110Y-83598260D01*
X78443110Y-83598260D02*
X78457730Y-83591770D01*
X78457730Y-83591770D02*
X78472260Y-83585070D01*
X78472260Y-83585070D02*
X78486680Y-83578170D01*
X78486700Y-83578200D02*
X82929500Y-81411900D01*
X83460000Y-81289500D02*
X83405110Y-81290750D01*
X83405110Y-81290750D02*
X83350330Y-81294480D01*
X83350330Y-81294480D02*
X83295770Y-81300690D01*
X83295770Y-81300690D02*
X83241550Y-81309370D01*
X83241550Y-81309370D02*
X83187790Y-81320500D01*
X83187790Y-81320500D02*
X83134580Y-81334060D01*
X83134580Y-81334060D02*
X83082040Y-81350020D01*
X83082040Y-81350020D02*
X83030280Y-81368340D01*
X83030280Y-81368340D02*
X82979400Y-81388990D01*
X82979400Y-81388990D02*
X82929510Y-81411930D01*
X83460000Y-81289500D02*
X86900000Y-81289500D01*
X87094000Y-81357500D02*
X87082090Y-81348440D01*
X87082090Y-81348440D02*
X87069760Y-81339950D01*
X87069760Y-81339950D02*
X87057040Y-81332080D01*
X87057040Y-81332080D02*
X87043950Y-81324820D01*
X87043950Y-81324820D02*
X87030520Y-81318210D01*
X87030520Y-81318210D02*
X87016790Y-81312250D01*
X87016790Y-81312250D02*
X87002790Y-81306950D01*
X87002790Y-81306950D02*
X86988560Y-81302340D01*
X86988560Y-81302340D02*
X86974110Y-81298420D01*
X86974110Y-81298420D02*
X86959500Y-81295200D01*
X86959500Y-81295200D02*
X86944750Y-81292690D01*
X86944750Y-81292690D02*
X86929890Y-81290890D01*
X86929890Y-81290890D02*
X86914960Y-81289810D01*
X86914960Y-81289810D02*
X86900000Y-81289450D01*
X87094000Y-81357500D02*
X96716200Y-89054700D01*
X97161900Y-89855700D02*
X97152820Y-89793700D01*
X97152820Y-89793700D02*
X97140550Y-89732240D01*
X97140550Y-89732240D02*
X97125110Y-89671510D01*
X97125110Y-89671510D02*
X97106550Y-89611660D01*
X97106550Y-89611660D02*
X97084920Y-89552840D01*
X97084920Y-89552840D02*
X97060270Y-89495230D01*
X97060270Y-89495230D02*
X97032670Y-89438960D01*
X97032670Y-89438960D02*
X97002200Y-89384210D01*
X97002200Y-89384210D02*
X96968940Y-89331100D01*
X96968940Y-89331100D02*
X96932970Y-89279780D01*
X96932970Y-89279780D02*
X96894400Y-89230400D01*
X96894400Y-89230400D02*
X96853320Y-89183070D01*
X96853320Y-89183070D02*
X96809840Y-89137940D01*
X96809840Y-89137940D02*
X96764090Y-89095110D01*
X96764090Y-89095110D02*
X96716190Y-89054710D01*
X97161900Y-89855700D02*
X97291700Y-90937000D01*
X97291700Y-90937000D02*
X97293770Y-90951410D01*
X97293770Y-90951410D02*
X97296520Y-90965720D01*
X97296520Y-90965720D02*
X97299940Y-90979870D01*
X97299940Y-90979870D02*
X97304010Y-90993850D01*
X97304010Y-90993850D02*
X97308740Y-91007630D01*
X97308740Y-91007630D02*
X97314100Y-91021170D01*
X97314100Y-91021170D02*
X97320100Y-91034440D01*
X97320100Y-91034440D02*
X97326710Y-91047410D01*
X97326710Y-91047410D02*
X97333920Y-91060060D01*
X97333920Y-91060060D02*
X97341720Y-91072360D01*
X97341720Y-91072360D02*
X97350090Y-91084280D01*
X97350090Y-91084280D02*
X97359000Y-91095800D01*
X97359000Y-91095800D02*
X99641000Y-93904200D01*
X99710500Y-94100000D02*
X99710130Y-94084870D01*
X99710130Y-94084870D02*
X99709030Y-94069780D01*
X99709030Y-94069780D02*
X99707190Y-94054770D01*
X99707190Y-94054770D02*
X99704620Y-94039850D01*
X99704620Y-94039850D02*
X99701330Y-94025090D01*
X99701330Y-94025090D02*
X99697320Y-94010500D01*
X99697320Y-94010500D02*
X99692610Y-93996120D01*
X99692610Y-93996120D02*
X99687200Y-93981990D01*
X99687200Y-93981990D02*
X99681110Y-93968140D01*
X99681110Y-93968140D02*
X99674350Y-93954600D01*
X99674350Y-93954600D02*
X99666940Y-93941410D01*
X99666940Y-93941410D02*
X99658900Y-93928590D01*
X99658900Y-93928590D02*
X99650240Y-93916180D01*
X99650240Y-93916180D02*
X99640990Y-93904210D01*
X99710500Y-94100000D02*
X99710500Y-95900000D01*
X99707800Y-95940800D02*
X99708770Y-95932670D01*
X99708770Y-95932670D02*
X99709520Y-95924530D01*
X99709520Y-95924530D02*
X99710060Y-95916360D01*
X99710060Y-95916360D02*
X99710380Y-95908180D01*
X99710380Y-95908180D02*
X99710490Y-95900000D01*
X99707800Y-95940800D02*
X99291000Y-99085500D01*
X99291000Y-99085500D02*
X99290650Y-99088390D01*
X99290650Y-99088390D02*
X99290390Y-99091280D01*
X99290390Y-99091280D02*
X99290190Y-99094190D01*
X99290190Y-99094190D02*
X99290080Y-99097090D01*
X99290080Y-99097090D02*
X99290040Y-99100000D01*
X99290000Y-99100000D02*
X99290000Y-99210000D01*
X99290000Y-99210000D02*
X98500000Y-100000000D01*
%TO.N,Net-(D27-Pad2)*%
X94796000Y-95000000D02*
X95423800Y-95580200D01*
X94796000Y-95000000D02*
X95423800Y-94419800D01*
X95960000Y-95000000D02*
X93926000Y-95000000D01*
X93926000Y-95000000D02*
X93816000Y-95000000D01*
X93816000Y-95000000D02*
X93412500Y-95000000D01*
%TO.N,Net-(D27-Pad1)*%
X51540400Y-88394100D02*
X51488600Y-87585800D01*
X51540400Y-88394100D02*
X50734200Y-88316800D01*
X50800000Y-87630000D02*
X60162500Y-97292800D01*
X60162500Y-97292800D02*
X60207120Y-97336330D01*
X60207120Y-97336330D02*
X60254120Y-97377300D01*
X60254120Y-97377300D02*
X60303340Y-97415560D01*
X60303340Y-97415560D02*
X60354630Y-97450990D01*
X60354630Y-97450990D02*
X60407830Y-97483500D01*
X60407830Y-97483500D02*
X60462760Y-97512970D01*
X60462760Y-97512970D02*
X60519270Y-97539300D01*
X60519270Y-97539300D02*
X60577160Y-97562430D01*
X60577160Y-97562430D02*
X60636260Y-97582270D01*
X60636260Y-97582270D02*
X60696380Y-97598760D01*
X60696380Y-97598760D02*
X60757330Y-97611860D01*
X60757330Y-97611860D02*
X60818920Y-97621510D01*
X60818920Y-97621510D02*
X60880960Y-97627690D01*
X60880960Y-97627690D02*
X60943240Y-97630380D01*
X60943240Y-97630380D02*
X61005580Y-97629570D01*
X61005580Y-97629570D02*
X61067770Y-97625270D01*
X61067770Y-97625270D02*
X61129620Y-97617480D01*
X61129620Y-97617480D02*
X61190940Y-97606230D01*
X61190940Y-97606230D02*
X61251530Y-97591560D01*
X61251530Y-97591560D02*
X61311200Y-97573510D01*
X61311200Y-97573500D02*
X68931200Y-95033500D01*
X68931200Y-95033500D02*
X68967910Y-95020540D01*
X68967910Y-95020540D02*
X69004140Y-95006310D01*
X69004140Y-95006310D02*
X69039840Y-94990810D01*
X69039840Y-94990810D02*
X69074990Y-94974080D01*
X69074990Y-94974080D02*
X69109520Y-94956120D01*
X69109520Y-94956120D02*
X69143410Y-94936960D01*
X69143410Y-94936960D02*
X69176600Y-94916630D01*
X69176600Y-94916630D02*
X69209060Y-94895140D01*
X69209100Y-94895200D02*
X77370900Y-89284800D01*
X77491500Y-89212800D02*
X77466680Y-89225990D01*
X77466680Y-89225990D02*
X77442200Y-89239800D01*
X77442200Y-89239800D02*
X77418070Y-89254220D01*
X77418070Y-89254220D02*
X77394320Y-89269250D01*
X77394320Y-89269250D02*
X77370960Y-89284880D01*
X77491500Y-89212800D02*
X82905700Y-86423900D01*
X83460000Y-86289500D02*
X83407670Y-86290630D01*
X83407670Y-86290630D02*
X83355440Y-86294020D01*
X83355440Y-86294020D02*
X83303410Y-86299670D01*
X83303410Y-86299670D02*
X83251670Y-86307560D01*
X83251670Y-86307560D02*
X83200320Y-86317680D01*
X83200320Y-86317680D02*
X83149450Y-86330010D01*
X83149450Y-86330010D02*
X83099160Y-86344530D01*
X83099160Y-86344530D02*
X83049550Y-86361210D01*
X83049550Y-86361210D02*
X83000710Y-86380020D01*
X83000710Y-86380020D02*
X82952720Y-86400920D01*
X82952720Y-86400920D02*
X82905690Y-86423870D01*
X83460000Y-86289500D02*
X86900000Y-86289500D01*
X87047200Y-86326600D02*
X87034780Y-86320270D01*
X87034780Y-86320270D02*
X87022090Y-86314500D01*
X87022090Y-86314500D02*
X87009150Y-86309310D01*
X87009150Y-86309310D02*
X86995990Y-86304700D01*
X86995990Y-86304700D02*
X86982640Y-86300690D01*
X86982640Y-86300690D02*
X86969120Y-86297280D01*
X86969120Y-86297280D02*
X86955470Y-86294490D01*
X86955470Y-86294490D02*
X86941700Y-86292300D01*
X86941700Y-86292300D02*
X86927850Y-86290740D01*
X86927850Y-86290740D02*
X86913940Y-86289800D01*
X86913940Y-86289800D02*
X86900000Y-86289490D01*
X87047200Y-86326600D02*
X92122700Y-89059300D01*
X92153300Y-89078100D02*
X92147360Y-89074050D01*
X92147360Y-89074050D02*
X92141330Y-89070150D01*
X92141330Y-89070150D02*
X92135210Y-89066380D01*
X92135210Y-89066380D02*
X92129000Y-89062750D01*
X92129000Y-89062750D02*
X92122710Y-89059270D01*
X92153300Y-89078100D02*
X92171200Y-89090600D01*
X92171200Y-89090600D02*
X92172100Y-89091300D01*
X92172100Y-89091300D02*
X92190000Y-89103900D01*
X92230900Y-89138200D02*
X92224510Y-89131990D01*
X92224510Y-89131990D02*
X92217950Y-89125970D01*
X92217950Y-89125970D02*
X92211210Y-89120140D01*
X92211210Y-89120140D02*
X92204310Y-89114500D01*
X92204310Y-89114500D02*
X92197260Y-89109070D01*
X92197260Y-89109070D02*
X92190050Y-89103830D01*
X92230900Y-89138200D02*
X92261800Y-89169100D01*
X92296400Y-89210400D02*
X92291130Y-89203120D01*
X92291130Y-89203120D02*
X92285650Y-89195990D01*
X92285650Y-89195990D02*
X92279970Y-89189020D01*
X92279970Y-89189020D02*
X92274090Y-89182220D01*
X92274090Y-89182220D02*
X92268020Y-89175590D01*
X92268020Y-89175590D02*
X92261750Y-89169150D01*
X92296400Y-89210400D02*
X92321500Y-89246200D01*
X92348700Y-89293300D02*
X92344740Y-89285130D01*
X92344740Y-89285130D02*
X92340550Y-89277080D01*
X92340550Y-89277080D02*
X92336130Y-89269160D01*
X92336130Y-89269160D02*
X92331470Y-89261370D01*
X92331470Y-89261370D02*
X92326590Y-89253710D01*
X92326590Y-89253710D02*
X92321490Y-89246210D01*
X92348700Y-89293300D02*
X92367200Y-89333000D01*
X92385700Y-89383900D02*
X92383240Y-89375210D01*
X92383240Y-89375210D02*
X92380520Y-89366590D01*
X92380520Y-89366590D02*
X92377550Y-89358050D01*
X92377550Y-89358050D02*
X92374340Y-89349600D01*
X92374340Y-89349600D02*
X92370880Y-89341250D01*
X92370880Y-89341250D02*
X92367180Y-89333010D01*
X92385700Y-89383900D02*
X92397000Y-89426100D01*
X92402800Y-89452200D02*
X92401820Y-89446940D01*
X92401820Y-89446940D02*
X92400750Y-89441700D01*
X92400750Y-89441700D02*
X92399590Y-89436480D01*
X92399590Y-89436480D02*
X92398340Y-89431280D01*
X92398340Y-89431280D02*
X92397000Y-89426100D01*
X92402800Y-89452200D02*
X92597200Y-90547800D01*
X92597200Y-90547800D02*
X92598150Y-90552930D01*
X92598150Y-90552930D02*
X92599200Y-90558050D01*
X92599200Y-90558050D02*
X92600320Y-90563150D01*
X92600320Y-90563150D02*
X92601540Y-90568230D01*
X92601540Y-90568230D02*
X92602830Y-90573290D01*
X92602800Y-90573300D02*
X92608400Y-90594400D01*
X92608400Y-90594400D02*
X92608700Y-90595700D01*
X92608700Y-90595700D02*
X92614400Y-90616800D01*
X92614400Y-90616800D02*
X92616830Y-90625310D01*
X92616830Y-90625310D02*
X92619500Y-90633740D01*
X92619500Y-90633740D02*
X92622410Y-90642100D01*
X92622410Y-90642100D02*
X92625560Y-90650370D01*
X92625560Y-90650370D02*
X92628940Y-90658550D01*
X92628940Y-90658550D02*
X92632550Y-90666620D01*
X92632600Y-90666600D02*
X92641800Y-90686400D01*
X92641800Y-90686400D02*
X92642100Y-90687100D01*
X92642100Y-90687100D02*
X92651400Y-90707000D01*
X92651400Y-90707000D02*
X92655290Y-90715020D01*
X92655290Y-90715020D02*
X92659410Y-90722930D01*
X92659410Y-90722930D02*
X92663760Y-90730720D01*
X92663760Y-90730720D02*
X92668330Y-90738380D01*
X92668330Y-90738380D02*
X92673120Y-90745900D01*
X92673120Y-90745900D02*
X92678120Y-90753290D01*
X92678100Y-90753300D02*
X92690600Y-90771200D01*
X92690600Y-90771200D02*
X92691300Y-90772100D01*
X92691300Y-90772100D02*
X92703900Y-90790000D01*
X92703900Y-90790000D02*
X92709130Y-90797210D01*
X92709130Y-90797210D02*
X92714560Y-90804260D01*
X92714560Y-90804260D02*
X92720200Y-90811160D01*
X92720200Y-90811160D02*
X92726030Y-90817890D01*
X92726030Y-90817890D02*
X92732050Y-90824460D01*
X92732050Y-90824460D02*
X92738260Y-90830840D01*
X92738200Y-90830900D02*
X92769100Y-90861800D01*
X92769100Y-90861800D02*
X92775550Y-90868070D01*
X92775550Y-90868070D02*
X92782180Y-90874140D01*
X92782180Y-90874140D02*
X92788980Y-90880020D01*
X92788980Y-90880020D02*
X92795950Y-90885710D01*
X92795950Y-90885710D02*
X92803080Y-90891180D01*
X92803080Y-90891180D02*
X92810360Y-90896450D01*
X92810400Y-90896400D02*
X92846200Y-90921500D01*
X92846200Y-90921500D02*
X92848850Y-90923340D01*
X92848850Y-90923340D02*
X92851520Y-90925150D01*
X92851520Y-90925150D02*
X92854200Y-90926930D01*
X92854200Y-90926930D02*
X92856910Y-90928680D01*
X92856900Y-90928700D02*
X97659400Y-94007400D01*
X97710000Y-94100000D02*
X97709850Y-94094210D01*
X97709850Y-94094210D02*
X97709390Y-94088440D01*
X97709390Y-94088440D02*
X97708630Y-94082700D01*
X97708630Y-94082700D02*
X97707570Y-94077000D01*
X97707570Y-94077000D02*
X97706210Y-94071370D01*
X97706210Y-94071370D02*
X97704560Y-94065820D01*
X97704560Y-94065820D02*
X97702610Y-94060370D01*
X97702610Y-94060370D02*
X97700380Y-94055020D01*
X97700380Y-94055020D02*
X97697880Y-94049800D01*
X97697880Y-94049800D02*
X97695100Y-94044720D01*
X97695100Y-94044720D02*
X97692060Y-94039790D01*
X97692060Y-94039790D02*
X97688760Y-94035030D01*
X97688760Y-94035030D02*
X97685220Y-94030450D01*
X97685220Y-94030450D02*
X97681440Y-94026060D01*
X97681440Y-94026060D02*
X97677440Y-94021870D01*
X97677440Y-94021870D02*
X97673220Y-94017910D01*
X97673220Y-94017910D02*
X97668800Y-94014170D01*
X97668800Y-94014170D02*
X97664180Y-94010670D01*
X97664180Y-94010670D02*
X97659390Y-94007410D01*
X97710000Y-94100000D02*
X97710000Y-94210000D01*
X97710000Y-94210000D02*
X98500000Y-95000000D01*
%TO.N,Net-(D28-Pad2)*%
X94796000Y-90000000D02*
X95423800Y-90580200D01*
X94796000Y-90000000D02*
X95423800Y-89419800D01*
X95960000Y-90000000D02*
X93926000Y-90000000D01*
X93926000Y-90000000D02*
X93816000Y-90000000D01*
X93816000Y-90000000D02*
X93412500Y-90000000D01*
%TD*%
M02*
