M48
; DRILL file {KiCad (5.1.9)-1} date 06/05/21 00:30:02
; FORMAT={-:-/ absolute / inch / decimal}
; #@! TF.CreationDate,2021-06-05T00:30:02-04:00
; #@! TF.GenerationSoftware,Kicad,Pcbnew,(5.1.9)-1
FMAT,2
INCH
T1C0.0118
T2C0.0236
T3C0.0315
T4C0.0354
T5C0.0394
T6C0.1260
%
G90
G05
T1
X1.0663Y-2.3257
X1.0808Y-2.3537
X1.3577Y-3.7949
X1.3979Y-2.7836
X1.4064Y-2.7524
X1.4682Y-3.0445
X1.4729Y-3.0762
X1.4795Y-2.4172
X1.4905Y-3.022
X1.4941Y-3.5865
X1.6198Y-2.8628
X1.7028Y-2.2867
X1.7136Y-2.518
X1.7209Y-1.0849
X1.752Y-3.5828
X1.7532Y-2.6802
X1.783Y-3.4494
X1.7882Y-2.6436
X1.7936Y-3.1474
X1.8283Y-3.225
X1.8418Y-2.3863
X1.8426Y-3.1316
X1.8541Y-2.0774
X1.8704Y-2.3777
X1.9005Y-3.4957
X1.9483Y-4.5884
X1.9527Y-2.6539
X1.9646Y-3.2729
X1.9702Y-2.5997
X1.9738Y-2.829
X1.9749Y-1.5036
X1.9749Y-1.5351
X1.9799Y-3.233
X1.9941Y-3.3311
X1.9971Y-4.3948
X2.0306Y-2.3845
X2.0888Y-4.4939
X2.1056Y-2.3982
X2.1192Y-3.0645
X2.1384Y-2.6808
X2.1496Y-3.2988
X2.1846Y-2.6678
X2.201Y-3.215
X2.2032Y-2.75
X2.2826Y-4.1746
X2.3014Y-2.8788
X2.3647Y-3.2342
X2.3677Y-2.1088
X2.4936Y-1.8511
X2.5094Y-1.4321
X2.559Y-3.1368
X2.5628Y-1.8707
X2.5662Y-2.322
X2.5662Y-2.256
X2.5696Y-1.4539
X2.6344Y-1.3236
X2.6531Y-1.8119
X2.6727Y-3.0989
X2.7138Y-2.0446
X2.718Y-1.9471
X2.7217Y-1.8501
X2.722Y-1.319
X2.7328Y-1.7678
X2.7487Y-3.4124
X2.7692Y-3.4847
X2.7699Y-1.7979
X2.7801Y-2.0554
X2.798Y-2.8788
X2.8147Y-1.8131
X2.8153Y-1.3669
X2.8339Y-3.142
X2.838Y-2.3079
X2.8452Y-1.3771
X2.8467Y-3.6934
X2.8784Y-4.3861
X2.883Y-1.7696
X2.9096Y-4.3901
X2.9171Y-3.0923
X2.9236Y-1.7937
X2.9241Y-1.627
X2.9496Y-1.5118
X2.9503Y-1.8394
X2.9769Y-1.922
X2.9853Y-4.268
X2.9964Y-1.8245
X3.0266Y-1.7438
X3.0277Y-3.2489
X3.0322Y-4.2738
X3.0353Y-3.7052
X3.0559Y-3.2868
X3.061Y-4.2157
X3.0975Y-2.866
X3.1Y-3.2687
X3.1039Y-3.1393
X3.1229Y-1.9545
X3.1479Y-3.2676
X3.158Y-2.1472
X3.1696Y-1.6285
X3.1769Y-2.1214
X3.181Y-4.3992
X3.1864Y-1.7503
X3.1888Y-1.8263
X3.1946Y-2.0205
X3.2011Y-1.7967
X3.2473Y-3.1587
X3.2856Y-3.3923
X3.2893Y-2.221
X3.299Y-1.2444
X3.3295Y-1.2522
X3.3339Y-3.0104
X3.385Y-3.2625
X3.3882Y-1.6508
X3.398Y-3.0994
X3.399Y-4.5668
X3.4147Y-2.0502
X3.4164Y-3.269
X3.4367Y-1.8501
X3.4409Y-1.4021
X3.441Y-3.1496
X3.4606Y-1.6359
X3.4707Y-2.221
X3.4755Y-3.3097
X3.48Y-3.5859
X3.4888Y-2.1223
X3.517Y-3.317
X3.5236Y-3.2879
X3.5351Y-2.0365
X3.5369Y-2.1233
X3.5377Y-3.426
X3.5378Y-2.6309
X3.5785Y-1.8613
X3.6033Y-3.4234
X3.6069Y-1.7677
X3.6251Y-1.4031
X3.654Y-2.1275
X3.675Y-1.8479
X3.6832Y-1.7853
X3.7251Y-1.2711
X3.7381Y-1.3003
X3.7401Y-1.6244
X3.7627Y-1.6024
X3.7767Y-1.8501
X3.7974Y-3.1274
X3.7987Y-2.7378
X3.8313Y-2.0057
X3.8425Y-1.2493
X3.9038Y-1.1022
X3.922Y-3.0883
X3.954Y-1.7583
X3.9786Y-3.0398
X4.0794Y-1.3814
X4.1199Y-2.0366
X4.1401Y-1.9285
X4.1609Y-2.1229
X4.174Y-3.0892
X4.2862Y-1.2482
X4.2975Y-3.0685
X4.3048Y-1.5325
X4.3317Y-3.0358
X4.4348Y-1.8322
X4.4466Y-1.404
X4.4473Y-1.2877
X4.4832Y-3.2681
X4.5512Y-1.2693
T2
X0.8498Y-1.675
X1.251Y-3.8714
X1.3364Y-3.3105
X1.614Y-2.2033
X1.619Y-1.7063
X1.6765Y-3.5007
X1.7282Y-2.8926
X1.7695Y-3.34
X1.7929Y-1.1849
X1.8299Y-4.0103
X1.8441Y-2.9646
X1.8597Y-4.1546
X1.8636Y-2.5095
X1.8858Y-1.2163
X2.0543Y-2.431
X2.1196Y-2.2874
X2.1431Y-2.0809
X2.2743Y-3.0094
X2.2874Y-2.3495
X2.2929Y-4.3452
X2.3272Y-2.7519
X2.372Y-1.3516
X2.4029Y-3.73
X2.4266Y-1.5553
X2.4636Y-4.3876
X2.6718Y-3.0107
X2.8224Y-2.0441
X2.9674Y-1.3362
X3.0664Y-4.3769
X3.3805Y-1.3987
X3.4641Y-1.1239
X3.5663Y-1.3114
X3.5963Y-3.2679
X3.6335Y-1.6222
X3.9482Y-1.5894
X4.0484Y-1.938
X4.0932Y-1.5367
X4.2099Y-1.5413
X4.3698Y-2.9627
X4.5411Y-2.9938
T3
X1.25Y-2.25
X1.25Y-2.35
X1.25Y-2.45
X1.25Y-2.55
X1.25Y-2.65
X1.25Y-2.75
X1.25Y-2.85
X1.25Y-2.95
X1.25Y-3.05
X1.25Y-3.15
X1.25Y-3.25
X1.25Y-3.35
X1.2705Y-1.3274
X1.2705Y-1.6935
X1.325Y-4.2
X1.325Y-4.5
X1.4083Y-1.3274
X1.4083Y-1.6935
X1.55Y-2.25
X1.55Y-2.35
X1.55Y-2.45
X1.55Y-2.55
X1.55Y-2.65
X1.55Y-2.75
X1.55Y-2.85
X1.55Y-2.95
X1.55Y-3.05
X1.55Y-3.15
X1.55Y-3.25
X1.55Y-3.35
X1.625Y-4.2
X1.625Y-4.5
X2.43Y-2.19
X2.43Y-2.79
X2.43Y-3.575
X2.43Y-4.175
X2.53Y-2.19
X2.53Y-2.79
X2.53Y-3.575
X2.53Y-4.175
X2.63Y-2.19
X2.63Y-2.79
X2.63Y-3.575
X2.63Y-4.175
X2.73Y-2.19
X2.73Y-2.79
X2.73Y-3.575
X2.73Y-4.175
X2.83Y-2.19
X2.83Y-2.79
X2.83Y-3.575
X2.83Y-4.175
X2.93Y-2.19
X2.93Y-2.79
X2.93Y-3.575
X2.93Y-4.175
X3.03Y-2.19
X3.03Y-2.79
X3.03Y-3.575
X3.03Y-4.175
X3.125Y-3.36
X3.13Y-2.19
X3.13Y-2.79
X3.13Y-3.575
X3.13Y-4.175
X3.225Y-3.46
X3.23Y-2.19
X3.23Y-2.79
X3.23Y-3.575
X3.23Y-4.175
X3.325Y-3.36
X3.33Y-2.19
X3.33Y-2.79
X3.33Y-3.575
X3.33Y-4.175
X3.43Y-2.19
X3.43Y-2.79
X3.43Y-3.575
X3.43Y-4.175
X3.53Y-2.19
X3.53Y-2.79
X3.53Y-3.575
X3.53Y-4.175
X3.63Y-2.19
X3.63Y-2.79
X3.63Y-3.575
X3.63Y-4.175
X3.73Y-2.19
X3.73Y-2.79
X3.73Y-3.575
X3.73Y-4.175
X3.8031Y-3.2402
X3.8031Y-3.437
X3.83Y-2.19
X3.83Y-2.79
X3.83Y-3.575
X3.83Y-4.175
X3.93Y-2.19
X3.93Y-2.79
X3.93Y-3.575
X3.93Y-4.175
X4.03Y-2.19
X4.03Y-2.79
X4.03Y-3.575
X4.03Y-4.175
X4.03Y-4.4
X4.13Y-2.19
X4.13Y-2.79
X4.13Y-3.575
X4.13Y-4.175
X4.13Y-4.3
X4.23Y-2.19
X4.23Y-2.79
X4.23Y-3.575
X4.23Y-4.175
X4.23Y-4.4
X4.33Y-2.19
X4.33Y-2.79
X4.33Y-3.575
X4.33Y-4.175
T4
X1.6929Y-1.811
X1.6929Y-1.911
X1.8898Y-1.811
X1.8898Y-1.911
X2.0866Y-1.5929
X2.0866Y-1.6929
X2.0866Y-1.811
X2.0866Y-1.911
X2.2835Y-1.5929
X2.2835Y-1.6929
X2.2835Y-1.811
X2.2835Y-1.911
X4.5669Y-2.3016
X4.5669Y-2.4016
X4.5669Y-2.6559
X4.5669Y-2.7559
X4.5669Y-3.6795
X4.5669Y-3.7795
X4.5669Y-3.9945
X4.5669Y-4.0945
T5
X0.8874Y-1.2047
X0.8874Y-1.3047
X0.8874Y-1.4047
X0.8874Y-1.5047
X0.8874Y-1.8059
X0.8874Y-1.9059
X0.8874Y-2.0059
X0.8874Y-2.1059
X0.8874Y-2.2059
X0.8874Y-2.3059
X0.8874Y-2.4059
X0.8874Y-2.5059
X0.8874Y-2.6059
X0.8874Y-2.7059
X0.8874Y-2.8059
X0.8874Y-2.9059
X0.8874Y-3.0059
X0.8874Y-3.1059
X0.8874Y-3.2059
X0.8874Y-3.3059
X0.8874Y-3.4059
X0.8874Y-3.5059
X0.8874Y-3.6059
X0.8874Y-3.7059
X0.8874Y-4.0071
X0.8874Y-4.1071
X0.8874Y-4.2071
X0.8874Y-4.3071
X0.9874Y-1.2047
X0.9874Y-1.3047
X0.9874Y-1.4047
X0.9874Y-1.5047
X0.9874Y-1.8059
X0.9874Y-1.9059
X0.9874Y-2.0059
X0.9874Y-2.1059
X0.9874Y-2.2059
X0.9874Y-2.3059
X0.9874Y-2.4059
X0.9874Y-2.5059
X0.9874Y-2.6059
X0.9874Y-2.7059
X0.9874Y-2.8059
X0.9874Y-2.9059
X0.9874Y-3.0059
X0.9874Y-3.1059
X0.9874Y-3.2059
X0.9874Y-3.3059
X0.9874Y-3.4059
X0.9874Y-3.5059
X0.9874Y-3.6059
X0.9874Y-3.7059
X0.9874Y-4.0071
X0.9874Y-4.1071
X0.9874Y-4.2071
X0.9874Y-4.3071
X1.375Y-0.875
X1.375Y-0.975
X1.475Y-0.875
X1.475Y-0.975
X1.575Y-0.875
X1.575Y-0.975
X1.675Y-0.875
X1.675Y-0.975
X1.775Y-0.875
X1.775Y-0.975
X1.875Y-0.875
X1.875Y-0.975
X1.975Y-0.875
X1.975Y-0.975
X2.075Y-0.875
X2.075Y-0.975
X2.175Y-0.875
X2.175Y-0.975
X2.275Y-0.875
X2.275Y-0.975
X2.375Y-0.875
X2.375Y-0.975
X2.475Y-0.875
X2.475Y-0.975
X2.575Y-0.875
X2.575Y-0.975
X2.675Y-0.875
X2.675Y-0.975
X2.775Y-0.875
X2.775Y-0.975
X2.875Y-0.875
X2.875Y-0.975
X2.975Y-0.875
X2.975Y-0.975
X3.45Y-0.875
X3.45Y-0.975
X3.55Y-0.875
X3.55Y-0.975
X3.65Y-0.875
X3.65Y-0.975
X3.75Y-0.875
X3.75Y-0.975
X3.7598Y-2.9724
X3.85Y-0.875
X3.85Y-0.975
X3.8598Y-2.9724
X3.95Y-0.875
X3.95Y-0.975
X4.05Y-0.875
X4.05Y-0.975
X4.1323Y-3.4252
X4.15Y-0.875
X4.15Y-0.975
X4.2323Y-3.4252
T6
X0.9252Y-0.9252
X0.9252Y-4.5866
X4.5866Y-0.9252
X4.5866Y-4.5866
T0
M30
