%TF.GenerationSoftware,KiCad,Pcbnew,7.0.0-da2b9df05c~163~ubuntu22.04.1*%
%TF.CreationDate,2023-02-22T18:51:16-05:00*%
%TF.ProjectId,main,6d61696e-2e6b-4696-9361-645f70636258,rev?*%
%TF.SameCoordinates,Original*%
%TF.FileFunction,Legend,Bot*%
%TF.FilePolarity,Positive*%
%FSLAX46Y46*%
G04 Gerber Fmt 4.6, Leading zero omitted, Abs format (unit mm)*
G04 Created by KiCad (PCBNEW 7.0.0-da2b9df05c~163~ubuntu22.04.1) date 2023-02-22 18:51:16*
%MOMM*%
%LPD*%
G01*
G04 APERTURE LIST*
%ADD10C,0.200000*%
%ADD11C,0.150000*%
%ADD12C,0.120000*%
G04 APERTURE END LIST*
D10*
X107771428Y-61871071D02*
X107414285Y-63371071D01*
X107414285Y-63371071D02*
X107128571Y-62299642D01*
X107128571Y-62299642D02*
X106842856Y-63371071D01*
X106842856Y-63371071D02*
X106485714Y-61871071D01*
X105057142Y-63228214D02*
X105128570Y-63299642D01*
X105128570Y-63299642D02*
X105342856Y-63371071D01*
X105342856Y-63371071D02*
X105485713Y-63371071D01*
X105485713Y-63371071D02*
X105699999Y-63299642D01*
X105699999Y-63299642D02*
X105842856Y-63156785D01*
X105842856Y-63156785D02*
X105914285Y-63013928D01*
X105914285Y-63013928D02*
X105985713Y-62728214D01*
X105985713Y-62728214D02*
X105985713Y-62513928D01*
X105985713Y-62513928D02*
X105914285Y-62228214D01*
X105914285Y-62228214D02*
X105842856Y-62085357D01*
X105842856Y-62085357D02*
X105699999Y-61942500D01*
X105699999Y-61942500D02*
X105485713Y-61871071D01*
X105485713Y-61871071D02*
X105342856Y-61871071D01*
X105342856Y-61871071D02*
X105128570Y-61942500D01*
X105128570Y-61942500D02*
X105057142Y-62013928D01*
X104199999Y-62513928D02*
X104342856Y-62442500D01*
X104342856Y-62442500D02*
X104414285Y-62371071D01*
X104414285Y-62371071D02*
X104485713Y-62228214D01*
X104485713Y-62228214D02*
X104485713Y-62156785D01*
X104485713Y-62156785D02*
X104414285Y-62013928D01*
X104414285Y-62013928D02*
X104342856Y-61942500D01*
X104342856Y-61942500D02*
X104199999Y-61871071D01*
X104199999Y-61871071D02*
X103914285Y-61871071D01*
X103914285Y-61871071D02*
X103771428Y-61942500D01*
X103771428Y-61942500D02*
X103699999Y-62013928D01*
X103699999Y-62013928D02*
X103628570Y-62156785D01*
X103628570Y-62156785D02*
X103628570Y-62228214D01*
X103628570Y-62228214D02*
X103699999Y-62371071D01*
X103699999Y-62371071D02*
X103771428Y-62442500D01*
X103771428Y-62442500D02*
X103914285Y-62513928D01*
X103914285Y-62513928D02*
X104199999Y-62513928D01*
X104199999Y-62513928D02*
X104342856Y-62585357D01*
X104342856Y-62585357D02*
X104414285Y-62656785D01*
X104414285Y-62656785D02*
X104485713Y-62799642D01*
X104485713Y-62799642D02*
X104485713Y-63085357D01*
X104485713Y-63085357D02*
X104414285Y-63228214D01*
X104414285Y-63228214D02*
X104342856Y-63299642D01*
X104342856Y-63299642D02*
X104199999Y-63371071D01*
X104199999Y-63371071D02*
X103914285Y-63371071D01*
X103914285Y-63371071D02*
X103771428Y-63299642D01*
X103771428Y-63299642D02*
X103699999Y-63228214D01*
X103699999Y-63228214D02*
X103628570Y-63085357D01*
X103628570Y-63085357D02*
X103628570Y-62799642D01*
X103628570Y-62799642D02*
X103699999Y-62656785D01*
X103699999Y-62656785D02*
X103771428Y-62585357D01*
X103771428Y-62585357D02*
X103914285Y-62513928D01*
X102699999Y-61871071D02*
X102557142Y-61871071D01*
X102557142Y-61871071D02*
X102414285Y-61942500D01*
X102414285Y-61942500D02*
X102342857Y-62013928D01*
X102342857Y-62013928D02*
X102271428Y-62156785D01*
X102271428Y-62156785D02*
X102199999Y-62442500D01*
X102199999Y-62442500D02*
X102199999Y-62799642D01*
X102199999Y-62799642D02*
X102271428Y-63085357D01*
X102271428Y-63085357D02*
X102342857Y-63228214D01*
X102342857Y-63228214D02*
X102414285Y-63299642D01*
X102414285Y-63299642D02*
X102557142Y-63371071D01*
X102557142Y-63371071D02*
X102699999Y-63371071D01*
X102699999Y-63371071D02*
X102842857Y-63299642D01*
X102842857Y-63299642D02*
X102914285Y-63228214D01*
X102914285Y-63228214D02*
X102985714Y-63085357D01*
X102985714Y-63085357D02*
X103057142Y-62799642D01*
X103057142Y-62799642D02*
X103057142Y-62442500D01*
X103057142Y-62442500D02*
X102985714Y-62156785D01*
X102985714Y-62156785D02*
X102914285Y-62013928D01*
X102914285Y-62013928D02*
X102842857Y-61942500D01*
X102842857Y-61942500D02*
X102699999Y-61871071D01*
X118121427Y-65015357D02*
X117621427Y-65015357D01*
X117407141Y-65801071D02*
X118121427Y-65801071D01*
X118121427Y-65801071D02*
X118121427Y-64301071D01*
X118121427Y-64301071D02*
X117407141Y-64301071D01*
X116835712Y-65729642D02*
X116621427Y-65801071D01*
X116621427Y-65801071D02*
X116264284Y-65801071D01*
X116264284Y-65801071D02*
X116121427Y-65729642D01*
X116121427Y-65729642D02*
X116049998Y-65658214D01*
X116049998Y-65658214D02*
X115978569Y-65515357D01*
X115978569Y-65515357D02*
X115978569Y-65372500D01*
X115978569Y-65372500D02*
X116049998Y-65229642D01*
X116049998Y-65229642D02*
X116121427Y-65158214D01*
X116121427Y-65158214D02*
X116264284Y-65086785D01*
X116264284Y-65086785D02*
X116549998Y-65015357D01*
X116549998Y-65015357D02*
X116692855Y-64943928D01*
X116692855Y-64943928D02*
X116764284Y-64872500D01*
X116764284Y-64872500D02*
X116835712Y-64729642D01*
X116835712Y-64729642D02*
X116835712Y-64586785D01*
X116835712Y-64586785D02*
X116764284Y-64443928D01*
X116764284Y-64443928D02*
X116692855Y-64372500D01*
X116692855Y-64372500D02*
X116549998Y-64301071D01*
X116549998Y-64301071D02*
X116192855Y-64301071D01*
X116192855Y-64301071D02*
X115978569Y-64372500D01*
X115335713Y-65801071D02*
X115335713Y-64301071D01*
X115335713Y-64301071D02*
X114764284Y-64301071D01*
X114764284Y-64301071D02*
X114621427Y-64372500D01*
X114621427Y-64372500D02*
X114549998Y-64443928D01*
X114549998Y-64443928D02*
X114478570Y-64586785D01*
X114478570Y-64586785D02*
X114478570Y-64801071D01*
X114478570Y-64801071D02*
X114549998Y-64943928D01*
X114549998Y-64943928D02*
X114621427Y-65015357D01*
X114621427Y-65015357D02*
X114764284Y-65086785D01*
X114764284Y-65086785D02*
X115335713Y-65086785D01*
X113978570Y-64301071D02*
X113049998Y-64301071D01*
X113049998Y-64301071D02*
X113549998Y-64872500D01*
X113549998Y-64872500D02*
X113335713Y-64872500D01*
X113335713Y-64872500D02*
X113192856Y-64943928D01*
X113192856Y-64943928D02*
X113121427Y-65015357D01*
X113121427Y-65015357D02*
X113049998Y-65158214D01*
X113049998Y-65158214D02*
X113049998Y-65515357D01*
X113049998Y-65515357D02*
X113121427Y-65658214D01*
X113121427Y-65658214D02*
X113192856Y-65729642D01*
X113192856Y-65729642D02*
X113335713Y-65801071D01*
X113335713Y-65801071D02*
X113764284Y-65801071D01*
X113764284Y-65801071D02*
X113907141Y-65729642D01*
X113907141Y-65729642D02*
X113978570Y-65658214D01*
X112478570Y-64443928D02*
X112407142Y-64372500D01*
X112407142Y-64372500D02*
X112264285Y-64301071D01*
X112264285Y-64301071D02*
X111907142Y-64301071D01*
X111907142Y-64301071D02*
X111764285Y-64372500D01*
X111764285Y-64372500D02*
X111692856Y-64443928D01*
X111692856Y-64443928D02*
X111621427Y-64586785D01*
X111621427Y-64586785D02*
X111621427Y-64729642D01*
X111621427Y-64729642D02*
X111692856Y-64943928D01*
X111692856Y-64943928D02*
X112549999Y-65801071D01*
X112549999Y-65801071D02*
X111621427Y-65801071D01*
X109007142Y-64229642D02*
X110292856Y-66158214D01*
X106749999Y-65801071D02*
X107249999Y-65086785D01*
X107607142Y-65801071D02*
X107607142Y-64301071D01*
X107607142Y-64301071D02*
X107035713Y-64301071D01*
X107035713Y-64301071D02*
X106892856Y-64372500D01*
X106892856Y-64372500D02*
X106821427Y-64443928D01*
X106821427Y-64443928D02*
X106749999Y-64586785D01*
X106749999Y-64586785D02*
X106749999Y-64801071D01*
X106749999Y-64801071D02*
X106821427Y-64943928D01*
X106821427Y-64943928D02*
X106892856Y-65015357D01*
X106892856Y-65015357D02*
X107035713Y-65086785D01*
X107035713Y-65086785D02*
X107607142Y-65086785D01*
X106178570Y-65372500D02*
X105464285Y-65372500D01*
X106321427Y-65801071D02*
X105821427Y-64301071D01*
X105821427Y-64301071D02*
X105321427Y-65801071D01*
X104821428Y-65801071D02*
X104821428Y-64301071D01*
X104821428Y-64301071D02*
X104321428Y-65372500D01*
X104321428Y-65372500D02*
X103821428Y-64301071D01*
X103821428Y-64301071D02*
X103821428Y-65801071D01*
X102207142Y-65801071D02*
X102207142Y-64301071D01*
X102207142Y-64872500D02*
X102064285Y-64801071D01*
X102064285Y-64801071D02*
X101778570Y-64801071D01*
X101778570Y-64801071D02*
X101635713Y-64872500D01*
X101635713Y-64872500D02*
X101564285Y-64943928D01*
X101564285Y-64943928D02*
X101492856Y-65086785D01*
X101492856Y-65086785D02*
X101492856Y-65515357D01*
X101492856Y-65515357D02*
X101564285Y-65658214D01*
X101564285Y-65658214D02*
X101635713Y-65729642D01*
X101635713Y-65729642D02*
X101778570Y-65801071D01*
X101778570Y-65801071D02*
X102064285Y-65801071D01*
X102064285Y-65801071D02*
X102207142Y-65729642D01*
X100635713Y-65801071D02*
X100778570Y-65729642D01*
X100778570Y-65729642D02*
X100849999Y-65658214D01*
X100849999Y-65658214D02*
X100921427Y-65515357D01*
X100921427Y-65515357D02*
X100921427Y-65086785D01*
X100921427Y-65086785D02*
X100849999Y-64943928D01*
X100849999Y-64943928D02*
X100778570Y-64872500D01*
X100778570Y-64872500D02*
X100635713Y-64801071D01*
X100635713Y-64801071D02*
X100421427Y-64801071D01*
X100421427Y-64801071D02*
X100278570Y-64872500D01*
X100278570Y-64872500D02*
X100207142Y-64943928D01*
X100207142Y-64943928D02*
X100135713Y-65086785D01*
X100135713Y-65086785D02*
X100135713Y-65515357D01*
X100135713Y-65515357D02*
X100207142Y-65658214D01*
X100207142Y-65658214D02*
X100278570Y-65729642D01*
X100278570Y-65729642D02*
X100421427Y-65801071D01*
X100421427Y-65801071D02*
X100635713Y-65801071D01*
X98849999Y-65801071D02*
X98849999Y-65015357D01*
X98849999Y-65015357D02*
X98921427Y-64872500D01*
X98921427Y-64872500D02*
X99064284Y-64801071D01*
X99064284Y-64801071D02*
X99349999Y-64801071D01*
X99349999Y-64801071D02*
X99492856Y-64872500D01*
X98849999Y-65729642D02*
X98992856Y-65801071D01*
X98992856Y-65801071D02*
X99349999Y-65801071D01*
X99349999Y-65801071D02*
X99492856Y-65729642D01*
X99492856Y-65729642D02*
X99564284Y-65586785D01*
X99564284Y-65586785D02*
X99564284Y-65443928D01*
X99564284Y-65443928D02*
X99492856Y-65301071D01*
X99492856Y-65301071D02*
X99349999Y-65229642D01*
X99349999Y-65229642D02*
X98992856Y-65229642D01*
X98992856Y-65229642D02*
X98849999Y-65158214D01*
X98135713Y-65801071D02*
X98135713Y-64801071D01*
X98135713Y-65086785D02*
X98064284Y-64943928D01*
X98064284Y-64943928D02*
X97992856Y-64872500D01*
X97992856Y-64872500D02*
X97849998Y-64801071D01*
X97849998Y-64801071D02*
X97707141Y-64801071D01*
X96564285Y-65801071D02*
X96564285Y-64301071D01*
X96564285Y-65729642D02*
X96707142Y-65801071D01*
X96707142Y-65801071D02*
X96992856Y-65801071D01*
X96992856Y-65801071D02*
X97135713Y-65729642D01*
X97135713Y-65729642D02*
X97207142Y-65658214D01*
X97207142Y-65658214D02*
X97278570Y-65515357D01*
X97278570Y-65515357D02*
X97278570Y-65086785D01*
X97278570Y-65086785D02*
X97207142Y-64943928D01*
X97207142Y-64943928D02*
X97135713Y-64872500D01*
X97135713Y-64872500D02*
X96992856Y-64801071D01*
X96992856Y-64801071D02*
X96707142Y-64801071D01*
X96707142Y-64801071D02*
X96564285Y-64872500D01*
X94949999Y-65801071D02*
X94949999Y-64801071D01*
X94949999Y-65086785D02*
X94878570Y-64943928D01*
X94878570Y-64943928D02*
X94807142Y-64872500D01*
X94807142Y-64872500D02*
X94664284Y-64801071D01*
X94664284Y-64801071D02*
X94521427Y-64801071D01*
X93449999Y-65729642D02*
X93592856Y-65801071D01*
X93592856Y-65801071D02*
X93878571Y-65801071D01*
X93878571Y-65801071D02*
X94021428Y-65729642D01*
X94021428Y-65729642D02*
X94092856Y-65586785D01*
X94092856Y-65586785D02*
X94092856Y-65015357D01*
X94092856Y-65015357D02*
X94021428Y-64872500D01*
X94021428Y-64872500D02*
X93878571Y-64801071D01*
X93878571Y-64801071D02*
X93592856Y-64801071D01*
X93592856Y-64801071D02*
X93449999Y-64872500D01*
X93449999Y-64872500D02*
X93378571Y-65015357D01*
X93378571Y-65015357D02*
X93378571Y-65158214D01*
X93378571Y-65158214D02*
X94092856Y-65301071D01*
X92878571Y-64801071D02*
X92521428Y-65801071D01*
X92521428Y-65801071D02*
X92164285Y-64801071D01*
X90807142Y-65801071D02*
X91664285Y-65801071D01*
X91235714Y-65801071D02*
X91235714Y-64301071D01*
X91235714Y-64301071D02*
X91378571Y-64515357D01*
X91378571Y-64515357D02*
X91521428Y-64658214D01*
X91521428Y-64658214D02*
X91664285Y-64729642D01*
X112092856Y-67802500D02*
X111378571Y-67802500D01*
X112235713Y-68231071D02*
X111735713Y-66731071D01*
X111735713Y-66731071D02*
X111235713Y-68231071D01*
X110735714Y-68088214D02*
X110664285Y-68159642D01*
X110664285Y-68159642D02*
X110735714Y-68231071D01*
X110735714Y-68231071D02*
X110807142Y-68159642D01*
X110807142Y-68159642D02*
X110735714Y-68088214D01*
X110735714Y-68088214D02*
X110735714Y-68231071D01*
X110164285Y-66731071D02*
X109807142Y-68231071D01*
X109807142Y-68231071D02*
X109521428Y-67159642D01*
X109521428Y-67159642D02*
X109235713Y-68231071D01*
X109235713Y-68231071D02*
X108878571Y-66731071D01*
X108307142Y-68231071D02*
X108307142Y-67231071D01*
X108307142Y-66731071D02*
X108378570Y-66802500D01*
X108378570Y-66802500D02*
X108307142Y-66873928D01*
X108307142Y-66873928D02*
X108235713Y-66802500D01*
X108235713Y-66802500D02*
X108307142Y-66731071D01*
X108307142Y-66731071D02*
X108307142Y-66873928D01*
X107378570Y-68231071D02*
X107521427Y-68159642D01*
X107521427Y-68159642D02*
X107592856Y-68016785D01*
X107592856Y-68016785D02*
X107592856Y-66731071D01*
X106878570Y-68159642D02*
X106735713Y-68231071D01*
X106735713Y-68231071D02*
X106449999Y-68231071D01*
X106449999Y-68231071D02*
X106307142Y-68159642D01*
X106307142Y-68159642D02*
X106235713Y-68016785D01*
X106235713Y-68016785D02*
X106235713Y-67945357D01*
X106235713Y-67945357D02*
X106307142Y-67802500D01*
X106307142Y-67802500D02*
X106449999Y-67731071D01*
X106449999Y-67731071D02*
X106664285Y-67731071D01*
X106664285Y-67731071D02*
X106807142Y-67659642D01*
X106807142Y-67659642D02*
X106878570Y-67516785D01*
X106878570Y-67516785D02*
X106878570Y-67445357D01*
X106878570Y-67445357D02*
X106807142Y-67302500D01*
X106807142Y-67302500D02*
X106664285Y-67231071D01*
X106664285Y-67231071D02*
X106449999Y-67231071D01*
X106449999Y-67231071D02*
X106307142Y-67302500D01*
X105378570Y-68231071D02*
X105521427Y-68159642D01*
X105521427Y-68159642D02*
X105592856Y-68088214D01*
X105592856Y-68088214D02*
X105664284Y-67945357D01*
X105664284Y-67945357D02*
X105664284Y-67516785D01*
X105664284Y-67516785D02*
X105592856Y-67373928D01*
X105592856Y-67373928D02*
X105521427Y-67302500D01*
X105521427Y-67302500D02*
X105378570Y-67231071D01*
X105378570Y-67231071D02*
X105164284Y-67231071D01*
X105164284Y-67231071D02*
X105021427Y-67302500D01*
X105021427Y-67302500D02*
X104949999Y-67373928D01*
X104949999Y-67373928D02*
X104878570Y-67516785D01*
X104878570Y-67516785D02*
X104878570Y-67945357D01*
X104878570Y-67945357D02*
X104949999Y-68088214D01*
X104949999Y-68088214D02*
X105021427Y-68159642D01*
X105021427Y-68159642D02*
X105164284Y-68231071D01*
X105164284Y-68231071D02*
X105378570Y-68231071D01*
X104235713Y-67231071D02*
X104235713Y-68231071D01*
X104235713Y-67373928D02*
X104164284Y-67302500D01*
X104164284Y-67302500D02*
X104021427Y-67231071D01*
X104021427Y-67231071D02*
X103807141Y-67231071D01*
X103807141Y-67231071D02*
X103664284Y-67302500D01*
X103664284Y-67302500D02*
X103592856Y-67445357D01*
X103592856Y-67445357D02*
X103592856Y-68231071D01*
X102049998Y-66873928D02*
X101978570Y-66802500D01*
X101978570Y-66802500D02*
X101835713Y-66731071D01*
X101835713Y-66731071D02*
X101478570Y-66731071D01*
X101478570Y-66731071D02*
X101335713Y-66802500D01*
X101335713Y-66802500D02*
X101264284Y-66873928D01*
X101264284Y-66873928D02*
X101192855Y-67016785D01*
X101192855Y-67016785D02*
X101192855Y-67159642D01*
X101192855Y-67159642D02*
X101264284Y-67373928D01*
X101264284Y-67373928D02*
X102121427Y-68231071D01*
X102121427Y-68231071D02*
X101192855Y-68231071D01*
X100264284Y-66731071D02*
X100121427Y-66731071D01*
X100121427Y-66731071D02*
X99978570Y-66802500D01*
X99978570Y-66802500D02*
X99907142Y-66873928D01*
X99907142Y-66873928D02*
X99835713Y-67016785D01*
X99835713Y-67016785D02*
X99764284Y-67302500D01*
X99764284Y-67302500D02*
X99764284Y-67659642D01*
X99764284Y-67659642D02*
X99835713Y-67945357D01*
X99835713Y-67945357D02*
X99907142Y-68088214D01*
X99907142Y-68088214D02*
X99978570Y-68159642D01*
X99978570Y-68159642D02*
X100121427Y-68231071D01*
X100121427Y-68231071D02*
X100264284Y-68231071D01*
X100264284Y-68231071D02*
X100407142Y-68159642D01*
X100407142Y-68159642D02*
X100478570Y-68088214D01*
X100478570Y-68088214D02*
X100549999Y-67945357D01*
X100549999Y-67945357D02*
X100621427Y-67659642D01*
X100621427Y-67659642D02*
X100621427Y-67302500D01*
X100621427Y-67302500D02*
X100549999Y-67016785D01*
X100549999Y-67016785D02*
X100478570Y-66873928D01*
X100478570Y-66873928D02*
X100407142Y-66802500D01*
X100407142Y-66802500D02*
X100264284Y-66731071D01*
X99192856Y-66873928D02*
X99121428Y-66802500D01*
X99121428Y-66802500D02*
X98978571Y-66731071D01*
X98978571Y-66731071D02*
X98621428Y-66731071D01*
X98621428Y-66731071D02*
X98478571Y-66802500D01*
X98478571Y-66802500D02*
X98407142Y-66873928D01*
X98407142Y-66873928D02*
X98335713Y-67016785D01*
X98335713Y-67016785D02*
X98335713Y-67159642D01*
X98335713Y-67159642D02*
X98407142Y-67373928D01*
X98407142Y-67373928D02*
X99264285Y-68231071D01*
X99264285Y-68231071D02*
X98335713Y-68231071D01*
X97835714Y-66731071D02*
X96907142Y-66731071D01*
X96907142Y-66731071D02*
X97407142Y-67302500D01*
X97407142Y-67302500D02*
X97192857Y-67302500D01*
X97192857Y-67302500D02*
X97050000Y-67373928D01*
X97050000Y-67373928D02*
X96978571Y-67445357D01*
X96978571Y-67445357D02*
X96907142Y-67588214D01*
X96907142Y-67588214D02*
X96907142Y-67945357D01*
X96907142Y-67945357D02*
X96978571Y-68088214D01*
X96978571Y-68088214D02*
X97050000Y-68159642D01*
X97050000Y-68159642D02*
X97192857Y-68231071D01*
X97192857Y-68231071D02*
X97621428Y-68231071D01*
X97621428Y-68231071D02*
X97764285Y-68159642D01*
X97764285Y-68159642D02*
X97835714Y-68088214D01*
D11*
%TO.C,C12*%
X93363142Y-26220142D02*
X93410761Y-26172523D01*
X93410761Y-26172523D02*
X93458380Y-26029666D01*
X93458380Y-26029666D02*
X93458380Y-25934428D01*
X93458380Y-25934428D02*
X93410761Y-25791571D01*
X93410761Y-25791571D02*
X93315523Y-25696333D01*
X93315523Y-25696333D02*
X93220285Y-25648714D01*
X93220285Y-25648714D02*
X93029809Y-25601095D01*
X93029809Y-25601095D02*
X92886952Y-25601095D01*
X92886952Y-25601095D02*
X92696476Y-25648714D01*
X92696476Y-25648714D02*
X92601238Y-25696333D01*
X92601238Y-25696333D02*
X92506000Y-25791571D01*
X92506000Y-25791571D02*
X92458380Y-25934428D01*
X92458380Y-25934428D02*
X92458380Y-26029666D01*
X92458380Y-26029666D02*
X92506000Y-26172523D01*
X92506000Y-26172523D02*
X92553619Y-26220142D01*
X93458380Y-27172523D02*
X93458380Y-26601095D01*
X93458380Y-26886809D02*
X92458380Y-26886809D01*
X92458380Y-26886809D02*
X92601238Y-26791571D01*
X92601238Y-26791571D02*
X92696476Y-26696333D01*
X92696476Y-26696333D02*
X92744095Y-26601095D01*
X92553619Y-27553476D02*
X92506000Y-27601095D01*
X92506000Y-27601095D02*
X92458380Y-27696333D01*
X92458380Y-27696333D02*
X92458380Y-27934428D01*
X92458380Y-27934428D02*
X92506000Y-28029666D01*
X92506000Y-28029666D02*
X92553619Y-28077285D01*
X92553619Y-28077285D02*
X92648857Y-28124904D01*
X92648857Y-28124904D02*
X92744095Y-28124904D01*
X92744095Y-28124904D02*
X92886952Y-28077285D01*
X92886952Y-28077285D02*
X93458380Y-27505857D01*
X93458380Y-27505857D02*
X93458380Y-28124904D01*
%TO.C,C13*%
X100377142Y-71239142D02*
X100424761Y-71191523D01*
X100424761Y-71191523D02*
X100472380Y-71048666D01*
X100472380Y-71048666D02*
X100472380Y-70953428D01*
X100472380Y-70953428D02*
X100424761Y-70810571D01*
X100424761Y-70810571D02*
X100329523Y-70715333D01*
X100329523Y-70715333D02*
X100234285Y-70667714D01*
X100234285Y-70667714D02*
X100043809Y-70620095D01*
X100043809Y-70620095D02*
X99900952Y-70620095D01*
X99900952Y-70620095D02*
X99710476Y-70667714D01*
X99710476Y-70667714D02*
X99615238Y-70715333D01*
X99615238Y-70715333D02*
X99520000Y-70810571D01*
X99520000Y-70810571D02*
X99472380Y-70953428D01*
X99472380Y-70953428D02*
X99472380Y-71048666D01*
X99472380Y-71048666D02*
X99520000Y-71191523D01*
X99520000Y-71191523D02*
X99567619Y-71239142D01*
X100472380Y-72191523D02*
X100472380Y-71620095D01*
X100472380Y-71905809D02*
X99472380Y-71905809D01*
X99472380Y-71905809D02*
X99615238Y-71810571D01*
X99615238Y-71810571D02*
X99710476Y-71715333D01*
X99710476Y-71715333D02*
X99758095Y-71620095D01*
X99472380Y-72524857D02*
X99472380Y-73143904D01*
X99472380Y-73143904D02*
X99853333Y-72810571D01*
X99853333Y-72810571D02*
X99853333Y-72953428D01*
X99853333Y-72953428D02*
X99900952Y-73048666D01*
X99900952Y-73048666D02*
X99948571Y-73096285D01*
X99948571Y-73096285D02*
X100043809Y-73143904D01*
X100043809Y-73143904D02*
X100281904Y-73143904D01*
X100281904Y-73143904D02*
X100377142Y-73096285D01*
X100377142Y-73096285D02*
X100424761Y-73048666D01*
X100424761Y-73048666D02*
X100472380Y-72953428D01*
X100472380Y-72953428D02*
X100472380Y-72667714D01*
X100472380Y-72667714D02*
X100424761Y-72572476D01*
X100424761Y-72572476D02*
X100377142Y-72524857D01*
%TO.C,C14*%
X87394142Y-83497142D02*
X87441761Y-83449523D01*
X87441761Y-83449523D02*
X87489380Y-83306666D01*
X87489380Y-83306666D02*
X87489380Y-83211428D01*
X87489380Y-83211428D02*
X87441761Y-83068571D01*
X87441761Y-83068571D02*
X87346523Y-82973333D01*
X87346523Y-82973333D02*
X87251285Y-82925714D01*
X87251285Y-82925714D02*
X87060809Y-82878095D01*
X87060809Y-82878095D02*
X86917952Y-82878095D01*
X86917952Y-82878095D02*
X86727476Y-82925714D01*
X86727476Y-82925714D02*
X86632238Y-82973333D01*
X86632238Y-82973333D02*
X86537000Y-83068571D01*
X86537000Y-83068571D02*
X86489380Y-83211428D01*
X86489380Y-83211428D02*
X86489380Y-83306666D01*
X86489380Y-83306666D02*
X86537000Y-83449523D01*
X86537000Y-83449523D02*
X86584619Y-83497142D01*
X87489380Y-84449523D02*
X87489380Y-83878095D01*
X87489380Y-84163809D02*
X86489380Y-84163809D01*
X86489380Y-84163809D02*
X86632238Y-84068571D01*
X86632238Y-84068571D02*
X86727476Y-83973333D01*
X86727476Y-83973333D02*
X86775095Y-83878095D01*
X86822714Y-85306666D02*
X87489380Y-85306666D01*
X86441761Y-85068571D02*
X87156047Y-84830476D01*
X87156047Y-84830476D02*
X87156047Y-85449523D01*
%TO.C,C18*%
X73678142Y-83497142D02*
X73725761Y-83449523D01*
X73725761Y-83449523D02*
X73773380Y-83306666D01*
X73773380Y-83306666D02*
X73773380Y-83211428D01*
X73773380Y-83211428D02*
X73725761Y-83068571D01*
X73725761Y-83068571D02*
X73630523Y-82973333D01*
X73630523Y-82973333D02*
X73535285Y-82925714D01*
X73535285Y-82925714D02*
X73344809Y-82878095D01*
X73344809Y-82878095D02*
X73201952Y-82878095D01*
X73201952Y-82878095D02*
X73011476Y-82925714D01*
X73011476Y-82925714D02*
X72916238Y-82973333D01*
X72916238Y-82973333D02*
X72821000Y-83068571D01*
X72821000Y-83068571D02*
X72773380Y-83211428D01*
X72773380Y-83211428D02*
X72773380Y-83306666D01*
X72773380Y-83306666D02*
X72821000Y-83449523D01*
X72821000Y-83449523D02*
X72868619Y-83497142D01*
X73773380Y-84449523D02*
X73773380Y-83878095D01*
X73773380Y-84163809D02*
X72773380Y-84163809D01*
X72773380Y-84163809D02*
X72916238Y-84068571D01*
X72916238Y-84068571D02*
X73011476Y-83973333D01*
X73011476Y-83973333D02*
X73059095Y-83878095D01*
X73201952Y-85020952D02*
X73154333Y-84925714D01*
X73154333Y-84925714D02*
X73106714Y-84878095D01*
X73106714Y-84878095D02*
X73011476Y-84830476D01*
X73011476Y-84830476D02*
X72963857Y-84830476D01*
X72963857Y-84830476D02*
X72868619Y-84878095D01*
X72868619Y-84878095D02*
X72821000Y-84925714D01*
X72821000Y-84925714D02*
X72773380Y-85020952D01*
X72773380Y-85020952D02*
X72773380Y-85211428D01*
X72773380Y-85211428D02*
X72821000Y-85306666D01*
X72821000Y-85306666D02*
X72868619Y-85354285D01*
X72868619Y-85354285D02*
X72963857Y-85401904D01*
X72963857Y-85401904D02*
X73011476Y-85401904D01*
X73011476Y-85401904D02*
X73106714Y-85354285D01*
X73106714Y-85354285D02*
X73154333Y-85306666D01*
X73154333Y-85306666D02*
X73201952Y-85211428D01*
X73201952Y-85211428D02*
X73201952Y-85020952D01*
X73201952Y-85020952D02*
X73249571Y-84925714D01*
X73249571Y-84925714D02*
X73297190Y-84878095D01*
X73297190Y-84878095D02*
X73392428Y-84830476D01*
X73392428Y-84830476D02*
X73582904Y-84830476D01*
X73582904Y-84830476D02*
X73678142Y-84878095D01*
X73678142Y-84878095D02*
X73725761Y-84925714D01*
X73725761Y-84925714D02*
X73773380Y-85020952D01*
X73773380Y-85020952D02*
X73773380Y-85211428D01*
X73773380Y-85211428D02*
X73725761Y-85306666D01*
X73725761Y-85306666D02*
X73678142Y-85354285D01*
X73678142Y-85354285D02*
X73582904Y-85401904D01*
X73582904Y-85401904D02*
X73392428Y-85401904D01*
X73392428Y-85401904D02*
X73297190Y-85354285D01*
X73297190Y-85354285D02*
X73249571Y-85306666D01*
X73249571Y-85306666D02*
X73201952Y-85211428D01*
%TO.C,C2*%
X33220566Y-31983142D02*
X33268185Y-32030761D01*
X33268185Y-32030761D02*
X33411042Y-32078380D01*
X33411042Y-32078380D02*
X33506280Y-32078380D01*
X33506280Y-32078380D02*
X33649137Y-32030761D01*
X33649137Y-32030761D02*
X33744375Y-31935523D01*
X33744375Y-31935523D02*
X33791994Y-31840285D01*
X33791994Y-31840285D02*
X33839613Y-31649809D01*
X33839613Y-31649809D02*
X33839613Y-31506952D01*
X33839613Y-31506952D02*
X33791994Y-31316476D01*
X33791994Y-31316476D02*
X33744375Y-31221238D01*
X33744375Y-31221238D02*
X33649137Y-31126000D01*
X33649137Y-31126000D02*
X33506280Y-31078380D01*
X33506280Y-31078380D02*
X33411042Y-31078380D01*
X33411042Y-31078380D02*
X33268185Y-31126000D01*
X33268185Y-31126000D02*
X33220566Y-31173619D01*
X32839613Y-31173619D02*
X32791994Y-31126000D01*
X32791994Y-31126000D02*
X32696756Y-31078380D01*
X32696756Y-31078380D02*
X32458661Y-31078380D01*
X32458661Y-31078380D02*
X32363423Y-31126000D01*
X32363423Y-31126000D02*
X32315804Y-31173619D01*
X32315804Y-31173619D02*
X32268185Y-31268857D01*
X32268185Y-31268857D02*
X32268185Y-31364095D01*
X32268185Y-31364095D02*
X32315804Y-31506952D01*
X32315804Y-31506952D02*
X32887232Y-32078380D01*
X32887232Y-32078380D02*
X32268185Y-32078380D01*
%TO.C,C3*%
X33220566Y-33908342D02*
X33268185Y-33955961D01*
X33268185Y-33955961D02*
X33411042Y-34003580D01*
X33411042Y-34003580D02*
X33506280Y-34003580D01*
X33506280Y-34003580D02*
X33649137Y-33955961D01*
X33649137Y-33955961D02*
X33744375Y-33860723D01*
X33744375Y-33860723D02*
X33791994Y-33765485D01*
X33791994Y-33765485D02*
X33839613Y-33575009D01*
X33839613Y-33575009D02*
X33839613Y-33432152D01*
X33839613Y-33432152D02*
X33791994Y-33241676D01*
X33791994Y-33241676D02*
X33744375Y-33146438D01*
X33744375Y-33146438D02*
X33649137Y-33051200D01*
X33649137Y-33051200D02*
X33506280Y-33003580D01*
X33506280Y-33003580D02*
X33411042Y-33003580D01*
X33411042Y-33003580D02*
X33268185Y-33051200D01*
X33268185Y-33051200D02*
X33220566Y-33098819D01*
X32887232Y-33003580D02*
X32268185Y-33003580D01*
X32268185Y-33003580D02*
X32601518Y-33384533D01*
X32601518Y-33384533D02*
X32458661Y-33384533D01*
X32458661Y-33384533D02*
X32363423Y-33432152D01*
X32363423Y-33432152D02*
X32315804Y-33479771D01*
X32315804Y-33479771D02*
X32268185Y-33575009D01*
X32268185Y-33575009D02*
X32268185Y-33813104D01*
X32268185Y-33813104D02*
X32315804Y-33908342D01*
X32315804Y-33908342D02*
X32363423Y-33955961D01*
X32363423Y-33955961D02*
X32458661Y-34003580D01*
X32458661Y-34003580D02*
X32744375Y-34003580D01*
X32744375Y-34003580D02*
X32839613Y-33955961D01*
X32839613Y-33955961D02*
X32887232Y-33908342D01*
%TO.C,R19*%
X53986857Y-61328380D02*
X54320190Y-60852190D01*
X54558285Y-61328380D02*
X54558285Y-60328380D01*
X54558285Y-60328380D02*
X54177333Y-60328380D01*
X54177333Y-60328380D02*
X54082095Y-60376000D01*
X54082095Y-60376000D02*
X54034476Y-60423619D01*
X54034476Y-60423619D02*
X53986857Y-60518857D01*
X53986857Y-60518857D02*
X53986857Y-60661714D01*
X53986857Y-60661714D02*
X54034476Y-60756952D01*
X54034476Y-60756952D02*
X54082095Y-60804571D01*
X54082095Y-60804571D02*
X54177333Y-60852190D01*
X54177333Y-60852190D02*
X54558285Y-60852190D01*
X53034476Y-61328380D02*
X53605904Y-61328380D01*
X53320190Y-61328380D02*
X53320190Y-60328380D01*
X53320190Y-60328380D02*
X53415428Y-60471238D01*
X53415428Y-60471238D02*
X53510666Y-60566476D01*
X53510666Y-60566476D02*
X53605904Y-60614095D01*
X52558285Y-61328380D02*
X52367809Y-61328380D01*
X52367809Y-61328380D02*
X52272571Y-61280761D01*
X52272571Y-61280761D02*
X52224952Y-61233142D01*
X52224952Y-61233142D02*
X52129714Y-61090285D01*
X52129714Y-61090285D02*
X52082095Y-60899809D01*
X52082095Y-60899809D02*
X52082095Y-60518857D01*
X52082095Y-60518857D02*
X52129714Y-60423619D01*
X52129714Y-60423619D02*
X52177333Y-60376000D01*
X52177333Y-60376000D02*
X52272571Y-60328380D01*
X52272571Y-60328380D02*
X52463047Y-60328380D01*
X52463047Y-60328380D02*
X52558285Y-60376000D01*
X52558285Y-60376000D02*
X52605904Y-60423619D01*
X52605904Y-60423619D02*
X52653523Y-60518857D01*
X52653523Y-60518857D02*
X52653523Y-60756952D01*
X52653523Y-60756952D02*
X52605904Y-60852190D01*
X52605904Y-60852190D02*
X52558285Y-60899809D01*
X52558285Y-60899809D02*
X52463047Y-60947428D01*
X52463047Y-60947428D02*
X52272571Y-60947428D01*
X52272571Y-60947428D02*
X52177333Y-60899809D01*
X52177333Y-60899809D02*
X52129714Y-60852190D01*
X52129714Y-60852190D02*
X52082095Y-60756952D01*
%TO.C,R14*%
X53982857Y-71117380D02*
X54316190Y-70641190D01*
X54554285Y-71117380D02*
X54554285Y-70117380D01*
X54554285Y-70117380D02*
X54173333Y-70117380D01*
X54173333Y-70117380D02*
X54078095Y-70165000D01*
X54078095Y-70165000D02*
X54030476Y-70212619D01*
X54030476Y-70212619D02*
X53982857Y-70307857D01*
X53982857Y-70307857D02*
X53982857Y-70450714D01*
X53982857Y-70450714D02*
X54030476Y-70545952D01*
X54030476Y-70545952D02*
X54078095Y-70593571D01*
X54078095Y-70593571D02*
X54173333Y-70641190D01*
X54173333Y-70641190D02*
X54554285Y-70641190D01*
X53030476Y-71117380D02*
X53601904Y-71117380D01*
X53316190Y-71117380D02*
X53316190Y-70117380D01*
X53316190Y-70117380D02*
X53411428Y-70260238D01*
X53411428Y-70260238D02*
X53506666Y-70355476D01*
X53506666Y-70355476D02*
X53601904Y-70403095D01*
X52173333Y-70450714D02*
X52173333Y-71117380D01*
X52411428Y-70069761D02*
X52649523Y-70784047D01*
X52649523Y-70784047D02*
X52030476Y-70784047D01*
%TO.C,R15*%
X53982857Y-65077380D02*
X54316190Y-64601190D01*
X54554285Y-65077380D02*
X54554285Y-64077380D01*
X54554285Y-64077380D02*
X54173333Y-64077380D01*
X54173333Y-64077380D02*
X54078095Y-64125000D01*
X54078095Y-64125000D02*
X54030476Y-64172619D01*
X54030476Y-64172619D02*
X53982857Y-64267857D01*
X53982857Y-64267857D02*
X53982857Y-64410714D01*
X53982857Y-64410714D02*
X54030476Y-64505952D01*
X54030476Y-64505952D02*
X54078095Y-64553571D01*
X54078095Y-64553571D02*
X54173333Y-64601190D01*
X54173333Y-64601190D02*
X54554285Y-64601190D01*
X53030476Y-65077380D02*
X53601904Y-65077380D01*
X53316190Y-65077380D02*
X53316190Y-64077380D01*
X53316190Y-64077380D02*
X53411428Y-64220238D01*
X53411428Y-64220238D02*
X53506666Y-64315476D01*
X53506666Y-64315476D02*
X53601904Y-64363095D01*
X52125714Y-64077380D02*
X52601904Y-64077380D01*
X52601904Y-64077380D02*
X52649523Y-64553571D01*
X52649523Y-64553571D02*
X52601904Y-64505952D01*
X52601904Y-64505952D02*
X52506666Y-64458333D01*
X52506666Y-64458333D02*
X52268571Y-64458333D01*
X52268571Y-64458333D02*
X52173333Y-64505952D01*
X52173333Y-64505952D02*
X52125714Y-64553571D01*
X52125714Y-64553571D02*
X52078095Y-64648809D01*
X52078095Y-64648809D02*
X52078095Y-64886904D01*
X52078095Y-64886904D02*
X52125714Y-64982142D01*
X52125714Y-64982142D02*
X52173333Y-65029761D01*
X52173333Y-65029761D02*
X52268571Y-65077380D01*
X52268571Y-65077380D02*
X52506666Y-65077380D01*
X52506666Y-65077380D02*
X52601904Y-65029761D01*
X52601904Y-65029761D02*
X52649523Y-64982142D01*
%TO.C,R18*%
X62367380Y-68257142D02*
X61891190Y-67923809D01*
X62367380Y-67685714D02*
X61367380Y-67685714D01*
X61367380Y-67685714D02*
X61367380Y-68066666D01*
X61367380Y-68066666D02*
X61415000Y-68161904D01*
X61415000Y-68161904D02*
X61462619Y-68209523D01*
X61462619Y-68209523D02*
X61557857Y-68257142D01*
X61557857Y-68257142D02*
X61700714Y-68257142D01*
X61700714Y-68257142D02*
X61795952Y-68209523D01*
X61795952Y-68209523D02*
X61843571Y-68161904D01*
X61843571Y-68161904D02*
X61891190Y-68066666D01*
X61891190Y-68066666D02*
X61891190Y-67685714D01*
X62367380Y-69209523D02*
X62367380Y-68638095D01*
X62367380Y-68923809D02*
X61367380Y-68923809D01*
X61367380Y-68923809D02*
X61510238Y-68828571D01*
X61510238Y-68828571D02*
X61605476Y-68733333D01*
X61605476Y-68733333D02*
X61653095Y-68638095D01*
X61795952Y-69780952D02*
X61748333Y-69685714D01*
X61748333Y-69685714D02*
X61700714Y-69638095D01*
X61700714Y-69638095D02*
X61605476Y-69590476D01*
X61605476Y-69590476D02*
X61557857Y-69590476D01*
X61557857Y-69590476D02*
X61462619Y-69638095D01*
X61462619Y-69638095D02*
X61415000Y-69685714D01*
X61415000Y-69685714D02*
X61367380Y-69780952D01*
X61367380Y-69780952D02*
X61367380Y-69971428D01*
X61367380Y-69971428D02*
X61415000Y-70066666D01*
X61415000Y-70066666D02*
X61462619Y-70114285D01*
X61462619Y-70114285D02*
X61557857Y-70161904D01*
X61557857Y-70161904D02*
X61605476Y-70161904D01*
X61605476Y-70161904D02*
X61700714Y-70114285D01*
X61700714Y-70114285D02*
X61748333Y-70066666D01*
X61748333Y-70066666D02*
X61795952Y-69971428D01*
X61795952Y-69971428D02*
X61795952Y-69780952D01*
X61795952Y-69780952D02*
X61843571Y-69685714D01*
X61843571Y-69685714D02*
X61891190Y-69638095D01*
X61891190Y-69638095D02*
X61986428Y-69590476D01*
X61986428Y-69590476D02*
X62176904Y-69590476D01*
X62176904Y-69590476D02*
X62272142Y-69638095D01*
X62272142Y-69638095D02*
X62319761Y-69685714D01*
X62319761Y-69685714D02*
X62367380Y-69780952D01*
X62367380Y-69780952D02*
X62367380Y-69971428D01*
X62367380Y-69971428D02*
X62319761Y-70066666D01*
X62319761Y-70066666D02*
X62272142Y-70114285D01*
X62272142Y-70114285D02*
X62176904Y-70161904D01*
X62176904Y-70161904D02*
X61986428Y-70161904D01*
X61986428Y-70161904D02*
X61891190Y-70114285D01*
X61891190Y-70114285D02*
X61843571Y-70066666D01*
X61843571Y-70066666D02*
X61795952Y-69971428D01*
%TO.C,C19*%
X114892857Y-82772142D02*
X114940476Y-82819761D01*
X114940476Y-82819761D02*
X115083333Y-82867380D01*
X115083333Y-82867380D02*
X115178571Y-82867380D01*
X115178571Y-82867380D02*
X115321428Y-82819761D01*
X115321428Y-82819761D02*
X115416666Y-82724523D01*
X115416666Y-82724523D02*
X115464285Y-82629285D01*
X115464285Y-82629285D02*
X115511904Y-82438809D01*
X115511904Y-82438809D02*
X115511904Y-82295952D01*
X115511904Y-82295952D02*
X115464285Y-82105476D01*
X115464285Y-82105476D02*
X115416666Y-82010238D01*
X115416666Y-82010238D02*
X115321428Y-81915000D01*
X115321428Y-81915000D02*
X115178571Y-81867380D01*
X115178571Y-81867380D02*
X115083333Y-81867380D01*
X115083333Y-81867380D02*
X114940476Y-81915000D01*
X114940476Y-81915000D02*
X114892857Y-81962619D01*
X113940476Y-82867380D02*
X114511904Y-82867380D01*
X114226190Y-82867380D02*
X114226190Y-81867380D01*
X114226190Y-81867380D02*
X114321428Y-82010238D01*
X114321428Y-82010238D02*
X114416666Y-82105476D01*
X114416666Y-82105476D02*
X114511904Y-82153095D01*
X113464285Y-82867380D02*
X113273809Y-82867380D01*
X113273809Y-82867380D02*
X113178571Y-82819761D01*
X113178571Y-82819761D02*
X113130952Y-82772142D01*
X113130952Y-82772142D02*
X113035714Y-82629285D01*
X113035714Y-82629285D02*
X112988095Y-82438809D01*
X112988095Y-82438809D02*
X112988095Y-82057857D01*
X112988095Y-82057857D02*
X113035714Y-81962619D01*
X113035714Y-81962619D02*
X113083333Y-81915000D01*
X113083333Y-81915000D02*
X113178571Y-81867380D01*
X113178571Y-81867380D02*
X113369047Y-81867380D01*
X113369047Y-81867380D02*
X113464285Y-81915000D01*
X113464285Y-81915000D02*
X113511904Y-81962619D01*
X113511904Y-81962619D02*
X113559523Y-82057857D01*
X113559523Y-82057857D02*
X113559523Y-82295952D01*
X113559523Y-82295952D02*
X113511904Y-82391190D01*
X113511904Y-82391190D02*
X113464285Y-82438809D01*
X113464285Y-82438809D02*
X113369047Y-82486428D01*
X113369047Y-82486428D02*
X113178571Y-82486428D01*
X113178571Y-82486428D02*
X113083333Y-82438809D01*
X113083333Y-82438809D02*
X113035714Y-82391190D01*
X113035714Y-82391190D02*
X112988095Y-82295952D01*
%TO.C,R11*%
X106617380Y-80607142D02*
X106141190Y-80273809D01*
X106617380Y-80035714D02*
X105617380Y-80035714D01*
X105617380Y-80035714D02*
X105617380Y-80416666D01*
X105617380Y-80416666D02*
X105665000Y-80511904D01*
X105665000Y-80511904D02*
X105712619Y-80559523D01*
X105712619Y-80559523D02*
X105807857Y-80607142D01*
X105807857Y-80607142D02*
X105950714Y-80607142D01*
X105950714Y-80607142D02*
X106045952Y-80559523D01*
X106045952Y-80559523D02*
X106093571Y-80511904D01*
X106093571Y-80511904D02*
X106141190Y-80416666D01*
X106141190Y-80416666D02*
X106141190Y-80035714D01*
X106617380Y-81559523D02*
X106617380Y-80988095D01*
X106617380Y-81273809D02*
X105617380Y-81273809D01*
X105617380Y-81273809D02*
X105760238Y-81178571D01*
X105760238Y-81178571D02*
X105855476Y-81083333D01*
X105855476Y-81083333D02*
X105903095Y-80988095D01*
X106617380Y-82511904D02*
X106617380Y-81940476D01*
X106617380Y-82226190D02*
X105617380Y-82226190D01*
X105617380Y-82226190D02*
X105760238Y-82130952D01*
X105760238Y-82130952D02*
X105855476Y-82035714D01*
X105855476Y-82035714D02*
X105903095Y-81940476D01*
%TO.C,C6*%
X40912142Y-111138333D02*
X40959761Y-111090714D01*
X40959761Y-111090714D02*
X41007380Y-110947857D01*
X41007380Y-110947857D02*
X41007380Y-110852619D01*
X41007380Y-110852619D02*
X40959761Y-110709762D01*
X40959761Y-110709762D02*
X40864523Y-110614524D01*
X40864523Y-110614524D02*
X40769285Y-110566905D01*
X40769285Y-110566905D02*
X40578809Y-110519286D01*
X40578809Y-110519286D02*
X40435952Y-110519286D01*
X40435952Y-110519286D02*
X40245476Y-110566905D01*
X40245476Y-110566905D02*
X40150238Y-110614524D01*
X40150238Y-110614524D02*
X40055000Y-110709762D01*
X40055000Y-110709762D02*
X40007380Y-110852619D01*
X40007380Y-110852619D02*
X40007380Y-110947857D01*
X40007380Y-110947857D02*
X40055000Y-111090714D01*
X40055000Y-111090714D02*
X40102619Y-111138333D01*
X40007380Y-111995476D02*
X40007380Y-111805000D01*
X40007380Y-111805000D02*
X40055000Y-111709762D01*
X40055000Y-111709762D02*
X40102619Y-111662143D01*
X40102619Y-111662143D02*
X40245476Y-111566905D01*
X40245476Y-111566905D02*
X40435952Y-111519286D01*
X40435952Y-111519286D02*
X40816904Y-111519286D01*
X40816904Y-111519286D02*
X40912142Y-111566905D01*
X40912142Y-111566905D02*
X40959761Y-111614524D01*
X40959761Y-111614524D02*
X41007380Y-111709762D01*
X41007380Y-111709762D02*
X41007380Y-111900238D01*
X41007380Y-111900238D02*
X40959761Y-111995476D01*
X40959761Y-111995476D02*
X40912142Y-112043095D01*
X40912142Y-112043095D02*
X40816904Y-112090714D01*
X40816904Y-112090714D02*
X40578809Y-112090714D01*
X40578809Y-112090714D02*
X40483571Y-112043095D01*
X40483571Y-112043095D02*
X40435952Y-111995476D01*
X40435952Y-111995476D02*
X40388333Y-111900238D01*
X40388333Y-111900238D02*
X40388333Y-111709762D01*
X40388333Y-111709762D02*
X40435952Y-111614524D01*
X40435952Y-111614524D02*
X40483571Y-111566905D01*
X40483571Y-111566905D02*
X40578809Y-111519286D01*
%TO.C,C8*%
X113762142Y-80083333D02*
X113809761Y-80035714D01*
X113809761Y-80035714D02*
X113857380Y-79892857D01*
X113857380Y-79892857D02*
X113857380Y-79797619D01*
X113857380Y-79797619D02*
X113809761Y-79654762D01*
X113809761Y-79654762D02*
X113714523Y-79559524D01*
X113714523Y-79559524D02*
X113619285Y-79511905D01*
X113619285Y-79511905D02*
X113428809Y-79464286D01*
X113428809Y-79464286D02*
X113285952Y-79464286D01*
X113285952Y-79464286D02*
X113095476Y-79511905D01*
X113095476Y-79511905D02*
X113000238Y-79559524D01*
X113000238Y-79559524D02*
X112905000Y-79654762D01*
X112905000Y-79654762D02*
X112857380Y-79797619D01*
X112857380Y-79797619D02*
X112857380Y-79892857D01*
X112857380Y-79892857D02*
X112905000Y-80035714D01*
X112905000Y-80035714D02*
X112952619Y-80083333D01*
X113285952Y-80654762D02*
X113238333Y-80559524D01*
X113238333Y-80559524D02*
X113190714Y-80511905D01*
X113190714Y-80511905D02*
X113095476Y-80464286D01*
X113095476Y-80464286D02*
X113047857Y-80464286D01*
X113047857Y-80464286D02*
X112952619Y-80511905D01*
X112952619Y-80511905D02*
X112905000Y-80559524D01*
X112905000Y-80559524D02*
X112857380Y-80654762D01*
X112857380Y-80654762D02*
X112857380Y-80845238D01*
X112857380Y-80845238D02*
X112905000Y-80940476D01*
X112905000Y-80940476D02*
X112952619Y-80988095D01*
X112952619Y-80988095D02*
X113047857Y-81035714D01*
X113047857Y-81035714D02*
X113095476Y-81035714D01*
X113095476Y-81035714D02*
X113190714Y-80988095D01*
X113190714Y-80988095D02*
X113238333Y-80940476D01*
X113238333Y-80940476D02*
X113285952Y-80845238D01*
X113285952Y-80845238D02*
X113285952Y-80654762D01*
X113285952Y-80654762D02*
X113333571Y-80559524D01*
X113333571Y-80559524D02*
X113381190Y-80511905D01*
X113381190Y-80511905D02*
X113476428Y-80464286D01*
X113476428Y-80464286D02*
X113666904Y-80464286D01*
X113666904Y-80464286D02*
X113762142Y-80511905D01*
X113762142Y-80511905D02*
X113809761Y-80559524D01*
X113809761Y-80559524D02*
X113857380Y-80654762D01*
X113857380Y-80654762D02*
X113857380Y-80845238D01*
X113857380Y-80845238D02*
X113809761Y-80940476D01*
X113809761Y-80940476D02*
X113762142Y-80988095D01*
X113762142Y-80988095D02*
X113666904Y-81035714D01*
X113666904Y-81035714D02*
X113476428Y-81035714D01*
X113476428Y-81035714D02*
X113381190Y-80988095D01*
X113381190Y-80988095D02*
X113333571Y-80940476D01*
X113333571Y-80940476D02*
X113285952Y-80845238D01*
%TO.C,R12*%
X113017380Y-88857142D02*
X112541190Y-88523809D01*
X113017380Y-88285714D02*
X112017380Y-88285714D01*
X112017380Y-88285714D02*
X112017380Y-88666666D01*
X112017380Y-88666666D02*
X112065000Y-88761904D01*
X112065000Y-88761904D02*
X112112619Y-88809523D01*
X112112619Y-88809523D02*
X112207857Y-88857142D01*
X112207857Y-88857142D02*
X112350714Y-88857142D01*
X112350714Y-88857142D02*
X112445952Y-88809523D01*
X112445952Y-88809523D02*
X112493571Y-88761904D01*
X112493571Y-88761904D02*
X112541190Y-88666666D01*
X112541190Y-88666666D02*
X112541190Y-88285714D01*
X113017380Y-89809523D02*
X113017380Y-89238095D01*
X113017380Y-89523809D02*
X112017380Y-89523809D01*
X112017380Y-89523809D02*
X112160238Y-89428571D01*
X112160238Y-89428571D02*
X112255476Y-89333333D01*
X112255476Y-89333333D02*
X112303095Y-89238095D01*
X112112619Y-90190476D02*
X112065000Y-90238095D01*
X112065000Y-90238095D02*
X112017380Y-90333333D01*
X112017380Y-90333333D02*
X112017380Y-90571428D01*
X112017380Y-90571428D02*
X112065000Y-90666666D01*
X112065000Y-90666666D02*
X112112619Y-90714285D01*
X112112619Y-90714285D02*
X112207857Y-90761904D01*
X112207857Y-90761904D02*
X112303095Y-90761904D01*
X112303095Y-90761904D02*
X112445952Y-90714285D01*
X112445952Y-90714285D02*
X113017380Y-90142857D01*
X113017380Y-90142857D02*
X113017380Y-90761904D01*
%TO.C,R13*%
X107867380Y-88857142D02*
X107391190Y-88523809D01*
X107867380Y-88285714D02*
X106867380Y-88285714D01*
X106867380Y-88285714D02*
X106867380Y-88666666D01*
X106867380Y-88666666D02*
X106915000Y-88761904D01*
X106915000Y-88761904D02*
X106962619Y-88809523D01*
X106962619Y-88809523D02*
X107057857Y-88857142D01*
X107057857Y-88857142D02*
X107200714Y-88857142D01*
X107200714Y-88857142D02*
X107295952Y-88809523D01*
X107295952Y-88809523D02*
X107343571Y-88761904D01*
X107343571Y-88761904D02*
X107391190Y-88666666D01*
X107391190Y-88666666D02*
X107391190Y-88285714D01*
X107867380Y-89809523D02*
X107867380Y-89238095D01*
X107867380Y-89523809D02*
X106867380Y-89523809D01*
X106867380Y-89523809D02*
X107010238Y-89428571D01*
X107010238Y-89428571D02*
X107105476Y-89333333D01*
X107105476Y-89333333D02*
X107153095Y-89238095D01*
X106867380Y-90142857D02*
X106867380Y-90761904D01*
X106867380Y-90761904D02*
X107248333Y-90428571D01*
X107248333Y-90428571D02*
X107248333Y-90571428D01*
X107248333Y-90571428D02*
X107295952Y-90666666D01*
X107295952Y-90666666D02*
X107343571Y-90714285D01*
X107343571Y-90714285D02*
X107438809Y-90761904D01*
X107438809Y-90761904D02*
X107676904Y-90761904D01*
X107676904Y-90761904D02*
X107772142Y-90714285D01*
X107772142Y-90714285D02*
X107819761Y-90666666D01*
X107819761Y-90666666D02*
X107867380Y-90571428D01*
X107867380Y-90571428D02*
X107867380Y-90285714D01*
X107867380Y-90285714D02*
X107819761Y-90190476D01*
X107819761Y-90190476D02*
X107772142Y-90142857D01*
%TO.C,R17*%
X55149357Y-89953380D02*
X55482690Y-89477190D01*
X55720785Y-89953380D02*
X55720785Y-88953380D01*
X55720785Y-88953380D02*
X55339833Y-88953380D01*
X55339833Y-88953380D02*
X55244595Y-89001000D01*
X55244595Y-89001000D02*
X55196976Y-89048619D01*
X55196976Y-89048619D02*
X55149357Y-89143857D01*
X55149357Y-89143857D02*
X55149357Y-89286714D01*
X55149357Y-89286714D02*
X55196976Y-89381952D01*
X55196976Y-89381952D02*
X55244595Y-89429571D01*
X55244595Y-89429571D02*
X55339833Y-89477190D01*
X55339833Y-89477190D02*
X55720785Y-89477190D01*
X54196976Y-89953380D02*
X54768404Y-89953380D01*
X54482690Y-89953380D02*
X54482690Y-88953380D01*
X54482690Y-88953380D02*
X54577928Y-89096238D01*
X54577928Y-89096238D02*
X54673166Y-89191476D01*
X54673166Y-89191476D02*
X54768404Y-89239095D01*
X53863642Y-88953380D02*
X53196976Y-88953380D01*
X53196976Y-88953380D02*
X53625547Y-89953380D01*
%TO.C,C15*%
X99372142Y-110857142D02*
X99419761Y-110809523D01*
X99419761Y-110809523D02*
X99467380Y-110666666D01*
X99467380Y-110666666D02*
X99467380Y-110571428D01*
X99467380Y-110571428D02*
X99419761Y-110428571D01*
X99419761Y-110428571D02*
X99324523Y-110333333D01*
X99324523Y-110333333D02*
X99229285Y-110285714D01*
X99229285Y-110285714D02*
X99038809Y-110238095D01*
X99038809Y-110238095D02*
X98895952Y-110238095D01*
X98895952Y-110238095D02*
X98705476Y-110285714D01*
X98705476Y-110285714D02*
X98610238Y-110333333D01*
X98610238Y-110333333D02*
X98515000Y-110428571D01*
X98515000Y-110428571D02*
X98467380Y-110571428D01*
X98467380Y-110571428D02*
X98467380Y-110666666D01*
X98467380Y-110666666D02*
X98515000Y-110809523D01*
X98515000Y-110809523D02*
X98562619Y-110857142D01*
X99467380Y-111809523D02*
X99467380Y-111238095D01*
X99467380Y-111523809D02*
X98467380Y-111523809D01*
X98467380Y-111523809D02*
X98610238Y-111428571D01*
X98610238Y-111428571D02*
X98705476Y-111333333D01*
X98705476Y-111333333D02*
X98753095Y-111238095D01*
X98467380Y-112714285D02*
X98467380Y-112238095D01*
X98467380Y-112238095D02*
X98943571Y-112190476D01*
X98943571Y-112190476D02*
X98895952Y-112238095D01*
X98895952Y-112238095D02*
X98848333Y-112333333D01*
X98848333Y-112333333D02*
X98848333Y-112571428D01*
X98848333Y-112571428D02*
X98895952Y-112666666D01*
X98895952Y-112666666D02*
X98943571Y-112714285D01*
X98943571Y-112714285D02*
X99038809Y-112761904D01*
X99038809Y-112761904D02*
X99276904Y-112761904D01*
X99276904Y-112761904D02*
X99372142Y-112714285D01*
X99372142Y-112714285D02*
X99419761Y-112666666D01*
X99419761Y-112666666D02*
X99467380Y-112571428D01*
X99467380Y-112571428D02*
X99467380Y-112333333D01*
X99467380Y-112333333D02*
X99419761Y-112238095D01*
X99419761Y-112238095D02*
X99372142Y-112190476D01*
%TO.C,C17*%
X106652857Y-112032142D02*
X106700476Y-112079761D01*
X106700476Y-112079761D02*
X106843333Y-112127380D01*
X106843333Y-112127380D02*
X106938571Y-112127380D01*
X106938571Y-112127380D02*
X107081428Y-112079761D01*
X107081428Y-112079761D02*
X107176666Y-111984523D01*
X107176666Y-111984523D02*
X107224285Y-111889285D01*
X107224285Y-111889285D02*
X107271904Y-111698809D01*
X107271904Y-111698809D02*
X107271904Y-111555952D01*
X107271904Y-111555952D02*
X107224285Y-111365476D01*
X107224285Y-111365476D02*
X107176666Y-111270238D01*
X107176666Y-111270238D02*
X107081428Y-111175000D01*
X107081428Y-111175000D02*
X106938571Y-111127380D01*
X106938571Y-111127380D02*
X106843333Y-111127380D01*
X106843333Y-111127380D02*
X106700476Y-111175000D01*
X106700476Y-111175000D02*
X106652857Y-111222619D01*
X105700476Y-112127380D02*
X106271904Y-112127380D01*
X105986190Y-112127380D02*
X105986190Y-111127380D01*
X105986190Y-111127380D02*
X106081428Y-111270238D01*
X106081428Y-111270238D02*
X106176666Y-111365476D01*
X106176666Y-111365476D02*
X106271904Y-111413095D01*
X105367142Y-111127380D02*
X104700476Y-111127380D01*
X104700476Y-111127380D02*
X105129047Y-112127380D01*
%TO.C,C16*%
X101272142Y-104112142D02*
X101319761Y-104064523D01*
X101319761Y-104064523D02*
X101367380Y-103921666D01*
X101367380Y-103921666D02*
X101367380Y-103826428D01*
X101367380Y-103826428D02*
X101319761Y-103683571D01*
X101319761Y-103683571D02*
X101224523Y-103588333D01*
X101224523Y-103588333D02*
X101129285Y-103540714D01*
X101129285Y-103540714D02*
X100938809Y-103493095D01*
X100938809Y-103493095D02*
X100795952Y-103493095D01*
X100795952Y-103493095D02*
X100605476Y-103540714D01*
X100605476Y-103540714D02*
X100510238Y-103588333D01*
X100510238Y-103588333D02*
X100415000Y-103683571D01*
X100415000Y-103683571D02*
X100367380Y-103826428D01*
X100367380Y-103826428D02*
X100367380Y-103921666D01*
X100367380Y-103921666D02*
X100415000Y-104064523D01*
X100415000Y-104064523D02*
X100462619Y-104112142D01*
X101367380Y-105064523D02*
X101367380Y-104493095D01*
X101367380Y-104778809D02*
X100367380Y-104778809D01*
X100367380Y-104778809D02*
X100510238Y-104683571D01*
X100510238Y-104683571D02*
X100605476Y-104588333D01*
X100605476Y-104588333D02*
X100653095Y-104493095D01*
X100367380Y-105921666D02*
X100367380Y-105731190D01*
X100367380Y-105731190D02*
X100415000Y-105635952D01*
X100415000Y-105635952D02*
X100462619Y-105588333D01*
X100462619Y-105588333D02*
X100605476Y-105493095D01*
X100605476Y-105493095D02*
X100795952Y-105445476D01*
X100795952Y-105445476D02*
X101176904Y-105445476D01*
X101176904Y-105445476D02*
X101272142Y-105493095D01*
X101272142Y-105493095D02*
X101319761Y-105540714D01*
X101319761Y-105540714D02*
X101367380Y-105635952D01*
X101367380Y-105635952D02*
X101367380Y-105826428D01*
X101367380Y-105826428D02*
X101319761Y-105921666D01*
X101319761Y-105921666D02*
X101272142Y-105969285D01*
X101272142Y-105969285D02*
X101176904Y-106016904D01*
X101176904Y-106016904D02*
X100938809Y-106016904D01*
X100938809Y-106016904D02*
X100843571Y-105969285D01*
X100843571Y-105969285D02*
X100795952Y-105921666D01*
X100795952Y-105921666D02*
X100748333Y-105826428D01*
X100748333Y-105826428D02*
X100748333Y-105635952D01*
X100748333Y-105635952D02*
X100795952Y-105540714D01*
X100795952Y-105540714D02*
X100843571Y-105493095D01*
X100843571Y-105493095D02*
X100938809Y-105445476D01*
%TO.C,C20*%
X71802142Y-44823142D02*
X71849761Y-44775523D01*
X71849761Y-44775523D02*
X71897380Y-44632666D01*
X71897380Y-44632666D02*
X71897380Y-44537428D01*
X71897380Y-44537428D02*
X71849761Y-44394571D01*
X71849761Y-44394571D02*
X71754523Y-44299333D01*
X71754523Y-44299333D02*
X71659285Y-44251714D01*
X71659285Y-44251714D02*
X71468809Y-44204095D01*
X71468809Y-44204095D02*
X71325952Y-44204095D01*
X71325952Y-44204095D02*
X71135476Y-44251714D01*
X71135476Y-44251714D02*
X71040238Y-44299333D01*
X71040238Y-44299333D02*
X70945000Y-44394571D01*
X70945000Y-44394571D02*
X70897380Y-44537428D01*
X70897380Y-44537428D02*
X70897380Y-44632666D01*
X70897380Y-44632666D02*
X70945000Y-44775523D01*
X70945000Y-44775523D02*
X70992619Y-44823142D01*
X70992619Y-45204095D02*
X70945000Y-45251714D01*
X70945000Y-45251714D02*
X70897380Y-45346952D01*
X70897380Y-45346952D02*
X70897380Y-45585047D01*
X70897380Y-45585047D02*
X70945000Y-45680285D01*
X70945000Y-45680285D02*
X70992619Y-45727904D01*
X70992619Y-45727904D02*
X71087857Y-45775523D01*
X71087857Y-45775523D02*
X71183095Y-45775523D01*
X71183095Y-45775523D02*
X71325952Y-45727904D01*
X71325952Y-45727904D02*
X71897380Y-45156476D01*
X71897380Y-45156476D02*
X71897380Y-45775523D01*
X70897380Y-46394571D02*
X70897380Y-46489809D01*
X70897380Y-46489809D02*
X70945000Y-46585047D01*
X70945000Y-46585047D02*
X70992619Y-46632666D01*
X70992619Y-46632666D02*
X71087857Y-46680285D01*
X71087857Y-46680285D02*
X71278333Y-46727904D01*
X71278333Y-46727904D02*
X71516428Y-46727904D01*
X71516428Y-46727904D02*
X71706904Y-46680285D01*
X71706904Y-46680285D02*
X71802142Y-46632666D01*
X71802142Y-46632666D02*
X71849761Y-46585047D01*
X71849761Y-46585047D02*
X71897380Y-46489809D01*
X71897380Y-46489809D02*
X71897380Y-46394571D01*
X71897380Y-46394571D02*
X71849761Y-46299333D01*
X71849761Y-46299333D02*
X71802142Y-46251714D01*
X71802142Y-46251714D02*
X71706904Y-46204095D01*
X71706904Y-46204095D02*
X71516428Y-46156476D01*
X71516428Y-46156476D02*
X71278333Y-46156476D01*
X71278333Y-46156476D02*
X71087857Y-46204095D01*
X71087857Y-46204095D02*
X70992619Y-46251714D01*
X70992619Y-46251714D02*
X70945000Y-46299333D01*
X70945000Y-46299333D02*
X70897380Y-46394571D01*
%TO.C,C22*%
X41772142Y-26281142D02*
X41819761Y-26233523D01*
X41819761Y-26233523D02*
X41867380Y-26090666D01*
X41867380Y-26090666D02*
X41867380Y-25995428D01*
X41867380Y-25995428D02*
X41819761Y-25852571D01*
X41819761Y-25852571D02*
X41724523Y-25757333D01*
X41724523Y-25757333D02*
X41629285Y-25709714D01*
X41629285Y-25709714D02*
X41438809Y-25662095D01*
X41438809Y-25662095D02*
X41295952Y-25662095D01*
X41295952Y-25662095D02*
X41105476Y-25709714D01*
X41105476Y-25709714D02*
X41010238Y-25757333D01*
X41010238Y-25757333D02*
X40915000Y-25852571D01*
X40915000Y-25852571D02*
X40867380Y-25995428D01*
X40867380Y-25995428D02*
X40867380Y-26090666D01*
X40867380Y-26090666D02*
X40915000Y-26233523D01*
X40915000Y-26233523D02*
X40962619Y-26281142D01*
X40962619Y-26662095D02*
X40915000Y-26709714D01*
X40915000Y-26709714D02*
X40867380Y-26804952D01*
X40867380Y-26804952D02*
X40867380Y-27043047D01*
X40867380Y-27043047D02*
X40915000Y-27138285D01*
X40915000Y-27138285D02*
X40962619Y-27185904D01*
X40962619Y-27185904D02*
X41057857Y-27233523D01*
X41057857Y-27233523D02*
X41153095Y-27233523D01*
X41153095Y-27233523D02*
X41295952Y-27185904D01*
X41295952Y-27185904D02*
X41867380Y-26614476D01*
X41867380Y-26614476D02*
X41867380Y-27233523D01*
X40962619Y-27614476D02*
X40915000Y-27662095D01*
X40915000Y-27662095D02*
X40867380Y-27757333D01*
X40867380Y-27757333D02*
X40867380Y-27995428D01*
X40867380Y-27995428D02*
X40915000Y-28090666D01*
X40915000Y-28090666D02*
X40962619Y-28138285D01*
X40962619Y-28138285D02*
X41057857Y-28185904D01*
X41057857Y-28185904D02*
X41153095Y-28185904D01*
X41153095Y-28185904D02*
X41295952Y-28138285D01*
X41295952Y-28138285D02*
X41867380Y-27566857D01*
X41867380Y-27566857D02*
X41867380Y-28185904D01*
%TO.C,C24*%
X65902142Y-26281142D02*
X65949761Y-26233523D01*
X65949761Y-26233523D02*
X65997380Y-26090666D01*
X65997380Y-26090666D02*
X65997380Y-25995428D01*
X65997380Y-25995428D02*
X65949761Y-25852571D01*
X65949761Y-25852571D02*
X65854523Y-25757333D01*
X65854523Y-25757333D02*
X65759285Y-25709714D01*
X65759285Y-25709714D02*
X65568809Y-25662095D01*
X65568809Y-25662095D02*
X65425952Y-25662095D01*
X65425952Y-25662095D02*
X65235476Y-25709714D01*
X65235476Y-25709714D02*
X65140238Y-25757333D01*
X65140238Y-25757333D02*
X65045000Y-25852571D01*
X65045000Y-25852571D02*
X64997380Y-25995428D01*
X64997380Y-25995428D02*
X64997380Y-26090666D01*
X64997380Y-26090666D02*
X65045000Y-26233523D01*
X65045000Y-26233523D02*
X65092619Y-26281142D01*
X65092619Y-26662095D02*
X65045000Y-26709714D01*
X65045000Y-26709714D02*
X64997380Y-26804952D01*
X64997380Y-26804952D02*
X64997380Y-27043047D01*
X64997380Y-27043047D02*
X65045000Y-27138285D01*
X65045000Y-27138285D02*
X65092619Y-27185904D01*
X65092619Y-27185904D02*
X65187857Y-27233523D01*
X65187857Y-27233523D02*
X65283095Y-27233523D01*
X65283095Y-27233523D02*
X65425952Y-27185904D01*
X65425952Y-27185904D02*
X65997380Y-26614476D01*
X65997380Y-26614476D02*
X65997380Y-27233523D01*
X65330714Y-28090666D02*
X65997380Y-28090666D01*
X64949761Y-27852571D02*
X65664047Y-27614476D01*
X65664047Y-27614476D02*
X65664047Y-28233523D01*
%TO.C,R20*%
X57792857Y-73077380D02*
X58126190Y-72601190D01*
X58364285Y-73077380D02*
X58364285Y-72077380D01*
X58364285Y-72077380D02*
X57983333Y-72077380D01*
X57983333Y-72077380D02*
X57888095Y-72125000D01*
X57888095Y-72125000D02*
X57840476Y-72172619D01*
X57840476Y-72172619D02*
X57792857Y-72267857D01*
X57792857Y-72267857D02*
X57792857Y-72410714D01*
X57792857Y-72410714D02*
X57840476Y-72505952D01*
X57840476Y-72505952D02*
X57888095Y-72553571D01*
X57888095Y-72553571D02*
X57983333Y-72601190D01*
X57983333Y-72601190D02*
X58364285Y-72601190D01*
X57411904Y-72172619D02*
X57364285Y-72125000D01*
X57364285Y-72125000D02*
X57269047Y-72077380D01*
X57269047Y-72077380D02*
X57030952Y-72077380D01*
X57030952Y-72077380D02*
X56935714Y-72125000D01*
X56935714Y-72125000D02*
X56888095Y-72172619D01*
X56888095Y-72172619D02*
X56840476Y-72267857D01*
X56840476Y-72267857D02*
X56840476Y-72363095D01*
X56840476Y-72363095D02*
X56888095Y-72505952D01*
X56888095Y-72505952D02*
X57459523Y-73077380D01*
X57459523Y-73077380D02*
X56840476Y-73077380D01*
X56221428Y-72077380D02*
X56126190Y-72077380D01*
X56126190Y-72077380D02*
X56030952Y-72125000D01*
X56030952Y-72125000D02*
X55983333Y-72172619D01*
X55983333Y-72172619D02*
X55935714Y-72267857D01*
X55935714Y-72267857D02*
X55888095Y-72458333D01*
X55888095Y-72458333D02*
X55888095Y-72696428D01*
X55888095Y-72696428D02*
X55935714Y-72886904D01*
X55935714Y-72886904D02*
X55983333Y-72982142D01*
X55983333Y-72982142D02*
X56030952Y-73029761D01*
X56030952Y-73029761D02*
X56126190Y-73077380D01*
X56126190Y-73077380D02*
X56221428Y-73077380D01*
X56221428Y-73077380D02*
X56316666Y-73029761D01*
X56316666Y-73029761D02*
X56364285Y-72982142D01*
X56364285Y-72982142D02*
X56411904Y-72886904D01*
X56411904Y-72886904D02*
X56459523Y-72696428D01*
X56459523Y-72696428D02*
X56459523Y-72458333D01*
X56459523Y-72458333D02*
X56411904Y-72267857D01*
X56411904Y-72267857D02*
X56364285Y-72172619D01*
X56364285Y-72172619D02*
X56316666Y-72125000D01*
X56316666Y-72125000D02*
X56221428Y-72077380D01*
%TO.C,Q2*%
X43095238Y-101212619D02*
X43190476Y-101165000D01*
X43190476Y-101165000D02*
X43285714Y-101069761D01*
X43285714Y-101069761D02*
X43428571Y-100926904D01*
X43428571Y-100926904D02*
X43523809Y-100879285D01*
X43523809Y-100879285D02*
X43619047Y-100879285D01*
X43571428Y-101117380D02*
X43666666Y-101069761D01*
X43666666Y-101069761D02*
X43761904Y-100974523D01*
X43761904Y-100974523D02*
X43809523Y-100784047D01*
X43809523Y-100784047D02*
X43809523Y-100450714D01*
X43809523Y-100450714D02*
X43761904Y-100260238D01*
X43761904Y-100260238D02*
X43666666Y-100165000D01*
X43666666Y-100165000D02*
X43571428Y-100117380D01*
X43571428Y-100117380D02*
X43380952Y-100117380D01*
X43380952Y-100117380D02*
X43285714Y-100165000D01*
X43285714Y-100165000D02*
X43190476Y-100260238D01*
X43190476Y-100260238D02*
X43142857Y-100450714D01*
X43142857Y-100450714D02*
X43142857Y-100784047D01*
X43142857Y-100784047D02*
X43190476Y-100974523D01*
X43190476Y-100974523D02*
X43285714Y-101069761D01*
X43285714Y-101069761D02*
X43380952Y-101117380D01*
X43380952Y-101117380D02*
X43571428Y-101117380D01*
X42761904Y-100212619D02*
X42714285Y-100165000D01*
X42714285Y-100165000D02*
X42619047Y-100117380D01*
X42619047Y-100117380D02*
X42380952Y-100117380D01*
X42380952Y-100117380D02*
X42285714Y-100165000D01*
X42285714Y-100165000D02*
X42238095Y-100212619D01*
X42238095Y-100212619D02*
X42190476Y-100307857D01*
X42190476Y-100307857D02*
X42190476Y-100403095D01*
X42190476Y-100403095D02*
X42238095Y-100545952D01*
X42238095Y-100545952D02*
X42809523Y-101117380D01*
X42809523Y-101117380D02*
X42190476Y-101117380D01*
%TO.C,R24*%
X70389357Y-99553380D02*
X70722690Y-99077190D01*
X70960785Y-99553380D02*
X70960785Y-98553380D01*
X70960785Y-98553380D02*
X70579833Y-98553380D01*
X70579833Y-98553380D02*
X70484595Y-98601000D01*
X70484595Y-98601000D02*
X70436976Y-98648619D01*
X70436976Y-98648619D02*
X70389357Y-98743857D01*
X70389357Y-98743857D02*
X70389357Y-98886714D01*
X70389357Y-98886714D02*
X70436976Y-98981952D01*
X70436976Y-98981952D02*
X70484595Y-99029571D01*
X70484595Y-99029571D02*
X70579833Y-99077190D01*
X70579833Y-99077190D02*
X70960785Y-99077190D01*
X70008404Y-98648619D02*
X69960785Y-98601000D01*
X69960785Y-98601000D02*
X69865547Y-98553380D01*
X69865547Y-98553380D02*
X69627452Y-98553380D01*
X69627452Y-98553380D02*
X69532214Y-98601000D01*
X69532214Y-98601000D02*
X69484595Y-98648619D01*
X69484595Y-98648619D02*
X69436976Y-98743857D01*
X69436976Y-98743857D02*
X69436976Y-98839095D01*
X69436976Y-98839095D02*
X69484595Y-98981952D01*
X69484595Y-98981952D02*
X70056023Y-99553380D01*
X70056023Y-99553380D02*
X69436976Y-99553380D01*
X68579833Y-98886714D02*
X68579833Y-99553380D01*
X68817928Y-98505761D02*
X69056023Y-99220047D01*
X69056023Y-99220047D02*
X68436976Y-99220047D01*
%TO.C,Q10*%
X112862619Y-85178571D02*
X112815000Y-85083333D01*
X112815000Y-85083333D02*
X112719761Y-84988095D01*
X112719761Y-84988095D02*
X112576904Y-84845238D01*
X112576904Y-84845238D02*
X112529285Y-84750000D01*
X112529285Y-84750000D02*
X112529285Y-84654762D01*
X112767380Y-84702381D02*
X112719761Y-84607143D01*
X112719761Y-84607143D02*
X112624523Y-84511905D01*
X112624523Y-84511905D02*
X112434047Y-84464286D01*
X112434047Y-84464286D02*
X112100714Y-84464286D01*
X112100714Y-84464286D02*
X111910238Y-84511905D01*
X111910238Y-84511905D02*
X111815000Y-84607143D01*
X111815000Y-84607143D02*
X111767380Y-84702381D01*
X111767380Y-84702381D02*
X111767380Y-84892857D01*
X111767380Y-84892857D02*
X111815000Y-84988095D01*
X111815000Y-84988095D02*
X111910238Y-85083333D01*
X111910238Y-85083333D02*
X112100714Y-85130952D01*
X112100714Y-85130952D02*
X112434047Y-85130952D01*
X112434047Y-85130952D02*
X112624523Y-85083333D01*
X112624523Y-85083333D02*
X112719761Y-84988095D01*
X112719761Y-84988095D02*
X112767380Y-84892857D01*
X112767380Y-84892857D02*
X112767380Y-84702381D01*
X112767380Y-86083333D02*
X112767380Y-85511905D01*
X112767380Y-85797619D02*
X111767380Y-85797619D01*
X111767380Y-85797619D02*
X111910238Y-85702381D01*
X111910238Y-85702381D02*
X112005476Y-85607143D01*
X112005476Y-85607143D02*
X112053095Y-85511905D01*
X111767380Y-86702381D02*
X111767380Y-86797619D01*
X111767380Y-86797619D02*
X111815000Y-86892857D01*
X111815000Y-86892857D02*
X111862619Y-86940476D01*
X111862619Y-86940476D02*
X111957857Y-86988095D01*
X111957857Y-86988095D02*
X112148333Y-87035714D01*
X112148333Y-87035714D02*
X112386428Y-87035714D01*
X112386428Y-87035714D02*
X112576904Y-86988095D01*
X112576904Y-86988095D02*
X112672142Y-86940476D01*
X112672142Y-86940476D02*
X112719761Y-86892857D01*
X112719761Y-86892857D02*
X112767380Y-86797619D01*
X112767380Y-86797619D02*
X112767380Y-86702381D01*
X112767380Y-86702381D02*
X112719761Y-86607143D01*
X112719761Y-86607143D02*
X112672142Y-86559524D01*
X112672142Y-86559524D02*
X112576904Y-86511905D01*
X112576904Y-86511905D02*
X112386428Y-86464286D01*
X112386428Y-86464286D02*
X112148333Y-86464286D01*
X112148333Y-86464286D02*
X111957857Y-86511905D01*
X111957857Y-86511905D02*
X111862619Y-86559524D01*
X111862619Y-86559524D02*
X111815000Y-86607143D01*
X111815000Y-86607143D02*
X111767380Y-86702381D01*
%TO.C,Q9*%
X49625238Y-61562619D02*
X49720476Y-61515000D01*
X49720476Y-61515000D02*
X49815714Y-61419761D01*
X49815714Y-61419761D02*
X49958571Y-61276904D01*
X49958571Y-61276904D02*
X50053809Y-61229285D01*
X50053809Y-61229285D02*
X50149047Y-61229285D01*
X50101428Y-61467380D02*
X50196666Y-61419761D01*
X50196666Y-61419761D02*
X50291904Y-61324523D01*
X50291904Y-61324523D02*
X50339523Y-61134047D01*
X50339523Y-61134047D02*
X50339523Y-60800714D01*
X50339523Y-60800714D02*
X50291904Y-60610238D01*
X50291904Y-60610238D02*
X50196666Y-60515000D01*
X50196666Y-60515000D02*
X50101428Y-60467380D01*
X50101428Y-60467380D02*
X49910952Y-60467380D01*
X49910952Y-60467380D02*
X49815714Y-60515000D01*
X49815714Y-60515000D02*
X49720476Y-60610238D01*
X49720476Y-60610238D02*
X49672857Y-60800714D01*
X49672857Y-60800714D02*
X49672857Y-61134047D01*
X49672857Y-61134047D02*
X49720476Y-61324523D01*
X49720476Y-61324523D02*
X49815714Y-61419761D01*
X49815714Y-61419761D02*
X49910952Y-61467380D01*
X49910952Y-61467380D02*
X50101428Y-61467380D01*
X49196666Y-61467380D02*
X49006190Y-61467380D01*
X49006190Y-61467380D02*
X48910952Y-61419761D01*
X48910952Y-61419761D02*
X48863333Y-61372142D01*
X48863333Y-61372142D02*
X48768095Y-61229285D01*
X48768095Y-61229285D02*
X48720476Y-61038809D01*
X48720476Y-61038809D02*
X48720476Y-60657857D01*
X48720476Y-60657857D02*
X48768095Y-60562619D01*
X48768095Y-60562619D02*
X48815714Y-60515000D01*
X48815714Y-60515000D02*
X48910952Y-60467380D01*
X48910952Y-60467380D02*
X49101428Y-60467380D01*
X49101428Y-60467380D02*
X49196666Y-60515000D01*
X49196666Y-60515000D02*
X49244285Y-60562619D01*
X49244285Y-60562619D02*
X49291904Y-60657857D01*
X49291904Y-60657857D02*
X49291904Y-60895952D01*
X49291904Y-60895952D02*
X49244285Y-60991190D01*
X49244285Y-60991190D02*
X49196666Y-61038809D01*
X49196666Y-61038809D02*
X49101428Y-61086428D01*
X49101428Y-61086428D02*
X48910952Y-61086428D01*
X48910952Y-61086428D02*
X48815714Y-61038809D01*
X48815714Y-61038809D02*
X48768095Y-60991190D01*
X48768095Y-60991190D02*
X48720476Y-60895952D01*
%TO.C,Q5*%
X87802119Y-94265761D02*
X87754500Y-94170523D01*
X87754500Y-94170523D02*
X87659261Y-94075285D01*
X87659261Y-94075285D02*
X87516404Y-93932428D01*
X87516404Y-93932428D02*
X87468785Y-93837190D01*
X87468785Y-93837190D02*
X87468785Y-93741952D01*
X87706880Y-93789571D02*
X87659261Y-93694333D01*
X87659261Y-93694333D02*
X87564023Y-93599095D01*
X87564023Y-93599095D02*
X87373547Y-93551476D01*
X87373547Y-93551476D02*
X87040214Y-93551476D01*
X87040214Y-93551476D02*
X86849738Y-93599095D01*
X86849738Y-93599095D02*
X86754500Y-93694333D01*
X86754500Y-93694333D02*
X86706880Y-93789571D01*
X86706880Y-93789571D02*
X86706880Y-93980047D01*
X86706880Y-93980047D02*
X86754500Y-94075285D01*
X86754500Y-94075285D02*
X86849738Y-94170523D01*
X86849738Y-94170523D02*
X87040214Y-94218142D01*
X87040214Y-94218142D02*
X87373547Y-94218142D01*
X87373547Y-94218142D02*
X87564023Y-94170523D01*
X87564023Y-94170523D02*
X87659261Y-94075285D01*
X87659261Y-94075285D02*
X87706880Y-93980047D01*
X87706880Y-93980047D02*
X87706880Y-93789571D01*
X86706880Y-95122904D02*
X86706880Y-94646714D01*
X86706880Y-94646714D02*
X87183071Y-94599095D01*
X87183071Y-94599095D02*
X87135452Y-94646714D01*
X87135452Y-94646714D02*
X87087833Y-94741952D01*
X87087833Y-94741952D02*
X87087833Y-94980047D01*
X87087833Y-94980047D02*
X87135452Y-95075285D01*
X87135452Y-95075285D02*
X87183071Y-95122904D01*
X87183071Y-95122904D02*
X87278309Y-95170523D01*
X87278309Y-95170523D02*
X87516404Y-95170523D01*
X87516404Y-95170523D02*
X87611642Y-95122904D01*
X87611642Y-95122904D02*
X87659261Y-95075285D01*
X87659261Y-95075285D02*
X87706880Y-94980047D01*
X87706880Y-94980047D02*
X87706880Y-94741952D01*
X87706880Y-94741952D02*
X87659261Y-94646714D01*
X87659261Y-94646714D02*
X87611642Y-94599095D01*
%TO.C,Q7*%
X108062619Y-93154761D02*
X108015000Y-93059523D01*
X108015000Y-93059523D02*
X107919761Y-92964285D01*
X107919761Y-92964285D02*
X107776904Y-92821428D01*
X107776904Y-92821428D02*
X107729285Y-92726190D01*
X107729285Y-92726190D02*
X107729285Y-92630952D01*
X107967380Y-92678571D02*
X107919761Y-92583333D01*
X107919761Y-92583333D02*
X107824523Y-92488095D01*
X107824523Y-92488095D02*
X107634047Y-92440476D01*
X107634047Y-92440476D02*
X107300714Y-92440476D01*
X107300714Y-92440476D02*
X107110238Y-92488095D01*
X107110238Y-92488095D02*
X107015000Y-92583333D01*
X107015000Y-92583333D02*
X106967380Y-92678571D01*
X106967380Y-92678571D02*
X106967380Y-92869047D01*
X106967380Y-92869047D02*
X107015000Y-92964285D01*
X107015000Y-92964285D02*
X107110238Y-93059523D01*
X107110238Y-93059523D02*
X107300714Y-93107142D01*
X107300714Y-93107142D02*
X107634047Y-93107142D01*
X107634047Y-93107142D02*
X107824523Y-93059523D01*
X107824523Y-93059523D02*
X107919761Y-92964285D01*
X107919761Y-92964285D02*
X107967380Y-92869047D01*
X107967380Y-92869047D02*
X107967380Y-92678571D01*
X106967380Y-93440476D02*
X106967380Y-94107142D01*
X106967380Y-94107142D02*
X107967380Y-93678571D01*
%TO.C,R3*%
X43243166Y-99553380D02*
X43576499Y-99077190D01*
X43814594Y-99553380D02*
X43814594Y-98553380D01*
X43814594Y-98553380D02*
X43433642Y-98553380D01*
X43433642Y-98553380D02*
X43338404Y-98601000D01*
X43338404Y-98601000D02*
X43290785Y-98648619D01*
X43290785Y-98648619D02*
X43243166Y-98743857D01*
X43243166Y-98743857D02*
X43243166Y-98886714D01*
X43243166Y-98886714D02*
X43290785Y-98981952D01*
X43290785Y-98981952D02*
X43338404Y-99029571D01*
X43338404Y-99029571D02*
X43433642Y-99077190D01*
X43433642Y-99077190D02*
X43814594Y-99077190D01*
X42909832Y-98553380D02*
X42290785Y-98553380D01*
X42290785Y-98553380D02*
X42624118Y-98934333D01*
X42624118Y-98934333D02*
X42481261Y-98934333D01*
X42481261Y-98934333D02*
X42386023Y-98981952D01*
X42386023Y-98981952D02*
X42338404Y-99029571D01*
X42338404Y-99029571D02*
X42290785Y-99124809D01*
X42290785Y-99124809D02*
X42290785Y-99362904D01*
X42290785Y-99362904D02*
X42338404Y-99458142D01*
X42338404Y-99458142D02*
X42386023Y-99505761D01*
X42386023Y-99505761D02*
X42481261Y-99553380D01*
X42481261Y-99553380D02*
X42766975Y-99553380D01*
X42766975Y-99553380D02*
X42862213Y-99505761D01*
X42862213Y-99505761D02*
X42909832Y-99458142D01*
%TO.C,R1*%
X81296166Y-89903380D02*
X81629499Y-89427190D01*
X81867594Y-89903380D02*
X81867594Y-88903380D01*
X81867594Y-88903380D02*
X81486642Y-88903380D01*
X81486642Y-88903380D02*
X81391404Y-88951000D01*
X81391404Y-88951000D02*
X81343785Y-88998619D01*
X81343785Y-88998619D02*
X81296166Y-89093857D01*
X81296166Y-89093857D02*
X81296166Y-89236714D01*
X81296166Y-89236714D02*
X81343785Y-89331952D01*
X81343785Y-89331952D02*
X81391404Y-89379571D01*
X81391404Y-89379571D02*
X81486642Y-89427190D01*
X81486642Y-89427190D02*
X81867594Y-89427190D01*
X80343785Y-89903380D02*
X80915213Y-89903380D01*
X80629499Y-89903380D02*
X80629499Y-88903380D01*
X80629499Y-88903380D02*
X80724737Y-89046238D01*
X80724737Y-89046238D02*
X80819975Y-89141476D01*
X80819975Y-89141476D02*
X80915213Y-89189095D01*
%TO.C,Q3*%
X47095238Y-101212619D02*
X47190476Y-101165000D01*
X47190476Y-101165000D02*
X47285714Y-101069761D01*
X47285714Y-101069761D02*
X47428571Y-100926904D01*
X47428571Y-100926904D02*
X47523809Y-100879285D01*
X47523809Y-100879285D02*
X47619047Y-100879285D01*
X47571428Y-101117380D02*
X47666666Y-101069761D01*
X47666666Y-101069761D02*
X47761904Y-100974523D01*
X47761904Y-100974523D02*
X47809523Y-100784047D01*
X47809523Y-100784047D02*
X47809523Y-100450714D01*
X47809523Y-100450714D02*
X47761904Y-100260238D01*
X47761904Y-100260238D02*
X47666666Y-100165000D01*
X47666666Y-100165000D02*
X47571428Y-100117380D01*
X47571428Y-100117380D02*
X47380952Y-100117380D01*
X47380952Y-100117380D02*
X47285714Y-100165000D01*
X47285714Y-100165000D02*
X47190476Y-100260238D01*
X47190476Y-100260238D02*
X47142857Y-100450714D01*
X47142857Y-100450714D02*
X47142857Y-100784047D01*
X47142857Y-100784047D02*
X47190476Y-100974523D01*
X47190476Y-100974523D02*
X47285714Y-101069761D01*
X47285714Y-101069761D02*
X47380952Y-101117380D01*
X47380952Y-101117380D02*
X47571428Y-101117380D01*
X46809523Y-100117380D02*
X46190476Y-100117380D01*
X46190476Y-100117380D02*
X46523809Y-100498333D01*
X46523809Y-100498333D02*
X46380952Y-100498333D01*
X46380952Y-100498333D02*
X46285714Y-100545952D01*
X46285714Y-100545952D02*
X46238095Y-100593571D01*
X46238095Y-100593571D02*
X46190476Y-100688809D01*
X46190476Y-100688809D02*
X46190476Y-100926904D01*
X46190476Y-100926904D02*
X46238095Y-101022142D01*
X46238095Y-101022142D02*
X46285714Y-101069761D01*
X46285714Y-101069761D02*
X46380952Y-101117380D01*
X46380952Y-101117380D02*
X46666666Y-101117380D01*
X46666666Y-101117380D02*
X46761904Y-101069761D01*
X46761904Y-101069761D02*
X46809523Y-101022142D01*
%TO.C,R2*%
X81296166Y-99867380D02*
X81629499Y-99391190D01*
X81867594Y-99867380D02*
X81867594Y-98867380D01*
X81867594Y-98867380D02*
X81486642Y-98867380D01*
X81486642Y-98867380D02*
X81391404Y-98915000D01*
X81391404Y-98915000D02*
X81343785Y-98962619D01*
X81343785Y-98962619D02*
X81296166Y-99057857D01*
X81296166Y-99057857D02*
X81296166Y-99200714D01*
X81296166Y-99200714D02*
X81343785Y-99295952D01*
X81343785Y-99295952D02*
X81391404Y-99343571D01*
X81391404Y-99343571D02*
X81486642Y-99391190D01*
X81486642Y-99391190D02*
X81867594Y-99391190D01*
X80915213Y-98962619D02*
X80867594Y-98915000D01*
X80867594Y-98915000D02*
X80772356Y-98867380D01*
X80772356Y-98867380D02*
X80534261Y-98867380D01*
X80534261Y-98867380D02*
X80439023Y-98915000D01*
X80439023Y-98915000D02*
X80391404Y-98962619D01*
X80391404Y-98962619D02*
X80343785Y-99057857D01*
X80343785Y-99057857D02*
X80343785Y-99153095D01*
X80343785Y-99153095D02*
X80391404Y-99295952D01*
X80391404Y-99295952D02*
X80962832Y-99867380D01*
X80962832Y-99867380D02*
X80343785Y-99867380D01*
%TO.C,Q12*%
X59071428Y-101212619D02*
X59166666Y-101165000D01*
X59166666Y-101165000D02*
X59261904Y-101069761D01*
X59261904Y-101069761D02*
X59404761Y-100926904D01*
X59404761Y-100926904D02*
X59499999Y-100879285D01*
X59499999Y-100879285D02*
X59595237Y-100879285D01*
X59547618Y-101117380D02*
X59642856Y-101069761D01*
X59642856Y-101069761D02*
X59738094Y-100974523D01*
X59738094Y-100974523D02*
X59785713Y-100784047D01*
X59785713Y-100784047D02*
X59785713Y-100450714D01*
X59785713Y-100450714D02*
X59738094Y-100260238D01*
X59738094Y-100260238D02*
X59642856Y-100165000D01*
X59642856Y-100165000D02*
X59547618Y-100117380D01*
X59547618Y-100117380D02*
X59357142Y-100117380D01*
X59357142Y-100117380D02*
X59261904Y-100165000D01*
X59261904Y-100165000D02*
X59166666Y-100260238D01*
X59166666Y-100260238D02*
X59119047Y-100450714D01*
X59119047Y-100450714D02*
X59119047Y-100784047D01*
X59119047Y-100784047D02*
X59166666Y-100974523D01*
X59166666Y-100974523D02*
X59261904Y-101069761D01*
X59261904Y-101069761D02*
X59357142Y-101117380D01*
X59357142Y-101117380D02*
X59547618Y-101117380D01*
X58166666Y-101117380D02*
X58738094Y-101117380D01*
X58452380Y-101117380D02*
X58452380Y-100117380D01*
X58452380Y-100117380D02*
X58547618Y-100260238D01*
X58547618Y-100260238D02*
X58642856Y-100355476D01*
X58642856Y-100355476D02*
X58738094Y-100403095D01*
X57785713Y-100212619D02*
X57738094Y-100165000D01*
X57738094Y-100165000D02*
X57642856Y-100117380D01*
X57642856Y-100117380D02*
X57404761Y-100117380D01*
X57404761Y-100117380D02*
X57309523Y-100165000D01*
X57309523Y-100165000D02*
X57261904Y-100212619D01*
X57261904Y-100212619D02*
X57214285Y-100307857D01*
X57214285Y-100307857D02*
X57214285Y-100403095D01*
X57214285Y-100403095D02*
X57261904Y-100545952D01*
X57261904Y-100545952D02*
X57833332Y-101117380D01*
X57833332Y-101117380D02*
X57214285Y-101117380D01*
%TO.C,R31*%
X52077857Y-112023880D02*
X52411190Y-111547690D01*
X52649285Y-112023880D02*
X52649285Y-111023880D01*
X52649285Y-111023880D02*
X52268333Y-111023880D01*
X52268333Y-111023880D02*
X52173095Y-111071500D01*
X52173095Y-111071500D02*
X52125476Y-111119119D01*
X52125476Y-111119119D02*
X52077857Y-111214357D01*
X52077857Y-111214357D02*
X52077857Y-111357214D01*
X52077857Y-111357214D02*
X52125476Y-111452452D01*
X52125476Y-111452452D02*
X52173095Y-111500071D01*
X52173095Y-111500071D02*
X52268333Y-111547690D01*
X52268333Y-111547690D02*
X52649285Y-111547690D01*
X51744523Y-111023880D02*
X51125476Y-111023880D01*
X51125476Y-111023880D02*
X51458809Y-111404833D01*
X51458809Y-111404833D02*
X51315952Y-111404833D01*
X51315952Y-111404833D02*
X51220714Y-111452452D01*
X51220714Y-111452452D02*
X51173095Y-111500071D01*
X51173095Y-111500071D02*
X51125476Y-111595309D01*
X51125476Y-111595309D02*
X51125476Y-111833404D01*
X51125476Y-111833404D02*
X51173095Y-111928642D01*
X51173095Y-111928642D02*
X51220714Y-111976261D01*
X51220714Y-111976261D02*
X51315952Y-112023880D01*
X51315952Y-112023880D02*
X51601666Y-112023880D01*
X51601666Y-112023880D02*
X51696904Y-111976261D01*
X51696904Y-111976261D02*
X51744523Y-111928642D01*
X50173095Y-112023880D02*
X50744523Y-112023880D01*
X50458809Y-112023880D02*
X50458809Y-111023880D01*
X50458809Y-111023880D02*
X50554047Y-111166738D01*
X50554047Y-111166738D02*
X50649285Y-111261976D01*
X50649285Y-111261976D02*
X50744523Y-111309595D01*
%TO.C,R22*%
X62769357Y-99617380D02*
X63102690Y-99141190D01*
X63340785Y-99617380D02*
X63340785Y-98617380D01*
X63340785Y-98617380D02*
X62959833Y-98617380D01*
X62959833Y-98617380D02*
X62864595Y-98665000D01*
X62864595Y-98665000D02*
X62816976Y-98712619D01*
X62816976Y-98712619D02*
X62769357Y-98807857D01*
X62769357Y-98807857D02*
X62769357Y-98950714D01*
X62769357Y-98950714D02*
X62816976Y-99045952D01*
X62816976Y-99045952D02*
X62864595Y-99093571D01*
X62864595Y-99093571D02*
X62959833Y-99141190D01*
X62959833Y-99141190D02*
X63340785Y-99141190D01*
X62388404Y-98712619D02*
X62340785Y-98665000D01*
X62340785Y-98665000D02*
X62245547Y-98617380D01*
X62245547Y-98617380D02*
X62007452Y-98617380D01*
X62007452Y-98617380D02*
X61912214Y-98665000D01*
X61912214Y-98665000D02*
X61864595Y-98712619D01*
X61864595Y-98712619D02*
X61816976Y-98807857D01*
X61816976Y-98807857D02*
X61816976Y-98903095D01*
X61816976Y-98903095D02*
X61864595Y-99045952D01*
X61864595Y-99045952D02*
X62436023Y-99617380D01*
X62436023Y-99617380D02*
X61816976Y-99617380D01*
X61436023Y-98712619D02*
X61388404Y-98665000D01*
X61388404Y-98665000D02*
X61293166Y-98617380D01*
X61293166Y-98617380D02*
X61055071Y-98617380D01*
X61055071Y-98617380D02*
X60959833Y-98665000D01*
X60959833Y-98665000D02*
X60912214Y-98712619D01*
X60912214Y-98712619D02*
X60864595Y-98807857D01*
X60864595Y-98807857D02*
X60864595Y-98903095D01*
X60864595Y-98903095D02*
X60912214Y-99045952D01*
X60912214Y-99045952D02*
X61483642Y-99617380D01*
X61483642Y-99617380D02*
X60864595Y-99617380D01*
%TO.C,Q11*%
X55071428Y-101212619D02*
X55166666Y-101165000D01*
X55166666Y-101165000D02*
X55261904Y-101069761D01*
X55261904Y-101069761D02*
X55404761Y-100926904D01*
X55404761Y-100926904D02*
X55499999Y-100879285D01*
X55499999Y-100879285D02*
X55595237Y-100879285D01*
X55547618Y-101117380D02*
X55642856Y-101069761D01*
X55642856Y-101069761D02*
X55738094Y-100974523D01*
X55738094Y-100974523D02*
X55785713Y-100784047D01*
X55785713Y-100784047D02*
X55785713Y-100450714D01*
X55785713Y-100450714D02*
X55738094Y-100260238D01*
X55738094Y-100260238D02*
X55642856Y-100165000D01*
X55642856Y-100165000D02*
X55547618Y-100117380D01*
X55547618Y-100117380D02*
X55357142Y-100117380D01*
X55357142Y-100117380D02*
X55261904Y-100165000D01*
X55261904Y-100165000D02*
X55166666Y-100260238D01*
X55166666Y-100260238D02*
X55119047Y-100450714D01*
X55119047Y-100450714D02*
X55119047Y-100784047D01*
X55119047Y-100784047D02*
X55166666Y-100974523D01*
X55166666Y-100974523D02*
X55261904Y-101069761D01*
X55261904Y-101069761D02*
X55357142Y-101117380D01*
X55357142Y-101117380D02*
X55547618Y-101117380D01*
X54166666Y-101117380D02*
X54738094Y-101117380D01*
X54452380Y-101117380D02*
X54452380Y-100117380D01*
X54452380Y-100117380D02*
X54547618Y-100260238D01*
X54547618Y-100260238D02*
X54642856Y-100355476D01*
X54642856Y-100355476D02*
X54738094Y-100403095D01*
X53214285Y-101117380D02*
X53785713Y-101117380D01*
X53499999Y-101117380D02*
X53499999Y-100117380D01*
X53499999Y-100117380D02*
X53595237Y-100260238D01*
X53595237Y-100260238D02*
X53690475Y-100355476D01*
X53690475Y-100355476D02*
X53785713Y-100403095D01*
%TO.C,R9*%
X85166666Y-99867380D02*
X85499999Y-99391190D01*
X85738094Y-99867380D02*
X85738094Y-98867380D01*
X85738094Y-98867380D02*
X85357142Y-98867380D01*
X85357142Y-98867380D02*
X85261904Y-98915000D01*
X85261904Y-98915000D02*
X85214285Y-98962619D01*
X85214285Y-98962619D02*
X85166666Y-99057857D01*
X85166666Y-99057857D02*
X85166666Y-99200714D01*
X85166666Y-99200714D02*
X85214285Y-99295952D01*
X85214285Y-99295952D02*
X85261904Y-99343571D01*
X85261904Y-99343571D02*
X85357142Y-99391190D01*
X85357142Y-99391190D02*
X85738094Y-99391190D01*
X84690475Y-99867380D02*
X84499999Y-99867380D01*
X84499999Y-99867380D02*
X84404761Y-99819761D01*
X84404761Y-99819761D02*
X84357142Y-99772142D01*
X84357142Y-99772142D02*
X84261904Y-99629285D01*
X84261904Y-99629285D02*
X84214285Y-99438809D01*
X84214285Y-99438809D02*
X84214285Y-99057857D01*
X84214285Y-99057857D02*
X84261904Y-98962619D01*
X84261904Y-98962619D02*
X84309523Y-98915000D01*
X84309523Y-98915000D02*
X84404761Y-98867380D01*
X84404761Y-98867380D02*
X84595237Y-98867380D01*
X84595237Y-98867380D02*
X84690475Y-98915000D01*
X84690475Y-98915000D02*
X84738094Y-98962619D01*
X84738094Y-98962619D02*
X84785713Y-99057857D01*
X84785713Y-99057857D02*
X84785713Y-99295952D01*
X84785713Y-99295952D02*
X84738094Y-99391190D01*
X84738094Y-99391190D02*
X84690475Y-99438809D01*
X84690475Y-99438809D02*
X84595237Y-99486428D01*
X84595237Y-99486428D02*
X84404761Y-99486428D01*
X84404761Y-99486428D02*
X84309523Y-99438809D01*
X84309523Y-99438809D02*
X84261904Y-99391190D01*
X84261904Y-99391190D02*
X84214285Y-99295952D01*
%TO.C,R6*%
X47053166Y-89867380D02*
X47386499Y-89391190D01*
X47624594Y-89867380D02*
X47624594Y-88867380D01*
X47624594Y-88867380D02*
X47243642Y-88867380D01*
X47243642Y-88867380D02*
X47148404Y-88915000D01*
X47148404Y-88915000D02*
X47100785Y-88962619D01*
X47100785Y-88962619D02*
X47053166Y-89057857D01*
X47053166Y-89057857D02*
X47053166Y-89200714D01*
X47053166Y-89200714D02*
X47100785Y-89295952D01*
X47100785Y-89295952D02*
X47148404Y-89343571D01*
X47148404Y-89343571D02*
X47243642Y-89391190D01*
X47243642Y-89391190D02*
X47624594Y-89391190D01*
X46196023Y-88867380D02*
X46386499Y-88867380D01*
X46386499Y-88867380D02*
X46481737Y-88915000D01*
X46481737Y-88915000D02*
X46529356Y-88962619D01*
X46529356Y-88962619D02*
X46624594Y-89105476D01*
X46624594Y-89105476D02*
X46672213Y-89295952D01*
X46672213Y-89295952D02*
X46672213Y-89676904D01*
X46672213Y-89676904D02*
X46624594Y-89772142D01*
X46624594Y-89772142D02*
X46576975Y-89819761D01*
X46576975Y-89819761D02*
X46481737Y-89867380D01*
X46481737Y-89867380D02*
X46291261Y-89867380D01*
X46291261Y-89867380D02*
X46196023Y-89819761D01*
X46196023Y-89819761D02*
X46148404Y-89772142D01*
X46148404Y-89772142D02*
X46100785Y-89676904D01*
X46100785Y-89676904D02*
X46100785Y-89438809D01*
X46100785Y-89438809D02*
X46148404Y-89343571D01*
X46148404Y-89343571D02*
X46196023Y-89295952D01*
X46196023Y-89295952D02*
X46291261Y-89248333D01*
X46291261Y-89248333D02*
X46481737Y-89248333D01*
X46481737Y-89248333D02*
X46576975Y-89295952D01*
X46576975Y-89295952D02*
X46624594Y-89343571D01*
X46624594Y-89343571D02*
X46672213Y-89438809D01*
%TO.C,R21*%
X58959357Y-99617380D02*
X59292690Y-99141190D01*
X59530785Y-99617380D02*
X59530785Y-98617380D01*
X59530785Y-98617380D02*
X59149833Y-98617380D01*
X59149833Y-98617380D02*
X59054595Y-98665000D01*
X59054595Y-98665000D02*
X59006976Y-98712619D01*
X59006976Y-98712619D02*
X58959357Y-98807857D01*
X58959357Y-98807857D02*
X58959357Y-98950714D01*
X58959357Y-98950714D02*
X59006976Y-99045952D01*
X59006976Y-99045952D02*
X59054595Y-99093571D01*
X59054595Y-99093571D02*
X59149833Y-99141190D01*
X59149833Y-99141190D02*
X59530785Y-99141190D01*
X58578404Y-98712619D02*
X58530785Y-98665000D01*
X58530785Y-98665000D02*
X58435547Y-98617380D01*
X58435547Y-98617380D02*
X58197452Y-98617380D01*
X58197452Y-98617380D02*
X58102214Y-98665000D01*
X58102214Y-98665000D02*
X58054595Y-98712619D01*
X58054595Y-98712619D02*
X58006976Y-98807857D01*
X58006976Y-98807857D02*
X58006976Y-98903095D01*
X58006976Y-98903095D02*
X58054595Y-99045952D01*
X58054595Y-99045952D02*
X58626023Y-99617380D01*
X58626023Y-99617380D02*
X58006976Y-99617380D01*
X57054595Y-99617380D02*
X57626023Y-99617380D01*
X57340309Y-99617380D02*
X57340309Y-98617380D01*
X57340309Y-98617380D02*
X57435547Y-98760238D01*
X57435547Y-98760238D02*
X57530785Y-98855476D01*
X57530785Y-98855476D02*
X57626023Y-98903095D01*
%TO.C,R16*%
X51392857Y-89867380D02*
X51726190Y-89391190D01*
X51964285Y-89867380D02*
X51964285Y-88867380D01*
X51964285Y-88867380D02*
X51583333Y-88867380D01*
X51583333Y-88867380D02*
X51488095Y-88915000D01*
X51488095Y-88915000D02*
X51440476Y-88962619D01*
X51440476Y-88962619D02*
X51392857Y-89057857D01*
X51392857Y-89057857D02*
X51392857Y-89200714D01*
X51392857Y-89200714D02*
X51440476Y-89295952D01*
X51440476Y-89295952D02*
X51488095Y-89343571D01*
X51488095Y-89343571D02*
X51583333Y-89391190D01*
X51583333Y-89391190D02*
X51964285Y-89391190D01*
X50440476Y-89867380D02*
X51011904Y-89867380D01*
X50726190Y-89867380D02*
X50726190Y-88867380D01*
X50726190Y-88867380D02*
X50821428Y-89010238D01*
X50821428Y-89010238D02*
X50916666Y-89105476D01*
X50916666Y-89105476D02*
X51011904Y-89153095D01*
X49583333Y-88867380D02*
X49773809Y-88867380D01*
X49773809Y-88867380D02*
X49869047Y-88915000D01*
X49869047Y-88915000D02*
X49916666Y-88962619D01*
X49916666Y-88962619D02*
X50011904Y-89105476D01*
X50011904Y-89105476D02*
X50059523Y-89295952D01*
X50059523Y-89295952D02*
X50059523Y-89676904D01*
X50059523Y-89676904D02*
X50011904Y-89772142D01*
X50011904Y-89772142D02*
X49964285Y-89819761D01*
X49964285Y-89819761D02*
X49869047Y-89867380D01*
X49869047Y-89867380D02*
X49678571Y-89867380D01*
X49678571Y-89867380D02*
X49583333Y-89819761D01*
X49583333Y-89819761D02*
X49535714Y-89772142D01*
X49535714Y-89772142D02*
X49488095Y-89676904D01*
X49488095Y-89676904D02*
X49488095Y-89438809D01*
X49488095Y-89438809D02*
X49535714Y-89343571D01*
X49535714Y-89343571D02*
X49583333Y-89295952D01*
X49583333Y-89295952D02*
X49678571Y-89248333D01*
X49678571Y-89248333D02*
X49869047Y-89248333D01*
X49869047Y-89248333D02*
X49964285Y-89295952D01*
X49964285Y-89295952D02*
X50011904Y-89343571D01*
X50011904Y-89343571D02*
X50059523Y-89438809D01*
%TO.C,R25*%
X58892857Y-89867380D02*
X59226190Y-89391190D01*
X59464285Y-89867380D02*
X59464285Y-88867380D01*
X59464285Y-88867380D02*
X59083333Y-88867380D01*
X59083333Y-88867380D02*
X58988095Y-88915000D01*
X58988095Y-88915000D02*
X58940476Y-88962619D01*
X58940476Y-88962619D02*
X58892857Y-89057857D01*
X58892857Y-89057857D02*
X58892857Y-89200714D01*
X58892857Y-89200714D02*
X58940476Y-89295952D01*
X58940476Y-89295952D02*
X58988095Y-89343571D01*
X58988095Y-89343571D02*
X59083333Y-89391190D01*
X59083333Y-89391190D02*
X59464285Y-89391190D01*
X58511904Y-88962619D02*
X58464285Y-88915000D01*
X58464285Y-88915000D02*
X58369047Y-88867380D01*
X58369047Y-88867380D02*
X58130952Y-88867380D01*
X58130952Y-88867380D02*
X58035714Y-88915000D01*
X58035714Y-88915000D02*
X57988095Y-88962619D01*
X57988095Y-88962619D02*
X57940476Y-89057857D01*
X57940476Y-89057857D02*
X57940476Y-89153095D01*
X57940476Y-89153095D02*
X57988095Y-89295952D01*
X57988095Y-89295952D02*
X58559523Y-89867380D01*
X58559523Y-89867380D02*
X57940476Y-89867380D01*
X57035714Y-88867380D02*
X57511904Y-88867380D01*
X57511904Y-88867380D02*
X57559523Y-89343571D01*
X57559523Y-89343571D02*
X57511904Y-89295952D01*
X57511904Y-89295952D02*
X57416666Y-89248333D01*
X57416666Y-89248333D02*
X57178571Y-89248333D01*
X57178571Y-89248333D02*
X57083333Y-89295952D01*
X57083333Y-89295952D02*
X57035714Y-89343571D01*
X57035714Y-89343571D02*
X56988095Y-89438809D01*
X56988095Y-89438809D02*
X56988095Y-89676904D01*
X56988095Y-89676904D02*
X57035714Y-89772142D01*
X57035714Y-89772142D02*
X57083333Y-89819761D01*
X57083333Y-89819761D02*
X57178571Y-89867380D01*
X57178571Y-89867380D02*
X57416666Y-89867380D01*
X57416666Y-89867380D02*
X57511904Y-89819761D01*
X57511904Y-89819761D02*
X57559523Y-89772142D01*
%TO.C,R28*%
X70389357Y-89867380D02*
X70722690Y-89391190D01*
X70960785Y-89867380D02*
X70960785Y-88867380D01*
X70960785Y-88867380D02*
X70579833Y-88867380D01*
X70579833Y-88867380D02*
X70484595Y-88915000D01*
X70484595Y-88915000D02*
X70436976Y-88962619D01*
X70436976Y-88962619D02*
X70389357Y-89057857D01*
X70389357Y-89057857D02*
X70389357Y-89200714D01*
X70389357Y-89200714D02*
X70436976Y-89295952D01*
X70436976Y-89295952D02*
X70484595Y-89343571D01*
X70484595Y-89343571D02*
X70579833Y-89391190D01*
X70579833Y-89391190D02*
X70960785Y-89391190D01*
X70008404Y-88962619D02*
X69960785Y-88915000D01*
X69960785Y-88915000D02*
X69865547Y-88867380D01*
X69865547Y-88867380D02*
X69627452Y-88867380D01*
X69627452Y-88867380D02*
X69532214Y-88915000D01*
X69532214Y-88915000D02*
X69484595Y-88962619D01*
X69484595Y-88962619D02*
X69436976Y-89057857D01*
X69436976Y-89057857D02*
X69436976Y-89153095D01*
X69436976Y-89153095D02*
X69484595Y-89295952D01*
X69484595Y-89295952D02*
X70056023Y-89867380D01*
X70056023Y-89867380D02*
X69436976Y-89867380D01*
X68865547Y-89295952D02*
X68960785Y-89248333D01*
X68960785Y-89248333D02*
X69008404Y-89200714D01*
X69008404Y-89200714D02*
X69056023Y-89105476D01*
X69056023Y-89105476D02*
X69056023Y-89057857D01*
X69056023Y-89057857D02*
X69008404Y-88962619D01*
X69008404Y-88962619D02*
X68960785Y-88915000D01*
X68960785Y-88915000D02*
X68865547Y-88867380D01*
X68865547Y-88867380D02*
X68675071Y-88867380D01*
X68675071Y-88867380D02*
X68579833Y-88915000D01*
X68579833Y-88915000D02*
X68532214Y-88962619D01*
X68532214Y-88962619D02*
X68484595Y-89057857D01*
X68484595Y-89057857D02*
X68484595Y-89105476D01*
X68484595Y-89105476D02*
X68532214Y-89200714D01*
X68532214Y-89200714D02*
X68579833Y-89248333D01*
X68579833Y-89248333D02*
X68675071Y-89295952D01*
X68675071Y-89295952D02*
X68865547Y-89295952D01*
X68865547Y-89295952D02*
X68960785Y-89343571D01*
X68960785Y-89343571D02*
X69008404Y-89391190D01*
X69008404Y-89391190D02*
X69056023Y-89486428D01*
X69056023Y-89486428D02*
X69056023Y-89676904D01*
X69056023Y-89676904D02*
X69008404Y-89772142D01*
X69008404Y-89772142D02*
X68960785Y-89819761D01*
X68960785Y-89819761D02*
X68865547Y-89867380D01*
X68865547Y-89867380D02*
X68675071Y-89867380D01*
X68675071Y-89867380D02*
X68579833Y-89819761D01*
X68579833Y-89819761D02*
X68532214Y-89772142D01*
X68532214Y-89772142D02*
X68484595Y-89676904D01*
X68484595Y-89676904D02*
X68484595Y-89486428D01*
X68484595Y-89486428D02*
X68532214Y-89391190D01*
X68532214Y-89391190D02*
X68579833Y-89343571D01*
X68579833Y-89343571D02*
X68675071Y-89295952D01*
%TO.C,R30*%
X57792857Y-112023880D02*
X58126190Y-111547690D01*
X58364285Y-112023880D02*
X58364285Y-111023880D01*
X58364285Y-111023880D02*
X57983333Y-111023880D01*
X57983333Y-111023880D02*
X57888095Y-111071500D01*
X57888095Y-111071500D02*
X57840476Y-111119119D01*
X57840476Y-111119119D02*
X57792857Y-111214357D01*
X57792857Y-111214357D02*
X57792857Y-111357214D01*
X57792857Y-111357214D02*
X57840476Y-111452452D01*
X57840476Y-111452452D02*
X57888095Y-111500071D01*
X57888095Y-111500071D02*
X57983333Y-111547690D01*
X57983333Y-111547690D02*
X58364285Y-111547690D01*
X57459523Y-111023880D02*
X56840476Y-111023880D01*
X56840476Y-111023880D02*
X57173809Y-111404833D01*
X57173809Y-111404833D02*
X57030952Y-111404833D01*
X57030952Y-111404833D02*
X56935714Y-111452452D01*
X56935714Y-111452452D02*
X56888095Y-111500071D01*
X56888095Y-111500071D02*
X56840476Y-111595309D01*
X56840476Y-111595309D02*
X56840476Y-111833404D01*
X56840476Y-111833404D02*
X56888095Y-111928642D01*
X56888095Y-111928642D02*
X56935714Y-111976261D01*
X56935714Y-111976261D02*
X57030952Y-112023880D01*
X57030952Y-112023880D02*
X57316666Y-112023880D01*
X57316666Y-112023880D02*
X57411904Y-111976261D01*
X57411904Y-111976261D02*
X57459523Y-111928642D01*
X56221428Y-111023880D02*
X56126190Y-111023880D01*
X56126190Y-111023880D02*
X56030952Y-111071500D01*
X56030952Y-111071500D02*
X55983333Y-111119119D01*
X55983333Y-111119119D02*
X55935714Y-111214357D01*
X55935714Y-111214357D02*
X55888095Y-111404833D01*
X55888095Y-111404833D02*
X55888095Y-111642928D01*
X55888095Y-111642928D02*
X55935714Y-111833404D01*
X55935714Y-111833404D02*
X55983333Y-111928642D01*
X55983333Y-111928642D02*
X56030952Y-111976261D01*
X56030952Y-111976261D02*
X56126190Y-112023880D01*
X56126190Y-112023880D02*
X56221428Y-112023880D01*
X56221428Y-112023880D02*
X56316666Y-111976261D01*
X56316666Y-111976261D02*
X56364285Y-111928642D01*
X56364285Y-111928642D02*
X56411904Y-111833404D01*
X56411904Y-111833404D02*
X56459523Y-111642928D01*
X56459523Y-111642928D02*
X56459523Y-111404833D01*
X56459523Y-111404833D02*
X56411904Y-111214357D01*
X56411904Y-111214357D02*
X56364285Y-111119119D01*
X56364285Y-111119119D02*
X56316666Y-111071500D01*
X56316666Y-111071500D02*
X56221428Y-111023880D01*
%TO.C,C10*%
X77332142Y-40952142D02*
X77379761Y-40904523D01*
X77379761Y-40904523D02*
X77427380Y-40761666D01*
X77427380Y-40761666D02*
X77427380Y-40666428D01*
X77427380Y-40666428D02*
X77379761Y-40523571D01*
X77379761Y-40523571D02*
X77284523Y-40428333D01*
X77284523Y-40428333D02*
X77189285Y-40380714D01*
X77189285Y-40380714D02*
X76998809Y-40333095D01*
X76998809Y-40333095D02*
X76855952Y-40333095D01*
X76855952Y-40333095D02*
X76665476Y-40380714D01*
X76665476Y-40380714D02*
X76570238Y-40428333D01*
X76570238Y-40428333D02*
X76475000Y-40523571D01*
X76475000Y-40523571D02*
X76427380Y-40666428D01*
X76427380Y-40666428D02*
X76427380Y-40761666D01*
X76427380Y-40761666D02*
X76475000Y-40904523D01*
X76475000Y-40904523D02*
X76522619Y-40952142D01*
X77427380Y-41904523D02*
X77427380Y-41333095D01*
X77427380Y-41618809D02*
X76427380Y-41618809D01*
X76427380Y-41618809D02*
X76570238Y-41523571D01*
X76570238Y-41523571D02*
X76665476Y-41428333D01*
X76665476Y-41428333D02*
X76713095Y-41333095D01*
X76427380Y-42523571D02*
X76427380Y-42618809D01*
X76427380Y-42618809D02*
X76475000Y-42714047D01*
X76475000Y-42714047D02*
X76522619Y-42761666D01*
X76522619Y-42761666D02*
X76617857Y-42809285D01*
X76617857Y-42809285D02*
X76808333Y-42856904D01*
X76808333Y-42856904D02*
X77046428Y-42856904D01*
X77046428Y-42856904D02*
X77236904Y-42809285D01*
X77236904Y-42809285D02*
X77332142Y-42761666D01*
X77332142Y-42761666D02*
X77379761Y-42714047D01*
X77379761Y-42714047D02*
X77427380Y-42618809D01*
X77427380Y-42618809D02*
X77427380Y-42523571D01*
X77427380Y-42523571D02*
X77379761Y-42428333D01*
X77379761Y-42428333D02*
X77332142Y-42380714D01*
X77332142Y-42380714D02*
X77236904Y-42333095D01*
X77236904Y-42333095D02*
X77046428Y-42285476D01*
X77046428Y-42285476D02*
X76808333Y-42285476D01*
X76808333Y-42285476D02*
X76617857Y-42333095D01*
X76617857Y-42333095D02*
X76522619Y-42380714D01*
X76522619Y-42380714D02*
X76475000Y-42428333D01*
X76475000Y-42428333D02*
X76427380Y-42523571D01*
%TO.C,R27*%
X66579357Y-89867380D02*
X66912690Y-89391190D01*
X67150785Y-89867380D02*
X67150785Y-88867380D01*
X67150785Y-88867380D02*
X66769833Y-88867380D01*
X66769833Y-88867380D02*
X66674595Y-88915000D01*
X66674595Y-88915000D02*
X66626976Y-88962619D01*
X66626976Y-88962619D02*
X66579357Y-89057857D01*
X66579357Y-89057857D02*
X66579357Y-89200714D01*
X66579357Y-89200714D02*
X66626976Y-89295952D01*
X66626976Y-89295952D02*
X66674595Y-89343571D01*
X66674595Y-89343571D02*
X66769833Y-89391190D01*
X66769833Y-89391190D02*
X67150785Y-89391190D01*
X66198404Y-88962619D02*
X66150785Y-88915000D01*
X66150785Y-88915000D02*
X66055547Y-88867380D01*
X66055547Y-88867380D02*
X65817452Y-88867380D01*
X65817452Y-88867380D02*
X65722214Y-88915000D01*
X65722214Y-88915000D02*
X65674595Y-88962619D01*
X65674595Y-88962619D02*
X65626976Y-89057857D01*
X65626976Y-89057857D02*
X65626976Y-89153095D01*
X65626976Y-89153095D02*
X65674595Y-89295952D01*
X65674595Y-89295952D02*
X66246023Y-89867380D01*
X66246023Y-89867380D02*
X65626976Y-89867380D01*
X65293642Y-88867380D02*
X64626976Y-88867380D01*
X64626976Y-88867380D02*
X65055547Y-89867380D01*
%TO.C,Q13*%
X62821428Y-101212619D02*
X62916666Y-101165000D01*
X62916666Y-101165000D02*
X63011904Y-101069761D01*
X63011904Y-101069761D02*
X63154761Y-100926904D01*
X63154761Y-100926904D02*
X63249999Y-100879285D01*
X63249999Y-100879285D02*
X63345237Y-100879285D01*
X63297618Y-101117380D02*
X63392856Y-101069761D01*
X63392856Y-101069761D02*
X63488094Y-100974523D01*
X63488094Y-100974523D02*
X63535713Y-100784047D01*
X63535713Y-100784047D02*
X63535713Y-100450714D01*
X63535713Y-100450714D02*
X63488094Y-100260238D01*
X63488094Y-100260238D02*
X63392856Y-100165000D01*
X63392856Y-100165000D02*
X63297618Y-100117380D01*
X63297618Y-100117380D02*
X63107142Y-100117380D01*
X63107142Y-100117380D02*
X63011904Y-100165000D01*
X63011904Y-100165000D02*
X62916666Y-100260238D01*
X62916666Y-100260238D02*
X62869047Y-100450714D01*
X62869047Y-100450714D02*
X62869047Y-100784047D01*
X62869047Y-100784047D02*
X62916666Y-100974523D01*
X62916666Y-100974523D02*
X63011904Y-101069761D01*
X63011904Y-101069761D02*
X63107142Y-101117380D01*
X63107142Y-101117380D02*
X63297618Y-101117380D01*
X61916666Y-101117380D02*
X62488094Y-101117380D01*
X62202380Y-101117380D02*
X62202380Y-100117380D01*
X62202380Y-100117380D02*
X62297618Y-100260238D01*
X62297618Y-100260238D02*
X62392856Y-100355476D01*
X62392856Y-100355476D02*
X62488094Y-100403095D01*
X61583332Y-100117380D02*
X60964285Y-100117380D01*
X60964285Y-100117380D02*
X61297618Y-100498333D01*
X61297618Y-100498333D02*
X61154761Y-100498333D01*
X61154761Y-100498333D02*
X61059523Y-100545952D01*
X61059523Y-100545952D02*
X61011904Y-100593571D01*
X61011904Y-100593571D02*
X60964285Y-100688809D01*
X60964285Y-100688809D02*
X60964285Y-100926904D01*
X60964285Y-100926904D02*
X61011904Y-101022142D01*
X61011904Y-101022142D02*
X61059523Y-101069761D01*
X61059523Y-101069761D02*
X61154761Y-101117380D01*
X61154761Y-101117380D02*
X61440475Y-101117380D01*
X61440475Y-101117380D02*
X61535713Y-101069761D01*
X61535713Y-101069761D02*
X61583332Y-101022142D01*
%TO.C,R29*%
X63507857Y-112023880D02*
X63841190Y-111547690D01*
X64079285Y-112023880D02*
X64079285Y-111023880D01*
X64079285Y-111023880D02*
X63698333Y-111023880D01*
X63698333Y-111023880D02*
X63603095Y-111071500D01*
X63603095Y-111071500D02*
X63555476Y-111119119D01*
X63555476Y-111119119D02*
X63507857Y-111214357D01*
X63507857Y-111214357D02*
X63507857Y-111357214D01*
X63507857Y-111357214D02*
X63555476Y-111452452D01*
X63555476Y-111452452D02*
X63603095Y-111500071D01*
X63603095Y-111500071D02*
X63698333Y-111547690D01*
X63698333Y-111547690D02*
X64079285Y-111547690D01*
X63126904Y-111119119D02*
X63079285Y-111071500D01*
X63079285Y-111071500D02*
X62984047Y-111023880D01*
X62984047Y-111023880D02*
X62745952Y-111023880D01*
X62745952Y-111023880D02*
X62650714Y-111071500D01*
X62650714Y-111071500D02*
X62603095Y-111119119D01*
X62603095Y-111119119D02*
X62555476Y-111214357D01*
X62555476Y-111214357D02*
X62555476Y-111309595D01*
X62555476Y-111309595D02*
X62603095Y-111452452D01*
X62603095Y-111452452D02*
X63174523Y-112023880D01*
X63174523Y-112023880D02*
X62555476Y-112023880D01*
X62079285Y-112023880D02*
X61888809Y-112023880D01*
X61888809Y-112023880D02*
X61793571Y-111976261D01*
X61793571Y-111976261D02*
X61745952Y-111928642D01*
X61745952Y-111928642D02*
X61650714Y-111785785D01*
X61650714Y-111785785D02*
X61603095Y-111595309D01*
X61603095Y-111595309D02*
X61603095Y-111214357D01*
X61603095Y-111214357D02*
X61650714Y-111119119D01*
X61650714Y-111119119D02*
X61698333Y-111071500D01*
X61698333Y-111071500D02*
X61793571Y-111023880D01*
X61793571Y-111023880D02*
X61984047Y-111023880D01*
X61984047Y-111023880D02*
X62079285Y-111071500D01*
X62079285Y-111071500D02*
X62126904Y-111119119D01*
X62126904Y-111119119D02*
X62174523Y-111214357D01*
X62174523Y-111214357D02*
X62174523Y-111452452D01*
X62174523Y-111452452D02*
X62126904Y-111547690D01*
X62126904Y-111547690D02*
X62079285Y-111595309D01*
X62079285Y-111595309D02*
X61984047Y-111642928D01*
X61984047Y-111642928D02*
X61793571Y-111642928D01*
X61793571Y-111642928D02*
X61698333Y-111595309D01*
X61698333Y-111595309D02*
X61650714Y-111547690D01*
X61650714Y-111547690D02*
X61603095Y-111452452D01*
%TO.C,R5*%
X47053166Y-99553380D02*
X47386499Y-99077190D01*
X47624594Y-99553380D02*
X47624594Y-98553380D01*
X47624594Y-98553380D02*
X47243642Y-98553380D01*
X47243642Y-98553380D02*
X47148404Y-98601000D01*
X47148404Y-98601000D02*
X47100785Y-98648619D01*
X47100785Y-98648619D02*
X47053166Y-98743857D01*
X47053166Y-98743857D02*
X47053166Y-98886714D01*
X47053166Y-98886714D02*
X47100785Y-98981952D01*
X47100785Y-98981952D02*
X47148404Y-99029571D01*
X47148404Y-99029571D02*
X47243642Y-99077190D01*
X47243642Y-99077190D02*
X47624594Y-99077190D01*
X46148404Y-98553380D02*
X46624594Y-98553380D01*
X46624594Y-98553380D02*
X46672213Y-99029571D01*
X46672213Y-99029571D02*
X46624594Y-98981952D01*
X46624594Y-98981952D02*
X46529356Y-98934333D01*
X46529356Y-98934333D02*
X46291261Y-98934333D01*
X46291261Y-98934333D02*
X46196023Y-98981952D01*
X46196023Y-98981952D02*
X46148404Y-99029571D01*
X46148404Y-99029571D02*
X46100785Y-99124809D01*
X46100785Y-99124809D02*
X46100785Y-99362904D01*
X46100785Y-99362904D02*
X46148404Y-99458142D01*
X46148404Y-99458142D02*
X46196023Y-99505761D01*
X46196023Y-99505761D02*
X46291261Y-99553380D01*
X46291261Y-99553380D02*
X46529356Y-99553380D01*
X46529356Y-99553380D02*
X46624594Y-99505761D01*
X46624594Y-99505761D02*
X46672213Y-99458142D01*
%TO.C,R23*%
X66579357Y-99553380D02*
X66912690Y-99077190D01*
X67150785Y-99553380D02*
X67150785Y-98553380D01*
X67150785Y-98553380D02*
X66769833Y-98553380D01*
X66769833Y-98553380D02*
X66674595Y-98601000D01*
X66674595Y-98601000D02*
X66626976Y-98648619D01*
X66626976Y-98648619D02*
X66579357Y-98743857D01*
X66579357Y-98743857D02*
X66579357Y-98886714D01*
X66579357Y-98886714D02*
X66626976Y-98981952D01*
X66626976Y-98981952D02*
X66674595Y-99029571D01*
X66674595Y-99029571D02*
X66769833Y-99077190D01*
X66769833Y-99077190D02*
X67150785Y-99077190D01*
X66198404Y-98648619D02*
X66150785Y-98601000D01*
X66150785Y-98601000D02*
X66055547Y-98553380D01*
X66055547Y-98553380D02*
X65817452Y-98553380D01*
X65817452Y-98553380D02*
X65722214Y-98601000D01*
X65722214Y-98601000D02*
X65674595Y-98648619D01*
X65674595Y-98648619D02*
X65626976Y-98743857D01*
X65626976Y-98743857D02*
X65626976Y-98839095D01*
X65626976Y-98839095D02*
X65674595Y-98981952D01*
X65674595Y-98981952D02*
X66246023Y-99553380D01*
X66246023Y-99553380D02*
X65626976Y-99553380D01*
X65293642Y-98553380D02*
X64674595Y-98553380D01*
X64674595Y-98553380D02*
X65007928Y-98934333D01*
X65007928Y-98934333D02*
X64865071Y-98934333D01*
X64865071Y-98934333D02*
X64769833Y-98981952D01*
X64769833Y-98981952D02*
X64722214Y-99029571D01*
X64722214Y-99029571D02*
X64674595Y-99124809D01*
X64674595Y-99124809D02*
X64674595Y-99362904D01*
X64674595Y-99362904D02*
X64722214Y-99458142D01*
X64722214Y-99458142D02*
X64769833Y-99505761D01*
X64769833Y-99505761D02*
X64865071Y-99553380D01*
X64865071Y-99553380D02*
X65150785Y-99553380D01*
X65150785Y-99553380D02*
X65246023Y-99505761D01*
X65246023Y-99505761D02*
X65293642Y-99458142D01*
%TO.C,Q14*%
X66571428Y-101212619D02*
X66666666Y-101165000D01*
X66666666Y-101165000D02*
X66761904Y-101069761D01*
X66761904Y-101069761D02*
X66904761Y-100926904D01*
X66904761Y-100926904D02*
X66999999Y-100879285D01*
X66999999Y-100879285D02*
X67095237Y-100879285D01*
X67047618Y-101117380D02*
X67142856Y-101069761D01*
X67142856Y-101069761D02*
X67238094Y-100974523D01*
X67238094Y-100974523D02*
X67285713Y-100784047D01*
X67285713Y-100784047D02*
X67285713Y-100450714D01*
X67285713Y-100450714D02*
X67238094Y-100260238D01*
X67238094Y-100260238D02*
X67142856Y-100165000D01*
X67142856Y-100165000D02*
X67047618Y-100117380D01*
X67047618Y-100117380D02*
X66857142Y-100117380D01*
X66857142Y-100117380D02*
X66761904Y-100165000D01*
X66761904Y-100165000D02*
X66666666Y-100260238D01*
X66666666Y-100260238D02*
X66619047Y-100450714D01*
X66619047Y-100450714D02*
X66619047Y-100784047D01*
X66619047Y-100784047D02*
X66666666Y-100974523D01*
X66666666Y-100974523D02*
X66761904Y-101069761D01*
X66761904Y-101069761D02*
X66857142Y-101117380D01*
X66857142Y-101117380D02*
X67047618Y-101117380D01*
X65666666Y-101117380D02*
X66238094Y-101117380D01*
X65952380Y-101117380D02*
X65952380Y-100117380D01*
X65952380Y-100117380D02*
X66047618Y-100260238D01*
X66047618Y-100260238D02*
X66142856Y-100355476D01*
X66142856Y-100355476D02*
X66238094Y-100403095D01*
X64809523Y-100450714D02*
X64809523Y-101117380D01*
X65047618Y-100069761D02*
X65285713Y-100784047D01*
X65285713Y-100784047D02*
X64666666Y-100784047D01*
%TO.C,Q4*%
X50845238Y-101212619D02*
X50940476Y-101165000D01*
X50940476Y-101165000D02*
X51035714Y-101069761D01*
X51035714Y-101069761D02*
X51178571Y-100926904D01*
X51178571Y-100926904D02*
X51273809Y-100879285D01*
X51273809Y-100879285D02*
X51369047Y-100879285D01*
X51321428Y-101117380D02*
X51416666Y-101069761D01*
X51416666Y-101069761D02*
X51511904Y-100974523D01*
X51511904Y-100974523D02*
X51559523Y-100784047D01*
X51559523Y-100784047D02*
X51559523Y-100450714D01*
X51559523Y-100450714D02*
X51511904Y-100260238D01*
X51511904Y-100260238D02*
X51416666Y-100165000D01*
X51416666Y-100165000D02*
X51321428Y-100117380D01*
X51321428Y-100117380D02*
X51130952Y-100117380D01*
X51130952Y-100117380D02*
X51035714Y-100165000D01*
X51035714Y-100165000D02*
X50940476Y-100260238D01*
X50940476Y-100260238D02*
X50892857Y-100450714D01*
X50892857Y-100450714D02*
X50892857Y-100784047D01*
X50892857Y-100784047D02*
X50940476Y-100974523D01*
X50940476Y-100974523D02*
X51035714Y-101069761D01*
X51035714Y-101069761D02*
X51130952Y-101117380D01*
X51130952Y-101117380D02*
X51321428Y-101117380D01*
X50035714Y-100450714D02*
X50035714Y-101117380D01*
X50273809Y-100069761D02*
X50511904Y-100784047D01*
X50511904Y-100784047D02*
X49892857Y-100784047D01*
%TO.C,Q8*%
X57245238Y-66007619D02*
X57340476Y-65960000D01*
X57340476Y-65960000D02*
X57435714Y-65864761D01*
X57435714Y-65864761D02*
X57578571Y-65721904D01*
X57578571Y-65721904D02*
X57673809Y-65674285D01*
X57673809Y-65674285D02*
X57769047Y-65674285D01*
X57721428Y-65912380D02*
X57816666Y-65864761D01*
X57816666Y-65864761D02*
X57911904Y-65769523D01*
X57911904Y-65769523D02*
X57959523Y-65579047D01*
X57959523Y-65579047D02*
X57959523Y-65245714D01*
X57959523Y-65245714D02*
X57911904Y-65055238D01*
X57911904Y-65055238D02*
X57816666Y-64960000D01*
X57816666Y-64960000D02*
X57721428Y-64912380D01*
X57721428Y-64912380D02*
X57530952Y-64912380D01*
X57530952Y-64912380D02*
X57435714Y-64960000D01*
X57435714Y-64960000D02*
X57340476Y-65055238D01*
X57340476Y-65055238D02*
X57292857Y-65245714D01*
X57292857Y-65245714D02*
X57292857Y-65579047D01*
X57292857Y-65579047D02*
X57340476Y-65769523D01*
X57340476Y-65769523D02*
X57435714Y-65864761D01*
X57435714Y-65864761D02*
X57530952Y-65912380D01*
X57530952Y-65912380D02*
X57721428Y-65912380D01*
X56721428Y-65340952D02*
X56816666Y-65293333D01*
X56816666Y-65293333D02*
X56864285Y-65245714D01*
X56864285Y-65245714D02*
X56911904Y-65150476D01*
X56911904Y-65150476D02*
X56911904Y-65102857D01*
X56911904Y-65102857D02*
X56864285Y-65007619D01*
X56864285Y-65007619D02*
X56816666Y-64960000D01*
X56816666Y-64960000D02*
X56721428Y-64912380D01*
X56721428Y-64912380D02*
X56530952Y-64912380D01*
X56530952Y-64912380D02*
X56435714Y-64960000D01*
X56435714Y-64960000D02*
X56388095Y-65007619D01*
X56388095Y-65007619D02*
X56340476Y-65102857D01*
X56340476Y-65102857D02*
X56340476Y-65150476D01*
X56340476Y-65150476D02*
X56388095Y-65245714D01*
X56388095Y-65245714D02*
X56435714Y-65293333D01*
X56435714Y-65293333D02*
X56530952Y-65340952D01*
X56530952Y-65340952D02*
X56721428Y-65340952D01*
X56721428Y-65340952D02*
X56816666Y-65388571D01*
X56816666Y-65388571D02*
X56864285Y-65436190D01*
X56864285Y-65436190D02*
X56911904Y-65531428D01*
X56911904Y-65531428D02*
X56911904Y-65721904D01*
X56911904Y-65721904D02*
X56864285Y-65817142D01*
X56864285Y-65817142D02*
X56816666Y-65864761D01*
X56816666Y-65864761D02*
X56721428Y-65912380D01*
X56721428Y-65912380D02*
X56530952Y-65912380D01*
X56530952Y-65912380D02*
X56435714Y-65864761D01*
X56435714Y-65864761D02*
X56388095Y-65817142D01*
X56388095Y-65817142D02*
X56340476Y-65721904D01*
X56340476Y-65721904D02*
X56340476Y-65531428D01*
X56340476Y-65531428D02*
X56388095Y-65436190D01*
X56388095Y-65436190D02*
X56435714Y-65388571D01*
X56435714Y-65388571D02*
X56530952Y-65340952D01*
%TO.C,R4*%
X43243166Y-89867380D02*
X43576499Y-89391190D01*
X43814594Y-89867380D02*
X43814594Y-88867380D01*
X43814594Y-88867380D02*
X43433642Y-88867380D01*
X43433642Y-88867380D02*
X43338404Y-88915000D01*
X43338404Y-88915000D02*
X43290785Y-88962619D01*
X43290785Y-88962619D02*
X43243166Y-89057857D01*
X43243166Y-89057857D02*
X43243166Y-89200714D01*
X43243166Y-89200714D02*
X43290785Y-89295952D01*
X43290785Y-89295952D02*
X43338404Y-89343571D01*
X43338404Y-89343571D02*
X43433642Y-89391190D01*
X43433642Y-89391190D02*
X43814594Y-89391190D01*
X42386023Y-89200714D02*
X42386023Y-89867380D01*
X42624118Y-88819761D02*
X42862213Y-89534047D01*
X42862213Y-89534047D02*
X42243166Y-89534047D01*
%TO.C,R10*%
X85582357Y-89903380D02*
X85915690Y-89427190D01*
X86153785Y-89903380D02*
X86153785Y-88903380D01*
X86153785Y-88903380D02*
X85772833Y-88903380D01*
X85772833Y-88903380D02*
X85677595Y-88951000D01*
X85677595Y-88951000D02*
X85629976Y-88998619D01*
X85629976Y-88998619D02*
X85582357Y-89093857D01*
X85582357Y-89093857D02*
X85582357Y-89236714D01*
X85582357Y-89236714D02*
X85629976Y-89331952D01*
X85629976Y-89331952D02*
X85677595Y-89379571D01*
X85677595Y-89379571D02*
X85772833Y-89427190D01*
X85772833Y-89427190D02*
X86153785Y-89427190D01*
X84629976Y-89903380D02*
X85201404Y-89903380D01*
X84915690Y-89903380D02*
X84915690Y-88903380D01*
X84915690Y-88903380D02*
X85010928Y-89046238D01*
X85010928Y-89046238D02*
X85106166Y-89141476D01*
X85106166Y-89141476D02*
X85201404Y-89189095D01*
X84010928Y-88903380D02*
X83915690Y-88903380D01*
X83915690Y-88903380D02*
X83820452Y-88951000D01*
X83820452Y-88951000D02*
X83772833Y-88998619D01*
X83772833Y-88998619D02*
X83725214Y-89093857D01*
X83725214Y-89093857D02*
X83677595Y-89284333D01*
X83677595Y-89284333D02*
X83677595Y-89522428D01*
X83677595Y-89522428D02*
X83725214Y-89712904D01*
X83725214Y-89712904D02*
X83772833Y-89808142D01*
X83772833Y-89808142D02*
X83820452Y-89855761D01*
X83820452Y-89855761D02*
X83915690Y-89903380D01*
X83915690Y-89903380D02*
X84010928Y-89903380D01*
X84010928Y-89903380D02*
X84106166Y-89855761D01*
X84106166Y-89855761D02*
X84153785Y-89808142D01*
X84153785Y-89808142D02*
X84201404Y-89712904D01*
X84201404Y-89712904D02*
X84249023Y-89522428D01*
X84249023Y-89522428D02*
X84249023Y-89284333D01*
X84249023Y-89284333D02*
X84201404Y-89093857D01*
X84201404Y-89093857D02*
X84153785Y-88998619D01*
X84153785Y-88998619D02*
X84106166Y-88951000D01*
X84106166Y-88951000D02*
X84010928Y-88903380D01*
%TO.C,R7*%
X50863166Y-99553380D02*
X51196499Y-99077190D01*
X51434594Y-99553380D02*
X51434594Y-98553380D01*
X51434594Y-98553380D02*
X51053642Y-98553380D01*
X51053642Y-98553380D02*
X50958404Y-98601000D01*
X50958404Y-98601000D02*
X50910785Y-98648619D01*
X50910785Y-98648619D02*
X50863166Y-98743857D01*
X50863166Y-98743857D02*
X50863166Y-98886714D01*
X50863166Y-98886714D02*
X50910785Y-98981952D01*
X50910785Y-98981952D02*
X50958404Y-99029571D01*
X50958404Y-99029571D02*
X51053642Y-99077190D01*
X51053642Y-99077190D02*
X51434594Y-99077190D01*
X50529832Y-98553380D02*
X49863166Y-98553380D01*
X49863166Y-98553380D02*
X50291737Y-99553380D01*
%TO.C,Q1*%
X79212619Y-94265761D02*
X79165000Y-94170523D01*
X79165000Y-94170523D02*
X79069761Y-94075285D01*
X79069761Y-94075285D02*
X78926904Y-93932428D01*
X78926904Y-93932428D02*
X78879285Y-93837190D01*
X78879285Y-93837190D02*
X78879285Y-93741952D01*
X79117380Y-93789571D02*
X79069761Y-93694333D01*
X79069761Y-93694333D02*
X78974523Y-93599095D01*
X78974523Y-93599095D02*
X78784047Y-93551476D01*
X78784047Y-93551476D02*
X78450714Y-93551476D01*
X78450714Y-93551476D02*
X78260238Y-93599095D01*
X78260238Y-93599095D02*
X78165000Y-93694333D01*
X78165000Y-93694333D02*
X78117380Y-93789571D01*
X78117380Y-93789571D02*
X78117380Y-93980047D01*
X78117380Y-93980047D02*
X78165000Y-94075285D01*
X78165000Y-94075285D02*
X78260238Y-94170523D01*
X78260238Y-94170523D02*
X78450714Y-94218142D01*
X78450714Y-94218142D02*
X78784047Y-94218142D01*
X78784047Y-94218142D02*
X78974523Y-94170523D01*
X78974523Y-94170523D02*
X79069761Y-94075285D01*
X79069761Y-94075285D02*
X79117380Y-93980047D01*
X79117380Y-93980047D02*
X79117380Y-93789571D01*
X79117380Y-95170523D02*
X79117380Y-94599095D01*
X79117380Y-94884809D02*
X78117380Y-94884809D01*
X78117380Y-94884809D02*
X78260238Y-94789571D01*
X78260238Y-94789571D02*
X78355476Y-94694333D01*
X78355476Y-94694333D02*
X78403095Y-94599095D01*
%TO.C,Q6*%
X49595238Y-70462619D02*
X49690476Y-70415000D01*
X49690476Y-70415000D02*
X49785714Y-70319761D01*
X49785714Y-70319761D02*
X49928571Y-70176904D01*
X49928571Y-70176904D02*
X50023809Y-70129285D01*
X50023809Y-70129285D02*
X50119047Y-70129285D01*
X50071428Y-70367380D02*
X50166666Y-70319761D01*
X50166666Y-70319761D02*
X50261904Y-70224523D01*
X50261904Y-70224523D02*
X50309523Y-70034047D01*
X50309523Y-70034047D02*
X50309523Y-69700714D01*
X50309523Y-69700714D02*
X50261904Y-69510238D01*
X50261904Y-69510238D02*
X50166666Y-69415000D01*
X50166666Y-69415000D02*
X50071428Y-69367380D01*
X50071428Y-69367380D02*
X49880952Y-69367380D01*
X49880952Y-69367380D02*
X49785714Y-69415000D01*
X49785714Y-69415000D02*
X49690476Y-69510238D01*
X49690476Y-69510238D02*
X49642857Y-69700714D01*
X49642857Y-69700714D02*
X49642857Y-70034047D01*
X49642857Y-70034047D02*
X49690476Y-70224523D01*
X49690476Y-70224523D02*
X49785714Y-70319761D01*
X49785714Y-70319761D02*
X49880952Y-70367380D01*
X49880952Y-70367380D02*
X50071428Y-70367380D01*
X48785714Y-69367380D02*
X48976190Y-69367380D01*
X48976190Y-69367380D02*
X49071428Y-69415000D01*
X49071428Y-69415000D02*
X49119047Y-69462619D01*
X49119047Y-69462619D02*
X49214285Y-69605476D01*
X49214285Y-69605476D02*
X49261904Y-69795952D01*
X49261904Y-69795952D02*
X49261904Y-70176904D01*
X49261904Y-70176904D02*
X49214285Y-70272142D01*
X49214285Y-70272142D02*
X49166666Y-70319761D01*
X49166666Y-70319761D02*
X49071428Y-70367380D01*
X49071428Y-70367380D02*
X48880952Y-70367380D01*
X48880952Y-70367380D02*
X48785714Y-70319761D01*
X48785714Y-70319761D02*
X48738095Y-70272142D01*
X48738095Y-70272142D02*
X48690476Y-70176904D01*
X48690476Y-70176904D02*
X48690476Y-69938809D01*
X48690476Y-69938809D02*
X48738095Y-69843571D01*
X48738095Y-69843571D02*
X48785714Y-69795952D01*
X48785714Y-69795952D02*
X48880952Y-69748333D01*
X48880952Y-69748333D02*
X49071428Y-69748333D01*
X49071428Y-69748333D02*
X49166666Y-69795952D01*
X49166666Y-69795952D02*
X49214285Y-69843571D01*
X49214285Y-69843571D02*
X49261904Y-69938809D01*
%TO.C,Q15*%
X70321428Y-101212619D02*
X70416666Y-101165000D01*
X70416666Y-101165000D02*
X70511904Y-101069761D01*
X70511904Y-101069761D02*
X70654761Y-100926904D01*
X70654761Y-100926904D02*
X70749999Y-100879285D01*
X70749999Y-100879285D02*
X70845237Y-100879285D01*
X70797618Y-101117380D02*
X70892856Y-101069761D01*
X70892856Y-101069761D02*
X70988094Y-100974523D01*
X70988094Y-100974523D02*
X71035713Y-100784047D01*
X71035713Y-100784047D02*
X71035713Y-100450714D01*
X71035713Y-100450714D02*
X70988094Y-100260238D01*
X70988094Y-100260238D02*
X70892856Y-100165000D01*
X70892856Y-100165000D02*
X70797618Y-100117380D01*
X70797618Y-100117380D02*
X70607142Y-100117380D01*
X70607142Y-100117380D02*
X70511904Y-100165000D01*
X70511904Y-100165000D02*
X70416666Y-100260238D01*
X70416666Y-100260238D02*
X70369047Y-100450714D01*
X70369047Y-100450714D02*
X70369047Y-100784047D01*
X70369047Y-100784047D02*
X70416666Y-100974523D01*
X70416666Y-100974523D02*
X70511904Y-101069761D01*
X70511904Y-101069761D02*
X70607142Y-101117380D01*
X70607142Y-101117380D02*
X70797618Y-101117380D01*
X69416666Y-101117380D02*
X69988094Y-101117380D01*
X69702380Y-101117380D02*
X69702380Y-100117380D01*
X69702380Y-100117380D02*
X69797618Y-100260238D01*
X69797618Y-100260238D02*
X69892856Y-100355476D01*
X69892856Y-100355476D02*
X69988094Y-100403095D01*
X68511904Y-100117380D02*
X68988094Y-100117380D01*
X68988094Y-100117380D02*
X69035713Y-100593571D01*
X69035713Y-100593571D02*
X68988094Y-100545952D01*
X68988094Y-100545952D02*
X68892856Y-100498333D01*
X68892856Y-100498333D02*
X68654761Y-100498333D01*
X68654761Y-100498333D02*
X68559523Y-100545952D01*
X68559523Y-100545952D02*
X68511904Y-100593571D01*
X68511904Y-100593571D02*
X68464285Y-100688809D01*
X68464285Y-100688809D02*
X68464285Y-100926904D01*
X68464285Y-100926904D02*
X68511904Y-101022142D01*
X68511904Y-101022142D02*
X68559523Y-101069761D01*
X68559523Y-101069761D02*
X68654761Y-101117380D01*
X68654761Y-101117380D02*
X68892856Y-101117380D01*
X68892856Y-101117380D02*
X68988094Y-101069761D01*
X68988094Y-101069761D02*
X69035713Y-101022142D01*
%TO.C,R8*%
X54673166Y-99553380D02*
X55006499Y-99077190D01*
X55244594Y-99553380D02*
X55244594Y-98553380D01*
X55244594Y-98553380D02*
X54863642Y-98553380D01*
X54863642Y-98553380D02*
X54768404Y-98601000D01*
X54768404Y-98601000D02*
X54720785Y-98648619D01*
X54720785Y-98648619D02*
X54673166Y-98743857D01*
X54673166Y-98743857D02*
X54673166Y-98886714D01*
X54673166Y-98886714D02*
X54720785Y-98981952D01*
X54720785Y-98981952D02*
X54768404Y-99029571D01*
X54768404Y-99029571D02*
X54863642Y-99077190D01*
X54863642Y-99077190D02*
X55244594Y-99077190D01*
X54101737Y-98981952D02*
X54196975Y-98934333D01*
X54196975Y-98934333D02*
X54244594Y-98886714D01*
X54244594Y-98886714D02*
X54292213Y-98791476D01*
X54292213Y-98791476D02*
X54292213Y-98743857D01*
X54292213Y-98743857D02*
X54244594Y-98648619D01*
X54244594Y-98648619D02*
X54196975Y-98601000D01*
X54196975Y-98601000D02*
X54101737Y-98553380D01*
X54101737Y-98553380D02*
X53911261Y-98553380D01*
X53911261Y-98553380D02*
X53816023Y-98601000D01*
X53816023Y-98601000D02*
X53768404Y-98648619D01*
X53768404Y-98648619D02*
X53720785Y-98743857D01*
X53720785Y-98743857D02*
X53720785Y-98791476D01*
X53720785Y-98791476D02*
X53768404Y-98886714D01*
X53768404Y-98886714D02*
X53816023Y-98934333D01*
X53816023Y-98934333D02*
X53911261Y-98981952D01*
X53911261Y-98981952D02*
X54101737Y-98981952D01*
X54101737Y-98981952D02*
X54196975Y-99029571D01*
X54196975Y-99029571D02*
X54244594Y-99077190D01*
X54244594Y-99077190D02*
X54292213Y-99172428D01*
X54292213Y-99172428D02*
X54292213Y-99362904D01*
X54292213Y-99362904D02*
X54244594Y-99458142D01*
X54244594Y-99458142D02*
X54196975Y-99505761D01*
X54196975Y-99505761D02*
X54101737Y-99553380D01*
X54101737Y-99553380D02*
X53911261Y-99553380D01*
X53911261Y-99553380D02*
X53816023Y-99505761D01*
X53816023Y-99505761D02*
X53768404Y-99458142D01*
X53768404Y-99458142D02*
X53720785Y-99362904D01*
X53720785Y-99362904D02*
X53720785Y-99172428D01*
X53720785Y-99172428D02*
X53768404Y-99077190D01*
X53768404Y-99077190D02*
X53816023Y-99029571D01*
X53816023Y-99029571D02*
X53911261Y-98981952D01*
%TO.C,R26*%
X63142857Y-89867380D02*
X63476190Y-89391190D01*
X63714285Y-89867380D02*
X63714285Y-88867380D01*
X63714285Y-88867380D02*
X63333333Y-88867380D01*
X63333333Y-88867380D02*
X63238095Y-88915000D01*
X63238095Y-88915000D02*
X63190476Y-88962619D01*
X63190476Y-88962619D02*
X63142857Y-89057857D01*
X63142857Y-89057857D02*
X63142857Y-89200714D01*
X63142857Y-89200714D02*
X63190476Y-89295952D01*
X63190476Y-89295952D02*
X63238095Y-89343571D01*
X63238095Y-89343571D02*
X63333333Y-89391190D01*
X63333333Y-89391190D02*
X63714285Y-89391190D01*
X62761904Y-88962619D02*
X62714285Y-88915000D01*
X62714285Y-88915000D02*
X62619047Y-88867380D01*
X62619047Y-88867380D02*
X62380952Y-88867380D01*
X62380952Y-88867380D02*
X62285714Y-88915000D01*
X62285714Y-88915000D02*
X62238095Y-88962619D01*
X62238095Y-88962619D02*
X62190476Y-89057857D01*
X62190476Y-89057857D02*
X62190476Y-89153095D01*
X62190476Y-89153095D02*
X62238095Y-89295952D01*
X62238095Y-89295952D02*
X62809523Y-89867380D01*
X62809523Y-89867380D02*
X62190476Y-89867380D01*
X61333333Y-88867380D02*
X61523809Y-88867380D01*
X61523809Y-88867380D02*
X61619047Y-88915000D01*
X61619047Y-88915000D02*
X61666666Y-88962619D01*
X61666666Y-88962619D02*
X61761904Y-89105476D01*
X61761904Y-89105476D02*
X61809523Y-89295952D01*
X61809523Y-89295952D02*
X61809523Y-89676904D01*
X61809523Y-89676904D02*
X61761904Y-89772142D01*
X61761904Y-89772142D02*
X61714285Y-89819761D01*
X61714285Y-89819761D02*
X61619047Y-89867380D01*
X61619047Y-89867380D02*
X61428571Y-89867380D01*
X61428571Y-89867380D02*
X61333333Y-89819761D01*
X61333333Y-89819761D02*
X61285714Y-89772142D01*
X61285714Y-89772142D02*
X61238095Y-89676904D01*
X61238095Y-89676904D02*
X61238095Y-89438809D01*
X61238095Y-89438809D02*
X61285714Y-89343571D01*
X61285714Y-89343571D02*
X61333333Y-89295952D01*
X61333333Y-89295952D02*
X61428571Y-89248333D01*
X61428571Y-89248333D02*
X61619047Y-89248333D01*
X61619047Y-89248333D02*
X61714285Y-89295952D01*
X61714285Y-89295952D02*
X61761904Y-89343571D01*
X61761904Y-89343571D02*
X61809523Y-89438809D01*
D12*
%TO.C,C12*%
X92175000Y-26662748D02*
X92175000Y-27185252D01*
X90705000Y-26662748D02*
X90705000Y-27185252D01*
%TO.C,C13*%
X97690000Y-72143252D02*
X97690000Y-71620748D01*
X99160000Y-72143252D02*
X99160000Y-71620748D01*
%TO.C,C14*%
X88165000Y-84401252D02*
X88165000Y-83878748D01*
X89635000Y-84401252D02*
X89635000Y-83878748D01*
%TO.C,C18*%
X74195000Y-84401252D02*
X74195000Y-83878748D01*
X75665000Y-84401252D02*
X75665000Y-83878748D01*
%TO.C,C2*%
X32792648Y-29198000D02*
X33315152Y-29198000D01*
X32792648Y-30668000D02*
X33315152Y-30668000D01*
%TO.C,C3*%
X32792648Y-34552200D02*
X33315152Y-34552200D01*
X32792648Y-36022200D02*
X33315152Y-36022200D01*
%TO.C,R19*%
X53571064Y-63346000D02*
X53116936Y-63346000D01*
X53571064Y-61876000D02*
X53116936Y-61876000D01*
%TO.C,R14*%
X53567064Y-69635000D02*
X53112936Y-69635000D01*
X53567064Y-68165000D02*
X53112936Y-68165000D01*
%TO.C,R15*%
X53567064Y-67095000D02*
X53112936Y-67095000D01*
X53567064Y-65625000D02*
X53112936Y-65625000D01*
%TO.C,R18*%
X59590000Y-69127064D02*
X59590000Y-68672936D01*
X61060000Y-69127064D02*
X61060000Y-68672936D01*
%TO.C,C19*%
X110688748Y-81765000D02*
X111211252Y-81765000D01*
X110688748Y-83235000D02*
X111211252Y-83235000D01*
%TO.C,R11*%
X107265000Y-81477064D02*
X107265000Y-81022936D01*
X108735000Y-81477064D02*
X108735000Y-81022936D01*
%TO.C,C6*%
X38041252Y-111860000D02*
X37518748Y-111860000D01*
X38041252Y-110390000D02*
X37518748Y-110390000D01*
%TO.C,C8*%
X111211252Y-80985000D02*
X110688748Y-80985000D01*
X111211252Y-79515000D02*
X110688748Y-79515000D01*
%TO.C,R12*%
X110265000Y-89727064D02*
X110265000Y-89272936D01*
X111735000Y-89727064D02*
X111735000Y-89272936D01*
%TO.C,R13*%
X109735000Y-89272936D02*
X109735000Y-89727064D01*
X108265000Y-89272936D02*
X108265000Y-89727064D01*
%TO.C,R17*%
X54279436Y-90451000D02*
X54733564Y-90451000D01*
X54279436Y-91921000D02*
X54733564Y-91921000D01*
%TO.C,C15*%
X99735000Y-108238748D02*
X99735000Y-108761252D01*
X98265000Y-108238748D02*
X98265000Y-108761252D01*
%TO.C,C17*%
X103171252Y-112495000D02*
X102648748Y-112495000D01*
X103171252Y-111025000D02*
X102648748Y-111025000D01*
%TO.C,C16*%
X101735000Y-108238748D02*
X101735000Y-108761252D01*
X100265000Y-108238748D02*
X100265000Y-108761252D01*
%TO.C,C20*%
X69115000Y-45727252D02*
X69115000Y-45204748D01*
X70585000Y-45727252D02*
X70585000Y-45204748D01*
%TO.C,C22*%
X43915000Y-26662748D02*
X43915000Y-27185252D01*
X42445000Y-26662748D02*
X42445000Y-27185252D01*
%TO.C,C24*%
X68045000Y-26662748D02*
X68045000Y-27185252D01*
X66575000Y-26662748D02*
X66575000Y-27185252D01*
%TO.C,R20*%
X57377064Y-71540000D02*
X56922936Y-71540000D01*
X57377064Y-70070000D02*
X56922936Y-70070000D01*
%TO.C,Q2*%
X44636500Y-94361000D02*
X44636500Y-93711000D01*
X44636500Y-94361000D02*
X44636500Y-95011000D01*
X41516500Y-94361000D02*
X41516500Y-92686000D01*
X41516500Y-94361000D02*
X41516500Y-95011000D01*
%TO.C,R24*%
X69519436Y-96801000D02*
X69973564Y-96801000D01*
X69519436Y-98271000D02*
X69973564Y-98271000D01*
%TO.C,Q10*%
X108440000Y-85750000D02*
X108440000Y-86400000D01*
X108440000Y-85750000D02*
X108440000Y-85100000D01*
X111560000Y-85750000D02*
X111560000Y-87425000D01*
X111560000Y-85750000D02*
X111560000Y-85100000D01*
%TO.C,Q9*%
X49530000Y-65060000D02*
X50180000Y-65060000D01*
X49530000Y-65060000D02*
X48880000Y-65060000D01*
X49530000Y-61940000D02*
X51205000Y-61940000D01*
X49530000Y-61940000D02*
X48880000Y-61940000D01*
%TO.C,Q5*%
X83379500Y-94361000D02*
X83379500Y-95011000D01*
X83379500Y-94361000D02*
X83379500Y-93711000D01*
X86499500Y-94361000D02*
X86499500Y-96036000D01*
X86499500Y-94361000D02*
X86499500Y-93711000D01*
%TO.C,Q7*%
X111560000Y-93250000D02*
X111560000Y-92600000D01*
X111560000Y-93250000D02*
X111560000Y-93900000D01*
X108440000Y-93250000D02*
X108440000Y-91575000D01*
X108440000Y-93250000D02*
X108440000Y-93900000D01*
%TO.C,R3*%
X42849436Y-96801000D02*
X43303564Y-96801000D01*
X42849436Y-98271000D02*
X43303564Y-98271000D01*
%TO.C,R1*%
X81356564Y-91921000D02*
X80902436Y-91921000D01*
X81356564Y-90451000D02*
X80902436Y-90451000D01*
%TO.C,Q3*%
X48446500Y-94361000D02*
X48446500Y-93711000D01*
X48446500Y-94361000D02*
X48446500Y-95011000D01*
X45326500Y-94361000D02*
X45326500Y-92686000D01*
X45326500Y-94361000D02*
X45326500Y-95011000D01*
%TO.C,R2*%
X81356564Y-98271000D02*
X80902436Y-98271000D01*
X81356564Y-96801000D02*
X80902436Y-96801000D01*
%TO.C,Q12*%
X56756500Y-94361000D02*
X56756500Y-95011000D01*
X56756500Y-94361000D02*
X56756500Y-92686000D01*
X59876500Y-94361000D02*
X59876500Y-95011000D01*
X59876500Y-94361000D02*
X59876500Y-93711000D01*
%TO.C,R31*%
X52170000Y-113715436D02*
X52170000Y-114169564D01*
X50700000Y-113715436D02*
X50700000Y-114169564D01*
%TO.C,R22*%
X62353564Y-98271000D02*
X61899436Y-98271000D01*
X62353564Y-96801000D02*
X61899436Y-96801000D01*
%TO.C,Q11*%
X56066500Y-94361000D02*
X56066500Y-93711000D01*
X56066500Y-94361000D02*
X56066500Y-95011000D01*
X52946500Y-94361000D02*
X52946500Y-92686000D01*
X52946500Y-94361000D02*
X52946500Y-95011000D01*
%TO.C,R9*%
X85166564Y-98271000D02*
X84712436Y-98271000D01*
X85166564Y-96801000D02*
X84712436Y-96801000D01*
%TO.C,R6*%
X46659436Y-90451000D02*
X47113564Y-90451000D01*
X46659436Y-91921000D02*
X47113564Y-91921000D01*
%TO.C,R21*%
X58543564Y-98271000D02*
X58089436Y-98271000D01*
X58543564Y-96801000D02*
X58089436Y-96801000D01*
%TO.C,R16*%
X50469436Y-90451000D02*
X50923564Y-90451000D01*
X50469436Y-91921000D02*
X50923564Y-91921000D01*
%TO.C,R25*%
X58089436Y-90451000D02*
X58543564Y-90451000D01*
X58089436Y-91921000D02*
X58543564Y-91921000D01*
%TO.C,R28*%
X69519436Y-90451000D02*
X69973564Y-90451000D01*
X69519436Y-91921000D02*
X69973564Y-91921000D01*
%TO.C,R30*%
X57885000Y-113715436D02*
X57885000Y-114169564D01*
X56415000Y-113715436D02*
X56415000Y-114169564D01*
%TO.C,C10*%
X79475000Y-41333748D02*
X79475000Y-41856252D01*
X78005000Y-41333748D02*
X78005000Y-41856252D01*
%TO.C,R27*%
X65709436Y-90451000D02*
X66163564Y-90451000D01*
X65709436Y-91921000D02*
X66163564Y-91921000D01*
%TO.C,Q13*%
X63686500Y-94361000D02*
X63686500Y-93711000D01*
X63686500Y-94361000D02*
X63686500Y-95011000D01*
X60566500Y-94361000D02*
X60566500Y-92686000D01*
X60566500Y-94361000D02*
X60566500Y-95011000D01*
%TO.C,R29*%
X63600000Y-113715436D02*
X63600000Y-114169564D01*
X62130000Y-113715436D02*
X62130000Y-114169564D01*
%TO.C,R5*%
X46659436Y-96801000D02*
X47113564Y-96801000D01*
X46659436Y-98271000D02*
X47113564Y-98271000D01*
%TO.C,R23*%
X65709436Y-96801000D02*
X66163564Y-96801000D01*
X65709436Y-98271000D02*
X66163564Y-98271000D01*
%TO.C,Q14*%
X67496500Y-94361000D02*
X67496500Y-93711000D01*
X67496500Y-94361000D02*
X67496500Y-95011000D01*
X64376500Y-94361000D02*
X64376500Y-92686000D01*
X64376500Y-94361000D02*
X64376500Y-95011000D01*
%TO.C,Q4*%
X52256500Y-94361000D02*
X52256500Y-93711000D01*
X52256500Y-94361000D02*
X52256500Y-95011000D01*
X49136500Y-94361000D02*
X49136500Y-92686000D01*
X49136500Y-94361000D02*
X49136500Y-95011000D01*
%TO.C,Q8*%
X57150000Y-69505000D02*
X57800000Y-69505000D01*
X57150000Y-69505000D02*
X56500000Y-69505000D01*
X57150000Y-66385000D02*
X58825000Y-66385000D01*
X57150000Y-66385000D02*
X56500000Y-66385000D01*
%TO.C,R4*%
X42849436Y-90451000D02*
X43303564Y-90451000D01*
X42849436Y-91921000D02*
X43303564Y-91921000D01*
%TO.C,R10*%
X85166564Y-91921000D02*
X84712436Y-91921000D01*
X85166564Y-90451000D02*
X84712436Y-90451000D01*
%TO.C,R7*%
X50469436Y-96801000D02*
X50923564Y-96801000D01*
X50469436Y-98271000D02*
X50923564Y-98271000D01*
%TO.C,Q1*%
X79569500Y-94361000D02*
X79569500Y-95011000D01*
X79569500Y-94361000D02*
X79569500Y-93711000D01*
X82689500Y-94361000D02*
X82689500Y-96036000D01*
X82689500Y-94361000D02*
X82689500Y-93711000D01*
%TO.C,Q6*%
X49530000Y-68870000D02*
X50180000Y-68870000D01*
X49530000Y-68870000D02*
X48880000Y-68870000D01*
X49530000Y-65750000D02*
X51205000Y-65750000D01*
X49530000Y-65750000D02*
X48880000Y-65750000D01*
%TO.C,Q15*%
X71306500Y-94361000D02*
X71306500Y-93711000D01*
X71306500Y-94361000D02*
X71306500Y-95011000D01*
X68186500Y-94361000D02*
X68186500Y-92686000D01*
X68186500Y-94361000D02*
X68186500Y-95011000D01*
%TO.C,R8*%
X54279436Y-96801000D02*
X54733564Y-96801000D01*
X54279436Y-98271000D02*
X54733564Y-98271000D01*
%TO.C,R26*%
X61899436Y-90451000D02*
X62353564Y-90451000D01*
X61899436Y-91921000D02*
X62353564Y-91921000D01*
%TD*%
M02*
