M48
; DRILL file {KiCad 7.0.0-da2b9df05c~163~ubuntu22.04.1} date Wed 22 Feb 2023 06:51:18 PM
; FORMAT={-:-/ absolute / inch / decimal}
; #@! TF.CreationDate,2023-02-22T18:51:18-05:00
; #@! TF.GenerationSoftware,Kicad,Pcbnew,7.0.0-da2b9df05c~163~ubuntu22.04.1
; #@! TF.FileFunction,Plated,1,2,PTH
FMAT,2
INCH
; #@! TA.AperFunction,Plated,PTH,ComponentDrill
T1C0.0079
; #@! TA.AperFunction,Plated,PTH,ViaDrill
T2C0.0118
; #@! TA.AperFunction,Plated,PTH,ComponentDrill
T3C0.0197
; #@! TA.AperFunction,Plated,PTH,ViaDrill
T4C0.0236
; #@! TA.AperFunction,Plated,PTH,ComponentDrill
T5C0.0236
; #@! TA.AperFunction,Plated,PTH,ComponentDrill
T6C0.0300
; #@! TA.AperFunction,Plated,PTH,ComponentDrill
T7C0.0315
; #@! TA.AperFunction,Plated,PTH,ComponentDrill
T8C0.0335
; #@! TA.AperFunction,Plated,PTH,ComponentDrill
T9C0.0354
; #@! TA.AperFunction,Plated,PTH,ComponentDrill
T10C0.0394
%
G90
G05
T1
X4.063Y-3.4454
X4.063Y-3.5054
X4.093Y-3.4154
X4.093Y-3.4754
X4.093Y-3.5354
X4.123Y-3.4454
X4.123Y-3.5054
X4.1531Y-3.4154
X4.1531Y-3.4754
X4.1531Y-3.5354
X4.1831Y-3.4454
X4.1831Y-3.5054
T2
X1.4212Y-1.8787
X1.4759Y-1.7402
X1.4808Y-2.6417
X1.4853Y-2.675
X1.4967Y-1.7874
X1.5124Y-2.8689
X1.5261Y-1.7998
X1.5405Y-1.7707
X1.8176Y-2.5722
X2.032Y-3.5137
X2.1342Y-1.1819
X2.1698Y-3.5428
X2.259Y-2.422
X2.4107Y-2.1863
X2.4303Y-2.2549
X2.4522Y-2.0501
X2.4935Y-2.1085
X2.6295Y-3.7267
X2.6524Y-3.8855
X2.7144Y-3.7507
X2.7851Y-1.4291
X2.8064Y-2.1415
X2.8602Y-2.119
X2.8626Y-2.0118
X2.8706Y-1.9604
X2.9005Y-1.7934
X2.9036Y-3.461
X2.9128Y-2.0219
X2.9329Y-1.997
X2.9813Y-3.5889
X3.0093Y-1.9562
X3.0144Y-3.5864
X3.0236Y-1.8205
X3.0498Y-3.5868
X3.0772Y-3.5415
X3.2752Y-3.7679
X3.2826Y-1.6099
X3.4064Y-3.0507
X3.4661Y-3.5285
X3.4706Y-3.0877
X3.5006Y-3.5503
X3.5376Y-3.9532
X3.5638Y-3.676
X3.5702Y-1.9133
X3.5708Y-3.1798
X3.6613Y-3.1021
X3.6636Y-3.3449
X3.6713Y-3.9925
X3.8596Y-3.2523
X3.8689Y-3.8959
X3.9435Y-4.1986
X4.031Y-3.2376
X4.0734Y-3.7922
X4.1269Y-4.4279
X4.1563Y-4.4799
X4.1702Y-3.9115
X4.2206Y-3.9202
X4.233Y-3.7441
X4.2914Y-3.2652
T3
X3.5996Y-1.3976
X3.6996Y-1.3976
T4
X1.5505Y-2.4116
X1.7659Y-3.8914
X1.9165Y-2.6987
X1.9652Y-3.5313
X1.9959Y-3.8901
X2.1993Y-2.7219
X2.2567Y-3.5311
X2.4459Y-3.5399
X2.5385Y-3.5325
X2.8959Y-3.6286
X2.9479Y-3.4185
X3.0065Y-3.2486
X3.1852Y-3.4148
X3.2708Y-3.8985
X3.325Y-3.2893
X3.475Y-3.4107
X3.8837Y-3.0201
X4.3458Y-3.0967
X4.5138Y-1.4477
T6
X1.6063Y-3.4646
X2.3937Y-3.4646
T7
X1.2205Y-1.1024
X1.2205Y-1.4685
X1.3583Y-1.1024
X1.3583Y-1.4685
X1.5768Y-2.3327
X1.5768Y-2.9327
X1.65Y-1.6
X1.65Y-1.9
X1.6768Y-2.3327
X1.6768Y-2.9327
X1.7Y-0.95
X1.7Y-1.25
X1.75Y-1.6
X1.75Y-1.9
X1.775Y-4.4523
X1.775Y-4.5901
X1.7768Y-2.3327
X1.7768Y-2.9327
X1.8Y-0.95
X1.8Y-1.25
X1.85Y-1.6
X1.85Y-1.9
X1.8768Y-2.3327
X1.8768Y-2.9327
X1.9Y-0.95
X1.9Y-1.25
X1.95Y-1.6
X1.95Y-1.9
X1.9768Y-2.3327
X1.9768Y-2.9327
X2.0Y-0.95
X2.0Y-1.25
X2.05Y-1.6
X2.05Y-1.9
X2.0768Y-2.3327
X2.0768Y-2.9327
X2.1Y-0.95
X2.1Y-1.25
X2.15Y-1.6
X2.15Y-1.9
X2.1768Y-2.3327
X2.1768Y-2.9327
X2.2Y-0.95
X2.2Y-1.25
X2.25Y-1.6
X2.25Y-1.9
X2.2768Y-2.3327
X2.2768Y-2.9327
X2.3Y-0.95
X2.3Y-1.25
X2.35Y-1.6
X2.35Y-1.9
X2.3768Y-2.3327
X2.3768Y-2.9327
X2.4Y-0.95
X2.4Y-1.25
X2.45Y-1.6
X2.45Y-1.9
X2.4768Y-2.3327
X2.4768Y-2.9327
X2.55Y-1.6
X2.55Y-1.9
X2.5768Y-2.3327
X2.5768Y-2.9327
X2.65Y-0.95
X2.65Y-1.25
X2.65Y-1.6
X2.65Y-1.9
X2.6768Y-2.3327
X2.6768Y-2.9327
X2.75Y-0.95
X2.75Y-1.25
X2.75Y-1.6
X2.75Y-1.9
X2.7768Y-2.3327
X2.7768Y-2.9327
X2.85Y-0.95
X2.85Y-1.25
X2.8768Y-2.3327
X2.8768Y-2.9327
X2.95Y-0.95
X2.95Y-1.25
X2.9768Y-2.3327
X2.9768Y-2.9327
X3.05Y-0.95
X3.05Y-1.25
X3.0768Y-2.3327
X3.0768Y-2.9327
X3.1Y-1.5354
X3.1Y-2.1354
X3.15Y-0.95
X3.15Y-1.25
X3.1768Y-2.3327
X3.1768Y-2.9327
X3.2Y-1.5354
X3.2Y-2.1354
X3.25Y-0.95
X3.25Y-1.25
X3.2768Y-2.3327
X3.2768Y-2.9327
X3.3Y-1.5354
X3.3Y-2.1354
X3.35Y-0.95
X3.35Y-1.25
X3.3768Y-2.3327
X3.3768Y-2.9327
X3.4Y-1.5354
X3.4Y-2.1354
X3.4768Y-2.3327
X3.4768Y-2.9327
X3.5Y-1.5354
X3.5Y-2.1354
X3.5768Y-2.3327
X3.5768Y-2.9327
X3.6Y-0.95
X3.6Y-1.25
X3.6Y-1.5354
X3.6Y-2.1354
X3.6768Y-2.3327
X3.6768Y-2.9327
X3.7Y-0.95
X3.7Y-1.25
X3.7Y-1.5354
X3.7Y-2.1354
X3.7768Y-2.3327
X3.7768Y-2.9327
X3.8Y-0.95
X3.8Y-1.25
X3.8Y-1.5354
X3.8Y-2.1354
X3.8768Y-2.3327
X3.8768Y-2.9327
X3.9Y-0.95
X3.9Y-1.25
X3.9Y-1.5354
X3.9Y-2.1354
X4.0Y-0.95
X4.0Y-1.25
X4.0Y-1.5354
X4.0Y-2.1354
X4.1Y-0.95
X4.1Y-1.25
X4.1Y-1.5354
X4.1Y-2.1354
X4.2Y-0.95
X4.2Y-1.25
X4.2Y-1.5354
X4.2Y-2.1354
X4.3Y-0.95
X4.3Y-1.25
X4.3Y-1.5354
X4.3Y-2.1354
X4.4Y-1.5354
X4.4Y-2.1354
X4.5Y-1.5354
X4.5Y-2.1354
X4.6Y-1.5354
X4.6Y-2.1354
T8
X4.1142Y-4.5586
X4.311Y-4.5586
T9
X2.0252Y-4.6109
X2.1252Y-4.6109
X2.25Y-4.6109
X2.35Y-4.6109
X2.4752Y-4.6109
X2.5752Y-4.6109
T10
X0.8874Y-1.2047
X0.8874Y-1.3047
X0.8874Y-1.4047
X0.8874Y-1.5047
X0.8874Y-1.8059
X0.8874Y-1.9059
X0.8874Y-2.0059
X0.8874Y-2.1059
X0.8874Y-2.2059
X0.8874Y-2.3059
X0.8874Y-2.4059
X0.8874Y-2.5059
X0.8874Y-2.6059
X0.8874Y-2.7059
X0.8874Y-2.8059
X0.8874Y-2.9059
X0.8874Y-3.0059
X0.8874Y-3.1059
X0.8874Y-3.2059
X0.8874Y-3.3059
X0.8874Y-3.4059
X0.8874Y-3.5059
X0.8874Y-3.6059
X0.8874Y-3.7059
X0.8874Y-4.0071
X0.8874Y-4.1071
X0.8874Y-4.2071
X0.8874Y-4.3071
X0.9874Y-1.2047
X0.9874Y-1.3047
X0.9874Y-1.4047
X0.9874Y-1.5047
X0.9874Y-1.8059
X0.9874Y-1.9059
X0.9874Y-2.0059
X0.9874Y-2.1059
X0.9874Y-2.2059
X0.9874Y-2.3059
X0.9874Y-2.4059
X0.9874Y-2.5059
X0.9874Y-2.6059
X0.9874Y-2.7059
X0.9874Y-2.8059
X0.9874Y-2.9059
X0.9874Y-3.0059
X0.9874Y-3.1059
X0.9874Y-3.2059
X0.9874Y-3.3059
X0.9874Y-3.4059
X0.9874Y-3.5059
X0.9874Y-3.6059
X0.9874Y-3.7059
X0.9874Y-4.0071
X0.9874Y-4.1071
X0.9874Y-4.2071
X0.9874Y-4.3071
X1.2024Y-1.8059
X1.2024Y-1.9059
X1.2024Y-2.0059
X1.2024Y-2.1059
X1.2024Y-2.2059
X1.2024Y-2.3059
X1.2024Y-2.4059
X1.2024Y-2.5059
X1.2024Y-2.6059
X1.2024Y-2.7059
X1.2024Y-2.8059
X1.2024Y-2.9059
X1.2024Y-3.0059
X1.2024Y-3.1059
X1.2024Y-3.2059
X1.2024Y-3.3059
X1.2024Y-3.4059
X1.2024Y-3.5059
X1.2024Y-3.6059
X1.2024Y-3.7059
X1.3024Y-1.8059
X1.3024Y-1.9059
X1.3024Y-2.0059
X1.3024Y-2.1059
X1.3024Y-2.2059
X1.3024Y-2.3059
X1.3024Y-2.4059
X1.3024Y-2.5059
X1.3024Y-2.6059
X1.3024Y-2.7059
X1.3024Y-2.8059
X1.3024Y-2.9059
X1.3024Y-3.0059
X1.3024Y-3.1059
X1.3024Y-3.2059
X1.3024Y-3.3059
X1.3024Y-3.4059
X1.3024Y-3.5059
X1.3024Y-3.6059
X1.3024Y-3.7059
T5
G00X4.0748Y-4.6786
M15
G01X4.0748Y-4.6511
M16
G05
G00X4.3504Y-4.6511
M15
G01X4.3504Y-4.6786
M16
G05
T0
M30
