%TF.GenerationSoftware,KiCad,Pcbnew,7.0.0-da2b9df05c~163~ubuntu22.04.1*%
%TF.CreationDate,2023-02-22T18:51:16-05:00*%
%TF.ProjectId,main,6d61696e-2e6b-4696-9361-645f70636258,rev?*%
%TF.SameCoordinates,Original*%
%TF.FileFunction,Legend,Top*%
%TF.FilePolarity,Positive*%
%FSLAX46Y46*%
G04 Gerber Fmt 4.6, Leading zero omitted, Abs format (unit mm)*
G04 Created by KiCad (PCBNEW 7.0.0-da2b9df05c~163~ubuntu22.04.1) date 2023-02-22 18:51:16*
%MOMM*%
%LPD*%
G01*
G04 APERTURE LIST*
%ADD10C,0.150000*%
%ADD11C,0.120000*%
G04 APERTURE END LIST*
D10*
%TO.C,J1*%
X23476666Y-98817380D02*
X23476666Y-99531666D01*
X23476666Y-99531666D02*
X23429047Y-99674523D01*
X23429047Y-99674523D02*
X23333809Y-99769761D01*
X23333809Y-99769761D02*
X23190952Y-99817380D01*
X23190952Y-99817380D02*
X23095714Y-99817380D01*
X24476666Y-99817380D02*
X23905238Y-99817380D01*
X24190952Y-99817380D02*
X24190952Y-98817380D01*
X24190952Y-98817380D02*
X24095714Y-98960238D01*
X24095714Y-98960238D02*
X24000476Y-99055476D01*
X24000476Y-99055476D02*
X23905238Y-99103095D01*
%TO.C,J5*%
X23476666Y-27637380D02*
X23476666Y-28351666D01*
X23476666Y-28351666D02*
X23429047Y-28494523D01*
X23429047Y-28494523D02*
X23333809Y-28589761D01*
X23333809Y-28589761D02*
X23190952Y-28637380D01*
X23190952Y-28637380D02*
X23095714Y-28637380D01*
X24429047Y-27637380D02*
X23952857Y-27637380D01*
X23952857Y-27637380D02*
X23905238Y-28113571D01*
X23905238Y-28113571D02*
X23952857Y-28065952D01*
X23952857Y-28065952D02*
X24048095Y-28018333D01*
X24048095Y-28018333D02*
X24286190Y-28018333D01*
X24286190Y-28018333D02*
X24381428Y-28065952D01*
X24381428Y-28065952D02*
X24429047Y-28113571D01*
X24429047Y-28113571D02*
X24476666Y-28208809D01*
X24476666Y-28208809D02*
X24476666Y-28446904D01*
X24476666Y-28446904D02*
X24429047Y-28542142D01*
X24429047Y-28542142D02*
X24381428Y-28589761D01*
X24381428Y-28589761D02*
X24286190Y-28637380D01*
X24286190Y-28637380D02*
X24048095Y-28637380D01*
X24048095Y-28637380D02*
X23952857Y-28589761D01*
X23952857Y-28589761D02*
X23905238Y-28542142D01*
%TO.C,J2*%
X23476666Y-42907380D02*
X23476666Y-43621666D01*
X23476666Y-43621666D02*
X23429047Y-43764523D01*
X23429047Y-43764523D02*
X23333809Y-43859761D01*
X23333809Y-43859761D02*
X23190952Y-43907380D01*
X23190952Y-43907380D02*
X23095714Y-43907380D01*
X23905238Y-43002619D02*
X23952857Y-42955000D01*
X23952857Y-42955000D02*
X24048095Y-42907380D01*
X24048095Y-42907380D02*
X24286190Y-42907380D01*
X24286190Y-42907380D02*
X24381428Y-42955000D01*
X24381428Y-42955000D02*
X24429047Y-43002619D01*
X24429047Y-43002619D02*
X24476666Y-43097857D01*
X24476666Y-43097857D02*
X24476666Y-43193095D01*
X24476666Y-43193095D02*
X24429047Y-43335952D01*
X24429047Y-43335952D02*
X23857619Y-43907380D01*
X23857619Y-43907380D02*
X24476666Y-43907380D01*
%TO.C,J3*%
X31476666Y-42907380D02*
X31476666Y-43621666D01*
X31476666Y-43621666D02*
X31429047Y-43764523D01*
X31429047Y-43764523D02*
X31333809Y-43859761D01*
X31333809Y-43859761D02*
X31190952Y-43907380D01*
X31190952Y-43907380D02*
X31095714Y-43907380D01*
X31857619Y-42907380D02*
X32476666Y-42907380D01*
X32476666Y-42907380D02*
X32143333Y-43288333D01*
X32143333Y-43288333D02*
X32286190Y-43288333D01*
X32286190Y-43288333D02*
X32381428Y-43335952D01*
X32381428Y-43335952D02*
X32429047Y-43383571D01*
X32429047Y-43383571D02*
X32476666Y-43478809D01*
X32476666Y-43478809D02*
X32476666Y-43716904D01*
X32476666Y-43716904D02*
X32429047Y-43812142D01*
X32429047Y-43812142D02*
X32381428Y-43859761D01*
X32381428Y-43859761D02*
X32286190Y-43907380D01*
X32286190Y-43907380D02*
X32000476Y-43907380D01*
X32000476Y-43907380D02*
X31905238Y-43859761D01*
X31905238Y-43859761D02*
X31857619Y-43812142D01*
%TO.C,C4*%
X38004142Y-28039666D02*
X38051761Y-28087285D01*
X38051761Y-28087285D02*
X38099380Y-28230142D01*
X38099380Y-28230142D02*
X38099380Y-28325380D01*
X38099380Y-28325380D02*
X38051761Y-28468237D01*
X38051761Y-28468237D02*
X37956523Y-28563475D01*
X37956523Y-28563475D02*
X37861285Y-28611094D01*
X37861285Y-28611094D02*
X37670809Y-28658713D01*
X37670809Y-28658713D02*
X37527952Y-28658713D01*
X37527952Y-28658713D02*
X37337476Y-28611094D01*
X37337476Y-28611094D02*
X37242238Y-28563475D01*
X37242238Y-28563475D02*
X37147000Y-28468237D01*
X37147000Y-28468237D02*
X37099380Y-28325380D01*
X37099380Y-28325380D02*
X37099380Y-28230142D01*
X37099380Y-28230142D02*
X37147000Y-28087285D01*
X37147000Y-28087285D02*
X37194619Y-28039666D01*
X37432714Y-27182523D02*
X38099380Y-27182523D01*
X37051761Y-27420618D02*
X37766047Y-27658713D01*
X37766047Y-27658713D02*
X37766047Y-27039666D01*
%TO.C,C1*%
X38004142Y-37466666D02*
X38051761Y-37514285D01*
X38051761Y-37514285D02*
X38099380Y-37657142D01*
X38099380Y-37657142D02*
X38099380Y-37752380D01*
X38099380Y-37752380D02*
X38051761Y-37895237D01*
X38051761Y-37895237D02*
X37956523Y-37990475D01*
X37956523Y-37990475D02*
X37861285Y-38038094D01*
X37861285Y-38038094D02*
X37670809Y-38085713D01*
X37670809Y-38085713D02*
X37527952Y-38085713D01*
X37527952Y-38085713D02*
X37337476Y-38038094D01*
X37337476Y-38038094D02*
X37242238Y-37990475D01*
X37242238Y-37990475D02*
X37147000Y-37895237D01*
X37147000Y-37895237D02*
X37099380Y-37752380D01*
X37099380Y-37752380D02*
X37099380Y-37657142D01*
X37099380Y-37657142D02*
X37147000Y-37514285D01*
X37147000Y-37514285D02*
X37194619Y-37466666D01*
X38099380Y-36514285D02*
X38099380Y-37085713D01*
X38099380Y-36799999D02*
X37099380Y-36799999D01*
X37099380Y-36799999D02*
X37242238Y-36895237D01*
X37242238Y-36895237D02*
X37337476Y-36990475D01*
X37337476Y-36990475D02*
X37385095Y-37085713D01*
%TO.C,U2*%
X88477380Y-28701904D02*
X89286904Y-28701904D01*
X89286904Y-28701904D02*
X89382142Y-28654285D01*
X89382142Y-28654285D02*
X89429761Y-28606666D01*
X89429761Y-28606666D02*
X89477380Y-28511428D01*
X89477380Y-28511428D02*
X89477380Y-28320952D01*
X89477380Y-28320952D02*
X89429761Y-28225714D01*
X89429761Y-28225714D02*
X89382142Y-28178095D01*
X89382142Y-28178095D02*
X89286904Y-28130476D01*
X89286904Y-28130476D02*
X88477380Y-28130476D01*
X88572619Y-27701904D02*
X88525000Y-27654285D01*
X88525000Y-27654285D02*
X88477380Y-27559047D01*
X88477380Y-27559047D02*
X88477380Y-27320952D01*
X88477380Y-27320952D02*
X88525000Y-27225714D01*
X88525000Y-27225714D02*
X88572619Y-27178095D01*
X88572619Y-27178095D02*
X88667857Y-27130476D01*
X88667857Y-27130476D02*
X88763095Y-27130476D01*
X88763095Y-27130476D02*
X88905952Y-27178095D01*
X88905952Y-27178095D02*
X89477380Y-27749523D01*
X89477380Y-27749523D02*
X89477380Y-27130476D01*
%TO.C,C9*%
X48728333Y-119017191D02*
X48680714Y-119064810D01*
X48680714Y-119064810D02*
X48537857Y-119112429D01*
X48537857Y-119112429D02*
X48442619Y-119112429D01*
X48442619Y-119112429D02*
X48299762Y-119064810D01*
X48299762Y-119064810D02*
X48204524Y-118969572D01*
X48204524Y-118969572D02*
X48156905Y-118874334D01*
X48156905Y-118874334D02*
X48109286Y-118683858D01*
X48109286Y-118683858D02*
X48109286Y-118541001D01*
X48109286Y-118541001D02*
X48156905Y-118350525D01*
X48156905Y-118350525D02*
X48204524Y-118255287D01*
X48204524Y-118255287D02*
X48299762Y-118160049D01*
X48299762Y-118160049D02*
X48442619Y-118112429D01*
X48442619Y-118112429D02*
X48537857Y-118112429D01*
X48537857Y-118112429D02*
X48680714Y-118160049D01*
X48680714Y-118160049D02*
X48728333Y-118207668D01*
X49204524Y-119112429D02*
X49395000Y-119112429D01*
X49395000Y-119112429D02*
X49490238Y-119064810D01*
X49490238Y-119064810D02*
X49537857Y-119017191D01*
X49537857Y-119017191D02*
X49633095Y-118874334D01*
X49633095Y-118874334D02*
X49680714Y-118683858D01*
X49680714Y-118683858D02*
X49680714Y-118302906D01*
X49680714Y-118302906D02*
X49633095Y-118207668D01*
X49633095Y-118207668D02*
X49585476Y-118160049D01*
X49585476Y-118160049D02*
X49490238Y-118112429D01*
X49490238Y-118112429D02*
X49299762Y-118112429D01*
X49299762Y-118112429D02*
X49204524Y-118160049D01*
X49204524Y-118160049D02*
X49156905Y-118207668D01*
X49156905Y-118207668D02*
X49109286Y-118302906D01*
X49109286Y-118302906D02*
X49109286Y-118541001D01*
X49109286Y-118541001D02*
X49156905Y-118636239D01*
X49156905Y-118636239D02*
X49204524Y-118683858D01*
X49204524Y-118683858D02*
X49299762Y-118731477D01*
X49299762Y-118731477D02*
X49490238Y-118731477D01*
X49490238Y-118731477D02*
X49585476Y-118683858D01*
X49585476Y-118683858D02*
X49633095Y-118636239D01*
X49633095Y-118636239D02*
X49680714Y-118541001D01*
%TO.C,D1*%
X64671905Y-114944880D02*
X64671905Y-113944880D01*
X64671905Y-113944880D02*
X64910000Y-113944880D01*
X64910000Y-113944880D02*
X65052857Y-113992500D01*
X65052857Y-113992500D02*
X65148095Y-114087738D01*
X65148095Y-114087738D02*
X65195714Y-114182976D01*
X65195714Y-114182976D02*
X65243333Y-114373452D01*
X65243333Y-114373452D02*
X65243333Y-114516309D01*
X65243333Y-114516309D02*
X65195714Y-114706785D01*
X65195714Y-114706785D02*
X65148095Y-114802023D01*
X65148095Y-114802023D02*
X65052857Y-114897261D01*
X65052857Y-114897261D02*
X64910000Y-114944880D01*
X64910000Y-114944880D02*
X64671905Y-114944880D01*
X66195714Y-114944880D02*
X65624286Y-114944880D01*
X65910000Y-114944880D02*
X65910000Y-113944880D01*
X65910000Y-113944880D02*
X65814762Y-114087738D01*
X65814762Y-114087738D02*
X65719524Y-114182976D01*
X65719524Y-114182976D02*
X65624286Y-114230595D01*
%TO.C,U5*%
X100167380Y-67631904D02*
X100976904Y-67631904D01*
X100976904Y-67631904D02*
X101072142Y-67584285D01*
X101072142Y-67584285D02*
X101119761Y-67536666D01*
X101119761Y-67536666D02*
X101167380Y-67441428D01*
X101167380Y-67441428D02*
X101167380Y-67250952D01*
X101167380Y-67250952D02*
X101119761Y-67155714D01*
X101119761Y-67155714D02*
X101072142Y-67108095D01*
X101072142Y-67108095D02*
X100976904Y-67060476D01*
X100976904Y-67060476D02*
X100167380Y-67060476D01*
X100167380Y-66108095D02*
X100167380Y-66584285D01*
X100167380Y-66584285D02*
X100643571Y-66631904D01*
X100643571Y-66631904D02*
X100595952Y-66584285D01*
X100595952Y-66584285D02*
X100548333Y-66489047D01*
X100548333Y-66489047D02*
X100548333Y-66250952D01*
X100548333Y-66250952D02*
X100595952Y-66155714D01*
X100595952Y-66155714D02*
X100643571Y-66108095D01*
X100643571Y-66108095D02*
X100738809Y-66060476D01*
X100738809Y-66060476D02*
X100976904Y-66060476D01*
X100976904Y-66060476D02*
X101072142Y-66108095D01*
X101072142Y-66108095D02*
X101119761Y-66155714D01*
X101119761Y-66155714D02*
X101167380Y-66250952D01*
X101167380Y-66250952D02*
X101167380Y-66489047D01*
X101167380Y-66489047D02*
X101119761Y-66584285D01*
X101119761Y-66584285D02*
X101072142Y-66631904D01*
%TO.C,D2*%
X58697905Y-114944880D02*
X58697905Y-113944880D01*
X58697905Y-113944880D02*
X58936000Y-113944880D01*
X58936000Y-113944880D02*
X59078857Y-113992500D01*
X59078857Y-113992500D02*
X59174095Y-114087738D01*
X59174095Y-114087738D02*
X59221714Y-114182976D01*
X59221714Y-114182976D02*
X59269333Y-114373452D01*
X59269333Y-114373452D02*
X59269333Y-114516309D01*
X59269333Y-114516309D02*
X59221714Y-114706785D01*
X59221714Y-114706785D02*
X59174095Y-114802023D01*
X59174095Y-114802023D02*
X59078857Y-114897261D01*
X59078857Y-114897261D02*
X58936000Y-114944880D01*
X58936000Y-114944880D02*
X58697905Y-114944880D01*
X59650286Y-114040119D02*
X59697905Y-113992500D01*
X59697905Y-113992500D02*
X59793143Y-113944880D01*
X59793143Y-113944880D02*
X60031238Y-113944880D01*
X60031238Y-113944880D02*
X60126476Y-113992500D01*
X60126476Y-113992500D02*
X60174095Y-114040119D01*
X60174095Y-114040119D02*
X60221714Y-114135357D01*
X60221714Y-114135357D02*
X60221714Y-114230595D01*
X60221714Y-114230595D02*
X60174095Y-114373452D01*
X60174095Y-114373452D02*
X59602667Y-114944880D01*
X59602667Y-114944880D02*
X60221714Y-114944880D01*
%TO.C,C5*%
X39067142Y-106136666D02*
X39114761Y-106184285D01*
X39114761Y-106184285D02*
X39162380Y-106327142D01*
X39162380Y-106327142D02*
X39162380Y-106422380D01*
X39162380Y-106422380D02*
X39114761Y-106565237D01*
X39114761Y-106565237D02*
X39019523Y-106660475D01*
X39019523Y-106660475D02*
X38924285Y-106708094D01*
X38924285Y-106708094D02*
X38733809Y-106755713D01*
X38733809Y-106755713D02*
X38590952Y-106755713D01*
X38590952Y-106755713D02*
X38400476Y-106708094D01*
X38400476Y-106708094D02*
X38305238Y-106660475D01*
X38305238Y-106660475D02*
X38210000Y-106565237D01*
X38210000Y-106565237D02*
X38162380Y-106422380D01*
X38162380Y-106422380D02*
X38162380Y-106327142D01*
X38162380Y-106327142D02*
X38210000Y-106184285D01*
X38210000Y-106184285D02*
X38257619Y-106136666D01*
X38162380Y-105231904D02*
X38162380Y-105708094D01*
X38162380Y-105708094D02*
X38638571Y-105755713D01*
X38638571Y-105755713D02*
X38590952Y-105708094D01*
X38590952Y-105708094D02*
X38543333Y-105612856D01*
X38543333Y-105612856D02*
X38543333Y-105374761D01*
X38543333Y-105374761D02*
X38590952Y-105279523D01*
X38590952Y-105279523D02*
X38638571Y-105231904D01*
X38638571Y-105231904D02*
X38733809Y-105184285D01*
X38733809Y-105184285D02*
X38971904Y-105184285D01*
X38971904Y-105184285D02*
X39067142Y-105231904D01*
X39067142Y-105231904D02*
X39114761Y-105279523D01*
X39114761Y-105279523D02*
X39162380Y-105374761D01*
X39162380Y-105374761D02*
X39162380Y-105612856D01*
X39162380Y-105612856D02*
X39114761Y-105708094D01*
X39114761Y-105708094D02*
X39067142Y-105755713D01*
%TO.C,C7*%
X39067142Y-108801666D02*
X39114761Y-108849285D01*
X39114761Y-108849285D02*
X39162380Y-108992142D01*
X39162380Y-108992142D02*
X39162380Y-109087380D01*
X39162380Y-109087380D02*
X39114761Y-109230237D01*
X39114761Y-109230237D02*
X39019523Y-109325475D01*
X39019523Y-109325475D02*
X38924285Y-109373094D01*
X38924285Y-109373094D02*
X38733809Y-109420713D01*
X38733809Y-109420713D02*
X38590952Y-109420713D01*
X38590952Y-109420713D02*
X38400476Y-109373094D01*
X38400476Y-109373094D02*
X38305238Y-109325475D01*
X38305238Y-109325475D02*
X38210000Y-109230237D01*
X38210000Y-109230237D02*
X38162380Y-109087380D01*
X38162380Y-109087380D02*
X38162380Y-108992142D01*
X38162380Y-108992142D02*
X38210000Y-108849285D01*
X38210000Y-108849285D02*
X38257619Y-108801666D01*
X38162380Y-108468332D02*
X38162380Y-107801666D01*
X38162380Y-107801666D02*
X39162380Y-108230237D01*
%TO.C,J9*%
X82436666Y-110492380D02*
X82436666Y-111206666D01*
X82436666Y-111206666D02*
X82389047Y-111349523D01*
X82389047Y-111349523D02*
X82293809Y-111444761D01*
X82293809Y-111444761D02*
X82150952Y-111492380D01*
X82150952Y-111492380D02*
X82055714Y-111492380D01*
X82960476Y-111492380D02*
X83150952Y-111492380D01*
X83150952Y-111492380D02*
X83246190Y-111444761D01*
X83246190Y-111444761D02*
X83293809Y-111397142D01*
X83293809Y-111397142D02*
X83389047Y-111254285D01*
X83389047Y-111254285D02*
X83436666Y-111063809D01*
X83436666Y-111063809D02*
X83436666Y-110682857D01*
X83436666Y-110682857D02*
X83389047Y-110587619D01*
X83389047Y-110587619D02*
X83341428Y-110540000D01*
X83341428Y-110540000D02*
X83246190Y-110492380D01*
X83246190Y-110492380D02*
X83055714Y-110492380D01*
X83055714Y-110492380D02*
X82960476Y-110540000D01*
X82960476Y-110540000D02*
X82912857Y-110587619D01*
X82912857Y-110587619D02*
X82865238Y-110682857D01*
X82865238Y-110682857D02*
X82865238Y-110920952D01*
X82865238Y-110920952D02*
X82912857Y-111016190D01*
X82912857Y-111016190D02*
X82960476Y-111063809D01*
X82960476Y-111063809D02*
X83055714Y-111111428D01*
X83055714Y-111111428D02*
X83246190Y-111111428D01*
X83246190Y-111111428D02*
X83341428Y-111063809D01*
X83341428Y-111063809D02*
X83389047Y-111016190D01*
X83389047Y-111016190D02*
X83436666Y-110920952D01*
%TO.C,U1*%
X35962380Y-115551904D02*
X36771904Y-115551904D01*
X36771904Y-115551904D02*
X36867142Y-115504285D01*
X36867142Y-115504285D02*
X36914761Y-115456666D01*
X36914761Y-115456666D02*
X36962380Y-115361428D01*
X36962380Y-115361428D02*
X36962380Y-115170952D01*
X36962380Y-115170952D02*
X36914761Y-115075714D01*
X36914761Y-115075714D02*
X36867142Y-115028095D01*
X36867142Y-115028095D02*
X36771904Y-114980476D01*
X36771904Y-114980476D02*
X35962380Y-114980476D01*
X36962380Y-113980476D02*
X36962380Y-114551904D01*
X36962380Y-114266190D02*
X35962380Y-114266190D01*
X35962380Y-114266190D02*
X36105238Y-114361428D01*
X36105238Y-114361428D02*
X36200476Y-114456666D01*
X36200476Y-114456666D02*
X36248095Y-114551904D01*
%TO.C,Y1*%
X92741190Y-35976190D02*
X93217380Y-35976190D01*
X92217380Y-36309523D02*
X92741190Y-35976190D01*
X92741190Y-35976190D02*
X92217380Y-35642857D01*
X93217380Y-34785714D02*
X93217380Y-35357142D01*
X93217380Y-35071428D02*
X92217380Y-35071428D01*
X92217380Y-35071428D02*
X92360238Y-35166666D01*
X92360238Y-35166666D02*
X92455476Y-35261904D01*
X92455476Y-35261904D02*
X92503095Y-35357142D01*
%TO.C,U7*%
X64347380Y-28701904D02*
X65156904Y-28701904D01*
X65156904Y-28701904D02*
X65252142Y-28654285D01*
X65252142Y-28654285D02*
X65299761Y-28606666D01*
X65299761Y-28606666D02*
X65347380Y-28511428D01*
X65347380Y-28511428D02*
X65347380Y-28320952D01*
X65347380Y-28320952D02*
X65299761Y-28225714D01*
X65299761Y-28225714D02*
X65252142Y-28178095D01*
X65252142Y-28178095D02*
X65156904Y-28130476D01*
X65156904Y-28130476D02*
X64347380Y-28130476D01*
X64347380Y-27749523D02*
X64347380Y-27082857D01*
X64347380Y-27082857D02*
X65347380Y-27511428D01*
%TO.C,BT1*%
X48014285Y-87843571D02*
X48157142Y-87891190D01*
X48157142Y-87891190D02*
X48204761Y-87938809D01*
X48204761Y-87938809D02*
X48252380Y-88034047D01*
X48252380Y-88034047D02*
X48252380Y-88176904D01*
X48252380Y-88176904D02*
X48204761Y-88272142D01*
X48204761Y-88272142D02*
X48157142Y-88319761D01*
X48157142Y-88319761D02*
X48061904Y-88367380D01*
X48061904Y-88367380D02*
X47680952Y-88367380D01*
X47680952Y-88367380D02*
X47680952Y-87367380D01*
X47680952Y-87367380D02*
X48014285Y-87367380D01*
X48014285Y-87367380D02*
X48109523Y-87415000D01*
X48109523Y-87415000D02*
X48157142Y-87462619D01*
X48157142Y-87462619D02*
X48204761Y-87557857D01*
X48204761Y-87557857D02*
X48204761Y-87653095D01*
X48204761Y-87653095D02*
X48157142Y-87748333D01*
X48157142Y-87748333D02*
X48109523Y-87795952D01*
X48109523Y-87795952D02*
X48014285Y-87843571D01*
X48014285Y-87843571D02*
X47680952Y-87843571D01*
X48538095Y-87367380D02*
X49109523Y-87367380D01*
X48823809Y-88367380D02*
X48823809Y-87367380D01*
X49966666Y-88367380D02*
X49395238Y-88367380D01*
X49680952Y-88367380D02*
X49680952Y-87367380D01*
X49680952Y-87367380D02*
X49585714Y-87510238D01*
X49585714Y-87510238D02*
X49490476Y-87605476D01*
X49490476Y-87605476D02*
X49395238Y-87653095D01*
%TO.C,U6*%
X75777380Y-47381904D02*
X76586904Y-47381904D01*
X76586904Y-47381904D02*
X76682142Y-47334285D01*
X76682142Y-47334285D02*
X76729761Y-47286666D01*
X76729761Y-47286666D02*
X76777380Y-47191428D01*
X76777380Y-47191428D02*
X76777380Y-47000952D01*
X76777380Y-47000952D02*
X76729761Y-46905714D01*
X76729761Y-46905714D02*
X76682142Y-46858095D01*
X76682142Y-46858095D02*
X76586904Y-46810476D01*
X76586904Y-46810476D02*
X75777380Y-46810476D01*
X75777380Y-45905714D02*
X75777380Y-46096190D01*
X75777380Y-46096190D02*
X75825000Y-46191428D01*
X75825000Y-46191428D02*
X75872619Y-46239047D01*
X75872619Y-46239047D02*
X76015476Y-46334285D01*
X76015476Y-46334285D02*
X76205952Y-46381904D01*
X76205952Y-46381904D02*
X76586904Y-46381904D01*
X76586904Y-46381904D02*
X76682142Y-46334285D01*
X76682142Y-46334285D02*
X76729761Y-46286666D01*
X76729761Y-46286666D02*
X76777380Y-46191428D01*
X76777380Y-46191428D02*
X76777380Y-46000952D01*
X76777380Y-46000952D02*
X76729761Y-45905714D01*
X76729761Y-45905714D02*
X76682142Y-45858095D01*
X76682142Y-45858095D02*
X76586904Y-45810476D01*
X76586904Y-45810476D02*
X76348809Y-45810476D01*
X76348809Y-45810476D02*
X76253571Y-45858095D01*
X76253571Y-45858095D02*
X76205952Y-45905714D01*
X76205952Y-45905714D02*
X76158333Y-46000952D01*
X76158333Y-46000952D02*
X76158333Y-46191428D01*
X76158333Y-46191428D02*
X76205952Y-46286666D01*
X76205952Y-46286666D02*
X76253571Y-46334285D01*
X76253571Y-46334285D02*
X76348809Y-46381904D01*
%TO.C,U8*%
X71547380Y-45211904D02*
X72356904Y-45211904D01*
X72356904Y-45211904D02*
X72452142Y-45164285D01*
X72452142Y-45164285D02*
X72499761Y-45116666D01*
X72499761Y-45116666D02*
X72547380Y-45021428D01*
X72547380Y-45021428D02*
X72547380Y-44830952D01*
X72547380Y-44830952D02*
X72499761Y-44735714D01*
X72499761Y-44735714D02*
X72452142Y-44688095D01*
X72452142Y-44688095D02*
X72356904Y-44640476D01*
X72356904Y-44640476D02*
X71547380Y-44640476D01*
X71975952Y-44021428D02*
X71928333Y-44116666D01*
X71928333Y-44116666D02*
X71880714Y-44164285D01*
X71880714Y-44164285D02*
X71785476Y-44211904D01*
X71785476Y-44211904D02*
X71737857Y-44211904D01*
X71737857Y-44211904D02*
X71642619Y-44164285D01*
X71642619Y-44164285D02*
X71595000Y-44116666D01*
X71595000Y-44116666D02*
X71547380Y-44021428D01*
X71547380Y-44021428D02*
X71547380Y-43830952D01*
X71547380Y-43830952D02*
X71595000Y-43735714D01*
X71595000Y-43735714D02*
X71642619Y-43688095D01*
X71642619Y-43688095D02*
X71737857Y-43640476D01*
X71737857Y-43640476D02*
X71785476Y-43640476D01*
X71785476Y-43640476D02*
X71880714Y-43688095D01*
X71880714Y-43688095D02*
X71928333Y-43735714D01*
X71928333Y-43735714D02*
X71975952Y-43830952D01*
X71975952Y-43830952D02*
X71975952Y-44021428D01*
X71975952Y-44021428D02*
X72023571Y-44116666D01*
X72023571Y-44116666D02*
X72071190Y-44164285D01*
X72071190Y-44164285D02*
X72166428Y-44211904D01*
X72166428Y-44211904D02*
X72356904Y-44211904D01*
X72356904Y-44211904D02*
X72452142Y-44164285D01*
X72452142Y-44164285D02*
X72499761Y-44116666D01*
X72499761Y-44116666D02*
X72547380Y-44021428D01*
X72547380Y-44021428D02*
X72547380Y-43830952D01*
X72547380Y-43830952D02*
X72499761Y-43735714D01*
X72499761Y-43735714D02*
X72452142Y-43688095D01*
X72452142Y-43688095D02*
X72356904Y-43640476D01*
X72356904Y-43640476D02*
X72166428Y-43640476D01*
X72166428Y-43640476D02*
X72071190Y-43688095D01*
X72071190Y-43688095D02*
X72023571Y-43735714D01*
X72023571Y-43735714D02*
X71975952Y-43830952D01*
%TO.C,J7*%
X111167380Y-117333333D02*
X111881666Y-117333333D01*
X111881666Y-117333333D02*
X112024523Y-117380952D01*
X112024523Y-117380952D02*
X112119761Y-117476190D01*
X112119761Y-117476190D02*
X112167380Y-117619047D01*
X112167380Y-117619047D02*
X112167380Y-117714285D01*
X111167380Y-116952380D02*
X111167380Y-116285714D01*
X111167380Y-116285714D02*
X112167380Y-116714285D01*
%TO.C,U9*%
X104848095Y-107987380D02*
X104848095Y-108796904D01*
X104848095Y-108796904D02*
X104895714Y-108892142D01*
X104895714Y-108892142D02*
X104943333Y-108939761D01*
X104943333Y-108939761D02*
X105038571Y-108987380D01*
X105038571Y-108987380D02*
X105229047Y-108987380D01*
X105229047Y-108987380D02*
X105324285Y-108939761D01*
X105324285Y-108939761D02*
X105371904Y-108892142D01*
X105371904Y-108892142D02*
X105419523Y-108796904D01*
X105419523Y-108796904D02*
X105419523Y-107987380D01*
X105943333Y-108987380D02*
X106133809Y-108987380D01*
X106133809Y-108987380D02*
X106229047Y-108939761D01*
X106229047Y-108939761D02*
X106276666Y-108892142D01*
X106276666Y-108892142D02*
X106371904Y-108749285D01*
X106371904Y-108749285D02*
X106419523Y-108558809D01*
X106419523Y-108558809D02*
X106419523Y-108177857D01*
X106419523Y-108177857D02*
X106371904Y-108082619D01*
X106371904Y-108082619D02*
X106324285Y-108035000D01*
X106324285Y-108035000D02*
X106229047Y-107987380D01*
X106229047Y-107987380D02*
X106038571Y-107987380D01*
X106038571Y-107987380D02*
X105943333Y-108035000D01*
X105943333Y-108035000D02*
X105895714Y-108082619D01*
X105895714Y-108082619D02*
X105848095Y-108177857D01*
X105848095Y-108177857D02*
X105848095Y-108415952D01*
X105848095Y-108415952D02*
X105895714Y-108511190D01*
X105895714Y-108511190D02*
X105943333Y-108558809D01*
X105943333Y-108558809D02*
X106038571Y-108606428D01*
X106038571Y-108606428D02*
X106229047Y-108606428D01*
X106229047Y-108606428D02*
X106324285Y-108558809D01*
X106324285Y-108558809D02*
X106371904Y-108511190D01*
X106371904Y-108511190D02*
X106419523Y-108415952D01*
%TO.C,U4*%
X94623095Y-77712380D02*
X94623095Y-78521904D01*
X94623095Y-78521904D02*
X94670714Y-78617142D01*
X94670714Y-78617142D02*
X94718333Y-78664761D01*
X94718333Y-78664761D02*
X94813571Y-78712380D01*
X94813571Y-78712380D02*
X95004047Y-78712380D01*
X95004047Y-78712380D02*
X95099285Y-78664761D01*
X95099285Y-78664761D02*
X95146904Y-78617142D01*
X95146904Y-78617142D02*
X95194523Y-78521904D01*
X95194523Y-78521904D02*
X95194523Y-77712380D01*
X96099285Y-78045714D02*
X96099285Y-78712380D01*
X95861190Y-77664761D02*
X95623095Y-78379047D01*
X95623095Y-78379047D02*
X96242142Y-78379047D01*
%TO.C,U3*%
X40217380Y-28701904D02*
X41026904Y-28701904D01*
X41026904Y-28701904D02*
X41122142Y-28654285D01*
X41122142Y-28654285D02*
X41169761Y-28606666D01*
X41169761Y-28606666D02*
X41217380Y-28511428D01*
X41217380Y-28511428D02*
X41217380Y-28320952D01*
X41217380Y-28320952D02*
X41169761Y-28225714D01*
X41169761Y-28225714D02*
X41122142Y-28178095D01*
X41122142Y-28178095D02*
X41026904Y-28130476D01*
X41026904Y-28130476D02*
X40217380Y-28130476D01*
X40217380Y-27749523D02*
X40217380Y-27130476D01*
X40217380Y-27130476D02*
X40598333Y-27463809D01*
X40598333Y-27463809D02*
X40598333Y-27320952D01*
X40598333Y-27320952D02*
X40645952Y-27225714D01*
X40645952Y-27225714D02*
X40693571Y-27178095D01*
X40693571Y-27178095D02*
X40788809Y-27130476D01*
X40788809Y-27130476D02*
X41026904Y-27130476D01*
X41026904Y-27130476D02*
X41122142Y-27178095D01*
X41122142Y-27178095D02*
X41169761Y-27225714D01*
X41169761Y-27225714D02*
X41217380Y-27320952D01*
X41217380Y-27320952D02*
X41217380Y-27606666D01*
X41217380Y-27606666D02*
X41169761Y-27701904D01*
X41169761Y-27701904D02*
X41122142Y-27749523D01*
%TO.C,U11*%
X75752380Y-83823094D02*
X76561904Y-83823094D01*
X76561904Y-83823094D02*
X76657142Y-83775475D01*
X76657142Y-83775475D02*
X76704761Y-83727856D01*
X76704761Y-83727856D02*
X76752380Y-83632618D01*
X76752380Y-83632618D02*
X76752380Y-83442142D01*
X76752380Y-83442142D02*
X76704761Y-83346904D01*
X76704761Y-83346904D02*
X76657142Y-83299285D01*
X76657142Y-83299285D02*
X76561904Y-83251666D01*
X76561904Y-83251666D02*
X75752380Y-83251666D01*
X76752380Y-82251666D02*
X76752380Y-82823094D01*
X76752380Y-82537380D02*
X75752380Y-82537380D01*
X75752380Y-82537380D02*
X75895238Y-82632618D01*
X75895238Y-82632618D02*
X75990476Y-82727856D01*
X75990476Y-82727856D02*
X76038095Y-82823094D01*
X76752380Y-81299285D02*
X76752380Y-81870713D01*
X76752380Y-81584999D02*
X75752380Y-81584999D01*
X75752380Y-81584999D02*
X75895238Y-81680237D01*
X75895238Y-81680237D02*
X75990476Y-81775475D01*
X75990476Y-81775475D02*
X76038095Y-81870713D01*
%TO.C,U10*%
X89722380Y-83753094D02*
X90531904Y-83753094D01*
X90531904Y-83753094D02*
X90627142Y-83705475D01*
X90627142Y-83705475D02*
X90674761Y-83657856D01*
X90674761Y-83657856D02*
X90722380Y-83562618D01*
X90722380Y-83562618D02*
X90722380Y-83372142D01*
X90722380Y-83372142D02*
X90674761Y-83276904D01*
X90674761Y-83276904D02*
X90627142Y-83229285D01*
X90627142Y-83229285D02*
X90531904Y-83181666D01*
X90531904Y-83181666D02*
X89722380Y-83181666D01*
X90722380Y-82181666D02*
X90722380Y-82753094D01*
X90722380Y-82467380D02*
X89722380Y-82467380D01*
X89722380Y-82467380D02*
X89865238Y-82562618D01*
X89865238Y-82562618D02*
X89960476Y-82657856D01*
X89960476Y-82657856D02*
X90008095Y-82753094D01*
X89722380Y-81562618D02*
X89722380Y-81467380D01*
X89722380Y-81467380D02*
X89770000Y-81372142D01*
X89770000Y-81372142D02*
X89817619Y-81324523D01*
X89817619Y-81324523D02*
X89912857Y-81276904D01*
X89912857Y-81276904D02*
X90103333Y-81229285D01*
X90103333Y-81229285D02*
X90341428Y-81229285D01*
X90341428Y-81229285D02*
X90531904Y-81276904D01*
X90531904Y-81276904D02*
X90627142Y-81324523D01*
X90627142Y-81324523D02*
X90674761Y-81372142D01*
X90674761Y-81372142D02*
X90722380Y-81467380D01*
X90722380Y-81467380D02*
X90722380Y-81562618D01*
X90722380Y-81562618D02*
X90674761Y-81657856D01*
X90674761Y-81657856D02*
X90627142Y-81705475D01*
X90627142Y-81705475D02*
X90531904Y-81753094D01*
X90531904Y-81753094D02*
X90341428Y-81800713D01*
X90341428Y-81800713D02*
X90103333Y-81800713D01*
X90103333Y-81800713D02*
X89912857Y-81753094D01*
X89912857Y-81753094D02*
X89817619Y-81705475D01*
X89817619Y-81705475D02*
X89770000Y-81657856D01*
X89770000Y-81657856D02*
X89722380Y-81562618D01*
%TO.C,D3*%
X52987905Y-114944880D02*
X52987905Y-113944880D01*
X52987905Y-113944880D02*
X53226000Y-113944880D01*
X53226000Y-113944880D02*
X53368857Y-113992500D01*
X53368857Y-113992500D02*
X53464095Y-114087738D01*
X53464095Y-114087738D02*
X53511714Y-114182976D01*
X53511714Y-114182976D02*
X53559333Y-114373452D01*
X53559333Y-114373452D02*
X53559333Y-114516309D01*
X53559333Y-114516309D02*
X53511714Y-114706785D01*
X53511714Y-114706785D02*
X53464095Y-114802023D01*
X53464095Y-114802023D02*
X53368857Y-114897261D01*
X53368857Y-114897261D02*
X53226000Y-114944880D01*
X53226000Y-114944880D02*
X52987905Y-114944880D01*
X53892667Y-113944880D02*
X54511714Y-113944880D01*
X54511714Y-113944880D02*
X54178381Y-114325833D01*
X54178381Y-114325833D02*
X54321238Y-114325833D01*
X54321238Y-114325833D02*
X54416476Y-114373452D01*
X54416476Y-114373452D02*
X54464095Y-114421071D01*
X54464095Y-114421071D02*
X54511714Y-114516309D01*
X54511714Y-114516309D02*
X54511714Y-114754404D01*
X54511714Y-114754404D02*
X54464095Y-114849642D01*
X54464095Y-114849642D02*
X54416476Y-114897261D01*
X54416476Y-114897261D02*
X54321238Y-114944880D01*
X54321238Y-114944880D02*
X54035524Y-114944880D01*
X54035524Y-114944880D02*
X53940286Y-114897261D01*
X53940286Y-114897261D02*
X53892667Y-114849642D01*
D11*
%TO.C,J1*%
X21210000Y-100450000D02*
X22540000Y-100450000D01*
X21210000Y-101780000D02*
X21210000Y-100450000D01*
X21210000Y-103050000D02*
X21210000Y-110730000D01*
X21210000Y-103050000D02*
X23810000Y-103050000D01*
X21210000Y-110730000D02*
X26410000Y-110730000D01*
X23810000Y-100450000D02*
X26410000Y-100450000D01*
X23810000Y-103050000D02*
X23810000Y-100450000D01*
X26410000Y-100450000D02*
X26410000Y-110730000D01*
%TO.C,J5*%
X21210000Y-29270000D02*
X22540000Y-29270000D01*
X21210000Y-30600000D02*
X21210000Y-29270000D01*
X21210000Y-31870000D02*
X21210000Y-39550000D01*
X21210000Y-31870000D02*
X23810000Y-31870000D01*
X21210000Y-39550000D02*
X26410000Y-39550000D01*
X23810000Y-29270000D02*
X26410000Y-29270000D01*
X23810000Y-31870000D02*
X23810000Y-29270000D01*
X26410000Y-29270000D02*
X26410000Y-39550000D01*
%TO.C,J2*%
X21210000Y-44540000D02*
X22540000Y-44540000D01*
X21210000Y-45870000D02*
X21210000Y-44540000D01*
X21210000Y-47140000D02*
X21210000Y-95460000D01*
X21210000Y-47140000D02*
X23810000Y-47140000D01*
X21210000Y-95460000D02*
X26410000Y-95460000D01*
X23810000Y-44540000D02*
X26410000Y-44540000D01*
X23810000Y-47140000D02*
X23810000Y-44540000D01*
X26410000Y-44540000D02*
X26410000Y-95460000D01*
%TO.C,J3*%
X29210000Y-44540000D02*
X30540000Y-44540000D01*
X29210000Y-45870000D02*
X29210000Y-44540000D01*
X29210000Y-47140000D02*
X29210000Y-95460000D01*
X29210000Y-47140000D02*
X31810000Y-47140000D01*
X29210000Y-95460000D02*
X34410000Y-95460000D01*
X31810000Y-44540000D02*
X34410000Y-44540000D01*
X31810000Y-47140000D02*
X31810000Y-44540000D01*
X34410000Y-44540000D02*
X34410000Y-95460000D01*
%TO.C,C4*%
X28340302Y-25685000D02*
X29140302Y-25685000D01*
X28740302Y-25285000D02*
X28740302Y-26085000D01*
X32750000Y-23920000D02*
X32750000Y-32080000D01*
X32790000Y-23920000D02*
X32790000Y-32080000D01*
X32830000Y-23920000D02*
X32830000Y-32080000D01*
X32870000Y-23921000D02*
X32870000Y-32079000D01*
X32910000Y-23923000D02*
X32910000Y-32077000D01*
X32950000Y-23924000D02*
X32950000Y-32076000D01*
X32990000Y-23926000D02*
X32990000Y-32074000D01*
X33030000Y-23929000D02*
X33030000Y-32071000D01*
X33070000Y-23932000D02*
X33070000Y-32068000D01*
X33110000Y-23935000D02*
X33110000Y-32065000D01*
X33150000Y-23939000D02*
X33150000Y-32061000D01*
X33190000Y-23943000D02*
X33190000Y-32057000D01*
X33230000Y-23948000D02*
X33230000Y-32052000D01*
X33270000Y-23952000D02*
X33270000Y-32048000D01*
X33310000Y-23958000D02*
X33310000Y-32042000D01*
X33350000Y-23963000D02*
X33350000Y-32037000D01*
X33390000Y-23970000D02*
X33390000Y-32030000D01*
X33430000Y-23976000D02*
X33430000Y-32024000D01*
X33471000Y-23983000D02*
X33471000Y-26960000D01*
X33471000Y-29040000D02*
X33471000Y-32017000D01*
X33511000Y-23990000D02*
X33511000Y-26960000D01*
X33511000Y-29040000D02*
X33511000Y-32010000D01*
X33551000Y-23998000D02*
X33551000Y-26960000D01*
X33551000Y-29040000D02*
X33551000Y-32002000D01*
X33591000Y-24006000D02*
X33591000Y-26960000D01*
X33591000Y-29040000D02*
X33591000Y-31994000D01*
X33631000Y-24015000D02*
X33631000Y-26960000D01*
X33631000Y-29040000D02*
X33631000Y-31985000D01*
X33671000Y-24024000D02*
X33671000Y-26960000D01*
X33671000Y-29040000D02*
X33671000Y-31976000D01*
X33711000Y-24033000D02*
X33711000Y-26960000D01*
X33711000Y-29040000D02*
X33711000Y-31967000D01*
X33751000Y-24043000D02*
X33751000Y-26960000D01*
X33751000Y-29040000D02*
X33751000Y-31957000D01*
X33791000Y-24053000D02*
X33791000Y-26960000D01*
X33791000Y-29040000D02*
X33791000Y-31947000D01*
X33831000Y-24064000D02*
X33831000Y-26960000D01*
X33831000Y-29040000D02*
X33831000Y-31936000D01*
X33871000Y-24075000D02*
X33871000Y-26960000D01*
X33871000Y-29040000D02*
X33871000Y-31925000D01*
X33911000Y-24086000D02*
X33911000Y-26960000D01*
X33911000Y-29040000D02*
X33911000Y-31914000D01*
X33951000Y-24098000D02*
X33951000Y-26960000D01*
X33951000Y-29040000D02*
X33951000Y-31902000D01*
X33991000Y-24111000D02*
X33991000Y-26960000D01*
X33991000Y-29040000D02*
X33991000Y-31889000D01*
X34031000Y-24123000D02*
X34031000Y-26960000D01*
X34031000Y-29040000D02*
X34031000Y-31877000D01*
X34071000Y-24137000D02*
X34071000Y-26960000D01*
X34071000Y-29040000D02*
X34071000Y-31863000D01*
X34111000Y-24150000D02*
X34111000Y-26960000D01*
X34111000Y-29040000D02*
X34111000Y-31850000D01*
X34151000Y-24165000D02*
X34151000Y-26960000D01*
X34151000Y-29040000D02*
X34151000Y-31835000D01*
X34191000Y-24179000D02*
X34191000Y-26960000D01*
X34191000Y-29040000D02*
X34191000Y-31821000D01*
X34231000Y-24195000D02*
X34231000Y-26960000D01*
X34231000Y-29040000D02*
X34231000Y-31805000D01*
X34271000Y-24210000D02*
X34271000Y-26960000D01*
X34271000Y-29040000D02*
X34271000Y-31790000D01*
X34311000Y-24226000D02*
X34311000Y-26960000D01*
X34311000Y-29040000D02*
X34311000Y-31774000D01*
X34351000Y-24243000D02*
X34351000Y-26960000D01*
X34351000Y-29040000D02*
X34351000Y-31757000D01*
X34391000Y-24260000D02*
X34391000Y-26960000D01*
X34391000Y-29040000D02*
X34391000Y-31740000D01*
X34431000Y-24278000D02*
X34431000Y-26960000D01*
X34431000Y-29040000D02*
X34431000Y-31722000D01*
X34471000Y-24296000D02*
X34471000Y-26960000D01*
X34471000Y-29040000D02*
X34471000Y-31704000D01*
X34511000Y-24314000D02*
X34511000Y-26960000D01*
X34511000Y-29040000D02*
X34511000Y-31686000D01*
X34551000Y-24334000D02*
X34551000Y-26960000D01*
X34551000Y-29040000D02*
X34551000Y-31666000D01*
X34591000Y-24353000D02*
X34591000Y-26960000D01*
X34591000Y-29040000D02*
X34591000Y-31647000D01*
X34631000Y-24373000D02*
X34631000Y-26960000D01*
X34631000Y-29040000D02*
X34631000Y-31627000D01*
X34671000Y-24394000D02*
X34671000Y-26960000D01*
X34671000Y-29040000D02*
X34671000Y-31606000D01*
X34711000Y-24416000D02*
X34711000Y-26960000D01*
X34711000Y-29040000D02*
X34711000Y-31584000D01*
X34751000Y-24438000D02*
X34751000Y-26960000D01*
X34751000Y-29040000D02*
X34751000Y-31562000D01*
X34791000Y-24460000D02*
X34791000Y-26960000D01*
X34791000Y-29040000D02*
X34791000Y-31540000D01*
X34831000Y-24483000D02*
X34831000Y-26960000D01*
X34831000Y-29040000D02*
X34831000Y-31517000D01*
X34871000Y-24507000D02*
X34871000Y-26960000D01*
X34871000Y-29040000D02*
X34871000Y-31493000D01*
X34911000Y-24531000D02*
X34911000Y-26960000D01*
X34911000Y-29040000D02*
X34911000Y-31469000D01*
X34951000Y-24556000D02*
X34951000Y-26960000D01*
X34951000Y-29040000D02*
X34951000Y-31444000D01*
X34991000Y-24582000D02*
X34991000Y-26960000D01*
X34991000Y-29040000D02*
X34991000Y-31418000D01*
X35031000Y-24608000D02*
X35031000Y-26960000D01*
X35031000Y-29040000D02*
X35031000Y-31392000D01*
X35071000Y-24635000D02*
X35071000Y-26960000D01*
X35071000Y-29040000D02*
X35071000Y-31365000D01*
X35111000Y-24662000D02*
X35111000Y-26960000D01*
X35111000Y-29040000D02*
X35111000Y-31338000D01*
X35151000Y-24691000D02*
X35151000Y-26960000D01*
X35151000Y-29040000D02*
X35151000Y-31309000D01*
X35191000Y-24720000D02*
X35191000Y-26960000D01*
X35191000Y-29040000D02*
X35191000Y-31280000D01*
X35231000Y-24750000D02*
X35231000Y-26960000D01*
X35231000Y-29040000D02*
X35231000Y-31250000D01*
X35271000Y-24780000D02*
X35271000Y-26960000D01*
X35271000Y-29040000D02*
X35271000Y-31220000D01*
X35311000Y-24811000D02*
X35311000Y-26960000D01*
X35311000Y-29040000D02*
X35311000Y-31189000D01*
X35351000Y-24844000D02*
X35351000Y-26960000D01*
X35351000Y-29040000D02*
X35351000Y-31156000D01*
X35391000Y-24876000D02*
X35391000Y-26960000D01*
X35391000Y-29040000D02*
X35391000Y-31124000D01*
X35431000Y-24910000D02*
X35431000Y-26960000D01*
X35431000Y-29040000D02*
X35431000Y-31090000D01*
X35471000Y-24945000D02*
X35471000Y-26960000D01*
X35471000Y-29040000D02*
X35471000Y-31055000D01*
X35511000Y-24981000D02*
X35511000Y-26960000D01*
X35511000Y-29040000D02*
X35511000Y-31019000D01*
X35551000Y-25017000D02*
X35551000Y-30983000D01*
X35591000Y-25055000D02*
X35591000Y-30945000D01*
X35631000Y-25093000D02*
X35631000Y-30907000D01*
X35671000Y-25133000D02*
X35671000Y-30867000D01*
X35711000Y-25174000D02*
X35711000Y-30826000D01*
X35751000Y-25216000D02*
X35751000Y-30784000D01*
X35791000Y-25259000D02*
X35791000Y-30741000D01*
X35831000Y-25303000D02*
X35831000Y-30697000D01*
X35871000Y-25349000D02*
X35871000Y-30651000D01*
X35911000Y-25396000D02*
X35911000Y-30604000D01*
X35951000Y-25444000D02*
X35951000Y-30556000D01*
X35991000Y-25495000D02*
X35991000Y-30505000D01*
X36031000Y-25546000D02*
X36031000Y-30454000D01*
X36071000Y-25600000D02*
X36071000Y-30400000D01*
X36111000Y-25655000D02*
X36111000Y-30345000D01*
X36151000Y-25713000D02*
X36151000Y-30287000D01*
X36191000Y-25772000D02*
X36191000Y-30228000D01*
X36231000Y-25834000D02*
X36231000Y-30166000D01*
X36271000Y-25898000D02*
X36271000Y-30102000D01*
X36311000Y-25966000D02*
X36311000Y-30034000D01*
X36351000Y-26036000D02*
X36351000Y-29964000D01*
X36391000Y-26110000D02*
X36391000Y-29890000D01*
X36431000Y-26187000D02*
X36431000Y-29813000D01*
X36471000Y-26269000D02*
X36471000Y-29731000D01*
X36511000Y-26355000D02*
X36511000Y-29645000D01*
X36551000Y-26448000D02*
X36551000Y-29552000D01*
X36591000Y-26547000D02*
X36591000Y-29453000D01*
X36631000Y-26654000D02*
X36631000Y-29346000D01*
X36671000Y-26771000D02*
X36671000Y-29229000D01*
X36711000Y-26902000D02*
X36711000Y-29098000D01*
X36751000Y-27052000D02*
X36751000Y-28948000D01*
X36791000Y-27232000D02*
X36791000Y-28768000D01*
X36831000Y-27467000D02*
X36831000Y-28533000D01*
X36870000Y-28000000D02*
G75*
G03*
X36870000Y-28000000I-4120000J0D01*
G01*
%TO.C,C1*%
X28340302Y-34985000D02*
X29140302Y-34985000D01*
X28740302Y-34585000D02*
X28740302Y-35385000D01*
X32750000Y-33220000D02*
X32750000Y-41380000D01*
X32790000Y-33220000D02*
X32790000Y-41380000D01*
X32830000Y-33220000D02*
X32830000Y-41380000D01*
X32870000Y-33221000D02*
X32870000Y-41379000D01*
X32910000Y-33223000D02*
X32910000Y-41377000D01*
X32950000Y-33224000D02*
X32950000Y-41376000D01*
X32990000Y-33226000D02*
X32990000Y-41374000D01*
X33030000Y-33229000D02*
X33030000Y-41371000D01*
X33070000Y-33232000D02*
X33070000Y-41368000D01*
X33110000Y-33235000D02*
X33110000Y-41365000D01*
X33150000Y-33239000D02*
X33150000Y-41361000D01*
X33190000Y-33243000D02*
X33190000Y-41357000D01*
X33230000Y-33248000D02*
X33230000Y-41352000D01*
X33270000Y-33252000D02*
X33270000Y-41348000D01*
X33310000Y-33258000D02*
X33310000Y-41342000D01*
X33350000Y-33263000D02*
X33350000Y-41337000D01*
X33390000Y-33270000D02*
X33390000Y-41330000D01*
X33430000Y-33276000D02*
X33430000Y-41324000D01*
X33471000Y-33283000D02*
X33471000Y-36260000D01*
X33471000Y-38340000D02*
X33471000Y-41317000D01*
X33511000Y-33290000D02*
X33511000Y-36260000D01*
X33511000Y-38340000D02*
X33511000Y-41310000D01*
X33551000Y-33298000D02*
X33551000Y-36260000D01*
X33551000Y-38340000D02*
X33551000Y-41302000D01*
X33591000Y-33306000D02*
X33591000Y-36260000D01*
X33591000Y-38340000D02*
X33591000Y-41294000D01*
X33631000Y-33315000D02*
X33631000Y-36260000D01*
X33631000Y-38340000D02*
X33631000Y-41285000D01*
X33671000Y-33324000D02*
X33671000Y-36260000D01*
X33671000Y-38340000D02*
X33671000Y-41276000D01*
X33711000Y-33333000D02*
X33711000Y-36260000D01*
X33711000Y-38340000D02*
X33711000Y-41267000D01*
X33751000Y-33343000D02*
X33751000Y-36260000D01*
X33751000Y-38340000D02*
X33751000Y-41257000D01*
X33791000Y-33353000D02*
X33791000Y-36260000D01*
X33791000Y-38340000D02*
X33791000Y-41247000D01*
X33831000Y-33364000D02*
X33831000Y-36260000D01*
X33831000Y-38340000D02*
X33831000Y-41236000D01*
X33871000Y-33375000D02*
X33871000Y-36260000D01*
X33871000Y-38340000D02*
X33871000Y-41225000D01*
X33911000Y-33386000D02*
X33911000Y-36260000D01*
X33911000Y-38340000D02*
X33911000Y-41214000D01*
X33951000Y-33398000D02*
X33951000Y-36260000D01*
X33951000Y-38340000D02*
X33951000Y-41202000D01*
X33991000Y-33411000D02*
X33991000Y-36260000D01*
X33991000Y-38340000D02*
X33991000Y-41189000D01*
X34031000Y-33423000D02*
X34031000Y-36260000D01*
X34031000Y-38340000D02*
X34031000Y-41177000D01*
X34071000Y-33437000D02*
X34071000Y-36260000D01*
X34071000Y-38340000D02*
X34071000Y-41163000D01*
X34111000Y-33450000D02*
X34111000Y-36260000D01*
X34111000Y-38340000D02*
X34111000Y-41150000D01*
X34151000Y-33465000D02*
X34151000Y-36260000D01*
X34151000Y-38340000D02*
X34151000Y-41135000D01*
X34191000Y-33479000D02*
X34191000Y-36260000D01*
X34191000Y-38340000D02*
X34191000Y-41121000D01*
X34231000Y-33495000D02*
X34231000Y-36260000D01*
X34231000Y-38340000D02*
X34231000Y-41105000D01*
X34271000Y-33510000D02*
X34271000Y-36260000D01*
X34271000Y-38340000D02*
X34271000Y-41090000D01*
X34311000Y-33526000D02*
X34311000Y-36260000D01*
X34311000Y-38340000D02*
X34311000Y-41074000D01*
X34351000Y-33543000D02*
X34351000Y-36260000D01*
X34351000Y-38340000D02*
X34351000Y-41057000D01*
X34391000Y-33560000D02*
X34391000Y-36260000D01*
X34391000Y-38340000D02*
X34391000Y-41040000D01*
X34431000Y-33578000D02*
X34431000Y-36260000D01*
X34431000Y-38340000D02*
X34431000Y-41022000D01*
X34471000Y-33596000D02*
X34471000Y-36260000D01*
X34471000Y-38340000D02*
X34471000Y-41004000D01*
X34511000Y-33614000D02*
X34511000Y-36260000D01*
X34511000Y-38340000D02*
X34511000Y-40986000D01*
X34551000Y-33634000D02*
X34551000Y-36260000D01*
X34551000Y-38340000D02*
X34551000Y-40966000D01*
X34591000Y-33653000D02*
X34591000Y-36260000D01*
X34591000Y-38340000D02*
X34591000Y-40947000D01*
X34631000Y-33673000D02*
X34631000Y-36260000D01*
X34631000Y-38340000D02*
X34631000Y-40927000D01*
X34671000Y-33694000D02*
X34671000Y-36260000D01*
X34671000Y-38340000D02*
X34671000Y-40906000D01*
X34711000Y-33716000D02*
X34711000Y-36260000D01*
X34711000Y-38340000D02*
X34711000Y-40884000D01*
X34751000Y-33738000D02*
X34751000Y-36260000D01*
X34751000Y-38340000D02*
X34751000Y-40862000D01*
X34791000Y-33760000D02*
X34791000Y-36260000D01*
X34791000Y-38340000D02*
X34791000Y-40840000D01*
X34831000Y-33783000D02*
X34831000Y-36260000D01*
X34831000Y-38340000D02*
X34831000Y-40817000D01*
X34871000Y-33807000D02*
X34871000Y-36260000D01*
X34871000Y-38340000D02*
X34871000Y-40793000D01*
X34911000Y-33831000D02*
X34911000Y-36260000D01*
X34911000Y-38340000D02*
X34911000Y-40769000D01*
X34951000Y-33856000D02*
X34951000Y-36260000D01*
X34951000Y-38340000D02*
X34951000Y-40744000D01*
X34991000Y-33882000D02*
X34991000Y-36260000D01*
X34991000Y-38340000D02*
X34991000Y-40718000D01*
X35031000Y-33908000D02*
X35031000Y-36260000D01*
X35031000Y-38340000D02*
X35031000Y-40692000D01*
X35071000Y-33935000D02*
X35071000Y-36260000D01*
X35071000Y-38340000D02*
X35071000Y-40665000D01*
X35111000Y-33962000D02*
X35111000Y-36260000D01*
X35111000Y-38340000D02*
X35111000Y-40638000D01*
X35151000Y-33991000D02*
X35151000Y-36260000D01*
X35151000Y-38340000D02*
X35151000Y-40609000D01*
X35191000Y-34020000D02*
X35191000Y-36260000D01*
X35191000Y-38340000D02*
X35191000Y-40580000D01*
X35231000Y-34050000D02*
X35231000Y-36260000D01*
X35231000Y-38340000D02*
X35231000Y-40550000D01*
X35271000Y-34080000D02*
X35271000Y-36260000D01*
X35271000Y-38340000D02*
X35271000Y-40520000D01*
X35311000Y-34111000D02*
X35311000Y-36260000D01*
X35311000Y-38340000D02*
X35311000Y-40489000D01*
X35351000Y-34144000D02*
X35351000Y-36260000D01*
X35351000Y-38340000D02*
X35351000Y-40456000D01*
X35391000Y-34176000D02*
X35391000Y-36260000D01*
X35391000Y-38340000D02*
X35391000Y-40424000D01*
X35431000Y-34210000D02*
X35431000Y-36260000D01*
X35431000Y-38340000D02*
X35431000Y-40390000D01*
X35471000Y-34245000D02*
X35471000Y-36260000D01*
X35471000Y-38340000D02*
X35471000Y-40355000D01*
X35511000Y-34281000D02*
X35511000Y-36260000D01*
X35511000Y-38340000D02*
X35511000Y-40319000D01*
X35551000Y-34317000D02*
X35551000Y-40283000D01*
X35591000Y-34355000D02*
X35591000Y-40245000D01*
X35631000Y-34393000D02*
X35631000Y-40207000D01*
X35671000Y-34433000D02*
X35671000Y-40167000D01*
X35711000Y-34474000D02*
X35711000Y-40126000D01*
X35751000Y-34516000D02*
X35751000Y-40084000D01*
X35791000Y-34559000D02*
X35791000Y-40041000D01*
X35831000Y-34603000D02*
X35831000Y-39997000D01*
X35871000Y-34649000D02*
X35871000Y-39951000D01*
X35911000Y-34696000D02*
X35911000Y-39904000D01*
X35951000Y-34744000D02*
X35951000Y-39856000D01*
X35991000Y-34795000D02*
X35991000Y-39805000D01*
X36031000Y-34846000D02*
X36031000Y-39754000D01*
X36071000Y-34900000D02*
X36071000Y-39700000D01*
X36111000Y-34955000D02*
X36111000Y-39645000D01*
X36151000Y-35013000D02*
X36151000Y-39587000D01*
X36191000Y-35072000D02*
X36191000Y-39528000D01*
X36231000Y-35134000D02*
X36231000Y-39466000D01*
X36271000Y-35198000D02*
X36271000Y-39402000D01*
X36311000Y-35266000D02*
X36311000Y-39334000D01*
X36351000Y-35336000D02*
X36351000Y-39264000D01*
X36391000Y-35410000D02*
X36391000Y-39190000D01*
X36431000Y-35487000D02*
X36431000Y-39113000D01*
X36471000Y-35569000D02*
X36471000Y-39031000D01*
X36511000Y-35655000D02*
X36511000Y-38945000D01*
X36551000Y-35748000D02*
X36551000Y-38852000D01*
X36591000Y-35847000D02*
X36591000Y-38753000D01*
X36631000Y-35954000D02*
X36631000Y-38646000D01*
X36671000Y-36071000D02*
X36671000Y-38529000D01*
X36711000Y-36202000D02*
X36711000Y-38398000D01*
X36751000Y-36352000D02*
X36751000Y-38248000D01*
X36791000Y-36532000D02*
X36791000Y-38068000D01*
X36831000Y-36767000D02*
X36831000Y-37833000D01*
X36870000Y-37300000D02*
G75*
G03*
X36870000Y-37300000I-4120000J0D01*
G01*
%TO.C,U2*%
X90050000Y-33080000D02*
X110610000Y-33080000D01*
X110610000Y-33080000D02*
X110610000Y-22800000D01*
X90110000Y-30590000D02*
X110550000Y-30590000D01*
X110550000Y-30590000D02*
X110550000Y-25290000D01*
X90110000Y-28940000D02*
X90110000Y-30590000D01*
X90110000Y-25290000D02*
X90110000Y-26940000D01*
X110550000Y-25290000D02*
X90110000Y-25290000D01*
X90050000Y-22800000D02*
X90050000Y-33080000D01*
X110610000Y-22800000D02*
X90050000Y-22800000D01*
X90110000Y-28940000D02*
G75*
G03*
X90110000Y-26940000I0J1000000D01*
G01*
%TO.C,C9*%
X42770000Y-119247398D02*
X42770000Y-118447398D01*
X42370000Y-118847398D02*
X43170000Y-118847398D01*
X41005000Y-114837700D02*
X49165000Y-114837700D01*
X41005000Y-114797700D02*
X49165000Y-114797700D01*
X41005000Y-114757700D02*
X49165000Y-114757700D01*
X41006000Y-114717700D02*
X49164000Y-114717700D01*
X41008000Y-114677700D02*
X49162000Y-114677700D01*
X41009000Y-114637700D02*
X49161000Y-114637700D01*
X41011000Y-114597700D02*
X49159000Y-114597700D01*
X41014000Y-114557700D02*
X49156000Y-114557700D01*
X41017000Y-114517700D02*
X49153000Y-114517700D01*
X41020000Y-114477700D02*
X49150000Y-114477700D01*
X41024000Y-114437700D02*
X49146000Y-114437700D01*
X41028000Y-114397700D02*
X49142000Y-114397700D01*
X41033000Y-114357700D02*
X49137000Y-114357700D01*
X41037000Y-114317700D02*
X49133000Y-114317700D01*
X41043000Y-114277700D02*
X49127000Y-114277700D01*
X41048000Y-114237700D02*
X49122000Y-114237700D01*
X41055000Y-114197700D02*
X49115000Y-114197700D01*
X41061000Y-114157700D02*
X49109000Y-114157700D01*
X41068000Y-114116700D02*
X44045000Y-114116700D01*
X46125000Y-114116700D02*
X49102000Y-114116700D01*
X41075000Y-114076700D02*
X44045000Y-114076700D01*
X46125000Y-114076700D02*
X49095000Y-114076700D01*
X41083000Y-114036700D02*
X44045000Y-114036700D01*
X46125000Y-114036700D02*
X49087000Y-114036700D01*
X41091000Y-113996700D02*
X44045000Y-113996700D01*
X46125000Y-113996700D02*
X49079000Y-113996700D01*
X41100000Y-113956700D02*
X44045000Y-113956700D01*
X46125000Y-113956700D02*
X49070000Y-113956700D01*
X41109000Y-113916700D02*
X44045000Y-113916700D01*
X46125000Y-113916700D02*
X49061000Y-113916700D01*
X41118000Y-113876700D02*
X44045000Y-113876700D01*
X46125000Y-113876700D02*
X49052000Y-113876700D01*
X41128000Y-113836700D02*
X44045000Y-113836700D01*
X46125000Y-113836700D02*
X49042000Y-113836700D01*
X41138000Y-113796700D02*
X44045000Y-113796700D01*
X46125000Y-113796700D02*
X49032000Y-113796700D01*
X41149000Y-113756700D02*
X44045000Y-113756700D01*
X46125000Y-113756700D02*
X49021000Y-113756700D01*
X41160000Y-113716700D02*
X44045000Y-113716700D01*
X46125000Y-113716700D02*
X49010000Y-113716700D01*
X41171000Y-113676700D02*
X44045000Y-113676700D01*
X46125000Y-113676700D02*
X48999000Y-113676700D01*
X41183000Y-113636700D02*
X44045000Y-113636700D01*
X46125000Y-113636700D02*
X48987000Y-113636700D01*
X41196000Y-113596700D02*
X44045000Y-113596700D01*
X46125000Y-113596700D02*
X48974000Y-113596700D01*
X41208000Y-113556700D02*
X44045000Y-113556700D01*
X46125000Y-113556700D02*
X48962000Y-113556700D01*
X41222000Y-113516700D02*
X44045000Y-113516700D01*
X46125000Y-113516700D02*
X48948000Y-113516700D01*
X41235000Y-113476700D02*
X44045000Y-113476700D01*
X46125000Y-113476700D02*
X48935000Y-113476700D01*
X41250000Y-113436700D02*
X44045000Y-113436700D01*
X46125000Y-113436700D02*
X48920000Y-113436700D01*
X41264000Y-113396700D02*
X44045000Y-113396700D01*
X46125000Y-113396700D02*
X48906000Y-113396700D01*
X41280000Y-113356700D02*
X44045000Y-113356700D01*
X46125000Y-113356700D02*
X48890000Y-113356700D01*
X41295000Y-113316700D02*
X44045000Y-113316700D01*
X46125000Y-113316700D02*
X48875000Y-113316700D01*
X41311000Y-113276700D02*
X44045000Y-113276700D01*
X46125000Y-113276700D02*
X48859000Y-113276700D01*
X41328000Y-113236700D02*
X44045000Y-113236700D01*
X46125000Y-113236700D02*
X48842000Y-113236700D01*
X41345000Y-113196700D02*
X44045000Y-113196700D01*
X46125000Y-113196700D02*
X48825000Y-113196700D01*
X41363000Y-113156700D02*
X44045000Y-113156700D01*
X46125000Y-113156700D02*
X48807000Y-113156700D01*
X41381000Y-113116700D02*
X44045000Y-113116700D01*
X46125000Y-113116700D02*
X48789000Y-113116700D01*
X41399000Y-113076700D02*
X44045000Y-113076700D01*
X46125000Y-113076700D02*
X48771000Y-113076700D01*
X41419000Y-113036700D02*
X44045000Y-113036700D01*
X46125000Y-113036700D02*
X48751000Y-113036700D01*
X41438000Y-112996700D02*
X44045000Y-112996700D01*
X46125000Y-112996700D02*
X48732000Y-112996700D01*
X41458000Y-112956700D02*
X44045000Y-112956700D01*
X46125000Y-112956700D02*
X48712000Y-112956700D01*
X41479000Y-112916700D02*
X44045000Y-112916700D01*
X46125000Y-112916700D02*
X48691000Y-112916700D01*
X41501000Y-112876700D02*
X44045000Y-112876700D01*
X46125000Y-112876700D02*
X48669000Y-112876700D01*
X41523000Y-112836700D02*
X44045000Y-112836700D01*
X46125000Y-112836700D02*
X48647000Y-112836700D01*
X41545000Y-112796700D02*
X44045000Y-112796700D01*
X46125000Y-112796700D02*
X48625000Y-112796700D01*
X41568000Y-112756700D02*
X44045000Y-112756700D01*
X46125000Y-112756700D02*
X48602000Y-112756700D01*
X41592000Y-112716700D02*
X44045000Y-112716700D01*
X46125000Y-112716700D02*
X48578000Y-112716700D01*
X41616000Y-112676700D02*
X44045000Y-112676700D01*
X46125000Y-112676700D02*
X48554000Y-112676700D01*
X41641000Y-112636700D02*
X44045000Y-112636700D01*
X46125000Y-112636700D02*
X48529000Y-112636700D01*
X41667000Y-112596700D02*
X44045000Y-112596700D01*
X46125000Y-112596700D02*
X48503000Y-112596700D01*
X41693000Y-112556700D02*
X44045000Y-112556700D01*
X46125000Y-112556700D02*
X48477000Y-112556700D01*
X41720000Y-112516700D02*
X44045000Y-112516700D01*
X46125000Y-112516700D02*
X48450000Y-112516700D01*
X41747000Y-112476700D02*
X44045000Y-112476700D01*
X46125000Y-112476700D02*
X48423000Y-112476700D01*
X41776000Y-112436700D02*
X44045000Y-112436700D01*
X46125000Y-112436700D02*
X48394000Y-112436700D01*
X41805000Y-112396700D02*
X44045000Y-112396700D01*
X46125000Y-112396700D02*
X48365000Y-112396700D01*
X41835000Y-112356700D02*
X44045000Y-112356700D01*
X46125000Y-112356700D02*
X48335000Y-112356700D01*
X41865000Y-112316700D02*
X44045000Y-112316700D01*
X46125000Y-112316700D02*
X48305000Y-112316700D01*
X41896000Y-112276700D02*
X44045000Y-112276700D01*
X46125000Y-112276700D02*
X48274000Y-112276700D01*
X41929000Y-112236700D02*
X44045000Y-112236700D01*
X46125000Y-112236700D02*
X48241000Y-112236700D01*
X41961000Y-112196700D02*
X44045000Y-112196700D01*
X46125000Y-112196700D02*
X48209000Y-112196700D01*
X41995000Y-112156700D02*
X44045000Y-112156700D01*
X46125000Y-112156700D02*
X48175000Y-112156700D01*
X42030000Y-112116700D02*
X44045000Y-112116700D01*
X46125000Y-112116700D02*
X48140000Y-112116700D01*
X42066000Y-112076700D02*
X44045000Y-112076700D01*
X46125000Y-112076700D02*
X48104000Y-112076700D01*
X42102000Y-112036700D02*
X48068000Y-112036700D01*
X42140000Y-111996700D02*
X48030000Y-111996700D01*
X42178000Y-111956700D02*
X47992000Y-111956700D01*
X42218000Y-111916700D02*
X47952000Y-111916700D01*
X42259000Y-111876700D02*
X47911000Y-111876700D01*
X42301000Y-111836700D02*
X47869000Y-111836700D01*
X42344000Y-111796700D02*
X47826000Y-111796700D01*
X42388000Y-111756700D02*
X47782000Y-111756700D01*
X42434000Y-111716700D02*
X47736000Y-111716700D01*
X42481000Y-111676700D02*
X47689000Y-111676700D01*
X42529000Y-111636700D02*
X47641000Y-111636700D01*
X42580000Y-111596700D02*
X47590000Y-111596700D01*
X42631000Y-111556700D02*
X47539000Y-111556700D01*
X42685000Y-111516700D02*
X47485000Y-111516700D01*
X42740000Y-111476700D02*
X47430000Y-111476700D01*
X42798000Y-111436700D02*
X47372000Y-111436700D01*
X42857000Y-111396700D02*
X47313000Y-111396700D01*
X42919000Y-111356700D02*
X47251000Y-111356700D01*
X42983000Y-111316700D02*
X47187000Y-111316700D01*
X43051000Y-111276700D02*
X47119000Y-111276700D01*
X43121000Y-111236700D02*
X47049000Y-111236700D01*
X43195000Y-111196700D02*
X46975000Y-111196700D01*
X43272000Y-111156700D02*
X46898000Y-111156700D01*
X43354000Y-111116700D02*
X46816000Y-111116700D01*
X43440000Y-111076700D02*
X46730000Y-111076700D01*
X43533000Y-111036700D02*
X46637000Y-111036700D01*
X43632000Y-110996700D02*
X46538000Y-110996700D01*
X43739000Y-110956700D02*
X46431000Y-110956700D01*
X43856000Y-110916700D02*
X46314000Y-110916700D01*
X43987000Y-110876700D02*
X46183000Y-110876700D01*
X44137000Y-110836700D02*
X46033000Y-110836700D01*
X44317000Y-110796700D02*
X45853000Y-110796700D01*
X44552000Y-110756700D02*
X45618000Y-110756700D01*
X49205000Y-114837700D02*
G75*
G03*
X49205000Y-114837700I-4120000J0D01*
G01*
%TO.C,D1*%
X65700000Y-118353500D02*
X65700000Y-118197500D01*
X65700000Y-116037500D02*
X65700000Y-115881500D01*
X62467666Y-118196108D02*
G75*
G03*
X65699999Y-118353015I1672334J1078608D01*
G01*
X63098871Y-118197336D02*
G75*
G03*
X65180960Y-118197499I1041129J1079836D01*
G01*
X65180960Y-116037501D02*
G75*
G03*
X63098871Y-116037664I-1040960J-1079999D01*
G01*
X65699999Y-115881985D02*
G75*
G03*
X62467666Y-116038892I-1559999J-1235515D01*
G01*
%TO.C,U5*%
X99860000Y-57920000D02*
X38660000Y-57920000D01*
X38660000Y-57920000D02*
X38660000Y-75820000D01*
X99800000Y-60410000D02*
X38720000Y-60410000D01*
X38720000Y-60410000D02*
X38720000Y-73330000D01*
X99800000Y-65870000D02*
X99800000Y-60410000D01*
X99800000Y-73330000D02*
X99800000Y-67870000D01*
X38720000Y-73330000D02*
X99800000Y-73330000D01*
X99860000Y-75820000D02*
X99860000Y-57920000D01*
X38660000Y-75820000D02*
X99860000Y-75820000D01*
X99800000Y-65870000D02*
G75*
G03*
X99800000Y-67870000I0J-1000000D01*
G01*
%TO.C,D2*%
X59980000Y-118353500D02*
X59980000Y-118197500D01*
X59980000Y-116037500D02*
X59980000Y-115881500D01*
X56747666Y-118196108D02*
G75*
G03*
X59979999Y-118353015I1672334J1078608D01*
G01*
X57378871Y-118197336D02*
G75*
G03*
X59460960Y-118197499I1041129J1079836D01*
G01*
X59460960Y-116037501D02*
G75*
G03*
X57378871Y-116037664I-1040960J-1079999D01*
G01*
X59979999Y-115881985D02*
G75*
G03*
X56747666Y-116038892I-1559999J-1235515D01*
G01*
%TO.C,C5*%
X36248748Y-105310000D02*
X36771252Y-105310000D01*
X36248748Y-106780000D02*
X36771252Y-106780000D01*
%TO.C,C7*%
X36248748Y-107850000D02*
X36771252Y-107850000D01*
X36248748Y-109320000D02*
X36771252Y-109320000D01*
%TO.C,U1*%
X40005000Y-110690000D02*
X40005000Y-116700000D01*
X33185000Y-112940000D02*
X33185000Y-116700000D01*
X40005000Y-116700000D02*
X38745000Y-116700000D01*
X33185000Y-116700000D02*
X34445000Y-116700000D01*
%TO.C,Y1*%
X91429459Y-36629478D02*
G75*
G03*
X93969999Y-36630088I1270541J1129478D01*
G01*
X93969999Y-34369912D02*
G75*
G03*
X91429459Y-34370522I-1269999J-1130088D01*
G01*
%TO.C,U7*%
X65920000Y-33080000D02*
X86480000Y-33080000D01*
X86480000Y-33080000D02*
X86480000Y-22800000D01*
X65980000Y-30590000D02*
X86420000Y-30590000D01*
X86420000Y-30590000D02*
X86420000Y-25290000D01*
X65980000Y-28940000D02*
X65980000Y-30590000D01*
X65980000Y-25290000D02*
X65980000Y-26940000D01*
X86420000Y-25290000D02*
X65980000Y-25290000D01*
X65920000Y-22800000D02*
X65920000Y-33080000D01*
X86480000Y-22800000D02*
X65920000Y-22800000D01*
X65980000Y-28940000D02*
G75*
G03*
X65980000Y-26940000I0J1000000D01*
G01*
%TO.C,BT1*%
X38000000Y-91900000D02*
X38000000Y-84100000D01*
X59100000Y-84200000D02*
X62000000Y-84200000D01*
X62000000Y-84200000D02*
X62000000Y-91800000D01*
X62000000Y-91800000D02*
X59100000Y-91800000D01*
X58999998Y-84100001D02*
G75*
G03*
X38000002Y-84100000I-10499998J-3899999D01*
G01*
X38000002Y-91899999D02*
G75*
G03*
X59032369Y-91811715I10499998J3899999D01*
G01*
%TO.C,U6*%
X77410000Y-53080000D02*
X118170000Y-53080000D01*
X118170000Y-53080000D02*
X118170000Y-40160000D01*
X77410000Y-47620000D02*
X77410000Y-53080000D01*
X77410000Y-40160000D02*
X77410000Y-45620000D01*
X118170000Y-40160000D02*
X77410000Y-40160000D01*
X77410000Y-47620000D02*
G75*
G03*
X77410000Y-45620000I0J1000000D01*
G01*
%TO.C,U8*%
X71180000Y-41800000D02*
X40580000Y-41800000D01*
X40580000Y-41800000D02*
X40580000Y-47100000D01*
X71180000Y-43450000D02*
X71180000Y-41800000D01*
X71180000Y-47100000D02*
X71180000Y-45450000D01*
X40580000Y-47100000D02*
X71180000Y-47100000D01*
X71180000Y-43450000D02*
G75*
G03*
X71180000Y-45450000I0J-1000000D01*
G01*
%TO.C,J7*%
X103100000Y-115487500D02*
X103550000Y-115487500D01*
X103100000Y-117337500D02*
X103100000Y-115487500D01*
X103100000Y-119887500D02*
X103100000Y-119637500D01*
X105300000Y-114937500D02*
X105300000Y-115387500D01*
X105300000Y-114937500D02*
X105750000Y-114937500D01*
X110900000Y-115487500D02*
X110450000Y-115487500D01*
X110900000Y-117337500D02*
X110900000Y-115487500D01*
X110900000Y-119887500D02*
X110900000Y-119637500D01*
%TO.C,U9*%
X100350000Y-108520000D02*
X100350000Y-111970000D01*
X100350000Y-108520000D02*
X100350000Y-106570000D01*
X110470000Y-108520000D02*
X110470000Y-110470000D01*
X110470000Y-108520000D02*
X110470000Y-106570000D01*
%TO.C,U4*%
X119675000Y-79835000D02*
X113260000Y-79835000D01*
X119675000Y-79835000D02*
X119675000Y-98075000D01*
X113260000Y-79835000D02*
X113260000Y-79455000D01*
X94715000Y-79835000D02*
X93935000Y-79835000D01*
X93935000Y-79835000D02*
X93935000Y-80835000D01*
X119675000Y-98075000D02*
X113260000Y-98075000D01*
X94715000Y-98075000D02*
X93935000Y-98075000D01*
X93935000Y-98075000D02*
X93935000Y-97075000D01*
%TO.C,U3*%
X41790000Y-33080000D02*
X62350000Y-33080000D01*
X62350000Y-33080000D02*
X62350000Y-22800000D01*
X41850000Y-30590000D02*
X62290000Y-30590000D01*
X62290000Y-30590000D02*
X62290000Y-25290000D01*
X41850000Y-28940000D02*
X41850000Y-30590000D01*
X41850000Y-25290000D02*
X41850000Y-26940000D01*
X62290000Y-25290000D02*
X41850000Y-25290000D01*
X41790000Y-22800000D02*
X41790000Y-33080000D01*
X62350000Y-22800000D02*
X41790000Y-22800000D01*
X41850000Y-28940000D02*
G75*
G03*
X41850000Y-26940000I0J1000000D01*
G01*
%TO.C,U11*%
X75545000Y-82585000D02*
X75545000Y-79135000D01*
X75545000Y-82585000D02*
X75545000Y-84535000D01*
X65425000Y-82585000D02*
X65425000Y-80635000D01*
X65425000Y-82585000D02*
X65425000Y-84535000D01*
%TO.C,U10*%
X89515000Y-82515000D02*
X89515000Y-79065000D01*
X89515000Y-82515000D02*
X89515000Y-84465000D01*
X79395000Y-82515000D02*
X79395000Y-80565000D01*
X79395000Y-82515000D02*
X79395000Y-84465000D01*
%TO.C,D3*%
X54270000Y-118353500D02*
X54270000Y-118197500D01*
X54270000Y-116037500D02*
X54270000Y-115881500D01*
X51037666Y-118196108D02*
G75*
G03*
X54269999Y-118353015I1672334J1078608D01*
G01*
X51668871Y-118197336D02*
G75*
G03*
X53750960Y-118197499I1041129J1079836D01*
G01*
X53750960Y-116037501D02*
G75*
G03*
X51668871Y-116037664I-1040960J-1079999D01*
G01*
X54269999Y-115881985D02*
G75*
G03*
X51037666Y-116038892I-1559999J-1235515D01*
G01*
%TD*%
M02*
