%TF.GenerationSoftware,KiCad,Pcbnew,7.0.0-da2b9df05c~163~ubuntu22.04.1*%
%TF.CreationDate,2023-02-22T18:51:16-05:00*%
%TF.ProjectId,main,6d61696e-2e6b-4696-9361-645f70636258,rev?*%
%TF.SameCoordinates,Original*%
%TF.FileFunction,Soldermask,Bot*%
%TF.FilePolarity,Negative*%
%FSLAX46Y46*%
G04 Gerber Fmt 4.6, Leading zero omitted, Abs format (unit mm)*
G04 Created by KiCad (PCBNEW 7.0.0-da2b9df05c~163~ubuntu22.04.1) date 2023-02-22 18:51:16*
%MOMM*%
%LPD*%
G01*
G04 APERTURE LIST*
G04 Aperture macros list*
%AMRoundRect*
0 Rectangle with rounded corners*
0 $1 Rounding radius*
0 $2 $3 $4 $5 $6 $7 $8 $9 X,Y pos of 4 corners*
0 Add a 4 corners polygon primitive as box body*
4,1,4,$2,$3,$4,$5,$6,$7,$8,$9,$2,$3,0*
0 Add four circle primitives for the rounded corners*
1,1,$1+$1,$2,$3*
1,1,$1+$1,$4,$5*
1,1,$1+$1,$6,$7*
1,1,$1+$1,$8,$9*
0 Add four rect primitives between the rounded corners*
20,1,$1+$1,$2,$3,$4,$5,0*
20,1,$1+$1,$4,$5,$6,$7,0*
20,1,$1+$1,$6,$7,$8,$9,0*
20,1,$1+$1,$8,$9,$2,$3,0*%
G04 Aperture macros list end*
%ADD10C,3.200000*%
%ADD11R,1.700000X1.700000*%
%ADD12O,1.700000X1.700000*%
%ADD13R,1.600000X1.600000*%
%ADD14C,1.600000*%
%ADD15O,1.600000X1.600000*%
%ADD16R,1.800000X1.800000*%
%ADD17C,1.800000*%
%ADD18C,1.100000*%
%ADD19C,1.000000*%
%ADD20C,1.524000*%
%ADD21O,1.200000X1.900000*%
%ADD22C,1.450000*%
%ADD23RoundRect,0.250000X-0.475000X0.250000X-0.475000X-0.250000X0.475000X-0.250000X0.475000X0.250000X0*%
%ADD24RoundRect,0.250000X0.475000X-0.250000X0.475000X0.250000X-0.475000X0.250000X-0.475000X-0.250000X0*%
%ADD25RoundRect,0.250000X-0.250000X-0.475000X0.250000X-0.475000X0.250000X0.475000X-0.250000X0.475000X0*%
%ADD26RoundRect,0.250000X0.262500X0.450000X-0.262500X0.450000X-0.262500X-0.450000X0.262500X-0.450000X0*%
%ADD27RoundRect,0.250000X0.450000X-0.262500X0.450000X0.262500X-0.450000X0.262500X-0.450000X-0.262500X0*%
%ADD28RoundRect,0.250000X0.250000X0.475000X-0.250000X0.475000X-0.250000X-0.475000X0.250000X-0.475000X0*%
%ADD29RoundRect,0.250000X-0.450000X0.262500X-0.450000X-0.262500X0.450000X-0.262500X0.450000X0.262500X0*%
%ADD30RoundRect,0.250000X-0.262500X-0.450000X0.262500X-0.450000X0.262500X0.450000X-0.262500X0.450000X0*%
%ADD31RoundRect,0.150000X-0.150000X0.587500X-0.150000X-0.587500X0.150000X-0.587500X0.150000X0.587500X0*%
%ADD32RoundRect,0.150000X0.150000X-0.587500X0.150000X0.587500X-0.150000X0.587500X-0.150000X-0.587500X0*%
%ADD33RoundRect,0.150000X0.587500X0.150000X-0.587500X0.150000X-0.587500X-0.150000X0.587500X-0.150000X0*%
G04 APERTURE END LIST*
D10*
%TO.C,M1*%
X116500000Y-23500000D03*
%TD*%
%TO.C,M2*%
X116500000Y-116500000D03*
%TD*%
%TO.C,M3*%
X23500000Y-23500000D03*
%TD*%
%TO.C,M4*%
X23500000Y-116500000D03*
%TD*%
D11*
%TO.C,J1*%
X22539999Y-101779999D03*
D12*
X25079999Y-101779999D03*
X22539999Y-104319999D03*
X25079999Y-104319999D03*
X22539999Y-106859999D03*
X25079999Y-106859999D03*
X22539999Y-109399999D03*
X25079999Y-109399999D03*
%TD*%
D11*
%TO.C,J5*%
X22539999Y-30599999D03*
D12*
X25079999Y-30599999D03*
X22539999Y-33139999D03*
X25079999Y-33139999D03*
X22539999Y-35679999D03*
X25079999Y-35679999D03*
X22539999Y-38219999D03*
X25079999Y-38219999D03*
%TD*%
D11*
%TO.C,J2*%
X22539999Y-45869999D03*
D12*
X25079999Y-45869999D03*
X22539999Y-48409999D03*
X25079999Y-48409999D03*
X22539999Y-50949999D03*
X25079999Y-50949999D03*
X22539999Y-53489999D03*
X25079999Y-53489999D03*
X22539999Y-56029999D03*
X25079999Y-56029999D03*
X22539999Y-58569999D03*
X25079999Y-58569999D03*
X22539999Y-61109999D03*
X25079999Y-61109999D03*
X22539999Y-63649999D03*
X25079999Y-63649999D03*
X22539999Y-66189999D03*
X25079999Y-66189999D03*
X22539999Y-68729999D03*
X25079999Y-68729999D03*
X22539999Y-71269999D03*
X25079999Y-71269999D03*
X22539999Y-73809999D03*
X25079999Y-73809999D03*
X22539999Y-76349999D03*
X25079999Y-76349999D03*
X22539999Y-78889999D03*
X25079999Y-78889999D03*
X22539999Y-81429999D03*
X25079999Y-81429999D03*
X22539999Y-83969999D03*
X25079999Y-83969999D03*
X22539999Y-86509999D03*
X25079999Y-86509999D03*
X22539999Y-89049999D03*
X25079999Y-89049999D03*
X22539999Y-91589999D03*
X25079999Y-91589999D03*
X22539999Y-94129999D03*
X25079999Y-94129999D03*
%TD*%
D11*
%TO.C,J3*%
X30539999Y-45869999D03*
D12*
X33079999Y-45869999D03*
X30539999Y-48409999D03*
X33079999Y-48409999D03*
X30539999Y-50949999D03*
X33079999Y-50949999D03*
X30539999Y-53489999D03*
X33079999Y-53489999D03*
X30539999Y-56029999D03*
X33079999Y-56029999D03*
X30539999Y-58569999D03*
X33079999Y-58569999D03*
X30539999Y-61109999D03*
X33079999Y-61109999D03*
X30539999Y-63649999D03*
X33079999Y-63649999D03*
X30539999Y-66189999D03*
X33079999Y-66189999D03*
X30539999Y-68729999D03*
X33079999Y-68729999D03*
X30539999Y-71269999D03*
X33079999Y-71269999D03*
X30539999Y-73809999D03*
X33079999Y-73809999D03*
X30539999Y-76349999D03*
X33079999Y-76349999D03*
X30539999Y-78889999D03*
X33079999Y-78889999D03*
X30539999Y-81429999D03*
X33079999Y-81429999D03*
X30539999Y-83969999D03*
X33079999Y-83969999D03*
X30539999Y-86509999D03*
X33079999Y-86509999D03*
X30539999Y-89049999D03*
X33079999Y-89049999D03*
X30539999Y-91589999D03*
X33079999Y-91589999D03*
X30539999Y-94129999D03*
X33079999Y-94129999D03*
%TD*%
D13*
%TO.C,C4*%
X30999999Y-27999999D03*
D14*
X34500000Y-28000000D03*
%TD*%
D13*
%TO.C,C1*%
X30999999Y-37299999D03*
D14*
X34500000Y-37300000D03*
%TD*%
D13*
%TO.C,U2*%
X91439999Y-31749999D03*
D15*
X93979999Y-31749999D03*
X96519999Y-31749999D03*
X99059999Y-31749999D03*
X101599999Y-31749999D03*
X104139999Y-31749999D03*
X106679999Y-31749999D03*
X109219999Y-31749999D03*
X109219999Y-24129999D03*
X106679999Y-24129999D03*
X104139999Y-24129999D03*
X101599999Y-24129999D03*
X99059999Y-24129999D03*
X96519999Y-24129999D03*
X93979999Y-24129999D03*
X91439999Y-24129999D03*
%TD*%
D13*
%TO.C,C9*%
X45084999Y-116587699D03*
D14*
X45085000Y-113087700D03*
%TD*%
D16*
%TO.C,D1*%
X65409999Y-117117499D03*
D17*
X62870000Y-117117500D03*
%TD*%
D13*
%TO.C,U5*%
X98469999Y-59249999D03*
D15*
X95929999Y-59249999D03*
X93389999Y-59249999D03*
X90849999Y-59249999D03*
X88309999Y-59249999D03*
X85769999Y-59249999D03*
X83229999Y-59249999D03*
X80689999Y-59249999D03*
X78149999Y-59249999D03*
X75609999Y-59249999D03*
X73069999Y-59249999D03*
X70529999Y-59249999D03*
X67989999Y-59249999D03*
X65449999Y-59249999D03*
X62909999Y-59249999D03*
X60369999Y-59249999D03*
X57829999Y-59249999D03*
X55289999Y-59249999D03*
X52749999Y-59249999D03*
X50209999Y-59249999D03*
X47669999Y-59249999D03*
X45129999Y-59249999D03*
X42589999Y-59249999D03*
X40049999Y-59249999D03*
X40049999Y-74489999D03*
X42589999Y-74489999D03*
X45129999Y-74489999D03*
X47669999Y-74489999D03*
X50209999Y-74489999D03*
X52749999Y-74489999D03*
X55289999Y-74489999D03*
X57829999Y-74489999D03*
X60369999Y-74489999D03*
X62909999Y-74489999D03*
X65449999Y-74489999D03*
X67989999Y-74489999D03*
X70529999Y-74489999D03*
X73069999Y-74489999D03*
X75609999Y-74489999D03*
X78149999Y-74489999D03*
X80689999Y-74489999D03*
X83229999Y-74489999D03*
X85769999Y-74489999D03*
X88309999Y-74489999D03*
X90849999Y-74489999D03*
X93389999Y-74489999D03*
X95929999Y-74489999D03*
X98469999Y-74489999D03*
%TD*%
D16*
%TO.C,D2*%
X59689999Y-117117499D03*
D17*
X57150000Y-117117500D03*
%TD*%
D18*
%TO.C,J9*%
X71370000Y-104775000D03*
D14*
X92370000Y-104775000D03*
%TD*%
D19*
%TO.C,Y1*%
X93970000Y-35500000D03*
X91430000Y-35500000D03*
%TD*%
D13*
%TO.C,U7*%
X67309999Y-31749999D03*
D15*
X69849999Y-31749999D03*
X72389999Y-31749999D03*
X74929999Y-31749999D03*
X77469999Y-31749999D03*
X80009999Y-31749999D03*
X82549999Y-31749999D03*
X85089999Y-31749999D03*
X85089999Y-24129999D03*
X82549999Y-24129999D03*
X80009999Y-24129999D03*
X77469999Y-24129999D03*
X74929999Y-24129999D03*
X72389999Y-24129999D03*
X69849999Y-24129999D03*
X67309999Y-24129999D03*
%TD*%
D20*
%TO.C,BT1*%
X60800000Y-88000000D03*
X40800000Y-88000000D03*
%TD*%
D13*
%TO.C,U6*%
X78739999Y-54239999D03*
D15*
X81279999Y-54239999D03*
X83819999Y-54239999D03*
X86359999Y-54239999D03*
X88899999Y-54239999D03*
X91439999Y-54239999D03*
X93979999Y-54239999D03*
X96519999Y-54239999D03*
X99059999Y-54239999D03*
X101599999Y-54239999D03*
X104139999Y-54239999D03*
X106679999Y-54239999D03*
X109219999Y-54239999D03*
X111759999Y-54239999D03*
X114299999Y-54239999D03*
X116839999Y-54239999D03*
X116839999Y-38999999D03*
X114299999Y-38999999D03*
X111759999Y-38999999D03*
X109219999Y-38999999D03*
X106679999Y-38999999D03*
X104139999Y-38999999D03*
X101599999Y-38999999D03*
X99059999Y-38999999D03*
X96519999Y-38999999D03*
X93979999Y-38999999D03*
X91439999Y-38999999D03*
X88899999Y-38999999D03*
X86359999Y-38999999D03*
X83819999Y-38999999D03*
X81279999Y-38999999D03*
X78739999Y-38999999D03*
%TD*%
D13*
%TO.C,U8*%
X69849999Y-40639999D03*
D15*
X67309999Y-40639999D03*
X64769999Y-40639999D03*
X62229999Y-40639999D03*
X59689999Y-40639999D03*
X57149999Y-40639999D03*
X54609999Y-40639999D03*
X52069999Y-40639999D03*
X49529999Y-40639999D03*
X46989999Y-40639999D03*
X44449999Y-40639999D03*
X41909999Y-40639999D03*
X41909999Y-48259999D03*
X44449999Y-48259999D03*
X46989999Y-48259999D03*
X49529999Y-48259999D03*
X52069999Y-48259999D03*
X54609999Y-48259999D03*
X57149999Y-48259999D03*
X59689999Y-48259999D03*
X62229999Y-48259999D03*
X64769999Y-48259999D03*
X67309999Y-48259999D03*
X69849999Y-48259999D03*
%TD*%
D21*
%TO.C,J7*%
X103499999Y-118487499D03*
D22*
X104500000Y-115787500D03*
X109500000Y-115787500D03*
D21*
X110499999Y-118487499D03*
%TD*%
D13*
%TO.C,U3*%
X43179999Y-31749999D03*
D15*
X45719999Y-31749999D03*
X48259999Y-31749999D03*
X50799999Y-31749999D03*
X53339999Y-31749999D03*
X55879999Y-31749999D03*
X58419999Y-31749999D03*
X60959999Y-31749999D03*
X60959999Y-24129999D03*
X58419999Y-24129999D03*
X55879999Y-24129999D03*
X53339999Y-24129999D03*
X50799999Y-24129999D03*
X48259999Y-24129999D03*
X45719999Y-24129999D03*
X43179999Y-24129999D03*
%TD*%
D16*
%TO.C,D3*%
X53979999Y-117117499D03*
D17*
X51440000Y-117117500D03*
%TD*%
D23*
%TO.C,C12*%
X91440000Y-25974000D03*
X91440000Y-27874000D03*
%TD*%
D24*
%TO.C,C13*%
X98425000Y-72832000D03*
X98425000Y-70932000D03*
%TD*%
%TO.C,C14*%
X88900000Y-85090000D03*
X88900000Y-83190000D03*
%TD*%
%TO.C,C18*%
X74930000Y-85090000D03*
X74930000Y-83190000D03*
%TD*%
D25*
%TO.C,C2*%
X32103900Y-29933000D03*
X34003900Y-29933000D03*
%TD*%
%TO.C,C3*%
X32103900Y-35287200D03*
X34003900Y-35287200D03*
%TD*%
D26*
%TO.C,R19*%
X54256500Y-62611000D03*
X52431500Y-62611000D03*
%TD*%
%TO.C,R14*%
X54252500Y-68900000D03*
X52427500Y-68900000D03*
%TD*%
%TO.C,R15*%
X54252500Y-66360000D03*
X52427500Y-66360000D03*
%TD*%
D27*
%TO.C,R18*%
X60325000Y-69812500D03*
X60325000Y-67987500D03*
%TD*%
D25*
%TO.C,C19*%
X110000000Y-82500000D03*
X111900000Y-82500000D03*
%TD*%
D27*
%TO.C,R11*%
X108000000Y-82162500D03*
X108000000Y-80337500D03*
%TD*%
D28*
%TO.C,C6*%
X38730000Y-111125000D03*
X36830000Y-111125000D03*
%TD*%
%TO.C,C8*%
X111900000Y-80250000D03*
X110000000Y-80250000D03*
%TD*%
D27*
%TO.C,R12*%
X111000000Y-90412500D03*
X111000000Y-88587500D03*
%TD*%
D29*
%TO.C,R13*%
X109000000Y-88587500D03*
X109000000Y-90412500D03*
%TD*%
D30*
%TO.C,R17*%
X53594000Y-91186000D03*
X55419000Y-91186000D03*
%TD*%
D23*
%TO.C,C15*%
X99000000Y-107550000D03*
X99000000Y-109450000D03*
%TD*%
D28*
%TO.C,C17*%
X103860000Y-111760000D03*
X101960000Y-111760000D03*
%TD*%
D23*
%TO.C,C16*%
X101000000Y-107550000D03*
X101000000Y-109450000D03*
%TD*%
D24*
%TO.C,C20*%
X69850000Y-46416000D03*
X69850000Y-44516000D03*
%TD*%
D23*
%TO.C,C22*%
X43180000Y-25974000D03*
X43180000Y-27874000D03*
%TD*%
%TO.C,C24*%
X67310000Y-25974000D03*
X67310000Y-27874000D03*
%TD*%
D26*
%TO.C,R20*%
X58062500Y-70805000D03*
X56237500Y-70805000D03*
%TD*%
D31*
%TO.C,Q2*%
X42126500Y-93423500D03*
X44026500Y-93423500D03*
X43076500Y-95298500D03*
%TD*%
D30*
%TO.C,R24*%
X68834000Y-97536000D03*
X70659000Y-97536000D03*
%TD*%
D32*
%TO.C,Q10*%
X110950000Y-86687500D03*
X109050000Y-86687500D03*
X110000000Y-84812500D03*
%TD*%
D33*
%TO.C,Q9*%
X50467500Y-62550000D03*
X50467500Y-64450000D03*
X48592500Y-63500000D03*
%TD*%
D32*
%TO.C,Q5*%
X85889500Y-95298500D03*
X83989500Y-95298500D03*
X84939500Y-93423500D03*
%TD*%
D31*
%TO.C,Q7*%
X109050000Y-92312500D03*
X110950000Y-92312500D03*
X110000000Y-94187500D03*
%TD*%
D30*
%TO.C,R3*%
X42164000Y-97536000D03*
X43989000Y-97536000D03*
%TD*%
D26*
%TO.C,R1*%
X82042000Y-91186000D03*
X80217000Y-91186000D03*
%TD*%
D31*
%TO.C,Q3*%
X45936500Y-93423500D03*
X47836500Y-93423500D03*
X46886500Y-95298500D03*
%TD*%
D26*
%TO.C,R2*%
X82042000Y-97536000D03*
X80217000Y-97536000D03*
%TD*%
D31*
%TO.C,Q12*%
X58316500Y-95298500D03*
X59266500Y-93423500D03*
X57366500Y-93423500D03*
%TD*%
D29*
%TO.C,R31*%
X51435000Y-113030000D03*
X51435000Y-114855000D03*
%TD*%
D26*
%TO.C,R22*%
X63039000Y-97536000D03*
X61214000Y-97536000D03*
%TD*%
D31*
%TO.C,Q11*%
X53556500Y-93423500D03*
X55456500Y-93423500D03*
X54506500Y-95298500D03*
%TD*%
D26*
%TO.C,R9*%
X85852000Y-97536000D03*
X84027000Y-97536000D03*
%TD*%
D30*
%TO.C,R6*%
X45974000Y-91186000D03*
X47799000Y-91186000D03*
%TD*%
D26*
%TO.C,R21*%
X59229000Y-97536000D03*
X57404000Y-97536000D03*
%TD*%
D30*
%TO.C,R16*%
X49784000Y-91186000D03*
X51609000Y-91186000D03*
%TD*%
%TO.C,R25*%
X57404000Y-91186000D03*
X59229000Y-91186000D03*
%TD*%
%TO.C,R28*%
X68834000Y-91186000D03*
X70659000Y-91186000D03*
%TD*%
D29*
%TO.C,R30*%
X57150000Y-113030000D03*
X57150000Y-114855000D03*
%TD*%
D23*
%TO.C,C10*%
X78740000Y-40645000D03*
X78740000Y-42545000D03*
%TD*%
D30*
%TO.C,R27*%
X65024000Y-91186000D03*
X66849000Y-91186000D03*
%TD*%
D31*
%TO.C,Q13*%
X61176500Y-93423500D03*
X63076500Y-93423500D03*
X62126500Y-95298500D03*
%TD*%
D29*
%TO.C,R29*%
X62865000Y-113030000D03*
X62865000Y-114855000D03*
%TD*%
D30*
%TO.C,R5*%
X45974000Y-97536000D03*
X47799000Y-97536000D03*
%TD*%
%TO.C,R23*%
X65024000Y-97536000D03*
X66849000Y-97536000D03*
%TD*%
D31*
%TO.C,Q14*%
X64986500Y-93423500D03*
X66886500Y-93423500D03*
X65936500Y-95298500D03*
%TD*%
%TO.C,Q4*%
X49746500Y-93423500D03*
X51646500Y-93423500D03*
X50696500Y-95298500D03*
%TD*%
D33*
%TO.C,Q8*%
X58087500Y-66995000D03*
X58087500Y-68895000D03*
X56212500Y-67945000D03*
%TD*%
D30*
%TO.C,R4*%
X42164000Y-91186000D03*
X43989000Y-91186000D03*
%TD*%
D26*
%TO.C,R10*%
X85852000Y-91186000D03*
X84027000Y-91186000D03*
%TD*%
D30*
%TO.C,R7*%
X49784000Y-97536000D03*
X51609000Y-97536000D03*
%TD*%
D32*
%TO.C,Q1*%
X82079500Y-95298500D03*
X80179500Y-95298500D03*
X81129500Y-93423500D03*
%TD*%
D33*
%TO.C,Q6*%
X50467500Y-66360000D03*
X50467500Y-68260000D03*
X48592500Y-67310000D03*
%TD*%
D31*
%TO.C,Q15*%
X68796500Y-93423500D03*
X70696500Y-93423500D03*
X69746500Y-95298500D03*
%TD*%
D30*
%TO.C,R8*%
X53594000Y-97536000D03*
X55419000Y-97536000D03*
%TD*%
%TO.C,R26*%
X61214000Y-91186000D03*
X63039000Y-91186000D03*
%TD*%
M02*
