%TF.GenerationSoftware,KiCad,Pcbnew,(5.1.9)-1*%
%TF.CreationDate,2021-05-15T13:46:31-04:00*%
%TF.ProjectId,ltc6904-breakout,6c746336-3930-4342-9d62-7265616b6f75,rev?*%
%TF.SameCoordinates,Original*%
%TF.FileFunction,Copper,L1,Top*%
%TF.FilePolarity,Positive*%
%FSLAX46Y46*%
G04 Gerber Fmt 4.6, Leading zero omitted, Abs format (unit mm)*
G04 Created by KiCad (PCBNEW (5.1.9)-1) date 2021-05-15 13:46:31*
%MOMM*%
%LPD*%
G01*
G04 APERTURE LIST*
%TA.AperFunction,ComponentPad*%
%ADD10O,1.600000X1.600000*%
%TD*%
%TA.AperFunction,ComponentPad*%
%ADD11R,1.600000X1.600000*%
%TD*%
%TA.AperFunction,Conductor*%
%ADD12C,0.400000*%
%TD*%
G04 APERTURE END LIST*
D10*
%TO.P,REF\u002A\u002A,8*%
%TO.N,N/C*%
X1270000Y8890000D03*
%TO.P,REF\u002A\u002A,4*%
X8890000Y1270000D03*
%TO.P,REF\u002A\u002A,7*%
X3810000Y8890000D03*
%TO.P,REF\u002A\u002A,3*%
X6350000Y1270000D03*
%TO.P,REF\u002A\u002A,6*%
X6350000Y8890000D03*
%TO.P,REF\u002A\u002A,2*%
X3810000Y1270000D03*
%TO.P,REF\u002A\u002A,5*%
X8890000Y8890000D03*
D11*
%TO.P,REF\u002A\u002A,1*%
X1270000Y1270000D03*
%TD*%
%TO.P,REF\u002A\u002A,8*%
%TO.N,N/C*%
%TA.AperFunction,SMDPad,CuDef*%
G36*
G01*
X6380000Y5955000D02*
X6380000Y6155000D01*
G75*
G02*
X6480000Y6255000I100000J0D01*
G01*
X7905000Y6255000D01*
G75*
G02*
X8005000Y6155000I0J-100000D01*
G01*
X8005000Y5955000D01*
G75*
G02*
X7905000Y5855000I-100000J0D01*
G01*
X6480000Y5855000D01*
G75*
G02*
X6380000Y5955000I0J100000D01*
G01*
G37*
%TD.AperFunction*%
%TO.P,REF\u002A\u002A,7*%
%TA.AperFunction,SMDPad,CuDef*%
G36*
G01*
X6380000Y5305000D02*
X6380000Y5505000D01*
G75*
G02*
X6480000Y5605000I100000J0D01*
G01*
X7905000Y5605000D01*
G75*
G02*
X8005000Y5505000I0J-100000D01*
G01*
X8005000Y5305000D01*
G75*
G02*
X7905000Y5205000I-100000J0D01*
G01*
X6480000Y5205000D01*
G75*
G02*
X6380000Y5305000I0J100000D01*
G01*
G37*
%TD.AperFunction*%
%TO.P,REF\u002A\u002A,6*%
%TA.AperFunction,SMDPad,CuDef*%
G36*
G01*
X6380000Y4655000D02*
X6380000Y4855000D01*
G75*
G02*
X6480000Y4955000I100000J0D01*
G01*
X7905000Y4955000D01*
G75*
G02*
X8005000Y4855000I0J-100000D01*
G01*
X8005000Y4655000D01*
G75*
G02*
X7905000Y4555000I-100000J0D01*
G01*
X6480000Y4555000D01*
G75*
G02*
X6380000Y4655000I0J100000D01*
G01*
G37*
%TD.AperFunction*%
%TO.P,REF\u002A\u002A,5*%
%TA.AperFunction,SMDPad,CuDef*%
G36*
G01*
X6380000Y4005000D02*
X6380000Y4205000D01*
G75*
G02*
X6480000Y4305000I100000J0D01*
G01*
X7905000Y4305000D01*
G75*
G02*
X8005000Y4205000I0J-100000D01*
G01*
X8005000Y4005000D01*
G75*
G02*
X7905000Y3905000I-100000J0D01*
G01*
X6480000Y3905000D01*
G75*
G02*
X6380000Y4005000I0J100000D01*
G01*
G37*
%TD.AperFunction*%
%TO.P,REF\u002A\u002A,4*%
%TA.AperFunction,SMDPad,CuDef*%
G36*
G01*
X2155000Y4005000D02*
X2155000Y4205000D01*
G75*
G02*
X2255000Y4305000I100000J0D01*
G01*
X3680000Y4305000D01*
G75*
G02*
X3780000Y4205000I0J-100000D01*
G01*
X3780000Y4005000D01*
G75*
G02*
X3680000Y3905000I-100000J0D01*
G01*
X2255000Y3905000D01*
G75*
G02*
X2155000Y4005000I0J100000D01*
G01*
G37*
%TD.AperFunction*%
%TO.P,REF\u002A\u002A,3*%
%TA.AperFunction,SMDPad,CuDef*%
G36*
G01*
X2155000Y4655000D02*
X2155000Y4855000D01*
G75*
G02*
X2255000Y4955000I100000J0D01*
G01*
X3680000Y4955000D01*
G75*
G02*
X3780000Y4855000I0J-100000D01*
G01*
X3780000Y4655000D01*
G75*
G02*
X3680000Y4555000I-100000J0D01*
G01*
X2255000Y4555000D01*
G75*
G02*
X2155000Y4655000I0J100000D01*
G01*
G37*
%TD.AperFunction*%
%TO.P,REF\u002A\u002A,2*%
%TA.AperFunction,SMDPad,CuDef*%
G36*
G01*
X2155000Y5305000D02*
X2155000Y5505000D01*
G75*
G02*
X2255000Y5605000I100000J0D01*
G01*
X3680000Y5605000D01*
G75*
G02*
X3780000Y5505000I0J-100000D01*
G01*
X3780000Y5305000D01*
G75*
G02*
X3680000Y5205000I-100000J0D01*
G01*
X2255000Y5205000D01*
G75*
G02*
X2155000Y5305000I0J100000D01*
G01*
G37*
%TD.AperFunction*%
%TO.P,REF\u002A\u002A,1*%
%TA.AperFunction,SMDPad,CuDef*%
G36*
G01*
X2155000Y5955000D02*
X2155000Y6155000D01*
G75*
G02*
X2255000Y6255000I100000J0D01*
G01*
X3680000Y6255000D01*
G75*
G02*
X3780000Y6155000I0J-100000D01*
G01*
X3780000Y5955000D01*
G75*
G02*
X3680000Y5855000I-100000J0D01*
G01*
X2255000Y5855000D01*
G75*
G02*
X2155000Y5955000I0J100000D01*
G01*
G37*
%TD.AperFunction*%
%TD*%
D12*
%TO.N,*%
X7192500Y8047500D02*
X6350000Y8890000D01*
X7192500Y6055000D02*
X7192500Y8047500D01*
X2967500Y8047500D02*
X3810000Y8890000D01*
X2967500Y6055000D02*
X2967500Y8047500D01*
X7192500Y2112500D02*
X6350000Y1270000D01*
X7192500Y4105000D02*
X7192500Y2112500D01*
X2967500Y2112500D02*
X3810000Y1270000D01*
X2967500Y4105000D02*
X2967500Y2112500D01*
X8890000Y1270000D02*
X8890000Y4064000D01*
X8199000Y4755000D02*
X7192500Y4755000D01*
X8890000Y4064000D02*
X8199000Y4755000D01*
X8890000Y8890000D02*
X8890000Y6096000D01*
X8199000Y5405000D02*
X7192500Y5405000D01*
X8890000Y6096000D02*
X8199000Y5405000D01*
X1270000Y8890000D02*
X1270000Y6096000D01*
X1961000Y5405000D02*
X2967500Y5405000D01*
X1270000Y6096000D02*
X1961000Y5405000D01*
X1270000Y1270000D02*
X1270000Y4064000D01*
X1961000Y4755000D02*
X2967500Y4755000D01*
X1270000Y4064000D02*
X1961000Y4755000D01*
%TD*%
M02*
