%TF.GenerationSoftware,KiCad,Pcbnew,(5.1.9)-1*%
%TF.CreationDate,2021-05-15T13:46:31-04:00*%
%TF.ProjectId,ltc6904-breakout,6c746336-3930-4342-9d62-7265616b6f75,rev?*%
%TF.SameCoordinates,Original*%
%TF.FileFunction,Paste,Top*%
%TF.FilePolarity,Positive*%
%FSLAX46Y46*%
G04 Gerber Fmt 4.6, Leading zero omitted, Abs format (unit mm)*
G04 Created by KiCad (PCBNEW (5.1.9)-1) date 2021-05-15 13:46:31*
%MOMM*%
%LPD*%
G01*
G04 APERTURE LIST*
G04 APERTURE END LIST*
%TO.C,REF\u002A\u002A*%
G36*
G01*
X6380000Y5955000D02*
X6380000Y6155000D01*
G75*
G02*
X6480000Y6255000I100000J0D01*
G01*
X7905000Y6255000D01*
G75*
G02*
X8005000Y6155000I0J-100000D01*
G01*
X8005000Y5955000D01*
G75*
G02*
X7905000Y5855000I-100000J0D01*
G01*
X6480000Y5855000D01*
G75*
G02*
X6380000Y5955000I0J100000D01*
G01*
G37*
G36*
G01*
X6380000Y5305000D02*
X6380000Y5505000D01*
G75*
G02*
X6480000Y5605000I100000J0D01*
G01*
X7905000Y5605000D01*
G75*
G02*
X8005000Y5505000I0J-100000D01*
G01*
X8005000Y5305000D01*
G75*
G02*
X7905000Y5205000I-100000J0D01*
G01*
X6480000Y5205000D01*
G75*
G02*
X6380000Y5305000I0J100000D01*
G01*
G37*
G36*
G01*
X6380000Y4655000D02*
X6380000Y4855000D01*
G75*
G02*
X6480000Y4955000I100000J0D01*
G01*
X7905000Y4955000D01*
G75*
G02*
X8005000Y4855000I0J-100000D01*
G01*
X8005000Y4655000D01*
G75*
G02*
X7905000Y4555000I-100000J0D01*
G01*
X6480000Y4555000D01*
G75*
G02*
X6380000Y4655000I0J100000D01*
G01*
G37*
G36*
G01*
X6380000Y4005000D02*
X6380000Y4205000D01*
G75*
G02*
X6480000Y4305000I100000J0D01*
G01*
X7905000Y4305000D01*
G75*
G02*
X8005000Y4205000I0J-100000D01*
G01*
X8005000Y4005000D01*
G75*
G02*
X7905000Y3905000I-100000J0D01*
G01*
X6480000Y3905000D01*
G75*
G02*
X6380000Y4005000I0J100000D01*
G01*
G37*
G36*
G01*
X2155000Y4005000D02*
X2155000Y4205000D01*
G75*
G02*
X2255000Y4305000I100000J0D01*
G01*
X3680000Y4305000D01*
G75*
G02*
X3780000Y4205000I0J-100000D01*
G01*
X3780000Y4005000D01*
G75*
G02*
X3680000Y3905000I-100000J0D01*
G01*
X2255000Y3905000D01*
G75*
G02*
X2155000Y4005000I0J100000D01*
G01*
G37*
G36*
G01*
X2155000Y4655000D02*
X2155000Y4855000D01*
G75*
G02*
X2255000Y4955000I100000J0D01*
G01*
X3680000Y4955000D01*
G75*
G02*
X3780000Y4855000I0J-100000D01*
G01*
X3780000Y4655000D01*
G75*
G02*
X3680000Y4555000I-100000J0D01*
G01*
X2255000Y4555000D01*
G75*
G02*
X2155000Y4655000I0J100000D01*
G01*
G37*
G36*
G01*
X2155000Y5305000D02*
X2155000Y5505000D01*
G75*
G02*
X2255000Y5605000I100000J0D01*
G01*
X3680000Y5605000D01*
G75*
G02*
X3780000Y5505000I0J-100000D01*
G01*
X3780000Y5305000D01*
G75*
G02*
X3680000Y5205000I-100000J0D01*
G01*
X2255000Y5205000D01*
G75*
G02*
X2155000Y5305000I0J100000D01*
G01*
G37*
G36*
G01*
X2155000Y5955000D02*
X2155000Y6155000D01*
G75*
G02*
X2255000Y6255000I100000J0D01*
G01*
X3680000Y6255000D01*
G75*
G02*
X3780000Y6155000I0J-100000D01*
G01*
X3780000Y5955000D01*
G75*
G02*
X3680000Y5855000I-100000J0D01*
G01*
X2255000Y5855000D01*
G75*
G02*
X2155000Y5955000I0J100000D01*
G01*
G37*
%TD*%
M02*
