  0
SECTION
  2
HEADER
  9
$ANGBASE
  50
0.0
  9
$ANGDIR
  70
1
  9
$MEASUREMENT
  70
0
  0
ENDSEC
  0
SECTION
  2
TABLES
  0
TABLE
  2
LTYPE
  70
4
  0
LTYPE
  5
40F
  2
CONTINUOUS
  70
0
  3
Solid line
  72
65
  73
0
  40
0.0
  0
LTYPE
  5
410
  2
DASHDOT
 70
0
  3
Dash Dot ____ _ ____ _
 72
65
 73
4
 40
2.0
 49
1.25
 49
-0.25
 49
0.25
 49
-0.25
  0
LTYPE
  5
411
  2
DASHED
 70
0
  3
Dashed __ __ __ __ __
 72
65
 73
2
 40
0.75
 49
0.5
 49
-0.25
  0
LTYPE
  5
43B
  2
DOTTED
 70
0
  3
Dotted .  .  .  .
 72
65
 73
2
 40
0.2
 49
0.0
 49
-0.2
  0
ENDTAB
  0
TABLE
  2
STYLE
  70
4
  0
STYLE
  2
KICAD
  70
0
  40
0
  41
1
  42
1
  50
0
  71
0
  3
isocp.shx
  0
STYLE
  2
KICADB
  70
0
  40
0
  41
1
  42
1
  50
0
  71
0
  3
isocp.shx
  0
STYLE
  2
KICADI
  70
0
  40
0
  41
1
  42
1
  50
15
  71
0
  3
isocp.shx
  0
STYLE
  2
KICADBI
  70
0
  40
0
  41
1
  42
1
  50
15
  71
0
  3
isocp.shx
  0
ENDTAB
  0
TABLE
  2
LAYER
  70
1
  0
LAYER
  2
BLACK
  70
0
  62
7
  6
CONTINUOUS
  0
ENDTAB
  0
ENDSEC
  0
SECTION
  2
ENTITIES
0
CIRCLE
8
BLACK
10
10.9634
20
0.275591
40
0.120079
0
CIRCLE
8
BLACK
10
7.21705
20
-4.02559
40
0.120079
0
CIRCLE
8
BLACK
10
-0.23622
20
-4.02559
40
0.120079
0
CIRCLE
8
BLACK
10
10.9634
20
-1.875
40
0.120079
0
CIRCLE
8
BLACK
10
3.47074
20
-4.02559
40
0.120079
0
CIRCLE
8
BLACK
10
-0.275591
20
-1.875
40
0.120079
0
CIRCLE
8
BLACK
10
7.21705
20
0.275591
40
0.120079
0
CIRCLE
8
BLACK
10
3.47074
20
0.275591
40
0.120079
0
CIRCLE
8
BLACK
10
10.9634
20
-4.02559
40
0.120079
0
CIRCLE
8
BLACK
10
-0.275591
20
0.275591
40
0.120079
0
CIRCLE
8
BLACK
10
0.143898
20
-0.075
40
0.167323
0
LINE
8
BLACK
6
CONTINUOUS
10
5.68898
20
0.0566929
11
6.71063
21
0.0566929
0
LINE
8
BLACK
6
CONTINUOUS
10
6.71063
20
0.0566929
11
6.71063
21
0.44252
0
LINE
8
BLACK
6
CONTINUOUS
10
6.71063
20
0.44252
11
5.68898
21
0.44252
0
LINE
8
BLACK
6
CONTINUOUS
10
5.68898
20
0.44252
11
5.68898
21
0.0566929
0
LINE
8
BLACK
6
CONTINUOUS
10
7.80512
20
0.370866
11
7.62795
21
0.370866
0
LINE
8
BLACK
6
CONTINUOUS
10
7.62795
20
0.370866
11
7.62795
21
0.179921
0
LINE
8
BLACK
6
CONTINUOUS
10
7.62795
20
0.179921
11
7.80512
21
0.179921
0
LINE
8
BLACK
6
CONTINUOUS
10
7.80512
20
0.179921
11
7.80512
21
0.370866
0
LINE
8
BLACK
6
CONTINUOUS
10
8.04134
20
0.370866
11
7.86417
21
0.370866
0
LINE
8
BLACK
6
CONTINUOUS
10
7.86417
20
0.370866
11
7.86417
21
0.179921
0
LINE
8
BLACK
6
CONTINUOUS
10
7.86417
20
0.179921
11
8.04134
21
0.179921
0
LINE
8
BLACK
6
CONTINUOUS
10
8.04134
20
0.179921
11
8.04134
21
0.370866
0
LINE
8
BLACK
6
CONTINUOUS
10
8.27756
20
0.370866
11
8.10039
21
0.370866
0
LINE
8
BLACK
6
CONTINUOUS
10
8.10039
20
0.370866
11
8.10039
21
0.179921
0
LINE
8
BLACK
6
CONTINUOUS
10
8.10039
20
0.179921
11
8.27756
21
0.179921
0
LINE
8
BLACK
6
CONTINUOUS
10
8.27756
20
0.179921
11
8.27756
21
0.370866
0
LINE
8
BLACK
6
CONTINUOUS
10
8.51378
20
0.370866
11
8.33661
21
0.370866
0
LINE
8
BLACK
6
CONTINUOUS
10
8.33661
20
0.370866
11
8.33661
21
0.179921
0
LINE
8
BLACK
6
CONTINUOUS
10
8.33661
20
0.179921
11
8.51378
21
0.179921
0
LINE
8
BLACK
6
CONTINUOUS
10
8.51378
20
0.179921
11
8.51378
21
0.370866
0
LINE
8
BLACK
6
CONTINUOUS
10
8.75
20
0.370866
11
8.57283
21
0.370866
0
LINE
8
BLACK
6
CONTINUOUS
10
8.57283
20
0.370866
11
8.57283
21
0.179921
0
LINE
8
BLACK
6
CONTINUOUS
10
8.57283
20
0.179921
11
8.75
21
0.179921
0
LINE
8
BLACK
6
CONTINUOUS
10
8.75
20
0.179921
11
8.75
21
0.370866
0
LINE
8
BLACK
6
CONTINUOUS
10
8.98622
20
0.370866
11
8.80906
21
0.370866
0
LINE
8
BLACK
6
CONTINUOUS
10
8.80906
20
0.370866
11
8.80906
21
0.179921
0
LINE
8
BLACK
6
CONTINUOUS
10
8.80906
20
0.179921
11
8.98622
21
0.179921
0
LINE
8
BLACK
6
CONTINUOUS
10
8.98622
20
0.179921
11
8.98622
21
0.370866
0
LINE
8
BLACK
6
CONTINUOUS
10
10.6004
20
0.370866
11
10.4232
21
0.370866
0
LINE
8
BLACK
6
CONTINUOUS
10
10.4232
20
0.370866
11
10.4232
21
0.179921
0
LINE
8
BLACK
6
CONTINUOUS
10
10.4232
20
0.179921
11
10.6004
21
0.179921
0
LINE
8
BLACK
6
CONTINUOUS
10
10.6004
20
0.179921
11
10.6004
21
0.370866
0
LINE
8
BLACK
6
CONTINUOUS
10
-0.443307
20
-0.188976
11
-0.443307
21
-1.41142
0
LINE
8
BLACK
6
CONTINUOUS
10
-0.443307
20
-1.41142
11
-0.0574803
21
-1.41142
0
LINE
8
BLACK
6
CONTINUOUS
10
-0.0574803
20
-1.41142
11
-0.0574803
21
-0.188976
0
LINE
8
BLACK
6
CONTINUOUS
10
-0.0574803
20
-0.188976
11
-0.443307
21
-0.188976
0
LINE
8
BLACK
6
CONTINUOUS
10
9.13898
20
0.0566929
11
10.1606
21
0.0566929
0
LINE
8
BLACK
6
CONTINUOUS
10
10.1606
20
0.0566929
11
10.1606
21
0.44252
0
LINE
8
BLACK
6
CONTINUOUS
10
10.1606
20
0.44252
11
9.13898
21
0.44252
0
LINE
8
BLACK
6
CONTINUOUS
10
9.13898
20
0.44252
11
9.13898
21
0.0566929
0
LINE
8
BLACK
6
CONTINUOUS
10
4.83898
20
0.0566929
11
5.56142
21
0.0566929
0
LINE
8
BLACK
6
CONTINUOUS
10
5.56142
20
0.0566929
11
5.56142
21
0.44252
0
LINE
8
BLACK
6
CONTINUOUS
10
5.56142
20
0.44252
11
4.83898
21
0.44252
0
LINE
8
BLACK
6
CONTINUOUS
10
4.83898
20
0.44252
11
4.83898
21
0.0566929
0
LINE
8
BLACK
6
CONTINUOUS
10
3.98898
20
0.0566929
11
4.71142
21
0.0566929
0
LINE
8
BLACK
6
CONTINUOUS
10
4.71142
20
0.0566929
11
4.71142
21
0.44252
0
LINE
8
BLACK
6
CONTINUOUS
10
4.71142
20
0.44252
11
3.98898
21
0.44252
0
LINE
8
BLACK
6
CONTINUOUS
10
3.98898
20
0.44252
11
3.98898
21
0.0566929
0
LINE
8
BLACK
6
CONTINUOUS
10
9.11508
20
-2.88453
11
9.11508
21
-2.36484
0
LINE
8
BLACK
6
CONTINUOUS
10
9.63476
20
-2.88453
11
9.11508
21
-2.88453
0
LINE
8
BLACK
6
CONTINUOUS
10
9.63476
20
-2.36484
11
9.63476
21
-2.88453
0
LINE
8
BLACK
6
CONTINUOUS
10
9.11508
20
-2.36484
11
9.63476
21
-2.36484
0
LINE
8
BLACK
6
CONTINUOUS
10
0.490079
20
-2.88453
11
0.490079
21
-2.36484
0
LINE
8
BLACK
6
CONTINUOUS
10
1.00976
20
-2.88453
11
0.490079
21
-2.88453
0
LINE
8
BLACK
6
CONTINUOUS
10
1.00976
20
-2.36484
11
1.00976
21
-2.88453
0
LINE
8
BLACK
6
CONTINUOUS
10
0.490079
20
-2.36484
11
1.00976
21
-2.36484
0
LINE
8
BLACK
6
CONTINUOUS
10
8.92756
20
-2.13453
11
8.92756
21
-1.61484
0
LINE
8
BLACK
6
CONTINUOUS
10
9.44724
20
-2.13453
11
8.92756
21
-2.13453
0
LINE
8
BLACK
6
CONTINUOUS
10
9.44724
20
-1.61484
11
9.44724
21
-2.13453
0
LINE
8
BLACK
6
CONTINUOUS
10
8.92756
20
-1.61484
11
9.44724
21
-1.61484
0
LINE
8
BLACK
6
CONTINUOUS
10
5.08382
20
-3.63453
11
5.08382
21
-3.11484
0
LINE
8
BLACK
6
CONTINUOUS
10
5.6035
20
-3.63453
11
5.08382
21
-3.63453
0
LINE
8
BLACK
6
CONTINUOUS
10
5.6035
20
-3.11484
11
5.6035
21
-3.63453
0
LINE
8
BLACK
6
CONTINUOUS
10
5.08382
20
-3.11484
11
5.6035
21
-3.11484
0
LINE
8
BLACK
6
CONTINUOUS
10
1.61508
20
-3.63453
11
1.61508
21
-3.11484
0
LINE
8
BLACK
6
CONTINUOUS
10
2.13476
20
-3.63453
11
1.61508
21
-3.63453
0
LINE
8
BLACK
6
CONTINUOUS
10
2.13476
20
-3.11484
11
2.13476
21
-3.63453
0
LINE
8
BLACK
6
CONTINUOUS
10
1.61508
20
-3.11484
11
2.13476
21
-3.11484
0
LINE
8
BLACK
6
CONTINUOUS
10
0.865079
20
-3.63453
11
0.865079
21
-3.11484
0
LINE
8
BLACK
6
CONTINUOUS
10
1.38476
20
-3.63453
11
0.865079
21
-3.63453
0
LINE
8
BLACK
6
CONTINUOUS
10
1.38476
20
-3.11484
11
1.38476
21
-3.63453
0
LINE
8
BLACK
6
CONTINUOUS
10
0.865079
20
-3.11484
11
1.38476
21
-3.11484
0
LINE
8
BLACK
6
CONTINUOUS
10
0.115079
20
-3.63453
11
0.115079
21
-3.11484
0
LINE
8
BLACK
6
CONTINUOUS
10
0.634764
20
-3.63453
11
0.115079
21
-3.63453
0
LINE
8
BLACK
6
CONTINUOUS
10
0.634764
20
-3.11484
11
0.634764
21
-3.63453
0
LINE
8
BLACK
6
CONTINUOUS
10
0.115079
20
-3.11484
11
0.634764
21
-3.11484
0
LINE
8
BLACK
6
CONTINUOUS
10
8.17756
20
-2.36484
11
8.69724
21
-2.36484
0
LINE
8
BLACK
6
CONTINUOUS
10
8.69724
20
-2.36484
11
8.69724
21
-2.88453
0
LINE
8
BLACK
6
CONTINUOUS
10
8.69724
20
-2.88453
11
8.17756
21
-2.88453
0
LINE
8
BLACK
6
CONTINUOUS
10
8.17756
20
-2.88453
11
8.17756
21
-2.36484
0
LINE
8
BLACK
6
CONTINUOUS
10
4.99008
20
-0.114843
11
5.50976
21
-0.114843
0
LINE
8
BLACK
6
CONTINUOUS
10
5.50976
20
-0.114843
11
5.50976
21
-0.634528
0
LINE
8
BLACK
6
CONTINUOUS
10
5.50976
20
-0.634528
11
4.99008
21
-0.634528
0
LINE
8
BLACK
6
CONTINUOUS
10
4.99008
20
-0.634528
11
4.99008
21
-0.114843
0
LINE
8
BLACK
6
CONTINUOUS
10
10.0526
20
-3.11484
11
10.5723
21
-3.11484
0
LINE
8
BLACK
6
CONTINUOUS
10
10.5723
20
-3.11484
11
10.5723
21
-3.63453
0
LINE
8
BLACK
6
CONTINUOUS
10
10.5723
20
-3.63453
11
10.0526
21
-3.63453
0
LINE
8
BLACK
6
CONTINUOUS
10
10.0526
20
-3.63453
11
10.0526
21
-3.11484
0
LINE
8
BLACK
6
CONTINUOUS
10
1.61508
20
-0.864843
11
2.13476
21
-0.864843
0
LINE
8
BLACK
6
CONTINUOUS
10
2.13476
20
-0.864843
11
2.13476
21
-1.38453
0
LINE
8
BLACK
6
CONTINUOUS
10
2.13476
20
-1.38453
11
1.61508
21
-1.38453
0
LINE
8
BLACK
6
CONTINUOUS
10
1.61508
20
-1.38453
11
1.61508
21
-0.864843
0
LINE
8
BLACK
6
CONTINUOUS
10
6.86508
20
-0.864843
11
7.38476
21
-0.864843
0
LINE
8
BLACK
6
CONTINUOUS
10
7.38476
20
-0.864843
11
7.38476
21
-1.38453
0
LINE
8
BLACK
6
CONTINUOUS
10
7.38476
20
-1.38453
11
6.86508
21
-1.38453
0
LINE
8
BLACK
6
CONTINUOUS
10
6.86508
20
-1.38453
11
6.86508
21
-0.864843
0
LINE
8
BLACK
6
CONTINUOUS
10
4.0526
20
-1.61484
11
4.57228
21
-1.61484
0
LINE
8
BLACK
6
CONTINUOUS
10
4.57228
20
-1.61484
11
4.57228
21
-2.13453
0
LINE
8
BLACK
6
CONTINUOUS
10
4.57228
20
-2.13453
11
4.0526
21
-2.13453
0
LINE
8
BLACK
6
CONTINUOUS
10
4.0526
20
-2.13453
11
4.0526
21
-1.61484
0
LINE
8
BLACK
6
CONTINUOUS
10
9.86508
20
-0.864843
11
10.3848
21
-0.864843
0
LINE
8
BLACK
6
CONTINUOUS
10
10.3848
20
-0.864843
11
10.3848
21
-1.38453
0
LINE
8
BLACK
6
CONTINUOUS
10
10.3848
20
-1.38453
11
9.86508
21
-1.38453
0
LINE
8
BLACK
6
CONTINUOUS
10
9.86508
20
-1.38453
11
9.86508
21
-0.864843
0
LINE
8
BLACK
6
CONTINUOUS
10
7.42756
20
-2.36484
11
7.94724
21
-2.36484
0
LINE
8
BLACK
6
CONTINUOUS
10
7.94724
20
-2.36484
11
7.94724
21
-2.88453
0
LINE
8
BLACK
6
CONTINUOUS
10
7.94724
20
-2.88453
11
7.42756
21
-2.88453
0
LINE
8
BLACK
6
CONTINUOUS
10
7.42756
20
-2.88453
11
7.42756
21
-2.36484
0
LINE
8
BLACK
6
CONTINUOUS
10
4.24008
20
-0.114843
11
4.75976
21
-0.114843
0
LINE
8
BLACK
6
CONTINUOUS
10
4.75976
20
-0.114843
11
4.75976
21
-0.634528
0
LINE
8
BLACK
6
CONTINUOUS
10
4.75976
20
-0.634528
11
4.24008
21
-0.634528
0
LINE
8
BLACK
6
CONTINUOUS
10
4.24008
20
-0.634528
11
4.24008
21
-0.114843
0
LINE
8
BLACK
6
CONTINUOUS
10
9.3026
20
-3.11484
11
9.82228
21
-3.11484
0
LINE
8
BLACK
6
CONTINUOUS
10
9.82228
20
-3.11484
11
9.82228
21
-3.63453
0
LINE
8
BLACK
6
CONTINUOUS
10
9.82228
20
-3.63453
11
9.3026
21
-3.63453
0
LINE
8
BLACK
6
CONTINUOUS
10
9.3026
20
-3.63453
11
9.3026
21
-3.11484
0
LINE
8
BLACK
6
CONTINUOUS
10
3.67756
20
-2.36484
11
4.19724
21
-2.36484
0
LINE
8
BLACK
6
CONTINUOUS
10
4.19724
20
-2.36484
11
4.19724
21
-2.88453
0
LINE
8
BLACK
6
CONTINUOUS
10
4.19724
20
-2.88453
11
3.67756
21
-2.88453
0
LINE
8
BLACK
6
CONTINUOUS
10
3.67756
20
-2.88453
11
3.67756
21
-2.36484
0
LINE
8
BLACK
6
CONTINUOUS
10
5.17756
20
-2.36484
11
5.69724
21
-2.36484
0
LINE
8
BLACK
6
CONTINUOUS
10
5.69724
20
-2.36484
11
5.69724
21
-2.88453
0
LINE
8
BLACK
6
CONTINUOUS
10
5.69724
20
-2.88453
11
5.17756
21
-2.88453
0
LINE
8
BLACK
6
CONTINUOUS
10
5.17756
20
-2.88453
11
5.17756
21
-2.36484
0
LINE
8
BLACK
6
CONTINUOUS
10
3.30258
20
-1.61484
11
3.82226
21
-1.61484
0
LINE
8
BLACK
6
CONTINUOUS
10
3.82226
20
-1.61484
11
3.82226
21
-2.13453
0
LINE
8
BLACK
6
CONTINUOUS
10
3.82226
20
-2.13453
11
3.30258
21
-2.13453
0
LINE
8
BLACK
6
CONTINUOUS
10
3.30258
20
-2.13453
11
3.30258
21
-1.61484
0
LINE
8
BLACK
6
CONTINUOUS
10
9.11508
20
-0.864843
11
9.63476
21
-0.864843
0
LINE
8
BLACK
6
CONTINUOUS
10
9.63476
20
-0.864843
11
9.63476
21
-1.38453
0
LINE
8
BLACK
6
CONTINUOUS
10
9.63476
20
-1.38453
11
9.11508
21
-1.38453
0
LINE
8
BLACK
6
CONTINUOUS
10
9.11508
20
-1.38453
11
9.11508
21
-0.864843
0
LINE
8
BLACK
6
CONTINUOUS
10
8.74008
20
-0.114843
11
9.25976
21
-0.114843
0
LINE
8
BLACK
6
CONTINUOUS
10
9.25976
20
-0.114843
11
9.25976
21
-0.634528
0
LINE
8
BLACK
6
CONTINUOUS
10
9.25976
20
-0.634528
11
8.74008
21
-0.634528
0
LINE
8
BLACK
6
CONTINUOUS
10
8.74008
20
-0.634528
11
8.74008
21
-0.114843
0
LINE
8
BLACK
6
CONTINUOUS
10
3.49008
20
-0.114843
11
4.00976
21
-0.114843
0
LINE
8
BLACK
6
CONTINUOUS
10
4.00976
20
-0.114843
11
4.00976
21
-0.634528
0
LINE
8
BLACK
6
CONTINUOUS
10
4.00976
20
-0.634528
11
3.49008
21
-0.634528
0
LINE
8
BLACK
6
CONTINUOUS
10
3.49008
20
-0.634528
11
3.49008
21
-0.114843
0
LINE
8
BLACK
6
CONTINUOUS
10
8.5526
20
-3.11484
11
9.07228
21
-3.11484
0
LINE
8
BLACK
6
CONTINUOUS
10
9.07228
20
-3.11484
11
9.07228
21
-3.63453
0
LINE
8
BLACK
6
CONTINUOUS
10
9.07228
20
-3.63453
11
8.5526
21
-3.63453
0
LINE
8
BLACK
6
CONTINUOUS
10
8.5526
20
-3.63453
11
8.5526
21
-3.11484
0
LINE
8
BLACK
6
CONTINUOUS
10
5.36508
20
-0.864843
11
5.88476
21
-0.864843
0
LINE
8
BLACK
6
CONTINUOUS
10
5.88476
20
-0.864843
11
5.88476
21
-1.38453
0
LINE
8
BLACK
6
CONTINUOUS
10
5.88476
20
-1.38453
11
5.36508
21
-1.38453
0
LINE
8
BLACK
6
CONTINUOUS
10
5.36508
20
-1.38453
11
5.36508
21
-0.864843
0
LINE
8
BLACK
6
CONTINUOUS
10
5.92756
20
-2.36484
11
6.44724
21
-2.36484
0
LINE
8
BLACK
6
CONTINUOUS
10
6.44724
20
-2.36484
11
6.44724
21
-2.88453
0
LINE
8
BLACK
6
CONTINUOUS
10
6.44724
20
-2.88453
11
5.92756
21
-2.88453
0
LINE
8
BLACK
6
CONTINUOUS
10
5.92756
20
-2.88453
11
5.92756
21
-2.36484
0
LINE
8
BLACK
6
CONTINUOUS
10
2.36508
20
-0.864843
11
2.88476
21
-0.864843
0
LINE
8
BLACK
6
CONTINUOUS
10
2.88476
20
-0.864843
11
2.88476
21
-1.38453
0
LINE
8
BLACK
6
CONTINUOUS
10
2.88476
20
-1.38453
11
2.36508
21
-1.38453
0
LINE
8
BLACK
6
CONTINUOUS
10
2.36508
20
-1.38453
11
2.36508
21
-0.864843
0
LINE
8
BLACK
6
CONTINUOUS
10
10.0526
20
-2.36484
11
10.5723
21
-2.36484
0
LINE
8
BLACK
6
CONTINUOUS
10
10.5723
20
-2.36484
11
10.5723
21
-2.88453
0
LINE
8
BLACK
6
CONTINUOUS
10
10.5723
20
-2.88453
11
10.0526
21
-2.88453
0
LINE
8
BLACK
6
CONTINUOUS
10
10.0526
20
-2.88453
11
10.0526
21
-2.36484
0
LINE
8
BLACK
6
CONTINUOUS
10
0.302579
20
-1.61484
11
0.822264
21
-1.61484
0
LINE
8
BLACK
6
CONTINUOUS
10
0.822264
20
-1.61484
11
0.822264
21
-2.13453
0
LINE
8
BLACK
6
CONTINUOUS
10
0.822264
20
-2.13453
11
0.302579
21
-2.13453
0
LINE
8
BLACK
6
CONTINUOUS
10
0.302579
20
-2.13453
11
0.302579
21
-1.61484
0
LINE
8
BLACK
6
CONTINUOUS
10
6.67756
20
-2.36484
11
7.19724
21
-2.36484
0
LINE
8
BLACK
6
CONTINUOUS
10
7.19724
20
-2.36484
11
7.19724
21
-2.88453
0
LINE
8
BLACK
6
CONTINUOUS
10
7.19724
20
-2.88453
11
6.67756
21
-2.88453
0
LINE
8
BLACK
6
CONTINUOUS
10
6.67756
20
-2.88453
11
6.67756
21
-2.36484
0
LINE
8
BLACK
6
CONTINUOUS
10
2.74008
20
-0.114843
11
3.25976
21
-0.114843
0
LINE
8
BLACK
6
CONTINUOUS
10
3.25976
20
-0.114843
11
3.25976
21
-0.634528
0
LINE
8
BLACK
6
CONTINUOUS
10
3.25976
20
-0.634528
11
2.74008
21
-0.634528
0
LINE
8
BLACK
6
CONTINUOUS
10
2.74008
20
-0.634528
11
2.74008
21
-0.114843
0
LINE
8
BLACK
6
CONTINUOUS
10
7.8026
20
-3.11484
11
8.32228
21
-3.11484
0
LINE
8
BLACK
6
CONTINUOUS
10
8.32228
20
-3.11484
11
8.32228
21
-3.63453
0
LINE
8
BLACK
6
CONTINUOUS
10
8.32228
20
-3.63453
11
7.8026
21
-3.63453
0
LINE
8
BLACK
6
CONTINUOUS
10
7.8026
20
-3.63453
11
7.8026
21
-3.11484
0
LINE
8
BLACK
6
CONTINUOUS
10
3.86508
20
-0.864843
11
4.38476
21
-0.864843
0
LINE
8
BLACK
6
CONTINUOUS
10
4.38476
20
-0.864843
11
4.38476
21
-1.38453
0
LINE
8
BLACK
6
CONTINUOUS
10
4.38476
20
-1.38453
11
3.86508
21
-1.38453
0
LINE
8
BLACK
6
CONTINUOUS
10
3.86508
20
-1.38453
11
3.86508
21
-0.864843
0
LINE
8
BLACK
6
CONTINUOUS
10
7.0526
20
-1.61484
11
7.57228
21
-1.61484
0
LINE
8
BLACK
6
CONTINUOUS
10
7.57228
20
-1.61484
11
7.57228
21
-2.13453
0
LINE
8
BLACK
6
CONTINUOUS
10
7.57228
20
-2.13453
11
7.0526
21
-2.13453
0
LINE
8
BLACK
6
CONTINUOUS
10
7.0526
20
-2.13453
11
7.0526
21
-1.61484
0
LINE
8
BLACK
6
CONTINUOUS
10
2.55258
20
-1.61484
11
3.07226
21
-1.61484
0
LINE
8
BLACK
6
CONTINUOUS
10
3.07226
20
-1.61484
11
3.07226
21
-2.13453
0
LINE
8
BLACK
6
CONTINUOUS
10
3.07226
20
-2.13453
11
2.55258
21
-2.13453
0
LINE
8
BLACK
6
CONTINUOUS
10
2.55258
20
-2.13453
11
2.55258
21
-1.61484
0
LINE
8
BLACK
6
CONTINUOUS
10
0.115079
20
-0.864843
11
0.634764
21
-0.864843
0
LINE
8
BLACK
6
CONTINUOUS
10
0.634764
20
-0.864843
11
0.634764
21
-1.38453
0
LINE
8
BLACK
6
CONTINUOUS
10
0.634764
20
-1.38453
11
0.115079
21
-1.38453
0
LINE
8
BLACK
6
CONTINUOUS
10
0.115079
20
-1.38453
11
0.115079
21
-0.864843
0
LINE
8
BLACK
6
CONTINUOUS
10
7.8026
20
-1.61484
11
8.32228
21
-1.61484
0
LINE
8
BLACK
6
CONTINUOUS
10
8.32228
20
-1.61484
11
8.32228
21
-2.13453
0
LINE
8
BLACK
6
CONTINUOUS
10
8.32228
20
-2.13453
11
7.8026
21
-2.13453
0
LINE
8
BLACK
6
CONTINUOUS
10
7.8026
20
-2.13453
11
7.8026
21
-1.61484
0
LINE
8
BLACK
6
CONTINUOUS
10
1.99008
20
-0.114843
11
2.50976
21
-0.114843
0
LINE
8
BLACK
6
CONTINUOUS
10
2.50976
20
-0.114843
11
2.50976
21
-0.634528
0
LINE
8
BLACK
6
CONTINUOUS
10
2.50976
20
-0.634528
11
1.99008
21
-0.634528
0
LINE
8
BLACK
6
CONTINUOUS
10
1.99008
20
-0.634528
11
1.99008
21
-0.114843
0
LINE
8
BLACK
6
CONTINUOUS
10
2.36508
20
-3.11484
11
2.88476
21
-3.11484
0
LINE
8
BLACK
6
CONTINUOUS
10
2.88476
20
-3.11484
11
2.88476
21
-3.63453
0
LINE
8
BLACK
6
CONTINUOUS
10
2.88476
20
-3.63453
11
2.36508
21
-3.63453
0
LINE
8
BLACK
6
CONTINUOUS
10
2.36508
20
-3.63453
11
2.36508
21
-3.11484
0
LINE
8
BLACK
6
CONTINUOUS
10
1.80258
20
-1.61484
11
2.32226
21
-1.61484
0
LINE
8
BLACK
6
CONTINUOUS
10
2.32226
20
-1.61484
11
2.32226
21
-2.13453
0
LINE
8
BLACK
6
CONTINUOUS
10
2.32226
20
-2.13453
11
1.80258
21
-2.13453
0
LINE
8
BLACK
6
CONTINUOUS
10
1.80258
20
-2.13453
11
1.80258
21
-1.61484
0
LINE
8
BLACK
6
CONTINUOUS
10
6.3026
20
-1.61484
11
6.82228
21
-1.61484
0
LINE
8
BLACK
6
CONTINUOUS
10
6.82228
20
-1.61484
11
6.82228
21
-2.13453
0
LINE
8
BLACK
6
CONTINUOUS
10
6.82228
20
-2.13453
11
6.3026
21
-2.13453
0
LINE
8
BLACK
6
CONTINUOUS
10
6.3026
20
-2.13453
11
6.3026
21
-1.61484
0
LINE
8
BLACK
6
CONTINUOUS
10
2.92758
20
-2.36484
11
3.44726
21
-2.36484
0
LINE
8
BLACK
6
CONTINUOUS
10
3.44726
20
-2.36484
11
3.44726
21
-2.88453
0
LINE
8
BLACK
6
CONTINUOUS
10
3.44726
20
-2.88453
11
2.92758
21
-2.88453
0
LINE
8
BLACK
6
CONTINUOUS
10
2.92758
20
-2.88453
11
2.92758
21
-2.36484
0
LINE
8
BLACK
6
CONTINUOUS
10
9.49008
20
-0.114843
11
10.0098
21
-0.114843
0
LINE
8
BLACK
6
CONTINUOUS
10
10.0098
20
-0.114843
11
10.0098
21
-0.634528
0
LINE
8
BLACK
6
CONTINUOUS
10
10.0098
20
-0.634528
11
9.49008
21
-0.634528
0
LINE
8
BLACK
6
CONTINUOUS
10
9.49008
20
-0.634528
11
9.49008
21
-0.114843
0
LINE
8
BLACK
6
CONTINUOUS
10
7.99008
20
-0.114843
11
8.50976
21
-0.114843
0
LINE
8
BLACK
6
CONTINUOUS
10
8.50976
20
-0.114843
11
8.50976
21
-0.634528
0
LINE
8
BLACK
6
CONTINUOUS
10
8.50976
20
-0.634528
11
7.99008
21
-0.634528
0
LINE
8
BLACK
6
CONTINUOUS
10
7.99008
20
-0.634528
11
7.99008
21
-0.114843
0
LINE
8
BLACK
6
CONTINUOUS
10
1.24008
20
-0.114843
11
1.75976
21
-0.114843
0
LINE
8
BLACK
6
CONTINUOUS
10
1.75976
20
-0.114843
11
1.75976
21
-0.634528
0
LINE
8
BLACK
6
CONTINUOUS
10
1.75976
20
-0.634528
11
1.24008
21
-0.634528
0
LINE
8
BLACK
6
CONTINUOUS
10
1.24008
20
-0.634528
11
1.24008
21
-0.114843
0
LINE
8
BLACK
6
CONTINUOUS
10
1.42758
20
-2.36484
11
1.94726
21
-2.36484
0
LINE
8
BLACK
6
CONTINUOUS
10
1.94726
20
-2.36484
11
1.94726
21
-2.88453
0
LINE
8
BLACK
6
CONTINUOUS
10
1.94726
20
-2.88453
11
1.42758
21
-2.88453
0
LINE
8
BLACK
6
CONTINUOUS
10
1.42758
20
-2.88453
11
1.42758
21
-2.36484
0
LINE
8
BLACK
6
CONTINUOUS
10
3.11508
20
-0.864843
11
3.63476
21
-0.864843
0
LINE
8
BLACK
6
CONTINUOUS
10
3.63476
20
-0.864843
11
3.63476
21
-1.38453
0
LINE
8
BLACK
6
CONTINUOUS
10
3.63476
20
-1.38453
11
3.11508
21
-1.38453
0
LINE
8
BLACK
6
CONTINUOUS
10
3.11508
20
-1.38453
11
3.11508
21
-0.864843
0
LINE
8
BLACK
6
CONTINUOUS
10
5.5526
20
-1.61484
11
6.07228
21
-1.61484
0
LINE
8
BLACK
6
CONTINUOUS
10
6.07228
20
-1.61484
11
6.07228
21
-2.13453
0
LINE
8
BLACK
6
CONTINUOUS
10
6.07228
20
-2.13453
11
5.5526
21
-2.13453
0
LINE
8
BLACK
6
CONTINUOUS
10
5.5526
20
-2.13453
11
5.5526
21
-1.61484
0
LINE
8
BLACK
6
CONTINUOUS
10
4.42756
20
-2.36484
11
4.94724
21
-2.36484
0
LINE
8
BLACK
6
CONTINUOUS
10
4.94724
20
-2.36484
11
4.94724
21
-2.88453
0
LINE
8
BLACK
6
CONTINUOUS
10
4.94724
20
-2.88453
11
4.42756
21
-2.88453
0
LINE
8
BLACK
6
CONTINUOUS
10
4.42756
20
-2.88453
11
4.42756
21
-2.36484
0
LINE
8
BLACK
6
CONTINUOUS
10
10.0526
20
-1.61484
11
10.5723
21
-1.61484
0
LINE
8
BLACK
6
CONTINUOUS
10
10.5723
20
-1.61484
11
10.5723
21
-2.13453
0
LINE
8
BLACK
6
CONTINUOUS
10
10.5723
20
-2.13453
11
10.0526
21
-2.13453
0
LINE
8
BLACK
6
CONTINUOUS
10
10.0526
20
-2.13453
11
10.0526
21
-1.61484
0
LINE
8
BLACK
6
CONTINUOUS
10
6.49008
20
-0.114843
11
7.00976
21
-0.114843
0
LINE
8
BLACK
6
CONTINUOUS
10
7.00976
20
-0.114843
11
7.00976
21
-0.634528
0
LINE
8
BLACK
6
CONTINUOUS
10
7.00976
20
-0.634528
11
6.49008
21
-0.634528
0
LINE
8
BLACK
6
CONTINUOUS
10
6.49008
20
-0.634528
11
6.49008
21
-0.114843
0
LINE
8
BLACK
6
CONTINUOUS
10
0.490079
20
-0.114843
11
1.00976
21
-0.114843
0
LINE
8
BLACK
6
CONTINUOUS
10
1.00976
20
-0.114843
11
1.00976
21
-0.634528
0
LINE
8
BLACK
6
CONTINUOUS
10
1.00976
20
-0.634528
11
0.490079
21
-0.634528
0
LINE
8
BLACK
6
CONTINUOUS
10
0.490079
20
-0.634528
11
0.490079
21
-0.114843
0
LINE
8
BLACK
6
CONTINUOUS
10
4.61508
20
-0.864843
11
5.13476
21
-0.864843
0
LINE
8
BLACK
6
CONTINUOUS
10
5.13476
20
-0.864843
11
5.13476
21
-1.38453
0
LINE
8
BLACK
6
CONTINUOUS
10
5.13476
20
-1.38453
11
4.61508
21
-1.38453
0
LINE
8
BLACK
6
CONTINUOUS
10
4.61508
20
-1.38453
11
4.61508
21
-0.864843
0
LINE
8
BLACK
6
CONTINUOUS
10
0.865079
20
-0.864843
11
1.38476
21
-0.864843
0
LINE
8
BLACK
6
CONTINUOUS
10
1.38476
20
-0.864843
11
1.38476
21
-1.38453
0
LINE
8
BLACK
6
CONTINUOUS
10
1.38476
20
-1.38453
11
0.865079
21
-1.38453
0
LINE
8
BLACK
6
CONTINUOUS
10
0.865079
20
-1.38453
11
0.865079
21
-0.864843
0
LINE
8
BLACK
6
CONTINUOUS
10
6.11508
20
-0.864843
11
6.63476
21
-0.864843
0
LINE
8
BLACK
6
CONTINUOUS
10
6.63476
20
-0.864843
11
6.63476
21
-1.38453
0
LINE
8
BLACK
6
CONTINUOUS
10
6.63476
20
-1.38453
11
6.11508
21
-1.38453
0
LINE
8
BLACK
6
CONTINUOUS
10
6.11508
20
-1.38453
11
6.11508
21
-0.864843
0
LINE
8
BLACK
6
CONTINUOUS
10
1.05258
20
-1.61484
11
1.57226
21
-1.61484
0
LINE
8
BLACK
6
CONTINUOUS
10
1.57226
20
-1.61484
11
1.57226
21
-2.13453
0
LINE
8
BLACK
6
CONTINUOUS
10
1.57226
20
-2.13453
11
1.05258
21
-2.13453
0
LINE
8
BLACK
6
CONTINUOUS
10
1.05258
20
-2.13453
11
1.05258
21
-1.61484
0
LINE
8
BLACK
6
CONTINUOUS
10
5.74008
20
-0.114843
11
6.25976
21
-0.114843
0
LINE
8
BLACK
6
CONTINUOUS
10
6.25976
20
-0.114843
11
6.25976
21
-0.634528
0
LINE
8
BLACK
6
CONTINUOUS
10
6.25976
20
-0.634528
11
5.74008
21
-0.634528
0
LINE
8
BLACK
6
CONTINUOUS
10
5.74008
20
-0.634528
11
5.74008
21
-0.114843
0
LINE
8
BLACK
6
CONTINUOUS
10
7.24008
20
-0.114843
11
7.75976
21
-0.114843
0
LINE
8
BLACK
6
CONTINUOUS
10
7.75976
20
-0.114843
11
7.75976
21
-0.634528
0
LINE
8
BLACK
6
CONTINUOUS
10
7.75976
20
-0.634528
11
7.24008
21
-0.634528
0
LINE
8
BLACK
6
CONTINUOUS
10
7.24008
20
-0.634528
11
7.24008
21
-0.114843
0
LINE
8
BLACK
6
CONTINUOUS
10
2.17758
20
-2.36484
11
2.69726
21
-2.36484
0
LINE
8
BLACK
6
CONTINUOUS
10
2.69726
20
-2.36484
11
2.69726
21
-2.88453
0
LINE
8
BLACK
6
CONTINUOUS
10
2.69726
20
-2.88453
11
2.17758
21
-2.88453
0
LINE
8
BLACK
6
CONTINUOUS
10
2.17758
20
-2.88453
11
2.17758
21
-2.36484
0
LINE
8
BLACK
6
CONTINUOUS
10
7.61508
20
-0.864843
11
8.13476
21
-0.864843
0
LINE
8
BLACK
6
CONTINUOUS
10
8.13476
20
-0.864843
11
8.13476
21
-1.38453
0
LINE
8
BLACK
6
CONTINUOUS
10
8.13476
20
-1.38453
11
7.61508
21
-1.38453
0
LINE
8
BLACK
6
CONTINUOUS
10
7.61508
20
-1.38453
11
7.61508
21
-0.864843
0
LINE
8
BLACK
6
CONTINUOUS
10
4.8026
20
-1.61484
11
5.32228
21
-1.61484
0
LINE
8
BLACK
6
CONTINUOUS
10
5.32228
20
-1.61484
11
5.32228
21
-2.13453
0
LINE
8
BLACK
6
CONTINUOUS
10
5.32228
20
-2.13453
11
4.8026
21
-2.13453
0
LINE
8
BLACK
6
CONTINUOUS
10
4.8026
20
-2.13453
11
4.8026
21
-1.61484
0
LINE
8
BLACK
6
CONTINUOUS
10
8.36508
20
-0.864843
11
8.88476
21
-0.864843
0
LINE
8
BLACK
6
CONTINUOUS
10
8.88476
20
-0.864843
11
8.88476
21
-1.38453
0
LINE
8
BLACK
6
CONTINUOUS
10
8.88476
20
-1.38453
11
8.36508
21
-1.38453
0
LINE
8
BLACK
6
CONTINUOUS
10
8.36508
20
-1.38453
11
8.36508
21
-0.864843
  0
ENDSEC
  0
EOF
