M48
; DRILL file {KiCad (5.1.9)-1} date 03/13/22 14:27:48
; FORMAT={-:-/ absolute / metric / decimal}
; #@! TF.CreationDate,2022-03-13T14:27:48-04:00
; #@! TF.GenerationSoftware,Kicad,Pcbnew,(5.1.9)-1
; #@! TF.FileFunction,Plated,1,2,PTH
FMAT,2
METRIC
T1C0.300
T2C0.500
T3C0.750
T4C0.762
T5C0.800
T6C0.900
T7C1.000
T8C1.100
%
G90
G05
T1
X26.986Y-110.014
X29.834Y-56.507
X30.071Y-53.27
X30.101Y-91.78
X30.38Y-61.824
X30.635Y-90.795
X30.669Y-67.945
X30.672Y-69.315
X30.688Y-65.109
X30.706Y-66.686
X30.803Y-54.345
X30.857Y-72.337
X33.421Y-61.539
X34.134Y-51.523
X35.288Y-49.679
X36.978Y-112.495
X37.156Y-52.755
X37.611Y-89.559
X40.473Y-98.826
X40.502Y-85.092
X40.645Y-86.592
X40.747Y-87.643
X40.912Y-90.543
X41.326Y-89.204
X41.403Y-55.72
X42.073Y-53.687
X42.077Y-80.576
X42.105Y-58.426
X43.012Y-51.312
X44.394Y-90.489
X44.566Y-69.26
X45.964Y-110.147
X46.468Y-116.039
X46.639Y-54.74
X47.233Y-68.54
X47.315Y-67.652
X49.322Y-91.54
X49.502Y-117.471
X49.72Y-110.957
X49.799Y-56.232
X51.154Y-65.762
X51.426Y-77.244
X52.195Y-87.272
X53.053Y-84.229
X53.473Y-54.753
X54.437Y-109.244
X55.364Y-82.176
X55.466Y-78.584
X56.653Y-52.189
X56.673Y-81.698
X56.954Y-86.505
X57.729Y-86.813
X58.381Y-115.316
X61.062Y-79.337
X62.077Y-78.972
X62.355Y-55.79
X62.422Y-95.495
X63.653Y-115.239
X66.653Y-113.023
X68.242Y-59.707
X68.829Y-51.172
X71.152Y-92.64
X75.431Y-109.545
X77.738Y-108.544
X77.78Y-69.927
X77.926Y-64.15
X77.963Y-68.8
X78.189Y-70.62
X78.409Y-65.811
X78.562Y-67.929
X79.146Y-36.235
X79.711Y-40.27
X79.957Y-36.255
X83.106Y-51.076
X83.323Y-41.337
X84.941Y-42.167
X86.378Y-64.417
X86.892Y-36.518
X86.999Y-54.847
X87.091Y-52.59
X87.525Y-43.864
X88.818Y-41.878
X90.25Y-58.347
X91.094Y-50.044
X91.907Y-60.345
X92.253Y-58.738
X92.415Y-56.162
X92.711Y-52.192
X95.409Y-53.357
X96.212Y-59.146
X96.309Y-53.998
X96.76Y-57.384
X106.892Y-74.079
X107.702Y-74.267
T2
X28.535Y-114.298
X34.091Y-59.107
X34.855Y-54.889
X35.284Y-107.315
X38.15Y-82.261
X40.189Y-64.648
X40.484Y-47.172
X41.624Y-114.715
X43.436Y-89.581
X43.819Y-74.124
X45.412Y-101.665
X47.412Y-107.369
X47.803Y-99.204
X50.817Y-46.75
X52.098Y-85.673
X59.488Y-115.591
X59.593Y-28.286
X60.516Y-108.068
X64.257Y-93.57
X68.08Y-92.11
X68.697Y-43.195
X70.416Y-43.184
X74.537Y-32.678
X79.461Y-110.661
X84.131Y-62.114
X86.635Y-48.801
X89.436Y-48.608
X94.897Y-62.145
X108.256Y-104.004
T3
X80.264Y-29.21
X81.534Y-29.21
X82.804Y-29.21
T4
X102.235Y-24.05
X102.235Y-44.05
T5
X31.0Y-28.0
X31.0Y-37.3
X34.5Y-28.0
X34.5Y-37.3
X59.449Y-56.261
X59.449Y-58.801
X59.449Y-61.341
X59.449Y-63.881
X59.449Y-66.421
X59.449Y-68.961
X59.449Y-71.501
X59.449Y-74.041
X59.449Y-76.581
X59.449Y-79.121
X59.449Y-81.661
X59.449Y-84.201
X59.449Y-86.741
X59.449Y-89.281
X59.449Y-91.821
X59.449Y-94.361
X59.449Y-96.901
X59.449Y-99.441
X59.449Y-101.981
X59.449Y-104.521
X68.072Y-24.13
X73.152Y-24.13
X74.689Y-56.261
X74.689Y-58.801
X74.689Y-61.341
X74.689Y-63.881
X74.689Y-66.421
X74.689Y-68.961
X74.689Y-71.501
X74.689Y-74.041
X74.689Y-76.581
X74.689Y-79.121
X74.689Y-81.661
X74.689Y-84.201
X74.689Y-86.741
X74.689Y-89.281
X74.689Y-91.821
X74.689Y-94.361
X74.689Y-96.901
X74.689Y-99.441
X74.689Y-101.981
X74.689Y-104.521
X78.232Y-24.13
X81.28Y-66.04
X81.28Y-68.58
X81.28Y-71.12
X81.28Y-73.66
X81.28Y-76.2
X81.28Y-78.74
X81.28Y-81.28
X81.28Y-83.82
X81.28Y-86.36
X81.28Y-88.9
X81.28Y-91.44
X81.28Y-93.98
X81.28Y-96.52
X81.28Y-99.06
X81.28Y-101.6
X81.28Y-104.14
X81.28Y-108.585
X81.28Y-116.205
X83.312Y-24.13
X83.82Y-108.585
X83.82Y-116.205
X86.36Y-108.585
X86.36Y-116.205
X88.9Y-108.585
X88.9Y-116.205
X91.44Y-108.585
X91.44Y-116.205
X93.98Y-108.585
X93.98Y-116.205
X96.52Y-66.04
X96.52Y-68.58
X96.52Y-71.12
X96.52Y-73.66
X96.52Y-76.2
X96.52Y-78.74
X96.52Y-81.28
X96.52Y-83.82
X96.52Y-86.36
X96.52Y-88.9
X96.52Y-91.44
X96.52Y-93.98
X96.52Y-96.52
X96.52Y-99.06
X96.52Y-101.6
X96.52Y-104.14
X96.52Y-108.585
X96.52Y-116.205
X99.06Y-108.585
X99.06Y-116.205
X101.6Y-66.04
X101.6Y-68.58
X101.6Y-71.12
X101.6Y-73.66
X101.6Y-76.2
X101.6Y-78.74
X101.6Y-81.28
X101.6Y-83.82
X101.6Y-86.36
X101.6Y-88.9
X101.6Y-91.44
X101.6Y-93.98
X101.6Y-96.52
X101.6Y-99.06
X101.6Y-101.6
X101.6Y-104.14
X101.6Y-108.585
X101.6Y-116.205
X104.14Y-108.585
X104.14Y-116.205
X106.68Y-108.585
X106.68Y-116.205
X109.22Y-108.585
X109.22Y-116.205
X116.84Y-66.04
X116.84Y-68.58
X116.84Y-71.12
X116.84Y-73.66
X116.84Y-76.2
X116.84Y-78.74
X116.84Y-81.28
X116.84Y-83.82
X116.84Y-86.36
X116.84Y-88.9
X116.84Y-91.44
X116.84Y-93.98
X116.84Y-96.52
X116.84Y-99.06
X116.84Y-101.6
X116.84Y-104.14
T6
X60.325Y-24.0
X62.865Y-24.0
X88.265Y-24.0
X90.805Y-24.0
X114.3Y-42.291
X116.84Y-42.291
T7
X22.54Y-30.6
X22.54Y-33.14
X22.54Y-35.68
X22.54Y-38.22
X22.54Y-45.87
X22.54Y-48.41
X22.54Y-50.95
X22.54Y-53.49
X22.54Y-56.03
X22.54Y-58.57
X22.54Y-61.11
X22.54Y-63.65
X22.54Y-66.19
X22.54Y-68.73
X22.54Y-71.27
X22.54Y-73.81
X22.54Y-76.35
X22.54Y-78.89
X22.54Y-81.43
X22.54Y-83.97
X22.54Y-86.51
X22.54Y-89.05
X22.54Y-91.59
X22.54Y-94.13
X22.54Y-101.78
X22.54Y-104.32
X22.54Y-106.86
X22.54Y-109.4
X25.08Y-30.6
X25.08Y-33.14
X25.08Y-35.68
X25.08Y-38.22
X25.08Y-45.87
X25.08Y-48.41
X25.08Y-50.95
X25.08Y-53.49
X25.08Y-56.03
X25.08Y-58.57
X25.08Y-61.11
X25.08Y-63.65
X25.08Y-66.19
X25.08Y-68.73
X25.08Y-71.27
X25.08Y-73.81
X25.08Y-76.35
X25.08Y-78.89
X25.08Y-81.43
X25.08Y-83.97
X25.08Y-86.51
X25.08Y-89.05
X25.08Y-91.59
X25.08Y-94.13
X25.08Y-101.78
X25.08Y-104.32
X25.08Y-106.86
X25.08Y-109.4
X40.5Y-22.5
X43.04Y-22.5
X45.58Y-22.5
X48.12Y-22.5
X50.66Y-22.5
X53.2Y-22.5
T8
X109.855Y-47.443
X109.855Y-51.943
X109.855Y-56.515
X109.855Y-61.015
X116.355Y-47.443
X116.355Y-51.943
X116.355Y-56.515
X116.355Y-61.015
T0
M30
