%TF.GenerationSoftware,KiCad,Pcbnew,(5.1.9)-1*%
%TF.CreationDate,2022-03-13T14:27:44-04:00*%
%TF.ProjectId,cpu2,63707532-2e6b-4696-9361-645f70636258,rev?*%
%TF.SameCoordinates,Original*%
%TF.FileFunction,Soldermask,Top*%
%TF.FilePolarity,Negative*%
%FSLAX46Y46*%
G04 Gerber Fmt 4.6, Leading zero omitted, Abs format (unit mm)*
G04 Created by KiCad (PCBNEW (5.1.9)-1) date 2022-03-13 14:27:44*
%MOMM*%
%LPD*%
G01*
G04 APERTURE LIST*
%ADD10C,1.524000*%
%ADD11O,1.700000X1.700000*%
%ADD12R,1.700000X1.700000*%
%ADD13R,0.900000X1.200000*%
%ADD14R,1.200000X0.900000*%
%ADD15R,1.050000X1.500000*%
%ADD16O,1.050000X1.500000*%
%ADD17C,1.800000*%
%ADD18R,1.800000X1.800000*%
%ADD19R,1.800000X2.000000*%
%ADD20C,3.200000*%
%ADD21C,1.600000*%
%ADD22R,1.600000X1.600000*%
%ADD23C,2.000000*%
%ADD24O,1.600000X1.600000*%
G04 APERTURE END LIST*
%TO.C,U22*%
G36*
G01*
X89940000Y-47475000D02*
X89940000Y-47775000D01*
G75*
G02*
X89790000Y-47925000I-150000J0D01*
G01*
X88140000Y-47925000D01*
G75*
G02*
X87990000Y-47775000I0J150000D01*
G01*
X87990000Y-47475000D01*
G75*
G02*
X88140000Y-47325000I150000J0D01*
G01*
X89790000Y-47325000D01*
G75*
G02*
X89940000Y-47475000I0J-150000D01*
G01*
G37*
G36*
G01*
X89940000Y-46205000D02*
X89940000Y-46505000D01*
G75*
G02*
X89790000Y-46655000I-150000J0D01*
G01*
X88140000Y-46655000D01*
G75*
G02*
X87990000Y-46505000I0J150000D01*
G01*
X87990000Y-46205000D01*
G75*
G02*
X88140000Y-46055000I150000J0D01*
G01*
X89790000Y-46055000D01*
G75*
G02*
X89940000Y-46205000I0J-150000D01*
G01*
G37*
G36*
G01*
X89940000Y-44935000D02*
X89940000Y-45235000D01*
G75*
G02*
X89790000Y-45385000I-150000J0D01*
G01*
X88140000Y-45385000D01*
G75*
G02*
X87990000Y-45235000I0J150000D01*
G01*
X87990000Y-44935000D01*
G75*
G02*
X88140000Y-44785000I150000J0D01*
G01*
X89790000Y-44785000D01*
G75*
G02*
X89940000Y-44935000I0J-150000D01*
G01*
G37*
G36*
G01*
X89940000Y-43665000D02*
X89940000Y-43965000D01*
G75*
G02*
X89790000Y-44115000I-150000J0D01*
G01*
X88140000Y-44115000D01*
G75*
G02*
X87990000Y-43965000I0J150000D01*
G01*
X87990000Y-43665000D01*
G75*
G02*
X88140000Y-43515000I150000J0D01*
G01*
X89790000Y-43515000D01*
G75*
G02*
X89940000Y-43665000I0J-150000D01*
G01*
G37*
G36*
G01*
X94890000Y-43665000D02*
X94890000Y-43965000D01*
G75*
G02*
X94740000Y-44115000I-150000J0D01*
G01*
X93090000Y-44115000D01*
G75*
G02*
X92940000Y-43965000I0J150000D01*
G01*
X92940000Y-43665000D01*
G75*
G02*
X93090000Y-43515000I150000J0D01*
G01*
X94740000Y-43515000D01*
G75*
G02*
X94890000Y-43665000I0J-150000D01*
G01*
G37*
G36*
G01*
X94890000Y-44935000D02*
X94890000Y-45235000D01*
G75*
G02*
X94740000Y-45385000I-150000J0D01*
G01*
X93090000Y-45385000D01*
G75*
G02*
X92940000Y-45235000I0J150000D01*
G01*
X92940000Y-44935000D01*
G75*
G02*
X93090000Y-44785000I150000J0D01*
G01*
X94740000Y-44785000D01*
G75*
G02*
X94890000Y-44935000I0J-150000D01*
G01*
G37*
G36*
G01*
X94890000Y-46205000D02*
X94890000Y-46505000D01*
G75*
G02*
X94740000Y-46655000I-150000J0D01*
G01*
X93090000Y-46655000D01*
G75*
G02*
X92940000Y-46505000I0J150000D01*
G01*
X92940000Y-46205000D01*
G75*
G02*
X93090000Y-46055000I150000J0D01*
G01*
X94740000Y-46055000D01*
G75*
G02*
X94890000Y-46205000I0J-150000D01*
G01*
G37*
G36*
G01*
X94890000Y-47475000D02*
X94890000Y-47775000D01*
G75*
G02*
X94740000Y-47925000I-150000J0D01*
G01*
X93090000Y-47925000D01*
G75*
G02*
X92940000Y-47775000I0J150000D01*
G01*
X92940000Y-47475000D01*
G75*
G02*
X93090000Y-47325000I150000J0D01*
G01*
X94740000Y-47325000D01*
G75*
G02*
X94890000Y-47475000I0J-150000D01*
G01*
G37*
%TD*%
D10*
%TO.C,BT1*%
X102235000Y-44050000D03*
X102235000Y-24050000D03*
%TD*%
D11*
%TO.C,J4*%
X53200000Y-22500000D03*
X50660000Y-22500000D03*
X48120000Y-22500000D03*
X45580000Y-22500000D03*
X43040000Y-22500000D03*
D12*
X40500000Y-22500000D03*
%TD*%
%TO.C,R66*%
G36*
G01*
X57842998Y-38119000D02*
X58743002Y-38119000D01*
G75*
G02*
X58993000Y-38368998I0J-249998D01*
G01*
X58993000Y-38894002D01*
G75*
G02*
X58743002Y-39144000I-249998J0D01*
G01*
X57842998Y-39144000D01*
G75*
G02*
X57593000Y-38894002I0J249998D01*
G01*
X57593000Y-38368998D01*
G75*
G02*
X57842998Y-38119000I249998J0D01*
G01*
G37*
G36*
G01*
X57842998Y-36294000D02*
X58743002Y-36294000D01*
G75*
G02*
X58993000Y-36543998I0J-249998D01*
G01*
X58993000Y-37069002D01*
G75*
G02*
X58743002Y-37319000I-249998J0D01*
G01*
X57842998Y-37319000D01*
G75*
G02*
X57593000Y-37069002I0J249998D01*
G01*
X57593000Y-36543998D01*
G75*
G02*
X57842998Y-36294000I249998J0D01*
G01*
G37*
%TD*%
%TO.C,R65*%
G36*
G01*
X62757000Y-36137002D02*
X62757000Y-35236998D01*
G75*
G02*
X63006998Y-34987000I249998J0D01*
G01*
X63532002Y-34987000D01*
G75*
G02*
X63782000Y-35236998I0J-249998D01*
G01*
X63782000Y-36137002D01*
G75*
G02*
X63532002Y-36387000I-249998J0D01*
G01*
X63006998Y-36387000D01*
G75*
G02*
X62757000Y-36137002I0J249998D01*
G01*
G37*
G36*
G01*
X60932000Y-36137002D02*
X60932000Y-35236998D01*
G75*
G02*
X61181998Y-34987000I249998J0D01*
G01*
X61707002Y-34987000D01*
G75*
G02*
X61957000Y-35236998I0J-249998D01*
G01*
X61957000Y-36137002D01*
G75*
G02*
X61707002Y-36387000I-249998J0D01*
G01*
X61181998Y-36387000D01*
G75*
G02*
X60932000Y-36137002I0J249998D01*
G01*
G37*
%TD*%
%TO.C,R64*%
G36*
G01*
X61398998Y-29610000D02*
X62299002Y-29610000D01*
G75*
G02*
X62549000Y-29859998I0J-249998D01*
G01*
X62549000Y-30385002D01*
G75*
G02*
X62299002Y-30635000I-249998J0D01*
G01*
X61398998Y-30635000D01*
G75*
G02*
X61149000Y-30385002I0J249998D01*
G01*
X61149000Y-29859998D01*
G75*
G02*
X61398998Y-29610000I249998J0D01*
G01*
G37*
G36*
G01*
X61398998Y-27785000D02*
X62299002Y-27785000D01*
G75*
G02*
X62549000Y-28034998I0J-249998D01*
G01*
X62549000Y-28560002D01*
G75*
G02*
X62299002Y-28810000I-249998J0D01*
G01*
X61398998Y-28810000D01*
G75*
G02*
X61149000Y-28560002I0J249998D01*
G01*
X61149000Y-28034998D01*
G75*
G02*
X61398998Y-27785000I249998J0D01*
G01*
G37*
%TD*%
%TO.C,R63*%
G36*
G01*
X44634998Y-37865000D02*
X45535002Y-37865000D01*
G75*
G02*
X45785000Y-38114998I0J-249998D01*
G01*
X45785000Y-38640002D01*
G75*
G02*
X45535002Y-38890000I-249998J0D01*
G01*
X44634998Y-38890000D01*
G75*
G02*
X44385000Y-38640002I0J249998D01*
G01*
X44385000Y-38114998D01*
G75*
G02*
X44634998Y-37865000I249998J0D01*
G01*
G37*
G36*
G01*
X44634998Y-36040000D02*
X45535002Y-36040000D01*
G75*
G02*
X45785000Y-36289998I0J-249998D01*
G01*
X45785000Y-36815002D01*
G75*
G02*
X45535002Y-37065000I-249998J0D01*
G01*
X44634998Y-37065000D01*
G75*
G02*
X44385000Y-36815002I0J249998D01*
G01*
X44385000Y-36289998D01*
G75*
G02*
X44634998Y-36040000I249998J0D01*
G01*
G37*
%TD*%
%TO.C,R62*%
G36*
G01*
X43415000Y-33839998D02*
X43415000Y-34740002D01*
G75*
G02*
X43165002Y-34990000I-249998J0D01*
G01*
X42639998Y-34990000D01*
G75*
G02*
X42390000Y-34740002I0J249998D01*
G01*
X42390000Y-33839998D01*
G75*
G02*
X42639998Y-33590000I249998J0D01*
G01*
X43165002Y-33590000D01*
G75*
G02*
X43415000Y-33839998I0J-249998D01*
G01*
G37*
G36*
G01*
X45240000Y-33839998D02*
X45240000Y-34740002D01*
G75*
G02*
X44990002Y-34990000I-249998J0D01*
G01*
X44464998Y-34990000D01*
G75*
G02*
X44215000Y-34740002I0J249998D01*
G01*
X44215000Y-33839998D01*
G75*
G02*
X44464998Y-33590000I249998J0D01*
G01*
X44990002Y-33590000D01*
G75*
G02*
X45240000Y-33839998I0J-249998D01*
G01*
G37*
%TD*%
%TO.C,R61*%
G36*
G01*
X41675000Y-37280002D02*
X41675000Y-36379998D01*
G75*
G02*
X41924998Y-36130000I249998J0D01*
G01*
X42450002Y-36130000D01*
G75*
G02*
X42700000Y-36379998I0J-249998D01*
G01*
X42700000Y-37280002D01*
G75*
G02*
X42450002Y-37530000I-249998J0D01*
G01*
X41924998Y-37530000D01*
G75*
G02*
X41675000Y-37280002I0J249998D01*
G01*
G37*
G36*
G01*
X39850000Y-37280002D02*
X39850000Y-36379998D01*
G75*
G02*
X40099998Y-36130000I249998J0D01*
G01*
X40625002Y-36130000D01*
G75*
G02*
X40875000Y-36379998I0J-249998D01*
G01*
X40875000Y-37280002D01*
G75*
G02*
X40625002Y-37530000I-249998J0D01*
G01*
X40099998Y-37530000D01*
G75*
G02*
X39850000Y-37280002I0J249998D01*
G01*
G37*
%TD*%
%TO.C,R60*%
G36*
G01*
X44850000Y-31565002D02*
X44850000Y-30664998D01*
G75*
G02*
X45099998Y-30415000I249998J0D01*
G01*
X45625002Y-30415000D01*
G75*
G02*
X45875000Y-30664998I0J-249998D01*
G01*
X45875000Y-31565002D01*
G75*
G02*
X45625002Y-31815000I-249998J0D01*
G01*
X45099998Y-31815000D01*
G75*
G02*
X44850000Y-31565002I0J249998D01*
G01*
G37*
G36*
G01*
X43025000Y-31565002D02*
X43025000Y-30664998D01*
G75*
G02*
X43274998Y-30415000I249998J0D01*
G01*
X43800002Y-30415000D01*
G75*
G02*
X44050000Y-30664998I0J-249998D01*
G01*
X44050000Y-31565002D01*
G75*
G02*
X43800002Y-31815000I-249998J0D01*
G01*
X43274998Y-31815000D01*
G75*
G02*
X43025000Y-31565002I0J249998D01*
G01*
G37*
%TD*%
%TO.C,R59*%
G36*
G01*
X47440002Y-26905000D02*
X46539998Y-26905000D01*
G75*
G02*
X46290000Y-26655002I0J249998D01*
G01*
X46290000Y-26129998D01*
G75*
G02*
X46539998Y-25880000I249998J0D01*
G01*
X47440002Y-25880000D01*
G75*
G02*
X47690000Y-26129998I0J-249998D01*
G01*
X47690000Y-26655002D01*
G75*
G02*
X47440002Y-26905000I-249998J0D01*
G01*
G37*
G36*
G01*
X47440002Y-28730000D02*
X46539998Y-28730000D01*
G75*
G02*
X46290000Y-28480002I0J249998D01*
G01*
X46290000Y-27954998D01*
G75*
G02*
X46539998Y-27705000I249998J0D01*
G01*
X47440002Y-27705000D01*
G75*
G02*
X47690000Y-27954998I0J-249998D01*
G01*
X47690000Y-28480002D01*
G75*
G02*
X47440002Y-28730000I-249998J0D01*
G01*
G37*
%TD*%
%TO.C,R58*%
G36*
G01*
X44634998Y-41675000D02*
X45535002Y-41675000D01*
G75*
G02*
X45785000Y-41924998I0J-249998D01*
G01*
X45785000Y-42450002D01*
G75*
G02*
X45535002Y-42700000I-249998J0D01*
G01*
X44634998Y-42700000D01*
G75*
G02*
X44385000Y-42450002I0J249998D01*
G01*
X44385000Y-41924998D01*
G75*
G02*
X44634998Y-41675000I249998J0D01*
G01*
G37*
G36*
G01*
X44634998Y-39850000D02*
X45535002Y-39850000D01*
G75*
G02*
X45785000Y-40099998I0J-249998D01*
G01*
X45785000Y-40625002D01*
G75*
G02*
X45535002Y-40875000I-249998J0D01*
G01*
X44634998Y-40875000D01*
G75*
G02*
X44385000Y-40625002I0J249998D01*
G01*
X44385000Y-40099998D01*
G75*
G02*
X44634998Y-39850000I249998J0D01*
G01*
G37*
%TD*%
%TO.C,R57*%
G36*
G01*
X57842998Y-34055000D02*
X58743002Y-34055000D01*
G75*
G02*
X58993000Y-34304998I0J-249998D01*
G01*
X58993000Y-34830002D01*
G75*
G02*
X58743002Y-35080000I-249998J0D01*
G01*
X57842998Y-35080000D01*
G75*
G02*
X57593000Y-34830002I0J249998D01*
G01*
X57593000Y-34304998D01*
G75*
G02*
X57842998Y-34055000I249998J0D01*
G01*
G37*
G36*
G01*
X57842998Y-32230000D02*
X58743002Y-32230000D01*
G75*
G02*
X58993000Y-32479998I0J-249998D01*
G01*
X58993000Y-33005002D01*
G75*
G02*
X58743002Y-33255000I-249998J0D01*
G01*
X57842998Y-33255000D01*
G75*
G02*
X57593000Y-33005002I0J249998D01*
G01*
X57593000Y-32479998D01*
G75*
G02*
X57842998Y-32230000I249998J0D01*
G01*
G37*
%TD*%
%TO.C,R56*%
G36*
G01*
X58743002Y-41510000D02*
X57842998Y-41510000D01*
G75*
G02*
X57593000Y-41260002I0J249998D01*
G01*
X57593000Y-40734998D01*
G75*
G02*
X57842998Y-40485000I249998J0D01*
G01*
X58743002Y-40485000D01*
G75*
G02*
X58993000Y-40734998I0J-249998D01*
G01*
X58993000Y-41260002D01*
G75*
G02*
X58743002Y-41510000I-249998J0D01*
G01*
G37*
G36*
G01*
X58743002Y-43335000D02*
X57842998Y-43335000D01*
G75*
G02*
X57593000Y-43085002I0J249998D01*
G01*
X57593000Y-42559998D01*
G75*
G02*
X57842998Y-42310000I249998J0D01*
G01*
X58743002Y-42310000D01*
G75*
G02*
X58993000Y-42559998I0J-249998D01*
G01*
X58993000Y-43085002D01*
G75*
G02*
X58743002Y-43335000I-249998J0D01*
G01*
G37*
%TD*%
%TO.C,R55*%
G36*
G01*
X38919998Y-33674000D02*
X39820002Y-33674000D01*
G75*
G02*
X40070000Y-33923998I0J-249998D01*
G01*
X40070000Y-34449002D01*
G75*
G02*
X39820002Y-34699000I-249998J0D01*
G01*
X38919998Y-34699000D01*
G75*
G02*
X38670000Y-34449002I0J249998D01*
G01*
X38670000Y-33923998D01*
G75*
G02*
X38919998Y-33674000I249998J0D01*
G01*
G37*
G36*
G01*
X38919998Y-31849000D02*
X39820002Y-31849000D01*
G75*
G02*
X40070000Y-32098998I0J-249998D01*
G01*
X40070000Y-32624002D01*
G75*
G02*
X39820002Y-32874000I-249998J0D01*
G01*
X38919998Y-32874000D01*
G75*
G02*
X38670000Y-32624002I0J249998D01*
G01*
X38670000Y-32098998D01*
G75*
G02*
X38919998Y-31849000I249998J0D01*
G01*
G37*
%TD*%
%TO.C,R54*%
G36*
G01*
X52470000Y-44900002D02*
X52470000Y-43999998D01*
G75*
G02*
X52719998Y-43750000I249998J0D01*
G01*
X53245002Y-43750000D01*
G75*
G02*
X53495000Y-43999998I0J-249998D01*
G01*
X53495000Y-44900002D01*
G75*
G02*
X53245002Y-45150000I-249998J0D01*
G01*
X52719998Y-45150000D01*
G75*
G02*
X52470000Y-44900002I0J249998D01*
G01*
G37*
G36*
G01*
X50645000Y-44900002D02*
X50645000Y-43999998D01*
G75*
G02*
X50894998Y-43750000I249998J0D01*
G01*
X51420002Y-43750000D01*
G75*
G02*
X51670000Y-43999998I0J-249998D01*
G01*
X51670000Y-44900002D01*
G75*
G02*
X51420002Y-45150000I-249998J0D01*
G01*
X50894998Y-45150000D01*
G75*
G02*
X50645000Y-44900002I0J249998D01*
G01*
G37*
%TD*%
%TO.C,R53*%
G36*
G01*
X43884002Y-26524000D02*
X42983998Y-26524000D01*
G75*
G02*
X42734000Y-26274002I0J249998D01*
G01*
X42734000Y-25748998D01*
G75*
G02*
X42983998Y-25499000I249998J0D01*
G01*
X43884002Y-25499000D01*
G75*
G02*
X44134000Y-25748998I0J-249998D01*
G01*
X44134000Y-26274002D01*
G75*
G02*
X43884002Y-26524000I-249998J0D01*
G01*
G37*
G36*
G01*
X43884002Y-28349000D02*
X42983998Y-28349000D01*
G75*
G02*
X42734000Y-28099002I0J249998D01*
G01*
X42734000Y-27573998D01*
G75*
G02*
X42983998Y-27324000I249998J0D01*
G01*
X43884002Y-27324000D01*
G75*
G02*
X44134000Y-27573998I0J-249998D01*
G01*
X44134000Y-28099002D01*
G75*
G02*
X43884002Y-28349000I-249998J0D01*
G01*
G37*
%TD*%
D13*
%TO.C,D13*%
X47370000Y-44450000D03*
X44070000Y-44450000D03*
%TD*%
D14*
%TO.C,D12*%
X65278000Y-41782000D03*
X65278000Y-38482000D03*
%TD*%
%TO.C,D11*%
X62230000Y-38482000D03*
X62230000Y-41782000D03*
%TD*%
%TO.C,C26*%
G36*
G01*
X66515000Y-34221000D02*
X65565000Y-34221000D01*
G75*
G02*
X65315000Y-33971000I0J250000D01*
G01*
X65315000Y-33471000D01*
G75*
G02*
X65565000Y-33221000I250000J0D01*
G01*
X66515000Y-33221000D01*
G75*
G02*
X66765000Y-33471000I0J-250000D01*
G01*
X66765000Y-33971000D01*
G75*
G02*
X66515000Y-34221000I-250000J0D01*
G01*
G37*
G36*
G01*
X66515000Y-36121000D02*
X65565000Y-36121000D01*
G75*
G02*
X65315000Y-35871000I0J250000D01*
G01*
X65315000Y-35371000D01*
G75*
G02*
X65565000Y-35121000I250000J0D01*
G01*
X66515000Y-35121000D01*
G75*
G02*
X66765000Y-35371000I0J-250000D01*
G01*
X66765000Y-35871000D01*
G75*
G02*
X66515000Y-36121000I-250000J0D01*
G01*
G37*
%TD*%
%TO.C,C25*%
G36*
G01*
X62807000Y-33495000D02*
X62807000Y-32545000D01*
G75*
G02*
X63057000Y-32295000I250000J0D01*
G01*
X63557000Y-32295000D01*
G75*
G02*
X63807000Y-32545000I0J-250000D01*
G01*
X63807000Y-33495000D01*
G75*
G02*
X63557000Y-33745000I-250000J0D01*
G01*
X63057000Y-33745000D01*
G75*
G02*
X62807000Y-33495000I0J250000D01*
G01*
G37*
G36*
G01*
X60907000Y-33495000D02*
X60907000Y-32545000D01*
G75*
G02*
X61157000Y-32295000I250000J0D01*
G01*
X61657000Y-32295000D01*
G75*
G02*
X61907000Y-32545000I0J-250000D01*
G01*
X61907000Y-33495000D01*
G75*
G02*
X61657000Y-33745000I-250000J0D01*
G01*
X61157000Y-33745000D01*
G75*
G02*
X60907000Y-33495000I0J250000D01*
G01*
G37*
%TD*%
%TO.C,C24*%
G36*
G01*
X41090000Y-30447000D02*
X41090000Y-29497000D01*
G75*
G02*
X41340000Y-29247000I250000J0D01*
G01*
X41840000Y-29247000D01*
G75*
G02*
X42090000Y-29497000I0J-250000D01*
G01*
X42090000Y-30447000D01*
G75*
G02*
X41840000Y-30697000I-250000J0D01*
G01*
X41340000Y-30697000D01*
G75*
G02*
X41090000Y-30447000I0J250000D01*
G01*
G37*
G36*
G01*
X39190000Y-30447000D02*
X39190000Y-29497000D01*
G75*
G02*
X39440000Y-29247000I250000J0D01*
G01*
X39940000Y-29247000D01*
G75*
G02*
X40190000Y-29497000I0J-250000D01*
G01*
X40190000Y-30447000D01*
G75*
G02*
X39940000Y-30697000I-250000J0D01*
G01*
X39440000Y-30697000D01*
G75*
G02*
X39190000Y-30447000I0J250000D01*
G01*
G37*
%TD*%
%TO.C,C23*%
G36*
G01*
X40480000Y-25585000D02*
X39530000Y-25585000D01*
G75*
G02*
X39280000Y-25335000I0J250000D01*
G01*
X39280000Y-24835000D01*
G75*
G02*
X39530000Y-24585000I250000J0D01*
G01*
X40480000Y-24585000D01*
G75*
G02*
X40730000Y-24835000I0J-250000D01*
G01*
X40730000Y-25335000D01*
G75*
G02*
X40480000Y-25585000I-250000J0D01*
G01*
G37*
G36*
G01*
X40480000Y-27485000D02*
X39530000Y-27485000D01*
G75*
G02*
X39280000Y-27235000I0J250000D01*
G01*
X39280000Y-26735000D01*
G75*
G02*
X39530000Y-26485000I250000J0D01*
G01*
X40480000Y-26485000D01*
G75*
G02*
X40730000Y-26735000I0J-250000D01*
G01*
X40730000Y-27235000D01*
G75*
G02*
X40480000Y-27485000I-250000J0D01*
G01*
G37*
%TD*%
D10*
%TO.C,U21*%
X83312000Y-24130000D03*
X68072000Y-24130000D03*
X73152000Y-24130000D03*
X78232000Y-24130000D03*
%TD*%
%TO.C,U20*%
G36*
G01*
X82781000Y-38076000D02*
X83081000Y-38076000D01*
G75*
G02*
X83231000Y-38226000I0J-150000D01*
G01*
X83231000Y-39876000D01*
G75*
G02*
X83081000Y-40026000I-150000J0D01*
G01*
X82781000Y-40026000D01*
G75*
G02*
X82631000Y-39876000I0J150000D01*
G01*
X82631000Y-38226000D01*
G75*
G02*
X82781000Y-38076000I150000J0D01*
G01*
G37*
G36*
G01*
X81511000Y-38076000D02*
X81811000Y-38076000D01*
G75*
G02*
X81961000Y-38226000I0J-150000D01*
G01*
X81961000Y-39876000D01*
G75*
G02*
X81811000Y-40026000I-150000J0D01*
G01*
X81511000Y-40026000D01*
G75*
G02*
X81361000Y-39876000I0J150000D01*
G01*
X81361000Y-38226000D01*
G75*
G02*
X81511000Y-38076000I150000J0D01*
G01*
G37*
G36*
G01*
X80241000Y-38076000D02*
X80541000Y-38076000D01*
G75*
G02*
X80691000Y-38226000I0J-150000D01*
G01*
X80691000Y-39876000D01*
G75*
G02*
X80541000Y-40026000I-150000J0D01*
G01*
X80241000Y-40026000D01*
G75*
G02*
X80091000Y-39876000I0J150000D01*
G01*
X80091000Y-38226000D01*
G75*
G02*
X80241000Y-38076000I150000J0D01*
G01*
G37*
G36*
G01*
X78971000Y-38076000D02*
X79271000Y-38076000D01*
G75*
G02*
X79421000Y-38226000I0J-150000D01*
G01*
X79421000Y-39876000D01*
G75*
G02*
X79271000Y-40026000I-150000J0D01*
G01*
X78971000Y-40026000D01*
G75*
G02*
X78821000Y-39876000I0J150000D01*
G01*
X78821000Y-38226000D01*
G75*
G02*
X78971000Y-38076000I150000J0D01*
G01*
G37*
G36*
G01*
X77701000Y-38076000D02*
X78001000Y-38076000D01*
G75*
G02*
X78151000Y-38226000I0J-150000D01*
G01*
X78151000Y-39876000D01*
G75*
G02*
X78001000Y-40026000I-150000J0D01*
G01*
X77701000Y-40026000D01*
G75*
G02*
X77551000Y-39876000I0J150000D01*
G01*
X77551000Y-38226000D01*
G75*
G02*
X77701000Y-38076000I150000J0D01*
G01*
G37*
G36*
G01*
X76431000Y-38076000D02*
X76731000Y-38076000D01*
G75*
G02*
X76881000Y-38226000I0J-150000D01*
G01*
X76881000Y-39876000D01*
G75*
G02*
X76731000Y-40026000I-150000J0D01*
G01*
X76431000Y-40026000D01*
G75*
G02*
X76281000Y-39876000I0J150000D01*
G01*
X76281000Y-38226000D01*
G75*
G02*
X76431000Y-38076000I150000J0D01*
G01*
G37*
G36*
G01*
X75161000Y-38076000D02*
X75461000Y-38076000D01*
G75*
G02*
X75611000Y-38226000I0J-150000D01*
G01*
X75611000Y-39876000D01*
G75*
G02*
X75461000Y-40026000I-150000J0D01*
G01*
X75161000Y-40026000D01*
G75*
G02*
X75011000Y-39876000I0J150000D01*
G01*
X75011000Y-38226000D01*
G75*
G02*
X75161000Y-38076000I150000J0D01*
G01*
G37*
G36*
G01*
X73891000Y-38076000D02*
X74191000Y-38076000D01*
G75*
G02*
X74341000Y-38226000I0J-150000D01*
G01*
X74341000Y-39876000D01*
G75*
G02*
X74191000Y-40026000I-150000J0D01*
G01*
X73891000Y-40026000D01*
G75*
G02*
X73741000Y-39876000I0J150000D01*
G01*
X73741000Y-38226000D01*
G75*
G02*
X73891000Y-38076000I150000J0D01*
G01*
G37*
G36*
G01*
X73891000Y-33126000D02*
X74191000Y-33126000D01*
G75*
G02*
X74341000Y-33276000I0J-150000D01*
G01*
X74341000Y-34926000D01*
G75*
G02*
X74191000Y-35076000I-150000J0D01*
G01*
X73891000Y-35076000D01*
G75*
G02*
X73741000Y-34926000I0J150000D01*
G01*
X73741000Y-33276000D01*
G75*
G02*
X73891000Y-33126000I150000J0D01*
G01*
G37*
G36*
G01*
X75161000Y-33126000D02*
X75461000Y-33126000D01*
G75*
G02*
X75611000Y-33276000I0J-150000D01*
G01*
X75611000Y-34926000D01*
G75*
G02*
X75461000Y-35076000I-150000J0D01*
G01*
X75161000Y-35076000D01*
G75*
G02*
X75011000Y-34926000I0J150000D01*
G01*
X75011000Y-33276000D01*
G75*
G02*
X75161000Y-33126000I150000J0D01*
G01*
G37*
G36*
G01*
X76431000Y-33126000D02*
X76731000Y-33126000D01*
G75*
G02*
X76881000Y-33276000I0J-150000D01*
G01*
X76881000Y-34926000D01*
G75*
G02*
X76731000Y-35076000I-150000J0D01*
G01*
X76431000Y-35076000D01*
G75*
G02*
X76281000Y-34926000I0J150000D01*
G01*
X76281000Y-33276000D01*
G75*
G02*
X76431000Y-33126000I150000J0D01*
G01*
G37*
G36*
G01*
X77701000Y-33126000D02*
X78001000Y-33126000D01*
G75*
G02*
X78151000Y-33276000I0J-150000D01*
G01*
X78151000Y-34926000D01*
G75*
G02*
X78001000Y-35076000I-150000J0D01*
G01*
X77701000Y-35076000D01*
G75*
G02*
X77551000Y-34926000I0J150000D01*
G01*
X77551000Y-33276000D01*
G75*
G02*
X77701000Y-33126000I150000J0D01*
G01*
G37*
G36*
G01*
X78971000Y-33126000D02*
X79271000Y-33126000D01*
G75*
G02*
X79421000Y-33276000I0J-150000D01*
G01*
X79421000Y-34926000D01*
G75*
G02*
X79271000Y-35076000I-150000J0D01*
G01*
X78971000Y-35076000D01*
G75*
G02*
X78821000Y-34926000I0J150000D01*
G01*
X78821000Y-33276000D01*
G75*
G02*
X78971000Y-33126000I150000J0D01*
G01*
G37*
G36*
G01*
X80241000Y-33126000D02*
X80541000Y-33126000D01*
G75*
G02*
X80691000Y-33276000I0J-150000D01*
G01*
X80691000Y-34926000D01*
G75*
G02*
X80541000Y-35076000I-150000J0D01*
G01*
X80241000Y-35076000D01*
G75*
G02*
X80091000Y-34926000I0J150000D01*
G01*
X80091000Y-33276000D01*
G75*
G02*
X80241000Y-33126000I150000J0D01*
G01*
G37*
G36*
G01*
X81511000Y-33126000D02*
X81811000Y-33126000D01*
G75*
G02*
X81961000Y-33276000I0J-150000D01*
G01*
X81961000Y-34926000D01*
G75*
G02*
X81811000Y-35076000I-150000J0D01*
G01*
X81511000Y-35076000D01*
G75*
G02*
X81361000Y-34926000I0J150000D01*
G01*
X81361000Y-33276000D01*
G75*
G02*
X81511000Y-33126000I150000J0D01*
G01*
G37*
G36*
G01*
X82781000Y-33126000D02*
X83081000Y-33126000D01*
G75*
G02*
X83231000Y-33276000I0J-150000D01*
G01*
X83231000Y-34926000D01*
G75*
G02*
X83081000Y-35076000I-150000J0D01*
G01*
X82781000Y-35076000D01*
G75*
G02*
X82631000Y-34926000I0J150000D01*
G01*
X82631000Y-33276000D01*
G75*
G02*
X82781000Y-33126000I150000J0D01*
G01*
G37*
%TD*%
%TO.C,R52*%
G36*
G01*
X57385000Y-28759998D02*
X57385000Y-29660002D01*
G75*
G02*
X57135002Y-29910000I-249998J0D01*
G01*
X56609998Y-29910000D01*
G75*
G02*
X56360000Y-29660002I0J249998D01*
G01*
X56360000Y-28759998D01*
G75*
G02*
X56609998Y-28510000I249998J0D01*
G01*
X57135002Y-28510000D01*
G75*
G02*
X57385000Y-28759998I0J-249998D01*
G01*
G37*
G36*
G01*
X59210000Y-28759998D02*
X59210000Y-29660002D01*
G75*
G02*
X58960002Y-29910000I-249998J0D01*
G01*
X58434998Y-29910000D01*
G75*
G02*
X58185000Y-29660002I0J249998D01*
G01*
X58185000Y-28759998D01*
G75*
G02*
X58434998Y-28510000I249998J0D01*
G01*
X58960002Y-28510000D01*
G75*
G02*
X59210000Y-28759998I0J-249998D01*
G01*
G37*
%TD*%
%TO.C,R51*%
G36*
G01*
X74314000Y-28898002D02*
X74314000Y-27997998D01*
G75*
G02*
X74563998Y-27748000I249998J0D01*
G01*
X75089002Y-27748000D01*
G75*
G02*
X75339000Y-27997998I0J-249998D01*
G01*
X75339000Y-28898002D01*
G75*
G02*
X75089002Y-29148000I-249998J0D01*
G01*
X74563998Y-29148000D01*
G75*
G02*
X74314000Y-28898002I0J249998D01*
G01*
G37*
G36*
G01*
X72489000Y-28898002D02*
X72489000Y-27997998D01*
G75*
G02*
X72738998Y-27748000I249998J0D01*
G01*
X73264002Y-27748000D01*
G75*
G02*
X73514000Y-27997998I0J-249998D01*
G01*
X73514000Y-28898002D01*
G75*
G02*
X73264002Y-29148000I-249998J0D01*
G01*
X72738998Y-29148000D01*
G75*
G02*
X72489000Y-28898002I0J249998D01*
G01*
G37*
%TD*%
%TO.C,R50*%
G36*
G01*
X71012000Y-31184002D02*
X71012000Y-30283998D01*
G75*
G02*
X71261998Y-30034000I249998J0D01*
G01*
X71787002Y-30034000D01*
G75*
G02*
X72037000Y-30283998I0J-249998D01*
G01*
X72037000Y-31184002D01*
G75*
G02*
X71787002Y-31434000I-249998J0D01*
G01*
X71261998Y-31434000D01*
G75*
G02*
X71012000Y-31184002I0J249998D01*
G01*
G37*
G36*
G01*
X69187000Y-31184002D02*
X69187000Y-30283998D01*
G75*
G02*
X69436998Y-30034000I249998J0D01*
G01*
X69962002Y-30034000D01*
G75*
G02*
X70212000Y-30283998I0J-249998D01*
G01*
X70212000Y-31184002D01*
G75*
G02*
X69962002Y-31434000I-249998J0D01*
G01*
X69436998Y-31434000D01*
G75*
G02*
X69187000Y-31184002I0J249998D01*
G01*
G37*
%TD*%
%TO.C,R49*%
G36*
G01*
X73514000Y-30283998D02*
X73514000Y-31184002D01*
G75*
G02*
X73264002Y-31434000I-249998J0D01*
G01*
X72738998Y-31434000D01*
G75*
G02*
X72489000Y-31184002I0J249998D01*
G01*
X72489000Y-30283998D01*
G75*
G02*
X72738998Y-30034000I249998J0D01*
G01*
X73264002Y-30034000D01*
G75*
G02*
X73514000Y-30283998I0J-249998D01*
G01*
G37*
G36*
G01*
X75339000Y-30283998D02*
X75339000Y-31184002D01*
G75*
G02*
X75089002Y-31434000I-249998J0D01*
G01*
X74563998Y-31434000D01*
G75*
G02*
X74314000Y-31184002I0J249998D01*
G01*
X74314000Y-30283998D01*
G75*
G02*
X74563998Y-30034000I249998J0D01*
G01*
X75089002Y-30034000D01*
G75*
G02*
X75339000Y-30283998I0J-249998D01*
G01*
G37*
%TD*%
%TO.C,R48*%
G36*
G01*
X84893998Y-34690000D02*
X85794002Y-34690000D01*
G75*
G02*
X86044000Y-34939998I0J-249998D01*
G01*
X86044000Y-35465002D01*
G75*
G02*
X85794002Y-35715000I-249998J0D01*
G01*
X84893998Y-35715000D01*
G75*
G02*
X84644000Y-35465002I0J249998D01*
G01*
X84644000Y-34939998D01*
G75*
G02*
X84893998Y-34690000I249998J0D01*
G01*
G37*
G36*
G01*
X84893998Y-32865000D02*
X85794002Y-32865000D01*
G75*
G02*
X86044000Y-33114998I0J-249998D01*
G01*
X86044000Y-33640002D01*
G75*
G02*
X85794002Y-33890000I-249998J0D01*
G01*
X84893998Y-33890000D01*
G75*
G02*
X84644000Y-33640002I0J249998D01*
G01*
X84644000Y-33114998D01*
G75*
G02*
X84893998Y-32865000I249998J0D01*
G01*
G37*
%TD*%
%TO.C,R47*%
G36*
G01*
X76816000Y-30283998D02*
X76816000Y-31184002D01*
G75*
G02*
X76566002Y-31434000I-249998J0D01*
G01*
X76040998Y-31434000D01*
G75*
G02*
X75791000Y-31184002I0J249998D01*
G01*
X75791000Y-30283998D01*
G75*
G02*
X76040998Y-30034000I249998J0D01*
G01*
X76566002Y-30034000D01*
G75*
G02*
X76816000Y-30283998I0J-249998D01*
G01*
G37*
G36*
G01*
X78641000Y-30283998D02*
X78641000Y-31184002D01*
G75*
G02*
X78391002Y-31434000I-249998J0D01*
G01*
X77865998Y-31434000D01*
G75*
G02*
X77616000Y-31184002I0J249998D01*
G01*
X77616000Y-30283998D01*
G75*
G02*
X77865998Y-30034000I249998J0D01*
G01*
X78391002Y-30034000D01*
G75*
G02*
X78641000Y-30283998I0J-249998D01*
G01*
G37*
%TD*%
%TO.C,R45*%
G36*
G01*
X84893998Y-38500000D02*
X85794002Y-38500000D01*
G75*
G02*
X86044000Y-38749998I0J-249998D01*
G01*
X86044000Y-39275002D01*
G75*
G02*
X85794002Y-39525000I-249998J0D01*
G01*
X84893998Y-39525000D01*
G75*
G02*
X84644000Y-39275002I0J249998D01*
G01*
X84644000Y-38749998D01*
G75*
G02*
X84893998Y-38500000I249998J0D01*
G01*
G37*
G36*
G01*
X84893998Y-36675000D02*
X85794002Y-36675000D01*
G75*
G02*
X86044000Y-36924998I0J-249998D01*
G01*
X86044000Y-37450002D01*
G75*
G02*
X85794002Y-37700000I-249998J0D01*
G01*
X84893998Y-37700000D01*
G75*
G02*
X84644000Y-37450002I0J249998D01*
G01*
X84644000Y-36924998D01*
G75*
G02*
X84893998Y-36675000I249998J0D01*
G01*
G37*
%TD*%
D15*
%TO.C,Q1*%
X82804000Y-29210000D03*
D16*
X80264000Y-29210000D03*
X81534000Y-29210000D03*
%TD*%
D14*
%TO.C,D10*%
X40640000Y-39625000D03*
X40640000Y-42925000D03*
%TD*%
D17*
%TO.C,D8*%
X90805000Y-24000000D03*
D18*
X88265000Y-24000000D03*
%TD*%
%TO.C,C22*%
G36*
G01*
X52620000Y-28002000D02*
X51520000Y-28002000D01*
G75*
G02*
X51270000Y-27752000I0J250000D01*
G01*
X51270000Y-25252000D01*
G75*
G02*
X51520000Y-25002000I250000J0D01*
G01*
X52620000Y-25002000D01*
G75*
G02*
X52870000Y-25252000I0J-250000D01*
G01*
X52870000Y-27752000D01*
G75*
G02*
X52620000Y-28002000I-250000J0D01*
G01*
G37*
G36*
G01*
X52620000Y-32402000D02*
X51520000Y-32402000D01*
G75*
G02*
X51270000Y-32152000I0J250000D01*
G01*
X51270000Y-29652000D01*
G75*
G02*
X51520000Y-29402000I250000J0D01*
G01*
X52620000Y-29402000D01*
G75*
G02*
X52870000Y-29652000I0J-250000D01*
G01*
X52870000Y-32152000D01*
G75*
G02*
X52620000Y-32402000I-250000J0D01*
G01*
G37*
%TD*%
%TO.C,U19*%
G36*
G01*
X49760000Y-85240000D02*
X49760000Y-84940000D01*
G75*
G02*
X49910000Y-84790000I150000J0D01*
G01*
X51560000Y-84790000D01*
G75*
G02*
X51710000Y-84940000I0J-150000D01*
G01*
X51710000Y-85240000D01*
G75*
G02*
X51560000Y-85390000I-150000J0D01*
G01*
X49910000Y-85390000D01*
G75*
G02*
X49760000Y-85240000I0J150000D01*
G01*
G37*
G36*
G01*
X49760000Y-86510000D02*
X49760000Y-86210000D01*
G75*
G02*
X49910000Y-86060000I150000J0D01*
G01*
X51560000Y-86060000D01*
G75*
G02*
X51710000Y-86210000I0J-150000D01*
G01*
X51710000Y-86510000D01*
G75*
G02*
X51560000Y-86660000I-150000J0D01*
G01*
X49910000Y-86660000D01*
G75*
G02*
X49760000Y-86510000I0J150000D01*
G01*
G37*
G36*
G01*
X49760000Y-87780000D02*
X49760000Y-87480000D01*
G75*
G02*
X49910000Y-87330000I150000J0D01*
G01*
X51560000Y-87330000D01*
G75*
G02*
X51710000Y-87480000I0J-150000D01*
G01*
X51710000Y-87780000D01*
G75*
G02*
X51560000Y-87930000I-150000J0D01*
G01*
X49910000Y-87930000D01*
G75*
G02*
X49760000Y-87780000I0J150000D01*
G01*
G37*
G36*
G01*
X49760000Y-89050000D02*
X49760000Y-88750000D01*
G75*
G02*
X49910000Y-88600000I150000J0D01*
G01*
X51560000Y-88600000D01*
G75*
G02*
X51710000Y-88750000I0J-150000D01*
G01*
X51710000Y-89050000D01*
G75*
G02*
X51560000Y-89200000I-150000J0D01*
G01*
X49910000Y-89200000D01*
G75*
G02*
X49760000Y-89050000I0J150000D01*
G01*
G37*
G36*
G01*
X49760000Y-90320000D02*
X49760000Y-90020000D01*
G75*
G02*
X49910000Y-89870000I150000J0D01*
G01*
X51560000Y-89870000D01*
G75*
G02*
X51710000Y-90020000I0J-150000D01*
G01*
X51710000Y-90320000D01*
G75*
G02*
X51560000Y-90470000I-150000J0D01*
G01*
X49910000Y-90470000D01*
G75*
G02*
X49760000Y-90320000I0J150000D01*
G01*
G37*
G36*
G01*
X49760000Y-91590000D02*
X49760000Y-91290000D01*
G75*
G02*
X49910000Y-91140000I150000J0D01*
G01*
X51560000Y-91140000D01*
G75*
G02*
X51710000Y-91290000I0J-150000D01*
G01*
X51710000Y-91590000D01*
G75*
G02*
X51560000Y-91740000I-150000J0D01*
G01*
X49910000Y-91740000D01*
G75*
G02*
X49760000Y-91590000I0J150000D01*
G01*
G37*
G36*
G01*
X49760000Y-92860000D02*
X49760000Y-92560000D01*
G75*
G02*
X49910000Y-92410000I150000J0D01*
G01*
X51560000Y-92410000D01*
G75*
G02*
X51710000Y-92560000I0J-150000D01*
G01*
X51710000Y-92860000D01*
G75*
G02*
X51560000Y-93010000I-150000J0D01*
G01*
X49910000Y-93010000D01*
G75*
G02*
X49760000Y-92860000I0J150000D01*
G01*
G37*
G36*
G01*
X44810000Y-92860000D02*
X44810000Y-92560000D01*
G75*
G02*
X44960000Y-92410000I150000J0D01*
G01*
X46610000Y-92410000D01*
G75*
G02*
X46760000Y-92560000I0J-150000D01*
G01*
X46760000Y-92860000D01*
G75*
G02*
X46610000Y-93010000I-150000J0D01*
G01*
X44960000Y-93010000D01*
G75*
G02*
X44810000Y-92860000I0J150000D01*
G01*
G37*
G36*
G01*
X44810000Y-91590000D02*
X44810000Y-91290000D01*
G75*
G02*
X44960000Y-91140000I150000J0D01*
G01*
X46610000Y-91140000D01*
G75*
G02*
X46760000Y-91290000I0J-150000D01*
G01*
X46760000Y-91590000D01*
G75*
G02*
X46610000Y-91740000I-150000J0D01*
G01*
X44960000Y-91740000D01*
G75*
G02*
X44810000Y-91590000I0J150000D01*
G01*
G37*
G36*
G01*
X44810000Y-90320000D02*
X44810000Y-90020000D01*
G75*
G02*
X44960000Y-89870000I150000J0D01*
G01*
X46610000Y-89870000D01*
G75*
G02*
X46760000Y-90020000I0J-150000D01*
G01*
X46760000Y-90320000D01*
G75*
G02*
X46610000Y-90470000I-150000J0D01*
G01*
X44960000Y-90470000D01*
G75*
G02*
X44810000Y-90320000I0J150000D01*
G01*
G37*
G36*
G01*
X44810000Y-89050000D02*
X44810000Y-88750000D01*
G75*
G02*
X44960000Y-88600000I150000J0D01*
G01*
X46610000Y-88600000D01*
G75*
G02*
X46760000Y-88750000I0J-150000D01*
G01*
X46760000Y-89050000D01*
G75*
G02*
X46610000Y-89200000I-150000J0D01*
G01*
X44960000Y-89200000D01*
G75*
G02*
X44810000Y-89050000I0J150000D01*
G01*
G37*
G36*
G01*
X44810000Y-87780000D02*
X44810000Y-87480000D01*
G75*
G02*
X44960000Y-87330000I150000J0D01*
G01*
X46610000Y-87330000D01*
G75*
G02*
X46760000Y-87480000I0J-150000D01*
G01*
X46760000Y-87780000D01*
G75*
G02*
X46610000Y-87930000I-150000J0D01*
G01*
X44960000Y-87930000D01*
G75*
G02*
X44810000Y-87780000I0J150000D01*
G01*
G37*
G36*
G01*
X44810000Y-86510000D02*
X44810000Y-86210000D01*
G75*
G02*
X44960000Y-86060000I150000J0D01*
G01*
X46610000Y-86060000D01*
G75*
G02*
X46760000Y-86210000I0J-150000D01*
G01*
X46760000Y-86510000D01*
G75*
G02*
X46610000Y-86660000I-150000J0D01*
G01*
X44960000Y-86660000D01*
G75*
G02*
X44810000Y-86510000I0J150000D01*
G01*
G37*
G36*
G01*
X44810000Y-85240000D02*
X44810000Y-84940000D01*
G75*
G02*
X44960000Y-84790000I150000J0D01*
G01*
X46610000Y-84790000D01*
G75*
G02*
X46760000Y-84940000I0J-150000D01*
G01*
X46760000Y-85240000D01*
G75*
G02*
X46610000Y-85390000I-150000J0D01*
G01*
X44960000Y-85390000D01*
G75*
G02*
X44810000Y-85240000I0J150000D01*
G01*
G37*
%TD*%
%TO.C,U18*%
G36*
G01*
X59920000Y-109370000D02*
X59920000Y-109070000D01*
G75*
G02*
X60070000Y-108920000I150000J0D01*
G01*
X61720000Y-108920000D01*
G75*
G02*
X61870000Y-109070000I0J-150000D01*
G01*
X61870000Y-109370000D01*
G75*
G02*
X61720000Y-109520000I-150000J0D01*
G01*
X60070000Y-109520000D01*
G75*
G02*
X59920000Y-109370000I0J150000D01*
G01*
G37*
G36*
G01*
X59920000Y-110640000D02*
X59920000Y-110340000D01*
G75*
G02*
X60070000Y-110190000I150000J0D01*
G01*
X61720000Y-110190000D01*
G75*
G02*
X61870000Y-110340000I0J-150000D01*
G01*
X61870000Y-110640000D01*
G75*
G02*
X61720000Y-110790000I-150000J0D01*
G01*
X60070000Y-110790000D01*
G75*
G02*
X59920000Y-110640000I0J150000D01*
G01*
G37*
G36*
G01*
X59920000Y-111910000D02*
X59920000Y-111610000D01*
G75*
G02*
X60070000Y-111460000I150000J0D01*
G01*
X61720000Y-111460000D01*
G75*
G02*
X61870000Y-111610000I0J-150000D01*
G01*
X61870000Y-111910000D01*
G75*
G02*
X61720000Y-112060000I-150000J0D01*
G01*
X60070000Y-112060000D01*
G75*
G02*
X59920000Y-111910000I0J150000D01*
G01*
G37*
G36*
G01*
X59920000Y-113180000D02*
X59920000Y-112880000D01*
G75*
G02*
X60070000Y-112730000I150000J0D01*
G01*
X61720000Y-112730000D01*
G75*
G02*
X61870000Y-112880000I0J-150000D01*
G01*
X61870000Y-113180000D01*
G75*
G02*
X61720000Y-113330000I-150000J0D01*
G01*
X60070000Y-113330000D01*
G75*
G02*
X59920000Y-113180000I0J150000D01*
G01*
G37*
G36*
G01*
X59920000Y-114450000D02*
X59920000Y-114150000D01*
G75*
G02*
X60070000Y-114000000I150000J0D01*
G01*
X61720000Y-114000000D01*
G75*
G02*
X61870000Y-114150000I0J-150000D01*
G01*
X61870000Y-114450000D01*
G75*
G02*
X61720000Y-114600000I-150000J0D01*
G01*
X60070000Y-114600000D01*
G75*
G02*
X59920000Y-114450000I0J150000D01*
G01*
G37*
G36*
G01*
X59920000Y-115720000D02*
X59920000Y-115420000D01*
G75*
G02*
X60070000Y-115270000I150000J0D01*
G01*
X61720000Y-115270000D01*
G75*
G02*
X61870000Y-115420000I0J-150000D01*
G01*
X61870000Y-115720000D01*
G75*
G02*
X61720000Y-115870000I-150000J0D01*
G01*
X60070000Y-115870000D01*
G75*
G02*
X59920000Y-115720000I0J150000D01*
G01*
G37*
G36*
G01*
X59920000Y-116990000D02*
X59920000Y-116690000D01*
G75*
G02*
X60070000Y-116540000I150000J0D01*
G01*
X61720000Y-116540000D01*
G75*
G02*
X61870000Y-116690000I0J-150000D01*
G01*
X61870000Y-116990000D01*
G75*
G02*
X61720000Y-117140000I-150000J0D01*
G01*
X60070000Y-117140000D01*
G75*
G02*
X59920000Y-116990000I0J150000D01*
G01*
G37*
G36*
G01*
X54970000Y-116990000D02*
X54970000Y-116690000D01*
G75*
G02*
X55120000Y-116540000I150000J0D01*
G01*
X56770000Y-116540000D01*
G75*
G02*
X56920000Y-116690000I0J-150000D01*
G01*
X56920000Y-116990000D01*
G75*
G02*
X56770000Y-117140000I-150000J0D01*
G01*
X55120000Y-117140000D01*
G75*
G02*
X54970000Y-116990000I0J150000D01*
G01*
G37*
G36*
G01*
X54970000Y-115720000D02*
X54970000Y-115420000D01*
G75*
G02*
X55120000Y-115270000I150000J0D01*
G01*
X56770000Y-115270000D01*
G75*
G02*
X56920000Y-115420000I0J-150000D01*
G01*
X56920000Y-115720000D01*
G75*
G02*
X56770000Y-115870000I-150000J0D01*
G01*
X55120000Y-115870000D01*
G75*
G02*
X54970000Y-115720000I0J150000D01*
G01*
G37*
G36*
G01*
X54970000Y-114450000D02*
X54970000Y-114150000D01*
G75*
G02*
X55120000Y-114000000I150000J0D01*
G01*
X56770000Y-114000000D01*
G75*
G02*
X56920000Y-114150000I0J-150000D01*
G01*
X56920000Y-114450000D01*
G75*
G02*
X56770000Y-114600000I-150000J0D01*
G01*
X55120000Y-114600000D01*
G75*
G02*
X54970000Y-114450000I0J150000D01*
G01*
G37*
G36*
G01*
X54970000Y-113180000D02*
X54970000Y-112880000D01*
G75*
G02*
X55120000Y-112730000I150000J0D01*
G01*
X56770000Y-112730000D01*
G75*
G02*
X56920000Y-112880000I0J-150000D01*
G01*
X56920000Y-113180000D01*
G75*
G02*
X56770000Y-113330000I-150000J0D01*
G01*
X55120000Y-113330000D01*
G75*
G02*
X54970000Y-113180000I0J150000D01*
G01*
G37*
G36*
G01*
X54970000Y-111910000D02*
X54970000Y-111610000D01*
G75*
G02*
X55120000Y-111460000I150000J0D01*
G01*
X56770000Y-111460000D01*
G75*
G02*
X56920000Y-111610000I0J-150000D01*
G01*
X56920000Y-111910000D01*
G75*
G02*
X56770000Y-112060000I-150000J0D01*
G01*
X55120000Y-112060000D01*
G75*
G02*
X54970000Y-111910000I0J150000D01*
G01*
G37*
G36*
G01*
X54970000Y-110640000D02*
X54970000Y-110340000D01*
G75*
G02*
X55120000Y-110190000I150000J0D01*
G01*
X56770000Y-110190000D01*
G75*
G02*
X56920000Y-110340000I0J-150000D01*
G01*
X56920000Y-110640000D01*
G75*
G02*
X56770000Y-110790000I-150000J0D01*
G01*
X55120000Y-110790000D01*
G75*
G02*
X54970000Y-110640000I0J150000D01*
G01*
G37*
G36*
G01*
X54970000Y-109370000D02*
X54970000Y-109070000D01*
G75*
G02*
X55120000Y-108920000I150000J0D01*
G01*
X56770000Y-108920000D01*
G75*
G02*
X56920000Y-109070000I0J-150000D01*
G01*
X56920000Y-109370000D01*
G75*
G02*
X56770000Y-109520000I-150000J0D01*
G01*
X55120000Y-109520000D01*
G75*
G02*
X54970000Y-109370000I0J150000D01*
G01*
G37*
%TD*%
%TO.C,U17*%
G36*
G01*
X52935000Y-34440000D02*
X52935000Y-34140000D01*
G75*
G02*
X53085000Y-33990000I150000J0D01*
G01*
X54735000Y-33990000D01*
G75*
G02*
X54885000Y-34140000I0J-150000D01*
G01*
X54885000Y-34440000D01*
G75*
G02*
X54735000Y-34590000I-150000J0D01*
G01*
X53085000Y-34590000D01*
G75*
G02*
X52935000Y-34440000I0J150000D01*
G01*
G37*
G36*
G01*
X52935000Y-35710000D02*
X52935000Y-35410000D01*
G75*
G02*
X53085000Y-35260000I150000J0D01*
G01*
X54735000Y-35260000D01*
G75*
G02*
X54885000Y-35410000I0J-150000D01*
G01*
X54885000Y-35710000D01*
G75*
G02*
X54735000Y-35860000I-150000J0D01*
G01*
X53085000Y-35860000D01*
G75*
G02*
X52935000Y-35710000I0J150000D01*
G01*
G37*
G36*
G01*
X52935000Y-36980000D02*
X52935000Y-36680000D01*
G75*
G02*
X53085000Y-36530000I150000J0D01*
G01*
X54735000Y-36530000D01*
G75*
G02*
X54885000Y-36680000I0J-150000D01*
G01*
X54885000Y-36980000D01*
G75*
G02*
X54735000Y-37130000I-150000J0D01*
G01*
X53085000Y-37130000D01*
G75*
G02*
X52935000Y-36980000I0J150000D01*
G01*
G37*
G36*
G01*
X52935000Y-38250000D02*
X52935000Y-37950000D01*
G75*
G02*
X53085000Y-37800000I150000J0D01*
G01*
X54735000Y-37800000D01*
G75*
G02*
X54885000Y-37950000I0J-150000D01*
G01*
X54885000Y-38250000D01*
G75*
G02*
X54735000Y-38400000I-150000J0D01*
G01*
X53085000Y-38400000D01*
G75*
G02*
X52935000Y-38250000I0J150000D01*
G01*
G37*
G36*
G01*
X52935000Y-39520000D02*
X52935000Y-39220000D01*
G75*
G02*
X53085000Y-39070000I150000J0D01*
G01*
X54735000Y-39070000D01*
G75*
G02*
X54885000Y-39220000I0J-150000D01*
G01*
X54885000Y-39520000D01*
G75*
G02*
X54735000Y-39670000I-150000J0D01*
G01*
X53085000Y-39670000D01*
G75*
G02*
X52935000Y-39520000I0J150000D01*
G01*
G37*
G36*
G01*
X52935000Y-40790000D02*
X52935000Y-40490000D01*
G75*
G02*
X53085000Y-40340000I150000J0D01*
G01*
X54735000Y-40340000D01*
G75*
G02*
X54885000Y-40490000I0J-150000D01*
G01*
X54885000Y-40790000D01*
G75*
G02*
X54735000Y-40940000I-150000J0D01*
G01*
X53085000Y-40940000D01*
G75*
G02*
X52935000Y-40790000I0J150000D01*
G01*
G37*
G36*
G01*
X52935000Y-42060000D02*
X52935000Y-41760000D01*
G75*
G02*
X53085000Y-41610000I150000J0D01*
G01*
X54735000Y-41610000D01*
G75*
G02*
X54885000Y-41760000I0J-150000D01*
G01*
X54885000Y-42060000D01*
G75*
G02*
X54735000Y-42210000I-150000J0D01*
G01*
X53085000Y-42210000D01*
G75*
G02*
X52935000Y-42060000I0J150000D01*
G01*
G37*
G36*
G01*
X47985000Y-42060000D02*
X47985000Y-41760000D01*
G75*
G02*
X48135000Y-41610000I150000J0D01*
G01*
X49785000Y-41610000D01*
G75*
G02*
X49935000Y-41760000I0J-150000D01*
G01*
X49935000Y-42060000D01*
G75*
G02*
X49785000Y-42210000I-150000J0D01*
G01*
X48135000Y-42210000D01*
G75*
G02*
X47985000Y-42060000I0J150000D01*
G01*
G37*
G36*
G01*
X47985000Y-40790000D02*
X47985000Y-40490000D01*
G75*
G02*
X48135000Y-40340000I150000J0D01*
G01*
X49785000Y-40340000D01*
G75*
G02*
X49935000Y-40490000I0J-150000D01*
G01*
X49935000Y-40790000D01*
G75*
G02*
X49785000Y-40940000I-150000J0D01*
G01*
X48135000Y-40940000D01*
G75*
G02*
X47985000Y-40790000I0J150000D01*
G01*
G37*
G36*
G01*
X47985000Y-39520000D02*
X47985000Y-39220000D01*
G75*
G02*
X48135000Y-39070000I150000J0D01*
G01*
X49785000Y-39070000D01*
G75*
G02*
X49935000Y-39220000I0J-150000D01*
G01*
X49935000Y-39520000D01*
G75*
G02*
X49785000Y-39670000I-150000J0D01*
G01*
X48135000Y-39670000D01*
G75*
G02*
X47985000Y-39520000I0J150000D01*
G01*
G37*
G36*
G01*
X47985000Y-38250000D02*
X47985000Y-37950000D01*
G75*
G02*
X48135000Y-37800000I150000J0D01*
G01*
X49785000Y-37800000D01*
G75*
G02*
X49935000Y-37950000I0J-150000D01*
G01*
X49935000Y-38250000D01*
G75*
G02*
X49785000Y-38400000I-150000J0D01*
G01*
X48135000Y-38400000D01*
G75*
G02*
X47985000Y-38250000I0J150000D01*
G01*
G37*
G36*
G01*
X47985000Y-36980000D02*
X47985000Y-36680000D01*
G75*
G02*
X48135000Y-36530000I150000J0D01*
G01*
X49785000Y-36530000D01*
G75*
G02*
X49935000Y-36680000I0J-150000D01*
G01*
X49935000Y-36980000D01*
G75*
G02*
X49785000Y-37130000I-150000J0D01*
G01*
X48135000Y-37130000D01*
G75*
G02*
X47985000Y-36980000I0J150000D01*
G01*
G37*
G36*
G01*
X47985000Y-35710000D02*
X47985000Y-35410000D01*
G75*
G02*
X48135000Y-35260000I150000J0D01*
G01*
X49785000Y-35260000D01*
G75*
G02*
X49935000Y-35410000I0J-150000D01*
G01*
X49935000Y-35710000D01*
G75*
G02*
X49785000Y-35860000I-150000J0D01*
G01*
X48135000Y-35860000D01*
G75*
G02*
X47985000Y-35710000I0J150000D01*
G01*
G37*
G36*
G01*
X47985000Y-34440000D02*
X47985000Y-34140000D01*
G75*
G02*
X48135000Y-33990000I150000J0D01*
G01*
X49785000Y-33990000D01*
G75*
G02*
X49935000Y-34140000I0J-150000D01*
G01*
X49935000Y-34440000D01*
G75*
G02*
X49785000Y-34590000I-150000J0D01*
G01*
X48135000Y-34590000D01*
G75*
G02*
X47985000Y-34440000I0J150000D01*
G01*
G37*
%TD*%
%TO.C,U3*%
G36*
G01*
X47111000Y-108735000D02*
X47111000Y-108435000D01*
G75*
G02*
X47261000Y-108285000I150000J0D01*
G01*
X48911000Y-108285000D01*
G75*
G02*
X49061000Y-108435000I0J-150000D01*
G01*
X49061000Y-108735000D01*
G75*
G02*
X48911000Y-108885000I-150000J0D01*
G01*
X47261000Y-108885000D01*
G75*
G02*
X47111000Y-108735000I0J150000D01*
G01*
G37*
G36*
G01*
X47111000Y-110005000D02*
X47111000Y-109705000D01*
G75*
G02*
X47261000Y-109555000I150000J0D01*
G01*
X48911000Y-109555000D01*
G75*
G02*
X49061000Y-109705000I0J-150000D01*
G01*
X49061000Y-110005000D01*
G75*
G02*
X48911000Y-110155000I-150000J0D01*
G01*
X47261000Y-110155000D01*
G75*
G02*
X47111000Y-110005000I0J150000D01*
G01*
G37*
G36*
G01*
X47111000Y-111275000D02*
X47111000Y-110975000D01*
G75*
G02*
X47261000Y-110825000I150000J0D01*
G01*
X48911000Y-110825000D01*
G75*
G02*
X49061000Y-110975000I0J-150000D01*
G01*
X49061000Y-111275000D01*
G75*
G02*
X48911000Y-111425000I-150000J0D01*
G01*
X47261000Y-111425000D01*
G75*
G02*
X47111000Y-111275000I0J150000D01*
G01*
G37*
G36*
G01*
X47111000Y-112545000D02*
X47111000Y-112245000D01*
G75*
G02*
X47261000Y-112095000I150000J0D01*
G01*
X48911000Y-112095000D01*
G75*
G02*
X49061000Y-112245000I0J-150000D01*
G01*
X49061000Y-112545000D01*
G75*
G02*
X48911000Y-112695000I-150000J0D01*
G01*
X47261000Y-112695000D01*
G75*
G02*
X47111000Y-112545000I0J150000D01*
G01*
G37*
G36*
G01*
X47111000Y-113815000D02*
X47111000Y-113515000D01*
G75*
G02*
X47261000Y-113365000I150000J0D01*
G01*
X48911000Y-113365000D01*
G75*
G02*
X49061000Y-113515000I0J-150000D01*
G01*
X49061000Y-113815000D01*
G75*
G02*
X48911000Y-113965000I-150000J0D01*
G01*
X47261000Y-113965000D01*
G75*
G02*
X47111000Y-113815000I0J150000D01*
G01*
G37*
G36*
G01*
X47111000Y-115085000D02*
X47111000Y-114785000D01*
G75*
G02*
X47261000Y-114635000I150000J0D01*
G01*
X48911000Y-114635000D01*
G75*
G02*
X49061000Y-114785000I0J-150000D01*
G01*
X49061000Y-115085000D01*
G75*
G02*
X48911000Y-115235000I-150000J0D01*
G01*
X47261000Y-115235000D01*
G75*
G02*
X47111000Y-115085000I0J150000D01*
G01*
G37*
G36*
G01*
X47111000Y-116355000D02*
X47111000Y-116055000D01*
G75*
G02*
X47261000Y-115905000I150000J0D01*
G01*
X48911000Y-115905000D01*
G75*
G02*
X49061000Y-116055000I0J-150000D01*
G01*
X49061000Y-116355000D01*
G75*
G02*
X48911000Y-116505000I-150000J0D01*
G01*
X47261000Y-116505000D01*
G75*
G02*
X47111000Y-116355000I0J150000D01*
G01*
G37*
G36*
G01*
X47111000Y-117625000D02*
X47111000Y-117325000D01*
G75*
G02*
X47261000Y-117175000I150000J0D01*
G01*
X48911000Y-117175000D01*
G75*
G02*
X49061000Y-117325000I0J-150000D01*
G01*
X49061000Y-117625000D01*
G75*
G02*
X48911000Y-117775000I-150000J0D01*
G01*
X47261000Y-117775000D01*
G75*
G02*
X47111000Y-117625000I0J150000D01*
G01*
G37*
G36*
G01*
X42161000Y-117625000D02*
X42161000Y-117325000D01*
G75*
G02*
X42311000Y-117175000I150000J0D01*
G01*
X43961000Y-117175000D01*
G75*
G02*
X44111000Y-117325000I0J-150000D01*
G01*
X44111000Y-117625000D01*
G75*
G02*
X43961000Y-117775000I-150000J0D01*
G01*
X42311000Y-117775000D01*
G75*
G02*
X42161000Y-117625000I0J150000D01*
G01*
G37*
G36*
G01*
X42161000Y-116355000D02*
X42161000Y-116055000D01*
G75*
G02*
X42311000Y-115905000I150000J0D01*
G01*
X43961000Y-115905000D01*
G75*
G02*
X44111000Y-116055000I0J-150000D01*
G01*
X44111000Y-116355000D01*
G75*
G02*
X43961000Y-116505000I-150000J0D01*
G01*
X42311000Y-116505000D01*
G75*
G02*
X42161000Y-116355000I0J150000D01*
G01*
G37*
G36*
G01*
X42161000Y-115085000D02*
X42161000Y-114785000D01*
G75*
G02*
X42311000Y-114635000I150000J0D01*
G01*
X43961000Y-114635000D01*
G75*
G02*
X44111000Y-114785000I0J-150000D01*
G01*
X44111000Y-115085000D01*
G75*
G02*
X43961000Y-115235000I-150000J0D01*
G01*
X42311000Y-115235000D01*
G75*
G02*
X42161000Y-115085000I0J150000D01*
G01*
G37*
G36*
G01*
X42161000Y-113815000D02*
X42161000Y-113515000D01*
G75*
G02*
X42311000Y-113365000I150000J0D01*
G01*
X43961000Y-113365000D01*
G75*
G02*
X44111000Y-113515000I0J-150000D01*
G01*
X44111000Y-113815000D01*
G75*
G02*
X43961000Y-113965000I-150000J0D01*
G01*
X42311000Y-113965000D01*
G75*
G02*
X42161000Y-113815000I0J150000D01*
G01*
G37*
G36*
G01*
X42161000Y-112545000D02*
X42161000Y-112245000D01*
G75*
G02*
X42311000Y-112095000I150000J0D01*
G01*
X43961000Y-112095000D01*
G75*
G02*
X44111000Y-112245000I0J-150000D01*
G01*
X44111000Y-112545000D01*
G75*
G02*
X43961000Y-112695000I-150000J0D01*
G01*
X42311000Y-112695000D01*
G75*
G02*
X42161000Y-112545000I0J150000D01*
G01*
G37*
G36*
G01*
X42161000Y-111275000D02*
X42161000Y-110975000D01*
G75*
G02*
X42311000Y-110825000I150000J0D01*
G01*
X43961000Y-110825000D01*
G75*
G02*
X44111000Y-110975000I0J-150000D01*
G01*
X44111000Y-111275000D01*
G75*
G02*
X43961000Y-111425000I-150000J0D01*
G01*
X42311000Y-111425000D01*
G75*
G02*
X42161000Y-111275000I0J150000D01*
G01*
G37*
G36*
G01*
X42161000Y-110005000D02*
X42161000Y-109705000D01*
G75*
G02*
X42311000Y-109555000I150000J0D01*
G01*
X43961000Y-109555000D01*
G75*
G02*
X44111000Y-109705000I0J-150000D01*
G01*
X44111000Y-110005000D01*
G75*
G02*
X43961000Y-110155000I-150000J0D01*
G01*
X42311000Y-110155000D01*
G75*
G02*
X42161000Y-110005000I0J150000D01*
G01*
G37*
G36*
G01*
X42161000Y-108735000D02*
X42161000Y-108435000D01*
G75*
G02*
X42311000Y-108285000I150000J0D01*
G01*
X43961000Y-108285000D01*
G75*
G02*
X44111000Y-108435000I0J-150000D01*
G01*
X44111000Y-108735000D01*
G75*
G02*
X43961000Y-108885000I-150000J0D01*
G01*
X42311000Y-108885000D01*
G75*
G02*
X42161000Y-108735000I0J150000D01*
G01*
G37*
%TD*%
%TO.C,U1*%
G36*
G01*
X34520000Y-108735000D02*
X34520000Y-108435000D01*
G75*
G02*
X34670000Y-108285000I150000J0D01*
G01*
X36320000Y-108285000D01*
G75*
G02*
X36470000Y-108435000I0J-150000D01*
G01*
X36470000Y-108735000D01*
G75*
G02*
X36320000Y-108885000I-150000J0D01*
G01*
X34670000Y-108885000D01*
G75*
G02*
X34520000Y-108735000I0J150000D01*
G01*
G37*
G36*
G01*
X34520000Y-110005000D02*
X34520000Y-109705000D01*
G75*
G02*
X34670000Y-109555000I150000J0D01*
G01*
X36320000Y-109555000D01*
G75*
G02*
X36470000Y-109705000I0J-150000D01*
G01*
X36470000Y-110005000D01*
G75*
G02*
X36320000Y-110155000I-150000J0D01*
G01*
X34670000Y-110155000D01*
G75*
G02*
X34520000Y-110005000I0J150000D01*
G01*
G37*
G36*
G01*
X34520000Y-111275000D02*
X34520000Y-110975000D01*
G75*
G02*
X34670000Y-110825000I150000J0D01*
G01*
X36320000Y-110825000D01*
G75*
G02*
X36470000Y-110975000I0J-150000D01*
G01*
X36470000Y-111275000D01*
G75*
G02*
X36320000Y-111425000I-150000J0D01*
G01*
X34670000Y-111425000D01*
G75*
G02*
X34520000Y-111275000I0J150000D01*
G01*
G37*
G36*
G01*
X34520000Y-112545000D02*
X34520000Y-112245000D01*
G75*
G02*
X34670000Y-112095000I150000J0D01*
G01*
X36320000Y-112095000D01*
G75*
G02*
X36470000Y-112245000I0J-150000D01*
G01*
X36470000Y-112545000D01*
G75*
G02*
X36320000Y-112695000I-150000J0D01*
G01*
X34670000Y-112695000D01*
G75*
G02*
X34520000Y-112545000I0J150000D01*
G01*
G37*
G36*
G01*
X34520000Y-113815000D02*
X34520000Y-113515000D01*
G75*
G02*
X34670000Y-113365000I150000J0D01*
G01*
X36320000Y-113365000D01*
G75*
G02*
X36470000Y-113515000I0J-150000D01*
G01*
X36470000Y-113815000D01*
G75*
G02*
X36320000Y-113965000I-150000J0D01*
G01*
X34670000Y-113965000D01*
G75*
G02*
X34520000Y-113815000I0J150000D01*
G01*
G37*
G36*
G01*
X34520000Y-115085000D02*
X34520000Y-114785000D01*
G75*
G02*
X34670000Y-114635000I150000J0D01*
G01*
X36320000Y-114635000D01*
G75*
G02*
X36470000Y-114785000I0J-150000D01*
G01*
X36470000Y-115085000D01*
G75*
G02*
X36320000Y-115235000I-150000J0D01*
G01*
X34670000Y-115235000D01*
G75*
G02*
X34520000Y-115085000I0J150000D01*
G01*
G37*
G36*
G01*
X34520000Y-116355000D02*
X34520000Y-116055000D01*
G75*
G02*
X34670000Y-115905000I150000J0D01*
G01*
X36320000Y-115905000D01*
G75*
G02*
X36470000Y-116055000I0J-150000D01*
G01*
X36470000Y-116355000D01*
G75*
G02*
X36320000Y-116505000I-150000J0D01*
G01*
X34670000Y-116505000D01*
G75*
G02*
X34520000Y-116355000I0J150000D01*
G01*
G37*
G36*
G01*
X34520000Y-117625000D02*
X34520000Y-117325000D01*
G75*
G02*
X34670000Y-117175000I150000J0D01*
G01*
X36320000Y-117175000D01*
G75*
G02*
X36470000Y-117325000I0J-150000D01*
G01*
X36470000Y-117625000D01*
G75*
G02*
X36320000Y-117775000I-150000J0D01*
G01*
X34670000Y-117775000D01*
G75*
G02*
X34520000Y-117625000I0J150000D01*
G01*
G37*
G36*
G01*
X29570000Y-117625000D02*
X29570000Y-117325000D01*
G75*
G02*
X29720000Y-117175000I150000J0D01*
G01*
X31370000Y-117175000D01*
G75*
G02*
X31520000Y-117325000I0J-150000D01*
G01*
X31520000Y-117625000D01*
G75*
G02*
X31370000Y-117775000I-150000J0D01*
G01*
X29720000Y-117775000D01*
G75*
G02*
X29570000Y-117625000I0J150000D01*
G01*
G37*
G36*
G01*
X29570000Y-116355000D02*
X29570000Y-116055000D01*
G75*
G02*
X29720000Y-115905000I150000J0D01*
G01*
X31370000Y-115905000D01*
G75*
G02*
X31520000Y-116055000I0J-150000D01*
G01*
X31520000Y-116355000D01*
G75*
G02*
X31370000Y-116505000I-150000J0D01*
G01*
X29720000Y-116505000D01*
G75*
G02*
X29570000Y-116355000I0J150000D01*
G01*
G37*
G36*
G01*
X29570000Y-115085000D02*
X29570000Y-114785000D01*
G75*
G02*
X29720000Y-114635000I150000J0D01*
G01*
X31370000Y-114635000D01*
G75*
G02*
X31520000Y-114785000I0J-150000D01*
G01*
X31520000Y-115085000D01*
G75*
G02*
X31370000Y-115235000I-150000J0D01*
G01*
X29720000Y-115235000D01*
G75*
G02*
X29570000Y-115085000I0J150000D01*
G01*
G37*
G36*
G01*
X29570000Y-113815000D02*
X29570000Y-113515000D01*
G75*
G02*
X29720000Y-113365000I150000J0D01*
G01*
X31370000Y-113365000D01*
G75*
G02*
X31520000Y-113515000I0J-150000D01*
G01*
X31520000Y-113815000D01*
G75*
G02*
X31370000Y-113965000I-150000J0D01*
G01*
X29720000Y-113965000D01*
G75*
G02*
X29570000Y-113815000I0J150000D01*
G01*
G37*
G36*
G01*
X29570000Y-112545000D02*
X29570000Y-112245000D01*
G75*
G02*
X29720000Y-112095000I150000J0D01*
G01*
X31370000Y-112095000D01*
G75*
G02*
X31520000Y-112245000I0J-150000D01*
G01*
X31520000Y-112545000D01*
G75*
G02*
X31370000Y-112695000I-150000J0D01*
G01*
X29720000Y-112695000D01*
G75*
G02*
X29570000Y-112545000I0J150000D01*
G01*
G37*
G36*
G01*
X29570000Y-111275000D02*
X29570000Y-110975000D01*
G75*
G02*
X29720000Y-110825000I150000J0D01*
G01*
X31370000Y-110825000D01*
G75*
G02*
X31520000Y-110975000I0J-150000D01*
G01*
X31520000Y-111275000D01*
G75*
G02*
X31370000Y-111425000I-150000J0D01*
G01*
X29720000Y-111425000D01*
G75*
G02*
X29570000Y-111275000I0J150000D01*
G01*
G37*
G36*
G01*
X29570000Y-110005000D02*
X29570000Y-109705000D01*
G75*
G02*
X29720000Y-109555000I150000J0D01*
G01*
X31370000Y-109555000D01*
G75*
G02*
X31520000Y-109705000I0J-150000D01*
G01*
X31520000Y-110005000D01*
G75*
G02*
X31370000Y-110155000I-150000J0D01*
G01*
X29720000Y-110155000D01*
G75*
G02*
X29570000Y-110005000I0J150000D01*
G01*
G37*
G36*
G01*
X29570000Y-108735000D02*
X29570000Y-108435000D01*
G75*
G02*
X29720000Y-108285000I150000J0D01*
G01*
X31370000Y-108285000D01*
G75*
G02*
X31520000Y-108435000I0J-150000D01*
G01*
X31520000Y-108735000D01*
G75*
G02*
X31370000Y-108885000I-150000J0D01*
G01*
X29720000Y-108885000D01*
G75*
G02*
X29570000Y-108735000I0J150000D01*
G01*
G37*
%TD*%
D19*
%TO.C,X1*%
X48133000Y-104970000D03*
X43053000Y-104970000D03*
X43053000Y-100770000D03*
X48133000Y-100770000D03*
%TD*%
%TO.C,U4*%
G36*
G01*
X71985000Y-109370000D02*
X71985000Y-109070000D01*
G75*
G02*
X72135000Y-108920000I150000J0D01*
G01*
X73785000Y-108920000D01*
G75*
G02*
X73935000Y-109070000I0J-150000D01*
G01*
X73935000Y-109370000D01*
G75*
G02*
X73785000Y-109520000I-150000J0D01*
G01*
X72135000Y-109520000D01*
G75*
G02*
X71985000Y-109370000I0J150000D01*
G01*
G37*
G36*
G01*
X71985000Y-110640000D02*
X71985000Y-110340000D01*
G75*
G02*
X72135000Y-110190000I150000J0D01*
G01*
X73785000Y-110190000D01*
G75*
G02*
X73935000Y-110340000I0J-150000D01*
G01*
X73935000Y-110640000D01*
G75*
G02*
X73785000Y-110790000I-150000J0D01*
G01*
X72135000Y-110790000D01*
G75*
G02*
X71985000Y-110640000I0J150000D01*
G01*
G37*
G36*
G01*
X71985000Y-111910000D02*
X71985000Y-111610000D01*
G75*
G02*
X72135000Y-111460000I150000J0D01*
G01*
X73785000Y-111460000D01*
G75*
G02*
X73935000Y-111610000I0J-150000D01*
G01*
X73935000Y-111910000D01*
G75*
G02*
X73785000Y-112060000I-150000J0D01*
G01*
X72135000Y-112060000D01*
G75*
G02*
X71985000Y-111910000I0J150000D01*
G01*
G37*
G36*
G01*
X71985000Y-113180000D02*
X71985000Y-112880000D01*
G75*
G02*
X72135000Y-112730000I150000J0D01*
G01*
X73785000Y-112730000D01*
G75*
G02*
X73935000Y-112880000I0J-150000D01*
G01*
X73935000Y-113180000D01*
G75*
G02*
X73785000Y-113330000I-150000J0D01*
G01*
X72135000Y-113330000D01*
G75*
G02*
X71985000Y-113180000I0J150000D01*
G01*
G37*
G36*
G01*
X71985000Y-114450000D02*
X71985000Y-114150000D01*
G75*
G02*
X72135000Y-114000000I150000J0D01*
G01*
X73785000Y-114000000D01*
G75*
G02*
X73935000Y-114150000I0J-150000D01*
G01*
X73935000Y-114450000D01*
G75*
G02*
X73785000Y-114600000I-150000J0D01*
G01*
X72135000Y-114600000D01*
G75*
G02*
X71985000Y-114450000I0J150000D01*
G01*
G37*
G36*
G01*
X71985000Y-115720000D02*
X71985000Y-115420000D01*
G75*
G02*
X72135000Y-115270000I150000J0D01*
G01*
X73785000Y-115270000D01*
G75*
G02*
X73935000Y-115420000I0J-150000D01*
G01*
X73935000Y-115720000D01*
G75*
G02*
X73785000Y-115870000I-150000J0D01*
G01*
X72135000Y-115870000D01*
G75*
G02*
X71985000Y-115720000I0J150000D01*
G01*
G37*
G36*
G01*
X71985000Y-116990000D02*
X71985000Y-116690000D01*
G75*
G02*
X72135000Y-116540000I150000J0D01*
G01*
X73785000Y-116540000D01*
G75*
G02*
X73935000Y-116690000I0J-150000D01*
G01*
X73935000Y-116990000D01*
G75*
G02*
X73785000Y-117140000I-150000J0D01*
G01*
X72135000Y-117140000D01*
G75*
G02*
X71985000Y-116990000I0J150000D01*
G01*
G37*
G36*
G01*
X67035000Y-116990000D02*
X67035000Y-116690000D01*
G75*
G02*
X67185000Y-116540000I150000J0D01*
G01*
X68835000Y-116540000D01*
G75*
G02*
X68985000Y-116690000I0J-150000D01*
G01*
X68985000Y-116990000D01*
G75*
G02*
X68835000Y-117140000I-150000J0D01*
G01*
X67185000Y-117140000D01*
G75*
G02*
X67035000Y-116990000I0J150000D01*
G01*
G37*
G36*
G01*
X67035000Y-115720000D02*
X67035000Y-115420000D01*
G75*
G02*
X67185000Y-115270000I150000J0D01*
G01*
X68835000Y-115270000D01*
G75*
G02*
X68985000Y-115420000I0J-150000D01*
G01*
X68985000Y-115720000D01*
G75*
G02*
X68835000Y-115870000I-150000J0D01*
G01*
X67185000Y-115870000D01*
G75*
G02*
X67035000Y-115720000I0J150000D01*
G01*
G37*
G36*
G01*
X67035000Y-114450000D02*
X67035000Y-114150000D01*
G75*
G02*
X67185000Y-114000000I150000J0D01*
G01*
X68835000Y-114000000D01*
G75*
G02*
X68985000Y-114150000I0J-150000D01*
G01*
X68985000Y-114450000D01*
G75*
G02*
X68835000Y-114600000I-150000J0D01*
G01*
X67185000Y-114600000D01*
G75*
G02*
X67035000Y-114450000I0J150000D01*
G01*
G37*
G36*
G01*
X67035000Y-113180000D02*
X67035000Y-112880000D01*
G75*
G02*
X67185000Y-112730000I150000J0D01*
G01*
X68835000Y-112730000D01*
G75*
G02*
X68985000Y-112880000I0J-150000D01*
G01*
X68985000Y-113180000D01*
G75*
G02*
X68835000Y-113330000I-150000J0D01*
G01*
X67185000Y-113330000D01*
G75*
G02*
X67035000Y-113180000I0J150000D01*
G01*
G37*
G36*
G01*
X67035000Y-111910000D02*
X67035000Y-111610000D01*
G75*
G02*
X67185000Y-111460000I150000J0D01*
G01*
X68835000Y-111460000D01*
G75*
G02*
X68985000Y-111610000I0J-150000D01*
G01*
X68985000Y-111910000D01*
G75*
G02*
X68835000Y-112060000I-150000J0D01*
G01*
X67185000Y-112060000D01*
G75*
G02*
X67035000Y-111910000I0J150000D01*
G01*
G37*
G36*
G01*
X67035000Y-110640000D02*
X67035000Y-110340000D01*
G75*
G02*
X67185000Y-110190000I150000J0D01*
G01*
X68835000Y-110190000D01*
G75*
G02*
X68985000Y-110340000I0J-150000D01*
G01*
X68985000Y-110640000D01*
G75*
G02*
X68835000Y-110790000I-150000J0D01*
G01*
X67185000Y-110790000D01*
G75*
G02*
X67035000Y-110640000I0J150000D01*
G01*
G37*
G36*
G01*
X67035000Y-109370000D02*
X67035000Y-109070000D01*
G75*
G02*
X67185000Y-108920000I150000J0D01*
G01*
X68835000Y-108920000D01*
G75*
G02*
X68985000Y-109070000I0J-150000D01*
G01*
X68985000Y-109370000D01*
G75*
G02*
X68835000Y-109520000I-150000J0D01*
G01*
X67185000Y-109520000D01*
G75*
G02*
X67035000Y-109370000I0J150000D01*
G01*
G37*
%TD*%
%TO.C,U16*%
G36*
G01*
X38035000Y-47775000D02*
X38035000Y-47475000D01*
G75*
G02*
X38185000Y-47325000I150000J0D01*
G01*
X39860000Y-47325000D01*
G75*
G02*
X40010000Y-47475000I0J-150000D01*
G01*
X40010000Y-47775000D01*
G75*
G02*
X39860000Y-47925000I-150000J0D01*
G01*
X38185000Y-47925000D01*
G75*
G02*
X38035000Y-47775000I0J150000D01*
G01*
G37*
G36*
G01*
X38035000Y-49045000D02*
X38035000Y-48745000D01*
G75*
G02*
X38185000Y-48595000I150000J0D01*
G01*
X39860000Y-48595000D01*
G75*
G02*
X40010000Y-48745000I0J-150000D01*
G01*
X40010000Y-49045000D01*
G75*
G02*
X39860000Y-49195000I-150000J0D01*
G01*
X38185000Y-49195000D01*
G75*
G02*
X38035000Y-49045000I0J150000D01*
G01*
G37*
G36*
G01*
X38035000Y-50315000D02*
X38035000Y-50015000D01*
G75*
G02*
X38185000Y-49865000I150000J0D01*
G01*
X39860000Y-49865000D01*
G75*
G02*
X40010000Y-50015000I0J-150000D01*
G01*
X40010000Y-50315000D01*
G75*
G02*
X39860000Y-50465000I-150000J0D01*
G01*
X38185000Y-50465000D01*
G75*
G02*
X38035000Y-50315000I0J150000D01*
G01*
G37*
G36*
G01*
X38035000Y-51585000D02*
X38035000Y-51285000D01*
G75*
G02*
X38185000Y-51135000I150000J0D01*
G01*
X39860000Y-51135000D01*
G75*
G02*
X40010000Y-51285000I0J-150000D01*
G01*
X40010000Y-51585000D01*
G75*
G02*
X39860000Y-51735000I-150000J0D01*
G01*
X38185000Y-51735000D01*
G75*
G02*
X38035000Y-51585000I0J150000D01*
G01*
G37*
G36*
G01*
X38035000Y-52855000D02*
X38035000Y-52555000D01*
G75*
G02*
X38185000Y-52405000I150000J0D01*
G01*
X39860000Y-52405000D01*
G75*
G02*
X40010000Y-52555000I0J-150000D01*
G01*
X40010000Y-52855000D01*
G75*
G02*
X39860000Y-53005000I-150000J0D01*
G01*
X38185000Y-53005000D01*
G75*
G02*
X38035000Y-52855000I0J150000D01*
G01*
G37*
G36*
G01*
X38035000Y-54125000D02*
X38035000Y-53825000D01*
G75*
G02*
X38185000Y-53675000I150000J0D01*
G01*
X39860000Y-53675000D01*
G75*
G02*
X40010000Y-53825000I0J-150000D01*
G01*
X40010000Y-54125000D01*
G75*
G02*
X39860000Y-54275000I-150000J0D01*
G01*
X38185000Y-54275000D01*
G75*
G02*
X38035000Y-54125000I0J150000D01*
G01*
G37*
G36*
G01*
X38035000Y-55395000D02*
X38035000Y-55095000D01*
G75*
G02*
X38185000Y-54945000I150000J0D01*
G01*
X39860000Y-54945000D01*
G75*
G02*
X40010000Y-55095000I0J-150000D01*
G01*
X40010000Y-55395000D01*
G75*
G02*
X39860000Y-55545000I-150000J0D01*
G01*
X38185000Y-55545000D01*
G75*
G02*
X38035000Y-55395000I0J150000D01*
G01*
G37*
G36*
G01*
X38035000Y-56665000D02*
X38035000Y-56365000D01*
G75*
G02*
X38185000Y-56215000I150000J0D01*
G01*
X39860000Y-56215000D01*
G75*
G02*
X40010000Y-56365000I0J-150000D01*
G01*
X40010000Y-56665000D01*
G75*
G02*
X39860000Y-56815000I-150000J0D01*
G01*
X38185000Y-56815000D01*
G75*
G02*
X38035000Y-56665000I0J150000D01*
G01*
G37*
G36*
G01*
X38035000Y-57935000D02*
X38035000Y-57635000D01*
G75*
G02*
X38185000Y-57485000I150000J0D01*
G01*
X39860000Y-57485000D01*
G75*
G02*
X40010000Y-57635000I0J-150000D01*
G01*
X40010000Y-57935000D01*
G75*
G02*
X39860000Y-58085000I-150000J0D01*
G01*
X38185000Y-58085000D01*
G75*
G02*
X38035000Y-57935000I0J150000D01*
G01*
G37*
G36*
G01*
X38035000Y-59205000D02*
X38035000Y-58905000D01*
G75*
G02*
X38185000Y-58755000I150000J0D01*
G01*
X39860000Y-58755000D01*
G75*
G02*
X40010000Y-58905000I0J-150000D01*
G01*
X40010000Y-59205000D01*
G75*
G02*
X39860000Y-59355000I-150000J0D01*
G01*
X38185000Y-59355000D01*
G75*
G02*
X38035000Y-59205000I0J150000D01*
G01*
G37*
G36*
G01*
X31110000Y-59205000D02*
X31110000Y-58905000D01*
G75*
G02*
X31260000Y-58755000I150000J0D01*
G01*
X32935000Y-58755000D01*
G75*
G02*
X33085000Y-58905000I0J-150000D01*
G01*
X33085000Y-59205000D01*
G75*
G02*
X32935000Y-59355000I-150000J0D01*
G01*
X31260000Y-59355000D01*
G75*
G02*
X31110000Y-59205000I0J150000D01*
G01*
G37*
G36*
G01*
X31110000Y-57935000D02*
X31110000Y-57635000D01*
G75*
G02*
X31260000Y-57485000I150000J0D01*
G01*
X32935000Y-57485000D01*
G75*
G02*
X33085000Y-57635000I0J-150000D01*
G01*
X33085000Y-57935000D01*
G75*
G02*
X32935000Y-58085000I-150000J0D01*
G01*
X31260000Y-58085000D01*
G75*
G02*
X31110000Y-57935000I0J150000D01*
G01*
G37*
G36*
G01*
X31110000Y-56665000D02*
X31110000Y-56365000D01*
G75*
G02*
X31260000Y-56215000I150000J0D01*
G01*
X32935000Y-56215000D01*
G75*
G02*
X33085000Y-56365000I0J-150000D01*
G01*
X33085000Y-56665000D01*
G75*
G02*
X32935000Y-56815000I-150000J0D01*
G01*
X31260000Y-56815000D01*
G75*
G02*
X31110000Y-56665000I0J150000D01*
G01*
G37*
G36*
G01*
X31110000Y-55395000D02*
X31110000Y-55095000D01*
G75*
G02*
X31260000Y-54945000I150000J0D01*
G01*
X32935000Y-54945000D01*
G75*
G02*
X33085000Y-55095000I0J-150000D01*
G01*
X33085000Y-55395000D01*
G75*
G02*
X32935000Y-55545000I-150000J0D01*
G01*
X31260000Y-55545000D01*
G75*
G02*
X31110000Y-55395000I0J150000D01*
G01*
G37*
G36*
G01*
X31110000Y-54125000D02*
X31110000Y-53825000D01*
G75*
G02*
X31260000Y-53675000I150000J0D01*
G01*
X32935000Y-53675000D01*
G75*
G02*
X33085000Y-53825000I0J-150000D01*
G01*
X33085000Y-54125000D01*
G75*
G02*
X32935000Y-54275000I-150000J0D01*
G01*
X31260000Y-54275000D01*
G75*
G02*
X31110000Y-54125000I0J150000D01*
G01*
G37*
G36*
G01*
X31110000Y-52855000D02*
X31110000Y-52555000D01*
G75*
G02*
X31260000Y-52405000I150000J0D01*
G01*
X32935000Y-52405000D01*
G75*
G02*
X33085000Y-52555000I0J-150000D01*
G01*
X33085000Y-52855000D01*
G75*
G02*
X32935000Y-53005000I-150000J0D01*
G01*
X31260000Y-53005000D01*
G75*
G02*
X31110000Y-52855000I0J150000D01*
G01*
G37*
G36*
G01*
X31110000Y-51585000D02*
X31110000Y-51285000D01*
G75*
G02*
X31260000Y-51135000I150000J0D01*
G01*
X32935000Y-51135000D01*
G75*
G02*
X33085000Y-51285000I0J-150000D01*
G01*
X33085000Y-51585000D01*
G75*
G02*
X32935000Y-51735000I-150000J0D01*
G01*
X31260000Y-51735000D01*
G75*
G02*
X31110000Y-51585000I0J150000D01*
G01*
G37*
G36*
G01*
X31110000Y-50315000D02*
X31110000Y-50015000D01*
G75*
G02*
X31260000Y-49865000I150000J0D01*
G01*
X32935000Y-49865000D01*
G75*
G02*
X33085000Y-50015000I0J-150000D01*
G01*
X33085000Y-50315000D01*
G75*
G02*
X32935000Y-50465000I-150000J0D01*
G01*
X31260000Y-50465000D01*
G75*
G02*
X31110000Y-50315000I0J150000D01*
G01*
G37*
G36*
G01*
X31110000Y-49045000D02*
X31110000Y-48745000D01*
G75*
G02*
X31260000Y-48595000I150000J0D01*
G01*
X32935000Y-48595000D01*
G75*
G02*
X33085000Y-48745000I0J-150000D01*
G01*
X33085000Y-49045000D01*
G75*
G02*
X32935000Y-49195000I-150000J0D01*
G01*
X31260000Y-49195000D01*
G75*
G02*
X31110000Y-49045000I0J150000D01*
G01*
G37*
G36*
G01*
X31110000Y-47775000D02*
X31110000Y-47475000D01*
G75*
G02*
X31260000Y-47325000I150000J0D01*
G01*
X32935000Y-47325000D01*
G75*
G02*
X33085000Y-47475000I0J-150000D01*
G01*
X33085000Y-47775000D01*
G75*
G02*
X32935000Y-47925000I-150000J0D01*
G01*
X31260000Y-47925000D01*
G75*
G02*
X31110000Y-47775000I0J150000D01*
G01*
G37*
%TD*%
%TO.C,U15*%
G36*
G01*
X50735000Y-47775000D02*
X50735000Y-47475000D01*
G75*
G02*
X50885000Y-47325000I150000J0D01*
G01*
X52560000Y-47325000D01*
G75*
G02*
X52710000Y-47475000I0J-150000D01*
G01*
X52710000Y-47775000D01*
G75*
G02*
X52560000Y-47925000I-150000J0D01*
G01*
X50885000Y-47925000D01*
G75*
G02*
X50735000Y-47775000I0J150000D01*
G01*
G37*
G36*
G01*
X50735000Y-49045000D02*
X50735000Y-48745000D01*
G75*
G02*
X50885000Y-48595000I150000J0D01*
G01*
X52560000Y-48595000D01*
G75*
G02*
X52710000Y-48745000I0J-150000D01*
G01*
X52710000Y-49045000D01*
G75*
G02*
X52560000Y-49195000I-150000J0D01*
G01*
X50885000Y-49195000D01*
G75*
G02*
X50735000Y-49045000I0J150000D01*
G01*
G37*
G36*
G01*
X50735000Y-50315000D02*
X50735000Y-50015000D01*
G75*
G02*
X50885000Y-49865000I150000J0D01*
G01*
X52560000Y-49865000D01*
G75*
G02*
X52710000Y-50015000I0J-150000D01*
G01*
X52710000Y-50315000D01*
G75*
G02*
X52560000Y-50465000I-150000J0D01*
G01*
X50885000Y-50465000D01*
G75*
G02*
X50735000Y-50315000I0J150000D01*
G01*
G37*
G36*
G01*
X50735000Y-51585000D02*
X50735000Y-51285000D01*
G75*
G02*
X50885000Y-51135000I150000J0D01*
G01*
X52560000Y-51135000D01*
G75*
G02*
X52710000Y-51285000I0J-150000D01*
G01*
X52710000Y-51585000D01*
G75*
G02*
X52560000Y-51735000I-150000J0D01*
G01*
X50885000Y-51735000D01*
G75*
G02*
X50735000Y-51585000I0J150000D01*
G01*
G37*
G36*
G01*
X50735000Y-52855000D02*
X50735000Y-52555000D01*
G75*
G02*
X50885000Y-52405000I150000J0D01*
G01*
X52560000Y-52405000D01*
G75*
G02*
X52710000Y-52555000I0J-150000D01*
G01*
X52710000Y-52855000D01*
G75*
G02*
X52560000Y-53005000I-150000J0D01*
G01*
X50885000Y-53005000D01*
G75*
G02*
X50735000Y-52855000I0J150000D01*
G01*
G37*
G36*
G01*
X50735000Y-54125000D02*
X50735000Y-53825000D01*
G75*
G02*
X50885000Y-53675000I150000J0D01*
G01*
X52560000Y-53675000D01*
G75*
G02*
X52710000Y-53825000I0J-150000D01*
G01*
X52710000Y-54125000D01*
G75*
G02*
X52560000Y-54275000I-150000J0D01*
G01*
X50885000Y-54275000D01*
G75*
G02*
X50735000Y-54125000I0J150000D01*
G01*
G37*
G36*
G01*
X50735000Y-55395000D02*
X50735000Y-55095000D01*
G75*
G02*
X50885000Y-54945000I150000J0D01*
G01*
X52560000Y-54945000D01*
G75*
G02*
X52710000Y-55095000I0J-150000D01*
G01*
X52710000Y-55395000D01*
G75*
G02*
X52560000Y-55545000I-150000J0D01*
G01*
X50885000Y-55545000D01*
G75*
G02*
X50735000Y-55395000I0J150000D01*
G01*
G37*
G36*
G01*
X50735000Y-56665000D02*
X50735000Y-56365000D01*
G75*
G02*
X50885000Y-56215000I150000J0D01*
G01*
X52560000Y-56215000D01*
G75*
G02*
X52710000Y-56365000I0J-150000D01*
G01*
X52710000Y-56665000D01*
G75*
G02*
X52560000Y-56815000I-150000J0D01*
G01*
X50885000Y-56815000D01*
G75*
G02*
X50735000Y-56665000I0J150000D01*
G01*
G37*
G36*
G01*
X50735000Y-57935000D02*
X50735000Y-57635000D01*
G75*
G02*
X50885000Y-57485000I150000J0D01*
G01*
X52560000Y-57485000D01*
G75*
G02*
X52710000Y-57635000I0J-150000D01*
G01*
X52710000Y-57935000D01*
G75*
G02*
X52560000Y-58085000I-150000J0D01*
G01*
X50885000Y-58085000D01*
G75*
G02*
X50735000Y-57935000I0J150000D01*
G01*
G37*
G36*
G01*
X50735000Y-59205000D02*
X50735000Y-58905000D01*
G75*
G02*
X50885000Y-58755000I150000J0D01*
G01*
X52560000Y-58755000D01*
G75*
G02*
X52710000Y-58905000I0J-150000D01*
G01*
X52710000Y-59205000D01*
G75*
G02*
X52560000Y-59355000I-150000J0D01*
G01*
X50885000Y-59355000D01*
G75*
G02*
X50735000Y-59205000I0J150000D01*
G01*
G37*
G36*
G01*
X43810000Y-59205000D02*
X43810000Y-58905000D01*
G75*
G02*
X43960000Y-58755000I150000J0D01*
G01*
X45635000Y-58755000D01*
G75*
G02*
X45785000Y-58905000I0J-150000D01*
G01*
X45785000Y-59205000D01*
G75*
G02*
X45635000Y-59355000I-150000J0D01*
G01*
X43960000Y-59355000D01*
G75*
G02*
X43810000Y-59205000I0J150000D01*
G01*
G37*
G36*
G01*
X43810000Y-57935000D02*
X43810000Y-57635000D01*
G75*
G02*
X43960000Y-57485000I150000J0D01*
G01*
X45635000Y-57485000D01*
G75*
G02*
X45785000Y-57635000I0J-150000D01*
G01*
X45785000Y-57935000D01*
G75*
G02*
X45635000Y-58085000I-150000J0D01*
G01*
X43960000Y-58085000D01*
G75*
G02*
X43810000Y-57935000I0J150000D01*
G01*
G37*
G36*
G01*
X43810000Y-56665000D02*
X43810000Y-56365000D01*
G75*
G02*
X43960000Y-56215000I150000J0D01*
G01*
X45635000Y-56215000D01*
G75*
G02*
X45785000Y-56365000I0J-150000D01*
G01*
X45785000Y-56665000D01*
G75*
G02*
X45635000Y-56815000I-150000J0D01*
G01*
X43960000Y-56815000D01*
G75*
G02*
X43810000Y-56665000I0J150000D01*
G01*
G37*
G36*
G01*
X43810000Y-55395000D02*
X43810000Y-55095000D01*
G75*
G02*
X43960000Y-54945000I150000J0D01*
G01*
X45635000Y-54945000D01*
G75*
G02*
X45785000Y-55095000I0J-150000D01*
G01*
X45785000Y-55395000D01*
G75*
G02*
X45635000Y-55545000I-150000J0D01*
G01*
X43960000Y-55545000D01*
G75*
G02*
X43810000Y-55395000I0J150000D01*
G01*
G37*
G36*
G01*
X43810000Y-54125000D02*
X43810000Y-53825000D01*
G75*
G02*
X43960000Y-53675000I150000J0D01*
G01*
X45635000Y-53675000D01*
G75*
G02*
X45785000Y-53825000I0J-150000D01*
G01*
X45785000Y-54125000D01*
G75*
G02*
X45635000Y-54275000I-150000J0D01*
G01*
X43960000Y-54275000D01*
G75*
G02*
X43810000Y-54125000I0J150000D01*
G01*
G37*
G36*
G01*
X43810000Y-52855000D02*
X43810000Y-52555000D01*
G75*
G02*
X43960000Y-52405000I150000J0D01*
G01*
X45635000Y-52405000D01*
G75*
G02*
X45785000Y-52555000I0J-150000D01*
G01*
X45785000Y-52855000D01*
G75*
G02*
X45635000Y-53005000I-150000J0D01*
G01*
X43960000Y-53005000D01*
G75*
G02*
X43810000Y-52855000I0J150000D01*
G01*
G37*
G36*
G01*
X43810000Y-51585000D02*
X43810000Y-51285000D01*
G75*
G02*
X43960000Y-51135000I150000J0D01*
G01*
X45635000Y-51135000D01*
G75*
G02*
X45785000Y-51285000I0J-150000D01*
G01*
X45785000Y-51585000D01*
G75*
G02*
X45635000Y-51735000I-150000J0D01*
G01*
X43960000Y-51735000D01*
G75*
G02*
X43810000Y-51585000I0J150000D01*
G01*
G37*
G36*
G01*
X43810000Y-50315000D02*
X43810000Y-50015000D01*
G75*
G02*
X43960000Y-49865000I150000J0D01*
G01*
X45635000Y-49865000D01*
G75*
G02*
X45785000Y-50015000I0J-150000D01*
G01*
X45785000Y-50315000D01*
G75*
G02*
X45635000Y-50465000I-150000J0D01*
G01*
X43960000Y-50465000D01*
G75*
G02*
X43810000Y-50315000I0J150000D01*
G01*
G37*
G36*
G01*
X43810000Y-49045000D02*
X43810000Y-48745000D01*
G75*
G02*
X43960000Y-48595000I150000J0D01*
G01*
X45635000Y-48595000D01*
G75*
G02*
X45785000Y-48745000I0J-150000D01*
G01*
X45785000Y-49045000D01*
G75*
G02*
X45635000Y-49195000I-150000J0D01*
G01*
X43960000Y-49195000D01*
G75*
G02*
X43810000Y-49045000I0J150000D01*
G01*
G37*
G36*
G01*
X43810000Y-47775000D02*
X43810000Y-47475000D01*
G75*
G02*
X43960000Y-47325000I150000J0D01*
G01*
X45635000Y-47325000D01*
G75*
G02*
X45785000Y-47475000I0J-150000D01*
G01*
X45785000Y-47775000D01*
G75*
G02*
X45635000Y-47925000I-150000J0D01*
G01*
X43960000Y-47925000D01*
G75*
G02*
X43810000Y-47775000I0J150000D01*
G01*
G37*
%TD*%
%TO.C,U12*%
G36*
G01*
X38035000Y-83335000D02*
X38035000Y-83035000D01*
G75*
G02*
X38185000Y-82885000I150000J0D01*
G01*
X39860000Y-82885000D01*
G75*
G02*
X40010000Y-83035000I0J-150000D01*
G01*
X40010000Y-83335000D01*
G75*
G02*
X39860000Y-83485000I-150000J0D01*
G01*
X38185000Y-83485000D01*
G75*
G02*
X38035000Y-83335000I0J150000D01*
G01*
G37*
G36*
G01*
X38035000Y-84605000D02*
X38035000Y-84305000D01*
G75*
G02*
X38185000Y-84155000I150000J0D01*
G01*
X39860000Y-84155000D01*
G75*
G02*
X40010000Y-84305000I0J-150000D01*
G01*
X40010000Y-84605000D01*
G75*
G02*
X39860000Y-84755000I-150000J0D01*
G01*
X38185000Y-84755000D01*
G75*
G02*
X38035000Y-84605000I0J150000D01*
G01*
G37*
G36*
G01*
X38035000Y-85875000D02*
X38035000Y-85575000D01*
G75*
G02*
X38185000Y-85425000I150000J0D01*
G01*
X39860000Y-85425000D01*
G75*
G02*
X40010000Y-85575000I0J-150000D01*
G01*
X40010000Y-85875000D01*
G75*
G02*
X39860000Y-86025000I-150000J0D01*
G01*
X38185000Y-86025000D01*
G75*
G02*
X38035000Y-85875000I0J150000D01*
G01*
G37*
G36*
G01*
X38035000Y-87145000D02*
X38035000Y-86845000D01*
G75*
G02*
X38185000Y-86695000I150000J0D01*
G01*
X39860000Y-86695000D01*
G75*
G02*
X40010000Y-86845000I0J-150000D01*
G01*
X40010000Y-87145000D01*
G75*
G02*
X39860000Y-87295000I-150000J0D01*
G01*
X38185000Y-87295000D01*
G75*
G02*
X38035000Y-87145000I0J150000D01*
G01*
G37*
G36*
G01*
X38035000Y-88415000D02*
X38035000Y-88115000D01*
G75*
G02*
X38185000Y-87965000I150000J0D01*
G01*
X39860000Y-87965000D01*
G75*
G02*
X40010000Y-88115000I0J-150000D01*
G01*
X40010000Y-88415000D01*
G75*
G02*
X39860000Y-88565000I-150000J0D01*
G01*
X38185000Y-88565000D01*
G75*
G02*
X38035000Y-88415000I0J150000D01*
G01*
G37*
G36*
G01*
X38035000Y-89685000D02*
X38035000Y-89385000D01*
G75*
G02*
X38185000Y-89235000I150000J0D01*
G01*
X39860000Y-89235000D01*
G75*
G02*
X40010000Y-89385000I0J-150000D01*
G01*
X40010000Y-89685000D01*
G75*
G02*
X39860000Y-89835000I-150000J0D01*
G01*
X38185000Y-89835000D01*
G75*
G02*
X38035000Y-89685000I0J150000D01*
G01*
G37*
G36*
G01*
X38035000Y-90955000D02*
X38035000Y-90655000D01*
G75*
G02*
X38185000Y-90505000I150000J0D01*
G01*
X39860000Y-90505000D01*
G75*
G02*
X40010000Y-90655000I0J-150000D01*
G01*
X40010000Y-90955000D01*
G75*
G02*
X39860000Y-91105000I-150000J0D01*
G01*
X38185000Y-91105000D01*
G75*
G02*
X38035000Y-90955000I0J150000D01*
G01*
G37*
G36*
G01*
X38035000Y-92225000D02*
X38035000Y-91925000D01*
G75*
G02*
X38185000Y-91775000I150000J0D01*
G01*
X39860000Y-91775000D01*
G75*
G02*
X40010000Y-91925000I0J-150000D01*
G01*
X40010000Y-92225000D01*
G75*
G02*
X39860000Y-92375000I-150000J0D01*
G01*
X38185000Y-92375000D01*
G75*
G02*
X38035000Y-92225000I0J150000D01*
G01*
G37*
G36*
G01*
X38035000Y-93495000D02*
X38035000Y-93195000D01*
G75*
G02*
X38185000Y-93045000I150000J0D01*
G01*
X39860000Y-93045000D01*
G75*
G02*
X40010000Y-93195000I0J-150000D01*
G01*
X40010000Y-93495000D01*
G75*
G02*
X39860000Y-93645000I-150000J0D01*
G01*
X38185000Y-93645000D01*
G75*
G02*
X38035000Y-93495000I0J150000D01*
G01*
G37*
G36*
G01*
X38035000Y-94765000D02*
X38035000Y-94465000D01*
G75*
G02*
X38185000Y-94315000I150000J0D01*
G01*
X39860000Y-94315000D01*
G75*
G02*
X40010000Y-94465000I0J-150000D01*
G01*
X40010000Y-94765000D01*
G75*
G02*
X39860000Y-94915000I-150000J0D01*
G01*
X38185000Y-94915000D01*
G75*
G02*
X38035000Y-94765000I0J150000D01*
G01*
G37*
G36*
G01*
X31110000Y-94765000D02*
X31110000Y-94465000D01*
G75*
G02*
X31260000Y-94315000I150000J0D01*
G01*
X32935000Y-94315000D01*
G75*
G02*
X33085000Y-94465000I0J-150000D01*
G01*
X33085000Y-94765000D01*
G75*
G02*
X32935000Y-94915000I-150000J0D01*
G01*
X31260000Y-94915000D01*
G75*
G02*
X31110000Y-94765000I0J150000D01*
G01*
G37*
G36*
G01*
X31110000Y-93495000D02*
X31110000Y-93195000D01*
G75*
G02*
X31260000Y-93045000I150000J0D01*
G01*
X32935000Y-93045000D01*
G75*
G02*
X33085000Y-93195000I0J-150000D01*
G01*
X33085000Y-93495000D01*
G75*
G02*
X32935000Y-93645000I-150000J0D01*
G01*
X31260000Y-93645000D01*
G75*
G02*
X31110000Y-93495000I0J150000D01*
G01*
G37*
G36*
G01*
X31110000Y-92225000D02*
X31110000Y-91925000D01*
G75*
G02*
X31260000Y-91775000I150000J0D01*
G01*
X32935000Y-91775000D01*
G75*
G02*
X33085000Y-91925000I0J-150000D01*
G01*
X33085000Y-92225000D01*
G75*
G02*
X32935000Y-92375000I-150000J0D01*
G01*
X31260000Y-92375000D01*
G75*
G02*
X31110000Y-92225000I0J150000D01*
G01*
G37*
G36*
G01*
X31110000Y-90955000D02*
X31110000Y-90655000D01*
G75*
G02*
X31260000Y-90505000I150000J0D01*
G01*
X32935000Y-90505000D01*
G75*
G02*
X33085000Y-90655000I0J-150000D01*
G01*
X33085000Y-90955000D01*
G75*
G02*
X32935000Y-91105000I-150000J0D01*
G01*
X31260000Y-91105000D01*
G75*
G02*
X31110000Y-90955000I0J150000D01*
G01*
G37*
G36*
G01*
X31110000Y-89685000D02*
X31110000Y-89385000D01*
G75*
G02*
X31260000Y-89235000I150000J0D01*
G01*
X32935000Y-89235000D01*
G75*
G02*
X33085000Y-89385000I0J-150000D01*
G01*
X33085000Y-89685000D01*
G75*
G02*
X32935000Y-89835000I-150000J0D01*
G01*
X31260000Y-89835000D01*
G75*
G02*
X31110000Y-89685000I0J150000D01*
G01*
G37*
G36*
G01*
X31110000Y-88415000D02*
X31110000Y-88115000D01*
G75*
G02*
X31260000Y-87965000I150000J0D01*
G01*
X32935000Y-87965000D01*
G75*
G02*
X33085000Y-88115000I0J-150000D01*
G01*
X33085000Y-88415000D01*
G75*
G02*
X32935000Y-88565000I-150000J0D01*
G01*
X31260000Y-88565000D01*
G75*
G02*
X31110000Y-88415000I0J150000D01*
G01*
G37*
G36*
G01*
X31110000Y-87145000D02*
X31110000Y-86845000D01*
G75*
G02*
X31260000Y-86695000I150000J0D01*
G01*
X32935000Y-86695000D01*
G75*
G02*
X33085000Y-86845000I0J-150000D01*
G01*
X33085000Y-87145000D01*
G75*
G02*
X32935000Y-87295000I-150000J0D01*
G01*
X31260000Y-87295000D01*
G75*
G02*
X31110000Y-87145000I0J150000D01*
G01*
G37*
G36*
G01*
X31110000Y-85875000D02*
X31110000Y-85575000D01*
G75*
G02*
X31260000Y-85425000I150000J0D01*
G01*
X32935000Y-85425000D01*
G75*
G02*
X33085000Y-85575000I0J-150000D01*
G01*
X33085000Y-85875000D01*
G75*
G02*
X32935000Y-86025000I-150000J0D01*
G01*
X31260000Y-86025000D01*
G75*
G02*
X31110000Y-85875000I0J150000D01*
G01*
G37*
G36*
G01*
X31110000Y-84605000D02*
X31110000Y-84305000D01*
G75*
G02*
X31260000Y-84155000I150000J0D01*
G01*
X32935000Y-84155000D01*
G75*
G02*
X33085000Y-84305000I0J-150000D01*
G01*
X33085000Y-84605000D01*
G75*
G02*
X32935000Y-84755000I-150000J0D01*
G01*
X31260000Y-84755000D01*
G75*
G02*
X31110000Y-84605000I0J150000D01*
G01*
G37*
G36*
G01*
X31110000Y-83335000D02*
X31110000Y-83035000D01*
G75*
G02*
X31260000Y-82885000I150000J0D01*
G01*
X32935000Y-82885000D01*
G75*
G02*
X33085000Y-83035000I0J-150000D01*
G01*
X33085000Y-83335000D01*
G75*
G02*
X32935000Y-83485000I-150000J0D01*
G01*
X31260000Y-83485000D01*
G75*
G02*
X31110000Y-83335000I0J150000D01*
G01*
G37*
%TD*%
%TO.C,U14*%
G36*
G01*
X95020000Y-60810000D02*
X95020000Y-61110000D01*
G75*
G02*
X94870000Y-61260000I-150000J0D01*
G01*
X93220000Y-61260000D01*
G75*
G02*
X93070000Y-61110000I0J150000D01*
G01*
X93070000Y-60810000D01*
G75*
G02*
X93220000Y-60660000I150000J0D01*
G01*
X94870000Y-60660000D01*
G75*
G02*
X95020000Y-60810000I0J-150000D01*
G01*
G37*
G36*
G01*
X95020000Y-59540000D02*
X95020000Y-59840000D01*
G75*
G02*
X94870000Y-59990000I-150000J0D01*
G01*
X93220000Y-59990000D01*
G75*
G02*
X93070000Y-59840000I0J150000D01*
G01*
X93070000Y-59540000D01*
G75*
G02*
X93220000Y-59390000I150000J0D01*
G01*
X94870000Y-59390000D01*
G75*
G02*
X95020000Y-59540000I0J-150000D01*
G01*
G37*
G36*
G01*
X95020000Y-58270000D02*
X95020000Y-58570000D01*
G75*
G02*
X94870000Y-58720000I-150000J0D01*
G01*
X93220000Y-58720000D01*
G75*
G02*
X93070000Y-58570000I0J150000D01*
G01*
X93070000Y-58270000D01*
G75*
G02*
X93220000Y-58120000I150000J0D01*
G01*
X94870000Y-58120000D01*
G75*
G02*
X95020000Y-58270000I0J-150000D01*
G01*
G37*
G36*
G01*
X95020000Y-57000000D02*
X95020000Y-57300000D01*
G75*
G02*
X94870000Y-57450000I-150000J0D01*
G01*
X93220000Y-57450000D01*
G75*
G02*
X93070000Y-57300000I0J150000D01*
G01*
X93070000Y-57000000D01*
G75*
G02*
X93220000Y-56850000I150000J0D01*
G01*
X94870000Y-56850000D01*
G75*
G02*
X95020000Y-57000000I0J-150000D01*
G01*
G37*
G36*
G01*
X95020000Y-55730000D02*
X95020000Y-56030000D01*
G75*
G02*
X94870000Y-56180000I-150000J0D01*
G01*
X93220000Y-56180000D01*
G75*
G02*
X93070000Y-56030000I0J150000D01*
G01*
X93070000Y-55730000D01*
G75*
G02*
X93220000Y-55580000I150000J0D01*
G01*
X94870000Y-55580000D01*
G75*
G02*
X95020000Y-55730000I0J-150000D01*
G01*
G37*
G36*
G01*
X95020000Y-54460000D02*
X95020000Y-54760000D01*
G75*
G02*
X94870000Y-54910000I-150000J0D01*
G01*
X93220000Y-54910000D01*
G75*
G02*
X93070000Y-54760000I0J150000D01*
G01*
X93070000Y-54460000D01*
G75*
G02*
X93220000Y-54310000I150000J0D01*
G01*
X94870000Y-54310000D01*
G75*
G02*
X95020000Y-54460000I0J-150000D01*
G01*
G37*
G36*
G01*
X95020000Y-53190000D02*
X95020000Y-53490000D01*
G75*
G02*
X94870000Y-53640000I-150000J0D01*
G01*
X93220000Y-53640000D01*
G75*
G02*
X93070000Y-53490000I0J150000D01*
G01*
X93070000Y-53190000D01*
G75*
G02*
X93220000Y-53040000I150000J0D01*
G01*
X94870000Y-53040000D01*
G75*
G02*
X95020000Y-53190000I0J-150000D01*
G01*
G37*
G36*
G01*
X95020000Y-51920000D02*
X95020000Y-52220000D01*
G75*
G02*
X94870000Y-52370000I-150000J0D01*
G01*
X93220000Y-52370000D01*
G75*
G02*
X93070000Y-52220000I0J150000D01*
G01*
X93070000Y-51920000D01*
G75*
G02*
X93220000Y-51770000I150000J0D01*
G01*
X94870000Y-51770000D01*
G75*
G02*
X95020000Y-51920000I0J-150000D01*
G01*
G37*
G36*
G01*
X99970000Y-51920000D02*
X99970000Y-52220000D01*
G75*
G02*
X99820000Y-52370000I-150000J0D01*
G01*
X98170000Y-52370000D01*
G75*
G02*
X98020000Y-52220000I0J150000D01*
G01*
X98020000Y-51920000D01*
G75*
G02*
X98170000Y-51770000I150000J0D01*
G01*
X99820000Y-51770000D01*
G75*
G02*
X99970000Y-51920000I0J-150000D01*
G01*
G37*
G36*
G01*
X99970000Y-53190000D02*
X99970000Y-53490000D01*
G75*
G02*
X99820000Y-53640000I-150000J0D01*
G01*
X98170000Y-53640000D01*
G75*
G02*
X98020000Y-53490000I0J150000D01*
G01*
X98020000Y-53190000D01*
G75*
G02*
X98170000Y-53040000I150000J0D01*
G01*
X99820000Y-53040000D01*
G75*
G02*
X99970000Y-53190000I0J-150000D01*
G01*
G37*
G36*
G01*
X99970000Y-54460000D02*
X99970000Y-54760000D01*
G75*
G02*
X99820000Y-54910000I-150000J0D01*
G01*
X98170000Y-54910000D01*
G75*
G02*
X98020000Y-54760000I0J150000D01*
G01*
X98020000Y-54460000D01*
G75*
G02*
X98170000Y-54310000I150000J0D01*
G01*
X99820000Y-54310000D01*
G75*
G02*
X99970000Y-54460000I0J-150000D01*
G01*
G37*
G36*
G01*
X99970000Y-55730000D02*
X99970000Y-56030000D01*
G75*
G02*
X99820000Y-56180000I-150000J0D01*
G01*
X98170000Y-56180000D01*
G75*
G02*
X98020000Y-56030000I0J150000D01*
G01*
X98020000Y-55730000D01*
G75*
G02*
X98170000Y-55580000I150000J0D01*
G01*
X99820000Y-55580000D01*
G75*
G02*
X99970000Y-55730000I0J-150000D01*
G01*
G37*
G36*
G01*
X99970000Y-57000000D02*
X99970000Y-57300000D01*
G75*
G02*
X99820000Y-57450000I-150000J0D01*
G01*
X98170000Y-57450000D01*
G75*
G02*
X98020000Y-57300000I0J150000D01*
G01*
X98020000Y-57000000D01*
G75*
G02*
X98170000Y-56850000I150000J0D01*
G01*
X99820000Y-56850000D01*
G75*
G02*
X99970000Y-57000000I0J-150000D01*
G01*
G37*
G36*
G01*
X99970000Y-58270000D02*
X99970000Y-58570000D01*
G75*
G02*
X99820000Y-58720000I-150000J0D01*
G01*
X98170000Y-58720000D01*
G75*
G02*
X98020000Y-58570000I0J150000D01*
G01*
X98020000Y-58270000D01*
G75*
G02*
X98170000Y-58120000I150000J0D01*
G01*
X99820000Y-58120000D01*
G75*
G02*
X99970000Y-58270000I0J-150000D01*
G01*
G37*
G36*
G01*
X99970000Y-59540000D02*
X99970000Y-59840000D01*
G75*
G02*
X99820000Y-59990000I-150000J0D01*
G01*
X98170000Y-59990000D01*
G75*
G02*
X98020000Y-59840000I0J150000D01*
G01*
X98020000Y-59540000D01*
G75*
G02*
X98170000Y-59390000I150000J0D01*
G01*
X99820000Y-59390000D01*
G75*
G02*
X99970000Y-59540000I0J-150000D01*
G01*
G37*
G36*
G01*
X99970000Y-60810000D02*
X99970000Y-61110000D01*
G75*
G02*
X99820000Y-61260000I-150000J0D01*
G01*
X98170000Y-61260000D01*
G75*
G02*
X98020000Y-61110000I0J150000D01*
G01*
X98020000Y-60810000D01*
G75*
G02*
X98170000Y-60660000I150000J0D01*
G01*
X99820000Y-60660000D01*
G75*
G02*
X99970000Y-60810000I0J-150000D01*
G01*
G37*
%TD*%
%TO.C,U13*%
G36*
G01*
X84860000Y-60810000D02*
X84860000Y-61110000D01*
G75*
G02*
X84710000Y-61260000I-150000J0D01*
G01*
X83060000Y-61260000D01*
G75*
G02*
X82910000Y-61110000I0J150000D01*
G01*
X82910000Y-60810000D01*
G75*
G02*
X83060000Y-60660000I150000J0D01*
G01*
X84710000Y-60660000D01*
G75*
G02*
X84860000Y-60810000I0J-150000D01*
G01*
G37*
G36*
G01*
X84860000Y-59540000D02*
X84860000Y-59840000D01*
G75*
G02*
X84710000Y-59990000I-150000J0D01*
G01*
X83060000Y-59990000D01*
G75*
G02*
X82910000Y-59840000I0J150000D01*
G01*
X82910000Y-59540000D01*
G75*
G02*
X83060000Y-59390000I150000J0D01*
G01*
X84710000Y-59390000D01*
G75*
G02*
X84860000Y-59540000I0J-150000D01*
G01*
G37*
G36*
G01*
X84860000Y-58270000D02*
X84860000Y-58570000D01*
G75*
G02*
X84710000Y-58720000I-150000J0D01*
G01*
X83060000Y-58720000D01*
G75*
G02*
X82910000Y-58570000I0J150000D01*
G01*
X82910000Y-58270000D01*
G75*
G02*
X83060000Y-58120000I150000J0D01*
G01*
X84710000Y-58120000D01*
G75*
G02*
X84860000Y-58270000I0J-150000D01*
G01*
G37*
G36*
G01*
X84860000Y-57000000D02*
X84860000Y-57300000D01*
G75*
G02*
X84710000Y-57450000I-150000J0D01*
G01*
X83060000Y-57450000D01*
G75*
G02*
X82910000Y-57300000I0J150000D01*
G01*
X82910000Y-57000000D01*
G75*
G02*
X83060000Y-56850000I150000J0D01*
G01*
X84710000Y-56850000D01*
G75*
G02*
X84860000Y-57000000I0J-150000D01*
G01*
G37*
G36*
G01*
X84860000Y-55730000D02*
X84860000Y-56030000D01*
G75*
G02*
X84710000Y-56180000I-150000J0D01*
G01*
X83060000Y-56180000D01*
G75*
G02*
X82910000Y-56030000I0J150000D01*
G01*
X82910000Y-55730000D01*
G75*
G02*
X83060000Y-55580000I150000J0D01*
G01*
X84710000Y-55580000D01*
G75*
G02*
X84860000Y-55730000I0J-150000D01*
G01*
G37*
G36*
G01*
X84860000Y-54460000D02*
X84860000Y-54760000D01*
G75*
G02*
X84710000Y-54910000I-150000J0D01*
G01*
X83060000Y-54910000D01*
G75*
G02*
X82910000Y-54760000I0J150000D01*
G01*
X82910000Y-54460000D01*
G75*
G02*
X83060000Y-54310000I150000J0D01*
G01*
X84710000Y-54310000D01*
G75*
G02*
X84860000Y-54460000I0J-150000D01*
G01*
G37*
G36*
G01*
X84860000Y-53190000D02*
X84860000Y-53490000D01*
G75*
G02*
X84710000Y-53640000I-150000J0D01*
G01*
X83060000Y-53640000D01*
G75*
G02*
X82910000Y-53490000I0J150000D01*
G01*
X82910000Y-53190000D01*
G75*
G02*
X83060000Y-53040000I150000J0D01*
G01*
X84710000Y-53040000D01*
G75*
G02*
X84860000Y-53190000I0J-150000D01*
G01*
G37*
G36*
G01*
X84860000Y-51920000D02*
X84860000Y-52220000D01*
G75*
G02*
X84710000Y-52370000I-150000J0D01*
G01*
X83060000Y-52370000D01*
G75*
G02*
X82910000Y-52220000I0J150000D01*
G01*
X82910000Y-51920000D01*
G75*
G02*
X83060000Y-51770000I150000J0D01*
G01*
X84710000Y-51770000D01*
G75*
G02*
X84860000Y-51920000I0J-150000D01*
G01*
G37*
G36*
G01*
X89810000Y-51920000D02*
X89810000Y-52220000D01*
G75*
G02*
X89660000Y-52370000I-150000J0D01*
G01*
X88010000Y-52370000D01*
G75*
G02*
X87860000Y-52220000I0J150000D01*
G01*
X87860000Y-51920000D01*
G75*
G02*
X88010000Y-51770000I150000J0D01*
G01*
X89660000Y-51770000D01*
G75*
G02*
X89810000Y-51920000I0J-150000D01*
G01*
G37*
G36*
G01*
X89810000Y-53190000D02*
X89810000Y-53490000D01*
G75*
G02*
X89660000Y-53640000I-150000J0D01*
G01*
X88010000Y-53640000D01*
G75*
G02*
X87860000Y-53490000I0J150000D01*
G01*
X87860000Y-53190000D01*
G75*
G02*
X88010000Y-53040000I150000J0D01*
G01*
X89660000Y-53040000D01*
G75*
G02*
X89810000Y-53190000I0J-150000D01*
G01*
G37*
G36*
G01*
X89810000Y-54460000D02*
X89810000Y-54760000D01*
G75*
G02*
X89660000Y-54910000I-150000J0D01*
G01*
X88010000Y-54910000D01*
G75*
G02*
X87860000Y-54760000I0J150000D01*
G01*
X87860000Y-54460000D01*
G75*
G02*
X88010000Y-54310000I150000J0D01*
G01*
X89660000Y-54310000D01*
G75*
G02*
X89810000Y-54460000I0J-150000D01*
G01*
G37*
G36*
G01*
X89810000Y-55730000D02*
X89810000Y-56030000D01*
G75*
G02*
X89660000Y-56180000I-150000J0D01*
G01*
X88010000Y-56180000D01*
G75*
G02*
X87860000Y-56030000I0J150000D01*
G01*
X87860000Y-55730000D01*
G75*
G02*
X88010000Y-55580000I150000J0D01*
G01*
X89660000Y-55580000D01*
G75*
G02*
X89810000Y-55730000I0J-150000D01*
G01*
G37*
G36*
G01*
X89810000Y-57000000D02*
X89810000Y-57300000D01*
G75*
G02*
X89660000Y-57450000I-150000J0D01*
G01*
X88010000Y-57450000D01*
G75*
G02*
X87860000Y-57300000I0J150000D01*
G01*
X87860000Y-57000000D01*
G75*
G02*
X88010000Y-56850000I150000J0D01*
G01*
X89660000Y-56850000D01*
G75*
G02*
X89810000Y-57000000I0J-150000D01*
G01*
G37*
G36*
G01*
X89810000Y-58270000D02*
X89810000Y-58570000D01*
G75*
G02*
X89660000Y-58720000I-150000J0D01*
G01*
X88010000Y-58720000D01*
G75*
G02*
X87860000Y-58570000I0J150000D01*
G01*
X87860000Y-58270000D01*
G75*
G02*
X88010000Y-58120000I150000J0D01*
G01*
X89660000Y-58120000D01*
G75*
G02*
X89810000Y-58270000I0J-150000D01*
G01*
G37*
G36*
G01*
X89810000Y-59540000D02*
X89810000Y-59840000D01*
G75*
G02*
X89660000Y-59990000I-150000J0D01*
G01*
X88010000Y-59990000D01*
G75*
G02*
X87860000Y-59840000I0J150000D01*
G01*
X87860000Y-59540000D01*
G75*
G02*
X88010000Y-59390000I150000J0D01*
G01*
X89660000Y-59390000D01*
G75*
G02*
X89810000Y-59540000I0J-150000D01*
G01*
G37*
G36*
G01*
X89810000Y-60810000D02*
X89810000Y-61110000D01*
G75*
G02*
X89660000Y-61260000I-150000J0D01*
G01*
X88010000Y-61260000D01*
G75*
G02*
X87860000Y-61110000I0J150000D01*
G01*
X87860000Y-60810000D01*
G75*
G02*
X88010000Y-60660000I150000J0D01*
G01*
X89660000Y-60660000D01*
G75*
G02*
X89810000Y-60810000I0J-150000D01*
G01*
G37*
%TD*%
%TO.C,U6*%
G36*
G01*
X49760000Y-67460000D02*
X49760000Y-67160000D01*
G75*
G02*
X49910000Y-67010000I150000J0D01*
G01*
X51560000Y-67010000D01*
G75*
G02*
X51710000Y-67160000I0J-150000D01*
G01*
X51710000Y-67460000D01*
G75*
G02*
X51560000Y-67610000I-150000J0D01*
G01*
X49910000Y-67610000D01*
G75*
G02*
X49760000Y-67460000I0J150000D01*
G01*
G37*
G36*
G01*
X49760000Y-68730000D02*
X49760000Y-68430000D01*
G75*
G02*
X49910000Y-68280000I150000J0D01*
G01*
X51560000Y-68280000D01*
G75*
G02*
X51710000Y-68430000I0J-150000D01*
G01*
X51710000Y-68730000D01*
G75*
G02*
X51560000Y-68880000I-150000J0D01*
G01*
X49910000Y-68880000D01*
G75*
G02*
X49760000Y-68730000I0J150000D01*
G01*
G37*
G36*
G01*
X49760000Y-70000000D02*
X49760000Y-69700000D01*
G75*
G02*
X49910000Y-69550000I150000J0D01*
G01*
X51560000Y-69550000D01*
G75*
G02*
X51710000Y-69700000I0J-150000D01*
G01*
X51710000Y-70000000D01*
G75*
G02*
X51560000Y-70150000I-150000J0D01*
G01*
X49910000Y-70150000D01*
G75*
G02*
X49760000Y-70000000I0J150000D01*
G01*
G37*
G36*
G01*
X49760000Y-71270000D02*
X49760000Y-70970000D01*
G75*
G02*
X49910000Y-70820000I150000J0D01*
G01*
X51560000Y-70820000D01*
G75*
G02*
X51710000Y-70970000I0J-150000D01*
G01*
X51710000Y-71270000D01*
G75*
G02*
X51560000Y-71420000I-150000J0D01*
G01*
X49910000Y-71420000D01*
G75*
G02*
X49760000Y-71270000I0J150000D01*
G01*
G37*
G36*
G01*
X49760000Y-72540000D02*
X49760000Y-72240000D01*
G75*
G02*
X49910000Y-72090000I150000J0D01*
G01*
X51560000Y-72090000D01*
G75*
G02*
X51710000Y-72240000I0J-150000D01*
G01*
X51710000Y-72540000D01*
G75*
G02*
X51560000Y-72690000I-150000J0D01*
G01*
X49910000Y-72690000D01*
G75*
G02*
X49760000Y-72540000I0J150000D01*
G01*
G37*
G36*
G01*
X49760000Y-73810000D02*
X49760000Y-73510000D01*
G75*
G02*
X49910000Y-73360000I150000J0D01*
G01*
X51560000Y-73360000D01*
G75*
G02*
X51710000Y-73510000I0J-150000D01*
G01*
X51710000Y-73810000D01*
G75*
G02*
X51560000Y-73960000I-150000J0D01*
G01*
X49910000Y-73960000D01*
G75*
G02*
X49760000Y-73810000I0J150000D01*
G01*
G37*
G36*
G01*
X49760000Y-75080000D02*
X49760000Y-74780000D01*
G75*
G02*
X49910000Y-74630000I150000J0D01*
G01*
X51560000Y-74630000D01*
G75*
G02*
X51710000Y-74780000I0J-150000D01*
G01*
X51710000Y-75080000D01*
G75*
G02*
X51560000Y-75230000I-150000J0D01*
G01*
X49910000Y-75230000D01*
G75*
G02*
X49760000Y-75080000I0J150000D01*
G01*
G37*
G36*
G01*
X44810000Y-75080000D02*
X44810000Y-74780000D01*
G75*
G02*
X44960000Y-74630000I150000J0D01*
G01*
X46610000Y-74630000D01*
G75*
G02*
X46760000Y-74780000I0J-150000D01*
G01*
X46760000Y-75080000D01*
G75*
G02*
X46610000Y-75230000I-150000J0D01*
G01*
X44960000Y-75230000D01*
G75*
G02*
X44810000Y-75080000I0J150000D01*
G01*
G37*
G36*
G01*
X44810000Y-73810000D02*
X44810000Y-73510000D01*
G75*
G02*
X44960000Y-73360000I150000J0D01*
G01*
X46610000Y-73360000D01*
G75*
G02*
X46760000Y-73510000I0J-150000D01*
G01*
X46760000Y-73810000D01*
G75*
G02*
X46610000Y-73960000I-150000J0D01*
G01*
X44960000Y-73960000D01*
G75*
G02*
X44810000Y-73810000I0J150000D01*
G01*
G37*
G36*
G01*
X44810000Y-72540000D02*
X44810000Y-72240000D01*
G75*
G02*
X44960000Y-72090000I150000J0D01*
G01*
X46610000Y-72090000D01*
G75*
G02*
X46760000Y-72240000I0J-150000D01*
G01*
X46760000Y-72540000D01*
G75*
G02*
X46610000Y-72690000I-150000J0D01*
G01*
X44960000Y-72690000D01*
G75*
G02*
X44810000Y-72540000I0J150000D01*
G01*
G37*
G36*
G01*
X44810000Y-71270000D02*
X44810000Y-70970000D01*
G75*
G02*
X44960000Y-70820000I150000J0D01*
G01*
X46610000Y-70820000D01*
G75*
G02*
X46760000Y-70970000I0J-150000D01*
G01*
X46760000Y-71270000D01*
G75*
G02*
X46610000Y-71420000I-150000J0D01*
G01*
X44960000Y-71420000D01*
G75*
G02*
X44810000Y-71270000I0J150000D01*
G01*
G37*
G36*
G01*
X44810000Y-70000000D02*
X44810000Y-69700000D01*
G75*
G02*
X44960000Y-69550000I150000J0D01*
G01*
X46610000Y-69550000D01*
G75*
G02*
X46760000Y-69700000I0J-150000D01*
G01*
X46760000Y-70000000D01*
G75*
G02*
X46610000Y-70150000I-150000J0D01*
G01*
X44960000Y-70150000D01*
G75*
G02*
X44810000Y-70000000I0J150000D01*
G01*
G37*
G36*
G01*
X44810000Y-68730000D02*
X44810000Y-68430000D01*
G75*
G02*
X44960000Y-68280000I150000J0D01*
G01*
X46610000Y-68280000D01*
G75*
G02*
X46760000Y-68430000I0J-150000D01*
G01*
X46760000Y-68730000D01*
G75*
G02*
X46610000Y-68880000I-150000J0D01*
G01*
X44960000Y-68880000D01*
G75*
G02*
X44810000Y-68730000I0J150000D01*
G01*
G37*
G36*
G01*
X44810000Y-67460000D02*
X44810000Y-67160000D01*
G75*
G02*
X44960000Y-67010000I150000J0D01*
G01*
X46610000Y-67010000D01*
G75*
G02*
X46760000Y-67160000I0J-150000D01*
G01*
X46760000Y-67460000D01*
G75*
G02*
X46610000Y-67610000I-150000J0D01*
G01*
X44960000Y-67610000D01*
G75*
G02*
X44810000Y-67460000I0J150000D01*
G01*
G37*
%TD*%
%TO.C,U2*%
G36*
G01*
X69445000Y-44600000D02*
X69445000Y-44300000D01*
G75*
G02*
X69595000Y-44150000I150000J0D01*
G01*
X71245000Y-44150000D01*
G75*
G02*
X71395000Y-44300000I0J-150000D01*
G01*
X71395000Y-44600000D01*
G75*
G02*
X71245000Y-44750000I-150000J0D01*
G01*
X69595000Y-44750000D01*
G75*
G02*
X69445000Y-44600000I0J150000D01*
G01*
G37*
G36*
G01*
X69445000Y-45870000D02*
X69445000Y-45570000D01*
G75*
G02*
X69595000Y-45420000I150000J0D01*
G01*
X71245000Y-45420000D01*
G75*
G02*
X71395000Y-45570000I0J-150000D01*
G01*
X71395000Y-45870000D01*
G75*
G02*
X71245000Y-46020000I-150000J0D01*
G01*
X69595000Y-46020000D01*
G75*
G02*
X69445000Y-45870000I0J150000D01*
G01*
G37*
G36*
G01*
X69445000Y-47140000D02*
X69445000Y-46840000D01*
G75*
G02*
X69595000Y-46690000I150000J0D01*
G01*
X71245000Y-46690000D01*
G75*
G02*
X71395000Y-46840000I0J-150000D01*
G01*
X71395000Y-47140000D01*
G75*
G02*
X71245000Y-47290000I-150000J0D01*
G01*
X69595000Y-47290000D01*
G75*
G02*
X69445000Y-47140000I0J150000D01*
G01*
G37*
G36*
G01*
X69445000Y-48410000D02*
X69445000Y-48110000D01*
G75*
G02*
X69595000Y-47960000I150000J0D01*
G01*
X71245000Y-47960000D01*
G75*
G02*
X71395000Y-48110000I0J-150000D01*
G01*
X71395000Y-48410000D01*
G75*
G02*
X71245000Y-48560000I-150000J0D01*
G01*
X69595000Y-48560000D01*
G75*
G02*
X69445000Y-48410000I0J150000D01*
G01*
G37*
G36*
G01*
X69445000Y-49680000D02*
X69445000Y-49380000D01*
G75*
G02*
X69595000Y-49230000I150000J0D01*
G01*
X71245000Y-49230000D01*
G75*
G02*
X71395000Y-49380000I0J-150000D01*
G01*
X71395000Y-49680000D01*
G75*
G02*
X71245000Y-49830000I-150000J0D01*
G01*
X69595000Y-49830000D01*
G75*
G02*
X69445000Y-49680000I0J150000D01*
G01*
G37*
G36*
G01*
X69445000Y-50950000D02*
X69445000Y-50650000D01*
G75*
G02*
X69595000Y-50500000I150000J0D01*
G01*
X71245000Y-50500000D01*
G75*
G02*
X71395000Y-50650000I0J-150000D01*
G01*
X71395000Y-50950000D01*
G75*
G02*
X71245000Y-51100000I-150000J0D01*
G01*
X69595000Y-51100000D01*
G75*
G02*
X69445000Y-50950000I0J150000D01*
G01*
G37*
G36*
G01*
X69445000Y-52220000D02*
X69445000Y-51920000D01*
G75*
G02*
X69595000Y-51770000I150000J0D01*
G01*
X71245000Y-51770000D01*
G75*
G02*
X71395000Y-51920000I0J-150000D01*
G01*
X71395000Y-52220000D01*
G75*
G02*
X71245000Y-52370000I-150000J0D01*
G01*
X69595000Y-52370000D01*
G75*
G02*
X69445000Y-52220000I0J150000D01*
G01*
G37*
G36*
G01*
X64495000Y-52220000D02*
X64495000Y-51920000D01*
G75*
G02*
X64645000Y-51770000I150000J0D01*
G01*
X66295000Y-51770000D01*
G75*
G02*
X66445000Y-51920000I0J-150000D01*
G01*
X66445000Y-52220000D01*
G75*
G02*
X66295000Y-52370000I-150000J0D01*
G01*
X64645000Y-52370000D01*
G75*
G02*
X64495000Y-52220000I0J150000D01*
G01*
G37*
G36*
G01*
X64495000Y-50950000D02*
X64495000Y-50650000D01*
G75*
G02*
X64645000Y-50500000I150000J0D01*
G01*
X66295000Y-50500000D01*
G75*
G02*
X66445000Y-50650000I0J-150000D01*
G01*
X66445000Y-50950000D01*
G75*
G02*
X66295000Y-51100000I-150000J0D01*
G01*
X64645000Y-51100000D01*
G75*
G02*
X64495000Y-50950000I0J150000D01*
G01*
G37*
G36*
G01*
X64495000Y-49680000D02*
X64495000Y-49380000D01*
G75*
G02*
X64645000Y-49230000I150000J0D01*
G01*
X66295000Y-49230000D01*
G75*
G02*
X66445000Y-49380000I0J-150000D01*
G01*
X66445000Y-49680000D01*
G75*
G02*
X66295000Y-49830000I-150000J0D01*
G01*
X64645000Y-49830000D01*
G75*
G02*
X64495000Y-49680000I0J150000D01*
G01*
G37*
G36*
G01*
X64495000Y-48410000D02*
X64495000Y-48110000D01*
G75*
G02*
X64645000Y-47960000I150000J0D01*
G01*
X66295000Y-47960000D01*
G75*
G02*
X66445000Y-48110000I0J-150000D01*
G01*
X66445000Y-48410000D01*
G75*
G02*
X66295000Y-48560000I-150000J0D01*
G01*
X64645000Y-48560000D01*
G75*
G02*
X64495000Y-48410000I0J150000D01*
G01*
G37*
G36*
G01*
X64495000Y-47140000D02*
X64495000Y-46840000D01*
G75*
G02*
X64645000Y-46690000I150000J0D01*
G01*
X66295000Y-46690000D01*
G75*
G02*
X66445000Y-46840000I0J-150000D01*
G01*
X66445000Y-47140000D01*
G75*
G02*
X66295000Y-47290000I-150000J0D01*
G01*
X64645000Y-47290000D01*
G75*
G02*
X64495000Y-47140000I0J150000D01*
G01*
G37*
G36*
G01*
X64495000Y-45870000D02*
X64495000Y-45570000D01*
G75*
G02*
X64645000Y-45420000I150000J0D01*
G01*
X66295000Y-45420000D01*
G75*
G02*
X66445000Y-45570000I0J-150000D01*
G01*
X66445000Y-45870000D01*
G75*
G02*
X66295000Y-46020000I-150000J0D01*
G01*
X64645000Y-46020000D01*
G75*
G02*
X64495000Y-45870000I0J150000D01*
G01*
G37*
G36*
G01*
X64495000Y-44600000D02*
X64495000Y-44300000D01*
G75*
G02*
X64645000Y-44150000I150000J0D01*
G01*
X66295000Y-44150000D01*
G75*
G02*
X66445000Y-44300000I0J-150000D01*
G01*
X66445000Y-44600000D01*
G75*
G02*
X66295000Y-44750000I-150000J0D01*
G01*
X64645000Y-44750000D01*
G75*
G02*
X64495000Y-44600000I0J150000D01*
G01*
G37*
%TD*%
%TO.C,U10*%
G36*
G01*
X33085000Y-76685000D02*
X33085000Y-76985000D01*
G75*
G02*
X32935000Y-77135000I-150000J0D01*
G01*
X31260000Y-77135000D01*
G75*
G02*
X31110000Y-76985000I0J150000D01*
G01*
X31110000Y-76685000D01*
G75*
G02*
X31260000Y-76535000I150000J0D01*
G01*
X32935000Y-76535000D01*
G75*
G02*
X33085000Y-76685000I0J-150000D01*
G01*
G37*
G36*
G01*
X33085000Y-75415000D02*
X33085000Y-75715000D01*
G75*
G02*
X32935000Y-75865000I-150000J0D01*
G01*
X31260000Y-75865000D01*
G75*
G02*
X31110000Y-75715000I0J150000D01*
G01*
X31110000Y-75415000D01*
G75*
G02*
X31260000Y-75265000I150000J0D01*
G01*
X32935000Y-75265000D01*
G75*
G02*
X33085000Y-75415000I0J-150000D01*
G01*
G37*
G36*
G01*
X33085000Y-74145000D02*
X33085000Y-74445000D01*
G75*
G02*
X32935000Y-74595000I-150000J0D01*
G01*
X31260000Y-74595000D01*
G75*
G02*
X31110000Y-74445000I0J150000D01*
G01*
X31110000Y-74145000D01*
G75*
G02*
X31260000Y-73995000I150000J0D01*
G01*
X32935000Y-73995000D01*
G75*
G02*
X33085000Y-74145000I0J-150000D01*
G01*
G37*
G36*
G01*
X33085000Y-72875000D02*
X33085000Y-73175000D01*
G75*
G02*
X32935000Y-73325000I-150000J0D01*
G01*
X31260000Y-73325000D01*
G75*
G02*
X31110000Y-73175000I0J150000D01*
G01*
X31110000Y-72875000D01*
G75*
G02*
X31260000Y-72725000I150000J0D01*
G01*
X32935000Y-72725000D01*
G75*
G02*
X33085000Y-72875000I0J-150000D01*
G01*
G37*
G36*
G01*
X33085000Y-71605000D02*
X33085000Y-71905000D01*
G75*
G02*
X32935000Y-72055000I-150000J0D01*
G01*
X31260000Y-72055000D01*
G75*
G02*
X31110000Y-71905000I0J150000D01*
G01*
X31110000Y-71605000D01*
G75*
G02*
X31260000Y-71455000I150000J0D01*
G01*
X32935000Y-71455000D01*
G75*
G02*
X33085000Y-71605000I0J-150000D01*
G01*
G37*
G36*
G01*
X33085000Y-70335000D02*
X33085000Y-70635000D01*
G75*
G02*
X32935000Y-70785000I-150000J0D01*
G01*
X31260000Y-70785000D01*
G75*
G02*
X31110000Y-70635000I0J150000D01*
G01*
X31110000Y-70335000D01*
G75*
G02*
X31260000Y-70185000I150000J0D01*
G01*
X32935000Y-70185000D01*
G75*
G02*
X33085000Y-70335000I0J-150000D01*
G01*
G37*
G36*
G01*
X33085000Y-69065000D02*
X33085000Y-69365000D01*
G75*
G02*
X32935000Y-69515000I-150000J0D01*
G01*
X31260000Y-69515000D01*
G75*
G02*
X31110000Y-69365000I0J150000D01*
G01*
X31110000Y-69065000D01*
G75*
G02*
X31260000Y-68915000I150000J0D01*
G01*
X32935000Y-68915000D01*
G75*
G02*
X33085000Y-69065000I0J-150000D01*
G01*
G37*
G36*
G01*
X33085000Y-67795000D02*
X33085000Y-68095000D01*
G75*
G02*
X32935000Y-68245000I-150000J0D01*
G01*
X31260000Y-68245000D01*
G75*
G02*
X31110000Y-68095000I0J150000D01*
G01*
X31110000Y-67795000D01*
G75*
G02*
X31260000Y-67645000I150000J0D01*
G01*
X32935000Y-67645000D01*
G75*
G02*
X33085000Y-67795000I0J-150000D01*
G01*
G37*
G36*
G01*
X33085000Y-66525000D02*
X33085000Y-66825000D01*
G75*
G02*
X32935000Y-66975000I-150000J0D01*
G01*
X31260000Y-66975000D01*
G75*
G02*
X31110000Y-66825000I0J150000D01*
G01*
X31110000Y-66525000D01*
G75*
G02*
X31260000Y-66375000I150000J0D01*
G01*
X32935000Y-66375000D01*
G75*
G02*
X33085000Y-66525000I0J-150000D01*
G01*
G37*
G36*
G01*
X33085000Y-65255000D02*
X33085000Y-65555000D01*
G75*
G02*
X32935000Y-65705000I-150000J0D01*
G01*
X31260000Y-65705000D01*
G75*
G02*
X31110000Y-65555000I0J150000D01*
G01*
X31110000Y-65255000D01*
G75*
G02*
X31260000Y-65105000I150000J0D01*
G01*
X32935000Y-65105000D01*
G75*
G02*
X33085000Y-65255000I0J-150000D01*
G01*
G37*
G36*
G01*
X40010000Y-65255000D02*
X40010000Y-65555000D01*
G75*
G02*
X39860000Y-65705000I-150000J0D01*
G01*
X38185000Y-65705000D01*
G75*
G02*
X38035000Y-65555000I0J150000D01*
G01*
X38035000Y-65255000D01*
G75*
G02*
X38185000Y-65105000I150000J0D01*
G01*
X39860000Y-65105000D01*
G75*
G02*
X40010000Y-65255000I0J-150000D01*
G01*
G37*
G36*
G01*
X40010000Y-66525000D02*
X40010000Y-66825000D01*
G75*
G02*
X39860000Y-66975000I-150000J0D01*
G01*
X38185000Y-66975000D01*
G75*
G02*
X38035000Y-66825000I0J150000D01*
G01*
X38035000Y-66525000D01*
G75*
G02*
X38185000Y-66375000I150000J0D01*
G01*
X39860000Y-66375000D01*
G75*
G02*
X40010000Y-66525000I0J-150000D01*
G01*
G37*
G36*
G01*
X40010000Y-67795000D02*
X40010000Y-68095000D01*
G75*
G02*
X39860000Y-68245000I-150000J0D01*
G01*
X38185000Y-68245000D01*
G75*
G02*
X38035000Y-68095000I0J150000D01*
G01*
X38035000Y-67795000D01*
G75*
G02*
X38185000Y-67645000I150000J0D01*
G01*
X39860000Y-67645000D01*
G75*
G02*
X40010000Y-67795000I0J-150000D01*
G01*
G37*
G36*
G01*
X40010000Y-69065000D02*
X40010000Y-69365000D01*
G75*
G02*
X39860000Y-69515000I-150000J0D01*
G01*
X38185000Y-69515000D01*
G75*
G02*
X38035000Y-69365000I0J150000D01*
G01*
X38035000Y-69065000D01*
G75*
G02*
X38185000Y-68915000I150000J0D01*
G01*
X39860000Y-68915000D01*
G75*
G02*
X40010000Y-69065000I0J-150000D01*
G01*
G37*
G36*
G01*
X40010000Y-70335000D02*
X40010000Y-70635000D01*
G75*
G02*
X39860000Y-70785000I-150000J0D01*
G01*
X38185000Y-70785000D01*
G75*
G02*
X38035000Y-70635000I0J150000D01*
G01*
X38035000Y-70335000D01*
G75*
G02*
X38185000Y-70185000I150000J0D01*
G01*
X39860000Y-70185000D01*
G75*
G02*
X40010000Y-70335000I0J-150000D01*
G01*
G37*
G36*
G01*
X40010000Y-71605000D02*
X40010000Y-71905000D01*
G75*
G02*
X39860000Y-72055000I-150000J0D01*
G01*
X38185000Y-72055000D01*
G75*
G02*
X38035000Y-71905000I0J150000D01*
G01*
X38035000Y-71605000D01*
G75*
G02*
X38185000Y-71455000I150000J0D01*
G01*
X39860000Y-71455000D01*
G75*
G02*
X40010000Y-71605000I0J-150000D01*
G01*
G37*
G36*
G01*
X40010000Y-72875000D02*
X40010000Y-73175000D01*
G75*
G02*
X39860000Y-73325000I-150000J0D01*
G01*
X38185000Y-73325000D01*
G75*
G02*
X38035000Y-73175000I0J150000D01*
G01*
X38035000Y-72875000D01*
G75*
G02*
X38185000Y-72725000I150000J0D01*
G01*
X39860000Y-72725000D01*
G75*
G02*
X40010000Y-72875000I0J-150000D01*
G01*
G37*
G36*
G01*
X40010000Y-74145000D02*
X40010000Y-74445000D01*
G75*
G02*
X39860000Y-74595000I-150000J0D01*
G01*
X38185000Y-74595000D01*
G75*
G02*
X38035000Y-74445000I0J150000D01*
G01*
X38035000Y-74145000D01*
G75*
G02*
X38185000Y-73995000I150000J0D01*
G01*
X39860000Y-73995000D01*
G75*
G02*
X40010000Y-74145000I0J-150000D01*
G01*
G37*
G36*
G01*
X40010000Y-75415000D02*
X40010000Y-75715000D01*
G75*
G02*
X39860000Y-75865000I-150000J0D01*
G01*
X38185000Y-75865000D01*
G75*
G02*
X38035000Y-75715000I0J150000D01*
G01*
X38035000Y-75415000D01*
G75*
G02*
X38185000Y-75265000I150000J0D01*
G01*
X39860000Y-75265000D01*
G75*
G02*
X40010000Y-75415000I0J-150000D01*
G01*
G37*
G36*
G01*
X40010000Y-76685000D02*
X40010000Y-76985000D01*
G75*
G02*
X39860000Y-77135000I-150000J0D01*
G01*
X38185000Y-77135000D01*
G75*
G02*
X38035000Y-76985000I0J150000D01*
G01*
X38035000Y-76685000D01*
G75*
G02*
X38185000Y-76535000I150000J0D01*
G01*
X39860000Y-76535000D01*
G75*
G02*
X40010000Y-76685000I0J-150000D01*
G01*
G37*
%TD*%
D20*
%TO.C,M4*%
X23500000Y-116500000D03*
%TD*%
%TO.C,M3*%
X23500000Y-23500000D03*
%TD*%
%TO.C,M2*%
X116500000Y-116500000D03*
%TD*%
%TO.C,M1*%
X116500000Y-23500000D03*
%TD*%
D21*
%TO.C,C17*%
X34500000Y-37300000D03*
D22*
X31000000Y-37300000D03*
%TD*%
D23*
%TO.C,SW2*%
X116355000Y-56515000D03*
X116355000Y-61015000D03*
X109855000Y-56515000D03*
X109855000Y-61015000D03*
%TD*%
%TO.C,SW1*%
X116355000Y-47443000D03*
X116355000Y-51943000D03*
X109855000Y-47443000D03*
X109855000Y-51943000D03*
%TD*%
D21*
%TO.C,C21*%
X34500000Y-28000000D03*
D22*
X31000000Y-28000000D03*
%TD*%
D24*
%TO.C,U9*%
X81280000Y-108585000D03*
X109220000Y-116205000D03*
X83820000Y-108585000D03*
X106680000Y-116205000D03*
X86360000Y-108585000D03*
X104140000Y-116205000D03*
X88900000Y-108585000D03*
X101600000Y-116205000D03*
X91440000Y-108585000D03*
X99060000Y-116205000D03*
X93980000Y-108585000D03*
X96520000Y-116205000D03*
X96520000Y-108585000D03*
X93980000Y-116205000D03*
X99060000Y-108585000D03*
X91440000Y-116205000D03*
X101600000Y-108585000D03*
X88900000Y-116205000D03*
X104140000Y-108585000D03*
X86360000Y-116205000D03*
X106680000Y-108585000D03*
X83820000Y-116205000D03*
X109220000Y-108585000D03*
D22*
X81280000Y-116205000D03*
%TD*%
D24*
%TO.C,U5*%
X74689000Y-56261000D03*
X59449000Y-104521000D03*
X74689000Y-58801000D03*
X59449000Y-101981000D03*
X74689000Y-61341000D03*
X59449000Y-99441000D03*
X74689000Y-63881000D03*
X59449000Y-96901000D03*
X74689000Y-66421000D03*
X59449000Y-94361000D03*
X74689000Y-68961000D03*
X59449000Y-91821000D03*
X74689000Y-71501000D03*
X59449000Y-89281000D03*
X74689000Y-74041000D03*
X59449000Y-86741000D03*
X74689000Y-76581000D03*
X59449000Y-84201000D03*
X74689000Y-79121000D03*
X59449000Y-81661000D03*
X74689000Y-81661000D03*
X59449000Y-79121000D03*
X74689000Y-84201000D03*
X59449000Y-76581000D03*
X74689000Y-86741000D03*
X59449000Y-74041000D03*
X74689000Y-89281000D03*
X59449000Y-71501000D03*
X74689000Y-91821000D03*
X59449000Y-68961000D03*
X74689000Y-94361000D03*
X59449000Y-66421000D03*
X74689000Y-96901000D03*
X59449000Y-63881000D03*
X74689000Y-99441000D03*
X59449000Y-61341000D03*
X74689000Y-101981000D03*
X59449000Y-58801000D03*
X74689000Y-104521000D03*
D22*
X59449000Y-56261000D03*
%TD*%
%TO.C,U11*%
X81280000Y-66040000D03*
D24*
X96520000Y-104140000D03*
X81280000Y-68580000D03*
X96520000Y-101600000D03*
X81280000Y-71120000D03*
X96520000Y-99060000D03*
X81280000Y-73660000D03*
X96520000Y-96520000D03*
X81280000Y-76200000D03*
X96520000Y-93980000D03*
X81280000Y-78740000D03*
X96520000Y-91440000D03*
X81280000Y-81280000D03*
X96520000Y-88900000D03*
X81280000Y-83820000D03*
X96520000Y-86360000D03*
X81280000Y-86360000D03*
X96520000Y-83820000D03*
X81280000Y-88900000D03*
X96520000Y-81280000D03*
X81280000Y-91440000D03*
X96520000Y-78740000D03*
X81280000Y-93980000D03*
X96520000Y-76200000D03*
X81280000Y-96520000D03*
X96520000Y-73660000D03*
X81280000Y-99060000D03*
X96520000Y-71120000D03*
X81280000Y-101600000D03*
X96520000Y-68580000D03*
X81280000Y-104140000D03*
X96520000Y-66040000D03*
%TD*%
%TO.C,U8*%
X116840000Y-66040000D03*
X101600000Y-104140000D03*
X116840000Y-68580000D03*
X101600000Y-101600000D03*
X116840000Y-71120000D03*
X101600000Y-99060000D03*
X116840000Y-73660000D03*
X101600000Y-96520000D03*
X116840000Y-76200000D03*
X101600000Y-93980000D03*
X116840000Y-78740000D03*
X101600000Y-91440000D03*
X116840000Y-81280000D03*
X101600000Y-88900000D03*
X116840000Y-83820000D03*
X101600000Y-86360000D03*
X116840000Y-86360000D03*
X101600000Y-83820000D03*
X116840000Y-88900000D03*
X101600000Y-81280000D03*
X116840000Y-91440000D03*
X101600000Y-78740000D03*
X116840000Y-93980000D03*
X101600000Y-76200000D03*
X116840000Y-96520000D03*
X101600000Y-73660000D03*
X116840000Y-99060000D03*
X101600000Y-71120000D03*
X116840000Y-101600000D03*
X101600000Y-68580000D03*
X116840000Y-104140000D03*
D22*
X101600000Y-66040000D03*
%TD*%
D12*
%TO.C,J2*%
X22540000Y-30600000D03*
D11*
X25080000Y-30600000D03*
X22540000Y-33140000D03*
X25080000Y-33140000D03*
X22540000Y-35680000D03*
X25080000Y-35680000D03*
X22540000Y-38220000D03*
X25080000Y-38220000D03*
%TD*%
%TO.C,J1*%
X25080000Y-109400000D03*
X22540000Y-109400000D03*
X25080000Y-106860000D03*
X22540000Y-106860000D03*
X25080000Y-104320000D03*
X22540000Y-104320000D03*
X25080000Y-101780000D03*
D12*
X22540000Y-101780000D03*
%TD*%
D17*
%TO.C,D5*%
X62865000Y-24000000D03*
D18*
X60325000Y-24000000D03*
%TD*%
D17*
%TO.C,D3*%
X116840000Y-42291000D03*
D18*
X114300000Y-42291000D03*
%TD*%
%TO.C,R6*%
G36*
G01*
X76600000Y-44265002D02*
X76600000Y-43364998D01*
G75*
G02*
X76849998Y-43115000I249998J0D01*
G01*
X77375002Y-43115000D01*
G75*
G02*
X77625000Y-43364998I0J-249998D01*
G01*
X77625000Y-44265002D01*
G75*
G02*
X77375002Y-44515000I-249998J0D01*
G01*
X76849998Y-44515000D01*
G75*
G02*
X76600000Y-44265002I0J249998D01*
G01*
G37*
G36*
G01*
X74775000Y-44265002D02*
X74775000Y-43364998D01*
G75*
G02*
X75024998Y-43115000I249998J0D01*
G01*
X75550002Y-43115000D01*
G75*
G02*
X75800000Y-43364998I0J-249998D01*
G01*
X75800000Y-44265002D01*
G75*
G02*
X75550002Y-44515000I-249998J0D01*
G01*
X75024998Y-44515000D01*
G75*
G02*
X74775000Y-44265002I0J249998D01*
G01*
G37*
%TD*%
%TO.C,R5*%
G36*
G01*
X74060000Y-51885002D02*
X74060000Y-50984998D01*
G75*
G02*
X74309998Y-50735000I249998J0D01*
G01*
X74835002Y-50735000D01*
G75*
G02*
X75085000Y-50984998I0J-249998D01*
G01*
X75085000Y-51885002D01*
G75*
G02*
X74835002Y-52135000I-249998J0D01*
G01*
X74309998Y-52135000D01*
G75*
G02*
X74060000Y-51885002I0J249998D01*
G01*
G37*
G36*
G01*
X72235000Y-51885002D02*
X72235000Y-50984998D01*
G75*
G02*
X72484998Y-50735000I249998J0D01*
G01*
X73010002Y-50735000D01*
G75*
G02*
X73260000Y-50984998I0J-249998D01*
G01*
X73260000Y-51885002D01*
G75*
G02*
X73010002Y-52135000I-249998J0D01*
G01*
X72484998Y-52135000D01*
G75*
G02*
X72235000Y-51885002I0J249998D01*
G01*
G37*
%TD*%
%TO.C,R4*%
G36*
G01*
X76600000Y-46805002D02*
X76600000Y-45904998D01*
G75*
G02*
X76849998Y-45655000I249998J0D01*
G01*
X77375002Y-45655000D01*
G75*
G02*
X77625000Y-45904998I0J-249998D01*
G01*
X77625000Y-46805002D01*
G75*
G02*
X77375002Y-47055000I-249998J0D01*
G01*
X76849998Y-47055000D01*
G75*
G02*
X76600000Y-46805002I0J249998D01*
G01*
G37*
G36*
G01*
X74775000Y-46805002D02*
X74775000Y-45904998D01*
G75*
G02*
X75024998Y-45655000I249998J0D01*
G01*
X75550002Y-45655000D01*
G75*
G02*
X75800000Y-45904998I0J-249998D01*
G01*
X75800000Y-46805002D01*
G75*
G02*
X75550002Y-47055000I-249998J0D01*
G01*
X75024998Y-47055000D01*
G75*
G02*
X74775000Y-46805002I0J249998D01*
G01*
G37*
%TD*%
%TO.C,R3*%
G36*
G01*
X74695000Y-49345002D02*
X74695000Y-48444998D01*
G75*
G02*
X74944998Y-48195000I249998J0D01*
G01*
X75470002Y-48195000D01*
G75*
G02*
X75720000Y-48444998I0J-249998D01*
G01*
X75720000Y-49345002D01*
G75*
G02*
X75470002Y-49595000I-249998J0D01*
G01*
X74944998Y-49595000D01*
G75*
G02*
X74695000Y-49345002I0J249998D01*
G01*
G37*
G36*
G01*
X72870000Y-49345002D02*
X72870000Y-48444998D01*
G75*
G02*
X73119998Y-48195000I249998J0D01*
G01*
X73645002Y-48195000D01*
G75*
G02*
X73895000Y-48444998I0J-249998D01*
G01*
X73895000Y-49345002D01*
G75*
G02*
X73645002Y-49595000I-249998J0D01*
G01*
X73119998Y-49595000D01*
G75*
G02*
X72870000Y-49345002I0J249998D01*
G01*
G37*
%TD*%
%TO.C,C2*%
G36*
G01*
X72840000Y-43020000D02*
X72840000Y-42070000D01*
G75*
G02*
X73090000Y-41820000I250000J0D01*
G01*
X73590000Y-41820000D01*
G75*
G02*
X73840000Y-42070000I0J-250000D01*
G01*
X73840000Y-43020000D01*
G75*
G02*
X73590000Y-43270000I-250000J0D01*
G01*
X73090000Y-43270000D01*
G75*
G02*
X72840000Y-43020000I0J250000D01*
G01*
G37*
G36*
G01*
X70940000Y-43020000D02*
X70940000Y-42070000D01*
G75*
G02*
X71190000Y-41820000I250000J0D01*
G01*
X71690000Y-41820000D01*
G75*
G02*
X71940000Y-42070000I0J-250000D01*
G01*
X71940000Y-43020000D01*
G75*
G02*
X71690000Y-43270000I-250000J0D01*
G01*
X71190000Y-43270000D01*
G75*
G02*
X70940000Y-43020000I0J250000D01*
G01*
G37*
%TD*%
%TO.C,C1*%
G36*
G01*
X72550000Y-46170000D02*
X73500000Y-46170000D01*
G75*
G02*
X73750000Y-46420000I0J-250000D01*
G01*
X73750000Y-46920000D01*
G75*
G02*
X73500000Y-47170000I-250000J0D01*
G01*
X72550000Y-47170000D01*
G75*
G02*
X72300000Y-46920000I0J250000D01*
G01*
X72300000Y-46420000D01*
G75*
G02*
X72550000Y-46170000I250000J0D01*
G01*
G37*
G36*
G01*
X72550000Y-44270000D02*
X73500000Y-44270000D01*
G75*
G02*
X73750000Y-44520000I0J-250000D01*
G01*
X73750000Y-45020000D01*
G75*
G02*
X73500000Y-45270000I-250000J0D01*
G01*
X72550000Y-45270000D01*
G75*
G02*
X72300000Y-45020000I0J250000D01*
G01*
X72300000Y-44520000D01*
G75*
G02*
X72550000Y-44270000I250000J0D01*
G01*
G37*
%TD*%
D11*
%TO.C,J3*%
X25080000Y-94130000D03*
X22540000Y-94130000D03*
X25080000Y-91590000D03*
X22540000Y-91590000D03*
X25080000Y-89050000D03*
X22540000Y-89050000D03*
X25080000Y-86510000D03*
X22540000Y-86510000D03*
X25080000Y-83970000D03*
X22540000Y-83970000D03*
X25080000Y-81430000D03*
X22540000Y-81430000D03*
X25080000Y-78890000D03*
X22540000Y-78890000D03*
X25080000Y-76350000D03*
X22540000Y-76350000D03*
X25080000Y-73810000D03*
X22540000Y-73810000D03*
X25080000Y-71270000D03*
X22540000Y-71270000D03*
X25080000Y-68730000D03*
X22540000Y-68730000D03*
X25080000Y-66190000D03*
X22540000Y-66190000D03*
X25080000Y-63650000D03*
X22540000Y-63650000D03*
X25080000Y-61110000D03*
X22540000Y-61110000D03*
X25080000Y-58570000D03*
X22540000Y-58570000D03*
X25080000Y-56030000D03*
X22540000Y-56030000D03*
X25080000Y-53490000D03*
X22540000Y-53490000D03*
X25080000Y-50950000D03*
X22540000Y-50950000D03*
X25080000Y-48410000D03*
X22540000Y-48410000D03*
X25080000Y-45870000D03*
D12*
X22540000Y-45870000D03*
%TD*%
M02*
