%TF.GenerationSoftware,KiCad,Pcbnew,7.0.0-da2b9df05c~171~ubuntu22.04.1*%
%TF.CreationDate,2023-03-06T18:38:04-05:00*%
%TF.ProjectId,main,6d61696e-2e6b-4696-9361-645f70636258,rev?*%
%TF.SameCoordinates,Original*%
%TF.FileFunction,Soldermask,Top*%
%TF.FilePolarity,Negative*%
%FSLAX46Y46*%
G04 Gerber Fmt 4.6, Leading zero omitted, Abs format (unit mm)*
G04 Created by KiCad (PCBNEW 7.0.0-da2b9df05c~171~ubuntu22.04.1) date 2023-03-06 18:38:04*
%MOMM*%
%LPD*%
G01*
G04 APERTURE LIST*
G04 Aperture macros list*
%AMRoundRect*
0 Rectangle with rounded corners*
0 $1 Rounding radius*
0 $2 $3 $4 $5 $6 $7 $8 $9 X,Y pos of 4 corners*
0 Add a 4 corners polygon primitive as box body*
4,1,4,$2,$3,$4,$5,$6,$7,$8,$9,$2,$3,0*
0 Add four circle primitives for the rounded corners*
1,1,$1+$1,$2,$3*
1,1,$1+$1,$4,$5*
1,1,$1+$1,$6,$7*
1,1,$1+$1,$8,$9*
0 Add four rect primitives between the rounded corners*
20,1,$1+$1,$2,$3,$4,$5,0*
20,1,$1+$1,$4,$5,$6,$7,0*
20,1,$1+$1,$6,$7,$8,$9,0*
20,1,$1+$1,$8,$9,$2,$3,0*%
G04 Aperture macros list end*
%ADD10R,1.700000X1.700000*%
%ADD11O,1.700000X1.700000*%
%ADD12R,1.800000X1.800000*%
%ADD13C,1.800000*%
%ADD14C,3.200000*%
%ADD15R,1.600000X1.600000*%
%ADD16O,1.600000X1.600000*%
%ADD17RoundRect,0.150000X0.825000X0.150000X-0.825000X0.150000X-0.825000X-0.150000X0.825000X-0.150000X0*%
%ADD18RoundRect,0.350000X-1.025000X-0.350000X1.025000X-0.350000X1.025000X0.350000X-1.025000X0.350000X0*%
%ADD19RoundRect,0.150000X0.150000X-0.875000X0.150000X0.875000X-0.150000X0.875000X-0.150000X-0.875000X0*%
%ADD20RoundRect,0.150000X0.150000X-0.825000X0.150000X0.825000X-0.150000X0.825000X-0.150000X-0.825000X0*%
G04 APERTURE END LIST*
D10*
%TO.C,J3*%
X94129999Y-22539999D03*
D11*
X94129999Y-25079999D03*
X91589999Y-22539999D03*
X91589999Y-25079999D03*
X89049999Y-22539999D03*
X89049999Y-25079999D03*
X86509999Y-22539999D03*
X86509999Y-25079999D03*
X83969999Y-22539999D03*
X83969999Y-25079999D03*
X81429999Y-22539999D03*
X81429999Y-25079999D03*
X78889999Y-22539999D03*
X78889999Y-25079999D03*
X76349999Y-22539999D03*
X76349999Y-25079999D03*
X73809999Y-22539999D03*
X73809999Y-25079999D03*
X71269999Y-22539999D03*
X71269999Y-25079999D03*
X68729999Y-22539999D03*
X68729999Y-25079999D03*
X66189999Y-22539999D03*
X66189999Y-25079999D03*
X63649999Y-22539999D03*
X63649999Y-25079999D03*
X61109999Y-22539999D03*
X61109999Y-25079999D03*
X58569999Y-22539999D03*
X58569999Y-25079999D03*
X56029999Y-22539999D03*
X56029999Y-25079999D03*
X53489999Y-22539999D03*
X53489999Y-25079999D03*
X50949999Y-22539999D03*
X50949999Y-25079999D03*
X48409999Y-22539999D03*
X48409999Y-25079999D03*
X45869999Y-22539999D03*
X45869999Y-25079999D03*
%TD*%
D10*
%TO.C,J1*%
X38219999Y-22539999D03*
D11*
X38219999Y-25079999D03*
X35679999Y-22539999D03*
X35679999Y-25079999D03*
X33139999Y-22539999D03*
X33139999Y-25079999D03*
X30599999Y-22539999D03*
X30599999Y-25079999D03*
%TD*%
D12*
%TO.C,D1*%
X31499999Y-108499999D03*
D13*
X34040000Y-108500000D03*
%TD*%
D14*
%TO.C,H2*%
X23500000Y-23500000D03*
%TD*%
%TO.C,H3*%
X116500000Y-116500000D03*
%TD*%
%TO.C,H4*%
X23500000Y-116500000D03*
%TD*%
%TO.C,H1*%
X116500000Y-23500000D03*
%TD*%
D15*
%TO.C,U4*%
X85039999Y-48999999D03*
D16*
X87579999Y-48999999D03*
X90119999Y-48999999D03*
X92659999Y-48999999D03*
X95199999Y-48999999D03*
X97739999Y-48999999D03*
X97739999Y-33759999D03*
X95199999Y-33759999D03*
X92659999Y-33759999D03*
X90119999Y-33759999D03*
X87579999Y-33759999D03*
X85039999Y-33759999D03*
%TD*%
D17*
%TO.C,U5*%
X43975000Y-40945000D03*
X43975000Y-39675000D03*
X43975000Y-38405000D03*
X43975000Y-37135000D03*
X43975000Y-35865000D03*
X43975000Y-34595000D03*
X43975000Y-33325000D03*
X43975000Y-32055000D03*
X39025000Y-32055000D03*
X39025000Y-33325000D03*
X39025000Y-34595000D03*
X39025000Y-35865000D03*
X39025000Y-37135000D03*
X39025000Y-38405000D03*
X39025000Y-39675000D03*
X39025000Y-40945000D03*
%TD*%
D12*
%TO.C,D2*%
X31499999Y-88499999D03*
D13*
X34040000Y-88500000D03*
%TD*%
D12*
%TO.C,D3*%
X31499999Y-73499999D03*
D13*
X34040000Y-73500000D03*
%TD*%
D12*
%TO.C,D4*%
X31499999Y-93499999D03*
D13*
X34040000Y-93500000D03*
%TD*%
D12*
%TO.C,D5*%
X23999999Y-108499999D03*
D13*
X26540000Y-108500000D03*
%TD*%
D12*
%TO.C,D6*%
X23999999Y-88499999D03*
D13*
X26540000Y-88500000D03*
%TD*%
D12*
%TO.C,D7*%
X23999999Y-73499999D03*
D13*
X26540000Y-73500000D03*
%TD*%
D12*
%TO.C,D8*%
X23999999Y-93499999D03*
D13*
X26540000Y-93500000D03*
%TD*%
D15*
%TO.C,U3*%
X102819999Y-48999999D03*
D16*
X105359999Y-48999999D03*
X107899999Y-48999999D03*
X110439999Y-48999999D03*
X112979999Y-48999999D03*
X115519999Y-48999999D03*
X115519999Y-33759999D03*
X112979999Y-33759999D03*
X110439999Y-33759999D03*
X107899999Y-33759999D03*
X105359999Y-33759999D03*
X102819999Y-33759999D03*
%TD*%
D12*
%TO.C,D9*%
X23999999Y-68499999D03*
D13*
X26540000Y-68500000D03*
%TD*%
D12*
%TO.C,D10*%
X23999999Y-48499999D03*
D13*
X26540000Y-48500000D03*
%TD*%
D12*
%TO.C,D11*%
X23999999Y-33499999D03*
D13*
X26540000Y-33500000D03*
%TD*%
D12*
%TO.C,D12*%
X23999999Y-53499999D03*
D13*
X26540000Y-53500000D03*
%TD*%
D12*
%TO.C,D13*%
X23999999Y-98499999D03*
D13*
X26540000Y-98500000D03*
%TD*%
D12*
%TO.C,D14*%
X23999999Y-78499999D03*
D13*
X26540000Y-78500000D03*
%TD*%
D12*
%TO.C,D15*%
X23999999Y-83499999D03*
D13*
X26540000Y-83500000D03*
%TD*%
D12*
%TO.C,D16*%
X23999999Y-103499999D03*
D13*
X26540000Y-103500000D03*
%TD*%
D12*
%TO.C,D17*%
X31499999Y-98499999D03*
D13*
X34040000Y-98500000D03*
%TD*%
D12*
%TO.C,D18*%
X31499999Y-78499999D03*
D13*
X34040000Y-78500000D03*
%TD*%
D12*
%TO.C,D19*%
X31499999Y-83499999D03*
D13*
X34040000Y-83500000D03*
%TD*%
D12*
%TO.C,D20*%
X31499999Y-103499999D03*
D13*
X34040000Y-103500000D03*
%TD*%
D12*
%TO.C,D21*%
X23999999Y-58499999D03*
D13*
X26540000Y-58500000D03*
%TD*%
D12*
%TO.C,D22*%
X23999999Y-38499999D03*
D13*
X26540000Y-38500000D03*
%TD*%
D12*
%TO.C,D23*%
X23999999Y-43499999D03*
D13*
X26540000Y-43500000D03*
%TD*%
D12*
%TO.C,D24*%
X23999999Y-63499999D03*
D13*
X26540000Y-63500000D03*
%TD*%
D17*
%TO.C,U1*%
X34975000Y-40310000D03*
X34975000Y-39040000D03*
X34975000Y-37770000D03*
X34975000Y-36500000D03*
X34975000Y-35230000D03*
X34975000Y-33960000D03*
X34975000Y-32690000D03*
X30025000Y-32690000D03*
X30025000Y-33960000D03*
X30025000Y-35230000D03*
X30025000Y-36500000D03*
X30025000Y-37770000D03*
X30025000Y-39040000D03*
X30025000Y-40310000D03*
%TD*%
D18*
%TO.C,SW5*%
X75475000Y-70500000D03*
X81525000Y-70500000D03*
X75475000Y-66500000D03*
X81525000Y-66500000D03*
%TD*%
%TO.C,SW6*%
X75475000Y-80500000D03*
X81525000Y-80500000D03*
X75475000Y-76500000D03*
X81525000Y-76500000D03*
%TD*%
%TO.C,SW7*%
X75475000Y-90500000D03*
X81525000Y-90500000D03*
X75475000Y-86500000D03*
X81525000Y-86500000D03*
%TD*%
%TO.C,SW8*%
X75475000Y-100500000D03*
X81525000Y-100500000D03*
X75475000Y-96500000D03*
X81525000Y-96500000D03*
%TD*%
%TO.C,SW9*%
X75475000Y-110500000D03*
X81525000Y-110500000D03*
X75475000Y-106500000D03*
X81525000Y-106500000D03*
%TD*%
%TO.C,SW10*%
X85475000Y-60500000D03*
X91525000Y-60500000D03*
X85475000Y-56500000D03*
X91525000Y-56500000D03*
%TD*%
%TO.C,SW11*%
X85475000Y-70500000D03*
X91525000Y-70500000D03*
X85475000Y-66500000D03*
X91525000Y-66500000D03*
%TD*%
%TO.C,SW12*%
X85475000Y-80500000D03*
X91525000Y-80500000D03*
X85475000Y-76500000D03*
X91525000Y-76500000D03*
%TD*%
%TO.C,SW13*%
X85475000Y-90500000D03*
X91525000Y-90500000D03*
X85475000Y-86500000D03*
X91525000Y-86500000D03*
%TD*%
%TO.C,SW14*%
X85475000Y-100500000D03*
X91525000Y-100500000D03*
X85475000Y-96500000D03*
X91525000Y-96500000D03*
%TD*%
%TO.C,SW15*%
X85475000Y-110500000D03*
X91525000Y-110500000D03*
X85475000Y-106500000D03*
X91525000Y-106500000D03*
%TD*%
%TO.C,SW16*%
X62975000Y-80500000D03*
X69025000Y-80500000D03*
X62975000Y-76500000D03*
X69025000Y-76500000D03*
%TD*%
%TO.C,SW17*%
X62975000Y-90500000D03*
X69025000Y-90500000D03*
X62975000Y-86500000D03*
X69025000Y-86500000D03*
%TD*%
%TO.C,SW18*%
X62975000Y-100500000D03*
X69025000Y-100500000D03*
X62975000Y-96500000D03*
X69025000Y-96500000D03*
%TD*%
%TO.C,SW19*%
X62975000Y-110500000D03*
X69025000Y-110500000D03*
X62975000Y-106500000D03*
X69025000Y-106500000D03*
%TD*%
%TO.C,SW20*%
X95475000Y-60500000D03*
X101525000Y-60500000D03*
X95475000Y-56500000D03*
X101525000Y-56500000D03*
%TD*%
%TO.C,SW21*%
X95475000Y-70500000D03*
X101525000Y-70500000D03*
X95475000Y-66500000D03*
X101525000Y-66500000D03*
%TD*%
%TO.C,SW22*%
X95475000Y-80500000D03*
X101525000Y-80500000D03*
X95475000Y-76500000D03*
X101525000Y-76500000D03*
%TD*%
%TO.C,SW24*%
X95475000Y-100500000D03*
X101525000Y-100500000D03*
X95475000Y-96500000D03*
X101525000Y-96500000D03*
%TD*%
%TO.C,SW25*%
X95475000Y-110500000D03*
X101525000Y-110500000D03*
X95475000Y-106500000D03*
X101525000Y-106500000D03*
%TD*%
%TO.C,SW26*%
X105475000Y-60500000D03*
X111525000Y-60500000D03*
X105475000Y-56500000D03*
X111525000Y-56500000D03*
%TD*%
%TO.C,SW27*%
X105475000Y-70500000D03*
X111525000Y-70500000D03*
X105475000Y-66500000D03*
X111525000Y-66500000D03*
%TD*%
%TO.C,SW28*%
X105475000Y-80500000D03*
X111525000Y-80500000D03*
X105475000Y-76500000D03*
X111525000Y-76500000D03*
%TD*%
D17*
%TO.C,U6*%
X43975000Y-52810000D03*
X43975000Y-51540000D03*
X43975000Y-50270000D03*
X43975000Y-49000000D03*
X43975000Y-47730000D03*
X43975000Y-46460000D03*
X43975000Y-45190000D03*
X39025000Y-45190000D03*
X39025000Y-46460000D03*
X39025000Y-47730000D03*
X39025000Y-49000000D03*
X39025000Y-50270000D03*
X39025000Y-51540000D03*
X39025000Y-52810000D03*
%TD*%
D18*
%TO.C,SW29*%
X105475000Y-90500000D03*
X111525000Y-90500000D03*
X105475000Y-86500000D03*
X111525000Y-86500000D03*
%TD*%
%TO.C,SW31*%
X105475000Y-110500000D03*
X111525000Y-110500000D03*
X105475000Y-106500000D03*
X111525000Y-106500000D03*
%TD*%
D15*
%TO.C,U8*%
X67259999Y-48999999D03*
D16*
X69799999Y-48999999D03*
X72339999Y-48999999D03*
X74879999Y-48999999D03*
X77419999Y-48999999D03*
X79959999Y-48999999D03*
X79959999Y-33759999D03*
X77419999Y-33759999D03*
X74879999Y-33759999D03*
X72339999Y-33759999D03*
X69799999Y-33759999D03*
X67259999Y-33759999D03*
%TD*%
D19*
%TO.C,U11*%
X38285000Y-94000000D03*
X39555000Y-94000000D03*
X40825000Y-94000000D03*
X42095000Y-94000000D03*
X43365000Y-94000000D03*
X44635000Y-94000000D03*
X45905000Y-94000000D03*
X47175000Y-94000000D03*
X48445000Y-94000000D03*
X49715000Y-94000000D03*
X49715000Y-84700000D03*
X48445000Y-84700000D03*
X47175000Y-84700000D03*
X45905000Y-84700000D03*
X44635000Y-84700000D03*
X43365000Y-84700000D03*
X42095000Y-84700000D03*
X40825000Y-84700000D03*
X39555000Y-84700000D03*
X38285000Y-84700000D03*
%TD*%
D18*
%TO.C,SW23*%
X95475000Y-90500000D03*
X101525000Y-90500000D03*
X95475000Y-86500000D03*
X101525000Y-86500000D03*
%TD*%
%TO.C,SW1*%
X52975000Y-70500000D03*
X59025000Y-70500000D03*
X52975000Y-66500000D03*
X59025000Y-66500000D03*
%TD*%
%TO.C,SW2*%
X62975000Y-60500000D03*
X69025000Y-60500000D03*
X62975000Y-56500000D03*
X69025000Y-56500000D03*
%TD*%
%TO.C,SW4*%
X75475000Y-60500000D03*
X81525000Y-60500000D03*
X75475000Y-56500000D03*
X81525000Y-56500000D03*
%TD*%
D19*
%TO.C,U13*%
X30285000Y-67150000D03*
X31555000Y-67150000D03*
X32825000Y-67150000D03*
X34095000Y-67150000D03*
X35365000Y-67150000D03*
X36635000Y-67150000D03*
X37905000Y-67150000D03*
X39175000Y-67150000D03*
X40445000Y-67150000D03*
X41715000Y-67150000D03*
X41715000Y-57850000D03*
X40445000Y-57850000D03*
X39175000Y-57850000D03*
X37905000Y-57850000D03*
X36635000Y-57850000D03*
X35365000Y-57850000D03*
X34095000Y-57850000D03*
X32825000Y-57850000D03*
X31555000Y-57850000D03*
X30285000Y-57850000D03*
%TD*%
D15*
%TO.C,U9*%
X49479999Y-48999999D03*
D16*
X52019999Y-48999999D03*
X54559999Y-48999999D03*
X57099999Y-48999999D03*
X59639999Y-48999999D03*
X62179999Y-48999999D03*
X62179999Y-33759999D03*
X59639999Y-33759999D03*
X57099999Y-33759999D03*
X54559999Y-33759999D03*
X52019999Y-33759999D03*
X49479999Y-33759999D03*
%TD*%
D19*
%TO.C,U12*%
X38285000Y-107150000D03*
X39555000Y-107150000D03*
X40825000Y-107150000D03*
X42095000Y-107150000D03*
X43365000Y-107150000D03*
X44635000Y-107150000D03*
X45905000Y-107150000D03*
X47175000Y-107150000D03*
X48445000Y-107150000D03*
X49715000Y-107150000D03*
X49715000Y-97850000D03*
X48445000Y-97850000D03*
X47175000Y-97850000D03*
X45905000Y-97850000D03*
X44635000Y-97850000D03*
X43365000Y-97850000D03*
X42095000Y-97850000D03*
X40825000Y-97850000D03*
X39555000Y-97850000D03*
X38285000Y-97850000D03*
%TD*%
D20*
%TO.C,U10*%
X28650000Y-116950000D03*
X29920000Y-116950000D03*
X31190000Y-116950000D03*
X32460000Y-116950000D03*
X33730000Y-116950000D03*
X35000000Y-116950000D03*
X36270000Y-116950000D03*
X36270000Y-112000000D03*
X35000000Y-112000000D03*
X33730000Y-112000000D03*
X32460000Y-112000000D03*
X31190000Y-112000000D03*
X29920000Y-112000000D03*
X28650000Y-112000000D03*
%TD*%
D18*
%TO.C,SW3*%
X52975000Y-60500000D03*
X59025000Y-60500000D03*
X52975000Y-56500000D03*
X59025000Y-56500000D03*
%TD*%
%TO.C,SW30*%
X105475000Y-100500000D03*
X111525000Y-100500000D03*
X105475000Y-96500000D03*
X111525000Y-96500000D03*
%TD*%
D14*
%TO.C,H5*%
X48000000Y-63500000D03*
%TD*%
%TO.C,H6*%
X116500000Y-103500000D03*
%TD*%
D17*
%TO.C,U2*%
X34975000Y-52810000D03*
X34975000Y-51540000D03*
X34975000Y-50270000D03*
X34975000Y-49000000D03*
X34975000Y-47730000D03*
X34975000Y-46460000D03*
X34975000Y-45190000D03*
X30025000Y-45190000D03*
X30025000Y-46460000D03*
X30025000Y-47730000D03*
X30025000Y-49000000D03*
X30025000Y-50270000D03*
X30025000Y-51540000D03*
X30025000Y-52810000D03*
%TD*%
D19*
%TO.C,U7*%
X38285000Y-80650000D03*
X39555000Y-80650000D03*
X40825000Y-80650000D03*
X42095000Y-80650000D03*
X43365000Y-80650000D03*
X44635000Y-80650000D03*
X45905000Y-80650000D03*
X47175000Y-80650000D03*
X48445000Y-80650000D03*
X49715000Y-80650000D03*
X49715000Y-71350000D03*
X48445000Y-71350000D03*
X47175000Y-71350000D03*
X45905000Y-71350000D03*
X44635000Y-71350000D03*
X43365000Y-71350000D03*
X42095000Y-71350000D03*
X40825000Y-71350000D03*
X39555000Y-71350000D03*
X38285000Y-71350000D03*
%TD*%
D14*
%TO.C,H7*%
X59500000Y-116500000D03*
%TD*%
%TO.C,H8*%
X103500000Y-116500000D03*
%TD*%
%TO.C,H9*%
X116500000Y-63500000D03*
%TD*%
D17*
%TO.C,U14*%
X51950000Y-117850000D03*
X51950000Y-116580000D03*
X51950000Y-115310000D03*
X51950000Y-114040000D03*
X51950000Y-112770000D03*
X51950000Y-111500000D03*
X51950000Y-110230000D03*
X47000000Y-110230000D03*
X47000000Y-111500000D03*
X47000000Y-112770000D03*
X47000000Y-114040000D03*
X47000000Y-115310000D03*
X47000000Y-116580000D03*
X47000000Y-117850000D03*
%TD*%
D12*
%TO.C,D27*%
X54734999Y-98499999D03*
D13*
X57275000Y-98500000D03*
%TD*%
D17*
%TO.C,U15*%
X44000000Y-117850000D03*
X44000000Y-116580000D03*
X44000000Y-115310000D03*
X44000000Y-114040000D03*
X44000000Y-112770000D03*
X44000000Y-111500000D03*
X44000000Y-110230000D03*
X39050000Y-110230000D03*
X39050000Y-111500000D03*
X39050000Y-112770000D03*
X39050000Y-114040000D03*
X39050000Y-115310000D03*
X39050000Y-116580000D03*
X39050000Y-117850000D03*
%TD*%
D18*
%TO.C,SW32*%
X62975000Y-70500000D03*
X69025000Y-70500000D03*
X62975000Y-66500000D03*
X69025000Y-66500000D03*
%TD*%
D12*
%TO.C,D26*%
X54734999Y-88499999D03*
D13*
X57275000Y-88500000D03*
%TD*%
D10*
%TO.C,J2*%
X109399999Y-22539999D03*
D11*
X109399999Y-25079999D03*
X106859999Y-22539999D03*
X106859999Y-25079999D03*
X104319999Y-22539999D03*
X104319999Y-25079999D03*
X101779999Y-22539999D03*
X101779999Y-25079999D03*
%TD*%
D12*
%TO.C,D28*%
X54734999Y-108499999D03*
D13*
X57275000Y-108500000D03*
%TD*%
D12*
%TO.C,D25*%
X54734999Y-78499999D03*
D13*
X57275000Y-78500000D03*
%TD*%
M02*
