%TF.GenerationSoftware,KiCad,Pcbnew,7.0.0-da2b9df05c~171~ubuntu22.04.1*%
%TF.CreationDate,2023-03-06T18:38:04-05:00*%
%TF.ProjectId,main,6d61696e-2e6b-4696-9361-645f70636258,rev?*%
%TF.SameCoordinates,Original*%
%TF.FileFunction,Soldermask,Bot*%
%TF.FilePolarity,Negative*%
%FSLAX46Y46*%
G04 Gerber Fmt 4.6, Leading zero omitted, Abs format (unit mm)*
G04 Created by KiCad (PCBNEW 7.0.0-da2b9df05c~171~ubuntu22.04.1) date 2023-03-06 18:38:04*
%MOMM*%
%LPD*%
G01*
G04 APERTURE LIST*
G04 Aperture macros list*
%AMRoundRect*
0 Rectangle with rounded corners*
0 $1 Rounding radius*
0 $2 $3 $4 $5 $6 $7 $8 $9 X,Y pos of 4 corners*
0 Add a 4 corners polygon primitive as box body*
4,1,4,$2,$3,$4,$5,$6,$7,$8,$9,$2,$3,0*
0 Add four circle primitives for the rounded corners*
1,1,$1+$1,$2,$3*
1,1,$1+$1,$4,$5*
1,1,$1+$1,$6,$7*
1,1,$1+$1,$8,$9*
0 Add four rect primitives between the rounded corners*
20,1,$1+$1,$2,$3,$4,$5,0*
20,1,$1+$1,$4,$5,$6,$7,0*
20,1,$1+$1,$6,$7,$8,$9,0*
20,1,$1+$1,$8,$9,$2,$3,0*%
G04 Aperture macros list end*
%ADD10R,1.700000X1.700000*%
%ADD11O,1.700000X1.700000*%
%ADD12R,1.800000X1.800000*%
%ADD13C,1.800000*%
%ADD14C,3.200000*%
%ADD15R,1.600000X1.600000*%
%ADD16O,1.600000X1.600000*%
%ADD17RoundRect,0.250000X0.475000X-0.250000X0.475000X0.250000X-0.475000X0.250000X-0.475000X-0.250000X0*%
%ADD18RoundRect,0.250000X-0.250000X-0.475000X0.250000X-0.475000X0.250000X0.475000X-0.250000X0.475000X0*%
%ADD19RoundRect,0.249999X0.450001X-0.262501X0.450001X0.262501X-0.450001X0.262501X-0.450001X-0.262501X0*%
%ADD20RoundRect,0.249999X0.262501X0.450001X-0.262501X0.450001X-0.262501X-0.450001X0.262501X-0.450001X0*%
%ADD21RoundRect,0.249999X-0.262501X-0.450001X0.262501X-0.450001X0.262501X0.450001X-0.262501X0.450001X0*%
%ADD22RoundRect,0.249999X-0.450001X0.262501X-0.450001X-0.262501X0.450001X-0.262501X0.450001X0.262501X0*%
%ADD23RoundRect,0.250000X-0.475000X0.250000X-0.475000X-0.250000X0.475000X-0.250000X0.475000X0.250000X0*%
%ADD24RoundRect,0.250000X-0.262500X-0.450000X0.262500X-0.450000X0.262500X0.450000X-0.262500X0.450000X0*%
%ADD25RoundRect,0.250000X-0.450000X0.262500X-0.450000X-0.262500X0.450000X-0.262500X0.450000X0.262500X0*%
%ADD26RoundRect,0.250000X0.450000X-0.262500X0.450000X0.262500X-0.450000X0.262500X-0.450000X-0.262500X0*%
G04 APERTURE END LIST*
D10*
%TO.C,J3*%
X94129999Y-22539999D03*
D11*
X94129999Y-25079999D03*
X91589999Y-22539999D03*
X91589999Y-25079999D03*
X89049999Y-22539999D03*
X89049999Y-25079999D03*
X86509999Y-22539999D03*
X86509999Y-25079999D03*
X83969999Y-22539999D03*
X83969999Y-25079999D03*
X81429999Y-22539999D03*
X81429999Y-25079999D03*
X78889999Y-22539999D03*
X78889999Y-25079999D03*
X76349999Y-22539999D03*
X76349999Y-25079999D03*
X73809999Y-22539999D03*
X73809999Y-25079999D03*
X71269999Y-22539999D03*
X71269999Y-25079999D03*
X68729999Y-22539999D03*
X68729999Y-25079999D03*
X66189999Y-22539999D03*
X66189999Y-25079999D03*
X63649999Y-22539999D03*
X63649999Y-25079999D03*
X61109999Y-22539999D03*
X61109999Y-25079999D03*
X58569999Y-22539999D03*
X58569999Y-25079999D03*
X56029999Y-22539999D03*
X56029999Y-25079999D03*
X53489999Y-22539999D03*
X53489999Y-25079999D03*
X50949999Y-22539999D03*
X50949999Y-25079999D03*
X48409999Y-22539999D03*
X48409999Y-25079999D03*
X45869999Y-22539999D03*
X45869999Y-25079999D03*
%TD*%
D10*
%TO.C,J1*%
X38219999Y-22539999D03*
D11*
X38219999Y-25079999D03*
X35679999Y-22539999D03*
X35679999Y-25079999D03*
X33139999Y-22539999D03*
X33139999Y-25079999D03*
X30599999Y-22539999D03*
X30599999Y-25079999D03*
%TD*%
D12*
%TO.C,D1*%
X31499999Y-108499999D03*
D13*
X34040000Y-108500000D03*
%TD*%
D14*
%TO.C,H2*%
X23500000Y-23500000D03*
%TD*%
%TO.C,H3*%
X116500000Y-116500000D03*
%TD*%
%TO.C,H4*%
X23500000Y-116500000D03*
%TD*%
%TO.C,H1*%
X116500000Y-23500000D03*
%TD*%
D15*
%TO.C,U4*%
X85039999Y-48999999D03*
D16*
X87579999Y-48999999D03*
X90119999Y-48999999D03*
X92659999Y-48999999D03*
X95199999Y-48999999D03*
X97739999Y-48999999D03*
X97739999Y-33759999D03*
X95199999Y-33759999D03*
X92659999Y-33759999D03*
X90119999Y-33759999D03*
X87579999Y-33759999D03*
X85039999Y-33759999D03*
%TD*%
D12*
%TO.C,D2*%
X31499999Y-88499999D03*
D13*
X34040000Y-88500000D03*
%TD*%
D12*
%TO.C,D3*%
X31499999Y-73499999D03*
D13*
X34040000Y-73500000D03*
%TD*%
D12*
%TO.C,D4*%
X31499999Y-93499999D03*
D13*
X34040000Y-93500000D03*
%TD*%
D12*
%TO.C,D5*%
X23999999Y-108499999D03*
D13*
X26540000Y-108500000D03*
%TD*%
D12*
%TO.C,D6*%
X23999999Y-88499999D03*
D13*
X26540000Y-88500000D03*
%TD*%
D12*
%TO.C,D7*%
X23999999Y-73499999D03*
D13*
X26540000Y-73500000D03*
%TD*%
D12*
%TO.C,D8*%
X23999999Y-93499999D03*
D13*
X26540000Y-93500000D03*
%TD*%
D15*
%TO.C,U3*%
X102819999Y-48999999D03*
D16*
X105359999Y-48999999D03*
X107899999Y-48999999D03*
X110439999Y-48999999D03*
X112979999Y-48999999D03*
X115519999Y-48999999D03*
X115519999Y-33759999D03*
X112979999Y-33759999D03*
X110439999Y-33759999D03*
X107899999Y-33759999D03*
X105359999Y-33759999D03*
X102819999Y-33759999D03*
%TD*%
D12*
%TO.C,D9*%
X23999999Y-68499999D03*
D13*
X26540000Y-68500000D03*
%TD*%
D12*
%TO.C,D10*%
X23999999Y-48499999D03*
D13*
X26540000Y-48500000D03*
%TD*%
D12*
%TO.C,D11*%
X23999999Y-33499999D03*
D13*
X26540000Y-33500000D03*
%TD*%
D12*
%TO.C,D12*%
X23999999Y-53499999D03*
D13*
X26540000Y-53500000D03*
%TD*%
D12*
%TO.C,D13*%
X23999999Y-98499999D03*
D13*
X26540000Y-98500000D03*
%TD*%
D12*
%TO.C,D14*%
X23999999Y-78499999D03*
D13*
X26540000Y-78500000D03*
%TD*%
D12*
%TO.C,D15*%
X23999999Y-83499999D03*
D13*
X26540000Y-83500000D03*
%TD*%
D12*
%TO.C,D16*%
X23999999Y-103499999D03*
D13*
X26540000Y-103500000D03*
%TD*%
D12*
%TO.C,D17*%
X31499999Y-98499999D03*
D13*
X34040000Y-98500000D03*
%TD*%
D12*
%TO.C,D18*%
X31499999Y-78499999D03*
D13*
X34040000Y-78500000D03*
%TD*%
D12*
%TO.C,D19*%
X31499999Y-83499999D03*
D13*
X34040000Y-83500000D03*
%TD*%
D12*
%TO.C,D20*%
X31499999Y-103499999D03*
D13*
X34040000Y-103500000D03*
%TD*%
D12*
%TO.C,D21*%
X23999999Y-58499999D03*
D13*
X26540000Y-58500000D03*
%TD*%
D12*
%TO.C,D22*%
X23999999Y-38499999D03*
D13*
X26540000Y-38500000D03*
%TD*%
D12*
%TO.C,D23*%
X23999999Y-43499999D03*
D13*
X26540000Y-43500000D03*
%TD*%
D12*
%TO.C,D24*%
X23999999Y-63499999D03*
D13*
X26540000Y-63500000D03*
%TD*%
D15*
%TO.C,U8*%
X67259999Y-48999999D03*
D16*
X69799999Y-48999999D03*
X72339999Y-48999999D03*
X74879999Y-48999999D03*
X77419999Y-48999999D03*
X79959999Y-48999999D03*
X79959999Y-33759999D03*
X77419999Y-33759999D03*
X74879999Y-33759999D03*
X72339999Y-33759999D03*
X69799999Y-33759999D03*
X67259999Y-33759999D03*
%TD*%
D15*
%TO.C,U9*%
X49479999Y-48999999D03*
D16*
X52019999Y-48999999D03*
X54559999Y-48999999D03*
X57099999Y-48999999D03*
X59639999Y-48999999D03*
X62179999Y-48999999D03*
X62179999Y-33759999D03*
X59639999Y-33759999D03*
X57099999Y-33759999D03*
X54559999Y-33759999D03*
X52019999Y-33759999D03*
X49479999Y-33759999D03*
%TD*%
D14*
%TO.C,H5*%
X48000000Y-63500000D03*
%TD*%
%TO.C,H6*%
X116500000Y-103500000D03*
%TD*%
%TO.C,H7*%
X59500000Y-116500000D03*
%TD*%
%TO.C,H8*%
X103500000Y-116500000D03*
%TD*%
%TO.C,H9*%
X116500000Y-63500000D03*
%TD*%
D12*
%TO.C,D27*%
X54734999Y-98499999D03*
D13*
X57275000Y-98500000D03*
%TD*%
D12*
%TO.C,D26*%
X54734999Y-88499999D03*
D13*
X57275000Y-88500000D03*
%TD*%
D10*
%TO.C,J2*%
X109399999Y-22539999D03*
D11*
X109399999Y-25079999D03*
X106859999Y-22539999D03*
X106859999Y-25079999D03*
X104319999Y-22539999D03*
X104319999Y-25079999D03*
X101779999Y-22539999D03*
X101779999Y-25079999D03*
%TD*%
D12*
%TO.C,D28*%
X54734999Y-108499999D03*
D13*
X57275000Y-108500000D03*
%TD*%
D12*
%TO.C,D25*%
X54734999Y-78499999D03*
D13*
X57275000Y-78500000D03*
%TD*%
D17*
%TO.C,C1*%
X40000000Y-78450000D03*
X40000000Y-76550000D03*
%TD*%
D18*
%TO.C,C3*%
X39200000Y-41000000D03*
X41100000Y-41000000D03*
%TD*%
%TO.C,C4*%
X30200000Y-40400000D03*
X32100000Y-40400000D03*
%TD*%
D19*
%TO.C,R1*%
X53000000Y-69500000D03*
X53000000Y-67675000D03*
%TD*%
D20*
%TO.C,R2*%
X42325000Y-80500000D03*
X40500000Y-80500000D03*
%TD*%
D21*
%TO.C,R3*%
X59175000Y-54600000D03*
X61000000Y-54600000D03*
%TD*%
D19*
%TO.C,R4*%
X75600000Y-105112500D03*
X75600000Y-103287500D03*
%TD*%
D17*
%TO.C,C2*%
X115600000Y-47200000D03*
X115600000Y-45300000D03*
%TD*%
%TO.C,C6*%
X97800000Y-47200000D03*
X97800000Y-45300000D03*
%TD*%
D22*
%TO.C,R9*%
X63000000Y-93287500D03*
X63000000Y-95112500D03*
%TD*%
%TO.C,R10*%
X63000000Y-103175000D03*
X63000000Y-105000000D03*
%TD*%
D19*
%TO.C,R11*%
X105400000Y-105112500D03*
X105400000Y-103287500D03*
%TD*%
D22*
%TO.C,R12*%
X39000000Y-49087500D03*
X39000000Y-50912500D03*
%TD*%
D23*
%TO.C,C7*%
X38200000Y-97800000D03*
X38200000Y-99700000D03*
%TD*%
D21*
%TO.C,R13*%
X29675000Y-106500000D03*
X31500000Y-106500000D03*
%TD*%
%TO.C,R14*%
X29675000Y-96500000D03*
X31500000Y-96500000D03*
%TD*%
%TO.C,R15*%
X29675000Y-86500000D03*
X31500000Y-86500000D03*
%TD*%
%TO.C,R16*%
X29675000Y-76500000D03*
X31500000Y-76500000D03*
%TD*%
D17*
%TO.C,C14*%
X80000000Y-47200000D03*
X80000000Y-45300000D03*
%TD*%
D18*
%TO.C,C8*%
X30200000Y-52800000D03*
X32100000Y-52800000D03*
%TD*%
D21*
%TO.C,R17*%
X29675000Y-71500000D03*
X31500000Y-71500000D03*
%TD*%
%TO.C,R18*%
X29675000Y-81500000D03*
X31500000Y-81500000D03*
%TD*%
%TO.C,R19*%
X29675000Y-91500000D03*
X31500000Y-91500000D03*
%TD*%
%TO.C,R20*%
X29675000Y-101500000D03*
X31500000Y-101500000D03*
%TD*%
%TO.C,R21*%
X22175000Y-106500000D03*
X24000000Y-106500000D03*
%TD*%
%TO.C,R22*%
X22175000Y-96500000D03*
X24000000Y-96500000D03*
%TD*%
%TO.C,R24*%
X22175000Y-76500000D03*
X24000000Y-76500000D03*
%TD*%
%TO.C,R25*%
X22175000Y-71500000D03*
X24000000Y-71500000D03*
%TD*%
%TO.C,R26*%
X22175000Y-81500000D03*
X24000000Y-81500000D03*
%TD*%
%TO.C,R27*%
X22175000Y-91500000D03*
X24000000Y-91500000D03*
%TD*%
%TO.C,R28*%
X22175000Y-101500000D03*
X24000000Y-101500000D03*
%TD*%
%TO.C,R29*%
X22175000Y-66500000D03*
X24000000Y-66500000D03*
%TD*%
%TO.C,R30*%
X22175000Y-56500000D03*
X24000000Y-56500000D03*
%TD*%
%TO.C,R31*%
X22175000Y-46500000D03*
X24000000Y-46500000D03*
%TD*%
%TO.C,R32*%
X22175000Y-36500000D03*
X24000000Y-36500000D03*
%TD*%
%TO.C,R33*%
X22175000Y-31500000D03*
X24000000Y-31500000D03*
%TD*%
%TO.C,R34*%
X22175000Y-41500000D03*
X24000000Y-41500000D03*
%TD*%
%TO.C,R35*%
X22175000Y-51500000D03*
X24000000Y-51500000D03*
%TD*%
%TO.C,R36*%
X22175000Y-61500000D03*
X24000000Y-61500000D03*
%TD*%
%TO.C,R23*%
X22175000Y-86500000D03*
X24000000Y-86500000D03*
%TD*%
D17*
%TO.C,C9*%
X62200000Y-47200000D03*
X62200000Y-45300000D03*
%TD*%
D18*
%TO.C,C5*%
X39200000Y-52800000D03*
X41100000Y-52800000D03*
%TD*%
D23*
%TO.C,C10*%
X38200000Y-84800000D03*
X38200000Y-86700000D03*
%TD*%
%TO.C,C11*%
X38200000Y-71400000D03*
X38200000Y-73300000D03*
%TD*%
%TO.C,C12*%
X30200000Y-58000000D03*
X30200000Y-59900000D03*
%TD*%
D18*
%TO.C,C13*%
X47000000Y-117800000D03*
X48900000Y-117800000D03*
%TD*%
D24*
%TO.C,R38*%
X52675000Y-86500000D03*
X54500000Y-86500000D03*
%TD*%
D25*
%TO.C,R41*%
X63000000Y-63287500D03*
X63000000Y-65112500D03*
%TD*%
D18*
%TO.C,C15*%
X39050000Y-117800000D03*
X40950000Y-117800000D03*
%TD*%
D23*
%TO.C,C16*%
X28600000Y-112050000D03*
X28600000Y-113950000D03*
%TD*%
D24*
%TO.C,R40*%
X52675000Y-106500000D03*
X54500000Y-106500000D03*
%TD*%
%TO.C,R39*%
X52675000Y-96500000D03*
X54500000Y-96500000D03*
%TD*%
D25*
%TO.C,R7*%
X63000000Y-73287500D03*
X63000000Y-75112500D03*
%TD*%
D26*
%TO.C,R6*%
X95200000Y-105112500D03*
X95200000Y-103287500D03*
%TD*%
D24*
%TO.C,R37*%
X52675000Y-76500000D03*
X54500000Y-76500000D03*
%TD*%
D25*
%TO.C,R8*%
X63000000Y-83287500D03*
X63000000Y-85112500D03*
%TD*%
D26*
%TO.C,R5*%
X85600000Y-105112500D03*
X85600000Y-103287500D03*
%TD*%
M02*
