%TF.GenerationSoftware,KiCad,Pcbnew,7.0.0-da2b9df05c~171~ubuntu22.04.1*%
%TF.CreationDate,2023-03-06T18:38:04-05:00*%
%TF.ProjectId,main,6d61696e-2e6b-4696-9361-645f70636258,rev?*%
%TF.SameCoordinates,Original*%
%TF.FileFunction,Legend,Bot*%
%TF.FilePolarity,Positive*%
%FSLAX46Y46*%
G04 Gerber Fmt 4.6, Leading zero omitted, Abs format (unit mm)*
G04 Created by KiCad (PCBNEW 7.0.0-da2b9df05c~171~ubuntu22.04.1) date 2023-03-06 18:38:04*
%MOMM*%
%LPD*%
G01*
G04 APERTURE LIST*
%ADD10C,0.150000*%
%ADD11C,0.120000*%
G04 APERTURE END LIST*
D10*
%TO.C,C1*%
X41952142Y-77333333D02*
X41999761Y-77285714D01*
X41999761Y-77285714D02*
X42047380Y-77142857D01*
X42047380Y-77142857D02*
X42047380Y-77047619D01*
X42047380Y-77047619D02*
X41999761Y-76904762D01*
X41999761Y-76904762D02*
X41904523Y-76809524D01*
X41904523Y-76809524D02*
X41809285Y-76761905D01*
X41809285Y-76761905D02*
X41618809Y-76714286D01*
X41618809Y-76714286D02*
X41475952Y-76714286D01*
X41475952Y-76714286D02*
X41285476Y-76761905D01*
X41285476Y-76761905D02*
X41190238Y-76809524D01*
X41190238Y-76809524D02*
X41095000Y-76904762D01*
X41095000Y-76904762D02*
X41047380Y-77047619D01*
X41047380Y-77047619D02*
X41047380Y-77142857D01*
X41047380Y-77142857D02*
X41095000Y-77285714D01*
X41095000Y-77285714D02*
X41142619Y-77333333D01*
X42047380Y-78285714D02*
X42047380Y-77714286D01*
X42047380Y-78000000D02*
X41047380Y-78000000D01*
X41047380Y-78000000D02*
X41190238Y-77904762D01*
X41190238Y-77904762D02*
X41285476Y-77809524D01*
X41285476Y-77809524D02*
X41333095Y-77714286D01*
%TO.C,C3*%
X40316666Y-39621142D02*
X40364285Y-39668761D01*
X40364285Y-39668761D02*
X40507142Y-39716380D01*
X40507142Y-39716380D02*
X40602380Y-39716380D01*
X40602380Y-39716380D02*
X40745237Y-39668761D01*
X40745237Y-39668761D02*
X40840475Y-39573523D01*
X40840475Y-39573523D02*
X40888094Y-39478285D01*
X40888094Y-39478285D02*
X40935713Y-39287809D01*
X40935713Y-39287809D02*
X40935713Y-39144952D01*
X40935713Y-39144952D02*
X40888094Y-38954476D01*
X40888094Y-38954476D02*
X40840475Y-38859238D01*
X40840475Y-38859238D02*
X40745237Y-38764000D01*
X40745237Y-38764000D02*
X40602380Y-38716380D01*
X40602380Y-38716380D02*
X40507142Y-38716380D01*
X40507142Y-38716380D02*
X40364285Y-38764000D01*
X40364285Y-38764000D02*
X40316666Y-38811619D01*
X39983332Y-38716380D02*
X39364285Y-38716380D01*
X39364285Y-38716380D02*
X39697618Y-39097333D01*
X39697618Y-39097333D02*
X39554761Y-39097333D01*
X39554761Y-39097333D02*
X39459523Y-39144952D01*
X39459523Y-39144952D02*
X39411904Y-39192571D01*
X39411904Y-39192571D02*
X39364285Y-39287809D01*
X39364285Y-39287809D02*
X39364285Y-39525904D01*
X39364285Y-39525904D02*
X39411904Y-39621142D01*
X39411904Y-39621142D02*
X39459523Y-39668761D01*
X39459523Y-39668761D02*
X39554761Y-39716380D01*
X39554761Y-39716380D02*
X39840475Y-39716380D01*
X39840475Y-39716380D02*
X39935713Y-39668761D01*
X39935713Y-39668761D02*
X39983332Y-39621142D01*
%TO.C,C4*%
X33922666Y-40672142D02*
X33970285Y-40719761D01*
X33970285Y-40719761D02*
X34113142Y-40767380D01*
X34113142Y-40767380D02*
X34208380Y-40767380D01*
X34208380Y-40767380D02*
X34351237Y-40719761D01*
X34351237Y-40719761D02*
X34446475Y-40624523D01*
X34446475Y-40624523D02*
X34494094Y-40529285D01*
X34494094Y-40529285D02*
X34541713Y-40338809D01*
X34541713Y-40338809D02*
X34541713Y-40195952D01*
X34541713Y-40195952D02*
X34494094Y-40005476D01*
X34494094Y-40005476D02*
X34446475Y-39910238D01*
X34446475Y-39910238D02*
X34351237Y-39815000D01*
X34351237Y-39815000D02*
X34208380Y-39767380D01*
X34208380Y-39767380D02*
X34113142Y-39767380D01*
X34113142Y-39767380D02*
X33970285Y-39815000D01*
X33970285Y-39815000D02*
X33922666Y-39862619D01*
X33065523Y-40100714D02*
X33065523Y-40767380D01*
X33303618Y-39719761D02*
X33541713Y-40434047D01*
X33541713Y-40434047D02*
X32922666Y-40434047D01*
%TO.C,R1*%
X53166666Y-71954880D02*
X53499999Y-71478690D01*
X53738094Y-71954880D02*
X53738094Y-70954880D01*
X53738094Y-70954880D02*
X53357142Y-70954880D01*
X53357142Y-70954880D02*
X53261904Y-71002500D01*
X53261904Y-71002500D02*
X53214285Y-71050119D01*
X53214285Y-71050119D02*
X53166666Y-71145357D01*
X53166666Y-71145357D02*
X53166666Y-71288214D01*
X53166666Y-71288214D02*
X53214285Y-71383452D01*
X53214285Y-71383452D02*
X53261904Y-71431071D01*
X53261904Y-71431071D02*
X53357142Y-71478690D01*
X53357142Y-71478690D02*
X53738094Y-71478690D01*
X52214285Y-71954880D02*
X52785713Y-71954880D01*
X52499999Y-71954880D02*
X52499999Y-70954880D01*
X52499999Y-70954880D02*
X52595237Y-71097738D01*
X52595237Y-71097738D02*
X52690475Y-71192976D01*
X52690475Y-71192976D02*
X52785713Y-71240595D01*
%TO.C,R2*%
X44779880Y-80333333D02*
X44303690Y-80000000D01*
X44779880Y-79761905D02*
X43779880Y-79761905D01*
X43779880Y-79761905D02*
X43779880Y-80142857D01*
X43779880Y-80142857D02*
X43827500Y-80238095D01*
X43827500Y-80238095D02*
X43875119Y-80285714D01*
X43875119Y-80285714D02*
X43970357Y-80333333D01*
X43970357Y-80333333D02*
X44113214Y-80333333D01*
X44113214Y-80333333D02*
X44208452Y-80285714D01*
X44208452Y-80285714D02*
X44256071Y-80238095D01*
X44256071Y-80238095D02*
X44303690Y-80142857D01*
X44303690Y-80142857D02*
X44303690Y-79761905D01*
X43875119Y-80714286D02*
X43827500Y-80761905D01*
X43827500Y-80761905D02*
X43779880Y-80857143D01*
X43779880Y-80857143D02*
X43779880Y-81095238D01*
X43779880Y-81095238D02*
X43827500Y-81190476D01*
X43827500Y-81190476D02*
X43875119Y-81238095D01*
X43875119Y-81238095D02*
X43970357Y-81285714D01*
X43970357Y-81285714D02*
X44065595Y-81285714D01*
X44065595Y-81285714D02*
X44208452Y-81238095D01*
X44208452Y-81238095D02*
X44779880Y-80666667D01*
X44779880Y-80666667D02*
X44779880Y-81285714D01*
%TO.C,R3*%
X57454880Y-54433333D02*
X56978690Y-54100000D01*
X57454880Y-53861905D02*
X56454880Y-53861905D01*
X56454880Y-53861905D02*
X56454880Y-54242857D01*
X56454880Y-54242857D02*
X56502500Y-54338095D01*
X56502500Y-54338095D02*
X56550119Y-54385714D01*
X56550119Y-54385714D02*
X56645357Y-54433333D01*
X56645357Y-54433333D02*
X56788214Y-54433333D01*
X56788214Y-54433333D02*
X56883452Y-54385714D01*
X56883452Y-54385714D02*
X56931071Y-54338095D01*
X56931071Y-54338095D02*
X56978690Y-54242857D01*
X56978690Y-54242857D02*
X56978690Y-53861905D01*
X56454880Y-54766667D02*
X56454880Y-55385714D01*
X56454880Y-55385714D02*
X56835833Y-55052381D01*
X56835833Y-55052381D02*
X56835833Y-55195238D01*
X56835833Y-55195238D02*
X56883452Y-55290476D01*
X56883452Y-55290476D02*
X56931071Y-55338095D01*
X56931071Y-55338095D02*
X57026309Y-55385714D01*
X57026309Y-55385714D02*
X57264404Y-55385714D01*
X57264404Y-55385714D02*
X57359642Y-55338095D01*
X57359642Y-55338095D02*
X57407261Y-55290476D01*
X57407261Y-55290476D02*
X57454880Y-55195238D01*
X57454880Y-55195238D02*
X57454880Y-54909524D01*
X57454880Y-54909524D02*
X57407261Y-54814286D01*
X57407261Y-54814286D02*
X57359642Y-54766667D01*
%TO.C,R4*%
X75766666Y-107567380D02*
X76099999Y-107091190D01*
X76338094Y-107567380D02*
X76338094Y-106567380D01*
X76338094Y-106567380D02*
X75957142Y-106567380D01*
X75957142Y-106567380D02*
X75861904Y-106615000D01*
X75861904Y-106615000D02*
X75814285Y-106662619D01*
X75814285Y-106662619D02*
X75766666Y-106757857D01*
X75766666Y-106757857D02*
X75766666Y-106900714D01*
X75766666Y-106900714D02*
X75814285Y-106995952D01*
X75814285Y-106995952D02*
X75861904Y-107043571D01*
X75861904Y-107043571D02*
X75957142Y-107091190D01*
X75957142Y-107091190D02*
X76338094Y-107091190D01*
X74909523Y-106900714D02*
X74909523Y-107567380D01*
X75147618Y-106519761D02*
X75385713Y-107234047D01*
X75385713Y-107234047D02*
X74766666Y-107234047D01*
%TO.C,C2*%
X117552142Y-46083333D02*
X117599761Y-46035714D01*
X117599761Y-46035714D02*
X117647380Y-45892857D01*
X117647380Y-45892857D02*
X117647380Y-45797619D01*
X117647380Y-45797619D02*
X117599761Y-45654762D01*
X117599761Y-45654762D02*
X117504523Y-45559524D01*
X117504523Y-45559524D02*
X117409285Y-45511905D01*
X117409285Y-45511905D02*
X117218809Y-45464286D01*
X117218809Y-45464286D02*
X117075952Y-45464286D01*
X117075952Y-45464286D02*
X116885476Y-45511905D01*
X116885476Y-45511905D02*
X116790238Y-45559524D01*
X116790238Y-45559524D02*
X116695000Y-45654762D01*
X116695000Y-45654762D02*
X116647380Y-45797619D01*
X116647380Y-45797619D02*
X116647380Y-45892857D01*
X116647380Y-45892857D02*
X116695000Y-46035714D01*
X116695000Y-46035714D02*
X116742619Y-46083333D01*
X116742619Y-46464286D02*
X116695000Y-46511905D01*
X116695000Y-46511905D02*
X116647380Y-46607143D01*
X116647380Y-46607143D02*
X116647380Y-46845238D01*
X116647380Y-46845238D02*
X116695000Y-46940476D01*
X116695000Y-46940476D02*
X116742619Y-46988095D01*
X116742619Y-46988095D02*
X116837857Y-47035714D01*
X116837857Y-47035714D02*
X116933095Y-47035714D01*
X116933095Y-47035714D02*
X117075952Y-46988095D01*
X117075952Y-46988095D02*
X117647380Y-46416667D01*
X117647380Y-46416667D02*
X117647380Y-47035714D01*
%TO.C,C6*%
X99752142Y-46083333D02*
X99799761Y-46035714D01*
X99799761Y-46035714D02*
X99847380Y-45892857D01*
X99847380Y-45892857D02*
X99847380Y-45797619D01*
X99847380Y-45797619D02*
X99799761Y-45654762D01*
X99799761Y-45654762D02*
X99704523Y-45559524D01*
X99704523Y-45559524D02*
X99609285Y-45511905D01*
X99609285Y-45511905D02*
X99418809Y-45464286D01*
X99418809Y-45464286D02*
X99275952Y-45464286D01*
X99275952Y-45464286D02*
X99085476Y-45511905D01*
X99085476Y-45511905D02*
X98990238Y-45559524D01*
X98990238Y-45559524D02*
X98895000Y-45654762D01*
X98895000Y-45654762D02*
X98847380Y-45797619D01*
X98847380Y-45797619D02*
X98847380Y-45892857D01*
X98847380Y-45892857D02*
X98895000Y-46035714D01*
X98895000Y-46035714D02*
X98942619Y-46083333D01*
X98847380Y-46940476D02*
X98847380Y-46750000D01*
X98847380Y-46750000D02*
X98895000Y-46654762D01*
X98895000Y-46654762D02*
X98942619Y-46607143D01*
X98942619Y-46607143D02*
X99085476Y-46511905D01*
X99085476Y-46511905D02*
X99275952Y-46464286D01*
X99275952Y-46464286D02*
X99656904Y-46464286D01*
X99656904Y-46464286D02*
X99752142Y-46511905D01*
X99752142Y-46511905D02*
X99799761Y-46559524D01*
X99799761Y-46559524D02*
X99847380Y-46654762D01*
X99847380Y-46654762D02*
X99847380Y-46845238D01*
X99847380Y-46845238D02*
X99799761Y-46940476D01*
X99799761Y-46940476D02*
X99752142Y-46988095D01*
X99752142Y-46988095D02*
X99656904Y-47035714D01*
X99656904Y-47035714D02*
X99418809Y-47035714D01*
X99418809Y-47035714D02*
X99323571Y-46988095D01*
X99323571Y-46988095D02*
X99275952Y-46940476D01*
X99275952Y-46940476D02*
X99228333Y-46845238D01*
X99228333Y-46845238D02*
X99228333Y-46654762D01*
X99228333Y-46654762D02*
X99275952Y-46559524D01*
X99275952Y-46559524D02*
X99323571Y-46511905D01*
X99323571Y-46511905D02*
X99418809Y-46464286D01*
%TO.C,R9*%
X63166666Y-97067380D02*
X63499999Y-96591190D01*
X63738094Y-97067380D02*
X63738094Y-96067380D01*
X63738094Y-96067380D02*
X63357142Y-96067380D01*
X63357142Y-96067380D02*
X63261904Y-96115000D01*
X63261904Y-96115000D02*
X63214285Y-96162619D01*
X63214285Y-96162619D02*
X63166666Y-96257857D01*
X63166666Y-96257857D02*
X63166666Y-96400714D01*
X63166666Y-96400714D02*
X63214285Y-96495952D01*
X63214285Y-96495952D02*
X63261904Y-96543571D01*
X63261904Y-96543571D02*
X63357142Y-96591190D01*
X63357142Y-96591190D02*
X63738094Y-96591190D01*
X62690475Y-97067380D02*
X62499999Y-97067380D01*
X62499999Y-97067380D02*
X62404761Y-97019761D01*
X62404761Y-97019761D02*
X62357142Y-96972142D01*
X62357142Y-96972142D02*
X62261904Y-96829285D01*
X62261904Y-96829285D02*
X62214285Y-96638809D01*
X62214285Y-96638809D02*
X62214285Y-96257857D01*
X62214285Y-96257857D02*
X62261904Y-96162619D01*
X62261904Y-96162619D02*
X62309523Y-96115000D01*
X62309523Y-96115000D02*
X62404761Y-96067380D01*
X62404761Y-96067380D02*
X62595237Y-96067380D01*
X62595237Y-96067380D02*
X62690475Y-96115000D01*
X62690475Y-96115000D02*
X62738094Y-96162619D01*
X62738094Y-96162619D02*
X62785713Y-96257857D01*
X62785713Y-96257857D02*
X62785713Y-96495952D01*
X62785713Y-96495952D02*
X62738094Y-96591190D01*
X62738094Y-96591190D02*
X62690475Y-96638809D01*
X62690475Y-96638809D02*
X62595237Y-96686428D01*
X62595237Y-96686428D02*
X62404761Y-96686428D01*
X62404761Y-96686428D02*
X62309523Y-96638809D01*
X62309523Y-96638809D02*
X62261904Y-96591190D01*
X62261904Y-96591190D02*
X62214285Y-96495952D01*
%TO.C,R10*%
X63642857Y-106954880D02*
X63976190Y-106478690D01*
X64214285Y-106954880D02*
X64214285Y-105954880D01*
X64214285Y-105954880D02*
X63833333Y-105954880D01*
X63833333Y-105954880D02*
X63738095Y-106002500D01*
X63738095Y-106002500D02*
X63690476Y-106050119D01*
X63690476Y-106050119D02*
X63642857Y-106145357D01*
X63642857Y-106145357D02*
X63642857Y-106288214D01*
X63642857Y-106288214D02*
X63690476Y-106383452D01*
X63690476Y-106383452D02*
X63738095Y-106431071D01*
X63738095Y-106431071D02*
X63833333Y-106478690D01*
X63833333Y-106478690D02*
X64214285Y-106478690D01*
X62690476Y-106954880D02*
X63261904Y-106954880D01*
X62976190Y-106954880D02*
X62976190Y-105954880D01*
X62976190Y-105954880D02*
X63071428Y-106097738D01*
X63071428Y-106097738D02*
X63166666Y-106192976D01*
X63166666Y-106192976D02*
X63261904Y-106240595D01*
X62071428Y-105954880D02*
X61976190Y-105954880D01*
X61976190Y-105954880D02*
X61880952Y-106002500D01*
X61880952Y-106002500D02*
X61833333Y-106050119D01*
X61833333Y-106050119D02*
X61785714Y-106145357D01*
X61785714Y-106145357D02*
X61738095Y-106335833D01*
X61738095Y-106335833D02*
X61738095Y-106573928D01*
X61738095Y-106573928D02*
X61785714Y-106764404D01*
X61785714Y-106764404D02*
X61833333Y-106859642D01*
X61833333Y-106859642D02*
X61880952Y-106907261D01*
X61880952Y-106907261D02*
X61976190Y-106954880D01*
X61976190Y-106954880D02*
X62071428Y-106954880D01*
X62071428Y-106954880D02*
X62166666Y-106907261D01*
X62166666Y-106907261D02*
X62214285Y-106859642D01*
X62214285Y-106859642D02*
X62261904Y-106764404D01*
X62261904Y-106764404D02*
X62309523Y-106573928D01*
X62309523Y-106573928D02*
X62309523Y-106335833D01*
X62309523Y-106335833D02*
X62261904Y-106145357D01*
X62261904Y-106145357D02*
X62214285Y-106050119D01*
X62214285Y-106050119D02*
X62166666Y-106002500D01*
X62166666Y-106002500D02*
X62071428Y-105954880D01*
%TO.C,R11*%
X106042857Y-102067380D02*
X106376190Y-101591190D01*
X106614285Y-102067380D02*
X106614285Y-101067380D01*
X106614285Y-101067380D02*
X106233333Y-101067380D01*
X106233333Y-101067380D02*
X106138095Y-101115000D01*
X106138095Y-101115000D02*
X106090476Y-101162619D01*
X106090476Y-101162619D02*
X106042857Y-101257857D01*
X106042857Y-101257857D02*
X106042857Y-101400714D01*
X106042857Y-101400714D02*
X106090476Y-101495952D01*
X106090476Y-101495952D02*
X106138095Y-101543571D01*
X106138095Y-101543571D02*
X106233333Y-101591190D01*
X106233333Y-101591190D02*
X106614285Y-101591190D01*
X105090476Y-102067380D02*
X105661904Y-102067380D01*
X105376190Y-102067380D02*
X105376190Y-101067380D01*
X105376190Y-101067380D02*
X105471428Y-101210238D01*
X105471428Y-101210238D02*
X105566666Y-101305476D01*
X105566666Y-101305476D02*
X105661904Y-101353095D01*
X104138095Y-102067380D02*
X104709523Y-102067380D01*
X104423809Y-102067380D02*
X104423809Y-101067380D01*
X104423809Y-101067380D02*
X104519047Y-101210238D01*
X104519047Y-101210238D02*
X104614285Y-101305476D01*
X104614285Y-101305476D02*
X104709523Y-101353095D01*
%TO.C,R12*%
X37242857Y-50567380D02*
X37576190Y-50091190D01*
X37814285Y-50567380D02*
X37814285Y-49567380D01*
X37814285Y-49567380D02*
X37433333Y-49567380D01*
X37433333Y-49567380D02*
X37338095Y-49615000D01*
X37338095Y-49615000D02*
X37290476Y-49662619D01*
X37290476Y-49662619D02*
X37242857Y-49757857D01*
X37242857Y-49757857D02*
X37242857Y-49900714D01*
X37242857Y-49900714D02*
X37290476Y-49995952D01*
X37290476Y-49995952D02*
X37338095Y-50043571D01*
X37338095Y-50043571D02*
X37433333Y-50091190D01*
X37433333Y-50091190D02*
X37814285Y-50091190D01*
X36290476Y-50567380D02*
X36861904Y-50567380D01*
X36576190Y-50567380D02*
X36576190Y-49567380D01*
X36576190Y-49567380D02*
X36671428Y-49710238D01*
X36671428Y-49710238D02*
X36766666Y-49805476D01*
X36766666Y-49805476D02*
X36861904Y-49853095D01*
X35909523Y-49662619D02*
X35861904Y-49615000D01*
X35861904Y-49615000D02*
X35766666Y-49567380D01*
X35766666Y-49567380D02*
X35528571Y-49567380D01*
X35528571Y-49567380D02*
X35433333Y-49615000D01*
X35433333Y-49615000D02*
X35385714Y-49662619D01*
X35385714Y-49662619D02*
X35338095Y-49757857D01*
X35338095Y-49757857D02*
X35338095Y-49853095D01*
X35338095Y-49853095D02*
X35385714Y-49995952D01*
X35385714Y-49995952D02*
X35957142Y-50567380D01*
X35957142Y-50567380D02*
X35338095Y-50567380D01*
%TO.C,C7*%
X36722142Y-98583333D02*
X36769761Y-98535714D01*
X36769761Y-98535714D02*
X36817380Y-98392857D01*
X36817380Y-98392857D02*
X36817380Y-98297619D01*
X36817380Y-98297619D02*
X36769761Y-98154762D01*
X36769761Y-98154762D02*
X36674523Y-98059524D01*
X36674523Y-98059524D02*
X36579285Y-98011905D01*
X36579285Y-98011905D02*
X36388809Y-97964286D01*
X36388809Y-97964286D02*
X36245952Y-97964286D01*
X36245952Y-97964286D02*
X36055476Y-98011905D01*
X36055476Y-98011905D02*
X35960238Y-98059524D01*
X35960238Y-98059524D02*
X35865000Y-98154762D01*
X35865000Y-98154762D02*
X35817380Y-98297619D01*
X35817380Y-98297619D02*
X35817380Y-98392857D01*
X35817380Y-98392857D02*
X35865000Y-98535714D01*
X35865000Y-98535714D02*
X35912619Y-98583333D01*
X35817380Y-98916667D02*
X35817380Y-99583333D01*
X35817380Y-99583333D02*
X36817380Y-99154762D01*
%TO.C,R13*%
X34442857Y-106967380D02*
X34776190Y-106491190D01*
X35014285Y-106967380D02*
X35014285Y-105967380D01*
X35014285Y-105967380D02*
X34633333Y-105967380D01*
X34633333Y-105967380D02*
X34538095Y-106015000D01*
X34538095Y-106015000D02*
X34490476Y-106062619D01*
X34490476Y-106062619D02*
X34442857Y-106157857D01*
X34442857Y-106157857D02*
X34442857Y-106300714D01*
X34442857Y-106300714D02*
X34490476Y-106395952D01*
X34490476Y-106395952D02*
X34538095Y-106443571D01*
X34538095Y-106443571D02*
X34633333Y-106491190D01*
X34633333Y-106491190D02*
X35014285Y-106491190D01*
X33490476Y-106967380D02*
X34061904Y-106967380D01*
X33776190Y-106967380D02*
X33776190Y-105967380D01*
X33776190Y-105967380D02*
X33871428Y-106110238D01*
X33871428Y-106110238D02*
X33966666Y-106205476D01*
X33966666Y-106205476D02*
X34061904Y-106253095D01*
X33157142Y-105967380D02*
X32538095Y-105967380D01*
X32538095Y-105967380D02*
X32871428Y-106348333D01*
X32871428Y-106348333D02*
X32728571Y-106348333D01*
X32728571Y-106348333D02*
X32633333Y-106395952D01*
X32633333Y-106395952D02*
X32585714Y-106443571D01*
X32585714Y-106443571D02*
X32538095Y-106538809D01*
X32538095Y-106538809D02*
X32538095Y-106776904D01*
X32538095Y-106776904D02*
X32585714Y-106872142D01*
X32585714Y-106872142D02*
X32633333Y-106919761D01*
X32633333Y-106919761D02*
X32728571Y-106967380D01*
X32728571Y-106967380D02*
X33014285Y-106967380D01*
X33014285Y-106967380D02*
X33109523Y-106919761D01*
X33109523Y-106919761D02*
X33157142Y-106872142D01*
%TO.C,R14*%
X34242857Y-96967380D02*
X34576190Y-96491190D01*
X34814285Y-96967380D02*
X34814285Y-95967380D01*
X34814285Y-95967380D02*
X34433333Y-95967380D01*
X34433333Y-95967380D02*
X34338095Y-96015000D01*
X34338095Y-96015000D02*
X34290476Y-96062619D01*
X34290476Y-96062619D02*
X34242857Y-96157857D01*
X34242857Y-96157857D02*
X34242857Y-96300714D01*
X34242857Y-96300714D02*
X34290476Y-96395952D01*
X34290476Y-96395952D02*
X34338095Y-96443571D01*
X34338095Y-96443571D02*
X34433333Y-96491190D01*
X34433333Y-96491190D02*
X34814285Y-96491190D01*
X33290476Y-96967380D02*
X33861904Y-96967380D01*
X33576190Y-96967380D02*
X33576190Y-95967380D01*
X33576190Y-95967380D02*
X33671428Y-96110238D01*
X33671428Y-96110238D02*
X33766666Y-96205476D01*
X33766666Y-96205476D02*
X33861904Y-96253095D01*
X32433333Y-96300714D02*
X32433333Y-96967380D01*
X32671428Y-95919761D02*
X32909523Y-96634047D01*
X32909523Y-96634047D02*
X32290476Y-96634047D01*
%TO.C,R15*%
X34242857Y-86967380D02*
X34576190Y-86491190D01*
X34814285Y-86967380D02*
X34814285Y-85967380D01*
X34814285Y-85967380D02*
X34433333Y-85967380D01*
X34433333Y-85967380D02*
X34338095Y-86015000D01*
X34338095Y-86015000D02*
X34290476Y-86062619D01*
X34290476Y-86062619D02*
X34242857Y-86157857D01*
X34242857Y-86157857D02*
X34242857Y-86300714D01*
X34242857Y-86300714D02*
X34290476Y-86395952D01*
X34290476Y-86395952D02*
X34338095Y-86443571D01*
X34338095Y-86443571D02*
X34433333Y-86491190D01*
X34433333Y-86491190D02*
X34814285Y-86491190D01*
X33290476Y-86967380D02*
X33861904Y-86967380D01*
X33576190Y-86967380D02*
X33576190Y-85967380D01*
X33576190Y-85967380D02*
X33671428Y-86110238D01*
X33671428Y-86110238D02*
X33766666Y-86205476D01*
X33766666Y-86205476D02*
X33861904Y-86253095D01*
X32385714Y-85967380D02*
X32861904Y-85967380D01*
X32861904Y-85967380D02*
X32909523Y-86443571D01*
X32909523Y-86443571D02*
X32861904Y-86395952D01*
X32861904Y-86395952D02*
X32766666Y-86348333D01*
X32766666Y-86348333D02*
X32528571Y-86348333D01*
X32528571Y-86348333D02*
X32433333Y-86395952D01*
X32433333Y-86395952D02*
X32385714Y-86443571D01*
X32385714Y-86443571D02*
X32338095Y-86538809D01*
X32338095Y-86538809D02*
X32338095Y-86776904D01*
X32338095Y-86776904D02*
X32385714Y-86872142D01*
X32385714Y-86872142D02*
X32433333Y-86919761D01*
X32433333Y-86919761D02*
X32528571Y-86967380D01*
X32528571Y-86967380D02*
X32766666Y-86967380D01*
X32766666Y-86967380D02*
X32861904Y-86919761D01*
X32861904Y-86919761D02*
X32909523Y-86872142D01*
%TO.C,R16*%
X34242857Y-76967380D02*
X34576190Y-76491190D01*
X34814285Y-76967380D02*
X34814285Y-75967380D01*
X34814285Y-75967380D02*
X34433333Y-75967380D01*
X34433333Y-75967380D02*
X34338095Y-76015000D01*
X34338095Y-76015000D02*
X34290476Y-76062619D01*
X34290476Y-76062619D02*
X34242857Y-76157857D01*
X34242857Y-76157857D02*
X34242857Y-76300714D01*
X34242857Y-76300714D02*
X34290476Y-76395952D01*
X34290476Y-76395952D02*
X34338095Y-76443571D01*
X34338095Y-76443571D02*
X34433333Y-76491190D01*
X34433333Y-76491190D02*
X34814285Y-76491190D01*
X33290476Y-76967380D02*
X33861904Y-76967380D01*
X33576190Y-76967380D02*
X33576190Y-75967380D01*
X33576190Y-75967380D02*
X33671428Y-76110238D01*
X33671428Y-76110238D02*
X33766666Y-76205476D01*
X33766666Y-76205476D02*
X33861904Y-76253095D01*
X32433333Y-75967380D02*
X32623809Y-75967380D01*
X32623809Y-75967380D02*
X32719047Y-76015000D01*
X32719047Y-76015000D02*
X32766666Y-76062619D01*
X32766666Y-76062619D02*
X32861904Y-76205476D01*
X32861904Y-76205476D02*
X32909523Y-76395952D01*
X32909523Y-76395952D02*
X32909523Y-76776904D01*
X32909523Y-76776904D02*
X32861904Y-76872142D01*
X32861904Y-76872142D02*
X32814285Y-76919761D01*
X32814285Y-76919761D02*
X32719047Y-76967380D01*
X32719047Y-76967380D02*
X32528571Y-76967380D01*
X32528571Y-76967380D02*
X32433333Y-76919761D01*
X32433333Y-76919761D02*
X32385714Y-76872142D01*
X32385714Y-76872142D02*
X32338095Y-76776904D01*
X32338095Y-76776904D02*
X32338095Y-76538809D01*
X32338095Y-76538809D02*
X32385714Y-76443571D01*
X32385714Y-76443571D02*
X32433333Y-76395952D01*
X32433333Y-76395952D02*
X32528571Y-76348333D01*
X32528571Y-76348333D02*
X32719047Y-76348333D01*
X32719047Y-76348333D02*
X32814285Y-76395952D01*
X32814285Y-76395952D02*
X32861904Y-76443571D01*
X32861904Y-76443571D02*
X32909523Y-76538809D01*
%TO.C,C14*%
X82050142Y-45607142D02*
X82097761Y-45559523D01*
X82097761Y-45559523D02*
X82145380Y-45416666D01*
X82145380Y-45416666D02*
X82145380Y-45321428D01*
X82145380Y-45321428D02*
X82097761Y-45178571D01*
X82097761Y-45178571D02*
X82002523Y-45083333D01*
X82002523Y-45083333D02*
X81907285Y-45035714D01*
X81907285Y-45035714D02*
X81716809Y-44988095D01*
X81716809Y-44988095D02*
X81573952Y-44988095D01*
X81573952Y-44988095D02*
X81383476Y-45035714D01*
X81383476Y-45035714D02*
X81288238Y-45083333D01*
X81288238Y-45083333D02*
X81193000Y-45178571D01*
X81193000Y-45178571D02*
X81145380Y-45321428D01*
X81145380Y-45321428D02*
X81145380Y-45416666D01*
X81145380Y-45416666D02*
X81193000Y-45559523D01*
X81193000Y-45559523D02*
X81240619Y-45607142D01*
X82145380Y-46559523D02*
X82145380Y-45988095D01*
X82145380Y-46273809D02*
X81145380Y-46273809D01*
X81145380Y-46273809D02*
X81288238Y-46178571D01*
X81288238Y-46178571D02*
X81383476Y-46083333D01*
X81383476Y-46083333D02*
X81431095Y-45988095D01*
X81478714Y-47416666D02*
X82145380Y-47416666D01*
X81097761Y-47178571D02*
X81812047Y-46940476D01*
X81812047Y-46940476D02*
X81812047Y-47559523D01*
%TO.C,C8*%
X31316666Y-51421142D02*
X31364285Y-51468761D01*
X31364285Y-51468761D02*
X31507142Y-51516380D01*
X31507142Y-51516380D02*
X31602380Y-51516380D01*
X31602380Y-51516380D02*
X31745237Y-51468761D01*
X31745237Y-51468761D02*
X31840475Y-51373523D01*
X31840475Y-51373523D02*
X31888094Y-51278285D01*
X31888094Y-51278285D02*
X31935713Y-51087809D01*
X31935713Y-51087809D02*
X31935713Y-50944952D01*
X31935713Y-50944952D02*
X31888094Y-50754476D01*
X31888094Y-50754476D02*
X31840475Y-50659238D01*
X31840475Y-50659238D02*
X31745237Y-50564000D01*
X31745237Y-50564000D02*
X31602380Y-50516380D01*
X31602380Y-50516380D02*
X31507142Y-50516380D01*
X31507142Y-50516380D02*
X31364285Y-50564000D01*
X31364285Y-50564000D02*
X31316666Y-50611619D01*
X30745237Y-50944952D02*
X30840475Y-50897333D01*
X30840475Y-50897333D02*
X30888094Y-50849714D01*
X30888094Y-50849714D02*
X30935713Y-50754476D01*
X30935713Y-50754476D02*
X30935713Y-50706857D01*
X30935713Y-50706857D02*
X30888094Y-50611619D01*
X30888094Y-50611619D02*
X30840475Y-50564000D01*
X30840475Y-50564000D02*
X30745237Y-50516380D01*
X30745237Y-50516380D02*
X30554761Y-50516380D01*
X30554761Y-50516380D02*
X30459523Y-50564000D01*
X30459523Y-50564000D02*
X30411904Y-50611619D01*
X30411904Y-50611619D02*
X30364285Y-50706857D01*
X30364285Y-50706857D02*
X30364285Y-50754476D01*
X30364285Y-50754476D02*
X30411904Y-50849714D01*
X30411904Y-50849714D02*
X30459523Y-50897333D01*
X30459523Y-50897333D02*
X30554761Y-50944952D01*
X30554761Y-50944952D02*
X30745237Y-50944952D01*
X30745237Y-50944952D02*
X30840475Y-50992571D01*
X30840475Y-50992571D02*
X30888094Y-51040190D01*
X30888094Y-51040190D02*
X30935713Y-51135428D01*
X30935713Y-51135428D02*
X30935713Y-51325904D01*
X30935713Y-51325904D02*
X30888094Y-51421142D01*
X30888094Y-51421142D02*
X30840475Y-51468761D01*
X30840475Y-51468761D02*
X30745237Y-51516380D01*
X30745237Y-51516380D02*
X30554761Y-51516380D01*
X30554761Y-51516380D02*
X30459523Y-51468761D01*
X30459523Y-51468761D02*
X30411904Y-51421142D01*
X30411904Y-51421142D02*
X30364285Y-51325904D01*
X30364285Y-51325904D02*
X30364285Y-51135428D01*
X30364285Y-51135428D02*
X30411904Y-51040190D01*
X30411904Y-51040190D02*
X30459523Y-50992571D01*
X30459523Y-50992571D02*
X30554761Y-50944952D01*
%TO.C,R17*%
X34242857Y-71967380D02*
X34576190Y-71491190D01*
X34814285Y-71967380D02*
X34814285Y-70967380D01*
X34814285Y-70967380D02*
X34433333Y-70967380D01*
X34433333Y-70967380D02*
X34338095Y-71015000D01*
X34338095Y-71015000D02*
X34290476Y-71062619D01*
X34290476Y-71062619D02*
X34242857Y-71157857D01*
X34242857Y-71157857D02*
X34242857Y-71300714D01*
X34242857Y-71300714D02*
X34290476Y-71395952D01*
X34290476Y-71395952D02*
X34338095Y-71443571D01*
X34338095Y-71443571D02*
X34433333Y-71491190D01*
X34433333Y-71491190D02*
X34814285Y-71491190D01*
X33290476Y-71967380D02*
X33861904Y-71967380D01*
X33576190Y-71967380D02*
X33576190Y-70967380D01*
X33576190Y-70967380D02*
X33671428Y-71110238D01*
X33671428Y-71110238D02*
X33766666Y-71205476D01*
X33766666Y-71205476D02*
X33861904Y-71253095D01*
X32957142Y-70967380D02*
X32290476Y-70967380D01*
X32290476Y-70967380D02*
X32719047Y-71967380D01*
%TO.C,R18*%
X34242857Y-81967380D02*
X34576190Y-81491190D01*
X34814285Y-81967380D02*
X34814285Y-80967380D01*
X34814285Y-80967380D02*
X34433333Y-80967380D01*
X34433333Y-80967380D02*
X34338095Y-81015000D01*
X34338095Y-81015000D02*
X34290476Y-81062619D01*
X34290476Y-81062619D02*
X34242857Y-81157857D01*
X34242857Y-81157857D02*
X34242857Y-81300714D01*
X34242857Y-81300714D02*
X34290476Y-81395952D01*
X34290476Y-81395952D02*
X34338095Y-81443571D01*
X34338095Y-81443571D02*
X34433333Y-81491190D01*
X34433333Y-81491190D02*
X34814285Y-81491190D01*
X33290476Y-81967380D02*
X33861904Y-81967380D01*
X33576190Y-81967380D02*
X33576190Y-80967380D01*
X33576190Y-80967380D02*
X33671428Y-81110238D01*
X33671428Y-81110238D02*
X33766666Y-81205476D01*
X33766666Y-81205476D02*
X33861904Y-81253095D01*
X32719047Y-81395952D02*
X32814285Y-81348333D01*
X32814285Y-81348333D02*
X32861904Y-81300714D01*
X32861904Y-81300714D02*
X32909523Y-81205476D01*
X32909523Y-81205476D02*
X32909523Y-81157857D01*
X32909523Y-81157857D02*
X32861904Y-81062619D01*
X32861904Y-81062619D02*
X32814285Y-81015000D01*
X32814285Y-81015000D02*
X32719047Y-80967380D01*
X32719047Y-80967380D02*
X32528571Y-80967380D01*
X32528571Y-80967380D02*
X32433333Y-81015000D01*
X32433333Y-81015000D02*
X32385714Y-81062619D01*
X32385714Y-81062619D02*
X32338095Y-81157857D01*
X32338095Y-81157857D02*
X32338095Y-81205476D01*
X32338095Y-81205476D02*
X32385714Y-81300714D01*
X32385714Y-81300714D02*
X32433333Y-81348333D01*
X32433333Y-81348333D02*
X32528571Y-81395952D01*
X32528571Y-81395952D02*
X32719047Y-81395952D01*
X32719047Y-81395952D02*
X32814285Y-81443571D01*
X32814285Y-81443571D02*
X32861904Y-81491190D01*
X32861904Y-81491190D02*
X32909523Y-81586428D01*
X32909523Y-81586428D02*
X32909523Y-81776904D01*
X32909523Y-81776904D02*
X32861904Y-81872142D01*
X32861904Y-81872142D02*
X32814285Y-81919761D01*
X32814285Y-81919761D02*
X32719047Y-81967380D01*
X32719047Y-81967380D02*
X32528571Y-81967380D01*
X32528571Y-81967380D02*
X32433333Y-81919761D01*
X32433333Y-81919761D02*
X32385714Y-81872142D01*
X32385714Y-81872142D02*
X32338095Y-81776904D01*
X32338095Y-81776904D02*
X32338095Y-81586428D01*
X32338095Y-81586428D02*
X32385714Y-81491190D01*
X32385714Y-81491190D02*
X32433333Y-81443571D01*
X32433333Y-81443571D02*
X32528571Y-81395952D01*
%TO.C,R19*%
X34242857Y-92167380D02*
X34576190Y-91691190D01*
X34814285Y-92167380D02*
X34814285Y-91167380D01*
X34814285Y-91167380D02*
X34433333Y-91167380D01*
X34433333Y-91167380D02*
X34338095Y-91215000D01*
X34338095Y-91215000D02*
X34290476Y-91262619D01*
X34290476Y-91262619D02*
X34242857Y-91357857D01*
X34242857Y-91357857D02*
X34242857Y-91500714D01*
X34242857Y-91500714D02*
X34290476Y-91595952D01*
X34290476Y-91595952D02*
X34338095Y-91643571D01*
X34338095Y-91643571D02*
X34433333Y-91691190D01*
X34433333Y-91691190D02*
X34814285Y-91691190D01*
X33290476Y-92167380D02*
X33861904Y-92167380D01*
X33576190Y-92167380D02*
X33576190Y-91167380D01*
X33576190Y-91167380D02*
X33671428Y-91310238D01*
X33671428Y-91310238D02*
X33766666Y-91405476D01*
X33766666Y-91405476D02*
X33861904Y-91453095D01*
X32814285Y-92167380D02*
X32623809Y-92167380D01*
X32623809Y-92167380D02*
X32528571Y-92119761D01*
X32528571Y-92119761D02*
X32480952Y-92072142D01*
X32480952Y-92072142D02*
X32385714Y-91929285D01*
X32385714Y-91929285D02*
X32338095Y-91738809D01*
X32338095Y-91738809D02*
X32338095Y-91357857D01*
X32338095Y-91357857D02*
X32385714Y-91262619D01*
X32385714Y-91262619D02*
X32433333Y-91215000D01*
X32433333Y-91215000D02*
X32528571Y-91167380D01*
X32528571Y-91167380D02*
X32719047Y-91167380D01*
X32719047Y-91167380D02*
X32814285Y-91215000D01*
X32814285Y-91215000D02*
X32861904Y-91262619D01*
X32861904Y-91262619D02*
X32909523Y-91357857D01*
X32909523Y-91357857D02*
X32909523Y-91595952D01*
X32909523Y-91595952D02*
X32861904Y-91691190D01*
X32861904Y-91691190D02*
X32814285Y-91738809D01*
X32814285Y-91738809D02*
X32719047Y-91786428D01*
X32719047Y-91786428D02*
X32528571Y-91786428D01*
X32528571Y-91786428D02*
X32433333Y-91738809D01*
X32433333Y-91738809D02*
X32385714Y-91691190D01*
X32385714Y-91691190D02*
X32338095Y-91595952D01*
%TO.C,R20*%
X34242857Y-101967380D02*
X34576190Y-101491190D01*
X34814285Y-101967380D02*
X34814285Y-100967380D01*
X34814285Y-100967380D02*
X34433333Y-100967380D01*
X34433333Y-100967380D02*
X34338095Y-101015000D01*
X34338095Y-101015000D02*
X34290476Y-101062619D01*
X34290476Y-101062619D02*
X34242857Y-101157857D01*
X34242857Y-101157857D02*
X34242857Y-101300714D01*
X34242857Y-101300714D02*
X34290476Y-101395952D01*
X34290476Y-101395952D02*
X34338095Y-101443571D01*
X34338095Y-101443571D02*
X34433333Y-101491190D01*
X34433333Y-101491190D02*
X34814285Y-101491190D01*
X33861904Y-101062619D02*
X33814285Y-101015000D01*
X33814285Y-101015000D02*
X33719047Y-100967380D01*
X33719047Y-100967380D02*
X33480952Y-100967380D01*
X33480952Y-100967380D02*
X33385714Y-101015000D01*
X33385714Y-101015000D02*
X33338095Y-101062619D01*
X33338095Y-101062619D02*
X33290476Y-101157857D01*
X33290476Y-101157857D02*
X33290476Y-101253095D01*
X33290476Y-101253095D02*
X33338095Y-101395952D01*
X33338095Y-101395952D02*
X33909523Y-101967380D01*
X33909523Y-101967380D02*
X33290476Y-101967380D01*
X32671428Y-100967380D02*
X32576190Y-100967380D01*
X32576190Y-100967380D02*
X32480952Y-101015000D01*
X32480952Y-101015000D02*
X32433333Y-101062619D01*
X32433333Y-101062619D02*
X32385714Y-101157857D01*
X32385714Y-101157857D02*
X32338095Y-101348333D01*
X32338095Y-101348333D02*
X32338095Y-101586428D01*
X32338095Y-101586428D02*
X32385714Y-101776904D01*
X32385714Y-101776904D02*
X32433333Y-101872142D01*
X32433333Y-101872142D02*
X32480952Y-101919761D01*
X32480952Y-101919761D02*
X32576190Y-101967380D01*
X32576190Y-101967380D02*
X32671428Y-101967380D01*
X32671428Y-101967380D02*
X32766666Y-101919761D01*
X32766666Y-101919761D02*
X32814285Y-101872142D01*
X32814285Y-101872142D02*
X32861904Y-101776904D01*
X32861904Y-101776904D02*
X32909523Y-101586428D01*
X32909523Y-101586428D02*
X32909523Y-101348333D01*
X32909523Y-101348333D02*
X32861904Y-101157857D01*
X32861904Y-101157857D02*
X32814285Y-101062619D01*
X32814285Y-101062619D02*
X32766666Y-101015000D01*
X32766666Y-101015000D02*
X32671428Y-100967380D01*
%TO.C,R21*%
X26442857Y-106967380D02*
X26776190Y-106491190D01*
X27014285Y-106967380D02*
X27014285Y-105967380D01*
X27014285Y-105967380D02*
X26633333Y-105967380D01*
X26633333Y-105967380D02*
X26538095Y-106015000D01*
X26538095Y-106015000D02*
X26490476Y-106062619D01*
X26490476Y-106062619D02*
X26442857Y-106157857D01*
X26442857Y-106157857D02*
X26442857Y-106300714D01*
X26442857Y-106300714D02*
X26490476Y-106395952D01*
X26490476Y-106395952D02*
X26538095Y-106443571D01*
X26538095Y-106443571D02*
X26633333Y-106491190D01*
X26633333Y-106491190D02*
X27014285Y-106491190D01*
X26061904Y-106062619D02*
X26014285Y-106015000D01*
X26014285Y-106015000D02*
X25919047Y-105967380D01*
X25919047Y-105967380D02*
X25680952Y-105967380D01*
X25680952Y-105967380D02*
X25585714Y-106015000D01*
X25585714Y-106015000D02*
X25538095Y-106062619D01*
X25538095Y-106062619D02*
X25490476Y-106157857D01*
X25490476Y-106157857D02*
X25490476Y-106253095D01*
X25490476Y-106253095D02*
X25538095Y-106395952D01*
X25538095Y-106395952D02*
X26109523Y-106967380D01*
X26109523Y-106967380D02*
X25490476Y-106967380D01*
X24538095Y-106967380D02*
X25109523Y-106967380D01*
X24823809Y-106967380D02*
X24823809Y-105967380D01*
X24823809Y-105967380D02*
X24919047Y-106110238D01*
X24919047Y-106110238D02*
X25014285Y-106205476D01*
X25014285Y-106205476D02*
X25109523Y-106253095D01*
%TO.C,R22*%
X26642857Y-96967380D02*
X26976190Y-96491190D01*
X27214285Y-96967380D02*
X27214285Y-95967380D01*
X27214285Y-95967380D02*
X26833333Y-95967380D01*
X26833333Y-95967380D02*
X26738095Y-96015000D01*
X26738095Y-96015000D02*
X26690476Y-96062619D01*
X26690476Y-96062619D02*
X26642857Y-96157857D01*
X26642857Y-96157857D02*
X26642857Y-96300714D01*
X26642857Y-96300714D02*
X26690476Y-96395952D01*
X26690476Y-96395952D02*
X26738095Y-96443571D01*
X26738095Y-96443571D02*
X26833333Y-96491190D01*
X26833333Y-96491190D02*
X27214285Y-96491190D01*
X26261904Y-96062619D02*
X26214285Y-96015000D01*
X26214285Y-96015000D02*
X26119047Y-95967380D01*
X26119047Y-95967380D02*
X25880952Y-95967380D01*
X25880952Y-95967380D02*
X25785714Y-96015000D01*
X25785714Y-96015000D02*
X25738095Y-96062619D01*
X25738095Y-96062619D02*
X25690476Y-96157857D01*
X25690476Y-96157857D02*
X25690476Y-96253095D01*
X25690476Y-96253095D02*
X25738095Y-96395952D01*
X25738095Y-96395952D02*
X26309523Y-96967380D01*
X26309523Y-96967380D02*
X25690476Y-96967380D01*
X25309523Y-96062619D02*
X25261904Y-96015000D01*
X25261904Y-96015000D02*
X25166666Y-95967380D01*
X25166666Y-95967380D02*
X24928571Y-95967380D01*
X24928571Y-95967380D02*
X24833333Y-96015000D01*
X24833333Y-96015000D02*
X24785714Y-96062619D01*
X24785714Y-96062619D02*
X24738095Y-96157857D01*
X24738095Y-96157857D02*
X24738095Y-96253095D01*
X24738095Y-96253095D02*
X24785714Y-96395952D01*
X24785714Y-96395952D02*
X25357142Y-96967380D01*
X25357142Y-96967380D02*
X24738095Y-96967380D01*
%TO.C,R24*%
X26642857Y-77167380D02*
X26976190Y-76691190D01*
X27214285Y-77167380D02*
X27214285Y-76167380D01*
X27214285Y-76167380D02*
X26833333Y-76167380D01*
X26833333Y-76167380D02*
X26738095Y-76215000D01*
X26738095Y-76215000D02*
X26690476Y-76262619D01*
X26690476Y-76262619D02*
X26642857Y-76357857D01*
X26642857Y-76357857D02*
X26642857Y-76500714D01*
X26642857Y-76500714D02*
X26690476Y-76595952D01*
X26690476Y-76595952D02*
X26738095Y-76643571D01*
X26738095Y-76643571D02*
X26833333Y-76691190D01*
X26833333Y-76691190D02*
X27214285Y-76691190D01*
X26261904Y-76262619D02*
X26214285Y-76215000D01*
X26214285Y-76215000D02*
X26119047Y-76167380D01*
X26119047Y-76167380D02*
X25880952Y-76167380D01*
X25880952Y-76167380D02*
X25785714Y-76215000D01*
X25785714Y-76215000D02*
X25738095Y-76262619D01*
X25738095Y-76262619D02*
X25690476Y-76357857D01*
X25690476Y-76357857D02*
X25690476Y-76453095D01*
X25690476Y-76453095D02*
X25738095Y-76595952D01*
X25738095Y-76595952D02*
X26309523Y-77167380D01*
X26309523Y-77167380D02*
X25690476Y-77167380D01*
X24833333Y-76500714D02*
X24833333Y-77167380D01*
X25071428Y-76119761D02*
X25309523Y-76834047D01*
X25309523Y-76834047D02*
X24690476Y-76834047D01*
%TO.C,R25*%
X26842857Y-71967380D02*
X27176190Y-71491190D01*
X27414285Y-71967380D02*
X27414285Y-70967380D01*
X27414285Y-70967380D02*
X27033333Y-70967380D01*
X27033333Y-70967380D02*
X26938095Y-71015000D01*
X26938095Y-71015000D02*
X26890476Y-71062619D01*
X26890476Y-71062619D02*
X26842857Y-71157857D01*
X26842857Y-71157857D02*
X26842857Y-71300714D01*
X26842857Y-71300714D02*
X26890476Y-71395952D01*
X26890476Y-71395952D02*
X26938095Y-71443571D01*
X26938095Y-71443571D02*
X27033333Y-71491190D01*
X27033333Y-71491190D02*
X27414285Y-71491190D01*
X26461904Y-71062619D02*
X26414285Y-71015000D01*
X26414285Y-71015000D02*
X26319047Y-70967380D01*
X26319047Y-70967380D02*
X26080952Y-70967380D01*
X26080952Y-70967380D02*
X25985714Y-71015000D01*
X25985714Y-71015000D02*
X25938095Y-71062619D01*
X25938095Y-71062619D02*
X25890476Y-71157857D01*
X25890476Y-71157857D02*
X25890476Y-71253095D01*
X25890476Y-71253095D02*
X25938095Y-71395952D01*
X25938095Y-71395952D02*
X26509523Y-71967380D01*
X26509523Y-71967380D02*
X25890476Y-71967380D01*
X24985714Y-70967380D02*
X25461904Y-70967380D01*
X25461904Y-70967380D02*
X25509523Y-71443571D01*
X25509523Y-71443571D02*
X25461904Y-71395952D01*
X25461904Y-71395952D02*
X25366666Y-71348333D01*
X25366666Y-71348333D02*
X25128571Y-71348333D01*
X25128571Y-71348333D02*
X25033333Y-71395952D01*
X25033333Y-71395952D02*
X24985714Y-71443571D01*
X24985714Y-71443571D02*
X24938095Y-71538809D01*
X24938095Y-71538809D02*
X24938095Y-71776904D01*
X24938095Y-71776904D02*
X24985714Y-71872142D01*
X24985714Y-71872142D02*
X25033333Y-71919761D01*
X25033333Y-71919761D02*
X25128571Y-71967380D01*
X25128571Y-71967380D02*
X25366666Y-71967380D01*
X25366666Y-71967380D02*
X25461904Y-71919761D01*
X25461904Y-71919761D02*
X25509523Y-71872142D01*
%TO.C,R26*%
X27042857Y-81767380D02*
X27376190Y-81291190D01*
X27614285Y-81767380D02*
X27614285Y-80767380D01*
X27614285Y-80767380D02*
X27233333Y-80767380D01*
X27233333Y-80767380D02*
X27138095Y-80815000D01*
X27138095Y-80815000D02*
X27090476Y-80862619D01*
X27090476Y-80862619D02*
X27042857Y-80957857D01*
X27042857Y-80957857D02*
X27042857Y-81100714D01*
X27042857Y-81100714D02*
X27090476Y-81195952D01*
X27090476Y-81195952D02*
X27138095Y-81243571D01*
X27138095Y-81243571D02*
X27233333Y-81291190D01*
X27233333Y-81291190D02*
X27614285Y-81291190D01*
X26661904Y-80862619D02*
X26614285Y-80815000D01*
X26614285Y-80815000D02*
X26519047Y-80767380D01*
X26519047Y-80767380D02*
X26280952Y-80767380D01*
X26280952Y-80767380D02*
X26185714Y-80815000D01*
X26185714Y-80815000D02*
X26138095Y-80862619D01*
X26138095Y-80862619D02*
X26090476Y-80957857D01*
X26090476Y-80957857D02*
X26090476Y-81053095D01*
X26090476Y-81053095D02*
X26138095Y-81195952D01*
X26138095Y-81195952D02*
X26709523Y-81767380D01*
X26709523Y-81767380D02*
X26090476Y-81767380D01*
X25233333Y-80767380D02*
X25423809Y-80767380D01*
X25423809Y-80767380D02*
X25519047Y-80815000D01*
X25519047Y-80815000D02*
X25566666Y-80862619D01*
X25566666Y-80862619D02*
X25661904Y-81005476D01*
X25661904Y-81005476D02*
X25709523Y-81195952D01*
X25709523Y-81195952D02*
X25709523Y-81576904D01*
X25709523Y-81576904D02*
X25661904Y-81672142D01*
X25661904Y-81672142D02*
X25614285Y-81719761D01*
X25614285Y-81719761D02*
X25519047Y-81767380D01*
X25519047Y-81767380D02*
X25328571Y-81767380D01*
X25328571Y-81767380D02*
X25233333Y-81719761D01*
X25233333Y-81719761D02*
X25185714Y-81672142D01*
X25185714Y-81672142D02*
X25138095Y-81576904D01*
X25138095Y-81576904D02*
X25138095Y-81338809D01*
X25138095Y-81338809D02*
X25185714Y-81243571D01*
X25185714Y-81243571D02*
X25233333Y-81195952D01*
X25233333Y-81195952D02*
X25328571Y-81148333D01*
X25328571Y-81148333D02*
X25519047Y-81148333D01*
X25519047Y-81148333D02*
X25614285Y-81195952D01*
X25614285Y-81195952D02*
X25661904Y-81243571D01*
X25661904Y-81243571D02*
X25709523Y-81338809D01*
%TO.C,R27*%
X26842857Y-91967380D02*
X27176190Y-91491190D01*
X27414285Y-91967380D02*
X27414285Y-90967380D01*
X27414285Y-90967380D02*
X27033333Y-90967380D01*
X27033333Y-90967380D02*
X26938095Y-91015000D01*
X26938095Y-91015000D02*
X26890476Y-91062619D01*
X26890476Y-91062619D02*
X26842857Y-91157857D01*
X26842857Y-91157857D02*
X26842857Y-91300714D01*
X26842857Y-91300714D02*
X26890476Y-91395952D01*
X26890476Y-91395952D02*
X26938095Y-91443571D01*
X26938095Y-91443571D02*
X27033333Y-91491190D01*
X27033333Y-91491190D02*
X27414285Y-91491190D01*
X26461904Y-91062619D02*
X26414285Y-91015000D01*
X26414285Y-91015000D02*
X26319047Y-90967380D01*
X26319047Y-90967380D02*
X26080952Y-90967380D01*
X26080952Y-90967380D02*
X25985714Y-91015000D01*
X25985714Y-91015000D02*
X25938095Y-91062619D01*
X25938095Y-91062619D02*
X25890476Y-91157857D01*
X25890476Y-91157857D02*
X25890476Y-91253095D01*
X25890476Y-91253095D02*
X25938095Y-91395952D01*
X25938095Y-91395952D02*
X26509523Y-91967380D01*
X26509523Y-91967380D02*
X25890476Y-91967380D01*
X25557142Y-90967380D02*
X24890476Y-90967380D01*
X24890476Y-90967380D02*
X25319047Y-91967380D01*
%TO.C,R28*%
X26642857Y-102167380D02*
X26976190Y-101691190D01*
X27214285Y-102167380D02*
X27214285Y-101167380D01*
X27214285Y-101167380D02*
X26833333Y-101167380D01*
X26833333Y-101167380D02*
X26738095Y-101215000D01*
X26738095Y-101215000D02*
X26690476Y-101262619D01*
X26690476Y-101262619D02*
X26642857Y-101357857D01*
X26642857Y-101357857D02*
X26642857Y-101500714D01*
X26642857Y-101500714D02*
X26690476Y-101595952D01*
X26690476Y-101595952D02*
X26738095Y-101643571D01*
X26738095Y-101643571D02*
X26833333Y-101691190D01*
X26833333Y-101691190D02*
X27214285Y-101691190D01*
X26261904Y-101262619D02*
X26214285Y-101215000D01*
X26214285Y-101215000D02*
X26119047Y-101167380D01*
X26119047Y-101167380D02*
X25880952Y-101167380D01*
X25880952Y-101167380D02*
X25785714Y-101215000D01*
X25785714Y-101215000D02*
X25738095Y-101262619D01*
X25738095Y-101262619D02*
X25690476Y-101357857D01*
X25690476Y-101357857D02*
X25690476Y-101453095D01*
X25690476Y-101453095D02*
X25738095Y-101595952D01*
X25738095Y-101595952D02*
X26309523Y-102167380D01*
X26309523Y-102167380D02*
X25690476Y-102167380D01*
X25119047Y-101595952D02*
X25214285Y-101548333D01*
X25214285Y-101548333D02*
X25261904Y-101500714D01*
X25261904Y-101500714D02*
X25309523Y-101405476D01*
X25309523Y-101405476D02*
X25309523Y-101357857D01*
X25309523Y-101357857D02*
X25261904Y-101262619D01*
X25261904Y-101262619D02*
X25214285Y-101215000D01*
X25214285Y-101215000D02*
X25119047Y-101167380D01*
X25119047Y-101167380D02*
X24928571Y-101167380D01*
X24928571Y-101167380D02*
X24833333Y-101215000D01*
X24833333Y-101215000D02*
X24785714Y-101262619D01*
X24785714Y-101262619D02*
X24738095Y-101357857D01*
X24738095Y-101357857D02*
X24738095Y-101405476D01*
X24738095Y-101405476D02*
X24785714Y-101500714D01*
X24785714Y-101500714D02*
X24833333Y-101548333D01*
X24833333Y-101548333D02*
X24928571Y-101595952D01*
X24928571Y-101595952D02*
X25119047Y-101595952D01*
X25119047Y-101595952D02*
X25214285Y-101643571D01*
X25214285Y-101643571D02*
X25261904Y-101691190D01*
X25261904Y-101691190D02*
X25309523Y-101786428D01*
X25309523Y-101786428D02*
X25309523Y-101976904D01*
X25309523Y-101976904D02*
X25261904Y-102072142D01*
X25261904Y-102072142D02*
X25214285Y-102119761D01*
X25214285Y-102119761D02*
X25119047Y-102167380D01*
X25119047Y-102167380D02*
X24928571Y-102167380D01*
X24928571Y-102167380D02*
X24833333Y-102119761D01*
X24833333Y-102119761D02*
X24785714Y-102072142D01*
X24785714Y-102072142D02*
X24738095Y-101976904D01*
X24738095Y-101976904D02*
X24738095Y-101786428D01*
X24738095Y-101786428D02*
X24785714Y-101691190D01*
X24785714Y-101691190D02*
X24833333Y-101643571D01*
X24833333Y-101643571D02*
X24928571Y-101595952D01*
%TO.C,R29*%
X26842857Y-66967380D02*
X27176190Y-66491190D01*
X27414285Y-66967380D02*
X27414285Y-65967380D01*
X27414285Y-65967380D02*
X27033333Y-65967380D01*
X27033333Y-65967380D02*
X26938095Y-66015000D01*
X26938095Y-66015000D02*
X26890476Y-66062619D01*
X26890476Y-66062619D02*
X26842857Y-66157857D01*
X26842857Y-66157857D02*
X26842857Y-66300714D01*
X26842857Y-66300714D02*
X26890476Y-66395952D01*
X26890476Y-66395952D02*
X26938095Y-66443571D01*
X26938095Y-66443571D02*
X27033333Y-66491190D01*
X27033333Y-66491190D02*
X27414285Y-66491190D01*
X26461904Y-66062619D02*
X26414285Y-66015000D01*
X26414285Y-66015000D02*
X26319047Y-65967380D01*
X26319047Y-65967380D02*
X26080952Y-65967380D01*
X26080952Y-65967380D02*
X25985714Y-66015000D01*
X25985714Y-66015000D02*
X25938095Y-66062619D01*
X25938095Y-66062619D02*
X25890476Y-66157857D01*
X25890476Y-66157857D02*
X25890476Y-66253095D01*
X25890476Y-66253095D02*
X25938095Y-66395952D01*
X25938095Y-66395952D02*
X26509523Y-66967380D01*
X26509523Y-66967380D02*
X25890476Y-66967380D01*
X25414285Y-66967380D02*
X25223809Y-66967380D01*
X25223809Y-66967380D02*
X25128571Y-66919761D01*
X25128571Y-66919761D02*
X25080952Y-66872142D01*
X25080952Y-66872142D02*
X24985714Y-66729285D01*
X24985714Y-66729285D02*
X24938095Y-66538809D01*
X24938095Y-66538809D02*
X24938095Y-66157857D01*
X24938095Y-66157857D02*
X24985714Y-66062619D01*
X24985714Y-66062619D02*
X25033333Y-66015000D01*
X25033333Y-66015000D02*
X25128571Y-65967380D01*
X25128571Y-65967380D02*
X25319047Y-65967380D01*
X25319047Y-65967380D02*
X25414285Y-66015000D01*
X25414285Y-66015000D02*
X25461904Y-66062619D01*
X25461904Y-66062619D02*
X25509523Y-66157857D01*
X25509523Y-66157857D02*
X25509523Y-66395952D01*
X25509523Y-66395952D02*
X25461904Y-66491190D01*
X25461904Y-66491190D02*
X25414285Y-66538809D01*
X25414285Y-66538809D02*
X25319047Y-66586428D01*
X25319047Y-66586428D02*
X25128571Y-66586428D01*
X25128571Y-66586428D02*
X25033333Y-66538809D01*
X25033333Y-66538809D02*
X24985714Y-66491190D01*
X24985714Y-66491190D02*
X24938095Y-66395952D01*
%TO.C,R30*%
X26842857Y-56967380D02*
X27176190Y-56491190D01*
X27414285Y-56967380D02*
X27414285Y-55967380D01*
X27414285Y-55967380D02*
X27033333Y-55967380D01*
X27033333Y-55967380D02*
X26938095Y-56015000D01*
X26938095Y-56015000D02*
X26890476Y-56062619D01*
X26890476Y-56062619D02*
X26842857Y-56157857D01*
X26842857Y-56157857D02*
X26842857Y-56300714D01*
X26842857Y-56300714D02*
X26890476Y-56395952D01*
X26890476Y-56395952D02*
X26938095Y-56443571D01*
X26938095Y-56443571D02*
X27033333Y-56491190D01*
X27033333Y-56491190D02*
X27414285Y-56491190D01*
X26509523Y-55967380D02*
X25890476Y-55967380D01*
X25890476Y-55967380D02*
X26223809Y-56348333D01*
X26223809Y-56348333D02*
X26080952Y-56348333D01*
X26080952Y-56348333D02*
X25985714Y-56395952D01*
X25985714Y-56395952D02*
X25938095Y-56443571D01*
X25938095Y-56443571D02*
X25890476Y-56538809D01*
X25890476Y-56538809D02*
X25890476Y-56776904D01*
X25890476Y-56776904D02*
X25938095Y-56872142D01*
X25938095Y-56872142D02*
X25985714Y-56919761D01*
X25985714Y-56919761D02*
X26080952Y-56967380D01*
X26080952Y-56967380D02*
X26366666Y-56967380D01*
X26366666Y-56967380D02*
X26461904Y-56919761D01*
X26461904Y-56919761D02*
X26509523Y-56872142D01*
X25271428Y-55967380D02*
X25176190Y-55967380D01*
X25176190Y-55967380D02*
X25080952Y-56015000D01*
X25080952Y-56015000D02*
X25033333Y-56062619D01*
X25033333Y-56062619D02*
X24985714Y-56157857D01*
X24985714Y-56157857D02*
X24938095Y-56348333D01*
X24938095Y-56348333D02*
X24938095Y-56586428D01*
X24938095Y-56586428D02*
X24985714Y-56776904D01*
X24985714Y-56776904D02*
X25033333Y-56872142D01*
X25033333Y-56872142D02*
X25080952Y-56919761D01*
X25080952Y-56919761D02*
X25176190Y-56967380D01*
X25176190Y-56967380D02*
X25271428Y-56967380D01*
X25271428Y-56967380D02*
X25366666Y-56919761D01*
X25366666Y-56919761D02*
X25414285Y-56872142D01*
X25414285Y-56872142D02*
X25461904Y-56776904D01*
X25461904Y-56776904D02*
X25509523Y-56586428D01*
X25509523Y-56586428D02*
X25509523Y-56348333D01*
X25509523Y-56348333D02*
X25461904Y-56157857D01*
X25461904Y-56157857D02*
X25414285Y-56062619D01*
X25414285Y-56062619D02*
X25366666Y-56015000D01*
X25366666Y-56015000D02*
X25271428Y-55967380D01*
%TO.C,R31*%
X26642857Y-46967380D02*
X26976190Y-46491190D01*
X27214285Y-46967380D02*
X27214285Y-45967380D01*
X27214285Y-45967380D02*
X26833333Y-45967380D01*
X26833333Y-45967380D02*
X26738095Y-46015000D01*
X26738095Y-46015000D02*
X26690476Y-46062619D01*
X26690476Y-46062619D02*
X26642857Y-46157857D01*
X26642857Y-46157857D02*
X26642857Y-46300714D01*
X26642857Y-46300714D02*
X26690476Y-46395952D01*
X26690476Y-46395952D02*
X26738095Y-46443571D01*
X26738095Y-46443571D02*
X26833333Y-46491190D01*
X26833333Y-46491190D02*
X27214285Y-46491190D01*
X26309523Y-45967380D02*
X25690476Y-45967380D01*
X25690476Y-45967380D02*
X26023809Y-46348333D01*
X26023809Y-46348333D02*
X25880952Y-46348333D01*
X25880952Y-46348333D02*
X25785714Y-46395952D01*
X25785714Y-46395952D02*
X25738095Y-46443571D01*
X25738095Y-46443571D02*
X25690476Y-46538809D01*
X25690476Y-46538809D02*
X25690476Y-46776904D01*
X25690476Y-46776904D02*
X25738095Y-46872142D01*
X25738095Y-46872142D02*
X25785714Y-46919761D01*
X25785714Y-46919761D02*
X25880952Y-46967380D01*
X25880952Y-46967380D02*
X26166666Y-46967380D01*
X26166666Y-46967380D02*
X26261904Y-46919761D01*
X26261904Y-46919761D02*
X26309523Y-46872142D01*
X24738095Y-46967380D02*
X25309523Y-46967380D01*
X25023809Y-46967380D02*
X25023809Y-45967380D01*
X25023809Y-45967380D02*
X25119047Y-46110238D01*
X25119047Y-46110238D02*
X25214285Y-46205476D01*
X25214285Y-46205476D02*
X25309523Y-46253095D01*
%TO.C,R32*%
X26842857Y-36967380D02*
X27176190Y-36491190D01*
X27414285Y-36967380D02*
X27414285Y-35967380D01*
X27414285Y-35967380D02*
X27033333Y-35967380D01*
X27033333Y-35967380D02*
X26938095Y-36015000D01*
X26938095Y-36015000D02*
X26890476Y-36062619D01*
X26890476Y-36062619D02*
X26842857Y-36157857D01*
X26842857Y-36157857D02*
X26842857Y-36300714D01*
X26842857Y-36300714D02*
X26890476Y-36395952D01*
X26890476Y-36395952D02*
X26938095Y-36443571D01*
X26938095Y-36443571D02*
X27033333Y-36491190D01*
X27033333Y-36491190D02*
X27414285Y-36491190D01*
X26509523Y-35967380D02*
X25890476Y-35967380D01*
X25890476Y-35967380D02*
X26223809Y-36348333D01*
X26223809Y-36348333D02*
X26080952Y-36348333D01*
X26080952Y-36348333D02*
X25985714Y-36395952D01*
X25985714Y-36395952D02*
X25938095Y-36443571D01*
X25938095Y-36443571D02*
X25890476Y-36538809D01*
X25890476Y-36538809D02*
X25890476Y-36776904D01*
X25890476Y-36776904D02*
X25938095Y-36872142D01*
X25938095Y-36872142D02*
X25985714Y-36919761D01*
X25985714Y-36919761D02*
X26080952Y-36967380D01*
X26080952Y-36967380D02*
X26366666Y-36967380D01*
X26366666Y-36967380D02*
X26461904Y-36919761D01*
X26461904Y-36919761D02*
X26509523Y-36872142D01*
X25509523Y-36062619D02*
X25461904Y-36015000D01*
X25461904Y-36015000D02*
X25366666Y-35967380D01*
X25366666Y-35967380D02*
X25128571Y-35967380D01*
X25128571Y-35967380D02*
X25033333Y-36015000D01*
X25033333Y-36015000D02*
X24985714Y-36062619D01*
X24985714Y-36062619D02*
X24938095Y-36157857D01*
X24938095Y-36157857D02*
X24938095Y-36253095D01*
X24938095Y-36253095D02*
X24985714Y-36395952D01*
X24985714Y-36395952D02*
X25557142Y-36967380D01*
X25557142Y-36967380D02*
X24938095Y-36967380D01*
%TO.C,R33*%
X26842857Y-31967380D02*
X27176190Y-31491190D01*
X27414285Y-31967380D02*
X27414285Y-30967380D01*
X27414285Y-30967380D02*
X27033333Y-30967380D01*
X27033333Y-30967380D02*
X26938095Y-31015000D01*
X26938095Y-31015000D02*
X26890476Y-31062619D01*
X26890476Y-31062619D02*
X26842857Y-31157857D01*
X26842857Y-31157857D02*
X26842857Y-31300714D01*
X26842857Y-31300714D02*
X26890476Y-31395952D01*
X26890476Y-31395952D02*
X26938095Y-31443571D01*
X26938095Y-31443571D02*
X27033333Y-31491190D01*
X27033333Y-31491190D02*
X27414285Y-31491190D01*
X26509523Y-30967380D02*
X25890476Y-30967380D01*
X25890476Y-30967380D02*
X26223809Y-31348333D01*
X26223809Y-31348333D02*
X26080952Y-31348333D01*
X26080952Y-31348333D02*
X25985714Y-31395952D01*
X25985714Y-31395952D02*
X25938095Y-31443571D01*
X25938095Y-31443571D02*
X25890476Y-31538809D01*
X25890476Y-31538809D02*
X25890476Y-31776904D01*
X25890476Y-31776904D02*
X25938095Y-31872142D01*
X25938095Y-31872142D02*
X25985714Y-31919761D01*
X25985714Y-31919761D02*
X26080952Y-31967380D01*
X26080952Y-31967380D02*
X26366666Y-31967380D01*
X26366666Y-31967380D02*
X26461904Y-31919761D01*
X26461904Y-31919761D02*
X26509523Y-31872142D01*
X25557142Y-30967380D02*
X24938095Y-30967380D01*
X24938095Y-30967380D02*
X25271428Y-31348333D01*
X25271428Y-31348333D02*
X25128571Y-31348333D01*
X25128571Y-31348333D02*
X25033333Y-31395952D01*
X25033333Y-31395952D02*
X24985714Y-31443571D01*
X24985714Y-31443571D02*
X24938095Y-31538809D01*
X24938095Y-31538809D02*
X24938095Y-31776904D01*
X24938095Y-31776904D02*
X24985714Y-31872142D01*
X24985714Y-31872142D02*
X25033333Y-31919761D01*
X25033333Y-31919761D02*
X25128571Y-31967380D01*
X25128571Y-31967380D02*
X25414285Y-31967380D01*
X25414285Y-31967380D02*
X25509523Y-31919761D01*
X25509523Y-31919761D02*
X25557142Y-31872142D01*
%TO.C,R34*%
X26642857Y-41967380D02*
X26976190Y-41491190D01*
X27214285Y-41967380D02*
X27214285Y-40967380D01*
X27214285Y-40967380D02*
X26833333Y-40967380D01*
X26833333Y-40967380D02*
X26738095Y-41015000D01*
X26738095Y-41015000D02*
X26690476Y-41062619D01*
X26690476Y-41062619D02*
X26642857Y-41157857D01*
X26642857Y-41157857D02*
X26642857Y-41300714D01*
X26642857Y-41300714D02*
X26690476Y-41395952D01*
X26690476Y-41395952D02*
X26738095Y-41443571D01*
X26738095Y-41443571D02*
X26833333Y-41491190D01*
X26833333Y-41491190D02*
X27214285Y-41491190D01*
X26309523Y-40967380D02*
X25690476Y-40967380D01*
X25690476Y-40967380D02*
X26023809Y-41348333D01*
X26023809Y-41348333D02*
X25880952Y-41348333D01*
X25880952Y-41348333D02*
X25785714Y-41395952D01*
X25785714Y-41395952D02*
X25738095Y-41443571D01*
X25738095Y-41443571D02*
X25690476Y-41538809D01*
X25690476Y-41538809D02*
X25690476Y-41776904D01*
X25690476Y-41776904D02*
X25738095Y-41872142D01*
X25738095Y-41872142D02*
X25785714Y-41919761D01*
X25785714Y-41919761D02*
X25880952Y-41967380D01*
X25880952Y-41967380D02*
X26166666Y-41967380D01*
X26166666Y-41967380D02*
X26261904Y-41919761D01*
X26261904Y-41919761D02*
X26309523Y-41872142D01*
X24833333Y-41300714D02*
X24833333Y-41967380D01*
X25071428Y-40919761D02*
X25309523Y-41634047D01*
X25309523Y-41634047D02*
X24690476Y-41634047D01*
%TO.C,R35*%
X26642857Y-51967380D02*
X26976190Y-51491190D01*
X27214285Y-51967380D02*
X27214285Y-50967380D01*
X27214285Y-50967380D02*
X26833333Y-50967380D01*
X26833333Y-50967380D02*
X26738095Y-51015000D01*
X26738095Y-51015000D02*
X26690476Y-51062619D01*
X26690476Y-51062619D02*
X26642857Y-51157857D01*
X26642857Y-51157857D02*
X26642857Y-51300714D01*
X26642857Y-51300714D02*
X26690476Y-51395952D01*
X26690476Y-51395952D02*
X26738095Y-51443571D01*
X26738095Y-51443571D02*
X26833333Y-51491190D01*
X26833333Y-51491190D02*
X27214285Y-51491190D01*
X26309523Y-50967380D02*
X25690476Y-50967380D01*
X25690476Y-50967380D02*
X26023809Y-51348333D01*
X26023809Y-51348333D02*
X25880952Y-51348333D01*
X25880952Y-51348333D02*
X25785714Y-51395952D01*
X25785714Y-51395952D02*
X25738095Y-51443571D01*
X25738095Y-51443571D02*
X25690476Y-51538809D01*
X25690476Y-51538809D02*
X25690476Y-51776904D01*
X25690476Y-51776904D02*
X25738095Y-51872142D01*
X25738095Y-51872142D02*
X25785714Y-51919761D01*
X25785714Y-51919761D02*
X25880952Y-51967380D01*
X25880952Y-51967380D02*
X26166666Y-51967380D01*
X26166666Y-51967380D02*
X26261904Y-51919761D01*
X26261904Y-51919761D02*
X26309523Y-51872142D01*
X24785714Y-50967380D02*
X25261904Y-50967380D01*
X25261904Y-50967380D02*
X25309523Y-51443571D01*
X25309523Y-51443571D02*
X25261904Y-51395952D01*
X25261904Y-51395952D02*
X25166666Y-51348333D01*
X25166666Y-51348333D02*
X24928571Y-51348333D01*
X24928571Y-51348333D02*
X24833333Y-51395952D01*
X24833333Y-51395952D02*
X24785714Y-51443571D01*
X24785714Y-51443571D02*
X24738095Y-51538809D01*
X24738095Y-51538809D02*
X24738095Y-51776904D01*
X24738095Y-51776904D02*
X24785714Y-51872142D01*
X24785714Y-51872142D02*
X24833333Y-51919761D01*
X24833333Y-51919761D02*
X24928571Y-51967380D01*
X24928571Y-51967380D02*
X25166666Y-51967380D01*
X25166666Y-51967380D02*
X25261904Y-51919761D01*
X25261904Y-51919761D02*
X25309523Y-51872142D01*
%TO.C,R36*%
X26642857Y-61967380D02*
X26976190Y-61491190D01*
X27214285Y-61967380D02*
X27214285Y-60967380D01*
X27214285Y-60967380D02*
X26833333Y-60967380D01*
X26833333Y-60967380D02*
X26738095Y-61015000D01*
X26738095Y-61015000D02*
X26690476Y-61062619D01*
X26690476Y-61062619D02*
X26642857Y-61157857D01*
X26642857Y-61157857D02*
X26642857Y-61300714D01*
X26642857Y-61300714D02*
X26690476Y-61395952D01*
X26690476Y-61395952D02*
X26738095Y-61443571D01*
X26738095Y-61443571D02*
X26833333Y-61491190D01*
X26833333Y-61491190D02*
X27214285Y-61491190D01*
X26309523Y-60967380D02*
X25690476Y-60967380D01*
X25690476Y-60967380D02*
X26023809Y-61348333D01*
X26023809Y-61348333D02*
X25880952Y-61348333D01*
X25880952Y-61348333D02*
X25785714Y-61395952D01*
X25785714Y-61395952D02*
X25738095Y-61443571D01*
X25738095Y-61443571D02*
X25690476Y-61538809D01*
X25690476Y-61538809D02*
X25690476Y-61776904D01*
X25690476Y-61776904D02*
X25738095Y-61872142D01*
X25738095Y-61872142D02*
X25785714Y-61919761D01*
X25785714Y-61919761D02*
X25880952Y-61967380D01*
X25880952Y-61967380D02*
X26166666Y-61967380D01*
X26166666Y-61967380D02*
X26261904Y-61919761D01*
X26261904Y-61919761D02*
X26309523Y-61872142D01*
X24833333Y-60967380D02*
X25023809Y-60967380D01*
X25023809Y-60967380D02*
X25119047Y-61015000D01*
X25119047Y-61015000D02*
X25166666Y-61062619D01*
X25166666Y-61062619D02*
X25261904Y-61205476D01*
X25261904Y-61205476D02*
X25309523Y-61395952D01*
X25309523Y-61395952D02*
X25309523Y-61776904D01*
X25309523Y-61776904D02*
X25261904Y-61872142D01*
X25261904Y-61872142D02*
X25214285Y-61919761D01*
X25214285Y-61919761D02*
X25119047Y-61967380D01*
X25119047Y-61967380D02*
X24928571Y-61967380D01*
X24928571Y-61967380D02*
X24833333Y-61919761D01*
X24833333Y-61919761D02*
X24785714Y-61872142D01*
X24785714Y-61872142D02*
X24738095Y-61776904D01*
X24738095Y-61776904D02*
X24738095Y-61538809D01*
X24738095Y-61538809D02*
X24785714Y-61443571D01*
X24785714Y-61443571D02*
X24833333Y-61395952D01*
X24833333Y-61395952D02*
X24928571Y-61348333D01*
X24928571Y-61348333D02*
X25119047Y-61348333D01*
X25119047Y-61348333D02*
X25214285Y-61395952D01*
X25214285Y-61395952D02*
X25261904Y-61443571D01*
X25261904Y-61443571D02*
X25309523Y-61538809D01*
%TO.C,R23*%
X26842857Y-87167380D02*
X27176190Y-86691190D01*
X27414285Y-87167380D02*
X27414285Y-86167380D01*
X27414285Y-86167380D02*
X27033333Y-86167380D01*
X27033333Y-86167380D02*
X26938095Y-86215000D01*
X26938095Y-86215000D02*
X26890476Y-86262619D01*
X26890476Y-86262619D02*
X26842857Y-86357857D01*
X26842857Y-86357857D02*
X26842857Y-86500714D01*
X26842857Y-86500714D02*
X26890476Y-86595952D01*
X26890476Y-86595952D02*
X26938095Y-86643571D01*
X26938095Y-86643571D02*
X27033333Y-86691190D01*
X27033333Y-86691190D02*
X27414285Y-86691190D01*
X26461904Y-86262619D02*
X26414285Y-86215000D01*
X26414285Y-86215000D02*
X26319047Y-86167380D01*
X26319047Y-86167380D02*
X26080952Y-86167380D01*
X26080952Y-86167380D02*
X25985714Y-86215000D01*
X25985714Y-86215000D02*
X25938095Y-86262619D01*
X25938095Y-86262619D02*
X25890476Y-86357857D01*
X25890476Y-86357857D02*
X25890476Y-86453095D01*
X25890476Y-86453095D02*
X25938095Y-86595952D01*
X25938095Y-86595952D02*
X26509523Y-87167380D01*
X26509523Y-87167380D02*
X25890476Y-87167380D01*
X25557142Y-86167380D02*
X24938095Y-86167380D01*
X24938095Y-86167380D02*
X25271428Y-86548333D01*
X25271428Y-86548333D02*
X25128571Y-86548333D01*
X25128571Y-86548333D02*
X25033333Y-86595952D01*
X25033333Y-86595952D02*
X24985714Y-86643571D01*
X24985714Y-86643571D02*
X24938095Y-86738809D01*
X24938095Y-86738809D02*
X24938095Y-86976904D01*
X24938095Y-86976904D02*
X24985714Y-87072142D01*
X24985714Y-87072142D02*
X25033333Y-87119761D01*
X25033333Y-87119761D02*
X25128571Y-87167380D01*
X25128571Y-87167380D02*
X25414285Y-87167380D01*
X25414285Y-87167380D02*
X25509523Y-87119761D01*
X25509523Y-87119761D02*
X25557142Y-87072142D01*
%TO.C,C9*%
X62472142Y-43583333D02*
X62519761Y-43535714D01*
X62519761Y-43535714D02*
X62567380Y-43392857D01*
X62567380Y-43392857D02*
X62567380Y-43297619D01*
X62567380Y-43297619D02*
X62519761Y-43154762D01*
X62519761Y-43154762D02*
X62424523Y-43059524D01*
X62424523Y-43059524D02*
X62329285Y-43011905D01*
X62329285Y-43011905D02*
X62138809Y-42964286D01*
X62138809Y-42964286D02*
X61995952Y-42964286D01*
X61995952Y-42964286D02*
X61805476Y-43011905D01*
X61805476Y-43011905D02*
X61710238Y-43059524D01*
X61710238Y-43059524D02*
X61615000Y-43154762D01*
X61615000Y-43154762D02*
X61567380Y-43297619D01*
X61567380Y-43297619D02*
X61567380Y-43392857D01*
X61567380Y-43392857D02*
X61615000Y-43535714D01*
X61615000Y-43535714D02*
X61662619Y-43583333D01*
X62567380Y-44059524D02*
X62567380Y-44250000D01*
X62567380Y-44250000D02*
X62519761Y-44345238D01*
X62519761Y-44345238D02*
X62472142Y-44392857D01*
X62472142Y-44392857D02*
X62329285Y-44488095D01*
X62329285Y-44488095D02*
X62138809Y-44535714D01*
X62138809Y-44535714D02*
X61757857Y-44535714D01*
X61757857Y-44535714D02*
X61662619Y-44488095D01*
X61662619Y-44488095D02*
X61615000Y-44440476D01*
X61615000Y-44440476D02*
X61567380Y-44345238D01*
X61567380Y-44345238D02*
X61567380Y-44154762D01*
X61567380Y-44154762D02*
X61615000Y-44059524D01*
X61615000Y-44059524D02*
X61662619Y-44011905D01*
X61662619Y-44011905D02*
X61757857Y-43964286D01*
X61757857Y-43964286D02*
X61995952Y-43964286D01*
X61995952Y-43964286D02*
X62091190Y-44011905D01*
X62091190Y-44011905D02*
X62138809Y-44059524D01*
X62138809Y-44059524D02*
X62186428Y-44154762D01*
X62186428Y-44154762D02*
X62186428Y-44345238D01*
X62186428Y-44345238D02*
X62138809Y-44440476D01*
X62138809Y-44440476D02*
X62091190Y-44488095D01*
X62091190Y-44488095D02*
X61995952Y-44535714D01*
%TO.C,C5*%
X40316666Y-54752142D02*
X40364285Y-54799761D01*
X40364285Y-54799761D02*
X40507142Y-54847380D01*
X40507142Y-54847380D02*
X40602380Y-54847380D01*
X40602380Y-54847380D02*
X40745237Y-54799761D01*
X40745237Y-54799761D02*
X40840475Y-54704523D01*
X40840475Y-54704523D02*
X40888094Y-54609285D01*
X40888094Y-54609285D02*
X40935713Y-54418809D01*
X40935713Y-54418809D02*
X40935713Y-54275952D01*
X40935713Y-54275952D02*
X40888094Y-54085476D01*
X40888094Y-54085476D02*
X40840475Y-53990238D01*
X40840475Y-53990238D02*
X40745237Y-53895000D01*
X40745237Y-53895000D02*
X40602380Y-53847380D01*
X40602380Y-53847380D02*
X40507142Y-53847380D01*
X40507142Y-53847380D02*
X40364285Y-53895000D01*
X40364285Y-53895000D02*
X40316666Y-53942619D01*
X39411904Y-53847380D02*
X39888094Y-53847380D01*
X39888094Y-53847380D02*
X39935713Y-54323571D01*
X39935713Y-54323571D02*
X39888094Y-54275952D01*
X39888094Y-54275952D02*
X39792856Y-54228333D01*
X39792856Y-54228333D02*
X39554761Y-54228333D01*
X39554761Y-54228333D02*
X39459523Y-54275952D01*
X39459523Y-54275952D02*
X39411904Y-54323571D01*
X39411904Y-54323571D02*
X39364285Y-54418809D01*
X39364285Y-54418809D02*
X39364285Y-54656904D01*
X39364285Y-54656904D02*
X39411904Y-54752142D01*
X39411904Y-54752142D02*
X39459523Y-54799761D01*
X39459523Y-54799761D02*
X39554761Y-54847380D01*
X39554761Y-54847380D02*
X39792856Y-54847380D01*
X39792856Y-54847380D02*
X39888094Y-54799761D01*
X39888094Y-54799761D02*
X39935713Y-54752142D01*
%TO.C,C10*%
X36792142Y-85107142D02*
X36839761Y-85059523D01*
X36839761Y-85059523D02*
X36887380Y-84916666D01*
X36887380Y-84916666D02*
X36887380Y-84821428D01*
X36887380Y-84821428D02*
X36839761Y-84678571D01*
X36839761Y-84678571D02*
X36744523Y-84583333D01*
X36744523Y-84583333D02*
X36649285Y-84535714D01*
X36649285Y-84535714D02*
X36458809Y-84488095D01*
X36458809Y-84488095D02*
X36315952Y-84488095D01*
X36315952Y-84488095D02*
X36125476Y-84535714D01*
X36125476Y-84535714D02*
X36030238Y-84583333D01*
X36030238Y-84583333D02*
X35935000Y-84678571D01*
X35935000Y-84678571D02*
X35887380Y-84821428D01*
X35887380Y-84821428D02*
X35887380Y-84916666D01*
X35887380Y-84916666D02*
X35935000Y-85059523D01*
X35935000Y-85059523D02*
X35982619Y-85107142D01*
X36887380Y-86059523D02*
X36887380Y-85488095D01*
X36887380Y-85773809D02*
X35887380Y-85773809D01*
X35887380Y-85773809D02*
X36030238Y-85678571D01*
X36030238Y-85678571D02*
X36125476Y-85583333D01*
X36125476Y-85583333D02*
X36173095Y-85488095D01*
X35887380Y-86678571D02*
X35887380Y-86773809D01*
X35887380Y-86773809D02*
X35935000Y-86869047D01*
X35935000Y-86869047D02*
X35982619Y-86916666D01*
X35982619Y-86916666D02*
X36077857Y-86964285D01*
X36077857Y-86964285D02*
X36268333Y-87011904D01*
X36268333Y-87011904D02*
X36506428Y-87011904D01*
X36506428Y-87011904D02*
X36696904Y-86964285D01*
X36696904Y-86964285D02*
X36792142Y-86916666D01*
X36792142Y-86916666D02*
X36839761Y-86869047D01*
X36839761Y-86869047D02*
X36887380Y-86773809D01*
X36887380Y-86773809D02*
X36887380Y-86678571D01*
X36887380Y-86678571D02*
X36839761Y-86583333D01*
X36839761Y-86583333D02*
X36792142Y-86535714D01*
X36792142Y-86535714D02*
X36696904Y-86488095D01*
X36696904Y-86488095D02*
X36506428Y-86440476D01*
X36506428Y-86440476D02*
X36268333Y-86440476D01*
X36268333Y-86440476D02*
X36077857Y-86488095D01*
X36077857Y-86488095D02*
X35982619Y-86535714D01*
X35982619Y-86535714D02*
X35935000Y-86583333D01*
X35935000Y-86583333D02*
X35887380Y-86678571D01*
%TO.C,C11*%
X36792142Y-71707142D02*
X36839761Y-71659523D01*
X36839761Y-71659523D02*
X36887380Y-71516666D01*
X36887380Y-71516666D02*
X36887380Y-71421428D01*
X36887380Y-71421428D02*
X36839761Y-71278571D01*
X36839761Y-71278571D02*
X36744523Y-71183333D01*
X36744523Y-71183333D02*
X36649285Y-71135714D01*
X36649285Y-71135714D02*
X36458809Y-71088095D01*
X36458809Y-71088095D02*
X36315952Y-71088095D01*
X36315952Y-71088095D02*
X36125476Y-71135714D01*
X36125476Y-71135714D02*
X36030238Y-71183333D01*
X36030238Y-71183333D02*
X35935000Y-71278571D01*
X35935000Y-71278571D02*
X35887380Y-71421428D01*
X35887380Y-71421428D02*
X35887380Y-71516666D01*
X35887380Y-71516666D02*
X35935000Y-71659523D01*
X35935000Y-71659523D02*
X35982619Y-71707142D01*
X36887380Y-72659523D02*
X36887380Y-72088095D01*
X36887380Y-72373809D02*
X35887380Y-72373809D01*
X35887380Y-72373809D02*
X36030238Y-72278571D01*
X36030238Y-72278571D02*
X36125476Y-72183333D01*
X36125476Y-72183333D02*
X36173095Y-72088095D01*
X36887380Y-73611904D02*
X36887380Y-73040476D01*
X36887380Y-73326190D02*
X35887380Y-73326190D01*
X35887380Y-73326190D02*
X36030238Y-73230952D01*
X36030238Y-73230952D02*
X36125476Y-73135714D01*
X36125476Y-73135714D02*
X36173095Y-73040476D01*
%TO.C,C12*%
X28792142Y-58307142D02*
X28839761Y-58259523D01*
X28839761Y-58259523D02*
X28887380Y-58116666D01*
X28887380Y-58116666D02*
X28887380Y-58021428D01*
X28887380Y-58021428D02*
X28839761Y-57878571D01*
X28839761Y-57878571D02*
X28744523Y-57783333D01*
X28744523Y-57783333D02*
X28649285Y-57735714D01*
X28649285Y-57735714D02*
X28458809Y-57688095D01*
X28458809Y-57688095D02*
X28315952Y-57688095D01*
X28315952Y-57688095D02*
X28125476Y-57735714D01*
X28125476Y-57735714D02*
X28030238Y-57783333D01*
X28030238Y-57783333D02*
X27935000Y-57878571D01*
X27935000Y-57878571D02*
X27887380Y-58021428D01*
X27887380Y-58021428D02*
X27887380Y-58116666D01*
X27887380Y-58116666D02*
X27935000Y-58259523D01*
X27935000Y-58259523D02*
X27982619Y-58307142D01*
X28887380Y-59259523D02*
X28887380Y-58688095D01*
X28887380Y-58973809D02*
X27887380Y-58973809D01*
X27887380Y-58973809D02*
X28030238Y-58878571D01*
X28030238Y-58878571D02*
X28125476Y-58783333D01*
X28125476Y-58783333D02*
X28173095Y-58688095D01*
X27982619Y-59640476D02*
X27935000Y-59688095D01*
X27935000Y-59688095D02*
X27887380Y-59783333D01*
X27887380Y-59783333D02*
X27887380Y-60021428D01*
X27887380Y-60021428D02*
X27935000Y-60116666D01*
X27935000Y-60116666D02*
X27982619Y-60164285D01*
X27982619Y-60164285D02*
X28077857Y-60211904D01*
X28077857Y-60211904D02*
X28173095Y-60211904D01*
X28173095Y-60211904D02*
X28315952Y-60164285D01*
X28315952Y-60164285D02*
X28887380Y-59592857D01*
X28887380Y-59592857D02*
X28887380Y-60211904D01*
%TO.C,C13*%
X51642857Y-118272142D02*
X51690476Y-118319761D01*
X51690476Y-118319761D02*
X51833333Y-118367380D01*
X51833333Y-118367380D02*
X51928571Y-118367380D01*
X51928571Y-118367380D02*
X52071428Y-118319761D01*
X52071428Y-118319761D02*
X52166666Y-118224523D01*
X52166666Y-118224523D02*
X52214285Y-118129285D01*
X52214285Y-118129285D02*
X52261904Y-117938809D01*
X52261904Y-117938809D02*
X52261904Y-117795952D01*
X52261904Y-117795952D02*
X52214285Y-117605476D01*
X52214285Y-117605476D02*
X52166666Y-117510238D01*
X52166666Y-117510238D02*
X52071428Y-117415000D01*
X52071428Y-117415000D02*
X51928571Y-117367380D01*
X51928571Y-117367380D02*
X51833333Y-117367380D01*
X51833333Y-117367380D02*
X51690476Y-117415000D01*
X51690476Y-117415000D02*
X51642857Y-117462619D01*
X50690476Y-118367380D02*
X51261904Y-118367380D01*
X50976190Y-118367380D02*
X50976190Y-117367380D01*
X50976190Y-117367380D02*
X51071428Y-117510238D01*
X51071428Y-117510238D02*
X51166666Y-117605476D01*
X51166666Y-117605476D02*
X51261904Y-117653095D01*
X50357142Y-117367380D02*
X49738095Y-117367380D01*
X49738095Y-117367380D02*
X50071428Y-117748333D01*
X50071428Y-117748333D02*
X49928571Y-117748333D01*
X49928571Y-117748333D02*
X49833333Y-117795952D01*
X49833333Y-117795952D02*
X49785714Y-117843571D01*
X49785714Y-117843571D02*
X49738095Y-117938809D01*
X49738095Y-117938809D02*
X49738095Y-118176904D01*
X49738095Y-118176904D02*
X49785714Y-118272142D01*
X49785714Y-118272142D02*
X49833333Y-118319761D01*
X49833333Y-118319761D02*
X49928571Y-118367380D01*
X49928571Y-118367380D02*
X50214285Y-118367380D01*
X50214285Y-118367380D02*
X50309523Y-118319761D01*
X50309523Y-118319761D02*
X50357142Y-118272142D01*
%TO.C,R38*%
X51454880Y-85857142D02*
X50978690Y-85523809D01*
X51454880Y-85285714D02*
X50454880Y-85285714D01*
X50454880Y-85285714D02*
X50454880Y-85666666D01*
X50454880Y-85666666D02*
X50502500Y-85761904D01*
X50502500Y-85761904D02*
X50550119Y-85809523D01*
X50550119Y-85809523D02*
X50645357Y-85857142D01*
X50645357Y-85857142D02*
X50788214Y-85857142D01*
X50788214Y-85857142D02*
X50883452Y-85809523D01*
X50883452Y-85809523D02*
X50931071Y-85761904D01*
X50931071Y-85761904D02*
X50978690Y-85666666D01*
X50978690Y-85666666D02*
X50978690Y-85285714D01*
X50454880Y-86190476D02*
X50454880Y-86809523D01*
X50454880Y-86809523D02*
X50835833Y-86476190D01*
X50835833Y-86476190D02*
X50835833Y-86619047D01*
X50835833Y-86619047D02*
X50883452Y-86714285D01*
X50883452Y-86714285D02*
X50931071Y-86761904D01*
X50931071Y-86761904D02*
X51026309Y-86809523D01*
X51026309Y-86809523D02*
X51264404Y-86809523D01*
X51264404Y-86809523D02*
X51359642Y-86761904D01*
X51359642Y-86761904D02*
X51407261Y-86714285D01*
X51407261Y-86714285D02*
X51454880Y-86619047D01*
X51454880Y-86619047D02*
X51454880Y-86333333D01*
X51454880Y-86333333D02*
X51407261Y-86238095D01*
X51407261Y-86238095D02*
X51359642Y-86190476D01*
X50883452Y-87380952D02*
X50835833Y-87285714D01*
X50835833Y-87285714D02*
X50788214Y-87238095D01*
X50788214Y-87238095D02*
X50692976Y-87190476D01*
X50692976Y-87190476D02*
X50645357Y-87190476D01*
X50645357Y-87190476D02*
X50550119Y-87238095D01*
X50550119Y-87238095D02*
X50502500Y-87285714D01*
X50502500Y-87285714D02*
X50454880Y-87380952D01*
X50454880Y-87380952D02*
X50454880Y-87571428D01*
X50454880Y-87571428D02*
X50502500Y-87666666D01*
X50502500Y-87666666D02*
X50550119Y-87714285D01*
X50550119Y-87714285D02*
X50645357Y-87761904D01*
X50645357Y-87761904D02*
X50692976Y-87761904D01*
X50692976Y-87761904D02*
X50788214Y-87714285D01*
X50788214Y-87714285D02*
X50835833Y-87666666D01*
X50835833Y-87666666D02*
X50883452Y-87571428D01*
X50883452Y-87571428D02*
X50883452Y-87380952D01*
X50883452Y-87380952D02*
X50931071Y-87285714D01*
X50931071Y-87285714D02*
X50978690Y-87238095D01*
X50978690Y-87238095D02*
X51073928Y-87190476D01*
X51073928Y-87190476D02*
X51264404Y-87190476D01*
X51264404Y-87190476D02*
X51359642Y-87238095D01*
X51359642Y-87238095D02*
X51407261Y-87285714D01*
X51407261Y-87285714D02*
X51454880Y-87380952D01*
X51454880Y-87380952D02*
X51454880Y-87571428D01*
X51454880Y-87571428D02*
X51407261Y-87666666D01*
X51407261Y-87666666D02*
X51359642Y-87714285D01*
X51359642Y-87714285D02*
X51264404Y-87761904D01*
X51264404Y-87761904D02*
X51073928Y-87761904D01*
X51073928Y-87761904D02*
X50978690Y-87714285D01*
X50978690Y-87714285D02*
X50931071Y-87666666D01*
X50931071Y-87666666D02*
X50883452Y-87571428D01*
%TO.C,R41*%
X61717380Y-63557142D02*
X61241190Y-63223809D01*
X61717380Y-62985714D02*
X60717380Y-62985714D01*
X60717380Y-62985714D02*
X60717380Y-63366666D01*
X60717380Y-63366666D02*
X60765000Y-63461904D01*
X60765000Y-63461904D02*
X60812619Y-63509523D01*
X60812619Y-63509523D02*
X60907857Y-63557142D01*
X60907857Y-63557142D02*
X61050714Y-63557142D01*
X61050714Y-63557142D02*
X61145952Y-63509523D01*
X61145952Y-63509523D02*
X61193571Y-63461904D01*
X61193571Y-63461904D02*
X61241190Y-63366666D01*
X61241190Y-63366666D02*
X61241190Y-62985714D01*
X61050714Y-64414285D02*
X61717380Y-64414285D01*
X60669761Y-64176190D02*
X61384047Y-63938095D01*
X61384047Y-63938095D02*
X61384047Y-64557142D01*
X61717380Y-65461904D02*
X61717380Y-64890476D01*
X61717380Y-65176190D02*
X60717380Y-65176190D01*
X60717380Y-65176190D02*
X60860238Y-65080952D01*
X60860238Y-65080952D02*
X60955476Y-64985714D01*
X60955476Y-64985714D02*
X61003095Y-64890476D01*
%TO.C,C15*%
X43642857Y-118272142D02*
X43690476Y-118319761D01*
X43690476Y-118319761D02*
X43833333Y-118367380D01*
X43833333Y-118367380D02*
X43928571Y-118367380D01*
X43928571Y-118367380D02*
X44071428Y-118319761D01*
X44071428Y-118319761D02*
X44166666Y-118224523D01*
X44166666Y-118224523D02*
X44214285Y-118129285D01*
X44214285Y-118129285D02*
X44261904Y-117938809D01*
X44261904Y-117938809D02*
X44261904Y-117795952D01*
X44261904Y-117795952D02*
X44214285Y-117605476D01*
X44214285Y-117605476D02*
X44166666Y-117510238D01*
X44166666Y-117510238D02*
X44071428Y-117415000D01*
X44071428Y-117415000D02*
X43928571Y-117367380D01*
X43928571Y-117367380D02*
X43833333Y-117367380D01*
X43833333Y-117367380D02*
X43690476Y-117415000D01*
X43690476Y-117415000D02*
X43642857Y-117462619D01*
X42690476Y-118367380D02*
X43261904Y-118367380D01*
X42976190Y-118367380D02*
X42976190Y-117367380D01*
X42976190Y-117367380D02*
X43071428Y-117510238D01*
X43071428Y-117510238D02*
X43166666Y-117605476D01*
X43166666Y-117605476D02*
X43261904Y-117653095D01*
X41785714Y-117367380D02*
X42261904Y-117367380D01*
X42261904Y-117367380D02*
X42309523Y-117843571D01*
X42309523Y-117843571D02*
X42261904Y-117795952D01*
X42261904Y-117795952D02*
X42166666Y-117748333D01*
X42166666Y-117748333D02*
X41928571Y-117748333D01*
X41928571Y-117748333D02*
X41833333Y-117795952D01*
X41833333Y-117795952D02*
X41785714Y-117843571D01*
X41785714Y-117843571D02*
X41738095Y-117938809D01*
X41738095Y-117938809D02*
X41738095Y-118176904D01*
X41738095Y-118176904D02*
X41785714Y-118272142D01*
X41785714Y-118272142D02*
X41833333Y-118319761D01*
X41833333Y-118319761D02*
X41928571Y-118367380D01*
X41928571Y-118367380D02*
X42166666Y-118367380D01*
X42166666Y-118367380D02*
X42261904Y-118319761D01*
X42261904Y-118319761D02*
X42309523Y-118272142D01*
%TO.C,C16*%
X27192142Y-112357142D02*
X27239761Y-112309523D01*
X27239761Y-112309523D02*
X27287380Y-112166666D01*
X27287380Y-112166666D02*
X27287380Y-112071428D01*
X27287380Y-112071428D02*
X27239761Y-111928571D01*
X27239761Y-111928571D02*
X27144523Y-111833333D01*
X27144523Y-111833333D02*
X27049285Y-111785714D01*
X27049285Y-111785714D02*
X26858809Y-111738095D01*
X26858809Y-111738095D02*
X26715952Y-111738095D01*
X26715952Y-111738095D02*
X26525476Y-111785714D01*
X26525476Y-111785714D02*
X26430238Y-111833333D01*
X26430238Y-111833333D02*
X26335000Y-111928571D01*
X26335000Y-111928571D02*
X26287380Y-112071428D01*
X26287380Y-112071428D02*
X26287380Y-112166666D01*
X26287380Y-112166666D02*
X26335000Y-112309523D01*
X26335000Y-112309523D02*
X26382619Y-112357142D01*
X27287380Y-113309523D02*
X27287380Y-112738095D01*
X27287380Y-113023809D02*
X26287380Y-113023809D01*
X26287380Y-113023809D02*
X26430238Y-112928571D01*
X26430238Y-112928571D02*
X26525476Y-112833333D01*
X26525476Y-112833333D02*
X26573095Y-112738095D01*
X26287380Y-114166666D02*
X26287380Y-113976190D01*
X26287380Y-113976190D02*
X26335000Y-113880952D01*
X26335000Y-113880952D02*
X26382619Y-113833333D01*
X26382619Y-113833333D02*
X26525476Y-113738095D01*
X26525476Y-113738095D02*
X26715952Y-113690476D01*
X26715952Y-113690476D02*
X27096904Y-113690476D01*
X27096904Y-113690476D02*
X27192142Y-113738095D01*
X27192142Y-113738095D02*
X27239761Y-113785714D01*
X27239761Y-113785714D02*
X27287380Y-113880952D01*
X27287380Y-113880952D02*
X27287380Y-114071428D01*
X27287380Y-114071428D02*
X27239761Y-114166666D01*
X27239761Y-114166666D02*
X27192142Y-114214285D01*
X27192142Y-114214285D02*
X27096904Y-114261904D01*
X27096904Y-114261904D02*
X26858809Y-114261904D01*
X26858809Y-114261904D02*
X26763571Y-114214285D01*
X26763571Y-114214285D02*
X26715952Y-114166666D01*
X26715952Y-114166666D02*
X26668333Y-114071428D01*
X26668333Y-114071428D02*
X26668333Y-113880952D01*
X26668333Y-113880952D02*
X26715952Y-113785714D01*
X26715952Y-113785714D02*
X26763571Y-113738095D01*
X26763571Y-113738095D02*
X26858809Y-113690476D01*
%TO.C,R40*%
X51454880Y-105857142D02*
X50978690Y-105523809D01*
X51454880Y-105285714D02*
X50454880Y-105285714D01*
X50454880Y-105285714D02*
X50454880Y-105666666D01*
X50454880Y-105666666D02*
X50502500Y-105761904D01*
X50502500Y-105761904D02*
X50550119Y-105809523D01*
X50550119Y-105809523D02*
X50645357Y-105857142D01*
X50645357Y-105857142D02*
X50788214Y-105857142D01*
X50788214Y-105857142D02*
X50883452Y-105809523D01*
X50883452Y-105809523D02*
X50931071Y-105761904D01*
X50931071Y-105761904D02*
X50978690Y-105666666D01*
X50978690Y-105666666D02*
X50978690Y-105285714D01*
X50788214Y-106714285D02*
X51454880Y-106714285D01*
X50407261Y-106476190D02*
X51121547Y-106238095D01*
X51121547Y-106238095D02*
X51121547Y-106857142D01*
X50454880Y-107428571D02*
X50454880Y-107523809D01*
X50454880Y-107523809D02*
X50502500Y-107619047D01*
X50502500Y-107619047D02*
X50550119Y-107666666D01*
X50550119Y-107666666D02*
X50645357Y-107714285D01*
X50645357Y-107714285D02*
X50835833Y-107761904D01*
X50835833Y-107761904D02*
X51073928Y-107761904D01*
X51073928Y-107761904D02*
X51264404Y-107714285D01*
X51264404Y-107714285D02*
X51359642Y-107666666D01*
X51359642Y-107666666D02*
X51407261Y-107619047D01*
X51407261Y-107619047D02*
X51454880Y-107523809D01*
X51454880Y-107523809D02*
X51454880Y-107428571D01*
X51454880Y-107428571D02*
X51407261Y-107333333D01*
X51407261Y-107333333D02*
X51359642Y-107285714D01*
X51359642Y-107285714D02*
X51264404Y-107238095D01*
X51264404Y-107238095D02*
X51073928Y-107190476D01*
X51073928Y-107190476D02*
X50835833Y-107190476D01*
X50835833Y-107190476D02*
X50645357Y-107238095D01*
X50645357Y-107238095D02*
X50550119Y-107285714D01*
X50550119Y-107285714D02*
X50502500Y-107333333D01*
X50502500Y-107333333D02*
X50454880Y-107428571D01*
%TO.C,R39*%
X51454880Y-95857142D02*
X50978690Y-95523809D01*
X51454880Y-95285714D02*
X50454880Y-95285714D01*
X50454880Y-95285714D02*
X50454880Y-95666666D01*
X50454880Y-95666666D02*
X50502500Y-95761904D01*
X50502500Y-95761904D02*
X50550119Y-95809523D01*
X50550119Y-95809523D02*
X50645357Y-95857142D01*
X50645357Y-95857142D02*
X50788214Y-95857142D01*
X50788214Y-95857142D02*
X50883452Y-95809523D01*
X50883452Y-95809523D02*
X50931071Y-95761904D01*
X50931071Y-95761904D02*
X50978690Y-95666666D01*
X50978690Y-95666666D02*
X50978690Y-95285714D01*
X50454880Y-96190476D02*
X50454880Y-96809523D01*
X50454880Y-96809523D02*
X50835833Y-96476190D01*
X50835833Y-96476190D02*
X50835833Y-96619047D01*
X50835833Y-96619047D02*
X50883452Y-96714285D01*
X50883452Y-96714285D02*
X50931071Y-96761904D01*
X50931071Y-96761904D02*
X51026309Y-96809523D01*
X51026309Y-96809523D02*
X51264404Y-96809523D01*
X51264404Y-96809523D02*
X51359642Y-96761904D01*
X51359642Y-96761904D02*
X51407261Y-96714285D01*
X51407261Y-96714285D02*
X51454880Y-96619047D01*
X51454880Y-96619047D02*
X51454880Y-96333333D01*
X51454880Y-96333333D02*
X51407261Y-96238095D01*
X51407261Y-96238095D02*
X51359642Y-96190476D01*
X51454880Y-97285714D02*
X51454880Y-97476190D01*
X51454880Y-97476190D02*
X51407261Y-97571428D01*
X51407261Y-97571428D02*
X51359642Y-97619047D01*
X51359642Y-97619047D02*
X51216785Y-97714285D01*
X51216785Y-97714285D02*
X51026309Y-97761904D01*
X51026309Y-97761904D02*
X50645357Y-97761904D01*
X50645357Y-97761904D02*
X50550119Y-97714285D01*
X50550119Y-97714285D02*
X50502500Y-97666666D01*
X50502500Y-97666666D02*
X50454880Y-97571428D01*
X50454880Y-97571428D02*
X50454880Y-97380952D01*
X50454880Y-97380952D02*
X50502500Y-97285714D01*
X50502500Y-97285714D02*
X50550119Y-97238095D01*
X50550119Y-97238095D02*
X50645357Y-97190476D01*
X50645357Y-97190476D02*
X50883452Y-97190476D01*
X50883452Y-97190476D02*
X50978690Y-97238095D01*
X50978690Y-97238095D02*
X51026309Y-97285714D01*
X51026309Y-97285714D02*
X51073928Y-97380952D01*
X51073928Y-97380952D02*
X51073928Y-97571428D01*
X51073928Y-97571428D02*
X51026309Y-97666666D01*
X51026309Y-97666666D02*
X50978690Y-97714285D01*
X50978690Y-97714285D02*
X50883452Y-97761904D01*
%TO.C,R7*%
X61717380Y-74033333D02*
X61241190Y-73700000D01*
X61717380Y-73461905D02*
X60717380Y-73461905D01*
X60717380Y-73461905D02*
X60717380Y-73842857D01*
X60717380Y-73842857D02*
X60765000Y-73938095D01*
X60765000Y-73938095D02*
X60812619Y-73985714D01*
X60812619Y-73985714D02*
X60907857Y-74033333D01*
X60907857Y-74033333D02*
X61050714Y-74033333D01*
X61050714Y-74033333D02*
X61145952Y-73985714D01*
X61145952Y-73985714D02*
X61193571Y-73938095D01*
X61193571Y-73938095D02*
X61241190Y-73842857D01*
X61241190Y-73842857D02*
X61241190Y-73461905D01*
X60717380Y-74366667D02*
X60717380Y-75033333D01*
X60717380Y-75033333D02*
X61717380Y-74604762D01*
%TO.C,R6*%
X97217380Y-104033333D02*
X96741190Y-103700000D01*
X97217380Y-103461905D02*
X96217380Y-103461905D01*
X96217380Y-103461905D02*
X96217380Y-103842857D01*
X96217380Y-103842857D02*
X96265000Y-103938095D01*
X96265000Y-103938095D02*
X96312619Y-103985714D01*
X96312619Y-103985714D02*
X96407857Y-104033333D01*
X96407857Y-104033333D02*
X96550714Y-104033333D01*
X96550714Y-104033333D02*
X96645952Y-103985714D01*
X96645952Y-103985714D02*
X96693571Y-103938095D01*
X96693571Y-103938095D02*
X96741190Y-103842857D01*
X96741190Y-103842857D02*
X96741190Y-103461905D01*
X96217380Y-104890476D02*
X96217380Y-104700000D01*
X96217380Y-104700000D02*
X96265000Y-104604762D01*
X96265000Y-104604762D02*
X96312619Y-104557143D01*
X96312619Y-104557143D02*
X96455476Y-104461905D01*
X96455476Y-104461905D02*
X96645952Y-104414286D01*
X96645952Y-104414286D02*
X97026904Y-104414286D01*
X97026904Y-104414286D02*
X97122142Y-104461905D01*
X97122142Y-104461905D02*
X97169761Y-104509524D01*
X97169761Y-104509524D02*
X97217380Y-104604762D01*
X97217380Y-104604762D02*
X97217380Y-104795238D01*
X97217380Y-104795238D02*
X97169761Y-104890476D01*
X97169761Y-104890476D02*
X97122142Y-104938095D01*
X97122142Y-104938095D02*
X97026904Y-104985714D01*
X97026904Y-104985714D02*
X96788809Y-104985714D01*
X96788809Y-104985714D02*
X96693571Y-104938095D01*
X96693571Y-104938095D02*
X96645952Y-104890476D01*
X96645952Y-104890476D02*
X96598333Y-104795238D01*
X96598333Y-104795238D02*
X96598333Y-104604762D01*
X96598333Y-104604762D02*
X96645952Y-104509524D01*
X96645952Y-104509524D02*
X96693571Y-104461905D01*
X96693571Y-104461905D02*
X96788809Y-104414286D01*
%TO.C,R37*%
X51367380Y-75857142D02*
X50891190Y-75523809D01*
X51367380Y-75285714D02*
X50367380Y-75285714D01*
X50367380Y-75285714D02*
X50367380Y-75666666D01*
X50367380Y-75666666D02*
X50415000Y-75761904D01*
X50415000Y-75761904D02*
X50462619Y-75809523D01*
X50462619Y-75809523D02*
X50557857Y-75857142D01*
X50557857Y-75857142D02*
X50700714Y-75857142D01*
X50700714Y-75857142D02*
X50795952Y-75809523D01*
X50795952Y-75809523D02*
X50843571Y-75761904D01*
X50843571Y-75761904D02*
X50891190Y-75666666D01*
X50891190Y-75666666D02*
X50891190Y-75285714D01*
X50367380Y-76190476D02*
X50367380Y-76809523D01*
X50367380Y-76809523D02*
X50748333Y-76476190D01*
X50748333Y-76476190D02*
X50748333Y-76619047D01*
X50748333Y-76619047D02*
X50795952Y-76714285D01*
X50795952Y-76714285D02*
X50843571Y-76761904D01*
X50843571Y-76761904D02*
X50938809Y-76809523D01*
X50938809Y-76809523D02*
X51176904Y-76809523D01*
X51176904Y-76809523D02*
X51272142Y-76761904D01*
X51272142Y-76761904D02*
X51319761Y-76714285D01*
X51319761Y-76714285D02*
X51367380Y-76619047D01*
X51367380Y-76619047D02*
X51367380Y-76333333D01*
X51367380Y-76333333D02*
X51319761Y-76238095D01*
X51319761Y-76238095D02*
X51272142Y-76190476D01*
X50367380Y-77142857D02*
X50367380Y-77809523D01*
X50367380Y-77809523D02*
X51367380Y-77380952D01*
%TO.C,R8*%
X61717380Y-84033333D02*
X61241190Y-83700000D01*
X61717380Y-83461905D02*
X60717380Y-83461905D01*
X60717380Y-83461905D02*
X60717380Y-83842857D01*
X60717380Y-83842857D02*
X60765000Y-83938095D01*
X60765000Y-83938095D02*
X60812619Y-83985714D01*
X60812619Y-83985714D02*
X60907857Y-84033333D01*
X60907857Y-84033333D02*
X61050714Y-84033333D01*
X61050714Y-84033333D02*
X61145952Y-83985714D01*
X61145952Y-83985714D02*
X61193571Y-83938095D01*
X61193571Y-83938095D02*
X61241190Y-83842857D01*
X61241190Y-83842857D02*
X61241190Y-83461905D01*
X61145952Y-84604762D02*
X61098333Y-84509524D01*
X61098333Y-84509524D02*
X61050714Y-84461905D01*
X61050714Y-84461905D02*
X60955476Y-84414286D01*
X60955476Y-84414286D02*
X60907857Y-84414286D01*
X60907857Y-84414286D02*
X60812619Y-84461905D01*
X60812619Y-84461905D02*
X60765000Y-84509524D01*
X60765000Y-84509524D02*
X60717380Y-84604762D01*
X60717380Y-84604762D02*
X60717380Y-84795238D01*
X60717380Y-84795238D02*
X60765000Y-84890476D01*
X60765000Y-84890476D02*
X60812619Y-84938095D01*
X60812619Y-84938095D02*
X60907857Y-84985714D01*
X60907857Y-84985714D02*
X60955476Y-84985714D01*
X60955476Y-84985714D02*
X61050714Y-84938095D01*
X61050714Y-84938095D02*
X61098333Y-84890476D01*
X61098333Y-84890476D02*
X61145952Y-84795238D01*
X61145952Y-84795238D02*
X61145952Y-84604762D01*
X61145952Y-84604762D02*
X61193571Y-84509524D01*
X61193571Y-84509524D02*
X61241190Y-84461905D01*
X61241190Y-84461905D02*
X61336428Y-84414286D01*
X61336428Y-84414286D02*
X61526904Y-84414286D01*
X61526904Y-84414286D02*
X61622142Y-84461905D01*
X61622142Y-84461905D02*
X61669761Y-84509524D01*
X61669761Y-84509524D02*
X61717380Y-84604762D01*
X61717380Y-84604762D02*
X61717380Y-84795238D01*
X61717380Y-84795238D02*
X61669761Y-84890476D01*
X61669761Y-84890476D02*
X61622142Y-84938095D01*
X61622142Y-84938095D02*
X61526904Y-84985714D01*
X61526904Y-84985714D02*
X61336428Y-84985714D01*
X61336428Y-84985714D02*
X61241190Y-84938095D01*
X61241190Y-84938095D02*
X61193571Y-84890476D01*
X61193571Y-84890476D02*
X61145952Y-84795238D01*
%TO.C,R5*%
X87617380Y-104033333D02*
X87141190Y-103700000D01*
X87617380Y-103461905D02*
X86617380Y-103461905D01*
X86617380Y-103461905D02*
X86617380Y-103842857D01*
X86617380Y-103842857D02*
X86665000Y-103938095D01*
X86665000Y-103938095D02*
X86712619Y-103985714D01*
X86712619Y-103985714D02*
X86807857Y-104033333D01*
X86807857Y-104033333D02*
X86950714Y-104033333D01*
X86950714Y-104033333D02*
X87045952Y-103985714D01*
X87045952Y-103985714D02*
X87093571Y-103938095D01*
X87093571Y-103938095D02*
X87141190Y-103842857D01*
X87141190Y-103842857D02*
X87141190Y-103461905D01*
X86617380Y-104938095D02*
X86617380Y-104461905D01*
X86617380Y-104461905D02*
X87093571Y-104414286D01*
X87093571Y-104414286D02*
X87045952Y-104461905D01*
X87045952Y-104461905D02*
X86998333Y-104557143D01*
X86998333Y-104557143D02*
X86998333Y-104795238D01*
X86998333Y-104795238D02*
X87045952Y-104890476D01*
X87045952Y-104890476D02*
X87093571Y-104938095D01*
X87093571Y-104938095D02*
X87188809Y-104985714D01*
X87188809Y-104985714D02*
X87426904Y-104985714D01*
X87426904Y-104985714D02*
X87522142Y-104938095D01*
X87522142Y-104938095D02*
X87569761Y-104890476D01*
X87569761Y-104890476D02*
X87617380Y-104795238D01*
X87617380Y-104795238D02*
X87617380Y-104557143D01*
X87617380Y-104557143D02*
X87569761Y-104461905D01*
X87569761Y-104461905D02*
X87522142Y-104414286D01*
D11*
%TO.C,C1*%
X39265000Y-77761252D02*
X39265000Y-77238748D01*
X40735000Y-77761252D02*
X40735000Y-77238748D01*
%TO.C,C3*%
X39888748Y-40265000D02*
X40411252Y-40265000D01*
X39888748Y-41735000D02*
X40411252Y-41735000D01*
%TO.C,C4*%
X30888748Y-39665000D02*
X31411252Y-39665000D01*
X30888748Y-41135000D02*
X31411252Y-41135000D01*
%TO.C,R1*%
X52265000Y-68814564D02*
X52265000Y-68360436D01*
X53735000Y-68814564D02*
X53735000Y-68360436D01*
%TO.C,R2*%
X41639564Y-81235000D02*
X41185436Y-81235000D01*
X41639564Y-79765000D02*
X41185436Y-79765000D01*
%TO.C,R3*%
X59860436Y-53865000D02*
X60314564Y-53865000D01*
X59860436Y-55335000D02*
X60314564Y-55335000D01*
%TO.C,R4*%
X74865000Y-104427064D02*
X74865000Y-103972936D01*
X76335000Y-104427064D02*
X76335000Y-103972936D01*
%TO.C,C2*%
X114865000Y-46511252D02*
X114865000Y-45988748D01*
X116335000Y-46511252D02*
X116335000Y-45988748D01*
%TO.C,C6*%
X97065000Y-46511252D02*
X97065000Y-45988748D01*
X98535000Y-46511252D02*
X98535000Y-45988748D01*
%TO.C,R9*%
X63735000Y-93972936D02*
X63735000Y-94427064D01*
X62265000Y-93972936D02*
X62265000Y-94427064D01*
%TO.C,R10*%
X63735000Y-103860436D02*
X63735000Y-104314564D01*
X62265000Y-103860436D02*
X62265000Y-104314564D01*
%TO.C,R11*%
X104665000Y-104427064D02*
X104665000Y-103972936D01*
X106135000Y-104427064D02*
X106135000Y-103972936D01*
%TO.C,R12*%
X39735000Y-49772936D02*
X39735000Y-50227064D01*
X38265000Y-49772936D02*
X38265000Y-50227064D01*
%TO.C,C7*%
X38935000Y-98488748D02*
X38935000Y-99011252D01*
X37465000Y-98488748D02*
X37465000Y-99011252D01*
%TO.C,R13*%
X30360436Y-105765000D02*
X30814564Y-105765000D01*
X30360436Y-107235000D02*
X30814564Y-107235000D01*
%TO.C,R14*%
X30360436Y-95765000D02*
X30814564Y-95765000D01*
X30360436Y-97235000D02*
X30814564Y-97235000D01*
%TO.C,R15*%
X30360436Y-85765000D02*
X30814564Y-85765000D01*
X30360436Y-87235000D02*
X30814564Y-87235000D01*
%TO.C,R16*%
X30360436Y-75765000D02*
X30814564Y-75765000D01*
X30360436Y-77235000D02*
X30814564Y-77235000D01*
%TO.C,C14*%
X79265000Y-46511252D02*
X79265000Y-45988748D01*
X80735000Y-46511252D02*
X80735000Y-45988748D01*
%TO.C,C8*%
X30888748Y-52065000D02*
X31411252Y-52065000D01*
X30888748Y-53535000D02*
X31411252Y-53535000D01*
%TO.C,R17*%
X30360436Y-70765000D02*
X30814564Y-70765000D01*
X30360436Y-72235000D02*
X30814564Y-72235000D01*
%TO.C,R18*%
X30360436Y-80765000D02*
X30814564Y-80765000D01*
X30360436Y-82235000D02*
X30814564Y-82235000D01*
%TO.C,R19*%
X30360436Y-90765000D02*
X30814564Y-90765000D01*
X30360436Y-92235000D02*
X30814564Y-92235000D01*
%TO.C,R20*%
X30360436Y-100765000D02*
X30814564Y-100765000D01*
X30360436Y-102235000D02*
X30814564Y-102235000D01*
%TO.C,R21*%
X22860436Y-105765000D02*
X23314564Y-105765000D01*
X22860436Y-107235000D02*
X23314564Y-107235000D01*
%TO.C,R22*%
X22860436Y-95765000D02*
X23314564Y-95765000D01*
X22860436Y-97235000D02*
X23314564Y-97235000D01*
%TO.C,R24*%
X22860436Y-75765000D02*
X23314564Y-75765000D01*
X22860436Y-77235000D02*
X23314564Y-77235000D01*
%TO.C,R25*%
X22860436Y-70765000D02*
X23314564Y-70765000D01*
X22860436Y-72235000D02*
X23314564Y-72235000D01*
%TO.C,R26*%
X22860436Y-80765000D02*
X23314564Y-80765000D01*
X22860436Y-82235000D02*
X23314564Y-82235000D01*
%TO.C,R27*%
X22860436Y-90765000D02*
X23314564Y-90765000D01*
X22860436Y-92235000D02*
X23314564Y-92235000D01*
%TO.C,R28*%
X22860436Y-100765000D02*
X23314564Y-100765000D01*
X22860436Y-102235000D02*
X23314564Y-102235000D01*
%TO.C,R29*%
X22860436Y-65765000D02*
X23314564Y-65765000D01*
X22860436Y-67235000D02*
X23314564Y-67235000D01*
%TO.C,R30*%
X22860436Y-55765000D02*
X23314564Y-55765000D01*
X22860436Y-57235000D02*
X23314564Y-57235000D01*
%TO.C,R31*%
X22860436Y-45765000D02*
X23314564Y-45765000D01*
X22860436Y-47235000D02*
X23314564Y-47235000D01*
%TO.C,R32*%
X22860436Y-35765000D02*
X23314564Y-35765000D01*
X22860436Y-37235000D02*
X23314564Y-37235000D01*
%TO.C,R33*%
X22860436Y-30765000D02*
X23314564Y-30765000D01*
X22860436Y-32235000D02*
X23314564Y-32235000D01*
%TO.C,R34*%
X22860436Y-40765000D02*
X23314564Y-40765000D01*
X22860436Y-42235000D02*
X23314564Y-42235000D01*
%TO.C,R35*%
X22860436Y-50765000D02*
X23314564Y-50765000D01*
X22860436Y-52235000D02*
X23314564Y-52235000D01*
%TO.C,R36*%
X22860436Y-60765000D02*
X23314564Y-60765000D01*
X22860436Y-62235000D02*
X23314564Y-62235000D01*
%TO.C,R23*%
X22860436Y-85765000D02*
X23314564Y-85765000D01*
X22860436Y-87235000D02*
X23314564Y-87235000D01*
%TO.C,C9*%
X61465000Y-46511252D02*
X61465000Y-45988748D01*
X62935000Y-46511252D02*
X62935000Y-45988748D01*
%TO.C,C5*%
X39888748Y-52065000D02*
X40411252Y-52065000D01*
X39888748Y-53535000D02*
X40411252Y-53535000D01*
%TO.C,C10*%
X38935000Y-85488748D02*
X38935000Y-86011252D01*
X37465000Y-85488748D02*
X37465000Y-86011252D01*
%TO.C,C11*%
X38935000Y-72088748D02*
X38935000Y-72611252D01*
X37465000Y-72088748D02*
X37465000Y-72611252D01*
%TO.C,C12*%
X30935000Y-58688748D02*
X30935000Y-59211252D01*
X29465000Y-58688748D02*
X29465000Y-59211252D01*
%TO.C,C13*%
X47688748Y-117065000D02*
X48211252Y-117065000D01*
X47688748Y-118535000D02*
X48211252Y-118535000D01*
%TO.C,R38*%
X53360436Y-85765000D02*
X53814564Y-85765000D01*
X53360436Y-87235000D02*
X53814564Y-87235000D01*
%TO.C,R41*%
X63735000Y-63972936D02*
X63735000Y-64427064D01*
X62265000Y-63972936D02*
X62265000Y-64427064D01*
%TO.C,C15*%
X39738748Y-117065000D02*
X40261252Y-117065000D01*
X39738748Y-118535000D02*
X40261252Y-118535000D01*
%TO.C,C16*%
X29335000Y-112738748D02*
X29335000Y-113261252D01*
X27865000Y-112738748D02*
X27865000Y-113261252D01*
%TO.C,R40*%
X53360436Y-105765000D02*
X53814564Y-105765000D01*
X53360436Y-107235000D02*
X53814564Y-107235000D01*
%TO.C,R39*%
X53360436Y-95765000D02*
X53814564Y-95765000D01*
X53360436Y-97235000D02*
X53814564Y-97235000D01*
%TO.C,R7*%
X63735000Y-73972936D02*
X63735000Y-74427064D01*
X62265000Y-73972936D02*
X62265000Y-74427064D01*
%TO.C,R6*%
X94465000Y-104427064D02*
X94465000Y-103972936D01*
X95935000Y-104427064D02*
X95935000Y-103972936D01*
%TO.C,R37*%
X53360436Y-75765000D02*
X53814564Y-75765000D01*
X53360436Y-77235000D02*
X53814564Y-77235000D01*
%TO.C,R8*%
X63735000Y-83972936D02*
X63735000Y-84427064D01*
X62265000Y-83972936D02*
X62265000Y-84427064D01*
%TO.C,R5*%
X84865000Y-104427064D02*
X84865000Y-103972936D01*
X86335000Y-104427064D02*
X86335000Y-103972936D01*
%TD*%
M02*
