M48
; DRILL file {KiCad 7.0.0-da2b9df05c~171~ubuntu22.04.1} date Mon 06 Mar 2023 06:38:00 PM
; FORMAT={-:-/ absolute / inch / decimal}
; #@! TF.CreationDate,2023-03-06T18:38:00-05:00
; #@! TF.GenerationSoftware,Kicad,Pcbnew,7.0.0-da2b9df05c~171~ubuntu22.04.1
; #@! TF.FileFunction,Plated,1,2,PTH
FMAT,2
INCH
; #@! TA.AperFunction,Plated,PTH,ViaDrill
T1C0.0118
; #@! TA.AperFunction,Plated,PTH,ViaDrill
T2C0.0197
; #@! TA.AperFunction,Plated,PTH,ComponentDrill
T3C0.0315
; #@! TA.AperFunction,Plated,PTH,ComponentDrill
T4C0.0354
; #@! TA.AperFunction,Plated,PTH,ComponentDrill
T5C0.0394
%
G90
G05
T1
X1.0741Y-1.85
X1.1067Y-4.2194
X1.1203Y-4.3116
X1.1235Y-3.5348
X1.1283Y-3.6965
X1.1546Y-4.1396
X1.1708Y-2.7242
X1.1738Y-2.4025
X1.1937Y-4.5322
X1.2035Y-2.7119
X1.2378Y-4.5087
X1.2456Y-2.7249
X1.2676Y-2.0115
X1.2886Y-2.1327
X1.3043Y-1.3183
X1.3107Y-3.7754
X1.3587Y-2.2106
X1.3613Y-3.579
X1.3656Y-2.5749
X1.3721Y-2.1519
X1.3932Y-2.1301
X1.4088Y-4.3371
X1.4231Y-2.1232
X1.4281Y-3.1585
X1.4283Y-2.4591
X1.4541Y-2.1185
X1.4678Y-3.7509
X1.4689Y-3.4563
X1.5173Y-2.3265
X1.5386Y-3.604
X1.55Y-3.4183
X1.5823Y-3.2241
X1.5834Y-1.9041
X1.5923Y-3.5705
X1.5929Y-1.4019
X1.5972Y-1.0087
X1.6033Y-3.794
X1.6068Y-4.3712
X1.6131Y-3.4116
X1.6212Y-3.6382
X1.6305Y-4.4419
X1.6323Y-3.2241
X1.6461Y-4.3629
X1.6477Y-3.4114
X1.651Y-2.4885
X1.6676Y-3.0311
X1.6742Y-2.2091
X1.676Y-2.0657
X1.6786Y-2.5315
X1.6798Y-4.4699
X1.6818Y-0.9447
X1.6823Y-3.6518
X1.7034Y-3.5198
X1.7079Y-2.4043
X1.7166Y-0.9944
X1.7173Y-2.751
X1.72Y-2.5677
X1.7535Y-2.6307
X1.7764Y-2.351
X1.7775Y-1.6375
X1.7869Y-1.9428
X1.787Y-1.991
X1.787Y-2.0658
X1.7938Y-3.6435
X1.8033Y-1.4267
X1.8039Y-2.1412
X1.8089Y-3.2626
X1.8188Y-2.3065
X1.8208Y-2.8663
X1.8679Y-3.1173
X1.8969Y-3.0613
X1.8974Y-4.4648
X1.9116Y-3.0319
X1.9409Y-3.0649
X1.9756Y-4.4012
X1.9795Y-4.3706
X1.9846Y-2.9942
X1.9906Y-3.0328
X2.0113Y-2.0319
X2.0133Y-2.2345
X2.0236Y-2.8945
X2.0409Y-2.7303
X2.0551Y-1.7948
X2.0692Y-2.0342
X2.2538Y-1.1753
X2.2809Y-2.8725
X2.3422Y-1.232
X2.3728Y-2.834
X2.407Y-4.1904
X2.4174Y-3.3685
X2.526Y-2.5731
X2.526Y-2.9668
X2.526Y-3.7542
X2.5477Y-3.4342
X2.6073Y-2.0354
X2.6924Y-1.1261
X2.7426Y-1.1017
X2.8129Y-2.3979
X2.8891Y-1.4452
X2.9095Y-3.1323
X2.9275Y-2.821
X2.9313Y-4.1233
X2.958Y-3.5173
X3.3243Y-2.4971
X3.3283Y-2.2701
X3.4092Y-3.9113
X3.4158Y-4.1489
X3.4669Y-1.1099
X3.5337Y-3.9298
X3.7026Y-4.1516
X4.1953Y-4.1473
T2
X1.0946Y-4.3723
X1.1561Y-1.615
X1.2042Y-2.5817
X1.2173Y-2.2227
X1.2953Y-2.7252
X1.3753Y-1.2531
X1.3934Y-1.6929
X1.4166Y-4.6648
X1.4373Y-1.7709
X1.4591Y-3.851
X1.4646Y-3.6453
X1.4734Y-3.2991
X1.4736Y-4.1929
X1.4771Y-4.6427
X1.4858Y-1.6398
X1.4876Y-2.7503
X1.5384Y-2.1288
X1.626Y-1.3663
X1.6514Y-2.726
X1.6706Y-1.4641
X1.7446Y-2.2313
X1.9538Y-2.2015
X1.9627Y-3.6312
X1.9904Y-3.1467
X1.9936Y-4.3031
X2.354Y-4.1092
X2.4313Y-2.8802
X2.4675Y-2.4496
T3
X1.948Y-1.3291
X1.948Y-1.9291
X2.048Y-1.3291
X2.048Y-1.9291
X2.148Y-1.3291
X2.148Y-1.9291
X2.248Y-1.3291
X2.248Y-1.9291
X2.348Y-1.3291
X2.348Y-1.9291
X2.448Y-1.3291
X2.448Y-1.9291
X2.648Y-1.3291
X2.648Y-1.9291
X2.748Y-1.3291
X2.748Y-1.9291
X2.848Y-1.3291
X2.848Y-1.9291
X2.948Y-1.3291
X2.948Y-1.9291
X3.048Y-1.3291
X3.048Y-1.9291
X3.148Y-1.3291
X3.148Y-1.9291
X3.348Y-1.3291
X3.348Y-1.9291
X3.448Y-1.3291
X3.448Y-1.9291
X3.548Y-1.3291
X3.548Y-1.9291
X3.648Y-1.3291
X3.648Y-1.9291
X3.748Y-1.3291
X3.748Y-1.9291
X3.848Y-1.3291
X3.848Y-1.9291
X4.048Y-1.3291
X4.048Y-1.9291
X4.148Y-1.3291
X4.148Y-1.9291
X4.248Y-1.3291
X4.248Y-1.9291
X4.348Y-1.3291
X4.348Y-1.9291
X4.448Y-1.3291
X4.448Y-1.9291
X4.548Y-1.3291
X4.548Y-1.9291
T4
X0.9449Y-1.3189
X0.9449Y-1.5157
X0.9449Y-1.7126
X0.9449Y-1.9094
X0.9449Y-2.1063
X0.9449Y-2.3031
X0.9449Y-2.5
X0.9449Y-2.6969
X0.9449Y-2.8937
X0.9449Y-3.0906
X0.9449Y-3.2874
X0.9449Y-3.4843
X0.9449Y-3.6811
X0.9449Y-3.878
X0.9449Y-4.0748
X0.9449Y-4.2717
X1.0449Y-1.3189
X1.0449Y-1.5157
X1.0449Y-1.7126
X1.0449Y-1.9094
X1.0449Y-2.1063
X1.0449Y-2.3031
X1.0449Y-2.5
X1.0449Y-2.6969
X1.0449Y-2.8937
X1.0449Y-3.0906
X1.0449Y-3.2874
X1.0449Y-3.4843
X1.0449Y-3.6811
X1.0449Y-3.878
X1.0449Y-4.0748
X1.0449Y-4.2717
X1.2402Y-2.8937
X1.2402Y-3.0906
X1.2402Y-3.2874
X1.2402Y-3.4843
X1.2402Y-3.6811
X1.2402Y-3.878
X1.2402Y-4.0748
X1.2402Y-4.2717
X1.3402Y-2.8937
X1.3402Y-3.0906
X1.3402Y-3.2874
X1.3402Y-3.4843
X1.3402Y-3.6811
X1.3402Y-3.878
X1.3402Y-4.0748
X1.3402Y-4.2717
X2.1549Y-3.0906
X2.1549Y-3.4843
X2.1549Y-3.878
X2.1549Y-4.2717
X2.2549Y-3.0906
X2.2549Y-3.4843
X2.2549Y-3.878
X2.2549Y-4.2717
T5
X1.2047Y-0.8874
X1.2047Y-0.9874
X1.3047Y-0.8874
X1.3047Y-0.9874
X1.4047Y-0.8874
X1.4047Y-0.9874
X1.5047Y-0.8874
X1.5047Y-0.9874
X1.8059Y-0.8874
X1.8059Y-0.9874
X1.9059Y-0.8874
X1.9059Y-0.9874
X2.0059Y-0.8874
X2.0059Y-0.9874
X2.1059Y-0.8874
X2.1059Y-0.9874
X2.2059Y-0.8874
X2.2059Y-0.9874
X2.3059Y-0.8874
X2.3059Y-0.9874
X2.4059Y-0.8874
X2.4059Y-0.9874
X2.5059Y-0.8874
X2.5059Y-0.9874
X2.6059Y-0.8874
X2.6059Y-0.9874
X2.7059Y-0.8874
X2.7059Y-0.9874
X2.8059Y-0.8874
X2.8059Y-0.9874
X2.9059Y-0.8874
X2.9059Y-0.9874
X3.0059Y-0.8874
X3.0059Y-0.9874
X3.1059Y-0.8874
X3.1059Y-0.9874
X3.2059Y-0.8874
X3.2059Y-0.9874
X3.3059Y-0.8874
X3.3059Y-0.9874
X3.4059Y-0.8874
X3.4059Y-0.9874
X3.5059Y-0.8874
X3.5059Y-0.9874
X3.6059Y-0.8874
X3.6059Y-0.9874
X3.7059Y-0.8874
X3.7059Y-0.9874
X4.0071Y-0.8874
X4.0071Y-0.9874
X4.1071Y-0.8874
X4.1071Y-0.9874
X4.2071Y-0.8874
X4.2071Y-0.9874
X4.3071Y-0.8874
X4.3071Y-0.9874
T0
M30
