%TF.GenerationSoftware,KiCad,Pcbnew,7.0.0-da2b9df05c~171~ubuntu22.04.1*%
%TF.CreationDate,2023-03-06T18:38:04-05:00*%
%TF.ProjectId,main,6d61696e-2e6b-4696-9361-645f70636258,rev?*%
%TF.SameCoordinates,Original*%
%TF.FileFunction,Legend,Top*%
%TF.FilePolarity,Positive*%
%FSLAX46Y46*%
G04 Gerber Fmt 4.6, Leading zero omitted, Abs format (unit mm)*
G04 Created by KiCad (PCBNEW 7.0.0-da2b9df05c~171~ubuntu22.04.1) date 2023-03-06 18:38:04*
%MOMM*%
%LPD*%
G01*
G04 APERTURE LIST*
%ADD10C,0.300000*%
%ADD11C,0.150000*%
%ADD12C,0.120000*%
G04 APERTURE END LIST*
D10*
X59714285Y-112173571D02*
X60071428Y-113673571D01*
X60071428Y-113673571D02*
X60357142Y-112602142D01*
X60357142Y-112602142D02*
X60642857Y-113673571D01*
X60642857Y-113673571D02*
X61000000Y-112173571D01*
X62428571Y-113530714D02*
X62357143Y-113602142D01*
X62357143Y-113602142D02*
X62142857Y-113673571D01*
X62142857Y-113673571D02*
X62000000Y-113673571D01*
X62000000Y-113673571D02*
X61785714Y-113602142D01*
X61785714Y-113602142D02*
X61642857Y-113459285D01*
X61642857Y-113459285D02*
X61571428Y-113316428D01*
X61571428Y-113316428D02*
X61500000Y-113030714D01*
X61500000Y-113030714D02*
X61500000Y-112816428D01*
X61500000Y-112816428D02*
X61571428Y-112530714D01*
X61571428Y-112530714D02*
X61642857Y-112387857D01*
X61642857Y-112387857D02*
X61785714Y-112245000D01*
X61785714Y-112245000D02*
X62000000Y-112173571D01*
X62000000Y-112173571D02*
X62142857Y-112173571D01*
X62142857Y-112173571D02*
X62357143Y-112245000D01*
X62357143Y-112245000D02*
X62428571Y-112316428D01*
X63071428Y-113102142D02*
X64214286Y-113102142D01*
X65142857Y-112816428D02*
X65000000Y-112745000D01*
X65000000Y-112745000D02*
X64928571Y-112673571D01*
X64928571Y-112673571D02*
X64857143Y-112530714D01*
X64857143Y-112530714D02*
X64857143Y-112459285D01*
X64857143Y-112459285D02*
X64928571Y-112316428D01*
X64928571Y-112316428D02*
X65000000Y-112245000D01*
X65000000Y-112245000D02*
X65142857Y-112173571D01*
X65142857Y-112173571D02*
X65428571Y-112173571D01*
X65428571Y-112173571D02*
X65571429Y-112245000D01*
X65571429Y-112245000D02*
X65642857Y-112316428D01*
X65642857Y-112316428D02*
X65714286Y-112459285D01*
X65714286Y-112459285D02*
X65714286Y-112530714D01*
X65714286Y-112530714D02*
X65642857Y-112673571D01*
X65642857Y-112673571D02*
X65571429Y-112745000D01*
X65571429Y-112745000D02*
X65428571Y-112816428D01*
X65428571Y-112816428D02*
X65142857Y-112816428D01*
X65142857Y-112816428D02*
X65000000Y-112887857D01*
X65000000Y-112887857D02*
X64928571Y-112959285D01*
X64928571Y-112959285D02*
X64857143Y-113102142D01*
X64857143Y-113102142D02*
X64857143Y-113387857D01*
X64857143Y-113387857D02*
X64928571Y-113530714D01*
X64928571Y-113530714D02*
X65000000Y-113602142D01*
X65000000Y-113602142D02*
X65142857Y-113673571D01*
X65142857Y-113673571D02*
X65428571Y-113673571D01*
X65428571Y-113673571D02*
X65571429Y-113602142D01*
X65571429Y-113602142D02*
X65642857Y-113530714D01*
X65642857Y-113530714D02*
X65714286Y-113387857D01*
X65714286Y-113387857D02*
X65714286Y-113102142D01*
X65714286Y-113102142D02*
X65642857Y-112959285D01*
X65642857Y-112959285D02*
X65571429Y-112887857D01*
X65571429Y-112887857D02*
X65428571Y-112816428D01*
X66642857Y-112173571D02*
X66785714Y-112173571D01*
X66785714Y-112173571D02*
X66928571Y-112245000D01*
X66928571Y-112245000D02*
X67000000Y-112316428D01*
X67000000Y-112316428D02*
X67071428Y-112459285D01*
X67071428Y-112459285D02*
X67142857Y-112745000D01*
X67142857Y-112745000D02*
X67142857Y-113102142D01*
X67142857Y-113102142D02*
X67071428Y-113387857D01*
X67071428Y-113387857D02*
X67000000Y-113530714D01*
X67000000Y-113530714D02*
X66928571Y-113602142D01*
X66928571Y-113602142D02*
X66785714Y-113673571D01*
X66785714Y-113673571D02*
X66642857Y-113673571D01*
X66642857Y-113673571D02*
X66500000Y-113602142D01*
X66500000Y-113602142D02*
X66428571Y-113530714D01*
X66428571Y-113530714D02*
X66357142Y-113387857D01*
X66357142Y-113387857D02*
X66285714Y-113102142D01*
X66285714Y-113102142D02*
X66285714Y-112745000D01*
X66285714Y-112745000D02*
X66357142Y-112459285D01*
X66357142Y-112459285D02*
X66428571Y-112316428D01*
X66428571Y-112316428D02*
X66500000Y-112245000D01*
X66500000Y-112245000D02*
X66642857Y-112173571D01*
X68685713Y-113673571D02*
X68685713Y-112173571D01*
X68685713Y-112173571D02*
X69042856Y-112173571D01*
X69042856Y-112173571D02*
X69257142Y-112245000D01*
X69257142Y-112245000D02*
X69399999Y-112387857D01*
X69399999Y-112387857D02*
X69471428Y-112530714D01*
X69471428Y-112530714D02*
X69542856Y-112816428D01*
X69542856Y-112816428D02*
X69542856Y-113030714D01*
X69542856Y-113030714D02*
X69471428Y-113316428D01*
X69471428Y-113316428D02*
X69399999Y-113459285D01*
X69399999Y-113459285D02*
X69257142Y-113602142D01*
X69257142Y-113602142D02*
X69042856Y-113673571D01*
X69042856Y-113673571D02*
X68685713Y-113673571D01*
X70114285Y-113602142D02*
X70328571Y-113673571D01*
X70328571Y-113673571D02*
X70685713Y-113673571D01*
X70685713Y-113673571D02*
X70828571Y-113602142D01*
X70828571Y-113602142D02*
X70899999Y-113530714D01*
X70899999Y-113530714D02*
X70971428Y-113387857D01*
X70971428Y-113387857D02*
X70971428Y-113245000D01*
X70971428Y-113245000D02*
X70899999Y-113102142D01*
X70899999Y-113102142D02*
X70828571Y-113030714D01*
X70828571Y-113030714D02*
X70685713Y-112959285D01*
X70685713Y-112959285D02*
X70399999Y-112887857D01*
X70399999Y-112887857D02*
X70257142Y-112816428D01*
X70257142Y-112816428D02*
X70185713Y-112745000D01*
X70185713Y-112745000D02*
X70114285Y-112602142D01*
X70114285Y-112602142D02*
X70114285Y-112459285D01*
X70114285Y-112459285D02*
X70185713Y-112316428D01*
X70185713Y-112316428D02*
X70257142Y-112245000D01*
X70257142Y-112245000D02*
X70399999Y-112173571D01*
X70399999Y-112173571D02*
X70757142Y-112173571D01*
X70757142Y-112173571D02*
X70971428Y-112245000D01*
X71614284Y-113673571D02*
X71614284Y-112173571D01*
X72471427Y-113673571D02*
X71828570Y-112816428D01*
X72471427Y-112173571D02*
X71614284Y-113030714D01*
X73399999Y-112959285D02*
X73399999Y-113673571D01*
X72899999Y-112173571D02*
X73399999Y-112959285D01*
X73399999Y-112959285D02*
X73899999Y-112173571D01*
X75299998Y-113102142D02*
X76442856Y-113102142D01*
X78914284Y-113673571D02*
X78414284Y-112959285D01*
X78057141Y-113673571D02*
X78057141Y-112173571D01*
X78057141Y-112173571D02*
X78628570Y-112173571D01*
X78628570Y-112173571D02*
X78771427Y-112245000D01*
X78771427Y-112245000D02*
X78842856Y-112316428D01*
X78842856Y-112316428D02*
X78914284Y-112459285D01*
X78914284Y-112459285D02*
X78914284Y-112673571D01*
X78914284Y-112673571D02*
X78842856Y-112816428D01*
X78842856Y-112816428D02*
X78771427Y-112887857D01*
X78771427Y-112887857D02*
X78628570Y-112959285D01*
X78628570Y-112959285D02*
X78057141Y-112959285D01*
X79557141Y-112887857D02*
X80057141Y-112887857D01*
X80271427Y-113673571D02*
X79557141Y-113673571D01*
X79557141Y-113673571D02*
X79557141Y-112173571D01*
X79557141Y-112173571D02*
X80271427Y-112173571D01*
X80699999Y-112173571D02*
X81199999Y-113673571D01*
X81199999Y-113673571D02*
X81699999Y-112173571D01*
X82128570Y-112316428D02*
X82199998Y-112245000D01*
X82199998Y-112245000D02*
X82342856Y-112173571D01*
X82342856Y-112173571D02*
X82699998Y-112173571D01*
X82699998Y-112173571D02*
X82842856Y-112245000D01*
X82842856Y-112245000D02*
X82914284Y-112316428D01*
X82914284Y-112316428D02*
X82985713Y-112459285D01*
X82985713Y-112459285D02*
X82985713Y-112602142D01*
X82985713Y-112602142D02*
X82914284Y-112816428D01*
X82914284Y-112816428D02*
X82057141Y-113673571D01*
X82057141Y-113673571D02*
X82985713Y-113673571D01*
X84528569Y-113102142D02*
X85671427Y-113102142D01*
X87214284Y-113245000D02*
X87928570Y-113245000D01*
X87071427Y-113673571D02*
X87571427Y-112173571D01*
X87571427Y-112173571D02*
X88071427Y-113673571D01*
X89285712Y-113673571D02*
X88571426Y-113673571D01*
X88571426Y-113673571D02*
X88571426Y-112173571D01*
X89785712Y-113673571D02*
X89785712Y-112173571D01*
X89785712Y-112173571D02*
X90642855Y-113673571D01*
X90642855Y-113673571D02*
X90642855Y-112173571D01*
X91214284Y-112173571D02*
X91571427Y-113673571D01*
X91571427Y-113673571D02*
X91857141Y-112602142D01*
X91857141Y-112602142D02*
X92142856Y-113673571D01*
X92142856Y-113673571D02*
X92499999Y-112173571D01*
X93785713Y-113673571D02*
X93071427Y-113673571D01*
X93071427Y-113673571D02*
X93071427Y-112173571D01*
X94214285Y-113602142D02*
X94428571Y-113673571D01*
X94428571Y-113673571D02*
X94785713Y-113673571D01*
X94785713Y-113673571D02*
X94928571Y-113602142D01*
X94928571Y-113602142D02*
X94999999Y-113530714D01*
X94999999Y-113530714D02*
X95071428Y-113387857D01*
X95071428Y-113387857D02*
X95071428Y-113245000D01*
X95071428Y-113245000D02*
X94999999Y-113102142D01*
X94999999Y-113102142D02*
X94928571Y-113030714D01*
X94928571Y-113030714D02*
X94785713Y-112959285D01*
X94785713Y-112959285D02*
X94499999Y-112887857D01*
X94499999Y-112887857D02*
X94357142Y-112816428D01*
X94357142Y-112816428D02*
X94285713Y-112745000D01*
X94285713Y-112745000D02*
X94214285Y-112602142D01*
X94214285Y-112602142D02*
X94214285Y-112459285D01*
X94214285Y-112459285D02*
X94285713Y-112316428D01*
X94285713Y-112316428D02*
X94357142Y-112245000D01*
X94357142Y-112245000D02*
X94499999Y-112173571D01*
X94499999Y-112173571D02*
X94857142Y-112173571D01*
X94857142Y-112173571D02*
X95071428Y-112245000D01*
X95714284Y-113673571D02*
X95714284Y-112173571D01*
X95714284Y-112173571D02*
X96571427Y-113673571D01*
X96571427Y-113673571D02*
X96571427Y-112173571D01*
X98114285Y-112316428D02*
X98185713Y-112245000D01*
X98185713Y-112245000D02*
X98328571Y-112173571D01*
X98328571Y-112173571D02*
X98685713Y-112173571D01*
X98685713Y-112173571D02*
X98828571Y-112245000D01*
X98828571Y-112245000D02*
X98899999Y-112316428D01*
X98899999Y-112316428D02*
X98971428Y-112459285D01*
X98971428Y-112459285D02*
X98971428Y-112602142D01*
X98971428Y-112602142D02*
X98899999Y-112816428D01*
X98899999Y-112816428D02*
X98042856Y-113673571D01*
X98042856Y-113673571D02*
X98971428Y-113673571D01*
X99899999Y-112173571D02*
X100042856Y-112173571D01*
X100042856Y-112173571D02*
X100185713Y-112245000D01*
X100185713Y-112245000D02*
X100257142Y-112316428D01*
X100257142Y-112316428D02*
X100328570Y-112459285D01*
X100328570Y-112459285D02*
X100399999Y-112745000D01*
X100399999Y-112745000D02*
X100399999Y-113102142D01*
X100399999Y-113102142D02*
X100328570Y-113387857D01*
X100328570Y-113387857D02*
X100257142Y-113530714D01*
X100257142Y-113530714D02*
X100185713Y-113602142D01*
X100185713Y-113602142D02*
X100042856Y-113673571D01*
X100042856Y-113673571D02*
X99899999Y-113673571D01*
X99899999Y-113673571D02*
X99757142Y-113602142D01*
X99757142Y-113602142D02*
X99685713Y-113530714D01*
X99685713Y-113530714D02*
X99614284Y-113387857D01*
X99614284Y-113387857D02*
X99542856Y-113102142D01*
X99542856Y-113102142D02*
X99542856Y-112745000D01*
X99542856Y-112745000D02*
X99614284Y-112459285D01*
X99614284Y-112459285D02*
X99685713Y-112316428D01*
X99685713Y-112316428D02*
X99757142Y-112245000D01*
X99757142Y-112245000D02*
X99899999Y-112173571D01*
X100971427Y-112316428D02*
X101042855Y-112245000D01*
X101042855Y-112245000D02*
X101185713Y-112173571D01*
X101185713Y-112173571D02*
X101542855Y-112173571D01*
X101542855Y-112173571D02*
X101685713Y-112245000D01*
X101685713Y-112245000D02*
X101757141Y-112316428D01*
X101757141Y-112316428D02*
X101828570Y-112459285D01*
X101828570Y-112459285D02*
X101828570Y-112602142D01*
X101828570Y-112602142D02*
X101757141Y-112816428D01*
X101757141Y-112816428D02*
X100899998Y-113673571D01*
X100899998Y-113673571D02*
X101828570Y-113673571D01*
X102328569Y-112173571D02*
X103257141Y-112173571D01*
X103257141Y-112173571D02*
X102757141Y-112745000D01*
X102757141Y-112745000D02*
X102971426Y-112745000D01*
X102971426Y-112745000D02*
X103114284Y-112816428D01*
X103114284Y-112816428D02*
X103185712Y-112887857D01*
X103185712Y-112887857D02*
X103257141Y-113030714D01*
X103257141Y-113030714D02*
X103257141Y-113387857D01*
X103257141Y-113387857D02*
X103185712Y-113530714D01*
X103185712Y-113530714D02*
X103114284Y-113602142D01*
X103114284Y-113602142D02*
X102971426Y-113673571D01*
X102971426Y-113673571D02*
X102542855Y-113673571D01*
X102542855Y-113673571D02*
X102399998Y-113602142D01*
X102399998Y-113602142D02*
X102328569Y-113530714D01*
D11*
%TO.C,J3*%
X95827380Y-24143333D02*
X96541666Y-24143333D01*
X96541666Y-24143333D02*
X96684523Y-24190952D01*
X96684523Y-24190952D02*
X96779761Y-24286190D01*
X96779761Y-24286190D02*
X96827380Y-24429047D01*
X96827380Y-24429047D02*
X96827380Y-24524285D01*
X95827380Y-23762380D02*
X95827380Y-23143333D01*
X95827380Y-23143333D02*
X96208333Y-23476666D01*
X96208333Y-23476666D02*
X96208333Y-23333809D01*
X96208333Y-23333809D02*
X96255952Y-23238571D01*
X96255952Y-23238571D02*
X96303571Y-23190952D01*
X96303571Y-23190952D02*
X96398809Y-23143333D01*
X96398809Y-23143333D02*
X96636904Y-23143333D01*
X96636904Y-23143333D02*
X96732142Y-23190952D01*
X96732142Y-23190952D02*
X96779761Y-23238571D01*
X96779761Y-23238571D02*
X96827380Y-23333809D01*
X96827380Y-23333809D02*
X96827380Y-23619523D01*
X96827380Y-23619523D02*
X96779761Y-23714761D01*
X96779761Y-23714761D02*
X96732142Y-23762380D01*
%TO.C,J1*%
X39917380Y-24143333D02*
X40631666Y-24143333D01*
X40631666Y-24143333D02*
X40774523Y-24190952D01*
X40774523Y-24190952D02*
X40869761Y-24286190D01*
X40869761Y-24286190D02*
X40917380Y-24429047D01*
X40917380Y-24429047D02*
X40917380Y-24524285D01*
X40917380Y-23143333D02*
X40917380Y-23714761D01*
X40917380Y-23429047D02*
X39917380Y-23429047D01*
X39917380Y-23429047D02*
X40060238Y-23524285D01*
X40060238Y-23524285D02*
X40155476Y-23619523D01*
X40155476Y-23619523D02*
X40203095Y-23714761D01*
%TO.C,D1*%
X29867380Y-109238094D02*
X28867380Y-109238094D01*
X28867380Y-109238094D02*
X28867380Y-108999999D01*
X28867380Y-108999999D02*
X28915000Y-108857142D01*
X28915000Y-108857142D02*
X29010238Y-108761904D01*
X29010238Y-108761904D02*
X29105476Y-108714285D01*
X29105476Y-108714285D02*
X29295952Y-108666666D01*
X29295952Y-108666666D02*
X29438809Y-108666666D01*
X29438809Y-108666666D02*
X29629285Y-108714285D01*
X29629285Y-108714285D02*
X29724523Y-108761904D01*
X29724523Y-108761904D02*
X29819761Y-108857142D01*
X29819761Y-108857142D02*
X29867380Y-108999999D01*
X29867380Y-108999999D02*
X29867380Y-109238094D01*
X28867380Y-108047618D02*
X28867380Y-107952380D01*
X28867380Y-107952380D02*
X28915000Y-107857142D01*
X28915000Y-107857142D02*
X28962619Y-107809523D01*
X28962619Y-107809523D02*
X29057857Y-107761904D01*
X29057857Y-107761904D02*
X29248333Y-107714285D01*
X29248333Y-107714285D02*
X29486428Y-107714285D01*
X29486428Y-107714285D02*
X29676904Y-107761904D01*
X29676904Y-107761904D02*
X29772142Y-107809523D01*
X29772142Y-107809523D02*
X29819761Y-107857142D01*
X29819761Y-107857142D02*
X29867380Y-107952380D01*
X29867380Y-107952380D02*
X29867380Y-108047618D01*
X29867380Y-108047618D02*
X29819761Y-108142856D01*
X29819761Y-108142856D02*
X29772142Y-108190475D01*
X29772142Y-108190475D02*
X29676904Y-108238094D01*
X29676904Y-108238094D02*
X29486428Y-108285713D01*
X29486428Y-108285713D02*
X29248333Y-108285713D01*
X29248333Y-108285713D02*
X29057857Y-108238094D01*
X29057857Y-108238094D02*
X28962619Y-108190475D01*
X28962619Y-108190475D02*
X28915000Y-108142856D01*
X28915000Y-108142856D02*
X28867380Y-108047618D01*
%TO.C,U4*%
X90757380Y-42141904D02*
X91566904Y-42141904D01*
X91566904Y-42141904D02*
X91662142Y-42094285D01*
X91662142Y-42094285D02*
X91709761Y-42046666D01*
X91709761Y-42046666D02*
X91757380Y-41951428D01*
X91757380Y-41951428D02*
X91757380Y-41760952D01*
X91757380Y-41760952D02*
X91709761Y-41665714D01*
X91709761Y-41665714D02*
X91662142Y-41618095D01*
X91662142Y-41618095D02*
X91566904Y-41570476D01*
X91566904Y-41570476D02*
X90757380Y-41570476D01*
X91090714Y-40665714D02*
X91757380Y-40665714D01*
X90709761Y-40903809D02*
X91424047Y-41141904D01*
X91424047Y-41141904D02*
X91424047Y-40522857D01*
X90080476Y-35667380D02*
X90651904Y-35667380D01*
X90366190Y-36667380D02*
X90366190Y-35667380D01*
X91175714Y-35667380D02*
X91366190Y-35667380D01*
X91366190Y-35667380D02*
X91461428Y-35715000D01*
X91461428Y-35715000D02*
X91556666Y-35810238D01*
X91556666Y-35810238D02*
X91604285Y-36000714D01*
X91604285Y-36000714D02*
X91604285Y-36334047D01*
X91604285Y-36334047D02*
X91556666Y-36524523D01*
X91556666Y-36524523D02*
X91461428Y-36619761D01*
X91461428Y-36619761D02*
X91366190Y-36667380D01*
X91366190Y-36667380D02*
X91175714Y-36667380D01*
X91175714Y-36667380D02*
X91080476Y-36619761D01*
X91080476Y-36619761D02*
X90985238Y-36524523D01*
X90985238Y-36524523D02*
X90937619Y-36334047D01*
X90937619Y-36334047D02*
X90937619Y-36000714D01*
X90937619Y-36000714D02*
X90985238Y-35810238D01*
X90985238Y-35810238D02*
X91080476Y-35715000D01*
X91080476Y-35715000D02*
X91175714Y-35667380D01*
X92032857Y-36667380D02*
X92032857Y-35667380D01*
X92032857Y-35667380D02*
X92413809Y-35667380D01*
X92413809Y-35667380D02*
X92509047Y-35715000D01*
X92509047Y-35715000D02*
X92556666Y-35762619D01*
X92556666Y-35762619D02*
X92604285Y-35857857D01*
X92604285Y-35857857D02*
X92604285Y-36000714D01*
X92604285Y-36000714D02*
X92556666Y-36095952D01*
X92556666Y-36095952D02*
X92509047Y-36143571D01*
X92509047Y-36143571D02*
X92413809Y-36191190D01*
X92413809Y-36191190D02*
X92032857Y-36191190D01*
%TO.C,U5*%
X40738095Y-41767380D02*
X40738095Y-42576904D01*
X40738095Y-42576904D02*
X40785714Y-42672142D01*
X40785714Y-42672142D02*
X40833333Y-42719761D01*
X40833333Y-42719761D02*
X40928571Y-42767380D01*
X40928571Y-42767380D02*
X41119047Y-42767380D01*
X41119047Y-42767380D02*
X41214285Y-42719761D01*
X41214285Y-42719761D02*
X41261904Y-42672142D01*
X41261904Y-42672142D02*
X41309523Y-42576904D01*
X41309523Y-42576904D02*
X41309523Y-41767380D01*
X42261904Y-41767380D02*
X41785714Y-41767380D01*
X41785714Y-41767380D02*
X41738095Y-42243571D01*
X41738095Y-42243571D02*
X41785714Y-42195952D01*
X41785714Y-42195952D02*
X41880952Y-42148333D01*
X41880952Y-42148333D02*
X42119047Y-42148333D01*
X42119047Y-42148333D02*
X42214285Y-42195952D01*
X42214285Y-42195952D02*
X42261904Y-42243571D01*
X42261904Y-42243571D02*
X42309523Y-42338809D01*
X42309523Y-42338809D02*
X42309523Y-42576904D01*
X42309523Y-42576904D02*
X42261904Y-42672142D01*
X42261904Y-42672142D02*
X42214285Y-42719761D01*
X42214285Y-42719761D02*
X42119047Y-42767380D01*
X42119047Y-42767380D02*
X41880952Y-42767380D01*
X41880952Y-42767380D02*
X41785714Y-42719761D01*
X41785714Y-42719761D02*
X41738095Y-42672142D01*
%TO.C,D2*%
X29867380Y-89238094D02*
X28867380Y-89238094D01*
X28867380Y-89238094D02*
X28867380Y-88999999D01*
X28867380Y-88999999D02*
X28915000Y-88857142D01*
X28915000Y-88857142D02*
X29010238Y-88761904D01*
X29010238Y-88761904D02*
X29105476Y-88714285D01*
X29105476Y-88714285D02*
X29295952Y-88666666D01*
X29295952Y-88666666D02*
X29438809Y-88666666D01*
X29438809Y-88666666D02*
X29629285Y-88714285D01*
X29629285Y-88714285D02*
X29724523Y-88761904D01*
X29724523Y-88761904D02*
X29819761Y-88857142D01*
X29819761Y-88857142D02*
X29867380Y-88999999D01*
X29867380Y-88999999D02*
X29867380Y-89238094D01*
X29200714Y-87809523D02*
X29867380Y-87809523D01*
X28819761Y-88047618D02*
X29534047Y-88285713D01*
X29534047Y-88285713D02*
X29534047Y-87666666D01*
%TO.C,D3*%
X29867380Y-74238094D02*
X28867380Y-74238094D01*
X28867380Y-74238094D02*
X28867380Y-73999999D01*
X28867380Y-73999999D02*
X28915000Y-73857142D01*
X28915000Y-73857142D02*
X29010238Y-73761904D01*
X29010238Y-73761904D02*
X29105476Y-73714285D01*
X29105476Y-73714285D02*
X29295952Y-73666666D01*
X29295952Y-73666666D02*
X29438809Y-73666666D01*
X29438809Y-73666666D02*
X29629285Y-73714285D01*
X29629285Y-73714285D02*
X29724523Y-73761904D01*
X29724523Y-73761904D02*
X29819761Y-73857142D01*
X29819761Y-73857142D02*
X29867380Y-73999999D01*
X29867380Y-73999999D02*
X29867380Y-74238094D01*
X28867380Y-73333332D02*
X28867380Y-72666666D01*
X28867380Y-72666666D02*
X29867380Y-73095237D01*
%TO.C,D4*%
X29867380Y-94238094D02*
X28867380Y-94238094D01*
X28867380Y-94238094D02*
X28867380Y-93999999D01*
X28867380Y-93999999D02*
X28915000Y-93857142D01*
X28915000Y-93857142D02*
X29010238Y-93761904D01*
X29010238Y-93761904D02*
X29105476Y-93714285D01*
X29105476Y-93714285D02*
X29295952Y-93666666D01*
X29295952Y-93666666D02*
X29438809Y-93666666D01*
X29438809Y-93666666D02*
X29629285Y-93714285D01*
X29629285Y-93714285D02*
X29724523Y-93761904D01*
X29724523Y-93761904D02*
X29819761Y-93857142D01*
X29819761Y-93857142D02*
X29867380Y-93999999D01*
X29867380Y-93999999D02*
X29867380Y-94238094D01*
X28867380Y-93333332D02*
X28867380Y-92714285D01*
X28867380Y-92714285D02*
X29248333Y-93047618D01*
X29248333Y-93047618D02*
X29248333Y-92904761D01*
X29248333Y-92904761D02*
X29295952Y-92809523D01*
X29295952Y-92809523D02*
X29343571Y-92761904D01*
X29343571Y-92761904D02*
X29438809Y-92714285D01*
X29438809Y-92714285D02*
X29676904Y-92714285D01*
X29676904Y-92714285D02*
X29772142Y-92761904D01*
X29772142Y-92761904D02*
X29819761Y-92809523D01*
X29819761Y-92809523D02*
X29867380Y-92904761D01*
X29867380Y-92904761D02*
X29867380Y-93190475D01*
X29867380Y-93190475D02*
X29819761Y-93285713D01*
X29819761Y-93285713D02*
X29772142Y-93333332D01*
%TO.C,D5*%
X22081666Y-109214285D02*
X22081666Y-108738095D01*
X22367380Y-109309523D02*
X21367380Y-108976190D01*
X21367380Y-108976190D02*
X22367380Y-108642857D01*
X21367380Y-108119047D02*
X21367380Y-108023809D01*
X21367380Y-108023809D02*
X21415000Y-107928571D01*
X21415000Y-107928571D02*
X21462619Y-107880952D01*
X21462619Y-107880952D02*
X21557857Y-107833333D01*
X21557857Y-107833333D02*
X21748333Y-107785714D01*
X21748333Y-107785714D02*
X21986428Y-107785714D01*
X21986428Y-107785714D02*
X22176904Y-107833333D01*
X22176904Y-107833333D02*
X22272142Y-107880952D01*
X22272142Y-107880952D02*
X22319761Y-107928571D01*
X22319761Y-107928571D02*
X22367380Y-108023809D01*
X22367380Y-108023809D02*
X22367380Y-108119047D01*
X22367380Y-108119047D02*
X22319761Y-108214285D01*
X22319761Y-108214285D02*
X22272142Y-108261904D01*
X22272142Y-108261904D02*
X22176904Y-108309523D01*
X22176904Y-108309523D02*
X21986428Y-108357142D01*
X21986428Y-108357142D02*
X21748333Y-108357142D01*
X21748333Y-108357142D02*
X21557857Y-108309523D01*
X21557857Y-108309523D02*
X21462619Y-108261904D01*
X21462619Y-108261904D02*
X21415000Y-108214285D01*
X21415000Y-108214285D02*
X21367380Y-108119047D01*
%TO.C,D6*%
X22081666Y-89214285D02*
X22081666Y-88738095D01*
X22367380Y-89309523D02*
X21367380Y-88976190D01*
X21367380Y-88976190D02*
X22367380Y-88642857D01*
X21700714Y-87880952D02*
X22367380Y-87880952D01*
X21319761Y-88119047D02*
X22034047Y-88357142D01*
X22034047Y-88357142D02*
X22034047Y-87738095D01*
%TO.C,D7*%
X22081666Y-74214285D02*
X22081666Y-73738095D01*
X22367380Y-74309523D02*
X21367380Y-73976190D01*
X21367380Y-73976190D02*
X22367380Y-73642857D01*
X21367380Y-73404761D02*
X21367380Y-72738095D01*
X21367380Y-72738095D02*
X22367380Y-73166666D01*
%TO.C,D8*%
X22081666Y-94134285D02*
X22081666Y-93658095D01*
X22367380Y-94229523D02*
X21367380Y-93896190D01*
X21367380Y-93896190D02*
X22367380Y-93562857D01*
X21367380Y-93324761D02*
X21367380Y-92705714D01*
X21367380Y-92705714D02*
X21748333Y-93039047D01*
X21748333Y-93039047D02*
X21748333Y-92896190D01*
X21748333Y-92896190D02*
X21795952Y-92800952D01*
X21795952Y-92800952D02*
X21843571Y-92753333D01*
X21843571Y-92753333D02*
X21938809Y-92705714D01*
X21938809Y-92705714D02*
X22176904Y-92705714D01*
X22176904Y-92705714D02*
X22272142Y-92753333D01*
X22272142Y-92753333D02*
X22319761Y-92800952D01*
X22319761Y-92800952D02*
X22367380Y-92896190D01*
X22367380Y-92896190D02*
X22367380Y-93181904D01*
X22367380Y-93181904D02*
X22319761Y-93277142D01*
X22319761Y-93277142D02*
X22272142Y-93324761D01*
%TO.C,U3*%
X108537380Y-42141904D02*
X109346904Y-42141904D01*
X109346904Y-42141904D02*
X109442142Y-42094285D01*
X109442142Y-42094285D02*
X109489761Y-42046666D01*
X109489761Y-42046666D02*
X109537380Y-41951428D01*
X109537380Y-41951428D02*
X109537380Y-41760952D01*
X109537380Y-41760952D02*
X109489761Y-41665714D01*
X109489761Y-41665714D02*
X109442142Y-41618095D01*
X109442142Y-41618095D02*
X109346904Y-41570476D01*
X109346904Y-41570476D02*
X108537380Y-41570476D01*
X108537380Y-41189523D02*
X108537380Y-40570476D01*
X108537380Y-40570476D02*
X108918333Y-40903809D01*
X108918333Y-40903809D02*
X108918333Y-40760952D01*
X108918333Y-40760952D02*
X108965952Y-40665714D01*
X108965952Y-40665714D02*
X109013571Y-40618095D01*
X109013571Y-40618095D02*
X109108809Y-40570476D01*
X109108809Y-40570476D02*
X109346904Y-40570476D01*
X109346904Y-40570476D02*
X109442142Y-40618095D01*
X109442142Y-40618095D02*
X109489761Y-40665714D01*
X109489761Y-40665714D02*
X109537380Y-40760952D01*
X109537380Y-40760952D02*
X109537380Y-41046666D01*
X109537380Y-41046666D02*
X109489761Y-41141904D01*
X109489761Y-41141904D02*
X109442142Y-41189523D01*
X107860476Y-35667380D02*
X108431904Y-35667380D01*
X108146190Y-36667380D02*
X108146190Y-35667380D01*
X108955714Y-35667380D02*
X109146190Y-35667380D01*
X109146190Y-35667380D02*
X109241428Y-35715000D01*
X109241428Y-35715000D02*
X109336666Y-35810238D01*
X109336666Y-35810238D02*
X109384285Y-36000714D01*
X109384285Y-36000714D02*
X109384285Y-36334047D01*
X109384285Y-36334047D02*
X109336666Y-36524523D01*
X109336666Y-36524523D02*
X109241428Y-36619761D01*
X109241428Y-36619761D02*
X109146190Y-36667380D01*
X109146190Y-36667380D02*
X108955714Y-36667380D01*
X108955714Y-36667380D02*
X108860476Y-36619761D01*
X108860476Y-36619761D02*
X108765238Y-36524523D01*
X108765238Y-36524523D02*
X108717619Y-36334047D01*
X108717619Y-36334047D02*
X108717619Y-36000714D01*
X108717619Y-36000714D02*
X108765238Y-35810238D01*
X108765238Y-35810238D02*
X108860476Y-35715000D01*
X108860476Y-35715000D02*
X108955714Y-35667380D01*
X109812857Y-36667380D02*
X109812857Y-35667380D01*
X109812857Y-35667380D02*
X110193809Y-35667380D01*
X110193809Y-35667380D02*
X110289047Y-35715000D01*
X110289047Y-35715000D02*
X110336666Y-35762619D01*
X110336666Y-35762619D02*
X110384285Y-35857857D01*
X110384285Y-35857857D02*
X110384285Y-36000714D01*
X110384285Y-36000714D02*
X110336666Y-36095952D01*
X110336666Y-36095952D02*
X110289047Y-36143571D01*
X110289047Y-36143571D02*
X110193809Y-36191190D01*
X110193809Y-36191190D02*
X109812857Y-36191190D01*
%TO.C,D9*%
X22081666Y-69214285D02*
X22081666Y-68738095D01*
X22367380Y-69309523D02*
X21367380Y-68976190D01*
X21367380Y-68976190D02*
X22367380Y-68642857D01*
X21795952Y-68166666D02*
X21748333Y-68261904D01*
X21748333Y-68261904D02*
X21700714Y-68309523D01*
X21700714Y-68309523D02*
X21605476Y-68357142D01*
X21605476Y-68357142D02*
X21557857Y-68357142D01*
X21557857Y-68357142D02*
X21462619Y-68309523D01*
X21462619Y-68309523D02*
X21415000Y-68261904D01*
X21415000Y-68261904D02*
X21367380Y-68166666D01*
X21367380Y-68166666D02*
X21367380Y-67976190D01*
X21367380Y-67976190D02*
X21415000Y-67880952D01*
X21415000Y-67880952D02*
X21462619Y-67833333D01*
X21462619Y-67833333D02*
X21557857Y-67785714D01*
X21557857Y-67785714D02*
X21605476Y-67785714D01*
X21605476Y-67785714D02*
X21700714Y-67833333D01*
X21700714Y-67833333D02*
X21748333Y-67880952D01*
X21748333Y-67880952D02*
X21795952Y-67976190D01*
X21795952Y-67976190D02*
X21795952Y-68166666D01*
X21795952Y-68166666D02*
X21843571Y-68261904D01*
X21843571Y-68261904D02*
X21891190Y-68309523D01*
X21891190Y-68309523D02*
X21986428Y-68357142D01*
X21986428Y-68357142D02*
X22176904Y-68357142D01*
X22176904Y-68357142D02*
X22272142Y-68309523D01*
X22272142Y-68309523D02*
X22319761Y-68261904D01*
X22319761Y-68261904D02*
X22367380Y-68166666D01*
X22367380Y-68166666D02*
X22367380Y-67976190D01*
X22367380Y-67976190D02*
X22319761Y-67880952D01*
X22319761Y-67880952D02*
X22272142Y-67833333D01*
X22272142Y-67833333D02*
X22176904Y-67785714D01*
X22176904Y-67785714D02*
X21986428Y-67785714D01*
X21986428Y-67785714D02*
X21891190Y-67833333D01*
X21891190Y-67833333D02*
X21843571Y-67880952D01*
X21843571Y-67880952D02*
X21795952Y-67976190D01*
%TO.C,D10*%
X22081666Y-49690475D02*
X22081666Y-49214285D01*
X22367380Y-49785713D02*
X21367380Y-49452380D01*
X21367380Y-49452380D02*
X22367380Y-49119047D01*
X22367380Y-48261904D02*
X22367380Y-48833332D01*
X22367380Y-48547618D02*
X21367380Y-48547618D01*
X21367380Y-48547618D02*
X21510238Y-48642856D01*
X21510238Y-48642856D02*
X21605476Y-48738094D01*
X21605476Y-48738094D02*
X21653095Y-48833332D01*
X21462619Y-47880951D02*
X21415000Y-47833332D01*
X21415000Y-47833332D02*
X21367380Y-47738094D01*
X21367380Y-47738094D02*
X21367380Y-47499999D01*
X21367380Y-47499999D02*
X21415000Y-47404761D01*
X21415000Y-47404761D02*
X21462619Y-47357142D01*
X21462619Y-47357142D02*
X21557857Y-47309523D01*
X21557857Y-47309523D02*
X21653095Y-47309523D01*
X21653095Y-47309523D02*
X21795952Y-47357142D01*
X21795952Y-47357142D02*
X22367380Y-47928570D01*
X22367380Y-47928570D02*
X22367380Y-47309523D01*
%TO.C,D11*%
X22081666Y-34690475D02*
X22081666Y-34214285D01*
X22367380Y-34785713D02*
X21367380Y-34452380D01*
X21367380Y-34452380D02*
X22367380Y-34119047D01*
X22367380Y-33261904D02*
X22367380Y-33833332D01*
X22367380Y-33547618D02*
X21367380Y-33547618D01*
X21367380Y-33547618D02*
X21510238Y-33642856D01*
X21510238Y-33642856D02*
X21605476Y-33738094D01*
X21605476Y-33738094D02*
X21653095Y-33833332D01*
X21367380Y-32357142D02*
X21367380Y-32833332D01*
X21367380Y-32833332D02*
X21843571Y-32880951D01*
X21843571Y-32880951D02*
X21795952Y-32833332D01*
X21795952Y-32833332D02*
X21748333Y-32738094D01*
X21748333Y-32738094D02*
X21748333Y-32499999D01*
X21748333Y-32499999D02*
X21795952Y-32404761D01*
X21795952Y-32404761D02*
X21843571Y-32357142D01*
X21843571Y-32357142D02*
X21938809Y-32309523D01*
X21938809Y-32309523D02*
X22176904Y-32309523D01*
X22176904Y-32309523D02*
X22272142Y-32357142D01*
X22272142Y-32357142D02*
X22319761Y-32404761D01*
X22319761Y-32404761D02*
X22367380Y-32499999D01*
X22367380Y-32499999D02*
X22367380Y-32738094D01*
X22367380Y-32738094D02*
X22319761Y-32833332D01*
X22319761Y-32833332D02*
X22272142Y-32880951D01*
%TO.C,D12*%
X22081666Y-54690475D02*
X22081666Y-54214285D01*
X22367380Y-54785713D02*
X21367380Y-54452380D01*
X21367380Y-54452380D02*
X22367380Y-54119047D01*
X22367380Y-53261904D02*
X22367380Y-53833332D01*
X22367380Y-53547618D02*
X21367380Y-53547618D01*
X21367380Y-53547618D02*
X21510238Y-53642856D01*
X21510238Y-53642856D02*
X21605476Y-53738094D01*
X21605476Y-53738094D02*
X21653095Y-53833332D01*
X22367380Y-52309523D02*
X22367380Y-52880951D01*
X22367380Y-52595237D02*
X21367380Y-52595237D01*
X21367380Y-52595237D02*
X21510238Y-52690475D01*
X21510238Y-52690475D02*
X21605476Y-52785713D01*
X21605476Y-52785713D02*
X21653095Y-52880951D01*
%TO.C,D13*%
X22081666Y-99214285D02*
X22081666Y-98738095D01*
X22367380Y-99309523D02*
X21367380Y-98976190D01*
X21367380Y-98976190D02*
X22367380Y-98642857D01*
X21462619Y-98357142D02*
X21415000Y-98309523D01*
X21415000Y-98309523D02*
X21367380Y-98214285D01*
X21367380Y-98214285D02*
X21367380Y-97976190D01*
X21367380Y-97976190D02*
X21415000Y-97880952D01*
X21415000Y-97880952D02*
X21462619Y-97833333D01*
X21462619Y-97833333D02*
X21557857Y-97785714D01*
X21557857Y-97785714D02*
X21653095Y-97785714D01*
X21653095Y-97785714D02*
X21795952Y-97833333D01*
X21795952Y-97833333D02*
X22367380Y-98404761D01*
X22367380Y-98404761D02*
X22367380Y-97785714D01*
%TO.C,D14*%
X22081666Y-79214285D02*
X22081666Y-78738095D01*
X22367380Y-79309523D02*
X21367380Y-78976190D01*
X21367380Y-78976190D02*
X22367380Y-78642857D01*
X21367380Y-77880952D02*
X21367380Y-78071428D01*
X21367380Y-78071428D02*
X21415000Y-78166666D01*
X21415000Y-78166666D02*
X21462619Y-78214285D01*
X21462619Y-78214285D02*
X21605476Y-78309523D01*
X21605476Y-78309523D02*
X21795952Y-78357142D01*
X21795952Y-78357142D02*
X22176904Y-78357142D01*
X22176904Y-78357142D02*
X22272142Y-78309523D01*
X22272142Y-78309523D02*
X22319761Y-78261904D01*
X22319761Y-78261904D02*
X22367380Y-78166666D01*
X22367380Y-78166666D02*
X22367380Y-77976190D01*
X22367380Y-77976190D02*
X22319761Y-77880952D01*
X22319761Y-77880952D02*
X22272142Y-77833333D01*
X22272142Y-77833333D02*
X22176904Y-77785714D01*
X22176904Y-77785714D02*
X21938809Y-77785714D01*
X21938809Y-77785714D02*
X21843571Y-77833333D01*
X21843571Y-77833333D02*
X21795952Y-77880952D01*
X21795952Y-77880952D02*
X21748333Y-77976190D01*
X21748333Y-77976190D02*
X21748333Y-78166666D01*
X21748333Y-78166666D02*
X21795952Y-78261904D01*
X21795952Y-78261904D02*
X21843571Y-78309523D01*
X21843571Y-78309523D02*
X21938809Y-78357142D01*
%TO.C,D15*%
X22081666Y-84214285D02*
X22081666Y-83738095D01*
X22367380Y-84309523D02*
X21367380Y-83976190D01*
X21367380Y-83976190D02*
X22367380Y-83642857D01*
X21367380Y-82833333D02*
X21367380Y-83309523D01*
X21367380Y-83309523D02*
X21843571Y-83357142D01*
X21843571Y-83357142D02*
X21795952Y-83309523D01*
X21795952Y-83309523D02*
X21748333Y-83214285D01*
X21748333Y-83214285D02*
X21748333Y-82976190D01*
X21748333Y-82976190D02*
X21795952Y-82880952D01*
X21795952Y-82880952D02*
X21843571Y-82833333D01*
X21843571Y-82833333D02*
X21938809Y-82785714D01*
X21938809Y-82785714D02*
X22176904Y-82785714D01*
X22176904Y-82785714D02*
X22272142Y-82833333D01*
X22272142Y-82833333D02*
X22319761Y-82880952D01*
X22319761Y-82880952D02*
X22367380Y-82976190D01*
X22367380Y-82976190D02*
X22367380Y-83214285D01*
X22367380Y-83214285D02*
X22319761Y-83309523D01*
X22319761Y-83309523D02*
X22272142Y-83357142D01*
%TO.C,D16*%
X22081666Y-104214285D02*
X22081666Y-103738095D01*
X22367380Y-104309523D02*
X21367380Y-103976190D01*
X21367380Y-103976190D02*
X22367380Y-103642857D01*
X22367380Y-102785714D02*
X22367380Y-103357142D01*
X22367380Y-103071428D02*
X21367380Y-103071428D01*
X21367380Y-103071428D02*
X21510238Y-103166666D01*
X21510238Y-103166666D02*
X21605476Y-103261904D01*
X21605476Y-103261904D02*
X21653095Y-103357142D01*
%TO.C,D17*%
X29867380Y-99238094D02*
X28867380Y-99238094D01*
X28867380Y-99238094D02*
X28867380Y-98999999D01*
X28867380Y-98999999D02*
X28915000Y-98857142D01*
X28915000Y-98857142D02*
X29010238Y-98761904D01*
X29010238Y-98761904D02*
X29105476Y-98714285D01*
X29105476Y-98714285D02*
X29295952Y-98666666D01*
X29295952Y-98666666D02*
X29438809Y-98666666D01*
X29438809Y-98666666D02*
X29629285Y-98714285D01*
X29629285Y-98714285D02*
X29724523Y-98761904D01*
X29724523Y-98761904D02*
X29819761Y-98857142D01*
X29819761Y-98857142D02*
X29867380Y-98999999D01*
X29867380Y-98999999D02*
X29867380Y-99238094D01*
X28962619Y-98285713D02*
X28915000Y-98238094D01*
X28915000Y-98238094D02*
X28867380Y-98142856D01*
X28867380Y-98142856D02*
X28867380Y-97904761D01*
X28867380Y-97904761D02*
X28915000Y-97809523D01*
X28915000Y-97809523D02*
X28962619Y-97761904D01*
X28962619Y-97761904D02*
X29057857Y-97714285D01*
X29057857Y-97714285D02*
X29153095Y-97714285D01*
X29153095Y-97714285D02*
X29295952Y-97761904D01*
X29295952Y-97761904D02*
X29867380Y-98333332D01*
X29867380Y-98333332D02*
X29867380Y-97714285D01*
%TO.C,D18*%
X29867380Y-79238094D02*
X28867380Y-79238094D01*
X28867380Y-79238094D02*
X28867380Y-78999999D01*
X28867380Y-78999999D02*
X28915000Y-78857142D01*
X28915000Y-78857142D02*
X29010238Y-78761904D01*
X29010238Y-78761904D02*
X29105476Y-78714285D01*
X29105476Y-78714285D02*
X29295952Y-78666666D01*
X29295952Y-78666666D02*
X29438809Y-78666666D01*
X29438809Y-78666666D02*
X29629285Y-78714285D01*
X29629285Y-78714285D02*
X29724523Y-78761904D01*
X29724523Y-78761904D02*
X29819761Y-78857142D01*
X29819761Y-78857142D02*
X29867380Y-78999999D01*
X29867380Y-78999999D02*
X29867380Y-79238094D01*
X28867380Y-77809523D02*
X28867380Y-77999999D01*
X28867380Y-77999999D02*
X28915000Y-78095237D01*
X28915000Y-78095237D02*
X28962619Y-78142856D01*
X28962619Y-78142856D02*
X29105476Y-78238094D01*
X29105476Y-78238094D02*
X29295952Y-78285713D01*
X29295952Y-78285713D02*
X29676904Y-78285713D01*
X29676904Y-78285713D02*
X29772142Y-78238094D01*
X29772142Y-78238094D02*
X29819761Y-78190475D01*
X29819761Y-78190475D02*
X29867380Y-78095237D01*
X29867380Y-78095237D02*
X29867380Y-77904761D01*
X29867380Y-77904761D02*
X29819761Y-77809523D01*
X29819761Y-77809523D02*
X29772142Y-77761904D01*
X29772142Y-77761904D02*
X29676904Y-77714285D01*
X29676904Y-77714285D02*
X29438809Y-77714285D01*
X29438809Y-77714285D02*
X29343571Y-77761904D01*
X29343571Y-77761904D02*
X29295952Y-77809523D01*
X29295952Y-77809523D02*
X29248333Y-77904761D01*
X29248333Y-77904761D02*
X29248333Y-78095237D01*
X29248333Y-78095237D02*
X29295952Y-78190475D01*
X29295952Y-78190475D02*
X29343571Y-78238094D01*
X29343571Y-78238094D02*
X29438809Y-78285713D01*
%TO.C,D19*%
X29867380Y-84238094D02*
X28867380Y-84238094D01*
X28867380Y-84238094D02*
X28867380Y-83999999D01*
X28867380Y-83999999D02*
X28915000Y-83857142D01*
X28915000Y-83857142D02*
X29010238Y-83761904D01*
X29010238Y-83761904D02*
X29105476Y-83714285D01*
X29105476Y-83714285D02*
X29295952Y-83666666D01*
X29295952Y-83666666D02*
X29438809Y-83666666D01*
X29438809Y-83666666D02*
X29629285Y-83714285D01*
X29629285Y-83714285D02*
X29724523Y-83761904D01*
X29724523Y-83761904D02*
X29819761Y-83857142D01*
X29819761Y-83857142D02*
X29867380Y-83999999D01*
X29867380Y-83999999D02*
X29867380Y-84238094D01*
X28867380Y-82761904D02*
X28867380Y-83238094D01*
X28867380Y-83238094D02*
X29343571Y-83285713D01*
X29343571Y-83285713D02*
X29295952Y-83238094D01*
X29295952Y-83238094D02*
X29248333Y-83142856D01*
X29248333Y-83142856D02*
X29248333Y-82904761D01*
X29248333Y-82904761D02*
X29295952Y-82809523D01*
X29295952Y-82809523D02*
X29343571Y-82761904D01*
X29343571Y-82761904D02*
X29438809Y-82714285D01*
X29438809Y-82714285D02*
X29676904Y-82714285D01*
X29676904Y-82714285D02*
X29772142Y-82761904D01*
X29772142Y-82761904D02*
X29819761Y-82809523D01*
X29819761Y-82809523D02*
X29867380Y-82904761D01*
X29867380Y-82904761D02*
X29867380Y-83142856D01*
X29867380Y-83142856D02*
X29819761Y-83238094D01*
X29819761Y-83238094D02*
X29772142Y-83285713D01*
%TO.C,D20*%
X29867380Y-104238094D02*
X28867380Y-104238094D01*
X28867380Y-104238094D02*
X28867380Y-103999999D01*
X28867380Y-103999999D02*
X28915000Y-103857142D01*
X28915000Y-103857142D02*
X29010238Y-103761904D01*
X29010238Y-103761904D02*
X29105476Y-103714285D01*
X29105476Y-103714285D02*
X29295952Y-103666666D01*
X29295952Y-103666666D02*
X29438809Y-103666666D01*
X29438809Y-103666666D02*
X29629285Y-103714285D01*
X29629285Y-103714285D02*
X29724523Y-103761904D01*
X29724523Y-103761904D02*
X29819761Y-103857142D01*
X29819761Y-103857142D02*
X29867380Y-103999999D01*
X29867380Y-103999999D02*
X29867380Y-104238094D01*
X29867380Y-102714285D02*
X29867380Y-103285713D01*
X29867380Y-102999999D02*
X28867380Y-102999999D01*
X28867380Y-102999999D02*
X29010238Y-103095237D01*
X29010238Y-103095237D02*
X29105476Y-103190475D01*
X29105476Y-103190475D02*
X29153095Y-103285713D01*
%TO.C,D21*%
X22081666Y-59690475D02*
X22081666Y-59214285D01*
X22367380Y-59785713D02*
X21367380Y-59452380D01*
X21367380Y-59452380D02*
X22367380Y-59119047D01*
X22367380Y-58261904D02*
X22367380Y-58833332D01*
X22367380Y-58547618D02*
X21367380Y-58547618D01*
X21367380Y-58547618D02*
X21510238Y-58642856D01*
X21510238Y-58642856D02*
X21605476Y-58738094D01*
X21605476Y-58738094D02*
X21653095Y-58833332D01*
X21367380Y-57642856D02*
X21367380Y-57547618D01*
X21367380Y-57547618D02*
X21415000Y-57452380D01*
X21415000Y-57452380D02*
X21462619Y-57404761D01*
X21462619Y-57404761D02*
X21557857Y-57357142D01*
X21557857Y-57357142D02*
X21748333Y-57309523D01*
X21748333Y-57309523D02*
X21986428Y-57309523D01*
X21986428Y-57309523D02*
X22176904Y-57357142D01*
X22176904Y-57357142D02*
X22272142Y-57404761D01*
X22272142Y-57404761D02*
X22319761Y-57452380D01*
X22319761Y-57452380D02*
X22367380Y-57547618D01*
X22367380Y-57547618D02*
X22367380Y-57642856D01*
X22367380Y-57642856D02*
X22319761Y-57738094D01*
X22319761Y-57738094D02*
X22272142Y-57785713D01*
X22272142Y-57785713D02*
X22176904Y-57833332D01*
X22176904Y-57833332D02*
X21986428Y-57880951D01*
X21986428Y-57880951D02*
X21748333Y-57880951D01*
X21748333Y-57880951D02*
X21557857Y-57833332D01*
X21557857Y-57833332D02*
X21462619Y-57785713D01*
X21462619Y-57785713D02*
X21415000Y-57738094D01*
X21415000Y-57738094D02*
X21367380Y-57642856D01*
%TO.C,D22*%
X22081666Y-39690475D02*
X22081666Y-39214285D01*
X22367380Y-39785713D02*
X21367380Y-39452380D01*
X21367380Y-39452380D02*
X22367380Y-39119047D01*
X22367380Y-38261904D02*
X22367380Y-38833332D01*
X22367380Y-38547618D02*
X21367380Y-38547618D01*
X21367380Y-38547618D02*
X21510238Y-38642856D01*
X21510238Y-38642856D02*
X21605476Y-38738094D01*
X21605476Y-38738094D02*
X21653095Y-38833332D01*
X21700714Y-37404761D02*
X22367380Y-37404761D01*
X21319761Y-37642856D02*
X22034047Y-37880951D01*
X22034047Y-37880951D02*
X22034047Y-37261904D01*
%TO.C,D23*%
X22081666Y-44690475D02*
X22081666Y-44214285D01*
X22367380Y-44785713D02*
X21367380Y-44452380D01*
X21367380Y-44452380D02*
X22367380Y-44119047D01*
X22367380Y-43261904D02*
X22367380Y-43833332D01*
X22367380Y-43547618D02*
X21367380Y-43547618D01*
X21367380Y-43547618D02*
X21510238Y-43642856D01*
X21510238Y-43642856D02*
X21605476Y-43738094D01*
X21605476Y-43738094D02*
X21653095Y-43833332D01*
X21367380Y-42928570D02*
X21367380Y-42309523D01*
X21367380Y-42309523D02*
X21748333Y-42642856D01*
X21748333Y-42642856D02*
X21748333Y-42499999D01*
X21748333Y-42499999D02*
X21795952Y-42404761D01*
X21795952Y-42404761D02*
X21843571Y-42357142D01*
X21843571Y-42357142D02*
X21938809Y-42309523D01*
X21938809Y-42309523D02*
X22176904Y-42309523D01*
X22176904Y-42309523D02*
X22272142Y-42357142D01*
X22272142Y-42357142D02*
X22319761Y-42404761D01*
X22319761Y-42404761D02*
X22367380Y-42499999D01*
X22367380Y-42499999D02*
X22367380Y-42785713D01*
X22367380Y-42785713D02*
X22319761Y-42880951D01*
X22319761Y-42880951D02*
X22272142Y-42928570D01*
%TO.C,D24*%
X22081666Y-64214285D02*
X22081666Y-63738095D01*
X22367380Y-64309523D02*
X21367380Y-63976190D01*
X21367380Y-63976190D02*
X22367380Y-63642857D01*
X22367380Y-63261904D02*
X22367380Y-63071428D01*
X22367380Y-63071428D02*
X22319761Y-62976190D01*
X22319761Y-62976190D02*
X22272142Y-62928571D01*
X22272142Y-62928571D02*
X22129285Y-62833333D01*
X22129285Y-62833333D02*
X21938809Y-62785714D01*
X21938809Y-62785714D02*
X21557857Y-62785714D01*
X21557857Y-62785714D02*
X21462619Y-62833333D01*
X21462619Y-62833333D02*
X21415000Y-62880952D01*
X21415000Y-62880952D02*
X21367380Y-62976190D01*
X21367380Y-62976190D02*
X21367380Y-63166666D01*
X21367380Y-63166666D02*
X21415000Y-63261904D01*
X21415000Y-63261904D02*
X21462619Y-63309523D01*
X21462619Y-63309523D02*
X21557857Y-63357142D01*
X21557857Y-63357142D02*
X21795952Y-63357142D01*
X21795952Y-63357142D02*
X21891190Y-63309523D01*
X21891190Y-63309523D02*
X21938809Y-63261904D01*
X21938809Y-63261904D02*
X21986428Y-63166666D01*
X21986428Y-63166666D02*
X21986428Y-62976190D01*
X21986428Y-62976190D02*
X21938809Y-62880952D01*
X21938809Y-62880952D02*
X21891190Y-62833333D01*
X21891190Y-62833333D02*
X21795952Y-62785714D01*
%TO.C,U1*%
X31738095Y-41147380D02*
X31738095Y-41956904D01*
X31738095Y-41956904D02*
X31785714Y-42052142D01*
X31785714Y-42052142D02*
X31833333Y-42099761D01*
X31833333Y-42099761D02*
X31928571Y-42147380D01*
X31928571Y-42147380D02*
X32119047Y-42147380D01*
X32119047Y-42147380D02*
X32214285Y-42099761D01*
X32214285Y-42099761D02*
X32261904Y-42052142D01*
X32261904Y-42052142D02*
X32309523Y-41956904D01*
X32309523Y-41956904D02*
X32309523Y-41147380D01*
X33309523Y-42147380D02*
X32738095Y-42147380D01*
X33023809Y-42147380D02*
X33023809Y-41147380D01*
X33023809Y-41147380D02*
X32928571Y-41290238D01*
X32928571Y-41290238D02*
X32833333Y-41385476D01*
X32833333Y-41385476D02*
X32738095Y-41433095D01*
%TO.C,SW5*%
X77166667Y-68819761D02*
X77309524Y-68867380D01*
X77309524Y-68867380D02*
X77547619Y-68867380D01*
X77547619Y-68867380D02*
X77642857Y-68819761D01*
X77642857Y-68819761D02*
X77690476Y-68772142D01*
X77690476Y-68772142D02*
X77738095Y-68676904D01*
X77738095Y-68676904D02*
X77738095Y-68581666D01*
X77738095Y-68581666D02*
X77690476Y-68486428D01*
X77690476Y-68486428D02*
X77642857Y-68438809D01*
X77642857Y-68438809D02*
X77547619Y-68391190D01*
X77547619Y-68391190D02*
X77357143Y-68343571D01*
X77357143Y-68343571D02*
X77261905Y-68295952D01*
X77261905Y-68295952D02*
X77214286Y-68248333D01*
X77214286Y-68248333D02*
X77166667Y-68153095D01*
X77166667Y-68153095D02*
X77166667Y-68057857D01*
X77166667Y-68057857D02*
X77214286Y-67962619D01*
X77214286Y-67962619D02*
X77261905Y-67915000D01*
X77261905Y-67915000D02*
X77357143Y-67867380D01*
X77357143Y-67867380D02*
X77595238Y-67867380D01*
X77595238Y-67867380D02*
X77738095Y-67915000D01*
X78071429Y-67867380D02*
X78309524Y-68867380D01*
X78309524Y-68867380D02*
X78500000Y-68153095D01*
X78500000Y-68153095D02*
X78690476Y-68867380D01*
X78690476Y-68867380D02*
X78928572Y-67867380D01*
X79785714Y-67867380D02*
X79309524Y-67867380D01*
X79309524Y-67867380D02*
X79261905Y-68343571D01*
X79261905Y-68343571D02*
X79309524Y-68295952D01*
X79309524Y-68295952D02*
X79404762Y-68248333D01*
X79404762Y-68248333D02*
X79642857Y-68248333D01*
X79642857Y-68248333D02*
X79738095Y-68295952D01*
X79738095Y-68295952D02*
X79785714Y-68343571D01*
X79785714Y-68343571D02*
X79833333Y-68438809D01*
X79833333Y-68438809D02*
X79833333Y-68676904D01*
X79833333Y-68676904D02*
X79785714Y-68772142D01*
X79785714Y-68772142D02*
X79738095Y-68819761D01*
X79738095Y-68819761D02*
X79642857Y-68867380D01*
X79642857Y-68867380D02*
X79404762Y-68867380D01*
X79404762Y-68867380D02*
X79309524Y-68819761D01*
X79309524Y-68819761D02*
X79261905Y-68772142D01*
%TO.C,SW6*%
X77166667Y-78819761D02*
X77309524Y-78867380D01*
X77309524Y-78867380D02*
X77547619Y-78867380D01*
X77547619Y-78867380D02*
X77642857Y-78819761D01*
X77642857Y-78819761D02*
X77690476Y-78772142D01*
X77690476Y-78772142D02*
X77738095Y-78676904D01*
X77738095Y-78676904D02*
X77738095Y-78581666D01*
X77738095Y-78581666D02*
X77690476Y-78486428D01*
X77690476Y-78486428D02*
X77642857Y-78438809D01*
X77642857Y-78438809D02*
X77547619Y-78391190D01*
X77547619Y-78391190D02*
X77357143Y-78343571D01*
X77357143Y-78343571D02*
X77261905Y-78295952D01*
X77261905Y-78295952D02*
X77214286Y-78248333D01*
X77214286Y-78248333D02*
X77166667Y-78153095D01*
X77166667Y-78153095D02*
X77166667Y-78057857D01*
X77166667Y-78057857D02*
X77214286Y-77962619D01*
X77214286Y-77962619D02*
X77261905Y-77915000D01*
X77261905Y-77915000D02*
X77357143Y-77867380D01*
X77357143Y-77867380D02*
X77595238Y-77867380D01*
X77595238Y-77867380D02*
X77738095Y-77915000D01*
X78071429Y-77867380D02*
X78309524Y-78867380D01*
X78309524Y-78867380D02*
X78500000Y-78153095D01*
X78500000Y-78153095D02*
X78690476Y-78867380D01*
X78690476Y-78867380D02*
X78928572Y-77867380D01*
X79738095Y-77867380D02*
X79547619Y-77867380D01*
X79547619Y-77867380D02*
X79452381Y-77915000D01*
X79452381Y-77915000D02*
X79404762Y-77962619D01*
X79404762Y-77962619D02*
X79309524Y-78105476D01*
X79309524Y-78105476D02*
X79261905Y-78295952D01*
X79261905Y-78295952D02*
X79261905Y-78676904D01*
X79261905Y-78676904D02*
X79309524Y-78772142D01*
X79309524Y-78772142D02*
X79357143Y-78819761D01*
X79357143Y-78819761D02*
X79452381Y-78867380D01*
X79452381Y-78867380D02*
X79642857Y-78867380D01*
X79642857Y-78867380D02*
X79738095Y-78819761D01*
X79738095Y-78819761D02*
X79785714Y-78772142D01*
X79785714Y-78772142D02*
X79833333Y-78676904D01*
X79833333Y-78676904D02*
X79833333Y-78438809D01*
X79833333Y-78438809D02*
X79785714Y-78343571D01*
X79785714Y-78343571D02*
X79738095Y-78295952D01*
X79738095Y-78295952D02*
X79642857Y-78248333D01*
X79642857Y-78248333D02*
X79452381Y-78248333D01*
X79452381Y-78248333D02*
X79357143Y-78295952D01*
X79357143Y-78295952D02*
X79309524Y-78343571D01*
X79309524Y-78343571D02*
X79261905Y-78438809D01*
%TO.C,SW7*%
X77166667Y-88819761D02*
X77309524Y-88867380D01*
X77309524Y-88867380D02*
X77547619Y-88867380D01*
X77547619Y-88867380D02*
X77642857Y-88819761D01*
X77642857Y-88819761D02*
X77690476Y-88772142D01*
X77690476Y-88772142D02*
X77738095Y-88676904D01*
X77738095Y-88676904D02*
X77738095Y-88581666D01*
X77738095Y-88581666D02*
X77690476Y-88486428D01*
X77690476Y-88486428D02*
X77642857Y-88438809D01*
X77642857Y-88438809D02*
X77547619Y-88391190D01*
X77547619Y-88391190D02*
X77357143Y-88343571D01*
X77357143Y-88343571D02*
X77261905Y-88295952D01*
X77261905Y-88295952D02*
X77214286Y-88248333D01*
X77214286Y-88248333D02*
X77166667Y-88153095D01*
X77166667Y-88153095D02*
X77166667Y-88057857D01*
X77166667Y-88057857D02*
X77214286Y-87962619D01*
X77214286Y-87962619D02*
X77261905Y-87915000D01*
X77261905Y-87915000D02*
X77357143Y-87867380D01*
X77357143Y-87867380D02*
X77595238Y-87867380D01*
X77595238Y-87867380D02*
X77738095Y-87915000D01*
X78071429Y-87867380D02*
X78309524Y-88867380D01*
X78309524Y-88867380D02*
X78500000Y-88153095D01*
X78500000Y-88153095D02*
X78690476Y-88867380D01*
X78690476Y-88867380D02*
X78928572Y-87867380D01*
X79214286Y-87867380D02*
X79880952Y-87867380D01*
X79880952Y-87867380D02*
X79452381Y-88867380D01*
%TO.C,SW8*%
X77166667Y-98819761D02*
X77309524Y-98867380D01*
X77309524Y-98867380D02*
X77547619Y-98867380D01*
X77547619Y-98867380D02*
X77642857Y-98819761D01*
X77642857Y-98819761D02*
X77690476Y-98772142D01*
X77690476Y-98772142D02*
X77738095Y-98676904D01*
X77738095Y-98676904D02*
X77738095Y-98581666D01*
X77738095Y-98581666D02*
X77690476Y-98486428D01*
X77690476Y-98486428D02*
X77642857Y-98438809D01*
X77642857Y-98438809D02*
X77547619Y-98391190D01*
X77547619Y-98391190D02*
X77357143Y-98343571D01*
X77357143Y-98343571D02*
X77261905Y-98295952D01*
X77261905Y-98295952D02*
X77214286Y-98248333D01*
X77214286Y-98248333D02*
X77166667Y-98153095D01*
X77166667Y-98153095D02*
X77166667Y-98057857D01*
X77166667Y-98057857D02*
X77214286Y-97962619D01*
X77214286Y-97962619D02*
X77261905Y-97915000D01*
X77261905Y-97915000D02*
X77357143Y-97867380D01*
X77357143Y-97867380D02*
X77595238Y-97867380D01*
X77595238Y-97867380D02*
X77738095Y-97915000D01*
X78071429Y-97867380D02*
X78309524Y-98867380D01*
X78309524Y-98867380D02*
X78500000Y-98153095D01*
X78500000Y-98153095D02*
X78690476Y-98867380D01*
X78690476Y-98867380D02*
X78928572Y-97867380D01*
X79452381Y-98295952D02*
X79357143Y-98248333D01*
X79357143Y-98248333D02*
X79309524Y-98200714D01*
X79309524Y-98200714D02*
X79261905Y-98105476D01*
X79261905Y-98105476D02*
X79261905Y-98057857D01*
X79261905Y-98057857D02*
X79309524Y-97962619D01*
X79309524Y-97962619D02*
X79357143Y-97915000D01*
X79357143Y-97915000D02*
X79452381Y-97867380D01*
X79452381Y-97867380D02*
X79642857Y-97867380D01*
X79642857Y-97867380D02*
X79738095Y-97915000D01*
X79738095Y-97915000D02*
X79785714Y-97962619D01*
X79785714Y-97962619D02*
X79833333Y-98057857D01*
X79833333Y-98057857D02*
X79833333Y-98105476D01*
X79833333Y-98105476D02*
X79785714Y-98200714D01*
X79785714Y-98200714D02*
X79738095Y-98248333D01*
X79738095Y-98248333D02*
X79642857Y-98295952D01*
X79642857Y-98295952D02*
X79452381Y-98295952D01*
X79452381Y-98295952D02*
X79357143Y-98343571D01*
X79357143Y-98343571D02*
X79309524Y-98391190D01*
X79309524Y-98391190D02*
X79261905Y-98486428D01*
X79261905Y-98486428D02*
X79261905Y-98676904D01*
X79261905Y-98676904D02*
X79309524Y-98772142D01*
X79309524Y-98772142D02*
X79357143Y-98819761D01*
X79357143Y-98819761D02*
X79452381Y-98867380D01*
X79452381Y-98867380D02*
X79642857Y-98867380D01*
X79642857Y-98867380D02*
X79738095Y-98819761D01*
X79738095Y-98819761D02*
X79785714Y-98772142D01*
X79785714Y-98772142D02*
X79833333Y-98676904D01*
X79833333Y-98676904D02*
X79833333Y-98486428D01*
X79833333Y-98486428D02*
X79785714Y-98391190D01*
X79785714Y-98391190D02*
X79738095Y-98343571D01*
X79738095Y-98343571D02*
X79642857Y-98295952D01*
%TO.C,SW9*%
X77166667Y-108819761D02*
X77309524Y-108867380D01*
X77309524Y-108867380D02*
X77547619Y-108867380D01*
X77547619Y-108867380D02*
X77642857Y-108819761D01*
X77642857Y-108819761D02*
X77690476Y-108772142D01*
X77690476Y-108772142D02*
X77738095Y-108676904D01*
X77738095Y-108676904D02*
X77738095Y-108581666D01*
X77738095Y-108581666D02*
X77690476Y-108486428D01*
X77690476Y-108486428D02*
X77642857Y-108438809D01*
X77642857Y-108438809D02*
X77547619Y-108391190D01*
X77547619Y-108391190D02*
X77357143Y-108343571D01*
X77357143Y-108343571D02*
X77261905Y-108295952D01*
X77261905Y-108295952D02*
X77214286Y-108248333D01*
X77214286Y-108248333D02*
X77166667Y-108153095D01*
X77166667Y-108153095D02*
X77166667Y-108057857D01*
X77166667Y-108057857D02*
X77214286Y-107962619D01*
X77214286Y-107962619D02*
X77261905Y-107915000D01*
X77261905Y-107915000D02*
X77357143Y-107867380D01*
X77357143Y-107867380D02*
X77595238Y-107867380D01*
X77595238Y-107867380D02*
X77738095Y-107915000D01*
X78071429Y-107867380D02*
X78309524Y-108867380D01*
X78309524Y-108867380D02*
X78500000Y-108153095D01*
X78500000Y-108153095D02*
X78690476Y-108867380D01*
X78690476Y-108867380D02*
X78928572Y-107867380D01*
X79357143Y-108867380D02*
X79547619Y-108867380D01*
X79547619Y-108867380D02*
X79642857Y-108819761D01*
X79642857Y-108819761D02*
X79690476Y-108772142D01*
X79690476Y-108772142D02*
X79785714Y-108629285D01*
X79785714Y-108629285D02*
X79833333Y-108438809D01*
X79833333Y-108438809D02*
X79833333Y-108057857D01*
X79833333Y-108057857D02*
X79785714Y-107962619D01*
X79785714Y-107962619D02*
X79738095Y-107915000D01*
X79738095Y-107915000D02*
X79642857Y-107867380D01*
X79642857Y-107867380D02*
X79452381Y-107867380D01*
X79452381Y-107867380D02*
X79357143Y-107915000D01*
X79357143Y-107915000D02*
X79309524Y-107962619D01*
X79309524Y-107962619D02*
X79261905Y-108057857D01*
X79261905Y-108057857D02*
X79261905Y-108295952D01*
X79261905Y-108295952D02*
X79309524Y-108391190D01*
X79309524Y-108391190D02*
X79357143Y-108438809D01*
X79357143Y-108438809D02*
X79452381Y-108486428D01*
X79452381Y-108486428D02*
X79642857Y-108486428D01*
X79642857Y-108486428D02*
X79738095Y-108438809D01*
X79738095Y-108438809D02*
X79785714Y-108391190D01*
X79785714Y-108391190D02*
X79833333Y-108295952D01*
%TO.C,SW10*%
X86690476Y-58819761D02*
X86833333Y-58867380D01*
X86833333Y-58867380D02*
X87071428Y-58867380D01*
X87071428Y-58867380D02*
X87166666Y-58819761D01*
X87166666Y-58819761D02*
X87214285Y-58772142D01*
X87214285Y-58772142D02*
X87261904Y-58676904D01*
X87261904Y-58676904D02*
X87261904Y-58581666D01*
X87261904Y-58581666D02*
X87214285Y-58486428D01*
X87214285Y-58486428D02*
X87166666Y-58438809D01*
X87166666Y-58438809D02*
X87071428Y-58391190D01*
X87071428Y-58391190D02*
X86880952Y-58343571D01*
X86880952Y-58343571D02*
X86785714Y-58295952D01*
X86785714Y-58295952D02*
X86738095Y-58248333D01*
X86738095Y-58248333D02*
X86690476Y-58153095D01*
X86690476Y-58153095D02*
X86690476Y-58057857D01*
X86690476Y-58057857D02*
X86738095Y-57962619D01*
X86738095Y-57962619D02*
X86785714Y-57915000D01*
X86785714Y-57915000D02*
X86880952Y-57867380D01*
X86880952Y-57867380D02*
X87119047Y-57867380D01*
X87119047Y-57867380D02*
X87261904Y-57915000D01*
X87595238Y-57867380D02*
X87833333Y-58867380D01*
X87833333Y-58867380D02*
X88023809Y-58153095D01*
X88023809Y-58153095D02*
X88214285Y-58867380D01*
X88214285Y-58867380D02*
X88452381Y-57867380D01*
X89357142Y-58867380D02*
X88785714Y-58867380D01*
X89071428Y-58867380D02*
X89071428Y-57867380D01*
X89071428Y-57867380D02*
X88976190Y-58010238D01*
X88976190Y-58010238D02*
X88880952Y-58105476D01*
X88880952Y-58105476D02*
X88785714Y-58153095D01*
X89976190Y-57867380D02*
X90071428Y-57867380D01*
X90071428Y-57867380D02*
X90166666Y-57915000D01*
X90166666Y-57915000D02*
X90214285Y-57962619D01*
X90214285Y-57962619D02*
X90261904Y-58057857D01*
X90261904Y-58057857D02*
X90309523Y-58248333D01*
X90309523Y-58248333D02*
X90309523Y-58486428D01*
X90309523Y-58486428D02*
X90261904Y-58676904D01*
X90261904Y-58676904D02*
X90214285Y-58772142D01*
X90214285Y-58772142D02*
X90166666Y-58819761D01*
X90166666Y-58819761D02*
X90071428Y-58867380D01*
X90071428Y-58867380D02*
X89976190Y-58867380D01*
X89976190Y-58867380D02*
X89880952Y-58819761D01*
X89880952Y-58819761D02*
X89833333Y-58772142D01*
X89833333Y-58772142D02*
X89785714Y-58676904D01*
X89785714Y-58676904D02*
X89738095Y-58486428D01*
X89738095Y-58486428D02*
X89738095Y-58248333D01*
X89738095Y-58248333D02*
X89785714Y-58057857D01*
X89785714Y-58057857D02*
X89833333Y-57962619D01*
X89833333Y-57962619D02*
X89880952Y-57915000D01*
X89880952Y-57915000D02*
X89976190Y-57867380D01*
%TO.C,SW11*%
X86690476Y-68819761D02*
X86833333Y-68867380D01*
X86833333Y-68867380D02*
X87071428Y-68867380D01*
X87071428Y-68867380D02*
X87166666Y-68819761D01*
X87166666Y-68819761D02*
X87214285Y-68772142D01*
X87214285Y-68772142D02*
X87261904Y-68676904D01*
X87261904Y-68676904D02*
X87261904Y-68581666D01*
X87261904Y-68581666D02*
X87214285Y-68486428D01*
X87214285Y-68486428D02*
X87166666Y-68438809D01*
X87166666Y-68438809D02*
X87071428Y-68391190D01*
X87071428Y-68391190D02*
X86880952Y-68343571D01*
X86880952Y-68343571D02*
X86785714Y-68295952D01*
X86785714Y-68295952D02*
X86738095Y-68248333D01*
X86738095Y-68248333D02*
X86690476Y-68153095D01*
X86690476Y-68153095D02*
X86690476Y-68057857D01*
X86690476Y-68057857D02*
X86738095Y-67962619D01*
X86738095Y-67962619D02*
X86785714Y-67915000D01*
X86785714Y-67915000D02*
X86880952Y-67867380D01*
X86880952Y-67867380D02*
X87119047Y-67867380D01*
X87119047Y-67867380D02*
X87261904Y-67915000D01*
X87595238Y-67867380D02*
X87833333Y-68867380D01*
X87833333Y-68867380D02*
X88023809Y-68153095D01*
X88023809Y-68153095D02*
X88214285Y-68867380D01*
X88214285Y-68867380D02*
X88452381Y-67867380D01*
X89357142Y-68867380D02*
X88785714Y-68867380D01*
X89071428Y-68867380D02*
X89071428Y-67867380D01*
X89071428Y-67867380D02*
X88976190Y-68010238D01*
X88976190Y-68010238D02*
X88880952Y-68105476D01*
X88880952Y-68105476D02*
X88785714Y-68153095D01*
X90309523Y-68867380D02*
X89738095Y-68867380D01*
X90023809Y-68867380D02*
X90023809Y-67867380D01*
X90023809Y-67867380D02*
X89928571Y-68010238D01*
X89928571Y-68010238D02*
X89833333Y-68105476D01*
X89833333Y-68105476D02*
X89738095Y-68153095D01*
%TO.C,SW12*%
X86690476Y-78819761D02*
X86833333Y-78867380D01*
X86833333Y-78867380D02*
X87071428Y-78867380D01*
X87071428Y-78867380D02*
X87166666Y-78819761D01*
X87166666Y-78819761D02*
X87214285Y-78772142D01*
X87214285Y-78772142D02*
X87261904Y-78676904D01*
X87261904Y-78676904D02*
X87261904Y-78581666D01*
X87261904Y-78581666D02*
X87214285Y-78486428D01*
X87214285Y-78486428D02*
X87166666Y-78438809D01*
X87166666Y-78438809D02*
X87071428Y-78391190D01*
X87071428Y-78391190D02*
X86880952Y-78343571D01*
X86880952Y-78343571D02*
X86785714Y-78295952D01*
X86785714Y-78295952D02*
X86738095Y-78248333D01*
X86738095Y-78248333D02*
X86690476Y-78153095D01*
X86690476Y-78153095D02*
X86690476Y-78057857D01*
X86690476Y-78057857D02*
X86738095Y-77962619D01*
X86738095Y-77962619D02*
X86785714Y-77915000D01*
X86785714Y-77915000D02*
X86880952Y-77867380D01*
X86880952Y-77867380D02*
X87119047Y-77867380D01*
X87119047Y-77867380D02*
X87261904Y-77915000D01*
X87595238Y-77867380D02*
X87833333Y-78867380D01*
X87833333Y-78867380D02*
X88023809Y-78153095D01*
X88023809Y-78153095D02*
X88214285Y-78867380D01*
X88214285Y-78867380D02*
X88452381Y-77867380D01*
X89357142Y-78867380D02*
X88785714Y-78867380D01*
X89071428Y-78867380D02*
X89071428Y-77867380D01*
X89071428Y-77867380D02*
X88976190Y-78010238D01*
X88976190Y-78010238D02*
X88880952Y-78105476D01*
X88880952Y-78105476D02*
X88785714Y-78153095D01*
X89738095Y-77962619D02*
X89785714Y-77915000D01*
X89785714Y-77915000D02*
X89880952Y-77867380D01*
X89880952Y-77867380D02*
X90119047Y-77867380D01*
X90119047Y-77867380D02*
X90214285Y-77915000D01*
X90214285Y-77915000D02*
X90261904Y-77962619D01*
X90261904Y-77962619D02*
X90309523Y-78057857D01*
X90309523Y-78057857D02*
X90309523Y-78153095D01*
X90309523Y-78153095D02*
X90261904Y-78295952D01*
X90261904Y-78295952D02*
X89690476Y-78867380D01*
X89690476Y-78867380D02*
X90309523Y-78867380D01*
%TO.C,SW13*%
X86690476Y-88819761D02*
X86833333Y-88867380D01*
X86833333Y-88867380D02*
X87071428Y-88867380D01*
X87071428Y-88867380D02*
X87166666Y-88819761D01*
X87166666Y-88819761D02*
X87214285Y-88772142D01*
X87214285Y-88772142D02*
X87261904Y-88676904D01*
X87261904Y-88676904D02*
X87261904Y-88581666D01*
X87261904Y-88581666D02*
X87214285Y-88486428D01*
X87214285Y-88486428D02*
X87166666Y-88438809D01*
X87166666Y-88438809D02*
X87071428Y-88391190D01*
X87071428Y-88391190D02*
X86880952Y-88343571D01*
X86880952Y-88343571D02*
X86785714Y-88295952D01*
X86785714Y-88295952D02*
X86738095Y-88248333D01*
X86738095Y-88248333D02*
X86690476Y-88153095D01*
X86690476Y-88153095D02*
X86690476Y-88057857D01*
X86690476Y-88057857D02*
X86738095Y-87962619D01*
X86738095Y-87962619D02*
X86785714Y-87915000D01*
X86785714Y-87915000D02*
X86880952Y-87867380D01*
X86880952Y-87867380D02*
X87119047Y-87867380D01*
X87119047Y-87867380D02*
X87261904Y-87915000D01*
X87595238Y-87867380D02*
X87833333Y-88867380D01*
X87833333Y-88867380D02*
X88023809Y-88153095D01*
X88023809Y-88153095D02*
X88214285Y-88867380D01*
X88214285Y-88867380D02*
X88452381Y-87867380D01*
X89357142Y-88867380D02*
X88785714Y-88867380D01*
X89071428Y-88867380D02*
X89071428Y-87867380D01*
X89071428Y-87867380D02*
X88976190Y-88010238D01*
X88976190Y-88010238D02*
X88880952Y-88105476D01*
X88880952Y-88105476D02*
X88785714Y-88153095D01*
X89690476Y-87867380D02*
X90309523Y-87867380D01*
X90309523Y-87867380D02*
X89976190Y-88248333D01*
X89976190Y-88248333D02*
X90119047Y-88248333D01*
X90119047Y-88248333D02*
X90214285Y-88295952D01*
X90214285Y-88295952D02*
X90261904Y-88343571D01*
X90261904Y-88343571D02*
X90309523Y-88438809D01*
X90309523Y-88438809D02*
X90309523Y-88676904D01*
X90309523Y-88676904D02*
X90261904Y-88772142D01*
X90261904Y-88772142D02*
X90214285Y-88819761D01*
X90214285Y-88819761D02*
X90119047Y-88867380D01*
X90119047Y-88867380D02*
X89833333Y-88867380D01*
X89833333Y-88867380D02*
X89738095Y-88819761D01*
X89738095Y-88819761D02*
X89690476Y-88772142D01*
%TO.C,SW14*%
X86690476Y-98819761D02*
X86833333Y-98867380D01*
X86833333Y-98867380D02*
X87071428Y-98867380D01*
X87071428Y-98867380D02*
X87166666Y-98819761D01*
X87166666Y-98819761D02*
X87214285Y-98772142D01*
X87214285Y-98772142D02*
X87261904Y-98676904D01*
X87261904Y-98676904D02*
X87261904Y-98581666D01*
X87261904Y-98581666D02*
X87214285Y-98486428D01*
X87214285Y-98486428D02*
X87166666Y-98438809D01*
X87166666Y-98438809D02*
X87071428Y-98391190D01*
X87071428Y-98391190D02*
X86880952Y-98343571D01*
X86880952Y-98343571D02*
X86785714Y-98295952D01*
X86785714Y-98295952D02*
X86738095Y-98248333D01*
X86738095Y-98248333D02*
X86690476Y-98153095D01*
X86690476Y-98153095D02*
X86690476Y-98057857D01*
X86690476Y-98057857D02*
X86738095Y-97962619D01*
X86738095Y-97962619D02*
X86785714Y-97915000D01*
X86785714Y-97915000D02*
X86880952Y-97867380D01*
X86880952Y-97867380D02*
X87119047Y-97867380D01*
X87119047Y-97867380D02*
X87261904Y-97915000D01*
X87595238Y-97867380D02*
X87833333Y-98867380D01*
X87833333Y-98867380D02*
X88023809Y-98153095D01*
X88023809Y-98153095D02*
X88214285Y-98867380D01*
X88214285Y-98867380D02*
X88452381Y-97867380D01*
X89357142Y-98867380D02*
X88785714Y-98867380D01*
X89071428Y-98867380D02*
X89071428Y-97867380D01*
X89071428Y-97867380D02*
X88976190Y-98010238D01*
X88976190Y-98010238D02*
X88880952Y-98105476D01*
X88880952Y-98105476D02*
X88785714Y-98153095D01*
X90214285Y-98200714D02*
X90214285Y-98867380D01*
X89976190Y-97819761D02*
X89738095Y-98534047D01*
X89738095Y-98534047D02*
X90357142Y-98534047D01*
%TO.C,SW15*%
X86690476Y-108819761D02*
X86833333Y-108867380D01*
X86833333Y-108867380D02*
X87071428Y-108867380D01*
X87071428Y-108867380D02*
X87166666Y-108819761D01*
X87166666Y-108819761D02*
X87214285Y-108772142D01*
X87214285Y-108772142D02*
X87261904Y-108676904D01*
X87261904Y-108676904D02*
X87261904Y-108581666D01*
X87261904Y-108581666D02*
X87214285Y-108486428D01*
X87214285Y-108486428D02*
X87166666Y-108438809D01*
X87166666Y-108438809D02*
X87071428Y-108391190D01*
X87071428Y-108391190D02*
X86880952Y-108343571D01*
X86880952Y-108343571D02*
X86785714Y-108295952D01*
X86785714Y-108295952D02*
X86738095Y-108248333D01*
X86738095Y-108248333D02*
X86690476Y-108153095D01*
X86690476Y-108153095D02*
X86690476Y-108057857D01*
X86690476Y-108057857D02*
X86738095Y-107962619D01*
X86738095Y-107962619D02*
X86785714Y-107915000D01*
X86785714Y-107915000D02*
X86880952Y-107867380D01*
X86880952Y-107867380D02*
X87119047Y-107867380D01*
X87119047Y-107867380D02*
X87261904Y-107915000D01*
X87595238Y-107867380D02*
X87833333Y-108867380D01*
X87833333Y-108867380D02*
X88023809Y-108153095D01*
X88023809Y-108153095D02*
X88214285Y-108867380D01*
X88214285Y-108867380D02*
X88452381Y-107867380D01*
X89357142Y-108867380D02*
X88785714Y-108867380D01*
X89071428Y-108867380D02*
X89071428Y-107867380D01*
X89071428Y-107867380D02*
X88976190Y-108010238D01*
X88976190Y-108010238D02*
X88880952Y-108105476D01*
X88880952Y-108105476D02*
X88785714Y-108153095D01*
X90261904Y-107867380D02*
X89785714Y-107867380D01*
X89785714Y-107867380D02*
X89738095Y-108343571D01*
X89738095Y-108343571D02*
X89785714Y-108295952D01*
X89785714Y-108295952D02*
X89880952Y-108248333D01*
X89880952Y-108248333D02*
X90119047Y-108248333D01*
X90119047Y-108248333D02*
X90214285Y-108295952D01*
X90214285Y-108295952D02*
X90261904Y-108343571D01*
X90261904Y-108343571D02*
X90309523Y-108438809D01*
X90309523Y-108438809D02*
X90309523Y-108676904D01*
X90309523Y-108676904D02*
X90261904Y-108772142D01*
X90261904Y-108772142D02*
X90214285Y-108819761D01*
X90214285Y-108819761D02*
X90119047Y-108867380D01*
X90119047Y-108867380D02*
X89880952Y-108867380D01*
X89880952Y-108867380D02*
X89785714Y-108819761D01*
X89785714Y-108819761D02*
X89738095Y-108772142D01*
%TO.C,SW16*%
X64190476Y-78819761D02*
X64333333Y-78867380D01*
X64333333Y-78867380D02*
X64571428Y-78867380D01*
X64571428Y-78867380D02*
X64666666Y-78819761D01*
X64666666Y-78819761D02*
X64714285Y-78772142D01*
X64714285Y-78772142D02*
X64761904Y-78676904D01*
X64761904Y-78676904D02*
X64761904Y-78581666D01*
X64761904Y-78581666D02*
X64714285Y-78486428D01*
X64714285Y-78486428D02*
X64666666Y-78438809D01*
X64666666Y-78438809D02*
X64571428Y-78391190D01*
X64571428Y-78391190D02*
X64380952Y-78343571D01*
X64380952Y-78343571D02*
X64285714Y-78295952D01*
X64285714Y-78295952D02*
X64238095Y-78248333D01*
X64238095Y-78248333D02*
X64190476Y-78153095D01*
X64190476Y-78153095D02*
X64190476Y-78057857D01*
X64190476Y-78057857D02*
X64238095Y-77962619D01*
X64238095Y-77962619D02*
X64285714Y-77915000D01*
X64285714Y-77915000D02*
X64380952Y-77867380D01*
X64380952Y-77867380D02*
X64619047Y-77867380D01*
X64619047Y-77867380D02*
X64761904Y-77915000D01*
X65095238Y-77867380D02*
X65333333Y-78867380D01*
X65333333Y-78867380D02*
X65523809Y-78153095D01*
X65523809Y-78153095D02*
X65714285Y-78867380D01*
X65714285Y-78867380D02*
X65952381Y-77867380D01*
X66857142Y-78867380D02*
X66285714Y-78867380D01*
X66571428Y-78867380D02*
X66571428Y-77867380D01*
X66571428Y-77867380D02*
X66476190Y-78010238D01*
X66476190Y-78010238D02*
X66380952Y-78105476D01*
X66380952Y-78105476D02*
X66285714Y-78153095D01*
X67714285Y-77867380D02*
X67523809Y-77867380D01*
X67523809Y-77867380D02*
X67428571Y-77915000D01*
X67428571Y-77915000D02*
X67380952Y-77962619D01*
X67380952Y-77962619D02*
X67285714Y-78105476D01*
X67285714Y-78105476D02*
X67238095Y-78295952D01*
X67238095Y-78295952D02*
X67238095Y-78676904D01*
X67238095Y-78676904D02*
X67285714Y-78772142D01*
X67285714Y-78772142D02*
X67333333Y-78819761D01*
X67333333Y-78819761D02*
X67428571Y-78867380D01*
X67428571Y-78867380D02*
X67619047Y-78867380D01*
X67619047Y-78867380D02*
X67714285Y-78819761D01*
X67714285Y-78819761D02*
X67761904Y-78772142D01*
X67761904Y-78772142D02*
X67809523Y-78676904D01*
X67809523Y-78676904D02*
X67809523Y-78438809D01*
X67809523Y-78438809D02*
X67761904Y-78343571D01*
X67761904Y-78343571D02*
X67714285Y-78295952D01*
X67714285Y-78295952D02*
X67619047Y-78248333D01*
X67619047Y-78248333D02*
X67428571Y-78248333D01*
X67428571Y-78248333D02*
X67333333Y-78295952D01*
X67333333Y-78295952D02*
X67285714Y-78343571D01*
X67285714Y-78343571D02*
X67238095Y-78438809D01*
%TO.C,SW17*%
X64190476Y-88819761D02*
X64333333Y-88867380D01*
X64333333Y-88867380D02*
X64571428Y-88867380D01*
X64571428Y-88867380D02*
X64666666Y-88819761D01*
X64666666Y-88819761D02*
X64714285Y-88772142D01*
X64714285Y-88772142D02*
X64761904Y-88676904D01*
X64761904Y-88676904D02*
X64761904Y-88581666D01*
X64761904Y-88581666D02*
X64714285Y-88486428D01*
X64714285Y-88486428D02*
X64666666Y-88438809D01*
X64666666Y-88438809D02*
X64571428Y-88391190D01*
X64571428Y-88391190D02*
X64380952Y-88343571D01*
X64380952Y-88343571D02*
X64285714Y-88295952D01*
X64285714Y-88295952D02*
X64238095Y-88248333D01*
X64238095Y-88248333D02*
X64190476Y-88153095D01*
X64190476Y-88153095D02*
X64190476Y-88057857D01*
X64190476Y-88057857D02*
X64238095Y-87962619D01*
X64238095Y-87962619D02*
X64285714Y-87915000D01*
X64285714Y-87915000D02*
X64380952Y-87867380D01*
X64380952Y-87867380D02*
X64619047Y-87867380D01*
X64619047Y-87867380D02*
X64761904Y-87915000D01*
X65095238Y-87867380D02*
X65333333Y-88867380D01*
X65333333Y-88867380D02*
X65523809Y-88153095D01*
X65523809Y-88153095D02*
X65714285Y-88867380D01*
X65714285Y-88867380D02*
X65952381Y-87867380D01*
X66857142Y-88867380D02*
X66285714Y-88867380D01*
X66571428Y-88867380D02*
X66571428Y-87867380D01*
X66571428Y-87867380D02*
X66476190Y-88010238D01*
X66476190Y-88010238D02*
X66380952Y-88105476D01*
X66380952Y-88105476D02*
X66285714Y-88153095D01*
X67190476Y-87867380D02*
X67857142Y-87867380D01*
X67857142Y-87867380D02*
X67428571Y-88867380D01*
%TO.C,SW18*%
X64190476Y-98819761D02*
X64333333Y-98867380D01*
X64333333Y-98867380D02*
X64571428Y-98867380D01*
X64571428Y-98867380D02*
X64666666Y-98819761D01*
X64666666Y-98819761D02*
X64714285Y-98772142D01*
X64714285Y-98772142D02*
X64761904Y-98676904D01*
X64761904Y-98676904D02*
X64761904Y-98581666D01*
X64761904Y-98581666D02*
X64714285Y-98486428D01*
X64714285Y-98486428D02*
X64666666Y-98438809D01*
X64666666Y-98438809D02*
X64571428Y-98391190D01*
X64571428Y-98391190D02*
X64380952Y-98343571D01*
X64380952Y-98343571D02*
X64285714Y-98295952D01*
X64285714Y-98295952D02*
X64238095Y-98248333D01*
X64238095Y-98248333D02*
X64190476Y-98153095D01*
X64190476Y-98153095D02*
X64190476Y-98057857D01*
X64190476Y-98057857D02*
X64238095Y-97962619D01*
X64238095Y-97962619D02*
X64285714Y-97915000D01*
X64285714Y-97915000D02*
X64380952Y-97867380D01*
X64380952Y-97867380D02*
X64619047Y-97867380D01*
X64619047Y-97867380D02*
X64761904Y-97915000D01*
X65095238Y-97867380D02*
X65333333Y-98867380D01*
X65333333Y-98867380D02*
X65523809Y-98153095D01*
X65523809Y-98153095D02*
X65714285Y-98867380D01*
X65714285Y-98867380D02*
X65952381Y-97867380D01*
X66857142Y-98867380D02*
X66285714Y-98867380D01*
X66571428Y-98867380D02*
X66571428Y-97867380D01*
X66571428Y-97867380D02*
X66476190Y-98010238D01*
X66476190Y-98010238D02*
X66380952Y-98105476D01*
X66380952Y-98105476D02*
X66285714Y-98153095D01*
X67428571Y-98295952D02*
X67333333Y-98248333D01*
X67333333Y-98248333D02*
X67285714Y-98200714D01*
X67285714Y-98200714D02*
X67238095Y-98105476D01*
X67238095Y-98105476D02*
X67238095Y-98057857D01*
X67238095Y-98057857D02*
X67285714Y-97962619D01*
X67285714Y-97962619D02*
X67333333Y-97915000D01*
X67333333Y-97915000D02*
X67428571Y-97867380D01*
X67428571Y-97867380D02*
X67619047Y-97867380D01*
X67619047Y-97867380D02*
X67714285Y-97915000D01*
X67714285Y-97915000D02*
X67761904Y-97962619D01*
X67761904Y-97962619D02*
X67809523Y-98057857D01*
X67809523Y-98057857D02*
X67809523Y-98105476D01*
X67809523Y-98105476D02*
X67761904Y-98200714D01*
X67761904Y-98200714D02*
X67714285Y-98248333D01*
X67714285Y-98248333D02*
X67619047Y-98295952D01*
X67619047Y-98295952D02*
X67428571Y-98295952D01*
X67428571Y-98295952D02*
X67333333Y-98343571D01*
X67333333Y-98343571D02*
X67285714Y-98391190D01*
X67285714Y-98391190D02*
X67238095Y-98486428D01*
X67238095Y-98486428D02*
X67238095Y-98676904D01*
X67238095Y-98676904D02*
X67285714Y-98772142D01*
X67285714Y-98772142D02*
X67333333Y-98819761D01*
X67333333Y-98819761D02*
X67428571Y-98867380D01*
X67428571Y-98867380D02*
X67619047Y-98867380D01*
X67619047Y-98867380D02*
X67714285Y-98819761D01*
X67714285Y-98819761D02*
X67761904Y-98772142D01*
X67761904Y-98772142D02*
X67809523Y-98676904D01*
X67809523Y-98676904D02*
X67809523Y-98486428D01*
X67809523Y-98486428D02*
X67761904Y-98391190D01*
X67761904Y-98391190D02*
X67714285Y-98343571D01*
X67714285Y-98343571D02*
X67619047Y-98295952D01*
%TO.C,SW19*%
X64190476Y-108819761D02*
X64333333Y-108867380D01*
X64333333Y-108867380D02*
X64571428Y-108867380D01*
X64571428Y-108867380D02*
X64666666Y-108819761D01*
X64666666Y-108819761D02*
X64714285Y-108772142D01*
X64714285Y-108772142D02*
X64761904Y-108676904D01*
X64761904Y-108676904D02*
X64761904Y-108581666D01*
X64761904Y-108581666D02*
X64714285Y-108486428D01*
X64714285Y-108486428D02*
X64666666Y-108438809D01*
X64666666Y-108438809D02*
X64571428Y-108391190D01*
X64571428Y-108391190D02*
X64380952Y-108343571D01*
X64380952Y-108343571D02*
X64285714Y-108295952D01*
X64285714Y-108295952D02*
X64238095Y-108248333D01*
X64238095Y-108248333D02*
X64190476Y-108153095D01*
X64190476Y-108153095D02*
X64190476Y-108057857D01*
X64190476Y-108057857D02*
X64238095Y-107962619D01*
X64238095Y-107962619D02*
X64285714Y-107915000D01*
X64285714Y-107915000D02*
X64380952Y-107867380D01*
X64380952Y-107867380D02*
X64619047Y-107867380D01*
X64619047Y-107867380D02*
X64761904Y-107915000D01*
X65095238Y-107867380D02*
X65333333Y-108867380D01*
X65333333Y-108867380D02*
X65523809Y-108153095D01*
X65523809Y-108153095D02*
X65714285Y-108867380D01*
X65714285Y-108867380D02*
X65952381Y-107867380D01*
X66857142Y-108867380D02*
X66285714Y-108867380D01*
X66571428Y-108867380D02*
X66571428Y-107867380D01*
X66571428Y-107867380D02*
X66476190Y-108010238D01*
X66476190Y-108010238D02*
X66380952Y-108105476D01*
X66380952Y-108105476D02*
X66285714Y-108153095D01*
X67333333Y-108867380D02*
X67523809Y-108867380D01*
X67523809Y-108867380D02*
X67619047Y-108819761D01*
X67619047Y-108819761D02*
X67666666Y-108772142D01*
X67666666Y-108772142D02*
X67761904Y-108629285D01*
X67761904Y-108629285D02*
X67809523Y-108438809D01*
X67809523Y-108438809D02*
X67809523Y-108057857D01*
X67809523Y-108057857D02*
X67761904Y-107962619D01*
X67761904Y-107962619D02*
X67714285Y-107915000D01*
X67714285Y-107915000D02*
X67619047Y-107867380D01*
X67619047Y-107867380D02*
X67428571Y-107867380D01*
X67428571Y-107867380D02*
X67333333Y-107915000D01*
X67333333Y-107915000D02*
X67285714Y-107962619D01*
X67285714Y-107962619D02*
X67238095Y-108057857D01*
X67238095Y-108057857D02*
X67238095Y-108295952D01*
X67238095Y-108295952D02*
X67285714Y-108391190D01*
X67285714Y-108391190D02*
X67333333Y-108438809D01*
X67333333Y-108438809D02*
X67428571Y-108486428D01*
X67428571Y-108486428D02*
X67619047Y-108486428D01*
X67619047Y-108486428D02*
X67714285Y-108438809D01*
X67714285Y-108438809D02*
X67761904Y-108391190D01*
X67761904Y-108391190D02*
X67809523Y-108295952D01*
%TO.C,SW20*%
X96690476Y-58819761D02*
X96833333Y-58867380D01*
X96833333Y-58867380D02*
X97071428Y-58867380D01*
X97071428Y-58867380D02*
X97166666Y-58819761D01*
X97166666Y-58819761D02*
X97214285Y-58772142D01*
X97214285Y-58772142D02*
X97261904Y-58676904D01*
X97261904Y-58676904D02*
X97261904Y-58581666D01*
X97261904Y-58581666D02*
X97214285Y-58486428D01*
X97214285Y-58486428D02*
X97166666Y-58438809D01*
X97166666Y-58438809D02*
X97071428Y-58391190D01*
X97071428Y-58391190D02*
X96880952Y-58343571D01*
X96880952Y-58343571D02*
X96785714Y-58295952D01*
X96785714Y-58295952D02*
X96738095Y-58248333D01*
X96738095Y-58248333D02*
X96690476Y-58153095D01*
X96690476Y-58153095D02*
X96690476Y-58057857D01*
X96690476Y-58057857D02*
X96738095Y-57962619D01*
X96738095Y-57962619D02*
X96785714Y-57915000D01*
X96785714Y-57915000D02*
X96880952Y-57867380D01*
X96880952Y-57867380D02*
X97119047Y-57867380D01*
X97119047Y-57867380D02*
X97261904Y-57915000D01*
X97595238Y-57867380D02*
X97833333Y-58867380D01*
X97833333Y-58867380D02*
X98023809Y-58153095D01*
X98023809Y-58153095D02*
X98214285Y-58867380D01*
X98214285Y-58867380D02*
X98452381Y-57867380D01*
X98785714Y-57962619D02*
X98833333Y-57915000D01*
X98833333Y-57915000D02*
X98928571Y-57867380D01*
X98928571Y-57867380D02*
X99166666Y-57867380D01*
X99166666Y-57867380D02*
X99261904Y-57915000D01*
X99261904Y-57915000D02*
X99309523Y-57962619D01*
X99309523Y-57962619D02*
X99357142Y-58057857D01*
X99357142Y-58057857D02*
X99357142Y-58153095D01*
X99357142Y-58153095D02*
X99309523Y-58295952D01*
X99309523Y-58295952D02*
X98738095Y-58867380D01*
X98738095Y-58867380D02*
X99357142Y-58867380D01*
X99976190Y-57867380D02*
X100071428Y-57867380D01*
X100071428Y-57867380D02*
X100166666Y-57915000D01*
X100166666Y-57915000D02*
X100214285Y-57962619D01*
X100214285Y-57962619D02*
X100261904Y-58057857D01*
X100261904Y-58057857D02*
X100309523Y-58248333D01*
X100309523Y-58248333D02*
X100309523Y-58486428D01*
X100309523Y-58486428D02*
X100261904Y-58676904D01*
X100261904Y-58676904D02*
X100214285Y-58772142D01*
X100214285Y-58772142D02*
X100166666Y-58819761D01*
X100166666Y-58819761D02*
X100071428Y-58867380D01*
X100071428Y-58867380D02*
X99976190Y-58867380D01*
X99976190Y-58867380D02*
X99880952Y-58819761D01*
X99880952Y-58819761D02*
X99833333Y-58772142D01*
X99833333Y-58772142D02*
X99785714Y-58676904D01*
X99785714Y-58676904D02*
X99738095Y-58486428D01*
X99738095Y-58486428D02*
X99738095Y-58248333D01*
X99738095Y-58248333D02*
X99785714Y-58057857D01*
X99785714Y-58057857D02*
X99833333Y-57962619D01*
X99833333Y-57962619D02*
X99880952Y-57915000D01*
X99880952Y-57915000D02*
X99976190Y-57867380D01*
%TO.C,SW21*%
X96690476Y-68819761D02*
X96833333Y-68867380D01*
X96833333Y-68867380D02*
X97071428Y-68867380D01*
X97071428Y-68867380D02*
X97166666Y-68819761D01*
X97166666Y-68819761D02*
X97214285Y-68772142D01*
X97214285Y-68772142D02*
X97261904Y-68676904D01*
X97261904Y-68676904D02*
X97261904Y-68581666D01*
X97261904Y-68581666D02*
X97214285Y-68486428D01*
X97214285Y-68486428D02*
X97166666Y-68438809D01*
X97166666Y-68438809D02*
X97071428Y-68391190D01*
X97071428Y-68391190D02*
X96880952Y-68343571D01*
X96880952Y-68343571D02*
X96785714Y-68295952D01*
X96785714Y-68295952D02*
X96738095Y-68248333D01*
X96738095Y-68248333D02*
X96690476Y-68153095D01*
X96690476Y-68153095D02*
X96690476Y-68057857D01*
X96690476Y-68057857D02*
X96738095Y-67962619D01*
X96738095Y-67962619D02*
X96785714Y-67915000D01*
X96785714Y-67915000D02*
X96880952Y-67867380D01*
X96880952Y-67867380D02*
X97119047Y-67867380D01*
X97119047Y-67867380D02*
X97261904Y-67915000D01*
X97595238Y-67867380D02*
X97833333Y-68867380D01*
X97833333Y-68867380D02*
X98023809Y-68153095D01*
X98023809Y-68153095D02*
X98214285Y-68867380D01*
X98214285Y-68867380D02*
X98452381Y-67867380D01*
X98785714Y-67962619D02*
X98833333Y-67915000D01*
X98833333Y-67915000D02*
X98928571Y-67867380D01*
X98928571Y-67867380D02*
X99166666Y-67867380D01*
X99166666Y-67867380D02*
X99261904Y-67915000D01*
X99261904Y-67915000D02*
X99309523Y-67962619D01*
X99309523Y-67962619D02*
X99357142Y-68057857D01*
X99357142Y-68057857D02*
X99357142Y-68153095D01*
X99357142Y-68153095D02*
X99309523Y-68295952D01*
X99309523Y-68295952D02*
X98738095Y-68867380D01*
X98738095Y-68867380D02*
X99357142Y-68867380D01*
X100309523Y-68867380D02*
X99738095Y-68867380D01*
X100023809Y-68867380D02*
X100023809Y-67867380D01*
X100023809Y-67867380D02*
X99928571Y-68010238D01*
X99928571Y-68010238D02*
X99833333Y-68105476D01*
X99833333Y-68105476D02*
X99738095Y-68153095D01*
%TO.C,SW22*%
X96690476Y-78819761D02*
X96833333Y-78867380D01*
X96833333Y-78867380D02*
X97071428Y-78867380D01*
X97071428Y-78867380D02*
X97166666Y-78819761D01*
X97166666Y-78819761D02*
X97214285Y-78772142D01*
X97214285Y-78772142D02*
X97261904Y-78676904D01*
X97261904Y-78676904D02*
X97261904Y-78581666D01*
X97261904Y-78581666D02*
X97214285Y-78486428D01*
X97214285Y-78486428D02*
X97166666Y-78438809D01*
X97166666Y-78438809D02*
X97071428Y-78391190D01*
X97071428Y-78391190D02*
X96880952Y-78343571D01*
X96880952Y-78343571D02*
X96785714Y-78295952D01*
X96785714Y-78295952D02*
X96738095Y-78248333D01*
X96738095Y-78248333D02*
X96690476Y-78153095D01*
X96690476Y-78153095D02*
X96690476Y-78057857D01*
X96690476Y-78057857D02*
X96738095Y-77962619D01*
X96738095Y-77962619D02*
X96785714Y-77915000D01*
X96785714Y-77915000D02*
X96880952Y-77867380D01*
X96880952Y-77867380D02*
X97119047Y-77867380D01*
X97119047Y-77867380D02*
X97261904Y-77915000D01*
X97595238Y-77867380D02*
X97833333Y-78867380D01*
X97833333Y-78867380D02*
X98023809Y-78153095D01*
X98023809Y-78153095D02*
X98214285Y-78867380D01*
X98214285Y-78867380D02*
X98452381Y-77867380D01*
X98785714Y-77962619D02*
X98833333Y-77915000D01*
X98833333Y-77915000D02*
X98928571Y-77867380D01*
X98928571Y-77867380D02*
X99166666Y-77867380D01*
X99166666Y-77867380D02*
X99261904Y-77915000D01*
X99261904Y-77915000D02*
X99309523Y-77962619D01*
X99309523Y-77962619D02*
X99357142Y-78057857D01*
X99357142Y-78057857D02*
X99357142Y-78153095D01*
X99357142Y-78153095D02*
X99309523Y-78295952D01*
X99309523Y-78295952D02*
X98738095Y-78867380D01*
X98738095Y-78867380D02*
X99357142Y-78867380D01*
X99738095Y-77962619D02*
X99785714Y-77915000D01*
X99785714Y-77915000D02*
X99880952Y-77867380D01*
X99880952Y-77867380D02*
X100119047Y-77867380D01*
X100119047Y-77867380D02*
X100214285Y-77915000D01*
X100214285Y-77915000D02*
X100261904Y-77962619D01*
X100261904Y-77962619D02*
X100309523Y-78057857D01*
X100309523Y-78057857D02*
X100309523Y-78153095D01*
X100309523Y-78153095D02*
X100261904Y-78295952D01*
X100261904Y-78295952D02*
X99690476Y-78867380D01*
X99690476Y-78867380D02*
X100309523Y-78867380D01*
%TO.C,SW24*%
X96690476Y-98819761D02*
X96833333Y-98867380D01*
X96833333Y-98867380D02*
X97071428Y-98867380D01*
X97071428Y-98867380D02*
X97166666Y-98819761D01*
X97166666Y-98819761D02*
X97214285Y-98772142D01*
X97214285Y-98772142D02*
X97261904Y-98676904D01*
X97261904Y-98676904D02*
X97261904Y-98581666D01*
X97261904Y-98581666D02*
X97214285Y-98486428D01*
X97214285Y-98486428D02*
X97166666Y-98438809D01*
X97166666Y-98438809D02*
X97071428Y-98391190D01*
X97071428Y-98391190D02*
X96880952Y-98343571D01*
X96880952Y-98343571D02*
X96785714Y-98295952D01*
X96785714Y-98295952D02*
X96738095Y-98248333D01*
X96738095Y-98248333D02*
X96690476Y-98153095D01*
X96690476Y-98153095D02*
X96690476Y-98057857D01*
X96690476Y-98057857D02*
X96738095Y-97962619D01*
X96738095Y-97962619D02*
X96785714Y-97915000D01*
X96785714Y-97915000D02*
X96880952Y-97867380D01*
X96880952Y-97867380D02*
X97119047Y-97867380D01*
X97119047Y-97867380D02*
X97261904Y-97915000D01*
X97595238Y-97867380D02*
X97833333Y-98867380D01*
X97833333Y-98867380D02*
X98023809Y-98153095D01*
X98023809Y-98153095D02*
X98214285Y-98867380D01*
X98214285Y-98867380D02*
X98452381Y-97867380D01*
X98785714Y-97962619D02*
X98833333Y-97915000D01*
X98833333Y-97915000D02*
X98928571Y-97867380D01*
X98928571Y-97867380D02*
X99166666Y-97867380D01*
X99166666Y-97867380D02*
X99261904Y-97915000D01*
X99261904Y-97915000D02*
X99309523Y-97962619D01*
X99309523Y-97962619D02*
X99357142Y-98057857D01*
X99357142Y-98057857D02*
X99357142Y-98153095D01*
X99357142Y-98153095D02*
X99309523Y-98295952D01*
X99309523Y-98295952D02*
X98738095Y-98867380D01*
X98738095Y-98867380D02*
X99357142Y-98867380D01*
X100214285Y-98200714D02*
X100214285Y-98867380D01*
X99976190Y-97819761D02*
X99738095Y-98534047D01*
X99738095Y-98534047D02*
X100357142Y-98534047D01*
%TO.C,SW25*%
X96690476Y-108819761D02*
X96833333Y-108867380D01*
X96833333Y-108867380D02*
X97071428Y-108867380D01*
X97071428Y-108867380D02*
X97166666Y-108819761D01*
X97166666Y-108819761D02*
X97214285Y-108772142D01*
X97214285Y-108772142D02*
X97261904Y-108676904D01*
X97261904Y-108676904D02*
X97261904Y-108581666D01*
X97261904Y-108581666D02*
X97214285Y-108486428D01*
X97214285Y-108486428D02*
X97166666Y-108438809D01*
X97166666Y-108438809D02*
X97071428Y-108391190D01*
X97071428Y-108391190D02*
X96880952Y-108343571D01*
X96880952Y-108343571D02*
X96785714Y-108295952D01*
X96785714Y-108295952D02*
X96738095Y-108248333D01*
X96738095Y-108248333D02*
X96690476Y-108153095D01*
X96690476Y-108153095D02*
X96690476Y-108057857D01*
X96690476Y-108057857D02*
X96738095Y-107962619D01*
X96738095Y-107962619D02*
X96785714Y-107915000D01*
X96785714Y-107915000D02*
X96880952Y-107867380D01*
X96880952Y-107867380D02*
X97119047Y-107867380D01*
X97119047Y-107867380D02*
X97261904Y-107915000D01*
X97595238Y-107867380D02*
X97833333Y-108867380D01*
X97833333Y-108867380D02*
X98023809Y-108153095D01*
X98023809Y-108153095D02*
X98214285Y-108867380D01*
X98214285Y-108867380D02*
X98452381Y-107867380D01*
X98785714Y-107962619D02*
X98833333Y-107915000D01*
X98833333Y-107915000D02*
X98928571Y-107867380D01*
X98928571Y-107867380D02*
X99166666Y-107867380D01*
X99166666Y-107867380D02*
X99261904Y-107915000D01*
X99261904Y-107915000D02*
X99309523Y-107962619D01*
X99309523Y-107962619D02*
X99357142Y-108057857D01*
X99357142Y-108057857D02*
X99357142Y-108153095D01*
X99357142Y-108153095D02*
X99309523Y-108295952D01*
X99309523Y-108295952D02*
X98738095Y-108867380D01*
X98738095Y-108867380D02*
X99357142Y-108867380D01*
X100261904Y-107867380D02*
X99785714Y-107867380D01*
X99785714Y-107867380D02*
X99738095Y-108343571D01*
X99738095Y-108343571D02*
X99785714Y-108295952D01*
X99785714Y-108295952D02*
X99880952Y-108248333D01*
X99880952Y-108248333D02*
X100119047Y-108248333D01*
X100119047Y-108248333D02*
X100214285Y-108295952D01*
X100214285Y-108295952D02*
X100261904Y-108343571D01*
X100261904Y-108343571D02*
X100309523Y-108438809D01*
X100309523Y-108438809D02*
X100309523Y-108676904D01*
X100309523Y-108676904D02*
X100261904Y-108772142D01*
X100261904Y-108772142D02*
X100214285Y-108819761D01*
X100214285Y-108819761D02*
X100119047Y-108867380D01*
X100119047Y-108867380D02*
X99880952Y-108867380D01*
X99880952Y-108867380D02*
X99785714Y-108819761D01*
X99785714Y-108819761D02*
X99738095Y-108772142D01*
%TO.C,SW26*%
X106690476Y-58819761D02*
X106833333Y-58867380D01*
X106833333Y-58867380D02*
X107071428Y-58867380D01*
X107071428Y-58867380D02*
X107166666Y-58819761D01*
X107166666Y-58819761D02*
X107214285Y-58772142D01*
X107214285Y-58772142D02*
X107261904Y-58676904D01*
X107261904Y-58676904D02*
X107261904Y-58581666D01*
X107261904Y-58581666D02*
X107214285Y-58486428D01*
X107214285Y-58486428D02*
X107166666Y-58438809D01*
X107166666Y-58438809D02*
X107071428Y-58391190D01*
X107071428Y-58391190D02*
X106880952Y-58343571D01*
X106880952Y-58343571D02*
X106785714Y-58295952D01*
X106785714Y-58295952D02*
X106738095Y-58248333D01*
X106738095Y-58248333D02*
X106690476Y-58153095D01*
X106690476Y-58153095D02*
X106690476Y-58057857D01*
X106690476Y-58057857D02*
X106738095Y-57962619D01*
X106738095Y-57962619D02*
X106785714Y-57915000D01*
X106785714Y-57915000D02*
X106880952Y-57867380D01*
X106880952Y-57867380D02*
X107119047Y-57867380D01*
X107119047Y-57867380D02*
X107261904Y-57915000D01*
X107595238Y-57867380D02*
X107833333Y-58867380D01*
X107833333Y-58867380D02*
X108023809Y-58153095D01*
X108023809Y-58153095D02*
X108214285Y-58867380D01*
X108214285Y-58867380D02*
X108452381Y-57867380D01*
X108785714Y-57962619D02*
X108833333Y-57915000D01*
X108833333Y-57915000D02*
X108928571Y-57867380D01*
X108928571Y-57867380D02*
X109166666Y-57867380D01*
X109166666Y-57867380D02*
X109261904Y-57915000D01*
X109261904Y-57915000D02*
X109309523Y-57962619D01*
X109309523Y-57962619D02*
X109357142Y-58057857D01*
X109357142Y-58057857D02*
X109357142Y-58153095D01*
X109357142Y-58153095D02*
X109309523Y-58295952D01*
X109309523Y-58295952D02*
X108738095Y-58867380D01*
X108738095Y-58867380D02*
X109357142Y-58867380D01*
X110214285Y-57867380D02*
X110023809Y-57867380D01*
X110023809Y-57867380D02*
X109928571Y-57915000D01*
X109928571Y-57915000D02*
X109880952Y-57962619D01*
X109880952Y-57962619D02*
X109785714Y-58105476D01*
X109785714Y-58105476D02*
X109738095Y-58295952D01*
X109738095Y-58295952D02*
X109738095Y-58676904D01*
X109738095Y-58676904D02*
X109785714Y-58772142D01*
X109785714Y-58772142D02*
X109833333Y-58819761D01*
X109833333Y-58819761D02*
X109928571Y-58867380D01*
X109928571Y-58867380D02*
X110119047Y-58867380D01*
X110119047Y-58867380D02*
X110214285Y-58819761D01*
X110214285Y-58819761D02*
X110261904Y-58772142D01*
X110261904Y-58772142D02*
X110309523Y-58676904D01*
X110309523Y-58676904D02*
X110309523Y-58438809D01*
X110309523Y-58438809D02*
X110261904Y-58343571D01*
X110261904Y-58343571D02*
X110214285Y-58295952D01*
X110214285Y-58295952D02*
X110119047Y-58248333D01*
X110119047Y-58248333D02*
X109928571Y-58248333D01*
X109928571Y-58248333D02*
X109833333Y-58295952D01*
X109833333Y-58295952D02*
X109785714Y-58343571D01*
X109785714Y-58343571D02*
X109738095Y-58438809D01*
%TO.C,SW27*%
X106690476Y-68819761D02*
X106833333Y-68867380D01*
X106833333Y-68867380D02*
X107071428Y-68867380D01*
X107071428Y-68867380D02*
X107166666Y-68819761D01*
X107166666Y-68819761D02*
X107214285Y-68772142D01*
X107214285Y-68772142D02*
X107261904Y-68676904D01*
X107261904Y-68676904D02*
X107261904Y-68581666D01*
X107261904Y-68581666D02*
X107214285Y-68486428D01*
X107214285Y-68486428D02*
X107166666Y-68438809D01*
X107166666Y-68438809D02*
X107071428Y-68391190D01*
X107071428Y-68391190D02*
X106880952Y-68343571D01*
X106880952Y-68343571D02*
X106785714Y-68295952D01*
X106785714Y-68295952D02*
X106738095Y-68248333D01*
X106738095Y-68248333D02*
X106690476Y-68153095D01*
X106690476Y-68153095D02*
X106690476Y-68057857D01*
X106690476Y-68057857D02*
X106738095Y-67962619D01*
X106738095Y-67962619D02*
X106785714Y-67915000D01*
X106785714Y-67915000D02*
X106880952Y-67867380D01*
X106880952Y-67867380D02*
X107119047Y-67867380D01*
X107119047Y-67867380D02*
X107261904Y-67915000D01*
X107595238Y-67867380D02*
X107833333Y-68867380D01*
X107833333Y-68867380D02*
X108023809Y-68153095D01*
X108023809Y-68153095D02*
X108214285Y-68867380D01*
X108214285Y-68867380D02*
X108452381Y-67867380D01*
X108785714Y-67962619D02*
X108833333Y-67915000D01*
X108833333Y-67915000D02*
X108928571Y-67867380D01*
X108928571Y-67867380D02*
X109166666Y-67867380D01*
X109166666Y-67867380D02*
X109261904Y-67915000D01*
X109261904Y-67915000D02*
X109309523Y-67962619D01*
X109309523Y-67962619D02*
X109357142Y-68057857D01*
X109357142Y-68057857D02*
X109357142Y-68153095D01*
X109357142Y-68153095D02*
X109309523Y-68295952D01*
X109309523Y-68295952D02*
X108738095Y-68867380D01*
X108738095Y-68867380D02*
X109357142Y-68867380D01*
X109690476Y-67867380D02*
X110357142Y-67867380D01*
X110357142Y-67867380D02*
X109928571Y-68867380D01*
%TO.C,SW28*%
X106690476Y-78819761D02*
X106833333Y-78867380D01*
X106833333Y-78867380D02*
X107071428Y-78867380D01*
X107071428Y-78867380D02*
X107166666Y-78819761D01*
X107166666Y-78819761D02*
X107214285Y-78772142D01*
X107214285Y-78772142D02*
X107261904Y-78676904D01*
X107261904Y-78676904D02*
X107261904Y-78581666D01*
X107261904Y-78581666D02*
X107214285Y-78486428D01*
X107214285Y-78486428D02*
X107166666Y-78438809D01*
X107166666Y-78438809D02*
X107071428Y-78391190D01*
X107071428Y-78391190D02*
X106880952Y-78343571D01*
X106880952Y-78343571D02*
X106785714Y-78295952D01*
X106785714Y-78295952D02*
X106738095Y-78248333D01*
X106738095Y-78248333D02*
X106690476Y-78153095D01*
X106690476Y-78153095D02*
X106690476Y-78057857D01*
X106690476Y-78057857D02*
X106738095Y-77962619D01*
X106738095Y-77962619D02*
X106785714Y-77915000D01*
X106785714Y-77915000D02*
X106880952Y-77867380D01*
X106880952Y-77867380D02*
X107119047Y-77867380D01*
X107119047Y-77867380D02*
X107261904Y-77915000D01*
X107595238Y-77867380D02*
X107833333Y-78867380D01*
X107833333Y-78867380D02*
X108023809Y-78153095D01*
X108023809Y-78153095D02*
X108214285Y-78867380D01*
X108214285Y-78867380D02*
X108452381Y-77867380D01*
X108785714Y-77962619D02*
X108833333Y-77915000D01*
X108833333Y-77915000D02*
X108928571Y-77867380D01*
X108928571Y-77867380D02*
X109166666Y-77867380D01*
X109166666Y-77867380D02*
X109261904Y-77915000D01*
X109261904Y-77915000D02*
X109309523Y-77962619D01*
X109309523Y-77962619D02*
X109357142Y-78057857D01*
X109357142Y-78057857D02*
X109357142Y-78153095D01*
X109357142Y-78153095D02*
X109309523Y-78295952D01*
X109309523Y-78295952D02*
X108738095Y-78867380D01*
X108738095Y-78867380D02*
X109357142Y-78867380D01*
X109928571Y-78295952D02*
X109833333Y-78248333D01*
X109833333Y-78248333D02*
X109785714Y-78200714D01*
X109785714Y-78200714D02*
X109738095Y-78105476D01*
X109738095Y-78105476D02*
X109738095Y-78057857D01*
X109738095Y-78057857D02*
X109785714Y-77962619D01*
X109785714Y-77962619D02*
X109833333Y-77915000D01*
X109833333Y-77915000D02*
X109928571Y-77867380D01*
X109928571Y-77867380D02*
X110119047Y-77867380D01*
X110119047Y-77867380D02*
X110214285Y-77915000D01*
X110214285Y-77915000D02*
X110261904Y-77962619D01*
X110261904Y-77962619D02*
X110309523Y-78057857D01*
X110309523Y-78057857D02*
X110309523Y-78105476D01*
X110309523Y-78105476D02*
X110261904Y-78200714D01*
X110261904Y-78200714D02*
X110214285Y-78248333D01*
X110214285Y-78248333D02*
X110119047Y-78295952D01*
X110119047Y-78295952D02*
X109928571Y-78295952D01*
X109928571Y-78295952D02*
X109833333Y-78343571D01*
X109833333Y-78343571D02*
X109785714Y-78391190D01*
X109785714Y-78391190D02*
X109738095Y-78486428D01*
X109738095Y-78486428D02*
X109738095Y-78676904D01*
X109738095Y-78676904D02*
X109785714Y-78772142D01*
X109785714Y-78772142D02*
X109833333Y-78819761D01*
X109833333Y-78819761D02*
X109928571Y-78867380D01*
X109928571Y-78867380D02*
X110119047Y-78867380D01*
X110119047Y-78867380D02*
X110214285Y-78819761D01*
X110214285Y-78819761D02*
X110261904Y-78772142D01*
X110261904Y-78772142D02*
X110309523Y-78676904D01*
X110309523Y-78676904D02*
X110309523Y-78486428D01*
X110309523Y-78486428D02*
X110261904Y-78391190D01*
X110261904Y-78391190D02*
X110214285Y-78343571D01*
X110214285Y-78343571D02*
X110119047Y-78295952D01*
%TO.C,U6*%
X40738095Y-53647380D02*
X40738095Y-54456904D01*
X40738095Y-54456904D02*
X40785714Y-54552142D01*
X40785714Y-54552142D02*
X40833333Y-54599761D01*
X40833333Y-54599761D02*
X40928571Y-54647380D01*
X40928571Y-54647380D02*
X41119047Y-54647380D01*
X41119047Y-54647380D02*
X41214285Y-54599761D01*
X41214285Y-54599761D02*
X41261904Y-54552142D01*
X41261904Y-54552142D02*
X41309523Y-54456904D01*
X41309523Y-54456904D02*
X41309523Y-53647380D01*
X42214285Y-53647380D02*
X42023809Y-53647380D01*
X42023809Y-53647380D02*
X41928571Y-53695000D01*
X41928571Y-53695000D02*
X41880952Y-53742619D01*
X41880952Y-53742619D02*
X41785714Y-53885476D01*
X41785714Y-53885476D02*
X41738095Y-54075952D01*
X41738095Y-54075952D02*
X41738095Y-54456904D01*
X41738095Y-54456904D02*
X41785714Y-54552142D01*
X41785714Y-54552142D02*
X41833333Y-54599761D01*
X41833333Y-54599761D02*
X41928571Y-54647380D01*
X41928571Y-54647380D02*
X42119047Y-54647380D01*
X42119047Y-54647380D02*
X42214285Y-54599761D01*
X42214285Y-54599761D02*
X42261904Y-54552142D01*
X42261904Y-54552142D02*
X42309523Y-54456904D01*
X42309523Y-54456904D02*
X42309523Y-54218809D01*
X42309523Y-54218809D02*
X42261904Y-54123571D01*
X42261904Y-54123571D02*
X42214285Y-54075952D01*
X42214285Y-54075952D02*
X42119047Y-54028333D01*
X42119047Y-54028333D02*
X41928571Y-54028333D01*
X41928571Y-54028333D02*
X41833333Y-54075952D01*
X41833333Y-54075952D02*
X41785714Y-54123571D01*
X41785714Y-54123571D02*
X41738095Y-54218809D01*
%TO.C,SW29*%
X106690476Y-88819761D02*
X106833333Y-88867380D01*
X106833333Y-88867380D02*
X107071428Y-88867380D01*
X107071428Y-88867380D02*
X107166666Y-88819761D01*
X107166666Y-88819761D02*
X107214285Y-88772142D01*
X107214285Y-88772142D02*
X107261904Y-88676904D01*
X107261904Y-88676904D02*
X107261904Y-88581666D01*
X107261904Y-88581666D02*
X107214285Y-88486428D01*
X107214285Y-88486428D02*
X107166666Y-88438809D01*
X107166666Y-88438809D02*
X107071428Y-88391190D01*
X107071428Y-88391190D02*
X106880952Y-88343571D01*
X106880952Y-88343571D02*
X106785714Y-88295952D01*
X106785714Y-88295952D02*
X106738095Y-88248333D01*
X106738095Y-88248333D02*
X106690476Y-88153095D01*
X106690476Y-88153095D02*
X106690476Y-88057857D01*
X106690476Y-88057857D02*
X106738095Y-87962619D01*
X106738095Y-87962619D02*
X106785714Y-87915000D01*
X106785714Y-87915000D02*
X106880952Y-87867380D01*
X106880952Y-87867380D02*
X107119047Y-87867380D01*
X107119047Y-87867380D02*
X107261904Y-87915000D01*
X107595238Y-87867380D02*
X107833333Y-88867380D01*
X107833333Y-88867380D02*
X108023809Y-88153095D01*
X108023809Y-88153095D02*
X108214285Y-88867380D01*
X108214285Y-88867380D02*
X108452381Y-87867380D01*
X108785714Y-87962619D02*
X108833333Y-87915000D01*
X108833333Y-87915000D02*
X108928571Y-87867380D01*
X108928571Y-87867380D02*
X109166666Y-87867380D01*
X109166666Y-87867380D02*
X109261904Y-87915000D01*
X109261904Y-87915000D02*
X109309523Y-87962619D01*
X109309523Y-87962619D02*
X109357142Y-88057857D01*
X109357142Y-88057857D02*
X109357142Y-88153095D01*
X109357142Y-88153095D02*
X109309523Y-88295952D01*
X109309523Y-88295952D02*
X108738095Y-88867380D01*
X108738095Y-88867380D02*
X109357142Y-88867380D01*
X109833333Y-88867380D02*
X110023809Y-88867380D01*
X110023809Y-88867380D02*
X110119047Y-88819761D01*
X110119047Y-88819761D02*
X110166666Y-88772142D01*
X110166666Y-88772142D02*
X110261904Y-88629285D01*
X110261904Y-88629285D02*
X110309523Y-88438809D01*
X110309523Y-88438809D02*
X110309523Y-88057857D01*
X110309523Y-88057857D02*
X110261904Y-87962619D01*
X110261904Y-87962619D02*
X110214285Y-87915000D01*
X110214285Y-87915000D02*
X110119047Y-87867380D01*
X110119047Y-87867380D02*
X109928571Y-87867380D01*
X109928571Y-87867380D02*
X109833333Y-87915000D01*
X109833333Y-87915000D02*
X109785714Y-87962619D01*
X109785714Y-87962619D02*
X109738095Y-88057857D01*
X109738095Y-88057857D02*
X109738095Y-88295952D01*
X109738095Y-88295952D02*
X109785714Y-88391190D01*
X109785714Y-88391190D02*
X109833333Y-88438809D01*
X109833333Y-88438809D02*
X109928571Y-88486428D01*
X109928571Y-88486428D02*
X110119047Y-88486428D01*
X110119047Y-88486428D02*
X110214285Y-88438809D01*
X110214285Y-88438809D02*
X110261904Y-88391190D01*
X110261904Y-88391190D02*
X110309523Y-88295952D01*
%TO.C,SW31*%
X106690476Y-108819761D02*
X106833333Y-108867380D01*
X106833333Y-108867380D02*
X107071428Y-108867380D01*
X107071428Y-108867380D02*
X107166666Y-108819761D01*
X107166666Y-108819761D02*
X107214285Y-108772142D01*
X107214285Y-108772142D02*
X107261904Y-108676904D01*
X107261904Y-108676904D02*
X107261904Y-108581666D01*
X107261904Y-108581666D02*
X107214285Y-108486428D01*
X107214285Y-108486428D02*
X107166666Y-108438809D01*
X107166666Y-108438809D02*
X107071428Y-108391190D01*
X107071428Y-108391190D02*
X106880952Y-108343571D01*
X106880952Y-108343571D02*
X106785714Y-108295952D01*
X106785714Y-108295952D02*
X106738095Y-108248333D01*
X106738095Y-108248333D02*
X106690476Y-108153095D01*
X106690476Y-108153095D02*
X106690476Y-108057857D01*
X106690476Y-108057857D02*
X106738095Y-107962619D01*
X106738095Y-107962619D02*
X106785714Y-107915000D01*
X106785714Y-107915000D02*
X106880952Y-107867380D01*
X106880952Y-107867380D02*
X107119047Y-107867380D01*
X107119047Y-107867380D02*
X107261904Y-107915000D01*
X107595238Y-107867380D02*
X107833333Y-108867380D01*
X107833333Y-108867380D02*
X108023809Y-108153095D01*
X108023809Y-108153095D02*
X108214285Y-108867380D01*
X108214285Y-108867380D02*
X108452381Y-107867380D01*
X108738095Y-107867380D02*
X109357142Y-107867380D01*
X109357142Y-107867380D02*
X109023809Y-108248333D01*
X109023809Y-108248333D02*
X109166666Y-108248333D01*
X109166666Y-108248333D02*
X109261904Y-108295952D01*
X109261904Y-108295952D02*
X109309523Y-108343571D01*
X109309523Y-108343571D02*
X109357142Y-108438809D01*
X109357142Y-108438809D02*
X109357142Y-108676904D01*
X109357142Y-108676904D02*
X109309523Y-108772142D01*
X109309523Y-108772142D02*
X109261904Y-108819761D01*
X109261904Y-108819761D02*
X109166666Y-108867380D01*
X109166666Y-108867380D02*
X108880952Y-108867380D01*
X108880952Y-108867380D02*
X108785714Y-108819761D01*
X108785714Y-108819761D02*
X108738095Y-108772142D01*
X110309523Y-108867380D02*
X109738095Y-108867380D01*
X110023809Y-108867380D02*
X110023809Y-107867380D01*
X110023809Y-107867380D02*
X109928571Y-108010238D01*
X109928571Y-108010238D02*
X109833333Y-108105476D01*
X109833333Y-108105476D02*
X109738095Y-108153095D01*
%TO.C,U8*%
X72977380Y-42141904D02*
X73786904Y-42141904D01*
X73786904Y-42141904D02*
X73882142Y-42094285D01*
X73882142Y-42094285D02*
X73929761Y-42046666D01*
X73929761Y-42046666D02*
X73977380Y-41951428D01*
X73977380Y-41951428D02*
X73977380Y-41760952D01*
X73977380Y-41760952D02*
X73929761Y-41665714D01*
X73929761Y-41665714D02*
X73882142Y-41618095D01*
X73882142Y-41618095D02*
X73786904Y-41570476D01*
X73786904Y-41570476D02*
X72977380Y-41570476D01*
X73405952Y-40951428D02*
X73358333Y-41046666D01*
X73358333Y-41046666D02*
X73310714Y-41094285D01*
X73310714Y-41094285D02*
X73215476Y-41141904D01*
X73215476Y-41141904D02*
X73167857Y-41141904D01*
X73167857Y-41141904D02*
X73072619Y-41094285D01*
X73072619Y-41094285D02*
X73025000Y-41046666D01*
X73025000Y-41046666D02*
X72977380Y-40951428D01*
X72977380Y-40951428D02*
X72977380Y-40760952D01*
X72977380Y-40760952D02*
X73025000Y-40665714D01*
X73025000Y-40665714D02*
X73072619Y-40618095D01*
X73072619Y-40618095D02*
X73167857Y-40570476D01*
X73167857Y-40570476D02*
X73215476Y-40570476D01*
X73215476Y-40570476D02*
X73310714Y-40618095D01*
X73310714Y-40618095D02*
X73358333Y-40665714D01*
X73358333Y-40665714D02*
X73405952Y-40760952D01*
X73405952Y-40760952D02*
X73405952Y-40951428D01*
X73405952Y-40951428D02*
X73453571Y-41046666D01*
X73453571Y-41046666D02*
X73501190Y-41094285D01*
X73501190Y-41094285D02*
X73596428Y-41141904D01*
X73596428Y-41141904D02*
X73786904Y-41141904D01*
X73786904Y-41141904D02*
X73882142Y-41094285D01*
X73882142Y-41094285D02*
X73929761Y-41046666D01*
X73929761Y-41046666D02*
X73977380Y-40951428D01*
X73977380Y-40951428D02*
X73977380Y-40760952D01*
X73977380Y-40760952D02*
X73929761Y-40665714D01*
X73929761Y-40665714D02*
X73882142Y-40618095D01*
X73882142Y-40618095D02*
X73786904Y-40570476D01*
X73786904Y-40570476D02*
X73596428Y-40570476D01*
X73596428Y-40570476D02*
X73501190Y-40618095D01*
X73501190Y-40618095D02*
X73453571Y-40665714D01*
X73453571Y-40665714D02*
X73405952Y-40760952D01*
X72300476Y-35667380D02*
X72871904Y-35667380D01*
X72586190Y-36667380D02*
X72586190Y-35667380D01*
X73395714Y-35667380D02*
X73586190Y-35667380D01*
X73586190Y-35667380D02*
X73681428Y-35715000D01*
X73681428Y-35715000D02*
X73776666Y-35810238D01*
X73776666Y-35810238D02*
X73824285Y-36000714D01*
X73824285Y-36000714D02*
X73824285Y-36334047D01*
X73824285Y-36334047D02*
X73776666Y-36524523D01*
X73776666Y-36524523D02*
X73681428Y-36619761D01*
X73681428Y-36619761D02*
X73586190Y-36667380D01*
X73586190Y-36667380D02*
X73395714Y-36667380D01*
X73395714Y-36667380D02*
X73300476Y-36619761D01*
X73300476Y-36619761D02*
X73205238Y-36524523D01*
X73205238Y-36524523D02*
X73157619Y-36334047D01*
X73157619Y-36334047D02*
X73157619Y-36000714D01*
X73157619Y-36000714D02*
X73205238Y-35810238D01*
X73205238Y-35810238D02*
X73300476Y-35715000D01*
X73300476Y-35715000D02*
X73395714Y-35667380D01*
X74252857Y-36667380D02*
X74252857Y-35667380D01*
X74252857Y-35667380D02*
X74633809Y-35667380D01*
X74633809Y-35667380D02*
X74729047Y-35715000D01*
X74729047Y-35715000D02*
X74776666Y-35762619D01*
X74776666Y-35762619D02*
X74824285Y-35857857D01*
X74824285Y-35857857D02*
X74824285Y-36000714D01*
X74824285Y-36000714D02*
X74776666Y-36095952D01*
X74776666Y-36095952D02*
X74729047Y-36143571D01*
X74729047Y-36143571D02*
X74633809Y-36191190D01*
X74633809Y-36191190D02*
X74252857Y-36191190D01*
%TO.C,U11*%
X36017380Y-90588094D02*
X36826904Y-90588094D01*
X36826904Y-90588094D02*
X36922142Y-90540475D01*
X36922142Y-90540475D02*
X36969761Y-90492856D01*
X36969761Y-90492856D02*
X37017380Y-90397618D01*
X37017380Y-90397618D02*
X37017380Y-90207142D01*
X37017380Y-90207142D02*
X36969761Y-90111904D01*
X36969761Y-90111904D02*
X36922142Y-90064285D01*
X36922142Y-90064285D02*
X36826904Y-90016666D01*
X36826904Y-90016666D02*
X36017380Y-90016666D01*
X37017380Y-89016666D02*
X37017380Y-89588094D01*
X37017380Y-89302380D02*
X36017380Y-89302380D01*
X36017380Y-89302380D02*
X36160238Y-89397618D01*
X36160238Y-89397618D02*
X36255476Y-89492856D01*
X36255476Y-89492856D02*
X36303095Y-89588094D01*
X37017380Y-88064285D02*
X37017380Y-88635713D01*
X37017380Y-88349999D02*
X36017380Y-88349999D01*
X36017380Y-88349999D02*
X36160238Y-88445237D01*
X36160238Y-88445237D02*
X36255476Y-88540475D01*
X36255476Y-88540475D02*
X36303095Y-88635713D01*
%TO.C,SW23*%
X96690476Y-88819761D02*
X96833333Y-88867380D01*
X96833333Y-88867380D02*
X97071428Y-88867380D01*
X97071428Y-88867380D02*
X97166666Y-88819761D01*
X97166666Y-88819761D02*
X97214285Y-88772142D01*
X97214285Y-88772142D02*
X97261904Y-88676904D01*
X97261904Y-88676904D02*
X97261904Y-88581666D01*
X97261904Y-88581666D02*
X97214285Y-88486428D01*
X97214285Y-88486428D02*
X97166666Y-88438809D01*
X97166666Y-88438809D02*
X97071428Y-88391190D01*
X97071428Y-88391190D02*
X96880952Y-88343571D01*
X96880952Y-88343571D02*
X96785714Y-88295952D01*
X96785714Y-88295952D02*
X96738095Y-88248333D01*
X96738095Y-88248333D02*
X96690476Y-88153095D01*
X96690476Y-88153095D02*
X96690476Y-88057857D01*
X96690476Y-88057857D02*
X96738095Y-87962619D01*
X96738095Y-87962619D02*
X96785714Y-87915000D01*
X96785714Y-87915000D02*
X96880952Y-87867380D01*
X96880952Y-87867380D02*
X97119047Y-87867380D01*
X97119047Y-87867380D02*
X97261904Y-87915000D01*
X97595238Y-87867380D02*
X97833333Y-88867380D01*
X97833333Y-88867380D02*
X98023809Y-88153095D01*
X98023809Y-88153095D02*
X98214285Y-88867380D01*
X98214285Y-88867380D02*
X98452381Y-87867380D01*
X98785714Y-87962619D02*
X98833333Y-87915000D01*
X98833333Y-87915000D02*
X98928571Y-87867380D01*
X98928571Y-87867380D02*
X99166666Y-87867380D01*
X99166666Y-87867380D02*
X99261904Y-87915000D01*
X99261904Y-87915000D02*
X99309523Y-87962619D01*
X99309523Y-87962619D02*
X99357142Y-88057857D01*
X99357142Y-88057857D02*
X99357142Y-88153095D01*
X99357142Y-88153095D02*
X99309523Y-88295952D01*
X99309523Y-88295952D02*
X98738095Y-88867380D01*
X98738095Y-88867380D02*
X99357142Y-88867380D01*
X99690476Y-87867380D02*
X100309523Y-87867380D01*
X100309523Y-87867380D02*
X99976190Y-88248333D01*
X99976190Y-88248333D02*
X100119047Y-88248333D01*
X100119047Y-88248333D02*
X100214285Y-88295952D01*
X100214285Y-88295952D02*
X100261904Y-88343571D01*
X100261904Y-88343571D02*
X100309523Y-88438809D01*
X100309523Y-88438809D02*
X100309523Y-88676904D01*
X100309523Y-88676904D02*
X100261904Y-88772142D01*
X100261904Y-88772142D02*
X100214285Y-88819761D01*
X100214285Y-88819761D02*
X100119047Y-88867380D01*
X100119047Y-88867380D02*
X99833333Y-88867380D01*
X99833333Y-88867380D02*
X99738095Y-88819761D01*
X99738095Y-88819761D02*
X99690476Y-88772142D01*
%TO.C,SW1*%
X54666667Y-68819761D02*
X54809524Y-68867380D01*
X54809524Y-68867380D02*
X55047619Y-68867380D01*
X55047619Y-68867380D02*
X55142857Y-68819761D01*
X55142857Y-68819761D02*
X55190476Y-68772142D01*
X55190476Y-68772142D02*
X55238095Y-68676904D01*
X55238095Y-68676904D02*
X55238095Y-68581666D01*
X55238095Y-68581666D02*
X55190476Y-68486428D01*
X55190476Y-68486428D02*
X55142857Y-68438809D01*
X55142857Y-68438809D02*
X55047619Y-68391190D01*
X55047619Y-68391190D02*
X54857143Y-68343571D01*
X54857143Y-68343571D02*
X54761905Y-68295952D01*
X54761905Y-68295952D02*
X54714286Y-68248333D01*
X54714286Y-68248333D02*
X54666667Y-68153095D01*
X54666667Y-68153095D02*
X54666667Y-68057857D01*
X54666667Y-68057857D02*
X54714286Y-67962619D01*
X54714286Y-67962619D02*
X54761905Y-67915000D01*
X54761905Y-67915000D02*
X54857143Y-67867380D01*
X54857143Y-67867380D02*
X55095238Y-67867380D01*
X55095238Y-67867380D02*
X55238095Y-67915000D01*
X55571429Y-67867380D02*
X55809524Y-68867380D01*
X55809524Y-68867380D02*
X56000000Y-68153095D01*
X56000000Y-68153095D02*
X56190476Y-68867380D01*
X56190476Y-68867380D02*
X56428572Y-67867380D01*
X57333333Y-68867380D02*
X56761905Y-68867380D01*
X57047619Y-68867380D02*
X57047619Y-67867380D01*
X57047619Y-67867380D02*
X56952381Y-68010238D01*
X56952381Y-68010238D02*
X56857143Y-68105476D01*
X56857143Y-68105476D02*
X56761905Y-68153095D01*
%TO.C,SW2*%
X64666667Y-58819761D02*
X64809524Y-58867380D01*
X64809524Y-58867380D02*
X65047619Y-58867380D01*
X65047619Y-58867380D02*
X65142857Y-58819761D01*
X65142857Y-58819761D02*
X65190476Y-58772142D01*
X65190476Y-58772142D02*
X65238095Y-58676904D01*
X65238095Y-58676904D02*
X65238095Y-58581666D01*
X65238095Y-58581666D02*
X65190476Y-58486428D01*
X65190476Y-58486428D02*
X65142857Y-58438809D01*
X65142857Y-58438809D02*
X65047619Y-58391190D01*
X65047619Y-58391190D02*
X64857143Y-58343571D01*
X64857143Y-58343571D02*
X64761905Y-58295952D01*
X64761905Y-58295952D02*
X64714286Y-58248333D01*
X64714286Y-58248333D02*
X64666667Y-58153095D01*
X64666667Y-58153095D02*
X64666667Y-58057857D01*
X64666667Y-58057857D02*
X64714286Y-57962619D01*
X64714286Y-57962619D02*
X64761905Y-57915000D01*
X64761905Y-57915000D02*
X64857143Y-57867380D01*
X64857143Y-57867380D02*
X65095238Y-57867380D01*
X65095238Y-57867380D02*
X65238095Y-57915000D01*
X65571429Y-57867380D02*
X65809524Y-58867380D01*
X65809524Y-58867380D02*
X66000000Y-58153095D01*
X66000000Y-58153095D02*
X66190476Y-58867380D01*
X66190476Y-58867380D02*
X66428572Y-57867380D01*
X66761905Y-57962619D02*
X66809524Y-57915000D01*
X66809524Y-57915000D02*
X66904762Y-57867380D01*
X66904762Y-57867380D02*
X67142857Y-57867380D01*
X67142857Y-57867380D02*
X67238095Y-57915000D01*
X67238095Y-57915000D02*
X67285714Y-57962619D01*
X67285714Y-57962619D02*
X67333333Y-58057857D01*
X67333333Y-58057857D02*
X67333333Y-58153095D01*
X67333333Y-58153095D02*
X67285714Y-58295952D01*
X67285714Y-58295952D02*
X66714286Y-58867380D01*
X66714286Y-58867380D02*
X67333333Y-58867380D01*
%TO.C,SW4*%
X77166667Y-58819761D02*
X77309524Y-58867380D01*
X77309524Y-58867380D02*
X77547619Y-58867380D01*
X77547619Y-58867380D02*
X77642857Y-58819761D01*
X77642857Y-58819761D02*
X77690476Y-58772142D01*
X77690476Y-58772142D02*
X77738095Y-58676904D01*
X77738095Y-58676904D02*
X77738095Y-58581666D01*
X77738095Y-58581666D02*
X77690476Y-58486428D01*
X77690476Y-58486428D02*
X77642857Y-58438809D01*
X77642857Y-58438809D02*
X77547619Y-58391190D01*
X77547619Y-58391190D02*
X77357143Y-58343571D01*
X77357143Y-58343571D02*
X77261905Y-58295952D01*
X77261905Y-58295952D02*
X77214286Y-58248333D01*
X77214286Y-58248333D02*
X77166667Y-58153095D01*
X77166667Y-58153095D02*
X77166667Y-58057857D01*
X77166667Y-58057857D02*
X77214286Y-57962619D01*
X77214286Y-57962619D02*
X77261905Y-57915000D01*
X77261905Y-57915000D02*
X77357143Y-57867380D01*
X77357143Y-57867380D02*
X77595238Y-57867380D01*
X77595238Y-57867380D02*
X77738095Y-57915000D01*
X78071429Y-57867380D02*
X78309524Y-58867380D01*
X78309524Y-58867380D02*
X78500000Y-58153095D01*
X78500000Y-58153095D02*
X78690476Y-58867380D01*
X78690476Y-58867380D02*
X78928572Y-57867380D01*
X79738095Y-58200714D02*
X79738095Y-58867380D01*
X79500000Y-57819761D02*
X79261905Y-58534047D01*
X79261905Y-58534047D02*
X79880952Y-58534047D01*
%TO.C,U13*%
X28017380Y-63738094D02*
X28826904Y-63738094D01*
X28826904Y-63738094D02*
X28922142Y-63690475D01*
X28922142Y-63690475D02*
X28969761Y-63642856D01*
X28969761Y-63642856D02*
X29017380Y-63547618D01*
X29017380Y-63547618D02*
X29017380Y-63357142D01*
X29017380Y-63357142D02*
X28969761Y-63261904D01*
X28969761Y-63261904D02*
X28922142Y-63214285D01*
X28922142Y-63214285D02*
X28826904Y-63166666D01*
X28826904Y-63166666D02*
X28017380Y-63166666D01*
X29017380Y-62166666D02*
X29017380Y-62738094D01*
X29017380Y-62452380D02*
X28017380Y-62452380D01*
X28017380Y-62452380D02*
X28160238Y-62547618D01*
X28160238Y-62547618D02*
X28255476Y-62642856D01*
X28255476Y-62642856D02*
X28303095Y-62738094D01*
X28017380Y-61833332D02*
X28017380Y-61214285D01*
X28017380Y-61214285D02*
X28398333Y-61547618D01*
X28398333Y-61547618D02*
X28398333Y-61404761D01*
X28398333Y-61404761D02*
X28445952Y-61309523D01*
X28445952Y-61309523D02*
X28493571Y-61261904D01*
X28493571Y-61261904D02*
X28588809Y-61214285D01*
X28588809Y-61214285D02*
X28826904Y-61214285D01*
X28826904Y-61214285D02*
X28922142Y-61261904D01*
X28922142Y-61261904D02*
X28969761Y-61309523D01*
X28969761Y-61309523D02*
X29017380Y-61404761D01*
X29017380Y-61404761D02*
X29017380Y-61690475D01*
X29017380Y-61690475D02*
X28969761Y-61785713D01*
X28969761Y-61785713D02*
X28922142Y-61833332D01*
%TO.C,U9*%
X55197380Y-42141904D02*
X56006904Y-42141904D01*
X56006904Y-42141904D02*
X56102142Y-42094285D01*
X56102142Y-42094285D02*
X56149761Y-42046666D01*
X56149761Y-42046666D02*
X56197380Y-41951428D01*
X56197380Y-41951428D02*
X56197380Y-41760952D01*
X56197380Y-41760952D02*
X56149761Y-41665714D01*
X56149761Y-41665714D02*
X56102142Y-41618095D01*
X56102142Y-41618095D02*
X56006904Y-41570476D01*
X56006904Y-41570476D02*
X55197380Y-41570476D01*
X56197380Y-41046666D02*
X56197380Y-40856190D01*
X56197380Y-40856190D02*
X56149761Y-40760952D01*
X56149761Y-40760952D02*
X56102142Y-40713333D01*
X56102142Y-40713333D02*
X55959285Y-40618095D01*
X55959285Y-40618095D02*
X55768809Y-40570476D01*
X55768809Y-40570476D02*
X55387857Y-40570476D01*
X55387857Y-40570476D02*
X55292619Y-40618095D01*
X55292619Y-40618095D02*
X55245000Y-40665714D01*
X55245000Y-40665714D02*
X55197380Y-40760952D01*
X55197380Y-40760952D02*
X55197380Y-40951428D01*
X55197380Y-40951428D02*
X55245000Y-41046666D01*
X55245000Y-41046666D02*
X55292619Y-41094285D01*
X55292619Y-41094285D02*
X55387857Y-41141904D01*
X55387857Y-41141904D02*
X55625952Y-41141904D01*
X55625952Y-41141904D02*
X55721190Y-41094285D01*
X55721190Y-41094285D02*
X55768809Y-41046666D01*
X55768809Y-41046666D02*
X55816428Y-40951428D01*
X55816428Y-40951428D02*
X55816428Y-40760952D01*
X55816428Y-40760952D02*
X55768809Y-40665714D01*
X55768809Y-40665714D02*
X55721190Y-40618095D01*
X55721190Y-40618095D02*
X55625952Y-40570476D01*
X54520476Y-35667380D02*
X55091904Y-35667380D01*
X54806190Y-36667380D02*
X54806190Y-35667380D01*
X55615714Y-35667380D02*
X55806190Y-35667380D01*
X55806190Y-35667380D02*
X55901428Y-35715000D01*
X55901428Y-35715000D02*
X55996666Y-35810238D01*
X55996666Y-35810238D02*
X56044285Y-36000714D01*
X56044285Y-36000714D02*
X56044285Y-36334047D01*
X56044285Y-36334047D02*
X55996666Y-36524523D01*
X55996666Y-36524523D02*
X55901428Y-36619761D01*
X55901428Y-36619761D02*
X55806190Y-36667380D01*
X55806190Y-36667380D02*
X55615714Y-36667380D01*
X55615714Y-36667380D02*
X55520476Y-36619761D01*
X55520476Y-36619761D02*
X55425238Y-36524523D01*
X55425238Y-36524523D02*
X55377619Y-36334047D01*
X55377619Y-36334047D02*
X55377619Y-36000714D01*
X55377619Y-36000714D02*
X55425238Y-35810238D01*
X55425238Y-35810238D02*
X55520476Y-35715000D01*
X55520476Y-35715000D02*
X55615714Y-35667380D01*
X56472857Y-36667380D02*
X56472857Y-35667380D01*
X56472857Y-35667380D02*
X56853809Y-35667380D01*
X56853809Y-35667380D02*
X56949047Y-35715000D01*
X56949047Y-35715000D02*
X56996666Y-35762619D01*
X56996666Y-35762619D02*
X57044285Y-35857857D01*
X57044285Y-35857857D02*
X57044285Y-36000714D01*
X57044285Y-36000714D02*
X56996666Y-36095952D01*
X56996666Y-36095952D02*
X56949047Y-36143571D01*
X56949047Y-36143571D02*
X56853809Y-36191190D01*
X56853809Y-36191190D02*
X56472857Y-36191190D01*
%TO.C,U12*%
X36017380Y-103738094D02*
X36826904Y-103738094D01*
X36826904Y-103738094D02*
X36922142Y-103690475D01*
X36922142Y-103690475D02*
X36969761Y-103642856D01*
X36969761Y-103642856D02*
X37017380Y-103547618D01*
X37017380Y-103547618D02*
X37017380Y-103357142D01*
X37017380Y-103357142D02*
X36969761Y-103261904D01*
X36969761Y-103261904D02*
X36922142Y-103214285D01*
X36922142Y-103214285D02*
X36826904Y-103166666D01*
X36826904Y-103166666D02*
X36017380Y-103166666D01*
X37017380Y-102166666D02*
X37017380Y-102738094D01*
X37017380Y-102452380D02*
X36017380Y-102452380D01*
X36017380Y-102452380D02*
X36160238Y-102547618D01*
X36160238Y-102547618D02*
X36255476Y-102642856D01*
X36255476Y-102642856D02*
X36303095Y-102738094D01*
X36112619Y-101785713D02*
X36065000Y-101738094D01*
X36065000Y-101738094D02*
X36017380Y-101642856D01*
X36017380Y-101642856D02*
X36017380Y-101404761D01*
X36017380Y-101404761D02*
X36065000Y-101309523D01*
X36065000Y-101309523D02*
X36112619Y-101261904D01*
X36112619Y-101261904D02*
X36207857Y-101214285D01*
X36207857Y-101214285D02*
X36303095Y-101214285D01*
X36303095Y-101214285D02*
X36445952Y-101261904D01*
X36445952Y-101261904D02*
X37017380Y-101833332D01*
X37017380Y-101833332D02*
X37017380Y-101214285D01*
%TO.C,U10*%
X26547380Y-115713094D02*
X27356904Y-115713094D01*
X27356904Y-115713094D02*
X27452142Y-115665475D01*
X27452142Y-115665475D02*
X27499761Y-115617856D01*
X27499761Y-115617856D02*
X27547380Y-115522618D01*
X27547380Y-115522618D02*
X27547380Y-115332142D01*
X27547380Y-115332142D02*
X27499761Y-115236904D01*
X27499761Y-115236904D02*
X27452142Y-115189285D01*
X27452142Y-115189285D02*
X27356904Y-115141666D01*
X27356904Y-115141666D02*
X26547380Y-115141666D01*
X27547380Y-114141666D02*
X27547380Y-114713094D01*
X27547380Y-114427380D02*
X26547380Y-114427380D01*
X26547380Y-114427380D02*
X26690238Y-114522618D01*
X26690238Y-114522618D02*
X26785476Y-114617856D01*
X26785476Y-114617856D02*
X26833095Y-114713094D01*
X26547380Y-113522618D02*
X26547380Y-113427380D01*
X26547380Y-113427380D02*
X26595000Y-113332142D01*
X26595000Y-113332142D02*
X26642619Y-113284523D01*
X26642619Y-113284523D02*
X26737857Y-113236904D01*
X26737857Y-113236904D02*
X26928333Y-113189285D01*
X26928333Y-113189285D02*
X27166428Y-113189285D01*
X27166428Y-113189285D02*
X27356904Y-113236904D01*
X27356904Y-113236904D02*
X27452142Y-113284523D01*
X27452142Y-113284523D02*
X27499761Y-113332142D01*
X27499761Y-113332142D02*
X27547380Y-113427380D01*
X27547380Y-113427380D02*
X27547380Y-113522618D01*
X27547380Y-113522618D02*
X27499761Y-113617856D01*
X27499761Y-113617856D02*
X27452142Y-113665475D01*
X27452142Y-113665475D02*
X27356904Y-113713094D01*
X27356904Y-113713094D02*
X27166428Y-113760713D01*
X27166428Y-113760713D02*
X26928333Y-113760713D01*
X26928333Y-113760713D02*
X26737857Y-113713094D01*
X26737857Y-113713094D02*
X26642619Y-113665475D01*
X26642619Y-113665475D02*
X26595000Y-113617856D01*
X26595000Y-113617856D02*
X26547380Y-113522618D01*
%TO.C,SW3*%
X54666667Y-58819761D02*
X54809524Y-58867380D01*
X54809524Y-58867380D02*
X55047619Y-58867380D01*
X55047619Y-58867380D02*
X55142857Y-58819761D01*
X55142857Y-58819761D02*
X55190476Y-58772142D01*
X55190476Y-58772142D02*
X55238095Y-58676904D01*
X55238095Y-58676904D02*
X55238095Y-58581666D01*
X55238095Y-58581666D02*
X55190476Y-58486428D01*
X55190476Y-58486428D02*
X55142857Y-58438809D01*
X55142857Y-58438809D02*
X55047619Y-58391190D01*
X55047619Y-58391190D02*
X54857143Y-58343571D01*
X54857143Y-58343571D02*
X54761905Y-58295952D01*
X54761905Y-58295952D02*
X54714286Y-58248333D01*
X54714286Y-58248333D02*
X54666667Y-58153095D01*
X54666667Y-58153095D02*
X54666667Y-58057857D01*
X54666667Y-58057857D02*
X54714286Y-57962619D01*
X54714286Y-57962619D02*
X54761905Y-57915000D01*
X54761905Y-57915000D02*
X54857143Y-57867380D01*
X54857143Y-57867380D02*
X55095238Y-57867380D01*
X55095238Y-57867380D02*
X55238095Y-57915000D01*
X55571429Y-57867380D02*
X55809524Y-58867380D01*
X55809524Y-58867380D02*
X56000000Y-58153095D01*
X56000000Y-58153095D02*
X56190476Y-58867380D01*
X56190476Y-58867380D02*
X56428572Y-57867380D01*
X56714286Y-57867380D02*
X57333333Y-57867380D01*
X57333333Y-57867380D02*
X57000000Y-58248333D01*
X57000000Y-58248333D02*
X57142857Y-58248333D01*
X57142857Y-58248333D02*
X57238095Y-58295952D01*
X57238095Y-58295952D02*
X57285714Y-58343571D01*
X57285714Y-58343571D02*
X57333333Y-58438809D01*
X57333333Y-58438809D02*
X57333333Y-58676904D01*
X57333333Y-58676904D02*
X57285714Y-58772142D01*
X57285714Y-58772142D02*
X57238095Y-58819761D01*
X57238095Y-58819761D02*
X57142857Y-58867380D01*
X57142857Y-58867380D02*
X56857143Y-58867380D01*
X56857143Y-58867380D02*
X56761905Y-58819761D01*
X56761905Y-58819761D02*
X56714286Y-58772142D01*
%TO.C,SW30*%
X106690476Y-98819761D02*
X106833333Y-98867380D01*
X106833333Y-98867380D02*
X107071428Y-98867380D01*
X107071428Y-98867380D02*
X107166666Y-98819761D01*
X107166666Y-98819761D02*
X107214285Y-98772142D01*
X107214285Y-98772142D02*
X107261904Y-98676904D01*
X107261904Y-98676904D02*
X107261904Y-98581666D01*
X107261904Y-98581666D02*
X107214285Y-98486428D01*
X107214285Y-98486428D02*
X107166666Y-98438809D01*
X107166666Y-98438809D02*
X107071428Y-98391190D01*
X107071428Y-98391190D02*
X106880952Y-98343571D01*
X106880952Y-98343571D02*
X106785714Y-98295952D01*
X106785714Y-98295952D02*
X106738095Y-98248333D01*
X106738095Y-98248333D02*
X106690476Y-98153095D01*
X106690476Y-98153095D02*
X106690476Y-98057857D01*
X106690476Y-98057857D02*
X106738095Y-97962619D01*
X106738095Y-97962619D02*
X106785714Y-97915000D01*
X106785714Y-97915000D02*
X106880952Y-97867380D01*
X106880952Y-97867380D02*
X107119047Y-97867380D01*
X107119047Y-97867380D02*
X107261904Y-97915000D01*
X107595238Y-97867380D02*
X107833333Y-98867380D01*
X107833333Y-98867380D02*
X108023809Y-98153095D01*
X108023809Y-98153095D02*
X108214285Y-98867380D01*
X108214285Y-98867380D02*
X108452381Y-97867380D01*
X108738095Y-97867380D02*
X109357142Y-97867380D01*
X109357142Y-97867380D02*
X109023809Y-98248333D01*
X109023809Y-98248333D02*
X109166666Y-98248333D01*
X109166666Y-98248333D02*
X109261904Y-98295952D01*
X109261904Y-98295952D02*
X109309523Y-98343571D01*
X109309523Y-98343571D02*
X109357142Y-98438809D01*
X109357142Y-98438809D02*
X109357142Y-98676904D01*
X109357142Y-98676904D02*
X109309523Y-98772142D01*
X109309523Y-98772142D02*
X109261904Y-98819761D01*
X109261904Y-98819761D02*
X109166666Y-98867380D01*
X109166666Y-98867380D02*
X108880952Y-98867380D01*
X108880952Y-98867380D02*
X108785714Y-98819761D01*
X108785714Y-98819761D02*
X108738095Y-98772142D01*
X109976190Y-97867380D02*
X110071428Y-97867380D01*
X110071428Y-97867380D02*
X110166666Y-97915000D01*
X110166666Y-97915000D02*
X110214285Y-97962619D01*
X110214285Y-97962619D02*
X110261904Y-98057857D01*
X110261904Y-98057857D02*
X110309523Y-98248333D01*
X110309523Y-98248333D02*
X110309523Y-98486428D01*
X110309523Y-98486428D02*
X110261904Y-98676904D01*
X110261904Y-98676904D02*
X110214285Y-98772142D01*
X110214285Y-98772142D02*
X110166666Y-98819761D01*
X110166666Y-98819761D02*
X110071428Y-98867380D01*
X110071428Y-98867380D02*
X109976190Y-98867380D01*
X109976190Y-98867380D02*
X109880952Y-98819761D01*
X109880952Y-98819761D02*
X109833333Y-98772142D01*
X109833333Y-98772142D02*
X109785714Y-98676904D01*
X109785714Y-98676904D02*
X109738095Y-98486428D01*
X109738095Y-98486428D02*
X109738095Y-98248333D01*
X109738095Y-98248333D02*
X109785714Y-98057857D01*
X109785714Y-98057857D02*
X109833333Y-97962619D01*
X109833333Y-97962619D02*
X109880952Y-97915000D01*
X109880952Y-97915000D02*
X109976190Y-97867380D01*
%TO.C,U2*%
X31738095Y-53647380D02*
X31738095Y-54456904D01*
X31738095Y-54456904D02*
X31785714Y-54552142D01*
X31785714Y-54552142D02*
X31833333Y-54599761D01*
X31833333Y-54599761D02*
X31928571Y-54647380D01*
X31928571Y-54647380D02*
X32119047Y-54647380D01*
X32119047Y-54647380D02*
X32214285Y-54599761D01*
X32214285Y-54599761D02*
X32261904Y-54552142D01*
X32261904Y-54552142D02*
X32309523Y-54456904D01*
X32309523Y-54456904D02*
X32309523Y-53647380D01*
X32738095Y-53742619D02*
X32785714Y-53695000D01*
X32785714Y-53695000D02*
X32880952Y-53647380D01*
X32880952Y-53647380D02*
X33119047Y-53647380D01*
X33119047Y-53647380D02*
X33214285Y-53695000D01*
X33214285Y-53695000D02*
X33261904Y-53742619D01*
X33261904Y-53742619D02*
X33309523Y-53837857D01*
X33309523Y-53837857D02*
X33309523Y-53933095D01*
X33309523Y-53933095D02*
X33261904Y-54075952D01*
X33261904Y-54075952D02*
X32690476Y-54647380D01*
X32690476Y-54647380D02*
X33309523Y-54647380D01*
%TO.C,U7*%
X36017380Y-76761904D02*
X36826904Y-76761904D01*
X36826904Y-76761904D02*
X36922142Y-76714285D01*
X36922142Y-76714285D02*
X36969761Y-76666666D01*
X36969761Y-76666666D02*
X37017380Y-76571428D01*
X37017380Y-76571428D02*
X37017380Y-76380952D01*
X37017380Y-76380952D02*
X36969761Y-76285714D01*
X36969761Y-76285714D02*
X36922142Y-76238095D01*
X36922142Y-76238095D02*
X36826904Y-76190476D01*
X36826904Y-76190476D02*
X36017380Y-76190476D01*
X36017380Y-75809523D02*
X36017380Y-75142857D01*
X36017380Y-75142857D02*
X37017380Y-75571428D01*
%TO.C,U14*%
X48236905Y-118687380D02*
X48236905Y-119496904D01*
X48236905Y-119496904D02*
X48284524Y-119592142D01*
X48284524Y-119592142D02*
X48332143Y-119639761D01*
X48332143Y-119639761D02*
X48427381Y-119687380D01*
X48427381Y-119687380D02*
X48617857Y-119687380D01*
X48617857Y-119687380D02*
X48713095Y-119639761D01*
X48713095Y-119639761D02*
X48760714Y-119592142D01*
X48760714Y-119592142D02*
X48808333Y-119496904D01*
X48808333Y-119496904D02*
X48808333Y-118687380D01*
X49808333Y-119687380D02*
X49236905Y-119687380D01*
X49522619Y-119687380D02*
X49522619Y-118687380D01*
X49522619Y-118687380D02*
X49427381Y-118830238D01*
X49427381Y-118830238D02*
X49332143Y-118925476D01*
X49332143Y-118925476D02*
X49236905Y-118973095D01*
X50665476Y-119020714D02*
X50665476Y-119687380D01*
X50427381Y-118639761D02*
X50189286Y-119354047D01*
X50189286Y-119354047D02*
X50808333Y-119354047D01*
%TO.C,D27*%
X59877380Y-99714285D02*
X58877380Y-99714285D01*
X58877380Y-99714285D02*
X58877380Y-99476190D01*
X58877380Y-99476190D02*
X58925000Y-99333333D01*
X58925000Y-99333333D02*
X59020238Y-99238095D01*
X59020238Y-99238095D02*
X59115476Y-99190476D01*
X59115476Y-99190476D02*
X59305952Y-99142857D01*
X59305952Y-99142857D02*
X59448809Y-99142857D01*
X59448809Y-99142857D02*
X59639285Y-99190476D01*
X59639285Y-99190476D02*
X59734523Y-99238095D01*
X59734523Y-99238095D02*
X59829761Y-99333333D01*
X59829761Y-99333333D02*
X59877380Y-99476190D01*
X59877380Y-99476190D02*
X59877380Y-99714285D01*
X58972619Y-98761904D02*
X58925000Y-98714285D01*
X58925000Y-98714285D02*
X58877380Y-98619047D01*
X58877380Y-98619047D02*
X58877380Y-98380952D01*
X58877380Y-98380952D02*
X58925000Y-98285714D01*
X58925000Y-98285714D02*
X58972619Y-98238095D01*
X58972619Y-98238095D02*
X59067857Y-98190476D01*
X59067857Y-98190476D02*
X59163095Y-98190476D01*
X59163095Y-98190476D02*
X59305952Y-98238095D01*
X59305952Y-98238095D02*
X59877380Y-98809523D01*
X59877380Y-98809523D02*
X59877380Y-98190476D01*
X58877380Y-97857142D02*
X58877380Y-97190476D01*
X58877380Y-97190476D02*
X59877380Y-97619047D01*
%TO.C,U15*%
X40286905Y-118687380D02*
X40286905Y-119496904D01*
X40286905Y-119496904D02*
X40334524Y-119592142D01*
X40334524Y-119592142D02*
X40382143Y-119639761D01*
X40382143Y-119639761D02*
X40477381Y-119687380D01*
X40477381Y-119687380D02*
X40667857Y-119687380D01*
X40667857Y-119687380D02*
X40763095Y-119639761D01*
X40763095Y-119639761D02*
X40810714Y-119592142D01*
X40810714Y-119592142D02*
X40858333Y-119496904D01*
X40858333Y-119496904D02*
X40858333Y-118687380D01*
X41858333Y-119687380D02*
X41286905Y-119687380D01*
X41572619Y-119687380D02*
X41572619Y-118687380D01*
X41572619Y-118687380D02*
X41477381Y-118830238D01*
X41477381Y-118830238D02*
X41382143Y-118925476D01*
X41382143Y-118925476D02*
X41286905Y-118973095D01*
X42763095Y-118687380D02*
X42286905Y-118687380D01*
X42286905Y-118687380D02*
X42239286Y-119163571D01*
X42239286Y-119163571D02*
X42286905Y-119115952D01*
X42286905Y-119115952D02*
X42382143Y-119068333D01*
X42382143Y-119068333D02*
X42620238Y-119068333D01*
X42620238Y-119068333D02*
X42715476Y-119115952D01*
X42715476Y-119115952D02*
X42763095Y-119163571D01*
X42763095Y-119163571D02*
X42810714Y-119258809D01*
X42810714Y-119258809D02*
X42810714Y-119496904D01*
X42810714Y-119496904D02*
X42763095Y-119592142D01*
X42763095Y-119592142D02*
X42715476Y-119639761D01*
X42715476Y-119639761D02*
X42620238Y-119687380D01*
X42620238Y-119687380D02*
X42382143Y-119687380D01*
X42382143Y-119687380D02*
X42286905Y-119639761D01*
X42286905Y-119639761D02*
X42239286Y-119592142D01*
%TO.C,SW32*%
X64190476Y-68819761D02*
X64333333Y-68867380D01*
X64333333Y-68867380D02*
X64571428Y-68867380D01*
X64571428Y-68867380D02*
X64666666Y-68819761D01*
X64666666Y-68819761D02*
X64714285Y-68772142D01*
X64714285Y-68772142D02*
X64761904Y-68676904D01*
X64761904Y-68676904D02*
X64761904Y-68581666D01*
X64761904Y-68581666D02*
X64714285Y-68486428D01*
X64714285Y-68486428D02*
X64666666Y-68438809D01*
X64666666Y-68438809D02*
X64571428Y-68391190D01*
X64571428Y-68391190D02*
X64380952Y-68343571D01*
X64380952Y-68343571D02*
X64285714Y-68295952D01*
X64285714Y-68295952D02*
X64238095Y-68248333D01*
X64238095Y-68248333D02*
X64190476Y-68153095D01*
X64190476Y-68153095D02*
X64190476Y-68057857D01*
X64190476Y-68057857D02*
X64238095Y-67962619D01*
X64238095Y-67962619D02*
X64285714Y-67915000D01*
X64285714Y-67915000D02*
X64380952Y-67867380D01*
X64380952Y-67867380D02*
X64619047Y-67867380D01*
X64619047Y-67867380D02*
X64761904Y-67915000D01*
X65095238Y-67867380D02*
X65333333Y-68867380D01*
X65333333Y-68867380D02*
X65523809Y-68153095D01*
X65523809Y-68153095D02*
X65714285Y-68867380D01*
X65714285Y-68867380D02*
X65952381Y-67867380D01*
X66238095Y-67867380D02*
X66857142Y-67867380D01*
X66857142Y-67867380D02*
X66523809Y-68248333D01*
X66523809Y-68248333D02*
X66666666Y-68248333D01*
X66666666Y-68248333D02*
X66761904Y-68295952D01*
X66761904Y-68295952D02*
X66809523Y-68343571D01*
X66809523Y-68343571D02*
X66857142Y-68438809D01*
X66857142Y-68438809D02*
X66857142Y-68676904D01*
X66857142Y-68676904D02*
X66809523Y-68772142D01*
X66809523Y-68772142D02*
X66761904Y-68819761D01*
X66761904Y-68819761D02*
X66666666Y-68867380D01*
X66666666Y-68867380D02*
X66380952Y-68867380D01*
X66380952Y-68867380D02*
X66285714Y-68819761D01*
X66285714Y-68819761D02*
X66238095Y-68772142D01*
X67238095Y-67962619D02*
X67285714Y-67915000D01*
X67285714Y-67915000D02*
X67380952Y-67867380D01*
X67380952Y-67867380D02*
X67619047Y-67867380D01*
X67619047Y-67867380D02*
X67714285Y-67915000D01*
X67714285Y-67915000D02*
X67761904Y-67962619D01*
X67761904Y-67962619D02*
X67809523Y-68057857D01*
X67809523Y-68057857D02*
X67809523Y-68153095D01*
X67809523Y-68153095D02*
X67761904Y-68295952D01*
X67761904Y-68295952D02*
X67190476Y-68867380D01*
X67190476Y-68867380D02*
X67809523Y-68867380D01*
%TO.C,D26*%
X59877380Y-89714285D02*
X58877380Y-89714285D01*
X58877380Y-89714285D02*
X58877380Y-89476190D01*
X58877380Y-89476190D02*
X58925000Y-89333333D01*
X58925000Y-89333333D02*
X59020238Y-89238095D01*
X59020238Y-89238095D02*
X59115476Y-89190476D01*
X59115476Y-89190476D02*
X59305952Y-89142857D01*
X59305952Y-89142857D02*
X59448809Y-89142857D01*
X59448809Y-89142857D02*
X59639285Y-89190476D01*
X59639285Y-89190476D02*
X59734523Y-89238095D01*
X59734523Y-89238095D02*
X59829761Y-89333333D01*
X59829761Y-89333333D02*
X59877380Y-89476190D01*
X59877380Y-89476190D02*
X59877380Y-89714285D01*
X58972619Y-88761904D02*
X58925000Y-88714285D01*
X58925000Y-88714285D02*
X58877380Y-88619047D01*
X58877380Y-88619047D02*
X58877380Y-88380952D01*
X58877380Y-88380952D02*
X58925000Y-88285714D01*
X58925000Y-88285714D02*
X58972619Y-88238095D01*
X58972619Y-88238095D02*
X59067857Y-88190476D01*
X59067857Y-88190476D02*
X59163095Y-88190476D01*
X59163095Y-88190476D02*
X59305952Y-88238095D01*
X59305952Y-88238095D02*
X59877380Y-88809523D01*
X59877380Y-88809523D02*
X59877380Y-88190476D01*
X58877380Y-87333333D02*
X58877380Y-87523809D01*
X58877380Y-87523809D02*
X58925000Y-87619047D01*
X58925000Y-87619047D02*
X58972619Y-87666666D01*
X58972619Y-87666666D02*
X59115476Y-87761904D01*
X59115476Y-87761904D02*
X59305952Y-87809523D01*
X59305952Y-87809523D02*
X59686904Y-87809523D01*
X59686904Y-87809523D02*
X59782142Y-87761904D01*
X59782142Y-87761904D02*
X59829761Y-87714285D01*
X59829761Y-87714285D02*
X59877380Y-87619047D01*
X59877380Y-87619047D02*
X59877380Y-87428571D01*
X59877380Y-87428571D02*
X59829761Y-87333333D01*
X59829761Y-87333333D02*
X59782142Y-87285714D01*
X59782142Y-87285714D02*
X59686904Y-87238095D01*
X59686904Y-87238095D02*
X59448809Y-87238095D01*
X59448809Y-87238095D02*
X59353571Y-87285714D01*
X59353571Y-87285714D02*
X59305952Y-87333333D01*
X59305952Y-87333333D02*
X59258333Y-87428571D01*
X59258333Y-87428571D02*
X59258333Y-87619047D01*
X59258333Y-87619047D02*
X59305952Y-87714285D01*
X59305952Y-87714285D02*
X59353571Y-87761904D01*
X59353571Y-87761904D02*
X59448809Y-87809523D01*
%TO.C,J2*%
X111097380Y-24143333D02*
X111811666Y-24143333D01*
X111811666Y-24143333D02*
X111954523Y-24190952D01*
X111954523Y-24190952D02*
X112049761Y-24286190D01*
X112049761Y-24286190D02*
X112097380Y-24429047D01*
X112097380Y-24429047D02*
X112097380Y-24524285D01*
X111192619Y-23714761D02*
X111145000Y-23667142D01*
X111145000Y-23667142D02*
X111097380Y-23571904D01*
X111097380Y-23571904D02*
X111097380Y-23333809D01*
X111097380Y-23333809D02*
X111145000Y-23238571D01*
X111145000Y-23238571D02*
X111192619Y-23190952D01*
X111192619Y-23190952D02*
X111287857Y-23143333D01*
X111287857Y-23143333D02*
X111383095Y-23143333D01*
X111383095Y-23143333D02*
X111525952Y-23190952D01*
X111525952Y-23190952D02*
X112097380Y-23762380D01*
X112097380Y-23762380D02*
X112097380Y-23143333D01*
%TO.C,D28*%
X59877380Y-109714285D02*
X58877380Y-109714285D01*
X58877380Y-109714285D02*
X58877380Y-109476190D01*
X58877380Y-109476190D02*
X58925000Y-109333333D01*
X58925000Y-109333333D02*
X59020238Y-109238095D01*
X59020238Y-109238095D02*
X59115476Y-109190476D01*
X59115476Y-109190476D02*
X59305952Y-109142857D01*
X59305952Y-109142857D02*
X59448809Y-109142857D01*
X59448809Y-109142857D02*
X59639285Y-109190476D01*
X59639285Y-109190476D02*
X59734523Y-109238095D01*
X59734523Y-109238095D02*
X59829761Y-109333333D01*
X59829761Y-109333333D02*
X59877380Y-109476190D01*
X59877380Y-109476190D02*
X59877380Y-109714285D01*
X58972619Y-108761904D02*
X58925000Y-108714285D01*
X58925000Y-108714285D02*
X58877380Y-108619047D01*
X58877380Y-108619047D02*
X58877380Y-108380952D01*
X58877380Y-108380952D02*
X58925000Y-108285714D01*
X58925000Y-108285714D02*
X58972619Y-108238095D01*
X58972619Y-108238095D02*
X59067857Y-108190476D01*
X59067857Y-108190476D02*
X59163095Y-108190476D01*
X59163095Y-108190476D02*
X59305952Y-108238095D01*
X59305952Y-108238095D02*
X59877380Y-108809523D01*
X59877380Y-108809523D02*
X59877380Y-108190476D01*
X59305952Y-107619047D02*
X59258333Y-107714285D01*
X59258333Y-107714285D02*
X59210714Y-107761904D01*
X59210714Y-107761904D02*
X59115476Y-107809523D01*
X59115476Y-107809523D02*
X59067857Y-107809523D01*
X59067857Y-107809523D02*
X58972619Y-107761904D01*
X58972619Y-107761904D02*
X58925000Y-107714285D01*
X58925000Y-107714285D02*
X58877380Y-107619047D01*
X58877380Y-107619047D02*
X58877380Y-107428571D01*
X58877380Y-107428571D02*
X58925000Y-107333333D01*
X58925000Y-107333333D02*
X58972619Y-107285714D01*
X58972619Y-107285714D02*
X59067857Y-107238095D01*
X59067857Y-107238095D02*
X59115476Y-107238095D01*
X59115476Y-107238095D02*
X59210714Y-107285714D01*
X59210714Y-107285714D02*
X59258333Y-107333333D01*
X59258333Y-107333333D02*
X59305952Y-107428571D01*
X59305952Y-107428571D02*
X59305952Y-107619047D01*
X59305952Y-107619047D02*
X59353571Y-107714285D01*
X59353571Y-107714285D02*
X59401190Y-107761904D01*
X59401190Y-107761904D02*
X59496428Y-107809523D01*
X59496428Y-107809523D02*
X59686904Y-107809523D01*
X59686904Y-107809523D02*
X59782142Y-107761904D01*
X59782142Y-107761904D02*
X59829761Y-107714285D01*
X59829761Y-107714285D02*
X59877380Y-107619047D01*
X59877380Y-107619047D02*
X59877380Y-107428571D01*
X59877380Y-107428571D02*
X59829761Y-107333333D01*
X59829761Y-107333333D02*
X59782142Y-107285714D01*
X59782142Y-107285714D02*
X59686904Y-107238095D01*
X59686904Y-107238095D02*
X59496428Y-107238095D01*
X59496428Y-107238095D02*
X59401190Y-107285714D01*
X59401190Y-107285714D02*
X59353571Y-107333333D01*
X59353571Y-107333333D02*
X59305952Y-107428571D01*
%TO.C,D25*%
X59877380Y-79714285D02*
X58877380Y-79714285D01*
X58877380Y-79714285D02*
X58877380Y-79476190D01*
X58877380Y-79476190D02*
X58925000Y-79333333D01*
X58925000Y-79333333D02*
X59020238Y-79238095D01*
X59020238Y-79238095D02*
X59115476Y-79190476D01*
X59115476Y-79190476D02*
X59305952Y-79142857D01*
X59305952Y-79142857D02*
X59448809Y-79142857D01*
X59448809Y-79142857D02*
X59639285Y-79190476D01*
X59639285Y-79190476D02*
X59734523Y-79238095D01*
X59734523Y-79238095D02*
X59829761Y-79333333D01*
X59829761Y-79333333D02*
X59877380Y-79476190D01*
X59877380Y-79476190D02*
X59877380Y-79714285D01*
X58972619Y-78761904D02*
X58925000Y-78714285D01*
X58925000Y-78714285D02*
X58877380Y-78619047D01*
X58877380Y-78619047D02*
X58877380Y-78380952D01*
X58877380Y-78380952D02*
X58925000Y-78285714D01*
X58925000Y-78285714D02*
X58972619Y-78238095D01*
X58972619Y-78238095D02*
X59067857Y-78190476D01*
X59067857Y-78190476D02*
X59163095Y-78190476D01*
X59163095Y-78190476D02*
X59305952Y-78238095D01*
X59305952Y-78238095D02*
X59877380Y-78809523D01*
X59877380Y-78809523D02*
X59877380Y-78190476D01*
X58877380Y-77285714D02*
X58877380Y-77761904D01*
X58877380Y-77761904D02*
X59353571Y-77809523D01*
X59353571Y-77809523D02*
X59305952Y-77761904D01*
X59305952Y-77761904D02*
X59258333Y-77666666D01*
X59258333Y-77666666D02*
X59258333Y-77428571D01*
X59258333Y-77428571D02*
X59305952Y-77333333D01*
X59305952Y-77333333D02*
X59353571Y-77285714D01*
X59353571Y-77285714D02*
X59448809Y-77238095D01*
X59448809Y-77238095D02*
X59686904Y-77238095D01*
X59686904Y-77238095D02*
X59782142Y-77285714D01*
X59782142Y-77285714D02*
X59829761Y-77333333D01*
X59829761Y-77333333D02*
X59877380Y-77428571D01*
X59877380Y-77428571D02*
X59877380Y-77666666D01*
X59877380Y-77666666D02*
X59829761Y-77761904D01*
X59829761Y-77761904D02*
X59782142Y-77809523D01*
D12*
%TO.C,J3*%
X95460000Y-21210000D02*
X95460000Y-22540000D01*
X94130000Y-21210000D02*
X95460000Y-21210000D01*
X92860000Y-21210000D02*
X44540000Y-21210000D01*
X92860000Y-21210000D02*
X92860000Y-23810000D01*
X44540000Y-21210000D02*
X44540000Y-26410000D01*
X95460000Y-23810000D02*
X95460000Y-26410000D01*
X92860000Y-23810000D02*
X95460000Y-23810000D01*
X95460000Y-26410000D02*
X44540000Y-26410000D01*
%TO.C,J1*%
X39550000Y-21210000D02*
X39550000Y-22540000D01*
X38220000Y-21210000D02*
X39550000Y-21210000D01*
X36950000Y-21210000D02*
X29270000Y-21210000D01*
X36950000Y-21210000D02*
X36950000Y-23810000D01*
X29270000Y-21210000D02*
X29270000Y-26410000D01*
X39550000Y-23810000D02*
X39550000Y-26410000D01*
X36950000Y-23810000D02*
X39550000Y-23810000D01*
X39550000Y-26410000D02*
X29270000Y-26410000D01*
%TO.C,D1*%
X31210000Y-107264000D02*
X31210000Y-107420000D01*
X31210000Y-109580000D02*
X31210000Y-109736000D01*
X34442334Y-107421392D02*
G75*
G03*
X31210001Y-107264485I-1672334J-1078608D01*
G01*
X33811129Y-107420164D02*
G75*
G03*
X31729040Y-107420001I-1041129J-1079836D01*
G01*
X31729040Y-109579999D02*
G75*
G03*
X33811129Y-109579836I1040960J1079999D01*
G01*
X31210001Y-109735515D02*
G75*
G03*
X34442334Y-109578608I1559999J1235515D01*
G01*
%TO.C,U4*%
X82640000Y-51430000D02*
X82640000Y-31330000D01*
X100140000Y-51430000D02*
X82640000Y-51430000D01*
X100140000Y-51430000D02*
X100140000Y-31330000D01*
X85040000Y-42650000D02*
X83770000Y-41380000D01*
X83770000Y-41380000D02*
X85040000Y-40110000D01*
X85040000Y-40110000D02*
X85040000Y-42650000D01*
X82640000Y-31330000D02*
X100140000Y-31330000D01*
%TO.C,U5*%
X41500000Y-41560000D02*
X44950000Y-41560000D01*
X41500000Y-41560000D02*
X39550000Y-41560000D01*
X41500000Y-31440000D02*
X43450000Y-31440000D01*
X41500000Y-31440000D02*
X39550000Y-31440000D01*
%TO.C,D2*%
X31210000Y-87264000D02*
X31210000Y-87420000D01*
X31210000Y-89580000D02*
X31210000Y-89736000D01*
X34442334Y-87421392D02*
G75*
G03*
X31210001Y-87264485I-1672334J-1078608D01*
G01*
X33811129Y-87420164D02*
G75*
G03*
X31729040Y-87420001I-1041129J-1079836D01*
G01*
X31729040Y-89579999D02*
G75*
G03*
X33811129Y-89579836I1040960J1079999D01*
G01*
X31210001Y-89735515D02*
G75*
G03*
X34442334Y-89578608I1559999J1235515D01*
G01*
%TO.C,D3*%
X31210000Y-72264000D02*
X31210000Y-72420000D01*
X31210000Y-74580000D02*
X31210000Y-74736000D01*
X34442334Y-72421392D02*
G75*
G03*
X31210001Y-72264485I-1672334J-1078608D01*
G01*
X33811129Y-72420164D02*
G75*
G03*
X31729040Y-72420001I-1041129J-1079836D01*
G01*
X31729040Y-74579999D02*
G75*
G03*
X33811129Y-74579836I1040960J1079999D01*
G01*
X31210001Y-74735515D02*
G75*
G03*
X34442334Y-74578608I1559999J1235515D01*
G01*
%TO.C,D4*%
X31210000Y-92264000D02*
X31210000Y-92420000D01*
X31210000Y-94580000D02*
X31210000Y-94736000D01*
X34442334Y-92421392D02*
G75*
G03*
X31210001Y-92264485I-1672334J-1078608D01*
G01*
X33811129Y-92420164D02*
G75*
G03*
X31729040Y-92420001I-1041129J-1079836D01*
G01*
X31729040Y-94579999D02*
G75*
G03*
X33811129Y-94579836I1040960J1079999D01*
G01*
X31210001Y-94735515D02*
G75*
G03*
X34442334Y-94578608I1559999J1235515D01*
G01*
%TO.C,D5*%
X23710000Y-107264000D02*
X23710000Y-107420000D01*
X23710000Y-109580000D02*
X23710000Y-109736000D01*
X26942334Y-107421392D02*
G75*
G03*
X23710001Y-107264485I-1672334J-1078608D01*
G01*
X26311129Y-107420164D02*
G75*
G03*
X24229040Y-107420001I-1041129J-1079836D01*
G01*
X24229040Y-109579999D02*
G75*
G03*
X26311129Y-109579836I1040960J1079999D01*
G01*
X23710001Y-109735515D02*
G75*
G03*
X26942334Y-109578608I1559999J1235515D01*
G01*
%TO.C,D6*%
X23710000Y-87264000D02*
X23710000Y-87420000D01*
X23710000Y-89580000D02*
X23710000Y-89736000D01*
X26942334Y-87421392D02*
G75*
G03*
X23710001Y-87264485I-1672334J-1078608D01*
G01*
X26311129Y-87420164D02*
G75*
G03*
X24229040Y-87420001I-1041129J-1079836D01*
G01*
X24229040Y-89579999D02*
G75*
G03*
X26311129Y-89579836I1040960J1079999D01*
G01*
X23710001Y-89735515D02*
G75*
G03*
X26942334Y-89578608I1559999J1235515D01*
G01*
%TO.C,D7*%
X23710000Y-72264000D02*
X23710000Y-72420000D01*
X23710000Y-74580000D02*
X23710000Y-74736000D01*
X26942334Y-72421392D02*
G75*
G03*
X23710001Y-72264485I-1672334J-1078608D01*
G01*
X26311129Y-72420164D02*
G75*
G03*
X24229040Y-72420001I-1041129J-1079836D01*
G01*
X24229040Y-74579999D02*
G75*
G03*
X26311129Y-74579836I1040960J1079999D01*
G01*
X23710001Y-74735515D02*
G75*
G03*
X26942334Y-74578608I1559999J1235515D01*
G01*
%TO.C,D8*%
X23710000Y-92264000D02*
X23710000Y-92420000D01*
X23710000Y-94580000D02*
X23710000Y-94736000D01*
X26942334Y-92421392D02*
G75*
G03*
X23710001Y-92264485I-1672334J-1078608D01*
G01*
X26311129Y-92420164D02*
G75*
G03*
X24229040Y-92420001I-1041129J-1079836D01*
G01*
X24229040Y-94579999D02*
G75*
G03*
X26311129Y-94579836I1040960J1079999D01*
G01*
X23710001Y-94735515D02*
G75*
G03*
X26942334Y-94578608I1559999J1235515D01*
G01*
%TO.C,U3*%
X100420000Y-51430000D02*
X100420000Y-31330000D01*
X117920000Y-51430000D02*
X100420000Y-51430000D01*
X117920000Y-51430000D02*
X117920000Y-31330000D01*
X102820000Y-42650000D02*
X101550000Y-41380000D01*
X101550000Y-41380000D02*
X102820000Y-40110000D01*
X102820000Y-40110000D02*
X102820000Y-42650000D01*
X100420000Y-31330000D02*
X117920000Y-31330000D01*
%TO.C,D9*%
X23710000Y-67264000D02*
X23710000Y-67420000D01*
X23710000Y-69580000D02*
X23710000Y-69736000D01*
X26942334Y-67421392D02*
G75*
G03*
X23710001Y-67264485I-1672334J-1078608D01*
G01*
X26311129Y-67420164D02*
G75*
G03*
X24229040Y-67420001I-1041129J-1079836D01*
G01*
X24229040Y-69579999D02*
G75*
G03*
X26311129Y-69579836I1040960J1079999D01*
G01*
X23710001Y-69735515D02*
G75*
G03*
X26942334Y-69578608I1559999J1235515D01*
G01*
%TO.C,D10*%
X23710000Y-47264000D02*
X23710000Y-47420000D01*
X23710000Y-49580000D02*
X23710000Y-49736000D01*
X26942334Y-47421392D02*
G75*
G03*
X23710001Y-47264485I-1672334J-1078608D01*
G01*
X26311129Y-47420164D02*
G75*
G03*
X24229040Y-47420001I-1041129J-1079836D01*
G01*
X24229040Y-49579999D02*
G75*
G03*
X26311129Y-49579836I1040960J1079999D01*
G01*
X23710001Y-49735515D02*
G75*
G03*
X26942334Y-49578608I1559999J1235515D01*
G01*
%TO.C,D11*%
X23710000Y-32264000D02*
X23710000Y-32420000D01*
X23710000Y-34580000D02*
X23710000Y-34736000D01*
X26942334Y-32421392D02*
G75*
G03*
X23710001Y-32264485I-1672334J-1078608D01*
G01*
X26311129Y-32420164D02*
G75*
G03*
X24229040Y-32420001I-1041129J-1079836D01*
G01*
X24229040Y-34579999D02*
G75*
G03*
X26311129Y-34579836I1040960J1079999D01*
G01*
X23710001Y-34735515D02*
G75*
G03*
X26942334Y-34578608I1559999J1235515D01*
G01*
%TO.C,D12*%
X23710000Y-52264000D02*
X23710000Y-52420000D01*
X23710000Y-54580000D02*
X23710000Y-54736000D01*
X26942334Y-52421392D02*
G75*
G03*
X23710001Y-52264485I-1672334J-1078608D01*
G01*
X26311129Y-52420164D02*
G75*
G03*
X24229040Y-52420001I-1041129J-1079836D01*
G01*
X24229040Y-54579999D02*
G75*
G03*
X26311129Y-54579836I1040960J1079999D01*
G01*
X23710001Y-54735515D02*
G75*
G03*
X26942334Y-54578608I1559999J1235515D01*
G01*
%TO.C,D13*%
X23710000Y-97264000D02*
X23710000Y-97420000D01*
X23710000Y-99580000D02*
X23710000Y-99736000D01*
X26942334Y-97421392D02*
G75*
G03*
X23710001Y-97264485I-1672334J-1078608D01*
G01*
X26311129Y-97420164D02*
G75*
G03*
X24229040Y-97420001I-1041129J-1079836D01*
G01*
X24229040Y-99579999D02*
G75*
G03*
X26311129Y-99579836I1040960J1079999D01*
G01*
X23710001Y-99735515D02*
G75*
G03*
X26942334Y-99578608I1559999J1235515D01*
G01*
%TO.C,D14*%
X23710000Y-77264000D02*
X23710000Y-77420000D01*
X23710000Y-79580000D02*
X23710000Y-79736000D01*
X26942334Y-77421392D02*
G75*
G03*
X23710001Y-77264485I-1672334J-1078608D01*
G01*
X26311129Y-77420164D02*
G75*
G03*
X24229040Y-77420001I-1041129J-1079836D01*
G01*
X24229040Y-79579999D02*
G75*
G03*
X26311129Y-79579836I1040960J1079999D01*
G01*
X23710001Y-79735515D02*
G75*
G03*
X26942334Y-79578608I1559999J1235515D01*
G01*
%TO.C,D15*%
X23710000Y-82264000D02*
X23710000Y-82420000D01*
X23710000Y-84580000D02*
X23710000Y-84736000D01*
X26942334Y-82421392D02*
G75*
G03*
X23710001Y-82264485I-1672334J-1078608D01*
G01*
X26311129Y-82420164D02*
G75*
G03*
X24229040Y-82420001I-1041129J-1079836D01*
G01*
X24229040Y-84579999D02*
G75*
G03*
X26311129Y-84579836I1040960J1079999D01*
G01*
X23710001Y-84735515D02*
G75*
G03*
X26942334Y-84578608I1559999J1235515D01*
G01*
%TO.C,D16*%
X23710000Y-102264000D02*
X23710000Y-102420000D01*
X23710000Y-104580000D02*
X23710000Y-104736000D01*
X26942334Y-102421392D02*
G75*
G03*
X23710001Y-102264485I-1672334J-1078608D01*
G01*
X26311129Y-102420164D02*
G75*
G03*
X24229040Y-102420001I-1041129J-1079836D01*
G01*
X24229040Y-104579999D02*
G75*
G03*
X26311129Y-104579836I1040960J1079999D01*
G01*
X23710001Y-104735515D02*
G75*
G03*
X26942334Y-104578608I1559999J1235515D01*
G01*
%TO.C,D17*%
X31210000Y-97264000D02*
X31210000Y-97420000D01*
X31210000Y-99580000D02*
X31210000Y-99736000D01*
X34442334Y-97421392D02*
G75*
G03*
X31210001Y-97264485I-1672334J-1078608D01*
G01*
X33811129Y-97420164D02*
G75*
G03*
X31729040Y-97420001I-1041129J-1079836D01*
G01*
X31729040Y-99579999D02*
G75*
G03*
X33811129Y-99579836I1040960J1079999D01*
G01*
X31210001Y-99735515D02*
G75*
G03*
X34442334Y-99578608I1559999J1235515D01*
G01*
%TO.C,D18*%
X31210000Y-77264000D02*
X31210000Y-77420000D01*
X31210000Y-79580000D02*
X31210000Y-79736000D01*
X34442334Y-77421392D02*
G75*
G03*
X31210001Y-77264485I-1672334J-1078608D01*
G01*
X33811129Y-77420164D02*
G75*
G03*
X31729040Y-77420001I-1041129J-1079836D01*
G01*
X31729040Y-79579999D02*
G75*
G03*
X33811129Y-79579836I1040960J1079999D01*
G01*
X31210001Y-79735515D02*
G75*
G03*
X34442334Y-79578608I1559999J1235515D01*
G01*
%TO.C,D19*%
X31210000Y-82264000D02*
X31210000Y-82420000D01*
X31210000Y-84580000D02*
X31210000Y-84736000D01*
X34442334Y-82421392D02*
G75*
G03*
X31210001Y-82264485I-1672334J-1078608D01*
G01*
X33811129Y-82420164D02*
G75*
G03*
X31729040Y-82420001I-1041129J-1079836D01*
G01*
X31729040Y-84579999D02*
G75*
G03*
X33811129Y-84579836I1040960J1079999D01*
G01*
X31210001Y-84735515D02*
G75*
G03*
X34442334Y-84578608I1559999J1235515D01*
G01*
%TO.C,D20*%
X31210000Y-102264000D02*
X31210000Y-102420000D01*
X31210000Y-104580000D02*
X31210000Y-104736000D01*
X34442334Y-102421392D02*
G75*
G03*
X31210001Y-102264485I-1672334J-1078608D01*
G01*
X33811129Y-102420164D02*
G75*
G03*
X31729040Y-102420001I-1041129J-1079836D01*
G01*
X31729040Y-104579999D02*
G75*
G03*
X33811129Y-104579836I1040960J1079999D01*
G01*
X31210001Y-104735515D02*
G75*
G03*
X34442334Y-104578608I1559999J1235515D01*
G01*
%TO.C,D21*%
X23710000Y-57264000D02*
X23710000Y-57420000D01*
X23710000Y-59580000D02*
X23710000Y-59736000D01*
X26942334Y-57421392D02*
G75*
G03*
X23710001Y-57264485I-1672334J-1078608D01*
G01*
X26311129Y-57420164D02*
G75*
G03*
X24229040Y-57420001I-1041129J-1079836D01*
G01*
X24229040Y-59579999D02*
G75*
G03*
X26311129Y-59579836I1040960J1079999D01*
G01*
X23710001Y-59735515D02*
G75*
G03*
X26942334Y-59578608I1559999J1235515D01*
G01*
%TO.C,D22*%
X23710000Y-37264000D02*
X23710000Y-37420000D01*
X23710000Y-39580000D02*
X23710000Y-39736000D01*
X26942334Y-37421392D02*
G75*
G03*
X23710001Y-37264485I-1672334J-1078608D01*
G01*
X26311129Y-37420164D02*
G75*
G03*
X24229040Y-37420001I-1041129J-1079836D01*
G01*
X24229040Y-39579999D02*
G75*
G03*
X26311129Y-39579836I1040960J1079999D01*
G01*
X23710001Y-39735515D02*
G75*
G03*
X26942334Y-39578608I1559999J1235515D01*
G01*
%TO.C,D23*%
X23710000Y-42264000D02*
X23710000Y-42420000D01*
X23710000Y-44580000D02*
X23710000Y-44736000D01*
X26942334Y-42421392D02*
G75*
G03*
X23710001Y-42264485I-1672334J-1078608D01*
G01*
X26311129Y-42420164D02*
G75*
G03*
X24229040Y-42420001I-1041129J-1079836D01*
G01*
X24229040Y-44579999D02*
G75*
G03*
X26311129Y-44579836I1040960J1079999D01*
G01*
X23710001Y-44735515D02*
G75*
G03*
X26942334Y-44578608I1559999J1235515D01*
G01*
%TO.C,D24*%
X23710000Y-62264000D02*
X23710000Y-62420000D01*
X23710000Y-64580000D02*
X23710000Y-64736000D01*
X26942334Y-62421392D02*
G75*
G03*
X23710001Y-62264485I-1672334J-1078608D01*
G01*
X26311129Y-62420164D02*
G75*
G03*
X24229040Y-62420001I-1041129J-1079836D01*
G01*
X24229040Y-64579999D02*
G75*
G03*
X26311129Y-64579836I1040960J1079999D01*
G01*
X23710001Y-64735515D02*
G75*
G03*
X26942334Y-64578608I1559999J1235515D01*
G01*
%TO.C,U1*%
X32500000Y-40935000D02*
X35950000Y-40935000D01*
X32500000Y-40935000D02*
X30550000Y-40935000D01*
X32500000Y-32065000D02*
X34450000Y-32065000D01*
X32500000Y-32065000D02*
X30550000Y-32065000D01*
%TO.C,U6*%
X41500000Y-53435000D02*
X44950000Y-53435000D01*
X41500000Y-53435000D02*
X39550000Y-53435000D01*
X41500000Y-44565000D02*
X43450000Y-44565000D01*
X41500000Y-44565000D02*
X39550000Y-44565000D01*
%TO.C,U8*%
X64860000Y-51430000D02*
X64860000Y-31330000D01*
X82360000Y-51430000D02*
X64860000Y-51430000D01*
X82360000Y-51430000D02*
X82360000Y-31330000D01*
X67260000Y-42650000D02*
X65990000Y-41380000D01*
X65990000Y-41380000D02*
X67260000Y-40110000D01*
X67260000Y-40110000D02*
X67260000Y-42650000D01*
X64860000Y-31330000D02*
X82360000Y-31330000D01*
%TO.C,U11*%
X37490000Y-93210000D02*
X37725000Y-93210000D01*
X37725000Y-93210000D02*
X37725000Y-95025000D01*
X50510000Y-93210000D02*
X50275000Y-93210000D01*
X37490000Y-89350000D02*
X37490000Y-93210000D01*
X37490000Y-89350000D02*
X37490000Y-85490000D01*
X50510000Y-89350000D02*
X50510000Y-93210000D01*
X50510000Y-89350000D02*
X50510000Y-85490000D01*
X37490000Y-85490000D02*
X37725000Y-85490000D01*
X50510000Y-85490000D02*
X50275000Y-85490000D01*
%TO.C,U13*%
X29490000Y-66360000D02*
X29725000Y-66360000D01*
X29725000Y-66360000D02*
X29725000Y-68175000D01*
X42510000Y-66360000D02*
X42275000Y-66360000D01*
X29490000Y-62500000D02*
X29490000Y-66360000D01*
X29490000Y-62500000D02*
X29490000Y-58640000D01*
X42510000Y-62500000D02*
X42510000Y-66360000D01*
X42510000Y-62500000D02*
X42510000Y-58640000D01*
X29490000Y-58640000D02*
X29725000Y-58640000D01*
X42510000Y-58640000D02*
X42275000Y-58640000D01*
%TO.C,U9*%
X47080000Y-51430000D02*
X47080000Y-31330000D01*
X64580000Y-51430000D02*
X47080000Y-51430000D01*
X64580000Y-51430000D02*
X64580000Y-31330000D01*
X49480000Y-42650000D02*
X48210000Y-41380000D01*
X48210000Y-41380000D02*
X49480000Y-40110000D01*
X49480000Y-40110000D02*
X49480000Y-42650000D01*
X47080000Y-31330000D02*
X64580000Y-31330000D01*
%TO.C,U12*%
X37490000Y-106360000D02*
X37725000Y-106360000D01*
X37725000Y-106360000D02*
X37725000Y-108175000D01*
X50510000Y-106360000D02*
X50275000Y-106360000D01*
X37490000Y-102500000D02*
X37490000Y-106360000D01*
X37490000Y-102500000D02*
X37490000Y-98640000D01*
X50510000Y-102500000D02*
X50510000Y-106360000D01*
X50510000Y-102500000D02*
X50510000Y-98640000D01*
X37490000Y-98640000D02*
X37725000Y-98640000D01*
X50510000Y-98640000D02*
X50275000Y-98640000D01*
%TO.C,U10*%
X28025000Y-114475000D02*
X28025000Y-117925000D01*
X28025000Y-114475000D02*
X28025000Y-112525000D01*
X36895000Y-114475000D02*
X36895000Y-116425000D01*
X36895000Y-114475000D02*
X36895000Y-112525000D01*
%TO.C,U2*%
X32500000Y-53435000D02*
X35950000Y-53435000D01*
X32500000Y-53435000D02*
X30550000Y-53435000D01*
X32500000Y-44565000D02*
X34450000Y-44565000D01*
X32500000Y-44565000D02*
X30550000Y-44565000D01*
%TO.C,U7*%
X37490000Y-79860000D02*
X37725000Y-79860000D01*
X37725000Y-79860000D02*
X37725000Y-81675000D01*
X50510000Y-79860000D02*
X50275000Y-79860000D01*
X37490000Y-76000000D02*
X37490000Y-79860000D01*
X37490000Y-76000000D02*
X37490000Y-72140000D01*
X50510000Y-76000000D02*
X50510000Y-79860000D01*
X50510000Y-76000000D02*
X50510000Y-72140000D01*
X37490000Y-72140000D02*
X37725000Y-72140000D01*
X50510000Y-72140000D02*
X50275000Y-72140000D01*
%TO.C,U14*%
X49475000Y-118475000D02*
X52925000Y-118475000D01*
X49475000Y-118475000D02*
X47525000Y-118475000D01*
X49475000Y-109605000D02*
X51425000Y-109605000D01*
X49475000Y-109605000D02*
X47525000Y-109605000D01*
%TO.C,D27*%
X54445000Y-97264000D02*
X54445000Y-97420000D01*
X54445000Y-99580000D02*
X54445000Y-99736000D01*
X57677334Y-97421392D02*
G75*
G03*
X54445001Y-97264485I-1672334J-1078608D01*
G01*
X57046129Y-97420164D02*
G75*
G03*
X54964040Y-97420001I-1041129J-1079836D01*
G01*
X54964040Y-99579999D02*
G75*
G03*
X57046129Y-99579836I1040960J1079999D01*
G01*
X54445001Y-99735515D02*
G75*
G03*
X57677334Y-99578608I1559999J1235515D01*
G01*
%TO.C,U15*%
X41525000Y-118475000D02*
X44975000Y-118475000D01*
X41525000Y-118475000D02*
X39575000Y-118475000D01*
X41525000Y-109605000D02*
X43475000Y-109605000D01*
X41525000Y-109605000D02*
X39575000Y-109605000D01*
%TO.C,D26*%
X54445000Y-87264000D02*
X54445000Y-87420000D01*
X54445000Y-89580000D02*
X54445000Y-89736000D01*
X57677334Y-87421392D02*
G75*
G03*
X54445001Y-87264485I-1672334J-1078608D01*
G01*
X57046129Y-87420164D02*
G75*
G03*
X54964040Y-87420001I-1041129J-1079836D01*
G01*
X54964040Y-89579999D02*
G75*
G03*
X57046129Y-89579836I1040960J1079999D01*
G01*
X54445001Y-89735515D02*
G75*
G03*
X57677334Y-89578608I1559999J1235515D01*
G01*
%TO.C,J2*%
X110730000Y-21210000D02*
X110730000Y-22540000D01*
X109400000Y-21210000D02*
X110730000Y-21210000D01*
X108130000Y-21210000D02*
X100450000Y-21210000D01*
X108130000Y-21210000D02*
X108130000Y-23810000D01*
X100450000Y-21210000D02*
X100450000Y-26410000D01*
X110730000Y-23810000D02*
X110730000Y-26410000D01*
X108130000Y-23810000D02*
X110730000Y-23810000D01*
X110730000Y-26410000D02*
X100450000Y-26410000D01*
%TO.C,D28*%
X54445000Y-107264000D02*
X54445000Y-107420000D01*
X54445000Y-109580000D02*
X54445000Y-109736000D01*
X57677334Y-107421392D02*
G75*
G03*
X54445001Y-107264485I-1672334J-1078608D01*
G01*
X57046129Y-107420164D02*
G75*
G03*
X54964040Y-107420001I-1041129J-1079836D01*
G01*
X54964040Y-109579999D02*
G75*
G03*
X57046129Y-109579836I1040960J1079999D01*
G01*
X54445001Y-109735515D02*
G75*
G03*
X57677334Y-109578608I1559999J1235515D01*
G01*
%TO.C,D25*%
X54445000Y-77264000D02*
X54445000Y-77420000D01*
X54445000Y-79580000D02*
X54445000Y-79736000D01*
X57677334Y-77421392D02*
G75*
G03*
X54445001Y-77264485I-1672334J-1078608D01*
G01*
X57046129Y-77420164D02*
G75*
G03*
X54964040Y-77420001I-1041129J-1079836D01*
G01*
X54964040Y-79579999D02*
G75*
G03*
X57046129Y-79579836I1040960J1079999D01*
G01*
X54445001Y-79735515D02*
G75*
G03*
X57677334Y-79578608I1559999J1235515D01*
G01*
%TD*%
M02*
