%TF.GenerationSoftware,KiCad,Pcbnew,(5.1.9)-1*%
%TF.CreationDate,2021-11-22T21:10:40-05:00*%
%TF.ProjectId,main,6d61696e-2e6b-4696-9361-645f70636258,rev?*%
%TF.SameCoordinates,Original*%
%TF.FileFunction,Soldermask,Bot*%
%TF.FilePolarity,Negative*%
%FSLAX46Y46*%
G04 Gerber Fmt 4.6, Leading zero omitted, Abs format (unit mm)*
G04 Created by KiCad (PCBNEW (5.1.9)-1) date 2021-11-22 21:10:40*
%MOMM*%
%LPD*%
G01*
G04 APERTURE LIST*
%ADD10O,2.400000X1.600000*%
%ADD11R,2.400000X1.600000*%
G04 APERTURE END LIST*
D10*
%TO.C,REF\u002A\u002A*%
X11430000Y0D03*
X3810000Y-33020000D03*
X11430000Y-2540000D03*
X3810000Y-30480000D03*
X11430000Y-5080000D03*
X3810000Y-27940000D03*
X11430000Y-7620000D03*
X3810000Y-25400000D03*
X11430000Y-10160000D03*
X3810000Y-22860000D03*
X11430000Y-12700000D03*
X3810000Y-20320000D03*
X11430000Y-15240000D03*
X3810000Y-17780000D03*
X11430000Y-17780000D03*
X3810000Y-15240000D03*
X11430000Y-20320000D03*
X3810000Y-12700000D03*
X11430000Y-22860000D03*
X3810000Y-10160000D03*
X11430000Y-25400000D03*
X3810000Y-7620000D03*
X11430000Y-27940000D03*
X3810000Y-5080000D03*
X11430000Y-30480000D03*
X3810000Y-2540000D03*
X11430000Y-33020000D03*
D11*
X3810000Y0D03*
%TD*%
D10*
%TO.C,REF\u002A\u002A*%
X15240000Y0D03*
X0Y-33020000D03*
X15240000Y-2540000D03*
X0Y-30480000D03*
X15240000Y-5080000D03*
X0Y-27940000D03*
X15240000Y-7620000D03*
X0Y-25400000D03*
X15240000Y-10160000D03*
X0Y-22860000D03*
X15240000Y-12700000D03*
X0Y-20320000D03*
X15240000Y-15240000D03*
X0Y-17780000D03*
X15240000Y-17780000D03*
X0Y-15240000D03*
X15240000Y-20320000D03*
X0Y-12700000D03*
X15240000Y-22860000D03*
X0Y-10160000D03*
X15240000Y-25400000D03*
X0Y-7620000D03*
X15240000Y-27940000D03*
X0Y-5080000D03*
X15240000Y-30480000D03*
X0Y-2540000D03*
X15240000Y-33020000D03*
D11*
X0Y0D03*
%TD*%
M02*
