M48
; DRILL file {KiCad (5.1.9)-1} date 11/22/21 21:10:36
; FORMAT={-:-/ absolute / inch / decimal}
; #@! TF.CreationDate,2021-11-22T21:10:36-05:00
; #@! TF.GenerationSoftware,Kicad,Pcbnew,(5.1.9)-1
; #@! TF.FileFunction,Plated,1,2,PTH
FMAT,2
INCH
T1C0.0315
%
G90
G05
T1
X0.0Y0.0
X0.0Y-0.1
X0.0Y-0.2
X0.0Y-0.3
X0.0Y-0.4
X0.0Y-0.5
X0.0Y-0.6
X0.0Y-0.7
X0.0Y-0.8
X0.0Y-0.9
X0.0Y-1.0
X0.0Y-1.1
X0.0Y-1.2
X0.0Y-1.3
X0.15Y0.0
X0.15Y-0.1
X0.15Y-0.2
X0.15Y-0.3
X0.15Y-0.4
X0.15Y-0.5
X0.15Y-0.6
X0.15Y-0.7
X0.15Y-0.8
X0.15Y-0.9
X0.15Y-1.0
X0.15Y-1.1
X0.15Y-1.2
X0.15Y-1.3
X0.45Y0.0
X0.45Y-0.1
X0.45Y-0.2
X0.45Y-0.3
X0.45Y-0.4
X0.45Y-0.5
X0.45Y-0.6
X0.45Y-0.7
X0.45Y-0.8
X0.45Y-0.9
X0.45Y-1.0
X0.45Y-1.1
X0.45Y-1.2
X0.45Y-1.3
X0.6Y0.0
X0.6Y-0.1
X0.6Y-0.2
X0.6Y-0.3
X0.6Y-0.4
X0.6Y-0.5
X0.6Y-0.6
X0.6Y-0.7
X0.6Y-0.8
X0.6Y-0.9
X0.6Y-1.0
X0.6Y-1.1
X0.6Y-1.2
X0.6Y-1.3
T0
M30
