%TF.GenerationSoftware,KiCad,Pcbnew,(5.1.9)-1*%
%TF.CreationDate,2021-11-22T21:10:40-05:00*%
%TF.ProjectId,main,6d61696e-2e6b-4696-9361-645f70636258,rev?*%
%TF.SameCoordinates,Original*%
%TF.FileFunction,Copper,L2,Bot*%
%TF.FilePolarity,Positive*%
%FSLAX46Y46*%
G04 Gerber Fmt 4.6, Leading zero omitted, Abs format (unit mm)*
G04 Created by KiCad (PCBNEW (5.1.9)-1) date 2021-11-22 21:10:40*
%MOMM*%
%LPD*%
G01*
G04 APERTURE LIST*
%TA.AperFunction,ComponentPad*%
%ADD10O,2.400000X1.600000*%
%TD*%
%TA.AperFunction,ComponentPad*%
%ADD11R,2.400000X1.600000*%
%TD*%
G04 APERTURE END LIST*
D10*
%TO.P,REF\u002A\u002A,28*%
%TO.N,N/C*%
X11430000Y0D03*
%TO.P,REF\u002A\u002A,14*%
X3810000Y-33020000D03*
%TO.P,REF\u002A\u002A,27*%
X11430000Y-2540000D03*
%TO.P,REF\u002A\u002A,13*%
X3810000Y-30480000D03*
%TO.P,REF\u002A\u002A,26*%
X11430000Y-5080000D03*
%TO.P,REF\u002A\u002A,12*%
X3810000Y-27940000D03*
%TO.P,REF\u002A\u002A,25*%
X11430000Y-7620000D03*
%TO.P,REF\u002A\u002A,11*%
X3810000Y-25400000D03*
%TO.P,REF\u002A\u002A,24*%
X11430000Y-10160000D03*
%TO.P,REF\u002A\u002A,10*%
X3810000Y-22860000D03*
%TO.P,REF\u002A\u002A,23*%
X11430000Y-12700000D03*
%TO.P,REF\u002A\u002A,9*%
X3810000Y-20320000D03*
%TO.P,REF\u002A\u002A,22*%
X11430000Y-15240000D03*
%TO.P,REF\u002A\u002A,8*%
X3810000Y-17780000D03*
%TO.P,REF\u002A\u002A,21*%
X11430000Y-17780000D03*
%TO.P,REF\u002A\u002A,7*%
X3810000Y-15240000D03*
%TO.P,REF\u002A\u002A,20*%
X11430000Y-20320000D03*
%TO.P,REF\u002A\u002A,6*%
X3810000Y-12700000D03*
%TO.P,REF\u002A\u002A,19*%
X11430000Y-22860000D03*
%TO.P,REF\u002A\u002A,5*%
X3810000Y-10160000D03*
%TO.P,REF\u002A\u002A,18*%
X11430000Y-25400000D03*
%TO.P,REF\u002A\u002A,4*%
X3810000Y-7620000D03*
%TO.P,REF\u002A\u002A,17*%
X11430000Y-27940000D03*
%TO.P,REF\u002A\u002A,3*%
X3810000Y-5080000D03*
%TO.P,REF\u002A\u002A,16*%
X11430000Y-30480000D03*
%TO.P,REF\u002A\u002A,2*%
X3810000Y-2540000D03*
%TO.P,REF\u002A\u002A,15*%
X11430000Y-33020000D03*
D11*
%TO.P,REF\u002A\u002A,1*%
X3810000Y0D03*
%TD*%
D10*
%TO.P,REF\u002A\u002A,28*%
%TO.N,N/C*%
X15240000Y0D03*
%TO.P,REF\u002A\u002A,14*%
X0Y-33020000D03*
%TO.P,REF\u002A\u002A,27*%
X15240000Y-2540000D03*
%TO.P,REF\u002A\u002A,13*%
X0Y-30480000D03*
%TO.P,REF\u002A\u002A,26*%
X15240000Y-5080000D03*
%TO.P,REF\u002A\u002A,12*%
X0Y-27940000D03*
%TO.P,REF\u002A\u002A,25*%
X15240000Y-7620000D03*
%TO.P,REF\u002A\u002A,11*%
X0Y-25400000D03*
%TO.P,REF\u002A\u002A,24*%
X15240000Y-10160000D03*
%TO.P,REF\u002A\u002A,10*%
X0Y-22860000D03*
%TO.P,REF\u002A\u002A,23*%
X15240000Y-12700000D03*
%TO.P,REF\u002A\u002A,9*%
X0Y-20320000D03*
%TO.P,REF\u002A\u002A,22*%
X15240000Y-15240000D03*
%TO.P,REF\u002A\u002A,8*%
X0Y-17780000D03*
%TO.P,REF\u002A\u002A,21*%
X15240000Y-17780000D03*
%TO.P,REF\u002A\u002A,7*%
X0Y-15240000D03*
%TO.P,REF\u002A\u002A,20*%
X15240000Y-20320000D03*
%TO.P,REF\u002A\u002A,6*%
X0Y-12700000D03*
%TO.P,REF\u002A\u002A,19*%
X15240000Y-22860000D03*
%TO.P,REF\u002A\u002A,5*%
X0Y-10160000D03*
%TO.P,REF\u002A\u002A,18*%
X15240000Y-25400000D03*
%TO.P,REF\u002A\u002A,4*%
X0Y-7620000D03*
%TO.P,REF\u002A\u002A,17*%
X15240000Y-27940000D03*
%TO.P,REF\u002A\u002A,3*%
X0Y-5080000D03*
%TO.P,REF\u002A\u002A,16*%
X15240000Y-30480000D03*
%TO.P,REF\u002A\u002A,2*%
X0Y-2540000D03*
%TO.P,REF\u002A\u002A,15*%
X15240000Y-33020000D03*
D11*
%TO.P,REF\u002A\u002A,1*%
X0Y0D03*
%TD*%
M02*
