%TF.GenerationSoftware,KiCad,Pcbnew,7.0.0-da2b9df05c~171~ubuntu22.04.1*%
%TF.CreationDate,2023-03-08T20:12:18-05:00*%
%TF.ProjectId,main,6d61696e-2e6b-4696-9361-645f70636258,rev?*%
%TF.SameCoordinates,Original*%
%TF.FileFunction,Legend,Bot*%
%TF.FilePolarity,Positive*%
%FSLAX46Y46*%
G04 Gerber Fmt 4.6, Leading zero omitted, Abs format (unit mm)*
G04 Created by KiCad (PCBNEW 7.0.0-da2b9df05c~171~ubuntu22.04.1) date 2023-03-08 20:12:18*
%MOMM*%
%LPD*%
G01*
G04 APERTURE LIST*
%ADD10C,0.150000*%
%ADD11C,0.120000*%
G04 APERTURE END LIST*
D10*
%TO.C,C13*%
X68627142Y-70477142D02*
X68674761Y-70429523D01*
X68674761Y-70429523D02*
X68722380Y-70286666D01*
X68722380Y-70286666D02*
X68722380Y-70191428D01*
X68722380Y-70191428D02*
X68674761Y-70048571D01*
X68674761Y-70048571D02*
X68579523Y-69953333D01*
X68579523Y-69953333D02*
X68484285Y-69905714D01*
X68484285Y-69905714D02*
X68293809Y-69858095D01*
X68293809Y-69858095D02*
X68150952Y-69858095D01*
X68150952Y-69858095D02*
X67960476Y-69905714D01*
X67960476Y-69905714D02*
X67865238Y-69953333D01*
X67865238Y-69953333D02*
X67770000Y-70048571D01*
X67770000Y-70048571D02*
X67722380Y-70191428D01*
X67722380Y-70191428D02*
X67722380Y-70286666D01*
X67722380Y-70286666D02*
X67770000Y-70429523D01*
X67770000Y-70429523D02*
X67817619Y-70477142D01*
X68722380Y-71429523D02*
X68722380Y-70858095D01*
X68722380Y-71143809D02*
X67722380Y-71143809D01*
X67722380Y-71143809D02*
X67865238Y-71048571D01*
X67865238Y-71048571D02*
X67960476Y-70953333D01*
X67960476Y-70953333D02*
X68008095Y-70858095D01*
X67722380Y-71762857D02*
X67722380Y-72381904D01*
X67722380Y-72381904D02*
X68103333Y-72048571D01*
X68103333Y-72048571D02*
X68103333Y-72191428D01*
X68103333Y-72191428D02*
X68150952Y-72286666D01*
X68150952Y-72286666D02*
X68198571Y-72334285D01*
X68198571Y-72334285D02*
X68293809Y-72381904D01*
X68293809Y-72381904D02*
X68531904Y-72381904D01*
X68531904Y-72381904D02*
X68627142Y-72334285D01*
X68627142Y-72334285D02*
X68674761Y-72286666D01*
X68674761Y-72286666D02*
X68722380Y-72191428D01*
X68722380Y-72191428D02*
X68722380Y-71905714D01*
X68722380Y-71905714D02*
X68674761Y-71810476D01*
X68674761Y-71810476D02*
X68627142Y-71762857D01*
%TO.C,C14*%
X43507857Y-62375142D02*
X43555476Y-62422761D01*
X43555476Y-62422761D02*
X43698333Y-62470380D01*
X43698333Y-62470380D02*
X43793571Y-62470380D01*
X43793571Y-62470380D02*
X43936428Y-62422761D01*
X43936428Y-62422761D02*
X44031666Y-62327523D01*
X44031666Y-62327523D02*
X44079285Y-62232285D01*
X44079285Y-62232285D02*
X44126904Y-62041809D01*
X44126904Y-62041809D02*
X44126904Y-61898952D01*
X44126904Y-61898952D02*
X44079285Y-61708476D01*
X44079285Y-61708476D02*
X44031666Y-61613238D01*
X44031666Y-61613238D02*
X43936428Y-61518000D01*
X43936428Y-61518000D02*
X43793571Y-61470380D01*
X43793571Y-61470380D02*
X43698333Y-61470380D01*
X43698333Y-61470380D02*
X43555476Y-61518000D01*
X43555476Y-61518000D02*
X43507857Y-61565619D01*
X42555476Y-62470380D02*
X43126904Y-62470380D01*
X42841190Y-62470380D02*
X42841190Y-61470380D01*
X42841190Y-61470380D02*
X42936428Y-61613238D01*
X42936428Y-61613238D02*
X43031666Y-61708476D01*
X43031666Y-61708476D02*
X43126904Y-61756095D01*
X41698333Y-61803714D02*
X41698333Y-62470380D01*
X41936428Y-61422761D02*
X42174523Y-62137047D01*
X42174523Y-62137047D02*
X41555476Y-62137047D01*
%TO.C,C18*%
X74948142Y-65397142D02*
X74995761Y-65349523D01*
X74995761Y-65349523D02*
X75043380Y-65206666D01*
X75043380Y-65206666D02*
X75043380Y-65111428D01*
X75043380Y-65111428D02*
X74995761Y-64968571D01*
X74995761Y-64968571D02*
X74900523Y-64873333D01*
X74900523Y-64873333D02*
X74805285Y-64825714D01*
X74805285Y-64825714D02*
X74614809Y-64778095D01*
X74614809Y-64778095D02*
X74471952Y-64778095D01*
X74471952Y-64778095D02*
X74281476Y-64825714D01*
X74281476Y-64825714D02*
X74186238Y-64873333D01*
X74186238Y-64873333D02*
X74091000Y-64968571D01*
X74091000Y-64968571D02*
X74043380Y-65111428D01*
X74043380Y-65111428D02*
X74043380Y-65206666D01*
X74043380Y-65206666D02*
X74091000Y-65349523D01*
X74091000Y-65349523D02*
X74138619Y-65397142D01*
X75043380Y-66349523D02*
X75043380Y-65778095D01*
X75043380Y-66063809D02*
X74043380Y-66063809D01*
X74043380Y-66063809D02*
X74186238Y-65968571D01*
X74186238Y-65968571D02*
X74281476Y-65873333D01*
X74281476Y-65873333D02*
X74329095Y-65778095D01*
X74471952Y-66920952D02*
X74424333Y-66825714D01*
X74424333Y-66825714D02*
X74376714Y-66778095D01*
X74376714Y-66778095D02*
X74281476Y-66730476D01*
X74281476Y-66730476D02*
X74233857Y-66730476D01*
X74233857Y-66730476D02*
X74138619Y-66778095D01*
X74138619Y-66778095D02*
X74091000Y-66825714D01*
X74091000Y-66825714D02*
X74043380Y-66920952D01*
X74043380Y-66920952D02*
X74043380Y-67111428D01*
X74043380Y-67111428D02*
X74091000Y-67206666D01*
X74091000Y-67206666D02*
X74138619Y-67254285D01*
X74138619Y-67254285D02*
X74233857Y-67301904D01*
X74233857Y-67301904D02*
X74281476Y-67301904D01*
X74281476Y-67301904D02*
X74376714Y-67254285D01*
X74376714Y-67254285D02*
X74424333Y-67206666D01*
X74424333Y-67206666D02*
X74471952Y-67111428D01*
X74471952Y-67111428D02*
X74471952Y-66920952D01*
X74471952Y-66920952D02*
X74519571Y-66825714D01*
X74519571Y-66825714D02*
X74567190Y-66778095D01*
X74567190Y-66778095D02*
X74662428Y-66730476D01*
X74662428Y-66730476D02*
X74852904Y-66730476D01*
X74852904Y-66730476D02*
X74948142Y-66778095D01*
X74948142Y-66778095D02*
X74995761Y-66825714D01*
X74995761Y-66825714D02*
X75043380Y-66920952D01*
X75043380Y-66920952D02*
X75043380Y-67111428D01*
X75043380Y-67111428D02*
X74995761Y-67206666D01*
X74995761Y-67206666D02*
X74948142Y-67254285D01*
X74948142Y-67254285D02*
X74852904Y-67301904D01*
X74852904Y-67301904D02*
X74662428Y-67301904D01*
X74662428Y-67301904D02*
X74567190Y-67254285D01*
X74567190Y-67254285D02*
X74519571Y-67206666D01*
X74519571Y-67206666D02*
X74471952Y-67111428D01*
%TO.C,C2*%
X33220566Y-39875942D02*
X33268185Y-39923561D01*
X33268185Y-39923561D02*
X33411042Y-39971180D01*
X33411042Y-39971180D02*
X33506280Y-39971180D01*
X33506280Y-39971180D02*
X33649137Y-39923561D01*
X33649137Y-39923561D02*
X33744375Y-39828323D01*
X33744375Y-39828323D02*
X33791994Y-39733085D01*
X33791994Y-39733085D02*
X33839613Y-39542609D01*
X33839613Y-39542609D02*
X33839613Y-39399752D01*
X33839613Y-39399752D02*
X33791994Y-39209276D01*
X33791994Y-39209276D02*
X33744375Y-39114038D01*
X33744375Y-39114038D02*
X33649137Y-39018800D01*
X33649137Y-39018800D02*
X33506280Y-38971180D01*
X33506280Y-38971180D02*
X33411042Y-38971180D01*
X33411042Y-38971180D02*
X33268185Y-39018800D01*
X33268185Y-39018800D02*
X33220566Y-39066419D01*
X32839613Y-39066419D02*
X32791994Y-39018800D01*
X32791994Y-39018800D02*
X32696756Y-38971180D01*
X32696756Y-38971180D02*
X32458661Y-38971180D01*
X32458661Y-38971180D02*
X32363423Y-39018800D01*
X32363423Y-39018800D02*
X32315804Y-39066419D01*
X32315804Y-39066419D02*
X32268185Y-39161657D01*
X32268185Y-39161657D02*
X32268185Y-39256895D01*
X32268185Y-39256895D02*
X32315804Y-39399752D01*
X32315804Y-39399752D02*
X32887232Y-39971180D01*
X32887232Y-39971180D02*
X32268185Y-39971180D01*
%TO.C,C3*%
X33220566Y-41801142D02*
X33268185Y-41848761D01*
X33268185Y-41848761D02*
X33411042Y-41896380D01*
X33411042Y-41896380D02*
X33506280Y-41896380D01*
X33506280Y-41896380D02*
X33649137Y-41848761D01*
X33649137Y-41848761D02*
X33744375Y-41753523D01*
X33744375Y-41753523D02*
X33791994Y-41658285D01*
X33791994Y-41658285D02*
X33839613Y-41467809D01*
X33839613Y-41467809D02*
X33839613Y-41324952D01*
X33839613Y-41324952D02*
X33791994Y-41134476D01*
X33791994Y-41134476D02*
X33744375Y-41039238D01*
X33744375Y-41039238D02*
X33649137Y-40944000D01*
X33649137Y-40944000D02*
X33506280Y-40896380D01*
X33506280Y-40896380D02*
X33411042Y-40896380D01*
X33411042Y-40896380D02*
X33268185Y-40944000D01*
X33268185Y-40944000D02*
X33220566Y-40991619D01*
X32887232Y-40896380D02*
X32268185Y-40896380D01*
X32268185Y-40896380D02*
X32601518Y-41277333D01*
X32601518Y-41277333D02*
X32458661Y-41277333D01*
X32458661Y-41277333D02*
X32363423Y-41324952D01*
X32363423Y-41324952D02*
X32315804Y-41372571D01*
X32315804Y-41372571D02*
X32268185Y-41467809D01*
X32268185Y-41467809D02*
X32268185Y-41705904D01*
X32268185Y-41705904D02*
X32315804Y-41801142D01*
X32315804Y-41801142D02*
X32363423Y-41848761D01*
X32363423Y-41848761D02*
X32458661Y-41896380D01*
X32458661Y-41896380D02*
X32744375Y-41896380D01*
X32744375Y-41896380D02*
X32839613Y-41848761D01*
X32839613Y-41848761D02*
X32887232Y-41801142D01*
%TO.C,C6*%
X40912142Y-111138333D02*
X40959761Y-111090714D01*
X40959761Y-111090714D02*
X41007380Y-110947857D01*
X41007380Y-110947857D02*
X41007380Y-110852619D01*
X41007380Y-110852619D02*
X40959761Y-110709762D01*
X40959761Y-110709762D02*
X40864523Y-110614524D01*
X40864523Y-110614524D02*
X40769285Y-110566905D01*
X40769285Y-110566905D02*
X40578809Y-110519286D01*
X40578809Y-110519286D02*
X40435952Y-110519286D01*
X40435952Y-110519286D02*
X40245476Y-110566905D01*
X40245476Y-110566905D02*
X40150238Y-110614524D01*
X40150238Y-110614524D02*
X40055000Y-110709762D01*
X40055000Y-110709762D02*
X40007380Y-110852619D01*
X40007380Y-110852619D02*
X40007380Y-110947857D01*
X40007380Y-110947857D02*
X40055000Y-111090714D01*
X40055000Y-111090714D02*
X40102619Y-111138333D01*
X40007380Y-111995476D02*
X40007380Y-111805000D01*
X40007380Y-111805000D02*
X40055000Y-111709762D01*
X40055000Y-111709762D02*
X40102619Y-111662143D01*
X40102619Y-111662143D02*
X40245476Y-111566905D01*
X40245476Y-111566905D02*
X40435952Y-111519286D01*
X40435952Y-111519286D02*
X40816904Y-111519286D01*
X40816904Y-111519286D02*
X40912142Y-111566905D01*
X40912142Y-111566905D02*
X40959761Y-111614524D01*
X40959761Y-111614524D02*
X41007380Y-111709762D01*
X41007380Y-111709762D02*
X41007380Y-111900238D01*
X41007380Y-111900238D02*
X40959761Y-111995476D01*
X40959761Y-111995476D02*
X40912142Y-112043095D01*
X40912142Y-112043095D02*
X40816904Y-112090714D01*
X40816904Y-112090714D02*
X40578809Y-112090714D01*
X40578809Y-112090714D02*
X40483571Y-112043095D01*
X40483571Y-112043095D02*
X40435952Y-111995476D01*
X40435952Y-111995476D02*
X40388333Y-111900238D01*
X40388333Y-111900238D02*
X40388333Y-111709762D01*
X40388333Y-111709762D02*
X40435952Y-111614524D01*
X40435952Y-111614524D02*
X40483571Y-111566905D01*
X40483571Y-111566905D02*
X40578809Y-111519286D01*
%TO.C,C8*%
X86312142Y-102068333D02*
X86359761Y-102020714D01*
X86359761Y-102020714D02*
X86407380Y-101877857D01*
X86407380Y-101877857D02*
X86407380Y-101782619D01*
X86407380Y-101782619D02*
X86359761Y-101639762D01*
X86359761Y-101639762D02*
X86264523Y-101544524D01*
X86264523Y-101544524D02*
X86169285Y-101496905D01*
X86169285Y-101496905D02*
X85978809Y-101449286D01*
X85978809Y-101449286D02*
X85835952Y-101449286D01*
X85835952Y-101449286D02*
X85645476Y-101496905D01*
X85645476Y-101496905D02*
X85550238Y-101544524D01*
X85550238Y-101544524D02*
X85455000Y-101639762D01*
X85455000Y-101639762D02*
X85407380Y-101782619D01*
X85407380Y-101782619D02*
X85407380Y-101877857D01*
X85407380Y-101877857D02*
X85455000Y-102020714D01*
X85455000Y-102020714D02*
X85502619Y-102068333D01*
X85835952Y-102639762D02*
X85788333Y-102544524D01*
X85788333Y-102544524D02*
X85740714Y-102496905D01*
X85740714Y-102496905D02*
X85645476Y-102449286D01*
X85645476Y-102449286D02*
X85597857Y-102449286D01*
X85597857Y-102449286D02*
X85502619Y-102496905D01*
X85502619Y-102496905D02*
X85455000Y-102544524D01*
X85455000Y-102544524D02*
X85407380Y-102639762D01*
X85407380Y-102639762D02*
X85407380Y-102830238D01*
X85407380Y-102830238D02*
X85455000Y-102925476D01*
X85455000Y-102925476D02*
X85502619Y-102973095D01*
X85502619Y-102973095D02*
X85597857Y-103020714D01*
X85597857Y-103020714D02*
X85645476Y-103020714D01*
X85645476Y-103020714D02*
X85740714Y-102973095D01*
X85740714Y-102973095D02*
X85788333Y-102925476D01*
X85788333Y-102925476D02*
X85835952Y-102830238D01*
X85835952Y-102830238D02*
X85835952Y-102639762D01*
X85835952Y-102639762D02*
X85883571Y-102544524D01*
X85883571Y-102544524D02*
X85931190Y-102496905D01*
X85931190Y-102496905D02*
X86026428Y-102449286D01*
X86026428Y-102449286D02*
X86216904Y-102449286D01*
X86216904Y-102449286D02*
X86312142Y-102496905D01*
X86312142Y-102496905D02*
X86359761Y-102544524D01*
X86359761Y-102544524D02*
X86407380Y-102639762D01*
X86407380Y-102639762D02*
X86407380Y-102830238D01*
X86407380Y-102830238D02*
X86359761Y-102925476D01*
X86359761Y-102925476D02*
X86312142Y-102973095D01*
X86312142Y-102973095D02*
X86216904Y-103020714D01*
X86216904Y-103020714D02*
X86026428Y-103020714D01*
X86026428Y-103020714D02*
X85931190Y-102973095D01*
X85931190Y-102973095D02*
X85883571Y-102925476D01*
X85883571Y-102925476D02*
X85835952Y-102830238D01*
%TO.C,C20*%
X55572857Y-58917142D02*
X55620476Y-58964761D01*
X55620476Y-58964761D02*
X55763333Y-59012380D01*
X55763333Y-59012380D02*
X55858571Y-59012380D01*
X55858571Y-59012380D02*
X56001428Y-58964761D01*
X56001428Y-58964761D02*
X56096666Y-58869523D01*
X56096666Y-58869523D02*
X56144285Y-58774285D01*
X56144285Y-58774285D02*
X56191904Y-58583809D01*
X56191904Y-58583809D02*
X56191904Y-58440952D01*
X56191904Y-58440952D02*
X56144285Y-58250476D01*
X56144285Y-58250476D02*
X56096666Y-58155238D01*
X56096666Y-58155238D02*
X56001428Y-58060000D01*
X56001428Y-58060000D02*
X55858571Y-58012380D01*
X55858571Y-58012380D02*
X55763333Y-58012380D01*
X55763333Y-58012380D02*
X55620476Y-58060000D01*
X55620476Y-58060000D02*
X55572857Y-58107619D01*
X55191904Y-58107619D02*
X55144285Y-58060000D01*
X55144285Y-58060000D02*
X55049047Y-58012380D01*
X55049047Y-58012380D02*
X54810952Y-58012380D01*
X54810952Y-58012380D02*
X54715714Y-58060000D01*
X54715714Y-58060000D02*
X54668095Y-58107619D01*
X54668095Y-58107619D02*
X54620476Y-58202857D01*
X54620476Y-58202857D02*
X54620476Y-58298095D01*
X54620476Y-58298095D02*
X54668095Y-58440952D01*
X54668095Y-58440952D02*
X55239523Y-59012380D01*
X55239523Y-59012380D02*
X54620476Y-59012380D01*
X54001428Y-58012380D02*
X53906190Y-58012380D01*
X53906190Y-58012380D02*
X53810952Y-58060000D01*
X53810952Y-58060000D02*
X53763333Y-58107619D01*
X53763333Y-58107619D02*
X53715714Y-58202857D01*
X53715714Y-58202857D02*
X53668095Y-58393333D01*
X53668095Y-58393333D02*
X53668095Y-58631428D01*
X53668095Y-58631428D02*
X53715714Y-58821904D01*
X53715714Y-58821904D02*
X53763333Y-58917142D01*
X53763333Y-58917142D02*
X53810952Y-58964761D01*
X53810952Y-58964761D02*
X53906190Y-59012380D01*
X53906190Y-59012380D02*
X54001428Y-59012380D01*
X54001428Y-59012380D02*
X54096666Y-58964761D01*
X54096666Y-58964761D02*
X54144285Y-58917142D01*
X54144285Y-58917142D02*
X54191904Y-58821904D01*
X54191904Y-58821904D02*
X54239523Y-58631428D01*
X54239523Y-58631428D02*
X54239523Y-58393333D01*
X54239523Y-58393333D02*
X54191904Y-58202857D01*
X54191904Y-58202857D02*
X54144285Y-58107619D01*
X54144285Y-58107619D02*
X54096666Y-58060000D01*
X54096666Y-58060000D02*
X54001428Y-58012380D01*
%TO.C,C22*%
X89397142Y-52377142D02*
X89444761Y-52329523D01*
X89444761Y-52329523D02*
X89492380Y-52186666D01*
X89492380Y-52186666D02*
X89492380Y-52091428D01*
X89492380Y-52091428D02*
X89444761Y-51948571D01*
X89444761Y-51948571D02*
X89349523Y-51853333D01*
X89349523Y-51853333D02*
X89254285Y-51805714D01*
X89254285Y-51805714D02*
X89063809Y-51758095D01*
X89063809Y-51758095D02*
X88920952Y-51758095D01*
X88920952Y-51758095D02*
X88730476Y-51805714D01*
X88730476Y-51805714D02*
X88635238Y-51853333D01*
X88635238Y-51853333D02*
X88540000Y-51948571D01*
X88540000Y-51948571D02*
X88492380Y-52091428D01*
X88492380Y-52091428D02*
X88492380Y-52186666D01*
X88492380Y-52186666D02*
X88540000Y-52329523D01*
X88540000Y-52329523D02*
X88587619Y-52377142D01*
X88587619Y-52758095D02*
X88540000Y-52805714D01*
X88540000Y-52805714D02*
X88492380Y-52900952D01*
X88492380Y-52900952D02*
X88492380Y-53139047D01*
X88492380Y-53139047D02*
X88540000Y-53234285D01*
X88540000Y-53234285D02*
X88587619Y-53281904D01*
X88587619Y-53281904D02*
X88682857Y-53329523D01*
X88682857Y-53329523D02*
X88778095Y-53329523D01*
X88778095Y-53329523D02*
X88920952Y-53281904D01*
X88920952Y-53281904D02*
X89492380Y-52710476D01*
X89492380Y-52710476D02*
X89492380Y-53329523D01*
X88587619Y-53710476D02*
X88540000Y-53758095D01*
X88540000Y-53758095D02*
X88492380Y-53853333D01*
X88492380Y-53853333D02*
X88492380Y-54091428D01*
X88492380Y-54091428D02*
X88540000Y-54186666D01*
X88540000Y-54186666D02*
X88587619Y-54234285D01*
X88587619Y-54234285D02*
X88682857Y-54281904D01*
X88682857Y-54281904D02*
X88778095Y-54281904D01*
X88778095Y-54281904D02*
X88920952Y-54234285D01*
X88920952Y-54234285D02*
X89492380Y-53662857D01*
X89492380Y-53662857D02*
X89492380Y-54281904D01*
%TO.C,C24*%
X41917857Y-74792142D02*
X41965476Y-74839761D01*
X41965476Y-74839761D02*
X42108333Y-74887380D01*
X42108333Y-74887380D02*
X42203571Y-74887380D01*
X42203571Y-74887380D02*
X42346428Y-74839761D01*
X42346428Y-74839761D02*
X42441666Y-74744523D01*
X42441666Y-74744523D02*
X42489285Y-74649285D01*
X42489285Y-74649285D02*
X42536904Y-74458809D01*
X42536904Y-74458809D02*
X42536904Y-74315952D01*
X42536904Y-74315952D02*
X42489285Y-74125476D01*
X42489285Y-74125476D02*
X42441666Y-74030238D01*
X42441666Y-74030238D02*
X42346428Y-73935000D01*
X42346428Y-73935000D02*
X42203571Y-73887380D01*
X42203571Y-73887380D02*
X42108333Y-73887380D01*
X42108333Y-73887380D02*
X41965476Y-73935000D01*
X41965476Y-73935000D02*
X41917857Y-73982619D01*
X41536904Y-73982619D02*
X41489285Y-73935000D01*
X41489285Y-73935000D02*
X41394047Y-73887380D01*
X41394047Y-73887380D02*
X41155952Y-73887380D01*
X41155952Y-73887380D02*
X41060714Y-73935000D01*
X41060714Y-73935000D02*
X41013095Y-73982619D01*
X41013095Y-73982619D02*
X40965476Y-74077857D01*
X40965476Y-74077857D02*
X40965476Y-74173095D01*
X40965476Y-74173095D02*
X41013095Y-74315952D01*
X41013095Y-74315952D02*
X41584523Y-74887380D01*
X41584523Y-74887380D02*
X40965476Y-74887380D01*
X40108333Y-74220714D02*
X40108333Y-74887380D01*
X40346428Y-73839761D02*
X40584523Y-74554047D01*
X40584523Y-74554047D02*
X39965476Y-74554047D01*
%TO.C,R13*%
X79742380Y-94607142D02*
X79266190Y-94273809D01*
X79742380Y-94035714D02*
X78742380Y-94035714D01*
X78742380Y-94035714D02*
X78742380Y-94416666D01*
X78742380Y-94416666D02*
X78790000Y-94511904D01*
X78790000Y-94511904D02*
X78837619Y-94559523D01*
X78837619Y-94559523D02*
X78932857Y-94607142D01*
X78932857Y-94607142D02*
X79075714Y-94607142D01*
X79075714Y-94607142D02*
X79170952Y-94559523D01*
X79170952Y-94559523D02*
X79218571Y-94511904D01*
X79218571Y-94511904D02*
X79266190Y-94416666D01*
X79266190Y-94416666D02*
X79266190Y-94035714D01*
X79742380Y-95559523D02*
X79742380Y-94988095D01*
X79742380Y-95273809D02*
X78742380Y-95273809D01*
X78742380Y-95273809D02*
X78885238Y-95178571D01*
X78885238Y-95178571D02*
X78980476Y-95083333D01*
X78980476Y-95083333D02*
X79028095Y-94988095D01*
X78742380Y-95892857D02*
X78742380Y-96511904D01*
X78742380Y-96511904D02*
X79123333Y-96178571D01*
X79123333Y-96178571D02*
X79123333Y-96321428D01*
X79123333Y-96321428D02*
X79170952Y-96416666D01*
X79170952Y-96416666D02*
X79218571Y-96464285D01*
X79218571Y-96464285D02*
X79313809Y-96511904D01*
X79313809Y-96511904D02*
X79551904Y-96511904D01*
X79551904Y-96511904D02*
X79647142Y-96464285D01*
X79647142Y-96464285D02*
X79694761Y-96416666D01*
X79694761Y-96416666D02*
X79742380Y-96321428D01*
X79742380Y-96321428D02*
X79742380Y-96035714D01*
X79742380Y-96035714D02*
X79694761Y-95940476D01*
X79694761Y-95940476D02*
X79647142Y-95892857D01*
%TO.C,R7*%
X84822380Y-95718333D02*
X84346190Y-95385000D01*
X84822380Y-95146905D02*
X83822380Y-95146905D01*
X83822380Y-95146905D02*
X83822380Y-95527857D01*
X83822380Y-95527857D02*
X83870000Y-95623095D01*
X83870000Y-95623095D02*
X83917619Y-95670714D01*
X83917619Y-95670714D02*
X84012857Y-95718333D01*
X84012857Y-95718333D02*
X84155714Y-95718333D01*
X84155714Y-95718333D02*
X84250952Y-95670714D01*
X84250952Y-95670714D02*
X84298571Y-95623095D01*
X84298571Y-95623095D02*
X84346190Y-95527857D01*
X84346190Y-95527857D02*
X84346190Y-95146905D01*
X83822380Y-96051667D02*
X83822380Y-96718333D01*
X83822380Y-96718333D02*
X84822380Y-96289762D01*
%TO.C,R12*%
X83192857Y-108952380D02*
X83526190Y-108476190D01*
X83764285Y-108952380D02*
X83764285Y-107952380D01*
X83764285Y-107952380D02*
X83383333Y-107952380D01*
X83383333Y-107952380D02*
X83288095Y-108000000D01*
X83288095Y-108000000D02*
X83240476Y-108047619D01*
X83240476Y-108047619D02*
X83192857Y-108142857D01*
X83192857Y-108142857D02*
X83192857Y-108285714D01*
X83192857Y-108285714D02*
X83240476Y-108380952D01*
X83240476Y-108380952D02*
X83288095Y-108428571D01*
X83288095Y-108428571D02*
X83383333Y-108476190D01*
X83383333Y-108476190D02*
X83764285Y-108476190D01*
X82240476Y-108952380D02*
X82811904Y-108952380D01*
X82526190Y-108952380D02*
X82526190Y-107952380D01*
X82526190Y-107952380D02*
X82621428Y-108095238D01*
X82621428Y-108095238D02*
X82716666Y-108190476D01*
X82716666Y-108190476D02*
X82811904Y-108238095D01*
X81859523Y-108047619D02*
X81811904Y-108000000D01*
X81811904Y-108000000D02*
X81716666Y-107952380D01*
X81716666Y-107952380D02*
X81478571Y-107952380D01*
X81478571Y-107952380D02*
X81383333Y-108000000D01*
X81383333Y-108000000D02*
X81335714Y-108047619D01*
X81335714Y-108047619D02*
X81288095Y-108142857D01*
X81288095Y-108142857D02*
X81288095Y-108238095D01*
X81288095Y-108238095D02*
X81335714Y-108380952D01*
X81335714Y-108380952D02*
X81907142Y-108952380D01*
X81907142Y-108952380D02*
X81288095Y-108952380D01*
%TO.C,Q3*%
X82237619Y-104347261D02*
X82190000Y-104252023D01*
X82190000Y-104252023D02*
X82094761Y-104156785D01*
X82094761Y-104156785D02*
X81951904Y-104013928D01*
X81951904Y-104013928D02*
X81904285Y-103918690D01*
X81904285Y-103918690D02*
X81904285Y-103823452D01*
X82142380Y-103871071D02*
X82094761Y-103775833D01*
X82094761Y-103775833D02*
X81999523Y-103680595D01*
X81999523Y-103680595D02*
X81809047Y-103632976D01*
X81809047Y-103632976D02*
X81475714Y-103632976D01*
X81475714Y-103632976D02*
X81285238Y-103680595D01*
X81285238Y-103680595D02*
X81190000Y-103775833D01*
X81190000Y-103775833D02*
X81142380Y-103871071D01*
X81142380Y-103871071D02*
X81142380Y-104061547D01*
X81142380Y-104061547D02*
X81190000Y-104156785D01*
X81190000Y-104156785D02*
X81285238Y-104252023D01*
X81285238Y-104252023D02*
X81475714Y-104299642D01*
X81475714Y-104299642D02*
X81809047Y-104299642D01*
X81809047Y-104299642D02*
X81999523Y-104252023D01*
X81999523Y-104252023D02*
X82094761Y-104156785D01*
X82094761Y-104156785D02*
X82142380Y-104061547D01*
X82142380Y-104061547D02*
X82142380Y-103871071D01*
X81142380Y-104632976D02*
X81142380Y-105252023D01*
X81142380Y-105252023D02*
X81523333Y-104918690D01*
X81523333Y-104918690D02*
X81523333Y-105061547D01*
X81523333Y-105061547D02*
X81570952Y-105156785D01*
X81570952Y-105156785D02*
X81618571Y-105204404D01*
X81618571Y-105204404D02*
X81713809Y-105252023D01*
X81713809Y-105252023D02*
X81951904Y-105252023D01*
X81951904Y-105252023D02*
X82047142Y-105204404D01*
X82047142Y-105204404D02*
X82094761Y-105156785D01*
X82094761Y-105156785D02*
X82142380Y-105061547D01*
X82142380Y-105061547D02*
X82142380Y-104775833D01*
X82142380Y-104775833D02*
X82094761Y-104680595D01*
X82094761Y-104680595D02*
X82047142Y-104632976D01*
%TO.C,R3*%
X85256666Y-93077380D02*
X85589999Y-92601190D01*
X85828094Y-93077380D02*
X85828094Y-92077380D01*
X85828094Y-92077380D02*
X85447142Y-92077380D01*
X85447142Y-92077380D02*
X85351904Y-92125000D01*
X85351904Y-92125000D02*
X85304285Y-92172619D01*
X85304285Y-92172619D02*
X85256666Y-92267857D01*
X85256666Y-92267857D02*
X85256666Y-92410714D01*
X85256666Y-92410714D02*
X85304285Y-92505952D01*
X85304285Y-92505952D02*
X85351904Y-92553571D01*
X85351904Y-92553571D02*
X85447142Y-92601190D01*
X85447142Y-92601190D02*
X85828094Y-92601190D01*
X84923332Y-92077380D02*
X84304285Y-92077380D01*
X84304285Y-92077380D02*
X84637618Y-92458333D01*
X84637618Y-92458333D02*
X84494761Y-92458333D01*
X84494761Y-92458333D02*
X84399523Y-92505952D01*
X84399523Y-92505952D02*
X84351904Y-92553571D01*
X84351904Y-92553571D02*
X84304285Y-92648809D01*
X84304285Y-92648809D02*
X84304285Y-92886904D01*
X84304285Y-92886904D02*
X84351904Y-92982142D01*
X84351904Y-92982142D02*
X84399523Y-93029761D01*
X84399523Y-93029761D02*
X84494761Y-93077380D01*
X84494761Y-93077380D02*
X84780475Y-93077380D01*
X84780475Y-93077380D02*
X84875713Y-93029761D01*
X84875713Y-93029761D02*
X84923332Y-92982142D01*
%TO.C,R10*%
X74027380Y-109212142D02*
X73551190Y-108878809D01*
X74027380Y-108640714D02*
X73027380Y-108640714D01*
X73027380Y-108640714D02*
X73027380Y-109021666D01*
X73027380Y-109021666D02*
X73075000Y-109116904D01*
X73075000Y-109116904D02*
X73122619Y-109164523D01*
X73122619Y-109164523D02*
X73217857Y-109212142D01*
X73217857Y-109212142D02*
X73360714Y-109212142D01*
X73360714Y-109212142D02*
X73455952Y-109164523D01*
X73455952Y-109164523D02*
X73503571Y-109116904D01*
X73503571Y-109116904D02*
X73551190Y-109021666D01*
X73551190Y-109021666D02*
X73551190Y-108640714D01*
X74027380Y-110164523D02*
X74027380Y-109593095D01*
X74027380Y-109878809D02*
X73027380Y-109878809D01*
X73027380Y-109878809D02*
X73170238Y-109783571D01*
X73170238Y-109783571D02*
X73265476Y-109688333D01*
X73265476Y-109688333D02*
X73313095Y-109593095D01*
X73027380Y-110783571D02*
X73027380Y-110878809D01*
X73027380Y-110878809D02*
X73075000Y-110974047D01*
X73075000Y-110974047D02*
X73122619Y-111021666D01*
X73122619Y-111021666D02*
X73217857Y-111069285D01*
X73217857Y-111069285D02*
X73408333Y-111116904D01*
X73408333Y-111116904D02*
X73646428Y-111116904D01*
X73646428Y-111116904D02*
X73836904Y-111069285D01*
X73836904Y-111069285D02*
X73932142Y-111021666D01*
X73932142Y-111021666D02*
X73979761Y-110974047D01*
X73979761Y-110974047D02*
X74027380Y-110878809D01*
X74027380Y-110878809D02*
X74027380Y-110783571D01*
X74027380Y-110783571D02*
X73979761Y-110688333D01*
X73979761Y-110688333D02*
X73932142Y-110640714D01*
X73932142Y-110640714D02*
X73836904Y-110593095D01*
X73836904Y-110593095D02*
X73646428Y-110545476D01*
X73646428Y-110545476D02*
X73408333Y-110545476D01*
X73408333Y-110545476D02*
X73217857Y-110593095D01*
X73217857Y-110593095D02*
X73122619Y-110640714D01*
X73122619Y-110640714D02*
X73075000Y-110688333D01*
X73075000Y-110688333D02*
X73027380Y-110783571D01*
%TO.C,R8*%
X87362380Y-95718333D02*
X86886190Y-95385000D01*
X87362380Y-95146905D02*
X86362380Y-95146905D01*
X86362380Y-95146905D02*
X86362380Y-95527857D01*
X86362380Y-95527857D02*
X86410000Y-95623095D01*
X86410000Y-95623095D02*
X86457619Y-95670714D01*
X86457619Y-95670714D02*
X86552857Y-95718333D01*
X86552857Y-95718333D02*
X86695714Y-95718333D01*
X86695714Y-95718333D02*
X86790952Y-95670714D01*
X86790952Y-95670714D02*
X86838571Y-95623095D01*
X86838571Y-95623095D02*
X86886190Y-95527857D01*
X86886190Y-95527857D02*
X86886190Y-95146905D01*
X86790952Y-96289762D02*
X86743333Y-96194524D01*
X86743333Y-96194524D02*
X86695714Y-96146905D01*
X86695714Y-96146905D02*
X86600476Y-96099286D01*
X86600476Y-96099286D02*
X86552857Y-96099286D01*
X86552857Y-96099286D02*
X86457619Y-96146905D01*
X86457619Y-96146905D02*
X86410000Y-96194524D01*
X86410000Y-96194524D02*
X86362380Y-96289762D01*
X86362380Y-96289762D02*
X86362380Y-96480238D01*
X86362380Y-96480238D02*
X86410000Y-96575476D01*
X86410000Y-96575476D02*
X86457619Y-96623095D01*
X86457619Y-96623095D02*
X86552857Y-96670714D01*
X86552857Y-96670714D02*
X86600476Y-96670714D01*
X86600476Y-96670714D02*
X86695714Y-96623095D01*
X86695714Y-96623095D02*
X86743333Y-96575476D01*
X86743333Y-96575476D02*
X86790952Y-96480238D01*
X86790952Y-96480238D02*
X86790952Y-96289762D01*
X86790952Y-96289762D02*
X86838571Y-96194524D01*
X86838571Y-96194524D02*
X86886190Y-96146905D01*
X86886190Y-96146905D02*
X86981428Y-96099286D01*
X86981428Y-96099286D02*
X87171904Y-96099286D01*
X87171904Y-96099286D02*
X87267142Y-96146905D01*
X87267142Y-96146905D02*
X87314761Y-96194524D01*
X87314761Y-96194524D02*
X87362380Y-96289762D01*
X87362380Y-96289762D02*
X87362380Y-96480238D01*
X87362380Y-96480238D02*
X87314761Y-96575476D01*
X87314761Y-96575476D02*
X87267142Y-96623095D01*
X87267142Y-96623095D02*
X87171904Y-96670714D01*
X87171904Y-96670714D02*
X86981428Y-96670714D01*
X86981428Y-96670714D02*
X86886190Y-96623095D01*
X86886190Y-96623095D02*
X86838571Y-96575476D01*
X86838571Y-96575476D02*
X86790952Y-96480238D01*
%TO.C,C11*%
X87637857Y-57637142D02*
X87685476Y-57684761D01*
X87685476Y-57684761D02*
X87828333Y-57732380D01*
X87828333Y-57732380D02*
X87923571Y-57732380D01*
X87923571Y-57732380D02*
X88066428Y-57684761D01*
X88066428Y-57684761D02*
X88161666Y-57589523D01*
X88161666Y-57589523D02*
X88209285Y-57494285D01*
X88209285Y-57494285D02*
X88256904Y-57303809D01*
X88256904Y-57303809D02*
X88256904Y-57160952D01*
X88256904Y-57160952D02*
X88209285Y-56970476D01*
X88209285Y-56970476D02*
X88161666Y-56875238D01*
X88161666Y-56875238D02*
X88066428Y-56780000D01*
X88066428Y-56780000D02*
X87923571Y-56732380D01*
X87923571Y-56732380D02*
X87828333Y-56732380D01*
X87828333Y-56732380D02*
X87685476Y-56780000D01*
X87685476Y-56780000D02*
X87637857Y-56827619D01*
X86685476Y-57732380D02*
X87256904Y-57732380D01*
X86971190Y-57732380D02*
X86971190Y-56732380D01*
X86971190Y-56732380D02*
X87066428Y-56875238D01*
X87066428Y-56875238D02*
X87161666Y-56970476D01*
X87161666Y-56970476D02*
X87256904Y-57018095D01*
X85733095Y-57732380D02*
X86304523Y-57732380D01*
X86018809Y-57732380D02*
X86018809Y-56732380D01*
X86018809Y-56732380D02*
X86114047Y-56875238D01*
X86114047Y-56875238D02*
X86209285Y-56970476D01*
X86209285Y-56970476D02*
X86304523Y-57018095D01*
%TO.C,C10*%
X87637857Y-67797142D02*
X87685476Y-67844761D01*
X87685476Y-67844761D02*
X87828333Y-67892380D01*
X87828333Y-67892380D02*
X87923571Y-67892380D01*
X87923571Y-67892380D02*
X88066428Y-67844761D01*
X88066428Y-67844761D02*
X88161666Y-67749523D01*
X88161666Y-67749523D02*
X88209285Y-67654285D01*
X88209285Y-67654285D02*
X88256904Y-67463809D01*
X88256904Y-67463809D02*
X88256904Y-67320952D01*
X88256904Y-67320952D02*
X88209285Y-67130476D01*
X88209285Y-67130476D02*
X88161666Y-67035238D01*
X88161666Y-67035238D02*
X88066428Y-66940000D01*
X88066428Y-66940000D02*
X87923571Y-66892380D01*
X87923571Y-66892380D02*
X87828333Y-66892380D01*
X87828333Y-66892380D02*
X87685476Y-66940000D01*
X87685476Y-66940000D02*
X87637857Y-66987619D01*
X86685476Y-67892380D02*
X87256904Y-67892380D01*
X86971190Y-67892380D02*
X86971190Y-66892380D01*
X86971190Y-66892380D02*
X87066428Y-67035238D01*
X87066428Y-67035238D02*
X87161666Y-67130476D01*
X87161666Y-67130476D02*
X87256904Y-67178095D01*
X86066428Y-66892380D02*
X85971190Y-66892380D01*
X85971190Y-66892380D02*
X85875952Y-66940000D01*
X85875952Y-66940000D02*
X85828333Y-66987619D01*
X85828333Y-66987619D02*
X85780714Y-67082857D01*
X85780714Y-67082857D02*
X85733095Y-67273333D01*
X85733095Y-67273333D02*
X85733095Y-67511428D01*
X85733095Y-67511428D02*
X85780714Y-67701904D01*
X85780714Y-67701904D02*
X85828333Y-67797142D01*
X85828333Y-67797142D02*
X85875952Y-67844761D01*
X85875952Y-67844761D02*
X85971190Y-67892380D01*
X85971190Y-67892380D02*
X86066428Y-67892380D01*
X86066428Y-67892380D02*
X86161666Y-67844761D01*
X86161666Y-67844761D02*
X86209285Y-67797142D01*
X86209285Y-67797142D02*
X86256904Y-67701904D01*
X86256904Y-67701904D02*
X86304523Y-67511428D01*
X86304523Y-67511428D02*
X86304523Y-67273333D01*
X86304523Y-67273333D02*
X86256904Y-67082857D01*
X86256904Y-67082857D02*
X86209285Y-66987619D01*
X86209285Y-66987619D02*
X86161666Y-66940000D01*
X86161666Y-66940000D02*
X86066428Y-66892380D01*
%TO.C,R5*%
X70217380Y-95718333D02*
X69741190Y-95385000D01*
X70217380Y-95146905D02*
X69217380Y-95146905D01*
X69217380Y-95146905D02*
X69217380Y-95527857D01*
X69217380Y-95527857D02*
X69265000Y-95623095D01*
X69265000Y-95623095D02*
X69312619Y-95670714D01*
X69312619Y-95670714D02*
X69407857Y-95718333D01*
X69407857Y-95718333D02*
X69550714Y-95718333D01*
X69550714Y-95718333D02*
X69645952Y-95670714D01*
X69645952Y-95670714D02*
X69693571Y-95623095D01*
X69693571Y-95623095D02*
X69741190Y-95527857D01*
X69741190Y-95527857D02*
X69741190Y-95146905D01*
X69217380Y-96623095D02*
X69217380Y-96146905D01*
X69217380Y-96146905D02*
X69693571Y-96099286D01*
X69693571Y-96099286D02*
X69645952Y-96146905D01*
X69645952Y-96146905D02*
X69598333Y-96242143D01*
X69598333Y-96242143D02*
X69598333Y-96480238D01*
X69598333Y-96480238D02*
X69645952Y-96575476D01*
X69645952Y-96575476D02*
X69693571Y-96623095D01*
X69693571Y-96623095D02*
X69788809Y-96670714D01*
X69788809Y-96670714D02*
X70026904Y-96670714D01*
X70026904Y-96670714D02*
X70122142Y-96623095D01*
X70122142Y-96623095D02*
X70169761Y-96575476D01*
X70169761Y-96575476D02*
X70217380Y-96480238D01*
X70217380Y-96480238D02*
X70217380Y-96242143D01*
X70217380Y-96242143D02*
X70169761Y-96146905D01*
X70169761Y-96146905D02*
X70122142Y-96099286D01*
%TO.C,R6*%
X89267380Y-109053333D02*
X88791190Y-108720000D01*
X89267380Y-108481905D02*
X88267380Y-108481905D01*
X88267380Y-108481905D02*
X88267380Y-108862857D01*
X88267380Y-108862857D02*
X88315000Y-108958095D01*
X88315000Y-108958095D02*
X88362619Y-109005714D01*
X88362619Y-109005714D02*
X88457857Y-109053333D01*
X88457857Y-109053333D02*
X88600714Y-109053333D01*
X88600714Y-109053333D02*
X88695952Y-109005714D01*
X88695952Y-109005714D02*
X88743571Y-108958095D01*
X88743571Y-108958095D02*
X88791190Y-108862857D01*
X88791190Y-108862857D02*
X88791190Y-108481905D01*
X88267380Y-109910476D02*
X88267380Y-109720000D01*
X88267380Y-109720000D02*
X88315000Y-109624762D01*
X88315000Y-109624762D02*
X88362619Y-109577143D01*
X88362619Y-109577143D02*
X88505476Y-109481905D01*
X88505476Y-109481905D02*
X88695952Y-109434286D01*
X88695952Y-109434286D02*
X89076904Y-109434286D01*
X89076904Y-109434286D02*
X89172142Y-109481905D01*
X89172142Y-109481905D02*
X89219761Y-109529524D01*
X89219761Y-109529524D02*
X89267380Y-109624762D01*
X89267380Y-109624762D02*
X89267380Y-109815238D01*
X89267380Y-109815238D02*
X89219761Y-109910476D01*
X89219761Y-109910476D02*
X89172142Y-109958095D01*
X89172142Y-109958095D02*
X89076904Y-110005714D01*
X89076904Y-110005714D02*
X88838809Y-110005714D01*
X88838809Y-110005714D02*
X88743571Y-109958095D01*
X88743571Y-109958095D02*
X88695952Y-109910476D01*
X88695952Y-109910476D02*
X88648333Y-109815238D01*
X88648333Y-109815238D02*
X88648333Y-109624762D01*
X88648333Y-109624762D02*
X88695952Y-109529524D01*
X88695952Y-109529524D02*
X88743571Y-109481905D01*
X88743571Y-109481905D02*
X88838809Y-109434286D01*
%TO.C,R9*%
X82282380Y-95718333D02*
X81806190Y-95385000D01*
X82282380Y-95146905D02*
X81282380Y-95146905D01*
X81282380Y-95146905D02*
X81282380Y-95527857D01*
X81282380Y-95527857D02*
X81330000Y-95623095D01*
X81330000Y-95623095D02*
X81377619Y-95670714D01*
X81377619Y-95670714D02*
X81472857Y-95718333D01*
X81472857Y-95718333D02*
X81615714Y-95718333D01*
X81615714Y-95718333D02*
X81710952Y-95670714D01*
X81710952Y-95670714D02*
X81758571Y-95623095D01*
X81758571Y-95623095D02*
X81806190Y-95527857D01*
X81806190Y-95527857D02*
X81806190Y-95146905D01*
X82282380Y-96194524D02*
X82282380Y-96385000D01*
X82282380Y-96385000D02*
X82234761Y-96480238D01*
X82234761Y-96480238D02*
X82187142Y-96527857D01*
X82187142Y-96527857D02*
X82044285Y-96623095D01*
X82044285Y-96623095D02*
X81853809Y-96670714D01*
X81853809Y-96670714D02*
X81472857Y-96670714D01*
X81472857Y-96670714D02*
X81377619Y-96623095D01*
X81377619Y-96623095D02*
X81330000Y-96575476D01*
X81330000Y-96575476D02*
X81282380Y-96480238D01*
X81282380Y-96480238D02*
X81282380Y-96289762D01*
X81282380Y-96289762D02*
X81330000Y-96194524D01*
X81330000Y-96194524D02*
X81377619Y-96146905D01*
X81377619Y-96146905D02*
X81472857Y-96099286D01*
X81472857Y-96099286D02*
X81710952Y-96099286D01*
X81710952Y-96099286D02*
X81806190Y-96146905D01*
X81806190Y-96146905D02*
X81853809Y-96194524D01*
X81853809Y-96194524D02*
X81901428Y-96289762D01*
X81901428Y-96289762D02*
X81901428Y-96480238D01*
X81901428Y-96480238D02*
X81853809Y-96575476D01*
X81853809Y-96575476D02*
X81806190Y-96623095D01*
X81806190Y-96623095D02*
X81710952Y-96670714D01*
%TO.C,R4*%
X72757380Y-95718333D02*
X72281190Y-95385000D01*
X72757380Y-95146905D02*
X71757380Y-95146905D01*
X71757380Y-95146905D02*
X71757380Y-95527857D01*
X71757380Y-95527857D02*
X71805000Y-95623095D01*
X71805000Y-95623095D02*
X71852619Y-95670714D01*
X71852619Y-95670714D02*
X71947857Y-95718333D01*
X71947857Y-95718333D02*
X72090714Y-95718333D01*
X72090714Y-95718333D02*
X72185952Y-95670714D01*
X72185952Y-95670714D02*
X72233571Y-95623095D01*
X72233571Y-95623095D02*
X72281190Y-95527857D01*
X72281190Y-95527857D02*
X72281190Y-95146905D01*
X72090714Y-96575476D02*
X72757380Y-96575476D01*
X71709761Y-96337381D02*
X72424047Y-96099286D01*
X72424047Y-96099286D02*
X72424047Y-96718333D01*
%TO.C,R11*%
X76567380Y-109212142D02*
X76091190Y-108878809D01*
X76567380Y-108640714D02*
X75567380Y-108640714D01*
X75567380Y-108640714D02*
X75567380Y-109021666D01*
X75567380Y-109021666D02*
X75615000Y-109116904D01*
X75615000Y-109116904D02*
X75662619Y-109164523D01*
X75662619Y-109164523D02*
X75757857Y-109212142D01*
X75757857Y-109212142D02*
X75900714Y-109212142D01*
X75900714Y-109212142D02*
X75995952Y-109164523D01*
X75995952Y-109164523D02*
X76043571Y-109116904D01*
X76043571Y-109116904D02*
X76091190Y-109021666D01*
X76091190Y-109021666D02*
X76091190Y-108640714D01*
X76567380Y-110164523D02*
X76567380Y-109593095D01*
X76567380Y-109878809D02*
X75567380Y-109878809D01*
X75567380Y-109878809D02*
X75710238Y-109783571D01*
X75710238Y-109783571D02*
X75805476Y-109688333D01*
X75805476Y-109688333D02*
X75853095Y-109593095D01*
X76567380Y-111116904D02*
X76567380Y-110545476D01*
X76567380Y-110831190D02*
X75567380Y-110831190D01*
X75567380Y-110831190D02*
X75710238Y-110735952D01*
X75710238Y-110735952D02*
X75805476Y-110640714D01*
X75805476Y-110640714D02*
X75853095Y-110545476D01*
%TO.C,R14*%
X89902380Y-94607142D02*
X89426190Y-94273809D01*
X89902380Y-94035714D02*
X88902380Y-94035714D01*
X88902380Y-94035714D02*
X88902380Y-94416666D01*
X88902380Y-94416666D02*
X88950000Y-94511904D01*
X88950000Y-94511904D02*
X88997619Y-94559523D01*
X88997619Y-94559523D02*
X89092857Y-94607142D01*
X89092857Y-94607142D02*
X89235714Y-94607142D01*
X89235714Y-94607142D02*
X89330952Y-94559523D01*
X89330952Y-94559523D02*
X89378571Y-94511904D01*
X89378571Y-94511904D02*
X89426190Y-94416666D01*
X89426190Y-94416666D02*
X89426190Y-94035714D01*
X89902380Y-95559523D02*
X89902380Y-94988095D01*
X89902380Y-95273809D02*
X88902380Y-95273809D01*
X88902380Y-95273809D02*
X89045238Y-95178571D01*
X89045238Y-95178571D02*
X89140476Y-95083333D01*
X89140476Y-95083333D02*
X89188095Y-94988095D01*
X89235714Y-96416666D02*
X89902380Y-96416666D01*
X88854761Y-96178571D02*
X89569047Y-95940476D01*
X89569047Y-95940476D02*
X89569047Y-96559523D01*
%TO.C,R15*%
X92442380Y-94607142D02*
X91966190Y-94273809D01*
X92442380Y-94035714D02*
X91442380Y-94035714D01*
X91442380Y-94035714D02*
X91442380Y-94416666D01*
X91442380Y-94416666D02*
X91490000Y-94511904D01*
X91490000Y-94511904D02*
X91537619Y-94559523D01*
X91537619Y-94559523D02*
X91632857Y-94607142D01*
X91632857Y-94607142D02*
X91775714Y-94607142D01*
X91775714Y-94607142D02*
X91870952Y-94559523D01*
X91870952Y-94559523D02*
X91918571Y-94511904D01*
X91918571Y-94511904D02*
X91966190Y-94416666D01*
X91966190Y-94416666D02*
X91966190Y-94035714D01*
X92442380Y-95559523D02*
X92442380Y-94988095D01*
X92442380Y-95273809D02*
X91442380Y-95273809D01*
X91442380Y-95273809D02*
X91585238Y-95178571D01*
X91585238Y-95178571D02*
X91680476Y-95083333D01*
X91680476Y-95083333D02*
X91728095Y-94988095D01*
X91442380Y-96464285D02*
X91442380Y-95988095D01*
X91442380Y-95988095D02*
X91918571Y-95940476D01*
X91918571Y-95940476D02*
X91870952Y-95988095D01*
X91870952Y-95988095D02*
X91823333Y-96083333D01*
X91823333Y-96083333D02*
X91823333Y-96321428D01*
X91823333Y-96321428D02*
X91870952Y-96416666D01*
X91870952Y-96416666D02*
X91918571Y-96464285D01*
X91918571Y-96464285D02*
X92013809Y-96511904D01*
X92013809Y-96511904D02*
X92251904Y-96511904D01*
X92251904Y-96511904D02*
X92347142Y-96464285D01*
X92347142Y-96464285D02*
X92394761Y-96416666D01*
X92394761Y-96416666D02*
X92442380Y-96321428D01*
X92442380Y-96321428D02*
X92442380Y-96083333D01*
X92442380Y-96083333D02*
X92394761Y-95988095D01*
X92394761Y-95988095D02*
X92347142Y-95940476D01*
D11*
%TO.C,C13*%
X65940000Y-71381252D02*
X65940000Y-70858748D01*
X67410000Y-71381252D02*
X67410000Y-70858748D01*
%TO.C,C14*%
X43126252Y-61060000D02*
X42603748Y-61060000D01*
X43126252Y-59590000D02*
X42603748Y-59590000D01*
%TO.C,C18*%
X75465000Y-66301252D02*
X75465000Y-65778748D01*
X76935000Y-66301252D02*
X76935000Y-65778748D01*
%TO.C,C2*%
X32792648Y-37090800D02*
X33315152Y-37090800D01*
X32792648Y-38560800D02*
X33315152Y-38560800D01*
%TO.C,C3*%
X32792648Y-42445000D02*
X33315152Y-42445000D01*
X32792648Y-43915000D02*
X33315152Y-43915000D01*
%TO.C,C6*%
X38041252Y-111860000D02*
X37518748Y-111860000D01*
X38041252Y-110390000D02*
X37518748Y-110390000D01*
%TO.C,C8*%
X83761252Y-102970000D02*
X83238748Y-102970000D01*
X83761252Y-101500000D02*
X83238748Y-101500000D01*
%TO.C,C20*%
X55191252Y-61060000D02*
X54668748Y-61060000D01*
X55191252Y-59590000D02*
X54668748Y-59590000D01*
%TO.C,C22*%
X91540000Y-52758748D02*
X91540000Y-53281252D01*
X90070000Y-52758748D02*
X90070000Y-53281252D01*
%TO.C,C24*%
X41536252Y-76935000D02*
X41013748Y-76935000D01*
X41536252Y-75465000D02*
X41013748Y-75465000D01*
%TO.C,R13*%
X78640000Y-98652064D02*
X78640000Y-98197936D01*
X80110000Y-98652064D02*
X80110000Y-98197936D01*
%TO.C,R7*%
X83720000Y-98652064D02*
X83720000Y-98197936D01*
X85190000Y-98652064D02*
X85190000Y-98197936D01*
%TO.C,R12*%
X79602064Y-109320000D02*
X79147936Y-109320000D01*
X79602064Y-107850000D02*
X79147936Y-107850000D01*
%TO.C,Q3*%
X77815000Y-104442500D02*
X77815000Y-105092500D01*
X77815000Y-104442500D02*
X77815000Y-103792500D01*
X80935000Y-104442500D02*
X80935000Y-106117500D01*
X80935000Y-104442500D02*
X80935000Y-103792500D01*
%TO.C,R3*%
X82322936Y-91975000D02*
X82777064Y-91975000D01*
X82322936Y-93445000D02*
X82777064Y-93445000D01*
%TO.C,R10*%
X74395000Y-106452936D02*
X74395000Y-106907064D01*
X72925000Y-106452936D02*
X72925000Y-106907064D01*
%TO.C,R8*%
X86260000Y-98652064D02*
X86260000Y-98197936D01*
X87730000Y-98652064D02*
X87730000Y-98197936D01*
%TO.C,C11*%
X86733748Y-54950000D02*
X87256252Y-54950000D01*
X86733748Y-56420000D02*
X87256252Y-56420000D01*
%TO.C,C10*%
X86733748Y-65110000D02*
X87256252Y-65110000D01*
X86733748Y-66580000D02*
X87256252Y-66580000D01*
%TO.C,R5*%
X70585000Y-98197936D02*
X70585000Y-98652064D01*
X69115000Y-98197936D02*
X69115000Y-98652064D01*
%TO.C,R6*%
X89635000Y-106452936D02*
X89635000Y-106907064D01*
X88165000Y-106452936D02*
X88165000Y-106907064D01*
%TO.C,R9*%
X81180000Y-98652064D02*
X81180000Y-98197936D01*
X82650000Y-98652064D02*
X82650000Y-98197936D01*
%TO.C,R4*%
X73125000Y-98197936D02*
X73125000Y-98652064D01*
X71655000Y-98197936D02*
X71655000Y-98652064D01*
%TO.C,R11*%
X76935000Y-106452936D02*
X76935000Y-106907064D01*
X75465000Y-106452936D02*
X75465000Y-106907064D01*
%TO.C,R14*%
X88800000Y-98652064D02*
X88800000Y-98197936D01*
X90270000Y-98652064D02*
X90270000Y-98197936D01*
%TO.C,R15*%
X91340000Y-98652064D02*
X91340000Y-98197936D01*
X92810000Y-98652064D02*
X92810000Y-98197936D01*
%TD*%
M02*
