M48
; DRILL file {KiCad 7.0.0-da2b9df05c~171~ubuntu22.04.1} date Wed 08 Mar 2023 08:12:15 PM
; FORMAT={-:-/ absolute / inch / decimal}
; #@! TF.CreationDate,2023-03-08T20:12:15-05:00
; #@! TF.GenerationSoftware,Kicad,Pcbnew,7.0.0-da2b9df05c~171~ubuntu22.04.1
; #@! TF.FileFunction,Plated,1,2,PTH
FMAT,2
INCH
; #@! TA.AperFunction,Plated,PTH,ViaDrill
T1C0.0118
; #@! TA.AperFunction,Plated,PTH,ComponentDrill
T2C0.0197
; #@! TA.AperFunction,Plated,PTH,ViaDrill
T3C0.0236
; #@! TA.AperFunction,Plated,PTH,ComponentDrill
T4C0.0295
; #@! TA.AperFunction,Plated,PTH,ComponentDrill
T5C0.0300
; #@! TA.AperFunction,Plated,PTH,ComponentDrill
T6C0.0315
; #@! TA.AperFunction,Plated,PTH,ComponentDrill
T7C0.0354
; #@! TA.AperFunction,Plated,PTH,ComponentDrill
T8C0.0394
%
G90
G05
T1
X1.1145Y-2.5484
X1.1923Y-3.0904
X1.298Y-2.9132
X1.3013Y-2.8198
X1.3168Y-2.961
X1.3407Y-2.7222
X1.3548Y-2.8647
X1.3734Y-2.7971
X1.3984Y-2.7243
X1.6476Y-2.7479
X1.7724Y-2.0402
X1.7764Y-2.1256
X1.7864Y-2.0739
X1.7971Y-2.1666
X1.8006Y-2.2039
X1.8146Y-2.7984
X1.8197Y-2.4411
X1.8319Y-2.3985
X1.8406Y-2.7745
X1.8635Y-2.751
X1.8705Y-2.3431
X1.8855Y-2.7222
X1.8955Y-2.3877
X1.9295Y-2.1254
X1.9388Y-3.19
X1.9762Y-3.1483
X2.0678Y-3.3517
X2.2664Y-2.602
X2.4197Y-2.8621
X2.4529Y-3.9586
X2.7027Y-3.9112
X2.8352Y-3.9506
X2.8927Y-4.064
X2.9467Y-4.064
X3.1272Y-3.9508
X3.1946Y-4.0332
X3.415Y-1.8228
X3.4215Y-3.9508
X3.5102Y-3.9506
X3.5919Y-4.0356
T2
X3.9Y-1.95
X3.9Y-2.05
T3
X1.5881Y-2.8786
X1.7646Y-2.341
X1.7713Y-2.2269
X1.9869Y-2.7605
X3.3471Y-4.0753
X3.6267Y-2.0451
T4
X3.4Y-1.3
X3.45Y-1.3
X3.5Y-1.3
X3.65Y-1.3
X3.7Y-1.3
X3.75Y-1.3
T5
X3.6657Y-2.8
X4.4531Y-2.8
T6
X1.2205Y-1.4131
X1.2205Y-1.7792
X1.3583Y-1.4131
X1.3583Y-1.7792
X1.44Y-3.0
X1.44Y-3.1
X1.44Y-3.2
X1.44Y-3.3
X1.44Y-3.4
X1.44Y-3.5
X1.44Y-3.6
X1.44Y-3.7
X1.44Y-3.8
X1.44Y-3.9
X1.74Y-3.0
X1.74Y-3.1
X1.74Y-3.2
X1.74Y-3.3
X1.74Y-3.4
X1.74Y-3.5
X1.74Y-3.6
X1.74Y-3.7
X1.74Y-3.8
X1.74Y-3.9
X1.775Y-4.4523
X1.775Y-4.5901
X2.51Y-1.75
X2.51Y-1.85
X2.51Y-1.95
X2.51Y-2.05
X2.51Y-2.15
X2.51Y-2.25
X2.51Y-2.35
X2.51Y-2.45
X2.51Y-2.55
X2.51Y-2.65
X2.51Y-2.75
X2.51Y-2.85
X2.51Y-2.95
X2.51Y-3.05
X2.51Y-3.15
X2.51Y-3.25
X2.51Y-3.35
X2.51Y-3.45
X2.51Y-3.55
X2.51Y-3.65
X3.11Y-1.75
X3.11Y-1.85
X3.11Y-1.95
X3.11Y-2.05
X3.11Y-2.15
X3.11Y-2.25
X3.11Y-2.35
X3.11Y-2.45
X3.11Y-2.55
X3.11Y-2.65
X3.11Y-2.75
X3.11Y-2.85
X3.11Y-2.95
X3.11Y-3.05
X3.11Y-3.15
X3.11Y-3.25
X3.11Y-3.35
X3.11Y-3.45
X3.11Y-3.55
X3.11Y-3.65
T7
X4.05Y-4.5504
X4.05Y-4.6504
X4.275Y-4.55
X4.275Y-4.65
T8
X0.8874Y-1.2047
X0.8874Y-1.3047
X0.8874Y-1.4047
X0.8874Y-1.5047
X0.8874Y-1.8059
X0.8874Y-1.9059
X0.8874Y-2.0059
X0.8874Y-2.1059
X0.8874Y-2.2059
X0.8874Y-2.3059
X0.8874Y-2.4059
X0.8874Y-2.5059
X0.8874Y-2.6059
X0.8874Y-2.7059
X0.8874Y-2.8059
X0.8874Y-2.9059
X0.8874Y-3.0059
X0.8874Y-3.1059
X0.8874Y-3.2059
X0.8874Y-3.3059
X0.8874Y-3.4059
X0.8874Y-3.5059
X0.8874Y-3.6059
X0.8874Y-3.7059
X0.8874Y-4.0071
X0.8874Y-4.1071
X0.8874Y-4.2071
X0.8874Y-4.3071
X0.9874Y-1.2047
X0.9874Y-1.3047
X0.9874Y-1.4047
X0.9874Y-1.5047
X0.9874Y-1.8059
X0.9874Y-1.9059
X0.9874Y-2.0059
X0.9874Y-2.1059
X0.9874Y-2.2059
X0.9874Y-2.3059
X0.9874Y-2.4059
X0.9874Y-2.5059
X0.9874Y-2.6059
X0.9874Y-2.7059
X0.9874Y-2.8059
X0.9874Y-2.9059
X0.9874Y-3.0059
X0.9874Y-3.1059
X0.9874Y-3.2059
X0.9874Y-3.3059
X0.9874Y-3.4059
X0.9874Y-3.5059
X0.9874Y-3.6059
X0.9874Y-3.7059
X0.9874Y-4.0071
X0.9874Y-4.1071
X0.9874Y-4.2071
X0.9874Y-4.3071
X1.5559Y-0.9
X1.5559Y-1.0
X1.6559Y-0.9
X1.6559Y-1.0
X1.7559Y-0.9
X1.7559Y-1.0
X1.8559Y-0.9
X1.8559Y-1.0
X1.9559Y-0.9
X1.9559Y-1.0
X2.0559Y-0.9
X2.0559Y-1.0
X2.125Y-4.65
X2.15Y-3.55
X2.15Y-3.65
X2.15Y-3.75
X2.15Y-3.85
X2.15Y-3.95
X2.1559Y-0.9
X2.1559Y-1.0
X2.225Y-4.65
X2.2559Y-0.9
X2.2559Y-1.0
X2.325Y-4.65
X2.3559Y-0.9
X2.3559Y-1.0
X2.425Y-4.65
X2.4559Y-0.9
X2.4559Y-1.0
X2.525Y-4.65
X2.5559Y-0.9
X2.5559Y-1.0
X2.6559Y-0.9
X2.6559Y-1.0
X2.7559Y-0.9
X2.7559Y-1.0
X2.8559Y-0.9
X2.8559Y-1.0
X2.9559Y-0.9
X2.9559Y-1.0
X3.0559Y-0.9
X3.0559Y-1.0
X3.1559Y-0.9
X3.1559Y-1.0
X3.2559Y-0.9
X3.2559Y-1.0
X3.3559Y-0.9
X3.3559Y-1.0
X3.4559Y-0.9
X3.4559Y-1.0
X3.5559Y-0.9
X3.5559Y-1.0
X3.6559Y-0.9
X3.6559Y-1.0
X3.7559Y-0.9
X3.7559Y-1.0
X3.8559Y-0.9
X3.8559Y-1.0
X3.9559Y-0.9
X3.9559Y-1.0
T0
M30
