%TF.GenerationSoftware,KiCad,Pcbnew,7.0.0-da2b9df05c~171~ubuntu22.04.1*%
%TF.CreationDate,2023-03-08T20:12:18-05:00*%
%TF.ProjectId,main,6d61696e-2e6b-4696-9361-645f70636258,rev?*%
%TF.SameCoordinates,Original*%
%TF.FileFunction,Soldermask,Top*%
%TF.FilePolarity,Negative*%
%FSLAX46Y46*%
G04 Gerber Fmt 4.6, Leading zero omitted, Abs format (unit mm)*
G04 Created by KiCad (PCBNEW 7.0.0-da2b9df05c~171~ubuntu22.04.1) date 2023-03-08 20:12:18*
%MOMM*%
%LPD*%
G01*
G04 APERTURE LIST*
G04 Aperture macros list*
%AMRoundRect*
0 Rectangle with rounded corners*
0 $1 Rounding radius*
0 $2 $3 $4 $5 $6 $7 $8 $9 X,Y pos of 4 corners*
0 Add a 4 corners polygon primitive as box body*
4,1,4,$2,$3,$4,$5,$6,$7,$8,$9,$2,$3,0*
0 Add four circle primitives for the rounded corners*
1,1,$1+$1,$2,$3*
1,1,$1+$1,$4,$5*
1,1,$1+$1,$6,$7*
1,1,$1+$1,$8,$9*
0 Add four rect primitives between the rounded corners*
20,1,$1+$1,$2,$3,$4,$5,0*
20,1,$1+$1,$4,$5,$6,$7,0*
20,1,$1+$1,$6,$7,$8,$9,0*
20,1,$1+$1,$8,$9,$2,$3,0*%
G04 Aperture macros list end*
%ADD10C,3.200000*%
%ADD11R,1.700000X1.700000*%
%ADD12O,1.700000X1.700000*%
%ADD13R,1.600000X1.600000*%
%ADD14C,1.600000*%
%ADD15RoundRect,0.250000X-0.250000X-0.475000X0.250000X-0.475000X0.250000X0.475000X-0.250000X0.475000X0*%
%ADD16C,1.100000*%
%ADD17R,1.000000X1.500000*%
%ADD18R,0.700000X1.500000*%
%ADD19R,0.750000X1.500000*%
%ADD20R,1.500000X2.800000*%
%ADD21R,1.500000X2.000000*%
%ADD22R,3.800000X2.000000*%
%ADD23O,1.600000X1.600000*%
%ADD24RoundRect,0.250000X-0.450000X0.262500X-0.450000X-0.262500X0.450000X-0.262500X0.450000X0.262500X0*%
%ADD25R,1.800000X1.800000*%
%ADD26C,1.800000*%
%ADD27RoundRect,0.250000X0.262500X0.450000X-0.262500X0.450000X-0.262500X-0.450000X0.262500X-0.450000X0*%
%ADD28C,1.000000*%
%ADD29R,1.050000X1.500000*%
%ADD30O,1.050000X1.500000*%
%ADD31RoundRect,0.150000X-0.725000X-0.150000X0.725000X-0.150000X0.725000X0.150000X-0.725000X0.150000X0*%
%ADD32RoundRect,0.250000X0.450000X-0.262500X0.450000X0.262500X-0.450000X0.262500X-0.450000X-0.262500X0*%
%ADD33RoundRect,0.150000X0.825000X0.150000X-0.825000X0.150000X-0.825000X-0.150000X0.825000X-0.150000X0*%
%ADD34R,2.000000X4.500000*%
%ADD35C,1.524000*%
%ADD36RoundRect,0.150000X-0.837500X-0.150000X0.837500X-0.150000X0.837500X0.150000X-0.837500X0.150000X0*%
G04 APERTURE END LIST*
D10*
%TO.C,M1*%
X116500000Y-23500000D03*
%TD*%
%TO.C,M2*%
X116500000Y-116500000D03*
%TD*%
%TO.C,M3*%
X23500000Y-23500000D03*
%TD*%
%TO.C,M4*%
X23500000Y-116500000D03*
%TD*%
D11*
%TO.C,J1*%
X22539999Y-101779999D03*
D12*
X25079999Y-101779999D03*
X22539999Y-104319999D03*
X25079999Y-104319999D03*
X22539999Y-106859999D03*
X25079999Y-106859999D03*
X22539999Y-109399999D03*
X25079999Y-109399999D03*
%TD*%
D11*
%TO.C,J5*%
X22539999Y-30599999D03*
D12*
X25079999Y-30599999D03*
X22539999Y-33139999D03*
X25079999Y-33139999D03*
X22539999Y-35679999D03*
X25079999Y-35679999D03*
X22539999Y-38219999D03*
X25079999Y-38219999D03*
%TD*%
D11*
%TO.C,J2*%
X22539999Y-45869999D03*
D12*
X25079999Y-45869999D03*
X22539999Y-48409999D03*
X25079999Y-48409999D03*
X22539999Y-50949999D03*
X25079999Y-50949999D03*
X22539999Y-53489999D03*
X25079999Y-53489999D03*
X22539999Y-56029999D03*
X25079999Y-56029999D03*
X22539999Y-58569999D03*
X25079999Y-58569999D03*
X22539999Y-61109999D03*
X25079999Y-61109999D03*
X22539999Y-63649999D03*
X25079999Y-63649999D03*
X22539999Y-66189999D03*
X25079999Y-66189999D03*
X22539999Y-68729999D03*
X25079999Y-68729999D03*
X22539999Y-71269999D03*
X25079999Y-71269999D03*
X22539999Y-73809999D03*
X25079999Y-73809999D03*
X22539999Y-76349999D03*
X25079999Y-76349999D03*
X22539999Y-78889999D03*
X25079999Y-78889999D03*
X22539999Y-81429999D03*
X25079999Y-81429999D03*
X22539999Y-83969999D03*
X25079999Y-83969999D03*
X22539999Y-86509999D03*
X25079999Y-86509999D03*
X22539999Y-89049999D03*
X25079999Y-89049999D03*
X22539999Y-91589999D03*
X25079999Y-91589999D03*
X22539999Y-94129999D03*
X25079999Y-94129999D03*
%TD*%
D13*
%TO.C,C4*%
X30999999Y-35892799D03*
D14*
X34500000Y-35892800D03*
%TD*%
D13*
%TO.C,C1*%
X30999999Y-45192799D03*
D14*
X34500000Y-45192800D03*
%TD*%
D13*
%TO.C,C9*%
X45084999Y-116587699D03*
D14*
X45085000Y-113087700D03*
%TD*%
D15*
%TO.C,C5*%
X35560000Y-106045000D03*
X37460000Y-106045000D03*
%TD*%
%TO.C,C7*%
X35560000Y-108585000D03*
X37460000Y-108585000D03*
%TD*%
D16*
%TO.C,J9*%
X71370000Y-104775000D03*
D14*
X92370000Y-104775000D03*
D17*
X89749999Y-101974999D03*
X87249999Y-101974999D03*
X84749999Y-101974999D03*
X82249999Y-101974999D03*
X79749999Y-101974999D03*
X77249999Y-101974999D03*
X74819999Y-101974999D03*
X73119999Y-101974999D03*
X92249999Y-101974999D03*
D18*
X71819999Y-101974999D03*
D19*
X70619999Y-101974999D03*
D20*
X69219999Y-103774999D03*
X69219999Y-118274999D03*
X94319999Y-103774999D03*
X96519999Y-118274999D03*
%TD*%
D21*
%TO.C,U1*%
X38894999Y-111639999D03*
X36594999Y-111639999D03*
D22*
X36594999Y-117939999D03*
D21*
X34294999Y-111639999D03*
%TD*%
D13*
%TO.C,U2*%
X78993999Y-92709999D03*
D23*
X78993999Y-90169999D03*
X78993999Y-87629999D03*
X78993999Y-85089999D03*
X78993999Y-82549999D03*
X78993999Y-80009999D03*
X78993999Y-77469999D03*
X78993999Y-74929999D03*
X78993999Y-72389999D03*
X78993999Y-69849999D03*
X78993999Y-67309999D03*
X78993999Y-64769999D03*
X78993999Y-62229999D03*
X78993999Y-59689999D03*
X78993999Y-57149999D03*
X78993999Y-54609999D03*
X78993999Y-52069999D03*
X78993999Y-49529999D03*
X78993999Y-46989999D03*
X78993999Y-44449999D03*
X63753999Y-44449999D03*
X63753999Y-46989999D03*
X63753999Y-49529999D03*
X63753999Y-52069999D03*
X63753999Y-54609999D03*
X63753999Y-57149999D03*
X63753999Y-59689999D03*
X63753999Y-62229999D03*
X63753999Y-64769999D03*
X63753999Y-67309999D03*
X63753999Y-69849999D03*
X63753999Y-72389999D03*
X63753999Y-74929999D03*
X63753999Y-77469999D03*
X63753999Y-80009999D03*
X63753999Y-82549999D03*
X63753999Y-85089999D03*
X63753999Y-87629999D03*
X63753999Y-90169999D03*
X63753999Y-92709999D03*
%TD*%
D24*
%TO.C,R20*%
X108585000Y-110847500D03*
X108585000Y-112672500D03*
%TD*%
D25*
%TO.C,D2*%
X108584999Y-118109999D03*
D26*
X108585000Y-115570000D03*
%TD*%
D27*
%TO.C,R1*%
X91440000Y-40005000D03*
X89615000Y-40005000D03*
%TD*%
D28*
%TO.C,Y2*%
X99060000Y-52070000D03*
X99060000Y-49530000D03*
%TD*%
D29*
%TO.C,Q2*%
X86359999Y-33019999D03*
D30*
X87629999Y-33019999D03*
X88899999Y-33019999D03*
%TD*%
D13*
%TO.C,U7*%
X36575999Y-76199999D03*
D23*
X36575999Y-78739999D03*
X36575999Y-81279999D03*
X36575999Y-83819999D03*
X36575999Y-86359999D03*
X36575999Y-88899999D03*
X36575999Y-91439999D03*
X36575999Y-93979999D03*
X36575999Y-96519999D03*
X36575999Y-99059999D03*
X44195999Y-99059999D03*
X44195999Y-96519999D03*
X44195999Y-93979999D03*
X44195999Y-91439999D03*
X44195999Y-88899999D03*
X44195999Y-86359999D03*
X44195999Y-83819999D03*
X44195999Y-81279999D03*
X44195999Y-78739999D03*
X44195999Y-76199999D03*
%TD*%
D29*
%TO.C,Q1*%
X92709999Y-33019999D03*
D30*
X93979999Y-33019999D03*
X95249999Y-33019999D03*
%TD*%
D31*
%TO.C,U6*%
X51181000Y-60325000D03*
X51181000Y-61595000D03*
X51181000Y-62865000D03*
X51181000Y-64135000D03*
X51181000Y-65405000D03*
X51181000Y-66675000D03*
X51181000Y-67945000D03*
X51181000Y-69215000D03*
X56331000Y-69215000D03*
X56331000Y-67945000D03*
X56331000Y-66675000D03*
X56331000Y-65405000D03*
X56331000Y-64135000D03*
X56331000Y-62865000D03*
X56331000Y-61595000D03*
X56331000Y-60325000D03*
%TD*%
D32*
%TO.C,R17*%
X82423000Y-45339000D03*
X82423000Y-43514000D03*
%TD*%
D25*
%TO.C,D1*%
X102869999Y-118119999D03*
D26*
X102870000Y-115580000D03*
%TD*%
D33*
%TO.C,U5*%
X95585000Y-51405000D03*
X95585000Y-50135000D03*
X95585000Y-48865000D03*
X95585000Y-47595000D03*
X90635000Y-47595000D03*
X90635000Y-48865000D03*
X90635000Y-50135000D03*
X90635000Y-51405000D03*
%TD*%
D32*
%TO.C,R16*%
X87503000Y-45339000D03*
X87503000Y-43514000D03*
%TD*%
D11*
%TO.C,U3*%
X39519999Y-22859999D03*
D12*
X39519999Y-25399999D03*
X42059999Y-22859999D03*
X42059999Y-25399999D03*
X44599999Y-22859999D03*
X44599999Y-25399999D03*
X47139999Y-22859999D03*
X47139999Y-25399999D03*
X49679999Y-22859999D03*
X49679999Y-25399999D03*
X52219999Y-22859999D03*
X52219999Y-25399999D03*
X54759999Y-22859999D03*
X54759999Y-25399999D03*
X57299999Y-22859999D03*
X57299999Y-25399999D03*
X59839999Y-22859999D03*
X59839999Y-25399999D03*
X62379999Y-22859999D03*
X62379999Y-25399999D03*
X64919999Y-22859999D03*
X64919999Y-25399999D03*
X67459999Y-22859999D03*
X67459999Y-25399999D03*
X69999999Y-22859999D03*
X69999999Y-25399999D03*
X72539999Y-22859999D03*
X72539999Y-25399999D03*
X75079999Y-22859999D03*
X75079999Y-25399999D03*
X77619999Y-22859999D03*
X77619999Y-25399999D03*
X80159999Y-22859999D03*
X80159999Y-25399999D03*
X82699999Y-22859999D03*
X82699999Y-25399999D03*
X85239999Y-22859999D03*
X85239999Y-25399999D03*
X87779999Y-22859999D03*
X87779999Y-25399999D03*
X90319999Y-22859999D03*
X90319999Y-25399999D03*
X92859999Y-22859999D03*
X92859999Y-25399999D03*
X95399999Y-22859999D03*
X95399999Y-25399999D03*
X97939999Y-22859999D03*
X97939999Y-25399999D03*
X100479999Y-22859999D03*
X100479999Y-25399999D03*
%TD*%
D11*
%TO.C,J4*%
X64134999Y-118109999D03*
D12*
X61594999Y-118109999D03*
X59054999Y-118109999D03*
X56514999Y-118109999D03*
X53974999Y-118109999D03*
%TD*%
D34*
%TO.C,Y1*%
X84454999Y-56514999D03*
X84454999Y-65014999D03*
%TD*%
D24*
%TO.C,R19*%
X102870000Y-110847500D03*
X102870000Y-112672500D03*
%TD*%
D32*
%TO.C,R18*%
X84963000Y-45339000D03*
X84963000Y-43514000D03*
%TD*%
D11*
%TO.C,J3*%
X54609999Y-90169999D03*
D12*
X54609999Y-92709999D03*
X54609999Y-95249999D03*
X54609999Y-97789999D03*
X54609999Y-100329999D03*
%TD*%
D35*
%TO.C,BT1*%
X93110000Y-71120000D03*
X113110000Y-71120000D03*
%TD*%
D27*
%TO.C,R2*%
X91440000Y-36830000D03*
X89615000Y-36830000D03*
%TD*%
D36*
%TO.C,U4*%
X36830000Y-60325000D03*
X36830000Y-61595000D03*
X36830000Y-62865000D03*
X36830000Y-64135000D03*
X36830000Y-65405000D03*
X36830000Y-66675000D03*
X36830000Y-67945000D03*
X36830000Y-69215000D03*
X36830000Y-70485000D03*
X36830000Y-71755000D03*
X43755000Y-71755000D03*
X43755000Y-70485000D03*
X43755000Y-69215000D03*
X43755000Y-67945000D03*
X43755000Y-66675000D03*
X43755000Y-65405000D03*
X43755000Y-64135000D03*
X43755000Y-62865000D03*
X43755000Y-61595000D03*
X43755000Y-60325000D03*
%TD*%
M02*
