%TF.GenerationSoftware,KiCad,Pcbnew,7.0.0-da2b9df05c~171~ubuntu22.04.1*%
%TF.CreationDate,2023-03-08T20:12:18-05:00*%
%TF.ProjectId,main,6d61696e-2e6b-4696-9361-645f70636258,rev?*%
%TF.SameCoordinates,Original*%
%TF.FileFunction,Legend,Top*%
%TF.FilePolarity,Positive*%
%FSLAX46Y46*%
G04 Gerber Fmt 4.6, Leading zero omitted, Abs format (unit mm)*
G04 Created by KiCad (PCBNEW 7.0.0-da2b9df05c~171~ubuntu22.04.1) date 2023-03-08 20:12:18*
%MOMM*%
%LPD*%
G01*
G04 APERTURE LIST*
%ADD10C,0.300000*%
%ADD11C,0.200000*%
%ADD12C,0.150000*%
%ADD13C,0.120000*%
G04 APERTURE END LIST*
D10*
X57082857Y-99905000D02*
X56940000Y-99833571D01*
X56940000Y-99833571D02*
X56725714Y-99833571D01*
X56725714Y-99833571D02*
X56511428Y-99905000D01*
X56511428Y-99905000D02*
X56368571Y-100047857D01*
X56368571Y-100047857D02*
X56297142Y-100190714D01*
X56297142Y-100190714D02*
X56225714Y-100476428D01*
X56225714Y-100476428D02*
X56225714Y-100690714D01*
X56225714Y-100690714D02*
X56297142Y-100976428D01*
X56297142Y-100976428D02*
X56368571Y-101119285D01*
X56368571Y-101119285D02*
X56511428Y-101262142D01*
X56511428Y-101262142D02*
X56725714Y-101333571D01*
X56725714Y-101333571D02*
X56868571Y-101333571D01*
X56868571Y-101333571D02*
X57082857Y-101262142D01*
X57082857Y-101262142D02*
X57154285Y-101190714D01*
X57154285Y-101190714D02*
X57154285Y-100690714D01*
X57154285Y-100690714D02*
X56868571Y-100690714D01*
X57797142Y-101333571D02*
X57797142Y-99833571D01*
X57797142Y-99833571D02*
X58654285Y-101333571D01*
X58654285Y-101333571D02*
X58654285Y-99833571D01*
X59368571Y-101333571D02*
X59368571Y-99833571D01*
X59368571Y-99833571D02*
X59725714Y-99833571D01*
X59725714Y-99833571D02*
X59940000Y-99905000D01*
X59940000Y-99905000D02*
X60082857Y-100047857D01*
X60082857Y-100047857D02*
X60154286Y-100190714D01*
X60154286Y-100190714D02*
X60225714Y-100476428D01*
X60225714Y-100476428D02*
X60225714Y-100690714D01*
X60225714Y-100690714D02*
X60154286Y-100976428D01*
X60154286Y-100976428D02*
X60082857Y-101119285D01*
X60082857Y-101119285D02*
X59940000Y-101262142D01*
X59940000Y-101262142D02*
X59725714Y-101333571D01*
X59725714Y-101333571D02*
X59368571Y-101333571D01*
X56297142Y-98733571D02*
X56297142Y-97233571D01*
X56297142Y-97233571D02*
X56797142Y-98305000D01*
X56797142Y-98305000D02*
X57297142Y-97233571D01*
X57297142Y-97233571D02*
X57297142Y-98733571D01*
X58868571Y-98590714D02*
X58797143Y-98662142D01*
X58797143Y-98662142D02*
X58582857Y-98733571D01*
X58582857Y-98733571D02*
X58440000Y-98733571D01*
X58440000Y-98733571D02*
X58225714Y-98662142D01*
X58225714Y-98662142D02*
X58082857Y-98519285D01*
X58082857Y-98519285D02*
X58011428Y-98376428D01*
X58011428Y-98376428D02*
X57940000Y-98090714D01*
X57940000Y-98090714D02*
X57940000Y-97876428D01*
X57940000Y-97876428D02*
X58011428Y-97590714D01*
X58011428Y-97590714D02*
X58082857Y-97447857D01*
X58082857Y-97447857D02*
X58225714Y-97305000D01*
X58225714Y-97305000D02*
X58440000Y-97233571D01*
X58440000Y-97233571D02*
X58582857Y-97233571D01*
X58582857Y-97233571D02*
X58797143Y-97305000D01*
X58797143Y-97305000D02*
X58868571Y-97376428D01*
X60225714Y-98733571D02*
X59511428Y-98733571D01*
X59511428Y-98733571D02*
X59511428Y-97233571D01*
X61582857Y-98733571D02*
X61082857Y-98019285D01*
X60725714Y-98733571D02*
X60725714Y-97233571D01*
X60725714Y-97233571D02*
X61297143Y-97233571D01*
X61297143Y-97233571D02*
X61440000Y-97305000D01*
X61440000Y-97305000D02*
X61511429Y-97376428D01*
X61511429Y-97376428D02*
X61582857Y-97519285D01*
X61582857Y-97519285D02*
X61582857Y-97733571D01*
X61582857Y-97733571D02*
X61511429Y-97876428D01*
X61511429Y-97876428D02*
X61440000Y-97947857D01*
X61440000Y-97947857D02*
X61297143Y-98019285D01*
X61297143Y-98019285D02*
X60725714Y-98019285D01*
X57011428Y-94723571D02*
X56297142Y-94723571D01*
X56297142Y-94723571D02*
X56225714Y-95437857D01*
X56225714Y-95437857D02*
X56297142Y-95366428D01*
X56297142Y-95366428D02*
X56440000Y-95295000D01*
X56440000Y-95295000D02*
X56797142Y-95295000D01*
X56797142Y-95295000D02*
X56940000Y-95366428D01*
X56940000Y-95366428D02*
X57011428Y-95437857D01*
X57011428Y-95437857D02*
X57082857Y-95580714D01*
X57082857Y-95580714D02*
X57082857Y-95937857D01*
X57082857Y-95937857D02*
X57011428Y-96080714D01*
X57011428Y-96080714D02*
X56940000Y-96152142D01*
X56940000Y-96152142D02*
X56797142Y-96223571D01*
X56797142Y-96223571D02*
X56440000Y-96223571D01*
X56440000Y-96223571D02*
X56297142Y-96152142D01*
X56297142Y-96152142D02*
X56225714Y-96080714D01*
X57511428Y-94723571D02*
X58011428Y-96223571D01*
X58011428Y-96223571D02*
X58511428Y-94723571D01*
X56237142Y-93653571D02*
X56237142Y-92153571D01*
X56237142Y-92153571D02*
X56808571Y-92153571D01*
X56808571Y-92153571D02*
X56951428Y-92225000D01*
X56951428Y-92225000D02*
X57022857Y-92296428D01*
X57022857Y-92296428D02*
X57094285Y-92439285D01*
X57094285Y-92439285D02*
X57094285Y-92653571D01*
X57094285Y-92653571D02*
X57022857Y-92796428D01*
X57022857Y-92796428D02*
X56951428Y-92867857D01*
X56951428Y-92867857D02*
X56808571Y-92939285D01*
X56808571Y-92939285D02*
X56237142Y-92939285D01*
X58522857Y-92225000D02*
X58380000Y-92153571D01*
X58380000Y-92153571D02*
X58165714Y-92153571D01*
X58165714Y-92153571D02*
X57951428Y-92225000D01*
X57951428Y-92225000D02*
X57808571Y-92367857D01*
X57808571Y-92367857D02*
X57737142Y-92510714D01*
X57737142Y-92510714D02*
X57665714Y-92796428D01*
X57665714Y-92796428D02*
X57665714Y-93010714D01*
X57665714Y-93010714D02*
X57737142Y-93296428D01*
X57737142Y-93296428D02*
X57808571Y-93439285D01*
X57808571Y-93439285D02*
X57951428Y-93582142D01*
X57951428Y-93582142D02*
X58165714Y-93653571D01*
X58165714Y-93653571D02*
X58308571Y-93653571D01*
X58308571Y-93653571D02*
X58522857Y-93582142D01*
X58522857Y-93582142D02*
X58594285Y-93510714D01*
X58594285Y-93510714D02*
X58594285Y-93010714D01*
X58594285Y-93010714D02*
X58308571Y-93010714D01*
X60094285Y-93510714D02*
X60022857Y-93582142D01*
X60022857Y-93582142D02*
X59808571Y-93653571D01*
X59808571Y-93653571D02*
X59665714Y-93653571D01*
X59665714Y-93653571D02*
X59451428Y-93582142D01*
X59451428Y-93582142D02*
X59308571Y-93439285D01*
X59308571Y-93439285D02*
X59237142Y-93296428D01*
X59237142Y-93296428D02*
X59165714Y-93010714D01*
X59165714Y-93010714D02*
X59165714Y-92796428D01*
X59165714Y-92796428D02*
X59237142Y-92510714D01*
X59237142Y-92510714D02*
X59308571Y-92367857D01*
X59308571Y-92367857D02*
X59451428Y-92225000D01*
X59451428Y-92225000D02*
X59665714Y-92153571D01*
X59665714Y-92153571D02*
X59808571Y-92153571D01*
X59808571Y-92153571D02*
X60022857Y-92225000D01*
X60022857Y-92225000D02*
X60094285Y-92296428D01*
X56237142Y-91113571D02*
X56237142Y-89613571D01*
X56237142Y-89613571D02*
X56808571Y-89613571D01*
X56808571Y-89613571D02*
X56951428Y-89685000D01*
X56951428Y-89685000D02*
X57022857Y-89756428D01*
X57022857Y-89756428D02*
X57094285Y-89899285D01*
X57094285Y-89899285D02*
X57094285Y-90113571D01*
X57094285Y-90113571D02*
X57022857Y-90256428D01*
X57022857Y-90256428D02*
X56951428Y-90327857D01*
X56951428Y-90327857D02*
X56808571Y-90399285D01*
X56808571Y-90399285D02*
X56237142Y-90399285D01*
X58522857Y-89685000D02*
X58380000Y-89613571D01*
X58380000Y-89613571D02*
X58165714Y-89613571D01*
X58165714Y-89613571D02*
X57951428Y-89685000D01*
X57951428Y-89685000D02*
X57808571Y-89827857D01*
X57808571Y-89827857D02*
X57737142Y-89970714D01*
X57737142Y-89970714D02*
X57665714Y-90256428D01*
X57665714Y-90256428D02*
X57665714Y-90470714D01*
X57665714Y-90470714D02*
X57737142Y-90756428D01*
X57737142Y-90756428D02*
X57808571Y-90899285D01*
X57808571Y-90899285D02*
X57951428Y-91042142D01*
X57951428Y-91042142D02*
X58165714Y-91113571D01*
X58165714Y-91113571D02*
X58308571Y-91113571D01*
X58308571Y-91113571D02*
X58522857Y-91042142D01*
X58522857Y-91042142D02*
X58594285Y-90970714D01*
X58594285Y-90970714D02*
X58594285Y-90470714D01*
X58594285Y-90470714D02*
X58308571Y-90470714D01*
X59237142Y-91113571D02*
X59237142Y-89613571D01*
X59237142Y-89613571D02*
X59594285Y-89613571D01*
X59594285Y-89613571D02*
X59808571Y-89685000D01*
X59808571Y-89685000D02*
X59951428Y-89827857D01*
X59951428Y-89827857D02*
X60022857Y-89970714D01*
X60022857Y-89970714D02*
X60094285Y-90256428D01*
X60094285Y-90256428D02*
X60094285Y-90470714D01*
X60094285Y-90470714D02*
X60022857Y-90756428D01*
X60022857Y-90756428D02*
X59951428Y-90899285D01*
X59951428Y-90899285D02*
X59808571Y-91042142D01*
X59808571Y-91042142D02*
X59594285Y-91113571D01*
X59594285Y-91113571D02*
X59237142Y-91113571D01*
X63015000Y-115062142D02*
X62943571Y-115205000D01*
X62943571Y-115205000D02*
X62943571Y-115419285D01*
X62943571Y-115419285D02*
X63015000Y-115633571D01*
X63015000Y-115633571D02*
X63157857Y-115776428D01*
X63157857Y-115776428D02*
X63300714Y-115847857D01*
X63300714Y-115847857D02*
X63586428Y-115919285D01*
X63586428Y-115919285D02*
X63800714Y-115919285D01*
X63800714Y-115919285D02*
X64086428Y-115847857D01*
X64086428Y-115847857D02*
X64229285Y-115776428D01*
X64229285Y-115776428D02*
X64372142Y-115633571D01*
X64372142Y-115633571D02*
X64443571Y-115419285D01*
X64443571Y-115419285D02*
X64443571Y-115276428D01*
X64443571Y-115276428D02*
X64372142Y-115062142D01*
X64372142Y-115062142D02*
X64300714Y-114990714D01*
X64300714Y-114990714D02*
X63800714Y-114990714D01*
X63800714Y-114990714D02*
X63800714Y-115276428D01*
X64443571Y-114347857D02*
X62943571Y-114347857D01*
X62943571Y-114347857D02*
X64443571Y-113490714D01*
X64443571Y-113490714D02*
X62943571Y-113490714D01*
X64443571Y-112776428D02*
X62943571Y-112776428D01*
X62943571Y-112776428D02*
X62943571Y-112419285D01*
X62943571Y-112419285D02*
X63015000Y-112204999D01*
X63015000Y-112204999D02*
X63157857Y-112062142D01*
X63157857Y-112062142D02*
X63300714Y-111990713D01*
X63300714Y-111990713D02*
X63586428Y-111919285D01*
X63586428Y-111919285D02*
X63800714Y-111919285D01*
X63800714Y-111919285D02*
X64086428Y-111990713D01*
X64086428Y-111990713D02*
X64229285Y-112062142D01*
X64229285Y-112062142D02*
X64372142Y-112204999D01*
X64372142Y-112204999D02*
X64443571Y-112419285D01*
X64443571Y-112419285D02*
X64443571Y-112776428D01*
X61903571Y-114990714D02*
X61189285Y-115490714D01*
X61903571Y-115847857D02*
X60403571Y-115847857D01*
X60403571Y-115847857D02*
X60403571Y-115276428D01*
X60403571Y-115276428D02*
X60475000Y-115133571D01*
X60475000Y-115133571D02*
X60546428Y-115062142D01*
X60546428Y-115062142D02*
X60689285Y-114990714D01*
X60689285Y-114990714D02*
X60903571Y-114990714D01*
X60903571Y-114990714D02*
X61046428Y-115062142D01*
X61046428Y-115062142D02*
X61117857Y-115133571D01*
X61117857Y-115133571D02*
X61189285Y-115276428D01*
X61189285Y-115276428D02*
X61189285Y-115847857D01*
X60403571Y-114562142D02*
X60403571Y-113705000D01*
X61903571Y-114133571D02*
X60403571Y-114133571D01*
X61832142Y-113276428D02*
X61903571Y-113062143D01*
X61903571Y-113062143D02*
X61903571Y-112705000D01*
X61903571Y-112705000D02*
X61832142Y-112562143D01*
X61832142Y-112562143D02*
X61760714Y-112490714D01*
X61760714Y-112490714D02*
X61617857Y-112419285D01*
X61617857Y-112419285D02*
X61475000Y-112419285D01*
X61475000Y-112419285D02*
X61332142Y-112490714D01*
X61332142Y-112490714D02*
X61260714Y-112562143D01*
X61260714Y-112562143D02*
X61189285Y-112705000D01*
X61189285Y-112705000D02*
X61117857Y-112990714D01*
X61117857Y-112990714D02*
X61046428Y-113133571D01*
X61046428Y-113133571D02*
X60975000Y-113205000D01*
X60975000Y-113205000D02*
X60832142Y-113276428D01*
X60832142Y-113276428D02*
X60689285Y-113276428D01*
X60689285Y-113276428D02*
X60546428Y-113205000D01*
X60546428Y-113205000D02*
X60475000Y-113133571D01*
X60475000Y-113133571D02*
X60403571Y-112990714D01*
X60403571Y-112990714D02*
X60403571Y-112633571D01*
X60403571Y-112633571D02*
X60475000Y-112419285D01*
X59220714Y-114990714D02*
X59292142Y-115062142D01*
X59292142Y-115062142D02*
X59363571Y-115276428D01*
X59363571Y-115276428D02*
X59363571Y-115419285D01*
X59363571Y-115419285D02*
X59292142Y-115633571D01*
X59292142Y-115633571D02*
X59149285Y-115776428D01*
X59149285Y-115776428D02*
X59006428Y-115847857D01*
X59006428Y-115847857D02*
X58720714Y-115919285D01*
X58720714Y-115919285D02*
X58506428Y-115919285D01*
X58506428Y-115919285D02*
X58220714Y-115847857D01*
X58220714Y-115847857D02*
X58077857Y-115776428D01*
X58077857Y-115776428D02*
X57935000Y-115633571D01*
X57935000Y-115633571D02*
X57863571Y-115419285D01*
X57863571Y-115419285D02*
X57863571Y-115276428D01*
X57863571Y-115276428D02*
X57935000Y-115062142D01*
X57935000Y-115062142D02*
X58006428Y-114990714D01*
X57863571Y-114562142D02*
X57863571Y-113705000D01*
X59363571Y-114133571D02*
X57863571Y-114133571D01*
X59292142Y-113276428D02*
X59363571Y-113062143D01*
X59363571Y-113062143D02*
X59363571Y-112705000D01*
X59363571Y-112705000D02*
X59292142Y-112562143D01*
X59292142Y-112562143D02*
X59220714Y-112490714D01*
X59220714Y-112490714D02*
X59077857Y-112419285D01*
X59077857Y-112419285D02*
X58935000Y-112419285D01*
X58935000Y-112419285D02*
X58792142Y-112490714D01*
X58792142Y-112490714D02*
X58720714Y-112562143D01*
X58720714Y-112562143D02*
X58649285Y-112705000D01*
X58649285Y-112705000D02*
X58577857Y-112990714D01*
X58577857Y-112990714D02*
X58506428Y-113133571D01*
X58506428Y-113133571D02*
X58435000Y-113205000D01*
X58435000Y-113205000D02*
X58292142Y-113276428D01*
X58292142Y-113276428D02*
X58149285Y-113276428D01*
X58149285Y-113276428D02*
X58006428Y-113205000D01*
X58006428Y-113205000D02*
X57935000Y-113133571D01*
X57935000Y-113133571D02*
X57863571Y-112990714D01*
X57863571Y-112990714D02*
X57863571Y-112633571D01*
X57863571Y-112633571D02*
X57935000Y-112419285D01*
X56823571Y-114990714D02*
X56109285Y-115490714D01*
X56823571Y-115847857D02*
X55323571Y-115847857D01*
X55323571Y-115847857D02*
X55323571Y-115276428D01*
X55323571Y-115276428D02*
X55395000Y-115133571D01*
X55395000Y-115133571D02*
X55466428Y-115062142D01*
X55466428Y-115062142D02*
X55609285Y-114990714D01*
X55609285Y-114990714D02*
X55823571Y-114990714D01*
X55823571Y-114990714D02*
X55966428Y-115062142D01*
X55966428Y-115062142D02*
X56037857Y-115133571D01*
X56037857Y-115133571D02*
X56109285Y-115276428D01*
X56109285Y-115276428D02*
X56109285Y-115847857D01*
X55323571Y-114490714D02*
X56823571Y-113490714D01*
X55323571Y-113490714D02*
X56823571Y-114490714D01*
X52783571Y-116062142D02*
X52783571Y-115205000D01*
X54283571Y-115633571D02*
X52783571Y-115633571D01*
X52783571Y-114847857D02*
X54283571Y-113847857D01*
X52783571Y-113847857D02*
X54283571Y-114847857D01*
D11*
X118565357Y-108885713D02*
X118565357Y-109385713D01*
X119351071Y-109385713D02*
X117851071Y-109385713D01*
X117851071Y-109385713D02*
X117851071Y-108671427D01*
X119351071Y-108099999D02*
X118351071Y-108099999D01*
X118636785Y-108099999D02*
X118493928Y-108028570D01*
X118493928Y-108028570D02*
X118422500Y-107957142D01*
X118422500Y-107957142D02*
X118351071Y-107814284D01*
X118351071Y-107814284D02*
X118351071Y-107671427D01*
X119279642Y-106599999D02*
X119351071Y-106742856D01*
X119351071Y-106742856D02*
X119351071Y-107028571D01*
X119351071Y-107028571D02*
X119279642Y-107171428D01*
X119279642Y-107171428D02*
X119136785Y-107242856D01*
X119136785Y-107242856D02*
X118565357Y-107242856D01*
X118565357Y-107242856D02*
X118422500Y-107171428D01*
X118422500Y-107171428D02*
X118351071Y-107028571D01*
X118351071Y-107028571D02*
X118351071Y-106742856D01*
X118351071Y-106742856D02*
X118422500Y-106599999D01*
X118422500Y-106599999D02*
X118565357Y-106528571D01*
X118565357Y-106528571D02*
X118708214Y-106528571D01*
X118708214Y-106528571D02*
X118851071Y-107242856D01*
X119351071Y-105885714D02*
X117851071Y-105885714D01*
X118565357Y-105885714D02*
X118565357Y-105028571D01*
X119351071Y-105028571D02*
X117851071Y-105028571D01*
X119351071Y-104314285D02*
X117851071Y-104314285D01*
X117851071Y-104314285D02*
X117851071Y-103957142D01*
X117851071Y-103957142D02*
X117922500Y-103742856D01*
X117922500Y-103742856D02*
X118065357Y-103599999D01*
X118065357Y-103599999D02*
X118208214Y-103528570D01*
X118208214Y-103528570D02*
X118493928Y-103457142D01*
X118493928Y-103457142D02*
X118708214Y-103457142D01*
X118708214Y-103457142D02*
X118993928Y-103528570D01*
X118993928Y-103528570D02*
X119136785Y-103599999D01*
X119136785Y-103599999D02*
X119279642Y-103742856D01*
X119279642Y-103742856D02*
X119351071Y-103957142D01*
X119351071Y-103957142D02*
X119351071Y-104314285D01*
X118922500Y-101985713D02*
X118922500Y-101271428D01*
X119351071Y-102128570D02*
X117851071Y-101628570D01*
X117851071Y-101628570D02*
X119351071Y-101128570D01*
X119351071Y-100414285D02*
X119279642Y-100557142D01*
X119279642Y-100557142D02*
X119136785Y-100628571D01*
X119136785Y-100628571D02*
X117851071Y-100628571D01*
X118351071Y-99842857D02*
X119351071Y-99842857D01*
X118493928Y-99842857D02*
X118422500Y-99771428D01*
X118422500Y-99771428D02*
X118351071Y-99628571D01*
X118351071Y-99628571D02*
X118351071Y-99414285D01*
X118351071Y-99414285D02*
X118422500Y-99271428D01*
X118422500Y-99271428D02*
X118565357Y-99200000D01*
X118565357Y-99200000D02*
X119351071Y-99200000D01*
X118351071Y-98628571D02*
X119351071Y-98342857D01*
X119351071Y-98342857D02*
X118636785Y-98057142D01*
X118636785Y-98057142D02*
X119351071Y-97771428D01*
X119351071Y-97771428D02*
X118351071Y-97485714D01*
X119351071Y-96699999D02*
X119279642Y-96842856D01*
X119279642Y-96842856D02*
X119136785Y-96914285D01*
X119136785Y-96914285D02*
X117851071Y-96914285D01*
X119279642Y-96199999D02*
X119351071Y-96057142D01*
X119351071Y-96057142D02*
X119351071Y-95771428D01*
X119351071Y-95771428D02*
X119279642Y-95628571D01*
X119279642Y-95628571D02*
X119136785Y-95557142D01*
X119136785Y-95557142D02*
X119065357Y-95557142D01*
X119065357Y-95557142D02*
X118922500Y-95628571D01*
X118922500Y-95628571D02*
X118851071Y-95771428D01*
X118851071Y-95771428D02*
X118851071Y-95985714D01*
X118851071Y-95985714D02*
X118779642Y-96128571D01*
X118779642Y-96128571D02*
X118636785Y-96199999D01*
X118636785Y-96199999D02*
X118565357Y-96199999D01*
X118565357Y-96199999D02*
X118422500Y-96128571D01*
X118422500Y-96128571D02*
X118351071Y-95985714D01*
X118351071Y-95985714D02*
X118351071Y-95771428D01*
X118351071Y-95771428D02*
X118422500Y-95628571D01*
X118351071Y-94914285D02*
X119351071Y-94914285D01*
X118493928Y-94914285D02*
X118422500Y-94842856D01*
X118422500Y-94842856D02*
X118351071Y-94699999D01*
X118351071Y-94699999D02*
X118351071Y-94485713D01*
X118351071Y-94485713D02*
X118422500Y-94342856D01*
X118422500Y-94342856D02*
X118565357Y-94271428D01*
X118565357Y-94271428D02*
X119351071Y-94271428D01*
X117851071Y-92871427D02*
X119351071Y-92371427D01*
X119351071Y-92371427D02*
X117851071Y-91871427D01*
X119279642Y-90799999D02*
X119351071Y-90942856D01*
X119351071Y-90942856D02*
X119351071Y-91228571D01*
X119351071Y-91228571D02*
X119279642Y-91371428D01*
X119279642Y-91371428D02*
X119136785Y-91442856D01*
X119136785Y-91442856D02*
X118565357Y-91442856D01*
X118565357Y-91442856D02*
X118422500Y-91371428D01*
X118422500Y-91371428D02*
X118351071Y-91228571D01*
X118351071Y-91228571D02*
X118351071Y-90942856D01*
X118351071Y-90942856D02*
X118422500Y-90799999D01*
X118422500Y-90799999D02*
X118565357Y-90728571D01*
X118565357Y-90728571D02*
X118708214Y-90728571D01*
X118708214Y-90728571D02*
X118851071Y-91442856D01*
X119351071Y-90085714D02*
X118351071Y-90085714D01*
X118636785Y-90085714D02*
X118493928Y-90014285D01*
X118493928Y-90014285D02*
X118422500Y-89942857D01*
X118422500Y-89942857D02*
X118351071Y-89799999D01*
X118351071Y-89799999D02*
X118351071Y-89657142D01*
X119279642Y-89228571D02*
X119351071Y-89085714D01*
X119351071Y-89085714D02*
X119351071Y-88800000D01*
X119351071Y-88800000D02*
X119279642Y-88657143D01*
X119279642Y-88657143D02*
X119136785Y-88585714D01*
X119136785Y-88585714D02*
X119065357Y-88585714D01*
X119065357Y-88585714D02*
X118922500Y-88657143D01*
X118922500Y-88657143D02*
X118851071Y-88800000D01*
X118851071Y-88800000D02*
X118851071Y-89014286D01*
X118851071Y-89014286D02*
X118779642Y-89157143D01*
X118779642Y-89157143D02*
X118636785Y-89228571D01*
X118636785Y-89228571D02*
X118565357Y-89228571D01*
X118565357Y-89228571D02*
X118422500Y-89157143D01*
X118422500Y-89157143D02*
X118351071Y-89014286D01*
X118351071Y-89014286D02*
X118351071Y-88800000D01*
X118351071Y-88800000D02*
X118422500Y-88657143D01*
X119351071Y-87942857D02*
X118351071Y-87942857D01*
X117851071Y-87942857D02*
X117922500Y-88014285D01*
X117922500Y-88014285D02*
X117993928Y-87942857D01*
X117993928Y-87942857D02*
X117922500Y-87871428D01*
X117922500Y-87871428D02*
X117851071Y-87942857D01*
X117851071Y-87942857D02*
X117993928Y-87942857D01*
X119351071Y-87014285D02*
X119279642Y-87157142D01*
X119279642Y-87157142D02*
X119208214Y-87228571D01*
X119208214Y-87228571D02*
X119065357Y-87299999D01*
X119065357Y-87299999D02*
X118636785Y-87299999D01*
X118636785Y-87299999D02*
X118493928Y-87228571D01*
X118493928Y-87228571D02*
X118422500Y-87157142D01*
X118422500Y-87157142D02*
X118351071Y-87014285D01*
X118351071Y-87014285D02*
X118351071Y-86799999D01*
X118351071Y-86799999D02*
X118422500Y-86657142D01*
X118422500Y-86657142D02*
X118493928Y-86585714D01*
X118493928Y-86585714D02*
X118636785Y-86514285D01*
X118636785Y-86514285D02*
X119065357Y-86514285D01*
X119065357Y-86514285D02*
X119208214Y-86585714D01*
X119208214Y-86585714D02*
X119279642Y-86657142D01*
X119279642Y-86657142D02*
X119351071Y-86799999D01*
X119351071Y-86799999D02*
X119351071Y-87014285D01*
X118351071Y-85871428D02*
X119351071Y-85871428D01*
X118493928Y-85871428D02*
X118422500Y-85799999D01*
X118422500Y-85799999D02*
X118351071Y-85657142D01*
X118351071Y-85657142D02*
X118351071Y-85442856D01*
X118351071Y-85442856D02*
X118422500Y-85299999D01*
X118422500Y-85299999D02*
X118565357Y-85228571D01*
X118565357Y-85228571D02*
X119351071Y-85228571D01*
X117993928Y-83685713D02*
X117922500Y-83614285D01*
X117922500Y-83614285D02*
X117851071Y-83471428D01*
X117851071Y-83471428D02*
X117851071Y-83114285D01*
X117851071Y-83114285D02*
X117922500Y-82971428D01*
X117922500Y-82971428D02*
X117993928Y-82899999D01*
X117993928Y-82899999D02*
X118136785Y-82828570D01*
X118136785Y-82828570D02*
X118279642Y-82828570D01*
X118279642Y-82828570D02*
X118493928Y-82899999D01*
X118493928Y-82899999D02*
X119351071Y-83757142D01*
X119351071Y-83757142D02*
X119351071Y-82828570D01*
X117851071Y-81899999D02*
X117851071Y-81757142D01*
X117851071Y-81757142D02*
X117922500Y-81614285D01*
X117922500Y-81614285D02*
X117993928Y-81542857D01*
X117993928Y-81542857D02*
X118136785Y-81471428D01*
X118136785Y-81471428D02*
X118422500Y-81399999D01*
X118422500Y-81399999D02*
X118779642Y-81399999D01*
X118779642Y-81399999D02*
X119065357Y-81471428D01*
X119065357Y-81471428D02*
X119208214Y-81542857D01*
X119208214Y-81542857D02*
X119279642Y-81614285D01*
X119279642Y-81614285D02*
X119351071Y-81757142D01*
X119351071Y-81757142D02*
X119351071Y-81899999D01*
X119351071Y-81899999D02*
X119279642Y-82042857D01*
X119279642Y-82042857D02*
X119208214Y-82114285D01*
X119208214Y-82114285D02*
X119065357Y-82185714D01*
X119065357Y-82185714D02*
X118779642Y-82257142D01*
X118779642Y-82257142D02*
X118422500Y-82257142D01*
X118422500Y-82257142D02*
X118136785Y-82185714D01*
X118136785Y-82185714D02*
X117993928Y-82114285D01*
X117993928Y-82114285D02*
X117922500Y-82042857D01*
X117922500Y-82042857D02*
X117851071Y-81899999D01*
X117993928Y-80828571D02*
X117922500Y-80757143D01*
X117922500Y-80757143D02*
X117851071Y-80614286D01*
X117851071Y-80614286D02*
X117851071Y-80257143D01*
X117851071Y-80257143D02*
X117922500Y-80114286D01*
X117922500Y-80114286D02*
X117993928Y-80042857D01*
X117993928Y-80042857D02*
X118136785Y-79971428D01*
X118136785Y-79971428D02*
X118279642Y-79971428D01*
X118279642Y-79971428D02*
X118493928Y-80042857D01*
X118493928Y-80042857D02*
X119351071Y-80900000D01*
X119351071Y-80900000D02*
X119351071Y-79971428D01*
X117851071Y-79471429D02*
X117851071Y-78542857D01*
X117851071Y-78542857D02*
X118422500Y-79042857D01*
X118422500Y-79042857D02*
X118422500Y-78828572D01*
X118422500Y-78828572D02*
X118493928Y-78685715D01*
X118493928Y-78685715D02*
X118565357Y-78614286D01*
X118565357Y-78614286D02*
X118708214Y-78542857D01*
X118708214Y-78542857D02*
X119065357Y-78542857D01*
X119065357Y-78542857D02*
X119208214Y-78614286D01*
X119208214Y-78614286D02*
X119279642Y-78685715D01*
X119279642Y-78685715D02*
X119351071Y-78828572D01*
X119351071Y-78828572D02*
X119351071Y-79257143D01*
X119351071Y-79257143D02*
X119279642Y-79400000D01*
X119279642Y-79400000D02*
X119208214Y-79471429D01*
D12*
%TO.C,J1*%
X23476666Y-98817380D02*
X23476666Y-99531666D01*
X23476666Y-99531666D02*
X23429047Y-99674523D01*
X23429047Y-99674523D02*
X23333809Y-99769761D01*
X23333809Y-99769761D02*
X23190952Y-99817380D01*
X23190952Y-99817380D02*
X23095714Y-99817380D01*
X24476666Y-99817380D02*
X23905238Y-99817380D01*
X24190952Y-99817380D02*
X24190952Y-98817380D01*
X24190952Y-98817380D02*
X24095714Y-98960238D01*
X24095714Y-98960238D02*
X24000476Y-99055476D01*
X24000476Y-99055476D02*
X23905238Y-99103095D01*
%TO.C,J5*%
X23476666Y-27637380D02*
X23476666Y-28351666D01*
X23476666Y-28351666D02*
X23429047Y-28494523D01*
X23429047Y-28494523D02*
X23333809Y-28589761D01*
X23333809Y-28589761D02*
X23190952Y-28637380D01*
X23190952Y-28637380D02*
X23095714Y-28637380D01*
X24429047Y-27637380D02*
X23952857Y-27637380D01*
X23952857Y-27637380D02*
X23905238Y-28113571D01*
X23905238Y-28113571D02*
X23952857Y-28065952D01*
X23952857Y-28065952D02*
X24048095Y-28018333D01*
X24048095Y-28018333D02*
X24286190Y-28018333D01*
X24286190Y-28018333D02*
X24381428Y-28065952D01*
X24381428Y-28065952D02*
X24429047Y-28113571D01*
X24429047Y-28113571D02*
X24476666Y-28208809D01*
X24476666Y-28208809D02*
X24476666Y-28446904D01*
X24476666Y-28446904D02*
X24429047Y-28542142D01*
X24429047Y-28542142D02*
X24381428Y-28589761D01*
X24381428Y-28589761D02*
X24286190Y-28637380D01*
X24286190Y-28637380D02*
X24048095Y-28637380D01*
X24048095Y-28637380D02*
X23952857Y-28589761D01*
X23952857Y-28589761D02*
X23905238Y-28542142D01*
%TO.C,J2*%
X23476666Y-42907380D02*
X23476666Y-43621666D01*
X23476666Y-43621666D02*
X23429047Y-43764523D01*
X23429047Y-43764523D02*
X23333809Y-43859761D01*
X23333809Y-43859761D02*
X23190952Y-43907380D01*
X23190952Y-43907380D02*
X23095714Y-43907380D01*
X23905238Y-43002619D02*
X23952857Y-42955000D01*
X23952857Y-42955000D02*
X24048095Y-42907380D01*
X24048095Y-42907380D02*
X24286190Y-42907380D01*
X24286190Y-42907380D02*
X24381428Y-42955000D01*
X24381428Y-42955000D02*
X24429047Y-43002619D01*
X24429047Y-43002619D02*
X24476666Y-43097857D01*
X24476666Y-43097857D02*
X24476666Y-43193095D01*
X24476666Y-43193095D02*
X24429047Y-43335952D01*
X24429047Y-43335952D02*
X23857619Y-43907380D01*
X23857619Y-43907380D02*
X24476666Y-43907380D01*
%TO.C,C4*%
X38004142Y-35932466D02*
X38051761Y-35980085D01*
X38051761Y-35980085D02*
X38099380Y-36122942D01*
X38099380Y-36122942D02*
X38099380Y-36218180D01*
X38099380Y-36218180D02*
X38051761Y-36361037D01*
X38051761Y-36361037D02*
X37956523Y-36456275D01*
X37956523Y-36456275D02*
X37861285Y-36503894D01*
X37861285Y-36503894D02*
X37670809Y-36551513D01*
X37670809Y-36551513D02*
X37527952Y-36551513D01*
X37527952Y-36551513D02*
X37337476Y-36503894D01*
X37337476Y-36503894D02*
X37242238Y-36456275D01*
X37242238Y-36456275D02*
X37147000Y-36361037D01*
X37147000Y-36361037D02*
X37099380Y-36218180D01*
X37099380Y-36218180D02*
X37099380Y-36122942D01*
X37099380Y-36122942D02*
X37147000Y-35980085D01*
X37147000Y-35980085D02*
X37194619Y-35932466D01*
X37432714Y-35075323D02*
X38099380Y-35075323D01*
X37051761Y-35313418D02*
X37766047Y-35551513D01*
X37766047Y-35551513D02*
X37766047Y-34932466D01*
%TO.C,C1*%
X38004142Y-45359466D02*
X38051761Y-45407085D01*
X38051761Y-45407085D02*
X38099380Y-45549942D01*
X38099380Y-45549942D02*
X38099380Y-45645180D01*
X38099380Y-45645180D02*
X38051761Y-45788037D01*
X38051761Y-45788037D02*
X37956523Y-45883275D01*
X37956523Y-45883275D02*
X37861285Y-45930894D01*
X37861285Y-45930894D02*
X37670809Y-45978513D01*
X37670809Y-45978513D02*
X37527952Y-45978513D01*
X37527952Y-45978513D02*
X37337476Y-45930894D01*
X37337476Y-45930894D02*
X37242238Y-45883275D01*
X37242238Y-45883275D02*
X37147000Y-45788037D01*
X37147000Y-45788037D02*
X37099380Y-45645180D01*
X37099380Y-45645180D02*
X37099380Y-45549942D01*
X37099380Y-45549942D02*
X37147000Y-45407085D01*
X37147000Y-45407085D02*
X37194619Y-45359466D01*
X38099380Y-44407085D02*
X38099380Y-44978513D01*
X38099380Y-44692799D02*
X37099380Y-44692799D01*
X37099380Y-44692799D02*
X37242238Y-44788037D01*
X37242238Y-44788037D02*
X37337476Y-44883275D01*
X37337476Y-44883275D02*
X37385095Y-44978513D01*
%TO.C,C9*%
X48728333Y-119017191D02*
X48680714Y-119064810D01*
X48680714Y-119064810D02*
X48537857Y-119112429D01*
X48537857Y-119112429D02*
X48442619Y-119112429D01*
X48442619Y-119112429D02*
X48299762Y-119064810D01*
X48299762Y-119064810D02*
X48204524Y-118969572D01*
X48204524Y-118969572D02*
X48156905Y-118874334D01*
X48156905Y-118874334D02*
X48109286Y-118683858D01*
X48109286Y-118683858D02*
X48109286Y-118541001D01*
X48109286Y-118541001D02*
X48156905Y-118350525D01*
X48156905Y-118350525D02*
X48204524Y-118255287D01*
X48204524Y-118255287D02*
X48299762Y-118160049D01*
X48299762Y-118160049D02*
X48442619Y-118112429D01*
X48442619Y-118112429D02*
X48537857Y-118112429D01*
X48537857Y-118112429D02*
X48680714Y-118160049D01*
X48680714Y-118160049D02*
X48728333Y-118207668D01*
X49204524Y-119112429D02*
X49395000Y-119112429D01*
X49395000Y-119112429D02*
X49490238Y-119064810D01*
X49490238Y-119064810D02*
X49537857Y-119017191D01*
X49537857Y-119017191D02*
X49633095Y-118874334D01*
X49633095Y-118874334D02*
X49680714Y-118683858D01*
X49680714Y-118683858D02*
X49680714Y-118302906D01*
X49680714Y-118302906D02*
X49633095Y-118207668D01*
X49633095Y-118207668D02*
X49585476Y-118160049D01*
X49585476Y-118160049D02*
X49490238Y-118112429D01*
X49490238Y-118112429D02*
X49299762Y-118112429D01*
X49299762Y-118112429D02*
X49204524Y-118160049D01*
X49204524Y-118160049D02*
X49156905Y-118207668D01*
X49156905Y-118207668D02*
X49109286Y-118302906D01*
X49109286Y-118302906D02*
X49109286Y-118541001D01*
X49109286Y-118541001D02*
X49156905Y-118636239D01*
X49156905Y-118636239D02*
X49204524Y-118683858D01*
X49204524Y-118683858D02*
X49299762Y-118731477D01*
X49299762Y-118731477D02*
X49490238Y-118731477D01*
X49490238Y-118731477D02*
X49585476Y-118683858D01*
X49585476Y-118683858D02*
X49633095Y-118636239D01*
X49633095Y-118636239D02*
X49680714Y-118541001D01*
%TO.C,C5*%
X39642142Y-106211666D02*
X39689761Y-106259285D01*
X39689761Y-106259285D02*
X39737380Y-106402142D01*
X39737380Y-106402142D02*
X39737380Y-106497380D01*
X39737380Y-106497380D02*
X39689761Y-106640237D01*
X39689761Y-106640237D02*
X39594523Y-106735475D01*
X39594523Y-106735475D02*
X39499285Y-106783094D01*
X39499285Y-106783094D02*
X39308809Y-106830713D01*
X39308809Y-106830713D02*
X39165952Y-106830713D01*
X39165952Y-106830713D02*
X38975476Y-106783094D01*
X38975476Y-106783094D02*
X38880238Y-106735475D01*
X38880238Y-106735475D02*
X38785000Y-106640237D01*
X38785000Y-106640237D02*
X38737380Y-106497380D01*
X38737380Y-106497380D02*
X38737380Y-106402142D01*
X38737380Y-106402142D02*
X38785000Y-106259285D01*
X38785000Y-106259285D02*
X38832619Y-106211666D01*
X38737380Y-105306904D02*
X38737380Y-105783094D01*
X38737380Y-105783094D02*
X39213571Y-105830713D01*
X39213571Y-105830713D02*
X39165952Y-105783094D01*
X39165952Y-105783094D02*
X39118333Y-105687856D01*
X39118333Y-105687856D02*
X39118333Y-105449761D01*
X39118333Y-105449761D02*
X39165952Y-105354523D01*
X39165952Y-105354523D02*
X39213571Y-105306904D01*
X39213571Y-105306904D02*
X39308809Y-105259285D01*
X39308809Y-105259285D02*
X39546904Y-105259285D01*
X39546904Y-105259285D02*
X39642142Y-105306904D01*
X39642142Y-105306904D02*
X39689761Y-105354523D01*
X39689761Y-105354523D02*
X39737380Y-105449761D01*
X39737380Y-105449761D02*
X39737380Y-105687856D01*
X39737380Y-105687856D02*
X39689761Y-105783094D01*
X39689761Y-105783094D02*
X39642142Y-105830713D01*
%TO.C,C7*%
X39642142Y-108751666D02*
X39689761Y-108799285D01*
X39689761Y-108799285D02*
X39737380Y-108942142D01*
X39737380Y-108942142D02*
X39737380Y-109037380D01*
X39737380Y-109037380D02*
X39689761Y-109180237D01*
X39689761Y-109180237D02*
X39594523Y-109275475D01*
X39594523Y-109275475D02*
X39499285Y-109323094D01*
X39499285Y-109323094D02*
X39308809Y-109370713D01*
X39308809Y-109370713D02*
X39165952Y-109370713D01*
X39165952Y-109370713D02*
X38975476Y-109323094D01*
X38975476Y-109323094D02*
X38880238Y-109275475D01*
X38880238Y-109275475D02*
X38785000Y-109180237D01*
X38785000Y-109180237D02*
X38737380Y-109037380D01*
X38737380Y-109037380D02*
X38737380Y-108942142D01*
X38737380Y-108942142D02*
X38785000Y-108799285D01*
X38785000Y-108799285D02*
X38832619Y-108751666D01*
X38737380Y-108418332D02*
X38737380Y-107751666D01*
X38737380Y-107751666D02*
X39737380Y-108180237D01*
%TO.C,J9*%
X81581666Y-114937380D02*
X81581666Y-115651666D01*
X81581666Y-115651666D02*
X81534047Y-115794523D01*
X81534047Y-115794523D02*
X81438809Y-115889761D01*
X81438809Y-115889761D02*
X81295952Y-115937380D01*
X81295952Y-115937380D02*
X81200714Y-115937380D01*
X82105476Y-115937380D02*
X82295952Y-115937380D01*
X82295952Y-115937380D02*
X82391190Y-115889761D01*
X82391190Y-115889761D02*
X82438809Y-115842142D01*
X82438809Y-115842142D02*
X82534047Y-115699285D01*
X82534047Y-115699285D02*
X82581666Y-115508809D01*
X82581666Y-115508809D02*
X82581666Y-115127857D01*
X82581666Y-115127857D02*
X82534047Y-115032619D01*
X82534047Y-115032619D02*
X82486428Y-114985000D01*
X82486428Y-114985000D02*
X82391190Y-114937380D01*
X82391190Y-114937380D02*
X82200714Y-114937380D01*
X82200714Y-114937380D02*
X82105476Y-114985000D01*
X82105476Y-114985000D02*
X82057857Y-115032619D01*
X82057857Y-115032619D02*
X82010238Y-115127857D01*
X82010238Y-115127857D02*
X82010238Y-115365952D01*
X82010238Y-115365952D02*
X82057857Y-115461190D01*
X82057857Y-115461190D02*
X82105476Y-115508809D01*
X82105476Y-115508809D02*
X82200714Y-115556428D01*
X82200714Y-115556428D02*
X82391190Y-115556428D01*
X82391190Y-115556428D02*
X82486428Y-115508809D01*
X82486428Y-115508809D02*
X82534047Y-115461190D01*
X82534047Y-115461190D02*
X82581666Y-115365952D01*
%TO.C,U1*%
X35962380Y-115551904D02*
X36771904Y-115551904D01*
X36771904Y-115551904D02*
X36867142Y-115504285D01*
X36867142Y-115504285D02*
X36914761Y-115456666D01*
X36914761Y-115456666D02*
X36962380Y-115361428D01*
X36962380Y-115361428D02*
X36962380Y-115170952D01*
X36962380Y-115170952D02*
X36914761Y-115075714D01*
X36914761Y-115075714D02*
X36867142Y-115028095D01*
X36867142Y-115028095D02*
X36771904Y-114980476D01*
X36771904Y-114980476D02*
X35962380Y-114980476D01*
X36962380Y-113980476D02*
X36962380Y-114551904D01*
X36962380Y-114266190D02*
X35962380Y-114266190D01*
X35962380Y-114266190D02*
X36105238Y-114361428D01*
X36105238Y-114361428D02*
X36200476Y-114456666D01*
X36200476Y-114456666D02*
X36248095Y-114551904D01*
%TO.C,U2*%
X70612095Y-94407380D02*
X70612095Y-95216904D01*
X70612095Y-95216904D02*
X70659714Y-95312142D01*
X70659714Y-95312142D02*
X70707333Y-95359761D01*
X70707333Y-95359761D02*
X70802571Y-95407380D01*
X70802571Y-95407380D02*
X70993047Y-95407380D01*
X70993047Y-95407380D02*
X71088285Y-95359761D01*
X71088285Y-95359761D02*
X71135904Y-95312142D01*
X71135904Y-95312142D02*
X71183523Y-95216904D01*
X71183523Y-95216904D02*
X71183523Y-94407380D01*
X71612095Y-94502619D02*
X71659714Y-94455000D01*
X71659714Y-94455000D02*
X71754952Y-94407380D01*
X71754952Y-94407380D02*
X71993047Y-94407380D01*
X71993047Y-94407380D02*
X72088285Y-94455000D01*
X72088285Y-94455000D02*
X72135904Y-94502619D01*
X72135904Y-94502619D02*
X72183523Y-94597857D01*
X72183523Y-94597857D02*
X72183523Y-94693095D01*
X72183523Y-94693095D02*
X72135904Y-94835952D01*
X72135904Y-94835952D02*
X71564476Y-95407380D01*
X71564476Y-95407380D02*
X72183523Y-95407380D01*
%TO.C,R20*%
X110602380Y-112402857D02*
X110126190Y-112736190D01*
X110602380Y-112974285D02*
X109602380Y-112974285D01*
X109602380Y-112974285D02*
X109602380Y-112593333D01*
X109602380Y-112593333D02*
X109650000Y-112498095D01*
X109650000Y-112498095D02*
X109697619Y-112450476D01*
X109697619Y-112450476D02*
X109792857Y-112402857D01*
X109792857Y-112402857D02*
X109935714Y-112402857D01*
X109935714Y-112402857D02*
X110030952Y-112450476D01*
X110030952Y-112450476D02*
X110078571Y-112498095D01*
X110078571Y-112498095D02*
X110126190Y-112593333D01*
X110126190Y-112593333D02*
X110126190Y-112974285D01*
X109697619Y-112021904D02*
X109650000Y-111974285D01*
X109650000Y-111974285D02*
X109602380Y-111879047D01*
X109602380Y-111879047D02*
X109602380Y-111640952D01*
X109602380Y-111640952D02*
X109650000Y-111545714D01*
X109650000Y-111545714D02*
X109697619Y-111498095D01*
X109697619Y-111498095D02*
X109792857Y-111450476D01*
X109792857Y-111450476D02*
X109888095Y-111450476D01*
X109888095Y-111450476D02*
X110030952Y-111498095D01*
X110030952Y-111498095D02*
X110602380Y-112069523D01*
X110602380Y-112069523D02*
X110602380Y-111450476D01*
X109602380Y-110831428D02*
X109602380Y-110736190D01*
X109602380Y-110736190D02*
X109650000Y-110640952D01*
X109650000Y-110640952D02*
X109697619Y-110593333D01*
X109697619Y-110593333D02*
X109792857Y-110545714D01*
X109792857Y-110545714D02*
X109983333Y-110498095D01*
X109983333Y-110498095D02*
X110221428Y-110498095D01*
X110221428Y-110498095D02*
X110411904Y-110545714D01*
X110411904Y-110545714D02*
X110507142Y-110593333D01*
X110507142Y-110593333D02*
X110554761Y-110640952D01*
X110554761Y-110640952D02*
X110602380Y-110736190D01*
X110602380Y-110736190D02*
X110602380Y-110831428D01*
X110602380Y-110831428D02*
X110554761Y-110926666D01*
X110554761Y-110926666D02*
X110507142Y-110974285D01*
X110507142Y-110974285D02*
X110411904Y-111021904D01*
X110411904Y-111021904D02*
X110221428Y-111069523D01*
X110221428Y-111069523D02*
X109983333Y-111069523D01*
X109983333Y-111069523D02*
X109792857Y-111021904D01*
X109792857Y-111021904D02*
X109697619Y-110974285D01*
X109697619Y-110974285D02*
X109650000Y-110926666D01*
X109650000Y-110926666D02*
X109602380Y-110831428D01*
%TO.C,D2*%
X105992380Y-117578094D02*
X104992380Y-117578094D01*
X104992380Y-117578094D02*
X104992380Y-117339999D01*
X104992380Y-117339999D02*
X105040000Y-117197142D01*
X105040000Y-117197142D02*
X105135238Y-117101904D01*
X105135238Y-117101904D02*
X105230476Y-117054285D01*
X105230476Y-117054285D02*
X105420952Y-117006666D01*
X105420952Y-117006666D02*
X105563809Y-117006666D01*
X105563809Y-117006666D02*
X105754285Y-117054285D01*
X105754285Y-117054285D02*
X105849523Y-117101904D01*
X105849523Y-117101904D02*
X105944761Y-117197142D01*
X105944761Y-117197142D02*
X105992380Y-117339999D01*
X105992380Y-117339999D02*
X105992380Y-117578094D01*
X105087619Y-116625713D02*
X105040000Y-116578094D01*
X105040000Y-116578094D02*
X104992380Y-116482856D01*
X104992380Y-116482856D02*
X104992380Y-116244761D01*
X104992380Y-116244761D02*
X105040000Y-116149523D01*
X105040000Y-116149523D02*
X105087619Y-116101904D01*
X105087619Y-116101904D02*
X105182857Y-116054285D01*
X105182857Y-116054285D02*
X105278095Y-116054285D01*
X105278095Y-116054285D02*
X105420952Y-116101904D01*
X105420952Y-116101904D02*
X105992380Y-116673332D01*
X105992380Y-116673332D02*
X105992380Y-116054285D01*
%TO.C,R1*%
X93178333Y-40372380D02*
X92845000Y-39896190D01*
X92606905Y-40372380D02*
X92606905Y-39372380D01*
X92606905Y-39372380D02*
X92987857Y-39372380D01*
X92987857Y-39372380D02*
X93083095Y-39420000D01*
X93083095Y-39420000D02*
X93130714Y-39467619D01*
X93130714Y-39467619D02*
X93178333Y-39562857D01*
X93178333Y-39562857D02*
X93178333Y-39705714D01*
X93178333Y-39705714D02*
X93130714Y-39800952D01*
X93130714Y-39800952D02*
X93083095Y-39848571D01*
X93083095Y-39848571D02*
X92987857Y-39896190D01*
X92987857Y-39896190D02*
X92606905Y-39896190D01*
X94130714Y-40372380D02*
X93559286Y-40372380D01*
X93845000Y-40372380D02*
X93845000Y-39372380D01*
X93845000Y-39372380D02*
X93749762Y-39515238D01*
X93749762Y-39515238D02*
X93654524Y-39610476D01*
X93654524Y-39610476D02*
X93559286Y-39658095D01*
%TO.C,Y2*%
X101583809Y-53711190D02*
X101583809Y-54187380D01*
X101250476Y-53187380D02*
X101583809Y-53711190D01*
X101583809Y-53711190D02*
X101917142Y-53187380D01*
X102202857Y-53282619D02*
X102250476Y-53235000D01*
X102250476Y-53235000D02*
X102345714Y-53187380D01*
X102345714Y-53187380D02*
X102583809Y-53187380D01*
X102583809Y-53187380D02*
X102679047Y-53235000D01*
X102679047Y-53235000D02*
X102726666Y-53282619D01*
X102726666Y-53282619D02*
X102774285Y-53377857D01*
X102774285Y-53377857D02*
X102774285Y-53473095D01*
X102774285Y-53473095D02*
X102726666Y-53615952D01*
X102726666Y-53615952D02*
X102155238Y-54187380D01*
X102155238Y-54187380D02*
X102774285Y-54187380D01*
%TO.C,Q2*%
X87534761Y-29922619D02*
X87439523Y-29875000D01*
X87439523Y-29875000D02*
X87344285Y-29779761D01*
X87344285Y-29779761D02*
X87201428Y-29636904D01*
X87201428Y-29636904D02*
X87106190Y-29589285D01*
X87106190Y-29589285D02*
X87010952Y-29589285D01*
X87058571Y-29827380D02*
X86963333Y-29779761D01*
X86963333Y-29779761D02*
X86868095Y-29684523D01*
X86868095Y-29684523D02*
X86820476Y-29494047D01*
X86820476Y-29494047D02*
X86820476Y-29160714D01*
X86820476Y-29160714D02*
X86868095Y-28970238D01*
X86868095Y-28970238D02*
X86963333Y-28875000D01*
X86963333Y-28875000D02*
X87058571Y-28827380D01*
X87058571Y-28827380D02*
X87249047Y-28827380D01*
X87249047Y-28827380D02*
X87344285Y-28875000D01*
X87344285Y-28875000D02*
X87439523Y-28970238D01*
X87439523Y-28970238D02*
X87487142Y-29160714D01*
X87487142Y-29160714D02*
X87487142Y-29494047D01*
X87487142Y-29494047D02*
X87439523Y-29684523D01*
X87439523Y-29684523D02*
X87344285Y-29779761D01*
X87344285Y-29779761D02*
X87249047Y-29827380D01*
X87249047Y-29827380D02*
X87058571Y-29827380D01*
X87868095Y-28922619D02*
X87915714Y-28875000D01*
X87915714Y-28875000D02*
X88010952Y-28827380D01*
X88010952Y-28827380D02*
X88249047Y-28827380D01*
X88249047Y-28827380D02*
X88344285Y-28875000D01*
X88344285Y-28875000D02*
X88391904Y-28922619D01*
X88391904Y-28922619D02*
X88439523Y-29017857D01*
X88439523Y-29017857D02*
X88439523Y-29113095D01*
X88439523Y-29113095D02*
X88391904Y-29255952D01*
X88391904Y-29255952D02*
X87820476Y-29827380D01*
X87820476Y-29827380D02*
X88439523Y-29827380D01*
%TO.C,U7*%
X39624095Y-73237380D02*
X39624095Y-74046904D01*
X39624095Y-74046904D02*
X39671714Y-74142142D01*
X39671714Y-74142142D02*
X39719333Y-74189761D01*
X39719333Y-74189761D02*
X39814571Y-74237380D01*
X39814571Y-74237380D02*
X40005047Y-74237380D01*
X40005047Y-74237380D02*
X40100285Y-74189761D01*
X40100285Y-74189761D02*
X40147904Y-74142142D01*
X40147904Y-74142142D02*
X40195523Y-74046904D01*
X40195523Y-74046904D02*
X40195523Y-73237380D01*
X40576476Y-73237380D02*
X41243142Y-73237380D01*
X41243142Y-73237380D02*
X40814571Y-74237380D01*
%TO.C,Q1*%
X93884761Y-29922619D02*
X93789523Y-29875000D01*
X93789523Y-29875000D02*
X93694285Y-29779761D01*
X93694285Y-29779761D02*
X93551428Y-29636904D01*
X93551428Y-29636904D02*
X93456190Y-29589285D01*
X93456190Y-29589285D02*
X93360952Y-29589285D01*
X93408571Y-29827380D02*
X93313333Y-29779761D01*
X93313333Y-29779761D02*
X93218095Y-29684523D01*
X93218095Y-29684523D02*
X93170476Y-29494047D01*
X93170476Y-29494047D02*
X93170476Y-29160714D01*
X93170476Y-29160714D02*
X93218095Y-28970238D01*
X93218095Y-28970238D02*
X93313333Y-28875000D01*
X93313333Y-28875000D02*
X93408571Y-28827380D01*
X93408571Y-28827380D02*
X93599047Y-28827380D01*
X93599047Y-28827380D02*
X93694285Y-28875000D01*
X93694285Y-28875000D02*
X93789523Y-28970238D01*
X93789523Y-28970238D02*
X93837142Y-29160714D01*
X93837142Y-29160714D02*
X93837142Y-29494047D01*
X93837142Y-29494047D02*
X93789523Y-29684523D01*
X93789523Y-29684523D02*
X93694285Y-29779761D01*
X93694285Y-29779761D02*
X93599047Y-29827380D01*
X93599047Y-29827380D02*
X93408571Y-29827380D01*
X94789523Y-29827380D02*
X94218095Y-29827380D01*
X94503809Y-29827380D02*
X94503809Y-28827380D01*
X94503809Y-28827380D02*
X94408571Y-28970238D01*
X94408571Y-28970238D02*
X94313333Y-29065476D01*
X94313333Y-29065476D02*
X94218095Y-29113095D01*
%TO.C,U6*%
X52994095Y-58237380D02*
X52994095Y-59046904D01*
X52994095Y-59046904D02*
X53041714Y-59142142D01*
X53041714Y-59142142D02*
X53089333Y-59189761D01*
X53089333Y-59189761D02*
X53184571Y-59237380D01*
X53184571Y-59237380D02*
X53375047Y-59237380D01*
X53375047Y-59237380D02*
X53470285Y-59189761D01*
X53470285Y-59189761D02*
X53517904Y-59142142D01*
X53517904Y-59142142D02*
X53565523Y-59046904D01*
X53565523Y-59046904D02*
X53565523Y-58237380D01*
X54470285Y-58237380D02*
X54279809Y-58237380D01*
X54279809Y-58237380D02*
X54184571Y-58285000D01*
X54184571Y-58285000D02*
X54136952Y-58332619D01*
X54136952Y-58332619D02*
X54041714Y-58475476D01*
X54041714Y-58475476D02*
X53994095Y-58665952D01*
X53994095Y-58665952D02*
X53994095Y-59046904D01*
X53994095Y-59046904D02*
X54041714Y-59142142D01*
X54041714Y-59142142D02*
X54089333Y-59189761D01*
X54089333Y-59189761D02*
X54184571Y-59237380D01*
X54184571Y-59237380D02*
X54375047Y-59237380D01*
X54375047Y-59237380D02*
X54470285Y-59189761D01*
X54470285Y-59189761D02*
X54517904Y-59142142D01*
X54517904Y-59142142D02*
X54565523Y-59046904D01*
X54565523Y-59046904D02*
X54565523Y-58808809D01*
X54565523Y-58808809D02*
X54517904Y-58713571D01*
X54517904Y-58713571D02*
X54470285Y-58665952D01*
X54470285Y-58665952D02*
X54375047Y-58618333D01*
X54375047Y-58618333D02*
X54184571Y-58618333D01*
X54184571Y-58618333D02*
X54089333Y-58665952D01*
X54089333Y-58665952D02*
X54041714Y-58713571D01*
X54041714Y-58713571D02*
X53994095Y-58808809D01*
%TO.C,R17*%
X82917380Y-48267857D02*
X82441190Y-48601190D01*
X82917380Y-48839285D02*
X81917380Y-48839285D01*
X81917380Y-48839285D02*
X81917380Y-48458333D01*
X81917380Y-48458333D02*
X81965000Y-48363095D01*
X81965000Y-48363095D02*
X82012619Y-48315476D01*
X82012619Y-48315476D02*
X82107857Y-48267857D01*
X82107857Y-48267857D02*
X82250714Y-48267857D01*
X82250714Y-48267857D02*
X82345952Y-48315476D01*
X82345952Y-48315476D02*
X82393571Y-48363095D01*
X82393571Y-48363095D02*
X82441190Y-48458333D01*
X82441190Y-48458333D02*
X82441190Y-48839285D01*
X82917380Y-47315476D02*
X82917380Y-47886904D01*
X82917380Y-47601190D02*
X81917380Y-47601190D01*
X81917380Y-47601190D02*
X82060238Y-47696428D01*
X82060238Y-47696428D02*
X82155476Y-47791666D01*
X82155476Y-47791666D02*
X82203095Y-47886904D01*
X81917380Y-46982142D02*
X81917380Y-46315476D01*
X81917380Y-46315476D02*
X82917380Y-46744047D01*
%TO.C,D1*%
X100277380Y-117588094D02*
X99277380Y-117588094D01*
X99277380Y-117588094D02*
X99277380Y-117349999D01*
X99277380Y-117349999D02*
X99325000Y-117207142D01*
X99325000Y-117207142D02*
X99420238Y-117111904D01*
X99420238Y-117111904D02*
X99515476Y-117064285D01*
X99515476Y-117064285D02*
X99705952Y-117016666D01*
X99705952Y-117016666D02*
X99848809Y-117016666D01*
X99848809Y-117016666D02*
X100039285Y-117064285D01*
X100039285Y-117064285D02*
X100134523Y-117111904D01*
X100134523Y-117111904D02*
X100229761Y-117207142D01*
X100229761Y-117207142D02*
X100277380Y-117349999D01*
X100277380Y-117349999D02*
X100277380Y-117588094D01*
X100277380Y-116064285D02*
X100277380Y-116635713D01*
X100277380Y-116349999D02*
X99277380Y-116349999D01*
X99277380Y-116349999D02*
X99420238Y-116445237D01*
X99420238Y-116445237D02*
X99515476Y-116540475D01*
X99515476Y-116540475D02*
X99563095Y-116635713D01*
%TO.C,U5*%
X92348095Y-52267380D02*
X92348095Y-53076904D01*
X92348095Y-53076904D02*
X92395714Y-53172142D01*
X92395714Y-53172142D02*
X92443333Y-53219761D01*
X92443333Y-53219761D02*
X92538571Y-53267380D01*
X92538571Y-53267380D02*
X92729047Y-53267380D01*
X92729047Y-53267380D02*
X92824285Y-53219761D01*
X92824285Y-53219761D02*
X92871904Y-53172142D01*
X92871904Y-53172142D02*
X92919523Y-53076904D01*
X92919523Y-53076904D02*
X92919523Y-52267380D01*
X93871904Y-52267380D02*
X93395714Y-52267380D01*
X93395714Y-52267380D02*
X93348095Y-52743571D01*
X93348095Y-52743571D02*
X93395714Y-52695952D01*
X93395714Y-52695952D02*
X93490952Y-52648333D01*
X93490952Y-52648333D02*
X93729047Y-52648333D01*
X93729047Y-52648333D02*
X93824285Y-52695952D01*
X93824285Y-52695952D02*
X93871904Y-52743571D01*
X93871904Y-52743571D02*
X93919523Y-52838809D01*
X93919523Y-52838809D02*
X93919523Y-53076904D01*
X93919523Y-53076904D02*
X93871904Y-53172142D01*
X93871904Y-53172142D02*
X93824285Y-53219761D01*
X93824285Y-53219761D02*
X93729047Y-53267380D01*
X93729047Y-53267380D02*
X93490952Y-53267380D01*
X93490952Y-53267380D02*
X93395714Y-53219761D01*
X93395714Y-53219761D02*
X93348095Y-53172142D01*
%TO.C,R16*%
X87997380Y-48267857D02*
X87521190Y-48601190D01*
X87997380Y-48839285D02*
X86997380Y-48839285D01*
X86997380Y-48839285D02*
X86997380Y-48458333D01*
X86997380Y-48458333D02*
X87045000Y-48363095D01*
X87045000Y-48363095D02*
X87092619Y-48315476D01*
X87092619Y-48315476D02*
X87187857Y-48267857D01*
X87187857Y-48267857D02*
X87330714Y-48267857D01*
X87330714Y-48267857D02*
X87425952Y-48315476D01*
X87425952Y-48315476D02*
X87473571Y-48363095D01*
X87473571Y-48363095D02*
X87521190Y-48458333D01*
X87521190Y-48458333D02*
X87521190Y-48839285D01*
X87997380Y-47315476D02*
X87997380Y-47886904D01*
X87997380Y-47601190D02*
X86997380Y-47601190D01*
X86997380Y-47601190D02*
X87140238Y-47696428D01*
X87140238Y-47696428D02*
X87235476Y-47791666D01*
X87235476Y-47791666D02*
X87283095Y-47886904D01*
X86997380Y-46458333D02*
X86997380Y-46648809D01*
X86997380Y-46648809D02*
X87045000Y-46744047D01*
X87045000Y-46744047D02*
X87092619Y-46791666D01*
X87092619Y-46791666D02*
X87235476Y-46886904D01*
X87235476Y-46886904D02*
X87425952Y-46934523D01*
X87425952Y-46934523D02*
X87806904Y-46934523D01*
X87806904Y-46934523D02*
X87902142Y-46886904D01*
X87902142Y-46886904D02*
X87949761Y-46839285D01*
X87949761Y-46839285D02*
X87997380Y-46744047D01*
X87997380Y-46744047D02*
X87997380Y-46553571D01*
X87997380Y-46553571D02*
X87949761Y-46458333D01*
X87949761Y-46458333D02*
X87902142Y-46410714D01*
X87902142Y-46410714D02*
X87806904Y-46363095D01*
X87806904Y-46363095D02*
X87568809Y-46363095D01*
X87568809Y-46363095D02*
X87473571Y-46410714D01*
X87473571Y-46410714D02*
X87425952Y-46458333D01*
X87425952Y-46458333D02*
X87378333Y-46553571D01*
X87378333Y-46553571D02*
X87378333Y-46744047D01*
X87378333Y-46744047D02*
X87425952Y-46839285D01*
X87425952Y-46839285D02*
X87473571Y-46886904D01*
X87473571Y-46886904D02*
X87568809Y-46934523D01*
%TO.C,U3*%
X36117380Y-24891904D02*
X36926904Y-24891904D01*
X36926904Y-24891904D02*
X37022142Y-24844285D01*
X37022142Y-24844285D02*
X37069761Y-24796666D01*
X37069761Y-24796666D02*
X37117380Y-24701428D01*
X37117380Y-24701428D02*
X37117380Y-24510952D01*
X37117380Y-24510952D02*
X37069761Y-24415714D01*
X37069761Y-24415714D02*
X37022142Y-24368095D01*
X37022142Y-24368095D02*
X36926904Y-24320476D01*
X36926904Y-24320476D02*
X36117380Y-24320476D01*
X36117380Y-23939523D02*
X36117380Y-23320476D01*
X36117380Y-23320476D02*
X36498333Y-23653809D01*
X36498333Y-23653809D02*
X36498333Y-23510952D01*
X36498333Y-23510952D02*
X36545952Y-23415714D01*
X36545952Y-23415714D02*
X36593571Y-23368095D01*
X36593571Y-23368095D02*
X36688809Y-23320476D01*
X36688809Y-23320476D02*
X36926904Y-23320476D01*
X36926904Y-23320476D02*
X37022142Y-23368095D01*
X37022142Y-23368095D02*
X37069761Y-23415714D01*
X37069761Y-23415714D02*
X37117380Y-23510952D01*
X37117380Y-23510952D02*
X37117380Y-23796666D01*
X37117380Y-23796666D02*
X37069761Y-23891904D01*
X37069761Y-23891904D02*
X37022142Y-23939523D01*
%TO.C,J4*%
X66272380Y-118443333D02*
X66986666Y-118443333D01*
X66986666Y-118443333D02*
X67129523Y-118490952D01*
X67129523Y-118490952D02*
X67224761Y-118586190D01*
X67224761Y-118586190D02*
X67272380Y-118729047D01*
X67272380Y-118729047D02*
X67272380Y-118824285D01*
X66605714Y-117538571D02*
X67272380Y-117538571D01*
X66224761Y-117776666D02*
X66939047Y-118014761D01*
X66939047Y-118014761D02*
X66939047Y-117395714D01*
%TO.C,Y1*%
X88156190Y-61241190D02*
X88632380Y-61241190D01*
X87632380Y-61574523D02*
X88156190Y-61241190D01*
X88156190Y-61241190D02*
X87632380Y-60907857D01*
X88632380Y-60050714D02*
X88632380Y-60622142D01*
X88632380Y-60336428D02*
X87632380Y-60336428D01*
X87632380Y-60336428D02*
X87775238Y-60431666D01*
X87775238Y-60431666D02*
X87870476Y-60526904D01*
X87870476Y-60526904D02*
X87918095Y-60622142D01*
%TO.C,R19*%
X104887380Y-112402857D02*
X104411190Y-112736190D01*
X104887380Y-112974285D02*
X103887380Y-112974285D01*
X103887380Y-112974285D02*
X103887380Y-112593333D01*
X103887380Y-112593333D02*
X103935000Y-112498095D01*
X103935000Y-112498095D02*
X103982619Y-112450476D01*
X103982619Y-112450476D02*
X104077857Y-112402857D01*
X104077857Y-112402857D02*
X104220714Y-112402857D01*
X104220714Y-112402857D02*
X104315952Y-112450476D01*
X104315952Y-112450476D02*
X104363571Y-112498095D01*
X104363571Y-112498095D02*
X104411190Y-112593333D01*
X104411190Y-112593333D02*
X104411190Y-112974285D01*
X104887380Y-111450476D02*
X104887380Y-112021904D01*
X104887380Y-111736190D02*
X103887380Y-111736190D01*
X103887380Y-111736190D02*
X104030238Y-111831428D01*
X104030238Y-111831428D02*
X104125476Y-111926666D01*
X104125476Y-111926666D02*
X104173095Y-112021904D01*
X104887380Y-110974285D02*
X104887380Y-110783809D01*
X104887380Y-110783809D02*
X104839761Y-110688571D01*
X104839761Y-110688571D02*
X104792142Y-110640952D01*
X104792142Y-110640952D02*
X104649285Y-110545714D01*
X104649285Y-110545714D02*
X104458809Y-110498095D01*
X104458809Y-110498095D02*
X104077857Y-110498095D01*
X104077857Y-110498095D02*
X103982619Y-110545714D01*
X103982619Y-110545714D02*
X103935000Y-110593333D01*
X103935000Y-110593333D02*
X103887380Y-110688571D01*
X103887380Y-110688571D02*
X103887380Y-110879047D01*
X103887380Y-110879047D02*
X103935000Y-110974285D01*
X103935000Y-110974285D02*
X103982619Y-111021904D01*
X103982619Y-111021904D02*
X104077857Y-111069523D01*
X104077857Y-111069523D02*
X104315952Y-111069523D01*
X104315952Y-111069523D02*
X104411190Y-111021904D01*
X104411190Y-111021904D02*
X104458809Y-110974285D01*
X104458809Y-110974285D02*
X104506428Y-110879047D01*
X104506428Y-110879047D02*
X104506428Y-110688571D01*
X104506428Y-110688571D02*
X104458809Y-110593333D01*
X104458809Y-110593333D02*
X104411190Y-110545714D01*
X104411190Y-110545714D02*
X104315952Y-110498095D01*
%TO.C,R18*%
X85457380Y-48267857D02*
X84981190Y-48601190D01*
X85457380Y-48839285D02*
X84457380Y-48839285D01*
X84457380Y-48839285D02*
X84457380Y-48458333D01*
X84457380Y-48458333D02*
X84505000Y-48363095D01*
X84505000Y-48363095D02*
X84552619Y-48315476D01*
X84552619Y-48315476D02*
X84647857Y-48267857D01*
X84647857Y-48267857D02*
X84790714Y-48267857D01*
X84790714Y-48267857D02*
X84885952Y-48315476D01*
X84885952Y-48315476D02*
X84933571Y-48363095D01*
X84933571Y-48363095D02*
X84981190Y-48458333D01*
X84981190Y-48458333D02*
X84981190Y-48839285D01*
X85457380Y-47315476D02*
X85457380Y-47886904D01*
X85457380Y-47601190D02*
X84457380Y-47601190D01*
X84457380Y-47601190D02*
X84600238Y-47696428D01*
X84600238Y-47696428D02*
X84695476Y-47791666D01*
X84695476Y-47791666D02*
X84743095Y-47886904D01*
X84885952Y-46744047D02*
X84838333Y-46839285D01*
X84838333Y-46839285D02*
X84790714Y-46886904D01*
X84790714Y-46886904D02*
X84695476Y-46934523D01*
X84695476Y-46934523D02*
X84647857Y-46934523D01*
X84647857Y-46934523D02*
X84552619Y-46886904D01*
X84552619Y-46886904D02*
X84505000Y-46839285D01*
X84505000Y-46839285D02*
X84457380Y-46744047D01*
X84457380Y-46744047D02*
X84457380Y-46553571D01*
X84457380Y-46553571D02*
X84505000Y-46458333D01*
X84505000Y-46458333D02*
X84552619Y-46410714D01*
X84552619Y-46410714D02*
X84647857Y-46363095D01*
X84647857Y-46363095D02*
X84695476Y-46363095D01*
X84695476Y-46363095D02*
X84790714Y-46410714D01*
X84790714Y-46410714D02*
X84838333Y-46458333D01*
X84838333Y-46458333D02*
X84885952Y-46553571D01*
X84885952Y-46553571D02*
X84885952Y-46744047D01*
X84885952Y-46744047D02*
X84933571Y-46839285D01*
X84933571Y-46839285D02*
X84981190Y-46886904D01*
X84981190Y-46886904D02*
X85076428Y-46934523D01*
X85076428Y-46934523D02*
X85266904Y-46934523D01*
X85266904Y-46934523D02*
X85362142Y-46886904D01*
X85362142Y-46886904D02*
X85409761Y-46839285D01*
X85409761Y-46839285D02*
X85457380Y-46744047D01*
X85457380Y-46744047D02*
X85457380Y-46553571D01*
X85457380Y-46553571D02*
X85409761Y-46458333D01*
X85409761Y-46458333D02*
X85362142Y-46410714D01*
X85362142Y-46410714D02*
X85266904Y-46363095D01*
X85266904Y-46363095D02*
X85076428Y-46363095D01*
X85076428Y-46363095D02*
X84981190Y-46410714D01*
X84981190Y-46410714D02*
X84933571Y-46458333D01*
X84933571Y-46458333D02*
X84885952Y-46553571D01*
%TO.C,J3*%
X54276666Y-86767380D02*
X54276666Y-87481666D01*
X54276666Y-87481666D02*
X54229047Y-87624523D01*
X54229047Y-87624523D02*
X54133809Y-87719761D01*
X54133809Y-87719761D02*
X53990952Y-87767380D01*
X53990952Y-87767380D02*
X53895714Y-87767380D01*
X54657619Y-86767380D02*
X55276666Y-86767380D01*
X55276666Y-86767380D02*
X54943333Y-87148333D01*
X54943333Y-87148333D02*
X55086190Y-87148333D01*
X55086190Y-87148333D02*
X55181428Y-87195952D01*
X55181428Y-87195952D02*
X55229047Y-87243571D01*
X55229047Y-87243571D02*
X55276666Y-87338809D01*
X55276666Y-87338809D02*
X55276666Y-87576904D01*
X55276666Y-87576904D02*
X55229047Y-87672142D01*
X55229047Y-87672142D02*
X55181428Y-87719761D01*
X55181428Y-87719761D02*
X55086190Y-87767380D01*
X55086190Y-87767380D02*
X54800476Y-87767380D01*
X54800476Y-87767380D02*
X54705238Y-87719761D01*
X54705238Y-87719761D02*
X54657619Y-87672142D01*
%TO.C,BT1*%
X104324285Y-70963571D02*
X104467142Y-71011190D01*
X104467142Y-71011190D02*
X104514761Y-71058809D01*
X104514761Y-71058809D02*
X104562380Y-71154047D01*
X104562380Y-71154047D02*
X104562380Y-71296904D01*
X104562380Y-71296904D02*
X104514761Y-71392142D01*
X104514761Y-71392142D02*
X104467142Y-71439761D01*
X104467142Y-71439761D02*
X104371904Y-71487380D01*
X104371904Y-71487380D02*
X103990952Y-71487380D01*
X103990952Y-71487380D02*
X103990952Y-70487380D01*
X103990952Y-70487380D02*
X104324285Y-70487380D01*
X104324285Y-70487380D02*
X104419523Y-70535000D01*
X104419523Y-70535000D02*
X104467142Y-70582619D01*
X104467142Y-70582619D02*
X104514761Y-70677857D01*
X104514761Y-70677857D02*
X104514761Y-70773095D01*
X104514761Y-70773095D02*
X104467142Y-70868333D01*
X104467142Y-70868333D02*
X104419523Y-70915952D01*
X104419523Y-70915952D02*
X104324285Y-70963571D01*
X104324285Y-70963571D02*
X103990952Y-70963571D01*
X104848095Y-70487380D02*
X105419523Y-70487380D01*
X105133809Y-71487380D02*
X105133809Y-70487380D01*
X106276666Y-71487380D02*
X105705238Y-71487380D01*
X105990952Y-71487380D02*
X105990952Y-70487380D01*
X105990952Y-70487380D02*
X105895714Y-70630238D01*
X105895714Y-70630238D02*
X105800476Y-70725476D01*
X105800476Y-70725476D02*
X105705238Y-70773095D01*
%TO.C,R2*%
X93178333Y-37197380D02*
X92845000Y-36721190D01*
X92606905Y-37197380D02*
X92606905Y-36197380D01*
X92606905Y-36197380D02*
X92987857Y-36197380D01*
X92987857Y-36197380D02*
X93083095Y-36245000D01*
X93083095Y-36245000D02*
X93130714Y-36292619D01*
X93130714Y-36292619D02*
X93178333Y-36387857D01*
X93178333Y-36387857D02*
X93178333Y-36530714D01*
X93178333Y-36530714D02*
X93130714Y-36625952D01*
X93130714Y-36625952D02*
X93083095Y-36673571D01*
X93083095Y-36673571D02*
X92987857Y-36721190D01*
X92987857Y-36721190D02*
X92606905Y-36721190D01*
X93559286Y-36292619D02*
X93606905Y-36245000D01*
X93606905Y-36245000D02*
X93702143Y-36197380D01*
X93702143Y-36197380D02*
X93940238Y-36197380D01*
X93940238Y-36197380D02*
X94035476Y-36245000D01*
X94035476Y-36245000D02*
X94083095Y-36292619D01*
X94083095Y-36292619D02*
X94130714Y-36387857D01*
X94130714Y-36387857D02*
X94130714Y-36483095D01*
X94130714Y-36483095D02*
X94083095Y-36625952D01*
X94083095Y-36625952D02*
X93511667Y-37197380D01*
X93511667Y-37197380D02*
X94130714Y-37197380D01*
%TO.C,U4*%
X39530595Y-58157380D02*
X39530595Y-58966904D01*
X39530595Y-58966904D02*
X39578214Y-59062142D01*
X39578214Y-59062142D02*
X39625833Y-59109761D01*
X39625833Y-59109761D02*
X39721071Y-59157380D01*
X39721071Y-59157380D02*
X39911547Y-59157380D01*
X39911547Y-59157380D02*
X40006785Y-59109761D01*
X40006785Y-59109761D02*
X40054404Y-59062142D01*
X40054404Y-59062142D02*
X40102023Y-58966904D01*
X40102023Y-58966904D02*
X40102023Y-58157380D01*
X41006785Y-58490714D02*
X41006785Y-59157380D01*
X40768690Y-58109761D02*
X40530595Y-58824047D01*
X40530595Y-58824047D02*
X41149642Y-58824047D01*
D13*
%TO.C,J1*%
X21210000Y-100450000D02*
X22540000Y-100450000D01*
X21210000Y-101780000D02*
X21210000Y-100450000D01*
X21210000Y-103050000D02*
X21210000Y-110730000D01*
X21210000Y-103050000D02*
X23810000Y-103050000D01*
X21210000Y-110730000D02*
X26410000Y-110730000D01*
X23810000Y-100450000D02*
X26410000Y-100450000D01*
X23810000Y-103050000D02*
X23810000Y-100450000D01*
X26410000Y-100450000D02*
X26410000Y-110730000D01*
%TO.C,J5*%
X21210000Y-29270000D02*
X22540000Y-29270000D01*
X21210000Y-30600000D02*
X21210000Y-29270000D01*
X21210000Y-31870000D02*
X21210000Y-39550000D01*
X21210000Y-31870000D02*
X23810000Y-31870000D01*
X21210000Y-39550000D02*
X26410000Y-39550000D01*
X23810000Y-29270000D02*
X26410000Y-29270000D01*
X23810000Y-31870000D02*
X23810000Y-29270000D01*
X26410000Y-29270000D02*
X26410000Y-39550000D01*
%TO.C,J2*%
X21210000Y-44540000D02*
X22540000Y-44540000D01*
X21210000Y-45870000D02*
X21210000Y-44540000D01*
X21210000Y-47140000D02*
X21210000Y-95460000D01*
X21210000Y-47140000D02*
X23810000Y-47140000D01*
X21210000Y-95460000D02*
X26410000Y-95460000D01*
X23810000Y-44540000D02*
X26410000Y-44540000D01*
X23810000Y-47140000D02*
X23810000Y-44540000D01*
X26410000Y-44540000D02*
X26410000Y-95460000D01*
%TO.C,C4*%
X28340302Y-33577800D02*
X29140302Y-33577800D01*
X28740302Y-33177800D02*
X28740302Y-33977800D01*
X32750000Y-31812800D02*
X32750000Y-39972800D01*
X32790000Y-31812800D02*
X32790000Y-39972800D01*
X32830000Y-31812800D02*
X32830000Y-39972800D01*
X32870000Y-31813800D02*
X32870000Y-39971800D01*
X32910000Y-31815800D02*
X32910000Y-39969800D01*
X32950000Y-31816800D02*
X32950000Y-39968800D01*
X32990000Y-31818800D02*
X32990000Y-39966800D01*
X33030000Y-31821800D02*
X33030000Y-39963800D01*
X33070000Y-31824800D02*
X33070000Y-39960800D01*
X33110000Y-31827800D02*
X33110000Y-39957800D01*
X33150000Y-31831800D02*
X33150000Y-39953800D01*
X33190000Y-31835800D02*
X33190000Y-39949800D01*
X33230000Y-31840800D02*
X33230000Y-39944800D01*
X33270000Y-31844800D02*
X33270000Y-39940800D01*
X33310000Y-31850800D02*
X33310000Y-39934800D01*
X33350000Y-31855800D02*
X33350000Y-39929800D01*
X33390000Y-31862800D02*
X33390000Y-39922800D01*
X33430000Y-31868800D02*
X33430000Y-39916800D01*
X33471000Y-31875800D02*
X33471000Y-34852800D01*
X33471000Y-36932800D02*
X33471000Y-39909800D01*
X33511000Y-31882800D02*
X33511000Y-34852800D01*
X33511000Y-36932800D02*
X33511000Y-39902800D01*
X33551000Y-31890800D02*
X33551000Y-34852800D01*
X33551000Y-36932800D02*
X33551000Y-39894800D01*
X33591000Y-31898800D02*
X33591000Y-34852800D01*
X33591000Y-36932800D02*
X33591000Y-39886800D01*
X33631000Y-31907800D02*
X33631000Y-34852800D01*
X33631000Y-36932800D02*
X33631000Y-39877800D01*
X33671000Y-31916800D02*
X33671000Y-34852800D01*
X33671000Y-36932800D02*
X33671000Y-39868800D01*
X33711000Y-31925800D02*
X33711000Y-34852800D01*
X33711000Y-36932800D02*
X33711000Y-39859800D01*
X33751000Y-31935800D02*
X33751000Y-34852800D01*
X33751000Y-36932800D02*
X33751000Y-39849800D01*
X33791000Y-31945800D02*
X33791000Y-34852800D01*
X33791000Y-36932800D02*
X33791000Y-39839800D01*
X33831000Y-31956800D02*
X33831000Y-34852800D01*
X33831000Y-36932800D02*
X33831000Y-39828800D01*
X33871000Y-31967800D02*
X33871000Y-34852800D01*
X33871000Y-36932800D02*
X33871000Y-39817800D01*
X33911000Y-31978800D02*
X33911000Y-34852800D01*
X33911000Y-36932800D02*
X33911000Y-39806800D01*
X33951000Y-31990800D02*
X33951000Y-34852800D01*
X33951000Y-36932800D02*
X33951000Y-39794800D01*
X33991000Y-32003800D02*
X33991000Y-34852800D01*
X33991000Y-36932800D02*
X33991000Y-39781800D01*
X34031000Y-32015800D02*
X34031000Y-34852800D01*
X34031000Y-36932800D02*
X34031000Y-39769800D01*
X34071000Y-32029800D02*
X34071000Y-34852800D01*
X34071000Y-36932800D02*
X34071000Y-39755800D01*
X34111000Y-32042800D02*
X34111000Y-34852800D01*
X34111000Y-36932800D02*
X34111000Y-39742800D01*
X34151000Y-32057800D02*
X34151000Y-34852800D01*
X34151000Y-36932800D02*
X34151000Y-39727800D01*
X34191000Y-32071800D02*
X34191000Y-34852800D01*
X34191000Y-36932800D02*
X34191000Y-39713800D01*
X34231000Y-32087800D02*
X34231000Y-34852800D01*
X34231000Y-36932800D02*
X34231000Y-39697800D01*
X34271000Y-32102800D02*
X34271000Y-34852800D01*
X34271000Y-36932800D02*
X34271000Y-39682800D01*
X34311000Y-32118800D02*
X34311000Y-34852800D01*
X34311000Y-36932800D02*
X34311000Y-39666800D01*
X34351000Y-32135800D02*
X34351000Y-34852800D01*
X34351000Y-36932800D02*
X34351000Y-39649800D01*
X34391000Y-32152800D02*
X34391000Y-34852800D01*
X34391000Y-36932800D02*
X34391000Y-39632800D01*
X34431000Y-32170800D02*
X34431000Y-34852800D01*
X34431000Y-36932800D02*
X34431000Y-39614800D01*
X34471000Y-32188800D02*
X34471000Y-34852800D01*
X34471000Y-36932800D02*
X34471000Y-39596800D01*
X34511000Y-32206800D02*
X34511000Y-34852800D01*
X34511000Y-36932800D02*
X34511000Y-39578800D01*
X34551000Y-32226800D02*
X34551000Y-34852800D01*
X34551000Y-36932800D02*
X34551000Y-39558800D01*
X34591000Y-32245800D02*
X34591000Y-34852800D01*
X34591000Y-36932800D02*
X34591000Y-39539800D01*
X34631000Y-32265800D02*
X34631000Y-34852800D01*
X34631000Y-36932800D02*
X34631000Y-39519800D01*
X34671000Y-32286800D02*
X34671000Y-34852800D01*
X34671000Y-36932800D02*
X34671000Y-39498800D01*
X34711000Y-32308800D02*
X34711000Y-34852800D01*
X34711000Y-36932800D02*
X34711000Y-39476800D01*
X34751000Y-32330800D02*
X34751000Y-34852800D01*
X34751000Y-36932800D02*
X34751000Y-39454800D01*
X34791000Y-32352800D02*
X34791000Y-34852800D01*
X34791000Y-36932800D02*
X34791000Y-39432800D01*
X34831000Y-32375800D02*
X34831000Y-34852800D01*
X34831000Y-36932800D02*
X34831000Y-39409800D01*
X34871000Y-32399800D02*
X34871000Y-34852800D01*
X34871000Y-36932800D02*
X34871000Y-39385800D01*
X34911000Y-32423800D02*
X34911000Y-34852800D01*
X34911000Y-36932800D02*
X34911000Y-39361800D01*
X34951000Y-32448800D02*
X34951000Y-34852800D01*
X34951000Y-36932800D02*
X34951000Y-39336800D01*
X34991000Y-32474800D02*
X34991000Y-34852800D01*
X34991000Y-36932800D02*
X34991000Y-39310800D01*
X35031000Y-32500800D02*
X35031000Y-34852800D01*
X35031000Y-36932800D02*
X35031000Y-39284800D01*
X35071000Y-32527800D02*
X35071000Y-34852800D01*
X35071000Y-36932800D02*
X35071000Y-39257800D01*
X35111000Y-32554800D02*
X35111000Y-34852800D01*
X35111000Y-36932800D02*
X35111000Y-39230800D01*
X35151000Y-32583800D02*
X35151000Y-34852800D01*
X35151000Y-36932800D02*
X35151000Y-39201800D01*
X35191000Y-32612800D02*
X35191000Y-34852800D01*
X35191000Y-36932800D02*
X35191000Y-39172800D01*
X35231000Y-32642800D02*
X35231000Y-34852800D01*
X35231000Y-36932800D02*
X35231000Y-39142800D01*
X35271000Y-32672800D02*
X35271000Y-34852800D01*
X35271000Y-36932800D02*
X35271000Y-39112800D01*
X35311000Y-32703800D02*
X35311000Y-34852800D01*
X35311000Y-36932800D02*
X35311000Y-39081800D01*
X35351000Y-32736800D02*
X35351000Y-34852800D01*
X35351000Y-36932800D02*
X35351000Y-39048800D01*
X35391000Y-32768800D02*
X35391000Y-34852800D01*
X35391000Y-36932800D02*
X35391000Y-39016800D01*
X35431000Y-32802800D02*
X35431000Y-34852800D01*
X35431000Y-36932800D02*
X35431000Y-38982800D01*
X35471000Y-32837800D02*
X35471000Y-34852800D01*
X35471000Y-36932800D02*
X35471000Y-38947800D01*
X35511000Y-32873800D02*
X35511000Y-34852800D01*
X35511000Y-36932800D02*
X35511000Y-38911800D01*
X35551000Y-32909800D02*
X35551000Y-38875800D01*
X35591000Y-32947800D02*
X35591000Y-38837800D01*
X35631000Y-32985800D02*
X35631000Y-38799800D01*
X35671000Y-33025800D02*
X35671000Y-38759800D01*
X35711000Y-33066800D02*
X35711000Y-38718800D01*
X35751000Y-33108800D02*
X35751000Y-38676800D01*
X35791000Y-33151800D02*
X35791000Y-38633800D01*
X35831000Y-33195800D02*
X35831000Y-38589800D01*
X35871000Y-33241800D02*
X35871000Y-38543800D01*
X35911000Y-33288800D02*
X35911000Y-38496800D01*
X35951000Y-33336800D02*
X35951000Y-38448800D01*
X35991000Y-33387800D02*
X35991000Y-38397800D01*
X36031000Y-33438800D02*
X36031000Y-38346800D01*
X36071000Y-33492800D02*
X36071000Y-38292800D01*
X36111000Y-33547800D02*
X36111000Y-38237800D01*
X36151000Y-33605800D02*
X36151000Y-38179800D01*
X36191000Y-33664800D02*
X36191000Y-38120800D01*
X36231000Y-33726800D02*
X36231000Y-38058800D01*
X36271000Y-33790800D02*
X36271000Y-37994800D01*
X36311000Y-33858800D02*
X36311000Y-37926800D01*
X36351000Y-33928800D02*
X36351000Y-37856800D01*
X36391000Y-34002800D02*
X36391000Y-37782800D01*
X36431000Y-34079800D02*
X36431000Y-37705800D01*
X36471000Y-34161800D02*
X36471000Y-37623800D01*
X36511000Y-34247800D02*
X36511000Y-37537800D01*
X36551000Y-34340800D02*
X36551000Y-37444800D01*
X36591000Y-34439800D02*
X36591000Y-37345800D01*
X36631000Y-34546800D02*
X36631000Y-37238800D01*
X36671000Y-34663800D02*
X36671000Y-37121800D01*
X36711000Y-34794800D02*
X36711000Y-36990800D01*
X36751000Y-34944800D02*
X36751000Y-36840800D01*
X36791000Y-35124800D02*
X36791000Y-36660800D01*
X36831000Y-35359800D02*
X36831000Y-36425800D01*
X36870000Y-35892800D02*
G75*
G03*
X36870000Y-35892800I-4120000J0D01*
G01*
%TO.C,C1*%
X28340302Y-42877800D02*
X29140302Y-42877800D01*
X28740302Y-42477800D02*
X28740302Y-43277800D01*
X32750000Y-41112800D02*
X32750000Y-49272800D01*
X32790000Y-41112800D02*
X32790000Y-49272800D01*
X32830000Y-41112800D02*
X32830000Y-49272800D01*
X32870000Y-41113800D02*
X32870000Y-49271800D01*
X32910000Y-41115800D02*
X32910000Y-49269800D01*
X32950000Y-41116800D02*
X32950000Y-49268800D01*
X32990000Y-41118800D02*
X32990000Y-49266800D01*
X33030000Y-41121800D02*
X33030000Y-49263800D01*
X33070000Y-41124800D02*
X33070000Y-49260800D01*
X33110000Y-41127800D02*
X33110000Y-49257800D01*
X33150000Y-41131800D02*
X33150000Y-49253800D01*
X33190000Y-41135800D02*
X33190000Y-49249800D01*
X33230000Y-41140800D02*
X33230000Y-49244800D01*
X33270000Y-41144800D02*
X33270000Y-49240800D01*
X33310000Y-41150800D02*
X33310000Y-49234800D01*
X33350000Y-41155800D02*
X33350000Y-49229800D01*
X33390000Y-41162800D02*
X33390000Y-49222800D01*
X33430000Y-41168800D02*
X33430000Y-49216800D01*
X33471000Y-41175800D02*
X33471000Y-44152800D01*
X33471000Y-46232800D02*
X33471000Y-49209800D01*
X33511000Y-41182800D02*
X33511000Y-44152800D01*
X33511000Y-46232800D02*
X33511000Y-49202800D01*
X33551000Y-41190800D02*
X33551000Y-44152800D01*
X33551000Y-46232800D02*
X33551000Y-49194800D01*
X33591000Y-41198800D02*
X33591000Y-44152800D01*
X33591000Y-46232800D02*
X33591000Y-49186800D01*
X33631000Y-41207800D02*
X33631000Y-44152800D01*
X33631000Y-46232800D02*
X33631000Y-49177800D01*
X33671000Y-41216800D02*
X33671000Y-44152800D01*
X33671000Y-46232800D02*
X33671000Y-49168800D01*
X33711000Y-41225800D02*
X33711000Y-44152800D01*
X33711000Y-46232800D02*
X33711000Y-49159800D01*
X33751000Y-41235800D02*
X33751000Y-44152800D01*
X33751000Y-46232800D02*
X33751000Y-49149800D01*
X33791000Y-41245800D02*
X33791000Y-44152800D01*
X33791000Y-46232800D02*
X33791000Y-49139800D01*
X33831000Y-41256800D02*
X33831000Y-44152800D01*
X33831000Y-46232800D02*
X33831000Y-49128800D01*
X33871000Y-41267800D02*
X33871000Y-44152800D01*
X33871000Y-46232800D02*
X33871000Y-49117800D01*
X33911000Y-41278800D02*
X33911000Y-44152800D01*
X33911000Y-46232800D02*
X33911000Y-49106800D01*
X33951000Y-41290800D02*
X33951000Y-44152800D01*
X33951000Y-46232800D02*
X33951000Y-49094800D01*
X33991000Y-41303800D02*
X33991000Y-44152800D01*
X33991000Y-46232800D02*
X33991000Y-49081800D01*
X34031000Y-41315800D02*
X34031000Y-44152800D01*
X34031000Y-46232800D02*
X34031000Y-49069800D01*
X34071000Y-41329800D02*
X34071000Y-44152800D01*
X34071000Y-46232800D02*
X34071000Y-49055800D01*
X34111000Y-41342800D02*
X34111000Y-44152800D01*
X34111000Y-46232800D02*
X34111000Y-49042800D01*
X34151000Y-41357800D02*
X34151000Y-44152800D01*
X34151000Y-46232800D02*
X34151000Y-49027800D01*
X34191000Y-41371800D02*
X34191000Y-44152800D01*
X34191000Y-46232800D02*
X34191000Y-49013800D01*
X34231000Y-41387800D02*
X34231000Y-44152800D01*
X34231000Y-46232800D02*
X34231000Y-48997800D01*
X34271000Y-41402800D02*
X34271000Y-44152800D01*
X34271000Y-46232800D02*
X34271000Y-48982800D01*
X34311000Y-41418800D02*
X34311000Y-44152800D01*
X34311000Y-46232800D02*
X34311000Y-48966800D01*
X34351000Y-41435800D02*
X34351000Y-44152800D01*
X34351000Y-46232800D02*
X34351000Y-48949800D01*
X34391000Y-41452800D02*
X34391000Y-44152800D01*
X34391000Y-46232800D02*
X34391000Y-48932800D01*
X34431000Y-41470800D02*
X34431000Y-44152800D01*
X34431000Y-46232800D02*
X34431000Y-48914800D01*
X34471000Y-41488800D02*
X34471000Y-44152800D01*
X34471000Y-46232800D02*
X34471000Y-48896800D01*
X34511000Y-41506800D02*
X34511000Y-44152800D01*
X34511000Y-46232800D02*
X34511000Y-48878800D01*
X34551000Y-41526800D02*
X34551000Y-44152800D01*
X34551000Y-46232800D02*
X34551000Y-48858800D01*
X34591000Y-41545800D02*
X34591000Y-44152800D01*
X34591000Y-46232800D02*
X34591000Y-48839800D01*
X34631000Y-41565800D02*
X34631000Y-44152800D01*
X34631000Y-46232800D02*
X34631000Y-48819800D01*
X34671000Y-41586800D02*
X34671000Y-44152800D01*
X34671000Y-46232800D02*
X34671000Y-48798800D01*
X34711000Y-41608800D02*
X34711000Y-44152800D01*
X34711000Y-46232800D02*
X34711000Y-48776800D01*
X34751000Y-41630800D02*
X34751000Y-44152800D01*
X34751000Y-46232800D02*
X34751000Y-48754800D01*
X34791000Y-41652800D02*
X34791000Y-44152800D01*
X34791000Y-46232800D02*
X34791000Y-48732800D01*
X34831000Y-41675800D02*
X34831000Y-44152800D01*
X34831000Y-46232800D02*
X34831000Y-48709800D01*
X34871000Y-41699800D02*
X34871000Y-44152800D01*
X34871000Y-46232800D02*
X34871000Y-48685800D01*
X34911000Y-41723800D02*
X34911000Y-44152800D01*
X34911000Y-46232800D02*
X34911000Y-48661800D01*
X34951000Y-41748800D02*
X34951000Y-44152800D01*
X34951000Y-46232800D02*
X34951000Y-48636800D01*
X34991000Y-41774800D02*
X34991000Y-44152800D01*
X34991000Y-46232800D02*
X34991000Y-48610800D01*
X35031000Y-41800800D02*
X35031000Y-44152800D01*
X35031000Y-46232800D02*
X35031000Y-48584800D01*
X35071000Y-41827800D02*
X35071000Y-44152800D01*
X35071000Y-46232800D02*
X35071000Y-48557800D01*
X35111000Y-41854800D02*
X35111000Y-44152800D01*
X35111000Y-46232800D02*
X35111000Y-48530800D01*
X35151000Y-41883800D02*
X35151000Y-44152800D01*
X35151000Y-46232800D02*
X35151000Y-48501800D01*
X35191000Y-41912800D02*
X35191000Y-44152800D01*
X35191000Y-46232800D02*
X35191000Y-48472800D01*
X35231000Y-41942800D02*
X35231000Y-44152800D01*
X35231000Y-46232800D02*
X35231000Y-48442800D01*
X35271000Y-41972800D02*
X35271000Y-44152800D01*
X35271000Y-46232800D02*
X35271000Y-48412800D01*
X35311000Y-42003800D02*
X35311000Y-44152800D01*
X35311000Y-46232800D02*
X35311000Y-48381800D01*
X35351000Y-42036800D02*
X35351000Y-44152800D01*
X35351000Y-46232800D02*
X35351000Y-48348800D01*
X35391000Y-42068800D02*
X35391000Y-44152800D01*
X35391000Y-46232800D02*
X35391000Y-48316800D01*
X35431000Y-42102800D02*
X35431000Y-44152800D01*
X35431000Y-46232800D02*
X35431000Y-48282800D01*
X35471000Y-42137800D02*
X35471000Y-44152800D01*
X35471000Y-46232800D02*
X35471000Y-48247800D01*
X35511000Y-42173800D02*
X35511000Y-44152800D01*
X35511000Y-46232800D02*
X35511000Y-48211800D01*
X35551000Y-42209800D02*
X35551000Y-48175800D01*
X35591000Y-42247800D02*
X35591000Y-48137800D01*
X35631000Y-42285800D02*
X35631000Y-48099800D01*
X35671000Y-42325800D02*
X35671000Y-48059800D01*
X35711000Y-42366800D02*
X35711000Y-48018800D01*
X35751000Y-42408800D02*
X35751000Y-47976800D01*
X35791000Y-42451800D02*
X35791000Y-47933800D01*
X35831000Y-42495800D02*
X35831000Y-47889800D01*
X35871000Y-42541800D02*
X35871000Y-47843800D01*
X35911000Y-42588800D02*
X35911000Y-47796800D01*
X35951000Y-42636800D02*
X35951000Y-47748800D01*
X35991000Y-42687800D02*
X35991000Y-47697800D01*
X36031000Y-42738800D02*
X36031000Y-47646800D01*
X36071000Y-42792800D02*
X36071000Y-47592800D01*
X36111000Y-42847800D02*
X36111000Y-47537800D01*
X36151000Y-42905800D02*
X36151000Y-47479800D01*
X36191000Y-42964800D02*
X36191000Y-47420800D01*
X36231000Y-43026800D02*
X36231000Y-47358800D01*
X36271000Y-43090800D02*
X36271000Y-47294800D01*
X36311000Y-43158800D02*
X36311000Y-47226800D01*
X36351000Y-43228800D02*
X36351000Y-47156800D01*
X36391000Y-43302800D02*
X36391000Y-47082800D01*
X36431000Y-43379800D02*
X36431000Y-47005800D01*
X36471000Y-43461800D02*
X36471000Y-46923800D01*
X36511000Y-43547800D02*
X36511000Y-46837800D01*
X36551000Y-43640800D02*
X36551000Y-46744800D01*
X36591000Y-43739800D02*
X36591000Y-46645800D01*
X36631000Y-43846800D02*
X36631000Y-46538800D01*
X36671000Y-43963800D02*
X36671000Y-46421800D01*
X36711000Y-44094800D02*
X36711000Y-46290800D01*
X36751000Y-44244800D02*
X36751000Y-46140800D01*
X36791000Y-44424800D02*
X36791000Y-45960800D01*
X36831000Y-44659800D02*
X36831000Y-45725800D01*
X36870000Y-45192800D02*
G75*
G03*
X36870000Y-45192800I-4120000J0D01*
G01*
%TO.C,C9*%
X42770000Y-119247398D02*
X42770000Y-118447398D01*
X42370000Y-118847398D02*
X43170000Y-118847398D01*
X41005000Y-114837700D02*
X49165000Y-114837700D01*
X41005000Y-114797700D02*
X49165000Y-114797700D01*
X41005000Y-114757700D02*
X49165000Y-114757700D01*
X41006000Y-114717700D02*
X49164000Y-114717700D01*
X41008000Y-114677700D02*
X49162000Y-114677700D01*
X41009000Y-114637700D02*
X49161000Y-114637700D01*
X41011000Y-114597700D02*
X49159000Y-114597700D01*
X41014000Y-114557700D02*
X49156000Y-114557700D01*
X41017000Y-114517700D02*
X49153000Y-114517700D01*
X41020000Y-114477700D02*
X49150000Y-114477700D01*
X41024000Y-114437700D02*
X49146000Y-114437700D01*
X41028000Y-114397700D02*
X49142000Y-114397700D01*
X41033000Y-114357700D02*
X49137000Y-114357700D01*
X41037000Y-114317700D02*
X49133000Y-114317700D01*
X41043000Y-114277700D02*
X49127000Y-114277700D01*
X41048000Y-114237700D02*
X49122000Y-114237700D01*
X41055000Y-114197700D02*
X49115000Y-114197700D01*
X41061000Y-114157700D02*
X49109000Y-114157700D01*
X41068000Y-114116700D02*
X44045000Y-114116700D01*
X46125000Y-114116700D02*
X49102000Y-114116700D01*
X41075000Y-114076700D02*
X44045000Y-114076700D01*
X46125000Y-114076700D02*
X49095000Y-114076700D01*
X41083000Y-114036700D02*
X44045000Y-114036700D01*
X46125000Y-114036700D02*
X49087000Y-114036700D01*
X41091000Y-113996700D02*
X44045000Y-113996700D01*
X46125000Y-113996700D02*
X49079000Y-113996700D01*
X41100000Y-113956700D02*
X44045000Y-113956700D01*
X46125000Y-113956700D02*
X49070000Y-113956700D01*
X41109000Y-113916700D02*
X44045000Y-113916700D01*
X46125000Y-113916700D02*
X49061000Y-113916700D01*
X41118000Y-113876700D02*
X44045000Y-113876700D01*
X46125000Y-113876700D02*
X49052000Y-113876700D01*
X41128000Y-113836700D02*
X44045000Y-113836700D01*
X46125000Y-113836700D02*
X49042000Y-113836700D01*
X41138000Y-113796700D02*
X44045000Y-113796700D01*
X46125000Y-113796700D02*
X49032000Y-113796700D01*
X41149000Y-113756700D02*
X44045000Y-113756700D01*
X46125000Y-113756700D02*
X49021000Y-113756700D01*
X41160000Y-113716700D02*
X44045000Y-113716700D01*
X46125000Y-113716700D02*
X49010000Y-113716700D01*
X41171000Y-113676700D02*
X44045000Y-113676700D01*
X46125000Y-113676700D02*
X48999000Y-113676700D01*
X41183000Y-113636700D02*
X44045000Y-113636700D01*
X46125000Y-113636700D02*
X48987000Y-113636700D01*
X41196000Y-113596700D02*
X44045000Y-113596700D01*
X46125000Y-113596700D02*
X48974000Y-113596700D01*
X41208000Y-113556700D02*
X44045000Y-113556700D01*
X46125000Y-113556700D02*
X48962000Y-113556700D01*
X41222000Y-113516700D02*
X44045000Y-113516700D01*
X46125000Y-113516700D02*
X48948000Y-113516700D01*
X41235000Y-113476700D02*
X44045000Y-113476700D01*
X46125000Y-113476700D02*
X48935000Y-113476700D01*
X41250000Y-113436700D02*
X44045000Y-113436700D01*
X46125000Y-113436700D02*
X48920000Y-113436700D01*
X41264000Y-113396700D02*
X44045000Y-113396700D01*
X46125000Y-113396700D02*
X48906000Y-113396700D01*
X41280000Y-113356700D02*
X44045000Y-113356700D01*
X46125000Y-113356700D02*
X48890000Y-113356700D01*
X41295000Y-113316700D02*
X44045000Y-113316700D01*
X46125000Y-113316700D02*
X48875000Y-113316700D01*
X41311000Y-113276700D02*
X44045000Y-113276700D01*
X46125000Y-113276700D02*
X48859000Y-113276700D01*
X41328000Y-113236700D02*
X44045000Y-113236700D01*
X46125000Y-113236700D02*
X48842000Y-113236700D01*
X41345000Y-113196700D02*
X44045000Y-113196700D01*
X46125000Y-113196700D02*
X48825000Y-113196700D01*
X41363000Y-113156700D02*
X44045000Y-113156700D01*
X46125000Y-113156700D02*
X48807000Y-113156700D01*
X41381000Y-113116700D02*
X44045000Y-113116700D01*
X46125000Y-113116700D02*
X48789000Y-113116700D01*
X41399000Y-113076700D02*
X44045000Y-113076700D01*
X46125000Y-113076700D02*
X48771000Y-113076700D01*
X41419000Y-113036700D02*
X44045000Y-113036700D01*
X46125000Y-113036700D02*
X48751000Y-113036700D01*
X41438000Y-112996700D02*
X44045000Y-112996700D01*
X46125000Y-112996700D02*
X48732000Y-112996700D01*
X41458000Y-112956700D02*
X44045000Y-112956700D01*
X46125000Y-112956700D02*
X48712000Y-112956700D01*
X41479000Y-112916700D02*
X44045000Y-112916700D01*
X46125000Y-112916700D02*
X48691000Y-112916700D01*
X41501000Y-112876700D02*
X44045000Y-112876700D01*
X46125000Y-112876700D02*
X48669000Y-112876700D01*
X41523000Y-112836700D02*
X44045000Y-112836700D01*
X46125000Y-112836700D02*
X48647000Y-112836700D01*
X41545000Y-112796700D02*
X44045000Y-112796700D01*
X46125000Y-112796700D02*
X48625000Y-112796700D01*
X41568000Y-112756700D02*
X44045000Y-112756700D01*
X46125000Y-112756700D02*
X48602000Y-112756700D01*
X41592000Y-112716700D02*
X44045000Y-112716700D01*
X46125000Y-112716700D02*
X48578000Y-112716700D01*
X41616000Y-112676700D02*
X44045000Y-112676700D01*
X46125000Y-112676700D02*
X48554000Y-112676700D01*
X41641000Y-112636700D02*
X44045000Y-112636700D01*
X46125000Y-112636700D02*
X48529000Y-112636700D01*
X41667000Y-112596700D02*
X44045000Y-112596700D01*
X46125000Y-112596700D02*
X48503000Y-112596700D01*
X41693000Y-112556700D02*
X44045000Y-112556700D01*
X46125000Y-112556700D02*
X48477000Y-112556700D01*
X41720000Y-112516700D02*
X44045000Y-112516700D01*
X46125000Y-112516700D02*
X48450000Y-112516700D01*
X41747000Y-112476700D02*
X44045000Y-112476700D01*
X46125000Y-112476700D02*
X48423000Y-112476700D01*
X41776000Y-112436700D02*
X44045000Y-112436700D01*
X46125000Y-112436700D02*
X48394000Y-112436700D01*
X41805000Y-112396700D02*
X44045000Y-112396700D01*
X46125000Y-112396700D02*
X48365000Y-112396700D01*
X41835000Y-112356700D02*
X44045000Y-112356700D01*
X46125000Y-112356700D02*
X48335000Y-112356700D01*
X41865000Y-112316700D02*
X44045000Y-112316700D01*
X46125000Y-112316700D02*
X48305000Y-112316700D01*
X41896000Y-112276700D02*
X44045000Y-112276700D01*
X46125000Y-112276700D02*
X48274000Y-112276700D01*
X41929000Y-112236700D02*
X44045000Y-112236700D01*
X46125000Y-112236700D02*
X48241000Y-112236700D01*
X41961000Y-112196700D02*
X44045000Y-112196700D01*
X46125000Y-112196700D02*
X48209000Y-112196700D01*
X41995000Y-112156700D02*
X44045000Y-112156700D01*
X46125000Y-112156700D02*
X48175000Y-112156700D01*
X42030000Y-112116700D02*
X44045000Y-112116700D01*
X46125000Y-112116700D02*
X48140000Y-112116700D01*
X42066000Y-112076700D02*
X44045000Y-112076700D01*
X46125000Y-112076700D02*
X48104000Y-112076700D01*
X42102000Y-112036700D02*
X48068000Y-112036700D01*
X42140000Y-111996700D02*
X48030000Y-111996700D01*
X42178000Y-111956700D02*
X47992000Y-111956700D01*
X42218000Y-111916700D02*
X47952000Y-111916700D01*
X42259000Y-111876700D02*
X47911000Y-111876700D01*
X42301000Y-111836700D02*
X47869000Y-111836700D01*
X42344000Y-111796700D02*
X47826000Y-111796700D01*
X42388000Y-111756700D02*
X47782000Y-111756700D01*
X42434000Y-111716700D02*
X47736000Y-111716700D01*
X42481000Y-111676700D02*
X47689000Y-111676700D01*
X42529000Y-111636700D02*
X47641000Y-111636700D01*
X42580000Y-111596700D02*
X47590000Y-111596700D01*
X42631000Y-111556700D02*
X47539000Y-111556700D01*
X42685000Y-111516700D02*
X47485000Y-111516700D01*
X42740000Y-111476700D02*
X47430000Y-111476700D01*
X42798000Y-111436700D02*
X47372000Y-111436700D01*
X42857000Y-111396700D02*
X47313000Y-111396700D01*
X42919000Y-111356700D02*
X47251000Y-111356700D01*
X42983000Y-111316700D02*
X47187000Y-111316700D01*
X43051000Y-111276700D02*
X47119000Y-111276700D01*
X43121000Y-111236700D02*
X47049000Y-111236700D01*
X43195000Y-111196700D02*
X46975000Y-111196700D01*
X43272000Y-111156700D02*
X46898000Y-111156700D01*
X43354000Y-111116700D02*
X46816000Y-111116700D01*
X43440000Y-111076700D02*
X46730000Y-111076700D01*
X43533000Y-111036700D02*
X46637000Y-111036700D01*
X43632000Y-110996700D02*
X46538000Y-110996700D01*
X43739000Y-110956700D02*
X46431000Y-110956700D01*
X43856000Y-110916700D02*
X46314000Y-110916700D01*
X43987000Y-110876700D02*
X46183000Y-110876700D01*
X44137000Y-110836700D02*
X46033000Y-110836700D01*
X44317000Y-110796700D02*
X45853000Y-110796700D01*
X44552000Y-110756700D02*
X45618000Y-110756700D01*
X49205000Y-114837700D02*
G75*
G03*
X49205000Y-114837700I-4120000J0D01*
G01*
%TO.C,C5*%
X36248748Y-105310000D02*
X36771252Y-105310000D01*
X36248748Y-106780000D02*
X36771252Y-106780000D01*
%TO.C,C7*%
X36248748Y-107850000D02*
X36771252Y-107850000D01*
X36248748Y-109320000D02*
X36771252Y-109320000D01*
%TO.C,U1*%
X40005000Y-110690000D02*
X40005000Y-116700000D01*
X33185000Y-112940000D02*
X33185000Y-116700000D01*
X40005000Y-116700000D02*
X38745000Y-116700000D01*
X33185000Y-116700000D02*
X34445000Y-116700000D01*
%TO.C,U2*%
X80324000Y-94100000D02*
X80324000Y-43060000D01*
X80324000Y-43060000D02*
X62424000Y-43060000D01*
X77834000Y-94040000D02*
X77834000Y-43120000D01*
X77834000Y-43120000D02*
X64914000Y-43120000D01*
X72374000Y-94040000D02*
X77834000Y-94040000D01*
X64914000Y-94040000D02*
X70374000Y-94040000D01*
X64914000Y-43120000D02*
X64914000Y-94040000D01*
X62424000Y-94100000D02*
X80324000Y-94100000D01*
X62424000Y-43060000D02*
X62424000Y-94100000D01*
X72374000Y-94040000D02*
G75*
G03*
X70374000Y-94040000I-1000000J0D01*
G01*
%TO.C,R20*%
X109320000Y-111532936D02*
X109320000Y-111987064D01*
X107850000Y-111532936D02*
X107850000Y-111987064D01*
%TO.C,D2*%
X107349000Y-118400000D02*
X107505000Y-118400000D01*
X109665000Y-118400000D02*
X109821000Y-118400000D01*
X107506392Y-115167666D02*
G75*
G03*
X107349485Y-118399999I1078608J-1672334D01*
G01*
X107505164Y-115798871D02*
G75*
G03*
X107505001Y-117880960I1079836J-1041129D01*
G01*
X109664999Y-117880960D02*
G75*
G03*
X109664836Y-115798871I-1079999J1040960D01*
G01*
X109820515Y-118399999D02*
G75*
G03*
X109663608Y-115167666I-1235515J1559999D01*
G01*
%TO.C,R1*%
X90754564Y-40740000D02*
X90300436Y-40740000D01*
X90754564Y-39270000D02*
X90300436Y-39270000D01*
%TO.C,Y2*%
X101860000Y-52500000D02*
X112760000Y-52500000D01*
X112760000Y-52500000D02*
X112760000Y-49100000D01*
X100460000Y-52070000D02*
X99760000Y-52070000D01*
X101860000Y-51400000D02*
X100460000Y-52070000D01*
X101860000Y-50200000D02*
X100460000Y-49530000D01*
X100460000Y-49530000D02*
X99760000Y-49530000D01*
X101860000Y-49100000D02*
X101860000Y-52500000D01*
X112760000Y-49100000D02*
X101860000Y-49100000D01*
%TO.C,Q2*%
X85830000Y-34870000D02*
X89430000Y-34870000D01*
X87630000Y-30420000D02*
G75*
G03*
X85791522Y-34858478I0J-2600000D01*
G01*
X89468478Y-34858478D02*
G75*
G03*
X87630000Y-30420000I-1838478J1838478D01*
G01*
%TO.C,U7*%
X37736000Y-74870000D02*
X37736000Y-100390000D01*
X37736000Y-100390000D02*
X43036000Y-100390000D01*
X39386000Y-74870000D02*
X37736000Y-74870000D01*
X43036000Y-74870000D02*
X41386000Y-74870000D01*
X43036000Y-100390000D02*
X43036000Y-74870000D01*
X39386000Y-74870000D02*
G75*
G03*
X41386000Y-74870000I1000000J0D01*
G01*
%TO.C,Q1*%
X92180000Y-34870000D02*
X95780000Y-34870000D01*
X93980000Y-30420000D02*
G75*
G03*
X92141522Y-34858478I0J-2600000D01*
G01*
X95818478Y-34858478D02*
G75*
G03*
X93980000Y-30420000I-1838478J1838478D01*
G01*
%TO.C,U6*%
X53756000Y-59710000D02*
X50306000Y-59710000D01*
X53756000Y-59710000D02*
X55706000Y-59710000D01*
X53756000Y-69830000D02*
X51806000Y-69830000D01*
X53756000Y-69830000D02*
X55706000Y-69830000D01*
%TO.C,R17*%
X81688000Y-44653564D02*
X81688000Y-44199436D01*
X83158000Y-44653564D02*
X83158000Y-44199436D01*
%TO.C,D1*%
X101634000Y-118410000D02*
X101790000Y-118410000D01*
X103950000Y-118410000D02*
X104106000Y-118410000D01*
X101791392Y-115177666D02*
G75*
G03*
X101634485Y-118409999I1078608J-1672334D01*
G01*
X101790164Y-115808871D02*
G75*
G03*
X101790001Y-117890960I1079836J-1041129D01*
G01*
X103949999Y-117890960D02*
G75*
G03*
X103949836Y-115808871I-1079999J1040960D01*
G01*
X104105515Y-118409999D02*
G75*
G03*
X103948608Y-115177666I-1235515J1559999D01*
G01*
%TO.C,U5*%
X93110000Y-52060000D02*
X96560000Y-52060000D01*
X93110000Y-52060000D02*
X91160000Y-52060000D01*
X93110000Y-46940000D02*
X95060000Y-46940000D01*
X93110000Y-46940000D02*
X91160000Y-46940000D01*
%TO.C,R16*%
X86768000Y-44653564D02*
X86768000Y-44199436D01*
X88238000Y-44653564D02*
X88238000Y-44199436D01*
%TO.C,U3*%
X38190000Y-26730000D02*
X101810000Y-26730000D01*
X38190000Y-26730000D02*
X38190000Y-24130000D01*
X101810000Y-26730000D02*
X101810000Y-21530000D01*
X38190000Y-24130000D02*
X40790000Y-24130000D01*
X40790000Y-24130000D02*
X40790000Y-21530000D01*
X38190000Y-22860000D02*
X38190000Y-21530000D01*
X38190000Y-21530000D02*
X39520000Y-21530000D01*
X40790000Y-21530000D02*
X101810000Y-21530000D01*
%TO.C,J4*%
X62865000Y-116780000D02*
X52645000Y-116780000D01*
X62865000Y-116780000D02*
X62865000Y-119440000D01*
X52645000Y-116780000D02*
X52645000Y-119440000D01*
X65465000Y-118110000D02*
X65465000Y-119440000D01*
X65465000Y-119440000D02*
X64135000Y-119440000D01*
X62865000Y-119440000D02*
X52645000Y-119440000D01*
%TO.C,Y1*%
X87005000Y-54065000D02*
X81905000Y-54065000D01*
X81905000Y-54065000D02*
X81905000Y-66665000D01*
X87005000Y-66665000D02*
X87005000Y-54065000D01*
%TO.C,R19*%
X103605000Y-111532936D02*
X103605000Y-111987064D01*
X102135000Y-111532936D02*
X102135000Y-111987064D01*
%TO.C,R18*%
X84228000Y-44653564D02*
X84228000Y-44199436D01*
X85698000Y-44653564D02*
X85698000Y-44199436D01*
%TO.C,J3*%
X53280000Y-91440000D02*
X53280000Y-101660000D01*
X53280000Y-91440000D02*
X55940000Y-91440000D01*
X53280000Y-101660000D02*
X55940000Y-101660000D01*
X54610000Y-88840000D02*
X55940000Y-88840000D01*
X55940000Y-88840000D02*
X55940000Y-90170000D01*
X55940000Y-91440000D02*
X55940000Y-101660000D01*
%TO.C,BT1*%
X115910000Y-67220000D02*
X115910000Y-75020000D01*
X94810000Y-74920000D02*
X91910000Y-74920000D01*
X91910000Y-74920000D02*
X91910000Y-67320000D01*
X91910000Y-67320000D02*
X94810000Y-67320000D01*
X94910002Y-75019999D02*
G75*
G03*
X115909998Y-75020000I10499998J3899999D01*
G01*
X115909998Y-67220001D02*
G75*
G03*
X94877631Y-67308285I-10499998J-3899999D01*
G01*
%TO.C,R2*%
X90754564Y-37565000D02*
X90300436Y-37565000D01*
X90754564Y-36095000D02*
X90300436Y-36095000D01*
%TO.C,U4*%
X40292500Y-59630000D02*
X35842500Y-59630000D01*
X40292500Y-59630000D02*
X42942500Y-59630000D01*
X40292500Y-72450000D02*
X37642500Y-72450000D01*
X40292500Y-72450000D02*
X42942500Y-72450000D01*
%TD*%
M02*
