%TF.GenerationSoftware,KiCad,Pcbnew,(5.1.9)-1*%
%TF.CreationDate,2022-02-06T01:16:42-05:00*%
%TF.ProjectId,main,6d61696e-2e6b-4696-9361-645f70636258,rev?*%
%TF.SameCoordinates,Original*%
%TF.FileFunction,Legend,Bot*%
%TF.FilePolarity,Positive*%
%FSLAX46Y46*%
G04 Gerber Fmt 4.6, Leading zero omitted, Abs format (unit mm)*
G04 Created by KiCad (PCBNEW (5.1.9)-1) date 2022-02-06 01:16:42*
%MOMM*%
%LPD*%
G01*
G04 APERTURE LIST*
%ADD10C,0.120000*%
%ADD11C,0.150000*%
G04 APERTURE END LIST*
D10*
%TO.C,C18*%
X41735000Y-26511252D02*
X41735000Y-25988748D01*
X40265000Y-26511252D02*
X40265000Y-25988748D01*
%TO.C,R7*%
X42515000Y-29272936D02*
X42515000Y-29727064D01*
X43985000Y-29272936D02*
X43985000Y-29727064D01*
%TO.C,R11*%
X56742064Y-37565000D02*
X56287936Y-37565000D01*
X56742064Y-36095000D02*
X56287936Y-36095000D01*
%TO.C,R8*%
X36095000Y-75792064D02*
X36095000Y-75337936D01*
X37565000Y-75792064D02*
X37565000Y-75337936D01*
%TO.C,R3*%
X43407064Y-102335000D02*
X42952936Y-102335000D01*
X43407064Y-100865000D02*
X42952936Y-100865000D01*
%TO.C,Q4*%
X60000000Y-40765000D02*
X60000000Y-39305000D01*
X56840000Y-40765000D02*
X56840000Y-38605000D01*
X56840000Y-40765000D02*
X57770000Y-40765000D01*
X60000000Y-40765000D02*
X59070000Y-40765000D01*
%TO.C,Q2*%
X34800000Y-80955000D02*
X36260000Y-80955000D01*
X34800000Y-77795000D02*
X36960000Y-77795000D01*
X34800000Y-77795000D02*
X34800000Y-78725000D01*
X34800000Y-80955000D02*
X34800000Y-80025000D01*
%TO.C,C17*%
X47525000Y-39316252D02*
X47525000Y-38793748D01*
X48995000Y-39316252D02*
X48995000Y-38793748D01*
%TO.C,C16*%
X86479748Y-38381000D02*
X87002252Y-38381000D01*
X86479748Y-39851000D02*
X87002252Y-39851000D01*
%TO.C,C15*%
X40124748Y-47271000D02*
X40647252Y-47271000D01*
X40124748Y-48741000D02*
X40647252Y-48741000D01*
%TO.C,C14*%
X100591252Y-23849000D02*
X100068748Y-23849000D01*
X100591252Y-22379000D02*
X100068748Y-22379000D01*
%TO.C,C13*%
X69985000Y-34538748D02*
X69985000Y-35061252D01*
X68515000Y-34538748D02*
X68515000Y-35061252D01*
%TO.C,C12*%
X104240000Y-36822748D02*
X104240000Y-37345252D01*
X102770000Y-36822748D02*
X102770000Y-37345252D01*
%TO.C,C11*%
X92956748Y-31650000D02*
X93479252Y-31650000D01*
X92956748Y-33120000D02*
X93479252Y-33120000D01*
%TO.C,C10*%
X81399748Y-31650000D02*
X81922252Y-31650000D01*
X81399748Y-33120000D02*
X81922252Y-33120000D01*
%TO.C,C9*%
X73540252Y-40220000D02*
X73017748Y-40220000D01*
X73540252Y-38750000D02*
X73017748Y-38750000D01*
%TO.C,C8*%
X96400252Y-38835000D02*
X95877748Y-38835000D01*
X96400252Y-37365000D02*
X95877748Y-37365000D01*
%TO.C,C7*%
X62237252Y-36295000D02*
X61714748Y-36295000D01*
X62237252Y-34825000D02*
X61714748Y-34825000D01*
%TO.C,R12*%
X97890000Y-34975436D02*
X97890000Y-35429564D01*
X96420000Y-34975436D02*
X96420000Y-35429564D01*
%TO.C,R9*%
X47477064Y-36985000D02*
X47022936Y-36985000D01*
X47477064Y-35515000D02*
X47022936Y-35515000D01*
%TO.C,R6*%
X45185000Y-37022936D02*
X45185000Y-37477064D01*
X43715000Y-37022936D02*
X43715000Y-37477064D01*
%TO.C,R5*%
X42985000Y-37022936D02*
X42985000Y-37477064D01*
X41515000Y-37022936D02*
X41515000Y-37477064D01*
%TO.C,R1*%
X38835000Y-44857936D02*
X38835000Y-45312064D01*
X37365000Y-44857936D02*
X37365000Y-45312064D01*
%TO.C,R13*%
X66015000Y-33022936D02*
X66015000Y-33477064D01*
X67485000Y-33022936D02*
X67485000Y-33477064D01*
%TO.C,R10*%
X61695064Y-54002000D02*
X61240936Y-54002000D01*
X61695064Y-55472000D02*
X61240936Y-55472000D01*
%TO.C,R4*%
X88672936Y-33120000D02*
X89127064Y-33120000D01*
X88672936Y-31650000D02*
X89127064Y-31650000D01*
%TO.C,R2*%
X52477936Y-101700000D02*
X52932064Y-101700000D01*
X52477936Y-100230000D02*
X52932064Y-100230000D01*
%TO.C,C22*%
X105783748Y-31215000D02*
X106306252Y-31215000D01*
X105783748Y-29745000D02*
X106306252Y-29745000D01*
%TO.C,C21*%
X37726252Y-51970000D02*
X37203748Y-51970000D01*
X37726252Y-53440000D02*
X37203748Y-53440000D01*
%TO.C,C19*%
X66267000Y-25238748D02*
X66267000Y-25761252D01*
X64797000Y-25238748D02*
X64797000Y-25761252D01*
%TO.C,C6*%
X59936748Y-49938000D02*
X60459252Y-49938000D01*
X59936748Y-51408000D02*
X60459252Y-51408000D01*
%TO.C,C5*%
X37726252Y-87095000D02*
X37203748Y-87095000D01*
X37726252Y-85625000D02*
X37203748Y-85625000D01*
%TO.C,C4*%
X49141748Y-64670000D02*
X49664252Y-64670000D01*
X49141748Y-66140000D02*
X49664252Y-66140000D01*
%TO.C,C3*%
X105510000Y-82796748D02*
X105510000Y-83319252D01*
X104040000Y-82796748D02*
X104040000Y-83319252D01*
%TO.C,C2*%
X97690000Y-91667952D02*
X97690000Y-91145448D01*
X99160000Y-91667952D02*
X99160000Y-91145448D01*
%TO.C,C1*%
X51300748Y-96166000D02*
X51823252Y-96166000D01*
X51300748Y-97636000D02*
X51823252Y-97636000D01*
%TO.C,C18*%
D11*
X43037142Y-25607142D02*
X43084761Y-25559523D01*
X43132380Y-25416666D01*
X43132380Y-25321428D01*
X43084761Y-25178571D01*
X42989523Y-25083333D01*
X42894285Y-25035714D01*
X42703809Y-24988095D01*
X42560952Y-24988095D01*
X42370476Y-25035714D01*
X42275238Y-25083333D01*
X42180000Y-25178571D01*
X42132380Y-25321428D01*
X42132380Y-25416666D01*
X42180000Y-25559523D01*
X42227619Y-25607142D01*
X43132380Y-26559523D02*
X43132380Y-25988095D01*
X43132380Y-26273809D02*
X42132380Y-26273809D01*
X42275238Y-26178571D01*
X42370476Y-26083333D01*
X42418095Y-25988095D01*
X42560952Y-27130952D02*
X42513333Y-27035714D01*
X42465714Y-26988095D01*
X42370476Y-26940476D01*
X42322857Y-26940476D01*
X42227619Y-26988095D01*
X42180000Y-27035714D01*
X42132380Y-27130952D01*
X42132380Y-27321428D01*
X42180000Y-27416666D01*
X42227619Y-27464285D01*
X42322857Y-27511904D01*
X42370476Y-27511904D01*
X42465714Y-27464285D01*
X42513333Y-27416666D01*
X42560952Y-27321428D01*
X42560952Y-27130952D01*
X42608571Y-27035714D01*
X42656190Y-26988095D01*
X42751428Y-26940476D01*
X42941904Y-26940476D01*
X43037142Y-26988095D01*
X43084761Y-27035714D01*
X43132380Y-27130952D01*
X43132380Y-27321428D01*
X43084761Y-27416666D01*
X43037142Y-27464285D01*
X42941904Y-27511904D01*
X42751428Y-27511904D01*
X42656190Y-27464285D01*
X42608571Y-27416666D01*
X42560952Y-27321428D01*
%TO.C,R7*%
X42052380Y-29333333D02*
X41576190Y-29000000D01*
X42052380Y-28761904D02*
X41052380Y-28761904D01*
X41052380Y-29142857D01*
X41100000Y-29238095D01*
X41147619Y-29285714D01*
X41242857Y-29333333D01*
X41385714Y-29333333D01*
X41480952Y-29285714D01*
X41528571Y-29238095D01*
X41576190Y-29142857D01*
X41576190Y-28761904D01*
X41052380Y-29666666D02*
X41052380Y-30333333D01*
X42052380Y-29904761D01*
%TO.C,R11*%
X57157857Y-35632380D02*
X57491190Y-35156190D01*
X57729285Y-35632380D02*
X57729285Y-34632380D01*
X57348333Y-34632380D01*
X57253095Y-34680000D01*
X57205476Y-34727619D01*
X57157857Y-34822857D01*
X57157857Y-34965714D01*
X57205476Y-35060952D01*
X57253095Y-35108571D01*
X57348333Y-35156190D01*
X57729285Y-35156190D01*
X56205476Y-35632380D02*
X56776904Y-35632380D01*
X56491190Y-35632380D02*
X56491190Y-34632380D01*
X56586428Y-34775238D01*
X56681666Y-34870476D01*
X56776904Y-34918095D01*
X55253095Y-35632380D02*
X55824523Y-35632380D01*
X55538809Y-35632380D02*
X55538809Y-34632380D01*
X55634047Y-34775238D01*
X55729285Y-34870476D01*
X55824523Y-34918095D01*
%TO.C,R8*%
X37282380Y-72858333D02*
X36806190Y-72525000D01*
X37282380Y-72286904D02*
X36282380Y-72286904D01*
X36282380Y-72667857D01*
X36330000Y-72763095D01*
X36377619Y-72810714D01*
X36472857Y-72858333D01*
X36615714Y-72858333D01*
X36710952Y-72810714D01*
X36758571Y-72763095D01*
X36806190Y-72667857D01*
X36806190Y-72286904D01*
X36710952Y-73429761D02*
X36663333Y-73334523D01*
X36615714Y-73286904D01*
X36520476Y-73239285D01*
X36472857Y-73239285D01*
X36377619Y-73286904D01*
X36330000Y-73334523D01*
X36282380Y-73429761D01*
X36282380Y-73620238D01*
X36330000Y-73715476D01*
X36377619Y-73763095D01*
X36472857Y-73810714D01*
X36520476Y-73810714D01*
X36615714Y-73763095D01*
X36663333Y-73715476D01*
X36710952Y-73620238D01*
X36710952Y-73429761D01*
X36758571Y-73334523D01*
X36806190Y-73286904D01*
X36901428Y-73239285D01*
X37091904Y-73239285D01*
X37187142Y-73286904D01*
X37234761Y-73334523D01*
X37282380Y-73429761D01*
X37282380Y-73620238D01*
X37234761Y-73715476D01*
X37187142Y-73763095D01*
X37091904Y-73810714D01*
X36901428Y-73810714D01*
X36806190Y-73763095D01*
X36758571Y-73715476D01*
X36710952Y-73620238D01*
%TO.C,R3*%
X43346666Y-100402380D02*
X43680000Y-99926190D01*
X43918095Y-100402380D02*
X43918095Y-99402380D01*
X43537142Y-99402380D01*
X43441904Y-99450000D01*
X43394285Y-99497619D01*
X43346666Y-99592857D01*
X43346666Y-99735714D01*
X43394285Y-99830952D01*
X43441904Y-99878571D01*
X43537142Y-99926190D01*
X43918095Y-99926190D01*
X43013333Y-99402380D02*
X42394285Y-99402380D01*
X42727619Y-99783333D01*
X42584761Y-99783333D01*
X42489523Y-99830952D01*
X42441904Y-99878571D01*
X42394285Y-99973809D01*
X42394285Y-100211904D01*
X42441904Y-100307142D01*
X42489523Y-100354761D01*
X42584761Y-100402380D01*
X42870476Y-100402380D01*
X42965714Y-100354761D01*
X43013333Y-100307142D01*
%TO.C,Q4*%
X56467619Y-39909761D02*
X56420000Y-39814523D01*
X56324761Y-39719285D01*
X56181904Y-39576428D01*
X56134285Y-39481190D01*
X56134285Y-39385952D01*
X56372380Y-39433571D02*
X56324761Y-39338333D01*
X56229523Y-39243095D01*
X56039047Y-39195476D01*
X55705714Y-39195476D01*
X55515238Y-39243095D01*
X55420000Y-39338333D01*
X55372380Y-39433571D01*
X55372380Y-39624047D01*
X55420000Y-39719285D01*
X55515238Y-39814523D01*
X55705714Y-39862142D01*
X56039047Y-39862142D01*
X56229523Y-39814523D01*
X56324761Y-39719285D01*
X56372380Y-39624047D01*
X56372380Y-39433571D01*
X55705714Y-40719285D02*
X56372380Y-40719285D01*
X55324761Y-40481190D02*
X56039047Y-40243095D01*
X56039047Y-40862142D01*
%TO.C,Q2*%
X35655238Y-82462619D02*
X35750476Y-82415000D01*
X35845714Y-82319761D01*
X35988571Y-82176904D01*
X36083809Y-82129285D01*
X36179047Y-82129285D01*
X36131428Y-82367380D02*
X36226666Y-82319761D01*
X36321904Y-82224523D01*
X36369523Y-82034047D01*
X36369523Y-81700714D01*
X36321904Y-81510238D01*
X36226666Y-81415000D01*
X36131428Y-81367380D01*
X35940952Y-81367380D01*
X35845714Y-81415000D01*
X35750476Y-81510238D01*
X35702857Y-81700714D01*
X35702857Y-82034047D01*
X35750476Y-82224523D01*
X35845714Y-82319761D01*
X35940952Y-82367380D01*
X36131428Y-82367380D01*
X35321904Y-81462619D02*
X35274285Y-81415000D01*
X35179047Y-81367380D01*
X34940952Y-81367380D01*
X34845714Y-81415000D01*
X34798095Y-81462619D01*
X34750476Y-81557857D01*
X34750476Y-81653095D01*
X34798095Y-81795952D01*
X35369523Y-82367380D01*
X34750476Y-82367380D01*
%TO.C,C17*%
X50297142Y-38412142D02*
X50344761Y-38364523D01*
X50392380Y-38221666D01*
X50392380Y-38126428D01*
X50344761Y-37983571D01*
X50249523Y-37888333D01*
X50154285Y-37840714D01*
X49963809Y-37793095D01*
X49820952Y-37793095D01*
X49630476Y-37840714D01*
X49535238Y-37888333D01*
X49440000Y-37983571D01*
X49392380Y-38126428D01*
X49392380Y-38221666D01*
X49440000Y-38364523D01*
X49487619Y-38412142D01*
X50392380Y-39364523D02*
X50392380Y-38793095D01*
X50392380Y-39078809D02*
X49392380Y-39078809D01*
X49535238Y-38983571D01*
X49630476Y-38888333D01*
X49678095Y-38793095D01*
X49392380Y-39697857D02*
X49392380Y-40364523D01*
X50392380Y-39935952D01*
%TO.C,C16*%
X87383857Y-41153142D02*
X87431476Y-41200761D01*
X87574333Y-41248380D01*
X87669571Y-41248380D01*
X87812428Y-41200761D01*
X87907666Y-41105523D01*
X87955285Y-41010285D01*
X88002904Y-40819809D01*
X88002904Y-40676952D01*
X87955285Y-40486476D01*
X87907666Y-40391238D01*
X87812428Y-40296000D01*
X87669571Y-40248380D01*
X87574333Y-40248380D01*
X87431476Y-40296000D01*
X87383857Y-40343619D01*
X86431476Y-41248380D02*
X87002904Y-41248380D01*
X86717190Y-41248380D02*
X86717190Y-40248380D01*
X86812428Y-40391238D01*
X86907666Y-40486476D01*
X87002904Y-40534095D01*
X85574333Y-40248380D02*
X85764809Y-40248380D01*
X85860047Y-40296000D01*
X85907666Y-40343619D01*
X86002904Y-40486476D01*
X86050523Y-40676952D01*
X86050523Y-41057904D01*
X86002904Y-41153142D01*
X85955285Y-41200761D01*
X85860047Y-41248380D01*
X85669571Y-41248380D01*
X85574333Y-41200761D01*
X85526714Y-41153142D01*
X85479095Y-41057904D01*
X85479095Y-40819809D01*
X85526714Y-40724571D01*
X85574333Y-40676952D01*
X85669571Y-40629333D01*
X85860047Y-40629333D01*
X85955285Y-40676952D01*
X86002904Y-40724571D01*
X86050523Y-40819809D01*
%TO.C,C15*%
X41028857Y-50043142D02*
X41076476Y-50090761D01*
X41219333Y-50138380D01*
X41314571Y-50138380D01*
X41457428Y-50090761D01*
X41552666Y-49995523D01*
X41600285Y-49900285D01*
X41647904Y-49709809D01*
X41647904Y-49566952D01*
X41600285Y-49376476D01*
X41552666Y-49281238D01*
X41457428Y-49186000D01*
X41314571Y-49138380D01*
X41219333Y-49138380D01*
X41076476Y-49186000D01*
X41028857Y-49233619D01*
X40076476Y-50138380D02*
X40647904Y-50138380D01*
X40362190Y-50138380D02*
X40362190Y-49138380D01*
X40457428Y-49281238D01*
X40552666Y-49376476D01*
X40647904Y-49424095D01*
X39171714Y-49138380D02*
X39647904Y-49138380D01*
X39695523Y-49614571D01*
X39647904Y-49566952D01*
X39552666Y-49519333D01*
X39314571Y-49519333D01*
X39219333Y-49566952D01*
X39171714Y-49614571D01*
X39124095Y-49709809D01*
X39124095Y-49947904D01*
X39171714Y-50043142D01*
X39219333Y-50090761D01*
X39314571Y-50138380D01*
X39552666Y-50138380D01*
X39647904Y-50090761D01*
X39695523Y-50043142D01*
%TO.C,C14*%
X100972857Y-21791142D02*
X101020476Y-21838761D01*
X101163333Y-21886380D01*
X101258571Y-21886380D01*
X101401428Y-21838761D01*
X101496666Y-21743523D01*
X101544285Y-21648285D01*
X101591904Y-21457809D01*
X101591904Y-21314952D01*
X101544285Y-21124476D01*
X101496666Y-21029238D01*
X101401428Y-20934000D01*
X101258571Y-20886380D01*
X101163333Y-20886380D01*
X101020476Y-20934000D01*
X100972857Y-20981619D01*
X100020476Y-21886380D02*
X100591904Y-21886380D01*
X100306190Y-21886380D02*
X100306190Y-20886380D01*
X100401428Y-21029238D01*
X100496666Y-21124476D01*
X100591904Y-21172095D01*
X99163333Y-21219714D02*
X99163333Y-21886380D01*
X99401428Y-20838761D02*
X99639523Y-21553047D01*
X99020476Y-21553047D01*
%TO.C,C13*%
X68210142Y-36128142D02*
X68257761Y-36080523D01*
X68305380Y-35937666D01*
X68305380Y-35842428D01*
X68257761Y-35699571D01*
X68162523Y-35604333D01*
X68067285Y-35556714D01*
X67876809Y-35509095D01*
X67733952Y-35509095D01*
X67543476Y-35556714D01*
X67448238Y-35604333D01*
X67353000Y-35699571D01*
X67305380Y-35842428D01*
X67305380Y-35937666D01*
X67353000Y-36080523D01*
X67400619Y-36128142D01*
X68305380Y-37080523D02*
X68305380Y-36509095D01*
X68305380Y-36794809D02*
X67305380Y-36794809D01*
X67448238Y-36699571D01*
X67543476Y-36604333D01*
X67591095Y-36509095D01*
X67305380Y-37413857D02*
X67305380Y-38032904D01*
X67686333Y-37699571D01*
X67686333Y-37842428D01*
X67733952Y-37937666D01*
X67781571Y-37985285D01*
X67876809Y-38032904D01*
X68114904Y-38032904D01*
X68210142Y-37985285D01*
X68257761Y-37937666D01*
X68305380Y-37842428D01*
X68305380Y-37556714D01*
X68257761Y-37461476D01*
X68210142Y-37413857D01*
%TO.C,C12*%
X102182142Y-36441142D02*
X102229761Y-36393523D01*
X102277380Y-36250666D01*
X102277380Y-36155428D01*
X102229761Y-36012571D01*
X102134523Y-35917333D01*
X102039285Y-35869714D01*
X101848809Y-35822095D01*
X101705952Y-35822095D01*
X101515476Y-35869714D01*
X101420238Y-35917333D01*
X101325000Y-36012571D01*
X101277380Y-36155428D01*
X101277380Y-36250666D01*
X101325000Y-36393523D01*
X101372619Y-36441142D01*
X102277380Y-37393523D02*
X102277380Y-36822095D01*
X102277380Y-37107809D02*
X101277380Y-37107809D01*
X101420238Y-37012571D01*
X101515476Y-36917333D01*
X101563095Y-36822095D01*
X101372619Y-37774476D02*
X101325000Y-37822095D01*
X101277380Y-37917333D01*
X101277380Y-38155428D01*
X101325000Y-38250666D01*
X101372619Y-38298285D01*
X101467857Y-38345904D01*
X101563095Y-38345904D01*
X101705952Y-38298285D01*
X102277380Y-37726857D01*
X102277380Y-38345904D01*
%TO.C,C11*%
X93860857Y-34422142D02*
X93908476Y-34469761D01*
X94051333Y-34517380D01*
X94146571Y-34517380D01*
X94289428Y-34469761D01*
X94384666Y-34374523D01*
X94432285Y-34279285D01*
X94479904Y-34088809D01*
X94479904Y-33945952D01*
X94432285Y-33755476D01*
X94384666Y-33660238D01*
X94289428Y-33565000D01*
X94146571Y-33517380D01*
X94051333Y-33517380D01*
X93908476Y-33565000D01*
X93860857Y-33612619D01*
X92908476Y-34517380D02*
X93479904Y-34517380D01*
X93194190Y-34517380D02*
X93194190Y-33517380D01*
X93289428Y-33660238D01*
X93384666Y-33755476D01*
X93479904Y-33803095D01*
X91956095Y-34517380D02*
X92527523Y-34517380D01*
X92241809Y-34517380D02*
X92241809Y-33517380D01*
X92337047Y-33660238D01*
X92432285Y-33755476D01*
X92527523Y-33803095D01*
%TO.C,C10*%
X82303857Y-34422142D02*
X82351476Y-34469761D01*
X82494333Y-34517380D01*
X82589571Y-34517380D01*
X82732428Y-34469761D01*
X82827666Y-34374523D01*
X82875285Y-34279285D01*
X82922904Y-34088809D01*
X82922904Y-33945952D01*
X82875285Y-33755476D01*
X82827666Y-33660238D01*
X82732428Y-33565000D01*
X82589571Y-33517380D01*
X82494333Y-33517380D01*
X82351476Y-33565000D01*
X82303857Y-33612619D01*
X81351476Y-34517380D02*
X81922904Y-34517380D01*
X81637190Y-34517380D02*
X81637190Y-33517380D01*
X81732428Y-33660238D01*
X81827666Y-33755476D01*
X81922904Y-33803095D01*
X80732428Y-33517380D02*
X80637190Y-33517380D01*
X80541952Y-33565000D01*
X80494333Y-33612619D01*
X80446714Y-33707857D01*
X80399095Y-33898333D01*
X80399095Y-34136428D01*
X80446714Y-34326904D01*
X80494333Y-34422142D01*
X80541952Y-34469761D01*
X80637190Y-34517380D01*
X80732428Y-34517380D01*
X80827666Y-34469761D01*
X80875285Y-34422142D01*
X80922904Y-34326904D01*
X80970523Y-34136428D01*
X80970523Y-33898333D01*
X80922904Y-33707857D01*
X80875285Y-33612619D01*
X80827666Y-33565000D01*
X80732428Y-33517380D01*
%TO.C,C9*%
X73445666Y-38162142D02*
X73493285Y-38209761D01*
X73636142Y-38257380D01*
X73731380Y-38257380D01*
X73874238Y-38209761D01*
X73969476Y-38114523D01*
X74017095Y-38019285D01*
X74064714Y-37828809D01*
X74064714Y-37685952D01*
X74017095Y-37495476D01*
X73969476Y-37400238D01*
X73874238Y-37305000D01*
X73731380Y-37257380D01*
X73636142Y-37257380D01*
X73493285Y-37305000D01*
X73445666Y-37352619D01*
X72969476Y-38257380D02*
X72779000Y-38257380D01*
X72683761Y-38209761D01*
X72636142Y-38162142D01*
X72540904Y-38019285D01*
X72493285Y-37828809D01*
X72493285Y-37447857D01*
X72540904Y-37352619D01*
X72588523Y-37305000D01*
X72683761Y-37257380D01*
X72874238Y-37257380D01*
X72969476Y-37305000D01*
X73017095Y-37352619D01*
X73064714Y-37447857D01*
X73064714Y-37685952D01*
X73017095Y-37781190D01*
X72969476Y-37828809D01*
X72874238Y-37876428D01*
X72683761Y-37876428D01*
X72588523Y-37828809D01*
X72540904Y-37781190D01*
X72493285Y-37685952D01*
%TO.C,C8*%
X96305666Y-40108142D02*
X96353285Y-40155761D01*
X96496142Y-40203380D01*
X96591380Y-40203380D01*
X96734238Y-40155761D01*
X96829476Y-40060523D01*
X96877095Y-39965285D01*
X96924714Y-39774809D01*
X96924714Y-39631952D01*
X96877095Y-39441476D01*
X96829476Y-39346238D01*
X96734238Y-39251000D01*
X96591380Y-39203380D01*
X96496142Y-39203380D01*
X96353285Y-39251000D01*
X96305666Y-39298619D01*
X95734238Y-39631952D02*
X95829476Y-39584333D01*
X95877095Y-39536714D01*
X95924714Y-39441476D01*
X95924714Y-39393857D01*
X95877095Y-39298619D01*
X95829476Y-39251000D01*
X95734238Y-39203380D01*
X95543761Y-39203380D01*
X95448523Y-39251000D01*
X95400904Y-39298619D01*
X95353285Y-39393857D01*
X95353285Y-39441476D01*
X95400904Y-39536714D01*
X95448523Y-39584333D01*
X95543761Y-39631952D01*
X95734238Y-39631952D01*
X95829476Y-39679571D01*
X95877095Y-39727190D01*
X95924714Y-39822428D01*
X95924714Y-40012904D01*
X95877095Y-40108142D01*
X95829476Y-40155761D01*
X95734238Y-40203380D01*
X95543761Y-40203380D01*
X95448523Y-40155761D01*
X95400904Y-40108142D01*
X95353285Y-40012904D01*
X95353285Y-39822428D01*
X95400904Y-39727190D01*
X95448523Y-39679571D01*
X95543761Y-39631952D01*
%TO.C,C7*%
X62142666Y-34237142D02*
X62190285Y-34284761D01*
X62333142Y-34332380D01*
X62428380Y-34332380D01*
X62571238Y-34284761D01*
X62666476Y-34189523D01*
X62714095Y-34094285D01*
X62761714Y-33903809D01*
X62761714Y-33760952D01*
X62714095Y-33570476D01*
X62666476Y-33475238D01*
X62571238Y-33380000D01*
X62428380Y-33332380D01*
X62333142Y-33332380D01*
X62190285Y-33380000D01*
X62142666Y-33427619D01*
X61809333Y-33332380D02*
X61142666Y-33332380D01*
X61571238Y-34332380D01*
%TO.C,R12*%
X99258380Y-34663142D02*
X98782190Y-34329809D01*
X99258380Y-34091714D02*
X98258380Y-34091714D01*
X98258380Y-34472666D01*
X98306000Y-34567904D01*
X98353619Y-34615523D01*
X98448857Y-34663142D01*
X98591714Y-34663142D01*
X98686952Y-34615523D01*
X98734571Y-34567904D01*
X98782190Y-34472666D01*
X98782190Y-34091714D01*
X99258380Y-35615523D02*
X99258380Y-35044095D01*
X99258380Y-35329809D02*
X98258380Y-35329809D01*
X98401238Y-35234571D01*
X98496476Y-35139333D01*
X98544095Y-35044095D01*
X98353619Y-35996476D02*
X98306000Y-36044095D01*
X98258380Y-36139333D01*
X98258380Y-36377428D01*
X98306000Y-36472666D01*
X98353619Y-36520285D01*
X98448857Y-36567904D01*
X98544095Y-36567904D01*
X98686952Y-36520285D01*
X99258380Y-35948857D01*
X99258380Y-36567904D01*
%TO.C,R9*%
X50591666Y-36829380D02*
X50925000Y-36353190D01*
X51163095Y-36829380D02*
X51163095Y-35829380D01*
X50782142Y-35829380D01*
X50686904Y-35877000D01*
X50639285Y-35924619D01*
X50591666Y-36019857D01*
X50591666Y-36162714D01*
X50639285Y-36257952D01*
X50686904Y-36305571D01*
X50782142Y-36353190D01*
X51163095Y-36353190D01*
X50115476Y-36829380D02*
X49925000Y-36829380D01*
X49829761Y-36781761D01*
X49782142Y-36734142D01*
X49686904Y-36591285D01*
X49639285Y-36400809D01*
X49639285Y-36019857D01*
X49686904Y-35924619D01*
X49734523Y-35877000D01*
X49829761Y-35829380D01*
X50020238Y-35829380D01*
X50115476Y-35877000D01*
X50163095Y-35924619D01*
X50210714Y-36019857D01*
X50210714Y-36257952D01*
X50163095Y-36353190D01*
X50115476Y-36400809D01*
X50020238Y-36448428D01*
X49829761Y-36448428D01*
X49734523Y-36400809D01*
X49686904Y-36353190D01*
X49639285Y-36257952D01*
%TO.C,R6*%
X44902380Y-39750333D02*
X44426190Y-39417000D01*
X44902380Y-39178904D02*
X43902380Y-39178904D01*
X43902380Y-39559857D01*
X43950000Y-39655095D01*
X43997619Y-39702714D01*
X44092857Y-39750333D01*
X44235714Y-39750333D01*
X44330952Y-39702714D01*
X44378571Y-39655095D01*
X44426190Y-39559857D01*
X44426190Y-39178904D01*
X43902380Y-40607476D02*
X43902380Y-40417000D01*
X43950000Y-40321761D01*
X43997619Y-40274142D01*
X44140476Y-40178904D01*
X44330952Y-40131285D01*
X44711904Y-40131285D01*
X44807142Y-40178904D01*
X44854761Y-40226523D01*
X44902380Y-40321761D01*
X44902380Y-40512238D01*
X44854761Y-40607476D01*
X44807142Y-40655095D01*
X44711904Y-40702714D01*
X44473809Y-40702714D01*
X44378571Y-40655095D01*
X44330952Y-40607476D01*
X44283333Y-40512238D01*
X44283333Y-40321761D01*
X44330952Y-40226523D01*
X44378571Y-40178904D01*
X44473809Y-40131285D01*
%TO.C,R5*%
X42829380Y-39726833D02*
X42353190Y-39393500D01*
X42829380Y-39155404D02*
X41829380Y-39155404D01*
X41829380Y-39536357D01*
X41877000Y-39631595D01*
X41924619Y-39679214D01*
X42019857Y-39726833D01*
X42162714Y-39726833D01*
X42257952Y-39679214D01*
X42305571Y-39631595D01*
X42353190Y-39536357D01*
X42353190Y-39155404D01*
X41829380Y-40631595D02*
X41829380Y-40155404D01*
X42305571Y-40107785D01*
X42257952Y-40155404D01*
X42210333Y-40250642D01*
X42210333Y-40488738D01*
X42257952Y-40583976D01*
X42305571Y-40631595D01*
X42400809Y-40679214D01*
X42638904Y-40679214D01*
X42734142Y-40631595D01*
X42781761Y-40583976D01*
X42829380Y-40488738D01*
X42829380Y-40250642D01*
X42781761Y-40155404D01*
X42734142Y-40107785D01*
%TO.C,R1*%
X36902380Y-44918333D02*
X36426190Y-44585000D01*
X36902380Y-44346904D02*
X35902380Y-44346904D01*
X35902380Y-44727857D01*
X35950000Y-44823095D01*
X35997619Y-44870714D01*
X36092857Y-44918333D01*
X36235714Y-44918333D01*
X36330952Y-44870714D01*
X36378571Y-44823095D01*
X36426190Y-44727857D01*
X36426190Y-44346904D01*
X36902380Y-45870714D02*
X36902380Y-45299285D01*
X36902380Y-45585000D02*
X35902380Y-45585000D01*
X36045238Y-45489761D01*
X36140476Y-45394523D01*
X36188095Y-45299285D01*
%TO.C,R13*%
X65552380Y-32607142D02*
X65076190Y-32273809D01*
X65552380Y-32035714D02*
X64552380Y-32035714D01*
X64552380Y-32416666D01*
X64600000Y-32511904D01*
X64647619Y-32559523D01*
X64742857Y-32607142D01*
X64885714Y-32607142D01*
X64980952Y-32559523D01*
X65028571Y-32511904D01*
X65076190Y-32416666D01*
X65076190Y-32035714D01*
X65552380Y-33559523D02*
X65552380Y-32988095D01*
X65552380Y-33273809D02*
X64552380Y-33273809D01*
X64695238Y-33178571D01*
X64790476Y-33083333D01*
X64838095Y-32988095D01*
X64552380Y-33892857D02*
X64552380Y-34511904D01*
X64933333Y-34178571D01*
X64933333Y-34321428D01*
X64980952Y-34416666D01*
X65028571Y-34464285D01*
X65123809Y-34511904D01*
X65361904Y-34511904D01*
X65457142Y-34464285D01*
X65504761Y-34416666D01*
X65552380Y-34321428D01*
X65552380Y-34035714D01*
X65504761Y-33940476D01*
X65457142Y-33892857D01*
%TO.C,R10*%
X62110857Y-57094380D02*
X62444190Y-56618190D01*
X62682285Y-57094380D02*
X62682285Y-56094380D01*
X62301333Y-56094380D01*
X62206095Y-56142000D01*
X62158476Y-56189619D01*
X62110857Y-56284857D01*
X62110857Y-56427714D01*
X62158476Y-56522952D01*
X62206095Y-56570571D01*
X62301333Y-56618190D01*
X62682285Y-56618190D01*
X61158476Y-57094380D02*
X61729904Y-57094380D01*
X61444190Y-57094380D02*
X61444190Y-56094380D01*
X61539428Y-56237238D01*
X61634666Y-56332476D01*
X61729904Y-56380095D01*
X60539428Y-56094380D02*
X60444190Y-56094380D01*
X60348952Y-56142000D01*
X60301333Y-56189619D01*
X60253714Y-56284857D01*
X60206095Y-56475333D01*
X60206095Y-56713428D01*
X60253714Y-56903904D01*
X60301333Y-56999142D01*
X60348952Y-57046761D01*
X60444190Y-57094380D01*
X60539428Y-57094380D01*
X60634666Y-57046761D01*
X60682285Y-56999142D01*
X60729904Y-56903904D01*
X60777523Y-56713428D01*
X60777523Y-56475333D01*
X60729904Y-56284857D01*
X60682285Y-56189619D01*
X60634666Y-56142000D01*
X60539428Y-56094380D01*
%TO.C,R4*%
X89066666Y-34487380D02*
X89400000Y-34011190D01*
X89638095Y-34487380D02*
X89638095Y-33487380D01*
X89257142Y-33487380D01*
X89161904Y-33535000D01*
X89114285Y-33582619D01*
X89066666Y-33677857D01*
X89066666Y-33820714D01*
X89114285Y-33915952D01*
X89161904Y-33963571D01*
X89257142Y-34011190D01*
X89638095Y-34011190D01*
X88209523Y-33820714D02*
X88209523Y-34487380D01*
X88447619Y-33439761D02*
X88685714Y-34154047D01*
X88066666Y-34154047D01*
%TO.C,R2*%
X52871666Y-103067380D02*
X53205000Y-102591190D01*
X53443095Y-103067380D02*
X53443095Y-102067380D01*
X53062142Y-102067380D01*
X52966904Y-102115000D01*
X52919285Y-102162619D01*
X52871666Y-102257857D01*
X52871666Y-102400714D01*
X52919285Y-102495952D01*
X52966904Y-102543571D01*
X53062142Y-102591190D01*
X53443095Y-102591190D01*
X52490714Y-102162619D02*
X52443095Y-102115000D01*
X52347857Y-102067380D01*
X52109761Y-102067380D01*
X52014523Y-102115000D01*
X51966904Y-102162619D01*
X51919285Y-102257857D01*
X51919285Y-102353095D01*
X51966904Y-102495952D01*
X52538333Y-103067380D01*
X51919285Y-103067380D01*
%TO.C,C22*%
X106687857Y-32517142D02*
X106735476Y-32564761D01*
X106878333Y-32612380D01*
X106973571Y-32612380D01*
X107116428Y-32564761D01*
X107211666Y-32469523D01*
X107259285Y-32374285D01*
X107306904Y-32183809D01*
X107306904Y-32040952D01*
X107259285Y-31850476D01*
X107211666Y-31755238D01*
X107116428Y-31660000D01*
X106973571Y-31612380D01*
X106878333Y-31612380D01*
X106735476Y-31660000D01*
X106687857Y-31707619D01*
X106306904Y-31707619D02*
X106259285Y-31660000D01*
X106164047Y-31612380D01*
X105925952Y-31612380D01*
X105830714Y-31660000D01*
X105783095Y-31707619D01*
X105735476Y-31802857D01*
X105735476Y-31898095D01*
X105783095Y-32040952D01*
X106354523Y-32612380D01*
X105735476Y-32612380D01*
X105354523Y-31707619D02*
X105306904Y-31660000D01*
X105211666Y-31612380D01*
X104973571Y-31612380D01*
X104878333Y-31660000D01*
X104830714Y-31707619D01*
X104783095Y-31802857D01*
X104783095Y-31898095D01*
X104830714Y-32040952D01*
X105402142Y-32612380D01*
X104783095Y-32612380D01*
%TO.C,C21*%
X38107857Y-51382142D02*
X38155476Y-51429761D01*
X38298333Y-51477380D01*
X38393571Y-51477380D01*
X38536428Y-51429761D01*
X38631666Y-51334523D01*
X38679285Y-51239285D01*
X38726904Y-51048809D01*
X38726904Y-50905952D01*
X38679285Y-50715476D01*
X38631666Y-50620238D01*
X38536428Y-50525000D01*
X38393571Y-50477380D01*
X38298333Y-50477380D01*
X38155476Y-50525000D01*
X38107857Y-50572619D01*
X37726904Y-50572619D02*
X37679285Y-50525000D01*
X37584047Y-50477380D01*
X37345952Y-50477380D01*
X37250714Y-50525000D01*
X37203095Y-50572619D01*
X37155476Y-50667857D01*
X37155476Y-50763095D01*
X37203095Y-50905952D01*
X37774523Y-51477380D01*
X37155476Y-51477380D01*
X36203095Y-51477380D02*
X36774523Y-51477380D01*
X36488809Y-51477380D02*
X36488809Y-50477380D01*
X36584047Y-50620238D01*
X36679285Y-50715476D01*
X36774523Y-50763095D01*
%TO.C,C19*%
X64111142Y-24857142D02*
X64158761Y-24809523D01*
X64206380Y-24666666D01*
X64206380Y-24571428D01*
X64158761Y-24428571D01*
X64063523Y-24333333D01*
X63968285Y-24285714D01*
X63777809Y-24238095D01*
X63634952Y-24238095D01*
X63444476Y-24285714D01*
X63349238Y-24333333D01*
X63254000Y-24428571D01*
X63206380Y-24571428D01*
X63206380Y-24666666D01*
X63254000Y-24809523D01*
X63301619Y-24857142D01*
X64206380Y-25809523D02*
X64206380Y-25238095D01*
X64206380Y-25523809D02*
X63206380Y-25523809D01*
X63349238Y-25428571D01*
X63444476Y-25333333D01*
X63492095Y-25238095D01*
X64206380Y-26285714D02*
X64206380Y-26476190D01*
X64158761Y-26571428D01*
X64111142Y-26619047D01*
X63968285Y-26714285D01*
X63777809Y-26761904D01*
X63396857Y-26761904D01*
X63301619Y-26714285D01*
X63254000Y-26666666D01*
X63206380Y-26571428D01*
X63206380Y-26380952D01*
X63254000Y-26285714D01*
X63301619Y-26238095D01*
X63396857Y-26190476D01*
X63634952Y-26190476D01*
X63730190Y-26238095D01*
X63777809Y-26285714D01*
X63825428Y-26380952D01*
X63825428Y-26571428D01*
X63777809Y-26666666D01*
X63730190Y-26714285D01*
X63634952Y-26761904D01*
%TO.C,C6*%
X62340857Y-50839666D02*
X62293238Y-50887285D01*
X62245619Y-51030142D01*
X62245619Y-51125380D01*
X62293238Y-51268238D01*
X62388476Y-51363476D01*
X62483714Y-51411095D01*
X62674190Y-51458714D01*
X62817047Y-51458714D01*
X63007523Y-51411095D01*
X63102761Y-51363476D01*
X63198000Y-51268238D01*
X63245619Y-51125380D01*
X63245619Y-51030142D01*
X63198000Y-50887285D01*
X63150380Y-50839666D01*
X63245619Y-49982523D02*
X63245619Y-50173000D01*
X63198000Y-50268238D01*
X63150380Y-50315857D01*
X63007523Y-50411095D01*
X62817047Y-50458714D01*
X62436095Y-50458714D01*
X62340857Y-50411095D01*
X62293238Y-50363476D01*
X62245619Y-50268238D01*
X62245619Y-50077761D01*
X62293238Y-49982523D01*
X62340857Y-49934904D01*
X62436095Y-49887285D01*
X62674190Y-49887285D01*
X62769428Y-49934904D01*
X62817047Y-49982523D01*
X62864666Y-50077761D01*
X62864666Y-50268238D01*
X62817047Y-50363476D01*
X62769428Y-50411095D01*
X62674190Y-50458714D01*
%TO.C,C5*%
X35322142Y-85693333D02*
X35369761Y-85645714D01*
X35417380Y-85502857D01*
X35417380Y-85407619D01*
X35369761Y-85264761D01*
X35274523Y-85169523D01*
X35179285Y-85121904D01*
X34988809Y-85074285D01*
X34845952Y-85074285D01*
X34655476Y-85121904D01*
X34560238Y-85169523D01*
X34465000Y-85264761D01*
X34417380Y-85407619D01*
X34417380Y-85502857D01*
X34465000Y-85645714D01*
X34512619Y-85693333D01*
X34417380Y-86598095D02*
X34417380Y-86121904D01*
X34893571Y-86074285D01*
X34845952Y-86121904D01*
X34798333Y-86217142D01*
X34798333Y-86455238D01*
X34845952Y-86550476D01*
X34893571Y-86598095D01*
X34988809Y-86645714D01*
X35226904Y-86645714D01*
X35322142Y-86598095D01*
X35369761Y-86550476D01*
X35417380Y-86455238D01*
X35417380Y-86217142D01*
X35369761Y-86121904D01*
X35322142Y-86074285D01*
%TO.C,C4*%
X49569666Y-64262142D02*
X49617285Y-64309761D01*
X49760142Y-64357380D01*
X49855380Y-64357380D01*
X49998238Y-64309761D01*
X50093476Y-64214523D01*
X50141095Y-64119285D01*
X50188714Y-63928809D01*
X50188714Y-63785952D01*
X50141095Y-63595476D01*
X50093476Y-63500238D01*
X49998238Y-63405000D01*
X49855380Y-63357380D01*
X49760142Y-63357380D01*
X49617285Y-63405000D01*
X49569666Y-63452619D01*
X48712523Y-63690714D02*
X48712523Y-64357380D01*
X48950619Y-63309761D02*
X49188714Y-64024047D01*
X48569666Y-64024047D01*
%TO.C,C3*%
X103632142Y-82891333D02*
X103679761Y-82843714D01*
X103727380Y-82700857D01*
X103727380Y-82605619D01*
X103679761Y-82462761D01*
X103584523Y-82367523D01*
X103489285Y-82319904D01*
X103298809Y-82272285D01*
X103155952Y-82272285D01*
X102965476Y-82319904D01*
X102870238Y-82367523D01*
X102775000Y-82462761D01*
X102727380Y-82605619D01*
X102727380Y-82700857D01*
X102775000Y-82843714D01*
X102822619Y-82891333D01*
X102727380Y-83224666D02*
X102727380Y-83843714D01*
X103108333Y-83510380D01*
X103108333Y-83653238D01*
X103155952Y-83748476D01*
X103203571Y-83796095D01*
X103298809Y-83843714D01*
X103536904Y-83843714D01*
X103632142Y-83796095D01*
X103679761Y-83748476D01*
X103727380Y-83653238D01*
X103727380Y-83367523D01*
X103679761Y-83272285D01*
X103632142Y-83224666D01*
%TO.C,C2*%
X100462142Y-91240033D02*
X100509761Y-91192414D01*
X100557380Y-91049557D01*
X100557380Y-90954319D01*
X100509761Y-90811461D01*
X100414523Y-90716223D01*
X100319285Y-90668604D01*
X100128809Y-90620985D01*
X99985952Y-90620985D01*
X99795476Y-90668604D01*
X99700238Y-90716223D01*
X99605000Y-90811461D01*
X99557380Y-90954319D01*
X99557380Y-91049557D01*
X99605000Y-91192414D01*
X99652619Y-91240033D01*
X99652619Y-91620985D02*
X99605000Y-91668604D01*
X99557380Y-91763842D01*
X99557380Y-92001938D01*
X99605000Y-92097176D01*
X99652619Y-92144795D01*
X99747857Y-92192414D01*
X99843095Y-92192414D01*
X99985952Y-92144795D01*
X100557380Y-91573366D01*
X100557380Y-92192414D01*
%TO.C,C1*%
X51728666Y-98909142D02*
X51776285Y-98956761D01*
X51919142Y-99004380D01*
X52014380Y-99004380D01*
X52157238Y-98956761D01*
X52252476Y-98861523D01*
X52300095Y-98766285D01*
X52347714Y-98575809D01*
X52347714Y-98432952D01*
X52300095Y-98242476D01*
X52252476Y-98147238D01*
X52157238Y-98052000D01*
X52014380Y-98004380D01*
X51919142Y-98004380D01*
X51776285Y-98052000D01*
X51728666Y-98099619D01*
X50776285Y-99004380D02*
X51347714Y-99004380D01*
X51062000Y-99004380D02*
X51062000Y-98004380D01*
X51157238Y-98147238D01*
X51252476Y-98242476D01*
X51347714Y-98290095D01*
%TD*%
M02*
