M48
; DRILL file {KiCad (5.1.9)-1} date 02/06/22 01:16:45
; FORMAT={-:-/ absolute / inch / decimal}
; #@! TF.CreationDate,2022-02-06T01:16:45-05:00
; #@! TF.GenerationSoftware,Kicad,Pcbnew,(5.1.9)-1
; #@! TF.FileFunction,Plated,1,2,PTH
FMAT,2
INCH
T1C0.0118
T2C0.0197
T3C0.0295
T4C0.0315
T5C0.0394
T6C0.0591
%
G90
G05
T1
X1.032Y-2.9472
X1.119Y-2.6984
X1.2234Y-2.8642
X1.3365Y-3.3223
X1.3367Y-2.4433
X1.3631Y-2.7989
X1.4056Y-2.7302
X1.4177Y-3.674
X1.4305Y-2.4862
X1.4356Y-2.7924
X1.437Y-1.7656
X1.4632Y-2.8114
X1.476Y-2.7563
X1.5006Y-1.6223
X1.5034Y-2.9327
X1.6874Y-1.5465
X1.698Y-3.8634
X1.7591Y-1.6647
X1.8028Y-1.5031
X1.8084Y-2.4021
X1.8458Y-2.8007
X1.8985Y-2.8015
X1.9223Y-2.8245
X1.9383Y-2.8534
X1.9413Y-2.4342
X1.9682Y-2.398
X1.9779Y-2.3567
X2.0109Y-2.7055
X2.0267Y-1.7175
X2.0381Y-2.9071
X2.1339Y-2.8716
X2.1839Y-2.4755
X2.1891Y-1.4094
X2.4246Y-1.6482
X2.5517Y-1.8007
X2.6231Y-1.4408
X2.7686Y-2.929
X2.7831Y-1.1316
X2.7861Y-1.2786
X3.055Y-1.4246
X3.1043Y-1.3502
X3.2344Y-1.6299
X3.2506Y-1.5367
X3.3717Y-1.3039
X3.5906Y-2.3418
X3.6763Y-1.5673
X3.6792Y-1.6143
X3.6819Y-1.6514
X3.6961Y-2.949
X3.7285Y-1.7548
X3.7413Y-1.6901
X3.7421Y-0.9748
X3.743Y-2.9815
X3.8681Y-1.3091
X4.1243Y-1.7007
X4.1654Y-1.5387
X4.1666Y-2.8123
X4.1913Y-3.3914
X4.1997Y-1.5164
X4.221Y-3.363
X4.2557Y-3.334
X4.3017Y-2.9347
X4.3136Y-3.3021
X4.4722Y-2.5529
T2
X1.4376Y-3.2537
X1.5188Y-1.9298
X1.7058Y-2.8352
X1.7612Y-1.8767
X1.8496Y-2.5949
X1.9179Y-3.6749
X1.9429Y-1.5443
X2.0236Y-2.5851
X2.1587Y-2.0911
X2.386Y-1.524
X2.5154Y-1.3662
X2.7912Y-1.3314
X2.9606Y-1.5212
X3.3339Y-1.5168
X3.6002Y-1.3168
X3.6179Y-3.6033
X3.7089Y-1.5355
X3.8855Y-0.9561
X3.8878Y-1.5112
X4.0746Y-1.718
X4.0811Y-1.3545
X4.1426Y-3.3982
X4.5589Y-1.8033
T3
X1.6224Y-1.2795
X1.6724Y-1.2795
X1.7224Y-1.2795
X1.8504Y-1.2992
X1.9004Y-1.2992
X1.9504Y-1.2992
T4
X1.2622Y-1.025
X1.2622Y-1.4
X1.275Y-2.075
X1.275Y-2.175
X1.275Y-2.275
X1.275Y-2.375
X1.275Y-2.475
X1.275Y-2.575
X1.275Y-2.675
X1.275Y-2.775
X1.275Y-2.875
X1.275Y-2.975
X1.275Y-3.075
X1.275Y-3.175
X1.275Y-3.4
X1.275Y-3.5
X1.275Y-3.6
X1.275Y-3.7
X1.275Y-3.8
X1.275Y-3.9
X1.275Y-4.0
X1.275Y-4.1
X1.275Y-4.2
X1.275Y-4.3
X1.275Y-4.4
X1.275Y-4.5
X1.4Y-1.025
X1.4Y-1.4
X1.575Y-2.075
X1.575Y-2.175
X1.575Y-2.275
X1.575Y-2.375
X1.575Y-2.475
X1.575Y-2.575
X1.575Y-2.675
X1.575Y-2.775
X1.575Y-2.875
X1.575Y-2.975
X1.575Y-3.075
X1.575Y-3.175
X1.575Y-3.4
X1.575Y-3.5
X1.575Y-3.6
X1.575Y-3.7
X1.575Y-3.8
X1.575Y-3.9
X1.575Y-4.0
X1.575Y-4.1
X1.575Y-4.2
X1.575Y-4.3
X1.575Y-4.4
X1.575Y-4.5
X1.975Y-3.1087
X1.975Y-3.7087
X1.975Y-3.9
X1.975Y-4.5
X2.075Y-3.1087
X2.075Y-3.7087
X2.075Y-3.9
X2.075Y-4.5
X2.175Y-3.1087
X2.175Y-3.7087
X2.175Y-3.9
X2.175Y-4.5
X2.275Y-3.1087
X2.275Y-3.7087
X2.275Y-3.9
X2.275Y-4.5
X2.32Y-2.08
X2.32Y-2.68
X2.375Y-3.1087
X2.375Y-3.7087
X2.375Y-3.9
X2.375Y-4.5
X2.42Y-2.08
X2.42Y-2.68
X2.475Y-3.1087
X2.475Y-3.7087
X2.475Y-3.9
X2.475Y-4.5
X2.52Y-2.08
X2.52Y-2.68
X2.575Y-3.1087
X2.575Y-3.7087
X2.575Y-3.9
X2.575Y-4.5
X2.62Y-2.08
X2.62Y-2.68
X2.675Y-3.1087
X2.675Y-3.7087
X2.675Y-3.9
X2.675Y-4.5
X2.72Y-2.08
X2.72Y-2.68
X2.775Y-3.1087
X2.775Y-3.7087
X2.775Y-3.9
X2.775Y-4.5
X2.82Y-2.08
X2.82Y-2.68
X2.875Y-3.1087
X2.875Y-3.7087
X2.875Y-3.9
X2.875Y-4.5
X2.92Y-2.08
X2.92Y-2.68
X2.975Y-3.1087
X2.975Y-3.7087
X2.975Y-3.9
X2.975Y-4.5
X3.02Y-2.08
X3.02Y-2.68
X3.075Y-3.1087
X3.075Y-3.7087
X3.075Y-3.9
X3.075Y-4.5
X3.12Y-2.08
X3.12Y-2.68
X3.175Y-3.1087
X3.175Y-3.7087
X3.175Y-3.9
X3.175Y-4.5
X3.22Y-2.08
X3.22Y-2.68
X3.275Y-3.1087
X3.275Y-3.7087
X3.275Y-3.9
X3.275Y-4.5
X3.32Y-2.08
X3.32Y-2.68
X3.375Y-3.1087
X3.375Y-3.7087
X3.375Y-3.9
X3.375Y-4.5
X3.42Y-2.08
X3.42Y-2.68
X3.475Y-3.1087
X3.475Y-3.7087
X3.475Y-3.9
X3.475Y-4.5
X3.52Y-2.08
X3.52Y-2.68
X3.575Y-3.1087
X3.575Y-3.7087
X3.575Y-3.9
X3.575Y-4.5
X3.62Y-2.08
X3.62Y-2.68
X3.675Y-3.1087
X3.675Y-3.7087
X3.675Y-3.9
X3.675Y-4.5
X3.72Y-2.08
X3.72Y-2.68
X3.775Y-3.1087
X3.775Y-3.7087
X3.775Y-3.9
X3.775Y-4.5
X3.82Y-2.08
X3.82Y-2.68
X3.875Y-3.1087
X3.875Y-3.7087
X3.875Y-3.9
X3.875Y-4.5
X3.92Y-2.08
X3.92Y-2.68
X3.975Y-3.9
X3.975Y-4.5
X4.02Y-2.08
X4.02Y-2.68
X4.075Y-3.9
X4.075Y-4.5
X4.12Y-2.08
X4.12Y-2.68
X4.175Y-3.9
X4.175Y-4.5
X4.22Y-2.08
X4.22Y-2.68
X4.275Y-3.9
X4.275Y-4.5
X4.32Y-2.08
X4.32Y-2.68
X4.42Y-2.08
X4.42Y-2.68
X4.52Y-2.08
X4.52Y-2.68
X4.62Y-2.08
X4.62Y-2.68
T5
X0.8874Y-1.2047
X0.8874Y-1.3047
X0.8874Y-1.4047
X0.8874Y-1.5047
X0.8874Y-1.8059
X0.8874Y-1.9059
X0.8874Y-2.0059
X0.8874Y-2.1059
X0.8874Y-2.2059
X0.8874Y-2.3059
X0.8874Y-2.4059
X0.8874Y-2.5059
X0.8874Y-2.6059
X0.8874Y-2.7059
X0.8874Y-2.8059
X0.8874Y-2.9059
X0.8874Y-3.0059
X0.8874Y-3.1059
X0.8874Y-3.2059
X0.8874Y-3.3059
X0.8874Y-3.4059
X0.8874Y-3.5059
X0.8874Y-3.6059
X0.8874Y-3.7059
X0.8874Y-4.0071
X0.8874Y-4.1071
X0.8874Y-4.2071
X0.8874Y-4.3071
X0.9874Y-1.2047
X0.9874Y-1.3047
X0.9874Y-1.4047
X0.9874Y-1.5047
X0.9874Y-1.8059
X0.9874Y-1.9059
X0.9874Y-2.0059
X0.9874Y-2.1059
X0.9874Y-2.2059
X0.9874Y-2.3059
X0.9874Y-2.4059
X0.9874Y-2.5059
X0.9874Y-2.6059
X0.9874Y-2.7059
X0.9874Y-2.8059
X0.9874Y-2.9059
X0.9874Y-3.0059
X0.9874Y-3.1059
X0.9874Y-3.2059
X0.9874Y-3.3059
X0.9874Y-3.4059
X0.9874Y-3.5059
X0.9874Y-3.6059
X0.9874Y-3.7059
X0.9874Y-4.0071
X0.9874Y-4.1071
X0.9874Y-4.2071
X0.9874Y-4.3071
X2.185Y-0.8858
X2.285Y-0.8858
X2.385Y-0.8858
X2.485Y-0.8858
X2.585Y-0.8858
X2.685Y-0.8858
X2.785Y-0.8858
X2.885Y-0.8858
X2.985Y-0.8858
T5
G00X1.7972Y-1.1378
M15
G01X1.7972Y-1.0906
M16
G05
T6
G00X1.8169Y-0.9606
M15
G01X1.7776Y-0.9606
M16
G05
T0
M30
